

<svg width="328" height="328" viewBox="0 0 328 328" fill="none" xmlns="http://www.w3.org/2000/svg">
<g clip-path="url(#clip0)">
<path d="M229.494 315.329C191.922 315.329 161.465 284.872 161.465 247.3C161.465 209.729 191.922 179.271 229.494 179.271C267.065 179.271 297.523 209.729 297.523 247.3C297.523 284.872 267.065 315.329 229.494 315.329Z" fill="#F2F2F2"/>
<path d="M138.05 197.208L145.147 205.622C145.53 209.246 146.073 213.296 146.843 217.545L135.182 205.482L135.128 205.692C135.791 202.45 136.795 199.509 138.115 197.008L138.05 197.208Z" fill="#008FFF"/>
<path d="M145.081 204.986L138.206 196.835C139.707 194.046 141.607 191.818 143.878 190.355C143.996 190.279 144.115 190.207 144.234 190.136C144.232 191.127 144.261 196.943 145.081 204.986Z" fill="#008FFF"/>
<path d="M136.274 231.072L136.26 231.317C135.862 229.821 135.522 228.323 135.24 226.824L152.15 237.742L152.161 237.63C152.481 238.501 152.809 239.356 153.147 240.195L136.274 231.072Z" fill="#008FFF"/>
<path d="M134.26 217.806L134.225 218.038C134.032 213.978 134.32 209.91 135.084 205.918L146.966 218.212C147.706 222.19 148.577 225.977 149.579 229.572L134.26 217.806Z" fill="#008FFF"/>
<path d="M164.241 197.238C165.998 199.539 167.518 202.011 168.778 204.617L149.193 226.974C148.386 223.838 147.736 220.797 147.213 217.961L164.344 197.46L164.241 197.238Z" fill="#008FFF"/>
<path d="M170.161 207.687L170.062 207.462L149.95 229.777C149.733 229.013 149.526 228.253 149.328 227.497L168.986 205.058L168.885 204.834C169.329 205.753 169.755 206.703 170.161 207.687Z" fill="#008FFF"/>
<path d="M135.21 226.296L135.186 226.535C134.685 223.816 134.368 221.066 134.237 218.304L149.763 230.229C150.445 232.623 151.183 234.921 151.979 237.123L135.21 226.296Z" fill="#008FFF"/>
<path d="M157.621 249.491C160.252 254.071 163.234 257.942 166.536 261.06C162.884 259.586 148.169 253.096 140.542 241.392L157.621 249.491Z" fill="#008FFF"/>
<path d="M173.221 219.045C173.513 221.685 173.627 224.342 173.563 226.997L173.441 226.759L157.667 248.887C156.219 246.31 154.926 243.649 153.796 240.918L173.221 219.045Z" fill="#008FFF"/>
<path d="M145.372 204.962C144.487 196.259 144.534 190.195 144.535 190.108L144.385 190.047C147.936 187.988 151.86 188.06 155.682 189.889L145.372 204.962Z" fill="#008FFF"/>
<path d="M153.412 240.842C153.519 241.101 153.625 241.362 153.733 241.618C154.768 244.075 155.936 246.474 157.231 248.804L140.314 240.782L140.306 241.021C138.98 238.95 137.923 236.718 137.158 234.381C136.862 233.461 136.589 232.538 136.339 231.611L153.412 240.842Z" fill="#008FFF"/>
<path d="M147.11 217.395C146.352 213.194 145.817 209.192 145.439 205.61L155.986 190.192L155.875 189.981C158.747 191.402 161.556 193.815 164.102 197.06L147.11 217.395Z" fill="#008FFF"/>
<path d="M157.899 249.295L173.557 227.329C173.18 243.252 167.743 260.245 167.393 261.325C163.632 257.958 160.503 253.818 157.899 249.295Z" fill="#008FFF"/>
<path d="M153.614 240.447L153.598 240.438C152.249 237.12 151.08 233.731 150.096 230.287L170.257 207.917C170.802 209.252 171.308 210.642 171.775 212.088C172.426 214.162 172.886 216.292 173.15 218.449L153.614 240.447Z" fill="#008FFF"/>
<path d="M122.095 262.58L132.928 264.534C135.535 267.082 138.536 269.854 141.839 272.636L125.164 270.782L125.256 270.979C123.7 268.059 122.597 265.154 122.018 262.385L122.095 262.58Z" fill="#008FFF"/>
<path d="M132.472 264.087L121.978 262.194C121.354 259.088 121.397 256.16 122.213 253.586C122.255 253.452 122.301 253.321 122.348 253.19C122.978 253.954 126.71 258.415 132.472 264.087Z" fill="#008FFF"/>
<path d="M142.327 289.795L142.471 289.992C141.211 289.094 139.994 288.157 138.82 287.183L158.808 284.806L158.745 284.713C159.547 285.18 160.346 285.629 161.14 286.059L142.327 289.795Z" fill="#008FFF"/>
<path d="M132.314 280.863L132.435 281.063C129.697 278.06 127.324 274.743 125.366 271.181L142.359 273.07C145.467 275.663 148.553 278.024 151.617 280.154L132.314 280.863Z" fill="#008FFF"/>
<path d="M142.287 245.899C145.107 246.55 147.854 247.484 150.487 248.688L149.662 278.399C147.041 276.498 144.601 274.57 142.39 272.72L142.507 246.004L142.287 245.899Z" fill="#008FFF"/>
<path d="M153.511 250.17L153.291 250.061L152.033 280.075C151.379 279.624 150.735 279.171 150.101 278.715L150.929 248.895L150.708 248.787C151.636 249.211 152.57 249.672 153.511 250.17Z" fill="#008FFF"/>
<path d="M138.461 286.796L138.595 286.995C136.474 285.22 134.476 283.304 132.614 281.261L152.178 280.542C154.23 281.951 156.264 283.25 158.282 284.439L138.461 286.796Z" fill="#008FFF"/>
<path d="M170.516 290.365C175.463 292.214 180.229 293.294 184.761 293.589C181.008 294.784 165.535 299.171 152.197 295.021L170.516 290.365Z" fill="#008FFF"/>
<path d="M163.111 256.966C165.02 258.814 166.802 260.787 168.447 262.873L168.201 262.768L170.166 289.871C167.407 288.81 164.714 287.585 162.101 286.202L163.111 256.966Z" fill="#008FFF"/>
<path d="M132.68 263.882C126.447 257.744 122.616 253.043 122.561 252.976L122.407 253.024C123.829 249.174 126.897 246.726 131.008 245.698L132.68 263.882Z" fill="#008FFF"/>
<path d="M161.758 286.389C162.005 286.52 162.253 286.654 162.5 286.782C164.864 288.014 167.293 289.117 169.777 290.085L151.631 294.696L151.778 294.886C149.435 294.136 147.198 293.092 145.118 291.779C144.303 291.26 143.504 290.723 142.72 290.169L161.758 286.389Z" fill="#008FFF"/>
<path d="M141.949 272.35C138.686 269.598 135.721 266.857 133.145 264.339L131.434 245.737L131.214 245.646C134.333 244.908 138.036 244.974 142.066 245.851L141.949 272.35Z" fill="#008FFF"/>
<path d="M170.604 290.037L168.654 263.132C178.519 275.636 185.17 292.192 185.59 293.248C180.546 293.053 175.495 291.86 170.604 290.037Z" fill="#008FFF"/>
<path d="M161.661 285.956L161.643 285.959C158.488 284.264 155.426 282.399 152.471 280.375L153.732 250.286C155.003 250.967 156.279 251.715 157.561 252.531C159.385 253.713 161.098 255.059 162.677 256.553L161.661 285.956Z" fill="#008FFF"/>
<path d="M178.359 226.357L182.507 236.553C181.751 240.118 181.016 244.138 180.435 248.416L173.074 233.339L172.957 233.523C174.59 230.645 176.454 228.158 178.482 226.187L178.359 226.357Z" fill="#008FFF"/>
<path d="M182.641 235.928L178.622 226.051C180.911 223.862 183.407 222.33 186.019 221.641C186.155 221.606 186.29 221.574 186.425 221.543C186.117 222.485 184.347 228.025 182.641 235.928Z" fill="#008FFF"/>
<path d="M166.203 258.015L166.113 258.242C166.197 256.697 166.337 255.167 166.532 253.654L179.239 269.264L179.284 269.162C179.319 270.089 179.367 271.004 179.429 271.905L166.203 258.015Z" fill="#008FFF"/>
<path d="M168.387 244.775L168.283 244.985C169.354 241.064 170.885 237.285 172.845 233.724L180.346 249.089C179.82 253.101 179.477 256.972 179.319 260.7L168.387 244.775Z" fill="#008FFF"/>
<path d="M203.258 234.482C204.218 237.212 204.899 240.033 205.292 242.901L179.755 258.11C179.958 254.878 180.279 251.785 180.658 248.927L203.287 234.724L203.258 234.482Z" fill="#008FFF"/>
<path d="M205.659 246.248L205.633 246.004L179.609 261.009C179.639 260.216 179.677 259.429 179.723 258.649L205.353 243.385L205.326 243.141C205.465 244.152 205.576 245.187 205.659 246.248Z" fill="#008FFF"/>
<path d="M166.666 253.143L166.57 253.363C166.934 250.622 167.482 247.909 168.211 245.242L179.291 261.382C179.2 263.869 179.192 266.283 179.267 268.623L166.666 253.143Z" fill="#008FFF"/>
<path d="M180.811 282.129C181.898 287.298 183.537 291.902 185.714 295.887C182.695 293.357 170.707 282.637 167.072 269.148L180.811 282.129Z" fill="#008FFF"/>
<path d="M205.057 257.996C204.519 260.597 203.806 263.159 202.925 265.665L202.882 265.4L181.041 281.569C180.46 278.671 180.053 275.741 179.823 272.794L205.057 257.996Z" fill="#008FFF"/>
<path d="M182.925 235.994C184.773 227.444 186.693 221.692 186.721 221.609L186.597 221.505C190.61 220.645 194.32 221.926 197.39 224.847L182.925 235.994Z" fill="#008FFF"/>
<path d="M179.481 272.603C179.503 272.882 179.523 273.163 179.547 273.44C179.771 276.097 180.14 278.739 180.652 281.355L167.043 268.497L166.961 268.723C166.341 266.343 166.025 263.894 166.021 261.434C166.023 260.468 166.049 259.505 166.097 258.547L179.481 272.603Z" fill="#008FFF"/>
<path d="M180.735 248.357C181.313 244.127 182.041 240.155 182.789 236.632L197.585 225.229L197.544 224.994C199.837 227.233 201.763 230.396 203.18 234.27L180.735 248.357Z" fill="#008FFF"/>
<path d="M181.136 282.029L202.817 265.978C197.536 281.005 187.113 295.485 186.446 296.405C183.91 292.04 182.214 287.135 181.136 282.029Z" fill="#008FFF"/>
<path d="M179.796 272.29L179.783 272.277C179.526 268.704 179.461 265.12 179.59 261.54L205.678 246.498C205.784 247.935 205.835 249.414 205.833 250.934C205.811 253.107 205.59 255.274 205.174 257.408L179.796 272.29Z" fill="#008FFF"/>
<path d="M210 317.119C149.249 317.119 100 314.27 100 310.754C100 307.239 149.249 304.389 210 304.389C270.751 304.389 320 307.239 320 310.754C320 314.27 270.751 317.119 210 317.119Z" fill="#3F3D56"/>
<path opacity="0.1" d="M171.808 302.645C171.808 315.017 189.052 311.19 210.166 311.19C231.28 311.19 248.268 315.017 248.268 302.645C248.268 290.274 231.026 287.583 209.912 287.583C188.799 287.583 171.808 290.274 171.808 302.645Z" fill="black"/>
<path d="M171.808 299.599C171.808 311.971 189.052 308.144 210.166 308.144C231.28 308.144 248.268 311.971 248.268 299.599C248.268 287.228 231.026 284.537 209.912 284.537C188.799 284.537 171.808 287.228 171.808 299.599Z" fill="#3F3D56"/>
<path d="M234.764 275.683C225.316 275.683 217.657 268.024 217.657 258.577C217.657 249.129 225.316 241.47 234.764 241.47C244.212 241.47 251.871 249.129 251.871 258.577C251.871 268.024 244.212 275.683 234.764 275.683Z" fill="#E94900"/>
<path d="M243.465 233.171H243.465C246.628 234.232 250.072 234.076 253.127 232.734C256.181 231.392 258.625 228.959 259.982 225.912L278.525 184.268C279.542 181.982 280.071 179.509 280.077 177.007C280.083 174.505 279.566 172.029 278.56 169.739C277.553 167.448 276.079 165.393 274.231 163.706C272.384 162.018 270.204 160.735 267.832 159.94L267.832 159.94C265.448 159.14 262.922 158.849 260.419 159.088C257.916 159.326 255.49 160.087 253.3 161.323C251.109 162.558 249.203 164.239 247.704 166.258C246.205 168.277 245.146 170.589 244.597 173.043L234.643 217.528C233.919 220.765 234.419 224.155 236.049 227.044C237.678 229.933 240.32 232.116 243.465 233.171Z" fill="#E94900"/>
<path opacity="0.1" d="M234.764 275.683C225.316 275.683 217.657 268.024 217.657 258.577C217.657 249.129 225.316 241.47 234.764 241.47C244.212 241.47 251.871 249.129 251.871 258.577C251.871 268.024 244.212 275.683 234.764 275.683Z" fill="#FF6823"/>
<path opacity="0.1" d="M243.465 233.171H243.465C246.628 234.232 250.072 234.076 253.127 232.734C256.181 231.392 258.625 228.959 259.982 225.912L278.525 184.268C279.542 181.982 280.071 179.509 280.077 177.007C280.083 174.505 279.566 172.029 278.56 169.739C277.553 167.448 276.079 165.393 274.231 163.706C272.384 162.018 270.204 160.735 267.832 159.94L267.832 159.94C265.448 159.14 262.922 158.849 260.419 159.088C257.916 159.326 255.49 160.087 253.3 161.323C251.109 162.558 249.203 164.239 247.704 166.258C246.205 168.277 245.146 170.589 244.597 173.043L234.643 217.528C233.919 220.765 234.419 224.155 236.049 227.044C237.678 229.933 240.32 232.116 243.465 233.171Z" fill="#FF6823"/>
<path d="M235.397 270.416C227.817 270.416 221.672 264.271 221.672 256.691C221.672 249.111 227.817 242.966 235.397 242.966C242.977 242.966 249.122 249.111 249.122 256.691C249.122 264.271 242.977 270.416 235.397 270.416Z" fill="#FF6823"/>
<path d="M245.095 228.263H245.095C247.997 229.237 251.157 229.094 253.96 227.862C256.762 226.63 259.005 224.399 260.25 221.602L277.263 183.393C278.197 181.296 278.682 179.027 278.688 176.731C278.693 174.435 278.219 172.164 277.295 170.062C276.372 167.96 275.019 166.075 273.324 164.527C271.629 162.978 269.629 161.801 267.452 161.071L267.452 161.071C265.265 160.337 262.948 160.071 260.651 160.29C258.354 160.508 256.128 161.207 254.119 162.34C252.109 163.474 250.36 165.016 248.984 166.869C247.609 168.721 246.637 170.842 246.134 173.094L237 213.91C236.336 216.88 236.795 219.991 238.29 222.641C239.785 225.292 242.209 227.295 245.095 228.263Z" fill="#FF6823"/>
</g>
<defs>
<clipPath id="clip0">
<rect width="220" height="158.119" fill="white" transform="matrix(-1 0 0 1 320 159)"/>
</clipPath>
</defs>
</svg>
