<svg width="328" height="328" viewBox="0 0 328 328" fill="none" xmlns="http://www.w3.org/2000/svg">
<g clip-path="url(#clip0)">
<path d="M185.259 264.155C185.259 264.155 211.819 260.967 221.116 255.921C230.412 250.874 299.469 248.484 299.469 264.155C299.469 279.825 220.053 286.731 220.053 286.731L178.353 284.34L185.259 264.155Z" fill="#FBBEBE"/>
<path opacity="0.1" d="M185.259 264.155C185.259 264.155 211.819 260.967 221.116 255.921C230.412 250.874 299.469 248.484 299.469 264.155C299.469 279.825 220.053 286.731 220.053 286.731L178.353 284.34L185.259 264.155Z" fill="black"/>
<path d="M192.961 261.233L187.384 277.435L100 278.497V254.593C100 254.593 133.466 246.89 160.027 263.358C160.027 263.358 191.368 259.639 192.961 261.233Z" fill="#008FFF"/>
<path opacity="0.1" d="M192.961 261.207L187.384 277.409L100 278.471V254.567C100 254.567 133.466 246.864 160.027 263.332C160.027 263.332 191.368 259.613 192.961 261.207Z" fill="black"/>
<path d="M292.868 254.46C292.868 255.365 290.838 256.037 290.638 256.91C290.44 257.777 291.646 259.094 291.265 259.921C290.87 260.767 290.404 261.577 289.871 262.344C289.371 263.059 287.827 262.955 287.194 263.626C286.574 264.236 285.917 264.807 285.227 265.336C284.555 265.895 283.645 266.013 282.881 266.527C282.154 267.016 282.242 268.81 281.438 269.256C280.67 269.682 279.495 269.339 278.662 269.722C277.862 270.089 277.44 271.417 276.586 271.742C275.761 272.055 274.741 271.92 273.869 272.192C273.026 272.454 272.082 272.412 271.198 272.633C270.339 272.847 269.684 274.134 268.791 274.308C267.921 274.477 266.901 274.026 266.002 274.154C265.123 274.279 264.102 273.167 263.198 273.251C262.314 273.334 261.48 273.848 260.574 273.89C259.686 273.931 258.808 274.322 257.902 274.322C256.996 274.322 256.061 275.172 255.173 275.131C254.267 275.089 253.447 273.801 252.562 273.719C251.659 273.635 250.581 274.98 249.702 274.855C248.803 274.727 248.09 273.41 247.22 273.241C246.327 273.068 245.173 274.009 244.315 273.794C243.431 273.573 242.906 272.041 242.062 271.778C241.191 271.507 240.11 271.874 239.286 271.561C238.431 271.236 237.39 271.288 236.59 270.921C235.757 270.538 235.159 269.633 234.391 269.207C233.587 268.762 233.217 267.657 232.49 267.168C231.726 266.653 230.562 266.719 229.89 266.16C229.18 265.57 227.851 265.539 227.252 264.905C226.619 264.233 226.363 263.106 225.863 262.39C225.336 261.636 226.37 260.042 226.002 259.245C225.62 258.418 224.025 258.082 223.828 257.216C223.623 256.311 223.519 255.387 223.515 254.46C223.515 253.555 224.879 252.863 225.079 251.99C225.277 251.124 224.273 249.88 224.654 249.052C225.022 248.255 224.975 247.03 225.502 246.276C226.002 245.56 227.25 245.279 227.883 244.608C228.482 243.973 229.553 243.796 230.263 243.206C230.935 242.647 230.849 240.962 231.613 240.448C232.34 239.959 233.354 239.735 234.158 239.29C234.926 238.864 236.013 238.936 236.846 238.553C237.645 238.186 238.898 238.91 239.752 238.585C240.577 238.272 241.246 237.587 242.117 237.316C242.961 237.053 243.357 235.051 244.241 234.829C245.099 234.615 246.156 234.971 247.048 234.798C247.918 234.629 249.089 236.209 249.989 236.081C250.867 235.956 251.524 233.846 252.428 233.762C253.312 233.68 254.31 234.772 255.216 234.731C256.104 234.69 256.996 235.33 257.902 235.33C258.808 235.33 259.71 234.452 260.598 234.492C261.504 234.534 262.303 235.695 263.187 235.777C264.091 235.861 265.201 234.096 266.079 234.221C266.979 234.349 267.674 235.714 268.544 235.883C269.437 236.056 270.556 235.209 271.414 235.423C272.298 235.644 272.83 237.095 273.674 237.358C274.545 237.629 275.082 238.653 275.907 238.966C276.762 239.291 278.35 237.771 279.15 238.138C279.983 238.521 280.702 239.183 281.47 239.609C282.274 240.054 283.551 239.83 284.278 240.319C285.042 240.834 285.23 242.215 285.902 242.774C286.612 243.364 287.782 243.542 288.381 244.176C289.014 244.848 289.102 246.051 289.602 246.767C290.128 247.521 290.112 248.566 290.479 249.363C290.861 250.19 291.879 250.815 292.077 251.681C292.277 252.554 292.868 253.555 292.868 254.46Z" fill="#3F3D56"/>
<path d="M197.211 271.06C197.211 271.06 227.225 255.655 246.614 261.499C266.003 267.342 293.094 257.249 296.282 260.702C299.469 264.155 303.984 301.339 265.737 303.464C227.49 305.589 194.821 297.09 194.821 297.09L197.211 271.06Z" fill="#FBBEBE"/>
<path d="M190.143 269.42C190.143 269.42 201.992 268.67 201.461 272.919C200.93 277.169 200.398 310.104 197.211 310.901C194.024 311.698 168.792 311.698 158.433 311.698H100V260.778C100 260.778 141.434 258.311 162.151 268.67C162.151 268.67 187.059 268.31 190.143 269.42Z" fill="#008FFF"/>
<path d="M245.652 189.774C244.52 189.838 243.428 190.216 242.499 190.866C241.569 191.516 240.839 192.412 240.391 193.453C239.075 196.633 240.769 200.369 243.312 202.688C245.855 205.007 249.122 206.333 252.09 208.075C256.076 210.416 259.659 213.664 261.653 217.835C263.648 222.005 263.86 227.171 261.516 231.155C259.339 234.852 255.382 237.066 251.608 239.107" stroke="#3F3D56" stroke-miterlimit="10"/>
<path d="M256.276 170.385C255.144 170.449 254.052 170.827 253.123 171.477C252.193 172.127 251.463 173.022 251.015 174.064C249.699 177.244 251.393 180.98 253.936 183.299C256.479 185.618 259.746 186.944 262.714 188.686C266.7 191.026 270.283 194.275 272.277 198.445C274.272 202.616 274.484 207.781 272.14 211.765C269.963 215.463 266.006 217.676 262.232 219.718" stroke="#3F3D56" stroke-miterlimit="10"/>
<path d="M291.208 174.844C290.273 174.202 289.179 173.832 288.046 173.777C286.913 173.722 285.788 173.984 284.795 174.532C281.808 176.242 280.861 180.233 281.452 183.623C282.043 187.014 283.814 190.062 285.095 193.256C286.814 197.547 287.658 202.309 286.682 206.828C285.707 211.347 282.712 215.561 278.419 217.276C274.435 218.868 269.951 218.195 265.717 217.499" stroke="#3F3D56" stroke-miterlimit="10"/>
<path d="M260.425 214.927C263.946 214.927 266.799 213.541 266.799 211.831C266.799 210.121 263.946 208.734 260.425 208.734C256.904 208.734 254.051 210.121 254.051 211.831C254.051 213.541 256.904 214.927 260.425 214.927Z" fill="#57B894"/>
<path d="M259.628 214.395C263.149 214.395 266.003 213.009 266.003 211.299C266.003 209.589 263.149 208.203 259.628 208.203C256.108 208.203 253.254 209.589 253.254 211.299C253.254 213.009 256.108 214.395 259.628 214.395Z" stroke="#3F3D56" stroke-miterlimit="10"/>
<path d="M274.236 212.271C277.757 212.271 280.611 210.885 280.611 209.175C280.611 207.465 277.757 206.078 274.236 206.078C270.716 206.078 267.862 207.465 267.862 209.175C267.862 210.885 270.716 212.271 274.236 212.271Z" fill="#57B894"/>
<path d="M273.44 211.739C276.96 211.739 279.814 210.353 279.814 208.643C279.814 206.933 276.96 205.547 273.44 205.547C269.919 205.547 267.065 206.933 267.065 208.643C267.065 210.353 269.919 211.739 273.44 211.739Z" stroke="#3F3D56" stroke-miterlimit="10"/>
<path d="M276.361 223.957C279.882 223.957 282.736 222.571 282.736 220.861C282.736 219.151 279.882 217.765 276.361 217.765C272.841 217.765 269.987 219.151 269.987 220.861C269.987 222.571 272.841 223.957 276.361 223.957Z" fill="#57B894"/>
<path d="M275.564 223.426C279.085 223.426 281.939 222.04 281.939 220.33C281.939 218.62 279.085 217.234 275.564 217.234C272.044 217.234 269.19 218.62 269.19 220.33C269.19 222.04 272.044 223.426 275.564 223.426Z" stroke="#3F3D56" stroke-miterlimit="10"/>
<path d="M275.033 194.741C278.554 194.741 281.408 193.355 281.408 191.645C281.408 189.935 278.554 188.548 275.033 188.548C271.513 188.548 268.659 189.935 268.659 191.645C268.659 193.355 271.513 194.741 275.033 194.741Z" fill="#57B894"/>
<path d="M274.236 194.21C277.757 194.21 280.611 192.824 280.611 191.114C280.611 189.404 277.757 188.017 274.236 188.017C270.716 188.017 267.862 189.404 267.862 191.114C267.862 192.824 270.716 194.21 274.236 194.21Z" stroke="#3F3D56" stroke-miterlimit="10"/>
<path d="M259.097 192.882C262.617 192.882 265.471 191.495 265.471 189.785C265.471 188.075 262.617 186.689 259.097 186.689C255.576 186.689 252.722 188.075 252.722 189.785C252.722 191.495 255.576 192.882 259.097 192.882Z" fill="#57B894"/>
<path d="M258.3 192.35C261.821 192.35 264.675 190.964 264.675 189.254C264.675 187.544 261.821 186.158 258.3 186.158C254.779 186.158 251.926 187.544 251.926 189.254C251.926 190.964 254.779 192.35 258.3 192.35Z" stroke="#3F3D56" stroke-miterlimit="10"/>
<path d="M266.268 186.241C269.789 186.241 272.643 184.855 272.643 183.145C272.643 181.435 269.789 180.049 266.268 180.049C262.748 180.049 259.894 181.435 259.894 183.145C259.894 184.855 262.748 186.241 266.268 186.241Z" fill="#57B894"/>
<path d="M265.471 185.71C268.992 185.71 271.846 184.324 271.846 182.614C271.846 180.904 268.992 179.518 265.471 179.518C261.951 179.518 259.097 180.904 259.097 182.614C259.097 184.324 261.951 185.71 265.471 185.71Z" stroke="#3F3D56" stroke-miterlimit="10"/>
<path d="M281.939 187.57C285.459 187.57 288.313 186.183 288.313 184.473C288.313 182.763 285.459 181.377 281.939 181.377C278.418 181.377 275.564 182.763 275.564 184.473C275.564 186.183 278.418 187.57 281.939 187.57Z" fill="#57B894"/>
<path d="M281.142 187.038C284.663 187.038 287.517 185.652 287.517 183.942C287.517 182.232 284.663 180.846 281.142 180.846C277.622 180.846 274.768 182.232 274.768 183.942C274.768 185.652 277.622 187.038 281.142 187.038Z" stroke="#3F3D56" stroke-miterlimit="10"/>
<path d="M293.625 196.334C297.146 196.334 300 194.948 300 193.238C300 191.528 297.146 190.142 293.625 190.142C290.105 190.142 287.251 191.528 287.251 193.238C287.251 194.948 290.105 196.334 293.625 196.334Z" fill="#57B894"/>
<path d="M292.829 195.803C296.349 195.803 299.203 194.417 299.203 192.707C299.203 190.997 296.349 189.611 292.829 189.611C289.308 189.611 286.454 190.997 286.454 192.707C286.454 194.417 289.308 195.803 292.829 195.803Z" stroke="#3F3D56" stroke-miterlimit="10"/>
<path d="M252.457 180.929C255.977 180.929 258.831 179.543 258.831 177.833C258.831 176.123 255.977 174.737 252.457 174.737C248.936 174.737 246.082 176.123 246.082 177.833C246.082 179.543 248.936 180.929 252.457 180.929Z" fill="#57B894"/>
<path d="M251.66 180.398C255.18 180.398 258.034 179.012 258.034 177.302C258.034 175.592 255.18 174.206 251.66 174.206C248.139 174.206 245.285 175.592 245.285 177.302C245.285 179.012 248.139 180.398 251.66 180.398Z" stroke="#3F3D56" stroke-miterlimit="10"/>
<path d="M256.441 170.836C259.961 170.836 262.815 169.45 262.815 167.74C262.815 166.03 259.961 164.644 256.441 164.644C252.92 164.644 250.066 166.03 250.066 167.74C250.066 169.45 252.92 170.836 256.441 170.836Z" fill="#57B894"/>
<path d="M255.644 170.305C259.165 170.305 262.019 168.919 262.019 167.209C262.019 165.499 259.165 164.113 255.644 164.113C252.123 164.113 249.27 165.499 249.27 167.209C249.27 168.919 252.123 170.305 255.644 170.305Z" stroke="#3F3D56" stroke-miterlimit="10"/>
<path d="M293.36 178.273C296.88 178.273 299.734 176.887 299.734 175.177C299.734 173.467 296.88 172.081 293.36 172.081C289.839 172.081 286.985 173.467 286.985 175.177C286.985 176.887 289.839 178.273 293.36 178.273Z" fill="#57B894"/>
<path d="M292.563 177.742C296.084 177.742 298.937 176.356 298.937 174.646C298.937 172.936 296.084 171.55 292.563 171.55C289.042 171.55 286.188 172.936 286.188 174.646C286.188 176.356 289.042 177.742 292.563 177.742Z" stroke="#3F3D56" stroke-miterlimit="10"/>
<path d="M234.661 202.709C238.182 202.709 241.036 201.323 241.036 199.613C241.036 197.903 238.182 196.517 234.661 196.517C231.141 196.517 228.287 197.903 228.287 199.613C228.287 201.323 231.141 202.709 234.661 202.709Z" fill="#57B894"/>
<path d="M233.865 202.178C237.385 202.178 240.239 200.792 240.239 199.082C240.239 197.372 237.385 195.985 233.865 195.985C230.344 195.985 227.49 197.372 227.49 199.082C227.49 200.792 230.344 202.178 233.865 202.178Z" stroke="#3F3D56" stroke-miterlimit="10"/>
<path d="M256.707 201.115C260.227 201.115 263.081 199.729 263.081 198.019C263.081 196.309 260.227 194.923 256.707 194.923C253.186 194.923 250.332 196.309 250.332 198.019C250.332 199.729 253.186 201.115 256.707 201.115Z" fill="#57B894"/>
<path d="M255.91 200.584C259.43 200.584 262.284 199.198 262.284 197.488C262.284 195.778 259.43 194.392 255.91 194.392C252.389 194.392 249.535 195.778 249.535 197.488C249.535 199.198 252.389 200.584 255.91 200.584Z" stroke="#3F3D56" stroke-miterlimit="10"/>
<path d="M285.657 203.506C289.178 203.506 292.032 202.12 292.032 200.41C292.032 198.7 289.178 197.313 285.657 197.313C282.137 197.313 279.283 198.7 279.283 200.41C279.283 202.12 282.137 203.506 285.657 203.506Z" fill="#57B894"/>
<path d="M284.861 202.975C288.381 202.975 291.235 201.588 291.235 199.878C291.235 198.168 288.381 196.782 284.861 196.782C281.34 196.782 278.486 198.168 278.486 199.878C278.486 201.588 281.34 202.975 284.861 202.975Z" stroke="#3F3D56" stroke-miterlimit="10"/>
<path d="M270.252 204.568C273.773 204.568 276.627 203.182 276.627 201.472C276.627 199.762 273.773 198.376 270.252 198.376C266.732 198.376 263.878 199.762 263.878 201.472C263.878 203.182 266.732 204.568 270.252 204.568Z" fill="#57B894"/>
<path d="M269.456 204.037C272.976 204.037 275.83 202.651 275.83 200.941C275.83 199.231 272.976 197.845 269.456 197.845C265.935 197.845 263.081 199.231 263.081 200.941C263.081 202.651 265.935 204.037 269.456 204.037Z" stroke="#3F3D56" stroke-miterlimit="10"/>
<path d="M271.315 178.008C274.835 178.008 277.689 176.622 277.689 174.912C277.689 173.202 274.835 171.815 271.315 171.815C267.794 171.815 264.94 173.202 264.94 174.912C264.94 176.622 267.794 178.008 271.315 178.008Z" fill="#57B894"/>
<path d="M270.518 177.477C274.039 177.477 276.893 176.09 276.893 174.38C276.893 172.67 274.039 171.284 270.518 171.284C266.998 171.284 264.144 172.67 264.144 174.38C264.144 176.09 266.998 177.477 270.518 177.477Z" stroke="#3F3D56" stroke-miterlimit="10"/>
<path d="M243.958 194.475C247.478 194.475 250.332 193.089 250.332 191.379C250.332 189.669 247.478 188.283 243.958 188.283C240.437 188.283 237.583 189.669 237.583 191.379C237.583 193.089 240.437 194.475 243.958 194.475Z" fill="#57B894"/>
<path d="M243.161 193.944C246.681 193.944 249.535 192.558 249.535 190.848C249.535 189.138 246.681 187.752 243.161 187.752C239.64 187.752 236.786 189.138 236.786 190.848C236.786 192.558 239.64 193.944 243.161 193.944Z" stroke="#3F3D56" stroke-miterlimit="10"/>
<path d="M247.676 206.427C251.197 206.427 254.051 205.041 254.051 203.331C254.051 201.621 251.197 200.235 247.676 200.235C244.156 200.235 241.302 201.621 241.302 203.331C241.302 205.041 244.156 206.427 247.676 206.427Z" fill="#57B894"/>
<path d="M246.879 205.896C250.4 205.896 253.254 204.51 253.254 202.8C253.254 201.09 250.4 199.704 246.879 199.704C243.359 199.704 240.505 201.09 240.505 202.8C240.505 204.51 243.359 205.896 246.879 205.896Z" stroke="#3F3D56" stroke-miterlimit="10"/>
<g opacity="0.3">
<path opacity="0.3" d="M247.824 224.472C248.724 222.862 248.888 221.241 248.191 220.851C247.494 220.462 246.199 221.451 245.299 223.061C244.399 224.671 244.235 226.292 244.932 226.682C245.63 227.071 246.924 226.082 247.824 224.472Z" fill="#57B894"/>
<path opacity="0.3" d="M247.404 224.715C248.304 223.105 248.468 221.484 247.771 221.095C247.074 220.705 245.779 221.694 244.879 223.304C243.979 224.914 243.815 226.535 244.512 226.925C245.209 227.315 246.504 226.325 247.404 224.715Z" stroke="#3F3D56" stroke-miterlimit="10"/>
</g>
<g opacity="0.3">
<path opacity="0.3" d="M281.051 232.19C281.584 231.595 280.901 230.116 279.527 228.886C278.153 227.656 276.607 227.141 276.074 227.736C275.541 228.331 276.224 229.811 277.598 231.041C278.972 232.271 280.518 232.785 281.051 232.19Z" fill="#57B894"/>
<path opacity="0.3" d="M280.906 231.727C281.438 231.132 280.756 229.652 279.382 228.422C278.007 227.192 276.461 226.677 275.929 227.273C275.396 227.868 276.078 229.347 277.453 230.577C278.827 231.807 280.373 232.322 280.906 231.727Z" stroke="#3F3D56" stroke-miterlimit="10"/>
</g>
<g opacity="0.3">
<path opacity="0.3" d="M251.303 215.457C251.836 214.862 251.154 213.382 249.779 212.152C248.405 210.922 246.859 210.408 246.326 211.003C245.794 211.598 246.476 213.078 247.85 214.308C249.225 215.538 250.771 216.052 251.303 215.457Z" fill="#57B894"/>
<path opacity="0.3" d="M251.158 214.994C251.69 214.399 251.008 212.919 249.634 211.689C248.259 210.459 246.713 209.944 246.181 210.54C245.648 211.135 246.33 212.614 247.705 213.844C249.079 215.074 250.625 215.589 251.158 214.994Z" stroke="#3F3D56" stroke-miterlimit="10"/>
</g>
</g>
<defs>
<clipPath id="clip0">
<rect width="200" height="147.698" fill="white" transform="translate(100 164)"/>
</clipPath>
</defs>
</svg>
