<svg width="328" height="328" viewBox="0 0 328 328" fill="none" xmlns="http://www.w3.org/2000/svg">
<g clip-path="url(#clip0)">
<path d="M197.786 250.65H211.599V251.096H209.445V255.329H208.999V251.096H200.609V255.329H200.163V251.096H197.786V250.65Z" fill="#3F3D56"/>
<path d="M192.661 239.733H196.226V243.298H194.574V255.309H194.128V243.298H192.661V239.733Z" fill="#3F3D56"/>
<path d="M197.759 249.317H211.572V249.763H197.759V249.317Z" fill="#3F3D56"/>
<path d="M197.759 248.203H211.572V248.649H197.759V248.203Z" fill="#3F3D56"/>
<path d="M197.759 247.089H211.572V247.535H197.759V247.089Z" fill="#3F3D56"/>
<path d="M162.36 256.613H162.806C162.806 235.483 179.997 218.292 201.128 218.292C222.258 218.292 239.449 235.483 239.449 256.613H239.895C239.895 235.237 222.504 217.846 201.128 217.846C179.751 217.846 162.36 235.237 162.36 256.613Z" fill="#3F3D56"/>
<path d="M265.572 244.856C245.454 244.856 229.144 228.546 229.144 208.428C229.144 188.309 245.454 172 265.572 172C285.691 172 302 188.309 302 208.428C302 228.546 285.691 244.856 265.572 244.856Z" fill="#008FFF"/>
<path opacity="0.2" d="M238.475 184.097C235.077 192.045 234.616 200.943 237.174 209.2C239.733 217.457 245.144 224.535 252.441 229.169C259.737 233.804 268.444 235.693 277.005 234.499C285.567 233.305 293.424 229.105 299.175 222.651C297.099 227.507 293.992 231.854 290.07 235.39C286.147 238.926 281.503 241.568 276.459 243.131C271.414 244.694 266.09 245.142 260.856 244.443C255.621 243.744 250.601 241.916 246.143 239.084C241.685 236.253 237.896 232.486 235.038 228.045C232.181 223.604 230.323 218.594 229.594 213.364C228.864 208.133 229.281 202.807 230.814 197.753C232.348 192.7 234.962 188.04 238.475 184.097Z" fill="black"/>
<path d="M265.472 208.428H265.372L263.571 311.707H267.374L265.472 208.428Z" fill="#3F3D56"/>
<path d="M258.839 264.683L259.678 263.089L265.7 266.26L264.861 267.854L258.839 264.683Z" fill="#3F3D56"/>
<path d="M131.484 253.366C115.2 253.366 102 240.166 102 223.883C102 207.599 115.2 194.399 131.484 194.399C147.767 194.399 160.967 207.599 160.967 223.883C160.967 240.166 147.767 253.366 131.484 253.366Z" fill="#008FFF"/>
<path opacity="0.2" d="M109.552 204.19C106.802 210.623 106.429 217.824 108.499 224.507C110.57 231.19 114.95 236.919 120.855 240.67C126.761 244.421 133.808 245.95 140.737 244.984C147.667 244.017 154.026 240.618 158.68 235.394C157 239.325 154.486 242.843 151.311 245.705C148.137 248.567 144.378 250.705 140.295 251.97C136.212 253.235 131.903 253.598 127.666 253.032C123.429 252.467 119.366 250.987 115.758 248.695C112.15 246.403 109.083 243.355 106.77 239.76C104.458 236.165 102.954 232.111 102.364 227.878C101.773 223.644 102.11 219.333 103.352 215.243C104.593 211.153 106.708 207.381 109.552 204.19Z" fill="black"/>
<path d="M131.403 223.883H131.322L129.864 307.474H132.942L131.403 223.883Z" fill="#3F3D56"/>
<path d="M126.034 269.414L126.713 268.124L131.587 270.69L130.908 271.98L126.034 269.414Z" fill="#3F3D56"/>
<path d="M218.487 249.271C215.924 249.271 213.846 247.193 213.846 244.63C213.846 242.067 215.924 239.989 218.487 239.989C221.051 239.989 223.129 242.067 223.129 244.63C223.129 247.193 221.051 249.271 218.487 249.271Z" fill="#008FFF"/>
<path opacity="0.2" d="M215.035 241.53C214.602 242.543 214.543 243.676 214.869 244.728C215.195 245.78 215.885 246.682 216.814 247.273C217.744 247.863 218.853 248.104 219.944 247.952C221.035 247.8 222.036 247.265 222.769 246.442C222.504 247.061 222.109 247.615 221.609 248.065C221.109 248.516 220.517 248.852 219.874 249.052C219.232 249.251 218.553 249.308 217.886 249.219C217.219 249.13 216.58 248.897 216.012 248.536C215.444 248.175 214.961 247.695 214.597 247.129C214.233 246.564 213.996 245.925 213.903 245.259C213.81 244.592 213.863 243.914 214.059 243.27C214.254 242.626 214.587 242.032 215.035 241.53Z" fill="black"/>
<path d="M218.475 244.63H218.462L218.232 257.789H218.717L218.475 244.63Z" fill="#3F3D56"/>
<path d="M217.629 251.798L217.736 251.595L218.504 251.999L218.397 252.202L217.629 251.798Z" fill="#3F3D56"/>
<path d="M175.598 241.553C169.036 241.553 163.716 236.233 163.716 229.671C163.716 223.108 169.036 217.788 175.598 217.788C182.161 217.788 187.481 223.108 187.481 229.671C187.481 236.233 182.161 241.553 175.598 241.553Z" fill="#008FFF"/>
<path opacity="0.2" d="M166.759 221.734C165.651 224.327 165.5 227.229 166.335 229.922C167.17 232.616 168.935 234.924 171.315 236.436C173.695 237.948 176.535 238.564 179.327 238.175C182.12 237.785 184.683 236.415 186.559 234.31C185.882 235.894 184.868 237.312 183.589 238.465C182.31 239.619 180.795 240.48 179.149 240.99C177.504 241.5 175.767 241.646 174.06 241.418C172.352 241.19 170.715 240.594 169.26 239.67C167.806 238.747 166.57 237.518 165.638 236.069C164.706 234.621 164.1 232.987 163.862 231.281C163.624 229.574 163.76 227.837 164.26 226.189C164.761 224.54 165.613 223.02 166.759 221.734Z" fill="black"/>
<path d="M175.565 229.671H175.533L174.945 263.359H176.186L175.565 229.671Z" fill="#3F3D56"/>
<path d="M173.402 248.021L173.676 247.501L175.64 248.535L175.366 249.055L173.402 248.021Z" fill="#3F3D56"/>
<path d="M257.406 306.566C257.406 306.566 257.252 303.342 254.098 303.716L257.406 306.566Z" fill="#3F3D56"/>
<path d="M258.297 303.498C257.425 303.498 256.719 302.791 256.719 301.919C256.719 301.047 257.425 300.34 258.297 300.34C259.169 300.34 259.876 301.047 259.876 301.919C259.876 302.791 259.169 303.498 258.297 303.498Z" fill="#008FFF"/>
<path d="M258.108 304.577H258.554V307.696H258.108V304.577Z" fill="#3F3D56"/>
<path d="M246.266 299.213C246.266 299.213 246.112 295.989 242.958 296.364L246.266 299.213Z" fill="#3F3D56"/>
<path d="M247.157 296.145C246.285 296.145 245.578 295.438 245.578 294.567C245.578 293.695 246.285 292.988 247.157 292.988C248.029 292.988 248.736 293.695 248.736 294.567C248.736 295.438 248.029 296.145 247.157 296.145Z" fill="#008FFF"/>
<path d="M246.968 297.225H247.414V300.344H246.968V297.225Z" fill="#3F3D56"/>
<path d="M212.686 274.269C212.686 274.269 212.563 271.709 210.058 272.006L212.686 274.269Z" fill="#3F3D56"/>
<path d="M213.393 271.833C212.701 271.833 212.14 271.271 212.14 270.579C212.14 269.886 212.701 269.325 213.393 269.325C214.086 269.325 214.647 269.886 214.647 270.579C214.647 271.271 214.086 271.833 213.393 271.833Z" fill="#008FFF"/>
<path d="M213.243 272.69H213.597V275.168H213.243V272.69Z" fill="#3F3D56"/>
<path d="M163.669 266.249C163.669 266.249 163.547 263.688 161.042 263.986L163.669 266.249Z" fill="#3F3D56"/>
<path d="M164.377 263.812C163.685 263.812 163.123 263.251 163.123 262.558C163.123 261.866 163.685 261.304 164.377 261.304C165.07 261.304 165.631 261.866 165.631 262.558C165.631 263.251 165.07 263.812 164.377 263.812Z" fill="#008FFF"/>
<path d="M164.227 264.669H164.581V267.147H164.227V264.669Z" fill="#3F3D56"/>
<path d="M210.458 280.953C210.458 280.953 210.335 278.393 207.83 278.69L210.458 280.953Z" fill="#3F3D56"/>
<path d="M211.165 278.517C210.473 278.517 209.912 277.955 209.912 277.263C209.912 276.57 210.473 276.009 211.165 276.009C211.858 276.009 212.419 276.57 212.419 277.263C212.419 277.955 211.858 278.517 211.165 278.517Z" fill="#008FFF"/>
<path d="M211.015 279.374H211.369V281.852H211.015V279.374Z" fill="#3F3D56"/>
<path d="M215.805 285.855C215.805 285.855 215.682 283.294 213.177 283.592L215.805 285.855Z" fill="#3F3D56"/>
<path d="M216.513 283.418C215.82 283.418 215.259 282.857 215.259 282.164C215.259 281.472 215.82 280.911 216.513 280.911C217.205 280.911 217.766 281.472 217.766 282.164C217.766 282.857 217.205 283.418 216.513 283.418Z" fill="#008FFF"/>
<path d="M216.363 284.276H216.717V286.753H216.363V284.276Z" fill="#3F3D56"/>
<path d="M156.094 270.482C156.094 270.482 155.972 267.921 153.467 268.219L156.094 270.482Z" fill="#3F3D56"/>
<path d="M156.802 268.045C156.11 268.045 155.548 267.484 155.548 266.791C155.548 266.099 156.11 265.537 156.802 265.537C157.495 265.537 158.056 266.099 158.056 266.791C158.056 267.484 157.495 268.045 156.802 268.045Z" fill="#008FFF"/>
<path d="M156.652 268.903H157.006V271.38H156.652V268.903Z" fill="#3F3D56"/>
<path d="M228.281 276.052C228.281 276.052 228.159 273.491 225.654 273.789L228.281 276.052Z" fill="#3F3D56"/>
<path d="M228.989 273.615C228.297 273.615 227.736 273.054 227.736 272.361C227.736 271.669 228.297 271.107 228.989 271.107C229.682 271.107 230.243 271.669 230.243 272.361C230.243 273.054 229.682 273.615 228.989 273.615Z" fill="#008FFF"/>
<path d="M228.839 274.473H229.193V276.95H228.839V274.473Z" fill="#3F3D56"/>
<path d="M170.354 263.352C170.354 263.352 170.231 260.792 167.726 261.089L170.354 263.352Z" fill="#3F3D56"/>
<path d="M171.061 260.915C170.369 260.915 169.808 260.354 169.808 259.662C169.808 258.969 170.369 258.408 171.061 258.408C171.754 258.408 172.315 258.969 172.315 259.662C172.315 260.354 171.754 260.915 171.061 260.915Z" fill="#008FFF"/>
<path d="M170.911 261.773H171.265V264.25H170.911V261.773Z" fill="#3F3D56"/>
<path d="M276.79 307.234C276.79 307.234 276.636 304.01 273.482 304.385L276.79 307.234Z" fill="#3F3D56"/>
<path d="M277.681 304.166C276.809 304.166 276.102 303.459 276.102 302.587C276.102 301.716 276.809 301.009 277.681 301.009C278.553 301.009 279.259 301.716 279.259 302.587C279.259 303.459 278.553 304.166 277.681 304.166Z" fill="#008FFF"/>
<path d="M277.492 305.246H277.938V308.365H277.492V305.246Z" fill="#3F3D56"/>
<path d="M123.28 306.343C123.28 306.343 123.126 303.119 119.972 303.494L123.28 306.343Z" fill="#3F3D56"/>
<path d="M124.171 303.275C123.299 303.275 122.593 302.568 122.593 301.696C122.593 300.824 123.299 300.118 124.171 300.118C125.043 300.118 125.75 300.824 125.75 301.696C125.75 302.568 125.043 303.275 124.171 303.275Z" fill="#008FFF"/>
<path d="M123.982 304.354H124.428V307.474H123.982V304.354Z" fill="#3F3D56"/>
<path d="M136.202 298.768C136.202 298.768 136.049 295.544 132.894 295.918L136.202 298.768Z" fill="#3F3D56"/>
<path d="M137.094 295.7C136.222 295.7 135.515 294.993 135.515 294.121C135.515 293.249 136.222 292.542 137.094 292.542C137.965 292.542 138.672 293.249 138.672 294.121C138.672 294.993 137.965 295.7 137.094 295.7Z" fill="#008FFF"/>
<path d="M136.905 296.779H137.351V299.898H136.905V296.779Z" fill="#3F3D56"/>
<path d="M137.985 310.13C137.985 310.13 137.831 306.906 134.677 307.281L137.985 310.13Z" fill="#3F3D56"/>
<path d="M138.876 307.062C138.004 307.062 137.297 306.356 137.297 305.484C137.297 304.612 138.004 303.905 138.876 303.905C139.748 303.905 140.455 304.612 140.455 305.484C140.455 306.356 139.748 307.062 138.876 307.062Z" fill="#008FFF"/>
<path d="M138.687 308.142H139.133V311.261H138.687V308.142Z" fill="#3F3D56"/>
<path d="M274.225 312.536C274.225 312.536 204.042 294.044 204.711 275.106C205.936 269.87 214.403 268.533 214.403 268.533C214.403 268.533 234.455 265.86 223.538 259.398C212.62 252.937 182.765 254.497 182.765 254.497C182.765 254.497 213.511 259.398 199.921 262.072C189.003 262.74 174.967 265.637 174.967 265.637C174.967 265.637 146.449 271.653 142.438 286.357C138.428 301.062 141.77 312.425 141.77 312.425L274.225 312.536Z" fill="#E6E6E6"/>
<path d="M197.784 312.609L198.047 312.241C197.676 311.976 197.31 311.712 196.95 311.449L196.684 311.814C197.046 312.077 197.412 312.342 197.784 312.609Z" fill="white"/>
<path d="M194.508 310.199L194.781 309.839C194.051 309.286 193.333 308.731 192.645 308.187L192.365 308.541C193.055 309.087 193.776 309.644 194.508 310.199ZM190.259 306.835L190.547 306.487C189.841 305.901 189.15 305.311 188.495 304.735L188.197 305.074C188.855 305.653 189.549 306.246 190.259 306.835ZM186.188 303.252L186.497 302.923C185.823 302.291 185.173 301.658 184.565 301.042L184.244 301.359C184.856 301.979 185.51 302.616 186.188 303.252ZM182.382 299.382L182.718 299.081C182.099 298.391 181.513 297.7 180.977 297.028L180.624 297.309C181.165 297.989 181.757 298.686 182.382 299.382ZM179.006 295.123L179.379 294.868C178.854 294.099 178.38 293.331 177.971 292.586L177.575 292.803C177.991 293.561 178.473 294.342 179.006 295.123ZM176.409 290.333L176.83 290.169C176.502 289.342 176.246 288.489 176.063 287.62L175.621 287.71C175.809 288.606 176.072 289.483 176.409 290.333V290.333ZM175.807 284.984C175.82 284.106 175.942 283.233 176.17 282.386L175.734 282.268C175.496 283.152 175.369 284.061 175.355 284.976L175.807 284.984ZM177.157 279.948C177.586 279.174 178.09 278.443 178.66 277.767L178.314 277.477C177.724 278.176 177.204 278.931 176.762 279.731L177.157 279.948ZM180.526 275.861C181.197 275.27 181.9 274.716 182.631 274.202L182.371 273.833C181.626 274.357 180.91 274.921 180.227 275.523L180.526 275.861ZM184.894 272.749C185.633 272.315 186.43 271.882 187.262 271.461L187.059 271.058C186.217 271.483 185.412 271.921 184.665 272.36L184.894 272.749ZM189.702 270.307C190.488 269.958 191.325 269.607 192.191 269.263L192.023 268.843C191.153 269.189 190.31 269.543 189.519 269.895L189.702 270.307ZM194.722 268.303C195.527 268.011 196.387 267.712 197.278 267.413L197.135 266.985C196.24 267.285 195.376 267.585 194.568 267.878L194.722 268.303ZM199.854 266.577C200.641 266.328 201.488 266.067 202.444 265.778L202.313 265.345C201.356 265.635 200.507 265.897 199.719 266.146L199.854 266.577ZM205.042 264.998C205.956 264.725 206.827 264.463 207.642 264.212L207.509 263.781C206.695 264.032 205.825 264.292 204.913 264.565L205.042 264.998ZM210.231 263.375C211.1 263.088 211.949 262.746 212.774 262.351L212.571 261.948C211.764 262.334 210.933 262.668 210.084 262.948L210.231 263.375ZM213.641 260.415L213.963 260.098C213.551 259.68 212.737 259.271 211.474 258.847L211.33 259.275C212.508 259.67 213.285 260.054 213.641 260.415L213.641 260.415ZM208.747 258.54L208.856 258.102C208.075 257.907 207.186 257.704 206.212 257.497L206.118 257.939C207.087 258.144 207.971 258.347 208.747 258.54V258.54ZM203.471 257.407L203.556 256.963C202.724 256.804 201.828 256.64 200.892 256.474L200.813 256.918C201.747 257.084 202.641 257.248 203.471 257.407V257.407ZM198.15 256.46L198.224 256.014C197.374 255.872 196.483 255.726 195.553 255.577L195.482 256.023C196.411 256.172 197.3 256.317 198.15 256.46Z" fill="white"/>
<path d="M192.759 255.594L192.828 255.148C192.389 255.08 191.943 255.011 191.488 254.942L191.42 255.388C191.875 255.458 192.321 255.526 192.759 255.594Z" fill="white"/>
<path d="M182.766 209.73L180.715 208.089C182.308 207.914 182.963 208.783 183.231 209.47C184.476 208.953 185.831 209.631 185.831 209.631L181.727 211.121C181.934 210.568 182.295 210.085 182.766 209.73Z" fill="#3F3D56"/>
<path d="M220.865 222.43L218.814 220.789C220.407 220.613 221.062 221.482 221.33 222.17C222.575 221.653 223.93 222.331 223.93 222.331L219.826 223.82C220.033 223.267 220.393 222.785 220.865 222.43Z" fill="#3F3D56"/>
<path d="M210.839 196.139L208.788 194.499C210.381 194.323 211.036 195.192 211.304 195.88C212.549 195.363 213.904 196.04 213.904 196.04L209.8 197.53C210.007 196.977 210.367 196.494 210.839 196.139Z" fill="#3F3D56"/>
</g>
<defs>
<clipPath id="clip0">
<rect width="200" height="140.609" fill="white" transform="matrix(-1 0 0 1 302 172)"/>
</clipPath>
</defs>
</svg>
