<svg width="328" height="328" viewBox="0 0 328 328" fill="none" xmlns="http://www.w3.org/2000/svg">
<g clip-path="url(#clip0)">
<path opacity="0.1" d="M177.43 320.24C155.817 320.24 138.296 318.302 138.296 315.911C138.296 313.52 155.817 311.582 177.43 311.582C199.043 311.582 216.563 313.52 216.563 315.911C216.563 318.302 199.043 320.24 177.43 320.24Z" fill="#008FFF"/>
<path opacity="0.1" d="M67.5799 260.378C73.6693 272.944 86.0407 281.346 98.8568 286.888C116.114 294.351 135.118 297.31 153.861 296.059C157.147 295.842 160.422 295.492 163.685 295.011C175.024 293.354 186.078 290.132 196.532 285.437C199.543 284.076 202.501 282.597 205.405 280.998C210.24 278.318 214.873 275.288 219.266 271.933C220.372 271.089 221.461 270.224 222.536 269.337C223.281 268.723 224.019 268.095 224.769 267.485C226.351 266.199 227.979 264.977 229.795 264.062C230.342 263.786 230.904 263.538 231.477 263.319C237.227 261.132 243.858 261.957 249.844 263.663C254.393 264.949 258.825 266.726 263.38 267.994C265.403 268.575 267.465 269.013 269.55 269.305C274.206 269.898 278.935 269.486 283.418 268.097L283.801 267.978C284.443 267.776 285.08 267.555 285.711 267.315L286.094 267.168C286.705 266.933 287.304 266.68 287.889 266.41L288.272 266.235C288.883 265.951 289.482 265.651 290.067 265.334C290.278 265.224 290.487 265.105 290.693 264.993C294.024 263.132 297.051 260.775 299.671 258.002C299.747 257.927 299.818 257.849 299.9 257.773C300.265 257.379 300.623 256.977 300.969 256.567C301.097 256.416 301.226 256.264 301.352 256.109C301.763 255.606 302.159 255.093 302.542 254.57C302.599 254.494 302.654 254.417 302.709 254.341C304.275 252.174 305.574 249.827 306.577 247.348C306.609 247.273 306.639 247.195 306.666 247.119C306.972 246.332 307.251 245.532 307.503 244.718C307.606 244.379 307.705 244.031 307.792 243.691C307.822 243.59 307.849 243.487 307.874 243.386C309.128 238.407 309.264 233.228 309.264 228.078C309.264 227.477 309.264 226.878 309.264 226.278C309.227 217.949 309.099 209.478 307.87 201.263C307.87 201.206 307.854 201.148 307.844 201.093C307.433 198.328 306.874 195.586 306.169 192.881C305.43 190.042 304.487 187.261 303.346 184.558C300.519 177.91 296.409 171.859 291.844 166.251C280.357 152.149 265.278 140.293 247.629 135.871C228.611 131.095 207.475 135.671 192.135 147.885C187.458 151.608 183.255 156.017 178.003 158.871C173.417 161.356 168.05 162.386 163.139 160.43C159.081 158.825 156.44 158.011 151.882 158.257C142.447 158.789 133.144 160.736 124.287 164.032C123.93 164.163 123.572 164.298 123.217 164.433C100.127 173.271 80.2746 190.822 69.9621 213.375C69.6884 213.971 69.4233 214.572 69.1665 215.177C63.0152 229.534 60.7959 246.378 67.5799 260.378Z" fill="#008FFF"/>
<path opacity="0.1" d="M263.38 181.064V267.994C265.403 268.575 267.465 269.013 269.55 269.305C274.206 269.898 278.935 269.486 283.418 268.097L283.801 267.978C284.443 267.776 285.08 267.555 285.711 267.315L286.094 267.168C286.705 266.933 287.304 266.68 287.889 266.41L288.272 266.235C288.883 265.951 289.482 265.651 290.067 265.334C290.278 265.224 290.487 265.105 290.693 264.993C294.024 263.132 297.051 260.775 299.671 258.002C299.747 257.927 299.818 257.849 299.9 257.773C300.265 257.379 300.623 256.977 300.969 256.567C301.097 256.416 301.226 256.264 301.352 256.109C301.763 255.606 302.159 255.093 302.542 254.57C302.599 254.494 302.654 254.417 302.709 254.341C304.275 252.174 305.574 249.827 306.577 247.348C306.609 247.273 306.639 247.195 306.666 247.119C306.972 246.332 307.251 245.532 307.503 244.718C307.606 244.379 307.705 244.031 307.792 243.691C307.822 243.59 307.849 243.487 307.874 243.386C309.128 238.407 309.264 233.228 309.264 228.078C309.264 227.477 309.264 226.878 309.264 226.278C309.227 217.949 309.099 209.478 307.87 201.263C307.87 201.206 307.854 201.148 307.844 201.093C307.433 198.328 306.874 195.586 306.169 192.881H282.762V181.064H278.083V171.575H268.037V181.064H263.38Z" fill="#008FFF"/>
<path opacity="0.1" d="M67.5802 260.378C73.6695 272.944 86.0409 281.346 98.857 286.888C116.114 294.351 135.118 297.31 153.861 296.059C157.147 295.842 160.422 295.492 163.685 295.011C175.024 293.354 186.079 290.132 196.532 285.437C199.543 284.076 202.501 282.597 205.405 280.998C210.24 278.318 214.873 275.288 219.267 271.933C220.372 271.089 221.462 270.224 222.536 269.337C223.281 268.723 224.019 268.095 224.769 267.485C226.351 266.199 227.979 264.977 229.795 264.062C230.343 263.786 230.904 263.538 231.478 263.319V227.746H188.928V235.662H170.254V177.754H148.274V200.91H137.402V187.2H128.419V172.554H124.292V164.02C123.934 164.151 123.577 164.286 123.221 164.422V172.554H119.2V187.209H110.22V200.919H96.9839V253.153H75.9462V215.166H69.1667C63.0154 229.534 60.7961 246.378 67.5802 260.378Z" fill="#008FFF"/>
<path opacity="0.1" d="M153.861 186.466H163.685V196.29H153.861V186.466Z" fill="#008FFF"/>
<path opacity="0.1" d="M153.861 206.832H163.685V216.656H153.861V206.832Z" fill="#008FFF"/>
<path opacity="0.1" d="M153.861 227.195H163.685V237.02H153.861V227.195Z" fill="#008FFF"/>
<path opacity="0.1" d="M153.861 247.561H163.685V257.386H153.861V247.561Z" fill="#008FFF"/>
<path opacity="0.1" d="M153.861 267.927H163.685V277.752H153.861V267.927Z" fill="#008FFF"/>
<path opacity="0.1" d="M153.861 288.291V296.049C157.147 295.832 160.422 295.483 163.685 295.002V288.291H153.861Z" fill="#008FFF"/>
<path opacity="0.1" d="M193.85 240.443H228.238V244.893H193.85V240.443Z" fill="#008FFF"/>
<path opacity="0.1" d="M193.85 253.956H228.238V258.406H193.85V253.956Z" fill="#008FFF"/>
<path opacity="0.1" d="M193.85 267.471V271.919H219.262C220.367 271.075 221.457 270.21 222.531 269.324C223.276 268.709 224.015 268.081 224.764 267.471H193.85Z" fill="#008FFF"/>
<path opacity="0.1" d="M193.85 280.998V285.448H196.532C199.543 284.08 202.501 282.597 205.405 280.998H193.85Z" fill="#008FFF"/>
<path opacity="0.1" d="M131.058 213.068H137.452V219.462H131.058V213.068Z" fill="#008FFF"/>
<path opacity="0.1" d="M269.536 183.268H275.93V189.662H269.536V183.268Z" fill="#008FFF"/>
<path opacity="0.1" d="M269.536 198.124H275.93V204.518H269.536V198.124Z" fill="#008FFF"/>
<path opacity="0.1" d="M269.536 212.981H275.93V219.375H269.536V212.981Z" fill="#008FFF"/>
<path opacity="0.1" d="M269.536 227.835H275.93V234.229H269.536V227.835Z" fill="#008FFF"/>
<path opacity="0.1" d="M269.536 242.692H275.93V249.086H269.536V242.692Z" fill="#008FFF"/>
<path opacity="0.1" d="M269.536 257.548H275.93V263.943H269.536V257.548Z" fill="#008FFF"/>
<path opacity="0.1" d="M106.641 213.068H113.035V219.462H106.641V213.068Z" fill="#008FFF"/>
<path opacity="0.1" d="M131.058 228.844H137.452V235.238H131.058V228.844Z" fill="#008FFF"/>
<path opacity="0.1" d="M106.641 228.844H113.035V235.238H106.641V228.844Z" fill="#008FFF"/>
<path opacity="0.1" d="M131.058 244.618H137.452V251.012H131.058V244.618Z" fill="#008FFF"/>
<path opacity="0.1" d="M106.641 244.618H113.035V251.012H106.641V244.618Z" fill="#008FFF"/>
<path opacity="0.1" d="M131.058 260.394H137.452V266.788H131.058V260.394Z" fill="#008FFF"/>
<path opacity="0.1" d="M106.641 260.394H113.035V266.788H106.641V260.394Z" fill="#008FFF"/>
<path opacity="0.1" d="M131.058 276.17H137.452V282.564H131.058V276.17Z" fill="#008FFF"/>
<path opacity="0.1" d="M106.641 276.17H113.035V282.564H106.641V276.17Z" fill="#008FFF"/>
<path opacity="0.1" d="M137.452 296.068V291.943H131.058V295.481L137.452 296.068Z" fill="#008FFF"/>
<path opacity="0.1" d="M307.874 201.093V204.762H283.418V201.093H307.874ZM305.696 204.532H307.491V201.322H305.696V204.532ZM303.518 204.532H305.313V201.322H303.518V204.532ZM301.34 204.532H303.135V201.322H301.34V204.532ZM299.162 204.532H300.957V201.322H299.162V204.532ZM296.984 204.532H298.779V201.322H296.984V204.532ZM294.806 204.532H296.601V201.322H294.806V204.532ZM292.628 204.532H294.423V201.322H292.628V204.532ZM290.45 204.532H292.245V201.322H290.45V204.532ZM288.272 204.532H290.067V201.322H288.272V204.532ZM286.094 204.532H287.889V201.322H286.094V204.532ZM283.801 204.532H285.711V201.322H283.801V204.532Z" fill="#008FFF"/>
<path opacity="0.1" d="M307.874 211.745V215.402H283.418V211.745H307.874ZM305.696 215.173H307.491V211.974H305.696V215.173ZM303.518 215.173H305.313V211.974H303.518V215.173ZM301.34 215.173H303.135V211.974H301.34V215.173ZM299.162 215.173H300.957V211.974H299.162V215.173ZM296.984 215.173H298.779V211.974H296.984V215.173ZM294.806 215.173H296.601V211.974H294.806V215.173ZM292.628 215.173H294.423V211.974H292.628V215.173ZM290.45 215.173H292.245V211.974H290.45V215.173ZM288.272 215.173H290.067V211.974H288.272V215.173ZM286.094 215.173H287.889V211.974H286.094V215.173ZM283.801 215.173H285.711V211.974H283.801V215.173Z" fill="#008FFF"/>
<path opacity="0.1" d="M307.874 222.395V226.051H283.418V222.395H307.874ZM305.696 225.822H307.491V222.624H305.696V225.822ZM303.518 225.822H305.313V222.624H303.518V225.822ZM301.34 225.822H303.135V222.624H301.34V225.822ZM299.162 225.822H300.957V222.624H299.162V225.822ZM296.984 225.822H298.779V222.624H296.984V225.822ZM294.806 225.822H296.601V222.624H294.806V225.822ZM292.628 225.822H294.423V222.624H292.628V225.822ZM290.45 225.822H292.245V222.624H290.45V225.822ZM288.272 225.822H290.067V222.624H288.272V225.822ZM286.094 225.822H287.889V222.624H286.094V225.822ZM283.801 225.822H285.711V222.624H283.801V225.822Z" fill="#008FFF"/>
<path opacity="0.1" d="M307.874 233.044V236.712H283.418V233.044H307.874ZM305.696 236.483H307.491V233.273H305.696V236.483ZM303.518 236.483H305.313V233.273H303.518V236.483ZM301.34 236.483H303.135V233.273H301.34V236.483ZM299.162 236.483H300.957V233.273H299.162V236.483ZM296.984 236.483H298.779V233.273H296.984V236.483ZM294.806 236.483H296.601V233.273H294.806V236.483ZM292.628 236.483H294.423V233.273H292.628V236.483ZM290.45 236.483H292.245V233.273H290.45V236.483ZM288.272 236.483H290.067V233.273H288.272V236.483ZM286.094 236.483H287.889V233.273H286.094V236.483ZM283.801 236.483H285.711V233.273H283.801V236.483Z" fill="#008FFF"/>
<path opacity="0.1" d="M307.78 243.694C307.693 244.038 307.595 244.381 307.491 244.721V243.923H305.696V247.133H306.655C306.627 247.208 306.597 247.286 306.565 247.362H283.409V243.694H307.78ZM303.518 247.133H305.313V243.923H303.518V247.133ZM301.34 247.133H303.135V243.923H301.34V247.133ZM299.162 247.133H300.957V243.923H299.162V247.133ZM296.984 247.133H298.779V243.923H296.984V247.133ZM294.806 247.133H296.601V243.923H294.806V247.133ZM292.628 247.133H294.423V243.923H292.628V247.133ZM290.45 247.133H292.245V243.923H290.45V247.133ZM288.272 247.133H290.067V243.923H288.272V247.133ZM286.094 247.133H287.889V243.923H286.094V247.133ZM283.801 247.133H285.711V243.923H283.801V247.133Z" fill="#008FFF"/>
<path opacity="0.1" d="M302.698 254.343C302.642 254.419 302.587 254.497 302.53 254.572H301.34V256.111C301.214 256.264 301.086 256.416 300.957 256.569V254.575H299.162V257.784H299.889C299.818 257.86 299.747 257.938 299.66 258.014H283.407V254.345L302.698 254.343ZM296.984 257.782H298.779V254.572H296.984V257.782ZM294.806 257.782H296.601V254.572H294.806V257.782ZM292.628 257.782H294.423V254.572H292.628V257.782ZM290.45 257.782H292.245V254.572H290.45V257.782ZM288.272 257.782H290.067V254.572H288.272V257.782ZM286.094 257.782H287.889V254.572H286.094V257.782ZM283.801 257.782H285.711V254.572H283.801V257.782Z" fill="#008FFF"/>
<path opacity="0.1" d="M290.693 264.993C290.487 265.11 290.278 265.222 290.067 265.334V265.222H288.272V266.235L287.889 266.41V265.222H286.094V267.168L285.711 267.315V265.222H283.801V267.973L283.418 268.092V264.993H290.693Z" fill="#008FFF"/>
<path opacity="0.1" d="M215.282 169.344C215.282 169.344 220.745 169.016 220.097 172.845C220.13 173.039 220.101 173.239 220.014 173.415C219.927 173.592 219.787 173.737 219.613 173.829C219.613 173.829 219.601 173.544 219.051 173.641C218.855 173.675 218.656 173.685 218.457 173.67C218.189 173.652 217.935 173.547 217.733 173.37C217.733 173.37 216.197 172.735 215.598 170.224C215.598 170.224 215.156 169.677 215.174 169.537L216.091 169.931C216.091 169.931 215.777 170.596 216.025 171.148C216.025 171.148 216.055 169.954 216.231 169.984C216.268 169.984 216.71 170.213 216.71 170.213C216.71 170.213 216.169 171.373 216.577 172.215C216.577 172.215 216.421 170.786 216.88 170.298L217.529 170.676C217.529 170.676 216.896 171.873 217.325 172.85C217.325 172.85 217.215 171.352 217.666 170.768L218.253 171.226C218.253 171.226 217.66 172.407 218.024 173.216C218.024 173.216 218.072 171.474 218.384 171.341C218.607 171.53 218.806 171.745 218.978 171.981C218.978 171.981 218.57 172.838 218.822 173.29C218.822 173.29 218.978 172.127 219.104 172.123C219.104 172.123 219.617 172.893 219.67 173.42C219.645 172.931 219.493 172.457 219.228 172.045C219.524 172.101 219.797 172.242 220.014 172.451C220.014 172.451 219.934 171.907 219.097 171.859C219.097 171.859 218.673 171.275 218.561 171.24C218.561 171.24 219.388 171.171 219.89 171.394C219.89 171.394 219.448 170.88 218.409 171.112L217.827 170.639C217.827 170.639 218.932 170.49 219.39 170.651C219.39 170.651 218.859 170.192 217.682 170.527L217.05 170.149C217.537 170.042 218.035 169.999 218.533 170.02C218.533 170.02 217.948 169.706 216.866 170.048L216.408 169.844C216.408 169.844 217.096 169.711 217.288 169.69C217.481 169.67 217.499 169.612 217.499 169.612C217.068 169.541 216.625 169.59 216.22 169.754C216.22 169.754 215.264 169.397 215.282 169.344Z" fill="#008FFF"/>
<path opacity="0.1" d="M229.629 187.968C229.629 187.968 231.496 193.115 227.642 193.585C227.465 193.671 227.265 193.7 227.07 193.667C226.876 193.633 226.697 193.54 226.559 193.399C226.559 193.399 226.83 193.307 226.58 192.807C226.494 192.628 226.428 192.44 226.385 192.246C226.326 191.984 226.354 191.71 226.465 191.466C226.465 191.466 226.637 189.813 228.877 188.527C228.877 188.527 229.276 187.947 229.416 187.924L229.299 188.919C229.299 188.919 228.572 188.807 228.114 189.201C228.114 189.201 229.26 188.892 229.29 189.068C229.29 189.105 229.205 189.593 229.205 189.593C229.205 189.593 227.94 189.403 227.247 190.036C227.247 190.036 228.572 189.481 229.173 189.781L228.994 190.51C228.994 190.51 227.664 190.242 226.851 190.932C226.851 190.932 228.256 190.4 228.944 190.668L228.671 191.356C228.671 191.356 227.371 191.127 226.697 191.7C226.697 191.7 228.382 191.242 228.598 191.512C228.48 191.779 228.331 192.031 228.153 192.262C228.153 192.262 227.215 192.115 226.853 192.491C226.853 192.491 228.011 192.31 228.052 192.431C228.052 192.431 227.46 193.142 226.97 193.349C227.43 193.186 227.841 192.906 228.16 192.537C228.189 192.836 228.131 193.137 227.992 193.404C227.992 193.404 228.492 193.174 228.3 192.363C228.3 192.363 228.74 191.789 228.742 191.675C228.742 191.675 229.042 192.447 228.971 192.991C228.971 192.991 229.34 192.422 228.82 191.491L229.111 190.804C229.111 190.804 229.57 191.806 229.535 192.294C229.535 192.294 229.82 191.657 229.168 190.623L229.352 189.909C229.592 190.342 229.775 190.805 229.895 191.285C229.895 191.285 230.031 190.636 229.395 189.694L229.462 189.201C229.462 189.201 229.785 189.815 229.861 190.001C229.937 190.187 229.994 190.182 229.994 190.182C229.941 189.748 229.768 189.338 229.494 188.997C229.494 188.997 229.565 187.97 229.629 187.968Z" fill="#008FFF"/>
<path opacity="0.1" d="M193.396 183.632C193.396 183.632 195.265 188.777 191.408 189.247C191.232 189.334 191.032 189.364 190.838 189.33C190.644 189.297 190.465 189.203 190.328 189.061C190.328 189.061 190.597 188.972 190.349 188.47C190.262 188.291 190.196 188.104 190.152 187.91C190.094 187.648 190.123 187.373 190.234 187.128C190.234 187.128 190.406 185.475 192.644 184.189C192.644 184.189 193.043 183.611 193.183 183.586L193.068 184.584C193.068 184.584 192.337 184.476 191.878 184.866C191.878 184.866 193.025 184.554 193.054 184.733C193.054 184.769 192.97 185.258 192.97 185.258C192.97 185.258 191.704 185.067 191.014 185.698C191.014 185.698 192.339 185.143 192.938 185.443L192.759 186.172C192.759 186.172 191.431 185.906 190.617 186.594C190.617 186.594 192.023 186.065 192.708 186.331L192.435 187.018C192.435 187.018 191.135 186.789 190.461 187.36C190.461 187.36 192.149 186.901 192.362 187.172C192.245 187.44 192.095 187.692 191.917 187.924C191.917 187.924 190.98 187.775 190.62 188.153C190.62 188.153 191.777 187.972 191.819 188.091C191.819 188.091 191.225 188.802 190.734 189.008C191.195 188.845 191.605 188.565 191.924 188.195C191.955 188.494 191.896 188.796 191.757 189.063C191.757 189.063 192.257 188.834 192.066 188.02C192.066 188.02 192.506 187.449 192.506 187.332C192.506 187.332 192.809 188.105 192.736 188.651C192.736 188.651 193.103 188.082 192.584 187.151L192.873 186.464C192.873 186.464 193.332 187.465 193.3 187.956C193.3 187.956 193.584 187.316 192.933 186.282L193.114 185.569C193.354 186.002 193.537 186.465 193.657 186.945C193.657 186.945 193.795 186.296 193.16 185.354L193.226 184.863C193.226 184.863 193.547 185.478 193.625 185.663C193.703 185.849 193.756 185.842 193.756 185.842C193.703 185.409 193.531 184.998 193.258 184.657C193.258 184.657 193.334 183.632 193.396 183.632Z" fill="#008FFF"/>
<path opacity="0.1" d="M245.19 225.698C245.19 225.698 247.056 230.845 243.202 231.313C243.025 231.401 242.825 231.43 242.631 231.396C242.436 231.363 242.258 231.269 242.12 231.127C242.12 231.127 242.391 231.038 242.141 230.538C242.053 230.359 241.988 230.171 241.946 229.976C241.887 229.714 241.915 229.44 242.026 229.195C242.026 229.195 242.198 227.542 244.436 226.255C244.436 226.255 244.837 225.678 244.977 225.652L244.86 226.65C244.86 226.65 244.133 226.537 243.672 226.932C243.672 226.932 244.818 226.62 244.851 226.799C244.851 226.836 244.766 227.324 244.766 227.324C244.766 227.324 243.5 227.134 242.808 227.764C242.808 227.764 244.133 227.209 244.734 227.51L244.553 228.239C244.553 228.239 243.225 227.973 242.411 228.66C242.411 228.66 243.817 228.131 244.504 228.397L244.232 229.085C244.232 229.085 242.932 228.855 242.258 229.426C242.258 229.426 243.943 228.968 244.158 229.238C244.041 229.506 243.891 229.759 243.711 229.99C243.711 229.99 242.776 229.841 242.413 230.22C242.413 230.22 243.571 230.038 243.613 230.158C243.613 230.158 243.021 230.868 242.53 231.075C242.99 230.911 243.4 230.631 243.718 230.261C243.748 230.56 243.691 230.862 243.553 231.13C243.553 231.13 244.05 230.9 243.86 230.087C243.86 230.087 244.3 229.516 244.303 229.399C244.303 229.399 244.603 230.174 244.532 230.717C244.532 230.717 244.899 230.148 244.381 229.218L244.669 228.53C244.669 228.53 245.128 229.532 245.096 230.022C245.096 230.022 245.38 229.383 244.729 228.351L244.912 227.636C245.152 228.069 245.335 228.531 245.456 229.011C245.456 229.011 245.591 228.362 244.956 227.42L245.023 226.93C245.023 226.93 245.346 227.544 245.421 227.73C245.497 227.915 245.554 227.908 245.554 227.908C245.5 227.475 245.327 227.065 245.055 226.723C245.055 226.723 245.126 225.698 245.19 225.698Z" fill="#008FFF"/>
<path opacity="0.1" d="M252.6 177.185C252.6 177.185 254.468 182.332 250.614 182.802C250.437 182.889 250.238 182.918 250.043 182.884C249.849 182.851 249.67 182.757 249.532 182.616C249.532 182.616 249.801 182.525 249.553 182.025C249.465 181.846 249.4 181.658 249.358 181.463C249.299 181.201 249.327 180.926 249.438 180.681C249.438 180.681 249.61 179.028 251.848 177.744C251.848 177.744 252.247 177.164 252.389 177.141L252.272 178.137C252.272 178.137 251.545 178.024 251.084 178.419C251.084 178.419 252.231 178.109 252.261 178.286C252.261 178.322 252.176 178.811 252.176 178.811C252.176 178.811 250.912 178.62 250.22 179.251C250.22 179.251 251.545 178.698 252.144 178.996L251.965 179.728C251.965 179.728 250.637 179.459 249.823 180.15C249.823 180.15 251.229 179.618 251.914 179.884L251.642 180.571C251.642 180.571 250.342 180.342 249.67 180.913C249.67 180.913 251.355 180.454 251.57 180.727C251.453 180.995 251.303 181.246 251.123 181.477C251.123 181.477 250.188 181.33 249.826 181.706C249.826 181.706 250.984 181.525 251.025 181.647C251.025 181.647 250.431 182.357 249.943 182.564C250.403 182.402 250.812 182.122 251.13 181.752C251.161 182.051 251.102 182.353 250.963 182.619C250.963 182.619 251.463 182.389 251.272 181.578C251.272 181.578 251.713 181.005 251.715 180.89C251.715 180.89 252.015 181.665 251.944 182.208C251.944 182.208 252.311 181.64 251.793 180.709L252.082 180.021C252.082 180.021 252.54 181.023 252.508 181.511C252.508 181.511 252.792 180.874 252.141 179.84L252.325 179.127C252.564 179.56 252.747 180.023 252.868 180.503C252.868 180.503 253.003 179.851 252.368 178.911L252.435 178.419C252.435 178.419 252.756 179.033 252.834 179.219C252.912 179.404 252.967 179.398 252.967 179.398C252.912 178.964 252.739 178.554 252.467 178.212C252.467 178.212 252.538 177.187 252.6 177.185Z" fill="#008FFF"/>
<path opacity="0.1" d="M238.745 205.204C238.745 205.204 237.303 210.477 233.885 208.643C233.69 208.612 233.51 208.521 233.37 208.382C233.231 208.242 233.139 208.063 233.107 207.868C233.107 207.868 233.38 207.951 233.465 207.398C233.498 207.202 233.553 207.009 233.628 206.825C233.733 206.577 233.914 206.37 234.146 206.233C234.146 206.233 235.24 204.984 237.814 205.222C237.814 205.222 238.475 204.979 238.601 205.041L237.934 205.789C237.934 205.789 237.404 205.277 236.801 205.33C236.801 205.33 237.922 205.74 237.837 205.899C237.821 205.933 237.466 206.279 237.466 206.279C237.466 206.279 236.549 205.394 235.613 205.511C235.613 205.511 237.016 205.823 237.333 206.412L236.764 206.907C236.764 206.907 235.836 205.922 234.772 206.016C234.772 206.016 236.225 206.392 236.634 207.006L236.01 207.416C236.01 207.416 235.093 206.474 234.201 206.557C234.201 206.557 235.838 207.162 235.861 207.499C235.612 207.651 235.344 207.771 235.065 207.857C235.065 207.857 234.378 207.196 233.875 207.29C233.875 207.29 234.925 207.808 234.891 207.932C234.891 207.932 233.997 208.162 233.481 208.052C233.951 208.185 234.447 208.192 234.921 208.072C234.772 208.334 234.551 208.548 234.284 208.687C234.284 208.687 234.825 208.785 235.136 208.013C235.136 208.013 235.824 207.799 235.895 207.703C235.895 207.703 235.696 208.508 235.324 208.911C235.324 208.911 235.953 208.659 236.065 207.6L236.7 207.201C236.7 207.201 236.491 208.281 236.186 208.666C236.186 208.666 236.787 208.308 236.851 207.089L237.413 206.612C237.358 207.107 237.239 207.592 237.058 208.056C237.058 208.056 237.544 207.598 237.569 206.467L237.906 206.105C237.906 206.105 237.814 206.793 237.771 206.988C237.727 207.183 237.771 207.217 237.771 207.217C237.978 206.832 238.073 206.397 238.046 205.961C238.046 205.961 238.695 205.167 238.745 205.204Z" fill="#008FFF"/>
<path opacity="0.1" d="M199.625 209.925C199.625 209.925 198.183 215.198 194.762 213.364C194.568 213.333 194.388 213.241 194.249 213.102C194.11 212.963 194.018 212.783 193.987 212.589C193.987 212.589 194.258 212.671 194.345 212.119C194.376 211.922 194.43 211.729 194.508 211.546C194.611 211.298 194.792 211.09 195.024 210.954C195.024 210.954 196.117 209.704 198.692 209.943C198.692 209.943 199.352 209.7 199.481 209.762L198.811 210.509C198.811 210.509 198.281 209.998 197.679 210.051C197.679 210.051 198.8 210.461 198.717 210.622C198.701 210.654 198.346 211 198.346 211C198.346 211 197.429 210.115 196.493 210.232C196.493 210.232 197.894 210.544 198.21 211.133L197.644 211.628C197.644 211.628 196.713 210.642 195.652 210.736C195.652 210.736 197.105 211.112 197.513 211.727L196.89 212.137C196.89 212.137 195.973 211.195 195.079 211.277C195.079 211.277 196.716 211.883 196.741 212.222C196.49 212.373 196.222 212.492 195.943 212.577C195.943 212.577 195.255 211.917 194.755 212.011C194.755 212.011 195.805 212.531 195.769 212.653C195.769 212.653 194.875 212.882 194.359 212.772C194.829 212.905 195.325 212.912 195.799 212.793C195.651 213.056 195.429 213.269 195.161 213.407C195.161 213.407 195.702 213.506 196.016 212.733C196.016 212.733 196.704 212.52 196.775 212.424C196.775 212.424 196.573 213.228 196.202 213.634C196.202 213.634 196.83 213.38 196.943 212.32L197.578 211.922C197.578 211.922 197.371 213.001 197.066 213.387C197.066 213.387 197.667 213.029 197.731 211.809L198.291 211.332C198.236 211.827 198.117 212.313 197.938 212.777C197.938 212.777 198.424 212.318 198.447 211.188L198.784 210.826C198.784 210.826 198.692 211.513 198.648 211.708C198.605 211.903 198.648 211.938 198.648 211.938C198.855 211.553 198.95 211.117 198.923 210.681C198.923 210.681 199.572 209.876 199.625 209.925Z" fill="#008FFF"/>
<path d="M103.392 288.075L101.083 290.513L97.4217 284.061L97.7518 283.336L103.392 288.075Z" fill="#008FFF"/>
<path opacity="0.2" d="M103.392 288.075L101.083 290.513L97.4217 284.061L97.7518 283.336L103.392 288.075Z" fill="black"/>
<path d="M265.691 282.552C265.691 294.795 274.075 297.393 282.478 297.393C290.881 297.393 295.611 287.076 295.611 274.828C295.611 262.581 288.799 252.658 280.396 252.658C271.994 252.658 265.691 270.309 265.691 282.552Z" fill="#636780"/>
<path opacity="0.2" d="M265.691 282.552C265.691 294.795 274.075 297.393 282.478 297.393C290.881 297.393 295.611 287.076 295.611 274.828C295.611 262.581 288.799 252.658 280.396 252.658C271.994 252.658 265.691 270.309 265.691 282.552Z" fill="black"/>
<path d="M271.501 275.223C271.501 287.466 276.898 297.393 283.556 297.393C290.214 297.393 295.874 287.466 295.874 275.223C295.874 273.531 296.136 271.885 295.941 270.303C294.723 260.428 289.292 253.055 283.56 253.055C276.898 253.055 271.501 262.98 271.501 275.223Z" fill="#636780"/>
<path d="M272.702 221.257C272.702 221.257 283.269 233.106 286.626 242.981L195.377 253.055L146.497 242.981C146.497 242.981 165.856 219.783 171.088 218.887C176.32 217.99 272.702 221.257 272.702 221.257Z" fill="#008FFF"/>
<path opacity="0.4" d="M272.702 221.257C272.702 221.257 283.269 233.106 286.626 242.981L195.377 253.055L146.497 242.981C146.497 242.981 165.856 219.783 171.088 218.887C176.32 217.99 272.702 221.257 272.702 221.257Z" fill="black"/>
<path d="M205.747 251.399L191.101 292.489V282.089L187.025 270.447L175.731 265.447L161.411 271.944L156.289 273.544L155.842 264.066L172.867 255.673L180.793 251.869L198.935 250.287L203.94 249.393L205.747 251.399Z" fill="#008FFF"/>
<path d="M199.215 255.673L185.889 257.202C186.495 251.881 182.544 251.881 182.544 251.881L195.874 249.574H202.096" fill="#008FFF"/>
<path d="M191.101 298.808H181.655L154.301 297.89C154.301 297.89 153.709 303.106 146.506 301.88C146.506 301.88 142.539 302.134 142.113 299.979C141.687 297.824 151.146 277.907 151.146 277.907L164.043 268.278L175.735 265.44L184.129 267.909L189.462 276.392L192.818 288.004L191.101 298.808Z" fill="#636780"/>
<path opacity="0.2" d="M191.101 298.808H181.655L154.301 297.89C154.301 297.89 153.709 303.106 146.506 301.88C146.506 301.88 142.539 302.134 142.113 299.979C141.687 297.824 151.146 277.907 151.146 277.907L164.043 268.278L175.735 265.44L184.129 267.909L189.462 276.392L192.818 288.004L191.101 298.808Z" fill="black"/>
<path d="M270.863 224.093C272.216 225.199 276.49 229.163 280.05 237.545C280.174 237.833 280.229 238.146 280.211 238.459C280.193 238.772 280.103 239.076 279.947 239.348C279.792 239.621 279.575 239.853 279.314 240.027C279.054 240.202 278.756 240.313 278.445 240.353L256.99 243.134C256.199 243.237 255.398 243.045 254.74 242.594C254.081 242.143 253.613 241.465 253.423 240.69L249.652 225.304C249.595 225.075 249.592 224.837 249.643 224.607C249.694 224.377 249.796 224.161 249.944 223.977C250.091 223.793 250.278 223.646 250.492 223.546C250.705 223.446 250.938 223.396 251.174 223.401L269.921 223.75C270.265 223.754 270.597 223.875 270.863 224.093Z" fill="#008FFF"/>
<path opacity="0.2" d="M270.863 224.093C272.216 225.199 276.49 229.163 280.05 237.545C280.174 237.833 280.229 238.146 280.211 238.459C280.193 238.772 280.103 239.076 279.947 239.348C279.792 239.621 279.575 239.853 279.314 240.027C279.054 240.202 278.756 240.313 278.445 240.353L256.99 243.134C256.199 243.237 255.398 243.045 254.74 242.594C254.081 242.143 253.613 241.465 253.423 240.69L249.652 225.304C249.595 225.075 249.592 224.837 249.643 224.607C249.694 224.377 249.796 224.161 249.944 223.977C250.091 223.793 250.278 223.646 250.492 223.546C250.705 223.446 250.938 223.396 251.174 223.401L269.921 223.75C270.265 223.754 270.597 223.875 270.863 224.093Z" fill="white"/>
<path d="M239.685 223.367L215.525 223.137C213.785 223.121 212.226 224.284 211.639 226.058L204.105 243.169C203.438 245.172 204.88 247.259 206.856 247.144L242.122 244.822C245.048 244.652 247.118 241.669 246.442 238.595L243.886 226.978C243.425 224.878 241.691 223.385 239.685 223.367Z" fill="#008FFF"/>
<path opacity="0.2" d="M239.685 223.367L215.525 223.137C213.785 223.121 212.226 224.284 211.639 226.058L204.105 243.169C203.438 245.172 204.88 247.259 206.856 247.144L242.122 244.822C245.048 244.652 247.118 241.669 246.442 238.595L243.886 226.978C243.425 224.878 241.691 223.385 239.685 223.367Z" fill="white"/>
<path d="M202.129 223.092C195.523 222.972 178.019 222.473 169.311 220.466C169.311 220.466 154.367 231.724 149.89 240.216C149.89 240.216 173.183 245.885 189.271 246.654C190.464 246.709 191.647 246.412 192.673 245.801C193.699 245.189 194.523 244.29 195.042 243.214L203.596 225.487C203.719 225.236 203.777 224.957 203.764 224.677C203.75 224.397 203.667 224.125 203.52 223.886C203.374 223.648 203.17 223.449 202.926 223.31C202.683 223.172 202.409 223.096 202.129 223.092Z" fill="#008FFF"/>
<path opacity="0.2" d="M202.129 223.092C195.523 222.972 178.019 222.473 169.311 220.466C169.311 220.466 154.367 231.724 149.89 240.216C149.89 240.216 173.183 245.885 189.271 246.654C190.464 246.709 191.647 246.412 192.673 245.801C193.699 245.189 194.523 244.29 195.042 243.214L203.596 225.487C203.719 225.236 203.777 224.957 203.764 224.677C203.75 224.397 203.667 224.125 203.52 223.886C203.374 223.648 203.17 223.449 202.926 223.31C202.683 223.172 202.409 223.096 202.129 223.092Z" fill="white"/>
<path opacity="0.1" d="M193.753 225.657C191.002 225.609 185.635 225.467 180.394 225.075C176.534 224.78 172.659 225.382 169.07 226.834C165.482 228.285 162.277 230.546 159.707 233.441L159.537 233.633C159.165 234.062 158.911 234.581 158.801 235.137C158.69 235.694 158.727 236.27 158.907 236.809C159.087 237.347 159.404 237.83 159.828 238.208C160.251 238.586 160.766 238.848 161.321 238.966C167.103 240.206 176.953 242.1 184.555 242.467C185.411 242.51 186.26 242.3 186.997 241.863C187.734 241.426 188.326 240.781 188.698 240.009L194.801 227.361C194.888 227.181 194.928 226.983 194.918 226.784C194.908 226.585 194.848 226.392 194.743 226.222C194.639 226.053 194.493 225.912 194.321 225.813C194.148 225.714 193.953 225.661 193.753 225.657Z" fill="white"/>
<path d="M191.101 292.489V298.807L260.95 288.144C264.373 286.959 266.416 287.686 266.416 287.686C268.938 286.455 270.772 281.651 270.824 281.495L269.506 277.678L280.213 259.969L294.458 260.561C292.218 242.653 285.768 241.798 285.768 241.798L202.085 249.565L191.101 292.489Z" fill="#008FFF"/>
<path opacity="0.1" d="M206.155 254.772C206.703 255.373 207.705 255.918 209.552 255.868C212.384 255.799 212.92 253.383 212.991 251.94C213.009 251.587 212.999 251.233 212.962 250.881L209.252 249.746L208.493 250.455L206.253 252.553C205.949 252.836 205.768 253.227 205.75 253.642C205.731 254.057 205.877 254.463 206.155 254.772Z" fill="black"/>
<path d="M206.155 254.575C206.703 255.175 207.705 255.721 209.552 255.671C212.384 255.602 212.92 253.185 212.991 251.743C213.009 251.39 212.999 251.036 212.962 250.684L209.252 249.549L208.493 250.258L206.253 252.355C205.949 252.638 205.768 253.03 205.75 253.445C205.731 253.86 205.877 254.266 206.155 254.575Z" fill="#DCE0ED"/>
<path opacity="0.1" d="M208.491 250.258C208.966 251.466 210.369 251.794 210.369 251.794L212.989 251.743C213.007 251.39 212.997 251.036 212.959 250.684L209.25 249.549L208.491 250.258Z" fill="black"/>
<path d="M217.946 241.007C217.946 241.007 223.87 241.8 222.291 247.156C221.094 251.214 218.423 251.486 217.198 251.383C216.486 251.32 215.77 251.293 215.055 251.305L210.371 251.399C210.371 251.399 207.725 250.783 208.466 248.116C209.206 245.45 212.613 240.562 217.946 241.007Z" fill="#F0F0F4"/>
<path opacity="0.2" d="M250.023 257.202C248.514 257.202 247.29 255.61 247.29 253.646C247.29 251.682 248.514 250.09 250.023 250.09C251.532 250.09 252.756 251.682 252.756 253.646C252.756 255.61 251.532 257.202 250.023 257.202Z" fill="black"/>
<path opacity="0.1" d="M245.319 253.003L253.098 252.173C253.759 252.102 254.352 252.581 254.422 253.242L254.422 253.244C254.493 253.905 254.014 254.498 253.353 254.569L245.575 255.399C244.914 255.469 244.321 254.99 244.25 254.329L244.25 254.327C244.179 253.666 244.658 253.073 245.319 253.003Z" fill="black"/>
<path d="M245.319 252.804L253.097 251.974C253.758 251.904 254.351 252.382 254.422 253.043L254.422 253.046C254.492 253.707 254.014 254.3 253.353 254.37L245.574 255.2C244.913 255.271 244.32 254.792 244.25 254.131L244.249 254.129C244.179 253.468 244.658 252.875 245.319 252.804Z" fill="#F0F0F4"/>
<path opacity="0.1" d="M295.315 276.853C295.315 276.853 300.219 272.013 294.263 260.364C294.263 260.364 286.626 248.809 274.775 261.45C274.775 261.45 267.961 269.053 265.987 281.2L270.627 281.298C270.627 281.298 275.073 259.77 288.107 260.857C288.107 260.854 297.587 262.533 295.315 276.853Z" fill="black"/>
<path opacity="0.1" d="M295.508 277.444C295.508 277.444 300.414 272.607 294.455 260.953C294.455 260.953 286.818 249.4 274.967 262.04C274.967 262.04 268.154 269.645 266.177 281.789L270.82 281.887C270.82 281.887 275.27 260.364 288.304 261.448C288.304 261.448 297.784 263.126 295.508 277.444Z" fill="black"/>
<path d="M295.508 277.05C295.508 277.05 300.414 272.21 294.455 260.559C294.455 260.559 286.818 249.006 274.967 261.645C274.967 261.645 268.154 269.248 266.177 281.395L270.82 281.493C270.82 281.493 275.27 259.967 288.304 261.052C288.304 261.052 297.784 262.732 295.508 277.05Z" fill="#008FFF"/>
<path opacity="0.2" d="M295.508 277.05C295.508 277.05 300.414 272.21 294.455 260.559C294.455 260.559 286.818 249.006 274.967 261.645C274.967 261.645 268.154 269.248 266.177 281.395L270.82 281.493C270.82 281.493 275.27 259.967 288.304 261.052C288.304 261.052 297.784 262.732 295.508 277.05Z" fill="black"/>
<path opacity="0.1" d="M191.101 292.292V298.61L260.95 287.945C264.373 286.762 266.416 287.486 266.416 287.486C268.938 286.255 270.772 281.452 270.824 281.296L266.182 281.197L252.751 283.073L203.938 290.084C203.938 290.084 195.28 291.072 194.788 291.459C194.295 291.847 191.101 292.292 191.101 292.292Z" fill="black"/>
<path d="M191.101 292.489V298.808L260.95 288.144C264.373 286.959 266.416 287.686 266.416 287.686C268.938 286.455 270.772 281.651 270.824 281.495L266.182 281.397L252.751 283.272L203.938 290.283C203.938 290.283 195.28 291.271 194.788 291.659C194.295 292.046 191.101 292.489 191.101 292.489Z" fill="#008FFF"/>
<path opacity="0.2" d="M191.101 292.489V298.808L260.95 288.144C264.373 286.959 266.416 287.686 266.416 287.686C268.938 286.455 270.772 281.651 270.824 281.495L266.182 281.397L252.751 283.272L203.938 290.283C203.938 290.283 195.28 291.271 194.788 291.659C194.295 292.046 191.101 292.489 191.101 292.489Z" fill="black"/>
<path opacity="0.2" d="M252.85 283.291C257.19 269.356 256.958 259.637 256 253.944C254.959 247.754 252.854 244.835 252.834 244.808L252.676 244.925C252.696 244.952 254.776 247.85 255.807 253.995C256.761 259.676 256.99 269.344 252.66 283.242L252.85 283.291Z" fill="black"/>
<path d="M96.1721 277.185C95.9979 277.834 95.5921 279.627 96.2363 280.111C96.4817 280.294 96.6949 280.746 96.8599 281.282C97.1182 282.193 97.3053 283.122 97.4194 284.061L104.137 291.565L115.493 296.01L142.65 297.886L159.042 271.224L195.874 249.563L185.819 249.006C175.761 248.446 147.21 242.128 147.21 242.128L114.913 249.263C109.689 250.408 105.075 253.447 101.959 257.794C98.0269 263.296 96.2271 269.257 96.2271 269.257C95.7411 269.839 95.5531 270.793 95.5256 271.839C95.4889 273.542 95.8787 275.482 96.0919 276.408C96.1721 276.754 96.2271 276.961 96.2271 276.961C96.2271 276.961 96.2088 277.039 96.1721 277.185Z" fill="#008FFF"/>
<path opacity="0.1" d="M194.79 291.269C194.79 291.269 196.764 270.147 181.951 264.415C181.951 264.415 161.115 255.62 148.87 279.519L142.65 293.149C142.65 293.149 140.873 296.506 136.033 296.407C136.033 296.407 113.223 295.719 101.184 288.014L97.4308 283.657C97.4308 283.657 99.3063 289.779 101.184 291.161C101.184 291.161 108.589 299.851 135.549 301.433C135.549 301.433 146.575 302.616 149.899 292.15C149.899 292.15 154.409 268.45 177.32 268.647C177.32 268.647 190.78 268.911 191.11 292.083L194.79 291.269Z" fill="black"/>
<path d="M194.79 291.664C194.79 291.664 196.764 270.543 181.951 264.809C181.951 264.809 161.115 256.017 148.87 279.913L142.65 293.541C142.65 293.541 140.873 296.898 136.033 296.799C136.033 296.799 113.223 296.111 101.184 288.406L97.4194 284.061C97.4194 284.061 99.2948 290.182 101.173 291.565C101.173 291.565 108.578 300.257 135.538 301.836C135.538 301.836 146.563 303.021 149.888 292.553C149.888 292.553 154.397 268.854 177.308 269.051C177.308 269.051 190.768 269.317 191.099 292.489L194.79 291.664Z" fill="#008FFF"/>
<path opacity="0.2" d="M194.79 291.664C194.79 291.664 196.764 270.543 181.951 264.809C181.951 264.809 161.115 256.017 148.87 279.913L142.65 293.541C142.65 293.541 140.873 296.898 136.033 296.799C136.033 296.799 113.223 296.111 101.184 288.406L97.4194 284.061C97.4194 284.061 99.2948 290.182 101.173 291.565C101.173 291.565 108.578 300.257 135.538 301.836C135.538 301.836 146.563 303.021 149.888 292.553C149.888 292.553 154.397 268.854 177.308 269.051C177.308 269.051 190.768 269.317 191.099 292.489L194.79 291.664Z" fill="black"/>
<path opacity="0.2" d="M198.21 291.026L199.102 261.641C198.982 259.651 199.059 257.654 199.332 255.68C199.359 255.556 200.068 252.525 201.014 250.803C201.622 249.916 202.138 249.645 202.161 249.641L202.686 249.499L202.099 249.455C201.693 249.533 201.308 249.955 200.953 250.544C200.306 251.431 199.545 252.991 199.144 255.648C198.869 257.629 198.793 259.633 198.914 261.629L198.022 291.008L198.21 291.026Z" fill="black"/>
<path opacity="0.2" d="M180.078 269.232L180.27 269.264C180.27 269.241 180.681 266.804 182.033 264.867C184.869 260.806 185.796 258.053 185.901 256.214C185.953 255.577 185.875 254.936 185.672 254.329C185.229 253.089 184.044 252.172 182.435 251.718L182.091 251.775C183.638 252.211 185.071 253.22 185.495 254.396C185.698 254.994 185.776 255.626 185.725 256.255C185.61 258.055 184.681 260.756 181.891 264.757C180.493 266.728 180.08 269.207 180.078 269.232Z" fill="black"/>
<path opacity="0.2" d="M116.827 259.655C129.409 252.147 156.045 245.163 156.314 245.094L156.263 244.902C155.995 244.973 129.331 251.963 116.726 259.486L116.827 259.655Z" fill="black"/>
<path opacity="0.2" d="M98.5335 270.062C103.284 261.705 116.075 254.815 125.97 250.505C132.663 247.61 139.529 245.129 146.526 243.077L146.474 242.887C139.467 244.941 132.594 247.425 125.892 250.324C115.969 254.646 103.14 261.558 98.3616 269.963L98.5335 270.062Z" fill="black"/>
<path opacity="0.1" d="M98.234 267.674C97.2309 266.918 99.0208 262.851 102.232 258.589C105.443 254.328 108.86 251.486 109.863 252.242C110.866 252.998 109.076 257.065 105.865 261.327C102.654 265.588 99.2372 268.43 98.234 267.674Z" fill="black"/>
<path d="M98.2328 267.279C97.2297 266.523 99.0196 262.456 102.231 258.194C105.442 253.933 108.858 251.091 109.862 251.847C110.865 252.603 109.075 256.67 105.864 260.932C102.652 265.193 99.236 268.035 98.2328 267.279Z" fill="#DCE0ED"/>
<path opacity="0.1" d="M98.9836 265.956C98.3324 265.465 99.9542 262.214 102.606 258.695C105.258 255.176 107.936 252.721 108.587 253.212C109.238 253.702 107.616 256.953 104.964 260.472C102.313 263.991 99.6349 266.446 98.9836 265.956Z" fill="black"/>
<path d="M98.983 265.759C98.3318 265.268 99.9536 262.018 102.605 258.499C105.257 254.979 107.935 252.524 108.586 253.015C109.237 253.506 107.616 256.757 104.964 260.276C102.312 263.795 99.6343 266.25 98.983 265.759Z" fill="#F0F0F4"/>
<path opacity="0.1" d="M127.788 274.73C127.788 274.73 127.146 269.89 123.343 268.803C123.343 268.803 110.407 265.061 107.592 265.006C107.592 265.006 104.68 264.115 102.754 266.286L100.78 268.952C100.78 268.952 99.4047 271.126 102.459 271.52C102.459 271.52 118.092 277.252 124.872 277.848C125.257 277.883 125.64 277.941 126.018 278.022C127.009 278.228 129.088 278.288 127.788 274.73Z" fill="black"/>
<path d="M127.589 274.533C127.589 274.533 126.947 269.693 123.146 268.606C123.146 268.606 110.21 264.864 107.395 264.809C107.395 264.809 104.483 263.915 102.557 266.089L100.581 268.755C100.581 268.755 99.2053 270.926 102.261 271.323C102.261 271.323 117.893 277.055 124.672 277.651C125.058 277.685 125.441 277.744 125.819 277.825C126.812 278.031 128.891 278.091 127.589 274.533Z" fill="#F0F0F4"/>
<path opacity="0.1" d="M126.227 274.12C126.227 274.12 125.629 269.982 122.1 269.053C122.1 269.053 110.073 265.843 107.457 265.804C107.457 265.804 104.749 265.041 102.959 266.898L101.124 269.179C101.124 269.179 99.8405 271.039 102.686 271.376C102.686 271.376 117.219 276.282 123.522 276.789C123.876 276.819 124.229 276.869 124.579 276.938C125.502 277.1 127.435 277.16 126.227 274.12Z" fill="black"/>
<path d="M126.028 273.918C126.028 273.918 125.431 269.791 121.901 268.851C121.901 268.851 109.873 265.642 107.257 265.603C107.257 265.603 104.55 264.837 102.759 266.696L100.925 268.989C100.925 268.989 99.641 270.846 102.486 271.185C102.486 271.185 117.022 276.092 123.324 276.598C123.678 276.628 124.029 276.678 124.377 276.747C125.305 276.912 127.238 276.963 126.028 273.918Z" fill="#636780"/>
<path d="M125.012 271.369L125.037 271.172C124.861 271.151 107.294 268.968 103.513 266.05L103.392 266.206C107.216 269.152 124.287 271.275 125.012 271.369Z" fill="#F0F0F4"/>
<path d="M125.936 273.643L125.97 273.448C125.778 273.414 106.453 269.835 102.284 267.258L102.179 267.425C106.379 270.023 125.741 273.606 125.936 273.643Z" fill="#F0F0F4"/>
<path d="M126.392 275.516L126.429 275.324C126.199 275.28 103.96 271.082 101.209 268.622L101.078 268.769C103.859 271.265 125.475 275.344 126.392 275.516Z" fill="#F0F0F4"/>
<path opacity="0.1" d="M103.247 275.617C103.247 275.617 111.63 279.113 120.443 280.682C121.222 280.822 121.993 280.996 122.756 281.204C123.65 281.447 124.92 281.722 125.61 281.544C126.745 281.246 127.373 282.628 126.147 283.715L126.069 283.784C125.626 284.174 125.108 284.47 124.548 284.655C123.987 284.84 123.395 284.91 122.806 284.861L120.919 284.703C120.919 284.703 105.611 281.346 101.342 278.728C101.342 278.728 99.3934 277.392 99.2444 275.888C99.0954 274.384 98.9188 273.198 100.464 274.088C102.009 274.977 103.247 275.617 103.247 275.617Z" fill="black"/>
<path d="M103.059 275.424C103.371 275.553 111.6 278.946 120.254 280.484C121.034 280.623 121.805 280.798 122.568 281.007C123.46 281.25 124.732 281.525 125.422 281.346C126.568 281.048 127.185 282.431 125.959 283.518L125.922 283.55C125.466 283.953 124.933 284.26 124.355 284.452C123.777 284.644 123.166 284.717 122.559 284.666L120.743 284.515H120.713C120.188 284.4 105.352 281.119 101.156 278.554H101.14C101.01 278.46 99.1938 277.167 99.0517 275.718C98.9027 274.214 98.7238 273.029 100.271 273.918C101.741 274.762 102.931 275.385 103.041 275.443L103.059 275.424Z" fill="#F0F0F4"/>
<path opacity="0.1" d="M104.178 276.529C104.178 276.529 111.056 279.391 118.441 281.016C119.175 281.177 119.901 281.365 120.624 281.573C121.346 281.782 122.377 282.032 122.951 281.959C123.932 281.828 124.4 282.807 123.299 283.465L123.265 283.485C122.432 283.983 121.454 284.18 120.493 284.045L118.792 283.816C118.792 283.816 105.909 280.574 102.401 278.529C102.401 278.529 100.796 277.499 100.755 276.465C100.714 275.431 100.613 274.631 101.885 275.319C103.158 276.007 104.178 276.529 104.178 276.529Z" fill="black"/>
<path d="M103.983 276.332C104.13 276.394 110.939 279.21 118.242 280.819C118.975 280.98 119.704 281.168 120.426 281.376C121.149 281.585 122.178 281.835 122.754 281.761C123.735 281.631 124.203 282.607 123.1 283.268C122.246 283.779 121.242 283.982 120.257 283.843L118.602 283.614C118.336 283.547 105.694 280.354 102.218 278.341C102.163 278.304 100.613 277.293 100.574 276.277C100.535 275.262 100.432 274.432 101.704 275.131C102.977 275.83 103.94 276.314 103.997 276.341L103.983 276.332Z" fill="#636780"/>
<path opacity="0.1" d="M132.028 284.81C131.957 283.378 132.758 282.174 133.818 282.121C134.878 282.068 135.795 283.186 135.866 284.618C135.938 286.05 135.137 287.254 134.077 287.307C133.017 287.36 132.1 286.242 132.028 284.81Z" fill="black"/>
<path d="M132.084 284.798C132.013 283.368 132.813 282.165 133.872 282.113C134.93 282.06 135.846 283.177 135.917 284.607C135.989 286.037 135.188 287.24 134.13 287.292C133.071 287.345 132.155 286.228 132.084 284.798Z" fill="#F0F0F4"/>
<path opacity="0.1" d="M122.671 286.677C122.671 286.677 132.724 288.208 135.391 288.357C138.057 288.506 138.458 289.985 138.458 289.985C138.458 289.985 139.1 293.738 135.398 292.652L122.265 291.171C122.265 291.171 120.486 291.221 120.486 288.8V288.257C120.481 287.953 120.45 287.65 120.394 287.351C120.323 286.973 120.518 286.358 122.671 286.677Z" fill="black"/>
<path d="M122.474 286.48C122.474 286.48 132.527 288.011 135.194 288.158C137.86 288.305 138.254 289.788 138.254 289.788C138.254 289.788 138.896 293.541 135.194 292.455L122.059 290.973C122.059 290.973 120.282 291.024 120.282 288.603V288.059C120.277 287.756 120.246 287.453 120.19 287.154C120.117 286.776 120.321 286.161 122.474 286.48Z" fill="#F0F0F4"/>
<path d="M96.2364 280.111C96.4817 280.294 96.6949 280.746 96.86 281.282L100.116 283.589C100.155 283.617 100.202 283.633 100.25 283.637C100.299 283.64 100.347 283.63 100.391 283.608C100.434 283.586 100.47 283.552 100.496 283.511C100.521 283.469 100.535 283.422 100.535 283.373V280.952C100.535 280.605 100.446 280.264 100.275 279.962C100.104 279.66 99.8582 279.407 99.5608 279.228L96.1722 277.185C95.9979 277.834 95.5852 279.622 96.2364 280.111Z" fill="#F0F0F4"/>
<path d="M119.278 286.803L119.429 289.252C119.448 289.496 119.412 289.741 119.324 289.969C119.236 290.197 119.098 290.403 118.919 290.571C118.741 290.738 118.528 290.864 118.294 290.938C118.061 291.012 117.814 291.033 117.572 290.999C112.028 290.114 106.698 288.2 101.858 285.354L101.429 280.351C101.417 280.229 101.436 280.106 101.486 279.994C101.536 279.882 101.614 279.785 101.713 279.712C101.812 279.64 101.928 279.595 102.05 279.581C102.172 279.567 102.295 279.585 102.408 279.634C105.159 280.86 112.535 284.004 117.217 284.604C117.761 284.676 118.264 284.935 118.64 285.335C119.016 285.736 119.241 286.255 119.278 286.803Z" fill="#636780"/>
<path d="M117.765 285.542V289.522C117.765 289.522 105.519 286.629 102.805 284.678V280.902C107.573 283.08 112.601 284.639 117.765 285.542Z" fill="#008FFF"/>
<path d="M96.2981 276.598C96.9195 276.555 97.417 275.489 97.417 274.184C97.417 272.88 96.8988 271.768 96.2706 271.768C96.17 271.772 96.0713 271.798 95.981 271.842C95.8906 271.887 95.8105 271.95 95.7456 272.027C95.6952 273.73 96.0849 275.67 96.2981 276.598Z" fill="#008FFF"/>
<path d="M96.101 276.399C96.7223 276.358 97.2175 275.291 97.2175 273.987C97.2175 272.682 96.7017 271.568 96.0712 271.568C95.9701 271.573 95.8712 271.599 95.7805 271.644C95.6898 271.689 95.6093 271.752 95.5439 271.829C95.498 273.533 95.8878 275.473 96.101 276.399Z" fill="#F0F0F4"/>
<path d="M152.425 293.268C152.425 314.969 161.596 315.439 173.557 315.439C183.113 315.439 187.024 305.514 187.024 293.268C187.024 281.023 183.955 271.126 174.401 271.126C164.847 271.126 152.425 281.025 152.425 293.268Z" fill="#636780"/>
<path opacity="0.2" d="M152.425 293.268C152.425 314.969 161.596 315.439 173.557 315.439C183.113 315.439 187.024 305.514 187.024 293.268C187.024 281.023 183.955 271.126 174.401 271.126C164.847 271.126 152.425 281.025 152.425 293.268Z" fill="black"/>
<path d="M174.969 315.439C168.312 315.439 162.914 305.513 162.914 293.268C162.914 281.024 168.312 271.098 174.969 271.098C181.627 271.098 187.024 281.024 187.024 293.268C187.024 305.513 181.627 315.439 174.969 315.439Z" fill="#636780"/>
<path d="M278.264 280.111C278.264 286.759 280.19 292.092 284.191 292.092C288.191 292.092 292.947 286.698 292.947 280.044C292.947 273.391 291.284 267.538 287.284 267.538C283.283 267.538 278.264 273.457 278.264 280.111Z" fill="#F0F0F4"/>
<path d="M278.266 279.852C278.266 280.356 278.28 280.851 278.308 281.337C278.365 282.616 278.552 283.885 278.867 285.125C279.516 287.573 280.701 289.275 282.43 289.598C282.633 289.635 282.84 289.653 283.047 289.653C283.961 289.623 284.848 289.336 285.605 288.823C287.254 287.773 288.774 285.813 289.547 283.362C289.835 282.461 290.013 281.529 290.076 280.585C290.094 280.328 290.104 280.067 290.104 279.806C290.124 277.995 289.944 276.187 289.565 274.416C289.349 273.337 288.955 272.302 288.4 271.353C287.694 270.241 286.756 269.578 285.555 269.578C284.656 269.615 283.786 269.908 283.049 270.424C281.947 271.175 281.011 272.143 280.298 273.269C279.001 275.222 278.296 277.508 278.266 279.852Z" fill="#636780"/>
<path d="M278.312 281.346C278.369 282.621 278.555 283.887 278.867 285.125C278.95 285.031 281.215 282.413 282.916 284.093C284.166 285.324 283.113 288.128 282.43 289.596C282.634 289.633 282.84 289.651 283.047 289.651C283.961 289.621 284.848 289.333 285.605 288.821V288.633C285.605 288.633 284.599 285.496 287.284 283.563C287.284 283.563 288.588 283.045 289.558 283.357C289.847 282.457 290.025 281.524 290.088 280.581C289.858 280.4 288.288 279.054 288.93 276.518C289.103 275.803 289.319 275.1 289.576 274.411C289.357 273.333 288.959 272.3 288.4 271.353C288.4 271.353 287.884 274.152 285.91 274.319C283.936 274.487 283.074 270.532 283.049 270.422C281.947 271.172 281.011 272.141 280.298 273.267C280.298 273.267 283.45 274.578 282.531 278.068C281.857 280.539 279.573 281.184 278.312 281.346Z" fill="#F0F0F4"/>
<path d="M284.653 281.843C283.843 281.728 283.347 280.497 283.546 279.093C283.744 277.689 284.562 276.644 285.372 276.758C286.181 276.873 286.677 278.104 286.478 279.508C286.28 280.912 285.462 281.957 284.653 281.843Z" fill="#636780"/>
<path d="M172.867 294.195C172.867 302.166 174.566 308.551 178.094 308.551C181.623 308.551 185.818 302.088 185.818 294.108C185.818 286.127 184.351 279.123 180.823 279.123C177.294 279.123 172.867 286.223 172.867 294.195Z" fill="#F0F0F4"/>
<path d="M172.867 293.894C172.867 294.506 172.879 295.099 172.904 295.676C172.955 297.196 173.12 298.711 173.399 300.206C173.97 303.141 175.004 305.177 176.542 305.566C176.72 305.609 176.903 305.63 177.086 305.631C177.824 305.631 178.599 305.277 179.342 304.636C180.804 303.377 182.139 301.015 182.829 298.09C183.082 296.997 183.235 295.884 183.287 294.763C183.303 294.456 183.313 294.144 183.313 293.828C183.332 291.666 183.172 289.507 182.836 287.372C182.65 286.108 182.298 284.875 181.79 283.703C181.167 282.371 180.339 281.578 179.28 281.578C178.567 281.578 177.808 281.943 177.07 282.591C176.187 283.369 175.336 284.549 174.635 286.001C173.47 288.469 172.866 291.165 172.867 293.894Z" fill="#636780"/>
<path d="M172.904 295.671C172.955 297.192 173.12 298.706 173.399 300.202C173.47 300.087 175.462 296.95 176.971 298.963C178.071 300.44 177.145 303.799 176.542 305.562C176.72 305.604 176.903 305.626 177.086 305.626C177.824 305.626 178.599 305.273 179.342 304.631V304.402C179.342 304.402 178.454 300.644 180.823 298.328C180.823 298.328 181.969 297.707 182.829 298.081C183.082 296.988 183.235 295.875 183.287 294.754C183.086 294.536 181.701 292.92 182.267 289.887C182.483 288.74 182.675 287.922 182.836 287.365C182.65 286.101 182.298 284.868 181.79 283.696C181.79 283.696 181.332 287.053 179.594 287.25C177.856 287.447 177.092 282.715 177.072 282.584C176.189 283.362 175.339 284.542 174.637 285.994C174.637 285.994 177.418 287.566 176.606 291.746C176.036 294.72 174.02 295.481 172.904 295.671Z" fill="#F0F0F4"/>
<path d="M179.154 296.621C178.432 296.562 177.959 295.146 178.097 293.459C178.235 291.771 178.932 290.452 179.654 290.511C180.376 290.57 180.849 291.985 180.711 293.673C180.573 295.36 179.876 296.68 179.154 296.621Z" fill="#636780"/>
<path opacity="0.2" d="M146.109 259.481L146.189 259.662C146.267 259.625 153.095 256.682 178.413 252.385C179.596 252.185 180.819 251.981 182.081 251.773C182.198 251.757 182.311 251.736 182.432 251.718C186.483 251.058 190.956 250.372 195.89 249.655L195.863 249.457C189.179 250.42 183.345 251.337 178.255 252.209C153.001 256.501 146.189 259.447 146.109 259.481Z" fill="black"/>
<path opacity="0.1" d="M274.447 221.964C274.447 221.964 272.154 218.066 264.309 217.72C264.309 217.72 206.969 210.23 170.767 218.013C170.767 218.013 167.677 219.389 171.031 220.196C174.385 221.003 251.472 223.793 274.447 221.964Z" fill="black"/>
<path d="M274.447 221.569C274.447 221.569 272.154 217.672 264.309 217.323C264.309 217.323 206.969 209.835 170.767 217.619C170.767 217.619 167.677 218.995 171.031 219.802C174.385 220.609 251.472 223.399 274.447 221.569Z" fill="white"/>
<path opacity="0.1" d="M279.814 237.941C276.254 229.559 271.98 225.595 270.627 224.488C270.361 224.271 270.03 224.15 269.687 224.144L250.929 223.795C250.675 223.79 250.424 223.848 250.199 223.964C249.973 224.08 249.78 224.251 249.638 224.46C249.74 224.148 249.939 223.876 250.207 223.685C250.475 223.494 250.797 223.395 251.126 223.401L269.885 223.75C270.228 223.754 270.559 223.875 270.825 224.093C272.177 225.199 276.451 229.163 280.011 237.545C280.143 237.85 280.196 238.183 280.168 238.514C280.14 238.845 280.03 239.164 279.849 239.443C280.031 238.957 280.019 238.419 279.814 237.941Z" fill="black"/>
<path opacity="0.1" d="M246.047 238.877L243.491 227.26C243.032 225.157 241.295 223.667 239.291 223.649L215.13 223.419C214.209 223.413 213.316 223.733 212.608 224.323C212.978 223.921 213.428 223.6 213.928 223.381C214.429 223.162 214.969 223.049 215.516 223.05L239.676 223.28C241.682 223.3 243.415 224.79 243.876 226.893L246.444 238.508C246.66 239.444 246.615 240.422 246.315 241.335C246.015 242.249 245.472 243.062 244.743 243.689C245.337 243.055 245.767 242.285 245.995 241.445C246.222 240.606 246.24 239.724 246.047 238.877Z" fill="black"/>
<path opacity="0.1" d="M193.808 243.769L202.36 226.042C202.481 225.791 202.537 225.513 202.523 225.235C202.509 224.956 202.425 224.686 202.279 224.448C202.133 224.21 201.929 224.013 201.687 223.875C201.445 223.736 201.172 223.661 200.893 223.656C194.379 223.536 177.26 223.048 168.438 221.111C168.992 220.677 169.311 220.437 169.311 220.437C178.023 222.443 195.523 222.943 202.129 223.062C202.408 223.067 202.681 223.143 202.923 223.281C203.165 223.419 203.368 223.617 203.514 223.854C203.661 224.092 203.745 224.362 203.759 224.641C203.773 224.919 203.717 225.197 203.596 225.448L195.042 243.169C194.693 243.893 194.204 244.542 193.604 245.077C193.003 245.612 192.303 246.023 191.543 246.287C192.521 245.679 193.307 244.806 193.808 243.769Z" fill="black"/>
<path d="M191.101 291.664H194.788V292.798H191.101V291.664Z" fill="#008FFF"/>
<path opacity="0.2" d="M191.101 291.664H194.788V292.798H191.101V291.664Z" fill="black"/>
<path d="M266.354 280.432L270.886 281.213C270.859 281.37 270.815 281.524 270.756 281.672C270.666 281.901 265.712 281.495 265.712 281.495L266.189 281.397L266.354 280.432Z" fill="#008FFF"/>
<path opacity="0.2" d="M266.354 280.432L270.886 281.213C270.859 281.37 270.815 281.524 270.756 281.672C270.666 281.901 265.712 281.495 265.712 281.495L266.189 281.397L266.354 280.432Z" fill="black"/>
<path opacity="0.1" d="M283.455 291.544C287.453 291.544 292.211 286.15 292.211 279.496C292.211 274.936 291.429 270.75 289.65 268.569C291.942 270.419 292.947 275.085 292.947 280.232C292.947 286.881 288.189 292.28 284.191 292.28C282.838 292.28 281.726 291.67 280.841 290.607C281.574 291.218 282.5 291.551 283.455 291.544Z" fill="black"/>
<path opacity="0.1" d="M177.31 307.666C180.892 307.666 185.151 301.19 185.151 293.2C185.151 287.722 184.464 282.697 182.859 280.079C184.922 282.3 185.809 287.904 185.809 294.085C185.809 302.075 181.55 308.551 177.968 308.551C176.758 308.551 175.76 307.818 174.969 306.543C175.634 307.268 176.414 307.666 177.31 307.666Z" fill="black"/>
<path opacity="0.1" d="M134.725 276.629C132.42 274.324 134.199 268.809 138.698 264.31C143.198 259.811 148.713 258.032 151.018 260.336C153.322 262.641 151.543 268.156 147.044 272.656C142.545 277.155 137.03 278.934 134.725 276.629Z" fill="black"/>
<path d="M134.528 276.433C132.223 274.128 134.002 268.613 138.501 264.114C143.001 259.614 148.516 257.835 150.821 260.14C153.125 262.445 151.346 267.96 146.847 272.459C142.348 276.958 136.833 278.737 134.528 276.433Z" fill="#DCE0ED"/>
<path opacity="0.1" d="M135.196 275.028C133.507 273.338 135.232 268.874 139.05 265.056C142.867 261.238 147.332 259.513 149.021 261.202C150.711 262.892 148.986 267.357 145.168 271.174C141.35 274.992 136.886 276.717 135.196 275.028Z" fill="black"/>
<path d="M135.196 274.829C133.506 273.139 135.232 268.675 139.049 264.857C142.867 261.039 147.332 259.314 149.021 261.003C150.711 262.693 148.985 267.157 145.168 270.975C141.35 274.793 136.885 276.518 135.196 274.829Z" fill="#F0F0F4"/>
<path d="M73.6969 306.247C73.6969 306.247 83.3903 305.663 82.2486 312.456C82.2486 312.456 82.4778 313.655 81.3865 314.201C81.3865 314.201 81.3705 313.699 80.3915 313.868C80.044 313.927 79.6907 313.944 79.3392 313.919C78.8638 313.887 78.412 313.7 78.053 313.387C78.053 313.387 75.327 312.261 74.2678 307.809C74.2678 307.809 73.4837 306.837 73.5158 306.587L75.1505 307.274C75.1505 307.274 74.591 308.455 75.0312 309.436C75.0312 309.436 75.084 307.318 75.3981 307.373C75.4623 307.373 76.2487 307.781 76.2487 307.781C76.2487 307.781 75.2857 309.845 76.0194 311.33C76.0194 311.33 75.7443 308.808 76.5559 307.93L77.7022 308.602C77.7022 308.602 76.5788 310.725 77.34 312.458C77.34 312.458 77.1451 309.801 77.9452 308.765L78.9884 309.579C78.9884 309.579 77.9315 311.672 78.5757 313.109C78.5757 313.109 78.6605 310.016 79.2154 309.783C79.2154 309.783 80.1324 310.587 80.2654 310.918C80.2654 310.918 79.5432 312.435 79.9926 313.238C79.9926 313.238 80.2677 311.174 80.4924 311.174C80.4924 311.174 81.4095 312.55 81.4966 313.467C81.4966 313.467 81.4576 312.075 80.7125 311.034C81.237 311.134 81.7208 311.385 82.1041 311.757C82.1041 311.757 81.9643 310.791 80.4992 310.707C80.4992 310.707 79.7473 309.67 79.5478 309.608C79.5478 309.608 81.0151 309.485 81.9047 309.879C81.9047 309.879 81.1206 308.962 79.2773 309.381L78.2479 308.542C78.2479 308.542 80.1806 308.276 80.9991 308.57C80.9991 308.57 80.0568 307.763 77.9705 308.341L76.8493 307.671C76.8493 307.671 78.4955 307.316 79.4767 307.442C79.4767 307.442 78.4427 306.882 76.5192 307.488L75.719 307.128C75.719 307.128 76.925 306.898 77.2781 306.855C77.6311 306.811 77.6518 306.72 77.6518 306.72C76.8872 306.592 76.1022 306.679 75.3843 306.972C75.3843 306.972 73.6694 306.355 73.6969 306.247Z" fill="#008FFF"/>
<path opacity="0.1" d="M80.3732 315.952C76.5846 315.952 73.5134 315.433 73.5134 314.792C73.5134 314.151 76.5846 313.632 80.3732 313.632C84.1617 313.632 87.2329 314.151 87.2329 314.792C87.2329 315.433 84.1617 315.952 80.3732 315.952Z" fill="#008FFF"/>
<path opacity="0.1" d="M58.8678 293.821C56.7317 293.821 55 293.528 55 293.168C55 292.807 56.7317 292.514 58.8678 292.514C61.0039 292.514 62.7356 292.807 62.7356 293.168C62.7356 293.528 61.0039 293.821 58.8678 293.821Z" fill="#008FFF"/>
<path d="M87.3589 291.673C87.3589 291.673 93.9572 291.276 93.18 295.898C93.2201 296.133 93.1849 296.375 93.0795 296.588C92.9741 296.802 92.8039 296.977 92.5931 297.088C92.5931 297.088 92.5816 296.744 91.9053 296.859C91.6683 296.899 91.4274 296.91 91.1877 296.893C90.8642 296.871 90.5568 296.743 90.3119 296.531C90.3119 296.531 88.4571 295.765 87.7349 292.734C87.7349 292.734 87.203 292.072 87.2237 291.902L88.3356 292.377C88.3356 292.377 87.9573 293.181 88.2554 293.848C88.2554 293.848 88.292 292.406 88.5053 292.441C88.5488 292.441 89.083 292.718 89.083 292.718C89.083 292.718 88.4296 294.119 88.9225 295.135C88.9225 295.135 88.7368 293.411 89.2894 292.821L90.0712 293.28C90.0712 293.28 89.3077 294.727 89.8258 295.905C89.8258 295.905 89.6929 294.096 90.2362 293.383L90.947 293.936C90.947 293.936 90.2293 295.362 90.6672 296.338C90.6672 296.338 90.7246 294.234 91.1006 294.073C91.1006 294.073 91.7219 294.621 91.8182 294.848C91.8182 294.848 91.3252 295.882 91.6302 296.428C91.6302 296.428 91.8182 295.025 91.9718 295.018C91.9718 295.018 92.5908 295.935 92.6596 296.584C92.6287 295.995 92.4445 295.424 92.1254 294.928C92.4826 294.996 92.8124 295.167 93.0745 295.419C93.0745 295.419 92.9783 294.763 91.9741 294.706C91.9741 294.706 91.4605 294 91.3252 293.956C91.3252 293.956 92.3225 293.874 92.9301 294.142C92.9301 294.142 92.3959 293.523 91.1418 293.805L90.4403 293.232C90.4403 293.232 91.7563 293.051 92.3134 293.25C92.3134 293.25 91.6714 292.702 90.25 293.101L89.4865 292.643C89.4865 292.643 90.6076 292.402 91.2748 292.489C91.2748 292.489 90.571 292.108 89.2618 292.521L88.7162 292.276C88.7162 292.276 89.537 292.113 89.7777 292.088C90.0184 292.062 90.0322 291.996 90.0322 291.996C89.5119 291.909 88.9777 291.969 88.4892 292.168C88.4892 292.168 87.3314 291.746 87.3589 291.673Z" fill="#008FFF"/>
<path opacity="0.1" d="M91.903 298.278C89.3237 298.278 87.2328 297.925 87.2328 297.489C87.2328 297.054 89.3237 296.701 91.903 296.701C94.4823 296.701 96.5732 297.054 96.5732 297.489C96.5732 297.925 94.4823 298.278 91.903 298.278Z" fill="#008FFF"/>
<path opacity="0.1" d="M308.14 305.814C304.352 305.814 301.281 305.295 301.281 304.654C301.281 304.013 304.352 303.494 308.14 303.494C311.929 303.494 315 304.013 315 304.654C315 305.295 311.929 305.814 308.14 305.814Z" fill="#008FFF"/>
<path d="M312.746 299.264C312.746 299.264 308.835 299.145 307.654 298.303C306.474 297.462 301.636 296.469 301.343 297.808C301.049 299.147 295.462 304.507 299.88 304.542C304.298 304.576 310.144 303.854 311.323 303.136C312.501 302.418 312.746 299.264 312.746 299.264Z" fill="#A8A8A8"/>
<path opacity="0.2" d="M299.802 304.074C304.22 304.108 310.066 303.386 311.242 302.668C312.139 302.123 312.496 300.163 312.618 299.259H312.749C312.749 299.259 312.501 302.416 311.325 303.132C310.149 303.847 304.3 304.574 299.882 304.537C298.607 304.537 298.167 304.078 298.19 303.391C298.367 303.813 298.853 304.065 299.802 304.074Z" fill="black"/>
<g opacity="0.1">
<path opacity="0.1" d="M174.942 250.627C175.036 250.799 175.71 251.202 176.531 251.647C176.607 251.049 176.662 250.597 176.673 250.457C176.721 249.946 175.63 247.655 175.63 247.655C175.63 247.655 173.541 244.854 173.589 244.432C173.637 244.01 172.782 242.799 172.782 242.799L170.889 239.73C170.993 239.964 171.03 240.222 170.996 240.476C170.962 240.73 170.857 240.969 170.694 241.167C170.123 241.915 170.6 243.409 170.6 243.409L170.483 245.294V245.482C170.549 245.548 170.854 245.84 171.528 246.447C172.15 247.007 172.039 247.179 171.968 247.224C172.111 247.477 171.936 247.52 171.936 247.52C171.881 247.52 171.826 247.516 171.771 247.506L171.923 247.646C173.078 248.728 174.772 250.322 174.942 250.627Z" fill="url(#paint0_linear)"/>
</g>
</g>
<defs>
<linearGradient id="paint0_linear" x1="-3807.57" y1="6567.65" x2="-3978.58" y2="6567.65" gradientUnits="userSpaceOnUse">
<stop stop-color="#808080" stop-opacity="0.25"/>
<stop offset="0.54" stop-color="#808080" stop-opacity="0.12"/>
<stop offset="1" stop-color="#808080" stop-opacity="0.1"/>
</linearGradient>
<clipPath id="clip0">
<rect width="260" height="186.24" fill="white" transform="matrix(-1 0 0 1 315 134)"/>
</clipPath>
</defs>
</svg>
