<svg width="328" height="328" viewBox="0 0 328 328" fill="none" xmlns="http://www.w3.org/2000/svg">
<g clip-path="url(#clip0)">
<path opacity="0.1" d="M204 326.34C270.274 326.34 324 319.81 324 311.755C324 303.699 270.274 297.169 204 297.169C137.726 297.169 84 303.699 84 311.755C84 319.81 137.726 326.34 204 326.34Z" fill="#008FFF"/>
<path d="M289.328 318.904C289.328 318.904 295.587 310.94 295.081 303.039C294.847 299.726 295.695 296.427 297.496 293.636C298.361 292.319 299.346 291.083 300.437 289.944" stroke="#535461" stroke-width="2" stroke-miterlimit="10"/>
<path d="M300.147 284.963C299.706 286.069 300.429 290.075 300.429 290.075C300.429 290.075 303.711 287.667 304.152 286.561C304.364 286.03 304.356 285.437 304.13 284.912C303.904 284.387 303.479 283.973 302.948 283.761C302.417 283.549 301.824 283.557 301.299 283.782C300.774 284.008 300.359 284.432 300.147 284.963Z" fill="#008FFF"/>
<path d="M294.393 289.769C294.623 290.937 297.407 293.907 297.407 293.907C297.407 293.907 298.854 290.101 298.623 288.933C298.568 288.655 298.459 288.391 298.302 288.156C298.145 287.92 297.943 287.717 297.708 287.56C297.473 287.402 297.209 287.292 296.931 287.237C296.654 287.181 296.368 287.181 296.09 287.236C295.812 287.291 295.548 287.4 295.313 287.557C295.077 287.714 294.874 287.915 294.717 288.151C294.559 288.386 294.449 288.65 294.394 288.927C294.338 289.205 294.338 289.491 294.393 289.769Z" fill="#008FFF"/>
<path d="M290.36 300.295C291.149 301.187 295.052 302.346 295.052 302.346C295.052 302.346 294.379 298.331 293.59 297.439C293.403 297.226 293.175 297.053 292.921 296.929C292.666 296.805 292.39 296.732 292.107 296.715C291.825 296.697 291.541 296.736 291.273 296.828C291.006 296.92 290.759 297.064 290.547 297.251C290.334 297.439 290.161 297.667 290.037 297.921C289.913 298.176 289.84 298.452 289.823 298.735C289.806 299.017 289.844 299.301 289.936 299.568C290.029 299.836 290.173 300.083 290.36 300.295Z" fill="#008FFF"/>
<path d="M289.103 308.947C289.73 309.959 293.38 311.761 293.38 311.761C293.38 311.761 293.396 307.69 292.769 306.677C292.62 306.436 292.425 306.227 292.195 306.062C291.966 305.896 291.705 305.777 291.43 305.712C291.154 305.648 290.868 305.638 290.589 305.683C290.309 305.729 290.041 305.829 289.801 305.978C289.56 306.127 289.351 306.322 289.185 306.552C289.02 306.782 288.901 307.042 288.836 307.318C288.772 307.594 288.762 307.879 288.808 308.159C288.853 308.438 288.954 308.706 289.103 308.947Z" fill="#008FFF"/>
<path d="M301.527 295.799C300.426 296.253 296.412 295.577 296.412 295.577C296.412 295.577 298.781 292.267 299.882 291.812C300.411 291.594 301.004 291.595 301.532 291.815C302.06 292.034 302.48 292.455 302.698 292.983C302.916 293.512 302.915 294.106 302.695 294.634C302.476 295.162 302.055 295.581 301.527 295.799Z" fill="#008FFF"/>
<path d="M299.928 305.898C298.742 306.002 295.114 304.156 295.114 304.156C295.114 304.156 298.365 301.707 299.551 301.603C299.834 301.578 300.118 301.609 300.388 301.693C300.659 301.778 300.909 301.916 301.127 302.098C301.344 302.28 301.523 302.503 301.654 302.754C301.785 303.005 301.865 303.28 301.89 303.562C301.914 303.844 301.883 304.129 301.798 304.399C301.713 304.669 301.575 304.92 301.393 305.137C301.211 305.354 300.988 305.533 300.736 305.663C300.485 305.794 300.21 305.874 299.928 305.898Z" fill="#008FFF"/>
<path d="M297.027 315.501C295.875 315.804 291.987 314.597 291.987 314.597C291.987 314.597 294.778 311.634 295.93 311.331C296.483 311.186 297.071 311.266 297.565 311.554C298.059 311.842 298.418 312.315 298.563 312.868C298.709 313.421 298.629 314.009 298.34 314.503C298.052 314.997 297.58 315.356 297.027 315.501Z" fill="#008FFF"/>
<path opacity="0.25" d="M300.147 284.963C299.706 286.069 300.429 290.075 300.429 290.075C300.429 290.075 303.711 287.667 304.152 286.561C304.364 286.03 304.356 285.437 304.13 284.912C303.904 284.387 303.479 283.973 302.948 283.761C302.417 283.549 301.824 283.557 301.299 283.782C300.774 284.008 300.359 284.432 300.147 284.963Z" fill="black"/>
<path opacity="0.25" d="M294.393 289.769C294.623 290.937 297.407 293.907 297.407 293.907C297.407 293.907 298.854 290.101 298.623 288.933C298.568 288.655 298.459 288.391 298.302 288.156C298.145 287.92 297.943 287.717 297.708 287.56C297.473 287.402 297.209 287.292 296.931 287.237C296.654 287.181 296.368 287.181 296.09 287.236C295.812 287.291 295.548 287.4 295.313 287.557C295.077 287.714 294.874 287.915 294.717 288.151C294.559 288.386 294.449 288.65 294.394 288.927C294.338 289.205 294.338 289.491 294.393 289.769Z" fill="black"/>
<path opacity="0.25" d="M290.36 300.295C291.149 301.187 295.052 302.346 295.052 302.346C295.052 302.346 294.379 298.331 293.59 297.439C293.403 297.226 293.175 297.053 292.921 296.929C292.666 296.805 292.39 296.732 292.107 296.715C291.825 296.697 291.541 296.736 291.273 296.828C291.006 296.92 290.759 297.064 290.547 297.251C290.334 297.439 290.161 297.667 290.037 297.921C289.913 298.176 289.84 298.452 289.823 298.735C289.806 299.017 289.844 299.301 289.936 299.568C290.029 299.836 290.173 300.083 290.36 300.295Z" fill="black"/>
<path opacity="0.25" d="M289.103 308.947C289.73 309.959 293.38 311.761 293.38 311.761C293.38 311.761 293.396 307.69 292.769 306.677C292.62 306.436 292.425 306.227 292.195 306.062C291.966 305.896 291.705 305.777 291.43 305.712C291.154 305.648 290.868 305.638 290.589 305.683C290.309 305.729 290.041 305.829 289.801 305.978C289.56 306.127 289.351 306.322 289.185 306.552C289.02 306.782 288.901 307.042 288.836 307.318C288.772 307.594 288.762 307.879 288.808 308.159C288.853 308.438 288.954 308.706 289.103 308.947Z" fill="black"/>
<path opacity="0.25" d="M301.527 295.799C300.426 296.253 296.412 295.577 296.412 295.577C296.412 295.577 298.781 292.267 299.882 291.812C300.411 291.594 301.004 291.595 301.532 291.815C302.06 292.034 302.48 292.455 302.698 292.983C302.916 293.512 302.915 294.106 302.695 294.634C302.476 295.162 302.055 295.581 301.527 295.799Z" fill="black"/>
<path opacity="0.25" d="M299.928 305.898C298.742 306.002 295.114 304.156 295.114 304.156C295.114 304.156 298.365 301.707 299.551 301.603C299.834 301.578 300.118 301.609 300.388 301.693C300.659 301.778 300.909 301.916 301.127 302.098C301.344 302.28 301.523 302.503 301.654 302.754C301.785 303.005 301.865 303.28 301.89 303.562C301.914 303.844 301.883 304.129 301.798 304.399C301.713 304.669 301.575 304.92 301.393 305.137C301.211 305.354 300.988 305.533 300.736 305.663C300.485 305.794 300.21 305.874 299.928 305.898Z" fill="black"/>
<path opacity="0.25" d="M297.027 315.501C295.875 315.804 291.987 314.597 291.987 314.597C291.987 314.597 294.778 311.634 295.93 311.331C296.483 311.186 297.071 311.266 297.565 311.554C298.059 311.842 298.418 312.315 298.563 312.868C298.709 313.421 298.629 314.009 298.34 314.503C298.052 314.997 297.58 315.356 297.027 315.501Z" fill="black"/>
<path d="M289.381 318.572C289.381 318.572 298.33 313.828 301.069 306.399C302.198 303.276 304.31 300.603 307.087 298.782C308.412 297.928 309.813 297.197 311.272 296.598" stroke="#535461" stroke-width="2" stroke-miterlimit="10"/>
<path d="M313.026 291.927C312.174 292.76 311.212 296.715 311.212 296.715C311.212 296.715 315.188 295.843 316.04 295.011C316.449 294.611 316.682 294.066 316.689 293.494C316.695 292.922 316.474 292.371 316.075 291.962C315.675 291.553 315.129 291.32 314.557 291.313C313.986 291.307 313.435 291.528 313.026 291.927Z" fill="#008FFF"/>
<path d="M305.817 293.989C305.555 295.15 306.897 298.994 306.897 298.994C306.897 298.994 309.761 296.101 310.024 294.939C310.086 294.663 310.093 294.377 310.045 294.098C309.997 293.819 309.895 293.552 309.744 293.313C309.593 293.074 309.396 292.866 309.164 292.703C308.933 292.54 308.672 292.423 308.396 292.361C308.12 292.298 307.834 292.291 307.555 292.339C307.276 292.387 307.009 292.49 306.77 292.641C306.53 292.792 306.323 292.989 306.159 293.22C305.996 293.451 305.88 293.712 305.817 293.989Z" fill="#008FFF"/>
<path d="M297.865 301.978C298.225 303.113 301.324 305.754 301.324 305.754C301.324 305.754 302.336 301.811 301.976 300.676C301.891 300.406 301.753 300.155 301.57 299.939C301.388 299.722 301.165 299.543 300.913 299.413C300.662 299.283 300.388 299.203 300.105 299.179C299.823 299.154 299.539 299.186 299.269 299.272C298.999 299.357 298.749 299.495 298.532 299.677C298.316 299.86 298.137 300.083 298.007 300.334C297.876 300.585 297.797 300.86 297.773 301.142C297.748 301.424 297.78 301.708 297.865 301.978Z" fill="#008FFF"/>
<path d="M293.21 309.378C293.373 310.558 295.98 313.684 295.98 313.684C295.98 313.684 297.644 309.969 297.482 308.789C297.443 308.508 297.349 308.238 297.206 307.994C297.063 307.75 296.873 307.536 296.648 307.365C296.422 307.194 296.165 307.069 295.891 306.998C295.617 306.926 295.332 306.909 295.051 306.948C294.771 306.986 294.501 307.08 294.256 307.223C294.012 307.366 293.798 307.556 293.627 307.782C293.456 308.007 293.331 308.265 293.26 308.538C293.188 308.812 293.171 309.098 293.21 309.378Z" fill="#008FFF"/>
<path d="M309.896 302.392C308.706 302.362 305.31 300.117 305.31 300.117C305.31 300.117 308.818 298.051 310.008 298.082C310.58 298.097 311.122 298.338 311.516 298.753C311.909 299.167 312.122 299.721 312.107 300.293C312.093 300.865 311.851 301.407 311.437 301.801C311.022 302.194 310.468 302.407 309.896 302.392H309.896Z" fill="#008FFF"/>
<path d="M304.342 310.978C303.215 310.592 300.646 307.434 300.646 307.434C300.646 307.434 304.612 306.512 305.738 306.898C306.279 307.083 306.725 307.476 306.976 307.989C307.228 308.503 307.265 309.095 307.08 309.636C306.895 310.177 306.502 310.622 305.989 310.874C305.475 311.126 304.883 311.163 304.342 310.978V310.978Z" fill="#008FFF"/>
<path d="M297.798 318.581C296.623 318.392 293.557 315.713 293.557 315.713C293.557 315.713 297.31 314.135 298.485 314.324C299.05 314.415 299.555 314.727 299.89 315.191C300.224 315.654 300.361 316.232 300.27 316.796C300.179 317.361 299.867 317.866 299.404 318.201C298.94 318.536 298.363 318.672 297.798 318.581Z" fill="#008FFF"/>
<path opacity="0.1" d="M220.774 174.41C208.916 173.999 197.623 170.17 186.838 165.982C176.054 161.794 165.372 157.154 153.798 154.935C146.354 153.508 137.842 153.306 131.843 157.297C126.072 161.137 124.207 167.767 123.204 173.919C122.449 178.547 122.006 183.418 124.073 187.751C125.508 190.759 128.056 193.288 129.818 196.169C135.95 206.195 131.616 218.558 124.971 228.348C121.854 232.94 118.239 237.321 115.834 242.209C113.429 247.097 112.316 252.698 114.42 257.685C116.506 262.628 121.477 266.34 126.861 268.951C137.797 274.255 150.683 275.772 163.25 276.632C191.066 278.535 219.031 277.711 246.922 276.886C257.244 276.581 267.611 276.271 277.765 274.675C283.403 273.789 289.225 272.382 293.318 268.986C298.515 264.675 299.803 257.375 296.321 251.969C290.48 242.902 274.33 240.65 270.247 230.919C268 225.562 270.308 219.596 273.574 214.628C280.58 203.972 292.322 194.623 292.941 182.442C293.366 174.076 287.721 165.698 278.992 161.74C269.843 157.591 257.157 158.112 250.407 164.98C243.457 172.053 231.244 174.774 220.774 174.41Z" fill="#008FFF"/>
<path d="M200.471 305.213C204.924 305.213 208.534 301.381 208.534 296.655C208.534 291.928 204.924 288.097 200.471 288.097C196.019 288.097 192.409 291.928 192.409 296.655C192.409 301.381 196.019 305.213 200.471 305.213Z" fill="#FBD56F"/>
<path opacity="0.1" d="M200.471 305.213C204.924 305.213 208.534 301.381 208.534 296.655C208.534 291.928 204.924 288.097 200.471 288.097C196.019 288.097 192.409 291.928 192.409 296.655C192.409 301.381 196.019 305.213 200.471 305.213Z" fill="black"/>
<path d="M201.863 305.213C206.316 305.213 209.925 301.466 209.925 296.845C209.925 292.224 206.316 288.478 201.863 288.478C197.41 288.478 193.801 292.224 193.801 296.845C193.801 301.466 197.41 305.213 201.863 305.213Z" fill="#FBD56F"/>
<path d="M205.128 304.428L204.29 303.961C204.29 303.961 203.898 305.598 204.026 306.764C204.038 306.883 204.087 306.994 204.165 307.084C204.243 307.174 204.347 307.237 204.462 307.266C206.392 307.745 215.587 309.787 221.91 306.912C222.001 306.87 222.081 306.805 222.14 306.723C222.198 306.641 222.235 306.546 222.246 306.445C222.323 305.729 222.049 304.249 221.939 303.961C221.703 303.341 205.128 304.428 205.128 304.428Z" fill="#FBD56F"/>
<path opacity="0.1" d="M205.128 304.428L204.29 303.961C204.29 303.961 203.898 305.598 204.026 306.764C204.038 306.883 204.087 306.994 204.165 307.084C204.243 307.174 204.347 307.237 204.462 307.266C206.392 307.745 215.587 309.787 221.91 306.912C222.001 306.87 222.081 306.805 222.14 306.723C222.198 306.641 222.235 306.546 222.246 306.445C222.323 305.729 222.049 304.249 221.939 303.961C221.703 303.341 205.128 304.428 205.128 304.428Z" fill="black"/>
<path d="M213.115 305.95C217.988 305.95 221.939 305.06 221.939 303.961C221.939 302.862 217.988 301.972 213.115 301.972C208.241 301.972 204.29 302.862 204.29 303.961C204.29 305.06 208.241 305.95 213.115 305.95Z" fill="#FBD56F"/>
<path d="M208.5 301.493L207.661 301.026C207.661 301.026 207.269 302.663 207.397 303.83C207.41 303.948 207.459 304.06 207.537 304.149C207.615 304.239 207.719 304.303 207.834 304.332C209.763 304.811 218.958 306.852 225.281 303.977C225.373 303.935 225.452 303.87 225.511 303.788C225.57 303.707 225.607 303.611 225.617 303.511C225.695 302.794 225.42 301.314 225.311 301.026C225.075 300.406 208.5 301.493 208.5 301.493Z" fill="#FBD56F"/>
<path opacity="0.1" d="M208.5 301.493L207.661 301.026C207.661 301.026 207.269 302.663 207.397 303.83C207.41 303.948 207.459 304.06 207.537 304.149C207.615 304.239 207.719 304.303 207.834 304.332C209.763 304.811 218.958 306.852 225.281 303.977C225.373 303.935 225.452 303.87 225.511 303.788C225.57 303.707 225.607 303.611 225.617 303.511C225.695 302.794 225.42 301.314 225.311 301.026C225.075 300.406 208.5 301.493 208.5 301.493Z" fill="black"/>
<path d="M216.486 303.015C221.36 303.015 225.311 302.125 225.311 301.026C225.311 299.928 221.36 299.037 216.486 299.037C211.612 299.037 207.661 299.928 207.661 301.026C207.661 302.125 211.612 303.015 216.486 303.015Z" fill="#FBD56F"/>
<path d="M211.48 297.636L210.642 297.169C210.642 297.169 210.25 298.806 210.378 299.972C210.39 300.09 210.439 300.202 210.517 300.292C210.595 300.382 210.699 300.445 210.814 300.474C212.744 300.953 221.939 302.994 228.262 300.119C228.353 300.078 228.433 300.013 228.492 299.931C228.55 299.849 228.587 299.753 228.598 299.653C228.675 298.936 228.401 297.457 228.291 297.169C228.055 296.548 211.48 297.636 211.48 297.636Z" fill="#FBD56F"/>
<path opacity="0.1" d="M211.48 297.636L210.642 297.169C210.642 297.169 210.25 298.806 210.378 299.972C210.39 300.09 210.439 300.202 210.517 300.292C210.595 300.382 210.699 300.445 210.814 300.474C212.744 300.953 221.939 302.994 228.262 300.119C228.353 300.078 228.433 300.013 228.492 299.931C228.55 299.849 228.587 299.753 228.598 299.653C228.675 298.936 228.401 297.457 228.291 297.169C228.055 296.548 211.48 297.636 211.48 297.636Z" fill="black"/>
<path d="M219.467 299.158C224.34 299.158 228.291 298.267 228.291 297.169C228.291 296.07 224.34 295.18 219.467 295.18C214.593 295.18 210.642 296.07 210.642 297.169C210.642 298.267 214.593 299.158 219.467 299.158Z" fill="#FBD56F"/>
<path d="M208.18 293.62L207.341 293.153C207.341 293.153 206.949 294.79 207.077 295.957C207.09 296.075 207.138 296.187 207.216 296.276C207.295 296.366 207.398 296.43 207.514 296.459C209.443 296.938 218.638 298.979 224.961 296.104C225.053 296.062 225.132 295.997 225.191 295.915C225.25 295.834 225.286 295.738 225.297 295.638C225.375 294.921 225.1 293.442 224.991 293.153C224.755 292.533 208.18 293.62 208.18 293.62Z" fill="#FBD56F"/>
<path opacity="0.1" d="M208.18 293.62L207.341 293.153C207.341 293.153 206.949 294.79 207.077 295.957C207.09 296.075 207.138 296.187 207.216 296.276C207.295 296.366 207.398 296.43 207.514 296.459C209.443 296.938 218.638 298.979 224.961 296.104C225.053 296.062 225.132 295.997 225.191 295.915C225.25 295.834 225.286 295.738 225.297 295.638C225.375 294.921 225.1 293.442 224.991 293.153C224.755 292.533 208.18 293.62 208.18 293.62Z" fill="black"/>
<path d="M216.166 295.143C221.04 295.143 224.99 294.252 224.99 293.153C224.99 292.055 221.04 291.164 216.166 291.164C211.292 291.164 207.341 292.055 207.341 293.153C207.341 294.252 211.292 295.143 216.166 295.143Z" fill="#FBD56F"/>
<path d="M215.605 290.398L214.767 289.931C214.767 289.931 214.375 291.568 214.503 292.734C214.515 292.853 214.564 292.964 214.642 293.054C214.72 293.144 214.824 293.207 214.939 293.236C216.869 293.715 226.064 295.757 232.387 292.882C232.478 292.84 232.558 292.775 232.617 292.693C232.676 292.611 232.712 292.515 232.723 292.415C232.8 291.698 232.526 290.219 232.416 289.931C232.18 289.311 215.605 290.398 215.605 290.398Z" fill="#FBD56F"/>
<path opacity="0.1" d="M215.605 290.398L214.767 289.931C214.767 289.931 214.375 291.568 214.503 292.734C214.515 292.853 214.564 292.964 214.642 293.054C214.72 293.144 214.824 293.207 214.939 293.236C216.869 293.715 226.064 295.757 232.387 292.882C232.478 292.84 232.558 292.775 232.617 292.693C232.676 292.611 232.712 292.515 232.723 292.415C232.8 291.698 232.526 290.219 232.416 289.931C232.18 289.311 215.605 290.398 215.605 290.398Z" fill="black"/>
<path d="M223.592 291.92C228.465 291.92 232.416 291.029 232.416 289.931C232.416 288.832 228.465 287.942 223.592 287.942C218.718 287.942 214.767 288.832 214.767 289.931C214.767 291.029 218.718 291.92 223.592 291.92Z" fill="#FBD56F"/>
<path d="M210.588 288.232L209.75 287.765C209.75 287.765 209.357 289.402 209.486 290.568C209.498 290.687 209.547 290.798 209.625 290.888C209.703 290.978 209.807 291.041 209.922 291.07C211.852 291.549 221.047 293.591 227.37 290.716C227.461 290.674 227.541 290.609 227.6 290.527C227.658 290.445 227.695 290.35 227.706 290.249C227.783 289.532 227.509 288.053 227.399 287.765C227.163 287.145 210.588 288.232 210.588 288.232Z" fill="#FBD56F"/>
<path opacity="0.1" d="M210.588 288.232L209.75 287.765C209.75 287.765 209.357 289.402 209.486 290.568C209.498 290.687 209.547 290.798 209.625 290.888C209.703 290.978 209.807 291.041 209.922 291.07C211.852 291.549 221.047 293.591 227.37 290.716C227.461 290.674 227.541 290.609 227.6 290.527C227.658 290.445 227.695 290.35 227.706 290.249C227.783 289.532 227.509 288.053 227.399 287.765C227.163 287.145 210.588 288.232 210.588 288.232Z" fill="black"/>
<path d="M218.574 289.754C223.448 289.754 227.399 288.864 227.399 287.765C227.399 286.666 223.448 285.776 218.574 285.776C213.701 285.776 209.75 286.666 209.75 287.765C209.75 288.864 213.701 289.754 218.574 289.754Z" fill="#FBD56F"/>
<path d="M213.938 284.051L213.099 283.584C213.099 283.584 212.707 285.221 212.835 286.387C212.848 286.505 212.897 286.617 212.975 286.707C213.053 286.797 213.157 286.86 213.272 286.889C215.201 287.368 224.396 289.409 230.719 286.534C230.811 286.493 230.89 286.428 230.949 286.346C231.008 286.264 231.045 286.168 231.055 286.068C231.133 285.351 230.858 283.872 230.749 283.584C230.513 282.963 213.938 284.051 213.938 284.051Z" fill="#FBD56F"/>
<path opacity="0.1" d="M213.938 284.051L213.099 283.584C213.099 283.584 212.707 285.221 212.835 286.387C212.848 286.505 212.897 286.617 212.975 286.707C213.053 286.797 213.157 286.86 213.272 286.889C215.201 287.368 224.396 289.409 230.719 286.534C230.811 286.493 230.89 286.428 230.949 286.346C231.008 286.264 231.045 286.168 231.055 286.068C231.133 285.351 230.858 283.872 230.749 283.584C230.513 282.963 213.938 284.051 213.938 284.051Z" fill="black"/>
<path d="M221.924 285.573C226.798 285.573 230.749 284.682 230.749 283.584C230.749 282.485 226.798 281.594 221.924 281.594C217.05 281.594 213.099 282.485 213.099 283.584C213.099 284.682 217.05 285.573 221.924 285.573Z" fill="#FBD56F"/>
<path d="M215.59 279.087L214.751 278.621C214.751 278.621 214.359 280.257 214.487 281.424C214.5 281.542 214.549 281.654 214.627 281.744C214.705 281.833 214.809 281.897 214.924 281.926C216.853 282.405 226.048 284.446 232.371 281.571C232.463 281.529 232.542 281.464 232.601 281.383C232.66 281.301 232.697 281.205 232.707 281.105C232.785 280.388 232.51 278.909 232.401 278.621C232.165 278 215.59 279.087 215.59 279.087Z" fill="#FBD56F"/>
<path opacity="0.1" d="M215.59 279.087L214.751 278.621C214.751 278.621 214.359 280.257 214.487 281.424C214.5 281.542 214.549 281.654 214.627 281.744C214.705 281.833 214.809 281.897 214.924 281.926C216.853 282.405 226.048 284.446 232.371 281.571C232.463 281.529 232.542 281.464 232.601 281.383C232.66 281.301 232.697 281.205 232.707 281.105C232.785 280.388 232.51 278.909 232.401 278.621C232.165 278 215.59 279.087 215.59 279.087Z" fill="black"/>
<path d="M223.576 280.61C228.45 280.61 232.401 279.719 232.401 278.621C232.401 277.522 228.45 276.631 223.576 276.631C218.702 276.631 214.751 277.522 214.751 278.621C214.751 279.719 218.702 280.61 223.576 280.61Z" fill="#FBD56F"/>
<path d="M230.487 305.579L229.648 305.112C229.648 305.112 229.256 306.749 229.384 307.916C229.397 308.034 229.446 308.145 229.524 308.235C229.602 308.325 229.706 308.389 229.821 308.418C231.75 308.897 240.945 310.938 247.268 308.063C247.36 308.021 247.439 307.956 247.498 307.874C247.557 307.792 247.594 307.697 247.604 307.597C247.682 306.88 247.407 305.4 247.298 305.112C247.062 304.492 230.487 305.579 230.487 305.579Z" fill="#FBD56F"/>
<path opacity="0.1" d="M230.487 305.579L229.648 305.112C229.648 305.112 229.256 306.749 229.384 307.916C229.397 308.034 229.446 308.145 229.524 308.235C229.602 308.325 229.706 308.389 229.821 308.418C231.75 308.897 240.945 310.938 247.268 308.063C247.36 308.021 247.439 307.956 247.498 307.874C247.557 307.792 247.594 307.697 247.604 307.597C247.682 306.88 247.407 305.4 247.298 305.112C247.062 304.492 230.487 305.579 230.487 305.579Z" fill="black"/>
<path d="M238.473 307.101C243.347 307.101 247.298 306.211 247.298 305.112C247.298 304.014 243.347 303.123 238.473 303.123C233.599 303.123 229.648 304.014 229.648 305.112C229.648 306.211 233.599 307.101 238.473 307.101Z" fill="#FBD56F"/>
<path d="M233.468 301.722L232.629 301.255C232.629 301.255 232.237 302.892 232.365 304.058C232.378 304.177 232.426 304.288 232.504 304.378C232.582 304.468 232.686 304.531 232.802 304.56C234.731 305.039 243.926 307.081 250.249 304.206C250.341 304.164 250.42 304.099 250.479 304.017C250.538 303.935 250.574 303.839 250.585 303.739C250.663 303.022 250.388 301.543 250.278 301.255C250.043 300.635 233.468 301.722 233.468 301.722Z" fill="#FBD56F"/>
<path opacity="0.1" d="M233.468 301.722L232.629 301.255C232.629 301.255 232.237 302.892 232.365 304.058C232.378 304.177 232.426 304.288 232.504 304.378C232.582 304.468 232.686 304.531 232.802 304.56C234.731 305.039 243.926 307.081 250.249 304.206C250.341 304.164 250.42 304.099 250.479 304.017C250.538 303.935 250.574 303.839 250.585 303.739C250.663 303.022 250.388 301.543 250.278 301.255C250.043 300.635 233.468 301.722 233.468 301.722Z" fill="black"/>
<path d="M241.454 303.244C246.327 303.244 250.278 302.353 250.278 301.255C250.278 300.156 246.327 299.266 241.454 299.266C236.58 299.266 232.629 300.156 232.629 301.255C232.629 302.353 236.58 303.244 241.454 303.244Z" fill="#FBD56F"/>
<path d="M230.167 297.706L229.328 297.239C229.328 297.239 228.936 298.876 229.064 300.043C229.077 300.161 229.125 300.273 229.203 300.362C229.282 300.452 229.385 300.516 229.501 300.545C231.43 301.024 240.625 303.065 246.948 300.19C247.04 300.148 247.119 300.083 247.178 300.001C247.237 299.92 247.273 299.824 247.284 299.724C247.362 299.007 247.087 297.528 246.978 297.239C246.742 296.619 230.167 297.706 230.167 297.706Z" fill="#FBD56F"/>
<path opacity="0.1" d="M230.167 297.706L229.328 297.239C229.328 297.239 228.936 298.876 229.064 300.043C229.077 300.161 229.125 300.273 229.203 300.362C229.282 300.452 229.385 300.516 229.501 300.545C231.43 301.024 240.625 303.065 246.948 300.19C247.04 300.148 247.119 300.083 247.178 300.001C247.237 299.92 247.273 299.824 247.284 299.724C247.362 299.007 247.087 297.528 246.978 297.239C246.742 296.619 230.167 297.706 230.167 297.706Z" fill="black"/>
<path d="M238.153 299.229C243.027 299.229 246.978 298.338 246.978 297.239C246.978 296.141 243.027 295.25 238.153 295.25C233.279 295.25 229.328 296.141 229.328 297.239C229.328 298.338 233.279 299.229 238.153 299.229Z" fill="#FBD56F"/>
<path d="M237.593 294.484L236.754 294.017C236.754 294.017 236.362 295.654 236.49 296.82C236.503 296.939 236.551 297.05 236.629 297.14C236.707 297.23 236.811 297.293 236.927 297.322C238.856 297.801 248.051 299.843 254.374 296.968C254.465 296.926 254.545 296.861 254.604 296.779C254.663 296.697 254.699 296.602 254.71 296.501C254.787 295.784 254.513 294.305 254.403 294.017C254.167 293.397 237.593 294.484 237.593 294.484Z" fill="#FBD56F"/>
<path opacity="0.1" d="M237.593 294.484L236.754 294.017C236.754 294.017 236.362 295.654 236.49 296.82C236.503 296.939 236.551 297.05 236.629 297.14C236.707 297.23 236.811 297.293 236.927 297.322C238.856 297.801 248.051 299.843 254.374 296.968C254.465 296.926 254.545 296.861 254.604 296.779C254.663 296.697 254.699 296.602 254.71 296.501C254.787 295.784 254.513 294.305 254.403 294.017C254.167 293.397 237.593 294.484 237.593 294.484Z" fill="black"/>
<path d="M245.579 296.006C250.452 296.006 254.403 295.116 254.403 294.017C254.403 292.918 250.452 292.028 245.579 292.028C240.705 292.028 236.754 292.918 236.754 294.017C236.754 295.116 240.705 296.006 245.579 296.006Z" fill="#FBD56F"/>
<path d="M232.575 292.318L231.737 291.851C231.737 291.851 231.344 293.488 231.473 294.654C231.485 294.773 231.534 294.884 231.612 294.974C231.69 295.064 231.794 295.128 231.909 295.156C233.838 295.636 243.033 297.677 249.357 294.802C249.448 294.76 249.527 294.695 249.586 294.613C249.645 294.531 249.682 294.436 249.693 294.335C249.77 293.619 249.496 292.139 249.386 291.851C249.15 291.231 232.575 292.318 232.575 292.318Z" fill="#FBD56F"/>
<path opacity="0.1" d="M232.575 292.318L231.737 291.851C231.737 291.851 231.344 293.488 231.473 294.654C231.485 294.773 231.534 294.884 231.612 294.974C231.69 295.064 231.794 295.128 231.909 295.156C233.838 295.636 243.033 297.677 249.357 294.802C249.448 294.76 249.527 294.695 249.586 294.613C249.645 294.531 249.682 294.436 249.693 294.335C249.77 293.619 249.496 292.139 249.386 291.851C249.15 291.231 232.575 292.318 232.575 292.318Z" fill="black"/>
<path d="M240.562 293.84C245.435 293.84 249.386 292.95 249.386 291.851C249.386 290.752 245.435 289.862 240.562 289.862C235.688 289.862 231.737 290.752 231.737 291.851C231.737 292.95 235.688 293.84 240.562 293.84Z" fill="#FBD56F"/>
<path d="M235.925 288.137L235.086 287.67C235.086 287.67 234.694 289.307 234.822 290.473C234.835 290.591 234.884 290.703 234.962 290.793C235.04 290.883 235.144 290.946 235.259 290.975C237.188 291.454 246.383 293.495 252.706 290.62C252.798 290.578 252.877 290.513 252.936 290.432C252.995 290.35 253.032 290.254 253.042 290.154C253.12 289.437 252.845 287.958 252.736 287.67C252.5 287.049 235.925 288.137 235.925 288.137Z" fill="#FBD56F"/>
<path opacity="0.1" d="M235.925 288.137L235.086 287.67C235.086 287.67 234.694 289.307 234.822 290.473C234.835 290.591 234.884 290.703 234.962 290.793C235.04 290.883 235.144 290.946 235.259 290.975C237.188 291.454 246.383 293.495 252.706 290.62C252.798 290.578 252.877 290.513 252.936 290.432C252.995 290.35 253.032 290.254 253.042 290.154C253.12 289.437 252.845 287.958 252.736 287.67C252.5 287.049 235.925 288.137 235.925 288.137Z" fill="black"/>
<path d="M243.911 289.659C248.785 289.659 252.736 288.768 252.736 287.67C252.736 286.571 248.785 285.68 243.911 285.68C239.037 285.68 235.086 286.571 235.086 287.67C235.086 288.768 239.037 289.659 243.911 289.659Z" fill="#FBD56F"/>
<path d="M237.577 283.173L236.739 282.706C236.739 282.706 236.346 284.343 236.474 285.51C236.487 285.628 236.536 285.74 236.614 285.83C236.692 285.919 236.796 285.983 236.911 286.012C238.84 286.491 248.035 288.532 254.358 285.657C254.45 285.615 254.529 285.55 254.588 285.469C254.647 285.387 254.684 285.291 254.695 285.191C254.772 284.474 254.498 282.995 254.388 282.706C254.152 282.086 237.577 283.173 237.577 283.173Z" fill="#FBD56F"/>
<path opacity="0.1" d="M237.577 283.173L236.739 282.706C236.739 282.706 236.346 284.343 236.474 285.51C236.487 285.628 236.536 285.74 236.614 285.83C236.692 285.919 236.796 285.983 236.911 286.012C238.84 286.491 248.035 288.532 254.358 285.657C254.45 285.615 254.529 285.55 254.588 285.469C254.647 285.387 254.684 285.291 254.695 285.191C254.772 284.474 254.498 282.995 254.388 282.706C254.152 282.086 237.577 283.173 237.577 283.173Z" fill="black"/>
<path d="M245.563 284.696C250.437 284.696 254.388 283.805 254.388 282.706C254.388 281.608 250.437 280.717 245.563 280.717C240.689 280.717 236.739 281.608 236.739 282.706C236.739 283.805 240.689 284.696 245.563 284.696Z" fill="#FBD56F"/>
<path d="M290.767 317.287C289.539 317.243 289.495 316.767 287.916 315.945C287.024 315.481 285.67 314.133 284.661 313.048C284.581 312.961 284.502 312.876 284.427 312.793C284.693 312.787 284.845 312.785 284.845 312.785C284.845 312.785 284.45 309.321 284.801 308.499C285.152 307.676 284.889 302.784 284.889 302.784C284.889 302.784 285.108 299.061 284.713 298.196C284.318 297.33 284.845 291.789 284.845 291.789C284.845 291.789 285.196 288.499 285.283 281.789C285.371 275.079 281.423 274.862 281.423 274.862C281.423 274.862 280.896 274.821 280.097 274.745C280.02 274.738 279.939 274.73 279.858 274.722C280.375 273.639 280.677 272.828 280.677 272.828C280.677 272.828 280.019 266.55 279.843 265.468C279.668 264.386 278.615 259.927 278.615 259.927C278.615 259.927 277.869 258.022 277.431 256.68C276.992 255.338 275.676 253.78 275.676 253.78C275.676 253.78 273.307 249.104 272.649 248.412C272.343 248.091 271.915 247.685 271.544 247.343C271.477 247.282 271.413 247.223 271.351 247.166C271.45 246.679 271.503 246.182 271.508 245.684C271.508 245.684 269.051 243.26 268.876 242.654C268.7 242.048 266.375 239.797 266.375 239.797C266.375 239.797 265.059 237.373 263.568 237.329C262.863 237.289 262.156 237.311 261.455 237.393C261.761 236.26 262.123 235.072 262.449 234.052C262.485 233.939 262.521 233.828 262.556 233.719C263.748 232.913 264.683 231.781 265.251 230.459C265.282 230.389 265.31 230.318 265.338 230.247C265.354 230.247 265.37 230.25 265.386 230.25C265.447 230.249 265.509 230.243 265.57 230.233C266.061 230.148 266.477 229.594 266.25 229.156C266.265 229.181 266.286 229.201 266.311 229.215C266.336 229.229 266.365 229.236 266.393 229.235C266.557 229.23 266.757 228.993 266.795 228.784C266.802 228.748 266.805 228.712 266.811 228.675C266.818 228.63 266.825 228.585 266.831 228.54C266.836 228.497 266.839 228.454 266.843 228.411C266.846 228.367 266.85 228.323 266.852 228.279C266.854 228.237 266.855 228.196 266.856 228.155C266.857 228.107 266.857 228.059 266.856 228.012C266.855 227.973 266.855 227.935 266.853 227.897C266.85 227.839 266.845 227.781 266.84 227.723C266.838 227.7 266.837 227.676 266.835 227.652L266.834 227.655C266.809 227.419 266.761 227.185 266.693 226.957C266.45 226.153 265.942 225.355 266.138 224.538C266.14 224.529 266.144 224.521 266.146 224.512L266.146 224.514C266.31 223.88 266.858 223.419 267.194 222.853C267.226 222.799 267.254 222.743 267.282 222.687C267.287 222.677 267.293 222.667 267.298 222.657C267.318 222.615 267.335 222.572 267.353 222.528C267.364 222.501 267.377 222.474 267.387 222.446C267.401 222.408 267.413 222.369 267.426 222.331C267.437 222.296 267.449 222.262 267.458 222.226C267.468 222.192 267.476 222.158 267.484 222.124C267.493 222.082 267.503 222.041 267.511 221.999C267.517 221.97 267.521 221.939 267.526 221.909C267.533 221.862 267.54 221.815 267.545 221.767C267.548 221.741 267.55 221.715 267.552 221.69C267.556 221.636 267.559 221.583 267.56 221.53C267.561 221.508 267.561 221.487 267.561 221.466C267.561 221.407 267.56 221.349 267.557 221.291C267.556 221.273 267.555 221.256 267.554 221.238C267.549 221.176 267.543 221.114 267.534 221.052C267.533 221.043 267.533 221.034 267.532 221.025L267.531 221.028C267.457 220.484 267.24 219.969 266.903 219.536C266.519 219.078 266.033 218.717 265.485 218.48C264.937 218.243 264.341 218.137 263.745 218.17C263.415 218.207 263.083 218.213 262.752 218.188C262.201 218.107 261.736 217.757 261.297 217.419C260.072 216.476 258.847 215.532 257.622 214.589C257.212 214.233 256.742 213.953 256.233 213.763C255.714 213.604 255.091 213.659 254.707 214.038C254.019 214.717 254.456 215.886 254.18 216.806C253.941 217.604 253.171 218.144 252.373 218.414C251.576 218.683 250.723 218.742 249.904 218.937C249.66 218.976 249.431 219.081 249.243 219.241C249.03 219.498 248.927 219.829 248.955 220.161C248.95 220.976 249.146 221.78 249.526 222.502C249.681 222.796 249.868 223.093 250.033 223.394C250.047 223.419 250.06 223.444 250.073 223.469C250.092 223.504 250.11 223.538 250.128 223.573C250.156 223.629 250.184 223.686 250.209 223.742C250.221 223.767 250.231 223.791 250.241 223.816C250.258 223.856 250.275 223.896 250.29 223.936C250.3 223.962 250.31 223.987 250.319 224.013C250.335 224.061 250.35 224.108 250.363 224.156C250.451 224.436 250.459 224.734 250.387 225.019C250.261 225.484 249.898 225.843 249.577 226.206C249.316 226.49 249.13 226.835 249.036 227.21L249.034 227.218C249.017 227.305 249.013 227.394 249.024 227.483C249.026 227.494 249.027 227.505 249.03 227.515C249.034 227.535 249.039 227.554 249.046 227.573C249.051 227.587 249.056 227.6 249.063 227.614C249.069 227.629 249.077 227.644 249.086 227.658C249.101 227.683 249.12 227.705 249.141 227.724C249.151 227.732 249.162 227.74 249.172 227.747C249.19 227.76 249.209 227.772 249.229 227.782C249.241 227.788 249.253 227.793 249.266 227.798C249.295 227.809 249.325 227.817 249.356 227.823C249.365 227.824 249.372 227.827 249.381 227.828C249.428 227.834 249.475 227.836 249.522 227.834C249.536 227.834 249.55 227.832 249.565 227.831C249.61 227.828 249.655 227.822 249.699 227.814C249.716 227.811 249.732 227.809 249.749 227.805C249.814 227.792 249.881 227.775 249.956 227.752C250.202 227.678 250.442 227.583 250.673 227.469C250.672 227.495 250.671 227.521 250.671 227.548C250.671 227.593 250.671 227.641 250.675 227.686C250.687 228.535 250.848 229.375 251.149 230.169C251.619 231.406 252.409 232.497 253.437 233.33C253.424 233.405 253.41 233.48 253.395 233.555C253.183 234.594 252.741 235.635 252.468 235.555C252.201 235.495 251.928 235.465 251.655 235.465C251.572 235.463 251.492 235.462 251.416 235.461L251.415 235.461C251.168 235.432 250.917 235.432 250.67 235.461C250.559 235.469 250.448 235.453 250.343 235.416C249.634 235.193 248.881 235.15 248.151 235.293C246.634 235.604 244.327 236.173 243.694 236.853C242.729 237.892 241.325 238.888 239.746 243.217C239.746 243.217 238.956 245.858 238.342 246.204C238.477 246.134 238.616 246.071 238.759 246.017C238.677 246.16 238.565 246.283 238.43 246.377C238.652 246.263 238.883 246.167 239.121 246.089C238.641 248.909 239.351 256.977 239.351 256.977C239.351 256.977 238.781 258.369 239.526 259.191C239.97 259.68 240.211 260.442 240.334 260.982C240.299 261.036 240.263 261.092 240.226 261.15V261.15C239.831 261.763 239.303 262.561 238.956 263.001C238.342 263.78 238.517 266.247 238.517 266.247C238.517 266.247 238.386 267.416 237.947 267.849C237.508 268.282 237.596 269.884 237.596 269.884L236.456 274.083C236.456 274.083 235.403 275.035 235.403 275.468C235.403 275.901 234.569 277.113 234.569 277.113C234.569 277.113 233.297 279.191 234.569 278.888C235.033 278.752 235.468 278.534 235.854 278.242L235.853 278.273C235.851 278.35 235.85 278.427 235.848 278.506C235.812 280.769 236.059 283.953 237.728 283.953C240.316 283.953 246.984 287.027 246.984 287.027C248.344 288.066 250.187 287.719 250.187 287.719C250.187 287.719 246.941 290.966 247.028 292.308C247.116 293.65 245.186 295.858 245.186 295.858L239.219 307.503C239.253 308.314 239.397 309.118 239.647 309.89C239.619 309.915 239.589 309.938 239.562 309.964C237.269 312.058 237.07 316.204 237.07 316.204L236.543 318.326L244.528 321.832C244.528 321.832 254.881 322.049 256.68 321.572C258.479 321.096 258.084 319.105 255.715 318.715C253.346 318.326 252.775 317.287 251.986 316.811C251.453 316.489 249.561 314.413 248.387 313.097C248.37 313.077 248.353 313.059 248.336 313.039L248.608 311.529C249.134 311.269 249.924 308.672 249.924 308.672C249.924 308.672 249.924 307.633 250.45 307.33C250.977 307.027 252.073 303.91 252.073 303.91C252.073 303.91 254.442 299.971 254.311 299.451C254.179 298.932 256.022 296.291 256.022 296.291C256.022 296.291 259.137 293.261 259.005 292.719C258.873 292.178 261.506 289.408 261.506 289.408C262.457 288.682 263.249 287.769 263.835 286.725C264.072 286.687 264.326 286.647 264.595 286.602C268.04 286.037 273.764 285.016 274.404 284.732C275.281 284.343 275.105 286.074 274.755 287.546C274.404 289.018 274.14 296.074 274.535 296.984C274.93 297.893 274.755 299.365 274.755 299.365L274.228 307.287L274.579 308.975C274.579 308.975 273.395 309.927 273.877 310.49C274.36 311.053 273.921 313.477 273.921 313.477C273.962 313.462 274.012 313.447 274.067 313.432C274.024 313.527 273.984 313.625 273.948 313.727C273.268 315.666 273.658 318.845 273.658 318.845V321.356C273.658 321.356 285.81 321.572 288.486 321.572C291.162 321.572 294.847 320.274 295.067 319.235C295.286 318.196 291.996 317.33 290.767 317.287ZM256.204 272.219L255.408 272.286C255.672 272.248 255.938 272.226 256.204 272.219ZM261.057 238.991C261.169 238.49 261.304 237.952 261.453 237.399L261.057 238.991ZM262.559 273.434C261.799 273.734 260.955 273.735 260.195 273.436L260.189 273.434C260.189 273.434 260.233 270.403 260.584 269.148C260.935 267.892 261.418 265.598 261.418 265.598C261.418 265.598 261.813 262.438 262.208 261.009C262.602 259.581 264.138 251.615 264.928 251.096C265.717 250.576 266.156 251.485 266.156 251.485C266.156 251.485 266.274 251.483 266.472 251.461C266.509 251.544 266.551 251.632 266.597 251.726C267.533 253.618 270.28 257.503 270.28 257.503C271.094 258.005 271.784 258.686 272.298 259.494C273.044 260.75 273.263 263.693 273.263 263.693C273.263 263.693 274.93 270.23 275.72 271.139C276.115 271.594 275.939 271.865 275.665 272.021C275.106 272.328 274.63 272.767 274.281 273.3C274.168 273.479 274.049 273.674 273.929 273.883C273.627 273.813 273.356 273.741 273.131 273.665C270.982 272.943 263.743 272.914 262.559 273.434Z" fill="url(#paint0_linear)"/>
<path d="M273.37 318.871V321.36C273.37 321.36 285.261 321.575 287.88 321.575C290.498 321.575 294.104 320.287 294.319 319.257C294.534 318.227 291.314 317.368 290.112 317.325C288.91 317.282 288.867 316.81 287.322 315.994C286.449 315.534 285.125 314.197 284.137 313.122C283.376 312.291 282.814 311.616 282.814 311.616C282.814 311.616 276.418 311.487 274.572 312.517C274.147 312.755 273.854 313.22 273.654 313.796C272.989 315.718 273.37 318.871 273.37 318.871Z" fill="#434175"/>
<path opacity="0.1" d="M273.654 313.796C274.995 313.329 282.847 313.148 284.137 313.122C283.376 312.291 282.814 311.616 282.814 311.616C282.814 311.616 276.418 311.487 274.572 312.517C274.147 312.755 273.853 313.22 273.654 313.796Z" fill="black"/>
<path d="M239.156 274.097C239.156 274.097 239.404 274.247 239.85 274.515C239.931 274.564 240.017 274.617 240.11 274.673C240.393 274.843 240.732 275.047 241.119 275.28C246.514 278.532 261.232 287.346 262.037 287.275C262.248 287.257 262.883 287.162 263.758 287.02C263.99 286.982 264.239 286.941 264.502 286.897C267.873 286.337 273.474 285.325 274.1 285.043C274.958 284.657 274.787 286.374 274.443 287.833C274.1 289.293 273.842 296.29 274.228 297.192C274.615 298.093 274.443 299.553 274.443 299.553L273.928 307.409L274.271 309.083C274.271 309.083 273.112 310.027 273.585 310.585C274.057 311.143 273.627 313.547 273.627 313.547C275.001 313.032 284.317 312.861 284.317 312.861C284.317 312.861 283.93 309.426 284.274 308.611C284.617 307.795 284.359 302.944 284.359 302.944C284.359 302.944 284.574 299.252 284.188 298.394C283.801 297.535 284.317 292.04 284.317 292.04C284.317 292.04 284.66 288.778 284.746 282.124C284.832 275.47 280.968 275.256 280.968 275.256C280.968 275.256 280.453 275.215 279.671 275.14C278.141 274.993 275.591 274.712 273.888 274.342C273.539 274.27 273.194 274.179 272.855 274.068C270.751 273.352 263.668 273.324 262.509 273.839C261.767 274.137 260.939 274.138 260.196 273.842L260.191 273.839L259.29 272.379L250.679 273.113L249.766 273.192L241.29 273.914L240.707 273.964L239.156 274.097Z" fill="#565387"/>
<path opacity="0.1" d="M273.67 280.682C276.171 281.901 278.558 277.579 279.671 275.14C278.141 274.993 275.591 274.712 273.888 274.342C272.767 276.222 271.273 279.513 273.67 280.682Z" fill="black"/>
<path d="M266.158 251.474C266.21 251.769 266.313 252.053 266.461 252.313C267.377 254.189 270.064 258.042 270.064 258.042C270.864 258.542 271.539 259.217 272.039 260.016C272.769 261.261 272.984 264.18 272.984 264.18C272.984 264.18 274.615 270.662 275.388 271.564C275.774 272.015 275.602 272.283 275.334 272.439C274.785 272.744 274.32 273.179 273.979 273.707C272.854 275.517 271.057 279.106 273.585 280.338C277.019 282.013 280.238 273.238 280.238 273.238C280.238 273.238 279.594 267.013 279.423 265.94C279.251 264.867 278.221 260.446 278.221 260.446C278.221 260.446 277.491 258.557 277.062 257.226C276.632 255.895 275.345 254.35 275.345 254.35C275.345 254.35 273.027 249.713 272.383 249.027C272.084 248.708 271.665 248.306 271.302 247.967C270.882 247.575 270.537 247.267 270.537 247.267C270.537 247.267 266.115 250.443 266.158 251.474Z" fill="#EE8E9E"/>
<path d="M237.053 318.355L244.866 321.833C244.866 321.833 254.997 322.047 256.757 321.575C258.517 321.103 258.131 319.128 255.813 318.742C253.494 318.355 252.936 317.325 252.164 316.853C251.643 316.534 249.791 314.476 248.643 313.171C248.09 312.542 247.699 312.088 247.699 312.088C247.699 312.088 246.197 308.096 242.033 308.997C241.273 309.161 240.572 309.53 240.006 310.063C237.763 312.14 237.568 316.252 237.568 316.252L237.053 318.355Z" fill="#434175"/>
<path opacity="0.1" d="M240.11 274.673C240.393 274.844 240.732 275.047 241.119 275.281C246.514 278.532 261.232 287.346 262.037 287.276C262.248 287.257 262.883 287.162 263.758 287.02C263.99 286.982 264.239 286.942 264.502 286.897C264.512 286.881 264.522 286.864 264.531 286.848C264.963 286.093 265.294 285.284 265.514 284.442C266.416 281.008 261.951 278.389 261.951 278.389L261.007 277.655C259.933 275.848 252.206 274.14 252.206 274.14L251.21 273.471L250.679 273.114L250.539 273.02L249.33 272.208L243.277 272.637L241.48 273.793L241.29 273.915L240.623 274.344L240.11 274.673Z" fill="black"/>
<path opacity="0.1" d="M240.006 310.063C241.65 315.747 248.515 313.891 248.515 313.891L248.643 313.171C248.09 312.542 247.699 312.088 247.699 312.088C247.699 312.088 246.197 308.096 242.033 308.997C241.273 309.161 240.572 309.53 240.006 310.063Z" fill="black"/>
<path d="M238.212 284.27C240.745 284.27 247.27 287.318 247.27 287.318C248.601 288.349 250.404 288.005 250.404 288.005C250.404 288.005 247.227 291.225 247.313 292.556C247.399 293.886 245.51 296.076 245.51 296.076L239.672 307.623C240.101 315.823 248.515 313.547 248.515 313.547L248.858 311.616C249.373 311.358 250.146 308.782 250.146 308.782C250.146 308.782 250.146 307.752 250.661 307.452C251.176 307.151 252.25 304.06 252.25 304.06C252.25 304.06 254.568 300.154 254.439 299.639C254.31 299.124 256.113 296.505 256.113 296.505C256.113 296.505 259.161 293.5 259.032 292.963C258.903 292.427 261.479 289.679 261.479 289.679C262.412 288.957 263.188 288.052 263.759 287.02C264.191 286.265 264.521 285.456 264.742 284.614C265.468 281.848 262.714 279.611 261.614 278.846C261.348 278.661 261.179 278.561 261.179 278.561L260.234 277.827C259.746 277.004 257.882 276.203 255.994 275.574C254.632 275.12 253.257 274.755 252.379 274.536C251.798 274.392 251.434 274.311 251.434 274.311L250.438 273.642L250.088 273.407L249.767 273.192L248.558 272.379L245.864 272.57L242.505 272.809L240.707 273.964L239.85 274.515L236.495 276.672C236.495 276.672 236.406 277.498 236.378 278.607C236.376 278.692 236.375 278.779 236.373 278.868C236.338 281.113 236.579 284.27 238.212 284.27Z" fill="#565387"/>
<path d="M251.133 236.191L252.035 239.411C252.035 239.411 253.623 244.948 253.795 245.335C253.967 245.721 258.131 249.628 258.302 249.713C258.474 249.799 260.741 251.087 260.741 251.087C260.741 251.087 260.921 244.004 260.749 241.944C260.734 241.491 260.772 241.038 260.861 240.594C261.135 238.979 261.828 236.611 262.402 234.787C262.883 233.259 263.282 232.113 263.282 232.113C263.282 232.113 253.237 231.684 253.58 232.671C253.71 233.045 253.668 233.669 253.542 234.295C253.335 235.324 252.903 236.357 252.636 236.277C252.375 236.218 252.108 236.188 251.84 236.189C251.469 236.177 251.133 236.191 251.133 236.191Z" fill="#EE8E9E"/>
<path opacity="0.1" d="M253.542 234.295C254.77 235.319 256.295 235.92 257.891 236.009C259.487 236.098 261.069 235.669 262.402 234.787C262.883 233.259 263.282 232.113 263.282 232.113C263.282 232.113 253.237 231.684 253.58 232.671C253.71 233.045 253.668 233.669 253.542 234.295Z" fill="black"/>
<path d="M265.73 228.337C265.73 229.125 265.605 229.907 265.358 230.655C265.296 230.849 265.225 231.038 265.144 231.224C264.565 232.594 263.589 233.758 262.342 234.567C261.094 235.376 259.633 235.792 258.147 235.761C256.66 235.73 255.217 235.253 254.005 234.393C252.792 233.533 251.865 232.329 251.345 230.937C251.05 230.149 250.893 229.316 250.881 228.474C250.877 228.429 250.877 228.382 250.877 228.337C250.877 226.367 251.659 224.478 253.052 223.086C254.445 221.693 256.334 220.911 258.303 220.911C260.273 220.911 262.162 221.693 263.555 223.086C264.947 224.478 265.73 226.367 265.73 228.337H265.73Z" fill="#EE8E9E"/>
<path opacity="0.1" d="M251.133 236.191L252.035 239.411C252.035 239.411 253.623 244.948 253.795 245.335C253.967 245.721 258.131 249.628 258.302 249.714C258.474 249.799 260.741 251.087 260.741 251.087C260.741 251.087 260.921 244.004 260.749 241.944C260.734 241.491 260.772 241.038 260.861 240.594L260.277 242.974L260.32 247.739L260.663 247.996L259.891 249.155V248.297C259.891 248.297 257.143 245.635 256.714 244.519C256.285 243.403 254.739 241.382 254.739 241.382C254.739 241.382 252.979 238.423 252.936 237.908C252.903 237.506 252.164 236.578 251.84 236.189C251.469 236.177 251.133 236.191 251.133 236.191Z" fill="black"/>
<path opacity="0.1" d="M266.158 251.474C266.21 251.769 266.313 252.053 266.461 252.313C267.4 252.217 270.598 251.62 271.302 247.967C270.882 247.575 270.537 247.267 270.537 247.267C270.537 247.267 266.115 250.443 266.158 251.474Z" fill="black"/>
<path opacity="0.1" d="M236.373 278.868C237.239 278.255 238.063 277.419 238.555 277.187C239.285 276.844 240.401 275.728 240.401 275.728C240.401 275.728 240.684 275.535 241.119 275.28C241.916 274.813 243.222 274.137 244.222 274.054C245.118 273.979 248.096 273.788 250.438 273.642C252.133 273.536 253.494 273.453 253.494 273.453C253.494 273.453 256.285 272.465 257.487 273.109C258.347 273.54 259.255 273.872 260.191 274.097C260.191 274.097 260.192 274.003 260.196 273.842L260.191 273.839L259.29 272.379L249.766 273.192L248.557 272.379L242.505 272.809L240.707 273.964L239.156 274.097C239.156 274.097 239.404 274.247 239.85 274.516L236.495 276.672C236.495 276.672 236.392 277.631 236.373 278.868Z" fill="black"/>
<path d="M235.121 279.248C235.576 279.113 236.002 278.896 236.378 278.607V278.607C237.243 277.994 238.064 277.161 238.555 276.93C239.285 276.586 240.401 275.47 240.401 275.47C240.401 275.47 242.676 273.925 244.222 273.796C244.643 273.761 245.524 273.7 246.583 273.631C247.666 273.559 248.935 273.478 250.088 273.407C250.752 273.365 251.378 273.326 251.907 273.293C252.855 273.235 253.494 273.195 253.494 273.195C253.494 273.195 256.285 272.208 257.487 272.852C258.347 273.283 259.255 273.614 260.191 273.839C260.191 273.839 260.234 270.834 260.577 269.589C260.921 268.344 261.393 266.069 261.393 266.069C261.393 266.069 261.779 262.935 262.166 261.519C262.552 260.102 264.055 252.203 264.827 251.688C265.6 251.173 266.029 252.074 266.029 252.074C266.029 252.074 271.181 251.989 271.266 246.322C271.266 246.322 268.863 243.918 268.691 243.317C268.519 242.716 266.244 240.484 266.244 240.484C266.244 240.484 264.956 238.08 263.497 238.037C262.807 237.997 262.115 238.019 261.429 238.101L260.191 243.145L260.234 247.91L260.577 248.168L259.805 249.327V248.468C259.805 248.468 257.057 245.807 256.628 244.691C256.199 243.575 254.653 241.554 254.653 241.554C254.653 241.554 252.893 238.595 252.85 238.08C252.808 237.565 251.606 236.184 251.606 236.184C251.363 236.156 251.118 236.156 250.876 236.184C250.767 236.192 250.659 236.176 250.556 236.14C249.863 235.918 249.125 235.876 248.412 236.018C246.927 236.326 244.669 236.89 244.05 237.565C243.106 238.595 241.732 239.582 240.187 243.875L248.515 246.88L247.802 248.235L241.174 260.832C241.174 260.832 240.954 261.19 240.656 261.658V261.659C240.27 262.266 239.753 263.057 239.414 263.493C238.813 264.266 238.985 266.713 238.985 266.713C238.985 266.713 238.856 267.872 238.427 268.301C237.997 268.731 238.083 270.319 238.083 270.319L236.967 274.483C236.967 274.483 235.937 275.427 235.937 275.857C235.937 276.286 235.121 277.488 235.121 277.488C235.121 277.488 233.876 279.548 235.121 279.248Z" fill="#434175"/>
<path opacity="0.1" d="M279.079 282.339C279.079 282.339 276.375 283.24 275.645 284.528C274.915 285.816 279.079 282.339 279.079 282.339Z" fill="black"/>
<path opacity="0.1" d="M277.706 279.505C277.62 279.634 274.002 283.265 274.229 284.142C274.456 285.018 277.706 279.505 277.706 279.505Z" fill="black"/>
<path opacity="0.1" d="M257.83 282.081C257.83 282.081 253.795 283.984 253.451 284.814C253.108 285.644 257.83 282.081 257.83 282.081Z" fill="black"/>
<path opacity="0.1" d="M257.572 284.528C257.572 284.528 253.931 286.073 253.433 286.46C252.936 286.846 257.572 284.528 257.572 284.528Z" fill="black"/>
<path opacity="0.1" d="M255.898 287.834C255.898 287.834 254.285 289.036 253.396 288.091C252.507 287.147 255.898 287.834 255.898 287.834Z" fill="black"/>
<path opacity="0.1" d="M261.952 256.496C261.865 256.625 256.499 266.284 255.083 267.013C253.666 267.743 261.952 256.496 261.952 256.496Z" fill="black"/>
<path opacity="0.1" d="M261.694 260.145C261.694 260.36 256.456 271.564 255.598 271.693C254.739 271.822 261.694 260.145 261.694 260.145Z" fill="black"/>
<path opacity="0.1" d="M241.775 267.357C241.775 267.357 239.246 272.758 238.255 273.066C237.264 273.374 241.775 267.357 241.775 267.357Z" fill="black"/>
<path opacity="0.1" d="M241.346 264.953C241.346 264.953 240.474 266.842 239.944 266.842C239.414 266.842 241.346 264.953 241.346 264.953Z" fill="black"/>
<path opacity="0.1" d="M265.73 228.337C265.73 229.125 265.605 229.907 265.358 230.655C265.296 230.849 265.225 231.038 265.144 231.224C264.762 231.167 264.403 231.009 264.102 230.767C263.784 230.551 263.517 230.266 263.323 229.934C263.177 229.58 263.05 229.218 262.943 228.85C262.772 228.435 262.493 228.072 262.135 227.801C261.776 227.53 261.352 227.359 260.906 227.307C261.153 227.727 260.76 228.305 260.277 228.38C259.794 228.453 259.324 228.165 258.991 227.807C258.658 227.448 258.418 227.012 258.087 226.654C257.755 226.295 257.285 226.008 256.802 226.081C256.374 226.145 256.044 226.472 255.685 226.714C255.329 226.957 254.829 227.12 254.483 226.86C254.29 226.716 254.195 226.472 254.011 226.315C253.536 225.918 252.798 226.328 252.448 226.841C251.909 227.635 251.581 228.116 250.881 228.474C250.877 228.429 250.877 228.382 250.877 228.337C250.877 226.367 251.659 224.478 253.052 223.086C254.445 221.693 256.334 220.911 258.303 220.911C260.273 220.911 262.162 221.693 263.554 223.086C264.947 224.478 265.73 226.367 265.73 228.337Z" fill="black"/>
<path d="M252.449 226.626C252.798 226.112 253.536 225.702 254.012 226.101C254.197 226.256 254.291 226.501 254.483 226.646C254.828 226.906 255.329 226.743 255.686 226.499C256.043 226.256 256.374 225.931 256.802 225.866C257.285 225.793 257.755 226.081 258.087 226.439C258.419 226.798 258.659 227.233 258.991 227.592C259.323 227.951 259.794 228.239 260.277 228.165C260.76 228.091 261.154 227.513 260.906 227.092C261.352 227.144 261.776 227.315 262.134 227.587C262.492 227.858 262.771 228.22 262.942 228.635C263.049 229.003 263.176 229.365 263.323 229.719C263.517 230.051 263.784 230.336 264.103 230.551C264.497 230.84 264.974 231.084 265.455 231C265.937 230.916 266.344 230.365 266.12 229.93C266.274 230.164 266.604 229.839 266.654 229.564C266.763 228.96 266.729 228.34 266.555 227.752C266.318 226.954 265.82 226.162 266.012 225.352C266.164 224.711 266.712 224.251 267.044 223.682C267.634 222.673 267.478 221.314 266.76 220.392C266.387 219.94 265.914 219.582 265.377 219.347C264.84 219.111 264.256 219.006 263.67 219.038C263.348 219.075 263.023 219.081 262.699 219.056C262.16 218.976 261.704 218.629 261.275 218.294L257.679 215.487C257.279 215.134 256.819 214.857 256.32 214.668C255.812 214.51 255.203 214.565 254.826 214.941C254.153 215.614 254.581 216.773 254.311 217.686C254.077 218.476 253.323 219.012 252.543 219.279C251.763 219.547 250.928 219.605 250.126 219.798C249.887 219.838 249.664 219.942 249.48 220.1C249.272 220.356 249.171 220.683 249.199 221.012C249.193 221.82 249.385 222.617 249.757 223.334C250.173 224.135 250.833 224.958 250.6 225.829C250.476 226.291 250.12 226.646 249.807 227.007C249.127 227.788 248.898 228.943 250.177 228.54C251.408 228.151 251.754 227.648 252.449 226.626Z" fill="#434175"/>
<g opacity="0.1">
<path opacity="0.1" d="M266.655 228.717C266.605 228.992 266.274 229.318 266.121 229.084C266.344 229.518 265.937 230.07 265.456 230.153C264.975 230.237 264.497 229.994 264.103 229.705C263.784 229.489 263.518 229.205 263.323 228.873C263.177 228.519 263.05 228.157 262.943 227.789C262.772 227.374 262.492 227.012 262.134 226.74C261.776 226.469 261.352 226.298 260.906 226.246C261.154 226.666 260.761 227.244 260.278 227.318C259.795 227.392 259.324 227.105 258.992 226.746C258.66 226.387 258.419 225.952 258.088 225.593C257.756 225.234 257.285 224.946 256.802 225.02C256.375 225.085 256.043 225.41 255.687 225.653C255.33 225.897 254.829 226.06 254.484 225.8C254.291 225.655 254.197 225.41 254.012 225.255C253.537 224.856 252.799 225.266 252.449 225.78C251.754 226.801 251.409 227.305 250.177 227.693C249.773 227.821 249.52 227.792 249.384 227.669C249.114 228.29 249.237 228.837 250.177 228.54C251.409 228.151 251.754 227.648 252.449 226.626C252.799 226.112 253.537 225.702 254.012 226.101C254.197 226.256 254.291 226.501 254.484 226.646C254.829 226.906 255.33 226.743 255.687 226.499C256.043 226.256 256.375 225.931 256.802 225.866C257.285 225.793 257.756 226.081 258.088 226.439C258.419 226.798 258.66 227.233 258.992 227.592C259.324 227.951 259.795 228.239 260.278 228.165C260.761 228.091 261.154 227.513 260.906 227.092C261.352 227.144 261.776 227.315 262.134 227.587C262.492 227.858 262.772 228.22 262.943 228.635C263.05 229.003 263.177 229.365 263.323 229.719C263.518 230.051 263.784 230.336 264.103 230.551C264.497 230.84 264.975 231.084 265.456 231C265.937 230.916 266.344 230.365 266.121 229.93C266.274 230.164 266.605 229.839 266.655 229.564C266.721 229.193 266.734 228.815 266.693 228.441C266.683 228.533 266.671 228.626 266.655 228.717Z" fill="black"/>
<path opacity="0.1" d="M250.589 225.016C250.592 225.005 250.597 224.994 250.6 224.983C250.834 224.111 250.174 223.288 249.757 222.487C249.465 221.923 249.284 221.307 249.224 220.674C249.208 220.786 249.199 220.899 249.199 221.012C249.194 221.82 249.386 222.617 249.757 223.334C250.042 223.881 250.44 224.439 250.589 225.016Z" fill="black"/>
<path opacity="0.1" d="M267.045 222.835C266.712 223.404 266.164 223.865 266.012 224.506C265.953 224.777 265.956 225.058 266.02 225.329C266.18 224.7 266.716 224.243 267.045 223.682C267.355 223.132 267.471 222.493 267.375 221.869C267.329 222.21 267.216 222.538 267.045 222.835Z" fill="black"/>
</g>
<path opacity="0.1" d="M240.656 261.658V261.659C240.713 261.896 240.757 262.135 240.788 262.377C240.788 262.377 244.179 270.319 244.608 270.791C244.74 270.936 245.238 271.651 245.864 272.57C246.091 272.902 246.334 273.262 246.583 273.631C247.881 275.558 249.33 277.745 249.33 277.745L252.507 280.536C252.507 280.536 259.418 281.089 261.614 278.846C261.348 278.661 261.178 278.561 261.178 278.561L260.234 277.827C259.746 277.005 257.882 276.203 255.994 275.574C254.254 275.587 252.832 275.728 252.832 275.728L252.379 274.536L251.907 273.293L249.505 266.971C249.505 266.971 247.957 258.986 247.441 258.6C246.926 258.213 247.055 257.011 247.055 257.011C247.055 257.011 248 253.62 247.656 253.148C247.313 252.675 248.214 249.198 248.214 249.198C248.124 248.859 247.986 248.534 247.802 248.235L241.174 260.832C241.174 260.832 240.954 261.19 240.656 261.658Z" fill="black"/>
<path d="M248.3 248.941C248.3 248.941 247.399 252.418 247.742 252.89C248.085 253.362 247.141 256.754 247.141 256.754C247.141 256.754 247.012 257.956 247.527 258.342C248.043 258.728 249.591 266.713 249.591 266.713L252.917 275.47C252.917 275.47 263.325 274.44 262.252 277.703C261.178 280.965 252.593 280.278 252.593 280.278L249.416 277.488C249.416 277.488 245.123 271.006 244.694 270.534C244.265 270.061 240.874 262.12 240.874 262.12C240.874 262.12 240.702 260.531 239.972 259.716C239.242 258.9 239.8 257.521 239.8 257.521C239.8 257.521 238.899 247.138 239.843 245.893C240.788 244.648 247.313 245.206 248.3 248.941Z" fill="#EE8E9E"/>
<path opacity="0.1" d="M242.977 242.416L240.273 244.047C240.273 244.047 239.5 246.666 238.899 247.009C238.899 247.009 244.308 244.004 248.386 250.916C248.386 250.916 248.257 250.014 248.815 249.585C249.373 249.155 249.245 247.31 249.245 247.31C249.393 247.018 249.522 246.717 249.631 246.408C250.017 245.464 248 240.055 242.977 242.416Z" fill="black"/>
<path d="M242.891 242.244L240.187 243.875C240.187 243.875 239.414 246.494 238.813 246.837C238.813 246.837 244.222 243.832 248.3 250.744C248.3 250.744 248.171 249.842 248.729 249.413C249.287 248.984 249.159 247.138 249.159 247.138C249.307 246.846 249.436 246.545 249.545 246.236C249.931 245.292 247.914 239.883 242.891 242.244Z" fill="#434175"/>
<path d="M218.786 317.422C223.239 317.422 226.848 313.591 226.848 308.865C226.848 304.138 223.239 300.307 218.786 300.307C214.333 300.307 210.724 304.138 210.724 308.865C210.724 313.591 214.333 317.422 218.786 317.422Z" fill="#FBD56F"/>
<path opacity="0.1" d="M218.786 317.422C223.239 317.422 226.848 313.591 226.848 308.865C226.848 304.138 223.239 300.307 218.786 300.307C214.333 300.307 210.724 304.138 210.724 308.865C210.724 313.591 214.333 317.422 218.786 317.422Z" fill="black"/>
<path d="M220.178 317.422C224.63 317.422 228.24 313.676 228.24 309.055C228.24 304.434 224.63 300.688 220.178 300.688C215.725 300.688 212.115 304.434 212.115 309.055C212.115 313.676 215.725 317.422 220.178 317.422Z" fill="#FBD56F"/>
<path d="M103.351 313.567C108.85 313.567 113.308 312.814 113.308 311.884C113.308 310.954 108.85 310.201 103.351 310.201C97.8515 310.201 93.3933 310.954 93.3933 311.884C93.3933 312.814 97.8515 313.567 103.351 313.567Z" fill="#008FFF"/>
<path d="M107.468 309.13C107.895 308.734 108.295 308.267 108.418 307.698C108.54 307.129 108.298 306.446 107.754 306.238C107.145 306.005 106.494 306.428 106 306.854C105.507 307.28 104.941 307.767 104.295 307.677C104.627 307.376 104.876 306.994 105.017 306.568C105.157 306.142 105.185 305.687 105.098 305.247C105.069 305.065 104.992 304.895 104.874 304.754C104.536 304.392 103.923 304.547 103.518 304.832C102.23 305.738 101.871 307.487 101.864 309.062C101.734 308.494 101.844 307.902 101.84 307.32C101.837 306.737 101.677 306.091 101.186 305.778C100.88 305.613 100.536 305.532 100.188 305.544C99.6092 305.522 98.9644 305.58 98.5691 306.004C98.0778 306.53 98.2052 307.413 98.6326 307.992C99.0599 308.571 99.71 308.934 100.308 309.334C100.788 309.62 101.198 310.01 101.506 310.476C101.542 310.541 101.572 310.609 101.595 310.68H105.224C106.038 310.267 106.793 309.746 107.468 309.13Z" fill="#008FFF"/>
<path d="M193.4 300.908C193.844 301.515 194.206 302.177 194.479 302.878C194.551 303.06 194.622 303.25 194.689 303.45C195.762 306.656 194.062 310.5 193.576 310.086C193.09 309.671 191.575 308.902 191.283 309.983C190.99 311.064 189.908 312.169 189.908 312.169C187.937 314.151 186.154 312.01 184.983 309.797C184.6 309.067 184.26 308.316 183.964 307.546C183.704 306.867 183.555 306.397 183.555 306.397L191.763 299.403C191.763 299.403 192.556 299.768 193.4 300.908Z" fill="#008FFF"/>
<path d="M180.463 305.38C180.907 305.987 181.27 306.649 181.542 307.35C181.615 307.532 181.685 307.722 181.752 307.922C182.825 311.128 181.125 314.972 180.639 314.558C180.153 314.143 178.639 313.374 178.346 314.455C178.053 315.536 176.971 316.641 176.971 316.641C175.001 318.623 173.217 316.482 172.046 314.269C171.663 313.539 171.323 312.788 171.027 312.018C170.767 311.339 170.618 310.869 170.618 310.869L178.826 303.875C178.826 303.875 179.62 304.24 180.463 305.38Z" fill="#008FFF"/>
<path d="M154.488 311.558C154.441 312.308 154.298 313.05 154.061 313.764C154.001 313.949 153.933 314.141 153.857 314.337C152.637 317.49 148.875 319.365 148.765 318.736C148.656 318.106 147.981 316.548 147.066 317.193C146.15 317.839 144.612 317.999 144.612 317.999C141.83 318.268 141.823 315.48 142.334 313.03C142.505 312.223 142.723 311.428 142.986 310.647C143.22 309.958 143.404 309.501 143.404 309.501L154.187 309.355C154.187 309.355 154.565 310.142 154.488 311.558Z" fill="#008FFF"/>
<path d="M140.556 308.044C140.51 308.795 140.366 309.536 140.129 310.25C140.069 310.435 140.002 310.627 139.925 310.824C138.705 313.976 134.943 315.852 134.833 315.222C134.724 314.593 134.049 313.034 133.134 313.679C132.218 314.325 130.68 314.486 130.68 314.486C127.898 314.754 127.891 311.967 128.402 309.516C128.573 308.71 128.791 307.914 129.054 307.133C129.288 306.444 129.473 305.987 129.473 305.987L140.255 305.841C140.255 305.841 140.634 306.628 140.556 308.044Z" fill="#008FFF"/>
<path opacity="0.2" d="M193.4 300.908C193.844 301.515 194.206 302.177 194.479 302.878C194.551 303.06 194.622 303.25 194.689 303.45C195.762 306.656 194.062 310.5 193.576 310.086C193.09 309.671 191.575 308.902 191.283 309.983C190.99 311.064 189.908 312.169 189.908 312.169C187.937 314.151 186.154 312.01 184.983 309.797C184.6 309.067 184.26 308.316 183.964 307.546C183.704 306.867 183.555 306.397 183.555 306.397L191.763 299.403C191.763 299.403 192.556 299.768 193.4 300.908Z" fill="black"/>
<path opacity="0.2" d="M180.463 305.38C180.907 305.987 181.27 306.649 181.542 307.35C181.615 307.532 181.685 307.722 181.752 307.922C182.825 311.128 181.125 314.972 180.639 314.558C180.153 314.143 178.639 313.374 178.346 314.455C178.053 315.536 176.971 316.641 176.971 316.641C175.001 318.623 173.217 316.482 172.046 314.269C171.663 313.539 171.323 312.788 171.027 312.018C170.767 311.339 170.618 310.869 170.618 310.869L178.826 303.875C178.826 303.875 179.62 304.24 180.463 305.38Z" fill="black"/>
<path opacity="0.2" d="M154.488 311.558C154.441 312.308 154.298 313.05 154.061 313.764C154.001 313.949 153.933 314.141 153.857 314.337C152.637 317.49 148.875 319.365 148.765 318.736C148.656 318.106 147.981 316.548 147.066 317.193C146.15 317.839 144.612 317.999 144.612 317.999C141.83 318.268 141.823 315.48 142.334 313.03C142.505 312.223 142.723 311.428 142.986 310.647C143.22 309.958 143.404 309.501 143.404 309.501L154.187 309.355C154.187 309.355 154.565 310.142 154.488 311.558Z" fill="black"/>
<path opacity="0.2" d="M140.556 308.044C140.51 308.795 140.366 309.536 140.129 310.25C140.069 310.435 140.002 310.627 139.925 310.824C138.705 313.976 134.943 315.852 134.833 315.222C134.724 314.593 134.049 313.034 133.134 313.679C132.218 314.325 130.68 314.486 130.68 314.486C127.898 314.754 127.891 311.967 128.402 309.516C128.573 308.71 128.791 307.914 129.054 307.133C129.288 306.444 129.473 305.987 129.473 305.987L140.255 305.841C140.255 305.841 140.634 306.628 140.556 308.044Z" fill="black"/>
<path d="M215.295 260.788C215.295 289.588 205.552 312.934 160.593 312.934C130.382 312.934 107.009 305.428 105.891 260.788C105.17 231.997 130.382 208.641 160.593 208.641C190.804 208.641 215.295 231.988 215.295 260.788Z" fill="#008FFF"/>
<path opacity="0.2" d="M150.331 209.552H150.338C150.336 209.553 150.335 209.553 150.333 209.553L150.331 209.552Z" fill="black"/>
<path opacity="0.2" d="M150.438 209.534C150.577 209.512 150.852 209.473 151.251 209.443L150.362 209.549C150.375 209.545 150.391 209.542 150.41 209.539C150.419 209.537 150.427 209.536 150.438 209.534Z" fill="black"/>
<path opacity="0.2" d="M190.859 230.842L186.866 232.279C184.831 229.549 182.641 226.939 180.307 224.459C177.759 221.742 174.98 219.253 172 217.018C161.777 209.442 153.869 209.248 151.258 209.443L157.26 208.737C162.933 209.713 168.388 211.685 173.373 214.562C176.861 216.573 180.11 218.972 183.057 221.716C188.283 226.566 190.859 230.842 190.859 230.842Z" fill="black"/>
<path opacity="0.2" d="M154.764 233.557C154.764 233.557 149.493 215.988 153.965 211.197C153.965 211.197 160.992 208.801 166.263 222.377L154.764 233.557Z" fill="black"/>
<path d="M181.452 217.148C181.452 217.148 195.429 205.27 201.612 207.444C201.612 207.444 206.626 212.919 196.307 223.194L181.452 217.148Z" fill="#008FFF"/>
<path opacity="0.2" d="M181.452 217.148C181.452 217.148 195.429 205.27 201.612 207.444C201.612 207.444 206.626 212.919 196.307 223.194L181.452 217.148Z" fill="black"/>
<path d="M225.038 274.044C225.038 289.525 213.929 301.755 203.476 301.755C193.024 301.755 187.186 289.525 187.186 274.044C187.186 258.564 195.677 246.619 206.112 246.014C222.642 245.056 225.038 258.564 225.038 274.044Z" fill="#008FFF"/>
<path opacity="0.2" d="M225.038 274.044C225.038 289.525 213.929 301.755 203.476 301.755C193.024 301.755 187.186 289.525 187.186 274.044C187.186 258.564 195.677 246.619 206.112 246.014C222.642 245.056 225.038 258.564 225.038 274.044Z" fill="black"/>
<path d="M202.837 280.832C204.778 280.832 206.351 278.83 206.351 276.36C206.351 273.89 204.778 271.888 202.837 271.888C200.897 271.888 199.324 273.89 199.324 276.36C199.324 278.83 200.897 280.832 202.837 280.832Z" fill="#008FFF"/>
<path d="M215.295 276.999C217.236 276.999 218.809 274.997 218.809 272.527C218.809 270.057 217.236 268.055 215.295 268.055C213.354 268.055 211.781 270.057 211.781 272.527C211.781 274.997 213.354 276.999 215.295 276.999Z" fill="#008FFF"/>
<path d="M183.739 218.831C183.741 219.833 183.507 220.821 183.057 221.716C182.462 222.904 181.496 223.867 180.306 224.459C177.759 221.742 174.98 219.253 172 217.018C172.265 216.106 172.735 215.266 173.373 214.562C173.924 213.948 174.597 213.457 175.349 213.12C176.101 212.783 176.916 212.608 177.74 212.605C181.052 212.605 183.739 215.392 183.739 218.831Z" fill="#FAD46F"/>
</g>
<defs>
<linearGradient id="paint0_linear" x1="264.54" y1="321.881" x2="264.54" y2="213.679" gradientUnits="userSpaceOnUse">
<stop stop-color="#808080" stop-opacity="0.25"/>
<stop offset="0.53514" stop-color="#808080" stop-opacity="0.12"/>
<stop offset="1" stop-color="#808080" stop-opacity="0.1"/>
</linearGradient>
<clipPath id="clip0">
<rect width="240" height="172.34" fill="white" transform="translate(84 154)"/>
</clipPath>
</defs>
</svg>
