<svg width="328" height="328" viewBox="0 0 328 328" fill="none" xmlns="http://www.w3.org/2000/svg">
<g clip-path="url(#clip0)">
<path d="M280.231 311.969L280.77 311.847C274.762 285.128 259.663 260.865 238.254 243.526C222.069 230.439 202.818 221.685 182.316 218.091C161.813 214.496 140.734 216.179 121.061 222.98C101.388 229.782 83.7704 241.478 69.8659 256.968C55.9614 272.458 46.2279 291.231 41.5818 311.521L42.1201 311.644C54.8386 255.801 103.781 216.799 161.139 216.799C217.746 216.799 267.831 256.824 280.231 311.969Z" fill="#3F3D56"/>
<path d="M233.519 215.001H235.978V312.115H233.519V215.001Z" fill="#3F3D56"/>
<path d="M210.829 227.377C210.673 261.335 234.564 288.975 234.564 288.975C234.564 288.975 258.71 261.557 258.866 227.598C259.023 193.64 235.131 166 235.131 166C235.131 166 210.986 193.418 210.829 227.377Z" fill="#008FFF"/>
<path d="M62.4467 271.909H252.725V312.23H62.4467V271.909Z" fill="#F2F2F2"/>
<path d="M258.8 276.328L238.088 232.97H72.6648L57.1996 276.328H258.8Z" fill="#3F3D56"/>
<path d="M130.384 235.732H207.157V261.139H130.384V235.732Z" fill="#F2F2F2"/>
<path d="M202.186 215.019L214.338 240.427H123.203L130.383 215.019H202.186Z" fill="#3F3D56"/>
<path d="M139.773 279.918H200.391V312.23H139.773V279.918Z" fill="#CCCCCC"/>
<path d="M212.957 281.023H245.268V312.23H212.957V281.023Z" fill="#CCCCCC"/>
<path d="M112.571 282.956H129.279V312.23H112.571V282.956Z" fill="#3F3D56"/>
<path d="M21 312.091H315V312.644H21V312.091Z" fill="#3F3D56"/>
<path d="M263.694 248.037H265.316V312.122H263.694V248.037Z" fill="#3F3D56"/>
<path d="M248.721 256.204C248.618 278.613 264.384 296.852 264.384 296.852C264.384 296.852 280.317 278.759 280.42 256.35C280.524 233.941 264.758 215.702 264.758 215.702C264.758 215.702 248.824 233.795 248.721 256.204Z" fill="#008FFF"/>
<path opacity="0.1" d="M248.721 256.204C248.618 278.613 264.384 296.852 264.384 296.852C264.384 296.852 280.317 278.759 280.42 256.35C280.524 233.941 264.758 215.702 264.758 215.702C264.758 215.702 248.824 233.795 248.721 256.204Z" fill="black"/>
<path d="M284.785 248.037H286.408V312.122H284.785V248.037Z" fill="#3F3D56"/>
<path d="M269.812 256.204C269.709 278.613 285.475 296.852 285.475 296.852C285.475 296.852 301.408 278.759 301.512 256.35C301.615 233.941 285.849 215.702 285.849 215.702C285.849 215.702 269.916 233.795 269.812 256.204Z" fill="#008FFF"/>
<path d="M86.3351 284.613H94.4819V292.208H86.3351V284.613Z" fill="#3F3D56"/>
<path d="M75.4266 284.613H83.5735V292.208H75.4266V284.613Z" fill="#3F3D56"/>
<path d="M86.3351 294.969H94.4819V302.84H86.3351V294.969Z" fill="#3F3D56"/>
<path d="M75.4266 294.969H83.5735V302.84H75.4266V294.969Z" fill="#3F3D56"/>
<path d="M193.739 242.684H200.115V248.627H193.739V242.684Z" fill="#3F3D56"/>
<path d="M185.202 242.684H191.578V248.627H185.202V242.684Z" fill="#3F3D56"/>
<path d="M193.739 250.789H200.115V256.948H193.739V250.789Z" fill="#3F3D56"/>
<path d="M185.202 250.789H191.578V256.948H185.202V250.789Z" fill="#3F3D56"/>
<path d="M145.963 242.684H152.339V248.627H145.963V242.684Z" fill="#3F3D56"/>
<path d="M137.426 242.684H143.802V248.627H137.426V242.684Z" fill="#3F3D56"/>
<path d="M145.963 250.789H152.339V256.948H145.963V250.789Z" fill="#3F3D56"/>
<path d="M137.426 250.789H143.802V256.948H137.426V250.789Z" fill="#3F3D56"/>
<path d="M169.713 242.684H176.089V248.627H169.713V242.684Z" fill="#3F3D56"/>
<path d="M161.176 242.684H167.552V248.627H161.176V242.684Z" fill="#3F3D56"/>
<path d="M169.713 250.789H176.089V256.948H169.713V250.789Z" fill="#3F3D56"/>
<path d="M161.176 250.789H167.552V256.948H161.176V250.789Z" fill="#3F3D56"/>
<path d="M121.536 285.922H125.551V289.664H121.536V285.922Z" fill="#F2F2F2"/>
<path d="M116.161 285.922H120.175V289.664H116.161V285.922Z" fill="#F2F2F2"/>
<path d="M121.536 291.025H125.551V294.903H121.536V291.025Z" fill="#F2F2F2"/>
<path d="M116.161 291.025H120.175V294.903H116.161V291.025Z" fill="#F2F2F2"/>
<path d="M114.78 300.769C114.17 300.769 113.675 300.274 113.675 299.664C113.675 299.054 114.17 298.559 114.78 298.559C115.39 298.559 115.885 299.054 115.885 299.664C115.885 300.274 115.39 300.769 114.78 300.769Z" fill="#F2F2F2"/>
<path d="M139.635 283.37H200.391V283.923H139.635V283.37Z" fill="#F2F2F2"/>
<path d="M139.635 285.856H200.391V286.408H139.635V285.856Z" fill="#F2F2F2"/>
<path d="M139.635 288.341H200.391V288.894H139.635V288.341Z" fill="#F2F2F2"/>
<path d="M139.635 290.827H200.391V291.379H139.635V290.827Z" fill="#F2F2F2"/>
<path d="M139.635 293.312H200.391V293.865H139.635V293.312Z" fill="#F2F2F2"/>
<path d="M139.635 295.798H200.391V296.35H139.635V295.798Z" fill="#F2F2F2"/>
<path d="M139.635 298.283H200.391V298.836H139.635V298.283Z" fill="#F2F2F2"/>
<path d="M139.635 300.769H200.391V301.321H139.635V300.769Z" fill="#F2F2F2"/>
<path d="M139.635 303.254H200.391V303.807H139.635V303.254Z" fill="#F2F2F2"/>
<path d="M139.635 305.74H200.391V306.292H139.635V305.74Z" fill="#F2F2F2"/>
<path d="M139.635 308.225H200.391V308.777H139.635V308.225Z" fill="#F2F2F2"/>
<path d="M212.957 283.37H245.268V283.923H212.957V283.37Z" fill="#F2F2F2"/>
<path d="M212.957 285.856H245.268V286.408H212.957V285.856Z" fill="#F2F2F2"/>
<path d="M212.957 288.341H245.268V288.894H212.957V288.341Z" fill="#F2F2F2"/>
<path d="M212.957 290.827H245.268V291.379H212.957V290.827Z" fill="#F2F2F2"/>
<path d="M212.957 293.312H245.268V293.865H212.957V293.312Z" fill="#F2F2F2"/>
<path d="M212.957 295.798H245.268V296.35H212.957V295.798Z" fill="#F2F2F2"/>
<path d="M212.957 298.283H245.268V298.836H212.957V298.283Z" fill="#F2F2F2"/>
<path d="M212.957 300.769H245.268V301.321H212.957V300.769Z" fill="#F2F2F2"/>
<path d="M212.957 303.254H245.268V303.807H212.957V303.254Z" fill="#F2F2F2"/>
<path d="M212.957 305.74H245.268V306.292H212.957V305.74Z" fill="#F2F2F2"/>
<path d="M212.957 308.225H245.268V308.777H212.957V308.225Z" fill="#F2F2F2"/>
<path d="M72.803 255.201C60.4487 255.201 50.4336 245.186 50.4336 232.832C50.4336 220.478 60.4487 210.463 72.803 210.463C85.1572 210.463 95.1724 220.478 95.1724 232.832C95.1724 245.186 85.1572 255.201 72.803 255.201Z" fill="#008FFF"/>
<path d="M58.7186 230.623H70.5937V218.748H75.0123V230.623H86.8875V235.041H75.0123V246.916H70.5937V235.041H58.7186V230.623Z" fill="white"/>
</g>
<defs>
<clipPath id="clip0">
<rect width="314" height="146.69" fill="white" transform="matrix(-1 0 0 1 315 166)"/>
</clipPath>
</defs>
</svg>
