<svg width="328" height="328" viewBox="0 0 328 328" fill="none" xmlns="http://www.w3.org/2000/svg">
<g clip-path="url(#clip0)">
<path d="M114.76 237.782C125.631 237.782 134.444 228.969 134.444 218.098C134.444 207.228 125.631 198.415 114.76 198.415C103.89 198.415 95.0774 207.228 95.0774 218.098C95.0774 228.969 103.89 237.782 114.76 237.782Z" fill="#FF6584"/>
<path d="M309.852 309.023C308.695 310.065 307.477 311.037 306.206 311.937C303.189 314.058 299.929 315.811 296.495 317.157C282.225 316.814 261.246 315.063 234.766 314.129C232.79 313.454 230.77 312.723 228.705 311.937C225.972 310.895 223.161 309.751 220.271 308.503C208.269 303.317 195.946 299.946 183.741 297.932C181.118 297.499 178.502 297.128 175.893 296.819C120.775 290.228 69.9471 309.595 64.0605 311.937H63.4929L67.1137 304.924L128.722 185.599L143.129 222.589L147.727 234.397L160.4 217.007L166.944 208.028L196.743 242.192L205.165 223.591L263.478 271.179L266.73 273.831L270.021 276.518L271.07 277.374L302.244 302.816L309.852 309.023Z" fill="#F2F2F2"/>
<path opacity="0.1" d="M123.229 209.63L129.179 196.584L137.419 215.581L130.324 201.849L123.229 209.63Z" fill="black"/>
<path opacity="0.1" d="M183.741 297.932C181.118 297.499 178.502 297.128 175.892 296.819L147.727 234.397L183.741 297.932Z" fill="black"/>
<path opacity="0.1" d="M160.4 217.007L166.944 211.919L196.697 246.25L166.486 216.954L160.4 217.007Z" fill="black"/>
<path opacity="0.1" d="M196.742 242.191L256.204 299.12L248.071 301.038L196.742 242.191Z" fill="black"/>
<path d="M318 312.051C318 316.484 310.456 317.494 296.495 317.157C282.225 316.814 261.246 315.063 234.766 314.129C224.75 313.777 213.945 313.539 202.419 313.539C130.621 313.539 58 322.732 58 312.051C58 309.533 61.2317 307.13 67.1137 304.924C84.5539 298.383 125.289 293.592 174.089 292.821C176.309 292.784 178.545 292.758 180.797 292.741C183.182 292.72 185.583 292.71 188 292.711C207.402 292.711 225.812 293.343 242.348 294.476C242.401 294.48 242.451 294.485 242.504 294.487C243.831 294.579 245.146 294.673 246.447 294.771C247.869 294.879 249.275 294.989 250.665 295.103C250.952 295.126 251.238 295.149 251.521 295.174C251.727 295.19 251.933 295.208 252.137 295.226C252.513 295.256 252.888 295.288 253.259 295.323C253.272 295.322 253.285 295.323 253.298 295.325C253.98 295.384 254.657 295.444 255.33 295.503C255.401 295.51 255.472 295.517 255.543 295.522C275.1 297.295 291.263 299.815 302.244 302.816C312.292 305.56 318 308.705 318 312.051Z" fill="#3F3D56"/>
<path d="M74.2241 273.866C74.2241 288.517 83.4158 300.373 94.7748 300.373L74.2241 273.866Z" fill="#3F3D56"/>
<path d="M94.7747 300.373C94.7747 285.557 105.032 273.568 117.708 273.568L94.7747 300.373Z" fill="#008FFF"/>
<path d="M81.6699 275.194C81.6699 289.111 87.5312 300.373 94.7747 300.373L81.6699 275.194Z" fill="#008FFF"/>
<path d="M94.7747 300.373C94.7747 281.441 106.631 266.122 121.282 266.122L94.7747 300.373Z" fill="#3F3D56"/>
<path d="M90.4514 300.56C90.4514 300.56 93.3658 300.47 94.2442 299.845C95.1225 299.219 98.7273 298.472 98.9452 299.476C99.1631 300.479 103.325 304.464 100.035 304.491C96.7443 304.517 92.3893 303.978 91.5127 303.444C90.636 302.91 90.4514 300.56 90.4514 300.56Z" fill="#A8A8A8"/>
<path opacity="0.2" d="M100.093 304.142C96.803 304.168 92.448 303.629 91.5714 303.095C90.9038 302.689 90.6377 301.229 90.5487 300.556C90.4871 300.559 90.4514 300.56 90.4514 300.56C90.4514 300.56 90.636 302.91 91.5127 303.444C92.3893 303.978 96.7443 304.517 100.035 304.491C100.984 304.483 101.313 304.145 101.295 303.645C101.163 303.947 100.8 304.136 100.093 304.142Z" fill="black"/>
<path d="M232.604 271.806C232.604 286.457 241.796 298.313 253.155 298.313L232.604 271.806Z" fill="#3F3D56"/>
<path d="M253.155 298.313C253.155 283.497 263.412 271.508 276.088 271.508L253.155 298.313Z" fill="#008FFF"/>
<path d="M240.05 273.134C240.05 287.051 245.912 298.313 253.155 298.313L240.05 273.134Z" fill="#008FFF"/>
<path d="M253.155 298.313C253.155 279.381 265.011 264.062 279.662 264.062L253.155 298.313Z" fill="#3F3D56"/>
<path d="M248.832 298.5C248.832 298.5 251.746 298.41 252.624 297.785C253.503 297.159 257.108 296.413 257.325 297.416C257.543 298.419 261.705 302.405 258.415 302.431C255.125 302.458 250.769 301.919 249.893 301.385C249.016 300.851 248.832 298.5 248.832 298.5Z" fill="#A8A8A8"/>
<path opacity="0.2" d="M258.474 302.082C255.183 302.109 250.828 301.569 249.952 301.035C249.284 300.629 249.018 299.17 248.929 298.496C248.867 298.499 248.832 298.5 248.832 298.5C248.832 298.5 249.016 300.851 249.893 301.385C250.769 301.919 255.125 302.458 258.415 302.431C259.365 302.423 259.693 302.086 259.675 301.585C259.543 301.887 259.181 302.076 258.474 302.082Z" fill="black"/>
<path d="M287.025 180.098C287.783 180.112 289.519 178.841 290.598 177.986C290.1 177.526 289.562 177.111 288.99 176.747C288.12 177.415 286.572 178.496 285.712 178.457C284.469 178.401 285.885 180.079 287.025 180.098Z" fill="#F2F2F2"/>
<path d="M285.819 192.887C284.708 193.297 282.756 193.633 280.497 193.904C274.355 194.641 265.936 194.903 265.936 194.903C265.936 194.903 222.673 198.491 190.247 185.146C190.247 185.146 185.53 182.672 189.911 179.345C190.584 178.847 191.3 178.41 192.051 178.039C192.051 178.039 192.069 178.02 192.105 177.986C192.602 177.526 193.14 177.111 193.712 176.747C195.392 175.661 198.229 174.373 201.681 174.956L286.842 188.732C286.842 188.732 289.953 191.36 285.819 192.887Z" fill="#3F3D56"/>
<path d="M268.85 186.644L286.679 173.994L294.537 175.353L286.842 188.731C286.842 188.731 269.054 188.873 268.85 186.644Z" fill="#3F3D56"/>
<path d="M223.963 178.96L259.476 169L265.201 170.196L249.159 177.412L244.144 183.022L223.963 178.96Z" fill="#3F3D56"/>
<path d="M280.655 193.904C274.512 194.641 266.094 194.903 266.094 194.903C266.094 194.903 222.831 198.491 190.404 185.146C190.404 185.146 185.688 182.672 190.069 179.345L190.084 179.406C190.084 179.406 197.08 184.135 230.511 188.083L280.655 193.904Z" fill="#008FFF"/>
<path d="M274.788 193.63L290.667 200.113L294.655 199.67L285.158 192.533C285.158 192.533 273.671 190.083 274.788 193.63Z" fill="#3F3D56"/>
<path d="M195.677 180.098C194.919 180.112 193.184 178.841 192.105 177.986C192.602 177.526 193.14 177.111 193.712 176.747C194.582 177.415 196.13 178.496 196.991 178.457C198.233 178.401 196.818 180.079 195.677 180.098Z" fill="#008FFF"/>
<path d="M267.809 216.041L257.615 216.574L228.956 197.247L223.635 193.66L221.049 191.916C225.898 187.818 245.68 193.468 245.68 193.468C246.059 193.788 246.179 194.319 246.161 194.906C246.129 196.005 245.613 197.298 245.414 197.759C245.366 197.87 245.337 197.932 245.337 197.932L267.809 216.041Z" fill="#3F3D56"/>
</g>
<defs>
<clipPath id="clip0">
<rect width="260" height="148.217" fill="white" transform="translate(58 169)"/>
</clipPath>
</defs>
</svg>
