<svg width="328" height="328" viewBox="0 0 328 328" fill="none" xmlns="http://www.w3.org/2000/svg">
<g clip-path="url(#clip0)">
<g opacity="0.5">
<path opacity="0.5" d="M156.207 161.94H155.509V165.898H156.207V161.94Z" fill="#47E6B1"/>
<path opacity="0.5" d="M157.837 164.268V163.57H153.879V164.268H157.837Z" fill="#47E6B1"/>
</g>
<g opacity="0.5">
<path opacity="0.5" d="M303.963 303.427H303.264V307.385H303.963V303.427Z" fill="#47E6B1"/>
<path opacity="0.5" d="M305.593 305.755V305.057H301.635V305.755H305.593Z" fill="#47E6B1"/>
</g>
<g opacity="0.5">
<path opacity="0.5" d="M304.24 187.173H303.541V191.131H304.24V187.173Z" fill="#47E6B1"/>
<path opacity="0.5" d="M305.87 189.501V188.802H301.911V189.501H305.87Z" fill="#47E6B1"/>
</g>
<g opacity="0.5">
<path opacity="0.5" d="M311.372 163.511H310.674V167.47H311.372V163.511Z" fill="#47E6B1"/>
<path opacity="0.5" d="M313.002 165.84V165.141H309.044V165.84H313.002Z" fill="#47E6B1"/>
</g>
<g opacity="0.5">
<path opacity="0.5" d="M189.725 161.608H189.026V165.567H189.725V161.608Z" fill="#47E6B1"/>
<path opacity="0.5" d="M191.353 163.937V163.238H187.394V163.937H191.353Z" fill="#47E6B1"/>
</g>
<path opacity="0.5" d="M145.84 208.75C145.648 208.666 145.493 208.514 145.405 208.323C145.317 208.133 145.303 207.916 145.364 207.716C145.374 207.685 145.38 207.653 145.383 207.621C145.397 207.526 145.378 207.429 145.329 207.346C145.28 207.263 145.204 207.2 145.114 207.166C145.023 207.133 144.924 207.132 144.833 207.162C144.742 207.193 144.664 207.255 144.613 207.336C144.594 207.362 144.577 207.39 144.565 207.42C144.481 207.612 144.329 207.767 144.138 207.855C143.948 207.943 143.731 207.957 143.53 207.896C143.5 207.886 143.468 207.88 143.436 207.877C143.341 207.863 143.244 207.882 143.161 207.931C143.078 207.98 143.015 208.056 142.981 208.146C142.948 208.237 142.946 208.336 142.977 208.427C143.008 208.518 143.069 208.596 143.151 208.647C143.177 208.666 143.205 208.682 143.235 208.695C143.427 208.779 143.582 208.931 143.67 209.122C143.757 209.312 143.772 209.529 143.711 209.729C143.701 209.76 143.695 209.792 143.692 209.824C143.678 209.919 143.697 210.016 143.746 210.099C143.795 210.182 143.871 210.245 143.961 210.279C144.051 210.312 144.15 210.314 144.242 210.283C144.333 210.252 144.411 210.191 144.462 210.109C144.481 210.083 144.497 210.055 144.51 210.025C144.594 209.833 144.746 209.678 144.937 209.59C145.127 209.502 145.344 209.488 145.544 209.549C145.575 209.559 145.607 209.565 145.639 209.568C145.734 209.582 145.831 209.563 145.914 209.514C145.997 209.465 146.06 209.389 146.094 209.299C146.127 209.208 146.128 209.109 146.098 209.018C146.067 208.927 146.005 208.849 145.924 208.798C145.898 208.779 145.87 208.763 145.84 208.75Z" fill="#4D8AF0"/>
<path opacity="0.5" d="M158.737 288.115C158.545 288.031 158.39 287.88 158.302 287.689C158.214 287.498 158.2 287.282 158.261 287.081C158.271 287.051 158.277 287.019 158.28 286.987C158.294 286.892 158.275 286.795 158.226 286.712C158.177 286.629 158.101 286.565 158.011 286.532C157.92 286.499 157.821 286.497 157.73 286.528C157.639 286.559 157.561 286.62 157.51 286.702C157.491 286.728 157.474 286.756 157.462 286.785C157.378 286.978 157.226 287.133 157.035 287.22C156.845 287.308 156.628 287.323 156.427 287.262C156.397 287.252 156.365 287.245 156.333 287.243C156.238 287.229 156.141 287.248 156.058 287.297C155.975 287.346 155.912 287.422 155.878 287.512C155.845 287.602 155.843 287.701 155.874 287.792C155.905 287.884 155.966 287.961 156.048 288.013C156.074 288.032 156.102 288.048 156.132 288.061C156.324 288.145 156.479 288.297 156.567 288.487C156.654 288.678 156.669 288.894 156.608 289.095C156.598 289.126 156.592 289.157 156.589 289.189C156.575 289.285 156.594 289.382 156.643 289.465C156.692 289.547 156.768 289.611 156.858 289.644C156.948 289.678 157.047 289.679 157.139 289.648C157.23 289.617 157.308 289.556 157.359 289.475C157.378 289.449 157.394 289.421 157.407 289.391C157.491 289.198 157.643 289.044 157.834 288.956C158.024 288.868 158.24 288.853 158.441 288.915C158.472 288.925 158.504 288.931 158.536 288.934C158.631 288.948 158.728 288.929 158.811 288.88C158.894 288.831 158.957 288.755 158.991 288.664C159.024 288.574 159.025 288.475 158.994 288.384C158.964 288.293 158.902 288.215 158.821 288.164C158.795 288.144 158.767 288.128 158.737 288.115Z" fill="#4D8AF0"/>
<path opacity="0.5" d="M276 183.019C275.808 182.935 275.653 182.783 275.565 182.593C275.477 182.402 275.463 182.186 275.524 181.985C275.534 181.954 275.54 181.923 275.543 181.89C275.557 181.795 275.538 181.698 275.489 181.615C275.44 181.532 275.364 181.469 275.274 181.436C275.183 181.402 275.084 181.401 274.993 181.432C274.902 181.462 274.824 181.524 274.773 181.605C274.754 181.631 274.738 181.659 274.725 181.689C274.641 181.881 274.489 182.036 274.298 182.124C274.108 182.212 273.891 182.226 273.691 182.165C273.66 182.155 273.628 182.149 273.596 182.146C273.501 182.132 273.404 182.151 273.321 182.2C273.238 182.249 273.175 182.325 273.141 182.416C273.108 182.506 273.107 182.605 273.137 182.696C273.168 182.787 273.23 182.865 273.311 182.916C273.337 182.935 273.365 182.952 273.395 182.964C273.587 183.048 273.742 183.2 273.83 183.391C273.918 183.582 273.932 183.798 273.871 183.999C273.861 184.029 273.855 184.061 273.852 184.093C273.838 184.188 273.857 184.285 273.906 184.368C273.955 184.451 274.031 184.514 274.121 184.548C274.212 184.581 274.311 184.583 274.402 184.552C274.493 184.521 274.571 184.46 274.622 184.378C274.641 184.352 274.657 184.324 274.67 184.294C274.754 184.102 274.906 183.947 275.097 183.859C275.287 183.772 275.504 183.757 275.704 183.818C275.735 183.828 275.767 183.834 275.799 183.837C275.894 183.851 275.991 183.832 276.074 183.783C276.157 183.734 276.22 183.658 276.254 183.568C276.287 183.478 276.289 183.379 276.258 183.288C276.227 183.196 276.166 183.119 276.084 183.067C276.058 183.048 276.03 183.032 276 183.019Z" fill="#4D8AF0"/>
<path opacity="0.5" d="M274.437 201.98C274.245 201.896 274.09 201.745 274.002 201.554C273.914 201.363 273.9 201.147 273.961 200.946C273.971 200.916 273.977 200.884 273.98 200.852C273.994 200.757 273.975 200.66 273.926 200.577C273.877 200.494 273.801 200.43 273.711 200.397C273.62 200.364 273.521 200.362 273.43 200.393C273.339 200.424 273.261 200.485 273.21 200.567C273.191 200.593 273.175 200.621 273.162 200.65C273.078 200.843 272.926 200.998 272.735 201.085C272.545 201.173 272.328 201.188 272.128 201.127C272.097 201.117 272.065 201.11 272.033 201.108C271.938 201.094 271.841 201.113 271.758 201.162C271.675 201.211 271.612 201.287 271.578 201.377C271.545 201.467 271.544 201.566 271.574 201.657C271.605 201.749 271.667 201.826 271.748 201.878C271.774 201.897 271.802 201.913 271.832 201.926C272.024 202.01 272.179 202.162 272.267 202.352C272.355 202.543 272.369 202.759 272.308 202.96C272.298 202.991 272.292 203.022 272.289 203.054C272.275 203.15 272.294 203.247 272.343 203.33C272.392 203.412 272.468 203.476 272.558 203.509C272.649 203.543 272.748 203.544 272.839 203.513C272.93 203.482 273.008 203.421 273.059 203.34C273.078 203.314 273.094 203.286 273.107 203.256C273.191 203.063 273.343 202.909 273.534 202.821C273.724 202.733 273.941 202.718 274.141 202.78C274.172 202.79 274.204 202.796 274.236 202.799C274.331 202.813 274.428 202.794 274.511 202.745C274.594 202.696 274.657 202.62 274.691 202.529C274.724 202.439 274.726 202.34 274.695 202.249C274.664 202.158 274.603 202.08 274.521 202.029C274.495 202.009 274.467 201.993 274.437 201.98Z" fill="#4D8AF0"/>
<path opacity="0.5" d="M309.824 239.461C309.632 239.377 309.477 239.225 309.389 239.034C309.301 238.844 309.287 238.627 309.348 238.426C309.358 238.396 309.364 238.364 309.367 238.332C309.381 238.237 309.362 238.14 309.313 238.057C309.264 237.974 309.188 237.911 309.097 237.877C309.007 237.844 308.908 237.842 308.817 237.873C308.726 237.904 308.648 237.965 308.597 238.047C308.578 238.073 308.561 238.101 308.549 238.131C308.465 238.323 308.313 238.478 308.122 238.566C307.931 238.653 307.715 238.668 307.514 238.607C307.484 238.597 307.452 238.591 307.42 238.588C307.325 238.574 307.228 238.593 307.145 238.642C307.062 238.691 306.999 238.767 306.965 238.857C306.932 238.947 306.93 239.046 306.961 239.138C306.992 239.229 307.053 239.307 307.135 239.358C307.161 239.377 307.189 239.393 307.219 239.406C307.413 239.491 307.569 239.644 307.657 239.837C307.744 240.03 307.757 240.249 307.693 240.451C307.683 240.481 307.676 240.513 307.674 240.545C307.66 240.64 307.679 240.737 307.728 240.82C307.777 240.903 307.853 240.967 307.943 241C308.033 241.033 308.132 241.035 308.223 241.004C308.315 240.973 308.392 240.912 308.444 240.83C308.463 240.804 308.479 240.776 308.492 240.747C308.576 240.554 308.728 240.399 308.918 240.312C309.109 240.224 309.325 240.209 309.526 240.27C309.557 240.28 309.588 240.287 309.621 240.289C309.716 240.303 309.813 240.284 309.896 240.235C309.978 240.186 310.042 240.11 310.075 240.02C310.109 239.93 310.11 239.831 310.079 239.74C310.048 239.648 309.987 239.571 309.906 239.519C309.881 239.497 309.854 239.477 309.824 239.461Z" fill="#4D8AF0"/>
<path opacity="0.5" d="M145.958 178.245C146.729 178.245 147.355 177.619 147.355 176.848C147.355 176.076 146.729 175.45 145.958 175.45C145.186 175.45 144.561 176.076 144.561 176.848C144.561 177.619 145.186 178.245 145.958 178.245Z" fill="#F55F44"/>
<path opacity="0.5" d="M135.714 278.581C136.486 278.581 137.112 277.956 137.112 277.184C137.112 276.412 136.486 275.787 135.714 275.787C134.943 275.787 134.317 276.412 134.317 277.184C134.317 277.956 134.943 278.581 135.714 278.581Z" fill="#F55F44"/>
<path opacity="0.5" d="M225.229 164.979C226 164.979 226.626 164.354 226.626 163.582C226.626 162.811 226 162.185 225.229 162.185C224.457 162.185 223.832 162.811 223.832 163.582C223.832 164.354 224.457 164.979 225.229 164.979Z" fill="#F55F44"/>
<path opacity="0.5" d="M249.284 172.621C250.055 172.621 250.681 171.995 250.681 171.224C250.681 170.452 250.055 169.827 249.284 169.827C248.512 169.827 247.887 170.452 247.887 171.224C247.887 171.995 248.512 172.621 249.284 172.621Z" fill="#F55F44"/>
<path opacity="0.5" d="M134.397 243.811C135.169 243.811 135.794 243.186 135.794 242.414C135.794 241.643 135.169 241.017 134.397 241.017C133.625 241.017 133 241.643 133 242.414C133 243.186 133.625 243.811 134.397 243.811Z" fill="#F55F44"/>
<path opacity="0.5" d="M201.114 175.983C201.886 175.983 202.511 175.358 202.511 174.586C202.511 173.815 201.886 173.189 201.114 173.189C200.343 173.189 199.717 173.815 199.717 174.586C199.717 175.358 200.343 175.983 201.114 175.983Z" fill="#47E6B1"/>
<path opacity="0.5" d="M285.212 268.789C285.983 268.789 286.609 268.164 286.609 267.392C286.609 266.62 285.983 265.995 285.212 265.995C284.44 265.995 283.814 266.62 283.814 267.392C283.814 268.164 284.44 268.789 285.212 268.789Z" fill="#F55F44"/>
<g opacity="0.5">
<path opacity="0.5" d="M247.23 186.906C244.524 184.192 240.578 183.111 236.112 183.864C231.94 184.569 227.765 186.828 224.365 190.227C223.378 191.219 222.549 192.357 221.906 193.6C221.28 192.316 220.458 191.137 219.469 190.105C216.112 186.65 211.986 184.32 207.826 183.541C203.381 182.702 199.419 183.722 196.666 186.39C193.914 189.058 192.775 192.987 193.467 197.447C194.113 201.643 196.303 205.838 199.66 209.297C206.704 216.564 220.761 213.726 221.357 213.6L221.533 213.564L222.074 213.688C222.668 213.822 236.672 216.902 243.838 209.759C247.247 206.363 249.519 202.194 250.238 198.024C251.004 193.571 249.936 189.621 247.23 186.906ZM218.976 209.404C215.579 209.862 207.113 210.483 202.909 206.146C200.207 203.359 198.439 200.023 197.935 196.759C197.474 193.78 198.145 191.248 199.811 189.627C200.464 188.999 201.246 188.521 202.102 188.223C203.503 187.726 205.171 187.634 206.993 187.976C210.241 188.582 213.517 190.453 216.223 193.241C220.427 197.588 219.538 206.031 218.976 209.404ZM245.781 197.252C245.22 200.508 243.395 203.81 240.645 206.551C236.366 210.816 227.912 210.048 224.526 209.532C224.021 206.142 223.28 197.686 227.558 193.422C230.308 190.68 233.616 188.867 236.874 188.316C238.703 188.007 240.368 188.127 241.761 188.647C242.612 188.959 243.385 189.452 244.027 190.09C245.669 191.746 246.292 194.288 245.781 197.256V197.252Z" fill="url(#paint0_linear)"/>
</g>
<path d="M222.716 212.687L221.377 212.97C220.809 213.09 207.358 215.804 200.61 208.853C197.404 205.547 195.3 201.521 194.682 197.525C194.021 193.25 195.101 189.488 197.74 186.935C200.379 184.383 204.167 183.415 208.42 184.208C212.405 184.953 216.357 187.183 219.561 190.489C226.299 197.443 223.165 210.801 223.026 211.366L222.716 212.687ZM202.953 188.691C202.134 188.975 201.386 189.433 200.761 190.034C199.162 191.582 198.525 194.005 198.965 196.856C199.448 199.979 201.138 203.17 203.725 205.838C207.746 209.987 215.848 209.404 219.097 208.955C219.636 205.723 220.484 197.642 216.462 193.493C213.876 190.825 210.74 189.035 207.633 188.458C205.892 188.127 204.295 188.217 202.953 188.691Z" fill="#008FFF"/>
<path d="M220.732 212.746L220.427 211.412C220.299 210.843 217.396 197.433 224.254 190.598C227.513 187.347 231.51 185.186 235.502 184.515C239.766 183.793 243.542 184.827 246.133 187.424C248.724 190.021 249.743 193.801 249.009 198.064C248.321 202.05 246.145 206.035 242.886 209.293C236.032 216.117 222.632 213.18 222.064 213.05L220.732 212.746ZM240.905 189.094C239.571 188.595 237.969 188.479 236.23 188.775C233.112 189.302 229.936 191.037 227.314 193.661C223.222 197.741 223.928 205.828 224.413 209.077C227.654 209.57 235.741 210.306 239.838 206.224C242.47 203.6 244.216 200.441 244.753 197.326C245.243 194.483 244.648 192.05 243.074 190.474C242.459 189.863 241.718 189.392 240.903 189.094H240.905Z" fill="#008FFF"/>
<g opacity="0.5">
<path opacity="0.5" d="M286.317 209.172H155.909V235.265H162.685V310.786H279.541V235.265H286.317V209.172Z" fill="url(#paint1_linear)"/>
</g>
<path d="M277.75 232H164.5V309.25H277.75V232Z" fill="#212121" fill-opacity="0.7"/>
<path d="M231.843 233.568H210.383V309.502H231.843V233.568Z" fill="#008FFF"/>
<path opacity="0.1" d="M278.062 212.108H164.164V235.219H278.062V212.108Z" fill="black"/>
<path d="M284.664 210.457H157.56V233.568H284.664V210.457Z" fill="#212121" fill-opacity="0.7"/>
<path d="M231.843 210.457H210.383V233.568H231.843V210.457Z" fill="#008FFF"/>
</g>
<defs>
<linearGradient id="paint0_linear" x1="221.875" y1="214.462" x2="221.875" y2="183.256" gradientUnits="userSpaceOnUse">
<stop stop-color="#808080" stop-opacity="0.25"/>
<stop offset="0.54" stop-color="#808080" stop-opacity="0.12"/>
<stop offset="1" stop-color="#808080" stop-opacity="0.1"/>
</linearGradient>
<linearGradient id="paint1_linear" x1="54932.3" y1="81968.9" x2="54932.3" y2="32747" gradientUnits="userSpaceOnUse">
<stop stop-color="#808080" stop-opacity="0.25"/>
<stop offset="0.54" stop-color="#808080" stop-opacity="0.12"/>
<stop offset="1" stop-color="#808080" stop-opacity="0.1"/>
</linearGradient>
<clipPath id="clip0">
<rect width="180" height="152" fill="white" transform="translate(133 159)"/>
</clipPath>
</defs>
</svg>
