<svg width="328" height="328" viewBox="0 0 328 328" fill="none" xmlns="http://www.w3.org/2000/svg">
<g clip-path="url(#clip0)">
<path d="M125.667 246.776C127.834 242.41 129.059 238.608 128.404 238.283C127.749 237.958 125.462 241.233 123.296 245.599C121.13 249.965 119.905 253.768 120.56 254.092C121.214 254.417 123.501 251.142 125.667 246.776Z" fill="#E0E0E0"/>
<path d="M235.552 301.349C237.718 296.984 239.114 293.265 238.669 293.045C238.224 292.824 236.107 296.184 233.941 300.55C231.775 304.916 230.379 308.634 230.824 308.855C231.269 309.075 233.386 305.715 235.552 301.349Z" fill="#E0E0E0"/>
<path d="M176.503 279.279L172.42 275.908L161.183 289.517L165.266 292.888L176.503 279.279Z" fill="#F55F44"/>
<path opacity="0.05" d="M167.115 293.974L172.914 295.337L176.953 278.157L171.154 276.793L167.115 293.974Z" fill="black"/>
<path d="M167.76 294.125L172.914 295.337L176.953 278.157L171.799 276.945L167.76 294.125Z" fill="#F55F44"/>
<path d="M128.6 237.887L120.364 254.488L230.637 309.202L238.874 292.602L128.6 237.887Z" fill="url(#paint0_linear)"/>
<path d="M230.834 308.807C228.675 307.772 118.979 253.308 120.56 254.093C126.648 244.8 128.404 238.283 128.404 238.283L238.678 292.997C238.678 292.997 234.805 299.794 230.834 308.807Z" fill="#F5F5F5"/>
<path opacity="0.05" d="M185.715 266.719L176.624 262.208L168.78 278.018L177.87 282.528L185.715 266.719Z" fill="black"/>
<path d="M185.319 266.522L177.019 262.404L169.175 278.214L177.475 282.332L185.319 266.522Z" fill="#F55F44"/>
<path opacity="0.05" d="M183.739 265.738L178.205 262.992L170.361 278.802L175.894 281.548L183.739 265.738Z" fill="black"/>
<path d="M183.343 265.542L178.6 263.189L170.756 278.998L175.499 281.352L183.343 265.542Z" fill="#F55F44"/>
<path d="M182.705 316.533C183.111 316.533 183.44 316.204 183.44 315.798C183.44 315.391 183.111 315.062 182.705 315.062C182.298 315.062 181.969 315.391 181.969 315.798C181.969 316.204 182.298 316.533 182.705 316.533Z" fill="#DBDBDB"/>
<g opacity="0.5">
<path opacity="0.5" d="M125.146 295.198H124.391V299.472H125.146V295.198Z" fill="#47E6B1"/>
<path opacity="0.5" d="M126.906 297.712V296.958H122.631V297.712H126.906Z" fill="#47E6B1"/>
</g>
<g opacity="0.5">
<path opacity="0.5" d="M315.24 241.891H314.486V246.165H315.24V241.891Z" fill="#47E6B1"/>
<path opacity="0.5" d="M317 244.405V243.651H312.725V244.405H317Z" fill="#47E6B1"/>
</g>
<g opacity="0.5">
<path opacity="0.5" d="M129.672 188.835H128.917V193.11H129.672V188.835Z" fill="#47E6B1"/>
<path opacity="0.5" d="M131.432 191.35V190.596H127.157V191.35H131.432Z" fill="#47E6B1"/>
</g>
<g opacity="0.5">
<path opacity="0.5" d="M292.61 182.298H291.855V186.572H292.61V182.298Z" fill="#47E6B1"/>
<path opacity="0.5" d="M294.37 184.812V184.058H290.095V184.812H294.37Z" fill="#47E6B1"/>
</g>
<path opacity="0.5" d="M120.09 237.731C119.882 237.64 119.715 237.477 119.62 237.271C119.525 237.065 119.509 236.831 119.575 236.614C119.586 236.581 119.593 236.547 119.596 236.512C119.602 236.412 119.575 236.314 119.521 236.23C119.467 236.147 119.387 236.083 119.293 236.049C119.2 236.015 119.098 236.011 119.002 236.039C118.907 236.067 118.823 236.125 118.763 236.205C118.742 236.233 118.725 236.264 118.712 236.296C118.621 236.504 118.457 236.671 118.252 236.766C118.046 236.861 117.812 236.877 117.595 236.811C117.562 236.8 117.528 236.793 117.493 236.79C117.393 236.784 117.295 236.811 117.211 236.865C117.128 236.919 117.064 236.999 117.03 237.093C116.995 237.186 116.992 237.288 117.02 237.384C117.048 237.479 117.106 237.563 117.186 237.623C117.214 237.643 117.244 237.661 117.277 237.674C117.484 237.765 117.652 237.929 117.747 238.134C117.842 238.34 117.858 238.574 117.791 238.791C117.781 238.824 117.774 238.858 117.771 238.893C117.765 238.993 117.791 239.091 117.846 239.175C117.9 239.258 117.98 239.322 118.073 239.356C118.167 239.391 118.269 239.394 118.364 239.366C118.46 239.338 118.544 239.28 118.604 239.2C118.624 239.172 118.642 239.142 118.655 239.109C118.746 238.902 118.909 238.734 119.115 238.639C119.321 238.544 119.555 238.528 119.772 238.595C119.805 238.605 119.839 238.612 119.874 238.615C119.974 238.621 120.072 238.595 120.156 238.54C120.239 238.486 120.303 238.406 120.337 238.313C120.371 238.219 120.375 238.117 120.347 238.022C120.319 237.926 120.261 237.842 120.181 237.782C120.153 237.762 120.122 237.744 120.09 237.731Z" fill="#4D8AF0"/>
<path opacity="0.5" d="M163.339 188.196C163.131 188.105 162.964 187.941 162.869 187.736C162.774 187.53 162.758 187.296 162.824 187.079C162.835 187.046 162.842 187.011 162.845 186.977C162.851 186.877 162.824 186.779 162.77 186.695C162.716 186.612 162.636 186.548 162.542 186.514C162.449 186.479 162.347 186.476 162.252 186.504C162.156 186.532 162.072 186.59 162.012 186.67C161.992 186.698 161.974 186.728 161.961 186.761C161.87 186.968 161.707 187.136 161.501 187.231C161.295 187.326 161.061 187.342 160.844 187.275C160.811 187.265 160.777 187.258 160.742 187.255C160.642 187.249 160.544 187.275 160.46 187.33C160.377 187.384 160.313 187.464 160.279 187.557C160.244 187.651 160.241 187.753 160.269 187.848C160.297 187.944 160.355 188.028 160.435 188.088C160.463 188.108 160.493 188.126 160.526 188.139C160.733 188.229 160.901 188.393 160.996 188.599C161.091 188.805 161.107 189.039 161.04 189.256C161.03 189.289 161.023 189.323 161.02 189.358C161.014 189.457 161.04 189.556 161.095 189.64C161.149 189.723 161.229 189.786 161.322 189.821C161.416 189.855 161.518 189.859 161.613 189.831C161.709 189.803 161.793 189.745 161.853 189.665C161.873 189.637 161.891 189.606 161.904 189.574C161.995 189.366 162.158 189.199 162.364 189.104C162.57 189.009 162.804 188.993 163.021 189.059C163.054 189.07 163.088 189.077 163.123 189.079C163.223 189.086 163.321 189.059 163.405 189.005C163.488 188.951 163.552 188.871 163.586 188.777C163.62 188.684 163.624 188.582 163.596 188.486C163.568 188.391 163.51 188.307 163.43 188.247C163.402 188.226 163.372 188.209 163.339 188.196Z" fill="#4D8AF0"/>
<path opacity="0.5" d="M216.143 316.685C215.935 316.595 215.768 316.431 215.673 316.225C215.578 316.019 215.562 315.786 215.628 315.569C215.639 315.536 215.646 315.501 215.649 315.466C215.655 315.367 215.628 315.268 215.574 315.185C215.52 315.102 215.44 315.038 215.346 315.003C215.253 314.969 215.151 314.966 215.055 314.994C214.96 315.022 214.876 315.08 214.816 315.159C214.795 315.187 214.778 315.218 214.765 315.25C214.674 315.458 214.51 315.625 214.305 315.72C214.099 315.815 213.865 315.831 213.648 315.765C213.615 315.754 213.58 315.748 213.546 315.745C213.446 315.739 213.348 315.765 213.264 315.819C213.181 315.874 213.117 315.954 213.083 316.047C213.048 316.14 213.045 316.242 213.073 316.338C213.101 316.434 213.159 316.517 213.239 316.577C213.267 316.598 213.297 316.615 213.33 316.629C213.537 316.719 213.705 316.883 213.8 317.089C213.895 317.295 213.911 317.528 213.844 317.745C213.834 317.779 213.827 317.813 213.824 317.848C213.818 317.947 213.844 318.046 213.899 318.129C213.953 318.213 214.033 318.276 214.126 318.311C214.22 318.345 214.322 318.349 214.417 318.321C214.513 318.292 214.597 318.234 214.657 318.155C214.677 318.127 214.695 318.096 214.708 318.064C214.799 317.856 214.962 317.689 215.168 317.594C215.374 317.499 215.608 317.483 215.825 317.549C215.858 317.56 215.892 317.567 215.927 317.569C216.027 317.575 216.125 317.549 216.209 317.495C216.292 317.44 216.356 317.36 216.39 317.267C216.424 317.174 216.428 317.072 216.4 316.976C216.372 316.881 216.314 316.797 216.234 316.737C216.206 316.716 216.175 316.699 216.143 316.685Z" fill="#4D8AF0"/>
<path opacity="0.5" d="M307.948 287.151C308.781 287.151 309.457 286.476 309.457 285.643C309.457 284.81 308.781 284.134 307.948 284.134C307.115 284.134 306.439 284.81 306.439 285.643C306.439 286.476 307.115 287.151 307.948 287.151Z" fill="#F55F44"/>
<path opacity="0.5" d="M274.757 296.706C275.59 296.706 276.265 296.031 276.265 295.198C276.265 294.365 275.59 293.689 274.757 293.689C273.924 293.689 273.248 294.365 273.248 295.198C273.248 296.031 273.924 296.706 274.757 296.706Z" fill="#4D8AF0"/>
<path opacity="0.5" d="M142.998 311.542C143.831 311.542 144.507 310.866 144.507 310.033C144.507 309.2 143.831 308.524 142.998 308.524C142.165 308.524 141.49 309.2 141.49 310.033C141.49 310.866 142.165 311.542 142.998 311.542Z" fill="#47E6B1"/>
<path opacity="0.5" d="M220.444 177.017C221.277 177.017 221.953 176.342 221.953 175.509C221.953 174.675 221.277 174 220.444 174C219.611 174 218.936 174.675 218.936 175.509C218.936 176.342 219.611 177.017 220.444 177.017Z" fill="#F55F44"/>
<path d="M168.52 263.893L162.485 272.945C162.485 272.945 164.497 282.248 209.003 281.997C253.509 281.745 257.03 272.945 257.03 272.945L248.732 260.875L223.336 243.525L168.52 263.893Z" fill="#008FFF"/>
<path opacity="0.15" d="M168.52 263.893L162.485 272.945C162.485 272.945 164.497 282.248 209.003 281.997C253.509 281.745 257.03 272.945 257.03 272.945L248.732 260.875L223.336 243.525L168.52 263.893Z" fill="black"/>
<path d="M296.884 230.324L217.678 265.275L121.122 230.324L209.632 190.093L253.08 210.125L254.636 210.845L296.884 230.324Z" fill="#008FFF"/>
<path opacity="0.15" d="M296.884 230.324L217.678 265.275L121.122 230.324L209.632 190.093L253.08 210.125L254.636 210.845L296.884 230.324Z" fill="black"/>
<path d="M256.275 238.703L254.767 238.793L253.079 210.125L254.636 210.845L256.275 238.703Z" fill="#F5F5F5"/>
<path d="M169.526 230.199L162.485 272.945C162.485 272.945 213.026 256.601 257.03 272.945L250.492 227.684C250.492 227.684 191.402 220.392 169.526 230.199Z" fill="#008FFF"/>
<path d="M256.15 247.423C260.177 247.423 263.442 245.171 263.442 242.394C263.442 239.616 260.177 237.365 256.15 237.365C252.122 237.365 248.858 239.616 248.858 242.394C248.858 245.171 252.122 247.423 256.15 247.423Z" fill="#F5F5F5"/>
</g>
<defs>
<linearGradient id="paint0_linear" x1="175.5" y1="281.845" x2="183.737" y2="265.245" gradientUnits="userSpaceOnUse">
<stop stop-color="#808080" stop-opacity="0.25"/>
<stop offset="0.53514" stop-color="#808080" stop-opacity="0.12"/>
<stop offset="1" stop-color="#808080" stop-opacity="0.1"/>
</linearGradient>
<clipPath id="clip0">
<rect width="200" height="144.34" fill="white" transform="translate(117 174)"/>
</clipPath>
</defs>
</svg>
