<svg width="18" height="18" viewBox="0 0 18 18" fill="none" xmlns="http://www.w3.org/2000/svg">
<path d="M14.2521 12.748C13.0145 12.748 12.0077 13.7549 12.0077 14.9924C12.0077 16.23 13.0145 17.2368 14.2521 17.2368C15.4896 17.2368 16.4965 16.23 16.4965 14.9924C16.4965 13.7549 15.4896 12.748 14.2521 12.748ZM14.2521 15.8902C13.757 15.8902 13.3543 15.4875 13.3543 14.9924C13.3543 14.4973 13.757 14.0947 14.2521 14.0947C14.7472 14.0947 15.1498 14.4973 15.1498 14.9924C15.1498 15.4875 14.7472 15.8902 14.2521 15.8902Z" fill="black"/>
<path d="M17.8569 4.07387C17.7294 3.91071 17.5339 3.81554 17.3268 3.81554H4.1562L3.5502 1.28005C3.47771 0.977076 3.2068 0.763184 2.89527 0.763184H0.673317C0.301431 0.763148 0 1.06458 0 1.43646C0 1.80835 0.301431 2.10978 0.673317 2.10978H2.36381L4.55209 11.266C4.62459 11.5693 4.8955 11.7829 5.20702 11.7829H15.6884C15.9979 11.7829 16.2677 11.5719 16.342 11.2716L17.9804 4.65064C18.03 4.44958 17.9844 4.23703 17.8569 4.07387ZM15.1616 10.4363H5.73848L4.47802 5.16217H16.4665L15.1616 10.4363Z" fill="black"/>
<path d="M6.10437 12.748C4.8668 12.748 3.85999 13.7549 3.85999 14.9924C3.85999 16.23 4.86683 17.2368 6.10437 17.2368C7.34192 17.2368 8.34876 16.23 8.34876 14.9924C8.34876 13.7549 7.34192 12.748 6.10437 12.748ZM6.10437 15.8902C5.60926 15.8902 5.20662 15.4875 5.20662 14.9924C5.20662 14.4973 5.60926 14.0947 6.10437 14.0947C6.59948 14.0947 7.00213 14.4973 7.00213 14.9924C7.00213 15.4875 6.59948 15.8902 6.10437 15.8902Z" fill="black"/>
</svg>
