<svg width="18" height="18" viewBox="0 0 18 18" fill="none" xmlns="http://www.w3.org/2000/svg">
<g clip-path="url(#clip0)">
<path d="M15.2237 0H4.19144C3.23091 0 2.4495 0.78144 2.4495 1.74194V3.30333C1.66585 3.32271 1.03418 3.96577 1.03418 4.75403V5.2621C1.03418 6.05036 1.66585 6.69339 2.4495 6.7128V11.2872C1.66585 11.3066 1.03418 11.9497 1.03418 12.7379V13.246C1.03418 14.0343 1.66585 14.6773 2.4495 14.6967V16.2581C2.4495 17.2186 3.23091 18 4.19144 18H15.2237C16.1842 18 16.9656 17.2186 16.9656 16.2581V1.74194C16.9656 0.78144 16.1842 0 15.2237 0V0ZM2.19547 5.2621V4.75403C2.19547 4.59396 2.32572 4.46371 2.48579 4.46371H3.5745C3.73458 4.46371 3.86482 4.59396 3.86482 4.75403V5.2621C3.86482 5.42217 3.73458 5.55242 3.5745 5.55242H2.48579C2.32572 5.55242 2.19547 5.42217 2.19547 5.2621ZM2.19547 13.246V12.7379C2.19547 12.5778 2.32572 12.4476 2.48579 12.4476H3.5745C3.73458 12.4476 3.86482 12.5778 3.86482 12.7379V13.246C3.86482 13.406 3.73458 13.5363 3.5745 13.5363H2.48579C2.32572 13.5363 2.19547 13.406 2.19547 13.246ZM15.8043 16.2581C15.8043 16.5782 15.5438 16.8387 15.2237 16.8387H4.19144C3.87128 16.8387 3.61079 16.5782 3.61079 16.2581V14.6967C4.39445 14.6773 5.02611 14.0342 5.02611 13.246V12.7379C5.02611 11.9496 4.39445 11.3066 3.61079 11.2872V6.7128C4.39445 6.69342 5.02611 6.05036 5.02611 5.2621V4.75403C5.02611 3.96577 4.39445 3.32274 3.61079 3.30333V1.74194C3.61079 1.42178 3.87128 1.16129 4.19144 1.16129H15.2237C15.5438 1.16129 15.8043 1.42178 15.8043 1.74194V16.2581ZM10.2795 9.17354C11.6861 9.17354 12.8305 8.0292 12.8305 6.62258C12.8305 5.21597 11.6861 4.07163 10.2795 4.07163C8.87289 4.07163 7.72855 5.21601 7.72855 6.62258C7.72855 8.02916 8.87289 9.17354 10.2795 9.17354ZM10.2795 5.23292C11.0458 5.23292 11.6692 5.85631 11.6692 6.62258C11.6692 7.38885 11.0458 8.01225 10.2795 8.01225C9.51323 8.01225 8.88984 7.38885 8.88984 6.62258C8.88984 5.85631 9.51323 5.23292 10.2795 5.23292ZM14.2257 11.8429V12.9848C14.2257 13.3055 13.9658 13.5655 13.6451 13.5655C13.3244 13.5655 13.0644 13.3055 13.0644 12.9848V11.8429C13.0644 11.6796 12.9681 11.5312 12.8191 11.4646L11.6112 10.9253H8.92896L7.72107 11.4646C7.57203 11.5311 7.47571 11.6796 7.47571 11.8429V12.9848C7.47571 13.3055 7.21576 13.5655 6.89507 13.5655C6.57437 13.5655 6.31442 13.3055 6.31442 12.9848V11.8429C6.31442 11.2221 6.68074 10.6573 7.24759 10.4042C8.68175 9.76388 8.63998 9.76398 8.80521 9.76398C11.9783 9.76398 11.8138 9.74395 11.9717 9.81443L13.2925 10.4042C13.8594 10.6573 14.2257 11.2221 14.2257 11.8429Z" fill="black"/>
</g>
<defs>
<clipPath id="clip0">
<rect width="18" height="18" fill="white"/>
</clipPath>
</defs>
</svg>
