<svg width="18" height="18" viewBox="0 0 18 18" fill="none" xmlns="http://www.w3.org/2000/svg">
<path fill-rule="evenodd" clip-rule="evenodd" d="M13.04 13.4187C13.56 12.994 14.24 12.7229 15 12.7229C16.61 12.7229 17.92 13.9066 17.92 15.3614C17.92 16.8163 16.61 18 15 18C13.39 18 12.08 16.8163 12.08 15.3614C12.08 15.1627 12.11 14.9639 12.16 14.7741L5.04 11.0151C4.5 11.4669 3.79 11.747 3 11.747C1.34 11.747 0 10.5361 0 9.03614C0 7.53614 1.34 6.3253 3 6.3253C3.79 6.3253 4.5 6.60542 5.04 7.05723L12.09 3.34337C12.04 3.13554 12 2.92771 12 2.71084C12 1.21084 13.34 0 15 0C16.66 0 18 1.21084 18 2.71084C18 4.21084 16.66 5.42169 15 5.42169C14.21 5.42169 13.5 5.14157 12.96 4.68976L5.91 8.40361C5.96 8.61145 6 8.81928 6 9.03614C6 9.25301 5.96 9.46084 5.91 9.66867L13.04 13.4187ZM16 2.71084C16 2.21386 15.55 1.80723 15 1.80723C14.45 1.80723 14 2.21386 14 2.71084C14 3.20783 14.45 3.61446 15 3.61446C15.55 3.61446 16 3.20783 16 2.71084ZM3 9.93976C2.45 9.93976 2 9.53313 2 9.03614C2 8.53916 2.45 8.13253 3 8.13253C3.55 8.13253 4 8.53916 4 9.03614C4 9.53313 3.55 9.93976 3 9.93976ZM14 15.3795C14 15.8765 14.45 16.2831 15 16.2831C15.55 16.2831 16 15.8765 16 15.3795C16 14.8825 15.55 14.4759 15 14.4759C14.45 14.4759 14 14.8825 14 15.3795Z" fill="#1A303E"/>
</svg>
