<svg width="18" height="18" viewBox="0 0 18 18" fill="none" xmlns="http://www.w3.org/2000/svg">
<path d="M16.5773 3.76282L12.8999 0.151062C12.8013 0.054245 12.6686 0 12.5303 0H3.23328C2.14838 0 1.26562 0.882614 1.26562 1.96765V16.0323C1.26562 17.1172 2.14824 18 3.23328 18H14.7674C15.8523 18 16.7351 17.1174 16.7351 16.0323V4.1391C16.7351 3.99751 16.6782 3.86197 16.5773 3.76282ZM13.0577 1.78445L14.9182 3.61176H13.2253C13.1329 3.61176 13.0577 3.5365 13.0577 3.44408V1.78445ZM14.7674 16.9453H3.23328C2.72997 16.9453 2.32031 16.5358 2.32031 16.0323V1.96765C2.32031 1.4642 2.72983 1.05469 3.23328 1.05469H12.0031V3.44408C12.0031 4.11809 12.5515 4.66644 13.2255 4.66644H15.6804V16.0323C15.6804 16.5358 15.2709 16.9453 14.7674 16.9453Z" fill="black"/>
<path d="M12.6613 8.36719H5.22742C4.93614 8.36719 4.70007 8.60326 4.70007 8.89453C4.70007 9.18581 4.93614 9.42188 5.22742 9.42188H12.6613C12.9526 9.42188 13.1887 9.18581 13.1887 8.89453C13.1887 8.60326 12.9526 8.36719 12.6613 8.36719Z" fill="black"/>
<path d="M5.22742 11.5312H11.2888C11.5801 11.5312 11.8162 11.2952 11.8162 11.0039C11.8162 10.7126 11.5801 10.4766 11.2888 10.4766H5.22742C4.93614 10.4766 4.70007 10.7126 4.70007 11.0039C4.70007 11.2952 4.93614 11.5312 5.22742 11.5312Z" fill="black"/>
<path d="M12.0201 12.5859H5.22742C4.93614 12.5859 4.70007 12.822 4.70007 13.1133C4.70007 13.4046 4.93614 13.6406 5.22742 13.6406H12.0201C12.3113 13.6406 12.5475 13.4046 12.5475 13.1133C12.5475 12.822 12.3113 12.5859 12.0201 12.5859Z" fill="black"/>
</svg>
