<svg width="24" height="24" viewBox="0 0 24 24" fill="none" xmlns="http://www.w3.org/2000/svg">
<path d="M21.6 0.80011H2.4C1.0992 0.80011 0 1.89931 0 3.20011V16.4001C0 17.7009 1.0992 18.8001 2.4 18.8001H5.6V22.8001C5.6 22.9653 5.7016 23.1137 5.856 23.1733C5.9028 23.1913 5.9516 23.2001 6 23.2001C6.1104 23.2001 6.2188 23.1541 6.296 23.0693L10.1768 18.8001H21.6C22.9008 18.8001 24 17.7009 24 16.4001V3.20011C24 1.89931 22.9008 0.80011 21.6 0.80011ZM23.2 16.4001C23.2 17.2673 22.4672 18.0001 21.6 18.0001H10.8716L12.3032 16.3357C12.4472 16.1685 12.4284 15.9157 12.2612 15.7717C12.0936 15.6285 11.8412 15.6469 11.6972 15.8141L9.7044 18.1309L6.4 21.7657V18.4001C6.4 18.1793 6.2212 18.0001 6 18.0001H2.4C1.5328 18.0001 0.8 17.2673 0.8 16.4001V3.20011C0.8 2.33291 1.5328 1.60011 2.4 1.60011H21.6C22.4672 1.60011 23.2 2.33291 23.2 3.20011V16.4001Z" fill="#008FFF"/>
</svg>
