<svg width="24" height="24" viewBox="0 0 24 24" fill="none" xmlns="http://www.w3.org/2000/svg">
<path d="M24 6C23.9962 2.68785 21.3121 0.00375301 18 3.00927e-06H2C1.792 -0.000796991 1.6181 0.158003 1.6 0.365203L0 18.7652V18.8V23.6C0 23.8209 0.1791 24 0.399999 24H19.6C19.8209 24 20 23.8209 20 23.6V18.8C20 18.7936 20 18.7708 20 18.7652L19.4 11.8304C22.0999 11.1889 24.0043 8.77505 24 6ZM19.2 23.2H0.799999V19.2H19.2V23.2ZM18.8984 11.1224C18.6018 11.1747 18.3011 11.2007 18 11.2C15.8529 11.209 13.9237 9.88995 13.1528 7.886C13.0774 7.67835 12.8479 7.57115 12.6403 7.64655C12.4326 7.72195 12.3254 7.9514 12.4008 8.15905C12.4029 8.16485 12.4052 8.17065 12.4076 8.17635C13.2968 10.4886 15.5227 12.0105 18 12C18.1936 12 18.382 11.9896 18.5692 11.9716H18.606L19.164 18.4H0.836399L2.3668 0.800003H15.0068C14.8868 0.868803 14.772 0.942003 14.6584 1.0184C14.6404 1.0304 14.6236 1.0436 14.6056 1.056C14.4805 1.1424 14.3589 1.23345 14.2408 1.3292C14.2076 1.3556 14.1744 1.3824 14.142 1.4092C14.0124 1.5184 13.886 1.6316 13.766 1.7512C13.7532 1.7636 13.7416 1.7772 13.7292 1.7912C13.6204 1.9012 13.5168 2.0164 13.4168 2.1348C13.3892 2.1672 13.362 2.1996 13.3368 2.2328C13.2296 2.3648 13.1268 2.5 13.0312 2.6412C13.0228 2.6532 13.0156 2.6664 13.0072 2.6784C12.9196 2.81 12.8384 2.9456 12.7612 3.0836C12.74 3.1216 12.7188 3.1592 12.6984 3.1976C12.6184 3.3492 12.542 3.5032 12.4744 3.662C12.4704 3.6716 12.4672 3.682 12.4628 3.692C12.4 3.8424 12.3428 3.9968 12.2936 4.1532C12.28 4.1952 12.2668 4.2376 12.2536 4.28C12.2032 4.4476 12.1576 4.6168 12.122 4.79C12.122 4.7956 12.122 4.8016 12.1192 4.8076C12.0852 4.9752 12.0604 5.1464 12.0392 5.3192C12.034 5.3644 12.0292 5.4096 12.0252 5.4552V5.462L10.9852 4.422C10.8317 4.2631 10.5785 4.2587 10.4196 4.41215C10.2607 4.5656 10.2563 4.81885 10.4097 4.97775C10.4129 4.9811 10.4162 4.98435 10.4196 4.9876L12.1168 6.6844C12.273 6.84055 12.5262 6.84055 12.6824 6.6844L14.3796 4.9876C14.5385 4.8341 14.5429 4.5809 14.3894 4.422C14.2359 4.2631 13.9827 4.2587 13.8238 4.4122C13.8204 4.4154 13.8172 4.4187 13.814 4.422L12.84 5.3964C13.1732 2.5439 15.7557 0.501653 18.6082 0.834853C21.4607 1.16805 23.5029 3.7506 23.1697 6.60305C22.9027 8.8887 21.1653 10.727 18.8984 11.1224Z" fill="#008FFF"/>
</svg>
