<svg width="24" height="24" viewBox="0 0 24 24" fill="none" xmlns="http://www.w3.org/2000/svg">
<path d="M3.01261 23.4596H20.9872C22.6504 23.4577 23.9981 22.11 24 20.447V9.59152C23.9981 7.92829 22.6504 6.58058 20.9874 6.57867H20.8284V6.47874C20.8265 4.81551 19.4788 3.46779 17.8158 3.46589H12.9625C12.9006 3.46589 12.8416 3.43995 12.8 3.39427L11.0389 1.46763C10.4676 0.843745 9.66077 0.488019 8.81488 0.487305H3.01261C1.34962 0.489208 0.00190355 1.83692 0 3.50015V20.447C0.00190355 22.11 1.34962 23.4577 3.01261 23.4596ZM20.9872 7.43147C22.1795 7.43289 23.1458 8.39919 23.1472 9.59152V20.447C23.1458 21.6391 22.1797 22.6054 20.9874 22.6068H5.38301C5.96812 22.0405 6.29791 21.261 6.29767 20.447V9.59152C6.29886 8.39919 7.26515 7.43289 8.45749 7.43147H20.9872ZM0.852792 3.50015C0.85422 2.30782 1.82027 1.34152 3.01261 1.3401H8.81488C9.42116 1.34081 9.9996 1.59565 10.4091 2.04275L12.1701 3.96962C12.3736 4.19186 12.6608 4.31844 12.962 4.31868H17.8156C19.0079 4.32011 19.974 5.2864 19.9754 6.47874V6.57867H8.45749C6.79426 6.58058 5.44654 7.92829 5.44488 9.59152V20.447C5.44345 21.6391 4.47716 22.6054 3.28482 22.6068H3.01261C1.82027 22.6054 0.85422 21.6391 0.852792 20.447V3.50015Z" fill="#008FFF"/>
</svg>
