<svg width="24" height="24" viewBox="0 0 24 24" fill="none" xmlns="http://www.w3.org/2000/svg">
<path d="M12.0052 24.0003C5.54798 24.0305 0.233351 18.9276 0 12.4735V11.8732L6.60287 11.609V12.2094C6.7302 15.1907 9.24994 17.5044 12.2308 17.3771C13.1518 17.3377 14.0474 17.0633 14.8324 16.5799L15.3427 16.2678L18.8182 21.8751L18.3079 22.1932C16.4154 23.3688 14.2331 23.9945 12.0052 24.0003ZM1.26055 13.0258C1.81436 18.9516 7.06634 23.3065 12.9911 22.7526C14.456 22.6156 15.8773 22.1801 17.1675 21.4728L14.9525 17.8707C14.0409 18.3415 13.0311 18.5903 12.0052 18.5971C8.69387 18.5956 5.89583 16.1411 5.46237 12.8577L1.26055 13.0258Z" fill="#008FFF"/>
<path d="M0.0480208 13.0741L0 12.3117C0 12.2036 0 12.1016 0 11.9935C0.00750326 5.36214 5.38846 -0.00749656 12.0187 7.85636e-06C15.6856 0.00413529 19.1494 1.68407 21.4233 4.56112L21.7955 5.02939L16.6152 9.1178L16.2431 8.64952C14.3926 6.30867 10.9952 5.91131 8.65471 7.76205C7.36069 8.78528 6.60504 10.3437 6.60287 11.9935C6.59986 12.0294 6.59986 12.0656 6.60287 12.1016V12.81L0.0480208 13.0741ZM12.0052 1.18713C6.103 1.18638 1.29236 5.92294 1.20052 11.8254L5.40235 11.6573C5.58002 8.01443 8.67677 5.2053 12.3191 5.383C14.0269 5.4663 15.6359 6.20901 16.8073 7.45482L20.1147 4.84929C18.0667 2.51519 15.1101 1.18 12.0052 1.18713Z" fill="#008FFF"/>
<path d="M17.8095 22.5117L14.334 16.8984L14.8442 16.5802C17.3795 15.0069 18.1594 11.6759 16.5863 9.14026C16.481 8.97043 16.3663 8.80661 16.2428 8.64954L15.8707 8.17526L21.0509 4.08685L21.4231 4.56113C25.5275 9.76905 24.6336 17.3188 19.4264 21.4239C19.0724 21.703 18.7029 21.9619 18.3197 22.1995L17.8095 22.5117ZM15.9727 17.2646L18.1877 20.8667C23.0769 17.4452 24.2671 10.7073 20.846 5.8173C20.8443 5.81482 20.8425 5.81235 20.8408 5.80987L17.5334 8.39139C19.4243 11.3 18.7426 15.1761 15.9727 17.2646Z" fill="#008FFF"/>
</svg>
