<svg width="24" height="24" viewBox="0 0 24 24" fill="none" xmlns="http://www.w3.org/2000/svg">
<path d="M3.42871 6C4.93685 6 6.18528 4.87971 6.39443 3.42857H23.143C23.38 3.42857 23.5716 3.237 23.5716 3C23.5716 2.763 23.38 2.57143 23.143 2.57143H6.39443C6.18528 1.12029 4.93685 0 3.42871 0C1.77443 0 0.428711 1.34614 0.428711 3C0.428711 4.65386 1.77443 6 3.42871 6ZM3.42871 0.857143C4.61028 0.857143 5.57157 1.81843 5.57157 3C5.57157 4.18157 4.61028 5.14286 3.42871 5.14286C2.24714 5.14286 1.28585 4.18157 1.28585 3C1.28585 1.81843 2.24714 0.857143 3.42871 0.857143Z" fill="#008FFF"/>
<path d="M20.5716 18C19.0634 18 17.815 19.1203 17.6059 20.5714H0.857282C0.620711 20.5714 0.428711 20.763 0.428711 21C0.428711 21.237 0.620711 21.4286 0.857282 21.4286H17.6059C17.815 22.8797 19.0634 24 20.5716 24C22.2254 24 23.5716 22.6539 23.5716 21C23.5716 19.3461 22.2254 18 20.5716 18ZM20.5716 23.1429C19.39 23.1429 18.4287 22.1816 18.4287 21C18.4287 19.8184 19.39 18.8571 20.5716 18.8571C21.7531 18.8571 22.7144 19.8184 22.7144 21C22.7144 22.1816 21.7531 23.1429 20.5716 23.1429Z" fill="#008FFF"/>
<path d="M23.143 11.5714H15.1579C14.9881 10.0277 13.6771 8.82251 12.0889 8.82251C10.5006 8.82251 9.18957 10.0281 9.01985 11.5714H0.857282C0.620711 11.5714 0.428711 11.7629 0.428711 11.9999C0.428711 12.2369 0.620711 12.4285 0.857282 12.4285H9.04685C9.29414 13.8857 10.5623 14.9999 12.0889 14.9999C13.6154 14.9999 14.8831 13.8857 15.1304 12.4285H23.143C23.38 12.4285 23.5716 12.2369 23.5716 11.9999C23.5716 11.7629 23.38 11.5714 23.143 11.5714ZM12.0889 14.1428C10.8584 14.1428 9.85728 13.1417 9.85728 11.9112C9.85728 10.6808 10.8584 9.67965 12.0889 9.67965C13.3193 9.67965 14.3204 10.6808 14.3204 11.9112C14.3204 13.1417 13.3193 14.1428 12.0889 14.1428Z" fill="#008FFF"/>
</svg>
