<svg width="24" height="24" viewBox="0 0 24 24" fill="none" xmlns="http://www.w3.org/2000/svg">
<path d="M22.7586 0H1.24138C0.555832 0 0 0.555832 0 1.24138V22.7586C0 23.4442 0.555832 24 1.24138 24H22.7586C23.4442 24 24 23.4442 24 22.7586V1.24138C24 0.555832 23.4442 0 22.7586 0ZM23.1724 1.24138V11.5862H19.3325C19.1757 11.5862 19.0325 11.6747 18.9624 11.8149C18.8922 11.9551 18.9074 12.1228 19.0013 12.2483C19.2984 12.6567 19.4551 13.1503 19.4483 13.6552C19.4483 14.7959 18.706 15.7241 17.7931 15.7241C16.8803 15.7241 16.1379 14.7959 16.1379 13.6552C16.1309 13.1503 16.2872 12.6569 16.5841 12.2483C16.678 12.1228 16.6932 11.9551 16.623 11.8149C16.5529 11.6747 16.4097 11.5862 16.2529 11.5862H12.4138V8.45084C12.8084 8.60964 13.2299 8.69067 13.6552 8.68966C15.2524 8.68966 16.5517 7.57617 16.5517 6.2069C16.5517 4.83762 15.2524 3.72414 13.6552 3.72414C13.2299 3.72313 12.8084 3.80415 12.4138 3.96296V0.827586H22.7586C22.9871 0.827586 23.1724 1.01286 23.1724 1.24138ZM0.827586 1.24138C0.827586 1.01286 1.01286 0.827586 1.24138 0.827586H11.5862V4.6675C11.5862 4.82429 11.6747 4.96754 11.8149 5.03765C11.9551 5.10776 12.1228 5.09261 12.2483 4.99865C12.6569 4.70185 13.1503 4.54526 13.6552 4.55172C14.7959 4.55172 15.7241 5.29405 15.7241 6.2069C15.7241 7.11975 14.7959 7.86207 13.6552 7.86207C13.1505 7.86894 12.6569 7.71235 12.2483 7.41595C12.1228 7.322 11.9551 7.30684 11.8149 7.37695C11.6747 7.44706 11.5862 7.59032 11.5862 7.7471V11.5862H8.45084C8.60964 11.1916 8.69067 10.7701 8.68966 10.3448C8.68966 8.74805 7.57617 7.44828 6.2069 7.44828C4.83762 7.44828 3.72414 8.74805 3.72414 10.3448C3.72313 10.7701 3.80415 11.1916 3.96296 11.5862H0.827586V1.24138ZM0.827586 22.7586V12.4138H4.6675C4.82429 12.4138 4.96754 12.3253 5.03765 12.1851C5.10776 12.0449 5.09261 11.8772 4.99865 11.7517C4.70164 11.3433 4.54485 10.8497 4.55172 10.3448C4.55172 9.20407 5.29405 8.27586 6.2069 8.27586C7.11975 8.27586 7.86207 9.20407 7.86207 10.3448C7.86914 10.8497 7.71276 11.3431 7.41595 11.7517C7.322 11.8772 7.30684 12.0449 7.37695 12.1851C7.44706 12.3253 7.59032 12.4138 7.7471 12.4138H11.5862V15.5492C11.1916 15.3904 10.7701 15.3093 10.3448 15.3103C8.74764 15.3103 7.44828 16.4238 7.44828 17.7931C7.44828 19.1624 8.74764 20.2759 10.3448 20.2759C10.7701 20.2769 11.1916 20.1959 11.5862 20.037V23.1724H1.24138C1.01286 23.1724 0.827586 22.9871 0.827586 22.7586ZM23.1724 22.7586C23.1724 22.9871 22.9871 23.1724 22.7586 23.1724H12.4138V19.3325C12.4138 19.1757 12.3253 19.0325 12.1851 18.9624C12.0449 18.8922 11.8772 18.9074 11.7517 19.0013C11.3431 19.2982 10.8497 19.4547 10.3448 19.4483C9.20407 19.4483 8.27586 18.706 8.27586 17.7931C8.27586 16.8803 9.20407 16.1379 10.3448 16.1379C10.8495 16.1311 11.3431 16.2876 11.7517 16.5841C11.8772 16.678 12.0449 16.6932 12.1851 16.623C12.3253 16.5529 12.4138 16.4097 12.4138 16.2529V12.4138H15.5492C15.3904 12.8084 15.3093 13.2299 15.3103 13.6552C15.3103 15.252 16.4238 16.5517 17.7931 16.5517C19.1624 16.5517 20.2759 15.252 20.2759 13.6552C20.2769 13.2299 20.1959 12.8084 20.037 12.4138H23.1724V22.7586Z" fill="#008FFF"/>
</svg>
