<svg width="18" height="18" viewBox="0 0 18 18" fill="none" xmlns="http://www.w3.org/2000/svg">
<path d="M13.2051 15.4286H0.643694C0.465944 15.4286 0.322266 15.5726 0.322266 15.75C0.322266 15.9274 0.465944 16.0714 0.643694 16.0714H13.2051C13.362 17.1601 14.2983 18 15.4294 18C16.6698 18 17.6794 16.9907 17.6794 15.75C17.6794 14.5093 16.6698 13.5 15.4294 13.5C14.2983 13.5 13.362 14.3399 13.2051 15.4286ZM17.0365 15.75C17.0365 16.6362 16.3156 17.3571 15.4294 17.3571C14.5432 17.3571 13.8223 16.6362 13.8223 15.75C13.8223 14.8638 14.5432 14.1429 15.4294 14.1429C16.3156 14.1429 17.0365 14.8638 17.0365 15.75Z" fill="#008FFF"/>
<path d="M6.6528 8.67856H0.643694C0.465944 8.67856 0.322266 8.82256 0.322266 8.99998C0.322266 9.17741 0.465944 9.32141 0.643694 9.32141H6.63255C6.75984 10.4792 7.74341 11.3831 8.9343 11.3831C10.1252 11.3831 11.1088 10.4792 11.236 9.32141H17.358C17.5357 9.32141 17.6794 9.17741 17.6794 8.99998C17.6794 8.82256 17.5357 8.67856 17.358 8.67856H11.2158C11.0303 7.5857 10.0792 6.74998 8.9343 6.74998C7.78937 6.74998 6.83826 7.5857 6.6528 8.67856ZM10.608 9.06652C10.608 9.98934 9.85712 10.7402 8.9343 10.7402C8.01148 10.7402 7.26062 9.98966 7.26062 9.06652C7.26062 8.14338 8.01148 7.39284 8.9343 7.39284C9.85712 7.39284 10.608 8.1437 10.608 9.06652Z" fill="#008FFF"/>
<path d="M2.57227 0C1.33187 0 0.322266 1.00929 0.322266 2.25C0.322266 3.49071 1.33187 4.5 2.57227 4.5C3.70337 4.5 4.63969 3.66011 4.79655 2.57143L17.358 2.57143C17.5357 2.57143 17.6794 2.42743 17.6794 2.25C17.6794 2.07257 17.5357 1.92857 17.358 1.92857L4.79655 1.92857C4.63969 0.839893 3.70337 0 2.57227 0ZM4.17941 2.25C4.17941 3.13618 3.45844 3.85714 2.57227 3.85714C1.68609 3.85714 0.965123 3.13618 0.965123 2.25C0.965123 1.36382 1.68609 0.642857 2.57227 0.642857C3.45844 0.642857 4.17941 1.36382 4.17941 2.25Z" fill="#008FFF"/>
</svg>
