<svg width="24" height="24" viewBox="0 0 24 24" fill="none" xmlns="http://www.w3.org/2000/svg">
<path d="M5.99984 7.66667H10.9998C11.1842 7.66667 11.3332 7.51733 11.3332 7.33333C11.3332 7.14933 11.1842 7 10.9998 7H5.99984C5.8155 7 5.6665 7.14933 5.6665 7.33333C5.6665 7.51733 5.8155 7.66667 5.99984 7.66667Z" fill="black"/>
<path d="M17.3332 9.66699H5.99984C5.8155 9.66699 5.6665 9.81633 5.6665 10.0003C5.6665 10.1843 5.8155 10.3337 5.99984 10.3337H17.3332C17.5175 10.3337 17.6665 10.1843 17.6665 10.0003C17.6665 9.81633 17.5175 9.66699 17.3332 9.66699Z" fill="black"/>
<path d="M17.3332 12.334H5.99984C5.8155 12.334 5.6665 12.4833 5.6665 12.6673C5.6665 12.8513 5.8155 13.0007 5.99984 13.0007H17.3332C17.5175 13.0007 17.6665 12.8513 17.6665 12.6673C17.6665 12.4833 17.5175 12.334 17.3332 12.334Z" fill="black"/>
<path d="M20 2.66699H4C2.916 2.66699 2 3.58299 2 4.66699V15.667C2 16.751 2.916 17.667 4 17.667H6.66667V21.0003C6.66667 21.138 6.75133 21.2617 6.88 21.3113C6.919 21.3263 6.95967 21.3337 7 21.3337C7.092 21.3337 7.18233 21.2953 7.24667 21.2247L10.4807 17.667H20C21.084 17.667 22 16.751 22 15.667V4.66699C22 3.58299 21.084 2.66699 20 2.66699ZM21.3333 15.667C21.3333 16.3897 20.7227 17.0003 20 17.0003H11.0597L12.2527 15.6133C12.3727 15.474 12.357 15.2633 12.2177 15.1433C12.078 15.024 11.8677 15.0393 11.7477 15.1787L10.087 17.1093L7.33333 20.1383V17.3337C7.33333 17.1497 7.18433 17.0003 7 17.0003H4C3.27733 17.0003 2.66667 16.3897 2.66667 15.667V4.66699C2.66667 3.94433 3.27733 3.33366 4 3.33366H20C20.7227 3.33366 21.3333 3.94433 21.3333 4.66699V15.667Z" fill="black"/>
</svg>
