<svg width="120" height="60" viewBox="0 0 120 60" fill="none" xmlns="http://www.w3.org/2000/svg">
<rect x="1" y="1" width="118" height="58" rx="4" fill="#F5F7F7" stroke="#008FFF" stroke-width="2"/>
<line x1="58" y1="14" x2="83" y2="14" stroke="black" stroke-width="2"/>
<line x1="86" y1="14" x2="91" y2="14" stroke="black" stroke-width="2"/>
<line x1="58" y1="24" x2="99" y2="24" stroke="black" stroke-width="2"/>
<line x1="58" y1="34" x2="99" y2="34" stroke="black" stroke-width="2"/>
<line x1="58" y1="44" x2="99" y2="44" stroke="black" stroke-width="2" stroke-dasharray="3 3"/>
<g clip-path="url(#clip0)">
<path d="M23.8102 35.643C25.2929 37.7334 26.7731 39.6031 27.7541 40.8072C27.8969 40.9825 28.0307 41.145 28.1603 41.3016H25.1999C24.8685 41.3016 24.5999 41.5702 24.5999 41.9016C24.5999 42.233 24.8685 42.5016 25.1999 42.5016H34.7999C35.1312 42.5016 35.3998 42.233 35.3998 41.9016C35.3998 41.5702 35.1312 41.3016 34.7999 41.3016H31.8395C31.9691 41.145 32.1029 40.9824 32.2463 40.8072C33.2267 39.6072 34.7063 37.7334 36.1895 35.643C37.6611 33.6106 38.9856 31.4758 40.1531 29.2548C41.3783 26.8488 42 24.8514 42 23.3178C42.004 20.1312 40.7395 17.074 38.4857 14.8212C38.3352 14.6651 38.1121 14.6024 37.9023 14.6571C37.6925 14.7119 37.5286 14.8756 37.4735 15.0853C37.4184 15.2951 37.4808 15.5182 37.6367 15.6689C39.6654 17.697 40.8035 20.4491 40.7999 23.3178C40.7999 24.6606 40.2227 26.475 39.0839 28.71C37.9428 30.8795 36.6483 32.9648 35.2103 34.95C33.7476 37.0134 32.2853 38.862 31.3163 40.05C30.9942 40.4448 30.7043 40.794 30.4571 41.0893C30.3417 41.221 30.1751 41.2965 30 41.2965C29.8248 41.2965 29.6582 41.221 29.5428 41.0893C29.2956 40.7941 29.0058 40.4448 28.6836 40.05C27.7146 38.8627 26.2523 37.014 24.7896 34.95C23.3516 32.9648 22.0571 30.8795 20.916 28.71C19.776 26.475 19.2 24.6606 19.2 23.3178C19.1996 18.9718 21.7987 15.0471 25.8 13.3511C28.4886 12.2237 31.5174 12.2237 34.2061 13.3511C34.4035 13.4348 34.6305 13.4069 34.8018 13.2777C34.973 13.1486 35.0623 12.938 35.036 12.7251C35.0098 12.5123 34.8721 12.3296 34.6746 12.246C28.5646 9.66886 21.5222 12.5316 18.9432 18.6408C18.3178 20.1206 17.997 21.7113 18 23.3178C18 24.8514 18.6217 26.8488 19.8469 29.2578C21.0142 31.4778 22.3388 33.6116 23.8102 35.643Z" fill="#008FFF"/>
<path d="M30.0007 17.9011C30.3321 17.9011 30.6007 17.6325 30.6007 17.3012C30.6007 16.9698 30.3321 16.7012 30.0007 16.7012C27.1383 16.7011 24.6744 18.7232 24.1159 21.5306C23.5574 24.3381 25.0599 27.149 27.7045 28.2445C30.349 29.34 33.3991 28.4147 34.9894 26.0347C36.5798 23.6547 36.2674 20.4827 34.2433 18.4586C34.0927 18.3026 33.8696 18.24 33.6598 18.295C33.4501 18.3499 33.2862 18.5137 33.2313 18.7234C33.1764 18.9333 33.239 19.1563 33.3949 19.307C35.0142 20.9262 35.2642 23.4637 33.992 25.3678C32.7199 27.2719 30.2798 28.0121 28.1642 27.1359C26.0485 26.2596 24.8465 24.0109 25.2931 21.7649C25.7397 19.5189 27.7108 17.9012 30.0007 17.9011Z" fill="#008FFF"/>
<path d="M47.7741 44.0437L44.0841 37.4436C43.7505 36.8572 43.1262 36.4968 42.4515 36.501H38.1753C37.8439 36.501 37.5753 36.7696 37.5753 37.101C37.5753 37.4324 37.8439 37.701 38.1753 37.701H42.4515C42.6917 37.6963 42.9158 37.8216 43.0377 38.0286L46.7265 44.6286C46.827 44.8003 46.8249 45.0133 46.7211 45.183C46.5985 45.3855 46.3769 45.5068 46.1403 45.501H13.8602C13.6238 45.5067 13.4025 45.3853 13.28 45.183C13.1762 45.0133 13.1742 44.8003 13.2746 44.6286L16.9634 38.0286C17.0851 37.8216 17.309 37.6964 17.549 37.701H21.8252C22.1566 37.701 22.4252 37.4324 22.4252 37.101C22.4252 36.7696 22.1566 36.501 21.8252 36.501H17.5491C16.8741 36.4966 16.2493 36.857 15.9153 37.4436L12.2258 44.0437C11.9182 44.587 11.9253 45.2536 12.2445 45.7903C12.5807 46.3618 13.1973 46.7094 13.8602 46.7011H46.1403C46.8031 46.7092 47.4194 46.3617 47.7555 45.7903C48.0747 45.2535 48.0818 44.587 47.7741 44.0437Z" fill="#008FFF"/>
<path d="M41.4007 39.502H39.0007C38.8823 39.5022 38.7664 39.5372 38.6677 39.6028L36.8677 40.8028C36.592 40.9868 36.5176 41.3593 36.7015 41.635C36.8854 41.9107 37.258 41.9851 37.5337 41.8013L39.1807 40.7021H41.4007C41.7321 40.7021 42.0007 40.4334 42.0007 40.1021C42.0007 39.7705 41.7321 39.502 41.4007 39.502Z" fill="#008FFF"/>
<path d="M37.8008 43.7015C37.8008 44.0329 38.0694 44.3015 38.4008 44.3015H43.2008C43.5322 44.3015 43.8008 44.0329 43.8008 43.7015C43.8008 43.3702 43.5322 43.1016 43.2008 43.1016H38.4008C38.0694 43.1016 37.8008 43.3702 37.8008 43.7015Z" fill="#008FFF"/>
<path d="M22.8 41.902C23.0645 41.9024 23.298 41.7294 23.3748 41.4763C23.4517 41.2231 23.3537 40.9496 23.1336 40.8028L21.3336 39.6028C21.2347 39.5371 21.1187 39.502 21 39.502H18.6C18.2686 39.502 18 39.7706 18 40.1019C18 40.4333 18.2687 40.7019 18.6 40.7019H20.82L22.4688 41.8011C22.5669 41.8667 22.6821 41.9017 22.8 41.902Z" fill="#008FFF"/>
<path d="M16.8002 43.1016C16.4688 43.1016 16.2002 43.3702 16.2002 43.7015C16.2002 44.0329 16.4688 44.3015 16.8002 44.3015H21.6002C21.9316 44.3015 22.2002 44.0329 22.2002 43.7015C22.2002 43.3702 21.9316 43.1016 21.6002 43.1016H16.8002Z" fill="#008FFF"/>
</g>
<defs>
<clipPath id="clip0">
<rect x="12" y="11" width="36" height="36" fill="white"/>
</clipPath>
</defs>
</svg>
