<svg width="30" height="30" viewBox="0 0 30 30" fill="none" xmlns="http://www.w3.org/2000/svg">
<rect width="30" height="30" rx="4" fill="#7B50FF"/>
<g clip-path="url(#clip0)">
<path d="M23.6978 14.0469L22.1772 12.6613V8.06701C22.1772 7.77469 21.9402 7.53767 21.6478 7.53767H17.9876C17.6952 7.53767 17.4582 7.77465 17.4582 8.06701V8.36141L15.6218 6.68808C15.2673 6.36503 14.7328 6.36506 14.3784 6.68804L6.30239 14.0469C6.01847 14.3057 5.92464 14.7043 6.06336 15.0625C6.20212 15.4208 6.53998 15.6522 6.92413 15.6522H8.21398V23.0252C8.21398 23.3175 8.45096 23.5545 8.74332 23.5545H13.17C13.4623 23.5545 13.6993 23.3175 13.6993 23.0252V18.5485H16.3009V23.0252C16.3009 23.3175 16.5379 23.5546 16.8302 23.5546H21.2567C21.549 23.5546 21.786 23.3176 21.786 23.0252V15.6522H23.0761C23.4603 15.6522 23.7981 15.4208 23.9369 15.0626C24.0756 14.7043 23.9818 14.3057 23.6978 14.0469ZM21.2567 14.5935C20.9644 14.5935 20.7274 14.8305 20.7274 15.1229V22.4959H17.3596V18.0192C17.3596 17.7269 17.1226 17.4898 16.8303 17.4898H13.17C12.8776 17.4898 12.6406 17.7268 12.6406 18.0192V22.4959H9.27264V15.1229C9.27264 14.8305 9.03565 14.5935 8.74329 14.5935H7.27436L15.0002 7.55384L17.6311 9.95118C17.7861 10.0924 18.0098 10.1288 18.2015 10.0441C18.3932 9.9594 18.5169 9.76949 18.5169 9.55989V8.59636H21.1186V12.8951C21.1186 13.0441 21.1813 13.1861 21.2914 13.2864L22.7259 14.5935H21.2567Z" fill="white"/>
</g>
<defs>
<clipPath id="clip0">
<rect x="6" y="6" width="18" height="18" fill="white"/>
</clipPath>
</defs>
</svg>
