<svg width="20" height="20" viewBox="0 0 20 20" fill="none" xmlns="http://www.w3.org/2000/svg">
<path d="M16.6666 1.66602H3.33329C2.41663 1.66602 1.67496 2.41602 1.67496 3.33268L1.66663 18.3327L4.99996 14.9994H16.6666C17.5833 14.9994 18.3333 14.2494 18.3333 13.3327V3.33268C18.3333 2.41602 17.5833 1.66602 16.6666 1.66602ZM16.6666 13.3327H4.30829L3.81663 13.8244L3.33329 14.3077V3.33268H16.6666V13.3327ZM4.99996 9.99935H6.66663V11.666H4.99996V9.99935ZM4.99996 7.49935H6.66663V9.16602H4.99996V7.49935ZM4.99996 4.99935H6.66663V6.66602H4.99996V4.99935ZM8.33329 9.99935H12.5V11.666H8.33329V9.99935ZM8.33329 7.49935H15V9.16602H8.33329V7.49935ZM8.33329 4.99935H15V6.66602H8.33329V4.99935Z" fill="#757575"/>
</svg>
