<svg width="20" height="20" viewBox="0 0 20 20" fill="none" xmlns="http://www.w3.org/2000/svg">
<path d="M16.6668 1.66675H3.33342C2.41675 1.66675 1.67508 2.41675 1.67508 3.33342L1.66675 18.3334L5.00008 15.0001H16.6668C17.5834 15.0001 18.3334 14.2501 18.3334 13.3334V3.33342C18.3334 2.41675 17.5834 1.66675 16.6668 1.66675ZM16.6668 13.3334H4.30842L3.81675 13.8251L3.33342 14.3084V3.33342H16.6668V13.3334ZM5.00008 10.0001H6.66675V11.6667H5.00008V10.0001ZM5.00008 7.50008H6.66675V9.16675H5.00008V7.50008ZM5.00008 5.00008H6.66675V6.66675H5.00008V5.00008ZM8.33342 10.0001H12.5001V11.6667H8.33342V10.0001ZM8.33342 7.50008H15.0001V9.16675H8.33342V7.50008ZM8.33342 5.00008H15.0001V6.66675H8.33342V5.00008Z" fill="black"/>
</svg>
