<svg width="186" height="98" viewBox="0 0 186 98" fill="none" xmlns="http://www.w3.org/2000/svg">
<g clip-path="url(#clip0)">
<g clip-path="url(#clip1)">
<path d="M186.203 90.3408C186.203 78.4771 183.788 66.7295 179.097 55.7689C174.406 44.8082 167.53 34.8491 158.862 26.4602C150.194 18.0713 139.903 11.4168 128.578 6.87678C117.252 2.33673 105.114 -5.1858e-07 92.8549 0C80.5962 5.1858e-07 68.4576 2.33673 57.1321 6.87678C45.8066 11.4168 35.516 18.0713 26.8478 26.4602C18.1797 34.8491 11.3037 44.8082 6.61253 55.7689C1.92135 66.7295 -0.493165 78.4771 -0.493164 90.3408H27.5113C27.5113 82.0362 29.2014 73.8129 32.4852 66.1404C35.7691 58.468 40.5822 51.4966 46.65 45.6244C52.7177 39.7521 59.9211 35.094 67.849 31.916C75.7768 28.7379 84.2738 27.1022 92.8549 27.1022C101.436 27.1022 109.933 28.7379 117.861 31.916C125.789 35.094 132.992 39.7521 139.06 45.6244C145.128 51.4966 149.941 58.468 153.225 66.1404C156.508 73.8129 158.199 82.0362 158.199 90.3408H186.203Z" fill="#02B875"/>
<path d="M186.203 90.3408C186.203 71.2627 179.962 52.6743 168.375 37.2398C156.788 21.8053 140.449 10.317 121.701 4.42159C102.953 -1.47386 82.7571 -1.47386 64.0088 4.42159C45.2604 10.3171 28.9218 21.8053 17.3347 37.2398L39.9908 53.1701C48.1018 42.3659 59.5388 34.3242 72.6626 30.1973C85.7864 26.0705 99.9233 26.0705 113.047 30.1973C126.171 34.3242 137.608 42.3659 145.719 53.1701C153.83 63.9743 158.199 76.9861 158.199 90.3408H186.203Z" fill="#5DC644"/>
<path d="M186.203 90.3408C186.203 76.0841 182.716 62.0298 176.029 49.3269C169.341 36.6241 159.641 25.6334 147.723 17.2536C135.806 8.87367 122.008 3.34249 107.458 1.11224C92.9078 -1.118 78.019 0.016026 64.0088 4.42159L72.6626 30.1973C82.4698 27.1135 92.8919 26.3196 103.077 27.8808C113.262 29.442 122.92 33.3138 131.263 39.1797C139.605 45.0456 146.395 52.7391 151.076 61.6311C155.758 70.5231 158.199 80.3611 158.199 90.3408H186.203Z" fill="#FFC100"/>
<path d="M186.203 90.3408C186.203 71.2627 179.962 52.6743 168.375 37.2398C156.788 21.8053 140.449 10.317 121.701 4.42159L113.047 30.1973C126.171 34.3242 137.608 42.3659 145.719 53.1701C153.83 63.9743 158.199 76.9861 158.199 90.3408H186.203Z" fill="#FDAF40"/>
<path d="M186.203 90.3408C186.203 71.2627 179.962 52.6743 168.375 37.2398L145.719 53.1701C153.83 63.9743 158.199 76.9861 158.199 90.3408H186.203Z" fill="#FF7272"/>
</g>
<g clip-path="url(#clip2)">
<path d="M166.626 63.7474L175.174 66.961L94.381 90.8107L166.626 63.7474Z" fill="#C4C4C4"/>
<path d="M169.748 74.2993L94.3645 90.8154L175.157 66.9656L169.748 74.2993Z" fill="#848484"/>
<path d="M101.265 91.0136C101.029 94.8724 97.7104 97.8098 93.8516 97.5745C89.9928 97.3391 87.0553 94.0202 87.2907 90.1613C87.526 86.3025 90.845 83.3651 94.7038 83.6004C98.5626 83.8358 101.5 87.1548 101.265 91.0136ZM92.9844 90.5086C92.9408 91.2229 93.4845 91.8372 94.1988 91.8808C94.9131 91.9243 95.5274 91.3806 95.571 90.6663C95.6146 89.9521 95.0709 89.3377 94.3566 89.2941C93.6423 89.2506 93.0279 89.7943 92.9844 90.5086Z" fill="#008FFF"/>
</g>
</g>
<defs>
<clipPath id="clip0">
<rect width="186" height="98" fill="white"/>
</clipPath>
<clipPath id="clip1">
<rect width="186" height="98" fill="white"/>
</clipPath>
<clipPath id="clip2">
<rect x="89.3408" y="56.5483" width="88.1953" height="40.6753" transform="rotate(3.49 89.3408 56.5483)" fill="white"/>
</clipPath>
</defs>
</svg>
