<svg width="30" height="43" viewBox="0 0 30 43" fill="none" xmlns="http://www.w3.org/2000/svg">
<path d="M5.76855 0.494385H26.8675V24.7252H5.76855V0.494385Z" fill="#B9C2CF"/>
<path d="M5.76855 23.4062H26.8675V24.7249H5.76855V23.4062Z" fill="#95A4B6"/>
<path d="M24.2302 9.72476V27.3621H3.13135V3.13135H17.6368L24.2302 9.72476Z" fill="white"/>
<path d="M3.13135 23.4065H9.72475V24.7252H3.13135V23.4065Z" fill="#DCE1E7"/>
<path d="M20.2749 23.4065H24.2309V24.7252H20.2749V23.4065Z" fill="#DCE1E7"/>
<path d="M17.6377 9.7251H24.2311V11.0438H17.6377V9.7251Z" fill="#DCE1E7"/>
<path d="M24.2311 9.72475H17.6377V3.13135" fill="#95A4B6"/>
<path d="M5.76855 7.08765H9.7246V11.0437H5.76855V7.08765Z" fill="#95A4B6"/>
<path d="M9.7251 26.0437H20.2745V27.3624H9.7251V26.0437Z" fill="#DCE1E7"/>
<path d="M20.2739 24.7251V27.3625H9.72442V24.7251H0.493652V41.7031H29.5046V24.7251H20.2739Z" fill="#DCE1E7"/>
<path d="M0.493652 39.5608H29.5046V41.7036H0.493652V39.5608Z" fill="#B9C2CF"/>
<path d="M9.7251 30.824H20.2745V33.4613H9.7251V30.824Z" fill="white"/>
<path d="M5.76855 13.1873H21.5927V14.1763H5.76855V13.1873Z" fill="#012D4A"/>
<path d="M5.76855 18.4609H21.5927V19.4499H5.76855V18.4609Z" fill="#012D4A"/>
<path d="M5.76855 21.0984H16.318V22.0874H5.76855V21.0984Z" fill="#012D4A"/>
<path d="M5.76855 15.824H21.5927V16.813H5.76855V15.824Z" fill="#012D4A"/>
<path d="M10.22 6.59375H5.2749V11.5388H10.22V6.59375ZM9.23095 10.5498H6.26391V7.58276H9.23095V10.5498Z" fill="#012D4A"/>
<path d="M27.3626 24.2308V0H5.27473V2.63736H2.63736V24.2308H0V42.1978H30V24.2308H27.3626ZM6.26374 0.989011H26.3736V24.2308H24.7253V9.52047L17.8422 2.63736H6.26374V0.989011ZM23.037 9.23077H18.1319V4.32569L23.037 9.23077ZM3.62637 3.62637H17.1429V10.2198H23.7363V24.2308H19.7802V26.8681H10.2198V24.2308H3.62637V3.62637ZM29.011 41.2088H0.989011V40.0549H29.011V41.2088ZM29.011 39.0659H0.989011V25.2198H9.23077V27.8571H20.7692V25.2198H29.011V39.0659Z" fill="#012D4A"/>
<path d="M9.23145 33.956H20.7699V30.3296H9.23145V33.956ZM10.2205 31.3186H19.7809V32.967H10.2205V31.3186Z" fill="#012D4A"/>
</svg>
