<svg width="420" height="200" viewBox="0 0 420 200" fill="none" xmlns="http://www.w3.org/2000/svg">
<g clip-path="url(#clip0)">
<path d="M407.504 14.4964V172.878C407.504 174.805 407.126 176.712 406.391 178.492C405.657 180.271 404.58 181.888 403.223 183.25C401.865 184.613 400.254 185.693 398.48 186.43C396.707 187.167 394.806 187.547 392.886 187.547H59.6131C55.7362 187.547 52.0181 186.001 49.2768 183.25C46.5354 180.5 44.9953 176.769 44.9953 172.878V14.4964C45.0428 10.6367 46.6035 6.95113 49.3395 4.23788C52.0755 1.52462 55.7664 0.00208853 59.6131 0H392.886C396.733 0.00208853 400.424 1.52462 403.16 4.23788C405.896 6.95113 407.457 10.6367 407.504 14.4964Z" fill="#F2F2F2"/>
<path opacity="0.3" d="M129.677 34.4287H72.723C71.0571 34.4299 69.4599 35.0948 68.2824 36.2773C67.1048 37.4597 66.4434 39.063 66.4434 40.7346V118.277C66.4446 119.948 67.1072 121.551 68.2855 122.733C69.4639 123.914 71.0616 124.578 72.7275 124.578H129.677C130.502 124.579 131.32 124.416 132.082 124.1C132.845 123.783 133.538 123.319 134.122 122.734C134.706 122.149 135.169 121.454 135.486 120.689C135.802 119.925 135.965 119.105 135.966 118.277V40.7346C135.966 39.9062 135.803 39.0858 135.487 38.3204C135.171 37.555 134.707 36.8597 134.123 36.2741C133.539 35.6885 132.846 35.2241 132.083 34.9074C131.32 34.5908 130.503 34.4281 129.677 34.4287Z" fill="#008FFF"/>
<path d="M407.504 14.4964H44.9953C45.0428 10.6367 46.6035 6.95113 49.3395 4.23788C52.0755 1.52462 55.7664 0.00208853 59.6131 0H392.886C396.733 0.00208853 400.424 1.52462 403.16 4.23788C405.896 6.95113 407.457 10.6367 407.504 14.4964Z" fill="#E6E6E6"/>
<path d="M58.9901 10.4193C60.7353 10.4193 62.1502 8.99957 62.1502 7.24823C62.1502 5.49689 60.7353 4.07715 58.9901 4.07715C57.2448 4.07715 55.83 5.49689 55.83 7.24823C55.83 8.99957 57.2448 10.4193 58.9901 10.4193Z" fill="#F2F2F2"/>
<path d="M68.4704 10.4193C70.2156 10.4193 71.6305 8.99957 71.6305 7.24823C71.6305 5.49689 70.2156 4.07715 68.4704 4.07715C66.7251 4.07715 65.3103 5.49689 65.3103 7.24823C65.3103 8.99957 66.7251 10.4193 68.4704 10.4193Z" fill="#F2F2F2"/>
<path d="M77.9507 10.4193C79.6959 10.4193 81.1108 8.99957 81.1108 7.24823C81.1108 5.49689 79.6959 4.07715 77.9507 4.07715C76.2054 4.07715 74.7906 5.49689 74.7906 7.24823C74.7906 8.99957 76.2054 10.4193 77.9507 10.4193Z" fill="#F2F2F2"/>
<path d="M233.59 29.4458H163.833C162.527 29.4458 161.468 30.5086 161.468 31.8196V42.0214C161.468 43.3324 162.527 44.3952 163.833 44.3952H233.59C234.897 44.3952 235.956 43.3324 235.956 42.0214V31.8196C235.956 30.5086 234.897 29.4458 233.59 29.4458Z" fill="#E6E6E6"/>
<path d="M382.566 29.4458H312.809C311.503 29.4458 310.444 30.5086 310.444 31.8196V42.0214C310.444 43.3324 311.503 44.3952 312.809 44.3952H382.566C383.873 44.3952 384.932 43.3324 384.932 42.0214V31.8196C384.932 30.5086 383.873 29.4458 382.566 29.4458Z" fill="#E6E6E6"/>
<path d="M381.767 59.3447H164.632C162.884 59.3447 161.468 60.7665 161.468 62.5203V153.114C161.468 154.867 162.884 156.289 164.632 156.289H381.767C383.515 156.289 384.932 154.867 384.932 153.114V62.5203C384.932 60.7665 383.515 59.3447 381.767 59.3447Z" fill="#E6E6E6"/>
<path d="M365.962 70.6699H180.437C180.058 70.6699 179.751 70.9782 179.751 71.3585V74.5114C179.751 74.8917 180.058 75.2 180.437 75.2H365.962C366.341 75.2 366.648 74.8917 366.648 74.5114V71.3585C366.648 70.9782 366.341 70.6699 365.962 70.6699Z" fill="#F2F2F2"/>
<path d="M365.962 83.3545H180.437C180.058 83.3545 179.751 83.6628 179.751 84.0431V87.196C179.751 87.5763 180.058 87.8846 180.437 87.8846H365.962C366.341 87.8846 366.648 87.5763 366.648 87.196V84.0431C366.648 83.6628 366.341 83.3545 365.962 83.3545Z" fill="#F2F2F2"/>
<path d="M365.962 96.0381H180.437C180.058 96.0381 179.751 96.3464 179.751 96.7267V99.8796C179.751 100.26 180.058 100.568 180.437 100.568H365.962C366.341 100.568 366.648 100.26 366.648 99.8796V96.7267C366.648 96.3464 366.341 96.0381 365.962 96.0381Z" fill="#F2F2F2"/>
<path d="M365.962 108.723H180.437C180.058 108.723 179.751 109.031 179.751 109.411V112.564C179.751 112.944 180.058 113.253 180.437 113.253H365.962C366.341 113.253 366.648 112.944 366.648 112.564V109.411C366.648 109.031 366.341 108.723 365.962 108.723Z" fill="#F2F2F2"/>
<path d="M365.962 121.407H180.437C180.058 121.407 179.751 121.716 179.751 122.096V125.249C179.751 125.629 180.058 125.937 180.437 125.937H365.962C366.341 125.937 366.648 125.629 366.648 125.249V122.096C366.648 121.716 366.341 121.407 365.962 121.407Z" fill="#F2F2F2"/>
<path d="M365.962 134.092H180.437C180.058 134.092 179.751 134.4 179.751 134.78V137.933C179.751 138.314 180.058 138.622 180.437 138.622H365.962C366.341 138.622 366.648 138.314 366.648 137.933V134.78C366.648 134.4 366.341 134.092 365.962 134.092Z" fill="#F2F2F2"/>
<path d="M70.8675 92.5958C68.5606 93.4747 63.193 93.5743 60.7958 93.5698C60.0735 93.5698 59.6221 93.5698 59.6221 93.5698L58.0917 90.444L59.6221 87.8347C59.6221 87.8347 61.0261 87.4496 62.8905 87.1099C65.6443 86.6116 69.4093 86.2038 71.2061 87.3409C74.2172 89.2073 73.8786 91.4497 70.8675 92.5958Z" fill="#FEC2BE"/>
<path opacity="0.1" d="M60.7958 93.5693C60.0735 93.5693 59.6221 93.5693 59.6221 93.5693L58.0917 90.4435L59.6221 87.8342C59.6221 87.8342 61.0261 87.4491 62.8905 87.1094C61.3782 88.2238 57.7395 90.6429 60.7958 93.5693Z" fill="black"/>
<path d="M35.4473 55.1768L36.1245 54.3931C36.1245 54.3931 39.6006 59.9198 39.9662 62.0037C40.3319 64.0875 40.7969 66.4839 40.7969 66.4839C40.7969 66.4839 41.6998 69.202 42.2505 70.3934C42.8013 71.5849 43.343 72.74 43.3927 73.261C43.4424 73.782 43.185 74.9281 44.2956 75.6574C45.4061 76.3868 45.6499 78.3755 45.6499 78.3755C45.6499 78.3755 49.5955 82.2352 51.6722 82.3394C53.7488 82.4436 59.7259 83.4855 59.5182 84.5274C59.3106 85.5693 62.0102 86.1945 63.0982 86.4527C64.1862 86.7109 56.0873 89.8412 60.8139 93.8549C60.8139 93.8549 57.8028 94.4801 57.4913 95.2139C57.1798 95.9478 54.0106 94.7972 54.0106 94.7972C54.0106 94.7972 53.338 93.1845 50.9995 93.0803C48.661 92.9761 47.4692 91.9296 47.4692 91.7756C47.4692 91.6216 45.1308 90.3169 43.8306 89.9635C42.5304 89.6102 40.8195 89.4426 40.7653 89.0802C40.7111 88.7178 32.9779 55.2039 32.9779 55.2039L35.4473 55.1768Z" fill="#4C4981"/>
<path d="M35.4473 55.1768L36.1245 54.3931C36.1245 54.3931 39.6006 59.9198 39.9662 62.0037C40.3319 64.0875 40.7969 66.4839 40.7969 66.4839C40.7969 66.4839 41.6998 69.202 42.2505 70.3934C42.8013 71.5849 43.343 72.74 43.3927 73.261C43.4424 73.782 43.185 74.9281 44.2956 75.6574C45.4061 76.3868 45.6499 78.3755 45.6499 78.3755C45.6499 78.3755 49.5955 82.2352 51.6722 82.3394C53.7488 82.4436 59.7259 83.4855 59.5182 84.5274C59.3106 85.5693 62.0102 86.1945 63.0982 86.4527C64.1862 86.7109 56.0873 89.8412 60.8139 93.8549C60.8139 93.8549 57.8028 94.4801 57.4913 95.2139C57.1798 95.9478 54.0106 94.7972 54.0106 94.7972C54.0106 94.7972 53.338 93.1845 50.9995 93.0803C48.661 92.9761 47.4692 91.9296 47.4692 91.7756C47.4692 91.6216 45.1308 90.3169 43.8306 89.9635C42.5304 89.6102 40.8195 89.4426 40.7653 89.0802C40.7111 88.7178 32.9779 55.2039 32.9779 55.2039L35.4473 55.1768Z" fill="#192534"/>
<path d="M27.3574 199.8C20.5045 201.091 19.254 195.814 19.254 195.814C19.254 195.814 18.4008 191.12 18.0893 190.772C18.0492 190.704 18.0237 190.629 18.0143 190.551C18.005 190.473 18.0121 190.394 18.0351 190.319C18.2199 189.523 18.5623 188.773 19.0419 188.112C19.4707 187.605 19.1186 185.494 19.1186 185.494L27.064 183.46C27.4022 184.214 27.6638 185 27.845 185.807C27.9218 186.549 29.091 189.911 28.9736 190.377C28.8562 190.844 29.4792 192.294 29.556 193.037C29.6327 193.78 30.6078 194.876 30.6891 195.265C30.8186 195.617 30.9694 195.961 31.1405 196.294C31.3506 196.81 31.5197 197.341 31.6462 197.884C31.9938 199.524 27.3574 199.8 27.3574 199.8Z" fill="#3F3D56"/>
<path opacity="0.1" d="M27.3574 199.801C20.5045 201.092 19.254 195.814 19.254 195.814C19.254 195.814 18.4008 191.121 18.0893 190.772C18.0492 190.705 18.0237 190.63 18.0143 190.552C18.005 190.474 18.0121 190.394 18.0351 190.319L19.6829 195.067C19.6829 195.067 21.0372 197.921 26.1115 197.491C28.9917 197.246 30.4137 196.711 31.0999 196.29C31.31 196.806 31.479 197.338 31.6055 197.88C31.9938 199.525 27.3574 199.801 27.3574 199.801Z" fill="black"/>
<path opacity="0.1" d="M22.0214 192.371C22.0214 192.371 23.7369 192.412 23.8543 191.012L22.0214 192.371Z" fill="black"/>
<path d="M51.8211 146.173C50.9634 147.46 49.9883 153.091 49.9883 153.091C49.6155 153.832 49.4032 154.644 49.3653 155.473C49.4059 156.57 48.7423 158.563 48.7423 158.563L46.5799 166.654C46.5799 166.654 46.8146 168.806 45.9975 170.328C45.1804 171.85 45.2572 171.383 45.6454 174.042C46.0336 176.702 45.194 179.161 43.7764 179.932C42.3589 180.702 44.3994 182.55 44.3994 182.55C44.3994 182.55 35.4383 184.974 33.5648 183.488C31.6913 182.002 34.5399 174.654 34.5399 174.654C34.5399 174.654 34.0885 168.475 34.3819 167.578C34.6753 166.681 36.0206 159.016 36.0206 159.016C36.0206 159.016 36.8377 155.537 36.5262 154.939C36.2148 154.341 36.7204 152.674 36.7204 152.674C36.7204 152.674 38.0431 150.794 37.9257 150.209C37.8083 149.625 38.3185 148.57 38.3185 148.57C38.3185 148.57 34.3458 142.472 34.7069 141.321C35.0681 140.171 34.5534 138.354 34.5534 138.354C34.5534 138.354 34.0523 137.489 33.4474 136.456C32.707 135.188 31.8132 133.665 31.5152 133.194C31.1315 132.587 30.2106 130.023 29.7095 128.546C29.4928 127.917 29.3483 127.486 29.3483 127.486C29.3483 127.486 28.7208 138.979 28.1791 140.171C27.6373 141.362 26.8247 150.59 26.8247 150.59C26.5218 151.415 26.3882 152.294 26.432 153.172C26.5132 154.617 25.186 160.91 25.186 160.91C25.186 160.91 24.6036 165.367 24.9919 166.541C25.3801 167.714 25.0686 176.348 25.0686 176.348C25.0686 176.348 27.213 178.029 27.7773 179.32C28.3416 180.611 27.7005 184.126 27.7005 184.126C27.7005 184.126 21.4661 187.257 18.6988 186.437C15.9314 185.617 17.0645 180.883 17.0645 180.883C17.0645 180.883 15.1956 177.757 15.1956 176.548C15.0575 174.894 14.836 173.249 14.5319 171.619C12.1574 167.243 13.0918 156.611 12.7036 155.763C12.3154 154.916 13.5207 151.686 14.5094 150.255C15.498 148.823 15.0963 144.9 14.5094 143.763C13.9225 142.626 15.0962 138.721 15.0962 138.721C15.0962 138.721 13.9676 131.138 14.0038 129.964C14.0399 128.791 13.0332 125.316 13.0332 125.316C13.0332 125.316 12.0174 123.504 12.2522 122.97C12.4869 122.435 11.4712 121.017 11.7465 120.392C12.0219 119.767 11.5118 117.851 11.0062 116.714C10.6288 115.54 10.3509 114.337 10.1755 113.117C9.93625 111.758 9.76019 110.58 9.76019 110.58L16.1887 105.379L32.1337 101.18L38.174 99.2275L44.0428 108.528C44.0428 108.528 44.6477 109.502 45.1849 110.625C45.6364 111.59 46.0607 112.668 45.9885 113.343C45.8912 114.19 46.0839 115.045 46.5347 115.767C46.5347 115.767 50.0425 126.907 49.9612 130.109C49.8799 133.312 51.2072 140.352 51.2072 140.352C51.2072 140.352 52.6789 144.882 51.8211 146.173Z" fill="#192534"/>
<path d="M28.0933 55.5665C27.845 55.4623 10.8978 48.4406 13.2318 47.0453C14.6177 46.2163 16.3242 42.7055 17.4889 39.9557C18.306 38.0395 18.8432 36.4902 18.8432 36.4902C18.8432 36.4902 32.4452 34.0666 27.5787 42.4337C26.8106 43.7155 26.2327 45.1026 25.8632 46.5516C24.4863 52.2504 27.9759 55.4623 28.0933 55.5665Z" fill="#FEC2BE"/>
<path opacity="0.1" d="M27.5922 42.4337C26.8242 43.7155 26.2463 45.1026 25.8767 46.5516C24.1505 46.433 22.4896 45.8426 21.074 44.8444C19.6583 43.8463 18.5418 42.4783 17.8455 40.8889C17.71 40.5845 17.5909 40.273 17.4889 39.9557C18.306 38.0395 18.8432 36.4902 18.8432 36.4902C18.8432 36.4902 32.4587 34.0666 27.5922 42.4337Z" fill="black"/>
<path d="M36.0432 36.7259C36.0438 38.9137 35.2946 41.0352 33.9214 42.7346C32.5482 44.4339 30.6344 45.6077 28.501 46.0591C26.3677 46.5106 24.1445 46.2121 22.2044 45.2139C20.2644 44.2156 18.7253 42.5783 17.8455 40.5765C17.3092 39.3643 17.0339 38.0522 17.0374 36.7259C17.0361 34.4269 17.8626 32.2049 19.3645 30.4689C20.8665 28.7329 22.9429 27.5998 25.2114 27.2783C27.4799 26.9568 29.7878 27.4685 31.7101 28.7192C33.6325 29.9699 35.0398 31.8754 35.673 34.0848C35.9206 34.9431 36.0453 35.8324 36.0432 36.7259Z" fill="#FEC2BE"/>
<path opacity="0.1" d="M45.2255 110.625C44.2324 111.531 43.8486 113.262 43.8486 113.262C43.8486 113.262 39.1762 116.465 39.4877 114.431C39.7992 112.397 37.0725 104.193 37.0725 104.193L37.384 115.368C37.384 115.368 22.4232 114.666 21.3352 113.556C20.2472 112.446 13.8548 110.349 13.8548 110.349C13.8548 110.349 11.9 111.925 10.1033 113.121C9.86402 111.762 9.68796 110.585 9.68796 110.585L16.1165 105.384L32.1337 101.18L38.174 99.2275L44.0428 108.528C44.0428 108.528 44.6748 109.515 45.2255 110.625Z" fill="black"/>
<path d="M45.7041 109.742C44.4581 110.526 43.9886 112.632 43.9886 112.632C43.9886 112.632 39.3162 115.839 39.6277 113.805C39.9392 111.771 37.2125 103.567 37.2125 103.567L37.524 114.743C37.524 114.743 22.5676 114.041 21.4752 112.931C20.3827 111.821 13.9993 109.728 13.9993 109.728C13.9993 109.728 8.46457 114.186 7.45334 113.805C6.44211 113.425 9.25911 105.832 9.25911 105.832L12.1393 61.4373C12.1393 61.4373 11.3628 48.2275 12.5321 47.7564C12.7116 47.6837 12.8768 47.5794 13.0196 47.4483C13.7916 46.7552 14.0218 45.3463 14.0895 44.1595C14.1663 42.7551 16.0353 43.4573 16.0353 43.4573L14.9473 44.8661L24.5991 50.7553L24.6849 50.8051C25.0612 50.6077 25.4486 50.4322 25.8451 50.2796C26.6984 49.9489 27.836 49.6364 28.5809 49.9444C28.9937 50.1522 29.3454 50.4645 29.6011 50.8504C30.1519 51.6808 30.5935 52.5792 30.9148 53.5232L34.3909 59.4758C34.3909 59.4758 36.1967 67.3718 36.1967 67.6843C36.1967 67.9969 36.743 75.1862 37.3659 75.9699C37.9889 76.7536 38.6119 80.6586 38.3772 81.8319C38.1424 83.0052 38.7654 87.3858 38.7654 87.3858C41.3386 89.4923 42.6614 96.6861 42.6614 96.6861C42.6614 96.6861 46.7244 104.741 47.0223 105.678C47.3203 106.616 46.9501 108.958 45.7041 109.742Z" fill="white"/>
<path opacity="0.1" d="M24.5856 51.077C23.6376 52.4858 20.9063 54.4655 20.9063 54.4655L13.0061 47.77C13.778 47.0769 14.0083 45.668 14.076 44.4857C14.1527 43.0768 16.0217 43.779 16.0217 43.779L15.796 44.0734C15.6875 44.2136 15.6098 44.3751 15.5679 44.5475C15.526 44.7198 15.5208 44.8992 15.5528 45.0737C15.5848 45.2482 15.6531 45.4139 15.7534 45.5601C15.8536 45.7062 15.9835 45.8295 16.1346 45.9217L24.5856 51.077Z" fill="black"/>
<path d="M24.5856 50.7461C23.6376 52.155 20.9063 54.1301 20.9063 54.1301L13.0061 47.4527C13.778 46.7596 14.0083 45.3507 14.076 44.1638C14.1527 42.7595 16.0217 43.4617 16.0217 43.4617L15.796 43.7561C15.6875 43.8963 15.6098 44.0578 15.5679 44.2302C15.526 44.4025 15.5208 44.5819 15.5528 44.7564C15.5848 44.9309 15.6531 45.0966 15.7534 45.2428C15.8536 45.3889 15.9835 45.5122 16.1346 45.6044L24.5856 50.7461Z" fill="white"/>
<path opacity="0.1" d="M28.2378 51.8021C27.2175 53.0252 25.7729 54.4114 25.8406 53.7183C25.9083 53.0252 24.9783 51.485 24.3824 50.7964C25.308 50.5019 26.3057 50.5307 27.213 50.8779C27.6322 51.0864 27.9866 51.406 28.2378 51.8021Z" fill="black"/>
<path d="M28.3913 51.331C27.371 52.5541 25.9264 53.9448 25.9941 53.2472C26.0618 52.5496 25.2266 51.4352 24.6398 50.7375C25.493 50.4068 26.6306 50.0988 27.3755 50.4068C27.7898 50.619 28.1403 50.938 28.3913 51.331Z" fill="white"/>
<path d="M25.8361 57.8314C26.1801 57.8314 26.4591 57.5515 26.4591 57.2062C26.4591 56.8609 26.1801 56.5811 25.8361 56.5811C25.492 56.5811 25.2131 56.8609 25.2131 57.2062C25.2131 57.5515 25.492 57.8314 25.8361 57.8314Z" fill="#192534"/>
<path d="M30.5627 74.7201C30.9068 74.7201 31.1857 74.4402 31.1857 74.0949C31.1857 73.7496 30.9068 73.4697 30.5627 73.4697C30.2186 73.4697 29.9397 73.7496 29.9397 74.0949C29.9397 74.4402 30.2186 74.7201 30.5627 74.7201Z" fill="#192534"/>
<path d="M35.9123 91.8118C36.2564 91.8118 36.5353 91.5319 36.5353 91.1867C36.5353 90.8414 36.2564 90.5615 35.9123 90.5615C35.5682 90.5615 35.2893 90.8414 35.2893 91.1867C35.2893 91.5319 35.5682 91.8118 35.9123 91.8118Z" fill="#192534"/>
<path d="M36.0703 110.417C36.4144 110.417 36.6933 110.137 36.6933 109.792C36.6933 109.447 36.4144 109.167 36.0703 109.167C35.7262 109.167 35.4473 109.447 35.4473 109.792C35.4473 110.137 35.7262 110.417 36.0703 110.417Z" fill="#192534"/>
<path d="M28.5899 65.8045C28.9339 65.8045 29.2129 65.5246 29.2129 65.1794C29.2129 64.8341 28.9339 64.5542 28.5899 64.5542C28.2458 64.5542 27.9669 64.8341 27.9669 65.1794C27.9669 65.5246 28.2458 65.8045 28.5899 65.8045Z" fill="#192534"/>
<path d="M32.7973 83.1595C33.1414 83.1595 33.4203 82.8796 33.4203 82.5343C33.4203 82.1891 33.1414 81.9092 32.7973 81.9092C32.4533 81.9092 32.1743 82.1891 32.1743 82.5343C32.1743 82.8796 32.4533 83.1595 32.7973 83.1595Z" fill="#192534"/>
<path d="M36.901 100.201C37.245 100.201 37.524 99.9216 37.524 99.5763C37.524 99.2311 37.245 98.9512 36.901 98.9512C36.5569 98.9512 36.278 99.2311 36.278 99.5763C36.278 99.9216 36.5569 100.201 36.901 100.201Z" fill="#192534"/>
<path d="M35.9665 112.5C36.3105 112.5 36.5895 112.22 36.5895 111.875C36.5895 111.53 36.3105 111.25 35.9665 111.25C35.6224 111.25 35.3435 111.53 35.3435 111.875C35.3435 112.22 35.6224 112.5 35.9665 112.5Z" fill="#192534"/>
<path opacity="0.1" d="M13.0106 47.829C13.0106 47.829 13.1144 46.8868 11.7646 48.504C10.4148 50.1213 7.86864 51.5256 7.86864 51.5256C7.86864 51.5256 2.10371 55.6027 1.79221 57.4691C1.48071 59.3355 -0.388258 67.4761 0.595888 70.1852C1.58003 72.8942 9.1101 85.8729 9.1101 85.8729C9.1101 85.8729 7.1373 88.2195 7.6068 90.9784C8.0763 93.7372 8.64512 97.547 8.38328 98.3806C8.12144 99.2141 8.69478 101.298 7.81447 102.027C6.93415 102.757 6.00869 104.007 8.74895 105.679C8.74895 105.679 9.26811 107.083 8.79861 107.396C8.32911 107.708 15.7057 110.943 18.613 109.208C21.5203 107.473 26.7706 93.7282 26.8744 90.6341C26.9782 87.54 25.2627 77.3971 24.3283 75.0007C23.3938 72.6042 20.5903 63.2722 19.394 61.1884C18.1977 59.1045 13.0106 47.829 13.0106 47.829Z" fill="black"/>
<path d="M12.7218 47.829C12.7218 47.829 12.8256 46.8868 11.4758 48.504C10.126 50.1213 7.57982 51.5256 7.57982 51.5256C7.57982 51.5256 1.81489 55.6027 1.50339 57.4691C1.1919 59.3355 -0.677076 67.4761 0.30707 70.1852C1.29122 72.8942 8.8258 85.8729 8.8258 85.8729C8.8258 85.8729 6.85299 88.2241 7.30444 90.9784C7.75588 93.7327 8.34727 97.547 8.08543 98.3806C7.82359 99.2141 8.39693 101.298 7.51662 102.027C6.6363 102.757 5.71084 104.007 8.4511 105.679C8.4511 105.679 8.97026 107.083 8.50076 107.396C8.03126 107.708 15.4078 110.943 18.3151 109.208C21.2224 107.473 26.4727 93.7282 26.5765 90.6341C26.6804 87.54 24.9649 77.3971 24.0304 75.0007C23.0959 72.6042 20.2834 63.3085 19.0871 61.2201C17.8908 59.1317 12.7218 47.829 12.7218 47.829Z" fill="#192534"/>
<path opacity="0.1" d="M10.6225 56.6855C10.6225 56.6855 15.0872 61.637 14.9337 64.9213C14.9337 64.9213 14.9789 59.6075 10.6225 56.6855Z" fill="black"/>
<path opacity="0.1" d="M16.7847 64.8169C16.7847 64.9754 19.7958 76.2328 19.6423 77.6371C19.4888 79.0415 20.5226 83.2137 20.5226 83.2137L21.9266 82.8513C21.9266 82.8513 20.8341 77.0663 20.6264 74.9281C20.4188 72.7899 16.7847 64.8169 16.7847 64.8169Z" fill="black"/>
<path opacity="0.1" d="M17.9945 96.9219C17.8907 97.0759 10.8798 105.053 12.8526 105.624C14.8254 106.195 17.9945 96.9219 17.9945 96.9219Z" fill="black"/>
<path opacity="0.1" d="M12.2296 94.8877C12.0761 94.9919 9.42611 100.623 9.11462 99.1098C8.80312 97.5967 11.3989 103.228 11.8233 99.0599L12.2296 94.8877Z" fill="black"/>
<path opacity="0.1" d="M25.6961 49.5999C25.6961 49.5999 28.5899 47.8286 32.2285 52.3587C32.2285 52.3587 34.874 53.8718 35.655 54.2387C36.436 54.6057 37.3163 64.2956 37.3163 64.2956C37.3163 64.2956 39.0318 68.4633 38.5623 70.8643C38.0928 73.2652 39.9166 81.4919 39.9166 81.4919C39.9166 81.4919 42.9322 96.2963 42.8284 96.7131C42.7246 97.1299 39.7586 92.0743 39.8083 89.5827C39.8579 87.0911 37.3163 79.2631 36.9551 78.792C36.594 78.3208 34.0975 64.9298 34.0975 64.9298C34.0975 64.9298 32.0705 59.2309 30.7794 57.3645C29.4883 55.4981 27.8676 51.9284 27.1949 51.3168C26.7089 50.8955 26.1664 50.5448 25.5833 50.2749L25.6961 49.5999Z" fill="black"/>
<path d="M25.6555 49.5999C25.6555 49.5999 28.9014 47.8286 32.54 52.3587C32.54 52.3587 35.1855 53.8718 35.9665 54.2387C36.7475 54.6057 37.6278 64.2956 37.6278 64.2956C37.6278 64.2956 39.3433 68.4633 38.8738 70.8643C38.4043 73.2652 40.2281 81.4919 40.2281 81.4919C40.2281 81.4919 43.2437 96.2963 43.1399 96.7131C43.0361 97.1299 40.0746 92.0743 40.1243 89.5736C40.1739 87.073 37.6323 79.254 37.2711 78.7829C36.91 78.3118 34.4135 64.9207 34.4135 64.9207C34.4135 64.9207 32.3865 59.24 31.0909 57.3645C29.7952 55.489 28.1791 51.9284 27.5064 51.3168C26.9294 50.8618 26.2789 50.5094 25.5833 50.2749L25.6555 49.5999Z" fill="#192534"/>
<path opacity="0.1" d="M35.6144 121.389C34.7115 123.373 33.9395 133.335 33.4203 136.497C32.68 135.228 31.7861 133.706 31.4882 133.235C31.1044 132.628 30.1835 130.064 29.6824 128.587C30.2693 127.156 31.8899 123.051 31.8899 121.547C31.8899 119.708 34.8514 117.402 34.8514 117.402C35.3825 117.9 35.7425 118.555 35.8796 119.271C36.0167 119.987 35.9238 120.729 35.6144 121.389Z" fill="black"/>
<path opacity="0.1" d="M15.7509 151.994C15.7509 151.994 22.6038 149.063 24.6307 151.134C26.6577 153.204 15.7509 151.994 15.7509 151.994Z" fill="black"/>
<path opacity="0.1" d="M19.6062 153.168C19.6062 153.168 12.672 157.077 15.0511 157.743C17.4302 158.409 19.6062 153.168 19.6062 153.168Z" fill="black"/>
<path opacity="0.1" d="M40.3274 149.766C40.3274 149.766 37.3705 149.965 38.4991 150.549C39.6277 151.134 40.3274 149.766 40.3274 149.766Z" fill="black"/>
<path opacity="0.1" d="M44.0292 150.667C43.9886 150.862 35.4202 153.639 37.0951 154.889C38.7699 156.139 44.0292 150.667 44.0292 150.667Z" fill="black"/>
<path opacity="0.1" d="M16.7847 174.591C18.0713 174.392 25.2402 171.071 22.4322 173.454C21.6827 174.14 20.7609 174.609 19.7658 174.809C18.7708 175.01 17.7401 174.934 16.7847 174.591Z" fill="black"/>
<path opacity="0.1" d="M20.3059 177.209C20.3059 177.209 20.9289 179.633 23.308 179.32C25.6871 179.007 20.3059 177.209 20.3059 177.209Z" fill="black"/>
<path opacity="0.1" d="M18.3195 182.133C18.7484 182.015 23.8542 179.668 23.9671 180.774C24.08 181.879 19.1006 183.782 18.7123 183.197C18.4862 182.886 18.3502 182.517 18.3195 182.133Z" fill="black"/>
<path opacity="0.1" d="M34.8424 179.32C35.4654 179.279 41.307 177.403 42.4763 179.084L34.8424 179.32Z" fill="black"/>
<path opacity="0.1" d="M40.1333 180.412C40.1333 180.412 41.149 179.506 42.1603 179.959C43.1715 180.412 40.1333 180.412 40.1333 180.412Z" fill="black"/>
<path opacity="0.1" d="M27.2039 190.106C27.2705 190.437 27.4307 190.741 27.6654 190.982C27.9 191.223 28.1991 191.391 28.5267 191.465L27.2039 190.106Z" fill="black"/>
<path d="M56.9224 193.775C56.5342 195.379 51.0808 195.533 48.4714 195.103C45.8621 194.672 40.4448 193.109 40.4448 193.109C40.4448 193.109 34.7611 192.566 33.0862 191.859C31.4114 191.152 32.7341 189.359 32.7341 189.359V189.191C32.6935 188.539 32.5806 186.165 32.9824 185.526C33.4339 184.788 33.1765 182.355 33.1765 182.355C33.1765 182.355 41.2393 183.918 41.3928 183.175C41.5463 182.432 42.7968 181.363 43.3791 181.141C43.9615 180.919 44.3949 183.098 44.3949 183.098C44.3949 183.098 48.0561 186.224 48.2908 187.356C48.5256 188.489 51.0943 189.078 51.0943 189.078C51.0943 189.078 54.9903 190.169 56.0015 190.718C56.2954 190.857 56.5487 191.069 56.7369 191.335C56.925 191.601 57.0418 191.911 57.0759 192.235C57.1198 192.754 57.0678 193.276 56.9224 193.775Z" fill="#3F3D56"/>
<path opacity="0.1" d="M56.9224 193.776C56.5342 195.38 51.0808 195.534 48.4714 195.103C45.8621 194.673 40.4448 193.11 40.4448 193.11C40.4448 193.11 34.7611 192.566 33.0862 191.86C31.4114 191.153 32.7341 189.359 32.7341 189.359V189.191L40.8872 191.003C40.8872 191.003 44.9005 192.725 47.4692 192.725C49.7264 192.725 54.742 193.631 57.0759 192.272C57.1154 192.778 57.0634 193.288 56.9224 193.776Z" fill="black"/>
<path opacity="0.1" d="M45.8982 187.605C45.8982 187.605 45.51 190.183 43.9525 191.044L45.8982 187.605Z" fill="black"/>
<path opacity="0.1" d="M35.673 34.0845C35.5286 34.1628 35.3775 34.228 35.2216 34.2793C34.4902 34.4741 33.777 33.9803 33.1269 33.5862C32.4768 33.1921 31.5829 32.8976 31.0186 33.4095C30.2873 34.0754 30.82 35.5069 30.0661 36.1502C29.5876 36.5579 28.8291 36.4175 28.2964 36.7527C27.7637 37.088 27.6057 37.8218 27.4703 38.4561C27.3349 39.0903 27.0685 39.8151 26.45 40.0008C25.8316 40.1866 25.2537 39.7788 24.6443 39.8015C24.5179 39.8015 24.3734 39.8242 24.2876 39.729C24.2592 39.6887 24.239 39.6431 24.2282 39.5949C24.2173 39.5467 24.2161 39.4968 24.2244 39.4481C24.304 38.6876 24.2381 37.9188 24.0303 37.1831C23.9202 36.8167 23.7157 36.486 23.4375 36.2243C23.1593 35.9626 22.8172 35.7792 22.4457 35.6927C21.3532 35.5251 20.4323 36.4855 19.7867 37.3915C19.1112 38.3438 18.496 39.3379 17.9449 40.3678C17.9108 40.4339 17.8806 40.5019 17.8546 40.5716C17.3183 39.3594 17.0429 38.0473 17.0465 36.721C17.0452 34.422 17.8716 32.2 19.3736 30.464C20.8755 28.728 22.9519 27.5949 25.2205 27.2734C27.489 26.9519 29.7969 27.4636 31.7192 28.7143C33.6415 29.9651 35.0488 31.8705 35.6821 34.08L35.673 34.0845Z" fill="black"/>
<path d="M19.7777 37.2375C20.4233 36.3314 21.3397 35.3756 22.4367 35.5432C22.8069 35.6293 23.1475 35.8127 23.4236 36.0747C23.6997 36.3366 23.9013 36.6676 24.0078 37.0336C24.2191 37.7687 24.2865 38.5379 24.2064 39.2987C24.1892 39.3984 24.212 39.501 24.2696 39.5841C24.3554 39.6747 24.4998 39.6611 24.6262 39.6565C25.2357 39.6565 25.8451 40.0325 26.432 39.8559C27.0189 39.6792 27.3349 38.9498 27.4568 38.3111C27.5787 37.6724 27.7322 36.9521 28.2829 36.6078C28.8337 36.2635 29.5695 36.413 30.0526 36.0007C30.802 35.3575 30.2738 33.9305 31.0051 33.26C31.5694 32.7527 32.4678 33.0426 33.1134 33.4367C33.7589 33.8308 34.4677 34.3427 35.2081 34.1298C35.4497 34.0418 35.6863 33.9405 35.9168 33.8263C37.0725 33.3733 38.5713 34.1343 39.5284 33.3416C39.8743 32.9963 40.1221 32.5647 40.2462 32.0912C40.5087 31.453 40.6863 30.7828 40.7743 30.098C40.8559 29.4074 40.6665 28.712 40.2462 28.1591C39.6277 27.4252 38.5848 27.2531 37.7948 26.7049C37.1529 26.2003 36.6199 25.5699 36.2283 24.8521C35.837 24.1341 35.3219 23.4915 34.707 22.954C34.3947 22.6897 34.0161 22.5166 33.6125 22.4535C33.2089 22.3904 32.7957 22.4397 32.4181 22.5961C32.1899 22.7554 31.9366 22.8749 31.6687 22.9495C31.3775 22.9544 31.0909 22.8758 30.8426 22.723C28.1339 21.4455 24.9964 21.672 22.0349 22.0525C20.8412 22.1507 19.6699 22.435 18.5633 22.8951C18.0122 23.1302 17.518 23.4817 17.1145 23.9257C16.7109 24.3698 16.4075 24.8959 16.2249 25.4682C15.9811 26.3742 16.1662 27.3845 15.8773 28.286C15.6786 28.902 15.2723 29.4275 15.0421 30.03C14.4146 31.679 15.1685 33.4911 15.4935 35.2261C15.8411 37.1242 15.6651 39.1763 16.4687 40.9703C16.6267 41.3236 16.8027 41.9397 17.2 41.7087C17.4934 41.5365 17.7778 40.5354 17.9449 40.2228C18.4938 39.1907 19.1059 38.1937 19.7777 37.2375Z" fill="#192534"/>
<path opacity="0.1" d="M2.67706 67.7887L1.27307 71.8023C1.27307 71.8023 4.59569 84.2058 6.15317 86.8106C7.71065 89.4154 10.013 92.7541 10.013 92.7541C12.615 93.9295 15.5087 94.2941 18.3196 93.8006C22.7888 92.8945 35.822 90.5661 35.822 90.5661C36.13 90.6221 36.4474 90.5935 36.7406 90.4835C37.0339 90.3735 37.292 90.186 37.4878 89.9409C38.0567 89.1074 41.0181 88.6906 41.0181 88.6906C41.0181 88.6906 44.4446 83.7075 40.2371 81.6055C40.2371 81.6055 39.718 82.7516 37.4878 81.9679C35.2577 81.1842 34.576 82.5931 34.576 82.5931C34.576 82.5931 30.9645 83.3224 28.9149 83.0461C26.8654 82.7697 21.8544 82.6791 21.3352 82.2624C21.2689 82.205 21.192 82.1613 21.1089 82.1338C21.0257 82.1064 20.9379 82.0958 20.8507 82.1025C20.7634 82.1092 20.6783 82.1332 20.6003 82.1731C20.5223 82.213 20.4529 82.268 20.3962 82.3348C19.7922 82.1167 19.2291 81.7982 18.7304 81.3926C18.315 80.9396 17.7462 81.9181 17.7462 81.9181C17.7462 81.9181 17.0194 81.4968 17.2271 80.9758C17.4347 80.4548 16.5499 78.4752 16.5499 78.4752C16.3157 77.7175 16.2631 76.915 16.3964 76.1331C16.6537 75.0867 15.0963 71.3357 15.0963 71.3357C15.0765 70.7039 15.1464 70.0724 15.3039 69.4603C15.5658 68.5225 13.3311 66.6471 13.3311 66.6471C13.3311 66.6471 11.1506 56.0149 6.52787 59.5076C1.90509 63.0003 2.67706 67.7887 2.67706 67.7887Z" fill="black"/>
<path opacity="0.1" d="M36.1245 84.5684C36.0703 84.9353 34.9282 86.3804 35.3435 86.6522C35.7588 86.924 36.436 86.7564 35.7949 87.5945C35.1539 88.4325 35.2261 89.6783 35.6414 89.5198C36.0568 89.3612 36.7339 87.4903 36.7339 86.7564C36.633 86.0022 36.4279 85.2658 36.1245 84.5684Z" fill="black"/>
<g opacity="0.1">
<path opacity="0.1" d="M24.0077 36.1276C23.8982 35.7622 23.6944 35.4323 23.4169 35.1714C23.1394 34.9104 22.7982 34.7277 22.4277 34.6417C21.3307 34.4741 20.4142 35.4345 19.7687 36.3405C19.0931 37.2928 18.478 38.2869 17.9268 39.3168C17.7598 39.6294 17.4754 40.626 17.1819 40.7981C16.7846 41.0337 16.6086 40.4131 16.4506 40.0597C15.647 38.2703 15.8231 36.2136 15.4755 34.3155C15.1943 33.2122 14.9713 32.0947 14.8073 30.9678C14.6854 32.3268 15.2181 33.7629 15.4755 35.1491C15.8231 37.0472 15.647 39.1039 16.4506 40.8978C16.6086 41.2466 16.7846 41.8672 17.1819 41.6317C17.4754 41.4595 17.7598 40.4629 17.9268 40.1503C18.478 39.1204 19.0931 38.1264 19.7687 37.174C20.4142 36.268 21.3307 35.3076 22.4277 35.4752C22.7982 35.5612 23.1394 35.744 23.4169 36.0049C23.6944 36.2658 23.8982 36.5957 24.0077 36.9611C24.1343 37.3399 24.2058 37.7351 24.2199 38.1344C24.2746 37.458 24.2027 36.7774 24.0077 36.1276Z" fill="black"/>
<path opacity="0.1" d="M40.2597 31.1944C40.1356 31.6679 39.8878 32.0995 39.5419 32.4447C38.5939 33.242 37.0951 32.49 35.9303 32.934C35.6998 33.0467 35.4632 33.1465 35.2216 33.233C34.4902 33.4323 33.777 32.9385 33.1269 32.5444C32.4768 32.1503 31.5829 31.8558 31.0186 32.3677C30.2873 33.0337 30.82 34.4606 30.0661 35.1084C29.5831 35.5161 28.8291 35.3757 28.2964 35.7109C27.7637 36.0462 27.6057 36.78 27.4703 37.4143C27.3349 38.0485 27.0685 38.7733 26.4455 38.959C25.8225 39.1448 25.2537 38.7371 24.6398 38.7597C24.5133 38.7597 24.3689 38.7824 24.2831 38.6872C24.2639 38.6643 24.2486 38.6382 24.238 38.6102C24.238 38.8186 24.238 39.0315 24.238 39.2399C24.2296 39.2886 24.2309 39.3385 24.2417 39.3866C24.2526 39.4348 24.2728 39.4804 24.3012 39.5208C24.3869 39.6159 24.5314 39.5978 24.6578 39.5932C25.2673 39.5932 25.8767 39.9692 26.4636 39.7926C27.0505 39.6159 27.3665 38.8865 27.4884 38.2523C27.6103 37.6181 27.7637 36.8933 28.3145 36.5445C28.8653 36.1957 29.6011 36.3497 30.0842 35.942C30.8381 35.2987 30.3054 33.8672 31.0367 33.2239C31.601 32.712 32.4994 33.0065 33.1449 33.4006C33.7905 33.7947 34.4993 34.3066 35.2396 34.0937C35.4879 34.0257 35.6911 33.8808 35.9484 33.7902C37.1041 33.3372 38.6029 34.0982 39.5599 33.3009C39.8993 32.9536 40.1407 32.5221 40.2597 32.0506C40.5217 31.4137 40.6992 30.7451 40.7879 30.0619C40.8127 29.83 40.8127 29.5961 40.7879 29.3643C40.6841 29.993 40.5068 30.6073 40.2597 31.1944Z" fill="black"/>
</g>
<path d="M111.394 28.0869H54.4395C50.9689 28.0869 48.1554 30.9102 48.1554 34.3928V111.93C48.1554 115.413 50.9689 118.236 54.4395 118.236H111.394C114.864 118.236 117.678 115.413 117.678 111.93V34.3928C117.678 30.9102 114.864 28.0869 111.394 28.0869Z" fill="#008FFF"/>
<path d="M62.9238 50.1445H59.9453L59.2764 52H58.3096L61.0244 44.8906H61.8447L64.5645 52H63.6025L62.9238 50.1445ZM60.2285 49.373H62.6455L61.4346 46.0479L60.2285 49.373ZM68.1289 49.124H66.459V52H65.5166V44.8906H67.8701C68.6709 44.8906 69.2861 45.0729 69.7158 45.4375C70.1488 45.8021 70.3652 46.3327 70.3652 47.0293C70.3652 47.472 70.2448 47.8577 70.0039 48.1865C69.7663 48.5153 69.4342 48.7611 69.0078 48.9238L70.6777 51.9414V52H69.6719L68.1289 49.124ZM66.459 48.3574H67.8994C68.3649 48.3574 68.7344 48.237 69.0078 47.9961C69.2845 47.7552 69.4229 47.4329 69.4229 47.0293C69.4229 46.5898 69.291 46.2529 69.0273 46.0186C68.7669 45.7842 68.3893 45.6654 67.8945 45.6621H66.459V48.3574ZM77.1475 52H76.2051L72.626 46.5215V52H71.6836V44.8906H72.626L76.2148 50.3936V44.8906H77.1475V52ZM80.5508 49.3486H78.168V48.6113H80.5508V49.3486ZM84.3105 52H83.4023V45.9795L81.5811 46.6484V45.8281L84.1689 44.8564H84.3105V52ZM91.6152 52H86.957V51.3506L89.418 48.6162C89.7826 48.2028 90.0332 47.8675 90.1699 47.6104C90.3099 47.3499 90.3799 47.0814 90.3799 46.8047C90.3799 46.4336 90.2676 46.1292 90.043 45.8916C89.8184 45.654 89.5189 45.5352 89.1445 45.5352C88.6953 45.5352 88.3454 45.6637 88.0947 45.9209C87.8473 46.1748 87.7236 46.5296 87.7236 46.9854H86.8203C86.8203 46.3311 87.0303 45.8021 87.4502 45.3984C87.8734 44.9948 88.4382 44.793 89.1445 44.793C89.8053 44.793 90.3278 44.9671 90.7119 45.3154C91.096 45.6605 91.2881 46.1211 91.2881 46.6973C91.2881 47.3971 90.8421 48.2305 89.9502 49.1973L88.0459 51.2627H91.6152V52ZM93.8857 48.0059H94.5645C94.9909 47.9993 95.3262 47.887 95.5703 47.6689C95.8145 47.4508 95.9365 47.1562 95.9365 46.7852C95.9365 45.9518 95.5215 45.5352 94.6914 45.5352C94.3008 45.5352 93.9883 45.6475 93.7539 45.8721C93.5228 46.0934 93.4072 46.388 93.4072 46.7559H92.5039C92.5039 46.1927 92.709 45.7256 93.1191 45.3545C93.5326 44.9801 94.0566 44.793 94.6914 44.793C95.362 44.793 95.8877 44.9704 96.2686 45.3252C96.6494 45.68 96.8398 46.1732 96.8398 46.8047C96.8398 47.1139 96.7389 47.4134 96.5371 47.7031C96.3385 47.9928 96.0667 48.2093 95.7217 48.3525C96.1123 48.4762 96.4134 48.6813 96.625 48.9678C96.8398 49.2542 96.9473 49.6042 96.9473 50.0176C96.9473 50.6556 96.7389 51.1618 96.3223 51.5361C95.9056 51.9105 95.3636 52.0977 94.6963 52.0977C94.029 52.0977 93.4854 51.917 93.0654 51.5557C92.6488 51.1943 92.4404 50.7174 92.4404 50.125H93.3486C93.3486 50.4993 93.4707 50.7988 93.7148 51.0234C93.959 51.248 94.2861 51.3604 94.6963 51.3604C95.1325 51.3604 95.4661 51.2464 95.6973 51.0186C95.9284 50.7907 96.0439 50.4635 96.0439 50.0371C96.0439 49.6237 95.917 49.3063 95.6631 49.085C95.4092 48.8636 95.043 48.7497 94.5645 48.7432H93.8857V48.0059ZM102.001 49.6123H102.987V50.3496H102.001V52H101.093V50.3496H97.8555V49.8174L101.039 44.8906H102.001V49.6123ZM98.8809 49.6123H101.093V46.126L100.985 46.3213L98.8809 49.6123ZM104.218 48.4355L104.579 44.8906H108.222V45.7256H105.346L105.131 47.6641C105.479 47.459 105.875 47.3564 106.317 47.3564C106.965 47.3564 107.479 47.5713 107.86 48.001C108.241 48.4274 108.432 49.0052 108.432 49.7344C108.432 50.4668 108.233 51.0446 107.836 51.4678C107.442 51.8877 106.89 52.0977 106.181 52.0977C105.552 52.0977 105.04 51.9235 104.643 51.5752C104.245 51.2269 104.019 50.7451 103.964 50.1299H104.818C104.874 50.5368 105.019 50.8444 105.253 51.0527C105.487 51.2578 105.797 51.3604 106.181 51.3604C106.601 51.3604 106.929 51.2171 107.167 50.9307C107.408 50.6442 107.528 50.2487 107.528 49.7441C107.528 49.2689 107.398 48.888 107.138 48.6016C106.881 48.3118 106.537 48.167 106.107 48.167C105.714 48.167 105.404 48.2533 105.18 48.4258L104.94 48.6211L104.218 48.4355Z" fill="white"/>
<path d="M82.912 98.7567C92.137 98.7567 99.6154 91.2524 99.6154 81.9953C99.6154 72.7382 92.137 65.2339 82.912 65.2339C73.687 65.2339 66.2086 72.7382 66.2086 81.9953C66.2086 91.2524 73.687 98.7567 82.912 98.7567Z" fill="#F2F2F2"/>
<path d="M107.732 118.236H58.1007C58.2692 114.455 59.8843 110.885 62.6096 108.269C65.335 105.654 68.9607 104.193 72.732 104.192H93.1011C96.8724 104.193 100.498 105.654 103.223 108.269C105.949 110.885 107.564 114.455 107.732 118.236Z" fill="#F2F2F2"/>
<path d="M39.9121 82.1714C39.9121 82.1714 46.0923 78.0943 49.0809 80.1147C52.0694 82.1351 56.9495 84.9619 52.1462 87.0186C47.3428 89.0753 40.7111 88.6766 40.7111 88.6766L39.9121 82.1714Z" fill="#FEC2BE"/>
<path d="M2.36558 67.7886L0.984161 71.8023C0.984161 71.8023 4.30678 84.2057 5.86426 86.8106C7.42174 89.4154 9.68798 92.7541 9.68798 92.7541C12.29 93.9295 15.1837 94.294 17.9945 93.8005C22.4638 92.8945 35.497 90.566 35.497 90.566C35.805 90.622 36.1224 90.5935 36.4156 90.4835C36.7088 90.3734 36.967 90.186 37.1628 89.9409C37.7316 89.1028 40.7112 88.677 40.7112 88.677C40.7112 88.677 44.1376 83.6938 39.9302 81.5919C39.9302 81.5919 39.411 82.738 37.1809 81.9543C34.9507 81.1706 34.2691 82.5794 34.2691 82.5794C34.2691 82.5794 30.6349 83.3088 28.608 83.0324C26.581 82.7561 21.5474 82.6655 21.0282 82.2487C20.8969 82.132 20.7249 82.0722 20.5498 82.0824C20.3747 82.0926 20.2107 82.1719 20.0937 82.3031C19.4897 82.085 18.9266 81.7664 18.4279 81.3608C18.0126 80.9078 17.4438 81.8863 17.4438 81.8863C17.4438 81.8863 16.717 81.465 16.9246 80.9441C17.1323 80.4231 16.2475 78.4434 16.2475 78.4434C16.0132 77.6858 15.9606 76.8833 16.094 76.1014C16.3513 75.0549 14.7938 71.304 14.7938 71.304C14.774 70.6721 14.8439 70.0406 15.0015 69.4285C15.2633 68.4908 13.0287 66.6153 13.0287 66.6153C13.0287 66.6153 10.8482 55.9831 6.22542 59.4759C1.60264 62.9686 2.36558 67.7886 2.36558 67.7886Z" fill="#192534"/>
<path d="M395.442 190.555C396.796 188.059 395.261 184.996 393.509 182.772C391.758 180.548 389.622 178.242 389.668 175.392C389.731 171.315 394.047 168.91 397.491 166.749C400.046 165.143 402.403 163.241 404.515 161.082C405.398 160.248 406.129 159.265 406.673 158.178C407.387 156.588 407.364 154.771 407.319 153.027C407.171 147.211 406.886 141.398 406.461 135.591" stroke="#3F3D56" stroke-width="4" stroke-miterlimit="10"/>
<path d="M413.012 135.274C412.964 134.209 412.649 133.174 412.097 132.263C411.544 131.352 410.772 130.596 409.852 130.064L408.434 132.882L408.475 129.471C407.798 129.271 407.093 129.186 406.389 129.222C405.142 129.284 403.941 129.715 402.938 130.462C401.935 131.208 401.175 132.235 400.753 133.415C400.332 134.594 400.268 135.873 400.569 137.088C400.871 138.304 401.525 139.403 402.448 140.247C403.372 141.09 404.524 141.64 405.758 141.827C406.993 142.014 408.255 141.83 409.385 141.298C410.516 140.766 411.464 139.91 412.11 138.838C412.756 137.766 413.072 136.526 413.016 135.274H413.012Z" fill="#57B894"/>
<path d="M401.712 178.305C401.083 179.562 400.055 180.573 398.79 181.18C397.525 181.787 396.094 181.954 394.724 181.656C393.354 181.357 392.122 180.61 391.221 179.532C390.32 178.454 389.802 177.106 389.749 175.7C389.704 174.82 389.844 173.94 390.16 173.118C390.614 171.903 391.428 170.858 392.492 170.123C393.557 169.387 394.821 168.997 396.113 169.004C397.405 169.011 398.664 169.416 399.721 170.164C400.777 170.912 401.579 171.966 402.019 173.186L398.06 176.42L402.412 175.405C402.415 176.414 402.175 177.409 401.712 178.305Z" fill="#57B894"/>
<path d="M398.584 165.96C397.009 166.074 395.449 165.591 394.21 164.608C392.972 163.625 392.146 162.213 391.893 160.649C391.641 159.085 391.981 157.483 392.846 156.157C393.712 154.832 395.04 153.88 396.57 153.489L396.539 156.107L397.974 153.258C399.65 153.179 401.289 153.772 402.53 154.906C403.77 156.039 404.512 157.621 404.59 159.303C404.668 160.985 404.078 162.63 402.948 163.875C401.818 165.12 400.242 165.864 398.565 165.942L398.584 165.96Z" fill="#57B894"/>
<path d="M413.964 155.691C413.134 155.73 412.305 155.605 411.523 155.323C410.741 155.04 410.022 154.606 409.408 154.045C408.793 153.484 408.295 152.807 407.941 152.052C407.587 151.298 407.385 150.481 407.346 149.648C407.307 148.815 407.432 147.983 407.713 147.198C407.995 146.414 408.427 145.692 408.987 145.076C409.546 144.459 410.221 143.959 410.972 143.604C411.724 143.249 412.538 143.046 413.368 143.007C414.553 142.948 415.73 143.227 416.763 143.813L415.644 146.889L417.95 144.669C419.184 145.803 419.92 147.382 419.996 149.059C420.027 149.648 419.972 150.239 419.833 150.812C419.517 152.155 418.773 153.359 417.714 154.239C416.655 155.12 415.338 155.629 413.964 155.691Z" fill="#57B894"/>
<path opacity="0.1" d="M412.158 136.968C410.696 137.131 409.274 137.584 407.807 137.679C406.339 137.775 404.728 137.417 403.798 136.271C403.297 135.654 403.048 134.875 402.628 134.2C402.226 133.576 401.677 133.059 401.03 132.696C400.647 133.498 400.436 134.372 400.412 135.262C400.387 136.151 400.549 137.035 400.887 137.857C401.226 138.68 401.732 139.421 402.375 140.034C403.017 140.647 403.781 141.118 404.616 141.415C405.452 141.712 406.34 141.83 407.224 141.761C408.107 141.691 408.967 141.436 409.746 141.011C410.525 140.587 411.206 140.003 411.745 139.297C412.285 138.591 412.67 137.779 412.876 136.914C412.637 136.927 412.398 136.941 412.158 136.968Z" fill="black"/>
<path opacity="0.1" d="M413.964 155.691C412.872 155.747 411.783 155.517 410.806 155.024C409.828 154.531 408.995 153.791 408.387 152.878C407.78 151.965 407.419 150.909 407.34 149.814C407.261 148.719 407.467 147.622 407.937 146.631C408.441 146.97 408.874 147.406 409.211 147.913C409.662 148.592 409.933 149.385 410.466 150.01C411.454 151.175 413.138 151.56 414.668 151.487C416.199 151.415 417.671 150.98 419.183 150.839C419.395 150.839 419.607 150.808 419.819 150.803C419.506 152.146 418.765 153.35 417.708 154.232C416.651 155.114 415.337 155.626 413.964 155.691Z" fill="black"/>
<path opacity="0.1" d="M398.584 165.961C397.501 166.017 396.422 165.792 395.45 165.309C394.479 164.825 393.648 164.099 393.037 163.2C392.426 162.301 392.056 161.259 391.963 160.175C391.869 159.091 392.055 158.001 392.503 157.01C393.03 157.354 393.489 157.793 393.857 158.305C394.349 158.998 394.656 159.805 395.211 160.448C396.277 161.64 398.073 162.061 399.694 162.025C401.315 161.988 402.773 161.603 404.335 161.481C403.954 162.732 403.196 163.834 402.167 164.636C401.137 165.438 399.886 165.901 398.584 165.961Z" fill="black"/>
<path opacity="0.1" d="M401.712 178.305C401.083 179.562 400.055 180.574 398.79 181.18C397.525 181.787 396.094 181.954 394.724 181.656C393.354 181.358 392.122 180.611 391.221 179.533C390.32 178.454 389.802 177.106 389.749 175.7C389.704 174.82 389.844 173.94 390.16 173.118C390.682 173.462 391.15 173.882 391.55 174.364C392.151 175.102 392.548 175.936 393.247 176.629C394.543 177.902 396.633 178.441 398.493 178.477C399.569 178.484 400.643 178.426 401.712 178.305Z" fill="black"/>
<path d="M385.889 187.678C385.889 187.678 390.891 187.524 392.394 186.451C393.898 185.377 400.069 184.086 400.462 185.812C400.854 187.538 407.978 194.419 402.331 194.446C396.683 194.474 389.212 193.568 387.708 192.634C386.205 191.701 385.889 187.678 385.889 187.678Z" fill="#656380"/>
<path opacity="0.2" d="M402.434 193.849C396.787 193.894 389.315 192.965 387.808 192.037C386.665 191.334 386.209 188.825 386.056 187.665H385.889C385.889 187.665 386.205 191.715 387.695 192.648C389.184 193.581 396.674 194.496 402.317 194.46C403.947 194.46 404.511 193.867 404.479 193.006C404.267 193.513 403.644 193.84 402.434 193.849Z" fill="black"/>
</g>
<defs>
<clipPath id="clip0">
<rect width="420" height="200" fill="white"/>
</clipPath>
</defs>
</svg>
