<svg width="120" height="120" viewBox="0 0 120 120" fill="none" xmlns="http://www.w3.org/2000/svg">
<path d="M60 0C72.6708 1.51097e-07 85.0163 4.0113 95.2671 11.459C105.518 18.9067 113.148 29.4084 117.063 41.459L88.5317 50.7295C86.574 44.7042 82.759 39.4533 77.6336 35.7295C72.5081 32.0056 66.3354 30 60 30V0Z" fill="#83959D" fill-opacity="0.9"/>
<path d="M117.063 41.459C120.979 53.5096 120.979 66.4904 117.063 78.541C113.148 90.5916 105.518 101.093 95.2671 108.541L77.6335 84.2705C82.759 80.5467 86.574 75.2958 88.5317 69.2705C90.4894 63.2452 90.4894 56.7548 88.5317 50.7295L117.063 41.459Z" fill="#A0AEB4" fill-opacity="0.9"/>
<mask id="path-3-inside-1" fill="white">
<path d="M95.2671 108.541C85.0163 115.989 72.6708 120 60 120C47.3292 120 34.9837 115.989 24.7329 108.541L42.3664 84.2705C47.4919 87.9944 53.6646 90 60 90C66.3354 90 72.5081 87.9944 77.6336 84.2705L95.2671 108.541Z"/>
</mask>
<path d="M95.2671 108.541C85.0163 115.989 72.6708 120 60 120C47.3292 120 34.9837 115.989 24.7329 108.541L42.3664 84.2705C47.4919 87.9944 53.6646 90 60 90C66.3354 90 72.5081 87.9944 77.6336 84.2705L95.2671 108.541Z" fill="#D9DEE1" stroke="#D9DEE1" stroke-width="2" stroke-dasharray="4 4" mask="url(#path-3-inside-1)"/>
<path d="M24.7329 108.541C14.482 101.093 6.85209 90.5916 2.93661 78.541C-0.978871 66.4904 -0.978869 53.5096 2.93661 41.459L31.4683 50.7295C29.5106 56.7548 29.5106 63.2452 31.4683 69.2705C33.426 75.2958 37.241 80.5467 42.3664 84.2705L24.7329 108.541Z" fill="#A0AEB4" fill-opacity="0.8"/>
<path d="M2.93661 41.459C6.85209 29.4084 14.482 18.9067 24.7329 11.459C34.9837 4.0113 47.3292 -1.51097e-07 60 0V30C53.6646 30 47.4919 32.0056 42.3664 35.7295C37.241 39.4533 33.426 44.7042 31.4683 50.7295L2.93661 41.459Z" fill="#BCC6CA"/>
</svg>
