<svg width="626" height="160" viewBox="0 0 626 160" fill="none" xmlns="http://www.w3.org/2000/svg">
<rect x="6" y="39" width="120" height="36" fill="#D9DEE1"/>
<rect x="126" y="39" width="120" height="36" fill="#D9DEE1"/>
<rect x="246" y="39" width="120" height="36" fill="#D9DEE1"/>
<rect x="366" y="39" width="120" height="36" fill="#008FFF"/>
<g clip-path="url(#clip0)">
<path d="M380.176 50.8326C380.486 50.5815 380.975 50.5815 381.285 50.8326C381.584 51.0752 381.584 51.4789 381.285 51.721L375.664 56.2715H394.213C394.645 56.2715 395 56.5497 395 56.8997C395 57.2498 394.645 57.537 394.213 57.537H375.664L381.285 62.079C381.584 62.3301 381.584 62.7345 381.285 62.9765C380.975 63.2276 380.486 63.2276 380.176 62.9765L373.224 57.3487C372.925 57.1061 372.925 56.7024 373.224 56.4603L380.176 50.8326Z" fill="white"/>
</g>
<g clip-path="url(#clip1)">
<path d="M471.824 62.977C471.514 63.2281 471.025 63.2281 470.715 62.977C470.416 62.7344 470.416 62.3306 470.715 62.0886L476.336 57.5381H457.787C457.355 57.5381 457 57.2599 457 56.9098C457 56.5598 457.355 56.2725 457.787 56.2725H476.336L470.715 51.7305C470.416 51.4794 470.416 51.0751 470.715 50.8331C471.025 50.582 471.514 50.582 471.824 50.8331L478.776 56.4608C479.075 56.7034 479.075 57.1072 478.776 57.3492L471.824 62.977Z" fill="white"/>
</g>
<line x1="482.5" y1="49" x2="482.5" y2="65" stroke="white"/>
<path d="M369.5 49L369.5 65" stroke="white"/>
<rect x="486" y="39" width="120" height="36" fill="#D9DEE1"/>
<line x1="425" y1="140" x2="425" y2="74" stroke="#008FFF" stroke-width="2"/>
<path d="M7.23242 116.81C7.23242 118.241 6.96354 119.321 6.42578 120.05C5.89258 120.774 5.0791 121.137 3.98535 121.137C2.90983 121.137 2.09863 120.784 1.55176 120.077C1.00944 119.366 0.731445 118.316 0.717773 116.926V115.203C0.717773 113.772 0.984375 112.699 1.51758 111.983C2.05534 111.268 2.87337 110.91 3.97168 110.91C5.06087 110.91 5.87207 111.259 6.40527 111.956C6.94303 112.653 7.21875 113.697 7.23242 115.087V116.81ZM5.57129 114.95C5.57129 114.016 5.44368 113.332 5.18848 112.899C4.93327 112.462 4.52767 112.243 3.97168 112.243C3.42936 112.243 3.0306 112.451 2.77539 112.865C2.52018 113.275 2.38574 113.918 2.37207 114.793V117.049C2.37207 117.979 2.50195 118.671 2.76172 119.127C3.02148 119.583 3.42936 119.811 3.98535 119.811C4.51855 119.811 4.91276 119.601 5.16797 119.182C5.42318 118.758 5.55762 118.097 5.57129 117.199V114.95ZM8.88379 112.961C8.88379 112.359 9.07747 111.867 9.46484 111.484C9.85221 111.097 10.3604 110.903 10.9893 110.903C11.6273 110.903 12.1377 111.097 12.5205 111.484C12.9079 111.867 13.1016 112.371 13.1016 112.995V113.487C13.1016 114.084 12.9079 114.574 12.5205 114.957C12.1377 115.34 11.6318 115.531 11.0029 115.531C10.3877 115.531 9.87956 115.344 9.47852 114.971C9.08203 114.592 8.88379 114.084 8.88379 113.446V112.961ZM10.0459 113.487C10.0459 113.802 10.1325 114.057 10.3057 114.253C10.4834 114.444 10.7158 114.54 11.0029 114.54C11.2855 114.54 11.5133 114.444 11.6865 114.253C11.8597 114.057 11.9463 113.793 11.9463 113.46V112.961C11.9463 112.646 11.8574 112.391 11.6797 112.195C11.5065 111.999 11.2764 111.901 10.9893 111.901C10.7021 111.901 10.472 112.002 10.2988 112.202C10.1302 112.398 10.0459 112.658 10.0459 112.981V113.487ZM13.6689 118.56C13.6689 117.949 13.8672 117.454 14.2637 117.076C14.6602 116.698 15.166 116.509 15.7812 116.509C16.401 116.509 16.9069 116.698 17.2988 117.076C17.6953 117.454 17.8936 117.965 17.8936 118.607V119.093C17.8936 119.685 17.7021 120.175 17.3193 120.562C16.9411 120.945 16.4329 121.137 15.7949 121.137C15.1569 121.137 14.6419 120.948 14.25 120.569C13.8626 120.187 13.6689 119.683 13.6689 119.059V118.56ZM14.8311 119.093C14.8311 119.403 14.9199 119.658 15.0977 119.858C15.2799 120.054 15.5124 120.152 15.7949 120.152C16.0866 120.152 16.3145 120.059 16.4785 119.872C16.6471 119.681 16.7314 119.414 16.7314 119.072V118.56C16.7314 118.241 16.6426 117.985 16.4648 117.794C16.2871 117.603 16.0592 117.507 15.7812 117.507C15.4987 117.507 15.2686 117.603 15.0908 117.794C14.9176 117.985 14.8311 118.25 14.8311 118.587V119.093ZM11.3447 120.255L10.4902 119.763L15.3506 111.983L16.2051 112.476L11.3447 120.255Z" fill="black"/>
<path d="M121.438 121H114.745V119.858L118.061 116.242C118.539 115.709 118.879 115.265 119.079 114.909C119.284 114.549 119.387 114.189 119.387 113.829C119.387 113.355 119.252 112.972 118.983 112.681C118.719 112.389 118.361 112.243 117.91 112.243C117.372 112.243 116.955 112.407 116.659 112.735C116.363 113.063 116.215 113.512 116.215 114.082H114.554C114.554 113.476 114.69 112.931 114.964 112.448C115.242 111.961 115.636 111.582 116.146 111.313C116.661 111.045 117.254 110.91 117.924 110.91C118.89 110.91 119.651 111.154 120.207 111.642C120.768 112.125 121.048 112.795 121.048 113.651C121.048 114.148 120.907 114.67 120.624 115.217C120.346 115.759 119.888 116.377 119.25 117.069L116.816 119.674H121.438V121ZM129.439 116.81C129.439 118.241 129.171 119.321 128.633 120.05C128.1 120.774 127.286 121.137 126.192 121.137C125.117 121.137 124.306 120.784 123.759 120.077C123.216 119.366 122.938 118.316 122.925 116.926V115.203C122.925 113.772 123.191 112.699 123.725 111.983C124.262 111.268 125.08 110.91 126.179 110.91C127.268 110.91 128.079 111.259 128.612 111.956C129.15 112.653 129.426 113.697 129.439 115.087V116.81ZM127.778 114.95C127.778 114.016 127.651 113.332 127.396 112.899C127.14 112.462 126.735 112.243 126.179 112.243C125.636 112.243 125.238 112.451 124.982 112.865C124.727 113.275 124.593 113.918 124.579 114.793V117.049C124.579 117.979 124.709 118.671 124.969 119.127C125.229 119.583 125.636 119.811 126.192 119.811C126.726 119.811 127.12 119.601 127.375 119.182C127.63 118.758 127.765 118.097 127.778 117.199V114.95ZM131.091 112.961C131.091 112.359 131.285 111.867 131.672 111.484C132.059 111.097 132.567 110.903 133.196 110.903C133.834 110.903 134.345 111.097 134.728 111.484C135.115 111.867 135.309 112.371 135.309 112.995V113.487C135.309 114.084 135.115 114.574 134.728 114.957C134.345 115.34 133.839 115.531 133.21 115.531C132.595 115.531 132.087 115.344 131.686 114.971C131.289 114.592 131.091 114.084 131.091 113.446V112.961ZM132.253 113.487C132.253 113.802 132.34 114.057 132.513 114.253C132.69 114.444 132.923 114.54 133.21 114.54C133.493 114.54 133.72 114.444 133.894 114.253C134.067 114.057 134.153 113.793 134.153 113.46V112.961C134.153 112.646 134.064 112.391 133.887 112.195C133.714 111.999 133.483 111.901 133.196 111.901C132.909 111.901 132.679 112.002 132.506 112.202C132.337 112.398 132.253 112.658 132.253 112.981V113.487ZM135.876 118.56C135.876 117.949 136.074 117.454 136.471 117.076C136.867 116.698 137.373 116.509 137.988 116.509C138.608 116.509 139.114 116.698 139.506 117.076C139.902 117.454 140.101 117.965 140.101 118.607V119.093C140.101 119.685 139.909 120.175 139.526 120.562C139.148 120.945 138.64 121.137 138.002 121.137C137.364 121.137 136.849 120.948 136.457 120.569C136.07 120.187 135.876 119.683 135.876 119.059V118.56ZM137.038 119.093C137.038 119.403 137.127 119.658 137.305 119.858C137.487 120.054 137.719 120.152 138.002 120.152C138.294 120.152 138.521 120.059 138.686 119.872C138.854 119.681 138.938 119.414 138.938 119.072V118.56C138.938 118.241 138.85 117.985 138.672 117.794C138.494 117.603 138.266 117.507 137.988 117.507C137.706 117.507 137.476 117.603 137.298 117.794C137.125 117.985 137.038 118.25 137.038 118.587V119.093ZM133.552 120.255L132.697 119.763L137.558 111.983L138.412 112.476L133.552 120.255Z" fill="black"/>
<path d="M238.364 117.452H239.602V118.785H238.364V121H236.703V118.785H232.403L232.355 117.773L236.648 111.047H238.364V117.452ZM234.099 117.452H236.703V113.296L236.58 113.515L234.099 117.452ZM247.439 116.81C247.439 118.241 247.171 119.321 246.633 120.05C246.1 120.774 245.286 121.137 244.192 121.137C243.117 121.137 242.306 120.784 241.759 120.077C241.216 119.366 240.938 118.316 240.925 116.926V115.203C240.925 113.772 241.191 112.699 241.725 111.983C242.262 111.268 243.08 110.91 244.179 110.91C245.268 110.91 246.079 111.259 246.612 111.956C247.15 112.653 247.426 113.697 247.439 115.087V116.81ZM245.778 114.95C245.778 114.016 245.651 113.332 245.396 112.899C245.14 112.462 244.735 112.243 244.179 112.243C243.636 112.243 243.238 112.451 242.982 112.865C242.727 113.275 242.593 113.918 242.579 114.793V117.049C242.579 117.979 242.709 118.671 242.969 119.127C243.229 119.583 243.636 119.811 244.192 119.811C244.726 119.811 245.12 119.601 245.375 119.182C245.63 118.758 245.765 118.097 245.778 117.199V114.95ZM249.091 112.961C249.091 112.359 249.285 111.867 249.672 111.484C250.059 111.097 250.567 110.903 251.196 110.903C251.834 110.903 252.345 111.097 252.728 111.484C253.115 111.867 253.309 112.371 253.309 112.995V113.487C253.309 114.084 253.115 114.574 252.728 114.957C252.345 115.34 251.839 115.531 251.21 115.531C250.595 115.531 250.087 115.344 249.686 114.971C249.289 114.592 249.091 114.084 249.091 113.446V112.961ZM250.253 113.487C250.253 113.802 250.34 114.057 250.513 114.253C250.69 114.444 250.923 114.54 251.21 114.54C251.493 114.54 251.72 114.444 251.894 114.253C252.067 114.057 252.153 113.793 252.153 113.46V112.961C252.153 112.646 252.064 112.391 251.887 112.195C251.714 111.999 251.483 111.901 251.196 111.901C250.909 111.901 250.679 112.002 250.506 112.202C250.337 112.398 250.253 112.658 250.253 112.981V113.487ZM253.876 118.56C253.876 117.949 254.074 117.454 254.471 117.076C254.867 116.698 255.373 116.509 255.988 116.509C256.608 116.509 257.114 116.698 257.506 117.076C257.902 117.454 258.101 117.965 258.101 118.607V119.093C258.101 119.685 257.909 120.175 257.526 120.562C257.148 120.945 256.64 121.137 256.002 121.137C255.364 121.137 254.849 120.948 254.457 120.569C254.07 120.187 253.876 119.683 253.876 119.059V118.56ZM255.038 119.093C255.038 119.403 255.127 119.658 255.305 119.858C255.487 120.054 255.719 120.152 256.002 120.152C256.294 120.152 256.521 120.059 256.686 119.872C256.854 119.681 256.938 119.414 256.938 119.072V118.56C256.938 118.241 256.85 117.985 256.672 117.794C256.494 117.603 256.266 117.507 255.988 117.507C255.706 117.507 255.476 117.603 255.298 117.794C255.125 117.985 255.038 118.25 255.038 118.587V119.093ZM251.552 120.255L250.697 119.763L255.558 111.983L256.412 112.476L251.552 120.255Z" fill="black"/>
<path d="M358.913 110.999V112.373H358.708C357.778 112.387 357.035 112.642 356.479 113.139C355.924 113.635 355.593 114.34 355.488 115.251C356.021 114.69 356.703 114.41 357.532 114.41C358.412 114.41 359.104 114.72 359.61 115.34C360.121 115.96 360.376 116.759 360.376 117.739C360.376 118.751 360.077 119.571 359.48 120.2C358.888 120.825 358.109 121.137 357.143 121.137C356.149 121.137 355.342 120.77 354.723 120.036C354.107 119.302 353.8 118.341 353.8 117.151V116.584C353.8 114.839 354.224 113.471 355.071 112.482C355.924 111.493 357.147 110.999 358.742 110.999H358.913ZM357.129 115.75C356.764 115.75 356.429 115.853 356.124 116.058C355.823 116.263 355.602 116.536 355.461 116.878V117.384C355.461 118.122 355.616 118.71 355.926 119.147C356.236 119.58 356.637 119.797 357.129 119.797C357.621 119.797 358.011 119.612 358.298 119.243C358.585 118.874 358.729 118.389 358.729 117.787C358.729 117.186 358.583 116.696 358.291 116.317C357.999 115.939 357.612 115.75 357.129 115.75ZM368.439 116.81C368.439 118.241 368.171 119.321 367.633 120.05C367.1 120.774 366.286 121.137 365.192 121.137C364.117 121.137 363.306 120.784 362.759 120.077C362.216 119.366 361.938 118.316 361.925 116.926V115.203C361.925 113.772 362.191 112.699 362.725 111.983C363.262 111.268 364.08 110.91 365.179 110.91C366.268 110.91 367.079 111.259 367.612 111.956C368.15 112.653 368.426 113.697 368.439 115.087V116.81ZM366.778 114.95C366.778 114.016 366.651 113.332 366.396 112.899C366.14 112.462 365.735 112.243 365.179 112.243C364.636 112.243 364.238 112.451 363.982 112.865C363.727 113.275 363.593 113.918 363.579 114.793V117.049C363.579 117.979 363.709 118.671 363.969 119.127C364.229 119.583 364.636 119.811 365.192 119.811C365.726 119.811 366.12 119.601 366.375 119.182C366.63 118.758 366.765 118.097 366.778 117.199V114.95ZM370.091 112.961C370.091 112.359 370.285 111.867 370.672 111.484C371.059 111.097 371.567 110.903 372.196 110.903C372.834 110.903 373.345 111.097 373.728 111.484C374.115 111.867 374.309 112.371 374.309 112.995V113.487C374.309 114.084 374.115 114.574 373.728 114.957C373.345 115.34 372.839 115.531 372.21 115.531C371.595 115.531 371.087 115.344 370.686 114.971C370.289 114.592 370.091 114.084 370.091 113.446V112.961ZM371.253 113.487C371.253 113.802 371.34 114.057 371.513 114.253C371.69 114.444 371.923 114.54 372.21 114.54C372.493 114.54 372.72 114.444 372.894 114.253C373.067 114.057 373.153 113.793 373.153 113.46V112.961C373.153 112.646 373.064 112.391 372.887 112.195C372.714 111.999 372.483 111.901 372.196 111.901C371.909 111.901 371.679 112.002 371.506 112.202C371.337 112.398 371.253 112.658 371.253 112.981V113.487ZM374.876 118.56C374.876 117.949 375.074 117.454 375.471 117.076C375.867 116.698 376.373 116.509 376.988 116.509C377.608 116.509 378.114 116.698 378.506 117.076C378.902 117.454 379.101 117.965 379.101 118.607V119.093C379.101 119.685 378.909 120.175 378.526 120.562C378.148 120.945 377.64 121.137 377.002 121.137C376.364 121.137 375.849 120.948 375.457 120.569C375.07 120.187 374.876 119.683 374.876 119.059V118.56ZM376.038 119.093C376.038 119.403 376.127 119.658 376.305 119.858C376.487 120.054 376.719 120.152 377.002 120.152C377.294 120.152 377.521 120.059 377.686 119.872C377.854 119.681 377.938 119.414 377.938 119.072V118.56C377.938 118.241 377.85 117.985 377.672 117.794C377.494 117.603 377.266 117.507 376.988 117.507C376.706 117.507 376.476 117.603 376.298 117.794C376.125 117.985 376.038 118.25 376.038 118.587V119.093ZM372.552 120.255L371.697 119.763L376.558 111.983L377.412 112.476L372.552 120.255Z" fill="black"/>
<path d="M479.014 113.672C479.014 114.16 478.888 114.595 478.638 114.978C478.387 115.356 478.045 115.654 477.612 115.873C478.132 116.115 478.531 116.445 478.809 116.864C479.091 117.284 479.232 117.757 479.232 118.286C479.232 119.161 478.936 119.856 478.344 120.371C477.751 120.882 476.963 121.137 475.979 121.137C474.99 121.137 474.197 120.879 473.6 120.364C473.007 119.849 472.711 119.157 472.711 118.286C472.711 117.753 472.852 117.274 473.135 116.851C473.417 116.427 473.814 116.101 474.324 115.873C473.896 115.654 473.556 115.356 473.306 114.978C473.06 114.595 472.937 114.16 472.937 113.672C472.937 112.824 473.21 112.152 473.757 111.655C474.304 111.159 475.042 110.91 475.972 110.91C476.906 110.91 477.646 111.159 478.193 111.655C478.74 112.152 479.014 112.824 479.014 113.672ZM477.571 118.204C477.571 117.712 477.423 117.315 477.127 117.015C476.835 116.709 476.448 116.557 475.965 116.557C475.482 116.557 475.094 116.707 474.803 117.008C474.516 117.309 474.372 117.707 474.372 118.204C474.372 118.692 474.513 119.081 474.796 119.373C475.083 119.665 475.477 119.811 475.979 119.811C476.48 119.811 476.869 119.669 477.147 119.387C477.43 119.104 477.571 118.71 477.571 118.204ZM477.359 113.733C477.359 113.3 477.234 112.945 476.983 112.667C476.733 112.384 476.396 112.243 475.972 112.243C475.548 112.243 475.213 112.378 474.967 112.646C474.721 112.911 474.598 113.273 474.598 113.733C474.598 114.189 474.721 114.551 474.967 114.82C475.217 115.089 475.555 115.224 475.979 115.224C476.402 115.224 476.737 115.089 476.983 114.82C477.234 114.551 477.359 114.189 477.359 113.733ZM487.439 116.81C487.439 118.241 487.171 119.321 486.633 120.05C486.1 120.774 485.286 121.137 484.192 121.137C483.117 121.137 482.306 120.784 481.759 120.077C481.216 119.366 480.938 118.316 480.925 116.926V115.203C480.925 113.772 481.191 112.699 481.725 111.983C482.262 111.268 483.08 110.91 484.179 110.91C485.268 110.91 486.079 111.259 486.612 111.956C487.15 112.653 487.426 113.697 487.439 115.087V116.81ZM485.778 114.95C485.778 114.016 485.651 113.332 485.396 112.899C485.14 112.462 484.735 112.243 484.179 112.243C483.636 112.243 483.238 112.451 482.982 112.865C482.727 113.275 482.593 113.918 482.579 114.793V117.049C482.579 117.979 482.709 118.671 482.969 119.127C483.229 119.583 483.636 119.811 484.192 119.811C484.726 119.811 485.12 119.601 485.375 119.182C485.63 118.758 485.765 118.097 485.778 117.199V114.95ZM489.091 112.961C489.091 112.359 489.285 111.867 489.672 111.484C490.059 111.097 490.567 110.903 491.196 110.903C491.834 110.903 492.345 111.097 492.728 111.484C493.115 111.867 493.309 112.371 493.309 112.995V113.487C493.309 114.084 493.115 114.574 492.728 114.957C492.345 115.34 491.839 115.531 491.21 115.531C490.595 115.531 490.087 115.344 489.686 114.971C489.289 114.592 489.091 114.084 489.091 113.446V112.961ZM490.253 113.487C490.253 113.802 490.34 114.057 490.513 114.253C490.69 114.444 490.923 114.54 491.21 114.54C491.493 114.54 491.72 114.444 491.894 114.253C492.067 114.057 492.153 113.793 492.153 113.46V112.961C492.153 112.646 492.064 112.391 491.887 112.195C491.714 111.999 491.483 111.901 491.196 111.901C490.909 111.901 490.679 112.002 490.506 112.202C490.337 112.398 490.253 112.658 490.253 112.981V113.487ZM493.876 118.56C493.876 117.949 494.074 117.454 494.471 117.076C494.867 116.698 495.373 116.509 495.988 116.509C496.608 116.509 497.114 116.698 497.506 117.076C497.902 117.454 498.101 117.965 498.101 118.607V119.093C498.101 119.685 497.909 120.175 497.526 120.562C497.148 120.945 496.64 121.137 496.002 121.137C495.364 121.137 494.849 120.948 494.457 120.569C494.07 120.187 493.876 119.683 493.876 119.059V118.56ZM495.038 119.093C495.038 119.403 495.127 119.658 495.305 119.858C495.487 120.054 495.719 120.152 496.002 120.152C496.294 120.152 496.521 120.059 496.686 119.872C496.854 119.681 496.938 119.414 496.938 119.072V118.56C496.938 118.241 496.85 117.985 496.672 117.794C496.494 117.603 496.266 117.507 495.988 117.507C495.706 117.507 495.476 117.603 495.298 117.794C495.125 117.985 495.038 118.25 495.038 118.587V119.093ZM491.552 120.255L490.697 119.763L495.558 111.983L496.412 112.476L491.552 120.255Z" fill="black"/>
<path d="M596.243 121H594.589V113.009L592.148 113.843V112.441L596.031 111.013H596.243V121ZM606.439 116.81C606.439 118.241 606.171 119.321 605.633 120.05C605.1 120.774 604.286 121.137 603.192 121.137C602.117 121.137 601.306 120.784 600.759 120.077C600.216 119.366 599.938 118.316 599.925 116.926V115.203C599.925 113.772 600.191 112.699 600.725 111.983C601.262 111.268 602.08 110.91 603.179 110.91C604.268 110.91 605.079 111.259 605.612 111.956C606.15 112.653 606.426 113.697 606.439 115.087V116.81ZM604.778 114.95C604.778 114.016 604.651 113.332 604.396 112.899C604.14 112.462 603.735 112.243 603.179 112.243C602.636 112.243 602.238 112.451 601.982 112.865C601.727 113.275 601.593 113.918 601.579 114.793V117.049C601.579 117.979 601.709 118.671 601.969 119.127C602.229 119.583 602.636 119.811 603.192 119.811C603.726 119.811 604.12 119.601 604.375 119.182C604.63 118.758 604.765 118.097 604.778 117.199V114.95ZM614.646 116.81C614.646 118.241 614.378 119.321 613.84 120.05C613.307 120.774 612.493 121.137 611.399 121.137C610.324 121.137 609.513 120.784 608.966 120.077C608.424 119.366 608.146 118.316 608.132 116.926V115.203C608.132 113.772 608.398 112.699 608.932 111.983C609.469 111.268 610.287 110.91 611.386 110.91C612.475 110.91 613.286 111.259 613.819 111.956C614.357 112.653 614.633 113.697 614.646 115.087V116.81ZM612.985 114.95C612.985 114.016 612.858 113.332 612.603 112.899C612.347 112.462 611.942 112.243 611.386 112.243C610.843 112.243 610.445 112.451 610.189 112.865C609.934 113.275 609.8 113.918 609.786 114.793V117.049C609.786 117.979 609.916 118.671 610.176 119.127C610.436 119.583 610.843 119.811 611.399 119.811C611.933 119.811 612.327 119.601 612.582 119.182C612.837 118.758 612.972 118.097 612.985 117.199V114.95ZM616.298 112.961C616.298 112.359 616.492 111.867 616.879 111.484C617.266 111.097 617.774 110.903 618.403 110.903C619.041 110.903 619.552 111.097 619.935 111.484C620.322 111.867 620.516 112.371 620.516 112.995V113.487C620.516 114.084 620.322 114.574 619.935 114.957C619.552 115.34 619.046 115.531 618.417 115.531C617.802 115.531 617.294 115.344 616.893 114.971C616.496 114.592 616.298 114.084 616.298 113.446V112.961ZM617.46 113.487C617.46 113.802 617.547 114.057 617.72 114.253C617.897 114.444 618.13 114.54 618.417 114.54C618.7 114.54 618.927 114.444 619.101 114.253C619.274 114.057 619.36 113.793 619.36 113.46V112.961C619.36 112.646 619.271 112.391 619.094 112.195C618.921 111.999 618.69 111.901 618.403 111.901C618.116 111.901 617.886 112.002 617.713 112.202C617.544 112.398 617.46 112.658 617.46 112.981V113.487ZM621.083 118.56C621.083 117.949 621.281 117.454 621.678 117.076C622.074 116.698 622.58 116.509 623.195 116.509C623.815 116.509 624.321 116.698 624.713 117.076C625.109 117.454 625.308 117.965 625.308 118.607V119.093C625.308 119.685 625.116 120.175 624.733 120.562C624.355 120.945 623.847 121.137 623.209 121.137C622.571 121.137 622.056 120.948 621.664 120.569C621.277 120.187 621.083 119.683 621.083 119.059V118.56ZM622.245 119.093C622.245 119.403 622.334 119.658 622.512 119.858C622.694 120.054 622.926 120.152 623.209 120.152C623.501 120.152 623.729 120.059 623.893 119.872C624.061 119.681 624.146 119.414 624.146 119.072V118.56C624.146 118.241 624.057 117.985 623.879 117.794C623.701 117.603 623.473 117.507 623.195 117.507C622.913 117.507 622.683 117.603 622.505 117.794C622.332 117.985 622.245 118.25 622.245 118.587V119.093ZM618.759 120.255L617.904 119.763L622.765 111.983L623.619 112.476L618.759 120.255Z" fill="black"/>
<line x1="270" y1="75" x2="270" y2="20" stroke="#008FFF" stroke-width="2"/>
<path d="M222.5 2C222.5 1.17157 223.172 0.5 224 0.5H314C314.828 0.5 315.5 1.17157 315.5 2V18C315.5 18.8284 314.828 19.5 314 19.5H224C223.172 19.5 222.5 18.8284 222.5 18V2Z" stroke="#008FFF"/>
<path d="M233.266 12.293C233.16 13.1953 232.826 13.8926 232.264 14.3848C231.705 14.873 230.961 15.1172 230.031 15.1172C229.023 15.1172 228.215 14.7559 227.605 14.0332C227 13.3105 226.697 12.3438 226.697 11.1328V10.3125C226.697 9.51953 226.838 8.82227 227.119 8.2207C227.404 7.61914 227.807 7.1582 228.326 6.83789C228.846 6.51367 229.447 6.35156 230.131 6.35156C231.037 6.35156 231.764 6.60547 232.311 7.11328C232.857 7.61719 233.176 8.31641 233.266 9.21094H232.135C232.037 8.53125 231.824 8.03906 231.496 7.73438C231.172 7.42969 230.717 7.27734 230.131 7.27734C229.412 7.27734 228.848 7.54297 228.438 8.07422C228.031 8.60547 227.828 9.36133 227.828 10.3418V11.168C227.828 12.0938 228.021 12.8301 228.408 13.377C228.795 13.9238 229.336 14.1973 230.031 14.1973C230.656 14.1973 231.135 14.0566 231.467 13.7754C231.803 13.4902 232.025 12.9961 232.135 12.293H233.266ZM241.212 6.46875V12.2695C241.209 13.0742 240.955 13.7324 240.451 14.2441C239.951 14.7559 239.271 15.043 238.412 15.1055L238.113 15.1172C237.179 15.1172 236.435 14.8652 235.88 14.3613C235.326 13.8574 235.045 13.1641 235.037 12.2812V6.46875H236.15V12.2461C236.15 12.8633 236.32 13.3438 236.66 13.6875C237 14.0273 237.484 14.1973 238.113 14.1973C238.75 14.1973 239.236 14.0273 239.572 13.6875C239.912 13.3477 240.082 12.8691 240.082 12.252V6.46875H241.212ZM246.517 11.5488H244.513V15H243.382V6.46875H246.206C247.167 6.46875 247.905 6.6875 248.421 7.125C248.941 7.5625 249.2 8.19922 249.2 9.03516C249.2 9.56641 249.056 10.0293 248.767 10.4238C248.482 10.8184 248.083 11.1133 247.571 11.3086L249.575 14.9297V15H248.368L246.517 11.5488ZM244.513 10.6289H246.241C246.8 10.6289 247.243 10.4844 247.571 10.1953C247.904 9.90625 248.07 9.51953 248.07 9.03516C248.07 8.50781 247.911 8.10352 247.595 7.82227C247.282 7.54102 246.829 7.39844 246.236 7.39453H244.513V10.6289ZM254.311 11.5488H252.307V15H251.177V6.46875H254.001C254.962 6.46875 255.7 6.6875 256.216 7.125C256.735 7.5625 256.995 8.19922 256.995 9.03516C256.995 9.56641 256.85 10.0293 256.561 10.4238C256.276 10.8184 255.878 11.1133 255.366 11.3086L257.37 14.9297V15H256.163L254.311 11.5488ZM252.307 10.6289H254.036C254.595 10.6289 255.038 10.4844 255.366 10.1953C255.698 9.90625 255.864 9.51953 255.864 9.03516C255.864 8.50781 255.706 8.10352 255.389 7.82227C255.077 7.54102 254.624 7.39844 254.03 7.39453H252.307V10.6289ZM263.799 11.0566H260.102V14.0801H264.397V15H258.977V6.46875H264.338V7.39453H260.102V10.1367H263.799V11.0566ZM272.754 15H271.623L267.328 8.42578V15H266.197V6.46875H267.328L271.635 13.0723V6.46875H272.754V15ZM280.871 7.39453H278.129V15H277.009V7.39453H274.273V6.46875H280.871V7.39453ZM282.331 14.4316C282.331 14.2441 282.386 14.0879 282.495 13.9629C282.609 13.8379 282.777 13.7754 282.999 13.7754C283.222 13.7754 283.39 13.8379 283.503 13.9629C283.62 14.0879 283.679 14.2441 283.679 14.4316C283.679 14.6113 283.62 14.7617 283.503 14.8828C283.39 15.0039 283.222 15.0645 282.999 15.0645C282.777 15.0645 282.609 15.0039 282.495 14.8828C282.386 14.7617 282.331 14.6113 282.331 14.4316ZM282.337 9.25781C282.337 9.07031 282.392 8.91406 282.501 8.78906C282.614 8.66406 282.782 8.60156 283.005 8.60156C283.228 8.60156 283.396 8.66406 283.509 8.78906C283.626 8.91406 283.685 9.07031 283.685 9.25781C283.685 9.4375 283.626 9.58789 283.509 9.70898C283.396 9.83008 283.228 9.89062 283.005 9.89062C282.782 9.89062 282.614 9.83008 282.501 9.70898C282.392 9.58789 282.337 9.4375 282.337 9.25781ZM293.514 12.1348H294.698V13.0195H293.514V15H292.424V13.0195H288.539V12.3809L292.36 6.46875H293.514V12.1348ZM289.77 12.1348H292.424V7.95117L292.295 8.18555L289.77 12.1348ZM297.652 10.207H298.467C298.979 10.1992 299.381 10.0645 299.674 9.80273C299.967 9.54102 300.113 9.1875 300.113 8.74219C300.113 7.74219 299.615 7.24219 298.619 7.24219C298.15 7.24219 297.775 7.37695 297.494 7.64648C297.217 7.91211 297.078 8.26562 297.078 8.70703H295.994C295.994 8.03125 296.24 7.4707 296.732 7.02539C297.229 6.57617 297.857 6.35156 298.619 6.35156C299.424 6.35156 300.055 6.56445 300.512 6.99023C300.969 7.41602 301.197 8.00781 301.197 8.76562C301.197 9.13672 301.076 9.49609 300.834 9.84375C300.596 10.1914 300.27 10.4512 299.855 10.623C300.324 10.7715 300.686 11.0176 300.939 11.3613C301.197 11.7051 301.326 12.125 301.326 12.6211C301.326 13.3867 301.076 13.9941 300.576 14.4434C300.076 14.8926 299.426 15.1172 298.625 15.1172C297.824 15.1172 297.172 14.9004 296.668 14.4668C296.168 14.0332 295.918 13.4609 295.918 12.75H297.008C297.008 13.1992 297.154 13.5586 297.447 13.8281C297.74 14.0977 298.133 14.2324 298.625 14.2324C299.148 14.2324 299.549 14.0957 299.826 13.8223C300.104 13.5488 300.242 13.1562 300.242 12.6445C300.242 12.1484 300.09 11.7676 299.785 11.502C299.48 11.2363 299.041 11.0996 298.467 11.0918H297.652V10.207ZM303.121 8.10938C303.121 7.59766 303.283 7.17578 303.607 6.84375C303.935 6.51172 304.355 6.3457 304.867 6.3457C305.386 6.3457 305.806 6.51367 306.127 6.84961C306.451 7.18164 306.613 7.61328 306.613 8.14453V8.56055C306.613 9.07617 306.449 9.49805 306.121 9.82617C305.796 10.1504 305.382 10.3125 304.879 10.3125C304.371 10.3125 303.951 10.1504 303.619 9.82617C303.287 9.49805 303.121 9.0625 303.121 8.51953V8.10938ZM303.929 8.56055C303.929 8.86523 304.015 9.11719 304.187 9.31641C304.359 9.51172 304.589 9.60938 304.879 9.60938C305.156 9.60938 305.379 9.51367 305.546 9.32227C305.718 9.13086 305.804 8.86914 305.804 8.53711V8.10938C305.804 7.80469 305.72 7.55273 305.552 7.35352C305.384 7.1543 305.156 7.05469 304.867 7.05469C304.578 7.05469 304.349 7.1543 304.181 7.35352C304.013 7.55273 303.929 7.8125 303.929 8.13281V8.56055ZM307.275 12.9082C307.275 12.3965 307.437 11.9766 307.761 11.6484C308.089 11.3164 308.509 11.1504 309.021 11.1504C309.533 11.1504 309.953 11.3145 310.281 11.6426C310.609 11.9707 310.773 12.4062 310.773 12.9492V13.3652C310.773 13.877 310.609 14.2988 310.281 14.6309C309.957 14.959 309.541 15.123 309.033 15.123C308.525 15.123 308.105 14.9609 307.773 14.6367C307.441 14.3086 307.275 13.873 307.275 13.3301V12.9082ZM308.084 13.3652C308.084 13.6738 308.17 13.9277 308.341 14.127C308.513 14.3223 308.744 14.4199 309.033 14.4199C309.314 14.4199 309.539 14.3242 309.707 14.1328C309.875 13.9375 309.959 13.6738 309.959 13.3418V12.9082C309.959 12.5996 309.873 12.3477 309.701 12.1523C309.533 11.957 309.306 11.8594 309.021 11.8594C308.744 11.8594 308.517 11.957 308.341 12.1523C308.17 12.3438 308.084 12.6035 308.084 12.9316V13.3652ZM305.125 14.3555L304.509 13.9688L308.675 7.30078L309.291 7.6875L305.125 14.3555Z" fill="#008FFF"/>
<path d="M351.5 142C351.5 141.172 352.172 140.5 353 140.5H499C499.828 140.5 500.5 141.172 500.5 142V158C500.5 158.828 499.828 159.5 499 159.5H353C352.172 159.5 351.5 158.828 351.5 158V142Z" stroke="#008FFF"/>
<path d="M362.266 152.293C362.16 153.195 361.826 153.893 361.264 154.385C360.705 154.873 359.961 155.117 359.031 155.117C358.023 155.117 357.215 154.756 356.605 154.033C356 153.311 355.697 152.344 355.697 151.133V150.312C355.697 149.52 355.838 148.822 356.119 148.221C356.404 147.619 356.807 147.158 357.326 146.838C357.846 146.514 358.447 146.352 359.131 146.352C360.037 146.352 360.764 146.605 361.311 147.113C361.857 147.617 362.176 148.316 362.266 149.211H361.135C361.037 148.531 360.824 148.039 360.496 147.734C360.172 147.43 359.717 147.277 359.131 147.277C358.412 147.277 357.848 147.543 357.438 148.074C357.031 148.605 356.828 149.361 356.828 150.342V151.168C356.828 152.094 357.021 152.83 357.408 153.377C357.795 153.924 358.336 154.197 359.031 154.197C359.656 154.197 360.135 154.057 360.467 153.775C360.803 153.49 361.025 152.996 361.135 152.293H362.266ZM370.769 151.01C370.769 151.846 370.629 152.576 370.347 153.201C370.066 153.822 369.668 154.297 369.152 154.625C368.636 154.953 368.035 155.117 367.347 155.117C366.675 155.117 366.08 154.953 365.56 154.625C365.041 154.293 364.636 153.822 364.347 153.213C364.062 152.6 363.916 151.891 363.908 151.086V150.471C363.908 149.65 364.05 148.926 364.336 148.297C364.621 147.668 365.023 147.188 365.543 146.855C366.066 146.52 366.664 146.352 367.336 146.352C368.019 146.352 368.621 146.518 369.14 146.85C369.664 147.178 370.066 147.656 370.347 148.285C370.629 148.91 370.769 149.639 370.769 150.471V151.01ZM369.65 150.459C369.65 149.447 369.447 148.672 369.041 148.133C368.634 147.59 368.066 147.318 367.336 147.318C366.625 147.318 366.064 147.59 365.654 148.133C365.248 148.672 365.039 149.422 365.027 150.383V151.01C365.027 151.99 365.232 152.762 365.642 153.324C366.056 153.883 366.625 154.162 367.347 154.162C368.074 154.162 368.636 153.898 369.035 153.371C369.433 152.84 369.638 152.08 369.65 151.092V150.459ZM374.31 146.469L377.099 153.43L379.888 146.469H381.347V155H380.222V151.678L380.327 148.092L377.527 155H376.665L373.87 148.109L373.982 151.678V155H372.857V146.469H374.31ZM388.438 151.232H384.858V155H383.733V146.469H389.018V147.395H384.858V150.312H388.438V151.232ZM397.329 151.01C397.329 151.846 397.188 152.576 396.907 153.201C396.625 153.822 396.227 154.297 395.711 154.625C395.196 154.953 394.594 155.117 393.907 155.117C393.235 155.117 392.639 154.953 392.12 154.625C391.6 154.293 391.196 153.822 390.907 153.213C390.621 152.6 390.475 151.891 390.467 151.086V150.471C390.467 149.65 390.61 148.926 390.895 148.297C391.18 147.668 391.582 147.188 392.102 146.855C392.625 146.52 393.223 146.352 393.895 146.352C394.579 146.352 395.18 146.518 395.7 146.85C396.223 147.178 396.625 147.656 396.907 148.285C397.188 148.91 397.329 149.639 397.329 150.471V151.01ZM396.209 150.459C396.209 149.447 396.006 148.672 395.6 148.133C395.194 147.59 394.625 147.318 393.895 147.318C393.184 147.318 392.623 147.59 392.213 148.133C391.807 148.672 391.598 149.422 391.586 150.383V151.01C391.586 151.99 391.791 152.762 392.202 153.324C392.616 153.883 393.184 154.162 393.907 154.162C394.633 154.162 395.196 153.898 395.594 153.371C395.993 152.84 396.198 152.08 396.209 151.092V150.459ZM402.545 151.549H400.541V155H399.41V146.469H402.234C403.195 146.469 403.934 146.688 404.449 147.125C404.969 147.562 405.229 148.199 405.229 149.035C405.229 149.566 405.084 150.029 404.795 150.424C404.51 150.818 404.111 151.113 403.6 151.309L405.604 154.93V155H404.396L402.545 151.549ZM400.541 150.629H402.27C402.828 150.629 403.271 150.484 403.6 150.195C403.932 149.906 404.098 149.52 404.098 149.035C404.098 148.508 403.939 148.104 403.623 147.822C403.311 147.541 402.857 147.398 402.264 147.395H400.541V150.629ZM412.636 147.395H409.894V155H408.775V147.395H406.039V146.469H412.636V147.395ZM418.288 154.08H423.169V155H416.958V154.156L421.634 147.395H417.034V146.469H422.981V147.295L418.288 154.08ZM431.438 151.01C431.438 151.846 431.297 152.576 431.016 153.201C430.735 153.822 430.336 154.297 429.821 154.625C429.305 154.953 428.704 155.117 428.016 155.117C427.344 155.117 426.748 154.953 426.229 154.625C425.709 154.293 425.305 153.822 425.016 153.213C424.731 152.6 424.584 151.891 424.577 151.086V150.471C424.577 149.65 424.719 148.926 425.004 148.297C425.289 147.668 425.692 147.188 426.211 146.855C426.735 146.52 427.332 146.352 428.004 146.352C428.688 146.352 429.289 146.518 429.809 146.85C430.332 147.178 430.735 147.656 431.016 148.285C431.297 148.91 431.438 149.639 431.438 150.471V151.01ZM430.319 150.459C430.319 149.447 430.116 148.672 429.709 148.133C429.303 147.59 428.735 147.318 428.004 147.318C427.293 147.318 426.733 147.59 426.323 148.133C425.916 148.672 425.707 149.422 425.696 150.383V151.01C425.696 151.99 425.901 152.762 426.311 153.324C426.725 153.883 427.293 154.162 428.016 154.162C428.743 154.162 429.305 153.898 429.704 153.371C430.102 152.84 430.307 152.08 430.319 151.092V150.459ZM440.082 155H438.951L434.656 148.426V155H433.525V146.469H434.656L438.963 153.072V146.469H440.082V155ZM447.302 151.057H443.605V154.08H447.9V155H442.48V146.469H447.841V147.395H443.605V150.137H447.302V151.057ZM449.495 154.432C449.495 154.244 449.55 154.088 449.659 153.963C449.773 153.838 449.941 153.775 450.163 153.775C450.386 153.775 450.554 153.838 450.667 153.963C450.784 154.088 450.843 154.244 450.843 154.432C450.843 154.611 450.784 154.762 450.667 154.883C450.554 155.004 450.386 155.064 450.163 155.064C449.941 155.064 449.773 155.004 449.659 154.883C449.55 154.762 449.495 154.611 449.495 154.432ZM449.501 149.258C449.501 149.07 449.556 148.914 449.665 148.789C449.779 148.664 449.946 148.602 450.169 148.602C450.392 148.602 450.56 148.664 450.673 148.789C450.79 148.914 450.849 149.07 450.849 149.258C450.849 149.438 450.79 149.588 450.673 149.709C450.56 149.83 450.392 149.891 450.169 149.891C449.946 149.891 449.779 149.83 449.665 149.709C449.556 149.588 449.501 149.438 449.501 149.258ZM460.356 146.463V147.383H460.157C459.313 147.398 458.641 147.648 458.141 148.133C457.641 148.617 457.352 149.299 457.274 150.178C457.723 149.662 458.336 149.404 459.114 149.404C459.856 149.404 460.448 149.666 460.889 150.189C461.334 150.713 461.557 151.389 461.557 152.217C461.557 153.096 461.317 153.799 460.836 154.326C460.36 154.854 459.719 155.117 458.914 155.117C458.098 155.117 457.436 154.805 456.928 154.18C456.42 153.551 456.166 152.742 456.166 151.754V151.338C456.166 149.768 456.5 148.568 457.168 147.74C457.84 146.908 458.838 146.482 460.162 146.463H460.356ZM458.932 150.307C458.561 150.307 458.219 150.418 457.907 150.641C457.594 150.863 457.377 151.143 457.256 151.479V151.877C457.256 152.58 457.414 153.146 457.731 153.576C458.047 154.006 458.442 154.221 458.914 154.221C459.403 154.221 459.786 154.041 460.063 153.682C460.344 153.322 460.485 152.852 460.485 152.27C460.485 151.684 460.342 151.211 460.057 150.852C459.776 150.488 459.401 150.307 458.932 150.307ZM468.59 151.361C468.59 152.631 468.373 153.574 467.939 154.191C467.506 154.809 466.828 155.117 465.906 155.117C464.996 155.117 464.322 154.816 463.885 154.215C463.447 153.609 463.221 152.707 463.205 151.508V150.061C463.205 148.807 463.422 147.875 463.855 147.266C464.289 146.656 464.969 146.352 465.895 146.352C466.812 146.352 467.488 146.646 467.922 147.236C468.355 147.822 468.578 148.729 468.59 149.955V151.361ZM467.506 149.879C467.506 148.961 467.377 148.293 467.119 147.875C466.861 147.453 466.453 147.242 465.895 147.242C465.34 147.242 464.936 147.451 464.682 147.869C464.428 148.287 464.297 148.93 464.289 149.797V151.531C464.289 152.453 464.422 153.135 464.688 153.576C464.957 154.014 465.363 154.232 465.906 154.232C466.441 154.232 466.838 154.025 467.096 153.611C467.357 153.197 467.494 152.545 467.506 151.654V149.879ZM472.746 151.818H469.886V150.934H472.746V151.818ZM479.269 148.695C479.269 149.121 479.155 149.5 478.929 149.832C478.706 150.164 478.404 150.424 478.021 150.611C478.466 150.803 478.818 151.082 479.075 151.449C479.337 151.816 479.468 152.232 479.468 152.697C479.468 153.436 479.218 154.023 478.718 154.461C478.222 154.898 477.568 155.117 476.755 155.117C475.935 155.117 475.277 154.898 474.78 154.461C474.288 154.02 474.042 153.432 474.042 152.697C474.042 152.236 474.167 151.82 474.417 151.449C474.671 151.078 475.021 150.797 475.466 150.605C475.087 150.418 474.788 150.158 474.57 149.826C474.351 149.494 474.241 149.117 474.241 148.695C474.241 147.977 474.472 147.406 474.933 146.984C475.394 146.562 476.001 146.352 476.755 146.352C477.505 146.352 478.111 146.562 478.571 146.984C479.036 147.406 479.269 147.977 479.269 148.695ZM478.384 152.674C478.384 152.197 478.232 151.809 477.927 151.508C477.626 151.207 477.232 151.057 476.743 151.057C476.255 151.057 475.863 151.205 475.566 151.502C475.273 151.799 475.126 152.189 475.126 152.674C475.126 153.158 475.269 153.539 475.554 153.816C475.843 154.094 476.243 154.232 476.755 154.232C477.263 154.232 477.661 154.094 477.95 153.816C478.239 153.535 478.384 153.154 478.384 152.674ZM476.755 147.242C476.329 147.242 475.984 147.375 475.718 147.641C475.456 147.902 475.325 148.26 475.325 148.713C475.325 149.146 475.454 149.498 475.712 149.768C475.974 150.033 476.321 150.166 476.755 150.166C477.189 150.166 477.534 150.033 477.792 149.768C478.054 149.498 478.185 149.146 478.185 148.713C478.185 148.279 478.05 147.926 477.78 147.652C477.511 147.379 477.169 147.242 476.755 147.242ZM486.583 151.361C486.583 152.631 486.366 153.574 485.932 154.191C485.499 154.809 484.821 155.117 483.899 155.117C482.989 155.117 482.315 154.816 481.878 154.215C481.44 153.609 481.214 152.707 481.198 151.508V150.061C481.198 148.807 481.415 147.875 481.848 147.266C482.282 146.656 482.962 146.352 483.887 146.352C484.805 146.352 485.481 146.646 485.915 147.236C486.348 147.822 486.571 148.729 486.583 149.955V151.361ZM485.499 149.879C485.499 148.961 485.37 148.293 485.112 147.875C484.854 147.453 484.446 147.242 483.887 147.242C483.333 147.242 482.929 147.451 482.675 147.869C482.421 148.287 482.29 148.93 482.282 149.797V151.531C482.282 152.453 482.415 153.135 482.68 153.576C482.95 154.014 483.356 154.232 483.899 154.232C484.434 154.232 484.831 154.025 485.089 153.611C485.35 153.197 485.487 152.545 485.499 151.654V149.879ZM488.278 148.109C488.278 147.598 488.44 147.176 488.764 146.844C489.092 146.512 489.512 146.346 490.024 146.346C490.543 146.346 490.963 146.514 491.284 146.85C491.608 147.182 491.77 147.613 491.77 148.145V148.561C491.77 149.076 491.606 149.498 491.278 149.826C490.954 150.15 490.539 150.312 490.036 150.312C489.528 150.312 489.108 150.15 488.776 149.826C488.444 149.498 488.278 149.062 488.278 148.52V148.109ZM489.086 148.561C489.086 148.865 489.172 149.117 489.344 149.316C489.516 149.512 489.746 149.609 490.036 149.609C490.313 149.609 490.536 149.514 490.704 149.322C490.875 149.131 490.961 148.869 490.961 148.537V148.109C490.961 147.805 490.877 147.553 490.709 147.354C490.541 147.154 490.313 147.055 490.024 147.055C489.735 147.055 489.506 147.154 489.338 147.354C489.17 147.553 489.086 147.812 489.086 148.133V148.561ZM492.432 152.908C492.432 152.396 492.594 151.977 492.918 151.648C493.246 151.316 493.666 151.15 494.178 151.15C494.69 151.15 495.11 151.314 495.438 151.643C495.766 151.971 495.93 152.406 495.93 152.949V153.365C495.93 153.877 495.766 154.299 495.438 154.631C495.114 154.959 494.698 155.123 494.19 155.123C493.682 155.123 493.262 154.961 492.93 154.637C492.598 154.309 492.432 153.873 492.432 153.33V152.908ZM493.241 153.365C493.241 153.674 493.327 153.928 493.498 154.127C493.67 154.322 493.901 154.42 494.19 154.42C494.471 154.42 494.696 154.324 494.864 154.133C495.032 153.938 495.116 153.674 495.116 153.342V152.908C495.116 152.6 495.03 152.348 494.858 152.152C494.69 151.957 494.463 151.859 494.178 151.859C493.901 151.859 493.674 151.957 493.498 152.152C493.327 152.344 493.241 152.604 493.241 152.932V153.365ZM490.282 154.355L489.666 153.969L493.832 147.301L494.448 147.688L490.282 154.355Z" fill="#008FFF"/>
<line x1="605.5" y1="93" x2="605.5" y2="23" stroke="#83959D"/>
<line x1="6.5" y1="93" x2="6.5" y2="23" stroke="#83959D"/>
<line x1="6" y1="91.5" x2="606" y2="91.5" stroke="#1F1F1F" stroke-width="3"/>
<line x1="604.5" y1="103" x2="604.5" y2="93" stroke="#1F1F1F" stroke-width="3"/>
<line x1="484.5" y1="103" x2="484.5" y2="93" stroke="#1F1F1F" stroke-width="3"/>
<line x1="364.5" y1="103" x2="364.5" y2="93" stroke="#1F1F1F" stroke-width="3"/>
<path d="M244.5 103V93" stroke="#1F1F1F" stroke-width="3"/>
<line x1="124.5" y1="103" x2="124.5" y2="93" stroke="#1F1F1F" stroke-width="3"/>
<line x1="7.5" y1="103" x2="7.5" y2="93" stroke="#1F1F1F" stroke-width="3"/>
<defs>
<clipPath id="clip0">
<rect width="22" height="17.8095" fill="white" transform="translate(373 48)"/>
</clipPath>
<clipPath id="clip1">
<rect width="22" height="17.8095" fill="white" transform="translate(479 65.8096) rotate(-180)"/>
</clipPath>
</defs>
</svg>
