<svg width="21" height="21" viewBox="0 0 21 21" fill="none" xmlns="http://www.w3.org/2000/svg">
<path d="M16.1872 9.52589L9.41073 16.3023C8.10848 17.6046 5.99894 17.6046 4.69669 16.3023C3.39443 15.0001 3.39443 12.8905 4.69669 11.5883L12.0624 4.22259C12.8756 3.40942 14.1955 3.40942 15.0087 4.22259C15.8218 5.03577 15.8218 6.3557 15.0087 7.16887L8.82148 13.3561C8.49739 13.6801 7.96706 13.6801 7.64297 13.3561C7.31888 13.032 7.31888 12.5016 7.64297 12.1775L13.2409 6.57962L12.357 5.69573L6.75908 11.2937C5.94591 12.1068 5.94591 13.4268 6.75908 14.2399C7.57226 15.0531 8.89219 15.0531 9.70536 14.2399L15.8925 8.05275C17.1948 6.7505 17.1948 4.64096 15.8925 3.33871C14.5903 2.03646 12.4808 2.03646 11.1785 3.33871L3.81281 10.7044C2.02147 12.4957 2.02147 15.3949 3.8128 17.1862C5.60414 18.9776 8.50328 18.9776 10.2946 17.1862L17.0711 10.4098L16.1872 9.52589Z" fill="#757575"/>
</svg>
