<svg width="21" height="20" viewBox="0 0 21 20" fill="none" xmlns="http://www.w3.org/2000/svg">
<path d="M16.3291 8.66945L9.5527 15.4459C8.25045 16.7481 6.14091 16.7481 4.83866 15.4459C3.5364 14.1436 3.5364 12.0341 4.83866 10.7318L12.2044 3.36615C13.0175 2.55298 14.3375 2.55298 15.1506 3.36615C15.9638 4.17932 15.9638 5.49925 15.1506 6.31243L8.96345 12.4996C8.63936 12.8237 8.10903 12.8237 7.78493 12.4996C7.46084 12.1755 7.46084 11.6452 7.78493 11.3211L13.3829 5.72317L12.499 4.83929L6.90105 10.4372C6.08788 11.2504 6.08788 12.5703 6.90105 13.3835C7.71422 14.1967 9.03416 14.1967 9.84733 13.3835L16.0345 7.19631C17.3368 5.89405 17.3368 3.78452 16.0345 2.48226C14.7323 1.18001 12.6227 1.18001 11.3205 2.48227L3.95477 9.84796C2.16344 11.6393 2.16344 14.5384 3.95477 16.3298C5.74611 18.1211 8.64525 18.1211 10.4366 16.3298L17.213 9.55333L16.3291 8.66945Z" fill="black"/>
</svg>
