<svg width="21" height="20" viewBox="0 0 21 20" fill="none" xmlns="http://www.w3.org/2000/svg">
<path d="M16.3291 9.04787L9.5527 15.8243C8.25045 17.1266 6.14091 17.1266 4.83866 15.8243C3.5364 14.5221 3.5364 12.4125 4.83866 11.1103L12.2044 3.74457C13.0175 2.93139 14.3375 2.93139 15.1506 3.74457C15.9638 4.55774 15.9638 5.87767 15.1506 6.69084L8.96345 12.878C8.63936 13.2021 8.10902 13.2021 7.78493 12.878C7.46084 12.5539 7.46084 12.0236 7.78493 11.6995L13.3829 6.10159L12.499 5.21771L6.90105 10.8156C6.08788 11.6288 6.08788 12.9487 6.90105 13.7619C7.71422 14.5751 9.03416 14.5751 9.84733 13.7619L16.0345 7.57473C17.3368 6.27247 17.3368 4.16294 16.0345 2.86068C14.7323 1.55843 12.6227 1.55843 11.3205 2.86068L3.95477 10.2264C2.16344 12.0177 2.16344 14.9169 3.95477 16.7082C5.74611 18.4995 8.64525 18.4995 10.4366 16.7082L17.213 9.93175L16.3291 9.04787Z" fill="#757575"/>
</svg>
