<svg width="247" height="78" viewBox="0 0 247 78" fill="none" xmlns="http://www.w3.org/2000/svg">
<path d="M0 0H247V78H0V0Z" fill="white"/>
<path d="M2.802 58.3145H244.198" stroke="#83959D" stroke-width="0.5" stroke-miterlimit="10"/>
<path d="M24.5706 58.6856H14.2251V57.5713C14.2251 56.9559 14.5146 56.457 14.8717 56.457H23.9241C24.2812 56.457 24.5706 56.9559 24.5706 57.5713V58.6856Z" fill="#008FFF"/>
<path d="M57.3316 58.6855H46.9861V10.3998C46.9861 9.57924 47.3721 8.91406 47.8482 8.91406H56.4695C56.9456 8.91406 57.3316 9.57924 57.3316 10.3998V58.6855Z" fill="#008FFF"/>
<path d="M90.0926 58.6858H79.7471V17.0858C79.7471 16.2653 80.1331 15.6001 80.6092 15.6001H89.2305C89.7066 15.6001 90.0926 16.2653 90.0926 17.0858V58.6858Z" fill="#008FFF"/>
<path d="M123.285 58.6855H112.939V10.3998C112.939 9.57924 113.325 8.91406 113.801 8.91406H122.422C122.899 8.91406 123.285 9.57924 123.285 10.3998V58.6855Z" fill="#008FFF"/>
<path d="M156.045 58.6857H145.7V27.4857C145.7 26.6652 146.086 26 146.562 26H155.183C155.659 26 156.045 26.6652 156.045 27.4857V58.6857Z" fill="#008FFF"/>
<path d="M188.806 58.6857H178.461V9.6571C178.461 8.83656 178.847 8.17139 179.323 8.17139H187.944C188.42 8.17139 188.806 8.83656 188.806 9.6571V58.6857Z" fill="#008FFF"/>
<path d="M221.567 58.6859H211.222V57.9431C211.222 57.5328 211.415 57.2002 211.653 57.2002H221.136C221.374 57.2002 221.567 57.5328 221.567 57.9431V58.6859Z" fill="#008FFF"/>
<path d="M35.3473 58.6856H25.0017V57.5713C25.0017 56.9559 25.2912 56.457 25.6483 56.457H34.7007C35.0578 56.457 35.3473 56.9559 35.3473 57.5713V58.6856Z" fill="#02B875"/>
<path d="M68.1082 58.6859H57.7627V8.91443C57.7627 8.09389 58.1487 7.42871 58.6248 7.42871H67.2461C67.7223 7.42871 68.1082 8.09389 68.1082 8.91443V58.6859Z" fill="#02B875"/>
<path d="M100.869 58.6857H90.5237V21.5428C90.5237 20.7223 90.9097 20.0571 91.3858 20.0571H100.007C100.483 20.0571 100.869 20.7223 100.869 21.5428V58.6857Z" fill="#02B875"/>
<path d="M134.061 58.6859H123.716V14.8573C123.716 14.0368 124.102 13.3716 124.578 13.3716H133.199C133.675 13.3716 134.061 14.0368 134.061 14.8573V58.6859Z" fill="#02B875"/>
<path d="M166.822 58.6859H156.476V26.743C156.476 25.9225 156.862 25.2573 157.338 25.2573H165.96C166.436 25.2573 166.822 25.9225 166.822 26.743V58.6859Z" fill="#02B875"/>
<path d="M199.583 58.6855H189.237V42.3426C189.237 41.5221 189.623 40.8569 190.099 40.8569H198.721C199.197 40.8569 199.583 41.5221 199.583 42.3426V58.6855Z" fill="#02B875"/>
<path d="M232.344 58.6857H221.998V58.3143C221.998 58.1092 222.095 57.9429 222.214 57.9429H232.128C232.247 57.9429 232.344 58.1092 232.344 58.3143V58.6857Z" fill="#02B875"/>
<path d="M21.1292 71.3932V64.7075H22.3863L23.872 69.4361C24.0092 69.8819 24.1082 70.2141 24.1692 70.4329C24.2377 70.1898 24.3482 69.8332 24.5006 69.3632L26.0092 64.7075H27.1292V71.3932H26.3292V65.8015L24.5006 71.3932H23.7463L21.9292 65.7043V71.3932H21.1292Z" fill="black"/>
<path d="M58.4553 71.0914V65.462H56.3796V64.7075H61.3796V65.462H59.2925V71.0914H58.4553Z" fill="black"/>
<path d="M89.5623 71.0914L88.3232 64.7075H88.9597L89.6726 68.8977C89.7462 69.331 89.8112 69.7644 89.8678 70.1977C89.9866 69.5167 90.0573 69.1221 90.08 69.0138L90.9626 64.7075H91.7094L92.3798 67.9343C92.5439 68.7391 92.6655 69.4935 92.7447 70.1977C92.8013 69.7953 92.8777 69.331 92.9739 68.8048L93.7037 64.7075H94.3232L93.0503 71.0914H92.4477L91.4718 66.2281C91.3869 65.8257 91.336 65.5781 91.319 65.4852C91.2737 65.7715 91.2285 66.0191 91.1832 66.2281L90.1988 71.0914H89.5623Z" fill="black"/>
<path d="M124.188 71.0914V65.462H122.113V64.7075H127.113V65.462H125.025V71.0914H124.188Z" fill="black"/>
<path d="M155.282 71.0914V64.7075H159.282V65.462H156.069V67.4352H158.851V68.1897H156.069V71.0914H155.282Z" fill="black"/>
<path d="M187.744 69.037L188.357 68.9673C188.388 69.2923 188.457 69.5554 188.565 69.7566C188.673 69.9578 188.838 70.1242 189.061 70.2557C189.289 70.3795 189.545 70.4414 189.827 70.4414C190.074 70.4414 190.293 70.395 190.485 70.3021C190.678 70.2015 190.819 70.07 190.909 69.9075C191.005 69.7373 191.053 69.5554 191.053 69.362C191.053 69.1608 191.008 68.9867 190.918 68.8396C190.828 68.6849 190.681 68.5572 190.476 68.4566C190.338 68.387 190.04 68.2825 189.584 68.1432C189.133 68.0039 188.817 67.8724 188.637 67.7486C188.397 67.5861 188.219 67.3887 188.105 67.1566C187.991 66.9167 187.934 66.6498 187.934 66.3557C187.934 66.0384 188.003 65.7405 188.141 65.462C188.285 65.1756 188.493 64.9628 188.763 64.8236C189.04 64.6765 189.343 64.603 189.674 64.603C190.04 64.603 190.365 64.6804 190.648 64.8352C190.93 64.9822 191.146 65.2066 191.297 65.5084C191.447 65.8024 191.528 66.1352 191.54 66.5066L190.909 66.5646C190.873 66.1623 190.756 65.8605 190.557 65.6593C190.365 65.4503 190.08 65.3459 189.701 65.3459C189.304 65.3459 189.016 65.4387 188.835 65.6245C188.655 65.8102 188.565 66.0346 188.565 66.2977C188.565 66.5298 188.628 66.7194 188.754 66.8664C188.88 67.0134 189.208 67.1643 189.737 67.3191C190.272 67.4739 190.639 67.6093 190.837 67.7253C191.125 67.9033 191.339 68.1239 191.477 68.387C191.615 68.6423 191.684 68.9441 191.684 69.2923C191.684 69.6328 191.609 69.9539 191.459 70.2557C191.309 70.5498 191.092 70.7819 190.81 70.9521C190.527 71.1146 190.209 71.1959 189.854 71.1959C189.403 71.1959 189.025 71.1146 188.718 70.9521C188.418 70.7819 188.18 70.5265 188.006 70.1861C187.838 69.8456 187.75 69.4626 187.744 69.037Z" fill="black"/>
<path d="M220.611 69.037L221.224 68.9673C221.254 69.2923 221.323 69.5554 221.431 69.7566C221.54 69.9578 221.705 70.1242 221.927 70.2557C222.156 70.3795 222.411 70.4414 222.694 70.4414C222.94 70.4414 223.159 70.395 223.352 70.3021C223.544 70.2015 223.685 70.07 223.775 69.9075C223.872 69.7373 223.92 69.5554 223.92 69.362C223.92 69.1608 223.875 68.9867 223.784 68.8396C223.694 68.6849 223.547 68.5572 223.343 68.4566C223.204 68.387 222.907 68.2825 222.45 68.1432C221.999 68.0039 221.684 67.8724 221.503 67.7486C221.263 67.5861 221.086 67.3887 220.971 67.1566C220.857 66.9167 220.8 66.6498 220.8 66.3557C220.8 66.0384 220.869 65.7405 221.008 65.462C221.152 65.1756 221.359 64.9628 221.63 64.8236C221.906 64.6765 222.21 64.603 222.54 64.603C222.907 64.603 223.231 64.6804 223.514 64.8352C223.797 64.9822 224.013 65.2066 224.163 65.5084C224.313 65.8024 224.395 66.1352 224.407 66.5066L223.775 66.5646C223.739 66.1623 223.622 65.8605 223.424 65.6593C223.231 65.4503 222.946 65.3459 222.567 65.3459C222.171 65.3459 221.882 65.4387 221.702 65.6245C221.521 65.8102 221.431 66.0346 221.431 66.2977C221.431 66.5298 221.494 66.7194 221.621 66.8664C221.747 67.0134 222.074 67.1643 222.603 67.3191C223.138 67.4739 223.505 67.6093 223.703 67.7253C223.992 67.9033 224.205 68.1239 224.343 68.387C224.482 68.6423 224.551 68.9441 224.551 69.2923C224.551 69.6328 224.476 69.9539 224.325 70.2557C224.175 70.5498 223.959 70.7819 223.676 70.9521C223.394 71.1146 223.075 71.1959 222.721 71.1959C222.27 71.1959 221.891 71.1146 221.585 70.9521C221.284 70.7819 221.047 70.5265 220.872 70.1861C220.704 69.8456 220.617 69.4626 220.611 69.037Z" fill="black"/>
</svg>
