<svg width="21" height="20" viewBox="0 0 21 20" fill="none" xmlns="http://www.w3.org/2000/svg">
<path d="M2.96217 19.5498H17.941C19.327 19.5483 20.4501 18.4252 20.4517 17.0393V7.9931C20.4501 6.60707 19.327 5.48398 17.9412 5.48239H17.8087V5.39911C17.8071 4.01309 16.684 2.88999 15.2982 2.8884H11.2537C11.2022 2.8884 11.153 2.86679 11.1183 2.82872L9.65078 1.22319C9.17469 0.703284 8.5023 0.406845 7.79739 0.40625H2.96217C1.57634 0.407836 0.453246 1.53093 0.45166 2.91696V17.0393C0.453246 18.4252 1.57634 19.5483 2.96217 19.5498ZM17.941 6.19305C18.9346 6.19424 19.7398 6.99948 19.741 7.9931V17.0393C19.7398 18.0328 18.9348 18.838 17.9412 18.8392H4.9375C5.42509 18.3673 5.69991 17.7177 5.69972 17.0393V7.9931C5.70071 6.99948 6.50595 6.19424 7.49957 6.19305H17.941ZM1.16232 2.91696C1.16351 1.92334 1.96855 1.1181 2.96217 1.11691H7.79739C8.30263 1.1175 8.78466 1.32987 9.12591 1.70245L10.5934 3.30818C10.763 3.49338 11.0023 3.59887 11.2533 3.59906H15.298C16.2916 3.60025 17.0966 4.4055 17.0978 5.39911V5.48239H7.49957C6.11354 5.48398 4.99045 6.60707 4.98906 7.9931V17.0393C4.98787 18.0328 4.18262 18.838 3.18901 18.8392H2.96217C1.96855 18.838 1.16351 18.0328 1.16232 17.0393V2.91696Z" fill="black"/>
</svg>
