<svg width="120" height="60" viewBox="0 0 120 60" fill="none" xmlns="http://www.w3.org/2000/svg">
<rect x="1" y="1" width="118" height="58" rx="4" fill="#F5F7F7" stroke="#008FFF" stroke-width="2"/>
<line x1="33" y1="14" x2="58" y2="14" stroke="black" stroke-width="2"/>
<line x1="63" y1="14" x2="68" y2="14" stroke="black" stroke-width="2"/>
<line x1="33" y1="34" x2="94" y2="34" stroke="black" stroke-width="2"/>
<line x1="33" y1="44" x2="94" y2="44" stroke="black" stroke-width="2" stroke-dasharray="3 3"/>
<path d="M104.408 36.8514H104.408C106.275 36.8535 107.881 38.1689 108.252 39.9978L108.373 40.5971H107.762H101.676C101.579 40.5971 101.5 40.6757 101.5 40.7728C101.5 40.8698 101.579 40.9485 101.676 40.9485H107.762H108.373L108.252 41.5479C107.881 43.3766 106.275 44.6913 104.409 44.6939L104.408 44.6939H101.676C101.604 44.6939 101.539 44.7375 101.512 44.8047C101.486 44.8714 101.503 44.9476 101.555 44.9975C101.555 44.9975 101.555 44.9976 101.555 44.9976L108.384 51.4505L108.385 51.4515C108.431 51.495 108.496 51.5106 108.557 51.4927C108.617 51.4747 108.663 51.4258 108.678 51.3649C108.692 51.3033 108.672 51.2388 108.627 51.196L108.626 51.1951L103.031 45.9083L102.117 45.0449H103.374L104.407 45.0449L104.408 45.0449M104.408 36.8514L109.132 41.4482C108.793 43.7972 106.781 45.5419 104.408 45.5449V45.0449M104.408 36.8514H101.676C101.579 36.8514 101.5 36.7728 101.5 36.6757C101.5 36.5785 101.579 36.5 101.676 36.5H111.224C111.322 36.5 111.4 36.5785 111.4 36.6757C111.4 36.7723 111.322 36.851 111.224 36.851H107.731H106.496L107.383 37.7101C108.062 38.3675 108.503 39.2322 108.637 40.1678L108.699 40.5968H109.132H111.224C111.322 40.5968 111.4 40.6753 111.4 40.7725C111.4 40.8694 111.321 40.9482 111.224 40.9482H109.132H108.699L108.637 41.3767C108.334 43.4799 106.533 45.0419 104.408 45.0449M104.408 36.8514V45.0449" fill="#008FFF" stroke="#008FFF" stroke-width="0.999999"/>
<rect x="9" y="9" width="16" height="16" rx="1" stroke="#008FFF" stroke-width="2"/>
<rect x="34" y="22" width="59" height="4" stroke="black" stroke-width="2"/>
<line x1="9.5742" y1="54.0952" x2="111.574" y2="6.09518" stroke="#008FFF" stroke-width="2"/>
</svg>
