<svg width="30" height="30" viewBox="0 0 30 30" fill="none" xmlns="http://www.w3.org/2000/svg">
<rect width="30" height="30" rx="4" fill="#FFC100"/>
<path d="M23.4727 6H6.52734C6.23611 6 6 6.23611 6 6.52734V21.293C6 21.5842 6.23611 21.8203 6.52734 21.8203H7.75781V23.4727C7.75781 23.7639 7.99392 24 8.28516 24H11.0977C11.3889 24 11.625 23.7639 11.625 23.4727V21.8203H18.375V23.4727C18.375 23.7639 18.6111 24 18.9023 24H21.7148C22.0061 24 22.2422 23.7639 22.2422 23.4727V21.8203H23.4727C23.7639 21.8203 24 21.5842 24 21.293V6.52734C24 6.23611 23.7639 6 23.4727 6ZM7.05469 10.5703H8.10938V12.3281H7.05469V10.5703ZM7.05469 13.3828H8.10938V14.4375H7.05469V13.3828ZM7.05469 15.4922H8.10938V17.25H7.05469V15.4922ZM10.5703 22.9453H8.8125V21.8203H10.5703V22.9453ZM21.1875 22.9453H19.4297V21.8203H21.1875V22.9453ZM22.9453 20.7656H7.05469V18.3047H8.10938V19.1836C8.10938 19.4748 8.34548 19.7109 8.63672 19.7109H21.3633C21.6545 19.7109 21.8906 19.4748 21.8906 19.1836V8.63672C21.8906 8.34548 21.6545 8.10938 21.3633 8.10938H8.63672C8.34548 8.10938 8.10938 8.34548 8.10938 8.63672V9.51562H7.05469V7.05469H22.9453V20.7656ZM9.16406 18.6562V9.16406H20.8359V18.6562H9.16406Z" fill="white"/>
<path d="M13.9102 10.2188C11.8747 10.2188 10.2188 11.8747 10.2188 13.9102C10.2188 15.9456 11.8747 17.6016 13.9102 17.6016C15.9456 17.6016 17.6016 15.9456 17.6016 13.9102C17.6016 11.8747 15.9456 10.2188 13.9102 10.2188ZM13.9102 16.5469C12.4563 16.5469 11.2734 15.364 11.2734 13.9102C11.2734 12.4563 12.4563 11.2734 13.9102 11.2734C15.364 11.2734 16.5469 12.4563 16.5469 13.9102C16.5469 15.364 15.364 16.5469 13.9102 16.5469Z" fill="white"/>
</svg>
