<svg width="30" height="30" viewBox="0 0 30 30" fill="none" xmlns="http://www.w3.org/2000/svg">
<rect width="30" height="30" rx="4" fill="#008FFF"/>
<path d="M21.364 17.636C20.3837 16.6558 19.217 15.9301 17.9439 15.4909C19.3074 14.5518 20.2031 12.9802 20.2031 11.2031C20.2031 8.33413 17.869 6 15 6C12.131 6 9.79688 8.33413 9.79688 11.2031C9.79688 12.9802 10.6926 14.5518 12.0561 15.4909C10.7831 15.9301 9.61631 16.6558 8.63605 17.636C6.93618 19.3359 6 21.596 6 24H7.40625C7.40625 19.8128 10.8128 16.4062 15 16.4062C19.1872 16.4062 22.5938 19.8128 22.5938 24H24C24 21.596 23.0638 19.3359 21.364 17.636ZM15 15C12.9064 15 11.2031 13.2968 11.2031 11.2031C11.2031 9.1095 12.9064 7.40625 15 7.40625C17.0936 7.40625 18.7969 9.1095 18.7969 11.2031C18.7969 13.2968 17.0936 15 15 15Z" fill="white"/>
</svg>
