<svg width="224" height="224" viewBox="0 0 224 224" fill="none" xmlns="http://www.w3.org/2000/svg">
<rect width="224" height="224" fill="#F5F7F7"/>
<g clip-path="url(#clip0)">
<g opacity="0.5">
<path opacity="0.5" d="M45.2071 38.9399H44.5085V42.8983H45.2071V38.9399Z" fill="#47E6B1"/>
<path opacity="0.5" d="M46.837 41.2684V40.5698H42.8786V41.2684H46.837Z" fill="#47E6B1"/>
</g>
<g opacity="0.5">
<path opacity="0.5" d="M192.963 180.427H192.264V184.385H192.963V180.427Z" fill="#47E6B1"/>
<path opacity="0.5" d="M194.593 182.755V182.057H190.634V182.755H194.593Z" fill="#47E6B1"/>
</g>
<g opacity="0.5">
<path opacity="0.5" d="M193.24 64.1725H192.541V68.131H193.24V64.1725Z" fill="#47E6B1"/>
<path opacity="0.5" d="M194.87 66.501V65.8025H190.911V66.501H194.87Z" fill="#47E6B1"/>
</g>
<g opacity="0.5">
<path opacity="0.5" d="M200.372 40.5111H199.674V44.4695H200.372V40.5111Z" fill="#47E6B1"/>
<path opacity="0.5" d="M202.002 42.8396V42.1411H198.044V42.8396H202.002Z" fill="#47E6B1"/>
</g>
<g opacity="0.5">
<path opacity="0.5" d="M78.7247 38.6085H78.0261V42.5669H78.7247V38.6085Z" fill="#47E6B1"/>
<path opacity="0.5" d="M80.3525 40.9369V40.2384H76.3941V40.9369H80.3525Z" fill="#47E6B1"/>
</g>
<path opacity="0.5" d="M34.8402 85.7498C34.6478 85.6658 34.493 85.5141 34.4052 85.3234C34.3174 85.1327 34.3027 84.9164 34.364 84.7156C34.3739 84.685 34.3802 84.6533 34.3829 84.6212C34.397 84.526 34.3779 84.4289 34.3289 84.3461C34.2799 84.2633 34.2039 84.1998 34.1137 84.1664C34.0234 84.1329 33.9244 84.1315 33.8333 84.1624C33.7421 84.1933 33.6644 84.2545 33.613 84.3359C33.5938 84.362 33.5776 84.3901 33.5648 84.4198C33.4808 84.6122 33.329 84.767 33.1384 84.8548C32.9477 84.9426 32.7314 84.9573 32.5306 84.896C32.5 84.8861 32.4683 84.8798 32.4362 84.8771C32.341 84.8631 32.2439 84.8821 32.161 84.9311C32.0782 84.9801 32.0148 85.0562 31.9813 85.1464C31.9479 85.2366 31.9465 85.3356 31.9774 85.4268C32.0082 85.5179 32.0695 85.5957 32.1509 85.647C32.1769 85.6663 32.2051 85.6825 32.2348 85.6953C32.4272 85.7792 32.582 85.931 32.6698 86.1217C32.7576 86.3124 32.7723 86.5287 32.711 86.7294C32.7011 86.7601 32.6948 86.7917 32.6921 86.8238C32.678 86.919 32.6971 87.0162 32.7461 87.099C32.7951 87.1818 32.8711 87.2452 32.9614 87.2787C33.0516 87.3121 33.1506 87.3135 33.2417 87.2827C33.3329 87.2518 33.4106 87.1905 33.462 87.1091C33.4813 87.0831 33.4974 87.0549 33.5102 87.0252C33.5942 86.8328 33.746 86.678 33.9367 86.5902C34.1273 86.5024 34.3436 86.4878 34.5444 86.549C34.5751 86.5589 34.6067 86.5653 34.6388 86.5679C34.734 86.582 34.8312 86.563 34.914 86.5139C34.9968 86.4649 35.0602 86.3889 35.0937 86.2987C35.1271 86.2084 35.1285 86.1095 35.0976 86.0183C35.0668 85.9272 35.0055 85.8494 34.9241 85.798C34.8981 85.7788 34.8699 85.7626 34.8402 85.7498Z" fill="#4D8AF0"/>
<path opacity="0.5" d="M47.7371 165.115C47.5447 165.031 47.3899 164.88 47.3021 164.689C47.2143 164.498 47.1996 164.282 47.2609 164.081C47.2708 164.051 47.2771 164.019 47.2797 163.987C47.2938 163.892 47.2748 163.794 47.2258 163.712C47.1767 163.629 47.1007 163.565 47.0105 163.532C46.9203 163.499 46.8213 163.497 46.7301 163.528C46.639 163.559 46.5612 163.62 46.5099 163.701C46.4906 163.728 46.4744 163.756 46.4616 163.785C46.3776 163.978 46.2259 164.133 46.0352 164.22C45.8445 164.308 45.6282 164.323 45.4274 164.262C45.3968 164.252 45.3651 164.245 45.333 164.243C45.2379 164.229 45.1407 164.248 45.0579 164.297C44.9751 164.346 44.9116 164.422 44.8782 164.512C44.8448 164.602 44.8434 164.701 44.8742 164.792C44.9051 164.883 44.9664 164.961 45.0478 165.013C45.0738 165.032 45.1019 165.048 45.1317 165.061C45.3241 165.145 45.4789 165.297 45.5667 165.487C45.6545 165.678 45.6691 165.894 45.6079 166.095C45.598 166.126 45.5916 166.157 45.589 166.189C45.5749 166.285 45.5939 166.382 45.643 166.465C45.692 166.547 45.768 166.611 45.8582 166.644C45.9484 166.678 46.0474 166.679 46.1386 166.648C46.2297 166.617 46.3075 166.556 46.3588 166.475C46.3781 166.449 46.3943 166.421 46.4071 166.391C46.4911 166.198 46.6428 166.044 46.8335 165.956C47.0242 165.868 47.2405 165.853 47.4413 165.915C47.4719 165.925 47.5036 165.931 47.5357 165.933C47.6309 165.948 47.728 165.929 47.8108 165.88C47.8936 165.83 47.9571 165.754 47.9905 165.664C48.024 165.574 48.0254 165.475 47.9945 165.384C47.9636 165.293 47.9024 165.215 47.821 165.164C47.7949 165.144 47.7668 165.128 47.7371 165.115Z" fill="#4D8AF0"/>
<path opacity="0.5" d="M165 60.019C164.808 59.935 164.653 59.7833 164.565 59.5926C164.477 59.4019 164.463 59.1856 164.524 58.9849C164.534 58.9542 164.54 58.9225 164.543 58.8905C164.557 58.7953 164.538 58.6981 164.489 58.6153C164.44 58.5325 164.364 58.469 164.274 58.4356C164.183 58.4022 164.084 58.4008 163.993 58.4316C163.902 58.4625 163.824 58.5238 163.773 58.6052C163.754 58.6312 163.738 58.6593 163.725 58.6891C163.641 58.8815 163.489 59.0363 163.298 59.1241C163.108 59.2119 162.891 59.2265 162.691 59.1653C162.66 59.1554 162.628 59.149 162.596 59.1464C162.501 59.1323 162.404 59.1513 162.321 59.2004C162.238 59.2494 162.175 59.3254 162.141 59.4156C162.108 59.5059 162.107 59.6048 162.137 59.696C162.168 59.7871 162.23 59.8649 162.311 59.9162C162.337 59.9355 162.365 59.9517 162.395 59.9645C162.587 60.0485 162.742 60.2002 162.83 60.3909C162.918 60.5816 162.932 60.7979 162.871 60.9987C162.861 61.0293 162.855 61.061 162.852 61.0931C162.838 61.1883 162.857 61.2854 162.906 61.3682C162.955 61.451 163.031 61.5145 163.121 61.5479C163.212 61.5814 163.311 61.5828 163.402 61.5519C163.493 61.521 163.571 61.4598 163.622 61.3784C163.641 61.3523 163.657 61.3242 163.67 61.2945C163.754 61.1021 163.906 60.9473 164.097 60.8595C164.287 60.7717 164.504 60.757 164.704 60.8183C164.735 60.8282 164.767 60.8345 164.799 60.8371C164.894 60.8512 164.991 60.8322 165.074 60.7832C165.157 60.7341 165.22 60.6581 165.254 60.5679C165.287 60.4777 165.289 60.3787 165.258 60.2875C165.227 60.1964 165.166 60.1186 165.084 60.0673C165.058 60.048 165.03 60.0318 165 60.019Z" fill="#4D8AF0"/>
<path opacity="0.5" d="M163.437 78.9804C163.245 78.8964 163.09 78.7447 163.002 78.554C162.915 78.3633 162.9 78.147 162.961 77.9462C162.971 77.9156 162.977 77.8839 162.98 77.8518C162.994 77.7567 162.975 77.6595 162.926 77.5767C162.877 77.4939 162.801 77.4304 162.711 77.397C162.621 77.3636 162.522 77.3622 162.43 77.393C162.339 77.4239 162.262 77.4852 162.21 77.5666C162.191 77.5926 162.175 77.6207 162.162 77.6505C162.078 77.8428 161.926 77.9977 161.736 78.0855C161.545 78.1733 161.329 78.1879 161.128 78.1267C161.097 78.1168 161.065 78.1104 161.033 78.1078C160.938 78.0937 160.841 78.1127 160.758 78.1618C160.675 78.2108 160.612 78.2868 160.579 78.377C160.545 78.4672 160.544 78.5662 160.575 78.6574C160.605 78.7485 160.667 78.8263 160.748 78.8776C160.774 78.8969 160.802 78.9131 160.832 78.9259C161.024 79.0099 161.179 79.1616 161.267 79.3523C161.355 79.543 161.369 79.7593 161.308 79.9601C161.298 79.9907 161.292 80.0224 161.289 80.0545C161.275 80.1497 161.294 80.2468 161.343 80.3296C161.392 80.4124 161.468 80.4759 161.559 80.5093C161.649 80.5427 161.748 80.5442 161.839 80.5133C161.93 80.4824 162.008 80.4211 162.059 80.3397C162.078 80.3137 162.095 80.2856 162.107 80.2558C162.191 80.0635 162.343 79.9086 162.534 79.8208C162.724 79.7331 162.941 79.7184 163.142 79.7797C163.172 79.7896 163.204 79.7959 163.236 79.7985C163.331 79.8126 163.428 79.7936 163.511 79.7446C163.594 79.6955 163.657 79.6195 163.691 79.5293C163.724 79.4391 163.726 79.3401 163.695 79.2489C163.664 79.1578 163.603 79.08 163.521 79.0287C163.495 79.0094 163.467 78.9932 163.437 78.9804Z" fill="#4D8AF0"/>
<path opacity="0.5" d="M198.824 116.461C198.632 116.377 198.477 116.225 198.389 116.034C198.301 115.844 198.287 115.627 198.348 115.426C198.358 115.396 198.364 115.364 198.367 115.332C198.381 115.237 198.362 115.14 198.313 115.057C198.264 114.974 198.188 114.911 198.098 114.877C198.007 114.844 197.908 114.842 197.817 114.873C197.726 114.904 197.648 114.965 197.597 115.047C197.578 115.073 197.561 115.101 197.549 115.131C197.465 115.323 197.313 115.478 197.122 115.566C196.932 115.653 196.715 115.668 196.514 115.607C196.484 115.597 196.452 115.591 196.42 115.588C196.325 115.574 196.228 115.593 196.145 115.642C196.062 115.691 195.999 115.767 195.965 115.857C195.932 115.947 195.93 116.046 195.961 116.138C195.992 116.229 196.053 116.307 196.135 116.358C196.161 116.377 196.189 116.393 196.219 116.406C196.413 116.491 196.569 116.644 196.657 116.837C196.744 117.03 196.757 117.249 196.693 117.451C196.683 117.481 196.677 117.513 196.674 117.545C196.66 117.64 196.679 117.737 196.728 117.82C196.777 117.903 196.853 117.967 196.943 118C197.033 118.033 197.132 118.035 197.224 118.004C197.315 117.973 197.392 117.912 197.444 117.83C197.463 117.804 197.479 117.776 197.492 117.747C197.576 117.554 197.728 117.399 197.918 117.312C198.109 117.224 198.325 117.209 198.526 117.27C198.557 117.28 198.589 117.287 198.621 117.289C198.716 117.303 198.813 117.284 198.896 117.235C198.979 117.186 199.042 117.11 199.075 117.02C199.109 116.93 199.11 116.831 199.079 116.74C199.049 116.648 198.987 116.571 198.906 116.519C198.881 116.497 198.854 116.477 198.824 116.461Z" fill="#4D8AF0"/>
<path opacity="0.5" d="M34.9576 55.2446C35.7292 55.2446 36.3547 54.6191 36.3547 53.8475C36.3547 53.0759 35.7292 52.4504 34.9576 52.4504C34.186 52.4504 33.5605 53.0759 33.5605 53.8475C33.5605 54.6191 34.186 55.2446 34.9576 55.2446Z" fill="#F55F44"/>
<path opacity="0.5" d="M24.7145 155.581C25.4861 155.581 26.1116 154.956 26.1116 154.184C26.1116 153.413 25.4861 152.787 24.7145 152.787C23.9429 152.787 23.3174 153.413 23.3174 154.184C23.3174 154.956 23.9429 155.581 24.7145 155.581Z" fill="#F55F44"/>
<path opacity="0.5" d="M114.229 41.9795C115 41.9795 115.626 41.354 115.626 40.5824C115.626 39.8108 115 39.1853 114.229 39.1853C113.457 39.1853 112.832 39.8108 112.832 40.5824C112.832 41.354 113.457 41.9795 114.229 41.9795Z" fill="#F55F44"/>
<path opacity="0.5" d="M138.284 49.6207C139.055 49.6207 139.681 48.9952 139.681 48.2236C139.681 47.452 139.055 46.8265 138.284 46.8265C137.512 46.8265 136.887 47.452 136.887 48.2236C136.887 48.9952 137.512 49.6207 138.284 49.6207Z" fill="#F55F44"/>
<path opacity="0.5" d="M23.3971 120.811C24.1687 120.811 24.7942 120.186 24.7942 119.414C24.7942 118.643 24.1687 118.017 23.3971 118.017C22.6255 118.017 22 118.643 22 119.414C22 120.186 22.6255 120.811 23.3971 120.811Z" fill="#F55F44"/>
<path opacity="0.5" d="M90.1144 52.9832C90.886 52.9832 91.5115 52.3577 91.5115 51.5861C91.5115 50.8146 90.886 50.1891 90.1144 50.1891C89.3428 50.1891 88.7173 50.8146 88.7173 51.5861C88.7173 52.3577 89.3428 52.9832 90.1144 52.9832Z" fill="#47E6B1"/>
<path opacity="0.5" d="M174.211 145.789C174.983 145.789 175.609 145.164 175.609 144.392C175.609 143.62 174.983 142.995 174.211 142.995C173.44 142.995 172.814 143.62 172.814 144.392C172.814 145.164 173.44 145.789 174.211 145.789Z" fill="#F55F44"/>
<g opacity="0.5">
<path opacity="0.5" d="M136.23 63.9061C133.524 61.1917 129.578 60.1113 125.112 60.8644C120.94 61.5693 116.765 63.8285 113.365 67.2268C112.378 68.2194 111.549 69.3569 110.906 70.6C110.28 69.3156 109.457 68.1366 108.469 67.1052C105.112 63.6502 100.986 61.3196 96.8261 60.5414C92.381 59.7023 88.4184 60.7218 85.6662 63.3901C82.914 66.0584 81.7749 69.9875 82.4672 74.4472C83.1133 78.6427 85.3033 82.8382 88.6597 86.2973C95.7038 93.5639 109.761 90.7256 110.356 90.5998L110.533 90.5641L111.074 90.6879C111.668 90.8221 125.672 93.9016 132.838 86.7588C136.247 83.3626 138.519 79.1944 139.238 75.0241C140.004 70.5706 138.936 66.6206 136.23 63.9061ZM107.976 86.4043C104.579 86.8616 96.1129 87.4825 91.909 83.1465C89.2072 80.3586 87.4388 77.0232 86.9353 73.7592C86.4738 70.7804 87.1451 68.2484 88.8107 66.6269C89.4641 65.9993 90.2455 65.5205 91.1014 65.2235C92.5027 64.7263 94.1704 64.634 95.9933 64.976C99.2406 65.5822 102.517 67.4534 105.223 70.2413C109.427 74.5878 108.538 83.0312 107.976 86.4043ZM134.78 74.2521C134.22 77.5078 132.395 80.8097 129.645 83.5514C125.366 87.8161 116.912 87.0483 113.526 86.5323C113.021 83.1423 112.28 74.6864 116.557 70.4217C119.308 67.6799 122.616 65.8675 125.873 65.3158C127.703 65.0074 129.368 65.127 130.761 65.6472C131.612 65.9592 132.384 66.4516 133.027 67.0905C134.669 68.7456 135.292 71.288 134.78 74.2563V74.2521Z" fill="url(#paint0_linear)"/>
</g>
<path d="M111.716 89.6872L110.377 89.9704C109.809 90.09 96.3583 92.8045 89.6099 85.8526C86.4045 82.5466 84.3005 78.521 83.6817 74.5248C83.0209 70.2497 84.1012 66.4884 86.7402 63.9355C89.3791 61.3825 93.1676 60.4155 97.4197 61.2084C101.405 61.9531 105.358 64.183 108.561 67.489C115.299 74.443 112.165 87.8014 112.026 88.3657L111.716 89.6872ZM91.953 65.6913C91.134 65.9754 90.3862 66.4334 89.7609 67.0338C88.1624 68.582 87.5247 71.0048 87.9652 73.8557C88.4477 76.9792 90.1385 80.1698 92.725 82.8381C96.7463 86.9874 104.848 86.4043 108.097 85.9554C108.636 82.7228 109.484 74.6423 105.462 70.493C102.876 67.8247 99.7398 66.0353 96.6331 65.4584C94.8919 65.127 93.2956 65.2172 91.953 65.6913Z" fill="#008FFF"/>
<path d="M109.731 89.746L109.427 88.4118C109.299 87.8433 106.396 74.4325 113.253 67.5981C116.513 64.3466 120.51 62.186 124.501 61.5147C128.766 60.7931 132.542 61.8273 135.133 64.4243C137.723 67.0212 138.743 70.8014 138.009 75.0639C137.321 79.0496 135.145 83.0353 131.885 86.2931C125.032 93.117 111.632 90.1802 111.063 90.0501L109.731 89.746ZM129.905 66.094C128.571 65.5948 126.968 65.4794 125.229 65.7752C122.112 66.3017 118.936 68.0365 116.314 70.6608C112.221 74.7409 112.928 82.8277 113.413 86.077C116.654 86.57 124.741 87.3063 128.837 83.2241C131.47 80.5999 133.215 77.4407 133.752 74.3255C134.243 71.4831 133.648 69.0498 132.074 67.4744C131.459 66.8629 130.718 66.392 129.903 66.094H129.905Z" fill="#008FFF"/>
<g opacity="0.5">
<path opacity="0.5" d="M175.317 86.1715H44.9093V112.265H51.685V187.786H168.541V112.265H175.317V86.1715Z" fill="url(#paint1_linear)"/>
</g>
<path d="M166.75 109H53.5V186.25H166.75V109Z" fill="#212121" fill-opacity="0.7"/>
<path d="M120.843 110.568H99.3832V186.502H120.843V110.568Z" fill="#008FFF"/>
<path opacity="0.1" d="M167.062 89.1083H53.1638V112.219H167.062V89.1083Z" fill="black"/>
<path d="M173.664 87.4574H46.5603V110.568H173.664V87.4574Z" fill="#212121" fill-opacity="0.7"/>
<path d="M120.843 87.4574H99.3832V110.568H120.843V87.4574Z" fill="#008FFF"/>
</g>
<defs>
<linearGradient id="paint0_linear" x1="110.875" y1="91.4619" x2="110.875" y2="60.2561" gradientUnits="userSpaceOnUse">
<stop stop-color="#808080" stop-opacity="0.25"/>
<stop offset="0.54" stop-color="#808080" stop-opacity="0.12"/>
<stop offset="1" stop-color="#808080" stop-opacity="0.1"/>
</linearGradient>
<linearGradient id="paint1_linear" x1="54821.3" y1="81845.9" x2="54821.3" y2="32624" gradientUnits="userSpaceOnUse">
<stop stop-color="#808080" stop-opacity="0.25"/>
<stop offset="0.54" stop-color="#808080" stop-opacity="0.12"/>
<stop offset="1" stop-color="#808080" stop-opacity="0.1"/>
</linearGradient>
<clipPath id="clip0">
<rect width="180" height="152" fill="white" transform="translate(22 36)"/>
</clipPath>
</defs>
</svg>
