<svg width="19" height="24" viewBox="0 0 19 24" fill="none" xmlns="http://www.w3.org/2000/svg">
<path fill-rule="evenodd" clip-rule="evenodd" d="M2.69535 24H16.614C17.9837 24 19 22.8226 19 21.1925V4.16604C19 2.53585 18.0279 1.35849 16.6581 1.35849H2.73953C1.2814 1.35849 0 2.6717 0 4.16604V21.1925C0 22.6868 1.23721 24 2.69535 24ZM1.76744 4.16604C1.76744 3.66793 2.25349 3.16981 2.73953 3.16981H16.6581C17.2326 3.16981 17.2326 4.07547 17.2326 4.16604V21.1925C17.2326 21.5094 17.1 22.1887 16.614 22.1887H2.69535C2.2093 22.1887 1.76744 21.6906 1.76744 21.1925V4.16604Z" fill="#1A303E"/>
<path fill-rule="evenodd" clip-rule="evenodd" d="M4.86051 5.43396H4.81632C4.24191 5.43396 3.75586 4.93585 3.75586 4.34717V1.13208C3.75586 0.543397 4.24191 0.0452843 4.81632 0.0452843H4.86051C5.43493 0.0452843 5.92098 0.543397 5.92098 1.13208V4.34717C5.92098 4.93585 5.43493 5.43396 4.86051 5.43396Z" fill="#1A303E"/>
<path fill-rule="evenodd" clip-rule="evenodd" d="M9.72086 5.43396H9.67668C9.10226 5.43396 8.61621 4.93585 8.61621 4.34717V1.13208C8.61621 0.543397 9.10226 0.0452843 9.67668 0.0452843H9.72086C10.2953 0.0452843 10.7813 0.543397 10.7813 1.13208V4.34717C10.7813 4.93585 10.2953 5.43396 9.72086 5.43396Z" fill="#1A303E"/>
<path fill-rule="evenodd" clip-rule="evenodd" d="M14.5812 5.43396H14.537C13.9626 5.43396 13.4766 4.93585 13.4766 4.34717V1.13208C13.4766 0.543397 13.9626 0.0452843 14.537 0.0452843H14.5812C15.1556 0.0452843 15.6417 0.543397 15.6417 1.13208V4.34717C15.6417 4.93585 15.1556 5.43396 14.5812 5.43396Z" fill="#1A303E"/>
<path fill-rule="evenodd" clip-rule="evenodd" d="M14.5812 9.05661H4.41839C3.93234 9.05661 3.53467 8.64906 3.53467 8.15095C3.53467 7.65283 3.93234 7.24529 4.41839 7.24529H14.5812C15.0672 7.24529 15.4649 7.65283 15.4649 8.15095C15.4649 8.64906 15.0672 9.05661 14.5812 9.05661Z" fill="#1A303E"/>
<path fill-rule="evenodd" clip-rule="evenodd" d="M14.5812 14.0377H4.41839C3.93234 14.0377 3.53467 13.6302 3.53467 13.1321C3.53467 12.634 3.93234 12.2264 4.41839 12.2264H14.5812C15.0672 12.2264 15.4649 12.634 15.4649 13.1321C15.4649 13.6302 15.0672 14.0377 14.5812 14.0377Z" fill="#1A303E"/>
<path fill-rule="evenodd" clip-rule="evenodd" d="M14.5812 19.0189H4.41839C3.93234 19.0189 3.53467 18.6113 3.53467 18.1132C3.53467 17.6151 3.93234 17.2075 4.41839 17.2075H14.5812C15.0672 17.2075 15.4649 17.6151 15.4649 18.1132C15.4649 18.6113 15.0672 19.0189 14.5812 19.0189Z" fill="#1A303E"/>
</svg>
