<svg width="20" height="22" viewBox="0 0 20 22" fill="none" xmlns="http://www.w3.org/2000/svg">
<path d="M13.8749 5.42948C12.691 4.44423 11.136 3.93642 9.49067 3.98851C6.33547 4.09701 3.76215 6.40604 3.75211 9.14042C3.7471 10.3514 4.23869 11.5319 5.13659 12.4607C6.43078 13.8062 7.14308 15.5033 7.14308 17.2437C7.14308 17.2437 7.00764 18.0423 7.66477 18.0423H11.7981C12.4703 18.0423 12.3198 17.2437 12.3198 17.2437C12.3198 15.5423 13.0422 13.8583 14.4116 12.3739C15.2593 11.4494 15.7108 10.3383 15.7108 9.15778C15.7108 7.73851 15.0587 6.41038 13.8749 5.42948ZM13.5939 11.8097C12.1041 13.4243 11.3065 15.2645 11.2764 17.1395H8.18645C8.15636 15.2255 7.36379 13.3635 5.93919 11.8835C5.2018 11.1152 4.79549 10.143 4.8005 9.14475C4.81054 6.88781 6.9324 4.98243 9.53582 4.89128C10.8952 4.84788 12.1794 5.26889 13.1525 6.08052C14.1307 6.89215 14.6674 7.9859 14.6674 9.15778C14.6624 10.1343 14.2962 11.0501 13.5939 11.8097Z" fill="black"/>
<path d="M16.6138 2.46549C16.4081 2.28754 16.077 2.28754 15.8764 2.46549L14.6022 3.56793C14.3966 3.74588 14.3966 4.03234 14.6022 4.20595C14.8079 4.37956 15.139 4.3839 15.3396 4.20595L16.6138 3.10352C16.8194 2.92991 16.8194 2.64345 16.6138 2.46549Z" fill="black"/>
<path d="M11.8182 18.6587H7.64473C7.35379 18.6587 7.12305 18.8627 7.12305 19.1101C7.12305 19.3618 7.35881 19.5615 7.64473 19.5615H11.8182C12.1092 19.5615 12.3399 19.3575 12.3399 19.1101C12.3399 18.8627 12.1042 18.6587 11.8182 18.6587Z" fill="black"/>
<path d="M11.0307 20.3604H8.43734C8.1464 20.3604 7.91565 20.5643 7.91565 20.8117C7.91565 21.0635 8.15141 21.2631 8.43734 21.2631H11.0307C11.3217 21.2631 11.5524 21.0591 11.5524 20.8117C11.5524 20.5643 11.3166 20.3604 11.0307 20.3604Z" fill="black"/>
<path d="M9.73153 2.46094C10.0225 2.46094 10.2532 2.25694 10.2532 2.00955V0.451389C10.2532 0.199653 10.0175 0 9.73153 0C9.4456 0 9.20984 0.203993 9.20984 0.451389V2.00955C9.20984 2.26128 9.44059 2.46094 9.73153 2.46094Z" fill="black"/>
<path d="M4.86077 4.20985C5.06643 4.0319 5.06643 3.74544 4.86077 3.57183L3.58665 2.4694C3.38099 2.29145 3.04992 2.29145 2.84927 2.4694C2.64862 2.64735 2.64361 2.93381 2.84927 3.10742L4.12339 4.20985C4.32905 4.38346 4.66012 4.38346 4.86077 4.20985Z" fill="black"/>
<path d="M18.9413 7.96875H17.1405C16.8495 7.96875 16.6188 8.17274 16.6188 8.42014C16.6188 8.66753 16.8545 8.87153 17.1405 8.87153H18.9413C19.2322 8.87153 19.463 8.66753 19.463 8.42014C19.463 8.17274 19.2272 7.96875 18.9413 7.96875Z" fill="black"/>
<path d="M2.32251 7.96875H0.521687C0.230746 7.96875 0 8.17274 0 8.42014C0 8.66753 0.235763 8.87153 0.521687 8.87153H2.32251C2.61345 8.87153 2.8442 8.66753 2.8442 8.42014C2.8442 8.17274 2.61345 7.96875 2.32251 7.96875Z" fill="black"/>
</svg>
