<svg width="15" height="15" viewBox="0 0 20 20" fill="none" xmlns="http://www.w3.org/2000/svg">
<path d="M10.5717 8.67026C10.3521 8.88981 10.3521 9.24192 10.5717 9.46148C11.4789 10.3687 11.4789 11.8434 10.5717 12.7506L5.80779 17.5145C4.90058 18.4217 3.42585 18.4217 2.51864 17.5145L1.80199 16.7978C0.89478 15.8906 0.89478 14.4159 1.80199 13.5087L6.56587 8.74482C6.78542 8.52527 6.78542 8.17316 6.56587 7.9536C6.34631 7.73405 5.9942 7.73405 5.77465 7.9536L1.01077 12.7175C0.360398 13.3679 0 14.2336 0 15.1533C0 16.0729 0.356255 16.9387 1.01077 17.5891L1.72742 18.3057C2.39851 18.9768 3.28086 19.3123 4.16321 19.3123C5.04557 19.3123 5.92792 18.9768 6.59901 18.3057L11.3629 13.5418C12.7051 12.1997 12.7051 10.0124 11.3629 8.67026C11.1475 8.45071 10.7912 8.45071 10.5717 8.67026Z" fill="#008FFF"/>
<path d="M18.9933 2.4109L18.2766 1.69425C16.9344 0.352079 14.7472 0.352079 13.405 1.69425L8.64115 6.45813C7.29898 7.8003 7.29898 9.98754 8.64115 11.3297C8.8607 11.5493 9.21281 11.5493 9.43237 11.3297C9.65192 11.1102 9.65192 10.758 9.43237 10.5385C8.52516 9.63128 8.52516 8.15655 9.43237 7.24935L14.1962 2.48547C15.1035 1.57826 16.5782 1.57826 17.4854 2.48547L18.202 3.20212C19.1093 4.10933 19.1093 5.58406 18.202 6.49127L13.4382 11.2551C13.2186 11.4747 13.2186 11.8268 13.4382 12.0464C13.5459 12.1541 13.6909 12.2121 13.8317 12.2121C13.9726 12.2121 14.1175 12.1582 14.2252 12.0464L18.9891 7.28249C19.6395 6.63211 19.9999 5.76633 19.9999 4.84669C19.9999 3.92706 19.6436 3.06128 18.9933 2.4109Z" fill="#008FFF"/>
</svg>
