<svg width="454" height="245" viewBox="0 0 454 245" fill="none" xmlns="http://www.w3.org/2000/svg">
<path d="M310.779 101.01L311.285 96.0469H316.385V97.2158H312.358L312.058 99.9297C312.545 99.6426 313.099 99.499 313.719 99.499C314.626 99.499 315.346 99.7998 315.879 100.401C316.412 100.998 316.679 101.807 316.679 102.828C316.679 103.854 316.401 104.662 315.845 105.255C315.293 105.843 314.521 106.137 313.527 106.137C312.648 106.137 311.93 105.893 311.374 105.405C310.818 104.918 310.501 104.243 310.424 103.382H311.62C311.698 103.951 311.9 104.382 312.229 104.674C312.557 104.961 312.99 105.104 313.527 105.104C314.115 105.104 314.576 104.904 314.908 104.503C315.245 104.102 315.414 103.548 315.414 102.842C315.414 102.176 315.232 101.643 314.867 101.242C314.507 100.837 314.026 100.634 313.425 100.634C312.873 100.634 312.44 100.755 312.126 100.996L311.791 101.27L310.779 101.01ZM324.581 106H318.06V105.091L321.505 101.263C322.015 100.684 322.366 100.215 322.558 99.8545C322.754 99.4899 322.852 99.1139 322.852 98.7266C322.852 98.207 322.694 97.7809 322.38 97.4482C322.065 97.1156 321.646 96.9492 321.122 96.9492C320.493 96.9492 320.003 97.1292 319.652 97.4893C319.306 97.8447 319.133 98.3415 319.133 98.9795H317.868C317.868 98.0635 318.162 97.3229 318.75 96.7578C319.342 96.1927 320.133 95.9102 321.122 95.9102C322.047 95.9102 322.779 96.154 323.316 96.6416C323.854 97.1247 324.123 97.7695 324.123 98.5762C324.123 99.556 323.499 100.723 322.25 102.076L319.584 104.968H324.581V106ZM325.812 97.9609C325.812 97.3639 326.001 96.8717 326.379 96.4844C326.762 96.097 327.252 95.9033 327.849 95.9033C328.455 95.9033 328.945 96.0993 329.318 96.4912C329.697 96.8786 329.886 97.3822 329.886 98.002V98.4873C329.886 99.0889 329.694 99.5811 329.312 99.9639C328.933 100.342 328.45 100.531 327.862 100.531C327.27 100.531 326.78 100.342 326.393 99.9639C326.005 99.5811 325.812 99.0729 325.812 98.4395V97.9609ZM326.755 98.4873C326.755 98.8428 326.855 99.1367 327.056 99.3691C327.256 99.597 327.525 99.7109 327.862 99.7109C328.186 99.7109 328.446 99.5993 328.642 99.376C328.842 99.1527 328.942 98.8473 328.942 98.46V97.9609C328.942 97.6055 328.844 97.3115 328.648 97.0791C328.452 96.8467 328.186 96.7305 327.849 96.7305C327.511 96.7305 327.245 96.8467 327.049 97.0791C326.853 97.3115 326.755 97.6146 326.755 97.9883V98.4873ZM330.658 103.56C330.658 102.963 330.847 102.473 331.226 102.09C331.608 101.702 332.098 101.509 332.695 101.509C333.292 101.509 333.782 101.7 334.165 102.083C334.548 102.466 334.739 102.974 334.739 103.607V104.093C334.739 104.69 334.548 105.182 334.165 105.569C333.787 105.952 333.301 106.144 332.709 106.144C332.117 106.144 331.627 105.954 331.239 105.576C330.852 105.193 330.658 104.685 330.658 104.052V103.56ZM331.602 104.093C331.602 104.453 331.702 104.749 331.902 104.981C332.103 105.209 332.372 105.323 332.709 105.323C333.037 105.323 333.299 105.212 333.495 104.988C333.691 104.76 333.789 104.453 333.789 104.065V103.56C333.789 103.2 333.689 102.906 333.488 102.678C333.292 102.45 333.028 102.336 332.695 102.336C332.372 102.336 332.107 102.45 331.902 102.678C331.702 102.901 331.602 103.204 331.602 103.587V104.093ZM328.149 105.248L327.432 104.797L332.292 97.0176L333.01 97.4688L328.149 105.248ZM344.084 104.038C344.084 103.696 343.954 103.432 343.694 103.245C343.439 103.054 342.99 102.89 342.348 102.753C341.71 102.616 341.201 102.452 340.823 102.261C340.45 102.069 340.172 101.841 339.989 101.577C339.812 101.313 339.723 100.998 339.723 100.634C339.723 100.028 339.978 99.515 340.488 99.0957C341.003 98.6764 341.66 98.4668 342.457 98.4668C343.296 98.4668 343.975 98.6833 344.494 99.1162C345.018 99.5492 345.28 100.103 345.28 100.777H344.009C344.009 100.431 343.861 100.132 343.564 99.8818C343.273 99.6312 342.904 99.5059 342.457 99.5059C341.997 99.5059 341.637 99.6061 341.377 99.8066C341.117 100.007 340.987 100.269 340.987 100.593C340.987 100.898 341.108 101.128 341.35 101.283C341.591 101.438 342.026 101.586 342.655 101.728C343.289 101.869 343.801 102.037 344.193 102.233C344.585 102.429 344.875 102.666 345.062 102.944C345.253 103.218 345.349 103.553 345.349 103.949C345.349 104.61 345.084 105.141 344.556 105.542C344.027 105.938 343.341 106.137 342.498 106.137C341.906 106.137 341.382 106.032 340.926 105.822C340.47 105.613 340.112 105.321 339.853 104.947C339.597 104.569 339.47 104.161 339.47 103.724H340.734C340.757 104.147 340.926 104.485 341.24 104.735C341.559 104.981 341.979 105.104 342.498 105.104C342.977 105.104 343.359 105.009 343.646 104.817C343.938 104.621 344.084 104.362 344.084 104.038ZM353.244 102.384C353.244 103.509 352.987 104.416 352.472 105.104C351.957 105.793 351.259 106.137 350.38 106.137C349.482 106.137 348.776 105.852 348.261 105.282V108.844H346.996V98.6035H348.151L348.213 99.4238C348.728 98.7858 349.443 98.4668 350.359 98.4668C351.248 98.4668 351.95 98.8018 352.465 99.4717C352.984 100.142 353.244 101.074 353.244 102.268V102.384ZM351.979 102.24C351.979 101.406 351.802 100.748 351.446 100.265C351.091 99.7816 350.603 99.54 349.983 99.54C349.218 99.54 348.644 99.8796 348.261 100.559V104.093C348.639 104.767 349.218 105.104 349.997 105.104C350.603 105.104 351.084 104.865 351.439 104.387C351.799 103.904 351.979 103.188 351.979 102.24ZM357.927 106.137C356.924 106.137 356.108 105.809 355.479 105.152C354.851 104.492 354.536 103.61 354.536 102.507V102.274C354.536 101.541 354.675 100.887 354.953 100.312C355.236 99.7337 355.628 99.2826 356.129 98.959C356.635 98.6309 357.182 98.4668 357.77 98.4668C358.731 98.4668 359.479 98.7835 360.012 99.417C360.545 100.05 360.812 100.957 360.812 102.138V102.664H355.801C355.819 103.393 356.031 103.983 356.437 104.435C356.847 104.881 357.366 105.104 357.995 105.104C358.442 105.104 358.82 105.013 359.13 104.831C359.44 104.649 359.711 104.407 359.943 104.106L360.716 104.708C360.096 105.66 359.166 106.137 357.927 106.137ZM357.77 99.5059C357.259 99.5059 356.831 99.6927 356.484 100.066C356.138 100.436 355.924 100.955 355.842 101.625H359.547V101.529C359.51 100.887 359.337 100.39 359.027 100.039C358.717 99.6836 358.298 99.5059 357.77 99.5059ZM363.478 98.6035L363.519 99.5332C364.084 98.8223 364.822 98.4668 365.733 98.4668C367.297 98.4668 368.085 99.3486 368.099 101.112V106H366.834V101.105C366.829 100.572 366.706 100.178 366.465 99.9229C366.228 99.6676 365.856 99.54 365.351 99.54C364.94 99.54 364.58 99.6494 364.271 99.8682C363.961 100.087 363.719 100.374 363.546 100.729V106H362.281V98.6035H363.478ZM371.722 96.8125V98.6035H373.103V99.5811H371.722V104.168C371.722 104.464 371.783 104.688 371.906 104.838C372.029 104.984 372.239 105.057 372.535 105.057C372.681 105.057 372.882 105.029 373.137 104.975V106C372.804 106.091 372.48 106.137 372.166 106.137C371.601 106.137 371.175 105.966 370.888 105.624C370.601 105.282 370.457 104.797 370.457 104.168V99.5811H369.11V98.6035H370.457V96.8125H371.722Z" fill="black"/>
<rect x="0.5" y="0.5" width="453" height="244" stroke="#DADCE0"/>
<line x1="77.8884" y1="207.5" x2="420.29" y2="207.5" stroke="#83959D"/>
<path d="M99.7976 48.0117V207.629H211.743V48.0117H99.7976Z" fill="#5DC644"/>
<path d="M285.023 115.549V207.316H396.987V115.549H285.023Z" fill="#FDAF40"/>
<path d="M134.176 228.814V218.861H137.662C138.87 218.861 139.786 219.094 140.41 219.559C141.034 220.019 141.347 220.696 141.347 221.589C141.347 222.076 141.221 222.507 140.971 222.881C140.72 223.25 140.371 223.521 139.925 223.694C140.435 223.822 140.836 224.079 141.128 224.467C141.424 224.854 141.572 225.328 141.572 225.889C141.572 226.846 141.267 227.57 140.656 228.062C140.046 228.555 139.175 228.805 138.045 228.814H134.176ZM136.227 224.48V227.167H137.983C138.466 227.167 138.842 227.053 139.111 226.825C139.385 226.593 139.521 226.274 139.521 225.868C139.521 224.957 139.05 224.494 138.106 224.48H136.227ZM136.227 223.031H137.744C138.779 223.013 139.296 222.601 139.296 221.794C139.296 221.343 139.164 221.019 138.899 220.823C138.64 220.623 138.227 220.522 137.662 220.522H136.227V223.031ZM147.417 228.062C146.929 228.655 146.255 228.951 145.394 228.951C144.601 228.951 143.994 228.723 143.575 228.268C143.16 227.812 142.949 227.144 142.939 226.265V221.418H144.915V226.196C144.915 226.966 145.266 227.352 145.968 227.352C146.638 227.352 147.098 227.119 147.349 226.654V221.418H149.331V228.814H147.472L147.417 228.062ZM150.514 225.062C150.514 223.909 150.771 222.99 151.286 222.307C151.806 221.623 152.514 221.281 153.412 221.281C154.132 221.281 154.727 221.55 155.196 222.088V218.314H157.179V228.814H155.394L155.299 228.028C154.807 228.644 154.173 228.951 153.398 228.951C152.528 228.951 151.828 228.609 151.3 227.926C150.776 227.238 150.514 226.283 150.514 225.062ZM152.489 225.205C152.489 225.898 152.61 226.429 152.852 226.798C153.093 227.167 153.444 227.352 153.904 227.352C154.515 227.352 154.946 227.094 155.196 226.579V223.66C154.95 223.145 154.524 222.888 153.918 222.888C152.965 222.888 152.489 223.66 152.489 225.205ZM158.423 225.062C158.423 223.927 158.692 223.013 159.229 222.32C159.772 221.628 160.501 221.281 161.417 221.281C162.228 221.281 162.859 221.559 163.31 222.115L163.393 221.418H165.184V228.568C165.184 229.215 165.035 229.778 164.739 230.257C164.448 230.735 164.035 231.1 163.502 231.351C162.969 231.601 162.344 231.727 161.629 231.727C161.087 231.727 160.558 231.617 160.043 231.398C159.528 231.184 159.138 230.906 158.874 230.564L159.749 229.361C160.241 229.913 160.838 230.188 161.54 230.188C162.064 230.188 162.472 230.047 162.764 229.765C163.055 229.487 163.201 229.09 163.201 228.575V228.179C162.745 228.694 162.146 228.951 161.403 228.951C160.515 228.951 159.795 228.605 159.243 227.912C158.696 227.215 158.423 226.292 158.423 225.144V225.062ZM160.398 225.205C160.398 225.875 160.533 226.401 160.802 226.784C161.071 227.162 161.44 227.352 161.909 227.352C162.511 227.352 162.941 227.126 163.201 226.675V223.564C162.937 223.113 162.511 222.888 161.923 222.888C161.449 222.888 161.075 223.081 160.802 223.469C160.533 223.856 160.398 224.435 160.398 225.205ZM170.112 228.951C169.028 228.951 168.144 228.618 167.46 227.953C166.781 227.288 166.441 226.401 166.441 225.294V225.103C166.441 224.36 166.585 223.697 166.872 223.113C167.159 222.525 167.565 222.074 168.089 221.76C168.617 221.441 169.219 221.281 169.894 221.281C170.905 221.281 171.7 221.6 172.279 222.238C172.863 222.876 173.154 223.781 173.154 224.952V225.759H168.444C168.508 226.242 168.699 226.629 169.019 226.921C169.342 227.213 169.75 227.358 170.242 227.358C171.003 227.358 171.598 227.083 172.026 226.531L172.997 227.618C172.701 228.037 172.3 228.366 171.794 228.603C171.288 228.835 170.727 228.951 170.112 228.951ZM169.887 222.881C169.495 222.881 169.176 223.013 168.93 223.277C168.688 223.542 168.533 223.92 168.465 224.412H171.213V224.255C171.204 223.817 171.085 223.48 170.857 223.243C170.63 223.002 170.306 222.881 169.887 222.881ZM176.647 219.6V221.418H177.912V222.867H176.647V226.559C176.647 226.832 176.7 227.028 176.805 227.146C176.909 227.265 177.11 227.324 177.406 227.324C177.625 227.324 177.819 227.308 177.987 227.276V228.773C177.6 228.892 177.201 228.951 176.791 228.951C175.406 228.951 174.699 228.252 174.672 226.853V222.867H173.592V221.418H174.672V219.6H176.647Z" fill="#83959D"/>
<path d="M328.979 226.203C328.979 225.816 328.842 225.52 328.569 225.314C328.296 225.105 327.803 224.886 327.092 224.658C326.382 224.426 325.819 224.198 325.404 223.975C324.274 223.364 323.709 222.541 323.709 221.507C323.709 220.969 323.859 220.491 324.16 220.071C324.465 219.647 324.9 219.317 325.466 219.08C326.035 218.843 326.673 218.725 327.38 218.725C328.091 218.725 328.724 218.854 329.28 219.114C329.836 219.369 330.267 219.732 330.572 220.201C330.882 220.671 331.037 221.204 331.037 221.801H328.986C328.986 221.345 328.842 220.992 328.555 220.741C328.268 220.486 327.865 220.358 327.345 220.358C326.844 220.358 326.454 220.465 326.176 220.68C325.898 220.889 325.759 221.167 325.759 221.514C325.759 221.837 325.921 222.108 326.245 222.327C326.573 222.546 327.054 222.751 327.687 222.942C328.854 223.293 329.704 223.729 330.237 224.248C330.77 224.768 331.037 225.415 331.037 226.189C331.037 227.051 330.711 227.728 330.059 228.22C329.408 228.707 328.53 228.951 327.427 228.951C326.662 228.951 325.965 228.812 325.336 228.534C324.707 228.252 324.226 227.867 323.893 227.379C323.565 226.891 323.401 226.326 323.401 225.684H325.459C325.459 226.782 326.115 227.331 327.427 227.331C327.915 227.331 328.296 227.233 328.569 227.037C328.842 226.837 328.979 226.559 328.979 226.203ZM338.96 225.185C338.96 226.324 338.7 227.238 338.18 227.926C337.665 228.609 336.968 228.951 336.089 228.951C335.341 228.951 334.737 228.691 334.277 228.172V231.658H332.301V221.418H334.133L334.202 222.143C334.68 221.568 335.305 221.281 336.075 221.281C336.986 221.281 337.695 221.618 338.201 222.293C338.707 222.967 338.96 223.897 338.96 225.082V225.185ZM336.984 225.041C336.984 224.353 336.861 223.822 336.615 223.448C336.373 223.075 336.02 222.888 335.555 222.888C334.936 222.888 334.509 223.125 334.277 223.599V226.627C334.519 227.115 334.949 227.358 335.569 227.358C336.512 227.358 336.984 226.586 336.984 225.041ZM343.594 228.951C342.51 228.951 341.626 228.618 340.942 227.953C340.263 227.288 339.924 226.401 339.924 225.294V225.103C339.924 224.36 340.067 223.697 340.354 223.113C340.641 222.525 341.047 222.074 341.571 221.76C342.1 221.441 342.701 221.281 343.376 221.281C344.387 221.281 345.183 221.6 345.761 222.238C346.345 222.876 346.636 223.781 346.636 224.952V225.759H341.926C341.99 226.242 342.182 226.629 342.501 226.921C342.824 227.213 343.232 227.358 343.724 227.358C344.485 227.358 345.08 227.083 345.508 226.531L346.479 227.618C346.183 228.037 345.782 228.366 345.276 228.603C344.77 228.835 344.21 228.951 343.594 228.951ZM343.369 222.881C342.977 222.881 342.658 223.013 342.412 223.277C342.17 223.542 342.015 223.92 341.947 224.412H344.695V224.255C344.686 223.817 344.567 223.48 344.34 223.243C344.112 223.002 343.788 222.881 343.369 222.881ZM349.583 221.418L349.644 222.272C350.173 221.612 350.882 221.281 351.77 221.281C352.554 221.281 353.137 221.511 353.52 221.972C353.903 222.432 354.099 223.12 354.108 224.036V228.814H352.133V224.084C352.133 223.665 352.041 223.362 351.859 223.175C351.677 222.983 351.374 222.888 350.95 222.888C350.394 222.888 349.977 223.125 349.699 223.599V228.814H347.723V221.418H349.583ZM357.977 219.6V221.418H359.242V222.867H357.977V226.559C357.977 226.832 358.03 227.028 358.134 227.146C358.239 227.265 358.44 227.324 358.736 227.324C358.955 227.324 359.148 227.308 359.317 227.276V228.773C358.93 228.892 358.531 228.951 358.121 228.951C356.735 228.951 356.029 228.252 356.002 226.853V222.867H354.922V221.418H356.002V219.6H357.977Z" fill="#83959D"/>
<path d="M61.2366 210.898C61.2366 212.168 61.0198 213.111 60.5862 213.729C60.1526 214.346 59.4749 214.654 58.553 214.654C57.6428 214.654 56.969 214.354 56.5315 213.752C56.094 213.146 55.8674 212.244 55.8518 211.045V209.598C55.8518 208.344 56.0686 207.412 56.5022 206.803C56.9358 206.193 57.6155 205.889 58.5413 205.889C59.4592 205.889 60.135 206.184 60.5686 206.773C61.0022 207.359 61.2249 208.266 61.2366 209.492V210.898ZM60.1526 209.416C60.1526 208.498 60.0237 207.83 59.7659 207.412C59.5081 206.99 59.0999 206.779 58.5413 206.779C57.9866 206.779 57.5823 206.988 57.3284 207.406C57.0745 207.824 56.9436 208.467 56.9358 209.334V211.068C56.9358 211.99 57.0686 212.672 57.3342 213.113C57.6038 213.551 58.01 213.77 58.553 213.77C59.0882 213.77 59.4846 213.562 59.7424 213.148C60.0042 212.734 60.1409 212.082 60.1526 211.191V209.416Z" fill="#A3A3A3"/>
<path d="M32.1682 178.029H26.5784V177.25L29.5315 173.969C29.969 173.473 30.2698 173.07 30.4339 172.762C30.6018 172.449 30.6858 172.127 30.6858 171.795C30.6858 171.35 30.551 170.984 30.2815 170.699C30.012 170.414 29.6526 170.271 29.2034 170.271C28.6643 170.271 28.2444 170.426 27.9436 170.734C27.6467 171.039 27.4983 171.465 27.4983 172.012H26.4143C26.4143 171.227 26.6663 170.592 27.1702 170.107C27.678 169.623 28.3557 169.381 29.2034 169.381C29.9964 169.381 30.6233 169.59 31.0842 170.008C31.5452 170.422 31.7757 170.975 31.7757 171.666C31.7757 172.506 31.2405 173.506 30.1702 174.666L27.885 177.145H32.1682V178.029ZM38.6663 174.391C38.6663 175.66 38.4495 176.604 38.0159 177.221C37.5823 177.838 36.9046 178.146 35.9827 178.146C35.0725 178.146 34.3987 177.846 33.9612 177.244C33.5237 176.639 33.2971 175.736 33.2815 174.537V173.09C33.2815 171.836 33.4983 170.904 33.9319 170.295C34.3655 169.686 35.0452 169.381 35.971 169.381C36.8889 169.381 37.5647 169.676 37.9983 170.266C38.4319 170.852 38.6546 171.758 38.6663 172.984V174.391ZM37.5823 172.908C37.5823 171.99 37.4534 171.322 37.1956 170.904C36.9378 170.482 36.5296 170.271 35.971 170.271C35.4163 170.271 35.012 170.48 34.7581 170.898C34.5042 171.316 34.3733 171.959 34.3655 172.826V174.561C34.3655 175.482 34.4983 176.164 34.7639 176.605C35.0335 177.043 35.4397 177.262 35.9827 177.262C36.5178 177.262 36.9143 177.055 37.1721 176.641C37.4339 176.227 37.5706 175.574 37.5823 174.684V172.908ZM40.1311 179.729L39.5159 179.307C39.8831 178.795 40.0745 178.268 40.0901 177.725V176.746H41.1507V177.596C41.1507 177.99 41.053 178.385 40.8577 178.779C40.6663 179.174 40.4241 179.49 40.1311 179.729ZM47.76 174.391C47.76 175.66 47.5432 176.604 47.1096 177.221C46.676 177.838 45.9983 178.146 45.0764 178.146C44.1663 178.146 43.4924 177.846 43.0549 177.244C42.6174 176.639 42.3909 175.736 42.3753 174.537V173.09C42.3753 171.836 42.5921 170.904 43.0257 170.295C43.4592 169.686 44.1389 169.381 45.0647 169.381C45.9827 169.381 46.6585 169.676 47.0921 170.266C47.5257 170.852 47.7483 171.758 47.76 172.984V174.391ZM46.676 172.908C46.676 171.99 46.5471 171.322 46.2893 170.904C46.0315 170.482 45.6233 170.271 45.0647 170.271C44.51 170.271 44.1057 170.48 43.8518 170.898C43.5979 171.316 43.4671 171.959 43.4592 172.826V174.561C43.4592 175.482 43.5921 176.164 43.8577 176.605C44.1272 177.043 44.5335 177.262 45.0764 177.262C45.6116 177.262 46.0081 177.055 46.2659 176.641C46.5276 176.227 46.6643 175.574 46.676 174.684V172.908ZM54.4983 174.391C54.4983 175.66 54.2815 176.604 53.8479 177.221C53.4143 177.838 52.7366 178.146 51.8147 178.146C50.9046 178.146 50.2307 177.846 49.7932 177.244C49.3557 176.639 49.1292 175.736 49.1135 174.537V173.09C49.1135 171.836 49.3303 170.904 49.7639 170.295C50.1975 169.686 50.8772 169.381 51.803 169.381C52.721 169.381 53.3967 169.676 53.8303 170.266C54.2639 170.852 54.4866 171.758 54.4983 172.984V174.391ZM53.4143 172.908C53.4143 171.99 53.2854 171.322 53.0276 170.904C52.7698 170.482 52.3616 170.271 51.803 170.271C51.2483 170.271 50.844 170.48 50.5901 170.898C50.3362 171.316 50.2053 171.959 50.1975 172.826V174.561C50.1975 175.482 50.3303 176.164 50.596 176.605C50.8655 177.043 51.2717 177.262 51.8147 177.262C52.3499 177.262 52.7464 177.055 53.0042 176.641C53.2659 176.227 53.4026 175.574 53.4143 174.684V172.908ZM61.2366 174.391C61.2366 175.66 61.0198 176.604 60.5862 177.221C60.1526 177.838 59.4749 178.146 58.553 178.146C57.6428 178.146 56.969 177.846 56.5315 177.244C56.094 176.639 55.8674 175.736 55.8518 174.537V173.09C55.8518 171.836 56.0686 170.904 56.5022 170.295C56.9358 169.686 57.6155 169.381 58.5413 169.381C59.4592 169.381 60.135 169.676 60.5686 170.266C61.0022 170.852 61.2249 171.758 61.2366 172.984V174.391ZM60.1526 172.908C60.1526 171.99 60.0237 171.322 59.7659 170.904C59.5081 170.482 59.0999 170.271 58.5413 170.271C57.9866 170.271 57.5823 170.48 57.3284 170.898C57.0745 171.316 56.9436 171.959 56.9358 172.826V174.561C56.9358 175.482 57.0686 176.164 57.3342 176.605C57.6038 177.043 58.01 177.262 58.553 177.262C59.0882 177.262 59.4846 177.055 59.7424 176.641C60.0042 176.227 60.1409 175.574 60.1526 174.684V172.908Z" fill="#A3A3A3"/>
<path d="M31.1546 138.656H32.3382V139.541H31.1546V141.521H30.0647V139.541H26.1799V138.902L30.0003 132.99H31.1546V138.656ZM27.4104 138.656H30.0647V134.473L29.9358 134.707L27.4104 138.656ZM38.6663 137.883C38.6663 139.152 38.4495 140.096 38.0159 140.713C37.5823 141.33 36.9046 141.639 35.9827 141.639C35.0725 141.639 34.3987 141.338 33.9612 140.736C33.5237 140.131 33.2971 139.229 33.2815 138.029V136.582C33.2815 135.328 33.4983 134.396 33.9319 133.787C34.3655 133.178 35.0452 132.873 35.971 132.873C36.8889 132.873 37.5647 133.168 37.9983 133.758C38.4319 134.344 38.6546 135.25 38.6663 136.477V137.883ZM37.5823 136.4C37.5823 135.482 37.4534 134.814 37.1956 134.396C36.9378 133.975 36.5296 133.764 35.971 133.764C35.4163 133.764 35.012 133.973 34.7581 134.391C34.5042 134.809 34.3733 135.451 34.3655 136.318V138.053C34.3655 138.975 34.4983 139.656 34.7639 140.098C35.0335 140.535 35.4397 140.754 35.9827 140.754C36.5178 140.754 36.9143 140.547 37.1721 140.133C37.4339 139.719 37.5706 139.066 37.5823 138.176V136.4ZM40.1311 143.221L39.5159 142.799C39.8831 142.287 40.0745 141.76 40.0901 141.217V140.238H41.1507V141.088C41.1507 141.482 41.053 141.877 40.8577 142.271C40.6663 142.666 40.4241 142.982 40.1311 143.221ZM47.76 137.883C47.76 139.152 47.5432 140.096 47.1096 140.713C46.676 141.33 45.9983 141.639 45.0764 141.639C44.1663 141.639 43.4924 141.338 43.0549 140.736C42.6174 140.131 42.3909 139.229 42.3753 138.029V136.582C42.3753 135.328 42.5921 134.396 43.0257 133.787C43.4592 133.178 44.1389 132.873 45.0647 132.873C45.9827 132.873 46.6585 133.168 47.0921 133.758C47.5257 134.344 47.7483 135.25 47.76 136.477V137.883ZM46.676 136.4C46.676 135.482 46.5471 134.814 46.2893 134.396C46.0315 133.975 45.6233 133.764 45.0647 133.764C44.51 133.764 44.1057 133.973 43.8518 134.391C43.5979 134.809 43.4671 135.451 43.4592 136.318V138.053C43.4592 138.975 43.5921 139.656 43.8577 140.098C44.1272 140.535 44.5335 140.754 45.0764 140.754C45.6116 140.754 46.0081 140.547 46.2659 140.133C46.5276 139.719 46.6643 139.066 46.676 138.176V136.4ZM54.4983 137.883C54.4983 139.152 54.2815 140.096 53.8479 140.713C53.4143 141.33 52.7366 141.639 51.8147 141.639C50.9046 141.639 50.2307 141.338 49.7932 140.736C49.3557 140.131 49.1292 139.229 49.1135 138.029V136.582C49.1135 135.328 49.3303 134.396 49.7639 133.787C50.1975 133.178 50.8772 132.873 51.803 132.873C52.721 132.873 53.3967 133.168 53.8303 133.758C54.2639 134.344 54.4866 135.25 54.4983 136.477V137.883ZM53.4143 136.4C53.4143 135.482 53.2854 134.814 53.0276 134.396C52.7698 133.975 52.3616 133.764 51.803 133.764C51.2483 133.764 50.844 133.973 50.5901 134.391C50.3362 134.809 50.2053 135.451 50.1975 136.318V138.053C50.1975 138.975 50.3303 139.656 50.596 140.098C50.8655 140.535 51.2717 140.754 51.8147 140.754C52.3499 140.754 52.7464 140.547 53.0042 140.133C53.2659 139.719 53.4026 139.066 53.4143 138.176V136.4ZM61.2366 137.883C61.2366 139.152 61.0198 140.096 60.5862 140.713C60.1526 141.33 59.4749 141.639 58.553 141.639C57.6428 141.639 56.969 141.338 56.5315 140.736C56.094 140.131 55.8674 139.229 55.8518 138.029V136.582C55.8518 135.328 56.0686 134.396 56.5022 133.787C56.9358 133.178 57.6155 132.873 58.5413 132.873C59.4592 132.873 60.135 133.168 60.5686 133.758C61.0022 134.344 61.2249 135.25 61.2366 136.477V137.883ZM60.1526 136.4C60.1526 135.482 60.0237 134.814 59.7659 134.396C59.5081 133.975 59.0999 133.764 58.5413 133.764C57.9866 133.764 57.5823 133.973 57.3284 134.391C57.0745 134.809 56.9436 135.451 56.9358 136.318V138.053C56.9358 138.975 57.0686 139.656 57.3342 140.098C57.6038 140.535 58.01 140.754 58.553 140.754C59.0882 140.754 59.4846 140.547 59.7424 140.133C60.0042 139.719 60.1409 139.066 60.1526 138.176V136.4Z" fill="#A3A3A3"/>
<path d="M30.8323 96.4785V97.3984H30.6331C29.7893 97.4141 29.1174 97.6641 28.6174 98.1484C28.1174 98.6328 27.8284 99.3145 27.7503 100.193C28.1995 99.6777 28.8128 99.4199 29.5901 99.4199C30.3323 99.4199 30.9241 99.6816 31.3655 100.205C31.8108 100.729 32.0335 101.404 32.0335 102.232C32.0335 103.111 31.7932 103.814 31.3128 104.342C30.8362 104.869 30.1956 105.133 29.3909 105.133C28.5745 105.133 27.9124 104.82 27.4046 104.195C26.8967 103.566 26.6428 102.758 26.6428 101.77V101.354C26.6428 99.7832 26.9768 98.584 27.6448 97.7559C28.3167 96.9238 29.3147 96.498 30.6389 96.4785H30.8323ZM29.4085 100.322C29.0374 100.322 28.6956 100.434 28.3831 100.656C28.0706 100.879 27.8538 101.158 27.7327 101.494V101.893C27.7327 102.596 27.8909 103.162 28.2073 103.592C28.5237 104.021 28.9182 104.236 29.3909 104.236C29.8792 104.236 30.262 104.057 30.5393 103.697C30.8206 103.338 30.9612 102.867 30.9612 102.285C30.9612 101.699 30.8186 101.227 30.5335 100.867C30.2522 100.504 29.8772 100.322 29.4085 100.322ZM38.6663 101.377C38.6663 102.646 38.4495 103.59 38.0159 104.207C37.5823 104.824 36.9046 105.133 35.9827 105.133C35.0725 105.133 34.3987 104.832 33.9612 104.23C33.5237 103.625 33.2971 102.723 33.2815 101.523V100.076C33.2815 98.8223 33.4983 97.8906 33.9319 97.2812C34.3655 96.6719 35.0452 96.3672 35.971 96.3672C36.8889 96.3672 37.5647 96.6621 37.9983 97.252C38.4319 97.8379 38.6546 98.7441 38.6663 99.9707V101.377ZM37.5823 99.8945C37.5823 98.9766 37.4534 98.3086 37.1956 97.8906C36.9378 97.4688 36.5296 97.2578 35.971 97.2578C35.4163 97.2578 35.012 97.4668 34.7581 97.8848C34.5042 98.3027 34.3733 98.9453 34.3655 99.8125V101.547C34.3655 102.469 34.4983 103.15 34.7639 103.592C35.0335 104.029 35.4397 104.248 35.9827 104.248C36.5178 104.248 36.9143 104.041 37.1721 103.627C37.4339 103.213 37.5706 102.561 37.5823 101.67V99.8945ZM40.1311 106.715L39.5159 106.293C39.8831 105.781 40.0745 105.254 40.0901 104.711V103.732H41.1507V104.582C41.1507 104.977 41.053 105.371 40.8577 105.766C40.6663 106.16 40.4241 106.477 40.1311 106.715ZM47.76 101.377C47.76 102.646 47.5432 103.59 47.1096 104.207C46.676 104.824 45.9983 105.133 45.0764 105.133C44.1663 105.133 43.4924 104.832 43.0549 104.23C42.6174 103.625 42.3909 102.723 42.3753 101.523V100.076C42.3753 98.8223 42.5921 97.8906 43.0257 97.2812C43.4592 96.6719 44.1389 96.3672 45.0647 96.3672C45.9827 96.3672 46.6585 96.6621 47.0921 97.252C47.5257 97.8379 47.7483 98.7441 47.76 99.9707V101.377ZM46.676 99.8945C46.676 98.9766 46.5471 98.3086 46.2893 97.8906C46.0315 97.4688 45.6233 97.2578 45.0647 97.2578C44.51 97.2578 44.1057 97.4668 43.8518 97.8848C43.5979 98.3027 43.4671 98.9453 43.4592 99.8125V101.547C43.4592 102.469 43.5921 103.15 43.8577 103.592C44.1272 104.029 44.5335 104.248 45.0764 104.248C45.6116 104.248 46.0081 104.041 46.2659 103.627C46.5276 103.213 46.6643 102.561 46.676 101.67V99.8945ZM54.4983 101.377C54.4983 102.646 54.2815 103.59 53.8479 104.207C53.4143 104.824 52.7366 105.133 51.8147 105.133C50.9046 105.133 50.2307 104.832 49.7932 104.23C49.3557 103.625 49.1292 102.723 49.1135 101.523V100.076C49.1135 98.8223 49.3303 97.8906 49.7639 97.2812C50.1975 96.6719 50.8772 96.3672 51.803 96.3672C52.721 96.3672 53.3967 96.6621 53.8303 97.252C54.2639 97.8379 54.4866 98.7441 54.4983 99.9707V101.377ZM53.4143 99.8945C53.4143 98.9766 53.2854 98.3086 53.0276 97.8906C52.7698 97.4688 52.3616 97.2578 51.803 97.2578C51.2483 97.2578 50.844 97.4668 50.5901 97.8848C50.3362 98.3027 50.2053 98.9453 50.1975 99.8125V101.547C50.1975 102.469 50.3303 103.15 50.596 103.592C50.8655 104.029 51.2717 104.248 51.8147 104.248C52.3499 104.248 52.7464 104.041 53.0042 103.627C53.2659 103.213 53.4026 102.561 53.4143 101.67V99.8945ZM61.2366 101.377C61.2366 102.646 61.0198 103.59 60.5862 104.207C60.1526 104.824 59.4749 105.133 58.553 105.133C57.6428 105.133 56.969 104.832 56.5315 104.23C56.094 103.625 55.8674 102.723 55.8518 101.523V100.076C55.8518 98.8223 56.0686 97.8906 56.5022 97.2812C56.9358 96.6719 57.6155 96.3672 58.5413 96.3672C59.4592 96.3672 60.135 96.6621 60.5686 97.252C61.0022 97.8379 61.2249 98.7441 61.2366 99.9707V101.377ZM60.1526 99.8945C60.1526 98.9766 60.0237 98.3086 59.7659 97.8906C59.5081 97.4688 59.0999 97.2578 58.5413 97.2578C57.9866 97.2578 57.5823 97.4668 57.3284 97.8848C57.0745 98.3027 56.9436 98.9453 56.9358 99.8125V101.547C56.9358 102.469 57.0686 103.15 57.3342 103.592C57.6038 104.029 58.01 104.248 58.553 104.248C59.0882 104.248 59.4846 104.041 59.7424 103.627C60.0042 103.213 60.1409 102.561 60.1526 101.67V99.8945Z" fill="#A3A3A3"/>
<path d="M31.7522 62.2031C31.7522 62.6289 31.6389 63.0078 31.4124 63.3398C31.1897 63.6719 30.887 63.9316 30.5042 64.1191C30.9495 64.3105 31.301 64.5898 31.5589 64.957C31.8206 65.3242 31.9514 65.7402 31.9514 66.2051C31.9514 66.9434 31.7014 67.5312 31.2014 67.9688C30.7053 68.4062 30.051 68.625 29.2385 68.625C28.4182 68.625 27.76 68.4062 27.2639 67.9688C26.7717 67.5273 26.5257 66.9395 26.5257 66.2051C26.5257 65.7441 26.6507 65.3281 26.9007 64.957C27.1546 64.5859 27.5042 64.3047 27.9495 64.1133C27.5706 63.9258 27.2717 63.666 27.053 63.334C26.8342 63.002 26.7249 62.625 26.7249 62.2031C26.7249 61.4844 26.9553 60.9141 27.4163 60.4922C27.8772 60.0703 28.4846 59.8594 29.2385 59.8594C29.9885 59.8594 30.594 60.0703 31.0549 60.4922C31.5198 60.9141 31.7522 61.4844 31.7522 62.2031ZM30.8674 66.1816C30.8674 65.7051 30.7151 65.3164 30.4104 65.0156C30.1096 64.7148 29.7151 64.5645 29.2268 64.5645C28.7385 64.5645 28.346 64.7129 28.0491 65.0098C27.7561 65.3066 27.6096 65.6973 27.6096 66.1816C27.6096 66.666 27.7522 67.0469 28.0374 67.3242C28.3264 67.6016 28.7268 67.7402 29.2385 67.7402C29.7464 67.7402 30.1448 67.6016 30.4339 67.3242C30.7229 67.043 30.8674 66.6621 30.8674 66.1816ZM29.2385 60.75C28.8128 60.75 28.4671 60.8828 28.2014 61.1484C27.9397 61.4102 27.8089 61.7676 27.8089 62.2207C27.8089 62.6543 27.9378 63.0059 28.1956 63.2754C28.4573 63.541 28.8049 63.6738 29.2385 63.6738C29.6721 63.6738 30.0178 63.541 30.2757 63.2754C30.5374 63.0059 30.6682 62.6543 30.6682 62.2207C30.6682 61.7871 30.5335 61.4336 30.2639 61.1602C29.9944 60.8867 29.6526 60.75 29.2385 60.75ZM38.6663 64.8691C38.6663 66.1387 38.4495 67.082 38.0159 67.6992C37.5823 68.3164 36.9046 68.625 35.9827 68.625C35.0725 68.625 34.3987 68.3242 33.9612 67.7227C33.5237 67.1172 33.2971 66.2148 33.2815 65.0156V63.5684C33.2815 62.3145 33.4983 61.3828 33.9319 60.7734C34.3655 60.1641 35.0452 59.8594 35.971 59.8594C36.8889 59.8594 37.5647 60.1543 37.9983 60.7441C38.4319 61.3301 38.6546 62.2363 38.6663 63.4629V64.8691ZM37.5823 63.3867C37.5823 62.4688 37.4534 61.8008 37.1956 61.3828C36.9378 60.9609 36.5296 60.75 35.971 60.75C35.4163 60.75 35.012 60.959 34.7581 61.377C34.5042 61.7949 34.3733 62.4375 34.3655 63.3047V65.0391C34.3655 65.9609 34.4983 66.6426 34.7639 67.084C35.0335 67.5215 35.4397 67.7402 35.9827 67.7402C36.5178 67.7402 36.9143 67.5332 37.1721 67.1191C37.4339 66.7051 37.5706 66.0527 37.5823 65.1621V63.3867ZM40.1311 70.207L39.5159 69.7852C39.8831 69.2734 40.0745 68.7461 40.0901 68.2031V67.2246H41.1507V68.0742C41.1507 68.4688 41.053 68.8633 40.8577 69.2578C40.6663 69.6523 40.4241 69.9688 40.1311 70.207ZM47.76 64.8691C47.76 66.1387 47.5432 67.082 47.1096 67.6992C46.676 68.3164 45.9983 68.625 45.0764 68.625C44.1663 68.625 43.4924 68.3242 43.0549 67.7227C42.6174 67.1172 42.3909 66.2148 42.3753 65.0156V63.5684C42.3753 62.3145 42.5921 61.3828 43.0257 60.7734C43.4592 60.1641 44.1389 59.8594 45.0647 59.8594C45.9827 59.8594 46.6585 60.1543 47.0921 60.7441C47.5257 61.3301 47.7483 62.2363 47.76 63.4629V64.8691ZM46.676 63.3867C46.676 62.4688 46.5471 61.8008 46.2893 61.3828C46.0315 60.9609 45.6233 60.75 45.0647 60.75C44.51 60.75 44.1057 60.959 43.8518 61.377C43.5979 61.7949 43.4671 62.4375 43.4592 63.3047V65.0391C43.4592 65.9609 43.5921 66.6426 43.8577 67.084C44.1272 67.5215 44.5335 67.7402 45.0764 67.7402C45.6116 67.7402 46.0081 67.5332 46.2659 67.1191C46.5276 66.7051 46.6643 66.0527 46.676 65.1621V63.3867ZM54.4983 64.8691C54.4983 66.1387 54.2815 67.082 53.8479 67.6992C53.4143 68.3164 52.7366 68.625 51.8147 68.625C50.9046 68.625 50.2307 68.3242 49.7932 67.7227C49.3557 67.1172 49.1292 66.2148 49.1135 65.0156V63.5684C49.1135 62.3145 49.3303 61.3828 49.7639 60.7734C50.1975 60.1641 50.8772 59.8594 51.803 59.8594C52.721 59.8594 53.3967 60.1543 53.8303 60.7441C54.2639 61.3301 54.4866 62.2363 54.4983 63.4629V64.8691ZM53.4143 63.3867C53.4143 62.4688 53.2854 61.8008 53.0276 61.3828C52.7698 60.9609 52.3616 60.75 51.803 60.75C51.2483 60.75 50.844 60.959 50.5901 61.377C50.3362 61.7949 50.2053 62.4375 50.1975 63.3047V65.0391C50.1975 65.9609 50.3303 66.6426 50.596 67.084C50.8655 67.5215 51.2717 67.7402 51.8147 67.7402C52.3499 67.7402 52.7464 67.5332 53.0042 67.1191C53.2659 66.7051 53.4026 66.0527 53.4143 65.1621V63.3867ZM61.2366 64.8691C61.2366 66.1387 61.0198 67.082 60.5862 67.6992C60.1526 68.3164 59.4749 68.625 58.553 68.625C57.6428 68.625 56.969 68.3242 56.5315 67.7227C56.094 67.1172 55.8674 66.2148 55.8518 65.0156V63.5684C55.8518 62.3145 56.0686 61.3828 56.5022 60.7734C56.9358 60.1641 57.6155 59.8594 58.5413 59.8594C59.4592 59.8594 60.135 60.1543 60.5686 60.7441C61.0022 61.3301 61.2249 62.2363 61.2366 63.4629V64.8691ZM60.1526 63.3867C60.1526 62.4688 60.0237 61.8008 59.7659 61.3828C59.5081 60.9609 59.0999 60.75 58.5413 60.75C57.9866 60.75 57.5823 60.959 57.3284 61.377C57.0745 61.7949 56.9436 62.4375 56.9358 63.3047V65.0391C56.9358 65.9609 57.0686 66.6426 57.3342 67.084C57.6038 67.5215 58.01 67.7402 58.553 67.7402C59.0882 67.7402 59.4846 67.5332 59.7424 67.1191C60.0042 66.7051 60.1409 66.0527 60.1526 65.1621V63.3867Z" fill="#A3A3A3"/>
<path d="M21.0471 32H19.9573V24.7754L17.7717 25.5781V24.5938L20.8772 23.4277H21.0471V32ZM24.2991 33.6992L23.6839 33.2773C24.051 32.7656 24.2424 32.2383 24.2581 31.6953V30.7168H25.3186V31.5664C25.3186 31.9609 25.221 32.3555 25.0257 32.75C24.8342 33.1445 24.5921 33.4609 24.2991 33.6992ZM31.928 28.3613C31.928 29.6309 31.7112 30.5742 31.2776 31.1914C30.844 31.8086 30.1663 32.1172 29.2444 32.1172C28.3342 32.1172 27.6604 31.8164 27.2229 31.2148C26.7854 30.6094 26.5589 29.707 26.5432 28.5078V27.0605C26.5432 25.8066 26.76 24.875 27.1936 24.2656C27.6272 23.6562 28.3069 23.3516 29.2327 23.3516C30.1507 23.3516 30.8264 23.6465 31.26 24.2363C31.6936 24.8223 31.9163 25.7285 31.928 26.9551V28.3613ZM30.844 26.8789C30.844 25.9609 30.7151 25.293 30.4573 24.875C30.1995 24.4531 29.7913 24.2422 29.2327 24.2422C28.678 24.2422 28.2737 24.4512 28.0198 24.8691C27.7659 25.2871 27.635 25.9297 27.6272 26.7969V28.5312C27.6272 29.4531 27.76 30.1348 28.0257 30.5762C28.2952 31.0137 28.7014 31.2324 29.2444 31.2324C29.7796 31.2324 30.176 31.0254 30.4339 30.6113C30.6956 30.1973 30.8323 29.5449 30.844 28.6543V26.8789ZM38.6663 28.3613C38.6663 29.6309 38.4495 30.5742 38.0159 31.1914C37.5823 31.8086 36.9046 32.1172 35.9827 32.1172C35.0725 32.1172 34.3987 31.8164 33.9612 31.2148C33.5237 30.6094 33.2971 29.707 33.2815 28.5078V27.0605C33.2815 25.8066 33.4983 24.875 33.9319 24.2656C34.3655 23.6562 35.0452 23.3516 35.971 23.3516C36.8889 23.3516 37.5647 23.6465 37.9983 24.2363C38.4319 24.8223 38.6546 25.7285 38.6663 26.9551V28.3613ZM37.5823 26.8789C37.5823 25.9609 37.4534 25.293 37.1956 24.875C36.9378 24.4531 36.5296 24.2422 35.971 24.2422C35.4163 24.2422 35.012 24.4512 34.7581 24.8691C34.5042 25.2871 34.3733 25.9297 34.3655 26.7969V28.5312C34.3655 29.4531 34.4983 30.1348 34.7639 30.5762C35.0335 31.0137 35.4397 31.2324 35.9827 31.2324C36.5178 31.2324 36.9143 31.0254 37.1721 30.6113C37.4339 30.1973 37.5706 29.5449 37.5823 28.6543V26.8789ZM40.1311 33.6992L39.5159 33.2773C39.8831 32.7656 40.0745 32.2383 40.0901 31.6953V30.7168H41.1507V31.5664C41.1507 31.9609 41.053 32.3555 40.8577 32.75C40.6663 33.1445 40.4241 33.4609 40.1311 33.6992ZM47.76 28.3613C47.76 29.6309 47.5432 30.5742 47.1096 31.1914C46.676 31.8086 45.9983 32.1172 45.0764 32.1172C44.1663 32.1172 43.4924 31.8164 43.0549 31.2148C42.6174 30.6094 42.3909 29.707 42.3753 28.5078V27.0605C42.3753 25.8066 42.5921 24.875 43.0257 24.2656C43.4592 23.6562 44.1389 23.3516 45.0647 23.3516C45.9827 23.3516 46.6585 23.6465 47.0921 24.2363C47.5257 24.8223 47.7483 25.7285 47.76 26.9551V28.3613ZM46.676 26.8789C46.676 25.9609 46.5471 25.293 46.2893 24.875C46.0315 24.4531 45.6233 24.2422 45.0647 24.2422C44.51 24.2422 44.1057 24.4512 43.8518 24.8691C43.5979 25.2871 43.4671 25.9297 43.4592 26.7969V28.5312C43.4592 29.4531 43.5921 30.1348 43.8577 30.5762C44.1272 31.0137 44.5335 31.2324 45.0764 31.2324C45.6116 31.2324 46.0081 31.0254 46.2659 30.6113C46.5276 30.1973 46.6643 29.5449 46.676 28.6543V26.8789ZM54.4983 28.3613C54.4983 29.6309 54.2815 30.5742 53.8479 31.1914C53.4143 31.8086 52.7366 32.1172 51.8147 32.1172C50.9046 32.1172 50.2307 31.8164 49.7932 31.2148C49.3557 30.6094 49.1292 29.707 49.1135 28.5078V27.0605C49.1135 25.8066 49.3303 24.875 49.7639 24.2656C50.1975 23.6562 50.8772 23.3516 51.803 23.3516C52.721 23.3516 53.3967 23.6465 53.8303 24.2363C54.2639 24.8223 54.4866 25.7285 54.4983 26.9551V28.3613ZM53.4143 26.8789C53.4143 25.9609 53.2854 25.293 53.0276 24.875C52.7698 24.4531 52.3616 24.2422 51.803 24.2422C51.2483 24.2422 50.844 24.4512 50.5901 24.8691C50.3362 25.2871 50.2053 25.9297 50.1975 26.7969V28.5312C50.1975 29.4531 50.3303 30.1348 50.596 30.5762C50.8655 31.0137 51.2717 31.2324 51.8147 31.2324C52.3499 31.2324 52.7464 31.0254 53.0042 30.6113C53.2659 30.1973 53.4026 29.5449 53.4143 28.6543V26.8789ZM61.2366 28.3613C61.2366 29.6309 61.0198 30.5742 60.5862 31.1914C60.1526 31.8086 59.4749 32.1172 58.553 32.1172C57.6428 32.1172 56.969 31.8164 56.5315 31.2148C56.094 30.6094 55.8674 29.707 55.8518 28.5078V27.0605C55.8518 25.8066 56.0686 24.875 56.5022 24.2656C56.9358 23.6562 57.6155 23.3516 58.5413 23.3516C59.4592 23.3516 60.135 23.6465 60.5686 24.2363C61.0022 24.8223 61.2249 25.7285 61.2366 26.9551V28.3613ZM60.1526 26.8789C60.1526 25.9609 60.0237 25.293 59.7659 24.875C59.5081 24.4531 59.0999 24.2422 58.5413 24.2422C57.9866 24.2422 57.5823 24.4512 57.3284 24.8691C57.0745 25.2871 56.9436 25.9297 56.9358 26.7969V28.5312C56.9358 29.4531 57.0686 30.1348 57.3342 30.5762C57.6038 31.0137 58.01 31.2324 58.553 31.2324C59.0882 31.2324 59.4846 31.0254 59.7424 30.6113C60.0042 30.1973 60.1409 29.5449 60.1526 28.6543V26.8789Z" fill="#A3A3A3"/>
</svg>
