<svg width="20" height="22" viewBox="0 0 20 22" fill="none" xmlns="http://www.w3.org/2000/svg">
<path d="M13.8749 5.42972C12.6911 4.44448 11.136 3.93667 9.4907 3.98875C6.3355 4.09726 3.76218 6.40628 3.75214 9.14066C3.74713 10.3516 4.23872 11.5322 5.13662 12.461C6.43081 13.8065 7.14311 15.5035 7.14311 17.244C7.14311 17.244 7.00767 18.0426 7.6648 18.0426H11.7982C12.4703 18.0426 12.3199 17.244 12.3199 17.244C12.3199 15.5426 13.0422 13.8585 14.4116 12.3742C15.2594 11.4497 15.7108 10.3386 15.7108 9.15802C15.7108 7.73875 15.0587 6.41062 13.8749 5.42972ZM13.594 11.8099C12.1042 13.4245 11.3066 15.2648 11.2765 17.1398H8.18649C8.15639 15.2257 7.36382 13.3637 5.93922 11.8837C5.20183 11.1155 4.79552 10.1433 4.80053 9.145C4.81057 6.88805 6.93243 4.98267 9.53585 4.89153C10.8952 4.84812 12.1794 5.26913 13.1525 6.08076C14.1307 6.8924 14.6674 7.98615 14.6674 9.15802C14.6624 10.1346 14.2962 11.0504 13.594 11.8099Z" fill="#008FFF"/>
<path d="M16.6137 2.46525C16.4081 2.2873 16.077 2.2873 15.8763 2.46525L14.6022 3.56768C14.3966 3.74563 14.3966 4.03209 14.6022 4.2057C14.8079 4.37932 15.139 4.38366 15.3396 4.2057L16.6137 3.10327C16.8194 2.92966 16.8194 2.6432 16.6137 2.46525Z" fill="#008FFF"/>
<path d="M11.8182 18.6588H7.64473C7.35379 18.6588 7.12305 18.8628 7.12305 19.1102C7.12305 19.3619 7.35881 19.5616 7.64473 19.5616H11.8182C12.1092 19.5616 12.3399 19.3576 12.3399 19.1102C12.3399 18.8628 12.1042 18.6588 11.8182 18.6588Z" fill="#008FFF"/>
<path d="M11.0307 20.3602H8.43728C8.14633 20.3602 7.91559 20.5642 7.91559 20.8116C7.91559 21.0634 8.15135 21.263 8.43728 21.263H11.0307C11.3216 21.263 11.5523 21.059 11.5523 20.8116C11.5523 20.5642 11.3166 20.3602 11.0307 20.3602Z" fill="#008FFF"/>
<path d="M9.73147 2.46094C10.0224 2.46094 10.2532 2.25694 10.2532 2.00955V0.451389C10.2532 0.199653 10.0174 0 9.73147 0C9.44554 0 9.20978 0.203993 9.20978 0.451389V2.00955C9.20978 2.26128 9.44052 2.46094 9.73147 2.46094Z" fill="#008FFF"/>
<path d="M4.86071 4.2101C5.06637 4.03215 5.06637 3.74569 4.86071 3.57208L3.58659 2.46965C3.38093 2.29169 3.04986 2.29169 2.84921 2.46965C2.64856 2.6476 2.64355 2.93405 2.84921 3.10767L4.12333 4.2101C4.32899 4.38371 4.66006 4.38371 4.86071 4.2101Z" fill="#008FFF"/>
<path d="M18.9413 7.96875H17.1404C16.8495 7.96875 16.6187 8.17274 16.6187 8.42014C16.6187 8.66753 16.8545 8.87153 17.1404 8.87153H18.9413C19.2322 8.87153 19.4629 8.66753 19.4629 8.42014C19.4629 8.17274 19.2272 7.96875 18.9413 7.96875Z" fill="#008FFF"/>
<path d="M2.32251 7.96875H0.521687C0.230746 7.96875 0 8.17274 0 8.42014C0 8.66753 0.235763 8.87153 0.521687 8.87153H2.32251C2.61345 8.87153 2.8442 8.66753 2.8442 8.42014C2.8442 8.17274 2.61345 7.96875 2.32251 7.96875Z" fill="#008FFF"/>
</svg>
