<svg width="60" height="61" viewBox="0 0 60 61" fill="none" xmlns="http://www.w3.org/2000/svg">
<g clip-path="url(#clip0)">
<path d="M60 32.3237V39.3387L57.5743 42.2849H44.0739L42.4219 39.3387V32.3237L46.6054 28.5007C46.4296 28.3253 48.6095 28.5007 51.2109 28.7459C54.6913 29.0967 58.9101 29.5876 58.9101 29.5876L60 32.3237Z" fill="#FF9F00"/>
<path d="M60 32.3239V39.3389L57.5743 42.2851H51.2109V28.7461C54.6913 29.0968 58.9101 29.5878 58.9101 29.5878L60 32.3239Z" fill="#FF7816"/>
<path d="M52.8516 2.27718V9.29216C52.8516 10.2741 52.0784 11.0459 51.0938 11.0459C50.1091 11.0459 49.3359 10.2741 49.3359 9.29216V6.52133L31.2305 24.6666C30.9142 25.0174 30.4568 25.1928 30 25.1928C29.5432 25.1928 29.0858 25.0174 28.7695 24.6666L22.9688 18.9145L10.1367 31.6816C9.8204 32.0324 9.3631 32.2077 8.90625 32.2077C8.4494 32.2077 7.9921 32.0324 7.67578 31.6816C6.97266 31.0153 6.97266 29.8927 7.67578 29.2264L21.7383 15.1964C22.4062 14.4949 23.5313 14.4949 24.1992 15.1964L30 20.9486L46.8398 4.03092H44.0625C43.0779 4.03092 42.3047 3.25909 42.3047 2.27718C42.3047 1.29481 43.0779 0.523438 44.0625 0.523438H51.0938C52.0784 0.523438 52.8516 1.29481 52.8516 2.27718Z" fill="#E63950"/>
<path d="M17.5781 48.1092V53.3704C17.5781 53.3704 11.2148 56.6674 10.8632 56.6674C10.7227 56.6674 9.8085 56.7026 8.78906 56.7377C7.31277 56.7377 5.58975 56.7724 5.58975 56.7724L0 53.3704V48.1092C0 47.1268 0.773163 46.3555 1.75781 46.3555H15.8203C16.805 46.3555 17.5781 47.1268 17.5781 48.1092Z" fill="#FF9F00"/>
<path d="M38.7891 46.3553V53.3703L36.1523 57.0883H25.0429L21.2109 53.3703V46.3553L24.3045 44.4961H35.5898L38.7891 46.3553Z" fill="#FF9F00"/>
<path d="M60 46.3545V53.3695L58.0312 56.1051H45.8318L42.4219 53.3695V46.3545L44.7423 44.1797H57.047L60 46.3545Z" fill="#FF9F00"/>
<path d="M52.8516 2.27718V9.29216C52.8516 10.2741 52.0784 11.0459 51.0938 11.0459C50.1091 11.0459 49.3359 10.2741 49.3359 9.29216V6.52133L31.2305 24.6666C30.9142 25.0174 30.4568 25.1928 30 25.1928V20.9486L46.8398 4.03092H44.0625C43.0779 4.03092 42.3047 3.25909 42.3047 2.27718C42.3047 1.29481 43.0779 0.523438 44.0625 0.523438H51.0938C52.0784 0.523438 52.8516 1.29481 52.8516 2.27718Z" fill="#CC2E43"/>
<path d="M38.7891 46.3553V53.3703L36.1523 57.0883H30V44.4961H35.5898L38.7891 46.3553Z" fill="#FF7816"/>
<path d="M57.047 44.1797L60 46.3545V53.3695L58.0312 56.1051H51.2109V44.1797H57.047Z" fill="#FF7816"/>
<path d="M17.5781 48.1092V53.3704C17.5781 53.3704 11.2148 56.6674 10.8632 56.6674C10.7227 56.6674 9.8085 56.7026 8.78906 56.7377V46.3555H15.8203C16.805 46.3555 17.5781 47.1268 17.5781 48.1092Z" fill="#FF7816"/>
<path d="M60 53.3691V58.6304C60 59.6123 59.2268 60.3841 58.2422 60.3841H44.1797C43.195 60.3841 42.4219 59.6123 42.4219 58.6304V53.3691H60Z" fill="#FFD400"/>
<path d="M38.7891 53.3691V58.6304C38.7891 59.6123 38.0159 60.3841 37.0312 60.3841H22.9688C21.9841 60.3841 21.2109 59.6123 21.2109 58.6304V53.3691H38.7891Z" fill="#FFD400"/>
<path d="M17.5781 53.3691V58.6304C17.5781 59.6123 16.805 60.3841 15.8203 60.3841H1.75781C0.773163 60.3841 0 59.6123 0 58.6304V53.3691H17.5781Z" fill="#FFD400"/>
<path d="M30 53.3691H38.7891V58.6304C38.7891 59.6123 38.0159 60.3841 37.0312 60.3841H30V53.3691Z" fill="#FDBF00"/>
<path d="M51.2109 53.3691H60V58.6304C60 59.6123 59.2268 60.3841 58.2422 60.3841H51.2109V53.3691Z" fill="#FDBF00"/>
<path d="M17.5781 53.3691V58.6304C17.5781 59.6123 16.805 60.3841 15.8203 60.3841H8.78906V53.3691H17.5781Z" fill="#FDBF00"/>
<path d="M42.4219 39.3398H60V46.3548H42.4219V39.3398Z" fill="#FFD400"/>
<path d="M38.7891 41.0936V46.3548H21.2109V41.0936C21.2109 40.1112 21.9841 39.3398 22.9688 39.3398H37.0312C38.0159 39.3398 38.7891 40.1112 38.7891 41.0936Z" fill="#FFD400"/>
<path d="M38.7891 41.0936V46.3548H30V39.3398H37.0312C38.0159 39.3398 38.7891 40.1112 38.7891 41.0936Z" fill="#FDBF00"/>
<path d="M51.2109 39.3398H60V46.3548H51.2109V39.3398Z" fill="#FDBF00"/>
<path d="M60 25.3104V32.3254H42.4219V25.3104C42.4219 24.328 43.195 23.5566 44.1797 23.5566H58.2422C59.2268 23.5566 60 24.328 60 25.3104Z" fill="#FFD400"/>
<path d="M60 25.3104V32.3254H51.2109V23.5566H58.2422C59.2268 23.5566 60 24.328 60 25.3104Z" fill="#FDBF00"/>
</g>
<defs>
<clipPath id="clip0">
<rect width="60" height="59.8611" fill="white" transform="translate(0 0.523438)"/>
</clipPath>
</defs>
</svg>
