<svg width="24" height="24" viewBox="0 0 24 24" fill="none" xmlns="http://www.w3.org/2000/svg">
<path d="M14 3H6C4.9 3 4.01 3.9 4.01 5L4 21C4 22.1 4.89 23 5.99 23H18C19.1 23 20 22.1 20 21V9L14 3ZM4.99998 22V4L14 4L14 9H16L19 9L19 22H4.99998Z" fill="#212121"/>
<rect x="11" y="12" width="1" height="8" fill="#212121"/>
<path d="M11.314 12.7275L12.0002 12.0002L15.0106 15.1909L14.3244 15.9182L11.314 12.7275Z" fill="#212121"/>
<rect width="1" height="4.38668" transform="matrix(0.68626 0.727356 -0.68626 0.727356 11.0103 12)" fill="#212121"/>
</svg>
