<svg width="18" height="18" viewBox="0 0 18 18" fill="none" xmlns="http://www.w3.org/2000/svg">
<path d="M6.5169 4.34486H4.96518V2.79313C4.96518 2.62151 4.82615 2.48279 4.65484 2.48279C4.48353 2.48279 4.34449 2.62151 4.34449 2.79313V4.34486H2.79277C2.62146 4.34486 2.48242 4.48358 2.48242 4.6552C2.48242 4.82682 2.62146 4.96555 2.79277 4.96555H4.34449V6.51727C4.34449 6.68889 4.48353 6.82762 4.65484 6.82762C4.82615 6.82762 4.96518 6.68889 4.96518 6.51727V4.96555H6.5169C6.68822 4.96555 6.82725 4.82682 6.82725 4.6552C6.82725 4.48358 6.68822 4.34486 6.5169 4.34486Z" fill="#008FFF"/>
<path d="M15.2064 4.34485H11.4822C11.3109 4.34485 11.1719 4.48357 11.1719 4.65519C11.1719 4.82681 11.3109 4.96554 11.4822 4.96554H15.2064C15.3777 4.96554 15.5167 4.82681 15.5167 4.65519C15.5167 4.48357 15.3777 4.34485 15.2064 4.34485Z" fill="#008FFF"/>
<path d="M9.31034 0H8.68966H0V8.68966V9.31034V18H8.68966H9.31034H18V9.31034V8.68966V0H9.31034ZM0.62069 0.62069H8.68966V8.68966H0.62069V0.62069ZM0.62069 17.3793V9.31034H8.68966V17.3793H0.62069ZM17.3793 17.3793H9.31034V9.31034H17.3793V17.3793ZM9.31034 8.68966V0.62069H17.3793V8.68966H9.31034Z" fill="#008FFF"/>
<path d="M11.4822 14.5862H15.2064C15.3777 14.5862 15.5167 14.4475 15.5167 14.2759C15.5167 14.1042 15.3777 13.9655 15.2064 13.9655H11.4822C11.3109 13.9655 11.1719 14.1042 11.1719 14.2759C11.1719 14.4475 11.3109 14.5862 11.4822 14.5862Z" fill="#008FFF"/>
<path d="M11.4822 12.7241H15.2064C15.3777 12.7241 15.5167 12.5854 15.5167 12.4138C15.5167 12.2422 15.3777 12.1035 15.2064 12.1035H11.4822C11.3109 12.1035 11.1719 12.2422 11.1719 12.4138C11.1719 12.5854 11.3109 12.7241 11.4822 12.7241Z" fill="#008FFF"/>
<path d="M6.42625 11.5737C6.30491 11.4523 6.10877 11.4523 5.98742 11.5737L4.65511 12.906L3.3228 11.5737C3.20146 11.4523 3.00532 11.4523 2.88398 11.5737C2.76263 11.695 2.76263 11.8912 2.88398 12.0125L4.21629 13.3448L2.88398 14.6771C2.76263 14.7985 2.76263 14.9946 2.88398 15.116C2.94449 15.1765 3.02394 15.2069 3.10339 15.2069C3.18284 15.2069 3.26229 15.1765 3.3228 15.116L4.65511 13.7836L5.98742 15.116C6.04794 15.1765 6.12739 15.2069 6.20684 15.2069C6.28629 15.2069 6.36574 15.1765 6.42625 15.116C6.5476 14.9946 6.5476 14.7985 6.42625 14.6771L5.09394 13.3448L6.42625 12.0125C6.5476 11.8912 6.5476 11.695 6.42625 11.5737Z" fill="#008FFF"/>
</svg>
