<svg width="16" height="16" viewBox="0 0 16 16" fill="none" xmlns="http://www.w3.org/2000/svg">
<path d="M15.1999 1.06667H13.3332V0.266667C13.3332 0.1192 13.214 0 13.0665 0H11.1999C11.0524 0 10.9332 0.1192 10.9332 0.266667V1.06667H5.06654V0.266667C5.06654 0.1192 4.94734 0 4.79987 0H2.9332C2.78574 0 2.66654 0.1192 2.66654 0.266667V1.06667H0.79987C0.652403 1.06667 0.533203 1.18587 0.533203 1.33333V4.26667V15.7333C0.533203 15.8808 0.652403 16 0.79987 16H15.1999C15.3473 16 15.4665 15.8808 15.4665 15.7333V4.26667V1.33333C15.4665 1.18587 15.3473 1.06667 15.1999 1.06667ZM11.4665 0.533333H12.7999V1.33333V2.13333H11.4665V1.33333V0.533333ZM3.19987 0.533333H4.5332V1.33333V2.13333H3.19987V1.33333V0.533333ZM1.06654 1.6H2.66654V2.4C2.66654 2.54747 2.78574 2.66667 2.9332 2.66667H4.79987C4.94734 2.66667 5.06654 2.54747 5.06654 2.4V1.6H10.9332V2.4C10.9332 2.54747 11.0524 2.66667 11.1999 2.66667H13.0665C13.214 2.66667 13.3332 2.54747 13.3332 2.4V1.6H14.9332V4H1.06654V1.6ZM1.06654 15.4667V4.53333H14.9332V15.4667H1.06654Z" fill="black"/>
<path d="M10.1331 6.1333H8.26644H7.73311H5.86644H5.33311H2.93311V8.5333V9.06663V10.9333V11.4666V13.8666H5.33311H5.86644H7.73311H8.26644H10.1331H10.6664H13.0664V11.4666V10.9333V9.06663V8.5333V6.1333H10.6664H10.1331ZM8.26644 6.66663H10.1331V8.5333H8.26644V6.66663ZM10.1331 10.9333H8.26644V9.06663H10.1331V10.9333ZM5.86644 9.06663H7.73311V10.9333H5.86644V9.06663ZM5.86644 6.66663H7.73311V8.5333H5.86644V6.66663ZM3.46644 6.66663H5.33311V8.5333H3.46644V6.66663ZM3.46644 9.06663H5.33311V10.9333H3.46644V9.06663ZM5.33311 13.3333H3.46644V11.4666H5.33311V13.3333ZM7.73311 13.3333H5.86644V11.4666H7.73311V13.3333ZM10.1331 13.3333H8.26644V11.4666H10.1331V13.3333ZM12.5331 13.3333H10.6664V11.4666H12.5331V13.3333ZM12.5331 10.9333H10.6664V9.06663H12.5331V10.9333ZM12.5331 6.66663V8.5333H10.6664V6.66663H12.5331Z" fill="black"/>
</svg>
