<svg width="360" height="300" viewBox="0 0 360 300" fill="none" xmlns="http://www.w3.org/2000/svg">
<g clip-path="url(#clip0)">
<path opacity="0.1" d="M336.23 165.77C322.402 188.247 324.993 218.868 331.066 243.013C333.098 251.097 335.439 259.631 333.702 268.678C331.577 279.741 323.83 288.428 315.99 293.403C301.696 302.45 285.375 302.199 273.49 292.74C263.226 284.569 256.467 270.319 245.987 262.587C228.465 249.644 204.404 257.488 183.512 269.585C168.738 278.122 152.476 288.986 138.82 282.835C129.212 278.516 123.221 266.329 120.425 253.068C119.076 246.665 118.259 239.671 115.165 234.794C113.323 231.894 110.792 229.953 108.167 228.361C84.2141 213.848 51.8057 225.982 28.7064 209.548C13.1043 198.452 4.23519 175.532 1.31982 151.025C-1.59556 126.517 0.80161 100.293 3.80273 74.4746C5.93893 56.1182 8.82821 36.4806 18.4169 21.552C28.561 5.7617 44.5508 -1.29991 58.4492 0.198578C72.3475 1.69706 84.4154 10.5456 94.8168 21.3609C107.817 34.8772 119.542 52.1397 136.366 56.5003C147.827 59.4711 160.342 56.032 172.529 54.0878C192.877 50.8361 212.942 51.7689 232.865 52.9901C251.937 54.1589 271.126 55.6125 288.898 62.3556C301.473 67.132 311.125 77.0745 322.861 83.5404C330.511 87.7549 339.141 88.2906 346.27 93.9099C355.049 100.833 362.647 113.611 359.131 129.765C355.78 145.132 343.567 153.842 336.23 165.77Z" fill="#008FFF"/>
<path d="M247.728 114.964C247.728 114.964 285.382 83.2595 293.755 67.2744C302.128 51.2893 312.787 37.5145 312.787 37.5145" stroke="#535461" stroke-width="2" stroke-miterlimit="10"/>
<path d="M307.836 73.2496L291.548 69.5596C291.548 69.5596 295.392 86.8221 307.836 73.2496Z" fill="#008FFF"/>
<path d="M282.948 55.6274L292.32 69.7319C292.32 69.7319 273.996 71.0618 282.948 55.6274Z" fill="#008FFF"/>
<path d="M314.245 59.9917L299.359 57.3694C299.359 57.3694 308.709 71.6612 314.245 59.9917Z" fill="#008FFF"/>
<path d="M292.216 47.3857L299.549 57.036C299.549 57.036 286.568 58.2722 292.216 47.3857Z" fill="#008FFF"/>
<path d="M307.058 45.464C307.058 45.464 319.733 46.0709 321.224 47.2884C322.716 48.5059 319.334 55.6424 314.514 54.4774C309.693 53.3123 307.058 45.464 307.058 45.464Z" fill="#008FFF"/>
<path d="M301.991 34.0792C301.991 34.0792 307.169 43.5609 306.975 45.3665C306.781 47.1722 299.083 49.1989 297.528 42.3696C295.973 35.5402 301.991 34.0792 301.991 34.0792Z" fill="#008FFF"/>
<path d="M318.094 41.3209C318.68 39.4556 317.651 37.466 315.794 36.8769C313.938 36.2879 311.958 37.3225 311.372 39.1878C310.786 41.0531 311.815 43.0427 313.672 43.6317C315.528 44.2208 317.508 43.1862 318.094 41.3209Z" fill="#FFD037"/>
<path d="M312.577 37.676C313.163 35.8107 312.133 33.8211 310.277 33.232C308.421 32.643 306.441 33.6776 305.854 35.5429C305.268 37.4082 306.298 39.3978 308.154 39.9868C310.01 40.5759 311.99 39.5412 312.577 37.676Z" fill="#FFD037"/>
<path d="M130.282 239.244C130.282 239.244 136.325 221.18 98.0153 199.403C98.0153 199.403 59.1164 188.003 63.0943 148.856C63.0943 148.856 18.2527 181.867 48.5957 223.918C78.9387 265.97 105.129 256.791 105.129 256.791L130.282 239.244Z" fill="#008FFF"/>
<path d="M118.602 247.403C118.602 247.403 99.9093 227.103 81.9921 219.254C78.4129 217.636 75.124 215.434 72.258 212.74C60.8351 202.25 55.8544 186.423 58.7996 171.157L63.1055 148.856" stroke="#535461" stroke-width="2" stroke-miterlimit="10"/>
<path d="M284.707 12.4374H71.9785V260.635H284.707V12.4374Z" fill="url(#paint0_linear)"/>
<path d="M282.232 15.3257H74.4575V257.739H282.232V15.3257Z" fill="#F7F7FD"/>
<path d="M139.532 42.6506H87.0063V46.8539H139.532V42.6506Z" fill="#E2E2EC"/>
<path d="M176.716 52.9264H87.0063V57.1296H176.716V52.9264Z" fill="#E2E2EC"/>
<path d="M272.282 38.6346H235.004V70.9569H272.282V38.6346Z" fill="white"/>
<path d="M272.084 38.8219V70.7695H235.176V38.8219H272.084ZM272.457 38.4473H234.803V71.1442H272.457V38.4473Z" fill="#E2E2EC"/>
<path d="M234.631 38.6346H197.354V70.9569H234.631V38.6346Z" fill="white"/>
<path d="M234.43 38.8219V70.7695H197.522V38.8219H234.43ZM234.803 38.4473H197.149V71.1442H234.803V38.4473Z" fill="#E2E2EC"/>
<path d="M272.282 71.3315H235.004V103.654H272.282V71.3315Z" fill="white"/>
<path d="M272.084 71.5188V103.466H235.176V71.5188H272.084ZM272.457 71.1442H234.803V103.841H272.457V71.1442Z" fill="#E2E2EC"/>
<path d="M234.631 71.3315H197.354V103.654H234.631V71.3315Z" fill="white"/>
<path d="M234.43 71.5188V103.466H197.522V71.5188H234.43ZM234.803 71.1442H197.149V103.841H234.803V71.1442Z" fill="#E2E2EC"/>
<path d="M196.982 71.3315H159.704V103.654H196.982V71.3315Z" fill="white"/>
<path d="M196.795 71.5188V103.466H159.887V71.5188H196.795ZM197.168 71.1442H159.514V103.841H197.168V71.1442Z" fill="#E2E2EC"/>
<path d="M159.331 71.3315H122.054V103.654H159.331V71.3315Z" fill="white"/>
<path d="M159.145 71.5188V103.466H122.237V71.5188H159.145ZM159.518 71.1442H121.864V103.841H159.518V71.1442Z" fill="#E2E2EC"/>
<path d="M121.682 71.3315H84.4043V103.654H121.682V71.3315Z" fill="white"/>
<path d="M121.495 71.5188V103.466H84.5867V71.5188H121.495ZM121.868 71.1442H84.2139V103.841H121.868V71.1442Z" fill="#E2E2EC"/>
<path d="M272.282 104.025H235.004V136.347H272.282V104.025Z" fill="white"/>
<path d="M272.084 104.216V136.163H235.176V104.216H272.084ZM272.457 103.841H234.803V136.538H272.457V103.841Z" fill="#E2E2EC"/>
<path d="M234.631 104.025H197.354V136.347H234.631V104.025Z" fill="white"/>
<path d="M234.43 104.216V136.163H197.522V104.216H234.43ZM234.803 103.841H197.149V136.538H234.803V103.841Z" fill="#E2E2EC"/>
<path d="M196.982 104.025H159.704V136.347H196.982V104.025Z" fill="white"/>
<path d="M196.795 104.216V136.163H159.887V104.216H196.795ZM197.168 103.841H159.514V136.538H197.168V103.841Z" fill="#E2E2EC"/>
<path d="M159.331 104.025H122.054V136.347H159.331V104.025Z" fill="white"/>
<path d="M159.145 104.216V136.163H122.237V104.216H159.145ZM159.518 103.841H121.864V136.538H159.518V103.841Z" fill="#E2E2EC"/>
<path d="M121.682 104.025H84.4043V136.347H121.682V104.025Z" fill="white"/>
<path d="M121.495 104.216V136.163H84.5867V104.216H121.495ZM121.868 103.841H84.2139V136.538H121.868V103.841Z" fill="#E2E2EC"/>
<path d="M272.282 136.722H235.004V169.044H272.282V136.722Z" fill="white"/>
<path d="M272.084 136.909V168.857H235.176V136.909H272.084ZM272.457 136.534H234.803V169.231H272.457V136.534Z" fill="#E2E2EC"/>
<path d="M234.631 136.722H197.354V169.044H234.631V136.722Z" fill="white"/>
<path d="M234.43 136.909V168.857H197.522V136.909H234.43ZM234.803 136.534H197.149V169.231H234.803V136.534Z" fill="#E2E2EC"/>
<path d="M196.982 136.722H159.704V169.044H196.982V136.722Z" fill="white"/>
<path d="M196.795 136.909V168.857H159.887V136.909H196.795ZM197.168 136.534H159.514V169.231H197.168V136.534Z" fill="#E2E2EC"/>
<path d="M159.331 136.722H122.054V169.044H159.331V136.722Z" fill="white"/>
<path d="M159.145 136.909V168.857H122.237V136.909H159.145ZM159.518 136.534H121.864V169.231H159.518V136.534Z" fill="#E2E2EC"/>
<path d="M121.682 136.722H84.4043V169.044H121.682V136.722Z" fill="white"/>
<path d="M121.495 136.909V168.857H84.5867V136.909H121.495ZM121.868 136.534H84.2139V169.231H121.868V136.534Z" fill="#E2E2EC"/>
<path d="M272.282 169.415H235.004V201.737H272.282V169.415Z" fill="white"/>
<path d="M272.084 169.606V201.55H235.176V169.606H272.084ZM272.457 169.231H234.803V201.924H272.457V169.231Z" fill="#E2E2EC"/>
<path d="M234.631 169.415H197.354V201.737H234.631V169.415Z" fill="white"/>
<path d="M234.43 169.606V201.55H197.522V169.606H234.43ZM234.803 169.231H197.149V201.924H234.803V169.231Z" fill="#E2E2EC"/>
<path d="M196.982 169.415H159.704V201.737H196.982V169.415Z" fill="white"/>
<path d="M196.795 169.606V201.55H159.887V169.606H196.795ZM197.168 169.231H159.514V201.924H197.168V169.231Z" fill="#E2E2EC"/>
<path d="M159.331 169.415H122.054V201.737H159.331V169.415Z" fill="white"/>
<path d="M159.145 169.606V201.55H122.237V169.606H159.145ZM159.518 169.231H121.864V201.924H159.518V169.231Z" fill="#E2E2EC"/>
<path d="M121.682 169.415H84.4043V201.737H121.682V169.415Z" fill="white"/>
<path d="M121.495 169.606V201.55H84.5867V169.606H121.495ZM121.868 169.231H84.2139V201.924H121.868V169.231Z" fill="#E2E2EC"/>
<path d="M272.282 202.112H235.004V234.434H272.282V202.112Z" fill="white"/>
<path d="M272.084 202.299V234.247H235.176V202.299H272.084ZM272.457 201.924H234.803V234.621H272.457V201.924Z" fill="#E2E2EC"/>
<path d="M234.631 202.112H197.354V234.434H234.631V202.112Z" fill="white"/>
<path d="M234.43 202.299V234.247H197.522V202.299H234.43ZM234.803 201.924H197.149V234.621H234.803V201.924Z" fill="#E2E2EC"/>
<path d="M196.982 202.112H159.704V234.434H196.982V202.112Z" fill="white"/>
<path d="M196.795 202.299V234.247H159.887V202.299H196.795ZM197.168 201.924H159.514V234.621H197.168V201.924Z" fill="#E2E2EC"/>
<path d="M159.331 202.112H122.054V234.434H159.331V202.112Z" fill="white"/>
<path d="M159.145 202.299V234.247H122.237V202.299H159.145ZM159.518 201.924H121.864V234.621H159.518V201.924Z" fill="#E2E2EC"/>
<path d="M121.682 202.112H84.4043V234.434H121.682V202.112Z" fill="white"/>
<path d="M121.495 202.299V234.247H84.5867V202.299H121.495ZM121.868 201.924H84.2139V234.621H121.868V201.924Z" fill="#E2E2EC"/>
<path d="M162.702 264.066C163.768 263.253 164.771 262.294 165.08 261.126C165.239 260.507 165.155 259.851 164.845 259.293C164.536 258.735 164.025 258.318 163.418 258.129C161.893 257.649 160.264 258.503 159.026 259.391C157.788 260.279 156.375 261.264 154.757 261.081C156.431 259.863 157.229 257.889 156.767 256.094C156.687 255.708 156.492 255.355 156.207 255.083C155.361 254.334 153.825 254.66 152.811 255.244C149.586 257.117 148.688 260.695 148.669 263.928C148.345 262.763 148.617 261.549 148.61 260.35C148.602 259.151 148.203 257.829 146.973 257.184C146.186 256.841 145.333 256.677 144.475 256.701C143.025 256.656 141.411 256.776 140.423 257.645C139.192 258.724 139.513 260.537 140.583 261.725C141.653 262.912 143.282 263.658 144.777 264.478C145.918 265.104 147.074 265.834 147.76 266.823C147.849 266.954 147.924 267.095 147.983 267.243H157.069C159.07 266.422 160.962 265.355 162.702 264.066Z" fill="#008FFF"/>
<path d="M89.3213 78.3819C90.4949 78.3819 91.4463 77.4259 91.4463 76.2465C91.4463 75.0672 90.4949 74.1112 89.3213 74.1112C88.1477 74.1112 87.1963 75.0672 87.1963 76.2465C87.1963 77.4259 88.1477 78.3819 89.3213 78.3819Z" fill="#FC6681"/>
<path d="M94.6304 78.3819C95.804 78.3819 96.7554 77.4259 96.7554 76.2465C96.7554 75.0672 95.804 74.1112 94.6304 74.1112C93.4568 74.1112 92.5054 75.0672 92.5054 76.2465C92.5054 77.4259 93.4568 78.3819 94.6304 78.3819Z" fill="#FFD037"/>
<path d="M164.361 110.037C165.534 110.037 166.486 109.081 166.486 107.902C166.486 106.723 165.534 105.767 164.361 105.767C163.187 105.767 162.236 106.723 162.236 107.902C162.236 109.081 163.187 110.037 164.361 110.037Z" fill="#008FFF"/>
<path d="M169.673 110.037C170.847 110.037 171.798 109.081 171.798 107.902C171.798 106.723 170.847 105.767 169.673 105.767C168.5 105.767 167.548 106.723 167.548 107.902C167.548 109.081 168.5 110.037 169.673 110.037Z" fill="#008FFF"/>
<path d="M277.982 171.213C279.156 171.213 280.107 170.257 280.107 169.078C280.107 167.898 279.156 166.942 277.982 166.942C276.808 166.942 275.857 167.898 275.857 169.078C275.857 170.257 276.808 171.213 277.982 171.213Z" fill="#008FFF"/>
<path d="M279.044 168.725C280.218 168.725 281.169 167.769 281.169 166.59C281.169 165.411 280.218 164.455 279.044 164.455C277.871 164.455 276.919 165.411 276.919 166.59C276.919 167.769 277.871 168.725 279.044 168.725Z" fill="#008FFF"/>
<path d="M280.107 166.59C281.281 166.59 282.232 165.634 282.232 164.455C282.232 163.275 281.281 162.319 280.107 162.319C278.933 162.319 277.982 163.275 277.982 164.455C277.982 165.634 278.933 166.59 280.107 166.59Z" fill="#008FFF"/>
<path d="M240.462 78.3819C241.636 78.3819 242.587 77.4259 242.587 76.2465C242.587 75.0672 241.636 74.1112 240.462 74.1112C239.289 74.1112 238.337 75.0672 238.337 76.2465C238.337 77.4259 239.289 78.3819 240.462 78.3819Z" fill="#008FFF"/>
<path d="M245.771 78.3819C246.945 78.3819 247.896 77.4259 247.896 76.2465C247.896 75.0672 246.945 74.1112 245.771 74.1112C244.597 74.1112 243.646 75.0672 243.646 76.2465C243.646 77.4259 244.597 78.3819 245.771 78.3819Z" fill="#008FFF"/>
<path d="M251.084 78.3819C252.257 78.3819 253.209 77.4259 253.209 76.2465C253.209 75.0672 252.257 74.1112 251.084 74.1112C249.91 74.1112 248.958 75.0672 248.958 76.2465C248.958 77.4259 249.91 78.3819 251.084 78.3819Z" fill="#008FFF"/>
<path d="M256.392 78.3819C257.566 78.3819 258.517 77.4259 258.517 76.2465C258.517 75.0672 257.566 74.1112 256.392 74.1112C255.218 74.1112 254.267 75.0672 254.267 76.2465C254.267 77.4259 255.218 78.3819 256.392 78.3819Z" fill="#008FFF"/>
<path d="M240.462 144.536C241.636 144.536 242.587 143.58 242.587 142.401C242.587 141.222 241.636 140.266 240.462 140.266C239.289 140.266 238.337 141.222 238.337 142.401C238.337 143.58 239.289 144.536 240.462 144.536Z" fill="#008FFF"/>
<path d="M245.771 144.536C246.945 144.536 247.896 143.58 247.896 142.401C247.896 141.222 246.945 140.266 245.771 140.266C244.597 140.266 243.646 141.222 243.646 142.401C243.646 143.58 244.597 144.536 245.771 144.536Z" fill="#008FFF"/>
<path d="M251.084 144.536C252.257 144.536 253.209 143.58 253.209 142.401C253.209 141.222 252.257 140.266 251.084 140.266C249.91 140.266 248.958 141.222 248.958 142.401C248.958 143.58 249.91 144.536 251.084 144.536Z" fill="#008FFF"/>
<path d="M256.392 144.536C257.566 144.536 258.517 143.58 258.517 142.401C258.517 141.222 257.566 140.266 256.392 140.266C255.218 140.266 254.267 141.222 254.267 142.401C254.267 143.58 255.218 144.536 256.392 144.536Z" fill="#008FFF"/>
<path d="M126.841 110.037C128.015 110.037 128.966 109.081 128.966 107.902C128.966 106.723 128.015 105.767 126.841 105.767C125.667 105.767 124.716 106.723 124.716 107.902C124.716 109.081 125.667 110.037 126.841 110.037Z" fill="#FFD037"/>
<path d="M89.3213 142.405C90.4949 142.405 91.4463 141.449 91.4463 140.269C91.4463 139.09 90.4949 138.134 89.3213 138.134C88.1477 138.134 87.1963 139.09 87.1963 140.269C87.1963 141.449 88.1477 142.405 89.3213 142.405Z" fill="#FC6681"/>
<path d="M276.147 174.435C278.477 175.817 282.112 176.716 286.716 173.745L286.672 180.324C287 184.819 292.551 201.269 292.551 201.269L296.465 214.792C299.27 224.346 300.719 234.25 300.768 244.211C300.768 247.512 301.073 250.913 302.017 253.472C304.101 259.133 301.196 266.426 299.936 269.142C297.815 269.862 295.659 270.473 293.476 270.971C293.279 271.016 293.086 271.075 292.898 271.147L292.872 271.109C292.872 271.109 286.996 273.451 284.386 273.128C282.44 272.889 281.221 275.327 282.746 277.122C281.307 277.496 279.831 277.762 278.835 277.639C276.226 277.317 274.917 281.827 279.816 283.116C284.714 284.404 312.47 283.116 312.47 283.116C313.251 282.723 313.88 282.081 314.258 281.291C314.635 280.5 314.741 279.605 314.558 278.748C316.69 278.665 318.021 278.602 318.021 278.602C318.021 278.602 322.92 276.354 318.021 270.221L317.76 270.42L316.713 267.322V263.137C316.713 263.137 322.916 233.168 320.959 229.624C319.002 226.08 318.021 208.034 318.021 208.034L318.685 188.378C320.456 184.707 321.362 178.952 321.82 174.453C322.487 172.307 322.907 170.091 323.073 167.849C323.151 166.792 323.215 165.683 323.256 164.533C323.272 162.011 322.861 159.504 322.04 157.12C323.904 154.422 326.935 150.253 329.437 147.788C333.355 143.922 332.374 139.408 332.374 139.408L330.742 128.45L326.823 109.76C327.315 104.575 326.238 101.59 325.049 99.9038C325.332 98.2292 325.597 96.5547 325.794 94.8726C326.663 87.558 326.276 80.1479 324.65 72.9648C324.083 70.4586 323.311 67.8887 321.563 65.9894C319.583 63.8391 316.37 62.5279 315.632 59.7107C315.449 59.0102 315.441 58.2647 315.177 57.5904C314.461 55.7472 312.194 55.0767 310.211 54.8369C306.677 54.4061 301.565 54.0877 298.169 55.4738C295.798 56.4478 292.532 59.1301 291.235 62.0072C290.489 63.3296 290.143 64.7194 290.459 66.0268C290.584 66.5086 290.774 66.9711 291.022 67.4017C290.516 68.7797 290.259 70.2373 290.262 71.7061C290.274 74.2309 291.042 76.6937 292.466 78.7738C293.89 80.8538 295.905 82.4547 298.247 83.368C298.326 83.6153 298.397 83.8588 298.456 84.0985C298.605 84.6758 298.712 85.2629 298.777 85.8555C298.713 86.9794 298.643 88.1369 298.59 89.2795C298.553 89.4369 298.513 89.5917 298.471 89.7441C295.663 90.9935 292.925 92.3967 290.269 93.9473C292.23 96.8469 289.941 109.093 289.941 109.093C285.043 111.993 280.144 119.407 285.371 127.139C290.597 134.871 287.656 143.247 287.656 143.247L286.84 155.846V155.868L286.675 158.39H286.739L286.675 159.345L286.817 159.371V160.398C284.524 161.244 281.173 162.952 279.175 166.11C278.23 167.664 277.08 169.082 275.756 170.325C275.452 170.589 275.215 170.923 275.066 171.298C274.916 171.673 274.858 172.079 274.896 172.481C274.935 172.884 275.068 173.271 275.286 173.611C275.503 173.95 275.799 174.233 276.147 174.435ZM315.576 140.958C315.379 138.779 315.78 136.587 316.735 134.62C317.503 134.635 318.272 134.644 319.043 134.646C319.121 135.189 319.214 135.706 319.326 136.178C319.99 139.018 317.339 140.378 315.572 140.955L315.576 140.958Z" fill="url(#paint1_linear)"/>
<path d="M316.221 265.853L317.478 269.641L313.377 273.762L299.866 276.92L290.125 275.972L290.755 272.499C290.941 271.753 291.328 271.072 291.874 270.532C292.42 269.992 293.103 269.614 293.849 269.438C297.853 268.494 305.488 266.337 307.091 263.343L316.221 265.853Z" fill="#DB8B8B"/>
<path opacity="0.1" d="M316.221 265.853L317.478 269.641L313.377 273.762L299.866 276.92L290.125 275.972L290.755 272.499C290.941 271.753 291.328 271.072 291.874 270.532C292.42 269.992 293.103 269.614 293.849 269.438C297.853 268.494 305.488 266.337 307.091 263.343L316.221 265.853Z" fill="black"/>
<path d="M293.282 275.009L295.168 272.484L293.282 269.558C293.282 269.558 287.626 271.851 285.114 271.536C282.601 271.222 281.344 275.657 286.057 276.905C290.769 278.152 317.477 276.905 317.477 276.905C317.477 276.905 322.189 274.694 317.477 268.697L313.376 271.855C313.376 271.855 306.464 275.642 303.008 275.013L293.282 275.009Z" fill="#2E3037"/>
<path d="M284.797 280.37L294.538 281.318L308.049 278.16L312.15 274.039L311.818 273.035L311.348 271.626L310.879 270.255L301.767 267.73C301.302 268.494 300.663 269.136 299.903 269.603C296.943 271.638 291.627 273.106 288.506 273.84C288.38 273.872 288.255 273.91 288.134 273.956C287.473 274.18 286.878 274.566 286.405 275.081C285.932 275.595 285.596 276.221 285.427 276.901L284.797 280.37Z" fill="#DB8B8B"/>
<path opacity="0.1" d="M284.797 280.37L294.538 281.318L308.049 278.16L312.15 274.039L311.818 273.035L308.068 275.934C308.068 275.934 301.156 279.722 297.7 279.092H287.94L289.826 276.567L288.134 273.945C287.473 274.168 286.878 274.555 286.405 275.069C285.932 275.584 285.596 276.21 285.427 276.89L284.797 280.37Z" fill="black"/>
<path d="M287.94 279.43L289.826 276.905L287.94 273.979C287.94 273.979 282.284 276.271 279.771 275.957C277.259 275.642 276.002 280.078 280.714 281.325C285.427 282.573 312.135 281.325 312.135 281.325C312.135 281.325 316.847 279.115 312.135 273.117L308.034 276.275C308.034 276.275 301.122 280.063 297.666 279.433L287.94 279.43Z" fill="#2E3037"/>
<path d="M295.795 96.3037C295.795 96.3037 310.879 97.8808 308.679 91.5685C308.064 89.7784 307.904 87.8622 308.213 85.9941C308.604 83.678 309.516 81.482 310.879 79.5731L296.738 81.7834C297.585 83.2071 298.23 84.743 298.654 86.3463C300.339 93.0407 295.795 96.3037 295.795 96.3037Z" fill="#DB8B8B"/>
<path d="M321.559 168.291C321.559 168.291 321.246 181.867 318.103 188.498L317.473 207.757C317.473 207.757 318.417 225.439 320.303 228.912C322.189 232.385 316.202 261.747 316.202 261.747V266.801C316.202 266.801 306.136 270.589 303.318 266.168L306.147 228.594L304.891 176.499L321.559 168.291Z" fill="#474463"/>
<path opacity="0.1" d="M321.559 168.291C321.559 168.291 321.246 181.867 318.103 188.498L317.473 207.757C317.473 207.757 318.417 225.439 320.303 228.912C322.189 232.385 316.202 261.747 316.202 261.747V266.801C316.202 266.801 306.136 270.589 303.318 266.168L306.147 228.594L304.891 176.499L321.559 168.291Z" fill="black"/>
<path d="M327.845 124.719L329.731 129.772L331.301 140.509C331.513 142.005 331.367 143.53 330.875 144.957C330.383 146.385 329.559 147.674 328.471 148.717C324.702 152.504 319.673 160.398 319.673 160.398L313.708 142.416C313.708 142.416 319.673 141.468 318.737 137.362C317.801 133.256 318.103 125.652 318.103 125.652L327.845 124.719Z" fill="#FC6681"/>
<path opacity="0.05" d="M327.845 124.719L329.731 129.772L331.301 140.509C331.513 142.005 331.367 143.53 330.875 144.957C330.383 146.385 329.559 147.674 328.471 148.717C324.702 152.504 319.673 160.398 319.673 160.398L313.708 142.416C313.708 142.416 319.673 141.468 318.737 137.362C317.801 133.256 318.103 125.652 318.103 125.652L327.845 124.719Z" fill="black"/>
<path opacity="0.1" d="M299.918 269.607C303.948 275.976 310.222 272.368 311.333 271.649L310.879 270.255L301.767 267.73C301.306 268.493 300.673 269.136 299.918 269.607Z" fill="black"/>
<path d="M287.313 180.605C287.627 185.025 292.969 201.126 292.969 201.126L296.738 214.377C299.439 223.746 300.833 233.446 300.88 243.2C300.88 246.433 301.175 249.767 302.084 252.273C304.597 259.219 299.571 268.693 299.571 268.693C303.971 276.586 311.501 271.218 311.501 271.218V266.168C311.501 266.168 317.466 238.697 315.901 233.333C314.335 227.968 313.701 213.44 313.701 213.44V187.217C318.734 182.177 321.795 175.486 322.324 168.366C322.399 167.332 322.458 166.245 322.499 165.118C322.753 158 317.906 149.642 316.012 146.668C315.558 145.949 315.267 145.544 315.267 145.544L287.522 156.603L287.459 156.629V157.708V160.094L287.313 180.605Z" fill="#474463"/>
<path opacity="0.1" d="M296.738 81.7796C297.585 83.2034 298.23 84.7392 298.654 86.3425C300.19 86.9281 301.827 87.1987 303.469 87.1382C305.111 87.0777 306.724 86.6874 308.213 85.9904C308.605 83.6756 309.516 81.4809 310.878 79.5731L296.738 81.7796Z" fill="black"/>
<path d="M303.023 86.5112C309.791 86.5112 315.278 80.9982 315.278 74.1975C315.278 67.3967 309.791 61.8837 303.023 61.8837C296.255 61.8837 290.769 67.3967 290.769 74.1975C290.769 80.9982 296.255 86.5112 303.023 86.5112Z" fill="#DB8B8B"/>
<path opacity="0.1" d="M287.313 160.083L287.448 160.109C300.623 162.833 317.164 149.032 317.164 149.032C316.721 148.281 316.338 147.495 316.02 146.683C315.565 145.963 315.274 145.559 315.274 145.559L287.53 156.618L287.459 157.723L287.313 160.083Z" fill="black"/>
<path d="M290.769 95.9854C290.769 95.9854 308.366 85.2487 314.022 89.6693L321.877 99.784C321.877 99.784 326.906 101.361 325.978 111.465L329.732 129.772L318.421 132.616C318.421 132.616 311.822 138.932 317.164 148.088C317.164 148.088 300.511 161.979 287.313 159.139L288.257 144.3C288.257 144.3 291.086 136.092 286.057 128.514C281.028 120.935 285.744 113.675 290.456 110.832C290.456 110.828 292.652 98.8287 290.769 95.9854Z" fill="#FC6681"/>
<path d="M289.826 160.398C289.826 160.398 283.227 161.66 280.085 166.714C279.178 168.23 278.072 169.616 276.797 170.835C276.51 171.096 276.287 171.421 276.147 171.784C276.007 172.147 275.953 172.537 275.989 172.925C276.025 173.312 276.151 173.686 276.356 174.017C276.56 174.347 276.839 174.625 277.169 174.828C279.663 176.326 283.731 177.259 288.868 173.019C297.681 165.766 289.826 160.398 289.826 160.398Z" fill="#DB8B8B"/>
<path opacity="0.1" d="M299.567 101.987C299.567 101.987 305.853 101.354 307.423 117.773C308.992 134.193 311.524 137.98 311.524 137.98C311.524 137.98 313.093 146.507 309.324 151.557C305.555 156.607 298.326 167.343 298.326 167.343C298.326 167.343 290.471 169.553 288.901 161.66L298.643 143.349C298.643 143.349 300.212 137.033 296.443 132.612C292.674 128.192 289.826 98.8288 299.567 101.987Z" fill="black"/>
<path d="M298.926 101.039C298.926 101.039 305.212 100.406 306.781 116.825C308.351 133.245 310.882 137.032 310.882 137.032C310.882 137.032 312.452 145.559 308.683 150.609C304.914 155.659 297.685 166.395 297.685 166.395C297.685 166.395 289.83 168.606 288.26 160.712L298.002 142.401C298.002 142.401 299.571 136.085 295.802 131.664C292.033 127.244 289.196 97.8809 298.926 101.039Z" fill="#FC6681"/>
<path opacity="0.1" d="M293.752 112.877C293.752 112.877 293.125 122.655 295.944 128.034C298.762 133.414 298.773 140.348 295.944 144.143" fill="black"/>
<path opacity="0.1" d="M292.182 100.882C292.182 100.882 294.695 98.3567 301.924 98.0383C309.152 97.7198 312.292 95.5133 312.292 95.5133" fill="black"/>
<path opacity="0.1" d="M309.659 58.2873C311.568 58.5233 313.76 59.1826 314.439 60.9845C314.692 61.6476 314.7 62.3781 314.875 63.0637C315.587 65.8209 318.678 67.1058 320.583 69.215C322.264 71.0881 323.006 73.5943 323.565 76.048C325.134 83.0845 325.512 90.3362 324.684 97.4988C324.072 102.744 322.82 107.891 322.469 113.15C322.119 118.41 322.76 123.943 325.619 128.364C326.85 130.263 328.475 131.934 329.347 134.024C327.547 135.493 325.06 135.703 322.738 135.781C320.036 135.874 317.333 135.874 314.629 135.781C313.212 135.733 311.732 135.639 310.509 134.92C309.604 134.338 308.86 133.535 308.347 132.586C306.8 129.963 306.412 126.779 306.483 123.722C306.554 120.665 307.031 117.623 307.087 114.563C307.117 112.896 306.986 111.124 306.032 109.76C305.342 108.775 304.295 108.112 303.4 107.314C300.045 104.317 298.881 99.5143 298.77 95.0001C298.658 90.4859 299.4 85.9642 299.019 81.4651C298.87 79.7043 298.214 77.5877 296.492 77.2468C295.947 77.1382 295.373 77.2468 294.851 77.037C293.468 76.5013 293.602 74.5421 293.207 73.1073C292.764 71.4964 291.395 70.2527 291.011 68.6118C290.106 64.7907 294.945 60.2316 298.117 58.9017C301.342 57.5455 306.259 57.8677 309.659 58.2873Z" fill="black"/>
<path d="M309.973 57.6579C311.882 57.8939 314.074 58.5532 314.752 60.3551C315.006 61.0182 315.013 61.7487 315.189 62.4343C315.901 65.1915 318.991 66.4764 320.896 68.5855C322.578 70.4587 323.32 72.9649 323.879 75.4186C325.448 82.4551 325.826 89.7068 324.997 96.8694C324.386 102.114 323.133 107.261 322.783 112.521C322.432 117.781 323.073 123.314 325.933 127.734C327.163 129.634 328.789 131.305 329.661 133.395C327.86 134.863 325.374 135.073 323.051 135.152C320.349 135.244 317.647 135.244 314.942 135.152C313.526 135.103 312.046 135.01 310.823 134.29C309.917 133.708 309.174 132.905 308.661 131.956C307.113 129.334 306.726 126.15 306.797 123.093C306.867 120.036 307.345 116.994 307.401 113.933C307.43 112.266 307.3 110.494 306.345 109.131C305.656 108.145 304.608 107.482 303.713 106.684C300.358 103.688 299.195 98.8849 299.083 94.3707C298.971 89.8565 299.713 85.3348 299.333 80.8356C299.184 79.0749 298.528 76.9583 296.805 76.6174C296.261 76.5088 295.687 76.6174 295.165 76.4076C293.782 75.8719 293.916 73.9127 293.521 72.4779C293.077 70.867 291.709 69.6232 291.325 67.9824C290.419 64.1613 295.258 59.6021 298.431 58.2722C301.656 56.9124 306.573 57.2345 309.973 57.6579Z" fill="#472727"/>
</g>
<defs>
<linearGradient id="paint0_linear" x1="178.345" y1="260.631" x2="178.345" y2="12.4374" gradientUnits="userSpaceOnUse">
<stop stop-color="#808080" stop-opacity="0.25"/>
<stop offset="0.54" stop-color="#808080" stop-opacity="0.12"/>
<stop offset="1" stop-color="#808080" stop-opacity="0.1"/>
</linearGradient>
<linearGradient id="paint1_linear" x1="-104979" y1="185005" x2="-104979" y2="44747.8" gradientUnits="userSpaceOnUse">
<stop stop-color="#808080" stop-opacity="0.25"/>
<stop offset="0.54" stop-color="#808080" stop-opacity="0.12"/>
<stop offset="1" stop-color="#808080" stop-opacity="0.1"/>
</linearGradient>
<clipPath id="clip0">
<rect width="360" height="300" fill="white"/>
</clipPath>
</defs>
</svg>
