<svg width="100" height="100" viewBox="0 0 100 100" fill="none" xmlns="http://www.w3.org/2000/svg">
<path d="M90.6251 15.625C90.7033 15.625 51.0158 0.390579 50.0001 0C49.219 0.312424 9.29696 15.625 9.37511 15.625V44.3749C9.37511 64.2968 15.0783 90.3125 50.0001 99.9998C84.8438 90.3123 90.547 63.8279 90.547 44.3749C90.6251 34.5313 90.6251 15.625 90.6251 15.625Z" fill="#D9DEE1"/>
<path d="M9.37476 44.3751C9.37476 64.297 15.0779 90.3127 49.9998 100V0C48.5154 0.54689 9.37476 15.625 9.37476 15.625C9.37476 15.625 9.37495 44.3751 9.37476 44.3751Z" fill="#BCC6CA"/>
<path d="M82.7339 21.0156C82.812 21.0156 50.7808 8.12492 49.9214 7.8125C49.2182 8.04697 17.0309 20.4687 17.109 20.3906V44.5311C17.109 61.2498 20.3904 84.0623 49.9214 92.1873C79.3746 84.0623 82.7339 60.8593 82.7339 44.5311C82.812 36.25 82.812 21.0156 82.7339 21.0156Z" fill="#008FFF"/>
<path d="M49.9996 7.8125C49.2964 8.04697 17.109 20.4687 17.1872 20.3906V44.5311C17.1872 61.2498 20.4685 84.0623 49.9996 92.1873V7.8125Z" fill="#008FFF"/>
<g clip-path="url(#clip0)">
<path fill-rule="evenodd" clip-rule="evenodd" d="M50.0797 27.8816C48.7323 27.8816 47.5024 28.1632 46.5198 28.644C45.5933 29.096 44.8983 29.7127 44.5629 30.4114L43.3139 33.8556C44.5017 33.1726 45.8648 32.713 47.2041 32.4578C48.1229 32.2824 49.0868 32.1893 50.0797 32.1893C51.073 32.1893 52.0369 32.2824 52.9557 32.4578C54.295 32.713 55.6581 33.1726 56.8458 33.8556L55.5968 30.4114C55.2614 29.7127 54.5665 29.096 53.64 28.644C52.6574 28.1632 51.427 27.8816 50.0797 27.8816ZM41.152 57.0899C41.6737 57.0899 42.0972 57.5125 42.0972 58.0332C42.0972 58.5544 41.6737 58.9766 41.152 58.9766C40.6298 58.9766 40.2068 58.5544 40.2068 58.0332C40.2068 57.5125 40.6298 57.0899 41.152 57.0899ZM42.6377 54.4909C42.31 54.9267 42.3955 55.5459 42.8292 55.8726C43.2658 56.1996 43.8837 56.1117 44.2114 55.6759H44.214C47.7897 50.9324 51.4113 45.8487 53.3098 42.1734C54.3878 40.0925 55.1257 38.5486 55.6236 37.3394C55.8871 36.7069 56.0841 36.162 56.2305 35.6786C56.6275 35.9284 56.9816 36.2045 57.2876 36.4996C57.783 36.9728 58.1503 37.4935 58.366 38.0436C58.446 38.4743 58.9226 41.6046 56.5582 46.2819C52.5429 54.225 45.9418 64.4643 40.257 71.3923L36.9286 65.081C37.7117 64.079 38.6249 62.9148 39.6208 61.6393C39.9374 61.2248 39.8575 60.6322 39.4395 60.3133C39.0216 59.9943 38.425 60.0716 38.1083 60.4861C36.3162 62.8273 35.0859 64.3925 35.0756 64.4086C34.8412 64.706 34.8173 65.1048 34.985 65.4208L39.2425 73.4998C39.4847 73.9568 40.0545 74.1323 40.5128 73.8931C40.6324 73.8294 40.7337 73.7441 40.8107 73.6459C43.3246 70.7573 46.4423 66.3671 49.3822 61.892C49.6137 61.5382 49.8452 61.1849 50.0742 60.8315C51.6186 63.2074 53.24 65.6043 54.8057 67.7887C56.414 70.0318 57.9745 72.0672 59.3483 73.6459C59.4283 73.7441 59.5266 73.8294 59.6466 73.8931C60.1045 74.1323 60.6744 73.9568 60.9169 73.4998L65.1769 65.4208C65.342 65.1048 65.3182 64.706 65.0837 64.4086C65.0705 64.3899 60.1658 58.142 55.5968 51.8919C56.7148 49.9759 57.6311 48.3253 58.2354 47.1271C61.0872 41.4849 60.1977 37.6078 60.1951 37.5972C59.8488 35.9921 58.0648 31.0918 57.3008 29.6248C56.7816 28.5298 55.7751 27.6025 54.4623 26.962C53.2272 26.3589 51.7092 26 50.0797 26C48.4502 26 46.9351 26.3589 45.6971 26.962C44.3655 27.6106 43.3513 28.5565 42.8373 29.6702C42.052 31.384 40.3451 35.8379 39.9642 37.5972C39.9617 37.6078 39.0722 41.4852 41.924 47.1271C42.2223 47.7171 42.6538 48.5169 43.1543 49.4152C43.6148 50.2417 44.0944 51.0866 44.5604 51.8864C43.9212 52.7609 43.2739 53.635 42.6377 54.4909ZM45.6384 34.8334C45.769 35.3226 45.9712 35.9046 46.2721 36.6275C46.7462 37.7726 47.4624 39.2689 48.5195 41.315C48.743 41.7456 49.0655 42.3012 49.4409 42.9175C49.6485 43.2551 49.8643 43.6005 50.0826 43.9462C50.7347 42.9285 51.2674 42.0327 51.6402 41.3153C52.6973 39.2689 53.4136 37.773 53.8873 36.6275C54.1882 35.9046 54.3907 35.3226 54.5213 34.8338C53.9273 34.6104 53.2855 34.4324 52.6012 34.302C51.8105 34.1508 50.964 34.0684 50.0797 34.0684C49.1958 34.0684 48.3489 34.1508 47.5582 34.302C46.8738 34.432 46.2321 34.6104 45.6384 34.8334ZM48.9562 45.6601C48.5514 45.0408 48.168 44.4351 47.8378 43.8953C47.4385 43.2416 47.0922 42.6465 46.85 42.1734C45.7716 40.0925 45.0366 38.5486 44.5361 37.3394C44.2723 36.7069 44.0757 36.162 43.9289 35.6786C43.5322 35.9284 43.1781 36.2048 42.8718 36.4996C42.3768 36.9728 42.0091 37.4935 41.7934 38.0436C41.7137 38.4743 41.2371 41.6046 43.6016 46.2819C43.8995 46.8719 44.3178 47.6453 44.7945 48.5037C45.0818 49.0189 45.412 49.6012 45.769 50.2176C46.9138 48.6256 48.0054 47.0711 48.9562 45.6601ZM51.1874 59.1015C52.8382 61.6606 54.6116 64.2969 56.3373 66.7018C57.5804 68.4373 58.792 70.0398 59.9023 71.3923L63.2307 65.0835C62.0404 63.5579 58.2115 58.6283 54.5558 53.6512C53.5332 55.3599 52.391 57.2122 51.1874 59.1015Z" fill="white"/>
</g>
<defs>
<clipPath id="clip0">
<rect x="26" y="26" width="48" height="48" fill="white"/>
</clipPath>
</defs>
</svg>
