<svg width="36" height="36" viewBox="0 0 36 36" fill="none" xmlns="http://www.w3.org/2000/svg">
<path d="M6.1875 6.1875H7.875V12.9375H9V6.1875H10.6875V5.0625H6.1875V6.1875Z" fill="#FF6823"/>
<path d="M14.0625 5.0625C13.4658 5.0625 12.8935 5.29955 12.4715 5.72151C12.0496 6.14347 11.8125 6.71576 11.8125 7.3125V12.9375H12.9375V10.6875H15.1875V12.9375H16.3125V7.3125C16.3125 6.71576 16.0754 6.14347 15.6535 5.72151C15.2315 5.29955 14.6592 5.0625 14.0625 5.0625ZM12.9375 9.5625V7.3125C12.9375 7.01413 13.056 6.72798 13.267 6.51701C13.478 6.30603 13.7641 6.1875 14.0625 6.1875C14.3609 6.1875 14.647 6.30603 14.858 6.51701C15.069 6.72798 15.1875 7.01413 15.1875 7.3125V9.5625H12.9375Z" fill="#FF6823"/>
<path d="M20.8125 5.0625C20.8175 6.20154 20.4189 7.30553 19.6875 8.17875C18.9637 7.36975 18.5632 6.32245 18.5625 5.23688V5.0625H17.4375V5.23688C17.4373 6.63314 17.9659 7.97768 18.9169 9C17.9591 10.0876 17.4328 11.4883 17.4375 12.9375H18.5625C18.5576 11.7985 18.9561 10.6945 19.6875 9.82125C20.4114 10.6302 20.8119 11.6776 20.8125 12.7631V12.9375H21.9375V12.7631C21.9377 11.3669 21.4092 10.0223 20.4582 9C21.4159 7.91242 21.9422 6.51169 21.9375 5.0625H20.8125Z" fill="#FF6823"/>
<path d="M4.5 15.1875H23.625C23.7742 15.1875 23.9173 15.1282 24.0227 15.0227C24.1282 14.9173 24.1875 14.7742 24.1875 14.625V3.375C24.1875 3.22582 24.1282 3.08274 24.0227 2.97725C23.9173 2.87176 23.7742 2.8125 23.625 2.8125H4.5C4.35082 2.8125 4.20774 2.87176 4.10225 2.97725C3.99676 3.08274 3.9375 3.22582 3.9375 3.375V14.625C3.9375 14.7742 3.99676 14.9173 4.10225 15.0227C4.20774 15.1282 4.35082 15.1875 4.5 15.1875ZM5.0625 3.9375H23.0625V14.0625H5.0625V3.9375Z" fill="black"/>
<path d="M4.5 20.8125H7.875C8.02418 20.8125 8.16726 20.7532 8.27275 20.6477C8.37824 20.5423 8.4375 20.3992 8.4375 20.25V16.875C8.4375 16.7258 8.37824 16.5827 8.27275 16.4773C8.16726 16.3718 8.02418 16.3125 7.875 16.3125H4.5C4.35082 16.3125 4.20774 16.3718 4.10225 16.4773C3.99676 16.5827 3.9375 16.7258 3.9375 16.875V20.25C3.9375 20.3992 3.99676 20.5423 4.10225 20.6477C4.20774 20.7532 4.35082 20.8125 4.5 20.8125ZM5.0625 17.4375H7.3125V19.6875H5.0625V17.4375Z" fill="#008FFF"/>
<path d="M7.875 27.5625H4.5C4.35082 27.5625 4.20774 27.6218 4.10225 27.7273C3.99676 27.8327 3.9375 27.9758 3.9375 28.125V31.5C3.9375 31.6492 3.99676 31.7923 4.10225 31.8977C4.20774 32.0032 4.35082 32.0625 4.5 32.0625H7.875C8.02418 32.0625 8.16726 32.0032 8.27275 31.8977C8.37824 31.7923 8.4375 31.6492 8.4375 31.5V28.125C8.4375 27.9758 8.37824 27.8327 8.27275 27.7273C8.16726 27.6218 8.02418 27.5625 7.875 27.5625ZM7.3125 30.9375H5.0625V28.6875H7.3125V30.9375Z" fill="#008FFF"/>
<path d="M8.60062 20.9756L7.64437 21.9375H4.5C4.35082 21.9375 4.20774 21.9967 4.10225 22.1022C3.99676 22.2077 3.9375 22.3508 3.9375 22.5V25.875C3.9375 26.0241 3.99676 26.1672 4.10225 26.2727C4.20774 26.3782 4.35082 26.4375 4.5 26.4375H7.875C8.02418 26.4375 8.16726 26.3782 8.27275 26.2727C8.37824 26.1672 8.4375 26.0241 8.4375 25.875V22.7306L9.39937 21.7743L8.60062 20.9756ZM6.51937 23.0625L5.0625 24.5193V23.0625H6.51937ZM7.3125 25.3125H5.85562L7.3125 23.8556V25.3125Z" fill="#008FFF"/>
<path d="M9.5625 16.875H24.1875V18H9.5625V16.875Z" fill="black"/>
<path d="M9.5625 19.125H24.1875V20.25H9.5625V19.125Z" fill="black"/>
<path d="M27.5625 19.6875V1.125C27.5625 0.975816 27.5032 0.832742 27.3977 0.727252C27.2923 0.621763 27.1492 0.5625 27 0.5625H1.125C0.975816 0.5625 0.832742 0.621763 0.727252 0.727252C0.621763 0.832742 0.5625 0.975816 0.5625 1.125V34.875C0.5625 35.0242 0.621763 35.1673 0.727252 35.2727C0.832742 35.3782 0.975816 35.4375 1.125 35.4375H25.875C25.998 35.4343 26.1166 35.3908 26.2125 35.3138C26.6583 35.3922 27.1099 35.4336 27.5625 35.4375C29.6511 35.4375 31.6541 34.6078 33.131 33.131C34.6078 31.6541 35.4375 29.6511 35.4375 27.5625C35.4375 25.4739 34.6078 23.4709 33.131 21.994C31.6541 20.5172 29.6511 19.6875 27.5625 19.6875ZM1.6875 34.3125V1.6875H26.4375V19.7775C24.5258 20.0534 22.7821 21.0224 21.5381 22.5H9.5625V23.625H20.7506C20.5336 23.9845 20.3455 24.3607 20.1881 24.75H9.5625V25.875H19.8731C19.7512 26.4293 19.689 26.995 19.6875 27.5625V28.125H9.5625V29.25H19.8731C19.9585 29.6332 20.0732 30.0094 20.2162 30.375H9.5625V31.5H20.7506C21.4244 32.6572 22.3804 33.6248 23.5294 34.3125H1.6875ZM27.5625 34.3125C26.2275 34.3125 24.9224 33.9166 23.8124 33.1749C22.7024 32.4332 21.8372 31.379 21.3263 30.1456C20.8154 28.9122 20.6817 27.555 20.9422 26.2456C21.2026 24.9363 21.8455 23.7335 22.7895 22.7895C23.7335 21.8455 24.9363 21.2026 26.2456 20.9422C27.555 20.6817 28.9122 20.8154 30.1456 21.3263C31.379 21.8372 32.4332 22.7024 33.1749 23.8124C33.9166 24.9224 34.3125 26.2275 34.3125 27.5625C34.3125 29.3527 33.6013 31.0696 32.3355 32.3355C31.0696 33.6013 29.3527 34.3125 27.5625 34.3125Z" fill="black"/>
<path d="M30.375 27.5625C30.0412 27.5625 29.715 27.6615 29.4375 27.8469C29.16 28.0323 28.9437 28.2959 28.816 28.6042C28.6882 28.9126 28.6548 29.2519 28.7199 29.5792C28.785 29.9066 28.9458 30.2072 29.1818 30.4432C29.4178 30.6792 29.7184 30.84 30.0458 30.9051C30.3731 30.9702 30.7124 30.9368 31.0208 30.809C31.3291 30.6813 31.5927 30.465 31.7781 30.1875C31.9635 29.91 32.0625 29.5838 32.0625 29.25C32.0625 28.8024 31.8847 28.3732 31.5682 28.0568C31.2518 27.7403 30.8226 27.5625 30.375 27.5625ZM30.375 29.8125C30.2638 29.8125 30.155 29.7795 30.0625 29.7177C29.97 29.6559 29.8979 29.568 29.8553 29.4653C29.8127 29.3625 29.8016 29.2494 29.8233 29.1403C29.845 29.0311 29.8986 28.9309 29.9773 28.8523C30.0559 28.7736 30.1562 28.72 30.2653 28.6983C30.3744 28.6766 30.4875 28.6877 30.5903 28.7303C30.693 28.7729 30.7809 28.845 30.8427 28.9375C30.9045 29.03 30.9375 29.1387 30.9375 29.25C30.9375 29.3992 30.8782 29.5423 30.7728 29.6477C30.6673 29.7532 30.5242 29.8125 30.375 29.8125Z" fill="black"/>
<path d="M26.4375 25.875C26.4375 25.5412 26.3385 25.215 26.1531 24.9375C25.9677 24.66 25.7041 24.4437 25.3958 24.316C25.0874 24.1882 24.7481 24.1548 24.4208 24.2199C24.0934 24.285 23.7928 24.4458 23.5568 24.6818C23.3208 24.9178 23.16 25.2184 23.0949 25.5458C23.0298 25.8731 23.0632 26.2124 23.191 26.5208C23.3187 26.8291 23.535 27.0927 23.8125 27.2781C24.09 27.4635 24.4162 27.5625 24.75 27.5625C25.1976 27.5625 25.6268 27.3847 25.9432 27.0682C26.2597 26.7518 26.4375 26.3226 26.4375 25.875ZM24.75 26.4375C24.6388 26.4375 24.53 26.4045 24.4375 26.3427C24.345 26.2809 24.2729 26.193 24.2303 26.0903C24.1877 25.9875 24.1766 25.8744 24.1983 25.7653C24.22 25.6561 24.2736 25.5559 24.3523 25.4773C24.4309 25.3986 24.5312 25.345 24.6403 25.3233C24.7494 25.3016 24.8625 25.3127 24.9653 25.3553C25.068 25.3979 25.1559 25.47 25.2177 25.5625C25.2795 25.655 25.3125 25.7637 25.3125 25.875C25.3125 26.0242 25.2532 26.1673 25.1478 26.2727C25.0423 26.3782 24.8992 26.4375 24.75 26.4375Z" fill="black"/>
<path d="M24.7988 32.3916L29.2978 22.2633L30.3261 22.7201L25.8271 32.8484L24.7988 32.3916Z" fill="black"/>
</svg>
