<svg width="224" height="224" viewBox="0 0 224 224" fill="none" xmlns="http://www.w3.org/2000/svg">
<rect width="224" height="224" fill="#F5F7F7"/>
<g clip-path="url(#clip0)">
<path opacity="0.1" d="M117.823 183.261C134.449 183.261 147.926 181.771 147.926 179.932C147.926 178.093 134.449 176.602 117.823 176.602C101.198 176.602 87.7205 178.093 87.7205 179.932C87.7205 181.771 101.198 183.261 117.823 183.261Z" fill="#008FFF"/>
<path opacity="0.1" d="M202.323 137.214C197.639 146.88 188.122 153.343 178.264 157.606C164.989 163.347 150.371 165.623 135.953 164.661C133.425 164.494 130.906 164.225 128.396 163.855C119.674 162.58 111.17 160.101 103.129 156.49C100.813 155.443 98.5377 154.305 96.3038 153.075C92.5844 151.014 89.0207 148.683 85.6411 146.102C84.791 145.453 83.9527 144.788 83.1262 144.106C82.553 143.633 81.9851 143.15 81.4084 142.681C80.1915 141.691 78.9394 140.751 77.5426 140.048C77.1212 139.835 76.6891 139.644 76.2481 139.476C71.825 137.794 66.7246 138.429 62.1199 139.741C58.6209 140.73 55.2118 142.097 51.7075 143.072C50.1512 143.519 48.5653 143.856 46.9617 144.081C43.3801 144.537 39.7423 144.22 36.2936 143.152L35.9991 143.06C35.5053 142.905 35.0156 142.735 34.53 142.55L34.2355 142.437C33.7652 142.256 33.3049 142.062 32.8546 141.854L32.5601 141.72C32.0898 141.501 31.6295 141.27 31.1792 141.026C31.0169 140.942 30.8564 140.85 30.6977 140.764C28.1356 139.333 25.8068 137.519 23.7914 135.386C23.7332 135.328 23.6785 135.268 23.615 135.21C23.3346 134.907 23.0595 134.598 22.7932 134.282C22.6944 134.166 22.5957 134.05 22.4987 133.93C22.1824 133.543 21.8773 133.148 21.5834 132.746C21.5393 132.688 21.497 132.628 21.4546 132.57C20.2496 130.903 19.2506 129.097 18.4794 127.191C18.4547 127.133 18.4318 127.073 18.4106 127.015C18.1755 126.409 17.9609 125.794 17.7669 125.168C17.6876 124.907 17.6117 124.639 17.5447 124.378C17.5218 124.3 17.5006 124.221 17.4812 124.143C16.5165 120.313 16.4125 116.329 16.4125 112.368C16.4125 111.906 16.4125 111.444 16.4125 110.983C16.4407 104.576 16.5395 98.0597 17.4847 91.7407C17.4847 91.6966 17.4971 91.6525 17.5041 91.6102C17.8205 89.4829 18.2509 87.3741 18.7933 85.2929C19.3611 83.1092 20.0867 80.9696 20.9643 78.891C23.1389 73.7766 26.301 69.1224 29.8124 64.8087C38.648 53.9607 50.2473 44.8411 63.8235 41.4391C78.4526 37.7655 94.7113 41.2857 106.512 50.6804C110.109 53.5445 113.342 56.9359 117.382 59.1316C120.91 61.0434 125.038 61.8352 128.816 60.3309C131.938 59.0963 133.969 58.4703 137.475 58.659C144.733 59.0684 151.889 60.566 158.702 63.1015C158.977 63.202 159.252 63.3061 159.526 63.4101C177.287 70.2088 192.558 83.7092 200.491 101.058C200.701 101.516 200.905 101.978 201.103 102.444C205.834 113.488 207.542 126.445 202.323 137.214Z" fill="#008FFF"/>
<path opacity="0.1" d="M51.7075 76.2033V143.072C50.1511 143.519 48.5653 143.856 46.9617 144.081C43.3801 144.537 39.7423 144.22 36.2936 143.152L35.9991 143.06C35.5053 142.905 35.0156 142.735 34.53 142.55L34.2355 142.437C33.7652 142.256 33.3049 142.062 32.8546 141.854L32.5601 141.72C32.0898 141.501 31.6295 141.27 31.1791 141.026C31.0169 140.942 30.8564 140.85 30.6977 140.764C28.1356 139.333 25.8068 137.519 23.7914 135.386C23.7332 135.328 23.6785 135.268 23.615 135.21C23.3346 134.907 23.0595 134.598 22.7932 134.282C22.6944 134.166 22.5957 134.05 22.4987 133.93C22.1824 133.543 21.8773 133.148 21.5834 132.746C21.5393 132.688 21.497 132.628 21.4546 132.57C20.2496 130.903 19.2506 129.097 18.4794 127.191C18.4547 127.133 18.4318 127.073 18.4106 127.015C18.1755 126.409 17.9609 125.794 17.7669 125.168C17.6876 124.907 17.6117 124.639 17.5447 124.378C17.5218 124.3 17.5006 124.221 17.4812 124.143C16.5165 120.313 16.4125 116.329 16.4125 112.368C16.4125 111.906 16.4125 111.444 16.4125 110.983C16.4407 104.576 16.5395 98.0597 17.4847 91.7407C17.4847 91.6966 17.4971 91.6525 17.5041 91.6102C17.8205 89.4829 18.2509 87.3741 18.7933 85.2929H36.798V76.2033H40.3975V68.9037H48.1256V76.2033H51.7075Z" fill="#008FFF"/>
<path opacity="0.1" d="M202.323 137.214C197.639 146.88 188.123 153.343 178.264 157.606C164.989 163.347 150.371 165.623 135.953 164.661C133.425 164.494 130.906 164.225 128.396 163.855C119.674 162.58 111.17 160.101 103.129 156.49C100.813 155.443 98.5378 154.305 96.3039 153.075C92.5845 151.014 89.0207 148.683 85.6411 146.102C84.7911 145.453 83.9528 144.788 83.1262 144.106C82.5531 143.633 81.9852 143.15 81.4085 142.681C80.1916 141.691 78.9394 140.751 77.5427 140.048C77.1212 139.835 76.6891 139.644 76.2482 139.476V112.112H108.979V118.202H123.344V73.6567H140.251V91.4691H148.614V80.9227H155.524V69.6568H158.699V63.0927C158.974 63.1932 159.249 63.2972 159.522 63.4013V69.6568H162.615V80.9298H169.524V91.4761H179.705V131.656H195.888V102.435H201.103C205.834 113.488 207.542 126.445 202.323 137.214Z" fill="#008FFF"/>
<path opacity="0.1" d="M135.953 80.3584H128.396V87.9154H135.953V80.3584Z" fill="#008FFF"/>
<path opacity="0.1" d="M135.953 96.0245H128.396V103.582H135.953V96.0245Z" fill="#008FFF"/>
<path opacity="0.1" d="M135.953 111.689H128.396V119.246H135.953V111.689Z" fill="#008FFF"/>
<path opacity="0.1" d="M135.953 127.355H128.396V134.912H135.953V127.355Z" fill="#008FFF"/>
<path opacity="0.1" d="M135.953 143.021H128.396V150.578H135.953V143.021Z" fill="#008FFF"/>
<path opacity="0.1" d="M135.953 158.685V164.653C133.425 164.486 130.906 164.218 128.396 163.847V158.685H135.953Z" fill="#008FFF"/>
<path opacity="0.1" d="M105.193 121.879H78.7402V125.302H105.193V121.879Z" fill="#008FFF"/>
<path opacity="0.1" d="M105.193 132.274H78.7402V135.697H105.193V132.274Z" fill="#008FFF"/>
<path opacity="0.1" d="M105.192 142.67V146.091H85.6446C84.7946 145.442 83.9563 144.777 83.1297 144.095C82.5566 143.622 81.9887 143.139 81.412 142.67H105.192Z" fill="#008FFF"/>
<path opacity="0.1" d="M105.192 153.075V156.499H103.129C100.813 155.446 98.5377 154.305 96.3038 153.075H105.192Z" fill="#008FFF"/>
<path opacity="0.1" d="M153.494 100.821H148.575V105.74H153.494V100.821Z" fill="#008FFF"/>
<path opacity="0.1" d="M46.9723 77.8981H42.0536V82.8168H46.9723V77.8981Z" fill="#008FFF"/>
<path opacity="0.1" d="M46.9723 89.3263H42.0536V94.245H46.9723V89.3263Z" fill="#008FFF"/>
<path opacity="0.1" d="M46.9723 100.754H42.0536V105.673H46.9723V100.754Z" fill="#008FFF"/>
<path opacity="0.1" d="M46.9723 112.181H42.0536V117.1H46.9723V112.181Z" fill="#008FFF"/>
<path opacity="0.1" d="M46.9723 123.609H42.0536V128.528H46.9723V123.609Z" fill="#008FFF"/>
<path opacity="0.1" d="M46.9723 135.037H42.0536V139.956H46.9723V135.037Z" fill="#008FFF"/>
<path opacity="0.1" d="M172.277 100.821H167.358V105.74H172.277V100.821Z" fill="#008FFF"/>
<path opacity="0.1" d="M153.494 112.957H148.575V117.876H153.494V112.957Z" fill="#008FFF"/>
<path opacity="0.1" d="M172.277 112.957H167.358V117.876H172.277V112.957Z" fill="#008FFF"/>
<path opacity="0.1" d="M153.494 125.09H148.575V130.009H153.494V125.09Z" fill="#008FFF"/>
<path opacity="0.1" d="M172.277 125.09H167.358V130.009H172.277V125.09Z" fill="#008FFF"/>
<path opacity="0.1" d="M153.494 137.226H148.575V142.145H153.494V137.226Z" fill="#008FFF"/>
<path opacity="0.1" d="M172.277 137.226H167.358V142.145H172.277V137.226Z" fill="#008FFF"/>
<path opacity="0.1" d="M153.494 149.361H148.575V154.28H153.494V149.361Z" fill="#008FFF"/>
<path opacity="0.1" d="M172.277 149.361H167.358V154.28H172.277V149.361Z" fill="#008FFF"/>
<path opacity="0.1" d="M148.575 164.668V161.495H153.494V164.216L148.575 164.668Z" fill="#008FFF"/>
<path opacity="0.1" d="M17.4813 91.6102V94.4319H36.2937V91.6102H17.4813ZM19.1567 94.2556H17.7758V91.7865H19.1567V94.2556ZM20.8322 94.2556H19.4513V91.7865H20.8322V94.2556ZM22.5076 94.2556H21.1267V91.7865H22.5076V94.2556ZM24.183 94.2556H22.8021V91.7865H24.183V94.2556ZM25.8585 94.2556H24.4776V91.7865H25.8585V94.2556ZM27.5339 94.2556H26.153V91.7865H27.5339V94.2556ZM29.2093 94.2556H27.8284V91.7865H29.2093V94.2556ZM30.8847 94.2556H29.5038V91.7865H30.8847V94.2556ZM32.5602 94.2556H31.1793V91.7865H32.5602V94.2556ZM34.2356 94.2556H32.8547V91.7865H34.2356V94.2556ZM35.9992 94.2556H34.5301V91.7865H35.9992V94.2556Z" fill="#008FFF"/>
<path opacity="0.1" d="M17.4813 99.8039V102.617H36.2937V99.8039H17.4813ZM19.1567 102.44H17.7758V99.9803H19.1567V102.44ZM20.8322 102.44H19.4513V99.9803H20.8322V102.44ZM22.5076 102.44H21.1267V99.9803H22.5076V102.44ZM24.183 102.44H22.8021V99.9803H24.183V102.44ZM25.8585 102.44H24.4776V99.9803H25.8585V102.44ZM27.5339 102.44H26.153V99.9803H27.5339V102.44ZM29.2093 102.44H27.8284V99.9803H29.2093V102.44ZM30.8847 102.44H29.5038V99.9803H30.8847V102.44ZM32.5602 102.44H31.1793V99.9803H32.5602V102.44ZM34.2356 102.44H32.8547V99.9803H34.2356V102.44ZM35.9992 102.44H34.5301V99.9803H35.9992V102.44Z" fill="#008FFF"/>
<path opacity="0.1" d="M17.4813 107.996V110.809H36.2937V107.996H17.4813ZM19.1567 110.632H17.7758V108.172H19.1567V110.632ZM20.8322 110.632H19.4513V108.172H20.8322V110.632ZM22.5076 110.632H21.1267V108.172H22.5076V110.632ZM24.183 110.632H22.8021V108.172H24.183V110.632ZM25.8585 110.632H24.4776V108.172H25.8585V110.632ZM27.5339 110.632H26.153V108.172H27.5339V110.632ZM29.2093 110.632H27.8284V108.172H29.2093V110.632ZM30.8847 110.632H29.5038V108.172H30.8847V110.632ZM32.5602 110.632H31.1793V108.172H32.5602V110.632ZM34.2356 110.632H32.8547V108.172H34.2356V110.632ZM35.9992 110.632H34.5301V108.172H35.9992V110.632Z" fill="#008FFF"/>
<path opacity="0.1" d="M17.4813 116.188V119.01H36.2937V116.188H17.4813ZM19.1567 118.833H17.7758V116.364H19.1567V118.833ZM20.8322 118.833H19.4513V116.364H20.8322V118.833ZM22.5076 118.833H21.1267V116.364H22.5076V118.833ZM24.183 118.833H22.8021V116.364H24.183V118.833ZM25.8585 118.833H24.4776V116.364H25.8585V118.833ZM27.5339 118.833H26.153V116.364H27.5339V118.833ZM29.2093 118.833H27.8284V116.364H29.2093V118.833ZM30.8847 118.833H29.5038V116.364H30.8847V118.833ZM32.5602 118.833H31.1793V116.364H32.5602V118.833ZM34.2356 118.833H32.8547V116.364H34.2356V118.833ZM35.9992 118.833H34.5301V116.364H35.9992V118.833Z" fill="#008FFF"/>
<path opacity="0.1" d="M17.5536 124.38C17.6206 124.644 17.6964 124.909 17.7758 125.17V124.556H19.1567V127.025H18.4195C18.4407 127.083 18.4636 127.143 18.4883 127.201H36.3007V124.38H17.5536ZM20.8321 127.025H19.4512V124.556H20.8321V127.025ZM22.5076 127.025H21.1267V124.556H22.5076V127.025ZM24.183 127.025H22.8021V124.556H24.183V127.025ZM25.8584 127.025H24.4775V124.556H25.8584V127.025ZM27.5338 127.025H26.1529V124.556H27.5338V127.025ZM29.2093 127.025H27.8284V124.556H29.2093V127.025ZM30.8847 127.025H29.5038V124.556H30.8847V127.025ZM32.5601 127.025H31.1792V124.556H32.5601V127.025ZM34.2355 127.025H32.8546V124.556H34.2355V127.025ZM35.9991 127.025H34.5301V124.556H35.9991V127.025Z" fill="#008FFF"/>
<path opacity="0.1" d="M21.4635 132.572C21.5058 132.63 21.5482 132.69 21.5922 132.748H22.5076V133.931C22.6046 134.05 22.7033 134.166 22.8021 134.284V132.75H24.183V135.219H23.6239C23.6786 135.277 23.7333 135.337 23.8003 135.395H36.3025V132.573L21.4635 132.572ZM25.8584 135.217H24.4775V132.748H25.8584V135.217ZM27.5338 135.217H26.1529V132.748H27.5338V135.217ZM29.2093 135.217H27.8284V132.748H29.2093V135.217ZM30.8847 135.217H29.5038V132.748H30.8847V135.217ZM32.5601 135.217H31.1792V132.748H32.5601V135.217ZM34.2355 135.217H32.8546V132.748H34.2355V135.217ZM35.9991 135.217H34.5301V132.748H35.9991V135.217Z" fill="#008FFF"/>
<path opacity="0.1" d="M30.6978 140.764C30.8565 140.854 31.017 140.94 31.1792 141.026V140.94H32.5601V141.72L32.8546 141.854V140.94H34.2355V142.437L34.5301 142.55V140.94H35.9992V143.056L36.2937 143.148V140.764H30.6978Z" fill="#008FFF"/>
<path opacity="0.1" d="M88.7063 67.1878C88.7063 67.1878 84.5036 66.9356 85.0027 69.8808C84.977 70.03 84.9991 70.1836 85.066 70.3195C85.1328 70.4554 85.2409 70.5666 85.3748 70.6374C85.3748 70.6374 85.3837 70.4187 85.8069 70.4928C85.9577 70.519 86.1111 70.5267 86.2637 70.5157C86.4697 70.5017 86.6655 70.4206 86.821 70.2847C86.821 70.2847 88.0026 69.7961 88.4629 67.865C88.4629 67.865 88.8033 67.4435 88.7892 67.3359L88.0837 67.6393C88.0837 67.6393 88.3253 68.1507 88.1349 68.5757C88.1349 68.5757 88.1119 67.6569 87.9761 67.6798C87.9479 67.6798 87.6076 67.8562 87.6076 67.8562C87.6076 67.8562 88.0238 68.7486 87.7098 69.3958C87.7098 69.3958 87.8298 68.2971 87.4771 67.9214L86.978 68.2124C86.978 68.2124 87.4647 69.133 87.1349 69.8843C87.1349 69.8843 87.2196 68.7327 86.8721 68.283L86.4207 68.6357C86.4207 68.6357 86.8774 69.5439 86.597 70.1665C86.597 70.1665 86.56 68.8262 86.3201 68.7239C86.1488 68.8691 85.9955 69.0343 85.8634 69.2159C85.8634 69.2159 86.1773 69.8755 85.9833 70.2229C85.9833 70.2229 85.8634 69.3288 85.7664 69.3253C85.7664 69.3253 85.3713 69.9178 85.3308 70.3235C85.3499 69.9471 85.4672 69.5823 85.6711 69.2653C85.4434 69.3082 85.2331 69.4167 85.0662 69.5775C85.0662 69.5775 85.1279 69.1595 85.7717 69.1224C85.7717 69.1224 86.0979 68.6727 86.1843 68.6463C86.1843 68.6463 85.5477 68.5934 85.1614 68.7644C85.1614 68.7644 85.5018 68.3694 86.3007 68.5475L86.7487 68.1842C86.7487 68.1842 85.8986 68.0696 85.5459 68.193C85.5459 68.193 85.9551 67.8403 86.8598 68.0978L87.3465 67.8068C86.972 67.7248 86.5885 67.6916 86.2055 67.708C86.2055 67.708 86.6552 67.4664 87.4876 67.7292L87.8404 67.5722C87.8404 67.5722 87.3113 67.4699 87.1631 67.4541C87.015 67.4382 87.0009 67.3941 87.0009 67.3941C87.3327 67.3389 87.6733 67.3768 87.985 67.5035C87.985 67.5035 88.7204 67.2283 88.7063 67.1878Z" fill="#008FFF"/>
<path opacity="0.1" d="M77.6696 81.5135C77.6696 81.5135 76.2341 85.4728 79.1987 85.8344C79.3348 85.9011 79.4885 85.9232 79.638 85.8975C79.7874 85.8719 79.925 85.7998 80.0311 85.6915C80.0311 85.6915 79.823 85.621 80.0152 85.2365C80.0817 85.0988 80.132 84.9538 80.1651 84.8044C80.2104 84.6032 80.1887 84.3926 80.1034 84.2048C80.1034 84.2048 79.9711 82.9332 78.2481 81.9439C78.2481 81.9439 77.9412 81.4977 77.8336 81.48L77.9236 82.2454C77.9236 82.2454 78.4827 82.159 78.8354 82.4624C78.8354 82.4624 77.9536 82.2243 77.9306 82.3601C77.9306 82.3883 77.9959 82.7639 77.9959 82.7639C77.9959 82.7639 78.9694 82.6176 79.502 83.1043C79.502 83.1043 78.4826 82.6775 78.0206 82.9086L78.1581 83.4694C78.1581 83.4694 79.181 83.263 79.8071 83.7939C79.8071 83.7939 78.726 83.3847 78.1969 83.5911L78.4068 84.1201C78.4068 84.1201 79.4068 83.9438 79.9253 84.3847C79.9253 84.3847 78.629 84.032 78.4633 84.2401C78.5536 84.4454 78.6685 84.6391 78.8054 84.8168C78.8054 84.8168 79.5267 84.7039 79.8054 84.9931C79.8054 84.9931 78.9147 84.8538 78.883 84.9473C78.883 84.9473 79.338 85.494 79.7154 85.6527C79.3612 85.5279 79.0456 85.3127 78.8001 85.0284C78.7777 85.2584 78.8224 85.4899 78.9288 85.695C78.9288 85.695 78.5444 85.5187 78.6925 84.8944C78.6925 84.8944 78.3539 84.4535 78.3521 84.3653C78.3521 84.3653 78.1211 84.9596 78.1758 85.3776C78.1758 85.3776 77.8918 84.9402 78.2922 84.2242L78.0682 83.6951C78.0682 83.6951 77.7155 84.4658 77.7419 84.8415C77.7419 84.8415 77.5233 84.3512 78.0241 83.5558L77.883 83.0073C77.6981 83.3403 77.5576 83.696 77.4651 84.0655C77.4651 84.0655 77.361 83.5664 77.8495 82.8415L77.7984 82.4624C77.7984 82.4624 77.5497 82.935 77.4915 83.0779C77.4333 83.2207 77.3892 83.2172 77.3892 83.2172C77.43 82.8834 77.5631 82.5676 77.7737 82.3054C77.7737 82.3054 77.719 81.5153 77.6696 81.5135Z" fill="#008FFF"/>
<path opacity="0.1" d="M105.542 78.1785C105.542 78.1785 104.104 82.1361 107.071 82.4976C107.206 82.565 107.36 82.5874 107.509 82.5618C107.659 82.5361 107.796 82.4636 107.901 82.3547C107.901 82.3547 107.695 82.286 107.885 81.8997C107.952 81.7625 108.003 81.6182 108.037 81.4694C108.082 81.2674 108.059 81.0563 107.974 80.868C107.974 80.868 107.841 79.5965 106.12 78.6071C106.12 78.6071 105.813 78.1627 105.706 78.1433L105.794 78.9104C105.794 78.9104 106.356 78.8275 106.709 79.1274C106.709 79.1274 105.827 78.8875 105.804 79.0251C105.804 79.0533 105.87 79.4289 105.87 79.4289C105.87 79.4289 106.843 79.2826 107.374 79.7675C107.374 79.7675 106.355 79.3408 105.894 79.5718L106.032 80.1326C106.032 80.1326 107.053 79.928 107.679 80.4571C107.679 80.4571 106.598 80.0497 106.071 80.2543L106.281 80.7834C106.281 80.7834 107.281 80.607 107.799 81.0462C107.799 81.0462 106.501 80.6934 106.337 80.9015C106.427 81.1075 106.542 81.3017 106.679 81.48C106.679 81.48 107.4 81.3654 107.677 81.6564C107.677 81.6564 106.787 81.517 106.755 81.6087C106.755 81.6087 107.212 82.1555 107.589 82.3142C107.235 82.1888 106.919 81.9729 106.674 81.6881C106.65 81.9187 106.695 82.1511 106.803 82.3565C106.803 82.3565 106.418 82.1801 106.565 81.5541C106.565 81.5541 106.226 81.1149 106.226 81.025C106.226 81.025 105.993 81.6193 106.05 82.0391C106.05 82.0391 105.767 81.6017 106.166 80.8857L105.944 80.3566C105.944 80.3566 105.591 81.1273 105.616 81.5047C105.616 81.5047 105.397 81.0126 105.898 80.2173L105.759 79.6688C105.574 80.0019 105.433 80.3576 105.341 80.7269C105.341 80.7269 105.235 80.2278 105.723 79.503L105.672 79.1256C105.672 79.1256 105.425 79.5982 105.365 79.7411C105.305 79.8839 105.265 79.8787 105.265 79.8787C105.305 79.5451 105.438 79.2295 105.647 78.9669C105.647 78.9669 105.589 78.1785 105.542 78.1785Z" fill="#008FFF"/>
<path opacity="0.1" d="M65.7 110.537C65.7 110.537 64.2645 114.497 67.2291 114.856C67.3651 114.924 67.519 114.946 67.6685 114.92C67.8181 114.895 67.9557 114.822 68.0615 114.713C68.0615 114.713 67.8534 114.645 68.0456 114.26C68.1127 114.123 68.163 113.978 68.1955 113.828C68.2408 113.626 68.2191 113.415 68.1338 113.227C68.1338 113.227 68.0015 111.955 66.2803 110.966C66.2803 110.966 65.9716 110.521 65.864 110.502L65.954 111.269C65.954 111.269 66.513 111.183 66.8675 111.486C66.8675 111.486 65.9857 111.246 65.961 111.384C65.961 111.412 66.0263 111.788 66.0263 111.788C66.0263 111.788 66.9998 111.641 67.5324 112.126C67.5324 112.126 66.513 111.699 66.051 111.93L66.1903 112.491C66.1903 112.491 67.2114 112.287 67.8375 112.816C67.8375 112.816 66.7564 112.408 66.2273 112.613L66.4372 113.142C66.4372 113.142 67.4372 112.966 67.9557 113.405C67.9557 113.405 66.6594 113.052 66.4936 113.26C66.5839 113.466 66.6995 113.661 66.8376 113.839C66.8376 113.839 67.5571 113.724 67.8357 114.015C67.8357 114.015 66.9451 113.876 66.9134 113.967C66.9134 113.967 67.3684 114.514 67.7458 114.673C67.392 114.547 67.0772 114.331 66.8323 114.047C66.8089 114.277 66.853 114.509 66.9592 114.715C66.9592 114.715 66.5765 114.539 66.7229 113.913C66.7229 113.913 66.3843 113.474 66.3825 113.384C66.3825 113.384 66.1515 113.98 66.2062 114.398C66.2062 114.398 65.924 113.96 66.3226 113.244L66.1004 112.715C66.1004 112.715 65.7476 113.486 65.7723 113.863C65.7723 113.863 65.5536 113.371 66.0545 112.578L65.9134 112.027C65.7289 112.361 65.5884 112.716 65.4954 113.086C65.4954 113.086 65.3914 112.587 65.8799 111.862L65.8288 111.484C65.8288 111.484 65.5801 111.957 65.5219 112.1C65.4637 112.243 65.4196 112.237 65.4196 112.237C65.4614 111.904 65.5944 111.588 65.8041 111.326C65.8041 111.326 65.7494 110.537 65.7 110.537Z" fill="#008FFF"/>
<path opacity="0.1" d="M60 73.2193C60 73.2193 58.5626 77.1786 61.5272 77.5401C61.6634 77.6068 61.8171 77.6289 61.9665 77.6033C62.116 77.5776 62.2535 77.5056 62.3597 77.3973C62.3597 77.3973 62.1533 77.3267 62.3438 76.9423C62.4111 76.8049 62.4614 76.6598 62.4937 76.5102C62.5389 76.3083 62.5172 76.0973 62.432 75.9088C62.432 75.9088 62.2997 74.6372 60.5784 73.6496C60.5784 73.6496 60.2716 73.2034 60.1622 73.1858L60.2522 73.9512C60.2522 73.9512 60.8112 73.8648 61.1657 74.1681C61.1657 74.1681 60.2839 73.93 60.261 74.0658C60.261 74.094 60.3262 74.4697 60.3262 74.4697C60.3262 74.4697 61.298 74.3233 61.8306 74.8083C61.8306 74.8083 60.8112 74.3833 60.3509 74.6125L60.4885 75.1751C60.4885 75.1751 61.5096 74.9688 62.1357 75.4996C62.1357 75.4996 61.0546 75.0905 60.5273 75.2951L60.7371 75.8241C60.7371 75.8241 61.7371 75.6478 62.2539 76.0869C62.2539 76.0869 60.9576 75.7342 60.7918 75.9441C60.8822 76.1498 60.9977 76.3435 61.1357 76.5208C61.1357 76.5208 61.8553 76.4079 62.1339 76.6971C62.1339 76.6971 61.2433 76.5578 61.2116 76.6513C61.2116 76.6513 61.6683 77.198 62.044 77.3567C61.6901 77.232 61.3752 77.0168 61.1304 76.7324C61.1071 76.9624 61.1519 77.1942 61.2592 77.399C61.2592 77.399 60.8747 77.2227 61.0211 76.5984C61.0211 76.5984 60.6825 76.1575 60.6807 76.0693C60.6807 76.0693 60.4497 76.6654 60.5044 77.0834C60.5044 77.0834 60.2222 76.646 60.6208 75.93L60.3985 75.4009C60.3985 75.4009 60.0458 76.1716 60.0705 76.5472C60.0705 76.5472 59.8518 76.0569 60.3527 75.2615L60.2116 74.7131C60.0275 75.0464 59.887 75.402 59.7936 75.7712C59.7936 75.7712 59.6896 75.2704 60.1781 74.5473L60.1269 74.1681C60.1269 74.1681 59.88 74.6408 59.8201 74.7836C59.7601 74.9265 59.7178 74.9212 59.7178 74.9212C59.7595 74.5876 59.8926 74.2721 60.1023 74.0094C60.1023 74.0094 60.0476 73.221 60 73.2193Z" fill="#008FFF"/>
<path opacity="0.1" d="M70.6575 94.7723C70.6575 94.7723 71.7668 98.8286 74.3963 97.4177C74.5461 97.394 74.6845 97.3236 74.7919 97.2166C74.8992 97.1095 74.97 96.9713 74.9942 96.8216C74.9942 96.8216 74.7843 96.8851 74.7191 96.4601C74.6937 96.309 74.6517 96.1611 74.5938 96.0192C74.5133 95.8286 74.3736 95.6691 74.1953 95.5642C74.1953 95.5642 73.354 94.603 71.3735 94.7864C71.3735 94.7864 70.8656 94.5995 70.7686 94.6471L71.2818 95.222C71.2818 95.222 71.6892 94.8287 72.153 94.8693C72.153 94.8693 71.2906 95.185 71.3559 95.3067C71.3682 95.3331 71.6416 95.5994 71.6416 95.5994C71.6416 95.5994 72.347 94.9187 73.0666 95.0086C73.0666 95.0086 71.9872 95.2485 71.7439 95.7017L72.1812 96.0827C72.1812 96.0827 72.8955 95.3243 73.7138 95.3966C73.7138 95.3966 72.5957 95.6859 72.2818 96.1585L72.7615 96.4742C72.7615 96.4742 73.4669 95.7494 74.1529 95.8128C74.1529 95.8128 72.8937 96.2784 72.8761 96.5377C73.0679 96.6543 73.2735 96.7467 73.4881 96.8128C73.4881 96.8128 74.0171 96.3049 74.4034 96.3772C74.4034 96.3772 73.5956 96.7758 73.6221 96.871C73.6221 96.871 74.3099 97.0474 74.7067 96.9627C74.3453 97.0651 73.9634 97.0705 73.5992 96.9786C73.7134 97.1803 73.8837 97.3445 74.0895 97.4512C74.0895 97.4512 73.6732 97.5271 73.4334 96.9327C73.4334 96.9327 72.9043 96.7687 72.8496 96.6946C72.8496 96.6946 73.0031 97.3137 73.2888 97.6241C73.2888 97.6241 72.8055 97.4301 72.7191 96.6153L72.2306 96.3084C72.2306 96.3084 72.3911 97.1391 72.6257 97.4354C72.6257 97.4354 72.1636 97.1602 72.1142 96.222L71.6821 95.8552C71.7242 96.2359 71.8161 96.6095 71.9555 96.9662C71.9555 96.9662 71.5816 96.6135 71.5622 95.7441L71.303 95.4654C71.303 95.4654 71.3735 95.9945 71.407 96.1444C71.4405 96.2943 71.407 96.3208 71.407 96.3208C71.2479 96.0246 71.1746 95.6899 71.1954 95.3543C71.1954 95.3543 70.6963 94.7441 70.6575 94.7723Z" fill="#008FFF"/>
<path opacity="0.1" d="M100.75 98.4036C100.75 98.4036 101.859 102.46 104.491 101.049C104.64 101.025 104.778 100.955 104.885 100.848C104.992 100.741 105.063 100.602 105.087 100.453C105.087 100.453 104.879 100.516 104.812 100.091C104.788 99.9399 104.746 99.7918 104.686 99.6505C104.607 99.46 104.467 99.3004 104.29 99.1954C104.29 99.1954 103.448 98.2343 101.468 98.4177C101.468 98.4177 100.96 98.2307 100.861 98.2784L101.376 98.8533C101.376 98.8533 101.783 98.46 102.247 98.5006C102.247 98.5006 101.385 98.8163 101.448 98.9397C101.461 98.9644 101.734 99.2307 101.734 99.2307C101.734 99.2307 102.44 98.55 103.159 98.6399C103.159 98.6399 102.082 98.8797 101.838 99.333L102.274 99.7139C102.274 99.7139 102.99 98.9556 103.806 99.0279C103.806 99.0279 102.688 99.3171 102.374 99.7898L102.854 100.105C102.854 100.105 103.559 99.3806 104.247 99.4441C104.247 99.4441 102.988 99.9097 102.969 100.171C103.161 100.287 103.367 100.378 103.582 100.444C103.582 100.444 104.111 99.9362 104.496 100.008C104.496 100.008 103.688 100.409 103.716 100.502C103.716 100.502 104.404 100.679 104.801 100.594C104.44 100.696 104.058 100.702 103.693 100.61C103.807 100.812 103.978 100.976 104.184 101.083C104.184 101.083 103.768 101.158 103.526 100.564C103.526 100.564 102.997 100.4 102.942 100.326C102.942 100.326 103.097 100.945 103.383 101.257C103.383 101.257 102.9 101.061 102.813 100.247L102.325 99.9397C102.325 99.9397 102.484 100.77 102.718 101.067C102.718 101.067 102.256 100.792 102.207 99.8533L101.776 99.4864C101.818 99.867 101.91 100.24 102.048 100.598C102.048 100.598 101.674 100.245 101.656 99.3753L101.397 99.0967C101.397 99.0967 101.468 99.6258 101.501 99.7757C101.535 99.9256 101.501 99.952 101.501 99.952C101.342 99.6559 101.269 99.3211 101.29 98.9856C101.29 98.9856 100.791 98.3665 100.75 98.4036Z" fill="#008FFF"/>
<path d="M174.776 158.52L176.551 160.394L179.368 155.432L179.114 154.874L174.776 158.52Z" fill="#008FFF"/>
<path opacity="0.2" d="M174.776 158.52L176.551 160.394L179.368 155.432L179.114 154.874L174.776 158.52Z" fill="black"/>
<path d="M49.9298 154.271C49.9298 163.689 43.4803 165.687 37.0167 165.687C30.5531 165.687 26.9148 157.751 26.9148 148.33C26.9148 138.908 32.1545 131.275 38.6181 131.275C45.0817 131.275 49.9298 144.853 49.9298 154.271Z" fill="#636780"/>
<path opacity="0.2" d="M49.9298 154.271C49.9298 163.689 43.4803 165.687 37.0167 165.687C30.5531 165.687 26.9148 157.751 26.9148 148.33C26.9148 138.908 32.1545 131.275 38.6181 131.275C45.0817 131.275 49.9298 144.853 49.9298 154.271Z" fill="black"/>
<path d="M45.4609 148.633C45.4609 158.051 41.3094 165.687 36.1879 165.687C31.0664 165.687 26.712 158.051 26.712 148.633C26.712 147.331 26.511 146.065 26.6609 144.848C27.5974 137.252 31.7753 131.581 36.1844 131.581C41.3094 131.581 45.4609 139.215 45.4609 148.633Z" fill="#636780"/>
<path d="M44.5368 107.121C44.5368 107.121 36.4083 116.235 33.8264 123.831L104.018 131.581L141.618 123.831C141.618 123.831 126.726 105.987 122.702 105.298C118.677 104.608 44.5368 107.121 44.5368 107.121Z" fill="#008FFF"/>
<path opacity="0.4" d="M44.5368 107.121C44.5368 107.121 36.4083 116.235 33.8264 123.831L104.018 131.581L141.618 123.831C141.618 123.831 126.726 105.987 122.702 105.298C118.677 104.608 44.5368 107.121 44.5368 107.121Z" fill="black"/>
<path d="M96.0411 130.307L107.307 161.915V153.915L110.443 144.959L119.13 141.113L130.146 146.111L134.086 147.342L134.43 140.051L121.333 133.595L115.236 130.669L101.281 129.452L97.4309 128.764L96.0411 130.307Z" fill="#008FFF"/>
<path d="M101.066 133.595L111.316 134.771C110.85 130.678 113.889 130.678 113.889 130.678L103.635 128.903H98.8489" fill="#008FFF"/>
<path d="M107.307 166.775H114.573L135.615 166.07C135.615 166.07 136.07 170.082 141.611 169.138C141.611 169.138 144.662 169.334 144.99 167.676C145.318 166.018 138.041 150.698 138.041 150.698L128.121 143.291L119.127 141.108L112.67 143.007L108.568 149.532L105.986 158.465L107.307 166.775Z" fill="#636780"/>
<path opacity="0.2" d="M107.307 166.775H114.573L135.615 166.07C135.615 166.07 136.07 170.082 141.611 169.138C141.611 169.138 144.662 169.334 144.99 167.676C145.318 166.018 138.041 150.698 138.041 150.698L128.121 143.291L119.127 141.108L112.67 143.007L108.568 149.532L105.986 158.465L107.307 166.775Z" fill="black"/>
<path d="M45.9512 109.303C44.9107 110.153 41.6233 113.202 38.8845 119.65C38.7895 119.871 38.7472 120.112 38.761 120.353C38.7747 120.594 38.8442 120.828 38.9638 121.037C39.0835 121.247 39.2501 121.425 39.4505 121.56C39.651 121.694 39.8798 121.779 40.119 121.81L56.6228 123.949C57.2314 124.029 57.8478 123.881 58.3541 123.534C58.8605 123.187 59.2211 122.666 59.367 122.069L62.2681 110.234C62.3114 110.058 62.3137 109.874 62.2747 109.697C62.2358 109.52 62.1566 109.355 62.0434 109.213C61.9302 109.072 61.786 108.958 61.6219 108.881C61.4578 108.805 61.2782 108.766 61.0971 108.77L46.6761 109.038C46.4115 109.042 46.1559 109.135 45.9512 109.303Z" fill="#008FFF"/>
<path opacity="0.2" d="M45.9512 109.303C44.9107 110.153 41.6233 113.202 38.8845 119.65C38.7895 119.871 38.7472 120.112 38.761 120.353C38.7747 120.594 38.8442 120.828 38.9638 121.037C39.0835 121.247 39.2501 121.425 39.4505 121.56C39.651 121.694 39.8798 121.779 40.119 121.81L56.6228 123.949C57.2314 124.029 57.8478 123.881 58.3541 123.534C58.8605 123.187 59.2211 122.666 59.367 122.069L62.2681 110.234C62.3114 110.058 62.3137 109.874 62.2747 109.697C62.2358 109.52 62.1566 109.355 62.0434 109.213C61.9302 109.072 61.786 108.958 61.6219 108.881C61.4578 108.805 61.2782 108.766 61.0971 108.77L46.6761 109.038C46.4115 109.042 46.1559 109.135 45.9512 109.303Z" fill="white"/>
<path d="M69.9344 108.744L88.5193 108.567C89.8579 108.555 91.0571 109.449 91.5086 110.814L97.3038 123.976C97.817 125.517 96.7077 127.122 95.1875 127.034L68.0597 125.247C65.8093 125.117 64.2168 122.822 64.737 120.457L66.7035 111.521C67.058 109.906 68.3912 108.758 69.9344 108.744Z" fill="#008FFF"/>
<path opacity="0.2" d="M69.9344 108.744L88.5193 108.567C89.8579 108.555 91.0571 109.449 91.5086 110.814L97.3038 123.976C97.817 125.517 96.7077 127.122 95.1875 127.034L68.0597 125.247C65.8093 125.117 64.2168 122.822 64.737 120.457L66.7035 111.521C67.058 109.906 68.3912 108.758 69.9344 108.744Z" fill="white"/>
<path d="M98.8241 108.532C103.905 108.44 117.37 108.056 124.068 106.513C124.068 106.513 135.563 115.172 139.008 121.704C139.008 121.704 121.09 126.066 108.714 126.657C107.797 126.699 106.887 126.471 106.098 126C105.308 125.53 104.675 124.838 104.275 124.011L97.6954 110.375C97.6006 110.181 97.5563 109.967 97.5665 109.752C97.5767 109.536 97.641 109.327 97.7536 109.143C97.8661 108.96 98.0232 108.807 98.2104 108.7C98.3975 108.594 98.6086 108.536 98.8241 108.532Z" fill="#008FFF"/>
<path opacity="0.2" d="M98.8241 108.532C103.905 108.44 117.37 108.056 124.068 106.513C124.068 106.513 135.563 115.172 139.008 121.704C139.008 121.704 121.09 126.066 108.714 126.657C107.797 126.699 106.887 126.471 106.098 126C105.308 125.53 104.675 124.838 104.275 124.011L97.6954 110.375C97.6006 110.181 97.5563 109.967 97.5665 109.752C97.5767 109.536 97.641 109.327 97.7536 109.143C97.8661 108.96 98.0232 108.807 98.2104 108.7C98.3975 108.594 98.6086 108.536 98.8241 108.532Z" fill="white"/>
<path opacity="0.1" d="M105.267 110.505C107.383 110.468 111.512 110.359 115.543 110.057C118.512 109.831 121.493 110.294 124.254 111.411C127.014 112.527 129.479 114.266 131.456 116.493L131.587 116.641C131.873 116.971 132.068 117.37 132.153 117.798C132.238 118.226 132.21 118.67 132.072 119.084C131.933 119.498 131.689 119.869 131.363 120.16C131.038 120.451 130.642 120.652 130.215 120.743C125.767 121.697 118.19 123.154 112.342 123.436C111.684 123.469 111.03 123.308 110.464 122.971C109.897 122.635 109.442 122.139 109.155 121.546L104.461 111.816C104.394 111.678 104.363 111.525 104.371 111.372C104.379 111.219 104.425 111.071 104.505 110.94C104.586 110.81 104.697 110.702 104.83 110.626C104.963 110.55 105.113 110.508 105.267 110.505Z" fill="white"/>
<path d="M107.307 161.915V166.775L53.577 158.573C50.9439 157.661 49.3725 158.22 49.3725 158.22C47.4326 157.273 46.0217 153.578 45.9811 153.458L46.9952 150.522L38.7592 136.9L27.8019 137.355C29.5249 123.579 34.4859 122.921 34.4859 122.921L98.8576 128.896L107.307 161.915Z" fill="#008FFF"/>
<path opacity="0.1" d="M95.7272 132.901C95.3057 133.364 94.535 133.783 93.1136 133.744C90.9355 133.692 90.5228 131.833 90.4681 130.723C90.4544 130.452 90.4621 130.179 90.4911 129.909L93.3446 129.036L93.9283 129.581L95.6514 131.194C95.8854 131.412 96.0245 131.713 96.0387 132.032C96.0528 132.352 95.941 132.664 95.7272 132.901Z" fill="black"/>
<path d="M95.7272 132.75C95.3057 133.212 94.535 133.632 93.1136 133.593C90.9355 133.54 90.5228 131.681 90.4681 130.572C90.4544 130.3 90.4621 130.028 90.4911 129.757L93.3446 128.884L93.9283 129.429L95.6514 131.043C95.8854 131.26 96.0245 131.561 96.0387 131.881C96.0528 132.2 95.941 132.512 95.7272 132.75Z" fill="#DCE0ED"/>
<path opacity="0.1" d="M93.9301 129.429C93.565 130.358 92.4857 130.611 92.4857 130.611L90.4699 130.572C90.4561 130.3 90.4638 130.028 90.4928 129.757L93.3463 128.884L93.9301 129.429Z" fill="black"/>
<path d="M86.6569 122.313C86.6569 122.313 82.0998 122.923 83.3149 127.043C84.2355 130.164 86.2901 130.374 87.2319 130.295C87.7801 130.246 88.3305 130.226 88.8808 130.235L92.4839 130.307C92.4839 130.307 94.5191 129.833 93.9494 127.782C93.3798 125.731 90.7591 121.971 86.6569 122.313Z" fill="#F0F0F4"/>
<path opacity="0.2" d="M61.9823 134.771C63.1434 134.771 64.0846 133.546 64.0846 132.036C64.0846 130.525 63.1434 129.3 61.9823 129.3C60.8213 129.3 59.8801 130.525 59.8801 132.036C59.8801 133.546 60.8213 134.771 61.9823 134.771Z" fill="black"/>
<path opacity="0.1" d="M65.6008 131.54L59.6173 130.902C59.1089 130.848 58.6527 131.216 58.5984 131.724L58.5982 131.726C58.544 132.235 58.9122 132.691 59.4207 132.745L65.4041 133.384C65.9126 133.438 66.3688 133.07 66.423 132.561L66.4232 132.559C66.4775 132.051 66.1092 131.595 65.6008 131.54Z" fill="black"/>
<path d="M65.601 131.388L59.6176 130.749C59.1091 130.695 58.6529 131.063 58.5987 131.572L58.5985 131.574C58.5442 132.082 58.9125 132.538 59.4209 132.593L65.4044 133.231C65.9128 133.285 66.369 132.917 66.4233 132.408L66.4235 132.407C66.4777 131.898 66.1095 131.442 65.601 131.388Z" fill="#F0F0F4"/>
<path opacity="0.1" d="M27.1424 149.887C27.1424 149.887 23.37 146.164 27.9519 137.203C27.9519 137.203 33.8264 128.314 42.9425 138.039C42.9425 138.039 48.184 143.887 49.7024 153.231L46.1329 153.306C46.1329 153.306 42.7132 136.746 32.6871 137.582C32.6871 137.58 25.3946 138.871 27.1424 149.887Z" fill="black"/>
<path opacity="0.1" d="M26.9941 150.342C26.9941 150.342 23.22 146.621 27.8036 137.656C27.8036 137.656 33.6782 128.769 42.7942 138.492C42.7942 138.492 48.0357 144.342 49.5559 153.684L45.9846 153.76C45.9846 153.76 42.5614 137.203 32.5353 138.037C32.5353 138.037 25.2428 139.328 26.9941 150.342Z" fill="black"/>
<path d="M26.9941 150.038C26.9941 150.038 23.22 146.315 27.8036 137.353C27.8036 137.353 33.6782 128.466 42.7942 138.189C42.7942 138.189 48.0357 144.037 49.5559 153.38L45.9846 153.456C45.9846 153.456 42.5614 136.898 32.5353 137.732C32.5353 137.732 25.2428 139.025 26.9941 150.038Z" fill="#008FFF"/>
<path opacity="0.2" d="M26.9941 150.038C26.9941 150.038 23.22 146.315 27.8036 137.353C27.8036 137.353 33.6782 128.466 42.7942 138.189C42.7942 138.189 48.0357 144.037 49.5559 153.38L45.9846 153.456C45.9846 153.456 42.5614 136.898 32.5353 137.732C32.5353 137.732 25.2428 139.025 26.9941 150.038Z" fill="black"/>
<path opacity="0.1" d="M107.307 161.763V166.623L53.5769 158.419C50.9439 157.509 49.3725 158.066 49.3725 158.066C47.4325 157.119 46.0216 153.425 45.9811 153.305L49.5524 153.229L59.8836 154.671L97.4325 160.065C97.4325 160.065 104.092 160.825 104.471 161.123C104.85 161.421 107.307 161.763 107.307 161.763Z" fill="black"/>
<path d="M107.307 161.915V166.775L53.5769 158.573C50.9439 157.661 49.3725 158.22 49.3725 158.22C47.4325 157.273 46.0216 153.578 45.9811 153.458L49.5524 153.382L59.8836 154.825L97.4325 160.218C97.4325 160.218 104.092 160.978 104.471 161.276C104.85 161.574 107.307 161.915 107.307 161.915Z" fill="#008FFF"/>
<path opacity="0.2" d="M107.307 161.915V166.775L53.5769 158.573C50.9439 157.661 49.3725 158.22 49.3725 158.22C47.4325 157.273 46.0216 153.578 45.9811 153.458L49.5524 153.382L59.8836 154.825L97.4325 160.218C97.4325 160.218 104.092 160.978 104.471 161.276C104.85 161.574 107.307 161.915 107.307 161.915Z" fill="black"/>
<path opacity="0.2" d="M59.8079 154.839C56.4693 144.12 56.6475 136.644 57.3847 132.265C58.1853 127.503 59.8043 125.258 59.8202 125.237L59.9419 125.327C59.926 125.348 58.3264 127.577 57.5328 132.304C56.7991 136.674 56.6228 144.111 59.9542 154.802L59.8079 154.839Z" fill="black"/>
<path d="M180.329 150.143C180.463 150.642 180.775 152.021 180.28 152.393C180.091 152.534 179.927 152.881 179.8 153.294C179.601 153.994 179.457 154.709 179.37 155.432L174.202 161.204L165.467 164.623L144.577 166.066L131.967 145.557L103.635 128.895L111.37 128.466C119.107 128.036 141.069 123.175 141.069 123.175L165.913 128.664C169.931 129.545 173.481 131.883 175.878 135.226C178.902 139.459 180.287 144.044 180.287 144.044C180.661 144.492 180.805 145.226 180.826 146.03C180.855 147.34 180.555 148.832 180.391 149.545C180.329 149.811 180.287 149.97 180.287 149.97C180.287 149.97 180.301 150.03 180.329 150.143Z" fill="#008FFF"/>
<path opacity="0.1" d="M104.469 160.976C104.469 160.976 102.951 144.728 114.346 140.319C114.346 140.319 130.373 133.554 139.793 151.938L144.577 162.422C144.577 162.422 145.944 165.004 149.667 164.929C149.667 164.929 167.213 164.399 176.474 158.472L179.361 155.121C179.361 155.121 177.918 159.83 176.474 160.893C176.474 160.893 170.778 167.577 150.039 168.794C150.039 168.794 141.558 169.704 139.001 161.654C139.001 161.654 135.532 143.423 117.908 143.575C117.908 143.575 107.554 143.778 107.3 161.602L104.469 160.976Z" fill="black"/>
<path d="M104.469 161.28C104.469 161.28 102.951 145.033 114.346 140.623C114.346 140.623 130.373 133.859 139.793 152.241L144.577 162.724C144.577 162.724 145.944 165.306 149.667 165.23C149.667 165.23 167.213 164.701 176.474 158.774L179.37 155.432C179.37 155.432 177.927 160.14 176.483 161.204C176.483 161.204 170.786 167.89 150.048 169.105C150.048 169.105 141.567 170.017 139.01 161.964C139.01 161.964 135.541 143.734 117.917 143.885C117.917 143.885 107.563 144.09 107.309 161.915L104.469 161.28Z" fill="#008FFF"/>
<path opacity="0.2" d="M104.469 161.28C104.469 161.28 102.951 145.033 114.346 140.623C114.346 140.623 130.373 133.859 139.793 152.241L144.577 162.724C144.577 162.724 145.944 165.306 149.667 165.23C149.667 165.23 167.213 164.701 176.474 158.774L179.37 155.432C179.37 155.432 177.927 160.14 176.483 161.204C176.483 161.204 170.786 167.89 150.048 169.105C150.048 169.105 141.567 170.017 139.01 161.964C139.01 161.964 135.541 143.734 117.917 143.885C117.917 143.885 107.563 144.09 107.309 161.915L104.469 161.28Z" fill="black"/>
<path opacity="0.2" d="M101.838 160.789L101.152 138.185C101.245 136.655 101.185 135.119 100.976 133.6C100.954 133.505 100.41 131.173 99.6812 129.849C99.2138 129.166 98.817 128.958 98.7994 128.955L98.3955 128.845L98.847 128.812C99.1591 128.872 99.4554 129.196 99.7288 129.649C100.226 130.332 100.812 131.531 101.12 133.575C101.331 135.099 101.39 136.641 101.297 138.176L101.983 160.775L101.838 160.789Z" fill="black"/>
<path opacity="0.2" d="M115.786 144.025L115.638 144.049C115.638 144.032 115.323 142.157 114.282 140.667C112.101 137.543 111.388 135.425 111.307 134.011C111.267 133.521 111.327 133.027 111.483 132.561C111.824 131.607 112.735 130.902 113.973 130.552L114.238 130.596C113.048 130.932 111.945 131.707 111.619 132.612C111.463 133.072 111.403 133.559 111.443 134.043C111.531 135.427 112.245 137.504 114.391 140.582C115.467 142.099 115.785 144.005 115.786 144.025Z" fill="black"/>
<path opacity="0.2" d="M164.441 136.658C154.762 130.882 134.273 125.51 134.066 125.457L134.105 125.309C134.311 125.364 154.822 130.741 164.518 136.527L164.441 136.658Z" fill="black"/>
<path opacity="0.2" d="M178.513 144.663C174.858 138.235 165.019 132.935 157.407 129.619C152.259 127.392 146.978 125.484 141.595 123.905L141.636 123.759C147.025 125.339 152.313 127.25 157.467 129.48C165.1 132.804 174.969 138.122 178.645 144.587L178.513 144.663Z" fill="black"/>
<path opacity="0.1" d="M178.743 142.826C179.515 142.245 178.138 139.116 175.668 135.838C173.198 132.56 170.57 130.374 169.798 130.956C169.026 131.537 170.403 134.666 172.873 137.944C175.343 141.222 177.971 143.408 178.743 142.826Z" fill="black"/>
<path d="M178.744 142.522C179.516 141.941 178.139 138.812 175.669 135.534C173.198 132.256 170.57 130.07 169.799 130.652C169.027 131.233 170.404 134.362 172.874 137.64C175.344 140.918 177.972 143.104 178.744 142.522Z" fill="#DCE0ED"/>
<path opacity="0.1" d="M178.166 141.504C178.667 141.127 177.42 138.626 175.38 135.919C173.34 133.212 171.28 131.324 170.779 131.701C170.278 132.079 171.526 134.579 173.566 137.286C175.606 139.993 177.665 141.882 178.166 141.504Z" fill="black"/>
<path d="M178.167 141.353C178.668 140.976 177.42 138.475 175.38 135.768C173.34 133.061 171.281 131.173 170.78 131.55C170.279 131.928 171.526 134.428 173.566 137.135C175.606 139.842 177.666 141.731 178.167 141.353Z" fill="#F0F0F4"/>
<path opacity="0.1" d="M156.009 148.254C156.009 148.254 156.503 144.531 159.429 143.695C159.429 143.695 169.379 140.817 171.545 140.774C171.545 140.774 173.784 140.088 175.266 141.758L176.784 143.809C176.784 143.809 177.842 145.481 175.493 145.785C175.493 145.785 163.467 150.194 158.252 150.652C157.956 150.679 157.661 150.724 157.371 150.786C156.609 150.945 155.009 150.991 156.009 148.254Z" fill="black"/>
<path d="M156.162 148.102C156.162 148.102 156.656 144.379 159.58 143.543C159.58 143.543 169.531 140.665 171.696 140.623C171.696 140.623 173.936 139.935 175.417 141.607L176.938 143.658C176.938 143.658 177.996 145.328 175.645 145.633C175.645 145.633 163.621 150.042 158.406 150.501C158.109 150.527 157.815 150.572 157.524 150.635C156.76 150.793 155.161 150.839 156.162 148.102Z" fill="#F0F0F4"/>
<path opacity="0.1" d="M157.21 147.785C157.21 147.785 157.67 144.601 160.385 143.887C160.385 143.887 169.636 141.418 171.649 141.388C171.649 141.388 173.732 140.801 175.109 142.229L176.52 143.984C176.52 143.984 177.507 145.414 175.319 145.674C175.319 145.674 164.139 149.448 159.291 149.837C159.018 149.861 158.747 149.899 158.478 149.952C157.767 150.077 156.281 150.123 157.21 147.785Z" fill="black"/>
<path d="M157.363 147.629C157.363 147.629 157.822 144.455 160.538 143.732C160.538 143.732 169.79 141.263 171.802 141.233C171.802 141.233 173.885 140.644 175.262 142.074L176.673 143.838C176.673 143.838 177.661 145.266 175.472 145.527C175.472 145.527 164.291 149.301 159.443 149.691C159.171 149.714 158.901 149.753 158.633 149.806C157.919 149.933 156.432 149.971 157.363 147.629Z" fill="#636780"/>
<path d="M158.145 145.668L158.125 145.517C158.261 145.501 171.774 143.822 174.682 141.577L174.776 141.697C171.834 143.963 158.702 145.596 158.145 145.668Z" fill="#F0F0F4"/>
<path d="M157.434 147.418L157.408 147.268C157.556 147.241 172.421 144.488 175.627 142.506L175.709 142.635C172.478 144.633 157.584 147.39 157.434 147.418Z" fill="#F0F0F4"/>
<path d="M157.083 148.859L157.055 148.71C157.231 148.677 174.338 145.448 176.454 143.555L176.555 143.668C174.416 145.589 157.788 148.726 157.083 148.859Z" fill="#F0F0F4"/>
<path opacity="0.1" d="M174.887 148.936C174.887 148.936 168.439 151.626 161.66 152.832C161.06 152.94 160.467 153.074 159.88 153.234C159.192 153.421 158.215 153.633 157.684 153.495C156.811 153.266 156.328 154.329 157.272 155.165L157.332 155.218C157.673 155.518 158.071 155.746 158.502 155.889C158.933 156.031 159.389 156.085 159.841 156.047L161.293 155.925C161.293 155.925 173.068 153.343 176.352 151.329C176.352 151.329 177.851 150.301 177.966 149.144C178.081 147.987 178.216 147.076 177.028 147.76C175.839 148.444 174.887 148.936 174.887 148.936Z" fill="black"/>
<path d="M175.031 148.788C174.791 148.887 168.462 151.497 161.804 152.68C161.205 152.787 160.612 152.921 160.025 153.082C159.339 153.269 158.36 153.481 157.829 153.343C156.947 153.114 156.473 154.178 157.416 155.014L157.445 155.038C157.796 155.349 158.206 155.585 158.65 155.733C159.095 155.88 159.565 155.936 160.032 155.897L161.429 155.781H161.452C161.855 155.693 173.268 153.169 176.495 151.195H176.507C176.608 151.123 178.005 150.128 178.114 149.014C178.229 147.857 178.366 146.945 177.176 147.629C176.045 148.278 175.13 148.758 175.045 148.802L175.031 148.788Z" fill="#F0F0F4"/>
<path opacity="0.1" d="M174.171 149.638C174.171 149.638 168.88 151.839 163.199 153.089C162.635 153.213 162.076 153.358 161.52 153.518C160.965 153.679 160.171 153.871 159.73 153.814C158.975 153.714 158.616 154.467 159.462 154.973L159.489 154.989C160.129 155.372 160.882 155.523 161.621 155.419L162.929 155.243C162.929 155.243 172.839 152.749 175.537 151.176C175.537 151.176 176.772 150.384 176.804 149.589C176.835 148.793 176.913 148.178 175.934 148.707C174.955 149.236 174.171 149.638 174.171 149.638Z" fill="black"/>
<path d="M174.321 149.486C174.208 149.534 168.97 151.7 163.353 152.938C162.788 153.061 162.228 153.206 161.672 153.366C161.116 153.527 160.325 153.719 159.882 153.663C159.127 153.562 158.767 154.313 159.616 154.821C160.273 155.214 161.044 155.371 161.802 155.264L163.076 155.088C163.28 155.037 173.005 152.58 175.678 151.031C175.721 151.003 176.913 150.225 176.943 149.444C176.973 148.663 177.052 148.024 176.074 148.562C175.095 149.1 174.354 149.472 174.31 149.493L174.321 149.486Z" fill="#636780"/>
<path opacity="0.1" d="M152.747 156.008C152.802 154.906 152.186 153.98 151.371 153.939C150.556 153.899 149.85 154.759 149.795 155.86C149.74 156.962 150.356 157.888 151.171 157.929C151.987 157.969 152.692 157.109 152.747 156.008Z" fill="black"/>
<path d="M152.705 155.998C152.759 154.898 152.144 153.973 151.329 153.933C150.515 153.892 149.811 154.751 149.756 155.852C149.701 156.952 150.317 157.877 151.131 157.917C151.945 157.958 152.65 157.099 152.705 155.998Z" fill="#F0F0F4"/>
<path opacity="0.1" d="M159.945 157.444C159.945 157.444 152.212 158.622 150.161 158.737C148.11 158.851 147.801 159.989 147.801 159.989C147.801 159.989 147.307 162.876 150.156 162.04L160.258 160.9C160.258 160.9 161.626 160.939 161.626 159.077V158.659C161.63 158.425 161.654 158.192 161.697 157.962C161.751 157.671 161.601 157.199 159.945 157.444Z" fill="black"/>
<path d="M160.097 157.292C160.097 157.292 152.364 158.47 150.313 158.583C148.262 158.696 147.958 159.837 147.958 159.837C147.958 159.837 147.464 162.724 150.313 161.888L160.416 160.749C160.416 160.749 161.783 160.788 161.783 158.925V158.507C161.787 158.274 161.811 158.04 161.854 157.811C161.91 157.52 161.753 157.047 160.097 157.292Z" fill="#F0F0F4"/>
<path d="M180.28 152.393C180.091 152.534 179.927 152.881 179.8 153.294L177.296 155.068C177.265 155.09 177.229 155.103 177.192 155.105C177.155 155.108 177.117 155.1 177.084 155.083C177.051 155.066 177.023 155.04 177.003 155.008C176.984 154.976 176.973 154.94 176.973 154.902V153.04C176.973 152.773 177.042 152.511 177.173 152.278C177.305 152.046 177.494 151.851 177.723 151.714L180.329 150.142C180.463 150.642 180.781 152.017 180.28 152.393Z" fill="#F0F0F4"/>
<path d="M162.556 157.541L162.439 159.424C162.424 159.612 162.452 159.801 162.52 159.976C162.588 160.152 162.694 160.31 162.831 160.439C162.968 160.568 163.133 160.664 163.312 160.721C163.491 160.778 163.681 160.794 163.868 160.768C168.133 160.088 172.232 158.615 175.955 156.426L176.285 152.578C176.295 152.484 176.28 152.389 176.241 152.303C176.203 152.217 176.143 152.142 176.067 152.087C175.991 152.031 175.901 151.996 175.807 151.985C175.714 151.975 175.619 151.989 175.532 152.026C173.416 152.97 167.742 155.387 164.141 155.85C163.722 155.905 163.335 156.104 163.046 156.412C162.757 156.72 162.584 157.119 162.556 157.541Z" fill="#636780"/>
<path d="M163.719 156.571V159.632C163.719 159.632 173.139 157.407 175.227 155.906V153.001C171.559 154.677 167.692 155.876 163.719 156.571Z" fill="#008FFF"/>
<path d="M180.232 149.691C179.754 149.658 179.372 148.837 179.372 147.834C179.372 146.83 179.77 145.975 180.253 145.975C180.331 145.979 180.407 145.998 180.476 146.032C180.546 146.067 180.607 146.115 180.657 146.174C180.696 147.485 180.396 148.977 180.232 149.691Z" fill="#008FFF"/>
<path d="M180.384 149.538C179.906 149.506 179.525 148.686 179.525 147.682C179.525 146.679 179.922 145.822 180.407 145.822C180.484 145.826 180.561 145.846 180.63 145.88C180.7 145.915 180.762 145.963 180.812 146.023C180.848 147.333 180.548 148.825 180.384 149.538Z" fill="#F0F0F4"/>
<path d="M137.057 162.514C137.057 179.207 130.003 179.568 120.802 179.568C113.451 179.568 110.443 171.934 110.443 162.514C110.443 153.095 112.804 145.481 120.153 145.481C127.502 145.481 137.057 153.097 137.057 162.514Z" fill="#636780"/>
<path opacity="0.2" d="M137.057 162.514C137.057 179.207 130.003 179.568 120.802 179.568C113.451 179.568 110.443 171.934 110.443 162.514C110.443 153.095 112.804 145.481 120.153 145.481C127.502 145.481 137.057 153.097 137.057 162.514Z" fill="black"/>
<path d="M119.716 179.568C124.837 179.568 128.989 171.933 128.989 162.514C128.989 153.095 124.837 145.46 119.716 145.46C114.594 145.46 110.443 153.095 110.443 162.514C110.443 171.933 114.594 179.568 119.716 179.568Z" fill="#636780"/>
<path d="M40.2582 152.393C40.2582 157.507 38.7768 161.609 35.6993 161.609C32.6218 161.609 28.9641 157.46 28.9641 152.342C28.9641 147.224 30.2427 142.721 33.3202 142.721C36.3977 142.721 40.2582 147.275 40.2582 152.393Z" fill="#F0F0F4"/>
<path d="M40.2565 152.194C40.2565 152.582 40.2459 152.962 40.2248 153.336C40.1808 154.32 40.0366 155.296 39.7944 156.25C39.2953 158.133 38.3836 159.442 37.0538 159.691C36.8973 159.719 36.7385 159.733 36.5794 159.733C35.8762 159.71 35.1938 159.489 34.6112 159.095C33.3432 158.287 32.1739 156.779 31.5796 154.894C31.3573 154.201 31.2205 153.484 31.1722 152.758C31.1581 152.56 31.151 152.359 31.151 152.158C31.1351 150.765 31.2741 149.375 31.5654 148.012C31.7314 147.182 32.0342 146.386 32.4614 145.656C33.0046 144.801 33.7259 144.291 34.65 144.291C35.3415 144.319 36.0104 144.545 36.5776 144.942C37.4251 145.519 38.1453 146.264 38.6939 147.13C39.6913 148.632 40.2339 150.391 40.2565 152.194Z" fill="#636780"/>
<path d="M40.2212 153.343C40.178 154.324 40.035 155.298 39.7944 156.25C39.7309 156.178 37.9885 154.164 36.6799 155.456C35.7187 156.403 36.5282 158.56 37.0538 159.689C36.8973 159.718 36.7385 159.732 36.5794 159.731C35.8762 159.708 35.1938 159.487 34.6112 159.093V158.948C34.6112 158.948 35.3854 156.536 33.3202 155.049C33.3202 155.049 32.3167 154.65 31.5707 154.89C31.3485 154.197 31.2116 153.48 31.1633 152.754C31.3397 152.615 32.5478 151.58 32.054 149.629C31.9206 149.08 31.7545 148.538 31.5566 148.009C31.7257 147.18 32.0315 146.385 32.4613 145.656C32.4613 145.656 32.8582 147.809 34.3766 147.938C35.8951 148.067 36.5582 145.025 36.5776 144.94C37.425 145.517 38.1453 146.262 38.6939 147.128C38.6939 147.128 36.269 148.137 36.9762 150.821C37.4947 152.723 39.2512 153.218 40.2212 153.343Z" fill="#F0F0F4"/>
<path d="M35.344 153.725C35.967 153.637 36.3481 152.69 36.1954 151.61C36.0427 150.53 35.4139 149.726 34.791 149.814C34.1681 149.902 33.7869 150.849 33.9396 151.929C34.0923 153.009 34.7211 153.813 35.344 153.725Z" fill="#636780"/>
<path d="M121.333 163.227C121.333 169.359 120.026 174.27 117.312 174.27C114.598 174.27 111.37 169.299 111.37 163.16C111.37 157.021 112.499 151.633 115.213 151.633C117.928 151.633 121.333 157.095 121.333 163.227Z" fill="#F0F0F4"/>
<path d="M121.333 162.996C121.333 163.466 121.324 163.923 121.305 164.366C121.266 165.536 121.138 166.7 120.924 167.851C120.485 170.108 119.689 171.674 118.506 171.974C118.369 172.007 118.229 172.023 118.088 172.024C117.52 172.024 116.924 171.752 116.353 171.258C115.227 170.29 114.201 168.473 113.67 166.223C113.476 165.382 113.358 164.526 113.317 163.664C113.305 163.428 113.298 163.188 113.298 162.945C113.283 161.282 113.406 159.621 113.665 157.978C113.808 157.006 114.078 156.058 114.469 155.156C114.949 154.132 115.585 153.522 116.4 153.522C116.949 153.522 117.532 153.802 118.1 154.301C118.779 154.899 119.434 155.807 119.973 156.924C120.869 158.822 121.334 160.896 121.333 162.996Z" fill="#636780"/>
<path d="M121.305 164.362C121.266 165.532 121.138 166.697 120.924 167.847C120.869 167.759 119.337 165.347 118.176 166.895C117.33 168.031 118.042 170.614 118.506 171.971C118.369 172.003 118.229 172.02 118.088 172.02C117.52 172.02 116.924 171.748 116.353 171.255V171.078C116.353 171.078 117.035 168.188 115.213 166.406C115.213 166.406 114.331 165.929 113.67 166.216C113.476 165.375 113.357 164.519 113.317 163.657C113.473 163.489 114.538 162.246 114.102 159.913C113.936 159.031 113.788 158.401 113.665 157.973C113.808 157.001 114.078 156.052 114.469 155.151C114.469 155.151 114.822 157.733 116.159 157.885C117.495 158.036 118.083 154.396 118.099 154.296C118.778 154.894 119.432 155.802 119.971 156.918C119.971 156.918 117.832 158.128 118.457 161.343C118.896 163.631 120.446 164.216 121.305 164.362Z" fill="#F0F0F4"/>
<path d="M116.497 165.093C117.053 165.048 117.417 163.958 117.31 162.661C117.204 161.363 116.668 160.347 116.112 160.393C115.557 160.438 115.193 161.527 115.299 162.825C115.406 164.123 115.942 165.138 116.497 165.093Z" fill="#636780"/>
<path opacity="0.2" d="M141.916 136.524L141.854 136.663C141.794 136.635 136.542 134.371 117.067 131.066C116.157 130.912 115.216 130.755 114.245 130.595C114.155 130.582 114.069 130.566 113.975 130.552C110.859 130.044 107.418 129.517 103.623 128.965L103.644 128.813C108.785 129.554 113.273 130.26 117.189 130.93C136.615 134.231 141.854 136.497 141.916 136.524Z" fill="black"/>
<path opacity="0.1" d="M43.1947 107.664C43.1947 107.664 44.9583 104.666 50.9934 104.4C50.9934 104.4 95.1012 98.6381 122.948 104.626C122.948 104.626 125.326 105.684 122.746 106.305C120.166 106.925 60.8678 109.072 43.1947 107.664Z" fill="black"/>
<path d="M43.1947 107.361C43.1947 107.361 44.9583 104.363 50.9934 104.095C50.9934 104.095 95.1012 98.3348 122.948 104.322C122.948 104.322 125.326 105.38 122.746 106.001C120.166 106.622 60.8678 108.768 43.1947 107.361Z" fill="white"/>
<path opacity="0.1" d="M39.0661 119.955C41.805 113.507 45.0923 110.458 46.1328 109.606C46.3374 109.439 46.5921 109.346 46.8559 109.341L61.2857 109.073C61.4808 109.069 61.6738 109.114 61.8472 109.203C62.0206 109.292 62.169 109.424 62.2787 109.585C62.2004 109.344 62.047 109.135 61.8409 108.989C61.6348 108.842 61.387 108.765 61.1341 108.77L46.7042 109.038C46.4402 109.042 46.1852 109.135 45.9812 109.303C44.9406 110.153 41.6533 113.202 38.9144 119.65C38.8135 119.885 38.7722 120.141 38.794 120.396C38.8159 120.65 38.9002 120.896 39.0396 121.11C38.8994 120.736 38.9089 120.322 39.0661 119.955Z" fill="black"/>
<path opacity="0.1" d="M65.0406 120.674L67.007 111.738C67.3597 110.121 68.6965 108.975 70.2379 108.961L88.8228 108.784C89.5312 108.779 90.2185 109.025 90.7628 109.479C90.4782 109.17 90.1325 108.923 89.7475 108.755C89.3625 108.586 88.9467 108.499 88.5265 108.5L69.9416 108.677C68.3985 108.692 67.0652 109.839 66.7107 111.456L64.7354 120.39C64.5696 121.111 64.6038 121.863 64.8345 122.566C65.0651 123.268 65.4834 123.894 66.044 124.376C65.5866 123.888 65.256 123.296 65.081 122.65C64.906 122.005 64.8922 121.326 65.0406 120.674Z" fill="black"/>
<path opacity="0.1" d="M105.224 124.438L98.646 110.802C98.5528 110.608 98.5098 110.395 98.5207 110.181C98.5317 109.966 98.5963 109.758 98.7087 109.575C98.8211 109.393 98.9776 109.241 99.1639 109.134C99.3501 109.028 99.5602 108.97 99.7747 108.966C104.785 108.874 117.954 108.498 124.74 107.008C124.314 106.675 124.068 106.49 124.068 106.49C117.367 108.033 103.905 108.417 98.8241 108.509C98.6096 108.513 98.3995 108.571 98.2133 108.678C98.027 108.784 97.8705 108.936 97.7581 109.119C97.6458 109.301 97.5811 109.51 97.5702 109.724C97.5592 109.938 97.6023 110.152 97.6954 110.345L104.275 123.976C104.544 124.533 104.92 125.032 105.382 125.444C105.844 125.855 106.382 126.172 106.967 126.374C106.215 125.907 105.61 125.235 105.224 124.438Z" fill="black"/>
<path d="M107.307 161.28H104.471V162.153H107.307V161.28Z" fill="#008FFF"/>
<path opacity="0.2" d="M107.307 161.28H104.471V162.153H107.307V161.28Z" fill="black"/>
<path d="M49.4201 152.64L45.9335 153.241C45.9549 153.362 45.9886 153.48 46.034 153.594C46.1028 153.77 49.9139 153.458 49.9139 153.458L49.5471 153.382L49.4201 152.64Z" fill="#008FFF"/>
<path opacity="0.2" d="M49.4201 152.64L45.9335 153.241C45.9549 153.362 45.9886 153.48 46.034 153.594C46.1028 153.77 49.9139 153.458 49.9139 153.458L49.5471 153.382L49.4201 152.64Z" fill="black"/>
<path opacity="0.1" d="M36.2654 161.188C33.1897 161.188 29.5302 157.038 29.5302 151.92C29.5302 148.412 30.1316 145.192 31.5002 143.515C29.7366 144.938 28.9641 148.527 28.9641 152.486C28.9641 157.601 32.6236 161.754 35.6993 161.754C36.7399 161.754 37.5952 161.285 38.276 160.467C37.7121 160.937 36.9998 161.193 36.2654 161.188Z" fill="black"/>
<path opacity="0.1" d="M117.915 173.59C115.16 173.59 111.884 168.607 111.884 162.461C111.884 158.248 112.413 154.382 113.647 152.368C112.06 154.077 111.377 158.387 111.377 163.142C111.377 169.288 114.654 174.27 117.409 174.27C118.34 174.27 119.107 173.706 119.716 172.725C119.204 173.283 118.605 173.59 117.915 173.59Z" fill="black"/>
<path opacity="0.1" d="M150.673 149.715C152.446 147.942 151.077 143.699 147.616 140.238C144.156 136.777 139.913 135.409 138.14 137.182C136.367 138.955 137.736 143.197 141.197 146.658C144.658 150.119 148.9 151.488 150.673 149.715Z" fill="black"/>
<path d="M150.825 149.564C152.598 147.791 151.229 143.548 147.768 140.087C144.307 136.626 140.065 135.258 138.292 137.031C136.519 138.804 137.888 143.046 141.348 146.507C144.809 149.968 149.052 151.337 150.825 149.564Z" fill="#DCE0ED"/>
<path opacity="0.1" d="M150.311 148.483C151.61 147.183 150.283 143.749 147.346 140.812C144.41 137.876 140.975 136.548 139.676 137.848C138.376 139.148 139.703 142.582 142.64 145.519C145.577 148.455 149.011 149.783 150.311 148.483Z" fill="black"/>
<path d="M150.311 148.33C151.611 147.03 150.283 143.596 147.347 140.659C144.41 137.722 140.976 136.395 139.676 137.695C138.376 138.995 139.704 142.429 142.64 145.366C145.577 148.302 149.011 149.629 150.311 148.33Z" fill="#F0F0F4"/>
<path d="M197.618 172.498C197.618 172.498 190.161 172.048 191.04 177.274C191.04 177.274 190.863 178.196 191.703 178.616C191.703 178.616 191.715 178.23 192.468 178.36C192.735 178.405 193.007 178.418 193.278 178.399C193.643 178.374 193.991 178.231 194.267 177.99C194.267 177.99 196.364 177.124 197.179 173.699C197.179 173.699 197.782 172.951 197.757 172.759L196.5 173.288C196.5 173.288 196.93 174.196 196.591 174.951C196.591 174.951 196.551 173.322 196.309 173.364C196.26 173.364 195.655 173.678 195.655 173.678C195.655 173.678 196.396 175.265 195.831 176.408C195.831 176.408 196.043 174.468 195.419 173.792L194.537 174.309C194.537 174.309 195.401 175.942 194.815 177.276C194.815 177.276 194.965 175.232 194.35 174.434L193.547 175.06C193.547 175.06 194.36 176.671 193.865 177.776C193.865 177.776 193.8 175.397 193.373 175.217C193.373 175.217 192.667 175.836 192.565 176.09C192.565 176.09 193.121 177.258 192.775 177.875C192.775 177.875 192.563 176.288 192.39 176.288C192.39 176.288 191.685 177.346 191.618 178.052C191.618 178.052 191.648 176.981 192.221 176.18C191.818 176.257 191.446 176.45 191.151 176.736C191.151 176.736 191.258 175.993 192.385 175.928C192.385 175.928 192.964 175.131 193.117 175.083C193.117 175.083 191.988 174.988 191.304 175.292C191.304 175.292 191.907 174.586 193.325 174.909L194.117 174.263C194.117 174.263 192.63 174.059 192.001 174.284C192.001 174.284 192.726 173.664 194.33 174.108L195.193 173.593C195.193 173.593 193.927 173.32 193.172 173.417C193.172 173.417 193.967 172.986 195.447 173.452L196.062 173.175C196.062 173.175 195.135 172.999 194.863 172.965C194.591 172.932 194.576 172.861 194.576 172.861C195.164 172.763 195.768 172.83 196.32 173.055C196.32 173.055 197.639 172.581 197.618 172.498Z" fill="#008FFF"/>
<path opacity="0.1" d="M192.482 179.963C195.396 179.963 197.759 179.564 197.759 179.071C197.759 178.578 195.396 178.179 192.482 178.179C189.568 178.179 187.205 178.578 187.205 179.071C187.205 179.564 189.568 179.963 192.482 179.963Z" fill="#008FFF"/>
<path opacity="0.1" d="M209.025 162.939C210.668 162.939 212 162.714 212 162.437C212 162.159 210.668 161.934 209.025 161.934C207.382 161.934 206.05 162.159 206.05 162.437C206.05 162.714 207.382 162.939 209.025 162.939Z" fill="#008FFF"/>
<path d="M187.109 161.287C187.109 161.287 182.033 160.982 182.631 164.537C182.6 164.718 182.627 164.904 182.708 165.068C182.789 165.232 182.92 165.367 183.082 165.452C183.082 165.452 183.091 165.188 183.611 165.276C183.794 165.307 183.979 165.316 184.163 165.302C184.412 165.285 184.649 165.187 184.837 165.024C184.837 165.024 186.264 164.435 186.819 162.103C186.819 162.103 187.228 161.594 187.213 161.463L186.357 161.828C186.357 161.828 186.648 162.447 186.419 162.96C186.419 162.96 186.391 161.851 186.227 161.878C186.193 161.878 185.782 162.091 185.782 162.091C185.782 162.091 186.285 163.168 185.906 163.95C185.906 163.95 186.049 162.624 185.624 162.17L185.022 162.523C185.022 162.523 185.609 163.636 185.211 164.542C185.211 164.542 185.313 163.151 184.895 162.602L184.348 163.027C184.348 163.027 184.9 164.124 184.564 164.876C184.564 164.876 184.52 163.257 184.23 163.133C184.23 163.133 183.752 163.555 183.678 163.729C183.678 163.729 184.057 164.525 183.823 164.944C183.823 164.944 183.678 163.865 183.56 163.86C183.56 163.86 183.084 164.565 183.031 165.064C183.055 164.611 183.196 164.172 183.442 163.791C183.167 163.843 182.914 163.975 182.712 164.168C182.712 164.168 182.786 163.664 183.558 163.62C183.558 163.62 183.953 163.077 184.057 163.043C184.057 163.043 183.29 162.98 182.823 163.186C182.823 163.186 183.234 162.71 184.199 162.927L184.738 162.486C184.738 162.486 183.726 162.347 183.297 162.5C183.297 162.5 183.791 162.079 184.885 162.385L185.472 162.033C185.472 162.033 184.609 161.848 184.096 161.915C184.096 161.915 184.638 161.622 185.645 161.939L186.064 161.751C186.064 161.751 185.433 161.625 185.248 161.606C185.063 161.587 185.052 161.535 185.052 161.535C185.452 161.469 185.863 161.515 186.239 161.668C186.239 161.668 187.13 161.343 187.109 161.287Z" fill="#008FFF"/>
<path opacity="0.1" d="M183.613 166.368C185.597 166.368 187.205 166.096 187.205 165.761C187.205 165.426 185.597 165.154 183.613 165.154C181.629 165.154 180.021 165.426 180.021 165.761C180.021 166.096 181.629 166.368 183.613 166.368Z" fill="#008FFF"/>
<path opacity="0.1" d="M17.2767 172.165C20.191 172.165 22.5534 171.765 22.5534 171.272C22.5534 170.779 20.191 170.38 17.2767 170.38C14.3625 170.38 12 170.779 12 171.272C12 171.765 14.3625 172.165 17.2767 172.165Z" fill="#008FFF"/>
<path d="M13.7336 167.126C13.7336 167.126 16.7424 167.034 17.6506 166.387C18.5589 165.74 22.2801 164.976 22.5058 166.006C22.7316 167.036 27.0295 171.159 23.631 171.186C20.2325 171.212 15.7353 170.657 14.8288 170.105C13.9223 169.553 13.7336 167.126 13.7336 167.126Z" fill="#A8A8A8"/>
<path opacity="0.2" d="M23.691 170.826C20.2925 170.853 15.7954 170.297 14.8906 169.745C14.2011 169.325 13.9259 167.817 13.8325 167.122H13.7319C13.7319 167.122 13.9224 169.551 14.8271 170.101C15.7319 170.651 20.2308 171.211 23.6293 171.182C24.6099 171.182 24.9485 170.83 24.9308 170.301C24.795 170.625 24.4212 170.819 23.691 170.826Z" fill="black"/>
<g opacity="0.1">
<path opacity="0.1" d="M119.737 129.713C119.665 129.845 119.146 130.156 118.515 130.498C118.457 130.037 118.414 129.69 118.405 129.582C118.368 129.189 119.208 127.427 119.208 127.427C119.208 127.427 120.814 125.272 120.777 124.948C120.74 124.623 121.398 123.692 121.398 123.692L122.855 121.33C122.774 121.51 122.746 121.709 122.772 121.905C122.799 122.1 122.879 122.284 123.005 122.436C123.444 123.011 123.077 124.161 123.077 124.161L123.167 125.611V125.755C123.116 125.807 122.881 126.03 122.363 126.498C121.885 126.928 121.97 127.06 122.024 127.096C121.915 127.29 122.049 127.323 122.049 127.323C122.091 127.323 122.134 127.32 122.176 127.313L122.06 127.42C121.171 128.253 119.867 129.478 119.737 129.713Z" fill="url(#paint0_linear)"/>
</g>
</g>
<defs>
<linearGradient id="paint0_linear" x1="3183.22" y1="4988.96" x2="3314.76" y2="4988.96" gradientUnits="userSpaceOnUse">
<stop stop-color="#808080" stop-opacity="0.25"/>
<stop offset="0.54" stop-color="#808080" stop-opacity="0.12"/>
<stop offset="1" stop-color="#808080" stop-opacity="0.1"/>
</linearGradient>
<clipPath id="clip0">
<rect width="200" height="143.261" fill="white" transform="translate(12 40)"/>
</clipPath>
</defs>
</svg>
