<svg width="240" height="240" viewBox="0 0 240 240" fill="none" xmlns="http://www.w3.org/2000/svg">
<rect width="240" height="240" rx="2" fill="#96C9FF"/>
<mask id="mask0" mask-type="alpha" maskUnits="userSpaceOnUse" x="0" y="0" width="240" height="240">
<rect width="240" height="240" rx="2" fill="white"/>
</mask>
<g mask="url(#mask0)">
<path fill-rule="evenodd" clip-rule="evenodd" d="M131.965 120.561C124.975 124.76 114.888 126.782 111.925 127.629C106.904 129.066 102.814 133.452 97.6171 135.322C95.5892 136.053 93.1177 135.494 90.4902 135.973C86.5462 136.704 82.6467 138.302 80.3117 139.643C77.5624 141.221 69.3483 146.797 64.0446 154.727C63.5522 155.459 61.329 157.243 60.5295 157.263C59.3987 157.288 58.8039 155.907 58.5945 154.763C58.1262 152.166 58.1456 149.565 58.5945 147.059C58.8186 145.793 59.1599 144.549 59.5987 143.349C60.793 140.102 62.738 137.137 65.3019 134.712C68.7536 131.451 72.7118 129.227 75.4857 125.804C76.4264 124.649 77.1184 119.734 77.0307 115.428C76.953 112 76.3824 108.96 75.0421 108.501C73.8184 108.083 66.3797 110.115 66.0526 110.856C63.9906 115.499 61.0124 121.055 59.511 124.07C58.5556 126.001 58.2532 128.804 58.0092 131.828C57.8438 133.835 58.5163 149.857 56.9319 152.06C56.7078 152.373 56.4689 152.63 56.2153 152.837C55.294 153.578 54.2021 153.588 53.0566 152.796C50.4533 151.067 49.2396 139.497 49.0107 135C48.7913 130.77 48.3718 123.525 48.9278 121.68C49.6297 119.356 51.7159 109.051 51.5453 108.829C50.3562 107.599 42.9757 114.269 39.6606 118.499C38.6663 119.769 36.9696 120.687 35.9166 121.937C33.4161 124.901 31.9683 128.456 28.6536 130.725C27.5859 131.46 25.8745 133.598 22.6182 132.055C21.9845 131.753 21.4291 131.325 21.122 130.805C21.0343 130.664 20.9708 130.518 20.922 130.366C20.4542 128.784 21.3997 127.79 22.3599 126.464C23.5153 124.871 25.0949 122.729 26.6158 120.621C29.3067 116.906 31.8318 113.296 31.5977 112.989L31.5882 112.983C30.7204 112.943 28.3901 115.746 26.3134 115.993C24.7537 116.174 23.0964 115.539 22.3504 114.279C22.2575 114.123 22.1746 113.951 22.1163 113.775C22.0139 113.492 21.9556 113.195 21.9457 112.872C21.8969 111.239 23.1305 109.903 24.266 108.774C25.7627 107.297 27.2641 105.865 28.7655 104.433C31.1446 102.18 33.5379 99.946 35.8971 97.6065C35.3028 97.2031 32.9725 96.4723 32.5289 95.7763L32.5242 95.7616C32.4801 95.6656 32.456 95.5646 32.4754 95.469V95.4641C32.5095 95.3583 32.5484 95.2622 32.6067 95.1715L32.6214 95.1514C33.3867 93.8761 36.2583 93.5737 38.5834 93.3261C40.0312 93.1649 41.2696 93.034 41.6497 92.6963C43.7553 90.871 45.8567 89.3585 50.7315 88.7487C52.7249 88.5017 61.6072 88.2194 63.0351 87.7758C64.2053 87.4077 68.9972 82.25 71.4298 82.25C77.1819 82.25 82.315 87.6949 101.019 93.4624C108.902 95.9028 116.56 95.6406 124.638 94.5971L131.965 120.561Z" fill="#F4C9A7"/>
<path fill-rule="evenodd" clip-rule="evenodd" d="M32.4711 95.4633V95.4682C32.4559 95.5677 32.4758 95.6667 32.5213 95.7603L32.5265 95.776C32.9701 96.4749 35.2999 97.2052 35.8952 97.6067C38.6738 95.3957 40.4307 94.1017 41.4729 92.8107C40.8274 93.4831 37.8672 95.3535 37.1762 95.9902C36.7374 96.397 35.9303 96.7043 35.3402 96.7151C34.2914 96.7357 34.0597 95.4006 33.1516 95.1344C32.9199 95.0668 32.7483 95.0771 32.617 95.1501C32.5516 95.2496 32.5061 95.3486 32.4711 95.4633Z" fill="#E5B698"/>
<path fill-rule="evenodd" clip-rule="evenodd" d="M32.6071 95.1717L37.2212 94.4987C37.8772 94.3997 38.3914 93.9301 38.5833 93.3253C36.2582 93.5758 33.3839 93.8782 32.617 95.1506L32.6071 95.1717Z" fill="#F6D8C0"/>
<path fill-rule="evenodd" clip-rule="evenodd" d="M22.349 114.282C23.0954 115.539 24.7499 116.175 26.3129 115.992C28.3859 115.747 30.7157 112.946 31.5882 112.983L31.5934 112.988C32.7635 111.741 33.8024 110.323 34.8412 108.977C39.118 103.428 44.1961 98.546 49.8548 94.5352C45.5582 96.6839 41.0848 98.9738 38.2455 102.942C37.5241 103.949 36.7474 105.159 35.5422 105.274C35.0578 106.301 34.2512 107.12 33.4545 107.913C32.1631 109.202 30.8674 110.49 29.5759 111.778C28.6683 112.685 27.7352 113.603 26.5807 114.13C25.8945 114.438 25.1129 114.59 24.3665 114.48C23.948 114.417 23.0504 113.786 22.677 113.88C22.4248 113.948 22.3338 114.094 22.349 114.282Z" fill="#E5B698"/>
<path fill-rule="evenodd" clip-rule="evenodd" d="M20.9218 130.367C20.9673 130.518 21.0327 130.664 21.1185 130.805C21.2042 130.816 21.29 130.821 21.3758 130.821C22.2431 130.821 23.0952 130.414 23.6502 129.642L27.1956 124.729C28.1283 123.43 27.8715 121.589 26.6155 120.624C25.0923 122.731 23.5142 124.875 22.3592 126.466C21.3957 127.79 20.4526 128.786 20.9218 130.367Z" fill="#F6D8C0"/>
<path fill-rule="evenodd" clip-rule="evenodd" d="M60.2308 156.27L60.6142 156.562C60.836 156.734 61.0682 156.869 61.3151 156.979C62.3137 156.442 63.6857 155.263 64.0435 154.731C65.5113 152.535 67.4174 150.282 69.4752 148.133C69.3037 147.335 68.8648 146.594 68.179 146.068L67.7956 145.77C66.2828 144.602 64.1345 144.925 63.0047 146.495L59.5299 151.315C58.4005 152.879 58.7128 155.101 60.2308 156.27Z" fill="#F6D8C0"/>
<path fill-rule="evenodd" clip-rule="evenodd" d="M49.9063 143.454C50.4328 147.634 51.5883 151.662 52.6409 152.484C52.7826 152.6 52.9191 152.706 53.0556 152.796C53.5821 152.126 53.8356 151.304 53.6698 150.518L52.5243 145.229C52.2755 144.065 51.1788 143.359 49.9063 143.454Z" fill="#F6D8C0"/>
<path fill-rule="evenodd" clip-rule="evenodd" d="M21.9456 112.873C21.9555 113.196 22.011 113.494 22.1119 113.775C22.2887 113.812 22.4702 113.828 22.6465 113.828C23.4233 113.828 24.2048 113.494 24.765 112.842L28.7085 108.268C29.6568 107.173 29.6568 105.535 28.764 104.434C27.2611 105.863 25.7583 107.298 24.2655 108.773C23.1257 109.906 21.8953 111.241 21.9456 112.873Z" fill="#F6D8C0"/>
<path fill-rule="evenodd" clip-rule="evenodd" d="M22.6162 132.056C23.529 132.489 24.6133 132.677 25.4304 132.552C26.9687 132.312 27.3521 131.618 28.6531 130.727C31.9663 128.458 33.4137 124.9 35.915 121.938C36.9691 120.686 38.6638 119.768 39.6572 118.501C42.9908 114.245 50.3338 107.631 51.5338 108.82C51.6452 108.737 51.7508 108.654 51.8518 108.56C52.4722 107.996 57.5181 102.3 58.5536 100.589L52.6788 106.27C50.702 107.845 48.1552 108.643 45.6637 108.461L45.6234 108.502L45.5879 110.62L45.5779 110.651L38.6586 117.906C37.9529 118.647 37.2212 119.408 36.2985 119.825C35.4463 120.212 34.3824 120.243 33.6359 119.7L33.5753 119.758C33.9132 120.399 33.8677 121.234 33.5904 121.922C33.2829 122.689 32.7331 123.315 32.1933 123.93C30.7109 125.625 29.1976 127.341 27.4175 128.708C26.3484 129.537 23.5394 130.267 22.8432 131.378C22.6768 131.639 22.6114 131.863 22.6162 132.056Z" fill="#E5B698"/>
<path fill-rule="evenodd" clip-rule="evenodd" d="M69.4196 148.191L69.4751 148.133C74.9821 142.37 78.4494 140.715 80.3105 139.645C82.6455 138.305 86.5436 136.704 90.4876 135.974C93.115 135.494 95.5861 136.052 97.6136 135.322C102.813 133.455 106.903 129.068 111.921 127.629C114.886 126.784 124.973 124.76 131.963 120.561L130.208 114.339C123.541 116.117 116.879 117.927 110.353 120.212C103.701 122.543 97.205 125.365 90.9416 128.651C78.0309 135.42 71.0405 142.21 69.4196 148.191Z" fill="#E5B698"/>
<path fill-rule="evenodd" clip-rule="evenodd" d="M83.1874 110.125C82.4058 112.999 79.2334 114.36 77.0306 115.428C76.9528 112 76.3822 108.96 75.042 108.501C73.8183 108.083 66.3795 110.115 66.0525 110.856C59.5228 125.559 58.773 122.351 58.009 131.828C57.8436 133.835 58.5161 149.857 56.9318 152.06C56.7076 152.373 56.4688 152.63 56.2152 152.837C55.5621 148.968 55.9697 142.173 55.874 139.998C55.7228 136.686 55.173 132.218 55.9157 127.268C57.0555 119.664 60.4251 110.905 64.608 108.488C69.433 105.699 74.487 101.825 77.6609 102.438C81.3362 103.148 83.8338 107.758 83.1874 110.125Z" fill="#E5B698"/>
<path fill-rule="evenodd" clip-rule="evenodd" d="M77.6609 120.386C77.5879 120.523 77.5159 120.662 77.4429 120.799C77.1799 121.298 76.9069 121.797 76.5752 122.236C76.6586 121.72 76.7316 121.169 76.7941 120.597C77.0827 120.524 77.3718 120.454 77.6609 120.386Z" fill="#E5B698"/>
<path fill-rule="evenodd" clip-rule="evenodd" d="M52.8797 180.168C52.7053 180.671 52.4888 181.283 52.3579 181.657C52.2859 181.866 52.2376 182.001 52.2376 182.001L51.3826 181.456L50.2708 180.99L49.0305 180.472C49.0305 180.472 49.0447 180.428 49.0708 180.351C49.1651 180.069 49.4059 179.351 49.5926 178.822C49.8172 178.18 49.3134 177.383 48.6736 176.684C48.294 176.271 46.2514 175.337 45.6031 175.092C44.9528 174.849 42.8055 174.212 42.2595 174.278C41.3344 174.388 40.4553 174.667 40.2306 175.31C40.0439 175.839 39.7851 176.551 39.6828 176.829C39.6548 176.904 39.6387 176.947 39.6387 176.947L37.2221 176.144L36.2288 175.997C36.2288 175.997 36.2771 175.862 36.3492 175.65C36.48 175.276 36.6947 174.664 36.871 174.162C37.1221 173.446 38.5828 172.286 40.0401 172.014C41.4951 171.742 44.4571 172.813 46.1751 173.458C47.895 174.104 50.831 175.244 51.7821 176.418C52.0129 176.705 52.2115 177.031 52.3741 177.371C52.8859 178.429 53.0703 179.625 52.8797 180.168Z" fill="#0F0F0F"/>
<path fill-rule="evenodd" clip-rule="evenodd" d="M54.5835 187.177C53.7446 190.342 52.5248 194.821 51.2162 199.167C50.63 201.114 50.0281 203.032 49.4362 204.794C49.3921 204.929 49.3457 205.061 49.2997 205.194C49.1912 205.52 49.0807 205.84 48.9703 206.153C46.9196 211.998 43.5799 219.767 41.515 224.439C41.4808 224.513 41.4467 224.588 41.4107 224.661L41.3605 224.756C41.3301 224.816 41.296 224.874 41.2643 224.931L41.2079 225.026C41.1638 225.099 41.1178 225.169 41.0695 225.237C41.0154 225.316 40.959 225.393 40.9007 225.468L40.8771 225.499C40.8207 225.57 40.7643 225.638 40.7041 225.705C40.6401 225.777 40.5737 225.848 40.5036 225.916C40.4354 225.985 40.3652 226.051 40.2927 226.115L40.2889 226.12C40.2036 226.194 40.1164 226.265 40.0268 226.332C39.9453 226.395 39.861 226.453 39.7756 226.509L39.7576 226.522C39.161 226.914 38.4837 227.164 37.7776 227.248C37.6795 227.26 37.5809 227.27 37.4814 227.275C37.1984 227.292 36.9112 227.282 36.6264 227.243C36.5382 227.23 36.4496 227.216 36.3615 227.199C36.1165 227.151 35.8719 227.083 35.6288 226.991L28.3578 224.264L24.3124 222.747L24.3062 222.743L21.0892 221.537C18.7812 220.671 17.5049 218.121 18.1551 215.674C19.4797 210.676 21.7593 202.409 23.8067 196.579C23.9029 196.305 24.001 196.027 24.1034 195.744C24.1498 195.612 24.1977 195.479 24.246 195.346C26.2972 189.72 29.3052 182.74 31.2179 178.412C31.2421 178.356 31.2682 178.302 31.2942 178.248C31.3203 178.194 31.3483 178.14 31.3762 178.088C31.4047 178.034 31.4326 177.982 31.4625 177.931C31.5146 177.841 31.5691 177.752 31.6293 177.665C31.6611 177.617 31.6914 177.572 31.7255 177.526L31.8137 177.407C31.8881 177.312 31.9644 177.219 32.0445 177.129L32.1468 177.019L32.2615 176.903L32.38 176.791L32.5004 176.685L32.6246 176.581C32.7089 176.515 32.7952 176.451 32.8833 176.39C32.9279 176.359 32.9719 176.33 33.0179 176.301C33.1525 176.214 33.2909 176.135 33.4336 176.065C33.9895 175.782 34.5975 175.614 35.2236 175.579L35.2658 175.577C35.5444 175.56 35.8255 175.571 36.1065 175.61C36.1747 175.62 36.2411 175.631 36.307 175.641L36.3492 175.65C36.4018 175.66 36.4558 175.67 36.5079 175.683C36.7084 175.729 36.9074 175.786 37.1041 175.861L39.6828 176.828L49.0708 180.351L50.3352 180.826L51.6475 181.318C51.8963 181.411 52.1333 181.523 52.3579 181.656C54.2063 182.731 55.1598 184.996 54.5835 187.177Z" fill="#252525"/>
<path fill-rule="evenodd" clip-rule="evenodd" d="M39.732 226.539C39.7405 226.533 39.7491 226.527 39.7576 226.522L39.7756 226.51C39.8609 226.453 39.9453 226.395 40.0268 226.333C40.1164 226.265 40.2036 226.195 40.2889 226.12L40.2927 226.116C40.3652 226.052 40.4353 225.985 40.5036 225.917C40.5737 225.848 40.6401 225.778 40.704 225.705C40.7642 225.638 40.8206 225.57 40.877 225.5L40.9007 225.468C40.959 225.394 41.0154 225.317 41.0694 225.238C41.1178 225.169 41.1637 225.099 41.2078 225.026L41.2642 224.931C41.296 224.875 41.3301 224.817 41.3604 224.757L41.4107 224.661C41.4467 224.588 41.4808 224.514 41.5149 224.439C43.5798 219.767 46.9196 211.998 48.9703 206.154C49.0807 205.84 49.1911 205.521 49.2996 205.195C49.3456 205.062 49.3921 204.929 49.4361 204.794C50.0281 203.032 50.63 201.114 51.2162 199.167C50.63 201.114 50.0281 203.032 49.4361 204.794C49.3921 204.929 49.3456 205.062 49.2996 205.195C49.1911 205.521 49.0807 205.84 48.9703 206.154C46.9196 211.998 43.5798 219.767 41.5149 224.439C41.4808 224.514 41.4467 224.588 41.4107 224.661L41.3604 224.757C41.3301 224.817 41.296 224.875 41.2642 224.931L41.2078 225.026C41.1637 225.099 41.1178 225.169 41.0694 225.238C41.0154 225.317 40.959 225.394 40.9007 225.468L40.877 225.5C40.8206 225.57 40.7642 225.638 40.704 225.705C40.6401 225.778 40.5737 225.848 40.5036 225.917C40.4353 225.985 40.3652 226.052 40.2927 226.116L40.2889 226.12C40.1121 226.274 39.9263 226.414 39.732 226.539Z" fill="#34768E"/>
<path fill-rule="evenodd" clip-rule="evenodd" d="M38.0053 227.214C38.2342 227.106 38.4546 226.981 38.6636 226.834C39.3721 226.351 39.9621 225.663 40.3394 224.811C42.4043 220.137 45.7436 212.37 47.7928 206.525C47.9833 205.983 48.1739 205.423 48.3686 204.846C48.4108 204.713 48.4549 204.579 48.5009 204.443C49.1653 202.43 49.8378 200.243 50.48 198.063C50.7146 198.433 50.9596 198.802 51.2165 199.168C50.6302 201.114 50.0283 203.032 49.4364 204.794C49.3923 204.929 49.3459 205.062 49.2999 205.195C49.1914 205.521 49.081 205.84 48.9705 206.154C46.9199 211.998 43.5801 219.767 41.5152 224.439C41.4811 224.514 41.4469 224.589 41.4109 224.661L41.3607 224.757C41.3304 224.817 41.2962 224.875 41.2645 224.931L41.2081 225.026C41.164 225.099 41.118 225.169 41.0697 225.238C41.0157 225.317 40.9593 225.394 40.901 225.468L40.8773 225.5C40.8209 225.57 40.7645 225.638 40.7043 225.705C40.6403 225.778 40.574 225.848 40.5038 225.917C40.4356 225.985 40.3654 226.052 40.2929 226.116L40.2891 226.12C40.2038 226.195 40.1166 226.265 40.0271 226.333C39.9455 226.395 39.8612 226.453 39.7759 226.51L39.7579 226.522C39.7493 226.528 39.7408 226.533 39.7323 226.539C39.5574 226.651 39.3764 226.751 39.1892 226.838C39.1129 226.874 39.0365 226.907 38.9607 226.94H38.9584C38.8802 226.971 38.8001 227.002 38.7219 227.029C38.6512 227.054 38.583 227.075 38.5129 227.096L38.4228 227.121C38.2844 227.16 38.1456 227.191 38.0053 227.214ZM50.0423 181.526L35.9278 176.231C35.4947 176.069 35.0549 175.978 34.6174 175.951C34.5269 175.946 34.4369 175.943 34.3468 175.943C34.0791 175.943 33.8132 175.966 33.5516 176.011C33.7805 175.903 34.0155 175.814 34.2582 175.746C34.3302 175.725 34.4027 175.706 34.4772 175.69L34.5392 175.677C34.6094 175.661 34.6795 175.646 34.7501 175.636C34.834 175.621 34.9165 175.609 35.0008 175.6C35.0753 175.592 35.1492 175.586 35.2236 175.58L35.2658 175.578C35.3459 175.573 35.4264 175.571 35.507 175.571C35.706 175.571 35.9065 175.584 36.1065 175.611C36.1748 175.621 36.2411 175.632 36.307 175.642L36.3492 175.65C36.4018 175.661 36.4558 175.671 36.5079 175.684C36.7084 175.729 36.9075 175.787 37.1041 175.862L39.6828 176.829L49.0708 180.351L50.3352 180.827C50.313 180.883 50.2912 180.936 50.2708 180.99C50.1907 181.196 50.1163 181.379 50.0423 181.526Z" fill="#1B1C1C"/>
<path fill-rule="evenodd" clip-rule="evenodd" d="M37.352 226.556L22.8119 221.101C20.5053 220.236 19.2281 217.685 19.8774 215.237C21.2034 210.24 23.4825 201.974 25.529 196.144C27.5668 190.339 30.8853 182.627 32.9412 177.977C33.4288 176.874 34.2705 176.049 35.2658 175.578C33.5592 175.666 31.9701 176.713 31.2184 178.412C29.1625 183.063 25.8441 190.775 23.8062 196.58C21.7598 202.41 19.4807 210.677 18.1546 215.674C17.5054 218.121 18.7821 220.673 21.0892 221.538L35.6293 226.992C36.8321 227.443 38.1027 227.353 39.1894 226.839C38.5809 226.87 37.9582 226.783 37.352 226.556Z" fill="#333333"/>
<path fill-rule="evenodd" clip-rule="evenodd" d="M40.481 209.27C40.154 207.106 37.3853 205.732 35.1512 204.894C32.9171 204.056 29.9404 203.274 28.3484 204.719C24.831 207.909 21.7883 215.396 22.167 219.912C22.2841 221.313 24.3125 222.746 24.3125 222.746L32.4034 225.781C32.4034 225.781 34.8488 226.026 35.8066 225.028C38.8966 221.813 41.2028 214.05 40.481 209.27Z" fill="#1A1A1A"/>
<path fill-rule="evenodd" clip-rule="evenodd" d="M49.305 205.197L24.0997 195.742L24.2395 195.344L49.4448 204.799L49.305 205.197Z" fill="black"/>
<path fill-rule="evenodd" clip-rule="evenodd" d="M38.525 213.446L27.2603 209.22C26.302 208.861 25.7958 207.777 26.12 206.777L34.4791 180.985C34.8147 179.95 35.908 179.404 36.9004 179.776L49.378 184.457C50.3699 184.829 50.8708 185.973 50.487 186.99L40.9146 212.327C40.5435 213.309 39.4833 213.805 38.525 213.446Z" fill="black"/>
<path fill-rule="evenodd" clip-rule="evenodd" d="M27.3441 208.982C26.5043 208.667 26.0692 207.734 26.3531 206.859L34.7122 181.066C34.8534 180.631 35.1511 180.282 35.5501 180.082C35.9496 179.883 36.3994 179.859 36.8164 180.016L49.294 184.696C49.711 184.853 50.0414 185.169 50.2243 185.587C50.4072 186.005 50.4191 186.47 50.258 186.897L40.6856 212.235C40.3605 213.095 39.4482 213.522 38.6088 213.208L27.3441 208.982Z" fill="#2E2E2E"/>
<path fill-rule="evenodd" clip-rule="evenodd" d="M43.4599 204.9L28.7649 199.387L28.8488 199.148L43.5438 204.66L43.4599 204.9Z" fill="black"/>
<path fill-rule="evenodd" clip-rule="evenodd" d="M30.3916 200.809L30.9788 199.135L41.9231 203.24L41.336 204.914L30.3916 200.809Z" fill="black"/>
<path fill-rule="evenodd" clip-rule="evenodd" d="M41.1885 204.589L30.7067 200.657L31.1261 199.461L41.608 203.393L41.1885 204.589Z" fill="#252525"/>
<path fill-rule="evenodd" clip-rule="evenodd" d="M31.1986 199.584L41.4757 203.439L41.5051 203.354L31.1261 199.461L30.7067 200.657L30.809 200.695L31.1986 199.584Z" fill="#5E5E5E"/>
<path fill-rule="evenodd" clip-rule="evenodd" d="M41.1885 204.588L30.7067 200.657L30.809 200.695L30.8384 200.61L41.116 204.465L41.5056 203.354L41.608 203.393L41.1885 204.588Z" fill="#0E0E0E"/>
<path fill-rule="evenodd" clip-rule="evenodd" d="M30.8089 200.695L30.7065 200.656L30.7364 200.572L30.8383 200.61L30.8089 200.695Z" fill="#232323"/>
<path fill-rule="evenodd" clip-rule="evenodd" d="M47.2131 195.122L31.9427 189.394L32.027 189.155L47.2974 194.883L47.2131 195.122Z" fill="black"/>
<path fill-rule="evenodd" clip-rule="evenodd" d="M33.8576 190.924L34.4448 189.251L45.3892 193.356L44.8025 195.03L33.8576 190.924Z" fill="black"/>
<path fill-rule="evenodd" clip-rule="evenodd" d="M44.6553 194.704L34.173 190.772L34.5924 189.577L45.0747 193.509L44.6553 194.704Z" fill="#252525"/>
<path fill-rule="evenodd" clip-rule="evenodd" d="M34.6649 189.7L44.942 193.555L44.9719 193.47L34.5924 189.577L34.173 190.772L34.2753 190.811L34.6649 189.7Z" fill="#5E5E5E"/>
<path fill-rule="evenodd" clip-rule="evenodd" d="M44.6553 194.704L34.2754 190.81L34.3052 190.726L44.5828 194.581L44.9724 193.47L45.0748 193.509L44.6553 194.704Z" fill="#0E0E0E"/>
<path fill-rule="evenodd" clip-rule="evenodd" d="M34.2753 190.81L34.1729 190.772L34.2028 190.687L34.3051 190.726L34.2753 190.81Z" fill="#232323"/>
<path fill-rule="evenodd" clip-rule="evenodd" d="M46.1462 191.633L34.9322 187.427C34.3895 187.223 34.109 186.603 34.3057 186.042L35.6478 182.216C35.8445 181.654 36.444 181.364 36.9871 181.568L48.2012 185.775C48.7438 185.978 49.0244 186.598 48.8273 187.16L47.4856 190.986C47.2889 191.547 46.6894 191.837 46.1462 191.633Z" fill="#252525"/>
<path fill-rule="evenodd" clip-rule="evenodd" d="M34.6842 186.454L36.0264 182.628C36.223 182.067 36.8225 181.777 37.3652 181.981L48.5797 186.187C48.6437 186.211 48.703 186.242 48.7594 186.277C48.6418 186.052 48.4508 185.869 48.2011 185.775L36.987 181.568C36.4439 181.364 35.8444 181.654 35.6477 182.216L34.3055 186.042C34.1321 186.537 34.3306 187.077 34.7524 187.338C34.6145 187.075 34.578 186.757 34.6842 186.454Z" fill="#828282"/>
<path fill-rule="evenodd" clip-rule="evenodd" d="M46.5027 191.699C46.4847 191.699 46.4663 191.699 46.4478 191.698C46.4663 191.699 46.4847 191.699 46.5027 191.699ZM46.7789 191.661C46.9718 191.606 47.1477 191.495 47.2827 191.338C47.1477 191.495 46.9718 191.606 46.7789 191.661ZM46.2046 191.654C46.1852 191.648 46.1657 191.641 46.1463 191.633L34.9322 187.427C34.9304 187.426 34.9285 187.426 34.9261 187.425C34.9285 187.426 34.9304 187.426 34.9322 187.427L46.1463 191.633C46.1657 191.641 46.1852 191.648 46.2046 191.654Z" fill="#1F1F1F"/>
<path fill-rule="evenodd" clip-rule="evenodd" d="M46.5025 191.699C46.4845 191.699 46.466 191.698 46.4475 191.697C46.447 191.697 46.447 191.697 46.447 191.697C46.4447 191.697 46.4418 191.697 46.4395 191.697C46.3655 191.692 46.2916 191.679 46.2181 191.658C46.2172 191.657 46.2158 191.657 46.2148 191.657C46.2143 191.657 46.2134 191.657 46.2129 191.656C46.2125 191.656 46.212 191.656 46.212 191.656C46.2091 191.655 46.2068 191.654 46.2044 191.654C46.185 191.648 46.1655 191.641 46.1461 191.633L34.932 187.427C34.9301 187.426 34.9282 187.426 34.9259 187.425C34.8643 187.401 34.806 187.372 34.7515 187.338C35.8041 187.602 35.7951 187.48 45.7679 191.221C45.8854 191.265 46.0058 191.286 46.1243 191.286C46.529 191.286 46.9105 191.041 47.0807 190.641C47.1409 190.868 47.2086 191.102 47.2826 191.337C47.2826 191.337 47.2826 191.337 47.2826 191.337C47.1475 191.494 46.9717 191.606 46.7788 191.66C46.6897 191.685 46.5968 191.699 46.5025 191.699Z" fill="#191919"/>
<path fill-rule="evenodd" clip-rule="evenodd" d="M36.8355 224.061C36.3588 225.42 34.9066 226.123 33.5924 225.63C32.2782 225.137 31.5991 223.635 32.0759 222.276C32.5526 220.917 34.0043 220.215 35.319 220.708C36.6332 221.2 37.3118 222.702 36.8355 224.061Z" fill="black"/>
<path fill-rule="evenodd" clip-rule="evenodd" d="M36.6908 224.008C36.243 225.284 34.879 225.944 33.6449 225.481C32.4103 225.018 31.7724 223.608 32.2203 222.331C32.6682 221.054 34.0316 220.395 35.2662 220.858C36.5008 221.321 37.1382 222.731 36.6908 224.008Z" fill="#D1D3D4"/>
<path fill-rule="evenodd" clip-rule="evenodd" d="M32.2586 223.021C32.7529 221.611 34.2595 220.882 35.623 221.394C35.9718 221.525 36.277 221.725 36.5305 221.973C36.2618 221.473 35.8263 221.067 35.2661 220.857C34.0315 220.394 32.668 221.053 32.2202 222.33C32.069 222.761 32.0443 223.206 32.1216 223.625C32.1448 223.423 32.1884 223.221 32.2586 223.021Z" fill="#F7F7F7"/>
<path fill-rule="evenodd" clip-rule="evenodd" d="M42.9779 187.022L40.4794 186.084C41.0675 184.452 41.5651 184.039 42.4883 184.386C43.4134 184.732 43.5376 185.378 42.9779 187.022ZM42.5728 184.145C41.3344 183.682 40.7666 184.517 40.2045 186.117L40.1624 186.235L40.5898 186.395L40.9671 186.538L43.1263 187.348L43.1685 187.227C43.7287 185.627 43.8107 184.61 42.5728 184.145Z" fill="#D1D3D4"/>
<path fill-rule="evenodd" clip-rule="evenodd" d="M42.0118 186.118L41.7805 186.031L42.1758 184.905L42.4066 184.991L42.0118 186.118Z" fill="#D1D3D4"/>
<path fill-rule="evenodd" clip-rule="evenodd" d="M40.34 188.962C40.0936 188.87 39.8737 188.655 39.7581 188.359L39.5737 187.887C39.4799 187.646 39.4671 187.387 39.5386 187.157C39.613 186.917 39.7685 186.738 39.9761 186.651L40.8978 186.265L40.9988 186.523L40.077 186.909C39.9448 186.964 39.8448 187.082 39.795 187.242C39.7429 187.41 39.7528 187.602 39.8235 187.783L40.0078 188.254C40.15 188.618 40.495 188.818 40.7775 188.701L41.6988 188.315L41.8002 188.573L40.8784 188.958C40.704 189.031 40.5149 189.028 40.34 188.962Z" fill="#D1D3D4"/>
<path fill-rule="evenodd" clip-rule="evenodd" d="M35.5989 207.651L33.1004 206.713C33.6881 205.081 34.1838 204.668 35.1094 205.015C36.0321 205.361 36.1587 206.007 35.5989 207.651ZM35.8274 205.16C35.6729 205.004 35.4662 204.875 35.1932 204.774C34.9226 204.672 34.6857 204.635 34.4729 204.651C33.7065 204.712 33.2648 205.494 32.8255 206.746L32.7833 206.864L33.1345 206.995L33.3871 207.09L35.143 207.75L35.3961 207.846L35.7454 207.976L35.7876 207.856C36.225 206.606 36.3714 205.714 35.8274 205.16Z" fill="#D1D3D4"/>
<path fill-rule="evenodd" clip-rule="evenodd" d="M34.632 206.745L34.4008 206.659L34.796 205.533L35.0268 205.62L34.632 206.745Z" fill="#D1D3D4"/>
<path fill-rule="evenodd" clip-rule="evenodd" d="M33.4487 209.003C33.2127 208.914 33.0179 208.751 32.9004 208.542C32.7777 208.325 32.7521 208.086 32.8284 207.867L33.1668 206.9L33.4198 206.995L33.0815 207.962C33.0331 208.101 33.0511 208.257 33.1326 208.402C33.2189 208.554 33.3634 208.675 33.5407 208.741H33.5412L34.0032 208.914C34.3601 209.048 34.735 208.916 34.8383 208.62L35.1767 207.653L35.4302 207.748L35.0918 208.714C34.9378 209.155 34.4084 209.362 33.9118 209.176L33.4497 209.003L33.4487 209.003Z" fill="#D1D3D4"/>
<path fill-rule="evenodd" clip-rule="evenodd" d="M40.3949 198.565L40.3708 198.578L39.5561 198.273C39.4438 198.231 39.3215 198.233 39.2111 198.279L37.9689 198.798C37.9044 198.825 37.8324 198.827 37.7661 198.802L36.3912 198.285C36.3149 198.256 36.2528 198.194 36.2229 198.115L35.8879 197.218C35.8414 197.092 35.7452 196.994 35.623 196.949L35.3016 196.828L35.2675 196.751L35.4841 196.133L40.5755 198.055L40.3949 198.565ZM40.3752 197.681L40.1164 197.583L39.4358 197.326L39.1728 197.229L37.0037 196.411L36.7449 196.311L36.0686 196.056L35.8075 195.959L35.3241 195.776L35.0146 196.658C34.9525 196.832 35.0411 197.027 35.2094 197.09L35.5307 197.21C35.5786 197.229 35.6188 197.268 35.6368 197.318L35.9719 198.217C36.0302 198.37 36.1487 198.491 36.2994 198.547L37.6757 199.064C37.8041 199.111 37.9449 199.109 38.0714 199.055L39.3136 198.536C39.3614 198.516 39.4159 198.516 39.4638 198.534L40.279 198.839C40.4292 198.895 40.5941 198.814 40.6482 198.661L40.9188 197.887L40.3752 197.681Z" fill="#D1D3D4"/>
<path fill-rule="evenodd" clip-rule="evenodd" d="M34.68 197.983L34.4383 197.892L34.5302 197.63L34.7719 197.721L34.8719 197.707L35.2511 197.431L35.406 197.659L35.0269 197.935C34.926 198.008 34.7961 198.026 34.68 197.983Z" fill="#D1D3D4"/>
<path fill-rule="evenodd" clip-rule="evenodd" d="M40.3473 197.796L40.0938 197.701C40.1654 197.497 40.0635 197.271 39.8663 197.197C39.6692 197.123 39.4502 197.229 39.3786 197.433L39.1256 197.338C39.2478 196.99 39.6213 196.809 39.9578 196.935C40.2947 197.062 40.4691 197.447 40.3473 197.796Z" fill="#D1D3D4"/>
<path fill-rule="evenodd" clip-rule="evenodd" d="M36.9752 196.53L36.7222 196.436C36.7937 196.232 36.6913 196.006 36.4942 195.932C36.297 195.858 36.0786 195.963 36.007 196.167L35.7539 196.073C35.8762 195.724 36.2492 195.544 36.5861 195.67C36.9231 195.796 37.0975 196.182 36.9752 196.53Z" fill="#D1D3D4"/>
<path fill-rule="evenodd" clip-rule="evenodd" d="M53.1196 172.031C47.1524 172.031 42.297 167.012 42.297 160.838C42.297 154.667 47.1524 149.646 53.1196 149.646C59.0868 149.646 63.9417 154.667 63.9417 160.838C63.9417 167.012 59.0868 172.031 53.1196 172.031ZM53.1195 148.119C46.3381 148.119 40.8211 153.825 40.8211 160.838C40.8211 167.851 46.3381 173.557 53.1195 173.557C59.9004 173.557 65.4174 167.851 65.4174 160.838C65.4174 153.825 59.9004 148.119 53.1195 148.119Z" fill="#D1D3D4"/>
<path fill-rule="evenodd" clip-rule="evenodd" d="M53.1195 173.557C51.4185 173.557 49.7972 173.198 48.3224 172.549L48.5736 172.176C49.9745 172.779 51.51 173.112 53.1195 173.112C53.7716 173.112 54.4109 173.057 55.0351 172.952L55.2175 173.372C54.5351 173.493 53.8346 173.557 53.1195 173.557ZM56.4412 173.085L56.2626 172.675C61.2853 171.246 64.9871 166.482 64.9871 160.838C64.9871 154.072 59.6621 148.564 53.1195 148.564C46.5769 148.564 41.2519 154.072 41.2519 160.838C41.2519 165.484 43.7609 169.535 47.4504 171.618L47.2035 171.986C43.4026 169.82 40.8211 165.635 40.8211 160.838C40.8211 153.825 46.3381 148.119 53.1195 148.119C59.9004 148.119 65.4174 153.825 65.4174 160.838C65.4174 166.661 61.6142 171.583 56.4412 173.085Z" fill="#DADCDD"/>
<path fill-rule="evenodd" clip-rule="evenodd" d="M53.1197 172.445C51.6467 172.445 50.2396 172.15 48.9501 171.614L49.1847 171.265C50.405 171.759 51.7325 172.031 53.1197 172.031C53.6183 172.031 54.1088 171.995 54.5898 171.928L54.7609 172.321C54.2249 172.403 53.677 172.445 53.1197 172.445ZM55.9955 172.059L55.8286 171.676C60.4888 170.429 63.9418 166.044 63.9418 160.838C63.9418 159.074 63.5456 157.405 62.8399 155.919C62.0276 154.21 60.8068 152.745 59.3092 151.661C58.7253 151.239 58.0992 150.874 57.4395 150.576C56.9528 150.356 56.4471 150.172 55.9267 150.027C55.1429 149.809 54.3249 149.68 53.4822 149.652C53.3618 149.648 53.241 149.646 53.1197 149.646C52.4851 149.646 51.8633 149.702 51.2586 149.811C46.1752 150.726 42.2971 155.323 42.2971 160.838C42.2971 165.118 44.6307 168.843 48.0501 170.725L47.8202 171.068C44.298 169.107 41.899 165.257 41.899 160.838C41.899 154.441 46.9311 149.233 53.1197 149.233C59.3082 149.233 64.3404 154.441 64.3404 160.838C64.3404 166.21 60.7944 170.742 55.9955 172.059Z" fill="#ABAFB0"/>
<path fill-rule="evenodd" clip-rule="evenodd" d="M49.3121 169.087L49.6007 169.294C49.6614 169.338 49.6756 169.419 49.6334 169.482L45.1714 176.128C45.1311 176.189 45.051 176.206 44.9904 176.162L44.7013 175.955C44.6406 175.911 44.6259 175.827 44.6667 175.766L49.1282 169.119C49.1704 169.056 49.251 169.043 49.3121 169.087Z" fill="#D1D3D4"/>
<path fill-rule="evenodd" clip-rule="evenodd" d="M44.8467 176.06L44.7012 175.955C44.6638 175.928 44.6439 175.885 44.6434 175.842C44.6439 175.885 44.6638 175.928 44.7012 175.955L44.8467 176.06ZM49.457 169.192L49.312 169.088L49.457 169.192" fill="#39849D"/>
<path fill-rule="evenodd" clip-rule="evenodd" d="M44.8467 176.059L44.7012 175.955C44.6638 175.928 44.6439 175.885 44.6434 175.842C44.6434 175.816 44.651 175.789 44.6666 175.766L49.1282 169.119C49.1537 169.081 49.1936 169.061 49.2343 169.061C49.2609 169.061 49.2879 169.069 49.312 169.087L49.4571 169.191L44.8467 176.059Z" fill="#ABAFB0"/>
<path fill-rule="evenodd" clip-rule="evenodd" d="M49.8168 169.449L50.1059 169.657C50.1666 169.7 50.1808 169.782 50.1386 169.844L45.6766 176.491C45.6358 176.552 45.5557 176.569 45.4951 176.525L45.2064 176.318C45.1458 176.274 45.1311 176.189 45.1714 176.129L49.6334 169.482C49.6756 169.419 49.7562 169.406 49.8168 169.449Z" fill="#D1D3D4"/>
<path fill-rule="evenodd" clip-rule="evenodd" d="M45.3519 176.422L45.2064 176.317C45.169 176.29 45.1491 176.248 45.1486 176.205C45.1486 176.178 45.1562 176.151 45.1713 176.128L49.6334 169.481C49.659 169.443 49.6988 169.423 49.7395 169.423C49.7661 169.423 49.7931 169.431 49.8168 169.448L49.9623 169.553L45.3519 176.422Z" fill="#ABAFB0"/>
<path fill-rule="evenodd" clip-rule="evenodd" d="M69.3904 235.18L69.3743 235.105L68.6999 234.881L67.8387 233.841L65.9847 231.597L66.6511 230.582L66.1871 230.13L66.8478 229.217L65.7819 228.245L66.4544 227.38L66.2895 226.606L64.5658 224.972L64.6663 221.55L63.3156 220.744L60.7526 208.785L60.6161 208.157L60.4095 207.189L60.4531 207.179C60.5294 207.224 60.6057 207.267 60.6824 207.31L64.1734 206.51L66.2487 206.034V206.035L64.6776 206.395L64.298 206.482L61.2123 207.189L64.1179 220.744L65.4682 221.551L65.3677 224.972L67.0914 226.606L67.2572 227.38L66.5852 228.244L67.6511 229.218L66.9895 230.13L67.453 230.582L66.7876 231.597L69.5027 234.881L69.6491 234.929L69.6032 234.974L69.4946 235.078L69.5089 235.153L69.4425 235.128L69.3904 235.18Z" fill="#357B94"/>
<path fill-rule="evenodd" clip-rule="evenodd" d="M51.0343 181.089L50.3352 180.827C50.7404 179.756 51.2765 178.201 52.2959 177.427L52.3741 177.371C52.4589 177.546 52.5347 177.725 52.6011 177.904C51.8191 178.823 51.3869 180.201 51.0343 181.089Z" fill="#0B0C0C"/>
<path fill-rule="evenodd" clip-rule="evenodd" d="M50.4798 198.063C49.4883 196.513 48.6737 194.942 48.0495 193.443C48.049 193.443 48.049 193.443 48.049 193.443L48.4433 192.399C49.0007 193.924 49.7727 195.554 50.7386 197.181C50.6528 197.475 50.5665 197.769 50.4798 198.063ZM48.5828 184.159L47.9785 183.932C47.9785 183.932 47.979 183.931 47.9795 183.931C48.1297 183.763 48.2904 183.603 48.4591 183.447L48.4529 183.449C48.4529 183.449 49.4079 182.48 49.9079 181.762C49.952 181.698 49.9984 181.619 50.0425 181.526L50.4719 181.687C50.5482 181.716 50.624 181.747 50.6979 181.779C50.2169 182.466 49.3302 183.373 49.2591 183.446C49.015 183.67 48.7885 183.907 48.5828 184.159Z" fill="#1C1D1D"/>
<path fill-rule="evenodd" clip-rule="evenodd" d="M51.348 199.168C51.0623 198.802 50.7898 198.433 50.5289 198.063C50.6254 197.769 50.7213 197.475 50.8167 197.181C51.0729 197.569 51.3417 197.957 51.6221 198.344C51.5309 198.619 51.4398 198.894 51.348 199.168ZM50.7714 181.779C50.6891 181.747 50.6048 181.717 50.5199 181.688L50.0424 181.526C50.1246 181.378 50.2073 181.196 50.2964 180.99C50.3191 180.936 50.3433 180.882 50.3681 180.827L51.1456 181.088C51.0196 181.375 50.9021 181.61 50.7845 181.763C50.7803 181.768 50.7761 181.774 50.7714 181.779Z" fill="#141616"/>
<path fill-rule="evenodd" clip-rule="evenodd" d="M48.2967 193.443C48.201 193.332 48.1128 193.22 48.0218 193.109L48.8294 192.039C48.9119 192.158 48.9981 192.278 49.0853 192.399L48.2967 193.443ZM49.038 184.369L47.8011 184.137C47.9167 184.069 48.0361 183.999 48.1556 183.933L49.3641 184.159C49.2522 184.228 49.1442 184.298 49.038 184.369Z" fill="black"/>
<path fill-rule="evenodd" clip-rule="evenodd" d="M48.0379 193.108C48.0373 193.108 48.0373 193.107 48.0373 193.107C47.759 192.501 47.5203 191.91 47.318 191.337C47.4167 191.237 47.4964 191.119 47.5502 190.985L47.8724 190.184C48.0351 190.776 48.2451 191.397 48.5001 192.039L48.0379 193.108ZM47.83 185.598L47.0396 185.339C47.0401 185.339 47.0401 185.339 47.0401 185.338C47.2696 184.905 47.5636 184.504 47.9108 184.137C47.9108 184.136 47.9108 184.136 47.9113 184.136L48.6193 184.368C48.2981 184.746 48.0307 185.155 47.83 185.598Z" fill="#232424"/>
<path fill-rule="evenodd" clip-rule="evenodd" d="M47.0808 190.641C47.0808 190.64 47.0803 190.639 47.0798 190.637C46.5642 188.722 46.4538 187.074 46.8011 185.959C46.8409 185.828 46.8874 185.699 46.9395 185.573C46.9395 185.573 46.9395 185.573 46.94 185.572L47.6428 185.836C47.6291 185.876 47.6158 185.917 47.603 185.958C47.3438 186.793 47.3405 187.927 47.5717 189.248L47.1068 190.573C47.0988 190.596 47.0902 190.619 47.0808 190.641Z" fill="#1C1D1D"/>
<path fill-rule="evenodd" clip-rule="evenodd" d="M47.6428 185.835L46.94 185.572C46.9698 185.493 47.004 185.415 47.0395 185.338L47.73 185.598C47.6992 185.676 47.6698 185.755 47.6428 185.835Z" fill="#626466"/>
<path fill-rule="evenodd" clip-rule="evenodd" d="M47.2827 191.337C47.3689 191.237 47.4386 191.119 47.4855 190.985L47.767 190.183L47.4855 190.985C47.4386 191.119 47.3689 191.237 47.2827 191.337Z" fill="#171818"/>
<path fill-rule="evenodd" clip-rule="evenodd" d="M47.2827 191.337C47.2827 191.337 47.2827 191.337 47.2827 191.336C47.2088 191.101 47.141 190.868 47.0808 190.64C47.0903 190.618 47.0988 190.596 47.1069 190.573L47.5718 189.248C47.6244 189.55 47.6898 189.862 47.7671 190.183L47.4856 190.985C47.4386 191.119 47.369 191.237 47.2827 191.337Z" fill="#131314"/>
<path fill-rule="evenodd" clip-rule="evenodd" d="M67.0137 205.859L69.9194 219.414L69.0251 220.735L70.5146 223.792L69.6203 226.026L69.7857 226.8L70.7502 227.289L70.1796 228.638L71.1544 229.175L70.917 229.788L71.9345 230.417L70.8161 234.579L70.4061 234.974L70.2966 235.078L70.3123 235.152L70.245 235.128L70.1928 235.179L70.1772 235.105L69.5028 234.881L66.7877 231.597L67.4531 230.582L66.9896 230.13L67.6512 229.218L66.5853 228.244L67.2573 227.38L67.0915 226.606L65.3678 224.972L65.4683 221.55L64.118 220.744L61.2124 207.189L67.0137 205.859Z" fill="#E4E4E4"/>
<path fill-rule="evenodd" clip-rule="evenodd" d="M69.9193 219.414L69.025 220.735L70.5146 223.793L69.6203 226.027L69.7857 226.801L70.7501 227.29L70.1795 228.638L71.1544 229.175L70.9169 229.788L71.9345 230.417L70.816 234.58L70.406 234.974L64.2981 206.482L64.9848 206.325L65.19 207.292L65.3398 208L67.3729 207.534L69.9193 219.414Z" fill="#C0C5C8"/>
<path fill-rule="evenodd" clip-rule="evenodd" d="M63.191 208.41L67.0915 226.606L65.3678 224.972L65.4683 221.551L64.118 220.744L61.5546 208.785L63.191 208.41Z" fill="#C0C5C8"/>
<path fill-rule="evenodd" clip-rule="evenodd" d="M61.6617 178.794L54.7353 180.382C54.4495 180.448 54.2026 180.168 54.2912 179.88L54.4864 179.245C54.7608 178.351 55.4741 177.677 56.3594 177.474L59.0011 176.868C59.8864 176.665 60.8086 176.965 61.4224 177.654L61.8589 178.145C62.057 178.368 61.9475 178.729 61.6617 178.794ZM66.2507 178.199C65.5061 177.768 64.0251 175.666 62.3128 175.314C60.938 175.032 59.3939 175.409 57.5887 175.823C55.7835 176.236 54.2305 176.57 53.0997 177.427C51.6916 178.494 51.2078 181.046 50.7097 181.763C50.2116 182.48 49.2547 183.45 49.2547 183.45L58.4318 179.757L68.2592 179.093C68.2592 179.093 66.9952 178.632 66.2507 178.199Z" fill="#171717"/>
<path fill-rule="evenodd" clip-rule="evenodd" d="M67.2212 206.826L67.0136 205.859L67.2212 206.826Z" fill="#2E697F"/>
<path fill-rule="evenodd" clip-rule="evenodd" d="M61.4199 208.156L61.2124 207.189L61.4199 208.156Z" fill="#235264"/>
<path fill-rule="evenodd" clip-rule="evenodd" d="M61.42 208.156L61.2124 207.189L64.2981 206.481L64.5057 207.448L61.42 208.156ZM65.1901 207.292L64.9849 206.324L64.6778 206.395L67.0138 205.859L67.2213 206.826L65.1901 207.292Z" fill="#95979A"/>
<path fill-rule="evenodd" clip-rule="evenodd" d="M64.5057 207.449L64.2981 206.482L64.6777 206.395L64.9848 206.325L65.19 207.292L64.5057 207.449Z" fill="#7E8387"/>
<path fill-rule="evenodd" clip-rule="evenodd" d="M70.7932 180.642C67.8572 177.365 61.4303 179.068 58.4379 179.754C55.446 180.44 48.9248 181.706 47.603 185.958C46.2812 190.211 51.6119 202.22 60.6824 207.31L67.6643 205.71C73.805 197.132 73.7292 183.919 70.7932 180.642Z" fill="#282828"/>
<path fill-rule="evenodd" clip-rule="evenodd" d="M67.3592 205.779L67.6644 205.709C71.2686 200.675 72.7311 194.043 72.7311 188.762C72.7311 194.043 71.2686 200.675 67.6644 205.709L67.3592 205.779ZM70.6264 180.464C70.5884 180.425 70.5496 180.388 70.5107 180.351C70.5496 180.388 70.5884 180.425 70.6264 180.464ZM68.5629 179.187C68.4316 179.14 68.2979 179.097 68.1624 179.058C68.2979 179.097 68.4316 179.14 68.5629 179.187Z" fill="#34768E"/>
<path fill-rule="evenodd" clip-rule="evenodd" d="M58.1367 180.325C58.2334 180.293 58.3267 180.263 58.4173 180.233C58.3272 180.263 58.2334 180.293 58.1367 180.325ZM58.438 180.226C60.0778 179.682 62.7488 178.697 65.3118 178.697C66.3 178.697 67.272 178.843 68.1625 179.218C67.272 178.843 66.3 178.697 65.3118 178.697C62.7488 178.697 60.0778 179.682 58.438 180.226Z" fill="#111111"/>
<path fill-rule="evenodd" clip-rule="evenodd" d="M67.3591 205.779C73.4017 197.199 73.3126 184.109 70.3918 180.849C69.0648 179.368 67.0245 178.904 64.9103 178.904C62.3478 178.904 59.6763 179.586 58.0365 179.961C56.3607 180.346 53.5787 180.912 51.2229 182.083C53.5119 180.848 56.309 180.235 58.1081 179.829C58.109 179.829 58.1095 179.829 58.1104 179.829C58.1138 179.828 58.1171 179.827 58.1204 179.826C58.1256 179.825 58.1308 179.824 58.1365 179.823C58.2332 179.801 58.327 179.78 58.4171 179.759H58.4175C58.4242 179.757 58.4313 179.756 58.4379 179.754C60.0777 179.378 62.7488 178.697 65.3118 178.697C66.2999 178.697 67.2719 178.798 68.1624 179.057C68.298 179.096 68.4316 179.139 68.5629 179.187C68.57 179.189 68.5771 179.191 68.5842 179.194C68.5856 179.195 68.5866 179.195 68.5875 179.195C68.5885 179.196 68.5894 179.196 68.5904 179.196C68.5965 179.199 68.6027 179.201 68.6093 179.203C68.6108 179.204 68.6117 179.204 68.6127 179.205C68.6188 179.207 68.625 179.209 68.6311 179.211C68.6326 179.212 68.6335 179.212 68.6354 179.213C68.642 179.215 68.6492 179.218 68.6558 179.22C69.3458 179.478 69.9757 179.846 70.5107 180.351C70.5496 180.388 70.5885 180.426 70.6264 180.464C70.6832 180.522 70.7387 180.581 70.7932 180.642C72.006 181.995 72.7311 185.044 72.7311 188.762C72.7311 194.044 71.2685 200.675 67.6643 205.709L67.3591 205.779Z" fill="#1D1E1E"/>
<path fill-rule="evenodd" clip-rule="evenodd" d="M48.0044 186.166C49.3262 181.913 55.847 180.648 58.8393 179.961C61.3511 179.386 66.2828 178.094 69.5387 179.633C66.3004 177.776 61.0554 179.154 58.4379 179.754C55.4455 180.44 48.9248 181.706 47.603 185.958C46.2812 190.211 51.6119 202.22 60.6824 207.31L60.7189 207.302C51.8726 202.098 46.7002 190.361 48.0044 186.166Z" fill="#333333"/>
<path fill-rule="evenodd" clip-rule="evenodd" d="M57.1701 189.819C55.7133 190.153 54.2654 189.199 53.9427 187.693L53.6266 186.218C53.3038 184.712 54.2261 183.214 55.6825 182.88L61.971 181.438C63.4278 181.105 64.8757 182.058 65.1984 183.565L65.5145 185.039C65.8373 186.546 64.915 188.043 63.4586 188.377L57.1701 189.819Z" fill="black"/>
<path fill-rule="evenodd" clip-rule="evenodd" d="M63.4172 188.183L57.1286 189.625C55.7732 189.936 54.4306 189.051 54.1301 187.649L53.814 186.174C53.5135 184.772 54.3685 183.384 55.7244 183.073L62.0129 181.631C63.3683 181.32 64.711 182.205 65.0114 183.607L65.3276 185.082C65.628 186.484 64.7731 187.872 63.4172 188.183Z" fill="#282828"/>
<path fill-rule="evenodd" clip-rule="evenodd" d="M54.2689 187.707L53.9528 186.232C53.6524 184.829 54.5073 183.441 55.8632 183.13L62.1518 181.689C62.6347 181.578 63.1153 181.621 63.5484 181.783C63.0802 181.575 62.548 181.509 62.0129 181.632L55.7244 183.073C54.3685 183.384 53.5135 184.773 53.814 186.175L54.1301 187.65C54.3234 188.552 54.9495 189.238 55.732 189.531C55.0154 189.211 54.4509 188.555 54.2689 187.707Z" fill="#595959"/>
<path fill-rule="evenodd" clip-rule="evenodd" d="M62.465 199.131C60.7342 199.528 58.5342 198.474 57.256 197.229C56.3281 196.324 55.8878 195.373 56.0153 194.549C56.1944 193.391 58.5901 192.712 60.3764 192.303L60.9726 192.168L61.5678 192.03C63.3541 191.62 65.8028 191.188 66.4384 192.159C66.8905 192.85 66.8801 193.905 66.409 195.13C65.7592 196.818 64.1962 198.735 62.465 199.131Z" fill="black"/>
<path fill-rule="evenodd" clip-rule="evenodd" d="M66.2799 192.271C65.5865 191.212 62.0932 192.115 61.0136 192.362C59.9345 192.61 56.3994 193.318 56.2042 194.581C55.8791 196.681 59.8169 199.536 62.4235 198.938C65.0301 198.34 67.4325 194.032 66.2799 192.271Z" fill="#282828"/>
<path fill-rule="evenodd" clip-rule="evenodd" d="M56.4327 194.732C56.6279 193.469 60.163 192.76 61.2426 192.513C62.1928 192.295 65.0131 191.57 66.1477 192.122C65.2273 191.306 62.0369 192.128 61.0137 192.362C59.9345 192.61 56.3995 193.319 56.2042 194.581C56.0275 195.721 57.1075 197.082 58.5483 197.993C57.2241 197.087 56.2654 195.81 56.4327 194.732Z" fill="#595959"/>
<path fill-rule="evenodd" clip-rule="evenodd" d="M66.5852 228.244L67.2573 227.38L67.6511 229.217L66.5852 228.244Z" fill="#C0C5C8"/>
<path fill-rule="evenodd" clip-rule="evenodd" d="M66.9895 230.13L67.6511 229.218L68.6421 233.84L66.7876 231.597L67.453 230.582L66.9895 230.13Z" fill="#C0C5C8"/>
<path fill-rule="evenodd" clip-rule="evenodd" d="M58.2829 177.654L57.962 177.804C57.8947 177.835 57.8198 177.806 57.7895 177.736L54.5806 170.356C54.5516 170.289 54.5787 170.209 54.646 170.178L54.9668 170.029C55.0341 169.997 55.1123 170.028 55.1417 170.095L58.3506 177.475C58.3805 177.545 58.3502 177.623 58.2829 177.654Z" fill="#D1D3D4"/>
<path fill-rule="evenodd" clip-rule="evenodd" d="M58.1215 177.73L54.8054 170.104L54.967 170.029C54.985 170.02 55.004 170.016 55.0224 170.016C55.0727 170.016 55.1201 170.046 55.1419 170.095L58.3508 177.475C58.3589 177.494 58.3622 177.513 58.3622 177.531C58.3622 177.583 58.3324 177.632 58.2831 177.654L58.1215 177.73Z" fill="#ABAFB0"/>
<path fill-rule="evenodd" clip-rule="evenodd" d="M57.7219 177.916L57.4015 178.065C57.3342 178.097 57.2594 178.067 57.229 177.998L54.0201 170.618C53.9907 170.55 54.0182 170.471 54.0855 170.44L54.4063 170.29C54.4736 170.259 54.5518 170.29 54.5807 170.357L57.7897 177.737C57.82 177.806 57.7892 177.885 57.7219 177.916Z" fill="#D1D3D4"/>
<path fill-rule="evenodd" clip-rule="evenodd" d="M57.5608 177.991L54.2447 170.366L54.4063 170.29C54.4243 170.282 54.4428 170.278 54.4613 170.278C54.512 170.278 54.5594 170.308 54.5807 170.357L57.7897 177.737C57.7977 177.755 57.8015 177.774 57.8015 177.793C57.801 177.845 57.7717 177.893 57.7219 177.916L57.5608 177.991Z" fill="#ABAFB0"/>
<path fill-rule="evenodd" clip-rule="evenodd" d="M65.3032 134.714C68.7543 131.452 72.7092 129.228 75.4831 125.805C76.0476 125.109 76.5229 123.056 76.7935 120.597C80.1096 119.757 83.4261 119.223 86.8469 120.224C91.117 121.473 95.2937 123.238 99.3591 125.06C102.273 126.365 104.76 127.954 107.331 129.732C104.176 131.613 101.151 134.05 97.6146 135.323C95.5866 136.054 93.1151 135.495 90.4876 135.974C86.5441 136.704 82.6442 138.303 80.3091 139.644C77.5603 141.222 69.3467 146.798 64.0454 154.729C63.5529 155.459 61.3298 157.244 60.5307 157.265C59.3994 157.29 58.8047 155.908 58.5952 154.764C57.2545 147.323 59.9018 139.821 65.3032 134.714Z" fill="#F4C9A7"/>
<path fill-rule="evenodd" clip-rule="evenodd" d="M60.2308 156.27L60.6142 156.562C60.836 156.734 61.0682 156.869 61.3151 156.979C62.3137 156.442 63.6857 155.263 64.0435 154.731C65.5113 152.535 67.4174 150.282 69.4752 148.133C69.3037 147.335 68.8648 146.595 68.179 146.068L67.7956 145.77C66.2828 144.602 64.1345 144.925 63.0047 146.495L59.5299 151.315C58.4005 152.879 58.7128 155.102 60.2308 156.27Z" fill="#F6D8C0"/>
<path fill-rule="evenodd" clip-rule="evenodd" d="M90.9416 128.651C93.5297 127.293 96.16 126.019 98.8225 124.822C99.0012 124.901 99.1808 124.98 99.359 125.06C102.274 126.366 104.76 127.955 107.331 129.733C104.177 131.614 101.152 134.051 97.6136 135.322C95.5861 136.052 93.115 135.494 90.4876 135.974C86.5436 136.704 82.6455 138.305 80.3105 139.646C78.4494 140.715 74.9821 142.37 69.4751 148.133L69.4196 148.191C71.0405 142.21 78.0309 135.42 90.9416 128.651Z" fill="#E5B698"/>
<path fill-rule="evenodd" clip-rule="evenodd" d="M124.566 127.214L130.407 126.094L124.389 92.5109L118.548 93.6303L124.566 127.214Z" fill="white"/>
<path fill-rule="evenodd" clip-rule="evenodd" d="M129.54 130.423L240.419 109.935V66.8354L122.08 88.7907L129.54 130.423Z" fill="#1F386A"/>
<path fill-rule="evenodd" clip-rule="evenodd" d="M129.54 130.422L128.819 126.398L129.54 130.422L240.419 109.935L129.54 130.422Z" fill="#3F8FAA"/>
<path fill-rule="evenodd" clip-rule="evenodd" d="M124.566 127.213L121.557 110.422L125.815 109.632L128.82 126.398L124.566 127.213Z" fill="#E6E6E6"/>
<path fill-rule="evenodd" clip-rule="evenodd" d="M129.54 130.423L125.815 109.633L240.419 88.3778V109.936L129.54 130.423Z" fill="#1C3360"/>
<path fill-rule="evenodd" clip-rule="evenodd" d="M129.179 95.6788C130.53 95.4132 131.418 94.0653 131.162 92.6679C130.905 91.2705 129.601 90.353 128.25 90.6181C126.899 90.8833 126.012 92.2312 126.268 93.6286C126.525 95.0259 127.828 95.944 129.179 95.6788Z" fill="white"/>
<path fill-rule="evenodd" clip-rule="evenodd" d="M135.675 94.4039C137.026 94.1388 137.914 92.7904 137.658 91.393C137.401 89.9956 136.097 89.0781 134.746 89.3432C133.395 89.6084 132.508 90.9563 132.764 92.3537C133.021 93.7511 134.324 94.6691 135.675 94.4039Z" fill="white"/>
<path fill-rule="evenodd" clip-rule="evenodd" d="M159.225 234.082C118.934 234.082 86.2718 233.398 86.2718 232.555C86.2718 231.712 118.934 231.028 159.225 231.028C199.515 231.028 232.177 231.712 232.177 232.555C232.177 233.398 199.515 234.082 159.225 234.082Z" fill="#2E697F"/>
<path fill-rule="evenodd" clip-rule="evenodd" d="M87.712 221.505C88.2205 222.793 88.7878 223.655 89.2721 223.773C92.4133 224.532 94.1289 224.492 97.2284 224.711C97.3806 224.721 97.7507 224.732 98.318 224.739C101.559 224.771 111.204 224.732 123.145 224.66C151.202 224.489 191.923 224.131 191.923 224.131C191.923 224.131 213.304 223.67 218.099 223.057C222.893 222.442 229.265 221.33 230.206 220.432C230.811 219.856 231.309 218.46 231.676 216.801C231.69 216.74 231.703 216.675 231.718 216.611C231.915 215.677 232.067 214.665 232.177 213.67C232.44 211.209 232.409 208.873 232.001 208.121C231.133 206.512 229.618 206.039 229.586 204.187C229.58 203.829 229.517 203.285 229.41 202.63C229.244 201.604 228.974 200.305 228.663 199.017C228.338 197.661 227.967 196.319 227.625 195.322C227.497 194.939 227.369 194.609 227.252 194.348C226.965 193.715 227.646 193.042 227.099 192.46C226.553 191.88 220.25 191.347 215.905 190.381C211.564 189.419 193.826 177.86 167.477 177.86C142.976 177.86 130.426 191.186 120.55 194.08C112.4 196.466 103.192 197.282 97.8166 199.017C96.6716 199.385 95.7029 199.794 94.9522 200.269C90.6698 202.977 87.9613 205.406 86.6504 210.415C85.7509 213.857 86.5949 218.689 87.712 221.505Z" fill="#FE3419"/>
<path fill-rule="evenodd" clip-rule="evenodd" d="M228.663 199.017H202.999C203.082 198.56 203.055 198.176 202.898 197.88C201.968 196.126 200.507 193.567 199.12 191.183C202.421 190.586 204.613 189.953 206.036 189.243C206.263 189.13 206.27 188.797 206.05 188.67C203.27 187.064 189.035 179.456 168.912 179.456C163.241 179.456 157.105 180.06 150.623 181.572C139.964 184.059 126.293 193.82 122.77 196.43C122.52 196.615 122.656 197.016 122.956 197.017C122.962 197.017 122.968 197.016 122.975 197.016C123.865 196.967 124.742 196.919 125.615 196.871C125.474 197.54 125.356 198.26 125.259 199.017H97.8167C103.192 197.282 112.4 196.466 120.55 194.08C130.426 191.186 142.976 177.86 167.477 177.86C193.826 177.86 211.564 189.419 215.906 190.381C220.251 191.347 226.553 191.88 227.099 192.46C227.267 192.638 227.319 192.825 227.319 193.017C227.319 193.333 227.178 193.661 227.178 193.985C227.178 194.107 227.197 194.229 227.252 194.348C227.369 194.609 227.497 194.939 227.625 195.322C227.967 196.319 228.338 197.661 228.663 199.017ZM202.669 199.018H125.615C125.712 198.251 125.831 197.525 125.975 196.852C167.365 194.565 188.353 193.075 198.754 191.249C200.159 193.663 201.652 196.274 202.594 198.053C202.724 198.298 202.745 198.624 202.669 199.018ZM194.247 198.361C194.605 198.73 195.266 198.977 196.022 198.977C196.778 198.977 197.439 198.73 197.797 198.361H197.867C197.867 198.563 197.968 198.656 198.089 198.656C198.111 198.656 198.133 198.653 198.156 198.646C200.183 198.032 199.513 198.267 200.939 197.682C201.167 197.621 201.167 197.292 200.939 197.23C199.54 197.122 200.186 197.242 198.156 196.695C198.133 196.689 198.111 196.686 198.089 196.686C197.968 196.686 197.867 196.779 197.867 196.981H197.68C197.304 196.672 196.702 196.472 196.022 196.472C195.342 196.472 194.74 196.672 194.364 196.981H194.023C194.023 196.77 193.939 196.686 193.852 196.686C193.835 196.686 193.819 196.689 193.803 196.695C192.26 197.241 192.75 197.122 191.684 197.23C191.511 197.292 191.511 197.621 191.684 197.682C192.774 198.267 192.263 198.032 193.803 198.646C193.819 198.652 193.836 198.655 193.852 198.655C193.939 198.655 194.023 198.572 194.023 198.361H194.247Z" fill="#FE5A44"/>
<path fill-rule="evenodd" clip-rule="evenodd" d="M87.7119 221.505C88.2205 222.793 88.7877 223.655 89.2721 223.773C92.4133 224.532 94.1289 224.492 97.2284 224.71C97.3805 224.721 97.7507 224.731 98.3179 224.739C101.559 224.771 111.204 224.731 123.144 224.66C151.202 224.488 191.923 224.131 191.923 224.131C191.923 224.131 213.304 223.669 218.099 223.058C222.893 222.442 229.265 221.329 230.206 220.432C230.811 219.856 231.309 218.46 231.676 216.801C228.59 217.047 223.339 217.316 220.904 217.316C219.756 210.511 214.017 205.342 207.109 205.342C194.061 205.342 196.33 218.55 182.929 218.55C182.549 218.55 134.58 218.947 126.707 218.947C126.085 218.947 125.569 218.464 125.479 217.827C124.455 210.554 118.264 205.005 110.923 205.005C98.5739 205.005 96.5782 216.264 96.2564 219.784C96.2009 220.385 95.7374 220.857 95.1526 220.904L87.7119 221.505Z" fill="#FF1920"/>
<path fill-rule="evenodd" clip-rule="evenodd" d="M97.6887 220.597C97.6887 222.038 97.9062 223.434 98.318 224.739C101.559 224.772 111.204 224.732 123.144 224.66C123.535 223.38 123.747 222.013 123.747 220.597C123.747 213.155 117.914 207.12 110.719 207.12C103.524 207.12 97.6887 213.155 97.6887 220.597Z" fill="black"/>
<path fill-rule="evenodd" clip-rule="evenodd" d="M98.9563 220.62C98.9563 227.338 104.222 232.783 110.717 232.783C117.213 232.783 122.478 227.338 122.478 220.62C122.478 213.902 117.213 208.456 110.717 208.456C104.222 208.456 98.9563 213.902 98.9563 220.62Z" fill="#1D1D1B"/>
<path fill-rule="evenodd" clip-rule="evenodd" d="M102.646 220.62C102.646 225.231 106.26 228.968 110.717 228.968C115.175 228.968 118.789 225.231 118.789 220.62C118.789 216.01 115.175 212.273 110.717 212.273C106.26 212.273 102.646 216.01 102.646 220.62Z" fill="#3C3C3B"/>
<path fill-rule="evenodd" clip-rule="evenodd" d="M103.107 220.621C103.107 224.967 106.515 228.491 110.717 228.491C114.92 228.491 118.328 224.967 118.328 220.621C118.328 216.274 114.92 212.75 110.717 212.75C106.515 212.75 103.107 216.274 103.107 220.621Z" fill="#E6DEDC"/>
<path fill-rule="evenodd" clip-rule="evenodd" d="M109.139 220.62C109.139 221.522 109.846 222.253 110.717 222.253C111.589 222.253 112.295 221.522 112.295 220.62C112.295 219.719 111.589 218.988 110.717 218.988C109.846 218.988 109.139 219.719 109.139 220.62Z" fill="#4F4D46"/>
<path fill-rule="evenodd" clip-rule="evenodd" d="M109.269 220.621C109.269 221.448 109.917 222.119 110.717 222.119C111.517 222.119 112.166 221.448 112.166 220.621C112.166 219.793 111.517 219.122 110.717 219.122C109.917 219.122 109.269 219.793 109.269 220.621Z" fill="#E6DEDC"/>
<path fill-rule="evenodd" clip-rule="evenodd" d="M111.385 219.056C111.207 219.268 111.229 219.588 111.432 219.772C111.637 219.956 111.946 219.934 112.124 219.723C112.302 219.512 112.281 219.192 112.076 219.008C111.873 218.824 111.563 218.846 111.385 219.056Z" fill="#1D1D1B"/>
<path fill-rule="evenodd" clip-rule="evenodd" d="M111.488 219.15C111.36 219.302 111.376 219.533 111.523 219.666C111.669 219.798 111.893 219.782 112.021 219.63C112.149 219.478 112.134 219.247 111.987 219.115C111.84 218.982 111.617 218.998 111.488 219.15Z" fill="#8A7F57"/>
<path fill-rule="evenodd" clip-rule="evenodd" d="M112.229 221.311C112.025 221.127 111.715 221.149 111.538 221.36C111.359 221.57 111.381 221.891 111.585 222.075C111.789 222.259 112.098 222.237 112.276 222.026C112.454 221.815 112.433 221.495 112.229 221.311Z" fill="#1D1D1B"/>
<path fill-rule="evenodd" clip-rule="evenodd" d="M112.139 221.418C111.992 221.285 111.769 221.301 111.641 221.453C111.513 221.605 111.528 221.836 111.675 221.968C111.822 222.101 112.045 222.085 112.173 221.933C112.301 221.781 112.286 221.551 112.139 221.418Z" fill="#8A7F57"/>
<path fill-rule="evenodd" clip-rule="evenodd" d="M110.05 222.184C110.227 221.973 110.206 221.653 110.002 221.468C109.798 221.285 109.488 221.307 109.311 221.517C109.133 221.729 109.154 222.049 109.358 222.233C109.562 222.416 109.871 222.395 110.05 222.184Z" fill="#1D1D1B"/>
<path fill-rule="evenodd" clip-rule="evenodd" d="M109.946 222.091C110.074 221.939 110.059 221.708 109.912 221.576C109.765 221.443 109.542 221.459 109.414 221.611C109.286 221.763 109.301 221.994 109.448 222.126C109.595 222.259 109.818 222.243 109.946 222.091Z" fill="#8A7F57"/>
<path fill-rule="evenodd" clip-rule="evenodd" d="M109.206 219.929C109.41 220.114 109.719 220.092 109.898 219.881C110.075 219.67 110.054 219.349 109.85 219.166C109.646 218.981 109.336 219.003 109.159 219.214C108.981 219.425 109.002 219.745 109.206 219.929Z" fill="#1D1D1B"/>
<path fill-rule="evenodd" clip-rule="evenodd" d="M109.296 219.823C109.443 219.956 109.666 219.94 109.794 219.788C109.922 219.636 109.907 219.405 109.76 219.273C109.613 219.14 109.39 219.156 109.262 219.308C109.134 219.46 109.149 219.69 109.296 219.823Z" fill="#8A7F57"/>
<path fill-rule="evenodd" clip-rule="evenodd" d="M110.919 217.745L112.833 214.315C112.923 214.154 112.811 213.954 112.632 213.954H108.803C108.624 213.954 108.512 214.154 108.601 214.315L110.516 217.745C110.605 217.905 110.829 217.905 110.919 217.745Z" fill="#303030"/>
<path fill-rule="evenodd" clip-rule="evenodd" d="M110.184 215.015C110.184 215.319 110.423 215.567 110.717 215.567C111.012 215.567 111.251 215.319 111.251 215.015C111.251 214.71 111.012 214.464 110.717 214.464C110.423 214.464 110.184 214.71 110.184 215.015Z" fill="black"/>
<path fill-rule="evenodd" clip-rule="evenodd" d="M113.226 219.363H117.055C117.234 219.363 117.346 219.162 117.257 219.002L115.342 215.572C115.252 215.412 115.029 215.412 114.939 215.572L113.024 219.002C112.935 219.162 113.047 219.363 113.226 219.363Z" fill="#303030"/>
<path fill-rule="evenodd" clip-rule="evenodd" d="M115.144 217.34C114.889 217.492 114.802 217.829 114.949 218.093C115.096 218.357 115.423 218.448 115.678 218.295C115.933 218.143 116.02 217.805 115.873 217.542C115.725 217.278 115.399 217.187 115.144 217.34Z" fill="black"/>
<path fill-rule="evenodd" clip-rule="evenodd" d="M113.024 222.238L114.939 225.668C115.029 225.828 115.252 225.828 115.342 225.668L117.257 222.238C117.346 222.078 117.234 221.877 117.055 221.877H113.226C113.047 221.877 112.935 222.078 113.024 222.238Z" fill="#303030"/>
<path fill-rule="evenodd" clip-rule="evenodd" d="M115.678 222.945C115.423 222.793 115.096 222.883 114.949 223.147C114.802 223.411 114.889 223.748 115.144 223.9C115.399 224.053 115.725 223.962 115.873 223.698C116.02 223.435 115.933 223.097 115.678 222.945Z" fill="black"/>
<path fill-rule="evenodd" clip-rule="evenodd" d="M110.516 223.495L108.601 226.925C108.512 227.085 108.624 227.286 108.803 227.286H112.632C112.811 227.286 112.923 227.085 112.833 226.925L110.919 223.495C110.829 223.335 110.605 223.335 110.516 223.495Z" fill="#303030"/>
<path fill-rule="evenodd" clip-rule="evenodd" d="M111.251 226.225C111.251 225.92 111.012 225.673 110.717 225.673C110.423 225.673 110.184 225.92 110.184 226.225C110.184 226.529 110.423 226.776 110.717 226.776C111.012 226.776 111.251 226.529 111.251 226.225Z" fill="black"/>
<path fill-rule="evenodd" clip-rule="evenodd" d="M108.209 221.877H104.379C104.2 221.877 104.088 222.078 104.178 222.238L106.093 225.668C106.182 225.828 106.406 225.828 106.496 225.668L108.411 222.238C108.5 222.078 108.388 221.877 108.209 221.877Z" fill="#303030"/>
<path fill-rule="evenodd" clip-rule="evenodd" d="M106.291 223.9C106.546 223.748 106.633 223.411 106.486 223.147C106.339 222.883 106.013 222.793 105.757 222.945C105.502 223.097 105.415 223.435 105.563 223.698C105.71 223.962 106.036 224.053 106.291 223.9Z" fill="black"/>
<path fill-rule="evenodd" clip-rule="evenodd" d="M108.411 219.002L106.496 215.572C106.406 215.412 106.182 215.412 106.093 215.572L104.178 219.002C104.088 219.162 104.2 219.363 104.379 219.363H108.209C108.388 219.363 108.5 219.162 108.411 219.002Z" fill="#303030"/>
<path fill-rule="evenodd" clip-rule="evenodd" d="M105.757 218.295C106.013 218.448 106.339 218.357 106.486 218.093C106.633 217.829 106.546 217.492 106.291 217.34C106.036 217.187 105.71 217.278 105.563 217.542C105.415 217.805 105.502 218.143 105.757 218.295Z" fill="black"/>
<path fill-rule="evenodd" clip-rule="evenodd" d="M193.902 220.895C193.902 222.337 194.12 223.732 194.532 225.038C197.773 225.07 207.417 225.031 219.358 224.96C219.749 223.679 219.96 222.312 219.96 220.895C219.96 213.454 214.128 207.419 206.934 207.419C199.738 207.419 193.902 213.454 193.902 220.895Z" fill="black"/>
<path fill-rule="evenodd" clip-rule="evenodd" d="M195.171 220.92C195.171 227.638 200.436 233.084 206.932 233.084C213.427 233.084 218.693 227.638 218.693 220.92C218.693 214.202 213.427 208.757 206.932 208.757C200.436 208.757 195.171 214.202 195.171 220.92Z" fill="#1D1D1B"/>
<path fill-rule="evenodd" clip-rule="evenodd" d="M198.86 220.92C198.86 225.53 202.474 229.268 206.932 229.268C211.389 229.268 215.003 225.53 215.003 220.92C215.003 216.31 211.389 212.573 206.932 212.573C202.474 212.573 198.86 216.31 198.86 220.92Z" fill="#3C3C3B"/>
<path fill-rule="evenodd" clip-rule="evenodd" d="M199.321 220.919C199.321 225.267 202.729 228.79 206.932 228.79C211.134 228.79 214.542 225.267 214.542 220.919C214.542 216.573 211.134 213.049 206.932 213.049C202.729 213.049 199.321 216.573 199.321 220.919Z" fill="#E6DEDC"/>
<path fill-rule="evenodd" clip-rule="evenodd" d="M205.353 220.92C205.353 221.822 206.06 222.552 206.932 222.552C207.803 222.552 208.51 221.822 208.51 220.92C208.51 220.019 207.803 219.288 206.932 219.288C206.06 219.288 205.353 220.019 205.353 220.92Z" fill="#4F4D46"/>
<path fill-rule="evenodd" clip-rule="evenodd" d="M205.483 220.92C205.483 221.747 206.132 222.418 206.932 222.418C207.732 222.418 208.38 221.747 208.38 220.92C208.38 220.093 207.732 219.422 206.932 219.422C206.132 219.422 205.483 220.093 205.483 220.92Z" fill="#E6DEDC"/>
<path fill-rule="evenodd" clip-rule="evenodd" d="M207.599 219.356C207.422 219.567 207.443 219.887 207.647 220.071C207.85 220.255 208.16 220.233 208.338 220.022C208.516 219.812 208.495 219.491 208.291 219.307C208.087 219.124 207.778 219.145 207.599 219.356Z" fill="#1D1D1B"/>
<path fill-rule="evenodd" clip-rule="evenodd" d="M207.703 219.45C207.575 219.602 207.59 219.832 207.737 219.965C207.884 220.097 208.107 220.082 208.235 219.93C208.363 219.778 208.348 219.547 208.201 219.415C208.054 219.282 207.831 219.297 207.703 219.45Z" fill="#8A7F57"/>
<path fill-rule="evenodd" clip-rule="evenodd" d="M208.443 221.611C208.239 221.427 207.93 221.449 207.752 221.659C207.574 221.871 207.595 222.191 207.799 222.374C208.003 222.558 208.313 222.537 208.49 222.326C208.668 222.115 208.647 221.795 208.443 221.611Z" fill="#1D1D1B"/>
<path fill-rule="evenodd" clip-rule="evenodd" d="M208.353 221.718C208.206 221.585 207.983 221.601 207.855 221.753C207.727 221.905 207.742 222.136 207.889 222.268C208.036 222.401 208.259 222.385 208.387 222.233C208.515 222.081 208.5 221.85 208.353 221.718Z" fill="#8A7F57"/>
<path fill-rule="evenodd" clip-rule="evenodd" d="M206.264 222.484C206.442 222.272 206.42 221.952 206.216 221.769C206.012 221.584 205.703 221.606 205.525 221.817C205.347 222.028 205.368 222.348 205.572 222.532C205.776 222.717 206.086 222.694 206.264 222.484Z" fill="#1D1D1B"/>
<path fill-rule="evenodd" clip-rule="evenodd" d="M206.16 222.39C206.288 222.238 206.273 222.007 206.126 221.874C205.979 221.742 205.756 221.758 205.628 221.91C205.5 222.062 205.515 222.292 205.662 222.425C205.809 222.558 206.032 222.542 206.16 222.39Z" fill="#8A7F57"/>
<path fill-rule="evenodd" clip-rule="evenodd" d="M205.42 220.229C205.624 220.413 205.934 220.391 206.111 220.18C206.29 219.969 206.268 219.649 206.064 219.465C205.86 219.281 205.551 219.303 205.373 219.514C205.195 219.725 205.216 220.045 205.42 220.229Z" fill="#1D1D1B"/>
<path fill-rule="evenodd" clip-rule="evenodd" d="M205.51 220.123C205.657 220.255 205.88 220.239 206.008 220.087C206.136 219.936 206.121 219.705 205.974 219.572C205.827 219.439 205.604 219.456 205.476 219.608C205.348 219.76 205.363 219.99 205.51 220.123Z" fill="#8A7F57"/>
<path fill-rule="evenodd" clip-rule="evenodd" d="M207.133 218.044L209.048 214.615C209.137 214.454 209.025 214.254 208.846 214.254H205.017C204.838 214.254 204.726 214.454 204.816 214.615L206.73 218.044C206.82 218.205 207.043 218.205 207.133 218.044Z" fill="#303030"/>
<path fill-rule="evenodd" clip-rule="evenodd" d="M206.399 215.315C206.399 215.62 206.637 215.866 206.932 215.866C207.226 215.866 207.465 215.62 207.465 215.315C207.465 215.01 207.226 214.763 206.932 214.763C206.637 214.763 206.399 215.01 206.399 215.315Z" fill="black"/>
<path fill-rule="evenodd" clip-rule="evenodd" d="M209.44 219.662H213.27C213.449 219.662 213.561 219.462 213.471 219.301L211.556 215.872C211.467 215.711 211.243 215.711 211.153 215.872L209.239 219.301C209.149 219.462 209.261 219.662 209.44 219.662Z" fill="#303030"/>
<path fill-rule="evenodd" clip-rule="evenodd" d="M211.358 217.64C211.103 217.792 211.016 218.129 211.163 218.393C211.31 218.657 211.636 218.747 211.892 218.595C212.147 218.442 212.234 218.105 212.086 217.841C211.94 217.578 211.613 217.487 211.358 217.64Z" fill="black"/>
<path fill-rule="evenodd" clip-rule="evenodd" d="M209.239 222.538L211.153 225.968C211.243 226.128 211.467 226.128 211.556 225.968L213.471 222.538C213.561 222.377 213.449 222.177 213.27 222.177H209.44C209.261 222.177 209.149 222.377 209.239 222.538Z" fill="#303030"/>
<path fill-rule="evenodd" clip-rule="evenodd" d="M211.892 223.245C211.636 223.092 211.31 223.183 211.163 223.447C211.016 223.71 211.103 224.048 211.358 224.2C211.613 224.353 211.94 224.262 212.086 223.998C212.234 223.734 212.147 223.397 211.892 223.245Z" fill="black"/>
<path fill-rule="evenodd" clip-rule="evenodd" d="M206.73 223.795L204.816 227.225C204.726 227.385 204.838 227.586 205.017 227.586H208.846C209.025 227.586 209.137 227.385 209.048 227.225L207.133 223.795C207.043 223.635 206.82 223.635 206.73 223.795Z" fill="#303030"/>
<path fill-rule="evenodd" clip-rule="evenodd" d="M207.465 226.524C207.465 226.22 207.226 225.973 206.932 225.973C206.637 225.973 206.399 226.22 206.399 226.524C206.399 226.829 206.637 227.076 206.932 227.076C207.226 227.076 207.465 226.829 207.465 226.524Z" fill="black"/>
<path fill-rule="evenodd" clip-rule="evenodd" d="M204.423 222.177H200.594C200.415 222.177 200.303 222.377 200.392 222.538L202.307 225.968C202.397 226.128 202.621 226.128 202.71 225.968L204.625 222.538C204.714 222.377 204.602 222.177 204.423 222.177Z" fill="#303030"/>
<path fill-rule="evenodd" clip-rule="evenodd" d="M202.505 224.2C202.76 224.048 202.847 223.71 202.7 223.447C202.553 223.183 202.227 223.092 201.972 223.245C201.717 223.397 201.629 223.734 201.777 223.998C201.924 224.262 202.25 224.353 202.505 224.2Z" fill="black"/>
<path fill-rule="evenodd" clip-rule="evenodd" d="M204.625 219.301L202.71 215.872C202.621 215.711 202.397 215.711 202.307 215.872L200.392 219.301C200.303 219.462 200.415 219.662 200.594 219.662H204.423C204.602 219.662 204.714 219.462 204.625 219.301Z" fill="#303030"/>
<path fill-rule="evenodd" clip-rule="evenodd" d="M201.972 218.595C202.227 218.747 202.553 218.657 202.7 218.393C202.847 218.129 202.76 217.792 202.505 217.64C202.25 217.487 201.924 217.578 201.777 217.841C201.629 218.105 201.717 218.442 201.972 218.595Z" fill="black"/>
<path fill-rule="evenodd" clip-rule="evenodd" d="M206.036 189.242C206.263 189.129 206.27 188.797 206.05 188.669C202.486 186.611 180.108 174.692 150.623 181.571C139.963 184.058 126.293 193.819 122.77 196.429C122.515 196.618 122.662 197.032 122.975 197.016C180.63 193.851 200.082 192.212 206.036 189.242Z" fill="#434343"/>
<path fill-rule="evenodd" clip-rule="evenodd" d="M127.128 195.166V196.24C128.039 196.189 128.941 196.139 129.828 196.084C130.725 196.038 131.612 195.988 132.489 195.937C132.913 195.912 133.332 195.887 133.746 195.862C134.644 195.811 135.53 195.761 136.407 195.711C137.431 195.65 138.435 195.59 139.434 195.529C140.93 195.438 142.397 195.353 143.845 195.262C145.087 195.191 146.321 195.111 147.534 195.035C149.026 194.94 150.493 194.849 151.94 194.753C153.529 194.647 155.093 194.546 156.638 194.441C157.52 194.375 158.402 194.315 159.275 194.254C159.694 194.224 160.113 194.194 160.532 194.163C161.414 194.103 162.291 194.037 163.164 193.972C164.168 193.901 165.167 193.825 166.166 193.745C167.633 193.634 169.09 193.523 170.548 193.402C171.4 193.337 172.253 193.266 173.111 193.191C174.559 193.075 176.011 192.949 177.473 192.823C179.008 192.686 180.558 192.545 182.118 192.399C182.98 192.324 183.848 192.238 184.725 192.157C185.135 192.117 185.549 192.077 185.963 192.036C186.826 191.956 187.693 191.87 188.566 191.779C189.545 191.688 190.535 191.587 191.534 191.487C192.957 191.341 194.394 191.189 195.857 191.033C196.354 190.983 196.856 190.933 197.358 190.877C197.65 190.841 197.811 190.509 197.66 190.252L195.189 186.038C195.019 185.751 194.755 185.544 194.448 185.459C194.078 185.353 193.517 185.192 192.796 184.995C191.5 184.632 189.682 184.143 187.552 183.624C186.45 183.357 185.266 183.08 184.023 182.813C183.039 182.595 182.015 182.384 180.972 182.182C180.5 182.092 180.022 182.001 179.54 181.915C178.555 181.739 177.556 181.572 176.557 181.426C174.827 181.164 173.087 180.957 171.4 180.826C169.846 180.705 168.335 180.655 166.907 180.685C166.863 180.685 166.824 180.685 166.781 180.69C165.889 180.71 165.016 180.746 164.163 180.796C162.652 180.877 161.195 180.998 159.796 181.159C158.797 181.27 157.822 181.401 156.877 181.552C156.019 181.683 155.181 181.829 154.367 181.991C153.967 182.067 153.573 182.147 153.188 182.228C152.349 182.409 151.54 182.601 150.751 182.807C149.264 183.186 147.856 183.604 146.525 184.062C145.175 184.516 143.903 185 142.709 185.509C141.623 185.968 140.594 186.446 139.629 186.93C138.343 187.576 137.163 188.231 136.071 188.886C135.233 189.39 134.444 189.889 133.712 190.383C132.986 190.862 132.314 191.336 131.685 191.789C131.358 192.026 131.042 192.258 130.739 192.48C130.013 193.019 129.355 193.523 128.761 193.977C128.156 194.43 127.61 194.834 127.128 195.166Z" fill="#9DD3FF"/>
<path fill-rule="evenodd" clip-rule="evenodd" d="M191.534 191.487L187.552 183.624C189.682 184.143 191.5 184.632 192.796 184.995L195.857 191.033C194.394 191.19 192.957 191.341 191.534 191.487Z" fill="#B1DCFF"/>
<path fill-rule="evenodd" clip-rule="evenodd" d="M173.111 193.191L166.78 180.691C166.824 180.686 166.863 180.686 166.907 180.686C167.178 180.68 167.452 180.678 167.729 180.678C168.91 180.678 170.141 180.729 171.4 180.827L177.473 192.823C176.011 192.949 174.559 193.075 173.111 193.191Z" fill="#B1DCFF"/>
<path fill-rule="evenodd" clip-rule="evenodd" d="M185.963 192.037L180.972 182.182C182.015 182.384 183.039 182.595 184.023 182.813L188.566 191.779C187.693 191.87 186.826 191.956 185.963 192.037Z" fill="#B1DCFF"/>
<path fill-rule="evenodd" clip-rule="evenodd" d="M182.118 192.4L176.557 181.427C177.556 181.573 178.555 181.739 179.54 181.916L184.725 192.158C183.848 192.239 182.98 192.324 182.118 192.4Z" fill="#B1DCFF"/>
<path fill-rule="evenodd" clip-rule="evenodd" d="M166.166 193.746L159.796 181.16C161.195 180.999 162.652 180.878 164.163 180.797L170.548 193.403C169.09 193.524 167.633 193.635 166.166 193.746Z" fill="#B1DCFF"/>
<path fill-rule="evenodd" clip-rule="evenodd" d="M147.534 195.035L142.709 185.509C143.903 185 145.175 184.516 146.525 184.062L151.94 194.753C150.493 194.849 149.026 194.94 147.534 195.035Z" fill="#B1DCFF"/>
<path fill-rule="evenodd" clip-rule="evenodd" d="M160.532 194.164L154.367 181.991C155.181 181.83 156.019 181.684 156.877 181.553L163.164 193.973C162.292 194.038 161.414 194.104 160.532 194.164Z" fill="#B1DCFF"/>
<path fill-rule="evenodd" clip-rule="evenodd" d="M156.638 194.441L150.751 182.808C151.54 182.602 152.349 182.41 153.188 182.229L159.275 194.255C158.402 194.315 157.52 194.376 156.638 194.441Z" fill="#B1DCFF"/>
<path fill-rule="evenodd" clip-rule="evenodd" d="M139.434 195.53L136.072 188.886C137.163 188.232 138.343 187.576 139.629 186.931L143.845 195.263C142.397 195.353 140.93 195.439 139.434 195.53Z" fill="#B1DCFF"/>
<path fill-rule="evenodd" clip-rule="evenodd" d="M133.746 195.862L131.685 191.79C132.314 191.336 132.986 190.862 133.712 190.384L136.407 195.711C135.53 195.761 134.644 195.812 133.746 195.862Z" fill="#B1DCFF"/>
<path fill-rule="evenodd" clip-rule="evenodd" d="M129.828 196.084L128.761 193.978C129.355 193.524 130.013 193.02 130.739 192.481L132.489 195.938C131.612 195.989 130.725 196.039 129.828 196.084Z" fill="#B1DCFF"/>
<path fill-rule="evenodd" clip-rule="evenodd" d="M170.744 179.902L169.994 193.914L163.883 194.331L166.53 179.492L170.744 179.902Z" fill="#434343"/>
<path fill-rule="evenodd" clip-rule="evenodd" d="M126.574 196.253H129.21V192.773L126.574 194.396V196.253Z" fill="#434343"/>
<path fill-rule="evenodd" clip-rule="evenodd" d="M169.085 180.198C154.774 179.682 141.492 184.811 133.839 189.785C129.843 192.383 126.686 194.435 126.484 195.007C123.922 202.228 126.068 220.662 126.804 221.638H127.306C127.354 221.638 127.394 221.638 127.442 221.638C173.379 221.638 183.85 220.947 184.533 220.367C187.888 217.519 204.259 201.196 202.594 198.053C200.479 194.06 195.595 185.883 195.138 185.119C186.946 182.492 180.266 180.602 169.085 180.198ZM127.306 221.995H126.759C126.671 221.995 126.593 221.945 126.526 221.847C125.547 220.395 123.585 202.139 126.158 194.883C126.392 194.226 128.757 192.666 133.656 189.482C141.352 184.479 154.702 179.322 169.098 179.84C180.349 180.247 187.056 182.151 195.302 184.797L195.364 184.817L195.398 184.874C195.451 184.962 200.684 193.702 202.898 197.88C204.869 201.602 186.369 219.271 184.752 220.643C183.68 221.553 164.938 221.995 127.448 221.995C127.402 221.995 127.352 221.995 127.306 221.995Z" fill="#434343"/>
<path fill-rule="evenodd" clip-rule="evenodd" d="M165.429 221.461L165.775 221.448C165.15 204.922 166.527 194.139 168.539 180.711L168.197 180.656C166.182 194.104 164.803 204.904 165.429 221.461Z" fill="#434343"/>
<path fill-rule="evenodd" clip-rule="evenodd" d="M127.555 194.197L128.128 195.801C128.234 196.095 128.518 196.279 128.822 196.249L130.16 196.12L135.385 195.622C135.563 195.607 135.703 195.462 135.727 195.283L135.958 193.162C135.972 193.042 135.963 192.927 135.934 192.818C135.89 192.648 135.799 192.489 135.669 192.37L134.162 190.96C133.993 190.801 133.748 190.756 133.536 190.851L127.911 193.351C127.594 193.49 127.435 193.864 127.555 194.197Z" fill="#FE3419"/>
<path fill-rule="evenodd" clip-rule="evenodd" d="M106.163 199.018C99.1747 204.626 93.4359 208.038 89.2132 207.514C89.2132 207.514 90.4023 203.579 94.1857 201.611C96.8269 200.238 106.163 199.018 106.163 199.018Z" fill="#E6E6E6"/>
<path fill-rule="evenodd" clip-rule="evenodd" d="M88.2043 216.846C88.2043 218.443 88.6565 219.738 89.2133 219.738C89.7707 219.738 90.2223 218.443 90.2223 216.846C90.2223 215.248 89.7707 213.954 89.2133 213.954C88.6565 213.954 88.2043 215.248 88.2043 216.846Z" fill="#E6E6E6"/>
<path fill-rule="evenodd" clip-rule="evenodd" d="M214.85 196.384L229.41 202.63C229.068 200.526 228.293 197.267 227.625 195.321H215.082C214.508 195.321 214.331 196.129 214.85 196.384Z" fill="#F6CD00"/>
<path fill-rule="evenodd" clip-rule="evenodd" d="M229.002 214.192L231.718 216.611C231.915 215.677 232.067 214.664 232.177 213.67H229.189C228.922 213.67 228.798 214.014 229.002 214.192Z" fill="#590018"/>
<path fill-rule="evenodd" clip-rule="evenodd" d="M155.885 201.01C155.885 201.702 156.808 202.263 157.947 202.263C159.085 202.263 160.008 201.702 160.008 201.01C160.008 200.319 159.085 199.758 157.947 199.758C156.808 199.758 155.885 200.319 155.885 201.01Z" fill="#CC3726"/>
<path fill-rule="evenodd" clip-rule="evenodd" d="M160.014 201.942C159.893 201.942 159.792 201.849 159.792 201.647H159.722C159.904 201.461 160.008 201.243 160.008 201.011C160.008 200.732 159.858 200.475 159.605 200.267H159.792C159.792 200.065 159.893 199.972 160.014 199.972C160.035 199.972 160.058 199.975 160.081 199.981C162.111 200.528 161.465 200.408 162.863 200.517C163.092 200.578 163.092 200.907 162.863 200.969C161.437 201.553 162.108 201.318 160.081 201.933C160.058 201.939 160.035 201.942 160.014 201.942ZM155.777 201.942C155.76 201.942 155.744 201.939 155.728 201.933C154.187 201.319 154.698 201.553 153.609 200.969C153.435 200.907 153.435 200.578 153.609 200.517C154.675 200.408 154.184 200.527 155.728 199.981C155.744 199.976 155.76 199.973 155.777 199.973C155.864 199.973 155.948 200.057 155.948 200.267H156.288C156.035 200.475 155.886 200.732 155.886 201.011C155.886 201.243 155.99 201.461 156.171 201.647H155.948C155.948 201.858 155.864 201.942 155.777 201.942Z" fill="#C52813"/>
<path fill-rule="evenodd" clip-rule="evenodd" d="M159.722 201.647H156.171C155.99 201.461 155.885 201.243 155.885 201.01C155.885 200.732 156.035 200.475 156.288 200.267H159.605C159.858 200.475 160.008 200.732 160.008 201.01C160.008 201.243 159.903 201.461 159.722 201.647Z" fill="#9E2B1E"/>
<path fill-rule="evenodd" clip-rule="evenodd" d="M159.792 200.743V201.493C159.792 201.646 159.935 201.758 160.081 201.719L161.747 201.27L162.863 200.969C163.092 200.908 163.092 200.578 162.863 200.517L161.747 200.216L160.081 199.767C159.935 199.727 159.792 199.84 159.792 199.993V200.743Z" fill="#FE7462"/>
<path fill-rule="evenodd" clip-rule="evenodd" d="M155.948 200.743V199.993C155.948 199.84 155.839 199.727 155.728 199.767L154.459 200.216L153.609 200.517C153.435 200.578 153.435 200.908 153.609 200.969L154.459 201.27L155.728 201.719C155.839 201.758 155.948 201.646 155.948 201.493V200.743Z" fill="#FE7462"/>
<path fill-rule="evenodd" clip-rule="evenodd" d="M155.576 201.433H159.921V200.053H155.576V201.433Z" fill="#FE7462"/>
<path fill-rule="evenodd" clip-rule="evenodd" d="M193.961 197.723C193.961 198.415 194.883 198.976 196.022 198.976C197.16 198.976 198.083 198.415 198.083 197.723C198.083 197.032 197.16 196.471 196.022 196.471C194.883 196.471 193.961 197.032 193.961 197.723Z" fill="#CC3726"/>
<path fill-rule="evenodd" clip-rule="evenodd" d="M198.089 198.655C197.968 198.655 197.867 198.562 197.867 198.36H197.797C197.979 198.173 198.083 197.956 198.083 197.723C198.083 197.445 197.933 197.188 197.68 196.979H197.867C197.867 196.778 197.968 196.685 198.089 196.685C198.111 196.685 198.133 196.688 198.156 196.694C200.186 197.241 199.54 197.121 200.939 197.229C201.167 197.291 201.167 197.62 200.939 197.681C199.513 198.266 200.183 198.031 198.156 198.645C198.133 198.652 198.111 198.655 198.089 198.655ZM193.852 198.654C193.836 198.654 193.819 198.651 193.803 198.646C192.263 198.031 192.774 198.266 191.684 197.681C191.511 197.62 191.511 197.291 191.684 197.229C192.75 197.121 192.259 197.24 193.803 196.694C193.819 196.688 193.835 196.685 193.852 196.685C193.938 196.685 194.023 196.769 194.023 196.98H194.364C194.111 197.188 193.961 197.445 193.961 197.724C193.961 197.956 194.065 198.174 194.247 198.36H194.023C194.023 198.571 193.939 198.654 193.852 198.654Z" fill="#C54635"/>
<path fill-rule="evenodd" clip-rule="evenodd" d="M197.797 198.36H194.246C194.065 198.174 193.961 197.956 193.961 197.724C193.961 197.445 194.11 197.188 194.363 196.98H197.68C197.933 197.188 198.083 197.445 198.083 197.724C198.083 197.956 197.979 198.174 197.797 198.36Z" fill="#9E2B1E"/>
<path fill-rule="evenodd" clip-rule="evenodd" d="M197.867 197.456V198.205C197.867 198.359 198.01 198.471 198.156 198.432L199.822 197.983L200.938 197.682C201.167 197.62 201.167 197.291 200.938 197.229L199.822 196.929L198.156 196.48C198.01 196.44 197.867 196.552 197.867 196.706V197.456Z" fill="#FE7462"/>
<path fill-rule="evenodd" clip-rule="evenodd" d="M194.023 197.456V196.706C194.023 196.552 193.914 196.44 193.803 196.48L192.534 196.929L191.684 197.229C191.511 197.291 191.511 197.62 191.684 197.682L192.534 197.983L193.803 198.432C193.914 198.471 194.023 198.359 194.023 198.205V197.456Z" fill="#FE7462"/>
<path fill-rule="evenodd" clip-rule="evenodd" d="M193.651 198.145H197.996V196.765H193.651V198.145Z" fill="#FE7462"/>
</g>
</svg>
