<svg width="23" height="20" viewBox="0 0 23 20" fill="none" xmlns="http://www.w3.org/2000/svg">
<path d="M11.9475 8.67026C11.7117 8.88981 11.7117 9.24192 11.9475 9.46148C12.9219 10.3687 12.9219 11.8434 11.9475 12.7506L6.83077 17.5145C5.85636 18.4217 4.27239 18.4217 3.29798 17.5145L2.52824 16.7978C1.55383 15.8906 1.55383 14.4159 2.52824 13.5087L7.645 8.74482C7.88082 8.52527 7.88082 8.17316 7.645 7.9536C7.40918 7.73405 7.03099 7.73405 6.79517 7.9536L1.67842 12.7175C0.979867 13.3679 0.592773 14.2336 0.592773 15.1533C0.592773 16.0729 0.975418 16.9387 1.67842 17.5891L2.44815 18.3057C3.16895 18.9768 4.11666 19.3123 5.06437 19.3123C6.01209 19.3123 6.9598 18.9768 7.68059 18.3057L12.7974 13.5418C14.2389 12.1997 14.2389 10.0124 12.7974 8.67026C12.566 8.45071 12.1833 8.45071 11.9475 8.67026Z" fill="#008FFF"/>
<path d="M20.9931 2.4109L20.2234 1.69425C18.7818 0.352079 16.4325 0.352079 14.9909 1.69425L9.87416 6.45813C8.43257 7.8003 8.43257 9.98754 9.87416 11.3297C10.11 11.5493 10.4882 11.5493 10.724 11.3297C10.9598 11.1102 10.9598 10.758 10.724 10.5385C9.74958 9.63128 9.74958 8.15655 10.724 7.24935L15.8407 2.48547C16.8152 1.57826 18.3991 1.57826 19.3735 2.48547L20.1433 3.20212C21.1177 4.10933 21.1177 5.58406 20.1433 6.49127L15.0265 11.2551C14.7907 11.4747 14.7907 11.8268 15.0265 12.0464C15.1422 12.1541 15.2979 12.2121 15.4492 12.2121C15.6005 12.2121 15.7562 12.1582 15.8719 12.0464L20.9886 7.28249C21.6872 6.63211 22.0743 5.76633 22.0743 4.84669C22.0743 3.92706 21.6916 3.06128 20.9931 2.4109Z" fill="#008FFF"/>
</svg>
