<svg width="20" height="18" viewBox="0 0 20 18" fill="none" xmlns="http://www.w3.org/2000/svg">
<path d="M8.21578 5.1H15.8109C15.9887 5.1 16.1331 4.9659 16.1331 4.8C16.1331 4.6341 15.9887 4.5 15.8109 4.5H8.21578C8.03791 4.5 7.89355 4.6341 7.89355 4.8C7.89355 4.9659 8.03791 5.1 8.21578 5.1Z" fill="#008FFF"/>
<path d="M8.21578 9.6H15.8109C15.9887 9.6 16.1331 9.4659 16.1331 9.3C16.1331 9.1341 15.9887 9 15.8109 9H8.21578C8.03791 9 7.89355 9.1341 7.89355 9.3C7.89355 9.4659 8.03791 9.6 8.21578 9.6Z" fill="#008FFF"/>
<path d="M8.21578 14.1H15.8109C15.9887 14.1 16.1331 13.9659 16.1331 13.8C16.1331 13.6341 15.9887 13.5 15.8109 13.5H8.21578C8.03791 13.5 7.89355 13.6341 7.89355 13.8C7.89355 13.9659 8.03791 14.1 8.21578 14.1Z" fill="#008FFF"/>
<path d="M19.6776 0H0.988726C0.810859 0 0.666504 0.1341 0.666504 0.3V17.7C0.666504 17.8659 0.810859 18 0.988726 18H19.6776C19.8555 18 19.9998 17.8659 19.9998 17.7V0.3C19.9998 0.1341 19.8555 0 19.6776 0ZM19.3554 17.4H1.31095V0.6H19.3554V17.4Z" fill="#008FFF"/>
<path d="M4.69459 5.54225L5.47695 5.15915L6.2593 5.54225L6.11012 4.73105L6.74296 4.15625L5.86813 4.03805L5.47695 3.30005L5.08577 4.03805L4.21094 4.15625L4.8441 4.73105L4.69459 5.54225Z" fill="#008FFF"/>
<path d="M4.69459 10.0672L5.47695 9.68405L6.2593 10.0672L6.11012 9.25595L6.74296 8.68145L5.86813 8.56295L5.47695 7.82495L5.08577 8.56295L4.21094 8.68145L4.8441 9.25595L4.69459 10.0672Z" fill="#008FFF"/>
<path d="M4.69459 14.7L5.47695 14.3169L6.2593 14.7L6.11012 13.8888L6.74296 13.3143L5.86813 13.1958L5.47695 12.4578L5.08577 13.1958L4.21094 13.3143L4.8441 13.8888L4.69459 14.7Z" fill="#008FFF"/>
</svg>
