<svg width="20" height="20" viewBox="0 0 20 20" fill="none" xmlns="http://www.w3.org/2000/svg">
<path d="M3.99984 5.66667H8.99984C9.18417 5.66667 9.33317 5.51733 9.33317 5.33333C9.33317 5.14933 9.18417 5 8.99984 5H3.99984C3.8155 5 3.6665 5.14933 3.6665 5.33333C3.6665 5.51733 3.8155 5.66667 3.99984 5.66667Z" fill="#008FFF"/>
<path d="M15.3332 7.66675H3.99984C3.8155 7.66675 3.6665 7.81608 3.6665 8.00008C3.6665 8.18408 3.8155 8.33341 3.99984 8.33341H15.3332C15.5175 8.33341 15.6665 8.18408 15.6665 8.00008C15.6665 7.81608 15.5175 7.66675 15.3332 7.66675Z" fill="#008FFF"/>
<path d="M15.3332 10.3335H3.99984C3.8155 10.3335 3.6665 10.4828 3.6665 10.6668C3.6665 10.8508 3.8155 11.0002 3.99984 11.0002H15.3332C15.5175 11.0002 15.6665 10.8508 15.6665 10.6668C15.6665 10.4828 15.5175 10.3335 15.3332 10.3335Z" fill="#008FFF"/>
<path d="M18 0.666748H2C0.916 0.666748 0 1.58275 0 2.66675V13.6667C0 14.7507 0.916 15.6667 2 15.6667H4.66667V19.0001C4.66667 19.1377 4.75133 19.2614 4.88 19.3111C4.919 19.3261 4.95967 19.3334 5 19.3334C5.092 19.3334 5.18233 19.2951 5.24667 19.2244L8.48067 15.6667H18C19.084 15.6667 20 14.7507 20 13.6667V2.66675C20 1.58275 19.084 0.666748 18 0.666748ZM19.3333 13.6667C19.3333 14.3894 18.7227 15.0001 18 15.0001H9.05967L10.2527 13.6131C10.3727 13.4737 10.357 13.2631 10.2177 13.1431C10.078 13.0237 9.86767 13.0391 9.74767 13.1784L8.087 15.1091L5.33333 18.1381V15.3334C5.33333 15.1494 5.18433 15.0001 5 15.0001H2C1.27733 15.0001 0.666667 14.3894 0.666667 13.6667V2.66675C0.666667 1.94408 1.27733 1.33341 2 1.33341H18C18.7227 1.33341 19.3333 1.94408 19.3333 2.66675V13.6667Z" fill="#008FFF"/>
</svg>
