<svg width="18" height="18" viewBox="0 0 18 18" fill="none" xmlns="http://www.w3.org/2000/svg">
<path d="M13.2041 15.4286H0.642718C0.464968 15.4286 0.321289 15.5726 0.321289 15.75C0.321289 15.9274 0.464968 16.0714 0.642718 16.0714H13.2041C13.361 17.1601 14.2973 18 15.4284 18C16.6688 18 17.6784 16.9907 17.6784 15.75C17.6784 14.5093 16.6688 13.5 15.4284 13.5C14.2973 13.5 13.361 14.3399 13.2041 15.4286ZM17.0356 15.75C17.0356 16.6362 16.3146 17.3571 15.4284 17.3571C14.5423 17.3571 13.8213 16.6362 13.8213 15.75C13.8213 14.8638 14.5423 14.1429 15.4284 14.1429C16.3146 14.1429 17.0356 14.8638 17.0356 15.75Z" fill="#008FFF"/>
<path d="M6.65182 8.67856H0.642718C0.464968 8.67856 0.321289 8.82256 0.321289 8.99998C0.321289 9.17741 0.464968 9.32141 0.642718 9.32141H6.63157C6.75886 10.4792 7.74243 11.3831 8.93332 11.3831C10.1242 11.3831 11.1078 10.4792 11.2351 9.32141H17.357C17.5347 9.32141 17.6784 9.17741 17.6784 8.99998C17.6784 8.82256 17.5347 8.67856 17.357 8.67856H11.2148C11.0294 7.5857 10.0783 6.74998 8.93332 6.74998C7.78839 6.74998 6.83729 7.5857 6.65182 8.67856ZM10.607 9.06652C10.607 9.98934 9.85614 10.7402 8.93332 10.7402C8.0105 10.7402 7.25964 9.98966 7.25964 9.06652C7.25964 8.14338 8.0105 7.39284 8.93332 7.39284C9.85614 7.39284 10.607 8.1437 10.607 9.06652Z" fill="#008FFF"/>
<path d="M2.57129 0C1.3309 0 0.321289 1.00929 0.321289 2.25C0.321289 3.49071 1.3309 4.5 2.57129 4.5C3.7024 4.5 4.63872 3.66011 4.79557 2.57143L17.357 2.57143C17.5347 2.57143 17.6784 2.42743 17.6784 2.25C17.6784 2.07257 17.5347 1.92857 17.357 1.92857L4.79557 1.92857C4.63872 0.839893 3.7024 0 2.57129 0ZM4.17843 2.25C4.17843 3.13618 3.45747 3.85714 2.57129 3.85714C1.68511 3.85714 0.964146 3.13618 0.964146 2.25C0.964146 1.36382 1.68511 0.642857 2.57129 0.642857C3.45747 0.642857 4.17843 1.36382 4.17843 2.25Z" fill="#008FFF"/>
</svg>
