<svg width="17" height="16" viewBox="0 0 17 16" fill="none" xmlns="http://www.w3.org/2000/svg">
<path d="M7.52783 4.25H9.13894V5.75H7.52783V4.25ZM7.52783 7.25H9.13894V11.75H7.52783V7.25ZM8.33339 0.5C3.88672 0.5 0.277832 3.86 0.277832 8C0.277832 12.14 3.88672 15.5 8.33339 15.5C12.7801 15.5 16.3889 12.14 16.3889 8C16.3889 3.86 12.7801 0.5 8.33339 0.5ZM8.33339 14C4.78089 14 1.88894 11.3075 1.88894 8C1.88894 4.6925 4.78089 2 8.33339 2C11.8859 2 14.7778 4.6925 14.7778 8C14.7778 11.3075 11.8859 14 8.33339 14Z" fill="#008FFF"/>
</svg>
