<svg width="240" height="240" viewBox="0 0 240 240" fill="none" xmlns="http://www.w3.org/2000/svg">
<path d="M217.5 37.4999C217.688 37.4999 122.438 0.93739 120 0C118.126 0.749817 22.3127 37.4999 22.5003 37.4999V106.5C22.5003 154.312 36.1879 216.75 120 240C203.625 216.75 217.313 153.187 217.313 106.5C217.5 82.875 217.5 37.4999 217.5 37.4999Z" fill="#D9DEE1"/>
<path d="M22.4995 106.5C22.4995 154.313 36.1871 216.75 120 240V0C116.437 1.31254 22.4995 37.4999 22.4995 37.4999C22.4995 37.4999 22.5 106.5 22.4995 106.5Z" fill="#BCC6CA"/>
<path d="M198.561 50.4375C198.749 50.4375 121.874 19.4998 119.811 18.75C118.124 19.3127 40.874 49.125 41.0616 48.9374V106.875C41.0616 147 48.9368 201.75 119.811 221.25C190.499 201.75 198.561 146.062 198.561 106.875C198.749 87 198.749 50.4375 198.561 50.4375Z" fill="#008FFF"/>
<path d="M119.999 18.75C118.311 19.3127 41.0618 49.125 41.2494 48.9374V106.875C41.2494 147 49.1246 201.75 119.999 221.25V18.75Z" fill="#008FFF"/>
<g clip-path="url(#clip0)">
<path fill-rule="evenodd" clip-rule="evenodd" d="M120.191 66.9157C116.958 66.9157 114.006 67.5916 111.648 68.7456C109.424 69.8302 107.756 71.3103 106.951 72.9872L103.953 81.2533C106.804 79.6142 110.076 78.5112 113.29 77.8986C115.495 77.4776 117.808 77.2543 120.191 77.2543C122.575 77.2543 124.889 77.4776 127.094 77.8986C130.308 78.5112 133.58 79.6142 136.43 81.2533L133.432 72.9872C132.628 71.3103 130.96 69.8302 128.736 68.7456C126.378 67.5916 123.425 66.9157 120.191 66.9157ZM98.7648 137.016C100.017 137.016 101.033 138.03 101.033 139.28C101.033 140.53 100.017 141.544 98.7648 141.544C97.5117 141.544 96.4963 140.53 96.4963 139.28C96.4963 138.03 97.5117 137.016 98.7648 137.016ZM102.33 130.778C101.544 131.824 101.749 133.31 102.79 134.094C103.838 134.879 105.321 134.668 106.107 133.622H106.114C114.695 122.238 123.387 110.037 127.943 101.216C130.531 96.222 132.302 92.5165 133.497 89.6144C134.129 88.0965 134.602 86.7887 134.953 85.6285C135.906 86.228 136.756 86.8907 137.49 87.5991C138.679 88.7346 139.561 89.9844 140.079 91.3045C140.271 92.3381 141.414 99.851 135.74 111.076C126.103 130.14 110.261 154.714 96.617 171.341L88.6288 156.194C90.5081 153.79 92.7 150.996 95.09 147.934C95.85 146.939 95.658 145.517 94.6549 144.752C93.6519 143.986 92.22 144.172 91.46 145.167C87.1591 150.785 84.2063 154.542 84.1817 154.581C83.6189 155.294 83.5617 156.251 83.9641 157.01L94.182 176.399C94.7633 177.496 96.1309 177.917 97.2308 177.343C97.5179 177.19 97.7609 176.986 97.9458 176.75C103.979 169.817 111.462 159.281 118.517 148.541C119.073 147.692 119.629 146.844 120.178 145.995C123.885 151.698 127.776 157.45 131.534 162.693C135.394 168.076 139.139 172.961 142.436 176.75C142.628 176.986 142.864 177.19 143.152 177.343C144.251 177.917 145.619 177.496 146.201 176.399L156.425 157.01C156.821 156.251 156.764 155.294 156.201 154.581C156.169 154.536 144.398 139.541 133.432 124.54C136.116 119.942 138.315 115.981 139.765 113.105C146.609 99.5636 144.475 90.2586 144.468 90.2331C143.637 86.3809 139.356 74.6202 137.522 71.0993C136.276 68.4714 133.86 66.246 130.71 64.7088C127.745 63.2612 124.102 62.3999 120.191 62.3999C116.28 62.3999 112.644 63.2612 109.673 64.7088C106.477 66.2653 104.043 68.5356 102.81 71.2083C100.925 75.3216 96.8283 86.0109 95.9142 90.2331C95.9081 90.2586 93.7734 99.5645 100.618 113.105C101.334 114.521 102.369 116.44 103.57 118.596C104.676 120.58 105.827 122.608 106.945 124.527C105.411 126.626 103.857 128.724 102.33 130.778V130.778ZM109.532 83.6C109.846 84.7742 110.331 86.1708 111.053 87.9058C112.191 90.6541 113.91 94.2454 116.447 99.1558C116.983 100.189 117.757 101.523 118.658 103.002C119.157 103.812 119.674 104.641 120.198 105.471C121.763 103.028 123.042 100.878 123.937 99.1567C126.474 94.2454 128.193 90.655 129.33 87.9058C130.052 86.1708 130.538 84.7742 130.851 83.6009C129.426 83.0648 127.885 82.6376 126.243 82.3247C124.345 81.9617 122.314 81.764 120.191 81.764C118.07 81.764 116.037 81.9617 114.14 82.3247C112.497 82.6367 110.957 83.0648 109.532 83.6ZM117.495 109.584C116.524 108.098 115.603 106.644 114.811 105.349C113.853 103.78 113.021 102.352 112.44 101.216C109.852 96.222 108.088 92.5165 106.887 89.6144C106.254 88.0965 105.782 86.7887 105.429 85.6285C104.477 86.228 103.628 86.8915 102.892 87.5991C101.704 88.7346 100.822 89.9844 100.304 91.3045C100.113 92.3381 98.9691 99.851 104.644 111.076C105.359 112.492 106.363 114.349 107.507 116.409C108.196 117.645 108.989 119.043 109.846 120.522C112.593 116.701 115.213 112.97 117.495 109.584V109.584ZM122.85 141.843C126.812 147.985 131.068 154.313 135.21 160.084C138.193 164.249 141.101 168.096 143.766 171.341L151.754 156.2C148.897 152.539 139.708 140.708 130.934 128.763C128.48 132.864 125.738 137.309 122.85 141.843V141.843Z" fill="white"/>
</g>
<defs>
<clipPath id="clip0">
<rect x="62.3999" y="62.3999" width="115.2" height="115.2" fill="white"/>
</clipPath>
</defs>
</svg>
