<svg width="60" height="60" viewBox="0 0 60 60" fill="none" xmlns="http://www.w3.org/2000/svg">
<path d="M54.3751 9.37498C54.422 9.37498 30.6095 0.234348 30.0001 0C29.5314 0.187454 5.57818 9.37498 5.62507 9.37498V26.6249C5.62507 38.5781 9.04697 54.1875 30.0001 59.9999C50.9063 54.1874 54.3282 38.2967 54.3282 26.6249C54.3751 20.7188 54.3751 9.37498 54.3751 9.37498Z" fill="#D9DEE1"/>
<path d="M5.625 26.6251C5.625 38.5782 9.0469 54.1876 30 60V0C29.1094 0.328134 5.625 9.37497 5.625 9.37497C5.625 9.37497 5.62512 26.6251 5.625 26.6251Z" fill="#BCC6CA"/>
<path d="M49.6404 12.6094C49.6873 12.6094 30.4685 4.87495 29.9529 4.6875C29.531 4.82818 10.2186 12.2812 10.2655 12.2343V26.7187C10.2655 36.7499 12.2343 50.4374 29.9529 55.3124C47.6248 50.4374 49.6404 36.5156 49.6404 26.7187C49.6873 21.75 49.6873 12.6094 49.6404 12.6094Z" fill="#008FFF"/>
<path d="M29.9998 4.6875C29.5779 4.82818 10.2654 12.2812 10.3123 12.2343V26.7187C10.3123 36.7499 12.2811 50.4374 29.9998 55.3124V4.6875Z" fill="#008FFF"/>
<g clip-path="url(#clip0)">
<path fill-rule="evenodd" clip-rule="evenodd" d="M30.048 16.7291C29.2395 16.7291 28.5016 16.898 27.912 17.1865C27.3561 17.4577 26.9391 17.8277 26.7379 18.2469L25.9885 20.3135C26.7011 19.9037 27.519 19.6279 28.3226 19.4748C28.8739 19.3695 29.4522 19.3137 30.048 19.3137C30.6439 19.3137 31.2223 19.3695 31.7735 19.4748C32.5771 19.6279 33.395 19.9037 34.1076 20.3135L33.3582 18.2469C33.157 17.8277 32.74 17.4577 32.1841 17.1865C31.5946 16.898 30.8564 16.7291 30.048 16.7291ZM24.6913 34.254C25.0044 34.254 25.2585 34.5076 25.2585 34.82C25.2585 35.1327 25.0044 35.3861 24.6913 35.3861C24.378 35.3861 24.1242 35.1327 24.1242 34.82C24.1242 34.5076 24.378 34.254 24.6913 34.254ZM25.5827 32.6946C25.3861 32.9561 25.4374 33.3277 25.6977 33.5236C25.9597 33.7199 26.3304 33.6671 26.527 33.4057H26.5285C28.674 30.5595 30.8469 27.5093 31.986 25.3041C32.6328 24.0556 33.0756 23.1293 33.3743 22.4037C33.5324 22.0242 33.6506 21.6973 33.7384 21.4073C33.9767 21.5571 34.1891 21.7228 34.3727 21.8999C34.6699 22.1838 34.8903 22.4962 35.0198 22.8263C35.0677 23.0847 35.3537 24.9629 33.935 27.7692C31.5259 32.5351 27.5653 38.6787 24.1544 42.8354L22.1573 39.0487C22.6271 38.4475 23.1751 37.749 23.7726 36.9837C23.9626 36.735 23.9146 36.3794 23.6639 36.1881C23.4131 35.9967 23.0551 36.043 22.8651 36.2918C21.7899 37.6965 21.0517 38.6356 21.0455 38.6453C20.9049 38.8237 20.8905 39.063 20.9912 39.2526L23.5456 44.1C23.6909 44.3742 24.0328 44.4794 24.3078 44.336C24.3796 44.2977 24.4404 44.2465 24.4866 44.1876C25.9949 42.4544 27.8655 39.8204 29.6294 37.1353C29.7684 36.923 29.9073 36.711 30.0447 36.499C30.9713 37.9246 31.9442 39.3627 32.8836 40.6733C33.8485 42.0192 34.7848 43.2404 35.6091 44.1876C35.6571 44.2465 35.7161 44.2977 35.7881 44.336C36.0629 44.4794 36.4048 44.3742 36.5503 44.1L39.1063 39.2526C39.2054 39.063 39.1911 38.8237 39.0504 38.6453C39.0425 38.6341 36.0996 34.8853 33.3582 31.1352C34.029 29.9856 34.5788 28.9953 34.9414 28.2764C36.6524 24.891 36.1188 22.5648 36.1172 22.5584C35.9094 21.5953 34.839 18.6552 34.3806 17.775C34.0691 17.118 33.4652 16.5616 32.6775 16.1773C31.9365 15.8154 31.0257 15.6001 30.048 15.6001C29.0702 15.6001 28.1612 15.8154 27.4184 16.1773C26.6195 16.5665 26.0109 17.134 25.7025 17.8022C25.2314 18.8305 24.2072 21.5028 23.9787 22.5584C23.9771 22.5648 23.4435 24.8912 25.1545 28.2764C25.3335 28.6303 25.5924 29.1102 25.8927 29.6492C26.169 30.1451 26.4568 30.652 26.7364 31.1319C26.3529 31.6566 25.9645 32.1811 25.5827 32.6946V32.6946ZM27.3832 20.9001C27.4616 21.1937 27.5829 21.5428 27.7634 21.9766C28.0478 22.6637 28.4776 23.5615 29.1119 24.7891C29.2459 25.0475 29.4394 25.3808 29.6647 25.7506C29.7893 25.9532 29.9187 26.1604 30.0497 26.3678C30.4409 25.7572 30.7606 25.2197 30.9843 24.7893C31.6186 23.5615 32.0483 22.6639 32.3325 21.9766C32.5131 21.5428 32.6346 21.1937 32.713 20.9003C32.3565 20.7663 31.9715 20.6595 31.5609 20.5813C31.0864 20.4906 30.5785 20.4411 30.048 20.4411C29.5176 20.4411 29.0095 20.4906 28.535 20.5813C28.1245 20.6593 27.7394 20.7663 27.3832 20.9001ZM29.3738 27.3961C29.131 27.0246 28.9009 26.6611 28.7028 26.3373C28.4633 25.9451 28.2554 25.588 28.1101 25.3041C27.4631 24.0556 27.0221 23.1293 26.7218 22.4037C26.5635 22.0242 26.4455 21.6973 26.3575 21.4073C26.1195 21.5571 25.907 21.723 25.7232 21.8999C25.4262 22.1838 25.2056 22.4962 25.0762 22.8263C25.0284 23.0847 24.7424 24.9629 26.1611 27.7692C26.3399 28.1232 26.5908 28.5873 26.8768 29.1023C27.0492 29.4115 27.2473 29.7608 27.4616 30.1306C28.1484 29.1755 28.8034 28.2427 29.3738 27.3961V27.3961ZM30.7126 35.461C31.7031 36.9964 32.7671 38.5782 33.8025 40.0212C34.5484 41.0625 35.2754 42.024 35.9415 42.8354L37.9386 39.0502C37.2244 38.1348 34.9271 35.1771 32.7336 32.1908C32.1201 33.216 31.4347 34.3274 30.7126 35.461V35.461Z" fill="white"/>
</g>
<defs>
<clipPath id="clip0">
<rect x="15.6001" y="15.6001" width="28.8" height="28.8" fill="white"/>
</clipPath>
</defs>
</svg>
