<svg width="24" height="24" viewBox="0 0 24 24" fill="none" xmlns="http://www.w3.org/2000/svg">
<path d="M20.333 0C20.333 0 20.333 0 20.333 0H3.67686C1.64893 0 0.00488281 1.644 0.00488281 3.67192C0.00488281 3.67545 0.00488281 3.67897 0.00488281 3.68254V20.328C0.00488281 22.3519 1.64243 23.9941 3.66624 24H20.3329C22.3567 23.9941 23.9943 22.3519 23.9943 20.328V3.68254C24.0002 1.65456 22.361 0.00585317 20.333 0ZM18.8303 12C18.8247 12.2782 18.6006 12.5023 18.3224 12.5079H6.92557L9.16898 14.7513C9.37061 14.9464 9.37592 15.268 9.18088 15.4696C9.17696 15.4736 9.17299 15.4776 9.16898 15.4815C9.07672 15.5826 8.94611 15.6403 8.80921 15.6402C8.67508 15.6414 8.5473 15.5833 8.46 15.4815L5.28539 12.3069C5.24045 12.2626 5.20131 12.2129 5.16897 12.1587C5.11605 12.0299 5.11605 11.8854 5.16897 11.7566C5.19675 11.6995 5.23643 11.649 5.28539 11.6084L8.46 8.43383C8.64423 8.23805 8.95231 8.22867 9.14809 8.4129C9.15529 8.41964 9.16223 8.42664 9.16903 8.43383C9.36774 8.62346 9.37508 8.93829 9.18545 9.137C9.18009 9.14261 9.17463 9.14807 9.16903 9.15342L6.92562 11.4921H17.8145V8.8254C17.837 8.54886 18.0773 8.34152 18.3542 8.35977C18.6324 8.36538 18.8565 8.58953 18.8621 8.86771L18.8303 12Z" fill="#83959D"/>
</svg>
