<svg width="131" height="131" viewBox="0 0 131 131" fill="none" xmlns="http://www.w3.org/2000/svg">
<path fill-rule="evenodd" clip-rule="evenodd" d="M80.1302 40.7206L99.7021 10C113.205 18.5049 122.496 31.1351 126.96 45.1932L92.0895 56.1575C90.1274 49.9889 86.0558 44.4523 80.1302 40.7206Z" fill="url(#paint0_linear)"/>
<mask id="mask0" mask-type="alpha" maskUnits="userSpaceOnUse" x="65" y="45" width="65" height="85">
<path fill-rule="evenodd" clip-rule="evenodd" d="M65.8883 45.2568H129.986V129.546H65.8883V45.2568Z" fill="white"/>
</mask>
<g mask="url(#mask0)">
<path fill-rule="evenodd" clip-rule="evenodd" d="M92.0727 56.2219L126.942 45.2568C128.641 50.6004 129.641 56.152 129.913 61.7586C130.328 70.4641 128.99 79.3086 125.768 87.7443C124.232 91.7615 122.27 95.6946 119.862 99.4728C107.937 118.187 87.9656 128.751 67.2654 129.546L65.8883 93.2035C74.9702 92.8564 83.7353 88.2222 88.9663 80.0097C93.663 72.638 94.5238 63.94 92.0727 56.2219Z" fill="url(#paint1_linear)"/>
</g>
<path fill-rule="evenodd" clip-rule="evenodd" d="M80.1133 40.7846L99.6851 10.064C73.0804 -6.6902 38.9312 -1.90499 17.9067 19.8058L44.2302 45.0558C53.4542 35.5282 68.4389 33.4295 80.1133 40.7846Z" fill="url(#paint2_linear)"/>
<mask id="mask1" mask-type="alpha" maskUnits="userSpaceOnUse" x="0" y="19" width="68" height="111">
<path fill-rule="evenodd" clip-rule="evenodd" d="M0 19.8057H67.6234V129.593H0V19.8057Z" fill="white"/>
</mask>
<g mask="url(#mask1)">
<path fill-rule="evenodd" clip-rule="evenodd" d="M18.0162 20.0687C17.426 20.6849 16.8462 21.3146 16.2779 21.9578C16.1388 22.1149 16.0005 22.2727 15.8629 22.432C15.2719 23.1135 14.6922 23.8094 14.1253 24.521C14.0255 24.6465 13.925 24.7735 13.8253 24.9005C13.2267 25.6654 12.6401 26.4447 12.071 27.2427C12.0173 27.3171 11.9644 27.3923 11.9108 27.4674C11.2963 28.3361 10.6985 29.2213 10.1218 30.1275C9.78165 30.6603 9.45287 31.1976 9.13165 31.7364C9.02055 31.9212 8.91322 32.1076 8.80514 32.2939C8.59578 32.6524 8.38869 33.0123 8.18688 33.373C8.06671 33.5872 7.9488 33.8021 7.83165 34.0177C7.6427 34.3634 7.45904 34.7106 7.27764 35.0592C7.16654 35.2704 7.05543 35.4823 6.94735 35.695C6.7395 36.1053 6.5377 36.5186 6.33816 36.9326C6.26863 37.0769 6.19531 37.2204 6.12729 37.3654C5.87334 37.9042 5.62921 38.4445 5.39113 38.9871C5.29816 39.2005 5.20973 39.4139 5.11904 39.6265C4.96863 39.9797 4.82049 40.3321 4.67764 40.6868C4.5809 40.9243 4.48717 41.1625 4.39421 41.4007C4.26119 41.7411 4.13119 42.0823 4.00497 42.4234C3.91729 42.6586 3.82962 42.8938 3.74572 43.1283C3.60741 43.5138 3.4759 43.9 3.3459 44.2862C3.28316 44.4734 3.21665 44.6605 3.15467 44.8483C2.97404 45.4029 2.80171 45.959 2.63619 46.5165C2.57723 46.7157 2.52281 46.9155 2.46613 47.1154C2.35654 47.4987 2.24921 47.8819 2.14642 48.2666C2.0852 48.4981 2.027 48.7295 1.96805 48.961C1.87584 49.3232 1.78741 49.6861 1.70124 50.0498C1.64758 50.2783 1.59392 50.5067 1.54328 50.7359C1.45258 51.1394 1.36793 51.5429 1.2863 51.9465C1.24927 52.1283 1.20997 52.3102 1.17369 52.492C1.06183 53.0699 0.957523 53.6492 0.860779 54.2279C0.837349 54.3691 0.818454 54.5089 0.795779 54.6494C0.723977 55.1025 0.655198 55.5549 0.593221 56.0088C0.566012 56.2117 0.540314 56.4153 0.514616 56.6182C0.463221 57.0195 0.415605 57.4215 0.372523 57.8235C0.350605 58.0272 0.328686 58.2308 0.308279 58.4352C0.265954 58.871 0.228163 59.3061 0.194151 59.742C0.182058 59.9013 0.167698 60.0598 0.156361 60.2184C0.113279 60.8195 0.0785118 61.4214 0.05357 62.0226C0.0520583 62.0542 0.0513025 62.0857 0.0505467 62.1173C0.0278723 62.6816 0.012756 63.2467 0.00444204 63.811C0.0021746 63.9741 0.0021746 64.1364 0.00141879 64.2987C-0.00160447 64.7428 -9.28417e-05 65.1862 0.00519786 65.6288C0.00822111 65.8054 0.0112444 65.982 0.0150234 66.1578C0.024849 66.6192 0.0407211 67.0806 0.0603723 67.5405C0.0664188 67.678 0.0709537 67.8155 0.077756 67.9523C0.138221 69.1628 0.232698 70.3712 0.36043 71.5742C0.373279 71.6945 0.388396 71.8147 0.402 71.9349C0.455663 72.4151 0.514616 72.8938 0.578861 73.3717C0.598512 73.5235 0.62043 73.6745 0.642349 73.8271C0.708861 74.2982 0.781419 74.7694 0.858512 75.239C0.879675 75.3653 0.89857 75.4915 0.920489 75.6185C1.12607 76.8201 1.36415 78.0156 1.63624 79.2036C1.65665 79.2923 1.67857 79.3795 1.69898 79.4674C1.81462 79.9634 1.93706 80.4578 2.06404 80.9508C2.10107 81.0935 2.13886 81.2348 2.17665 81.3776C2.29834 81.8329 2.4238 82.2876 2.55531 82.7399C2.59386 82.8737 2.63165 83.0082 2.67171 83.142C2.83043 83.6792 2.99595 84.215 3.16979 84.7486C3.18037 84.7839 3.19171 84.8184 3.20229 84.8538C3.39502 85.4421 3.59607 86.0275 3.80543 86.6106C3.83264 86.6873 3.86212 86.7624 3.88933 86.8391C4.06543 87.3223 4.24607 87.8024 4.43276 88.2811C4.49171 88.4329 4.55217 88.5847 4.6134 88.7357C4.77741 89.1483 4.94595 89.5586 5.11904 89.9681C5.18177 90.1154 5.24374 90.2627 5.30648 90.4092C5.59293 91.0705 5.8877 91.728 6.19531 92.3802C6.21874 92.4291 6.24293 92.4787 6.26636 92.5283C6.56264 93.1505 6.8695 93.7689 7.18619 94.3828C7.23456 94.4768 7.28217 94.5707 7.33055 94.6646C7.67293 95.3206 8.02514 95.9714 8.3902 96.6169C8.41514 96.6612 8.44084 96.7048 8.46653 96.7491C8.81799 97.3676 9.18154 97.9808 9.55415 98.5887C9.59572 98.6555 9.63578 98.7224 9.67659 98.7886C10.0726 99.4288 10.48 100.063 10.8995 100.69C10.9312 100.739 10.9645 100.786 10.9962 100.833C11.4006 101.435 11.8163 102.032 12.2426 102.622C12.2758 102.668 12.3076 102.713 12.3408 102.758C12.7883 103.374 13.2478 103.983 13.7179 104.584C13.761 104.64 13.8056 104.693 13.8479 104.748C14.3029 105.326 14.7685 105.898 15.2447 106.462C15.2696 106.492 15.2946 106.522 15.3203 106.552C15.8146 107.136 16.3217 107.71 16.8387 108.279C16.8984 108.345 16.9596 108.409 17.0201 108.475C17.5212 109.021 18.0321 109.561 18.5551 110.092C18.5733 110.111 18.5914 110.129 18.6096 110.148C19.1469 110.693 19.6979 111.228 20.2572 111.756C20.3389 111.833 20.4205 111.909 20.5029 111.985C21.0471 112.493 21.5996 112.995 22.1649 113.488C22.1793 113.5 22.1929 113.513 22.2065 113.525C22.7824 114.025 23.3697 114.514 23.9653 114.996C24.0741 115.084 24.1829 115.171 24.2918 115.257C24.879 115.727 25.4739 116.19 26.0808 116.641C26.0883 116.647 26.0951 116.653 26.1027 116.658C26.7104 117.11 27.3324 117.551 27.9605 117.984C28.0996 118.08 28.2394 118.176 28.38 118.271C29.0096 118.699 29.6452 119.12 30.2944 119.529C41.8735 126.823 54.8841 130.031 67.6233 129.546L66.2455 93.2038C60.6585 93.4195 54.9499 92.0165 49.8662 88.8161C49.2896 88.4532 48.7371 88.0669 48.1967 87.6702C48.0886 87.592 47.9828 87.5131 47.8769 87.4335C46.7984 86.6204 45.7939 85.7435 44.8628 84.8109C44.7864 84.7343 44.7101 84.6591 44.6353 84.5817C44.1704 84.1046 43.72 83.6176 43.2937 83.1134C43.2854 83.1044 43.2778 83.0939 43.2695 83.0841C42.8561 82.5949 42.4653 82.0907 42.0889 81.5782C42.0269 81.4933 41.9635 81.4091 41.9015 81.3242C41.5236 80.7975 41.1623 80.2617 40.8237 79.7139C40.7987 79.6733 40.7761 79.632 40.7511 79.5921C40.4367 79.0774 40.1427 78.5544 39.863 78.0239C39.8139 77.9307 39.764 77.839 39.7157 77.7458C39.4254 77.18 39.1526 76.6066 38.9016 76.0243C38.8933 76.0055 38.8835 75.9882 38.876 75.9694C38.8487 75.9063 38.8268 75.8409 38.7996 75.7763C38.6303 75.372 38.4693 74.9647 38.3182 74.5529C38.2736 74.4312 38.2305 74.3087 38.1874 74.1862C38.0491 73.7917 37.9191 73.3942 37.7989 72.9944C37.7649 72.8832 37.7301 72.772 37.6976 72.6601C37.5571 72.1731 37.4271 71.6839 37.3122 71.1902C37.3084 71.1737 37.3039 71.1564 37.3001 71.1399C37.1769 70.6064 37.0703 70.0698 36.9789 69.5295C36.9683 69.4687 36.9607 69.4063 36.9501 69.3447C36.8768 68.8916 36.8133 68.4369 36.7612 67.9808C36.7461 67.844 36.7332 67.7073 36.7196 67.5698C36.6803 67.1775 36.6501 66.7838 36.6267 66.3892C36.6183 66.2427 36.61 66.0977 36.604 65.9512C36.5858 65.5221 36.5783 65.093 36.5798 64.6632C36.5798 64.5662 36.5775 64.4693 36.5783 64.3724C36.5858 63.8411 36.6078 63.3106 36.6448 62.7793C36.6508 62.6951 36.6614 62.6102 36.6682 62.5261C36.703 62.0902 36.7476 61.6559 36.802 61.2216C36.8232 61.0547 36.8489 60.8872 36.873 60.7203C36.9252 60.3619 36.9842 60.0042 37.0499 59.6465C37.0832 59.4677 37.1164 59.2888 37.1527 59.1115C37.229 58.7418 37.3144 58.3736 37.4051 58.0061C37.4422 57.8558 37.4754 57.7048 37.5155 57.5538C37.6508 57.0443 37.7982 56.5371 37.9637 56.0321C37.9886 55.9547 38.0189 55.8788 38.0446 55.8021C38.1889 55.3731 38.3431 54.9462 38.5086 54.5224C38.5751 54.3541 38.6462 54.1865 38.7157 54.019C38.8548 53.6823 38.9999 53.3472 39.1533 53.0143C39.235 52.8369 39.3181 52.6588 39.4043 52.4815C39.5683 52.1434 39.7414 51.8082 39.9197 51.4746C40.0029 51.3198 40.0822 51.165 40.1684 51.0109C40.4367 50.5308 40.7164 50.0528 41.0164 49.5824C41.9 48.1938 42.8901 46.9148 43.9611 45.7358C44.1689 45.5073 44.3737 45.2766 44.5876 45.0557L18.2649 19.8057C18.181 19.8928 18.0994 19.9823 18.0162 20.0687Z" fill="url(#paint3_linear)"/>
</g>
<path d="M16.35 87.24L17.29 86.96C17.3167 87.36 17.4633 87.6833 17.73 87.93C18.0033 88.1767 18.3433 88.3 18.75 88.3C19.1433 88.3 19.4733 88.18 19.74 87.94C20.0067 87.7 20.14 87.3833 20.14 86.99C20.14 86.5633 20.0067 86.2333 19.74 86C19.4733 85.7667 19.14 85.65 18.74 85.65C18.2533 85.65 17.86 85.8067 17.56 86.12C17.4667 86.0867 17.3133 86.0267 17.1 85.94C16.8867 85.8533 16.72 85.7867 16.6 85.74L17.44 82.52H20.86V83.42H18.09L17.61 85.28C17.8967 84.96 18.3367 84.8 18.93 84.8C19.5767 84.8 20.1033 84.9933 20.51 85.38C20.9233 85.7667 21.13 86.29 21.13 86.95C21.13 87.5767 20.91 88.1033 20.47 88.53C20.03 88.95 19.4567 89.16 18.75 89.16C18.0833 89.16 17.5267 88.9733 17.08 88.6C16.64 88.2267 16.3967 87.7733 16.35 87.24ZM21.8285 87.24L22.7685 86.96C22.7952 87.36 22.9418 87.6833 23.2085 87.93C23.4818 88.1767 23.8218 88.3 24.2285 88.3C24.6218 88.3 24.9518 88.18 25.2185 87.94C25.4852 87.7 25.6185 87.3833 25.6185 86.99C25.6185 86.5633 25.4852 86.2333 25.2185 86C24.9518 85.7667 24.6185 85.65 24.2185 85.65C23.7318 85.65 23.3385 85.8067 23.0385 86.12C22.9452 86.0867 22.7918 86.0267 22.5785 85.94C22.3652 85.8533 22.1985 85.7867 22.0785 85.74L22.9185 82.52H26.3385V83.42H23.5685L23.0885 85.28C23.3752 84.96 23.8152 84.8 24.4085 84.8C25.0552 84.8 25.5818 84.9933 25.9885 85.38C26.4018 85.7667 26.6085 86.29 26.6085 86.95C26.6085 87.5767 26.3885 88.1033 25.9485 88.53C25.5085 88.95 24.9352 89.16 24.2285 89.16C23.5618 89.16 23.0052 88.9733 22.5585 88.6C22.1185 88.2267 21.8752 87.7733 21.8285 87.24ZM28.4594 83.46C28.3127 83.6067 28.2394 83.7933 28.2394 84.02C28.2394 84.2467 28.3127 84.4367 28.4594 84.59C28.606 84.7367 28.7894 84.81 29.0094 84.81C29.2294 84.81 29.4127 84.7367 29.5594 84.59C29.706 84.4367 29.7794 84.2467 29.7794 84.02C29.7794 83.7933 29.706 83.6067 29.5594 83.46C29.4127 83.3133 29.2294 83.24 29.0094 83.24C28.7894 83.24 28.606 83.3133 28.4594 83.46ZM27.4094 84.02C27.4094 83.5867 27.566 83.2167 27.8794 82.91C28.1994 82.6033 28.576 82.45 29.0094 82.45C29.4427 82.45 29.8194 82.6033 30.1394 82.91C30.4594 83.2167 30.6194 83.5867 30.6194 84.02C30.6194 84.46 30.4594 84.8333 30.1394 85.14C29.8194 85.4467 29.4427 85.6 29.0094 85.6C28.576 85.6 28.1994 85.4467 27.8794 85.14C27.566 84.8333 27.4094 84.46 27.4094 84.02ZM32.4194 86.94C32.2727 87.0867 32.1994 87.2733 32.1994 87.5C32.1994 87.7267 32.2727 87.9167 32.4194 88.07C32.566 88.2167 32.7494 88.29 32.9694 88.29C33.1894 88.29 33.3727 88.2167 33.5194 88.07C33.666 87.9167 33.7394 87.7267 33.7394 87.5C33.7394 87.2733 33.666 87.0867 33.5194 86.94C33.3727 86.7933 33.1894 86.72 32.9694 86.72C32.7494 86.72 32.566 86.7933 32.4194 86.94ZM31.3694 87.5C31.3694 87.0667 31.526 86.6967 31.8394 86.39C32.1594 86.0833 32.536 85.93 32.9694 85.93C33.4027 85.93 33.7794 86.0833 34.0994 86.39C34.4194 86.6967 34.5794 87.0667 34.5794 87.5C34.5794 87.94 34.4194 88.3133 34.0994 88.62C33.7794 88.9267 33.4027 89.08 32.9694 89.08C32.536 89.08 32.1594 88.9267 31.8394 88.62C31.526 88.3133 31.3694 87.94 31.3694 87.5ZM29.1294 89H28.2094L32.8694 82.52H33.7694L29.1294 89Z" fill="white"/>
<path d="M50.78 22H49.82V17.43H48.25V16.74C48.69 16.7333 49.06 16.62 49.36 16.4C49.66 16.1733 49.8467 15.88 49.92 15.52H50.78V22ZM52.9842 17.85L52.0042 17.73C51.9976 17.67 51.9942 17.5833 51.9942 17.47C51.9942 16.89 52.1976 16.3967 52.6042 15.99C53.0109 15.5767 53.5542 15.37 54.2342 15.37C54.9076 15.37 55.4409 15.5633 55.8342 15.95C56.2276 16.33 56.4242 16.8 56.4242 17.36C56.4242 18.18 56.0176 18.8467 55.2042 19.36L53.9242 20.18C53.4642 20.4733 53.2009 20.7767 53.1342 21.09H56.4642V22H51.9242C51.9376 21.4533 52.0609 20.9733 52.2942 20.56C52.5342 20.1467 52.9242 19.7667 53.4642 19.42L54.5442 18.72C55.1376 18.34 55.4342 17.89 55.4342 17.37C55.4342 17.05 55.3276 16.78 55.1142 16.56C54.9009 16.34 54.6009 16.23 54.2142 16.23C53.8076 16.23 53.4976 16.3533 53.2842 16.6C53.0709 16.8467 52.9642 17.1667 52.9642 17.56C52.9642 17.62 52.9709 17.7167 52.9842 17.85ZM58.4672 16.46C58.3205 16.6067 58.2472 16.7933 58.2472 17.02C58.2472 17.2467 58.3205 17.4367 58.4672 17.59C58.6139 17.7367 58.7972 17.81 59.0172 17.81C59.2372 17.81 59.4205 17.7367 59.5672 17.59C59.7139 17.4367 59.7872 17.2467 59.7872 17.02C59.7872 16.7933 59.7139 16.6067 59.5672 16.46C59.4205 16.3133 59.2372 16.24 59.0172 16.24C58.7972 16.24 58.6139 16.3133 58.4672 16.46ZM57.4172 17.02C57.4172 16.5867 57.5739 16.2167 57.8872 15.91C58.2072 15.6033 58.5839 15.45 59.0172 15.45C59.4505 15.45 59.8272 15.6033 60.1472 15.91C60.4672 16.2167 60.6272 16.5867 60.6272 17.02C60.6272 17.46 60.4672 17.8333 60.1472 18.14C59.8272 18.4467 59.4505 18.6 59.0172 18.6C58.5839 18.6 58.2072 18.4467 57.8872 18.14C57.5739 17.8333 57.4172 17.46 57.4172 17.02ZM62.4272 19.94C62.2805 20.0867 62.2072 20.2733 62.2072 20.5C62.2072 20.7267 62.2805 20.9167 62.4272 21.07C62.5739 21.2167 62.7572 21.29 62.9772 21.29C63.1972 21.29 63.3805 21.2167 63.5272 21.07C63.6739 20.9167 63.7472 20.7267 63.7472 20.5C63.7472 20.2733 63.6739 20.0867 63.5272 19.94C63.3805 19.7933 63.1972 19.72 62.9772 19.72C62.7572 19.72 62.5739 19.7933 62.4272 19.94ZM61.3772 20.5C61.3772 20.0667 61.5339 19.6967 61.8472 19.39C62.1672 19.0833 62.5439 18.93 62.9772 18.93C63.4105 18.93 63.7872 19.0833 64.1072 19.39C64.4272 19.6967 64.5872 20.0667 64.5872 20.5C64.5872 20.94 64.4272 21.3133 64.1072 21.62C63.7872 21.9267 63.4105 22.08 62.9772 22.08C62.5439 22.08 62.1672 21.9267 61.8472 21.62C61.5339 21.3133 61.3772 20.94 61.3772 20.5ZM59.1372 22H58.2172L62.8772 15.52H63.7772L59.1372 22Z" fill="white"/>
<path d="M96.04 35.66C95.66 36.06 95.47 36.76 95.47 37.76C95.47 38.76 95.66 39.46 96.04 39.86C96.3067 40.14 96.65 40.28 97.07 40.28C97.49 40.28 97.8333 40.14 98.1 39.86C98.48 39.46 98.67 38.76 98.67 37.76C98.67 36.76 98.48 36.06 98.1 35.66C97.8333 35.38 97.49 35.24 97.07 35.24C96.65 35.24 96.3067 35.38 96.04 35.66ZM95.08 40.11C94.6933 39.5367 94.5 38.7533 94.5 37.76C94.5 36.7667 94.6933 35.9833 95.08 35.41C95.54 34.7167 96.2033 34.37 97.07 34.37C97.9367 34.37 98.6 34.7167 99.06 35.41C99.4467 35.9833 99.64 36.7667 99.64 37.76C99.64 38.7533 99.4467 39.5367 99.06 40.11C98.6 40.8033 97.9367 41.15 97.07 41.15C96.2033 41.15 95.54 40.8033 95.08 40.11ZM102.894 37.28C103.24 37.2733 103.527 37.1733 103.754 36.98C103.98 36.7867 104.094 36.5333 104.094 36.22C104.094 35.9267 103.984 35.68 103.764 35.48C103.544 35.28 103.254 35.18 102.894 35.18C102.534 35.18 102.244 35.28 102.024 35.48C101.804 35.68 101.694 35.9267 101.694 36.22C101.694 36.5333 101.807 36.7867 102.034 36.98C102.26 37.1733 102.547 37.2733 102.894 37.28ZM101.894 39.99C102.14 40.1967 102.474 40.3 102.894 40.3C103.314 40.3 103.644 40.1967 103.884 39.99C104.13 39.7833 104.254 39.5233 104.254 39.21C104.254 38.89 104.13 38.6267 103.884 38.42C103.644 38.2067 103.314 38.1 102.894 38.1C102.474 38.1 102.14 38.2067 101.894 38.42C101.654 38.6267 101.534 38.89 101.534 39.21C101.534 39.5233 101.654 39.7833 101.894 39.99ZM104.614 40.63C104.194 40.9767 103.62 41.15 102.894 41.15C102.167 41.15 101.594 40.9767 101.174 40.63C100.754 40.2767 100.544 39.83 100.544 39.29C100.544 38.91 100.657 38.58 100.884 38.3C101.117 38.0133 101.414 37.81 101.774 37.69C101.467 37.5767 101.214 37.3833 101.014 37.11C100.814 36.83 100.714 36.5167 100.714 36.17C100.714 35.6433 100.92 35.2133 101.334 34.88C101.747 34.54 102.267 34.37 102.894 34.37C103.52 34.37 104.04 34.54 104.454 34.88C104.867 35.2133 105.074 35.6433 105.074 36.17C105.074 36.51 104.974 36.82 104.774 37.1C104.574 37.38 104.32 37.5767 104.014 37.69C104.374 37.8033 104.667 38.0033 104.894 38.29C105.127 38.5767 105.244 38.91 105.244 39.29C105.244 39.83 105.034 40.2767 104.614 40.63ZM107.241 35.46C107.094 35.6067 107.021 35.7933 107.021 36.02C107.021 36.2467 107.094 36.4367 107.241 36.59C107.387 36.7367 107.571 36.81 107.791 36.81C108.011 36.81 108.194 36.7367 108.341 36.59C108.487 36.4367 108.561 36.2467 108.561 36.02C108.561 35.7933 108.487 35.6067 108.341 35.46C108.194 35.3133 108.011 35.24 107.791 35.24C107.571 35.24 107.387 35.3133 107.241 35.46ZM106.191 36.02C106.191 35.5867 106.347 35.2167 106.661 34.91C106.981 34.6033 107.357 34.45 107.791 34.45C108.224 34.45 108.601 34.6033 108.921 34.91C109.241 35.2167 109.401 35.5867 109.401 36.02C109.401 36.46 109.241 36.8333 108.921 37.14C108.601 37.4467 108.224 37.6 107.791 37.6C107.357 37.6 106.981 37.4467 106.661 37.14C106.347 36.8333 106.191 36.46 106.191 36.02ZM111.201 38.94C111.054 39.0867 110.981 39.2733 110.981 39.5C110.981 39.7267 111.054 39.9167 111.201 40.07C111.347 40.2167 111.531 40.29 111.751 40.29C111.971 40.29 112.154 40.2167 112.301 40.07C112.447 39.9167 112.521 39.7267 112.521 39.5C112.521 39.2733 112.447 39.0867 112.301 38.94C112.154 38.7933 111.971 38.72 111.751 38.72C111.531 38.72 111.347 38.7933 111.201 38.94ZM110.151 39.5C110.151 39.0667 110.307 38.6967 110.621 38.39C110.941 38.0833 111.317 37.93 111.751 37.93C112.184 37.93 112.561 38.0833 112.881 38.39C113.201 38.6967 113.361 39.0667 113.361 39.5C113.361 39.94 113.201 40.3133 112.881 40.62C112.561 40.9267 112.184 41.08 111.751 41.08C111.317 41.08 110.941 40.9267 110.621 40.62C110.307 40.3133 110.151 39.94 110.151 39.5ZM107.911 41H106.991L111.651 34.52H112.551L107.911 41Z" fill="white"/>
<path d="M93.25 93.99L92.77 93.18L94.68 91.42H91.58V90.52H95.98V91.4L94.13 93.11C94.6567 93.11 95.12 93.2833 95.52 93.63C95.9267 93.9767 96.13 94.46 96.13 95.08C96.13 95.6533 95.92 96.1433 95.5 96.55C95.08 96.9567 94.5067 97.16 93.78 97.16C93.0667 97.16 92.4933 96.9633 92.06 96.57C91.6333 96.17 91.4033 95.6867 91.37 95.12L92.33 94.9C92.35 95.32 92.4933 95.66 92.76 95.92C93.0333 96.1733 93.37 96.3 93.77 96.3C94.1967 96.3 94.53 96.1867 94.77 95.96C95.0167 95.7267 95.14 95.44 95.14 95.1C95.14 94.7067 95.01 94.4067 94.75 94.2C94.49 93.9933 94.18 93.89 93.82 93.89C93.6267 93.89 93.4367 93.9233 93.25 93.99ZM98.5673 91.66C98.1873 92.06 97.9973 92.76 97.9973 93.76C97.9973 94.76 98.1873 95.46 98.5673 95.86C98.834 96.14 99.1773 96.28 99.5973 96.28C100.017 96.28 100.361 96.14 100.627 95.86C101.007 95.46 101.197 94.76 101.197 93.76C101.197 92.76 101.007 92.06 100.627 91.66C100.361 91.38 100.017 91.24 99.5973 91.24C99.1773 91.24 98.834 91.38 98.5673 91.66ZM97.6073 96.11C97.2207 95.5367 97.0273 94.7533 97.0273 93.76C97.0273 92.7667 97.2207 91.9833 97.6073 91.41C98.0673 90.7167 98.7307 90.37 99.5973 90.37C100.464 90.37 101.127 90.7167 101.587 91.41C101.974 91.9833 102.167 92.7667 102.167 93.76C102.167 94.7533 101.974 95.5367 101.587 96.11C101.127 96.8033 100.464 97.15 99.5973 97.15C98.7307 97.15 98.0673 96.8033 97.6073 96.11ZM104.075 91.46C103.928 91.6067 103.855 91.7933 103.855 92.02C103.855 92.2467 103.928 92.4367 104.075 92.59C104.221 92.7367 104.405 92.81 104.625 92.81C104.845 92.81 105.028 92.7367 105.175 92.59C105.321 92.4367 105.395 92.2467 105.395 92.02C105.395 91.7933 105.321 91.6067 105.175 91.46C105.028 91.3133 104.845 91.24 104.625 91.24C104.405 91.24 104.221 91.3133 104.075 91.46ZM103.025 92.02C103.025 91.5867 103.181 91.2167 103.495 90.91C103.815 90.6033 104.191 90.45 104.625 90.45C105.058 90.45 105.435 90.6033 105.755 90.91C106.075 91.2167 106.235 91.5867 106.235 92.02C106.235 92.46 106.075 92.8333 105.755 93.14C105.435 93.4467 105.058 93.6 104.625 93.6C104.191 93.6 103.815 93.4467 103.495 93.14C103.181 92.8333 103.025 92.46 103.025 92.02ZM108.035 94.94C107.888 95.0867 107.815 95.2733 107.815 95.5C107.815 95.7267 107.888 95.9167 108.035 96.07C108.181 96.2167 108.365 96.29 108.585 96.29C108.805 96.29 108.988 96.2167 109.135 96.07C109.281 95.9167 109.355 95.7267 109.355 95.5C109.355 95.2733 109.281 95.0867 109.135 94.94C108.988 94.7933 108.805 94.72 108.585 94.72C108.365 94.72 108.181 94.7933 108.035 94.94ZM106.985 95.5C106.985 95.0667 107.141 94.6967 107.455 94.39C107.775 94.0833 108.151 93.93 108.585 93.93C109.018 93.93 109.395 94.0833 109.715 94.39C110.035 94.6967 110.195 95.0667 110.195 95.5C110.195 95.94 110.035 96.3133 109.715 96.62C109.395 96.9267 109.018 97.08 108.585 97.08C108.151 97.08 107.775 96.9267 107.455 96.62C107.141 96.3133 106.985 95.94 106.985 95.5ZM104.745 97H103.825L108.485 90.52H109.385L104.745 97Z" fill="white"/>
<defs>
<linearGradient id="paint0_linear" x1="96.3496" y1="-6.43818" x2="43.7361" y2="38.841" gradientUnits="userSpaceOnUse">
<stop stop-color="#FFE57D"/>
<stop offset="1" stop-color="#E0A931"/>
</linearGradient>
<linearGradient id="paint1_linear" x1="141.328" y1="70.1328" x2="75.871" y2="41.5563" gradientUnits="userSpaceOnUse">
<stop stop-color="#94E9B6"/>
<stop offset="1" stop-color="#5BCF7F"/>
</linearGradient>
<linearGradient id="paint2_linear" x1="-19.8254" y1="-12.5271" x2="-15.9323" y2="68.4839" gradientUnits="userSpaceOnUse">
<stop stop-color="#FFA9B1"/>
<stop offset="1" stop-color="#9F041B"/>
</linearGradient>
<linearGradient id="paint3_linear" x1="2.63837" y1="170.386" x2="83.2754" y2="151.559" gradientUnits="userSpaceOnUse">
<stop stop-color="#BEEBF8"/>
<stop offset="1" stop-color="#49C2F1"/>
</linearGradient>
</defs>
</svg>
