<svg width="240" height="240" viewBox="0 0 240 240" fill="none" xmlns="http://www.w3.org/2000/svg">
<path d="M217.5 37.4999C217.688 37.4999 122.438 0.93739 120 0C118.126 0.749817 22.3127 37.4999 22.5003 37.4999V106.5C22.5003 154.312 36.1879 216.75 120 240C203.625 216.75 217.313 153.187 217.313 106.5C217.5 82.875 217.5 37.4999 217.5 37.4999Z" fill="#D9DEE1"/>
<path d="M22.4995 106.5C22.4995 154.313 36.1871 216.75 120 240V0C116.437 1.31254 22.4995 37.4999 22.4995 37.4999C22.4995 37.4999 22.5 106.5 22.4995 106.5Z" fill="#BCC6CA"/>
<path d="M198.561 50.4375C198.749 50.4375 121.874 19.4998 119.811 18.75C118.124 19.3127 40.874 49.125 41.0616 48.9374V106.875C41.0616 147 48.9368 201.75 119.811 221.25C190.499 201.75 198.561 146.062 198.561 106.875C198.749 87 198.749 50.4375 198.561 50.4375Z" fill="#008FFF"/>
<path d="M119.999 18.75C118.311 19.3127 41.0618 49.125 41.2494 48.9374V106.875C41.2494 147 49.1246 201.75 119.999 221.25V18.75Z" fill="#008FFF"/>
<path d="M155.465 70.8165H147.583C146.71 70.8165 146.002 71.5251 146.002 72.3985C146.002 73.2723 146.71 73.9804 147.583 73.9804H148.561V161.337H89.5011V73.9804H96.0854V77.5741C96.0854 80.329 98.3261 82.5697 101.081 82.5697H108.56C109.308 86.6978 112.929 89.8377 117.268 89.8377H120.793C125.132 89.8377 128.753 86.6978 129.501 82.5697H136.98C139.735 82.5697 141.977 80.3286 141.977 77.5741V70.7468C141.977 67.9919 139.735 65.7507 136.98 65.7507H101.081C98.3261 65.7507 96.0854 67.9919 96.0854 70.7468V70.8165H82.5969C79.1177 70.8165 76.2876 73.6475 76.2876 77.1253V140.633C76.2876 141.507 76.9958 142.215 77.8696 142.215C78.7425 142.215 79.4515 141.507 79.4515 140.633V77.1253C79.4515 75.3917 80.8636 73.9804 82.5969 73.9804H86.3363V162.917C86.3363 163.792 87.0453 164.499 87.9183 164.499H150.143C151.017 164.499 151.725 163.792 151.725 162.917V73.9804H155.465C157.199 73.9804 158.61 75.3917 158.61 77.1253V167.441C158.61 169.176 157.199 170.587 155.465 170.587H82.5969C80.8636 170.587 79.4515 169.176 79.4515 167.441V148.09C79.4515 147.217 78.7425 146.508 77.8696 146.508C76.9958 146.508 76.2876 147.217 76.2876 148.09V167.441C76.2876 170.92 79.1177 173.751 82.5969 173.751H155.465C158.944 173.751 161.773 170.92 161.773 167.441V77.1253C161.773 73.6475 158.944 70.8165 155.465 70.8165V70.8165ZM99.2494 70.7468C99.2494 69.7365 100.071 68.9151 101.081 68.9151H136.98C137.991 68.9151 138.812 69.7365 138.812 70.7468V77.5741C138.812 78.5843 137.991 79.4057 136.98 79.4057H128.062C127.187 79.4057 126.48 80.1143 126.48 80.9877C126.48 84.1233 123.928 86.6737 120.793 86.6737H117.268C114.133 86.6737 111.582 84.1233 111.582 80.9877C111.582 80.1143 110.874 79.4057 110 79.4057H101.081C100.071 79.4057 99.2494 78.5843 99.2494 77.5741V70.7468Z" fill="white"/>
<path d="M139.181 109.039H130.816L125.47 94.4391C124.939 92.9877 122.834 93.0862 122.451 94.5938L116.709 117.205L111.165 101.076C110.721 99.7871 108.957 99.627 108.289 100.817L103.677 109.039H98.8774C98.0027 109.039 97.2954 109.747 97.2954 110.621C97.2954 111.495 98.0027 112.203 98.8774 112.203H104.603C105.176 112.203 105.703 111.894 105.984 111.395L109.32 105.444L115.44 123.247C115.95 124.73 118.084 124.643 118.47 123.123L124.259 100.332L128.225 111.165C128.453 111.788 129.046 112.202 129.711 112.202H139.181C140.055 112.202 140.763 111.495 140.763 110.62C140.763 109.747 140.055 109.039 139.181 109.039V109.039Z" fill="white"/>
<path d="M139.181 135.128H98.8774C98.0036 135.128 97.2954 135.835 97.2954 136.71C97.2954 137.584 98.0036 138.292 98.8774 138.292H139.181C140.055 138.292 140.763 137.584 140.763 136.71C140.763 135.835 140.055 135.128 139.181 135.128Z" fill="white"/>
<path d="M139.181 149.066H98.8774C98.0036 149.066 97.2954 149.774 97.2954 150.648C97.2954 151.521 98.0036 152.23 98.8774 152.23H139.181C140.055 152.23 140.763 151.521 140.763 150.648C140.763 149.774 140.055 149.066 139.181 149.066Z" fill="white"/>
</svg>
