<svg width="15" height="15" viewBox="0 0 15 15" fill="none" xmlns="http://www.w3.org/2000/svg">
<path d="M7.5 15C3.36433 15 0 11.6357 0 7.5C0 3.36433 3.36433 0 7.5 0C11.6357 0 15 3.36433 15 7.5C15 11.6357 11.6357 15 7.5 15ZM7.5 0.9375C3.88126 0.9375 0.9375 3.88126 0.9375 7.5C0.9375 11.1187 3.88126 14.0625 7.5 14.0625C11.1187 14.0625 14.0625 11.1187 14.0625 7.5C14.0625 3.88126 11.1187 0.9375 7.5 0.9375Z" fill="#02B875"/>
<path d="M6.79672 10.0004C6.67667 10.0004 6.55674 9.95483 6.46542 9.86294L4.4342 7.83173C4.2511 7.64851 4.2511 7.35165 4.4342 7.16854C4.61731 6.98544 4.91417 6.98544 5.09739 7.16854L6.79729 8.86856L10.5286 5.13733C10.7117 4.95422 11.0086 4.95422 11.1917 5.13733C11.3748 5.32043 11.3748 5.61729 11.1917 5.8004L7.12917 9.86294C7.03671 9.95483 6.91677 10.0004 6.79672 10.0004Z" fill="#02B875"/>
</svg>
