<svg width="60" height="60" viewBox="0 0 60 60" fill="none" xmlns="http://www.w3.org/2000/svg">
<path d="M54.3751 9.37498C54.422 9.37498 30.6095 0.234348 30.0001 0C29.5314 0.187454 5.57818 9.37498 5.62507 9.37498V26.6249C5.62507 38.5781 9.04697 54.1875 30.0001 59.9999C50.9063 54.1874 54.3282 38.2967 54.3282 26.6249C54.3751 20.7188 54.3751 9.37498 54.3751 9.37498Z" fill="#D9DEE1"/>
<path d="M5.625 26.6251C5.625 38.5782 9.0469 54.1876 30 60V0C29.1094 0.328134 5.625 9.37497 5.625 9.37497C5.625 9.37497 5.62512 26.6251 5.625 26.6251Z" fill="#BCC6CA"/>
<path d="M49.6404 12.6094C49.6873 12.6094 30.4685 4.87495 29.9529 4.6875C29.531 4.82818 10.2186 12.2812 10.2655 12.2343V26.7187C10.2655 36.7499 12.2343 50.4374 29.9529 55.3124C47.6248 50.4374 49.6404 36.5156 49.6404 26.7187C49.6873 21.75 49.6873 12.6094 49.6404 12.6094Z" fill="#008FFF"/>
<path d="M29.9998 4.6875C29.5779 4.82818 10.2654 12.2812 10.3123 12.2343V26.7187C10.3123 36.7499 12.2811 50.4374 29.9998 55.3124V4.6875Z" fill="#008FFF"/>
<path d="M38.8663 17.7044H36.896C36.6776 17.7044 36.5005 17.8816 36.5005 18.0999C36.5005 18.3184 36.6776 18.4954 36.896 18.4954H37.1404V40.3345H22.3754V18.4954H24.0215V19.3938C24.0215 20.0825 24.5817 20.6427 25.2704 20.6427H27.1402C27.3272 21.6748 28.2325 22.4597 29.3172 22.4597H30.1984C31.283 22.4597 32.1883 21.6748 32.3753 20.6427H34.2451C34.9339 20.6427 35.4943 20.0824 35.4943 19.3938V17.687C35.4943 16.9983 34.9339 16.438 34.2452 16.438H25.2704C24.5817 16.438 24.0215 16.9983 24.0215 17.687V17.7044H20.6493C19.7796 17.7044 19.072 18.4122 19.072 19.2816V35.1585C19.072 35.3771 19.2491 35.554 19.4675 35.554C19.6858 35.554 19.863 35.3771 19.863 35.1585V19.2816C19.863 18.8482 20.216 18.4954 20.6493 18.4954H21.5842V40.7296C21.5842 40.9482 21.7614 41.1251 21.9797 41.1251H37.5359C37.7545 41.1251 37.9314 40.9482 37.9314 40.7296V18.4954H38.8663C39.2999 18.4954 39.6525 18.8482 39.6525 19.2816V41.8604C39.6525 42.2942 39.2999 42.647 38.8663 42.647H20.6493C20.216 42.647 19.863 42.2942 19.863 41.8604V37.0228C19.863 36.8045 19.6858 36.6273 19.4675 36.6273C19.2491 36.6273 19.072 36.8045 19.072 37.0228V41.8604C19.072 42.7303 19.7796 43.438 20.6493 43.438H38.8663C39.736 43.438 40.4435 42.7303 40.4435 41.8604V19.2816C40.4435 18.4122 39.736 17.7044 38.8663 17.7044V17.7044ZM24.8125 17.687C24.8125 17.4344 25.0178 17.2291 25.2704 17.2291H34.2452C34.4978 17.2291 34.7031 17.4344 34.7031 17.687V19.3938C34.7031 19.6464 34.4978 19.8517 34.2452 19.8517H32.0155C31.7969 19.8517 31.62 20.0289 31.62 20.2472C31.62 21.0311 30.9822 21.6687 30.1984 21.6687H29.3172C28.5334 21.6687 27.8957 21.0311 27.8957 20.2472C27.8957 20.0289 27.7186 19.8517 27.5002 19.8517H25.2704C25.0178 19.8517 24.8125 19.6464 24.8125 19.3938V17.687Z" fill="white"/>
<path d="M34.7954 27.2595H32.7042L31.3675 23.6097C31.2348 23.2468 30.7086 23.2714 30.613 23.6483L29.1773 29.3011L27.7913 25.2689C27.6805 24.9467 27.2393 24.9066 27.0723 25.2041L25.9192 27.2597H24.7195C24.5008 27.2597 24.324 27.4367 24.324 27.6552C24.324 27.8736 24.5008 28.0507 24.7195 28.0507H26.1509C26.294 28.0507 26.4259 27.9734 26.496 27.8486L27.3302 26.361L28.8602 30.8117C28.9876 31.1824 29.5212 31.1605 29.6176 30.7806L31.0649 25.0829L32.0564 27.7911C32.1134 27.9469 32.2617 28.0505 32.4278 28.0505H34.7953C35.0139 28.0505 35.1908 27.8736 35.1908 27.655C35.1908 27.4367 35.0139 27.2595 34.7954 27.2595V27.2595Z" fill="white"/>
<path d="M34.7954 33.7817H24.7195C24.501 33.7817 24.324 33.9587 24.324 34.1772C24.324 34.3957 24.501 34.5727 24.7195 34.5727H34.7954C35.0139 34.5727 35.1909 34.3957 35.1909 34.1772C35.1909 33.9587 35.0139 33.7817 34.7954 33.7817Z" fill="white"/>
<path d="M34.7954 37.2666H24.7195C24.501 37.2666 24.324 37.4438 24.324 37.6621C24.324 37.8806 24.501 38.0576 24.7195 38.0576H34.7954C35.0139 38.0576 35.1909 37.8806 35.1909 37.6621C35.1909 37.4438 35.0139 37.2666 34.7954 37.2666Z" fill="white"/>
</svg>
