<svg width="477" height="200" viewBox="0 0 477 200" fill="none" xmlns="http://www.w3.org/2000/svg">
<g clip-path="url(#clip0)">
<path d="M238.139 200C369.659 200 476.277 196.195 476.277 191.502C476.277 186.809 369.659 183.005 238.139 183.005C106.618 183.005 0 186.809 0 191.502C0 196.195 106.618 200 238.139 200Z" fill="#3F3D56"/>
<path d="M423.875 143.984C424.759 142.44 425.215 140.688 425.198 138.909C425.198 134.325 422.365 130.606 418.853 130.606C415.34 130.606 412.512 134.325 412.512 138.909C412.494 140.688 412.951 142.44 413.835 143.984C412.968 145.534 412.512 147.281 412.512 149.058C412.512 150.835 412.968 152.582 413.835 154.133C412.968 155.682 412.512 157.429 412.512 159.205C412.512 160.981 412.968 162.727 413.835 164.277C412.968 165.828 412.512 167.575 412.512 169.352C412.512 171.128 412.968 172.875 413.835 174.426C412.951 175.97 412.494 177.721 412.512 179.5C412.512 184.085 415.345 187.804 418.853 187.804C422.361 187.804 425.198 184.085 425.198 179.5C425.215 177.721 424.759 175.97 423.875 174.426C424.742 172.875 425.198 171.128 425.198 169.352C425.198 167.575 424.742 165.828 423.875 164.277C424.742 162.727 425.198 160.981 425.198 159.205C425.198 157.429 424.742 155.682 423.875 154.133C424.742 152.582 425.198 150.835 425.198 149.058C425.198 147.281 424.742 145.534 423.875 143.984Z" fill="#3F3D56"/>
<path d="M418.837 137.064C422.339 137.064 425.178 133.347 425.178 128.761C425.178 124.175 422.339 120.457 418.837 120.457C415.335 120.457 412.496 124.175 412.496 128.761C412.496 133.347 415.335 137.064 418.837 137.064Z" fill="#3F3D56"/>
<path d="M418.837 126.916C422.339 126.916 425.178 123.198 425.178 118.612C425.178 114.026 422.339 110.309 418.837 110.309C415.335 110.309 412.496 114.026 412.496 118.612C412.496 123.198 415.335 126.916 418.837 126.916Z" fill="#3F3D56"/>
<path d="M395.096 49.1654C394.229 48.0624 393.439 46.901 392.732 45.6894L409.4 42.954L391.373 43.0875C389.644 39.3253 388.701 35.2499 388.602 31.1107C388.502 26.9716 389.248 22.8556 390.794 19.0147L414.976 31.5589L392.676 15.1664C394.762 11.5522 397.571 8.4067 400.928 5.92601C404.284 3.44532 408.115 1.68265 412.182 0.747947C416.249 -0.186759 420.466 -0.273462 424.568 0.493236C428.67 1.25993 432.571 2.86359 436.026 5.20421C439.481 7.54483 442.417 10.5722 444.651 14.0976C446.884 17.6229 448.367 21.5706 449.008 25.6946C449.648 29.8185 449.433 34.0301 448.374 38.0669C447.315 42.1036 445.435 45.8789 442.853 49.1573C444.206 50.8735 445.367 52.7324 446.317 54.7011L424.684 65.9464L447.749 58.2054C449.368 62.9931 449.768 68.109 448.913 73.0901C448.057 78.0713 445.973 82.7605 442.849 86.7334C446.375 91.2144 448.569 96.5974 449.181 102.267C449.792 107.936 448.795 113.663 446.304 118.793C443.814 123.922 439.93 128.247 435.097 131.273C430.264 134.299 424.676 135.904 418.974 135.904C413.272 135.904 407.685 134.299 402.852 131.273C398.019 128.247 394.135 123.922 391.644 118.793C389.153 113.663 388.157 107.936 388.768 102.267C389.379 96.5974 391.573 91.2144 395.1 86.7334C390.887 81.3784 388.597 74.7628 388.597 67.9494C388.597 61.1361 390.887 54.5205 395.1 49.1654H395.096Z" fill="#57B894"/>
<path opacity="0.1" d="M449.368 67.9494C449.378 74.7645 447.087 81.3835 442.865 86.7334C446.391 91.2144 448.586 96.5974 449.197 102.267C449.808 107.936 448.811 113.663 446.32 118.793C443.83 123.922 439.946 128.247 435.113 131.273C430.28 134.299 424.693 135.904 418.99 135.904C413.288 135.904 407.701 134.299 402.868 131.273C398.035 128.247 394.151 123.922 391.66 118.793C389.17 113.663 388.173 107.936 388.784 102.267C389.395 96.5974 391.589 91.2144 395.116 86.7334C391.025 81.566 449.368 64.5422 449.368 67.9494Z" fill="black"/>
<path d="M398.616 2.83257H77.6612C73.0977 2.83257 69.3982 6.53205 69.3982 11.0956V179.092C69.3982 183.655 73.0977 187.355 77.6612 187.355H398.616C403.18 187.355 406.879 183.655 406.879 179.092V11.0956C406.879 6.53205 403.18 2.83257 398.616 2.83257Z" fill="#F2F2F2"/>
<path d="M69.6003 11.9373H178.047V187.557H77.8634C75.6719 187.557 73.5701 186.686 72.0205 185.137C70.4709 183.587 69.6003 181.485 69.6003 179.294V11.9373Z" fill="#008FFF"/>
<path d="M406.879 11.0956V15.7855H69.3982V11.0956C69.3982 10.0107 69.612 8.93638 70.0273 7.9341C70.4426 6.93181 71.0513 6.02116 71.8186 5.25419C72.586 4.48722 73.4969 3.87895 74.4994 3.46414C75.5019 3.04932 76.5763 2.83609 77.6612 2.83663H398.616C399.701 2.83609 400.776 3.04932 401.778 3.46414C402.781 3.87895 403.691 4.48722 404.459 5.25419C405.226 6.02116 405.835 6.93181 406.25 7.9341C406.665 8.93638 406.879 10.0107 406.879 11.0956Z" fill="#3F3D56"/>
<path d="M78.0981 11.9373C79.439 11.9373 80.526 10.8503 80.526 9.50936C80.526 8.16845 79.439 7.08144 78.0981 7.08144C76.7572 7.08144 75.6702 8.16845 75.6702 9.50936C75.6702 10.8503 76.7572 11.9373 78.0981 11.9373Z" fill="#008FFF"/>
<path d="M84.1679 11.9373C85.5088 11.9373 86.5958 10.8503 86.5958 9.50936C86.5958 8.16845 85.5088 7.08144 84.1679 7.08144C82.827 7.08144 81.74 8.16845 81.74 9.50936C81.74 10.8503 82.827 11.9373 84.1679 11.9373Z" fill="#008FFF"/>
<path d="M90.2377 11.9373C91.5786 11.9373 92.6657 10.8503 92.6657 9.50936C92.6657 8.16845 91.5786 7.08144 90.2377 7.08144C88.8968 7.08144 87.8098 8.16845 87.8098 9.50936C87.8098 10.8503 88.8968 11.9373 90.2377 11.9373Z" fill="#008FFF"/>
<path opacity="0.3" d="M386.954 37.6813H247.543C247.266 37.6813 247.041 37.906 247.041 38.1831V41.6308C247.041 41.9079 247.266 42.1325 247.543 42.1325H386.954C387.231 42.1325 387.456 41.9079 387.456 41.6308V38.1831C387.456 37.906 387.231 37.6813 386.954 37.6813Z" fill="#008FFF"/>
<path d="M384.931 46.1791H356.395C356.117 46.1791 355.893 46.4037 355.893 46.6808V55.7936C355.893 56.0708 356.117 56.2954 356.395 56.2954H384.931C385.208 56.2954 385.433 56.0708 385.433 55.7936V46.6808C385.433 46.4037 385.208 46.1791 384.931 46.1791Z" fill="#008FFF"/>
<path opacity="0.3" d="M386.954 91.8078H247.543C247.266 91.8078 247.041 92.0324 247.041 92.3096V95.7572C247.041 96.0343 247.266 96.259 247.543 96.259H386.954C387.231 96.259 387.456 96.0343 387.456 95.7572V92.3096C387.456 92.0324 387.231 91.8078 386.954 91.8078Z" fill="#008FFF"/>
<path d="M384.931 100.306H356.395C356.117 100.306 355.893 100.53 355.893 100.807V109.92C355.893 110.197 356.117 110.422 356.395 110.422H384.931C385.208 110.422 385.433 110.197 385.433 109.92V100.807C385.433 100.53 385.208 100.306 384.931 100.306Z" fill="#008FFF"/>
<path opacity="0.3" d="M386.954 146.841H247.543C247.266 146.841 247.041 147.065 247.041 147.342V150.79C247.041 151.067 247.266 151.292 247.543 151.292H386.954C387.231 151.292 387.456 151.067 387.456 150.79V147.342C387.456 147.065 387.231 146.841 386.954 146.841Z" fill="#008FFF"/>
<path d="M384.931 155.338H356.395C356.117 155.338 355.893 155.563 355.893 155.84V164.953C355.893 165.23 356.117 165.455 356.395 165.455H384.931C385.208 165.455 385.433 165.23 385.433 164.953V155.84C385.433 155.563 385.208 155.338 384.931 155.338Z" fill="#008FFF"/>
<path d="M216.567 121.153C227.633 121.153 236.605 112.182 236.605 101.115C236.605 90.0479 227.633 81.0764 216.567 81.0764C205.5 81.0764 196.528 90.0479 196.528 101.115C196.528 112.182 205.5 121.153 216.567 121.153Z" fill="#3F3D56"/>
<path d="M234.25 111.684C234.228 111.733 234.199 111.778 234.165 111.818C233.947 112.179 233.71 112.529 233.457 112.866C231.235 115.942 228.182 118.321 224.656 119.725C224.308 119.871 223.952 120.004 223.591 120.13C223.258 119.862 222.949 119.566 222.669 119.243C221.833 118.294 221.273 117.134 221.05 115.889C220.517 115.992 219.975 116.043 219.432 116.043C219.378 116.047 219.324 116.047 219.27 116.043C215.102 115.97 211.525 112.919 209.926 108.564L209.862 108.378C208.887 105.542 208.777 102.48 209.546 99.5812C209.566 99.4841 209.598 99.3869 209.627 99.2939C210.995 94.5958 214.604 91.1725 218.897 90.9014C219.031 90.9014 219.165 90.9014 219.302 90.9014C219.44 90.9014 219.521 90.9014 219.63 90.9014H219.824C225.263 91.0996 229.641 96.3601 229.843 102.94C230.955 103.67 231.835 104.702 232.38 105.915C232.926 107.127 233.114 108.471 232.923 109.787C233.465 110.343 233.914 110.984 234.25 111.684Z" fill="#192534"/>
<path opacity="0.1" d="M234.165 111.818C233.947 112.179 233.71 112.529 233.457 112.866C233.164 112.34 232.8 111.857 232.376 111.429C232.423 111.096 232.447 110.759 232.449 110.422C232.449 109.263 232.161 108.123 231.611 107.104C231.061 106.085 230.265 105.218 229.297 104.583C229.074 97.8655 224.506 92.4997 218.909 92.4997C214.911 92.4997 211.444 95.2271 209.7 99.2332C209.655 99.3384 209.615 99.4396 209.566 99.5488C209.42 99.8968 209.291 100.249 209.161 100.617C209.304 99.8773 209.503 99.1496 209.756 98.4401L209.813 98.3834C211.371 94.09 214.851 91.043 218.938 90.8609C219.071 90.8609 219.205 90.8609 219.342 90.8609C219.48 90.8609 219.561 90.8609 219.67 90.8609H219.864C225.226 91.1846 229.519 96.4208 229.726 102.932C230.84 103.66 231.723 104.691 232.27 105.904C232.817 107.117 233.005 108.462 232.813 109.778C233.382 110.372 233.839 111.063 234.165 111.818Z" fill="black"/>
<path d="M213.05 106.072C213.1 106.482 213.053 106.898 212.913 107.286C212.674 107.84 212.103 108.338 212.261 108.904C212.341 109.082 212.462 109.238 212.614 109.361C212.766 109.483 212.944 109.568 213.135 109.609C214.879 110.199 216.777 109.847 218.622 109.928C219.237 109.982 219.854 110.004 220.471 109.993C221.092 109.979 221.693 109.769 222.187 109.394C221.229 108.928 220.324 108.36 219.488 107.699C219.285 107.548 219.102 107.373 218.942 107.177C218.599 106.621 218.434 105.975 218.468 105.323C218.468 104.68 218.468 104.036 218.468 103.397C217.149 103.397 215.834 103.377 214.515 103.377C214.11 103.377 212.803 103.276 212.654 103.733C212.581 103.96 212.864 104.627 212.909 104.882C212.976 105.276 213.024 105.673 213.05 106.072Z" fill="#A0616A"/>
<path opacity="0.1" d="M213.05 106.072C213.1 106.482 213.053 106.898 212.913 107.286C212.674 107.84 212.103 108.338 212.261 108.904C212.341 109.082 212.462 109.238 212.614 109.361C212.766 109.483 212.944 109.568 213.135 109.609C214.879 110.199 216.777 109.847 218.622 109.928C219.237 109.982 219.854 110.004 220.471 109.993C221.092 109.979 221.693 109.769 222.187 109.394C221.229 108.928 220.324 108.36 219.488 107.699C219.285 107.548 219.102 107.373 218.942 107.177C218.599 106.621 218.434 105.975 218.468 105.323C218.468 104.68 218.468 104.036 218.468 103.397C217.149 103.397 215.834 103.377 214.515 103.377C214.11 103.377 212.803 103.276 212.654 103.733C212.581 103.96 212.864 104.627 212.909 104.882C212.976 105.276 213.024 105.673 213.05 106.072Z" fill="black"/>
<path d="M215.761 105.489C218.329 105.489 220.411 103.407 220.411 100.84C220.411 98.2718 218.329 96.1902 215.761 96.1902C213.193 96.1902 211.112 98.2718 211.112 100.84C211.112 103.407 213.193 105.489 215.761 105.489Z" fill="#A0616A"/>
<path d="M224.579 114.327C224.579 114.452 224.554 114.586 224.534 114.731C224.384 115.486 224.163 116.224 223.875 116.937C223.704 117.42 223.498 117.891 223.259 118.345C223.085 118.657 222.855 118.944 222.669 119.247L222.402 119.68C222.231 119.972 222.086 120.278 221.969 120.595C221.188 120.795 220.394 120.939 219.593 121.028C218.81 121.122 218.023 121.169 217.234 121.169C213.006 121.169 208.445 120.073 205.212 117.831C205.212 117.831 205.685 117.503 205.617 117.426C205.617 117.24 205.596 117.058 205.596 116.872C205.592 116.393 205.67 115.916 205.827 115.464C205.965 115.03 206.205 114.636 206.527 114.315C206.932 113.91 207.474 113.659 207.907 113.271C208.46 112.736 208.851 112.055 209.036 111.308C209.137 110.984 209.21 110.64 209.279 110.309C209.34 109.855 209.465 109.412 209.651 108.993C209.677 108.94 209.706 108.889 209.74 108.84C209.802 108.736 209.875 108.639 209.958 108.552C210.371 108.15 210.854 107.826 211.383 107.597C211.824 107.371 212.443 107.193 212.751 107.569V107.597C212.851 107.829 212.936 108.067 213.006 108.31C213.252 108.819 213.94 108.884 214.499 108.872C216.474 108.831 218.444 108.666 220.399 108.378L221.345 108.225C222.029 108.111 222.507 108.71 222.891 109.293C223.887 110.794 224.728 112.522 224.579 114.327Z" fill="#008FFF"/>
<path opacity="0.1" d="M210.379 114.642C209.946 114.739 209.695 115.177 209.493 115.573C209.109 116.225 208.941 116.981 209.012 117.734C209 118.03 209.031 118.325 209.105 118.612C209.179 118.901 209.362 119.15 209.614 119.308" stroke="black" stroke-miterlimit="10"/>
<path d="M221.989 98.7871C222.34 97.4144 220.369 95.7249 217.586 95.0137C214.804 94.3024 212.264 94.8386 211.913 96.2114C211.562 97.5841 213.533 99.2735 216.316 99.9848C219.098 100.696 221.638 100.16 221.989 98.7871Z" fill="#192534"/>
<path opacity="0.1" d="M216.575 99.0106C214.102 98.3794 212.273 96.9874 212.124 95.7087C212.009 95.8527 211.926 96.0197 211.881 96.1983C211.529 97.5701 213.499 99.2575 216.279 99.9696C219.059 100.682 221.601 100.144 221.945 98.7557C221.984 98.6025 221.995 98.4434 221.977 98.2863C221.236 99.306 218.999 99.6297 216.575 99.0106Z" fill="black"/>
<path d="M224.7 117.625C224.7 118.329 224.7 119.029 224.656 119.725C224.308 119.871 223.952 120.004 223.591 120.13C223.061 120.314 222.521 120.468 221.973 120.591C221.192 120.791 220.398 120.935 219.597 121.024C219.456 119.349 219.136 117.734 219.294 116.034C219.425 114.732 219.873 113.482 220.597 112.393C220.881 111.915 221.288 111.523 221.775 111.255C222.018 111.126 222.293 111.069 222.567 111.091C222.842 111.112 223.104 111.211 223.324 111.377C223.6 111.664 223.793 112.021 223.883 112.409C224.156 113.168 224.375 113.945 224.538 114.735C224.538 114.82 224.567 114.914 224.579 115.003C224.691 115.872 224.731 116.749 224.7 117.625Z" fill="#A0616A"/>
<path d="M236.601 156.148C236.61 159.499 235.775 162.799 234.173 165.742C233.995 166.066 233.809 166.394 233.598 166.717C233.576 166.766 233.548 166.811 233.513 166.851C233.295 167.212 233.059 167.562 232.805 167.899C231.268 170.031 229.321 171.836 227.079 173.208L226.962 173.289C226.225 173.731 225.462 174.127 224.676 174.474C224.457 174.572 224.231 174.665 224.004 174.758C223.777 174.851 223.567 174.936 223.34 175.009C223.227 175.057 223.106 175.098 222.988 175.138C222.975 175.136 222.961 175.136 222.948 175.138C222.701 175.227 222.446 175.304 222.195 175.381L222.005 175.425C221.778 175.494 221.552 175.551 221.325 175.599C220.543 175.8 219.748 175.944 218.946 176.032C218.168 176.127 217.386 176.174 216.603 176.174C216.522 176.174 216.441 176.174 216.36 176.174C215.274 176.171 214.191 176.07 213.123 175.875L212.929 175.842C212.73 175.81 212.524 175.769 212.334 175.721L211.957 175.636C211.558 175.548 211.164 175.44 210.776 175.312C209.985 175.075 209.211 174.787 208.457 174.45L208.372 174.414C207.269 173.914 206.214 173.314 205.22 172.621C205.135 172.571 205.054 172.516 204.977 172.455C202.18 170.461 199.942 167.781 198.479 164.672C197.016 161.564 196.378 158.131 196.624 154.704C196.871 151.278 197.994 147.972 199.887 145.105C201.78 142.237 204.378 139.905 207.432 138.332C210.486 136.758 213.894 135.997 217.327 136.12C220.76 136.244 224.104 137.248 227.038 139.037C229.971 140.826 232.395 143.339 234.077 146.334C235.758 149.33 236.642 152.708 236.641 156.144L236.601 156.148Z" fill="#3F3D56"/>
<path d="M221.414 151.32C221.366 152.415 220.898 153.449 220.106 154.207C219.315 154.965 218.261 155.388 217.165 155.388C216.07 155.388 215.016 154.965 214.224 154.207C213.433 153.449 212.964 152.415 212.917 151.32C212.917 151.251 212.917 151.183 212.917 151.118C212.917 149.991 213.364 148.91 214.161 148.113C214.958 147.317 216.038 146.869 217.165 146.869C218.292 146.869 219.373 147.317 220.17 148.113C220.967 148.91 221.414 149.991 221.414 151.118C221.41 151.183 221.414 151.251 221.414 151.32Z" fill="#192534"/>
<path opacity="0.1" d="M221.414 151.32C221.366 152.415 220.898 153.449 220.106 154.207C219.315 154.965 218.261 155.388 217.165 155.388C216.07 155.388 215.016 154.965 214.224 154.207C213.433 153.449 212.964 152.415 212.917 151.32C212.917 151.251 212.917 151.183 212.917 151.118C214.115 150.137 215.616 149.601 217.165 149.601C218.714 149.601 220.215 150.137 221.414 151.118C221.41 151.183 221.414 151.251 221.414 151.32Z" fill="black"/>
<path d="M217.161 163.403C220.869 163.403 223.875 160.398 223.875 156.69C223.875 152.982 220.869 149.977 217.161 149.977C213.454 149.977 210.448 152.982 210.448 156.69C210.448 160.398 213.454 163.403 217.161 163.403Z" fill="#192534"/>
<path d="M213.095 150.381C213.095 149.351 213.47 148.357 214.149 147.582C214.827 146.807 215.764 146.305 216.785 146.169C216.184 146.088 215.572 146.136 214.991 146.31C214.41 146.485 213.873 146.782 213.416 147.181C212.959 147.58 212.593 148.072 212.342 148.625C212.091 149.177 211.962 149.777 211.962 150.383C211.962 150.99 212.091 151.59 212.342 152.142C212.593 152.695 212.959 153.187 213.416 153.586C213.873 153.985 214.41 154.282 214.991 154.457C215.572 154.631 216.184 154.679 216.785 154.598C215.763 154.462 214.826 153.959 214.147 153.183C213.469 152.408 213.094 151.412 213.095 150.381Z" fill="#192534"/>
<path d="M209.586 159.417C208.814 158.735 208.316 157.796 208.184 156.774C208.052 155.752 208.296 154.717 208.87 153.861C208.727 153.988 208.592 154.123 208.465 154.266C208.08 154.682 207.782 155.171 207.589 155.704C207.395 156.237 207.31 156.804 207.339 157.37C207.368 157.936 207.51 158.491 207.756 159.002C208.002 159.513 208.348 159.969 208.773 160.344C209.199 160.719 209.695 161.006 210.232 161.186C210.77 161.367 211.338 161.438 211.904 161.396C212.469 161.354 213.02 161.199 213.525 160.94C214.03 160.682 214.478 160.325 214.843 159.891C214.966 159.75 215.081 159.601 215.187 159.446C214.408 160.12 213.411 160.489 212.381 160.483C211.351 160.478 210.358 160.099 209.586 159.417Z" fill="#192534"/>
<path d="M213.649 165.204C213.299 165.273 212.962 165.391 212.646 165.556C212.087 165.961 212.107 166.77 212.273 167.429C212.654 168.935 213.584 170.379 215.009 170.994C215.891 171.32 216.83 171.457 217.768 171.399C218.784 171.399 219.933 171.262 220.565 170.46C220.849 170.038 221.043 169.561 221.135 169.06C221.447 167.846 221.762 166.592 221.649 165.337C221.034 165.39 220.346 165.426 219.861 165.038C219.375 164.649 219.266 163.909 219.051 163.294C219.028 163.195 218.972 163.107 218.893 163.043C218.805 163.003 218.707 162.989 218.61 163.003C217.964 163.03 217.317 163.003 216.676 162.922C216.271 162.869 215.292 162.452 214.993 162.804C214.774 163.059 214.912 163.836 214.742 164.196C214.635 164.428 214.484 164.637 214.296 164.81C214.109 164.983 213.889 165.117 213.649 165.204Z" fill="#FFC1C7"/>
<path opacity="0.05" d="M213.649 165.204C213.299 165.273 212.962 165.391 212.646 165.556C212.087 165.961 212.107 166.77 212.273 167.429C212.654 168.935 213.584 170.379 215.009 170.994C215.891 171.32 216.83 171.457 217.768 171.399C218.784 171.399 219.933 171.262 220.565 170.46C220.849 170.038 221.043 169.561 221.135 169.06C221.447 167.846 221.762 166.592 221.649 165.337C221.034 165.39 220.346 165.426 219.861 165.038C219.375 164.649 219.266 163.909 219.051 163.294C219.028 163.195 218.972 163.107 218.893 163.043C218.805 163.003 218.707 162.989 218.61 163.003C217.964 163.03 217.317 163.003 216.676 162.922C216.271 162.869 215.292 162.452 214.993 162.804C214.774 163.059 214.912 163.836 214.742 164.196C214.635 164.428 214.484 164.637 214.296 164.81C214.109 164.983 213.889 165.117 213.649 165.204Z" fill="black"/>
<path d="M217.068 164.625C219.661 164.625 221.762 162.524 221.762 159.931C221.762 157.339 219.661 155.237 217.068 155.237C214.476 155.237 212.374 157.339 212.374 159.931C212.374 162.524 214.476 164.625 217.068 164.625Z" fill="#FFC1C7"/>
<path d="M227.359 170.1C227.326 170.141 227.294 170.189 227.257 170.23L227.059 170.489C226.06 171.686 225.25 173.031 224.66 174.474C224.441 174.572 224.214 174.665 223.988 174.758C223.761 174.851 223.551 174.936 223.324 175.009C223.211 175.057 223.09 175.098 222.972 175.138C222.959 175.136 222.945 175.136 222.932 175.138C222.685 175.227 222.43 175.304 222.179 175.381L221.989 175.425C221.762 175.494 221.536 175.551 221.309 175.599C220.527 175.8 219.732 175.944 218.93 176.032C218.152 176.127 217.37 176.174 216.587 176.174C216.506 176.174 216.425 176.174 216.344 176.174C215.258 176.171 214.175 176.071 213.107 175.875L212.912 175.842C212.714 175.81 212.508 175.769 212.318 175.721L211.941 175.636C211.542 175.548 211.148 175.44 210.76 175.312C210.868 174.634 211.17 174.002 211.63 173.491C210.719 172.403 209.222 171.974 208.255 170.946C208.171 170.848 208.092 170.745 208.02 170.638C207.97 170.561 207.928 170.478 207.895 170.392C207.866 170.323 207.848 170.251 207.842 170.177C207.812 170.028 207.799 169.876 207.806 169.724C207.781 168.575 207.834 167.264 208.724 166.543C209.162 166.237 209.653 166.017 210.173 165.896C211.077 165.613 211.956 165.258 212.803 164.836C212.881 165.016 212.933 165.207 212.957 165.402C213.038 165.872 213.03 166.365 213.139 166.831C213.351 167.661 213.865 168.382 214.58 168.854C215.293 169.321 216.104 169.616 216.951 169.716C217.785 169.837 218.448 169.404 219.233 169.109C219.581 168.998 219.902 168.816 220.176 168.575C220.531 168.166 220.72 167.639 220.706 167.098C220.706 166.564 220.645 166.029 220.678 165.479C220.679 165.423 220.685 165.368 220.698 165.313C220.699 165.172 220.744 165.035 220.827 164.922C220.91 164.808 221.026 164.722 221.159 164.678C221.311 164.665 221.463 164.693 221.6 164.759L223.114 165.337C223.77 165.564 224.401 165.856 224.999 166.207C225.661 166.637 226.216 167.21 226.625 167.884C227.033 168.558 227.284 169.316 227.359 170.1Z" fill="#008FFF"/>
<path opacity="0.1" d="M213.086 175.879L212.892 175.846C212.694 175.814 212.488 175.773 212.297 175.725L211.921 175.64C211.522 175.552 211.127 175.444 210.739 175.316C209.949 175.079 209.174 174.791 208.421 174.454C208.042 173.222 207.904 171.927 208.016 170.642C208.065 170.091 208.179 169.548 208.356 169.024C209.206 169.833 210.654 169.376 211.618 170.023C211.879 170.208 212.092 170.452 212.241 170.735C212.51 171.254 212.693 171.813 212.783 172.391C212.844 172.706 212.9 173.026 212.949 173.345C212.949 173.402 212.949 173.447 212.949 173.495C212.949 173.544 212.949 173.596 212.949 173.649C212.981 173.876 213.01 174.11 213.022 174.341C213.086 174.863 213.086 175.365 213.086 175.879Z" fill="black"/>
<path d="M212.892 175.846C212.694 175.814 212.488 175.773 212.297 175.725L211.921 175.64C211.522 175.552 211.128 175.444 210.74 175.316C209.949 175.079 209.174 174.791 208.421 174.454L208.336 174.418C207.871 173.057 207.696 171.614 207.822 170.181C207.88 169.664 207.991 169.154 208.154 168.66C209.004 169.469 210.452 169.02 211.415 169.667C211.786 169.934 212.068 170.306 212.225 170.735C212.382 171.151 212.5 171.581 212.577 172.018C212.666 172.492 212.751 172.965 212.807 173.447C212.82 173.513 212.827 173.581 212.828 173.649C212.828 173.693 212.828 173.75 212.828 173.795C212.828 173.839 212.828 173.908 212.828 173.969C212.904 174.588 212.9 175.219 212.892 175.846Z" fill="#008FFF"/>
<path opacity="0.1" d="M226.946 173.289C226.209 173.731 225.445 174.127 224.659 174.474C224.441 174.572 224.214 174.665 223.988 174.758C223.761 174.851 223.551 174.936 223.324 175.009C223.211 175.057 223.089 175.098 222.972 175.138C222.959 175.136 222.945 175.136 222.932 175.138C222.685 175.227 222.43 175.304 222.179 175.381L221.989 175.425C221.989 175.065 221.989 174.693 222.029 174.329C222.058 174.041 222.09 173.754 222.13 173.467C222.13 173.414 222.13 173.362 222.151 173.309C222.155 173.275 222.155 173.241 222.151 173.208C222.199 172.933 222.252 172.654 222.304 172.378C222.388 171.8 222.572 171.24 222.847 170.723C222.998 170.445 223.213 170.207 223.474 170.027C224.437 169.38 225.902 169.821 226.711 169.028C226.87 169.498 226.98 169.984 227.039 170.476C227.148 171.413 227.117 172.361 226.946 173.289Z" fill="black"/>
<path d="M227.063 173.208L226.946 173.289C226.209 173.731 225.445 174.127 224.659 174.474C224.441 174.572 224.214 174.665 223.988 174.758C223.761 174.851 223.551 174.936 223.324 175.009C223.211 175.057 223.089 175.098 222.972 175.138C222.959 175.136 222.945 175.136 222.932 175.138C222.685 175.227 222.43 175.304 222.179 175.381C222.179 174.903 222.179 174.43 222.219 173.957C222.219 173.835 222.219 173.71 222.252 173.588C222.252 173.536 222.252 173.475 222.252 173.422C222.252 173.37 222.252 173.333 222.252 173.297C222.312 172.86 222.385 172.435 222.474 172.006C222.551 171.568 222.669 171.139 222.826 170.723C222.983 170.294 223.265 169.922 223.636 169.655C224.599 169.008 226.064 169.449 226.873 168.647C227.047 169.156 227.161 169.683 227.213 170.218C227.322 171.216 227.271 172.225 227.063 173.208Z" fill="#008FFF"/>
<path d="M216.975 159.272C220.086 159.272 222.608 157.59 222.608 155.516C222.608 153.443 220.086 151.761 216.975 151.761C213.864 151.761 211.343 153.443 211.343 155.516C211.343 157.59 213.864 159.272 216.975 159.272Z" fill="#192534"/>
<path opacity="0.05" d="M212.294 175.158C212.294 175.243 212.294 175.332 212.294 175.425C212.294 175.518 212.294 175.603 212.294 175.692C212.292 175.703 212.292 175.714 212.294 175.725L211.917 175.64C211.911 175.568 211.911 175.497 211.917 175.425C211.917 175.05 211.997 174.679 212.153 174.338C212.309 173.996 212.536 173.692 212.82 173.447C212.857 173.407 212.899 173.373 212.945 173.345C213.162 173.169 213.409 173.032 213.673 172.941C213.916 172.847 214.174 172.798 214.434 172.795C214.469 172.791 214.504 172.791 214.539 172.795C214.604 172.791 214.669 172.791 214.734 172.795H214.6C213.98 172.86 213.405 173.148 212.981 173.604C212.934 173.648 212.892 173.697 212.856 173.75C212.532 174.153 212.336 174.643 212.294 175.158Z" fill="black"/>
<path d="M216.413 175.425C216.412 175.679 216.382 175.931 216.324 176.178C215.238 176.175 214.154 176.075 213.086 175.879L212.892 175.846C212.694 175.814 212.488 175.773 212.297 175.725V175.692C212.297 175.603 212.297 175.518 212.297 175.425C212.297 175.332 212.297 175.243 212.297 175.158C212.332 174.615 212.517 174.093 212.832 173.649C212.868 173.593 212.91 173.542 212.957 173.495C213.146 173.26 213.389 173.074 213.665 172.953C213.877 172.852 214.11 172.799 214.345 172.799C214.372 172.795 214.399 172.795 214.426 172.799C214.481 172.795 214.537 172.795 214.592 172.799C215.616 172.973 216.413 174.082 216.413 175.425Z" fill="#008FFF"/>
<path opacity="0.05" d="M223.324 175.009C223.211 175.057 223.09 175.098 222.972 175.138C222.914 174.558 222.66 174.016 222.252 173.6L222.131 173.479C221.726 173.116 221.221 172.886 220.682 172.819H220.548C220.61 172.815 220.672 172.815 220.734 172.819C220.771 172.816 220.807 172.816 220.844 172.819C221.105 172.826 221.363 172.875 221.609 172.965C221.803 173.032 221.989 173.122 222.163 173.232C222.208 173.255 222.249 173.285 222.284 173.321C222.56 173.52 222.794 173.771 222.973 174.061C223.151 174.351 223.271 174.673 223.324 175.009Z" fill="black"/>
<path d="M222.972 175.138C222.959 175.136 222.945 175.136 222.932 175.138C222.685 175.227 222.43 175.304 222.179 175.381L221.989 175.425C221.762 175.494 221.536 175.551 221.309 175.599C220.527 175.8 219.732 175.944 218.93 176.032C218.889 175.829 218.868 175.621 218.869 175.413C218.869 174.07 219.678 172.961 220.694 172.807C220.748 172.803 220.802 172.803 220.856 172.807C220.881 172.803 220.907 172.803 220.933 172.807C221.171 172.806 221.406 172.859 221.621 172.961C221.822 173.05 222.006 173.175 222.163 173.329C222.207 173.363 222.248 173.401 222.284 173.443C222.69 173.919 222.931 174.514 222.972 175.138Z" fill="#008FFF"/>
<path opacity="0.1" d="M216.975 158.899C213.956 158.899 211.492 157.321 211.346 155.334C211.346 155.395 211.346 155.456 211.346 155.52C211.346 157.596 213.871 159.276 216.983 159.276C220.095 159.276 222.616 157.596 222.616 155.52C222.616 155.456 222.616 155.395 222.616 155.334C222.454 157.321 219.99 158.899 216.975 158.899Z" fill="black"/>
<path d="M196.528 46.9924C196.521 50.3421 197.356 53.6399 198.956 56.5827C199.138 56.9105 199.324 57.2382 199.531 57.5579C199.554 57.6063 199.584 57.6512 199.62 57.6914C199.843 58.0493 200.084 58.3951 200.344 58.7274C201.184 59.8965 202.154 60.9675 203.233 61.9201C203.434 62.1122 203.644 62.2932 203.864 62.4623C204.558 63.0416 205.294 63.5677 206.066 64.0364L206.187 64.1173C206.924 64.5586 207.686 64.9558 208.469 65.307L209.145 65.5862C209.368 65.6793 209.578 65.7683 209.809 65.8412C209.922 65.8857 210.04 65.9261 210.161 65.9666H210.218C210.463 66.0556 210.714 66.1366 210.97 66.2094L211.156 66.2539C211.383 66.3227 211.614 66.3834 211.84 66.4279C212.148 66.5088 212.451 66.5776 212.767 66.6343C213.24 66.7274 213.73 66.8083 214.216 66.8649C214.993 66.9578 215.775 67.0038 216.558 67.0025H216.797C217.883 66.9958 218.966 66.8943 220.034 66.699C220.1 66.6925 220.165 66.6817 220.229 66.6667C220.427 66.6343 220.633 66.5938 220.824 66.5453C220.953 66.521 221.07 66.4926 221.2 66.4603C221.605 66.3713 222.009 66.2661 222.381 66.1406C222.62 66.0637 222.855 65.9909 223.09 65.91C223.563 65.744 224.036 65.566 224.49 65.3637C224.56 65.3403 224.629 65.3119 224.696 65.2787L224.785 65.2382C225.384 64.9685 225.967 64.6677 226.533 64.3358C227.015 64.0607 227.484 63.7612 227.937 63.4456H227.966C228.039 63.4026 228.11 63.3539 228.176 63.2999C230.977 61.3075 233.218 58.6281 234.684 55.5193C236.149 52.4104 236.791 48.9768 236.546 45.5484C236.301 42.12 235.179 38.8123 233.286 35.9432C231.393 33.0742 228.795 30.7403 225.739 29.1659C222.684 27.5916 219.275 26.8297 215.84 26.9537C212.405 27.0776 209.06 28.0832 206.126 29.8736C203.192 31.6641 200.768 34.1792 199.087 37.1773C197.406 40.1753 196.525 43.5553 196.528 46.9924Z" fill="#3F3D56"/>
<path d="M221.014 54.9317C221.309 55.1918 221.515 55.5389 221.6 55.9231C221.018 56.0769 220.423 55.7896 219.881 55.5185C218.197 54.7288 216.42 54.1563 214.592 53.8149C214.445 53.8013 214.306 53.7482 214.187 53.6611C214.095 53.5372 214.048 53.3861 214.052 53.232C214.057 53.0779 214.113 52.9298 214.211 52.8113C214.414 52.6009 214.794 52.6292 215.069 52.6171C216.166 52.561 217.262 52.7367 218.286 53.1327C219.311 53.5288 220.24 54.1362 221.014 54.9155V54.9317Z" fill="#008FFF"/>
<path d="M215.094 53.3212C214.972 53.6243 214.791 53.8999 214.561 54.1314C214.331 54.3629 214.057 54.5457 213.754 54.6687C213.426 54.786 213.074 54.8063 212.743 54.8994C212.573 54.9348 212.413 55.0091 212.277 55.1165C212.141 55.224 212.032 55.3616 211.958 55.5185C211.913 55.6597 211.893 55.8074 211.897 55.9555C211.844 57.3515 211.804 58.7881 212.362 60.083C212.844 61.1917 213.726 62.0658 214.6 62.8953C215.62 63.8705 216.7 64.8579 218.044 65.2949C218.829 65.5498 219.755 65.5782 220.407 65.0723C220.662 64.8505 220.885 64.593 221.066 64.3075C221.521 63.7124 221.901 63.0642 222.199 62.3773C222.754 60.953 222.568 59.3586 222.373 57.8412C222.372 57.751 222.338 57.6645 222.276 57.5984C222.192 57.5458 222.09 57.5283 221.993 57.5498C221.645 57.5851 221.296 57.5104 220.993 57.3361C220.69 57.1619 220.45 56.8969 220.306 56.5787C220.222 56.2898 220.19 55.9883 220.213 55.6884L220.241 53.9565C220.254 53.7706 220.232 53.5839 220.176 53.4062C220.017 53.1175 219.76 52.8951 219.452 52.779C218.506 52.3056 217.52 51.9169 216.506 51.6176C216.061 51.4881 215.721 51.2696 215.523 51.7471C215.324 52.2246 215.324 52.8194 215.094 53.3212Z" fill="#FBBEBE"/>
<path opacity="0.1" d="M215.094 53.3212C214.972 53.6243 214.791 53.8999 214.561 54.1314C214.331 54.3629 214.057 54.5457 213.754 54.6687C213.426 54.786 213.074 54.8063 212.743 54.8994C212.573 54.9348 212.413 55.0091 212.277 55.1165C212.141 55.224 212.032 55.3616 211.958 55.5185C211.913 55.6597 211.893 55.8074 211.897 55.9555C211.844 57.3515 211.804 58.7881 212.362 60.083C212.844 61.1917 213.726 62.0658 214.6 62.8953C215.62 63.8705 216.7 64.8579 218.044 65.2949C218.829 65.5498 219.755 65.5782 220.407 65.0723C220.662 64.8505 220.885 64.593 221.066 64.3075C221.521 63.7124 221.901 63.0642 222.199 62.3773C222.754 60.953 222.568 59.3586 222.373 57.8412C222.372 57.751 222.338 57.6645 222.276 57.5984C222.192 57.5458 222.09 57.5283 221.993 57.5498C221.645 57.5851 221.296 57.5104 220.993 57.3361C220.69 57.1619 220.45 56.8969 220.306 56.5787C220.222 56.2898 220.19 55.9883 220.213 55.6884L220.241 53.9565C220.254 53.7706 220.232 53.5839 220.176 53.4062C220.017 53.1175 219.76 52.8951 219.452 52.779C218.506 52.3056 217.52 51.9169 216.506 51.6176C216.061 51.4881 215.721 51.2696 215.523 51.7471C215.324 52.2246 215.324 52.8194 215.094 53.3212Z" fill="black"/>
<path d="M219.779 54.7253C222.698 54.7253 225.064 52.3593 225.064 49.4406C225.064 46.5219 222.698 44.1558 219.779 44.1558C216.861 44.1558 214.495 46.5219 214.495 49.4406C214.495 52.3593 216.861 54.7253 219.779 54.7253Z" fill="#FBBEBE"/>
<path d="M212.759 66.6586C213.232 66.7517 213.722 66.8326 214.208 66.8892C214.985 66.9822 215.767 67.0281 216.55 67.0268H216.789C217.875 67.0201 218.958 66.9186 220.026 66.7233C220.092 66.7168 220.157 66.706 220.221 66.691C220.419 66.6586 220.625 66.6181 220.816 66.5696C220.945 66.5453 221.062 66.517 221.192 66.4846C221.597 66.3956 222.001 66.2903 222.373 66.1649C222.612 66.088 222.847 66.0152 223.082 65.9343C223.555 65.7683 224.028 65.5903 224.482 65.388C224.365 65.0282 224.269 64.6621 224.194 64.2914C224.064 63.4999 224.012 62.6974 224.041 61.8958C224.041 61.2524 224.069 60.6131 224.041 59.9737C224.051 59.4551 223.976 58.9383 223.818 58.4441C223.738 58.1972 223.609 57.9688 223.44 57.7722C223.27 57.5756 223.063 57.4147 222.831 57.2989C222.228 57.0319 221.321 56.8943 220.727 57.1937C220.659 57.2303 220.594 57.2722 220.532 57.3192C220.403 57.4275 220.303 57.5667 220.241 57.7238C220.047 58.2094 219.836 58.699 219.65 59.1846C219.53 59.5229 219.371 59.8461 219.177 60.1477C218.883 60.5444 218.473 60.8403 218.005 60.9946C217.536 61.149 217.031 61.1542 216.559 61.0096C216.499 60.9902 216.441 60.9672 216.385 60.9408C215.575 60.6131 214.835 59.9049 213.989 60.0951C213.755 60.1574 213.538 60.2721 213.355 60.4305C213.172 60.589 213.028 60.787 212.933 61.0096C212.921 61.0329 212.912 61.0573 212.905 61.0825C212.734 61.5056 212.636 61.9542 212.613 62.4097C212.491 63.8267 212.54 65.2533 212.759 66.6586Z" fill="#F2F2F2"/>
<path d="M203.233 61.9322C203.434 62.1243 203.644 62.3053 203.864 62.4745C204.558 63.0537 205.293 63.5799 206.066 64.0486L206.187 64.1295C206.924 64.5707 207.686 64.968 208.469 65.3192L209.145 65.5984C209.368 65.6915 209.578 65.7805 209.809 65.8533C209.922 65.8978 210.039 65.9383 210.161 65.9788H210.217C210.463 66.0678 210.714 66.1487 210.97 66.2215L211.156 66.2661C211.383 66.3349 211.614 66.3955 211.84 66.4401C212.148 66.521 212.451 66.5898 212.767 66.6464C213.24 66.7395 213.73 66.8204 214.215 66.8771C214.993 66.97 215.775 67.0159 216.558 67.0147H216.797C217.883 67.008 218.966 66.9064 220.034 66.7112C220.1 66.7047 220.165 66.6938 220.229 66.6788C220.427 66.6464 220.633 66.606 220.823 66.5574C220.953 66.5331 221.07 66.5048 221.2 66.4724C221.604 66.3834 222.009 66.2782 222.381 66.1528C222.62 66.0759 222.855 66.003 223.09 65.9221C223.563 65.7562 224.036 65.5781 224.49 65.3758C224.56 65.3524 224.629 65.324 224.696 65.2908L224.785 65.2504C225.384 64.9806 225.967 64.6798 226.533 64.348C226.931 63.2887 227.268 62.2079 227.545 61.1108C227.543 61.0892 227.543 61.0676 227.545 61.046C226.914 59.9251 226.355 58.7597 225.728 57.6388C225.549 57.2168 225.263 56.8494 224.897 56.5737C224.531 56.298 224.099 56.1238 223.644 56.0688C223.205 55.9242 222.749 55.8398 222.288 55.8179C222.026 55.7935 221.767 55.7489 221.511 55.6844C220.985 55.567 220.403 55.4537 220.208 55.6844C220.2 55.6905 220.193 55.6983 220.188 55.7074C220.183 55.7166 220.181 55.7266 220.18 55.737C220.107 56.0088 220.141 56.2981 220.273 56.5463C220.362 56.8012 220.48 57.0683 220.54 57.2868C220.576 57.3911 220.597 57.5002 220.601 57.6105C220.615 58.0845 220.599 58.5589 220.552 59.0309C220.439 59.7188 220.059 60.3258 219.881 60.9934C219.8 61.3091 219.759 61.6368 219.707 61.9565C219.594 62.6785 219.406 63.3865 219.144 64.0688C219.097 64.2137 219.027 64.3503 218.938 64.4735C218.606 64.8781 218.056 64.7243 217.534 64.6475C217.153 64.3237 217.173 63.7491 217.129 63.2635C217.017 62.4479 216.768 61.657 216.393 60.9246L216.255 60.6333C215.85 59.7956 215.446 58.9621 215.065 58.1204C214.576 57.0764 214.07 55.8826 214.474 54.8022C214.592 54.4785 214.782 54.1912 214.911 53.8796C214.933 53.8338 214.95 53.7865 214.964 53.738C215.001 53.6187 215.022 53.4947 215.025 53.3698C215.039 53.258 215.03 53.1445 214.998 53.0365C214.966 52.9285 214.912 52.8284 214.839 52.7425C214.817 52.7095 214.79 52.6807 214.758 52.6576C214.744 52.6432 214.728 52.6322 214.709 52.6252C214.576 52.5486 214.426 52.5049 214.273 52.4979C214.12 52.4909 213.967 52.5206 213.827 52.5847C213.667 52.6427 213.512 52.7117 213.362 52.7911C212.567 53.2386 211.801 53.7346 211.067 54.2762C210.852 54.404 210.684 54.5987 210.59 54.8306C210.573 54.9843 210.547 55.1369 210.513 55.2878C210.4 55.5751 210.056 55.6601 209.76 55.7248C208.539 56.0069 207.387 56.5353 206.377 57.2777C205.367 58.0201 204.519 58.9609 203.885 60.0425C203.67 60.3903 203.501 60.7643 203.383 61.1553C203.311 61.4095 203.261 61.6694 203.233 61.9322Z" fill="#008FFF"/>
<path d="M222.106 46.4583C221.39 47.1907 220.245 47.219 219.221 47.2028L219.254 46.7982L217.817 47.3121C218.19 47.0353 218.51 46.6924 218.76 46.3005C218.66 46.2261 218.541 46.1823 218.416 46.1744C218.292 46.1665 218.168 46.1948 218.06 46.2559C217.844 46.3811 217.665 46.5594 217.538 46.7739C217.13 47.385 216.87 48.083 216.779 48.8122C216.689 49.5415 216.77 50.2818 217.016 50.9742C216.869 51.0461 216.707 51.0783 216.544 51.0677C216.382 51.057 216.225 51.0039 216.089 50.9135C215.819 50.7285 215.612 50.4661 215.494 50.1608C215.409 49.9666 215.32 49.7562 215.118 49.6793C215.031 49.6579 214.939 49.6662 214.857 49.7028C214.775 49.7395 214.707 49.8024 214.665 49.8816C214.58 50.0387 214.546 50.2183 214.568 50.3956C214.596 50.8002 214.899 51.2049 214.972 51.6095C215.045 52.0142 215.644 52.3379 215.328 52.609C214.958 52.7482 214.572 52.8393 214.179 52.8801C214.101 52.8567 214.03 52.8147 213.972 52.7575C213.915 52.7004 213.872 52.6299 213.847 52.5524C213.528 51.8483 213.641 51.0268 213.443 50.2782C213.259 49.684 212.977 49.1246 212.609 48.6232C212.52 48.4699 212.415 48.3274 212.293 48.1983C212.166 48.1052 212.061 47.9849 211.986 47.8462C211.933 47.7006 212.034 47.4861 212.188 47.5144C211.937 47.2712 211.667 47.0492 211.379 46.8508C211.662 46.4947 211.937 46.1305 212.188 45.7663C212.281 45.6368 212.378 45.479 212.31 45.3374C212.271 45.2714 212.215 45.2169 212.148 45.1796L211.432 44.694C211.432 44.3541 212.107 44.4795 212.212 44.1598C212.239 44.0755 212.239 43.9852 212.212 43.9009L211.962 42.9863L212.917 43.4193C213.027 43.4829 213.154 43.5124 213.281 43.5043C213.532 43.4679 213.653 43.1725 213.685 42.9175C213.66 42.6625 213.693 42.405 213.783 42.1649C214.216 42.1649 214.649 42.1649 215.077 42.1649C215.106 41.9485 215.049 41.7296 214.92 41.5539L218.108 41.3758C218.65 41.3141 219.199 41.3525 219.727 41.4891C219.895 41.5685 220.079 41.61 220.265 41.6105C220.447 41.6105 220.633 41.4203 220.581 41.2423C221.059 41.5122 221.496 41.8487 221.88 42.2418C221.982 42.3656 222.107 42.4687 222.248 42.5453C222.32 42.5822 222.401 42.5969 222.481 42.5876C222.561 42.5782 222.636 42.5452 222.697 42.4927C222.786 42.3996 222.827 42.2337 222.956 42.2256C223.086 42.2175 223.102 42.2903 223.15 42.351C223.333 42.5853 223.481 42.8441 223.591 43.1199C223.821 43.0887 224.045 43.0289 224.259 42.9418C224.159 43.0485 224.094 43.183 224.072 43.3276C224.051 43.4721 224.073 43.6198 224.138 43.7511C224.243 44.0223 224.437 44.2529 224.567 44.5119C224.694 44.7919 224.78 45.0891 224.822 45.394C224.886 45.7744 224.886 46.2559 224.55 46.4421C224.391 46.497 224.22 46.5064 224.055 46.4693C223.891 46.4321 223.74 46.3498 223.62 46.2317C222.847 45.6813 222.705 45.8432 222.106 46.4583Z" fill="#192534"/>
<path d="M203.865 62.4745C204.558 63.0537 205.294 63.5799 206.066 64.0486L206.187 64.1295C206.924 64.5707 207.686 64.968 208.469 65.3192L209.145 65.5984C209.368 65.6915 209.578 65.7805 209.809 65.8533C209.922 65.8978 210.04 65.9383 210.161 65.9788C210.019 65.5741 209.926 65.1695 209.801 64.7648C209.467 63.6838 208.87 62.7024 208.065 61.9079C207.369 61.2119 206.26 60.1962 205.232 60.8113C204.919 61.0224 204.645 61.2867 204.423 61.5923C204.226 61.8174 204.057 62.0662 203.921 62.3328C203.901 62.3692 203.885 62.4178 203.865 62.4745Z" fill="#008FFF"/>
<path d="M223.106 65.9302C223.579 65.7643 224.053 65.5862 224.506 65.3839C224.577 65.3605 224.646 65.3321 224.712 65.2989L224.801 65.2585C225.4 64.9887 225.983 64.6879 226.549 64.3561C227.031 64.0809 227.5 63.7815 227.954 63.4659H227.982C227.945 63.0147 227.945 62.5614 227.982 62.1103C228.005 61.9589 227.995 61.8043 227.954 61.6571C227.897 61.5405 227.82 61.4349 227.727 61.3455C227.667 61.2859 227.612 61.2224 227.561 61.1553C227.104 60.6414 226.731 60.087 225.942 60.1679C225.153 60.2489 224.473 60.9287 224.142 61.6854C224.105 61.7582 224.076 61.834 224.053 61.912C223.827 62.615 223.651 63.333 223.527 64.0607C223.421 64.5099 223.288 64.9428 223.191 65.392C223.166 65.5579 223.13 65.7441 223.106 65.9302Z" fill="#008FFF"/>
<path d="M131.889 185.153L131.711 185.25L131.889 185.153Z" fill="url(#paint0_linear)"/>
<path d="M107.031 163.298C105.469 167.798 107.294 175.102 108.14 178.359C108.7 180.716 109.071 183.114 109.248 185.53C111.152 185.853 113.1 185.809 114.986 185.4L113.619 178.687C114.594 174.709 113.619 164.083 113.619 164.083C113.619 164.083 115.832 159.976 116.047 153.716C116.237 147.557 117.754 145.566 117.803 145.501C120.931 147.12 124.909 164.605 124.909 164.605C124.581 168.842 124.973 175.361 126.276 178.881C127.067 181.117 127.4 183.49 127.256 185.857C127.509 186.039 127.798 186.164 128.104 186.222C128.41 186.281 128.725 186.273 129.028 186.197C130.889 185.898 133.123 184.291 133.123 184.291C133.123 184.291 132.407 165.273 131.885 164.54C131.363 163.808 131.885 159.717 131.885 159.717L131.035 153.064C131.035 153.064 131.164 141.787 129.926 139.832C128.858 138.141 128.611 135.175 128.563 134.394C128.563 134.272 128.563 134.203 128.563 134.203L126.677 131.941C126.677 131.941 108.423 130.574 107.051 131.941C106.715 132.277 106.509 133.042 106.383 134.005C106.007 136.963 106.44 141.787 106.44 141.787C106.44 141.787 106.986 145.372 107.771 149.022C108.241 151.214 108.241 153.482 107.771 155.674C108.021 158.239 107.769 160.829 107.031 163.298Z" fill="#575A89"/>
<path d="M108.156 191.887C108.965 192.963 113.764 192.506 114.578 192.17C115.075 191.968 115.039 191.029 114.905 190.066C114.82 189.451 114.695 188.823 114.642 188.366C114.513 187.193 115.047 184.813 115.047 184.813C115.047 184.813 113.971 185.954 113.712 184.813C113.651 184.596 113.532 184.399 113.368 184.243C113.205 184.088 113.001 183.98 112.781 183.931C112.223 183.762 111.622 183.799 111.09 184.036C110.24 184.401 108.827 185.186 109.066 186.246C109.422 187.743 108.152 189.888 108.152 189.888C107.922 190.175 107.797 190.532 107.797 190.899C107.797 191.267 107.922 191.624 108.152 191.911L108.156 191.887Z" fill="#CBCEDA"/>
<path opacity="0.1" d="M108.156 191.887C108.965 192.963 113.764 192.506 114.578 192.17C115.075 191.968 115.039 191.029 114.906 190.066C114.392 190.305 113.513 190.507 112.073 190.369C111.733 190.338 111.391 190.327 111.049 190.337C110.012 190.386 108.972 190.366 107.937 190.276C107.822 190.539 107.781 190.828 107.819 191.112C107.858 191.397 107.974 191.665 108.156 191.887Z" fill="black"/>
<path opacity="0.1" d="M124.88 164.605C124.552 168.842 124.945 175.361 126.248 178.881C127.038 181.117 127.371 183.49 127.227 185.857C127.48 186.039 127.77 186.164 128.076 186.222C128.382 186.281 128.697 186.273 129 186.197C128.595 183.45 126.932 171.601 125.855 162.242C125.077 155.759 122.691 149.574 118.916 144.247L117.774 145.501C120.902 147.132 124.88 164.605 124.88 164.605Z" fill="black"/>
<path d="M110.114 96.085L110.924 99.998L114.824 106.549L119.632 104.498C119.632 104.498 126.167 97.651 122.06 96.6717C121.567 96.5684 121.102 96.3615 120.696 96.0647C120.344 95.7843 120.064 95.4241 119.879 95.0138C119.694 94.6036 119.609 94.1551 119.632 93.7056C119.663 92.7355 119.891 91.7817 120.299 90.9014L111.887 88.2671C112.231 89.3728 112.433 90.5176 112.49 91.6743C112.554 93.9646 111.701 95.0936 111.004 95.6318C110.741 95.8403 110.438 95.9944 110.114 96.085Z" fill="#FBBEBE"/>
<path opacity="0.1" d="M111.887 88.2671C112.231 89.3728 112.433 90.5176 112.49 91.6743C112.641 91.8576 112.805 92.0306 112.979 92.1922C114.209 93.372 115.847 94.0316 117.552 94.0334C118.25 94.0348 118.944 93.9241 119.607 93.7056C119.639 92.7355 119.866 91.7817 120.275 90.9014L111.887 88.2671Z" fill="black"/>
<path d="M110.908 87.1866C110.907 88.5029 111.296 89.7898 112.027 90.8845C112.758 91.9792 113.797 92.8325 115.013 93.3364C116.229 93.8403 117.567 93.9722 118.858 93.7153C120.149 93.4584 121.335 92.8243 122.266 91.8933C123.196 90.9623 123.829 89.7762 124.085 88.4851C124.342 87.194 124.209 85.8559 123.704 84.6402C123.2 83.4245 122.346 82.3859 121.251 81.6557C120.155 80.9255 118.868 80.5366 117.552 80.5382C116.678 80.5344 115.812 80.7039 115.004 81.0367C114.196 81.3695 113.462 81.8592 112.844 82.4774C112.226 83.0955 111.737 83.83 111.405 84.6383C111.072 85.4466 110.903 86.3127 110.908 87.1866Z" fill="#FBBEBE"/>
<path opacity="0.1" d="M110.114 96.085L110.924 99.998L114.824 106.549L119.632 104.498C119.632 104.498 126.167 97.651 122.06 96.6717C121.567 96.5684 121.102 96.3615 120.696 96.0647C121.436 98.088 118.377 102.345 118.377 102.345C118.021 102.867 117.204 102.539 117.204 102.539C115.229 102.24 111.599 96.5706 111.009 95.6277C110.744 95.8382 110.44 95.9937 110.114 96.085Z" fill="black"/>
<path opacity="0.1" d="M106.347 133.993C107.504 134.256 113.91 135.676 116.338 135.32C119.013 134.916 124.208 134.669 124.208 134.669C124.208 134.669 127.518 134.847 128.534 134.381C128.534 134.26 128.534 134.191 128.534 134.191L126.648 131.929C126.648 131.929 108.394 130.561 107.023 131.929C106.679 132.277 106.472 133.042 106.347 133.993Z" fill="black"/>
<path d="M118.361 102.539C118.361 102.539 121.801 97.7764 120.502 95.9191L126.313 98.3025C126.313 98.3025 129.809 97.8776 131.071 103.098C131.273 103.966 131.347 104.859 131.29 105.748C131.255 107.13 131.585 108.496 132.245 109.71C133.681 112.579 133.354 119.162 130.42 119.826C127.486 120.49 126.442 120.15 126.442 120.15C126.442 120.15 126.847 132.079 128.53 133.451C130.213 134.822 124.208 134.495 124.208 134.495C124.208 134.495 119.013 134.754 116.338 135.146C113.663 135.539 106.169 133.774 106.169 133.774C106.169 133.774 107.278 128.757 107.666 125.56C108.055 122.363 108.973 115.565 108.973 115.565L102.321 106.557C102.321 106.557 101.147 101.115 105.254 98.7031C109.362 96.2914 110.92 95.6965 110.92 95.6965C110.92 95.6965 115.047 102.418 117.2 102.746C117.188 102.737 118.005 103.065 118.361 102.539Z" fill="#3F3D56"/>
<path opacity="0.1" d="M125.989 104.429C125.989 104.429 126.054 106.582 125.661 107.431C125.269 108.281 123.836 112.971 123.836 112.971H127.094C127.094 112.971 125.333 111.081 125.475 110.167C125.617 109.252 125.989 104.429 125.989 104.429Z" fill="black"/>
<path d="M116.338 120.664C116.338 120.664 123.537 118.903 124.209 117.402C124.88 115.901 126.729 112.546 126.729 112.546L125.969 111.523L122.468 114.27C122.468 114.27 118.297 117.596 116.338 117.912C114.379 118.228 116.338 120.664 116.338 120.664Z" fill="#FBBEBE"/>
<path opacity="0.05" d="M116.338 120.664C116.338 120.664 123.537 118.903 124.209 117.402C124.88 115.901 126.729 112.546 126.729 112.546L125.969 111.523L122.468 114.27C122.468 114.27 118.297 117.596 116.338 117.912C114.379 118.228 116.338 120.664 116.338 120.664Z" fill="black"/>
<path d="M110.114 112.19V116.095H110.741C113.842 116.095 116.892 116.885 119.603 118.389L120.781 119.041L121.097 119.219L123.12 114.667L121.23 112.971H121.133C120.668 113.016 118.669 113.186 117.823 112.898C116.977 112.611 116.018 111.757 113.643 112.364C112.477 112.664 111.478 113.983 110.345 113.578L110.114 112.19Z" fill="#FBBEBE"/>
<path opacity="0.1" d="M103.822 105.084L102.519 106.549V110.118C102.519 110.118 103.628 121.331 107.148 122.57C110.669 123.808 116.953 121.853 116.953 121.853C116.953 121.853 118.572 117.552 117.815 117.289C117.058 117.026 111.106 115.456 111.106 115.456C111.106 115.456 111.187 108.88 109.892 106.926C109.892 106.926 110.742 100.795 107.808 100.666C104.874 100.536 103.822 105.084 103.822 105.084Z" fill="black"/>
<path d="M103.628 105.084L102.321 106.549V110.118C102.321 110.118 103.43 121.331 106.95 122.57C110.471 123.808 116.743 121.853 116.743 121.853C116.743 121.853 118.361 117.552 117.609 117.289C116.856 117.026 110.895 115.456 110.895 115.456C110.895 115.456 110.98 108.88 109.681 106.926C109.681 106.926 110.527 100.795 107.593 100.666C104.66 100.536 103.628 105.084 103.628 105.084Z" fill="#3F3D56"/>
<path opacity="0.1" d="M112.732 90.0111C112.675 89.5831 112.727 89.1475 112.882 88.7446C112.965 88.5462 113.11 88.3802 113.295 88.2721C113.481 88.1639 113.697 88.1195 113.91 88.1457C114.468 88.2752 114.719 89.0035 115.257 89.1775C115.495 89.2251 115.741 89.1904 115.956 89.0794C116.17 88.9683 116.341 88.7874 116.439 88.5665C116.626 88.1177 116.704 87.6309 116.666 87.1462C116.666 86.6039 116.666 86.0577 116.666 85.5276C116.666 84.9975 116.686 84.2934 117.05 83.828C117.507 83.2494 118.576 82.9944 119.288 83.0187C119.762 83.0224 120.218 83.206 120.562 83.5326C120.737 83.7071 120.948 83.8404 121.18 83.923C121.413 84.0056 121.661 84.0354 121.906 84.0101C122.123 83.9772 122.326 83.8838 122.492 83.7406C122.658 83.5974 122.78 83.4104 122.845 83.2008C122.843 83.1942 122.843 83.1872 122.845 83.1806C122.29 82.4497 121.59 81.8416 120.789 81.3944C119.988 80.9473 119.103 80.6708 118.189 80.5824C117.276 80.494 116.354 80.5956 115.482 80.8808C114.61 81.166 113.807 81.6286 113.122 82.2395C112.438 82.8504 111.887 83.5964 111.505 84.4305C111.122 85.2646 110.917 86.1688 110.901 87.0862C110.886 88.0036 111.06 88.9143 111.413 89.761C111.767 90.6077 112.292 91.3721 112.955 92.0061C112.842 91.346 112.768 90.6799 112.732 90.0111Z" fill="black"/>
<path d="M121.914 83.8159C122.13 83.7821 122.333 83.6883 122.499 83.5453C122.665 83.4023 122.788 83.2157 122.853 83.0066C122.905 82.7962 122.893 82.5696 122.954 82.3632C123.108 81.8493 123.654 81.5822 124.018 81.1937C124.755 80.4128 124.706 79.13 124.184 78.1952C123.78 77.4385 122.97 76.8032 122.1 76.9489C121.574 77.042 121.117 77.4183 120.583 77.4507C120.068 77.4148 119.569 77.2537 119.13 76.9813C117.999 76.469 116.728 76.3563 115.525 76.6616C115.155 76.7353 114.812 76.9088 114.533 77.1634C114.344 77.4002 114.169 77.6475 114.007 77.9039C113.396 78.6808 112.308 78.8306 111.34 79.0046C110.373 79.1786 109.277 79.563 108.957 80.4977C108.747 81.1128 108.957 81.7845 109.07 82.4279C109.114 82.561 109.105 82.7056 109.046 82.8326C108.896 83.0835 108.516 82.9783 108.237 83.039C107.69 83.1523 107.549 83.8483 107.529 84.4229C107.504 85.0663 107.488 85.7097 107.476 86.3531C107.442 86.652 107.479 86.9549 107.585 87.2364C107.692 87.5179 107.864 87.77 108.087 87.9717L110.24 90.5574C111.195 91.7066 112.206 93.042 112.016 94.523C112.465 94.7253 113.004 94.3328 113.153 93.8594C113.254 93.3715 113.229 92.866 113.08 92.3905C112.906 91.5513 112.793 90.7007 112.741 89.8452C112.684 89.4172 112.735 88.9816 112.89 88.5787C112.972 88.3791 113.118 88.2122 113.304 88.1039C113.491 87.9956 113.708 87.952 113.922 87.9798C114.481 88.1093 114.731 88.8336 115.27 89.0116C115.507 89.0584 115.753 89.0235 115.967 88.9125C116.182 88.8015 116.352 88.6211 116.451 88.4006C116.638 87.9518 116.716 87.465 116.678 86.9803V85.3617C116.678 84.7709 116.698 84.1477 117.062 83.6621C117.52 83.0835 118.588 82.8326 119.3 82.8528C119.774 82.8604 120.228 83.0435 120.575 83.3667C120.751 83.5363 120.962 83.6645 121.194 83.7422C121.425 83.8199 121.671 83.8451 121.914 83.8159Z" fill="#3F3D56"/>
<path opacity="0.1" d="M120.413 104.267L118.389 112.656C118.389 112.656 116.763 112.643 120.413 104.267Z" fill="black"/>
<path opacity="0.1" d="M113.437 102.867C113.437 102.867 116.111 107.245 115.055 111.769L114.557 111.806C114.557 111.806 115.46 109.714 113.437 102.867Z" fill="black"/>
<path opacity="0.1" d="M111.741 127.64C111.741 127.64 108.459 126.555 108.22 129.072C108.22 129.072 108.84 127.344 111.741 127.64Z" fill="black"/>
<path opacity="0.1" d="M121.23 113.165C121.23 113.165 121.882 117.73 120.708 119.555C122.55 120.206 124.505 120.472 126.454 120.336L126.859 113.165H121.23Z" fill="black"/>
<path opacity="0.1" d="M120.789 119.041L121.105 119.219L123.128 114.667L121.238 112.971H121.137C121.161 113.19 121.687 117.111 120.789 119.041Z" fill="black"/>
<path d="M121.23 112.971C121.23 112.971 121.882 117.536 120.708 119.361C122.55 120.01 124.506 120.275 126.454 120.142L128.736 112.971H121.23Z" fill="#3F3D56"/>
<path d="M126.859 189.111C126.896 189.436 127.041 189.74 127.271 189.973C127.5 190.207 127.801 190.358 128.125 190.402C129.894 190.669 134.159 191.34 135.235 191.854C136.607 192.506 142.017 192.049 142.276 191.397C142.313 191.267 142.324 191.131 142.308 190.997C142.292 190.863 142.249 190.734 142.183 190.616C141.999 190.217 141.693 189.887 141.309 189.673C141.179 189.604 141.044 189.546 140.904 189.499C139.885 189.159 137.962 188.439 137.44 187.682C137.44 187.682 135.041 185.582 134.357 184.445C134.228 184.222 134.047 184.034 133.828 183.897C133.609 183.761 133.36 183.681 133.103 183.664C132.532 183.64 131.889 183.927 131.638 185.178C131.638 185.178 128.51 186.962 127.664 185.396C127.664 185.396 127.531 187.8 127.013 188.459C126.877 188.648 126.822 188.882 126.859 189.111Z" fill="#CBCEDA"/>
<path opacity="0.1" d="M126.859 189.111C126.896 189.436 127.041 189.74 127.271 189.973C127.5 190.207 127.801 190.358 128.125 190.402C129.894 190.669 134.159 191.34 135.235 191.854C136.607 192.506 142.017 192.049 142.276 191.397C142.313 191.267 142.324 191.131 142.308 190.997C142.292 190.863 142.249 190.734 142.183 190.616C141.999 190.217 141.693 189.887 141.309 189.673C140.427 190.26 138.476 190.835 134.163 190.159C130.052 189.519 128.016 188.888 127.025 188.463C126.886 188.649 126.827 188.882 126.859 189.111Z" fill="black"/>
<g opacity="0.1">
<path opacity="0.1" d="M109.078 82.5048C109.078 82.5048 109.078 82.4846 109.078 82.4765C108.953 81.9925 108.887 81.4953 108.88 80.9954C108.912 81.3995 108.97 81.8009 109.054 82.1973C109.084 82.2969 109.092 82.4017 109.078 82.5048Z" fill="black"/>
<path opacity="0.1" d="M112.882 88.607C112.78 88.8436 112.725 89.0979 112.72 89.3556C112.691 89.001 112.747 88.6447 112.882 88.3156C112.965 88.1165 113.11 87.95 113.297 87.8418C113.483 87.7336 113.7 87.6897 113.914 87.7168C114.472 87.8462 114.723 88.5746 115.262 88.7486C115.499 88.7961 115.745 88.7615 115.96 88.6505C116.174 88.5394 116.345 88.3585 116.443 88.1376C116.63 87.6889 116.708 87.202 116.67 86.7173C116.67 86.175 116.67 85.6287 116.67 85.0986C116.67 84.5685 116.69 83.8644 117.054 83.3991C117.511 82.8204 118.58 82.5655 119.292 82.5898C119.767 82.5934 120.222 82.7771 120.567 83.1037C120.741 83.2781 120.952 83.4115 121.184 83.4941C121.417 83.5767 121.665 83.6065 121.91 83.5812C122.127 83.5487 122.33 83.4555 122.496 83.3122C122.663 83.169 122.785 82.9817 122.849 82.7719C122.901 82.5615 122.889 82.3349 122.95 82.1285C123.104 81.6146 123.65 81.3475 124.014 80.959C124.358 80.5823 124.554 80.0934 124.565 79.5832C124.592 79.8846 124.558 80.1885 124.463 80.476C124.368 80.7634 124.216 81.0284 124.014 81.2544C123.65 81.6591 123.104 81.91 122.95 82.4198C122.889 82.6302 122.901 82.8528 122.849 83.0632C122.784 83.2728 122.662 83.4599 122.496 83.603C122.33 83.7462 122.127 83.8396 121.91 83.8725C121.664 83.8982 121.416 83.8682 121.183 83.7848C120.951 83.7015 120.74 83.5669 120.567 83.391C120.221 83.0661 119.766 82.8827 119.292 82.8771C118.58 82.8528 117.511 83.1077 117.054 83.6864C116.69 84.1517 116.674 84.7952 116.67 85.3859C116.666 85.9767 116.67 86.4745 116.67 87.0046C116.708 87.488 116.63 87.9735 116.443 88.4208C116.346 88.6427 116.176 88.8245 115.961 88.9358C115.746 89.047 115.499 89.0809 115.262 89.0319C114.715 88.8579 114.472 88.1335 113.914 88.0041C113.7 87.9759 113.482 88.0198 113.295 88.1289C113.108 88.2381 112.963 88.4063 112.882 88.607Z" fill="black"/>
<path opacity="0.1" d="M107.525 86.8144C107.645 87.1492 107.833 87.4553 108.079 87.7127L110.232 90.2984C111.138 91.3869 112.097 92.6454 112.024 94.0374C111.96 92.7628 111.073 91.6095 110.232 90.5898L108.079 88.004C107.856 87.8024 107.684 87.5503 107.577 87.2688C107.471 86.9872 107.434 86.6844 107.468 86.3854C107.468 86.5303 107.487 86.6745 107.525 86.8144Z" fill="black"/>
<path opacity="0.1" d="M113.145 93.6004C113.181 93.4861 113.202 93.3679 113.21 93.2484C113.227 93.465 113.205 93.6829 113.145 93.8918C112.995 94.3652 112.461 94.7577 112.008 94.5513C112.021 94.4575 112.028 94.3628 112.028 94.2681C112.265 94.3258 112.515 94.2882 112.724 94.1632C112.933 94.0383 113.084 93.8361 113.145 93.6004Z" fill="black"/>
</g>
<path opacity="0.1" d="M134.806 185.04C134.806 185.04 134.127 186.254 131.658 185.182L134.806 185.04Z" fill="black"/>
<path opacity="0.1" d="M113.93 185.327C113.93 185.327 111.802 187.836 109.119 186.137L113.93 185.327Z" fill="black"/>
<path opacity="0.1" d="M107.735 155.674C107.735 155.674 109.236 156.613 109.289 157.151C109.341 157.689 108.512 156.747 108.512 156.747L107.735 155.674Z" fill="black"/>
<path opacity="0.1" d="M107.14 162.881C107.663 163.318 108.313 163.572 108.993 163.605C110.118 163.654 110.025 165.119 109.289 164.682C108.528 164.137 107.81 163.535 107.14 162.881Z" fill="black"/>
<path opacity="0.1" d="M106.853 163.82C106.853 163.82 107.577 167.369 108.164 166.685L106.853 163.82Z" fill="black"/>
<path d="M33.7036 186.044C34.9176 183.814 33.5377 181.082 31.9677 179.096C30.3976 177.109 28.4836 175.049 28.5241 172.504C28.5848 168.862 32.4492 166.709 35.5367 164.779C37.8293 163.348 39.943 161.648 41.8331 159.717C42.624 158.973 43.2786 158.096 43.7674 157.127C44.4067 155.703 44.3865 154.084 44.346 152.526C44.2111 147.328 43.9549 142.136 43.5772 136.951" stroke="#3F3D56" stroke-width="4" stroke-miterlimit="10"/>
<path d="M49.4487 136.668C49.4057 135.716 49.1236 134.791 48.6285 133.978C48.1334 133.165 47.4413 132.489 46.6161 132.014L45.3455 134.527L45.382 131.484C44.2301 131.148 43.0012 131.186 41.8723 131.592C40.7434 131.999 39.7729 132.754 39.1006 133.748C38.4284 134.742 38.0891 135.924 38.1318 137.123C38.1744 138.322 38.5967 139.477 39.3379 140.421C40.079 141.365 41.1007 142.049 42.2556 142.374C43.4106 142.7 44.6391 142.651 45.7641 142.233C46.8892 141.816 47.8526 141.052 48.5155 140.052C49.1784 139.051 49.5066 137.866 49.4528 136.668H49.4487Z" fill="#57B894"/>
<path d="M39.3203 175.106C38.7246 176.26 37.7501 177.175 36.5602 177.697C35.3703 178.218 34.0372 178.315 32.7845 177.971C31.5317 177.626 30.4353 176.862 29.6791 175.806C28.9229 174.749 28.5528 173.465 28.6308 172.168C28.7089 170.871 29.2303 169.64 30.1078 168.682C30.9852 167.724 32.1653 167.097 33.4504 166.905C34.7354 166.713 36.0472 166.969 37.166 167.63C38.2848 168.29 39.1425 169.315 39.5955 170.533L36.0467 173.418L39.9516 172.516C39.9501 173.417 39.7337 174.305 39.3203 175.106Z" fill="#57B894"/>
<path d="M36.516 164.079C35.1049 164.179 33.7076 163.747 32.5988 162.868C31.49 161.99 30.75 160.728 30.5243 159.332C30.2985 157.935 30.6034 156.505 31.379 155.322C32.1545 154.139 33.3447 153.289 34.7153 152.939L34.6829 155.278L35.9697 152.732C36.7148 152.696 37.4598 152.807 38.1619 153.059C38.864 153.312 39.5094 153.7 40.0609 154.202C40.6125 154.705 41.0594 155.311 41.376 155.986C41.6927 156.662 41.8728 157.393 41.906 158.139C41.9392 158.794 41.857 159.45 41.6632 160.077C41.3219 161.193 40.6443 162.176 39.723 162.893C38.8017 163.609 37.6817 164.023 36.516 164.079Z" fill="#57B894"/>
<path d="M50.3026 154.905C49.4307 154.938 48.563 154.769 47.7673 154.411C46.9716 154.053 46.2692 153.516 45.715 152.843C45.1609 152.169 44.7698 151.376 44.5724 150.526C44.375 149.676 44.3766 148.792 44.577 147.943C44.7774 147.094 45.1713 146.302 45.7278 145.63C46.2844 144.959 46.9886 144.424 47.7856 144.069C48.5826 143.714 49.4509 143.548 50.3226 143.584C51.1944 143.62 52.0461 143.856 52.8114 144.275L51.8079 147.027L53.8757 145.044C54.9816 146.057 55.6408 147.467 55.7087 148.965C55.7357 149.491 55.688 150.018 55.5671 150.531C55.2837 151.733 54.6167 152.81 53.6669 153.599C52.717 154.388 51.5361 154.847 50.3026 154.905Z" fill="#57B894"/>
<path opacity="0.1" d="M48.6837 138.181C47.3726 138.323 46.098 138.731 44.7828 138.812C43.4677 138.893 42.0231 138.578 41.1895 137.558C40.7444 137.008 40.5178 136.308 40.1415 135.709C39.782 135.149 39.29 134.686 38.709 134.361C38.3663 135.077 38.1781 135.858 38.1564 136.651C38.1347 137.445 38.2802 138.235 38.5833 138.968C38.8863 139.702 39.3403 140.364 39.9157 140.911C40.4911 141.459 41.1751 141.879 41.9233 142.144C42.6715 142.41 43.4673 142.516 44.2589 142.454C45.0505 142.392 45.8203 142.165 46.5184 141.787C47.2165 141.409 47.8273 140.888 48.3112 140.258C48.7951 139.629 49.1412 138.904 49.3271 138.133C49.114 138.141 48.8995 138.157 48.6837 138.181Z" fill="black"/>
<path opacity="0.1" d="M50.3026 154.905C49.3231 154.955 48.3475 154.75 47.4713 154.309C46.595 153.869 45.8481 153.208 45.3036 152.393C44.7591 151.577 44.4357 150.634 44.3651 149.656C44.2944 148.678 44.4789 147.698 44.9004 146.812C45.3511 147.115 45.7386 147.503 46.0416 147.953C46.4462 148.564 46.6931 149.273 47.1665 149.831C48.0527 150.871 49.562 151.211 50.9338 151.15C52.3056 151.09 53.6288 150.697 54.9804 150.572C55.1705 150.572 55.3607 150.543 55.555 150.539C55.2706 151.738 54.6047 152.812 53.6575 153.599C52.7102 154.386 51.5329 154.845 50.3026 154.905Z" fill="black"/>
<path opacity="0.1" d="M36.5158 164.079C35.5451 164.129 34.5779 163.928 33.7072 163.496C32.8366 163.064 32.0917 162.415 31.5442 161.612C30.9967 160.809 30.6651 159.879 30.5812 158.91C30.4973 157.942 30.664 156.968 31.0651 156.083C31.537 156.39 31.9484 156.781 32.2791 157.236C32.7202 157.859 32.9953 158.576 33.5133 159.15C34.4723 160.218 36.0828 160.595 37.5315 160.558C38.9801 160.522 40.2953 160.186 41.6913 160.077C41.3484 161.197 40.6666 162.184 39.7397 162.9C38.8128 163.617 37.6864 164.029 36.5158 164.079Z" fill="black"/>
<path opacity="0.1" d="M39.3202 175.106C38.7058 176.479 37.571 177.552 36.1656 178.088C34.7602 178.625 33.1992 178.581 31.826 177.967C30.4528 177.352 29.38 176.217 28.8435 174.812C28.3069 173.407 28.3507 171.846 28.9651 170.472C29.4348 170.778 29.8551 171.153 30.2114 171.585C30.7537 172.241 31.1098 172.989 31.7329 173.609C32.8943 174.75 34.7678 175.227 36.4391 175.264C37.4017 175.268 38.3638 175.215 39.3202 175.106Z" fill="black"/>
<path d="M25.137 183.478C25.137 183.478 29.6205 183.361 30.9559 182.377C32.2912 181.394 37.835 180.269 38.183 181.811C38.531 183.353 44.9205 189.499 39.8583 189.523C34.796 189.548 28.1031 188.714 26.7515 187.905C25.4 187.096 25.137 183.478 25.137 183.478Z" fill="#656380"/>
<path opacity="0.2" d="M39.9675 188.985C34.9053 189.03 28.2083 188.2 26.8608 187.367C25.833 186.74 25.4243 184.494 25.2867 183.462H25.137C25.137 183.462 25.4202 187.075 26.7556 187.913C28.0909 188.751 34.8041 189.564 39.8623 189.532C41.3231 189.532 41.8289 189.002 41.8006 188.233C41.6104 188.69 41.0722 188.977 39.9675 188.985Z" fill="black"/>
</g>
<defs>
<linearGradient id="paint0_linear" x1="131.8" y1="185.25" x2="131.8" y2="185.153" gradientUnits="userSpaceOnUse">
<stop stop-color="#808080" stop-opacity="0.25"/>
<stop offset="0.54" stop-color="#808080" stop-opacity="0.12"/>
<stop offset="1" stop-color="#808080" stop-opacity="0.1"/>
</linearGradient>
<clipPath id="clip0">
<rect width="476.277" height="200" fill="white"/>
</clipPath>
</defs>
</svg>
