<svg width="28" height="28" viewBox="0 0 28 28" fill="none" xmlns="http://www.w3.org/2000/svg">
<path fill-rule="evenodd" clip-rule="evenodd" d="M14 0C6.272 0 0 6.272 0 14C0 21.728 6.272 28 14 28C21.728 28 28 21.728 28 14C28 6.272 21.728 0 14 0ZM14 4.20001C16.324 4.20001 18.2 6.07601 18.2 8.40001C18.2 10.724 16.324 12.6 14 12.6C11.676 12.6 9.79999 10.724 9.79999 8.40001C9.79999 6.07601 11.676 4.20001 14 4.20001ZM5.59999 19.572C7.40599 22.288 10.5 24.08 14 24.08C17.5 24.08 20.594 22.288 22.4 19.572C22.358 16.786 16.786 15.26 14 15.26C11.2 15.26 5.64199 16.786 5.59999 19.572Z" fill="black" fill-opacity="0.54"/>
</svg>
