<svg width="303" height="271" viewBox="0 0 303 271" fill="none" xmlns="http://www.w3.org/2000/svg">
<path d="M152.099 3.79297L57.0095 62.3746C57.0095 62.3746 57.0095 183.199 152.099 249.103C247.188 183.199 247.188 62.3746 247.188 62.3746L152.099 3.79297Z" fill="#3F3D56"/>
<path opacity="0.04" d="M152.667 3.79297L151.042 4.79436V247.961C151.581 248.343 152.121 248.725 152.667 249.103C247.756 183.199 247.756 62.3745 247.756 62.3745L152.667 3.79297Z" fill="#008FFF"/>
<g opacity="0.7">
<path opacity="0.7" d="M129.079 122.503L147.004 138.953L169.226 106.86L178.189 114.338L147.004 153.908L121.609 125.494L129.079 122.503Z" fill="url(#paint0_linear)"/>
</g>
<path d="M133.31 123.49L147.851 136.834L168.451 106.506L175.722 112.572L147.851 148.965L127.251 125.916L133.31 123.49Z" fill="#3AD29F"/>
<path opacity="0.5" d="M58.2762 16.9266C57.9847 16.7995 57.7501 16.5696 57.617 16.2806C57.4838 15.9915 57.4615 15.6636 57.5543 15.3591C57.5693 15.3124 57.5788 15.2642 57.5825 15.2153C57.5909 15.0758 57.5543 14.9373 57.478 14.8203C57.4017 14.7032 57.2898 14.6139 57.1589 14.5656C57.0279 14.5172 56.8849 14.5124 56.7509 14.5518C56.617 14.5911 56.4993 14.6727 56.4153 14.7842C56.3864 14.8238 56.3623 14.8667 56.3434 14.9119C56.2165 15.2037 55.9868 15.4386 55.698 15.5719C55.4093 15.7052 55.0817 15.7275 54.7776 15.6346C54.731 15.6196 54.6828 15.6101 54.6339 15.6064C54.4946 15.5979 54.3563 15.6346 54.2394 15.711C54.1225 15.7874 54.0333 15.8994 53.985 16.0305C53.9367 16.1616 53.9318 16.3048 53.9712 16.4389C54.0105 16.5729 54.0919 16.6908 54.2034 16.7749C54.2429 16.8038 54.2857 16.828 54.3309 16.8469C54.6224 16.974 54.8571 17.2039 54.9902 17.4929C55.1233 17.782 55.1456 18.1099 55.0528 18.4144C55.0378 18.4611 55.0284 18.5093 55.0247 18.5582C55.0162 18.6977 55.0528 18.8362 55.1291 18.9532C55.2054 19.0703 55.3173 19.1596 55.4483 19.2079C55.5792 19.2563 55.7223 19.2611 55.8562 19.2217C55.9901 19.1824 56.1078 19.1008 56.1918 18.9893C56.2207 18.9497 56.2449 18.9068 56.2637 18.8616C56.3907 18.5698 56.6204 18.3349 56.9091 18.2016C57.1978 18.0683 57.5254 18.046 57.8295 18.1389C57.8761 18.1539 57.9243 18.1634 57.9732 18.1671C58.1125 18.1756 58.2509 18.1389 58.3678 18.0625C58.4846 17.9861 58.5738 17.8741 58.6222 17.743C58.6705 17.6119 58.6753 17.4687 58.636 17.3346C58.5966 17.2006 58.5152 17.0827 58.4037 16.9986C58.3642 16.9697 58.3214 16.9455 58.2762 16.9266Z" fill="#4D8AF0"/>
<path opacity="0.5" d="M6.80083 131.641C6.50934 131.513 6.27472 131.283 6.14161 130.994C6.0085 130.705 5.98619 130.377 6.07895 130.073C6.09396 130.026 6.10341 129.978 6.10712 129.929C6.1156 129.79 6.07898 129.651 6.00268 129.534C5.92639 129.417 5.81447 129.328 5.68352 129.279C5.55256 129.231 5.40952 129.226 5.2756 129.266C5.14167 129.305 5.02398 129.387 4.93995 129.498C4.91105 129.538 4.88692 129.581 4.86806 129.626C4.74111 129.918 4.51141 130.153 4.22269 130.286C3.93397 130.419 3.60638 130.441 3.30228 130.349C3.25566 130.333 3.20744 130.324 3.1586 130.32C3.01927 130.312 2.88092 130.348 2.76403 130.425C2.64714 130.501 2.55794 130.613 2.50963 130.744C2.46132 130.875 2.45648 131.019 2.49581 131.153C2.53515 131.287 2.61658 131.405 2.72804 131.489C2.76758 131.518 2.8104 131.542 2.8556 131.561C3.14709 131.688 3.38172 131.918 3.51483 132.207C3.64794 132.496 3.67024 132.824 3.57748 133.128C3.56247 133.175 3.55302 133.223 3.54931 133.272C3.54083 133.412 3.57745 133.55 3.65375 133.667C3.73004 133.784 3.84196 133.873 3.97292 133.922C4.10387 133.97 4.24691 133.975 4.38083 133.936C4.51476 133.896 4.63246 133.815 4.71649 133.703C4.74538 133.664 4.76951 133.621 4.78838 133.575C4.91532 133.284 5.14502 133.049 5.43374 132.915C5.72246 132.782 6.05005 132.76 6.35415 132.853C6.40077 132.868 6.449 132.877 6.49783 132.881C6.63716 132.889 6.77551 132.853 6.8924 132.776C7.00929 132.7 7.09849 132.588 7.14679 132.457C7.1951 132.326 7.19995 132.183 7.16061 132.049C7.12127 131.914 7.03985 131.797 6.92839 131.712C6.88885 131.684 6.84603 131.659 6.80083 131.641Z" fill="#4D8AF0"/>
<path opacity="0.5" d="M263.864 91.7707C265.033 91.7707 265.98 90.8226 265.98 89.6529C265.98 88.4833 265.033 87.5352 263.864 87.5352C262.696 87.5352 261.749 88.4833 261.749 89.6529C261.749 90.8226 262.696 91.7707 263.864 91.7707Z" fill="#F55F44"/>
<path opacity="0.5" d="M42.8015 243.193C43.9698 243.193 44.9169 242.244 44.9169 241.075C44.9169 239.905 43.9698 238.957 42.8015 238.957C41.6331 238.957 40.686 239.905 40.686 241.075C40.686 242.244 41.6331 243.193 42.8015 243.193Z" fill="#F55F44"/>
<path opacity="0.5" d="M299.826 173.305C300.995 173.305 301.942 172.357 301.942 171.187C301.942 170.017 300.995 169.069 299.826 169.069C298.658 169.069 297.711 170.017 297.711 171.187C297.711 172.357 298.658 173.305 299.826 173.305Z" fill="#F55F44"/>
<path opacity="0.5" d="M248.313 27.163C248.021 27.0359 247.786 26.8059 247.653 26.5169C247.52 26.2278 247.498 25.8999 247.591 25.5954C247.606 25.5488 247.615 25.5005 247.619 25.4516C247.627 25.3121 247.591 25.1736 247.514 25.0566C247.438 24.9396 247.326 24.8503 247.195 24.8019C247.064 24.7535 246.921 24.7487 246.787 24.7881C246.653 24.8275 246.536 24.909 246.452 25.0206C246.423 25.0602 246.399 25.103 246.38 25.1483C246.253 25.4401 246.023 25.675 245.734 25.8082C245.446 25.9415 245.118 25.9638 244.814 25.871C244.767 25.8559 244.719 25.8465 244.67 25.8427C244.531 25.8343 244.393 25.8709 244.276 25.9473C244.159 26.0237 244.07 26.1357 244.021 26.2668C243.973 26.3979 243.968 26.5411 244.008 26.6752C244.047 26.8093 244.128 26.9271 244.24 27.0112C244.279 27.0402 244.322 27.0643 244.367 27.0832C244.659 27.2103 244.893 27.4402 245.027 27.7293C245.16 28.0183 245.182 28.3463 245.089 28.6507C245.074 28.6974 245.065 28.7457 245.061 28.7946C245.053 28.934 245.089 29.0725 245.165 29.1896C245.242 29.3066 245.354 29.3959 245.485 29.4442C245.616 29.4926 245.759 29.4975 245.893 29.4581C246.026 29.4187 246.144 29.3372 246.228 29.2256C246.257 29.186 246.281 29.1431 246.3 29.0979C246.427 28.8061 246.657 28.5712 246.945 28.4379C247.234 28.3047 247.562 28.2823 247.866 28.3752C247.912 28.3902 247.961 28.3997 248.01 28.4034C248.149 28.4119 248.287 28.3752 248.404 28.2988C248.521 28.2225 248.61 28.1104 248.659 27.9793C248.707 27.8482 248.712 27.705 248.672 27.571C248.633 27.4369 248.552 27.3191 248.44 27.2349C248.401 27.206 248.358 27.1818 248.313 27.163Z" fill="#4D8AF0"/>
<path opacity="0.5" d="M283.57 248.826C283.278 248.699 283.044 248.469 282.91 248.18C282.777 247.891 282.755 247.563 282.848 247.259C282.863 247.212 282.872 247.164 282.876 247.115C282.884 246.975 282.848 246.837 282.771 246.72C282.695 246.603 282.583 246.513 282.452 246.465C282.321 246.417 282.178 246.412 282.044 246.451C281.91 246.491 281.793 246.572 281.709 246.684C281.68 246.723 281.656 246.766 281.637 246.811C281.51 247.103 281.28 247.338 280.991 247.471C280.703 247.605 280.375 247.627 280.071 247.534C280.024 247.519 279.976 247.51 279.927 247.506C279.788 247.497 279.65 247.534 279.533 247.61C279.416 247.687 279.327 247.799 279.278 247.93C279.23 248.061 279.225 248.204 279.265 248.338C279.304 248.472 279.385 248.59 279.497 248.674C279.536 248.703 279.579 248.727 279.624 248.746C279.916 248.873 280.151 249.103 280.284 249.392C280.417 249.681 280.439 250.009 280.346 250.314C280.331 250.36 280.322 250.409 280.318 250.458C280.31 250.597 280.346 250.736 280.423 250.853C280.499 250.97 280.611 251.059 280.742 251.107C280.873 251.156 281.016 251.161 281.15 251.121C281.284 251.082 281.401 251 281.485 250.889C281.514 250.849 281.538 250.806 281.557 250.761C281.684 250.469 281.914 250.234 282.203 250.101C282.491 249.968 282.819 249.945 283.123 250.038C283.17 250.053 283.218 250.063 283.267 250.067C283.406 250.075 283.544 250.038 283.661 249.962C283.778 249.886 283.867 249.774 283.916 249.642C283.964 249.511 283.969 249.368 283.929 249.234C283.89 249.1 283.809 248.982 283.697 248.898C283.658 248.869 283.615 248.845 283.57 248.826Z" fill="#4D8AF0"/>
<path opacity="0.5" d="M4.33281 64.577C4.04133 64.4499 3.8067 64.22 3.67359 63.9309C3.54048 63.6419 3.51817 63.3139 3.61093 63.0095C3.62594 62.9628 3.63539 62.9146 3.6391 62.8657C3.64758 62.7262 3.61096 62.5877 3.53467 62.4707C3.45837 62.3536 3.34645 62.2643 3.2155 62.216C3.08454 62.1676 2.9415 62.1628 2.80758 62.2021C2.67365 62.2415 2.55596 62.323 2.47193 62.4346C2.44303 62.4742 2.4189 62.5171 2.40004 62.5623C2.27309 62.8541 2.04339 63.089 1.75467 63.2223C1.46595 63.3555 1.13836 63.3779 0.834264 63.285C0.787644 63.27 0.739417 63.2605 0.69058 63.2568C0.551254 63.2483 0.4129 63.285 0.296013 63.3614C0.179127 63.4377 0.0899214 63.5498 0.0416125 63.6809C-0.0066964 63.812 -0.011541 63.9552 0.0277971 64.0892C0.0671353 64.2233 0.148565 64.3411 0.260022 64.4253C0.299567 64.4542 0.342383 64.4784 0.387583 64.4972C0.679068 64.6243 0.913698 64.8543 1.04681 65.1433C1.17992 65.4324 1.20222 65.7603 1.10946 66.0647C1.09446 66.1114 1.085 66.1597 1.0813 66.2086C1.07281 66.3481 1.10943 66.4866 1.18573 66.6036C1.26202 66.7206 1.37394 66.8099 1.5049 66.8583C1.63585 66.9066 1.77889 66.9115 1.91282 66.8721C2.04674 66.8327 2.16444 66.7512 2.24847 66.6396C2.27736 66.6 2.3015 66.5572 2.32036 66.5119C2.44731 66.2201 2.677 65.9852 2.96572 65.852C3.25444 65.7187 3.58203 65.6964 3.88613 65.7892C3.93275 65.8043 3.98098 65.8137 4.02981 65.8174C4.16914 65.8259 4.30749 65.7893 4.42438 65.7129C4.54127 65.6365 4.63047 65.5245 4.67878 65.3934C4.72708 65.2623 4.73193 65.1191 4.69259 64.985C4.65325 64.8509 4.57183 64.7331 4.46037 64.649C4.42083 64.6201 4.37801 64.5959 4.33281 64.577Z" fill="#4D8AF0"/>
<path opacity="0.5" d="M27.9936 102.36C29.1619 102.36 30.109 101.411 30.109 100.242C30.109 99.0722 29.1619 98.124 27.9936 98.124C26.8253 98.124 25.8782 99.0722 25.8782 100.242C25.8782 101.411 26.8253 102.36 27.9936 102.36Z" fill="#47E6B1"/>
<path opacity="0.5" d="M300.884 119.301C302.052 119.301 302.999 118.353 302.999 117.183C302.999 116.014 302.052 115.065 300.884 115.065C299.715 115.065 298.768 116.014 298.768 117.183C298.768 118.353 299.715 119.301 300.884 119.301Z" fill="#47E6B1"/>
<g opacity="0.5">
<path opacity="0.5" d="M206.747 0H205.69V6.00039H206.747V0Z" fill="#47E6B1"/>
<path opacity="0.5" d="M209.215 3.52959V2.4707L203.221 2.4707V3.52959L209.215 3.52959Z" fill="#47E6B1"/>
</g>
<g opacity="0.5">
<path opacity="0.5" d="M210.625 235.074H209.568V241.075H210.625V235.074Z" fill="#47E6B1"/>
<path opacity="0.5" d="M213.093 238.604V237.545H207.099V238.604H213.093Z" fill="#47E6B1"/>
</g>
<g opacity="0.5">
<path opacity="0.5" d="M10.3646 247.78H9.30688V253.781H10.3646V247.78Z" fill="#47E6B1"/>
<path opacity="0.5" d="M12.8323 251.31V250.251H6.83855V251.31H12.8323Z" fill="#47E6B1"/>
</g>
<g opacity="0.5">
<path opacity="0.5" d="M251.171 139.774H250.114V145.775H251.171V139.774Z" fill="#47E6B1"/>
<path opacity="0.5" d="M253.639 143.304V142.245H247.645V143.304H253.639Z" fill="#47E6B1"/>
</g>
<path opacity="0.5" d="M280.509 43.4212L282.78 45.5058L285.999 40.7676L287.135 41.7153L282.78 47.4012L279.562 43.8002L280.509 43.4212Z" fill="#47E6B1"/>
<path d="M215.658 84.4536L207.822 84.7578L208.212 94.844L216.048 94.5398L215.658 84.4536Z" fill="#008FFF"/>
<path d="M180.309 119.778C180.309 119.778 169.457 114.587 169.631 119.07C169.804 123.553 180.569 126.502 180.569 126.502L180.309 119.778Z" fill="#FFB9B9"/>
<path d="M186.262 157.707C186.262 157.707 181.143 170.252 179.251 179.305C177.359 188.357 174.479 200.815 178.184 209.65C181.89 218.485 192.425 244.452 192.534 247.254C192.642 250.056 191.631 252.901 193.87 252.814C196.109 252.727 208.293 248.887 208.787 247.184C209.282 245.481 204.631 241.172 204.631 241.172L193.145 205.141L205.129 181.667L213.772 216.686L215.465 260.393C215.465 260.393 223.774 257.826 224.981 260.024C224.981 260.024 228.703 254.829 229.176 252.566C229.649 250.302 227.418 207.178 227.418 207.178C227.418 207.178 235.045 158.058 228.888 158.297C222.731 158.536 198.615 143.759 186.262 157.707Z" fill="#008FFF"/>
<path d="M193.784 250.574C193.784 250.574 188.104 263.14 187.566 263.722C187.028 264.305 183.327 270.06 186.126 269.951C188.925 269.843 195.533 266.78 200.397 262.102C205.261 257.424 211.673 249.318 211.092 248.779C210.51 248.241 206.527 246.712 206.527 246.712L193.784 250.574Z" fill="#575A89"/>
<path d="M216.477 257.549C216.477 257.549 216.134 263.175 215.101 265.459C214.069 267.744 214.199 271.106 216.998 270.998C219.796 270.889 227.029 269.486 227.029 269.486C227.029 269.486 227.459 266.102 226.877 265.563C226.296 265.025 223.818 258.948 224.873 257.223C225.927 255.499 216.477 257.549 216.477 257.549Z" fill="#575A89"/>
<path d="M220.616 75.0029C220.616 75.0029 226.582 84.3115 228.908 86.466C231.233 88.6204 224.69 93.3639 224.69 93.3639L212.98 94.9409C212.98 94.9409 213.127 84.2727 212.524 83.1737C211.921 82.0747 220.616 75.0029 220.616 75.0029Z" fill="#FFB9B9"/>
<path d="M210.437 87.1826C210.437 87.1826 212.849 91.5784 215.088 91.4915C217.327 91.4046 228.908 86.4655 229.402 84.7627C229.897 83.06 233.238 96.96 233.238 96.96L204.901 146.883L197.989 142.101L201.338 112.789L204.089 96.9692L210.437 87.1826Z" fill="#008FFF"/>
<path d="M230.448 131.861C229.318 134.229 228.612 136.697 228.71 139.224C228.714 139.336 228.718 139.448 228.728 139.56C228.996 144.746 230.905 150.744 231.59 155.106C232.086 158.235 231.945 160.519 230.116 161.056C225.682 162.35 230.762 163.276 213.606 168.992C196.45 174.709 193.456 169.775 193.413 168.654C193.37 167.533 195.843 159.019 195.261 158.481C194.68 157.942 187.126 165.531 184.843 164.497C182.561 163.463 184.583 157.773 184.583 157.773C184.583 157.773 189.724 145.788 189.616 142.987C189.507 140.185 197.404 126.971 197.404 126.971L202.775 91.9689C202.775 91.9689 204.84 87.3992 207.617 86.7302C210.394 86.0612 212.698 87.6553 212.698 87.6553L208.051 97.9371L203.149 116.085L203.969 122.788C203.969 122.788 209.67 110.782 213.414 106.147C217.159 101.512 225.142 90.5394 225.142 90.5394C225.142 90.5394 227.006 84.2434 225.599 82.3619C224.192 80.4749 231.468 80.1924 234.571 87.9286C236.215 92.0288 238.885 98.1431 240.557 103.836C242.047 108.879 242.751 113.594 241.275 116.289C239.018 120.406 233.342 125.817 230.448 131.861Z" fill="#575A89"/>
<path opacity="0.1" d="M241.275 116.289C239.018 120.406 233.342 125.817 230.448 131.861C229.692 129.135 228.77 126.315 228.77 126.315C228.77 126.315 225.234 107.372 235.695 102.476C237.428 102.308 239.162 102.793 240.557 103.836C242.048 108.879 242.751 113.594 241.275 116.289Z" fill="black"/>
<path d="M199.747 115.096L190.879 117.685L178.565 118.163L177.298 128.875L197.535 130.334C197.535 130.334 202.589 116.108 199.747 115.096Z" fill="#575A89"/>
<path d="M214.208 151.111C214.208 151.111 202.344 153.082 205.052 156.656C207.76 160.231 218.27 156.473 218.27 156.473L214.208 151.111Z" fill="#FFB9B9"/>
<path opacity="0.1" d="M228.729 139.56C228.997 144.746 230.905 150.744 231.59 155.106C227.81 158.687 224.216 161.846 222.862 161.898C220.063 162.007 215.564 161.62 213.906 162.246C212.249 162.871 211.277 152.247 211.277 152.247C211.277 152.247 212.266 148.841 216.678 146.986C219.657 145.731 225.366 142.328 228.729 139.56Z" fill="black"/>
<path d="M235.564 99.114C235.564 99.114 245.036 97.6239 244.525 113.357C244.013 129.09 245.523 139.133 241.713 142.087C237.904 145.041 225.53 158.428 222.731 158.537C219.932 158.646 215.433 158.259 213.775 158.885C212.118 159.51 211.146 148.885 211.146 148.885C211.146 148.885 212.135 145.48 216.548 143.625C220.96 141.77 231.356 135.193 231.269 132.952C231.183 130.711 228.64 122.953 228.64 122.953C228.64 122.953 225.103 104.01 235.564 99.114Z" fill="#575A89"/>
<path d="M212.265 88.7851C219.07 88.7851 224.588 83.2617 224.588 76.4482C224.588 69.6347 219.07 64.1113 212.265 64.1113C205.459 64.1113 199.941 69.6347 199.941 76.4482C199.941 83.2617 205.459 88.7851 212.265 88.7851Z" fill="#FFB9B9"/>
<path d="M203.967 58.7659C203.67 59.0223 203.314 59.2011 202.931 59.2865C202.739 59.3208 202.541 59.2776 202.38 59.1662C202.22 59.0549 202.11 58.8845 202.074 58.6923C201.792 59.2776 201.474 59.9015 200.899 60.2019C200.323 60.5022 199.433 60.2504 199.35 59.6058C199.266 60.0952 199.05 60.5522 198.725 60.9273C198.367 61.2682 197.72 61.3543 197.408 60.9714C197.66 62.3506 197.504 63.7689 197.584 65.1688C197.663 66.5686 198.036 68.0527 199.092 68.9731C200.633 70.3156 202.95 69.9843 204.976 69.7299C205.283 69.6655 205.601 69.683 205.898 69.7804C206.657 70.1041 206.623 71.1616 206.633 71.9873C206.695 73.4361 207.268 74.816 208.25 75.8821C209.231 76.9481 210.559 77.6313 211.996 77.8103C212.801 77.9346 213.622 77.7341 214.278 77.2528C214.854 76.7645 215.148 75.9687 215.807 75.6019C216.88 75.0052 218.18 75.8754 218.965 76.8202C219.749 77.7649 220.522 78.9271 221.736 79.1001C223.343 79.3288 224.567 77.6896 225.167 76.1803C225.995 74.0648 226.392 71.8048 226.334 69.5333C226.276 67.2619 225.764 65.0251 224.829 62.9548C221.475 55.634 210.015 54.476 203.967 58.7659Z" fill="#2F2E41"/>
<defs>
<linearGradient id="paint0_linear" x1="121.609" y1="130.384" x2="178.189" y2="130.384" gradientUnits="userSpaceOnUse">
<stop stop-color="#808080" stop-opacity="0.25"/>
<stop offset="0.53514" stop-color="#808080" stop-opacity="0.12"/>
<stop offset="1" stop-color="#808080" stop-opacity="0.1"/>
</linearGradient>
</defs>
</svg>
