<svg width="186" height="96" viewBox="0 0 186 96" fill="none" xmlns="http://www.w3.org/2000/svg">
<g clip-path="url(#clip0)">
<g clip-path="url(#clip1)">
<path d="M186.203 90.3408C186.203 78.4771 183.788 66.7295 179.097 55.7689C174.406 44.8082 167.53 34.8491 158.862 26.4602C150.194 18.0713 139.903 11.4168 128.578 6.87678C117.252 2.33673 105.114 -5.1858e-07 92.8549 0C80.5962 5.1858e-07 68.4576 2.33673 57.1321 6.87678C45.8066 11.4168 35.516 18.0713 26.8478 26.4602C18.1797 34.8491 11.3037 44.8082 6.61253 55.7689C1.92135 66.7295 -0.493165 78.4771 -0.493164 90.3408H27.5113C27.5113 82.0362 29.2014 73.8129 32.4852 66.1404C35.7691 58.468 40.5822 51.4966 46.65 45.6244C52.7177 39.7521 59.9211 35.094 67.849 31.916C75.7768 28.7379 84.2738 27.1022 92.8549 27.1022C101.436 27.1022 109.933 28.7379 117.861 31.916C125.789 35.094 132.992 39.7521 139.06 45.6244C145.128 51.4966 149.941 58.468 153.225 66.1404C156.508 73.8129 158.199 82.0362 158.199 90.3408H186.203Z" fill="#02B875"/>
<path d="M186.203 90.3408C186.203 71.2627 179.962 52.6743 168.375 37.2398C156.788 21.8053 140.449 10.317 121.701 4.42159C102.953 -1.47386 82.7571 -1.47386 64.0088 4.42159C45.2604 10.3171 28.9218 21.8053 17.3347 37.2398L39.9908 53.1701C48.1018 42.3659 59.5388 34.3242 72.6626 30.1973C85.7864 26.0705 99.9233 26.0705 113.047 30.1973C126.171 34.3242 137.608 42.3659 145.719 53.1701C153.83 63.9743 158.199 76.9861 158.199 90.3408H186.203Z" fill="#5DC644"/>
<path d="M186.203 90.3408C186.203 76.0841 182.716 62.0298 176.029 49.3269C169.341 36.6241 159.641 25.6334 147.723 17.2536C135.806 8.87367 122.008 3.34249 107.458 1.11224C92.9078 -1.118 78.019 0.016026 64.0088 4.42159L72.6626 30.1973C82.4698 27.1135 92.8919 26.3196 103.077 27.8808C113.262 29.442 122.92 33.3138 131.263 39.1797C139.605 45.0456 146.395 52.7391 151.076 61.6311C155.758 70.5231 158.199 80.3611 158.199 90.3408H186.203Z" fill="#FFC100"/>
<path d="M186.203 90.3408C186.203 71.2627 179.962 52.6743 168.375 37.2398C156.788 21.8053 140.449 10.317 121.701 4.42159L113.047 30.1973C126.171 34.3242 137.608 42.3659 145.719 53.1701C153.83 63.9743 158.199 76.9861 158.199 90.3408H186.203Z" fill="#FDAF40"/>
<path d="M186.203 90.3408C186.203 71.2627 179.962 52.6743 168.375 37.2398L145.719 53.1701C153.83 63.9743 158.199 76.9861 158.199 90.3408H186.203Z" fill="#FF7272"/>
</g>
<g clip-path="url(#clip2)">
<path d="M20.3405 75.9492L14.5445 68.8922L96.4377 88.634L20.3405 75.9492Z" fill="#C4C4C4"/>
<path d="M22.9134 65.2501L96.4555 88.6386L14.5623 68.8968L22.9134 65.2501Z" fill="#848484"/>
<path d="M90.5774 85.0171C92.7106 81.793 97.0537 80.9086 100.278 83.0418C103.502 85.175 104.386 89.518 102.253 92.7422C100.12 95.9664 95.7769 96.8508 92.5527 94.7175C89.3286 92.5843 88.4442 88.2413 90.5774 85.0171ZM97.4959 89.5946C97.8908 88.9978 97.7271 88.1939 97.1303 87.7991C96.5335 87.4042 95.7295 87.5679 95.3347 88.1647C94.9398 88.7615 95.1035 89.5654 95.7003 89.9603C96.2971 90.3551 97.101 90.1914 97.4959 89.5946Z" fill="#008FFF"/>
</g>
</g>
<defs>
<clipPath id="clip0">
<rect width="186" height="96" fill="white"/>
</clipPath>
<clipPath id="clip1">
<rect width="186" height="96" fill="white"/>
</clipPath>
<clipPath id="clip2">
<rect x="83.6719" y="120.827" width="88.1953" height="40.6753" transform="rotate(-146.51 83.6719 120.827)" fill="white"/>
</clipPath>
</defs>
</svg>
