<svg width="100" height="100" viewBox="0 0 100 100" fill="none" xmlns="http://www.w3.org/2000/svg">
<path d="M90.6251 15.625C90.7033 15.625 51.0158 0.390579 50.0001 0C49.219 0.312424 9.29696 15.625 9.37511 15.625V44.3749C9.37511 64.2968 15.0783 90.3125 50.0001 99.9998C84.8438 90.3123 90.547 63.8279 90.547 44.3749C90.6251 34.5313 90.6251 15.625 90.6251 15.625Z" fill="#D9DEE1"/>
<path d="M9.37476 44.3751C9.37476 64.297 15.0779 90.3127 49.9998 100V0C48.5154 0.54689 9.37476 15.625 9.37476 15.625C9.37476 15.625 9.37495 44.3751 9.37476 44.3751Z" fill="#BCC6CA"/>
<path d="M82.7339 21.0156C82.812 21.0156 50.7808 8.12492 49.9214 7.8125C49.2182 8.04697 17.0309 20.4687 17.109 20.3906V44.5311C17.109 61.2498 20.3904 84.0623 49.9214 92.1873C79.3746 84.0623 82.7339 60.8593 82.7339 44.5311C82.812 36.25 82.812 21.0156 82.7339 21.0156Z" fill="#008FFF"/>
<path d="M49.9996 7.8125C49.2964 8.04697 17.109 20.4687 17.1872 20.3906V44.5311C17.1872 61.2498 20.4685 84.0623 49.9996 92.1873V7.8125Z" fill="#008FFF"/>
<path d="M64.777 29.507H61.4932C61.1293 29.507 60.8341 29.8022 60.8341 30.1661C60.8341 30.5302 61.1293 30.8253 61.4932 30.8253H61.9006V67.2237H37.2922V30.8253H40.0357V32.3226C40.0357 33.4705 40.9693 34.4041 42.1172 34.4041H45.2336C45.5452 36.1242 47.054 37.4325 48.8619 37.4325H50.3306C52.1383 37.4325 53.6471 36.1242 53.9587 34.4041H57.0751C58.2232 34.4041 59.1571 33.4703 59.1571 32.3226V29.4779C59.1571 28.33 58.2232 27.3962 57.0753 27.3962H42.1172C40.9693 27.3962 40.0357 28.33 40.0357 29.4779V29.507H34.4155C32.9658 29.507 31.7866 30.6865 31.7866 32.1357V58.5972C31.7866 58.9614 32.0817 59.2563 32.4458 59.2563C32.8095 59.2563 33.1049 58.9614 33.1049 58.5972V32.1357C33.1049 31.4133 33.6933 30.8253 34.4155 30.8253H35.9736V67.8823C35.9736 68.2466 36.269 68.5415 36.6327 68.5415H62.5598C62.924 68.5415 63.2189 68.2466 63.2189 67.8823V30.8253H64.777C65.4997 30.8253 66.0874 31.4133 66.0874 32.1357V69.767C66.0874 70.4899 65.4997 71.0779 64.777 71.0779H34.4155C33.6933 71.0779 33.1049 70.4899 33.1049 69.767V61.7042C33.1049 61.3405 32.8095 61.045 32.4458 61.045C32.0817 61.045 31.7866 61.3405 31.7866 61.7042V69.767C31.7866 71.2168 32.9658 72.3962 34.4155 72.3962H64.777C66.2267 72.3962 67.4057 71.2168 67.4057 69.767V32.1357C67.4057 30.6865 66.2267 29.507 64.777 29.507ZM41.354 29.4779C41.354 29.057 41.6963 28.7147 42.1172 28.7147H57.0753C57.4962 28.7147 57.8385 29.057 57.8385 29.4779V32.3226C57.8385 32.7436 57.4962 33.0858 57.0753 33.0858H53.3591C52.9948 33.0858 52.6999 33.3811 52.6999 33.745C52.6999 35.0515 51.6369 36.1142 50.3306 36.1142H48.8619C47.5556 36.1142 46.4927 35.0515 46.4927 33.745C46.4927 33.3811 46.1977 33.0858 45.8336 33.0858H42.1172C41.6963 33.0858 41.354 32.7436 41.354 32.3226V29.4779Z" fill="white"/>
<path d="M57.9922 45.4328H54.5068L52.279 39.3497C52.0579 38.7449 51.1808 38.7859 51.0214 39.4141L48.6287 48.8354L46.3186 42.1152C46.134 41.578 45.3988 41.5113 45.1204 42.0071L43.1986 45.4331H41.1989C40.8345 45.4331 40.5398 45.728 40.5398 46.0923C40.5398 46.4562 40.8345 46.7514 41.1989 46.7514H43.5847C43.8232 46.7514 44.0429 46.6225 44.1598 46.4146L45.5502 43.9352L48.1001 51.3532C48.3125 51.9709 49.2019 51.9345 49.3625 51.3012L51.7746 41.8051L53.4272 46.3187C53.5221 46.5783 53.7693 46.7511 54.0462 46.7511H57.992C58.3563 46.7511 58.6512 46.4562 58.6512 46.0919C58.6512 45.728 58.3563 45.4328 57.9922 45.4328Z" fill="white"/>
<path d="M57.9922 56.3032H41.1989C40.8349 56.3032 40.5398 56.5981 40.5398 56.9624C40.5398 57.3265 40.8349 57.6216 41.1989 57.6216H57.9922C58.3563 57.6216 58.6514 57.3265 58.6514 56.9624C58.6514 56.5981 58.3563 56.3032 57.9922 56.3032Z" fill="white"/>
<path d="M57.9922 62.1107H41.1989C40.8349 62.1107 40.5398 62.406 40.5398 62.7699C40.5398 63.134 40.8349 63.4291 41.1989 63.4291H57.9922C58.3563 63.4291 58.6514 63.134 58.6514 62.7699C58.6514 62.406 58.3563 62.1107 57.9922 62.1107Z" fill="white"/>
</svg>
