<svg width="20" height="20" viewBox="0 0 20 20" fill="none" xmlns="http://www.w3.org/2000/svg">
<path d="M10 17.2881C10.1871 17.2881 10.339 17.1366 10.339 16.9492V5.76272C10.339 5.57526 10.1871 5.42374 10 5.42374C9.81288 5.42374 9.66101 5.57526 9.66101 5.76272V16.9492C9.66101 17.1366 9.81288 17.2881 10 17.2881Z" fill="black"/>
<path d="M6.61016 17.2881C6.79728 17.2881 6.94914 17.1366 6.94914 16.9492V5.76272C6.94914 5.57526 6.79728 5.42374 6.61016 5.42374C6.42304 5.42374 6.27118 5.57526 6.27118 5.76272V16.9492C6.27118 17.1366 6.42304 17.2881 6.61016 17.2881Z" fill="black"/>
<path d="M13.3898 17.2881C13.5769 17.2881 13.7288 17.1366 13.7288 16.9492V5.76272C13.7288 5.57526 13.5769 5.42374 13.3898 5.42374C13.2027 5.42374 13.0508 5.57526 13.0508 5.76272V16.9492C13.0508 17.1366 13.2027 17.2881 13.3898 17.2881Z" fill="black"/>
<path d="M17.7966 2.0339H13.0359C12.9986 1.61017 12.8681 0.895593 12.4214 0.436949C12.1386 0.147119 11.78 0 11.3556 0H7.9661C7.5417 0 7.18305 0.147119 6.90034 0.436949C6.45356 0.895593 6.32305 1.61017 6.28577 2.0339H2.20339C2.01627 2.0339 1.86441 2.18542 1.86441 2.37288C1.86441 2.56034 2.01627 2.71186 2.20339 2.71186H2.89526L3.54441 18.3122C3.55695 18.8959 3.92034 20 5.20814 20H14.7919C16.0797 20 16.4431 18.8959 16.4553 18.3193L17.1047 2.71186H17.7966C17.9837 2.71186 18.1356 2.56034 18.1356 2.37288C18.1356 2.18542 17.9837 2.0339 17.7966 2.0339ZM7.38712 0.908814C7.53899 0.753559 7.72848 0.677966 7.9661 0.677966H11.3556C11.5932 0.677966 11.7827 0.753559 11.9346 0.908814C12.2075 1.1878 12.317 1.67864 12.3549 2.0339H6.96712C7.00509 1.67864 7.11458 1.1878 7.38712 0.908814ZM15.7776 18.298C15.7756 18.4027 15.7288 19.322 14.7919 19.322H5.20814C4.28136 19.322 4.22577 18.401 4.22204 18.2908L3.57356 2.71186H16.4261L15.7776 18.298Z" fill="black"/>
</svg>
