<svg width="24" height="24" viewBox="0 0 24 24" fill="none" xmlns="http://www.w3.org/2000/svg">
<path d="M20.056 2H3.944C3.42367 2 3 2.42367 3 2.944V21.056C3 21.5763 3.42367 22 3.944 22H20.056C20.5763 22 21 21.5763 21 21.056V2.944C21 2.42367 20.5763 2 20.056 2ZM3.944 2.66667H20.056C20.209 2.66667 20.3333 2.791 20.3333 2.944V11.6667H3.66667V2.944C3.66667 2.791 3.791 2.66667 3.944 2.66667ZM20.056 21.3333H3.944C3.791 21.3333 3.66667 21.209 3.66667 21.056V12.3333H20.3333V21.056C20.3333 21.209 20.209 21.3333 20.056 21.3333Z" fill="black"/>
<path d="M10.1683 8H13.8317C14.476 8 15 7.476 15 6.83167V6.33333C15 6.149 14.851 6 14.6667 6C14.4823 6 14.3333 6.149 14.3333 6.33333V6.83167C14.3333 7.10833 14.1083 7.33333 13.8317 7.33333H10.1683C9.89167 7.33333 9.66667 7.10833 9.66667 6.83167V6.33333C9.66667 6.149 9.51767 6 9.33333 6C9.149 6 9 6.149 9 6.33333V6.83167C9 7.476 9.524 8 10.1683 8Z" fill="black"/>
<path d="M14.6667 15.6667C14.4823 15.6667 14.3333 15.8157 14.3333 16V16.4983C14.3333 16.775 14.1083 17 13.8317 17H10.1683C9.89167 17 9.66667 16.775 9.66667 16.4983V16C9.66667 15.8157 9.51767 15.6667 9.33333 15.6667C9.149 15.6667 9 15.8157 9 16V16.4983C9 17.1427 9.524 17.6667 10.1683 17.6667H13.8317C14.476 17.6667 15 17.1427 15 16.4983V16C15 15.8157 14.851 15.6667 14.6667 15.6667Z" fill="black"/>
</svg>
