<svg width="20" height="20" viewBox="0 0 20 20" fill="none" xmlns="http://www.w3.org/2000/svg">
<g clip-path="url(#clip0)">
<path d="M17.2345 0H8.50939C8.39633 0 8.28829 0.044898 8.20849 0.124694L2.46547 5.86771C2.38568 5.94751 2.34082 6.05576 2.34082 6.16857V19.5745C2.34082 19.8095 2.53111 20 2.76633 20H17.2344C17.4696 20 17.6599 19.8095 17.6599 19.5745V0.425551C17.66 0.190531 17.4696 0 17.2345 0ZM8.08384 1.45282V5.74302H3.79364L6.09164 3.44502L8.08384 1.45282ZM16.8089 19.1489H3.19192V6.59408H8.50939C8.74458 6.59408 8.93494 6.40355 8.93494 6.16853V0.851061H16.8089V19.1489Z" fill="#008FFF"/>
</g>
<defs>
<clipPath id="clip0">
<rect width="20" height="20" fill="white"/>
</clipPath>
</defs>
</svg>
