<svg width="20" height="20" viewBox="0 0 20 20" fill="none" xmlns="http://www.w3.org/2000/svg">
<path d="M18.9704 7.77778H17.0993C16.7985 7.77778 16.5507 7.61222 16.4356 7.33444C16.3204 7.05667 16.3789 6.76407 16.5911 6.55148L17.9141 5.22889C18.1085 5.03444 18.2156 4.77556 18.2156 4.50074C18.2156 4.22556 18.1085 3.96704 17.9141 3.77222L16.2278 2.08593C15.8389 1.69704 15.1607 1.6963 14.7711 2.08593L13.4485 3.40852C13.2359 3.62074 12.9426 3.68 12.6656 3.56444C12.3878 3.44926 12.2222 3.20148 12.2222 2.90074V1.02963C12.2222 0.461852 11.7604 0 11.1926 0H8.80741C8.23963 0 7.77778 0.461852 7.77778 1.02963V2.90074C7.77778 3.20148 7.61222 3.44926 7.33444 3.56444C7.05741 3.68037 6.76407 3.62074 6.55148 3.40852L5.22889 2.08593C4.83926 1.6963 4.16111 1.69704 3.77222 2.08593L2.08593 3.77222C1.89148 3.96667 1.78444 4.22556 1.78444 4.50074C1.78444 4.77556 1.89148 5.03407 2.08593 5.22889L3.40889 6.55148C3.62111 6.76407 3.67926 7.05667 3.56444 7.33444C3.44963 7.61222 3.20148 7.77778 2.90074 7.77778H1.02963C0.461852 7.77778 0 8.23963 0 8.80741V11.1922C0 11.7604 0.461852 12.2222 1.02963 12.2222H2.90074C3.20148 12.2222 3.44926 12.3878 3.56444 12.6656C3.67963 12.9433 3.62111 13.2359 3.40889 13.4485L2.08593 14.7711C1.89148 14.9656 1.78444 15.2244 1.78444 15.4993C1.78444 15.7744 1.89148 16.033 2.08593 16.2278L3.77222 17.9141C4.16148 18.3033 4.83926 18.3041 5.22889 17.9141L6.55148 16.5911C6.76407 16.3789 7.0563 16.3204 7.33444 16.4356C7.61222 16.5507 7.77778 16.7985 7.77778 17.0993V18.9704C7.77778 19.5381 8.23963 20 8.80741 20H11.1922C11.76 20 12.2219 19.5381 12.2219 18.9704V17.0993C12.2219 16.7985 12.3874 16.5507 12.6652 16.4356C12.9433 16.32 13.2356 16.3789 13.4481 16.5911L14.7707 17.9141C15.1604 18.3037 15.8385 18.303 16.2274 17.9141L17.9137 16.2278C18.1081 16.0333 18.2152 15.7744 18.2152 15.4993C18.2152 15.2244 18.1081 14.9659 17.9137 14.7711L16.5907 13.4485C16.3785 13.2359 16.3204 12.9433 16.4352 12.6656C16.55 12.3878 16.7985 12.2222 17.0993 12.2222H18.9704C19.5381 12.2222 20 11.7604 20 11.1926V8.80741C20 8.23963 19.5381 7.77778 18.9704 7.77778ZM19.2593 11.1926C19.2593 11.3519 19.1296 11.4815 18.9704 11.4815H17.0993C16.4978 11.4815 15.9811 11.8267 15.7511 12.3822C15.5207 12.9378 15.6419 13.5474 16.0674 13.9726L17.3904 15.2952C17.5033 15.4081 17.5033 15.5915 17.3904 15.7041L15.7041 17.3904C15.5915 17.503 15.4081 17.5037 15.2952 17.3904L13.9726 16.0674C13.547 15.6419 12.9378 15.5215 12.3822 15.7511C11.8267 15.9811 11.4815 16.4978 11.4815 17.0993V18.9704C11.4815 19.1296 11.3519 19.2593 11.1926 19.2593H8.80741C8.64815 19.2593 8.51852 19.1296 8.51852 18.9704V17.0993C8.51852 16.4978 8.17333 15.9811 7.61778 15.7511C7.43148 15.6737 7.23963 15.6359 7.05 15.6359C6.67444 15.6359 6.31037 15.7841 6.02741 16.067L4.70481 17.39C4.59148 17.5033 4.40815 17.5026 4.29593 17.39L2.60963 15.7037C2.49667 15.5907 2.49667 15.4074 2.60963 15.2948L3.93259 13.9722C4.35778 13.547 4.47926 12.9374 4.24889 12.3819C4.01889 11.8267 3.50222 11.4815 2.90074 11.4815H1.02963C0.87037 11.4815 0.740741 11.3519 0.740741 11.1926V8.80741C0.740741 8.64815 0.87037 8.51852 1.02963 8.51852H2.90074C3.50222 8.51852 4.01889 8.17333 4.24889 7.61778C4.47926 7.06222 4.35815 6.45259 3.93259 6.02741L2.60963 4.70481C2.49667 4.59185 2.49667 4.40852 2.60963 4.29593L4.29593 2.60963C4.40852 2.49667 4.59185 2.49667 4.70481 2.60963L6.02741 3.93222C6.45222 4.35704 7.06148 4.47889 7.61778 4.24852C8.17333 4.01889 8.51852 3.50222 8.51852 2.90074V1.02963C8.51852 0.87037 8.64815 0.740741 8.80741 0.740741H11.1922C11.3519 0.740741 11.4815 0.87037 11.4815 1.02963V2.90074C11.4815 3.50222 11.8267 4.01889 12.3822 4.24889C12.9385 4.47926 13.5474 4.35778 13.9726 3.93259L15.2952 2.61C15.4085 2.49704 15.5919 2.49704 15.7041 2.61L17.3904 4.2963C17.5033 4.40926 17.5033 4.59259 17.3904 4.70519L16.0674 6.02778C15.6422 6.45296 15.5207 7.06259 15.7511 7.61815C15.9811 8.1737 16.4978 8.51889 17.0993 8.51889H18.9704C19.1296 8.51852 19.2593 8.64815 19.2593 8.80741V11.1926Z" fill="black"/>
<path d="M10.0003 6.66602C8.16218 6.66602 6.66699 8.1612 6.66699 9.99935C6.66699 11.8375 8.16218 13.3327 10.0003 13.3327C11.8385 13.3327 13.3337 11.8375 13.3337 9.99935C13.3337 8.1612 11.8385 6.66602 10.0003 6.66602ZM10.0003 12.5919C8.57107 12.5919 7.40773 11.4286 7.40773 9.99935C7.40773 8.57009 8.57107 7.40676 10.0003 7.40676C11.4296 7.40676 12.5929 8.57009 12.5929 9.99935C12.5929 11.4286 11.4296 12.5919 10.0003 12.5919Z" fill="black"/>
</svg>
