<svg width="30" height="30" viewBox="0 0 30 30" fill="none" xmlns="http://www.w3.org/2000/svg">
<path d="M14.7731 15.8714C16.5419 15.8714 17.9757 14.4373 17.9757 12.6686C17.9757 10.8998 16.5419 9.46582 14.7731 9.46582C13.0041 9.46582 11.5703 10.8998 11.5703 12.6686C11.5724 14.4365 13.005 15.8691 14.7731 15.8714ZM14.7731 10.711C15.8576 10.711 16.7367 11.5901 16.7367 12.6748C16.7367 13.7593 15.8576 14.6386 14.7731 14.6386C13.6884 14.6386 12.8093 13.7593 12.8093 12.6748C12.8095 11.5903 13.6886 10.7114 14.7731 10.711Z" fill="#008FFF"/>
<path d="M14.7723 17.0548C13.4619 17.0451 12.2043 17.5711 11.2907 18.5106C10.3615 19.4585 9.85352 20.747 9.85352 22.1471C9.85448 22.4888 10.1311 22.7656 10.473 22.7666H19.0714C19.4132 22.7656 19.6899 22.4888 19.6909 22.1471C19.6909 20.747 19.1829 19.4585 18.2536 18.5106C17.3403 17.5711 16.0825 17.0451 14.7723 17.0548ZM11.1359 21.5276C11.2418 20.7176 11.6071 19.9637 12.1766 19.3779C12.8621 18.6843 13.797 18.2938 14.7723 18.2938C15.7474 18.2938 16.6823 18.6843 17.3678 19.3779C17.9361 19.9643 18.3011 20.718 18.4085 21.5276H11.1359Z" fill="#008FFF"/>
<path d="M22.2075 0.941895H7.33965C5.62927 0.942669 4.24277 2.32898 4.24219 4.03936V25.9694C4.24277 27.6798 5.62927 29.0661 7.33965 29.0669H22.2075C23.9179 29.0661 25.3042 27.6798 25.305 25.9694V4.03936C25.3042 2.32898 23.9179 0.942669 22.2075 0.941895ZM24.066 25.9694C24.0631 26.9945 23.2326 27.825 22.2075 27.8279H7.33965C6.31459 27.825 5.48408 26.9945 5.48117 25.9694V4.03936C5.48408 3.01429 6.31459 2.18379 7.33965 2.18088H22.2075C23.2326 2.18379 24.0631 3.01429 24.066 4.03936V25.9694Z" fill="#008FFF"/>
<path d="M12.1898 5.09836H17.1457C17.4878 5.09836 17.7652 4.82094 17.7652 4.47887C17.7652 4.13679 17.4878 3.85938 17.1457 3.85938H12.1898C11.8475 3.85938 11.5703 4.13679 11.5703 4.47887C11.5703 4.82094 11.8475 5.09836 12.1898 5.09836Z" fill="#008FFF"/>
</svg>
