<svg width="40" height="40" viewBox="0 0 40 40" fill="none" xmlns="http://www.w3.org/2000/svg">
<g clip-path="url(#clip0)">
<rect width="40" height="40" rx="20" fill="#FFC100"/>
<g clip-path="url(#clip1)">
<path d="M11.604 18.3548H28.3981L29.1148 13.6961C29.8181 9.12369 26.2804 5 21.6541 5H18.3478C13.7215 5 10.1838 9.12369 10.8873 13.6962L11.604 18.3548Z" fill="#5A4650"/>
<path d="M31.4345 30.9739L25.3148 29.174C24.5734 28.9559 24.0644 28.2755 24.0644 27.5028V24.7417H15.9355V27.5028C15.9355 28.2755 15.4264 28.9559 14.685 29.174L8.56533 30.9739C7.08265 31.41 6.06445 32.7708 6.06445 34.3162V39.2579C6.06445 40.2199 6.84436 40.9998 7.80638 40.9998H32.1935C33.1555 40.9998 33.9354 40.2199 33.9354 39.2579V34.3162C33.9354 32.7708 32.9173 31.41 31.4345 30.9739Z" fill="#E3AA75"/>
<path d="M31.4345 30.9745L25.3148 29.1746C25.2113 29.1442 25.9 29.435 25.8063 29.3875L19.9995 31.1294L14.1934 29.3875C14.0997 29.435 14.7883 29.1442 14.6848 29.1746L8.56533 30.9745C7.08265 31.4106 6.06445 32.7714 6.06445 34.3168V39.2585C6.06445 40.2205 6.84436 41.0004 7.80638 41.0004H32.1935C33.1555 41.0004 33.9354 40.2205 33.9354 39.2585V34.3168C33.9354 32.7714 32.9173 31.4106 31.4345 30.9745Z" fill="#5A4650"/>
<path d="M25.6072 30.3491L24.9148 29.6567L20 30.5483L15.0851 29.6567L14.3928 30.3491C13.5216 31.2202 13.0322 32.4017 13.0322 33.6338V41H26.9677V33.6338C26.9677 32.4017 26.4784 31.2202 25.6072 30.3491Z" fill="#A5CDFF"/>
<path d="M25.6079 30.3491L24.9156 29.6567L20.0007 30.5483L15.0859 29.6567L14.3935 30.3491C14.1085 30.6341 13.8689 30.9548 13.6694 31.2973L15.8149 33.7492C16.1456 34.1273 16.6235 34.3441 17.1259 34.3441C17.5911 34.3441 18.0285 34.1629 18.3576 33.8338L20.0007 32.1907L21.6439 33.8339C21.9728 34.1629 22.4103 34.3441 22.8755 34.3441C23.378 34.3441 23.8559 34.1272 24.1866 33.7491L26.3321 31.2973C26.1325 30.9549 25.893 30.6342 25.6079 30.3491Z" fill="#8CB4EB"/>
<path d="M19.1615 33.4517L18.2583 41.0001H21.7421L20.8388 33.4517H19.1615Z" fill="#5A4650"/>
<path d="M20.7431 34.0327H19.2575C19.0076 34.0327 18.7857 33.8728 18.7067 33.6357L17.6777 30.5488H22.3229L21.294 33.6357C21.2149 33.8728 20.993 34.0327 20.7431 34.0327Z" fill="#64505A"/>
<path d="M15.936 26.0374C17.1559 26.689 18.5393 27.0643 20.0005 27.0643C21.4618 27.0643 22.8452 26.689 24.065 26.0374V24.7417H15.936V26.0374Z" fill="#CE925A"/>
<path d="M15.5476 28.0752L14.0176 29.9329L16.688 32.9848C16.9092 33.2376 17.2981 33.2505 17.5356 33.013L19.9999 30.5488L15.5476 28.0752Z" fill="#A5CDFF"/>
<path d="M24.4524 28.0752L25.9824 29.9329L23.3119 32.9848C23.0907 33.2376 22.7019 33.2505 22.4644 33.013L20 30.5488L24.4524 28.0752Z" fill="#A5CDFF"/>
<path d="M10.1298 40.9996L9.10678 36.9767C9.02065 36.5891 9.13849 36.1843 9.41925 35.9036L11.291 34.0318L10.4299 32.74C10.2271 32.4359 10.1837 32.0541 10.2991 31.7073C11.6836 27.5465 15.9362 26.4834 15.9362 26.4834V27.6034C15.9362 28.3734 15.6303 29.1118 15.0858 29.6563L14.3934 30.3487C13.5223 31.2198 13.0329 32.4013 13.0329 33.6333V40.9996" fill="#64505A"/>
<path d="M29.8723 40.9996L30.8953 36.9767C30.9814 36.5891 30.8636 36.1843 30.5828 35.9036L28.711 34.0318L29.5722 32.74C29.7749 32.4359 29.8184 32.0541 29.703 31.7073C28.3185 27.5465 24.0659 26.4834 24.0659 26.4834V27.6034C24.0659 28.3734 24.3718 29.1118 24.9163 29.6563L25.6086 30.3487C26.4797 31.2198 26.9692 32.4013 26.9692 33.6333V40.9996" fill="#64505A"/>
<path d="M27.788 16.0324H27.763C27.057 16.0324 26.5326 15.3786 26.6858 14.6895C27.1286 12.6969 25.6123 10.8066 23.571 10.8066H16.4296C14.3883 10.8066 12.872 12.6969 13.3148 14.6895C13.4679 15.3786 12.9435 16.0324 12.2375 16.0324H12.2125C11.5514 16.0324 10.934 16.4513 10.7627 17.0898C10.5037 18.0555 11.2349 18.9356 12.1616 18.9356H12.4812C12.7786 22.8323 16.0274 25.9034 20.0003 25.9034C23.9732 25.9034 27.222 22.8323 27.5194 18.9356H27.839C28.7657 18.9356 29.4969 18.0555 29.2379 17.0898C29.0665 16.4513 28.4491 16.0324 27.788 16.0324Z" fill="#F5B97D"/>
<path d="M14.7744 18.355V14.8711C14.7744 13.2677 16.0742 11.9679 17.6776 11.9679H22.3228C22.9641 11.9679 23.484 11.448 23.4839 10.8066H16.4295C14.3866 10.8066 12.8696 12.6998 13.3158 14.6942C13.4695 15.3815 12.9418 16.0325 12.2375 16.0325H12.2125C11.5514 16.0325 10.934 16.4514 10.7627 17.0899C10.5037 18.0556 11.2348 18.9358 12.1615 18.9358H12.4812C12.7786 22.8324 16.0274 25.9035 20.0002 25.9035C20.3974 25.9035 20.7847 25.8648 21.1652 25.8056C17.5473 25.2472 14.7744 22.1291 14.7744 18.355Z" fill="#E3AA75"/>
<path d="M21.6531 5H18.3468C17.7125 5 17.1014 5.08409 16.5161 5.22971V5.58064C16.5161 7.82537 18.3359 9.64513 20.5806 9.64513H28.623C27.494 6.94541 24.8305 5 21.6531 5Z" fill="#64505A"/>
<path d="M16.5167 17.7746C16.1957 17.7746 15.936 17.5149 15.936 17.194V16.6134C15.936 16.2924 16.1958 16.0327 16.5167 16.0327C16.8376 16.0327 17.0973 16.2924 17.0973 16.6134V17.194C17.0974 17.515 16.8377 17.7746 16.5167 17.7746Z" fill="#5A4650"/>
<path d="M23.4844 17.7746C23.1635 17.7746 22.9038 17.5149 22.9038 17.194V16.6134C22.9038 16.2924 23.1635 16.0327 23.4844 16.0327C23.8054 16.0327 24.0651 16.2924 24.0651 16.6134V17.194C24.0651 17.515 23.8054 17.7746 23.4844 17.7746Z" fill="#5A4650"/>
<path d="M20.0004 21.8386C19.1288 21.8386 18.3253 21.5591 17.8507 21.0907C17.6222 20.865 17.6199 20.4976 17.845 20.2697C18.0713 20.0411 18.4387 20.0389 18.666 20.264C18.8594 20.4545 19.3244 20.6773 20.0003 20.6773C20.6762 20.6773 21.1412 20.4545 21.3345 20.264C21.5619 20.0388 21.9294 20.0411 22.1556 20.2697C22.3807 20.4976 22.3784 20.8651 22.1499 21.0907C21.6754 21.5591 20.8719 21.8386 20.0004 21.8386Z" fill="#B67F5F"/>
<path d="M17.0964 15.4513H15.9351C15.6142 15.4513 15.3545 15.1916 15.3545 14.8707C15.3545 14.5498 15.6142 14.29 15.9351 14.29H17.0964C17.4174 14.29 17.6771 14.5498 17.6771 14.8707C17.6771 15.1916 17.4173 15.4513 17.0964 15.4513Z" fill="#B67F5F"/>
<path d="M24.0642 15.4513H22.9029C22.5819 15.4513 22.3223 15.1916 22.3223 14.8707C22.3223 14.5498 22.582 14.29 22.9029 14.29H24.0642C24.3852 14.29 24.6448 14.5498 24.6448 14.8707C24.6448 15.1916 24.3852 15.4513 24.0642 15.4513Z" fill="#B67F5F"/>
</g>
</g>
<defs>
<clipPath id="clip0">
<rect width="40" height="40" rx="20" fill="white"/>
</clipPath>
<clipPath id="clip1">
<rect width="36" height="36" fill="white" transform="translate(2 5)"/>
</clipPath>
</defs>
</svg>
