<svg width="240" height="240" viewBox="0 0 240 240" fill="none" xmlns="http://www.w3.org/2000/svg">
<rect width="240" height="240" rx="2" fill="#EBE7D3"/>
<mask id="mask0" mask-type="alpha" maskUnits="userSpaceOnUse" x="0" y="0" width="240" height="240">
<rect width="240" height="240" rx="11.7" fill="white"/>
</mask>
<g mask="url(#mask0)">
<path fill-rule="evenodd" clip-rule="evenodd" d="M268.339 73.0888C264.094 38.0965 233.096 13.2722 199.101 17.6416C180.189 20.0727 164.343 31.0345 154.727 46.3022C141.706 42.5193 127.75 41.2962 113.48 43.1305C56.2747 50.4834 15.692 104.18 22.8351 163.064C29.9782 221.949 82.1431 263.724 139.348 256.371C195.378 249.169 235.454 197.508 230.366 140.06C255.631 129.389 271.886 102.322 268.339 73.0888Z" fill="#FFDC99"/>
<mask id="mask1" mask-type="alpha" maskUnits="userSpaceOnUse" x="214" y="145" width="39" height="41">
<path fill-rule="evenodd" clip-rule="evenodd" d="M214.184 145.519H252.881V185.431H214.184V145.519Z" fill="white"/>
</mask>
<g mask="url(#mask1)">
<path fill-rule="evenodd" clip-rule="evenodd" d="M252.881 165.475C252.881 176.496 244.219 185.431 233.532 185.431C222.846 185.431 214.184 176.496 214.184 165.475C214.184 154.453 222.846 145.519 233.532 145.519C244.219 145.519 252.881 154.453 252.881 165.475Z" fill="#EBE7D3"/>
</g>
<path fill-rule="evenodd" clip-rule="evenodd" d="M247.641 231.37C247.641 234.577 206.067 237.176 154.782 237.176C103.498 237.176 61.9236 234.577 61.9236 231.37C61.9236 228.164 103.498 225.565 154.782 225.565C206.067 225.565 247.641 228.164 247.641 231.37Z" fill="#CDCDCD"/>
<path fill-rule="evenodd" clip-rule="evenodd" d="M174.446 198.742H94.2792C87.2091 198.742 81.3402 192.688 81.3402 185.397C81.3402 178.106 87.0761 172.052 94.2792 172.052H174.446V198.742Z" fill="white"/>
<path fill-rule="evenodd" clip-rule="evenodd" d="M176.848 199.154C176.848 198.053 175.914 197.09 174.847 197.09H94.2797C88.1438 197.09 83.208 192 83.208 185.672C83.208 179.343 88.1438 174.253 94.2797 174.253H174.847C175.914 174.253 176.848 173.289 176.848 172.189C176.848 171.088 175.914 170.125 174.847 170.125H94.2797C86.0094 170.125 79.3399 177.004 79.3399 185.534C79.3399 194.064 86.0094 200.943 94.2797 200.943H174.847C175.914 200.943 176.848 200.255 176.848 199.154Z" fill="#FFAC00"/>
<path fill-rule="evenodd" clip-rule="evenodd" d="M178.551 228.075H80.4753V201.481H178.551C181.348 201.481 183.616 203.82 183.616 206.705V222.851C183.616 225.737 181.348 228.075 178.551 228.075Z" fill="white"/>
<path fill-rule="evenodd" clip-rule="evenodd" d="M176.3 229.974H78.6841C77.6663 229.974 76.8424 229.124 76.8424 228.074C76.8424 227.024 77.6663 226.175 78.6841 226.175H176.3C179.346 226.175 181.825 223.619 181.825 220.476V209.079C181.825 205.936 179.346 203.38 176.3 203.38H78.6841C77.6663 203.38 76.8424 202.53 76.8424 201.48C76.8424 200.43 77.6663 199.58 78.6841 199.58H176.3C181.377 199.58 185.509 203.841 185.509 209.079V220.476C185.509 225.713 181.377 229.974 176.3 229.974Z" fill="#2B0907"/>
<path fill-rule="evenodd" clip-rule="evenodd" d="M80.4756 205.278H176.249C177.266 205.278 178.091 206.129 178.091 207.178C178.091 208.227 177.266 209.077 176.249 209.077H80.4756V205.278Z" fill="#CDCDCD"/>
<path fill-rule="evenodd" clip-rule="evenodd" d="M80.4756 212.244H176.249C177.266 212.244 178.091 213.094 178.091 214.144C178.091 215.192 177.266 216.043 176.249 216.043H80.4756V212.244Z" fill="#CDCDCD"/>
<path fill-rule="evenodd" clip-rule="evenodd" d="M80.4756 219.922H176.249C177.266 219.922 178.091 220.772 178.091 221.821C178.091 222.871 177.266 223.721 176.249 223.721H80.4756V219.922Z" fill="#CDCDCD"/>
<path fill-rule="evenodd" clip-rule="evenodd" d="M174.526 195.318H89.3155C88.4104 195.318 87.6771 194.468 87.6771 193.419C87.6771 192.37 88.4104 191.519 89.3155 191.519H174.526V195.318Z" fill="#CDCDCD"/>
<path fill-rule="evenodd" clip-rule="evenodd" d="M174.526 188.352H89.3155C88.4104 188.352 87.6771 187.502 87.6771 186.452C87.6771 185.403 88.4104 184.553 89.3155 184.553H174.526V188.352Z" fill="#CDCDCD"/>
<path fill-rule="evenodd" clip-rule="evenodd" d="M174.526 180.674H89.3155C88.4104 180.674 87.6771 179.823 87.6771 178.774C87.6771 177.725 88.4104 176.875 89.3155 176.875H174.526V180.674Z" fill="#CDCDCD"/>
<path fill-rule="evenodd" clip-rule="evenodd" d="M81.8724 171.836V142.779H178.13C179.427 142.779 180.478 143.863 180.478 145.2V169.414C180.478 170.751 179.427 171.836 178.13 171.836H81.8724Z" fill="#FF6B32"/>
<path fill-rule="evenodd" clip-rule="evenodd" d="M86.5678 147.621V164.572C86.5678 165.909 87.619 166.993 88.9159 166.993H173.435C176.028 166.993 178.13 169.161 178.13 171.836H159.348H117.089H81.8724V142.779C84.4659 142.779 86.5678 144.947 86.5678 147.621Z" fill="#CDCDCD"/>
<path fill-rule="evenodd" clip-rule="evenodd" d="M164.043 171.836H166.391V142.779H164.043V171.836Z" fill="#CDCDCD"/>
<path fill-rule="evenodd" clip-rule="evenodd" d="M159.348 171.836H161.696V142.779H159.348V171.836Z" fill="#CDCDCD"/>
<path fill-rule="evenodd" clip-rule="evenodd" d="M98.3063 171.836H100.654V142.779H98.3063V171.836Z" fill="#CDCDCD"/>
<path fill-rule="evenodd" clip-rule="evenodd" d="M93.6108 171.836H95.959V142.779H93.6108V171.836Z" fill="#CDCDCD"/>
<path fill-rule="evenodd" clip-rule="evenodd" d="M112.393 159.425V155.187C112.393 155.021 112.525 154.884 112.686 154.884H149.664C149.826 154.884 149.957 155.021 149.957 155.187V159.425C149.957 159.592 149.826 159.727 149.664 159.727H112.686C112.525 159.727 112.393 159.592 112.393 159.425Z" fill="#E1E3E5"/>
<path fill-rule="evenodd" clip-rule="evenodd" d="M179.426 142.693L202.104 139.979L212.116 228.975C212.266 230.303 211.541 231.482 210.497 231.607L191.599 233.868C190.555 233.993 189.588 233.018 189.438 231.69L179.426 142.693Z" fill="#FFB800"/>
<path fill-rule="evenodd" clip-rule="evenodd" d="M198.866 145.242L185.637 146.825C184.593 146.951 183.868 148.129 184.018 149.457L192.677 226.426C192.975 229.083 191.525 231.44 189.438 231.69L187.273 212.447L183.485 178.773L179.426 142.693L202.104 139.979C202.403 142.636 200.953 144.992 198.866 145.242Z" fill="#EF9720"/>
<path fill-rule="evenodd" clip-rule="evenodd" d="M211.304 221.76L188.626 224.474L188.356 222.068L211.033 219.354L211.304 221.76Z" fill="#EF9720"/>
<path fill-rule="evenodd" clip-rule="evenodd" d="M210.763 216.949L188.084 219.663L187.814 217.258L210.492 214.544L210.763 216.949Z" fill="#EF9720"/>
<path fill-rule="evenodd" clip-rule="evenodd" d="M203.998 156.817L181.32 159.531L181.05 157.125L203.728 154.412L203.998 156.817Z" fill="#EF9720"/>
<path fill-rule="evenodd" clip-rule="evenodd" d="M203.457 152.006L180.778 154.72L180.508 152.315L203.186 149.601L203.457 152.006Z" fill="#EF9720"/>
<path fill-rule="evenodd" clip-rule="evenodd" d="M192.899 175.208L196.206 174.812C196.337 174.797 196.457 174.919 196.477 175.085L199.385 200.942C199.404 201.107 199.314 201.255 199.183 201.27L195.876 201.666C195.745 201.682 195.624 201.56 195.606 201.394L192.697 175.537C192.678 175.371 192.768 175.223 192.899 175.208Z" fill="#EF9720"/>
<path fill-rule="evenodd" clip-rule="evenodd" d="M233.59 228.248L211.091 231.074L204.012 171.128C203.886 170.06 204.623 169.089 205.659 168.959L224.408 166.604C225.443 166.473 226.384 167.234 226.511 168.302L233.59 228.248Z" fill="#2B0907"/>
<path fill-rule="evenodd" clip-rule="evenodd" d="M221.47 208.184L218.189 208.595C218.06 208.612 217.942 208.517 217.926 208.383L216.384 195.331C216.369 195.197 216.461 195.076 216.591 195.059L219.871 194.647C220.001 194.631 220.119 194.726 220.135 194.86L221.676 207.912C221.692 208.046 221.6 208.167 221.47 208.184Z" fill="#E1E3E5"/>
<path fill-rule="evenodd" clip-rule="evenodd" d="M219.643 192.714L216.362 193.126C216.232 193.142 216.115 193.048 216.099 192.914L215.471 187.596C215.455 187.463 215.547 187.341 215.677 187.325L218.958 186.913C219.087 186.897 219.205 186.991 219.221 187.125L219.849 192.443C219.865 192.577 219.773 192.698 219.643 192.714Z" fill="#E1E3E5"/>
<path fill-rule="evenodd" clip-rule="evenodd" d="M168.311 179.205V199.567L162.308 192.688L156.706 198.879V179.205H168.311Z" fill="#FF6B32"/>
<mask id="mask2" mask-type="alpha" maskUnits="userSpaceOnUse" x="90" y="37" width="77" height="70">
<path fill-rule="evenodd" clip-rule="evenodd" d="M90.4509 37.86H166.89V106.133H90.4509V37.86Z" fill="white"/>
</mask>
<g mask="url(#mask2)">
<path fill-rule="evenodd" clip-rule="evenodd" d="M142.702 37.8616C138.447 37.913 134.145 39.6718 131.618 43.3055C127.566 49.1336 126.933 55.8428 119.613 58.6364C116.102 59.9755 112.414 59.8478 108.864 60.7454C106.065 61.4534 103.292 62.8165 100.878 64.4196C95.9255 67.7085 92.0119 72.7284 90.8059 78.759C88.7746 88.9174 95.7615 97.4442 104.089 101.769C125.54 112.911 153.508 101.724 163.388 79.5074C165.994 73.6474 167.227 67.1747 166.811 60.7334C166.273 52.3942 161.6 45.2035 154.959 41.2105C151.341 39.0351 147.138 37.8087 142.702 37.8616Z" fill="#2B0907"/>
</g>
<mask id="mask3" mask-type="alpha" maskUnits="userSpaceOnUse" x="56" y="37" width="197" height="221">
<path fill-rule="evenodd" clip-rule="evenodd" d="M56.21 257.468H252.881V37.8596H56.21V257.468Z" fill="white"/>
</mask>
<g mask="url(#mask3)">
<path fill-rule="evenodd" clip-rule="evenodd" d="M136.837 132.382H162.326V86.3499H136.837V132.382Z" fill="#EBEBEB"/>
<path fill-rule="evenodd" clip-rule="evenodd" d="M156.606 55.6127C157.548 62.2116 154.471 68.144 149.735 68.863C144.998 69.5819 140.394 64.8156 139.452 58.2172C138.511 51.6182 141.587 45.6859 146.324 44.9669C151.061 44.2479 155.664 49.0138 156.606 55.6127Z" fill="#FF6B32"/>
<path fill-rule="evenodd" clip-rule="evenodd" d="M145.013 66.9779C145.013 66.9779 146.409 72.2641 145.205 77.5638C145.205 77.5638 150.162 80.5275 153.449 76.6458C153.449 76.6458 151.03 71.8565 151.871 65.3249C151.871 65.3249 145.458 61.4048 145.013 66.9779Z" fill="#FF6B32"/>
<path fill-rule="evenodd" clip-rule="evenodd" d="M145.205 77.5631C145.205 77.5631 136.758 77.2068 130.586 85.2053L167.1 82.9072C167.1 82.9072 163.734 75.5803 153.449 76.645L145.205 77.5631Z" fill="#FF6B32"/>
<path fill-rule="evenodd" clip-rule="evenodd" d="M170.591 139.907C170.52 139.09 156.066 133.584 154.855 133.059C148.134 130.144 141.337 127.054 134.101 125.793C129.783 125.041 111.183 122.27 112.898 131.488C113.827 136.481 123.621 139.12 127.596 140.201C134.391 142.048 141.401 143.079 148.375 143.888C155.808 144.752 163.369 145.494 170.86 145.477L170.591 139.907Z" fill="#FFAC00"/>
<path fill-rule="evenodd" clip-rule="evenodd" d="M173.621 146.576L170.92 146.715L170.501 138.051L173.201 137.911L173.621 146.576Z" fill="#FFAC00"/>
<path fill-rule="evenodd" clip-rule="evenodd" d="M173.332 140.637L177.908 140.402L178.121 144.812L173.545 145.048L173.332 140.637Z" fill="#FF6B32"/>
<path fill-rule="evenodd" clip-rule="evenodd" d="M186.116 138.737L172.944 140.402L173.396 145.091L186.534 146.29C188.05 146.428 189.47 145.434 189.846 143.914C190.111 142.843 190.118 141.558 189.361 140.301C188.68 139.17 187.397 138.575 186.116 138.737Z" fill="#2B0907"/>
<path fill-rule="evenodd" clip-rule="evenodd" d="M124.541 140.906C124.611 140.089 139.065 134.583 140.276 134.058C146.997 131.143 153.794 128.053 161.031 126.792C165.348 126.04 183.948 123.27 182.233 132.487C181.304 137.479 171.51 140.119 167.534 141.2C160.74 143.048 153.729 144.078 146.757 144.888C139.323 145.75 131.762 146.494 124.271 146.476L124.541 140.906Z" fill="#FFB800"/>
<path fill-rule="evenodd" clip-rule="evenodd" d="M121.511 147.576L124.211 147.714L124.63 139.05L121.93 138.911L121.511 147.576Z" fill="#FFB800"/>
<path fill-rule="evenodd" clip-rule="evenodd" d="M121.798 141.638L117.223 141.403L117.009 145.813L121.585 146.048L121.798 141.638Z" fill="#FF6B32"/>
<path fill-rule="evenodd" clip-rule="evenodd" d="M109.016 139.737L122.187 141.401L121.735 146.09L108.597 147.289C107.081 147.428 105.661 146.434 105.285 144.913C105.02 143.842 105.013 142.557 105.77 141.301C106.452 140.17 107.734 139.574 109.016 139.737Z" fill="#2B0907"/>
<path fill-rule="evenodd" clip-rule="evenodd" d="M149.651 114.752V137.713L138.752 133.233L138.632 109.712L149.651 114.752Z" fill="#231704"/>
<path fill-rule="evenodd" clip-rule="evenodd" d="M149.596 114.876V137.837L160.495 133.357L160.615 109.836L149.596 114.876Z" fill="#231704"/>
<path fill-rule="evenodd" clip-rule="evenodd" d="M149.651 114.753C149.651 114.753 146.668 107.935 139.75 110.224L149.651 114.753Z" fill="#FF6B32"/>
<path fill-rule="evenodd" clip-rule="evenodd" d="M159.003 110.475C159.003 110.475 152.354 107.752 149.651 114.752L159.003 110.475Z" fill="#FF6B32"/>
<path fill-rule="evenodd" clip-rule="evenodd" d="M152.335 42.4365C150.036 41.4092 146.819 41.4755 144.859 41.7115C141.775 42.0832 138.79 43.2488 136.097 44.8169C134.513 45.7385 132.96 46.8351 131.966 48.4043C130.971 49.9739 130.644 52.1124 131.567 53.7274C132.059 54.5876 132.851 55.2252 133.689 55.7257C136.648 57.4934 140.326 57.7304 143.627 56.8129C146.929 55.8958 149.879 53.9046 152.378 51.4972C153.994 49.9405 155.837 46.8331 154.626 44.4597C154.152 43.5302 153.33 42.881 152.335 42.4365Z" fill="#2B0907"/>
<path fill-rule="evenodd" clip-rule="evenodd" d="M159.913 56.6497C159.913 58.3715 158.56 59.7671 156.891 59.7671C155.222 59.7671 153.869 58.3715 153.869 56.6497C153.869 54.9284 155.222 53.5328 156.891 53.5328C158.56 53.5328 159.913 54.9284 159.913 56.6497Z" fill="#FF6B32"/>
<path fill-rule="evenodd" clip-rule="evenodd" d="M142.784 83.3049C141.79 82.075 128.881 95.9414 128.141 97.077C124.934 102.001 123.211 108.925 127.343 114.477C131.033 119.437 136.934 122.353 140.341 127.502C141.344 129.031 136.805 128.016 136.128 127.792C128.81 125.376 120.804 117.827 118.908 110.383C117.598 105.241 118.908 100.232 121.317 95.9285C123.372 92.2583 126.147 89.0242 129.196 86.1553C129.918 85.4762 138.348 78.2422 138.994 78.9786C138.994 78.9786 142.782 83.3014 142.784 83.3049Z" fill="#FF6B32"/>
<path fill-rule="evenodd" clip-rule="evenodd" d="M156.765 81.5968C157.884 80.4852 169.255 95.7173 169.87 96.9287C172.54 102.183 173.523 109.259 168.83 114.316C164.639 118.832 158.466 121.07 154.536 125.806C153.378 127.214 157.997 126.713 158.694 126.567C166.223 124.985 174.977 118.38 177.647 111.191C179.491 106.227 178.717 101.1 176.775 96.5525C175.119 92.6738 172.701 89.1478 169.973 85.9541C169.327 85.1977 161.709 77.0615 160.989 77.7211C160.989 77.7211 156.768 81.5939 156.765 81.5968Z" fill="#FF6B32"/>
<path fill-rule="evenodd" clip-rule="evenodd" d="M130.916 84.9088C130.789 84.9163 130.666 84.9453 130.548 84.9941C128.69 85.77 126.832 86.5458 124.973 87.3217C124.789 87.3985 124.591 87.4878 124.494 87.667C124.342 87.9469 124.506 88.2911 124.673 88.561C125.716 90.2445 127.019 91.7902 128.655 92.8594C130.062 93.7789 131.67 94.3183 133.279 94.7633C145.49 98.1381 158.959 96.3744 169.964 89.9601C171.116 89.2885 172.252 88.5591 173.29 87.7144C174.005 87.1316 173.839 85.9571 172.979 85.6428C172.679 85.5335 172.389 85.3933 172.118 85.2346C171.117 84.6494 170.248 83.8326 169.203 83.3377C167.523 82.5419 165.588 82.6606 163.743 82.7953C153.158 83.5692 133.078 84.7791 130.916 84.9088Z" fill="white"/>
<path fill-rule="evenodd" clip-rule="evenodd" d="M152.342 61.4739C152.342 63.6028 150.669 65.3282 148.605 65.3282C146.541 65.3282 144.868 63.6028 144.868 61.4739H152.342Z" fill="white"/>
<path fill-rule="evenodd" clip-rule="evenodd" d="M151.592 68.3348C151.592 68.3348 149.503 69.6989 146.157 68.728L153.61 77.3601C153.61 77.3601 151.571 74.3605 151.592 68.3348Z" fill="#FF8C60"/>
</g>
</g>
</svg>
