<svg width="64" height="84" viewBox="0 0 64 84" fill="none" xmlns="http://www.w3.org/2000/svg">
<path d="M6.69989 59.8531C9.48525 67.7275 5.11851 82.2201 5.11851 82.2201H30.3641V37.696L2.65796 43.0783C2.65836 43.0779 4.18155 52.7332 6.69989 59.8531Z" fill="#432B1F"/>
<path d="M54.0531 59.8531C51.2677 67.7275 55.6349 82.2201 55.6349 82.2201H30.3889V37.696L58.0946 43.0783C58.0946 43.0779 56.5718 52.7332 54.0531 59.8531Z" fill="#432B1F"/>
<path d="M36.222 63.6951H24.5071V76.9929H36.222V63.6951Z" fill="#FDCC9B"/>
<path d="M24.5071 65.2615C24.5071 65.2615 29.435 68.4419 36.222 67.7052V63.6951H24.5071V65.2615Z" fill="#FCBC85"/>
<path d="M7.61461 49.6851C10.7716 49.6851 13.3308 46.7258 13.3308 43.0753C13.3308 39.4249 10.7716 36.4656 7.61461 36.4656C4.45766 36.4656 1.89844 39.4249 1.89844 43.0753C1.89844 46.7258 4.45766 49.6851 7.61461 49.6851Z" fill="#FCBC85"/>
<path d="M53.1144 49.6851C56.2713 49.6851 58.8305 46.7258 58.8305 43.0753C58.8305 39.4249 56.2713 36.4656 53.1144 36.4656C49.9574 36.4656 47.3982 39.4249 47.3982 43.0753C47.3982 46.7258 49.9574 49.6851 53.1144 49.6851Z" fill="#FCBC85"/>
<path d="M53.0913 30.4516C53.0913 20.7159 46.0624 13.5916 30.3649 13.5916C14.6666 13.5916 7.63807 20.7155 7.63807 30.4516C7.63807 40.1876 5.99811 65.8337 30.3649 65.8337C54.7313 65.8333 53.0913 40.1876 53.0913 30.4516Z" fill="#FDCC9B"/>
<path d="M19.2951 44.2269C20.6538 44.2269 21.7553 43.0043 21.7553 41.496C21.7553 39.9878 20.6538 38.7651 19.2951 38.7651C17.9364 38.7651 16.835 39.9878 16.835 41.496C16.835 43.0043 17.9364 44.2269 19.2951 44.2269Z" fill="#3B2519"/>
<path d="M18.2225 41.0352C18.6288 41.0352 18.9582 40.7014 18.9582 40.2896C18.9582 39.8778 18.6288 39.5439 18.2225 39.5439C17.8162 39.5439 17.4868 39.8778 17.4868 40.2896C17.4868 40.7014 17.8162 41.0352 18.2225 41.0352Z" fill="white"/>
<path d="M15.3597 35.6077C16.5226 36.0593 18.3909 34.0736 22.6664 35.8008C23.4459 36.1158 23.9114 33.1074 19.3279 33.1074C15.3597 33.1074 14.6567 35.335 15.3597 35.6077Z" fill="#51362A"/>
<path d="M41.738 44.2269C43.0967 44.2269 44.1981 43.0043 44.1981 41.496C44.1981 39.9878 43.0967 38.7651 41.738 38.7651C40.3793 38.7651 39.2778 39.9878 39.2778 41.496C39.2778 43.0043 40.3793 44.2269 41.738 44.2269Z" fill="#3B2519"/>
<path d="M40.6653 41.036C41.0718 41.036 41.4014 40.702 41.4014 40.29C41.4014 39.878 41.0718 39.5439 40.6653 39.5439C40.2588 39.5439 39.9292 39.878 39.9292 40.29C39.9292 40.702 40.2588 41.036 40.6653 41.036Z" fill="white"/>
<path d="M45.3698 35.6077C44.2065 36.0593 42.339 34.0736 38.0627 35.8008C37.2836 36.1158 36.8181 33.1074 41.4016 33.1074C45.3698 33.1074 46.0724 35.335 45.3698 35.6077Z" fill="#51362A"/>
<path d="M30.3645 51.0965C27.9335 51.0965 26.4692 49.2563 26.4692 50.1465C26.4692 51.0372 27.1723 52.7292 30.3645 52.7292C33.5568 52.7292 34.2594 51.0372 34.2594 50.1465C34.2598 49.2563 32.7956 51.0965 30.3645 51.0965Z" fill="#FCBC85"/>
<path d="M30.3645 59.2857C29.524 59.2857 29.0171 58.6491 29.0171 58.9573C29.0171 59.2655 29.2602 59.8504 30.3645 59.8504C31.4689 59.8504 31.712 59.2655 31.712 58.9573C31.712 58.6491 31.2054 59.2857 30.3645 59.2857Z" fill="#FCBC85"/>
<path d="M30.3644 57.0163C26.5114 57.0163 24.1899 55.4264 24.1899 55.8291C24.1899 56.2323 25.3042 57.818 30.3644 57.818C35.4246 57.818 36.5385 56.2323 36.5385 55.8291C36.5385 55.426 34.2175 57.0163 30.3644 57.0163Z" fill="#F7945E"/>
<path d="M16.1312 53.6055C17.9752 53.6055 19.4701 52.0904 19.4701 50.2214C19.4701 48.3525 17.9752 46.8374 16.1312 46.8374C14.2871 46.8374 12.7922 48.3525 12.7922 50.2214C12.7922 52.0904 14.2871 53.6055 16.1312 53.6055Z" fill="#F9AA8D"/>
<path d="M45.0082 53.6022C46.852 53.6022 48.3467 52.0873 48.3467 50.2186C48.3467 48.3499 46.852 46.835 45.0082 46.835C43.1644 46.835 41.6697 48.3499 41.6697 50.2186C41.6697 52.0873 43.1644 53.6022 45.0082 53.6022Z" fill="#F9AA8D"/>
<path d="M30.3643 69.04V84.0004H4.70947C4.70947 77.9448 16.8923 69.04 30.3643 69.04Z" fill="#694B74"/>
<path d="M30.3643 69.04V84.0004H56.0187C56.0187 77.9448 43.8363 69.04 30.3643 69.04Z" fill="#694B74"/>
<path d="M30.2882 69.04C27.3904 69.04 24.4237 69.446 21.5471 70.1387C21.5666 70.1641 24.7378 74.2643 30.2882 74.2643C35.4285 74.2643 38.8455 70.7531 39.3409 70.213C36.3678 69.4734 33.2907 69.04 30.2882 69.04Z" fill="#563C60"/>
<path d="M24.5066 69.5572C24.5066 69.5572 26.2199 71.7109 30.3638 71.7109C34.5078 71.7109 36.2211 69.5572 36.2211 69.5572C36.2211 69.5572 30.1443 67.3147 24.5066 69.5572Z" fill="#FDCC9B"/>
<path d="M50.9824 9.91262C36.2215 -7.89742 8.10611 -0.773484 1.89774 23.8042C-4.31022 48.3815 6.70008 59.8529 6.70008 59.8529C2.47801 45.3687 12.3234 30.3938 20.758 30.2156C29.1929 30.0375 42.5478 25.2289 42.5478 25.2289C42.5478 25.2289 44.7896 36.7898 52.0369 41.035C57.4845 44.226 55.4153 53.6058 54.0093 59.8529C59.2807 57.8207 74.8805 17.2147 50.9824 9.91262Z" fill="#51362A"/>
</svg>
