<svg width="36" height="48" viewBox="0 0 36 48" fill="none" xmlns="http://www.w3.org/2000/svg">
<path d="M3.77502 34.2019C5.34441 38.7015 2.884 46.983 2.884 46.983H17.1084V21.5408L1.49762 24.6163C1.49784 24.6161 2.35608 30.1334 3.77502 34.2019Z" fill="#432B1F"/>
<path d="M30.4559 34.2019C28.8865 38.7015 31.3471 46.983 31.3471 46.983H17.1225V21.5408L32.7331 24.6163C32.7331 24.6161 31.875 30.1334 30.4559 34.2019Z" fill="#432B1F"/>
<path d="M20.409 36.3967H13.8083V43.9955H20.409V36.3967Z" fill="#FDCC9B"/>
<path d="M13.8083 37.2918C13.8083 37.2918 16.5849 39.1092 20.409 38.6882V36.3967H13.8083V37.2918Z" fill="#FCBC85"/>
<path d="M4.29028 28.3914C6.06904 28.3914 7.51102 26.7003 7.51102 24.6144C7.51102 22.5284 6.06904 20.8374 4.29028 20.8374C2.51151 20.8374 1.06953 22.5284 1.06953 24.6144C1.06953 26.7003 2.51151 28.3914 4.29028 28.3914Z" fill="#FCBC85"/>
<path d="M29.9268 28.3914C31.7056 28.3914 33.1476 26.7003 33.1476 24.6144C33.1476 22.5284 31.7056 20.8374 29.9268 20.8374C28.1481 20.8374 26.7061 22.5284 26.7061 24.6144C26.7061 26.7003 28.1481 28.3914 29.9268 28.3914Z" fill="#FCBC85"/>
<path d="M29.9138 17.4004C29.9138 11.8371 25.9534 7.76611 17.1088 7.76611C8.26371 7.76611 4.30352 11.8369 4.30352 17.4004C4.30352 22.9638 3.37949 37.6186 17.1088 37.6186C30.8379 37.6184 29.9138 22.9638 29.9138 17.4004Z" fill="#FDCC9B"/>
<path d="M10.8717 25.2724C11.6373 25.2724 12.2579 24.5737 12.2579 23.7119C12.2579 22.85 11.6373 22.1514 10.8717 22.1514C10.1062 22.1514 9.48557 22.85 9.48557 23.7119C9.48557 24.5737 10.1062 25.2724 10.8717 25.2724Z" fill="#3B2519"/>
<path d="M10.2674 23.4488C10.4963 23.4488 10.6819 23.2581 10.6819 23.0228C10.6819 22.7874 10.4963 22.5967 10.2674 22.5967C10.0384 22.5967 9.85284 22.7874 9.85284 23.0228C9.85284 23.2581 10.0384 23.4488 10.2674 23.4488Z" fill="white"/>
<path d="M8.65427 20.3474C9.30951 20.6055 10.3622 19.4708 12.7712 20.4577C13.2104 20.6378 13.4727 18.9187 10.8901 18.9187C8.65427 18.9187 8.25816 20.1916 8.65427 20.3474Z" fill="#51362A"/>
<path d="M23.5169 25.2724C24.2824 25.2724 24.903 24.5737 24.903 23.7119C24.903 22.85 24.2824 22.1514 23.5169 22.1514C22.7513 22.1514 22.1307 22.85 22.1307 23.7119C22.1307 24.5737 22.7513 25.2724 23.5169 25.2724Z" fill="#3B2519"/>
<path d="M22.9125 23.4493C23.1415 23.4493 23.3272 23.2584 23.3272 23.023C23.3272 22.7875 23.1415 22.5967 22.9125 22.5967C22.6834 22.5967 22.4977 22.7875 22.4977 23.023C22.4977 23.2584 22.6834 23.4493 22.9125 23.4493Z" fill="white"/>
<path d="M25.5633 20.3474C24.9078 20.6055 23.8556 19.4708 21.4461 20.4577C21.0071 20.6378 20.7449 18.9187 23.3274 18.9187C25.5633 18.9187 25.9592 20.1916 25.5633 20.3474Z" fill="#51362A"/>
<path d="M17.1086 29.1982C15.7388 29.1982 14.9138 28.1466 14.9138 28.6553C14.9138 29.1643 15.3099 30.1311 17.1086 30.1311C18.9072 30.1311 19.3031 29.1643 19.3031 28.6553C19.3034 28.1466 18.4783 29.1982 17.1086 29.1982Z" fill="#FCBC85"/>
<path d="M17.1085 33.8771C16.635 33.8771 16.3493 33.5134 16.3493 33.6895C16.3493 33.8656 16.4863 34.1998 17.1085 34.1998C17.7308 34.1998 17.8678 33.8656 17.8678 33.6895C17.8678 33.5134 17.5823 33.8771 17.1085 33.8771Z" fill="#FCBC85"/>
<path d="M17.1085 32.5805C14.9376 32.5805 13.6296 31.672 13.6296 31.9022C13.6296 32.1325 14.2574 33.0387 17.1085 33.0387C19.9597 33.0387 20.5873 32.1325 20.5873 31.9022C20.5873 31.6718 19.2795 32.5805 17.1085 32.5805Z" fill="#F7945E"/>
<path d="M9.08898 30.6314C10.128 30.6314 10.9703 29.7656 10.9703 28.6976C10.9703 27.6297 10.128 26.7639 9.08898 26.7639C8.04997 26.7639 7.20769 27.6297 7.20769 28.6976C7.20769 29.7656 8.04997 30.6314 9.08898 30.6314Z" fill="#F9AA8D"/>
<path d="M25.3595 30.6294C26.3984 30.6294 27.2406 29.7638 27.2406 28.6959C27.2406 27.6281 26.3984 26.7625 25.3595 26.7625C24.3207 26.7625 23.4785 27.6281 23.4785 28.6959C23.4785 29.7638 24.3207 30.6294 25.3595 30.6294Z" fill="#F9AA8D"/>
<path d="M17.1086 39.4512V47.9999H2.65353C2.65353 44.5396 9.51785 39.4512 17.1086 39.4512Z" fill="#694B74"/>
<path d="M17.1085 39.4512V47.9999H31.5633C31.5633 44.5396 24.6992 39.4512 17.1085 39.4512Z" fill="#694B74"/>
<path d="M17.0657 39.4512C15.433 39.4512 13.7614 39.6831 12.1406 40.079C12.1516 40.0935 13.9384 42.4365 17.0657 42.4365C19.9619 42.4365 21.8872 40.43 22.1664 40.1214C20.4912 39.6988 18.7574 39.4512 17.0657 39.4512Z" fill="#563C60"/>
<path d="M13.8081 39.7468C13.8081 39.7468 14.7734 40.9775 17.1083 40.9775C19.4432 40.9775 20.4086 39.7468 20.4086 39.7468C20.4086 39.7468 16.9846 38.4653 13.8081 39.7468Z" fill="#FDCC9B"/>
<path d="M28.7257 5.66432C20.4088 -4.51278 4.56733 -0.441988 1.06927 13.6023C-2.42857 27.6464 3.77511 34.2014 3.77511 34.2014C1.39622 25.9248 6.94353 17.3678 11.6959 17.266C16.4486 17.1642 23.9733 14.4164 23.9733 14.4164C23.9733 14.4164 25.2364 21.0226 29.3199 23.4485C32.3892 25.2719 31.2234 30.6317 30.4312 34.2014C33.4013 33.0402 42.1909 9.8369 28.7257 5.66432Z" fill="#51362A"/>
</svg>
