<svg width="14" height="18" viewBox="0 0 14 18" fill="none" xmlns="http://www.w3.org/2000/svg">
<path d="M6.99977 15.0735C7.1557 15.0735 7.28226 14.9473 7.28226 14.791V5.46901C7.28226 5.31279 7.1557 5.18652 6.99977 5.18652C6.84384 5.18652 6.71729 5.31279 6.71729 5.46901V14.791C6.71729 14.9473 6.84384 15.0735 6.99977 15.0735Z" fill="black"/>
<path d="M4.17506 15.0735C4.331 15.0735 4.45755 14.9473 4.45755 14.791V5.46901C4.45755 5.31279 4.331 5.18652 4.17506 5.18652C4.01913 5.18652 3.89258 5.31279 3.89258 5.46901V14.791C3.89258 14.9473 4.01913 15.0735 4.17506 15.0735Z" fill="black"/>
<path d="M9.82497 15.0735C9.9809 15.0735 10.1075 14.9473 10.1075 14.791V5.46901C10.1075 5.31279 9.9809 5.18652 9.82497 5.18652C9.66903 5.18652 9.54248 5.31279 9.54248 5.46901V14.791C9.54248 14.9473 9.66903 15.0735 9.82497 15.0735Z" fill="black"/>
<path d="M13.497 2.36191H9.52982C9.49874 2.0088 9.38999 1.41332 9.01767 1.03112C8.78208 0.789591 8.48321 0.666992 8.12954 0.666992H5.30496C4.95129 0.666992 4.65242 0.789591 4.41682 1.03112C4.04451 1.41332 3.93575 2.0088 3.90468 2.36191H0.502701C0.346768 2.36191 0.220215 2.48818 0.220215 2.64439C0.220215 2.80061 0.346768 2.92688 0.502701 2.92688H1.07925L1.62021 15.9272C1.63067 16.4136 1.93349 17.3337 3.00665 17.3337H10.9931C12.0663 17.3337 12.3691 16.4136 12.3793 15.9331L12.9205 2.92688H13.497C13.653 2.92688 13.7795 2.80061 13.7795 2.64439C13.7795 2.48818 13.653 2.36191 13.497 2.36191ZM4.82247 1.42434C4.94903 1.29496 5.10694 1.23196 5.30496 1.23196H8.12954C8.32756 1.23196 8.48547 1.29496 8.61202 1.42434C8.83942 1.65682 8.93066 2.06586 8.9623 2.36191H4.47247C4.50411 2.06586 4.59536 1.65682 4.82247 1.42434ZM11.8146 15.9153C11.8129 16.0026 11.7739 16.7687 10.9931 16.7687H3.00665C2.23434 16.7687 2.18801 16.0012 2.1849 15.9094L1.64451 2.92688H12.355L11.8146 15.9153Z" fill="black"/>
</svg>
