<svg width="30" height="30" viewBox="0 0 30 30" fill="none" xmlns="http://www.w3.org/2000/svg">
<rect width="30" height="30" rx="4" fill="#FF6823"/>
<path d="M21.0605 6.5231C21.0605 6.2354 20.8251 6 20.5374 6H12.6333H9.46328C9.17557 6 8.94017 6.2354 8.94017 6.5231C8.94017 6.81081 9.17557 7.04621 9.46328 7.04621H12.6333C14.7885 7.04621 16.567 8.66783 16.8286 10.7079H9.46851C9.1808 10.7079 8.9454 10.9433 8.9454 11.231C8.9454 11.5187 9.1808 11.7541 9.46851 11.7541H16.8286C16.5723 13.8466 14.7885 15.4682 12.6333 15.4682H9.46328C9.2488 15.4682 9.05525 15.6042 8.97679 15.803C8.89832 16.0017 8.9454 16.2319 9.10233 16.3784L17.0169 23.8588C17.1163 23.9529 17.2471 24 17.3778 24C17.5191 24 17.6551 23.9477 17.7597 23.8378C17.9585 23.6286 17.948 23.2886 17.7388 23.0898L10.7815 16.5144H12.6333C15.3639 16.5144 17.6185 14.422 17.88 11.7541H20.5374C20.8251 11.7541 21.0605 11.5187 21.0605 11.231C21.0605 10.9433 20.8251 10.7079 20.5374 10.7079H17.88C17.7283 9.24324 16.9384 7.88317 15.7824 7.04621H20.5374C20.8251 7.04621 21.0605 6.81081 21.0605 6.5231Z" fill="white"/>
</svg>
