<svg width="177" height="140" viewBox="0 0 177 140" fill="none" xmlns="http://www.w3.org/2000/svg">
<g clip-path="url(#clip0)">
<path d="M21.2668 36.5146C21.0079 36.5149 20.7596 36.6174 20.5765 36.7997C20.3933 36.9819 20.2903 37.2289 20.29 37.4866V137.991C20.2903 138.248 20.3933 138.496 20.5764 138.678C20.7596 138.86 21.0078 138.963 21.2668 138.963H147.904C148.163 138.963 148.411 138.86 148.594 138.678C148.777 138.496 148.88 138.248 148.88 137.991V53.6197C148.88 53.362 148.777 53.1149 148.594 52.9326C148.411 52.7504 148.163 52.6479 147.904 52.6475H75.2224C74.4846 52.6482 73.7731 52.3746 73.2274 51.8805L56.8876 37.1072C56.4661 36.7255 55.9165 36.5142 55.3466 36.5146H21.2668Z" fill="#3F3D56"/>
<path d="M79.7521 23.5267C79.5939 23.4344 79.4053 23.4084 79.2278 23.4543C79.0503 23.5001 78.8983 23.6142 78.8052 23.7714L41.3031 87.2736C41.2103 87.4311 41.1841 87.6187 41.2302 87.7954C41.2764 87.972 41.391 88.1232 41.549 88.2159L92.9603 118.279C93.1185 118.371 93.3071 118.397 93.4846 118.351C93.6621 118.305 93.8141 118.191 93.9072 118.034L131.409 54.5319C131.502 54.3745 131.528 54.1869 131.482 54.0102C131.436 53.8336 131.321 53.6824 131.163 53.5897L79.7521 23.5267Z" fill="#E6E6E6"/>
<path d="M80.5392 26.5419C80.381 26.4496 80.1925 26.4235 80.0149 26.4694C79.8374 26.5153 79.6854 26.6293 79.5923 26.7866L44.3333 86.4906C44.2406 86.648 44.2144 86.8356 44.2605 87.0123C44.3066 87.1889 44.4213 87.3401 44.5793 87.4328L92.1735 115.264C92.3318 115.356 92.5203 115.382 92.6978 115.336C92.8753 115.29 93.0273 115.176 93.1204 115.019L128.379 55.3151C128.472 55.1576 128.498 54.97 128.452 54.7934C128.406 54.6167 128.292 54.4655 128.134 54.3728L80.5392 26.5419Z" fill="white"/>
<path d="M71.5465 56.0349L106.616 76.542C106.734 76.6107 106.863 76.6557 106.998 76.6744C107.133 76.6932 107.271 76.6852 107.403 76.6512C107.535 76.6171 107.658 76.5575 107.767 76.4758C107.876 76.394 107.967 76.2918 108.036 76.1749C108.105 76.058 108.151 75.9287 108.17 75.7944C108.188 75.6601 108.18 75.5234 108.146 75.3922C108.112 75.2609 108.052 75.1377 107.97 75.0295C107.888 74.9213 107.785 74.8302 107.667 74.7615L72.598 54.2545C72.4805 54.1855 72.3505 54.1403 72.2154 54.1214C72.0803 54.1025 71.9429 54.1103 71.8108 54.1443C71.6788 54.1783 71.5547 54.2379 71.4459 54.3197C71.337 54.4014 71.2453 54.5037 71.1762 54.6207C71.1071 54.7378 71.0619 54.8672 71.0431 55.0016C71.0243 55.1361 71.0323 55.2729 71.0667 55.4042C71.1011 55.5356 71.1612 55.6589 71.2435 55.7671C71.3259 55.8753 71.4288 55.9663 71.5465 56.0349V56.0349Z" fill="#E6E6E6"/>
<path d="M81.0416 39.2713L104.308 52.8763C104.636 53.0679 105.137 52.8248 105.427 52.3331C105.717 51.8415 105.687 51.2875 105.359 51.0958L82.093 37.4908C81.7652 37.2991 81.2641 37.5423 80.9738 38.034C80.6834 38.5256 80.7138 39.0796 81.0416 39.2713Z" fill="#E6E6E6"/>
<path d="M78.0269 44.3753L101.293 57.9802C101.621 58.1719 102.122 57.9287 102.412 57.4371C102.703 56.9454 102.672 56.3915 102.345 56.1998L79.0784 42.5948C78.7506 42.4031 78.2495 42.6463 77.9591 43.138C77.6688 43.6296 77.6991 44.1836 78.0269 44.3753Z" fill="#E6E6E6"/>
<path d="M68.1469 61.7919L103.216 82.2989C103.454 82.4374 103.736 82.4764 104.003 82.4075C104.269 82.3386 104.497 82.1673 104.636 81.9314C104.775 81.6954 104.815 81.414 104.746 81.1491C104.677 80.8842 104.505 80.6574 104.268 80.5185L69.1984 60.0115C68.9611 59.873 68.6783 59.834 68.4121 59.9029C68.1459 59.9718 67.9181 60.1431 67.7788 60.379C67.6394 60.615 67.5999 60.8964 67.669 61.1613C67.738 61.4262 67.9099 61.6531 68.1469 61.7919Z" fill="#E6E6E6"/>
<path d="M64.7473 67.5487L99.8168 88.0558C100.054 88.1942 100.337 88.2333 100.603 88.1644C100.869 88.0954 101.097 87.9242 101.236 87.6882C101.376 87.4523 101.415 87.1709 101.346 86.906C101.277 86.641 101.105 86.4142 100.868 86.2753L65.7988 65.7683C65.6813 65.6996 65.5513 65.6546 65.4164 65.6359C65.2814 65.6171 65.1441 65.6251 65.0122 65.6591C64.8803 65.6932 64.7564 65.7528 64.6477 65.8345C64.5389 65.9163 64.4474 66.0185 64.3784 66.1354C64.3093 66.2523 64.2641 66.3816 64.2453 66.5159C64.2265 66.6502 64.2344 66.7868 64.2687 66.9181C64.3029 67.0493 64.3628 67.1726 64.445 67.2808C64.5271 67.389 64.6298 67.4801 64.7473 67.5488V67.5487Z" fill="#E6E6E6"/>
<path d="M61.3469 73.3051L96.4164 93.8121C96.6536 93.9504 96.9363 93.9893 97.2023 93.9203C97.4684 93.8513 97.6961 93.6801 97.8353 93.4442C97.9746 93.2084 98.0142 92.9271 97.9453 92.6623C97.8764 92.3975 97.7047 92.1707 97.4678 92.0317L62.3984 71.5247C62.2809 71.456 62.1509 71.411 62.016 71.3922C61.881 71.3735 61.7437 71.3814 61.6118 71.4155C61.4799 71.4496 61.356 71.5092 61.2473 71.5909C61.1385 71.6726 61.047 71.7748 60.978 71.8917C60.909 72.0086 60.8637 72.1379 60.8449 72.2722C60.8261 72.4065 60.834 72.5432 60.8683 72.6744C60.9025 72.8057 60.9624 72.9289 61.0446 73.0371C61.1267 73.1454 61.2294 73.2364 61.3469 73.3051V73.3051Z" fill="#E6E6E6"/>
<path d="M57.9475 79.0619L93.017 99.5689C93.1345 99.6376 93.2644 99.6826 93.3994 99.7013C93.5343 99.7201 93.6717 99.7122 93.8036 99.6781C93.9355 99.644 94.0593 99.5844 94.1681 99.5027C94.2768 99.421 94.3683 99.3187 94.4374 99.2018C94.5064 99.0849 94.5516 98.9556 94.5704 98.8213C94.5893 98.687 94.5813 98.5504 94.5471 98.4191C94.5128 98.2879 94.4529 98.1646 94.3708 98.0564C94.2887 97.9482 94.186 97.8572 94.0685 97.7885L58.9989 77.2815C58.7617 77.1427 58.4787 77.1035 58.2124 77.1723C57.946 77.2412 57.718 77.4125 57.5786 77.6486C57.4392 77.8847 57.3997 78.1662 57.4689 78.4313C57.5381 78.6963 57.7102 78.9232 57.9475 79.0619Z" fill="#E6E6E6"/>
<path d="M54.5481 84.8188L89.6176 105.326C89.8548 105.465 90.1378 105.504 90.4041 105.435C90.6705 105.366 90.8985 105.195 91.0379 104.959C91.1773 104.723 91.2168 104.441 91.1476 104.176C91.0784 103.911 90.9063 103.684 90.669 103.545L55.5995 83.0383C55.482 82.9696 55.3521 82.9246 55.2172 82.9059C55.0822 82.8872 54.9448 82.8951 54.8129 82.9292C54.6811 82.9632 54.5572 83.0228 54.4485 83.1046C54.3397 83.1863 54.2482 83.2885 54.1792 83.4054C54.1101 83.5223 54.0649 83.6516 54.0461 83.7859C54.0273 83.9202 54.0352 84.0569 54.0695 84.1881C54.1037 84.3194 54.1636 84.4426 54.2457 84.5508C54.3279 84.659 54.4306 84.7501 54.5481 84.8188Z" fill="#E6E6E6"/>
<path d="M111.578 64.8817C114.597 64.8817 117.043 62.4469 117.043 59.4435C117.043 56.4401 114.597 54.0054 111.578 54.0054C108.56 54.0054 106.113 56.4401 106.113 59.4435C106.113 62.4469 108.56 64.8817 111.578 64.8817Z" fill="#E6E6E6"/>
<path d="M36.1203 41.8147C35.9409 41.777 35.7537 41.8116 35.5999 41.911C35.446 42.0103 35.3381 42.1664 35.2997 42.3448L19.9007 114.389C19.8628 114.567 19.8976 114.753 19.9974 114.906C20.0973 115.06 20.2541 115.167 20.4335 115.205L78.7601 127.549C78.9395 127.587 79.1267 127.553 79.2805 127.453C79.4344 127.354 79.5423 127.198 79.5807 127.019L94.9797 54.9756C95.0176 54.797 94.9828 54.6108 94.883 54.4577C94.7831 54.3047 94.6263 54.1973 94.4469 54.1591L36.1203 41.8147Z" fill="#E6E6E6"/>
<path d="M37.8242 44.4275C37.6448 44.3898 37.4576 44.4244 37.3038 44.5237C37.15 44.6231 37.042 44.7791 37.0037 44.9576L22.5257 112.692C22.4878 112.871 22.5226 113.057 22.6224 113.21C22.7223 113.363 22.8791 113.471 23.0584 113.509L77.0546 124.937C77.234 124.974 77.4212 124.94 77.575 124.84C77.7288 124.741 77.8368 124.585 77.8751 124.406L92.3531 56.6719C92.391 56.4933 92.3562 56.3071 92.2564 56.154C92.1565 56.0009 91.9997 55.8935 91.8203 55.8554L37.8242 44.4275Z" fill="white"/>
<path d="M78.452 83.6578L38.6654 75.2372C38.5319 75.2092 38.4053 75.1553 38.2928 75.0786C38.1802 75.0018 38.084 74.9037 38.0096 74.7899C37.9352 74.6761 37.8841 74.5488 37.8592 74.4154C37.8343 74.2819 37.8361 74.1449 37.8645 74.0121C37.8929 73.8793 37.9473 73.7534 38.0246 73.6416C38.102 73.5297 38.2007 73.4342 38.3152 73.3603C38.4297 73.2865 38.5577 73.2359 38.6919 73.2114C38.826 73.1868 38.9638 73.1888 39.0972 73.2173L78.8838 81.6378C79.0173 81.6658 79.1439 81.7198 79.2564 81.7965C79.369 81.8733 79.4652 81.9714 79.5396 82.0852C79.6139 82.199 79.6651 82.3262 79.69 82.4597C79.7149 82.5932 79.7131 82.7302 79.6847 82.863C79.6563 82.9958 79.6019 83.1217 79.5246 83.2335C79.4472 83.3454 79.3485 83.4409 79.234 83.5147C79.1195 83.5886 78.9915 83.6392 78.8573 83.6637C78.7232 83.6883 78.5854 83.6862 78.452 83.6578Z" fill="#E6E6E6"/>
<path d="M82.8158 64.911L56.4201 59.3245C56.0483 59.2458 55.8434 58.7298 55.9627 58.172C56.0819 57.6142 56.48 57.2259 56.8519 57.3046L83.2475 62.891C83.6195 62.9697 83.8243 63.4857 83.705 64.0435C83.5858 64.6013 83.1877 64.9897 82.8158 64.911Z" fill="#E6E6E6"/>
<path d="M81.5785 70.7014L55.1828 65.115C54.811 65.0363 54.6061 64.5203 54.7254 63.9625C54.8446 63.4048 55.2427 63.0164 55.6146 63.0951L82.0103 68.6815C82.3822 68.7603 82.587 69.2762 82.4677 69.834C82.3485 70.3918 81.9504 70.7802 81.5785 70.7014Z" fill="#E6E6E6"/>
<path d="M77.0558 90.1887L37.2692 81.7682C37.0004 81.7108 36.7655 81.5497 36.6161 81.3201C36.4666 81.0906 36.4147 80.8114 36.4719 80.5438C36.5291 80.2763 36.6906 80.0422 36.9211 79.8931C37.1515 79.7439 37.432 79.6919 37.701 79.7483L77.4876 88.1688C77.6209 88.197 77.7473 88.251 77.8596 88.3279C77.9719 88.4047 78.0679 88.5027 78.1421 88.6165C78.2163 88.7302 78.2672 88.8574 78.2921 88.9907C78.3169 89.124 78.3151 89.2609 78.2867 89.3935C78.2584 89.5262 78.204 89.652 78.1268 89.7637C78.0496 89.8754 77.9511 89.9709 77.8368 90.0448C77.7225 90.1186 77.5947 90.1693 77.4607 90.194C77.3267 90.2187 77.1891 90.2169 77.0558 90.1887Z" fill="#E6E6E6"/>
<path d="M75.6604 96.7195L35.8737 88.299C35.6049 88.2416 35.37 88.0804 35.2205 87.8509C35.0711 87.6213 35.0192 87.3421 35.0764 87.0746C35.1336 86.8071 35.2951 86.573 35.5256 86.4238C35.756 86.2747 36.0365 86.2226 36.3055 86.279L76.0921 94.6996C76.2254 94.7278 76.3518 94.7819 76.4641 94.8587C76.5764 94.9355 76.6724 95.0336 76.7466 95.1473C76.8208 95.261 76.8717 95.3882 76.8965 95.5215C76.9214 95.6548 76.9195 95.7917 76.8912 95.9244C76.8629 96.057 76.8085 96.1828 76.7313 96.2945C76.6541 96.4062 76.5556 96.5018 76.4413 96.5756C76.327 96.6494 76.1992 96.7001 76.0652 96.7248C75.9312 96.7495 75.7936 96.7477 75.6604 96.7195Z" fill="#E6E6E6"/>
<path d="M74.2646 103.251L34.4779 94.83C34.3444 94.802 34.2178 94.7481 34.1053 94.6713C33.9927 94.5946 33.8965 94.4965 33.8221 94.3827C33.7477 94.2689 33.6966 94.1416 33.6717 94.0082C33.6468 93.8747 33.6486 93.7376 33.677 93.6049C33.7054 93.4721 33.7598 93.3462 33.8371 93.2343C33.9145 93.1225 34.0132 93.0269 34.1277 92.9531C34.2422 92.8793 34.3702 92.8287 34.5044 92.8041C34.6385 92.7796 34.7763 92.7816 34.9097 92.8101L74.6963 101.231C74.9651 101.288 75.2 101.449 75.3495 101.679C75.4989 101.908 75.5508 102.188 75.4936 102.455C75.4364 102.723 75.2749 102.957 75.0444 103.106C74.814 103.255 74.5335 103.307 74.2646 103.251Z" fill="#E6E6E6"/>
<path d="M72.8681 109.782L33.0814 101.361C32.9479 101.333 32.8213 101.279 32.7088 101.203C32.5962 101.126 32.5 101.028 32.4257 100.914C32.3513 100.8 32.3002 100.673 32.2752 100.539C32.2503 100.406 32.2521 100.269 32.2805 100.136C32.3089 100.003 32.3633 99.8774 32.4406 99.7656C32.518 99.6537 32.6167 99.5582 32.7312 99.4844C32.8457 99.4105 32.9737 99.3599 33.1079 99.3354C33.2421 99.3108 33.3798 99.3129 33.5132 99.3413L73.2998 107.762C73.4333 107.79 73.5599 107.844 73.6725 107.921C73.785 107.997 73.8812 108.095 73.9556 108.209C74.03 108.323 74.0811 108.45 74.106 108.584C74.1309 108.717 74.1291 108.854 74.1007 108.987C74.0723 109.12 74.0179 109.246 73.9406 109.358C73.8633 109.469 73.7645 109.565 73.65 109.639C73.5355 109.713 73.4075 109.763 73.2734 109.788C73.1392 109.812 73.0015 109.81 72.8681 109.782Z" fill="#E6E6E6"/>
<path d="M71.4719 116.313L31.6852 107.892C31.4165 107.835 31.1815 107.674 31.0321 107.444C30.8826 107.215 30.8308 106.935 30.8879 106.668C30.9451 106.4 31.1067 106.166 31.3371 106.017C31.5675 105.868 31.848 105.816 32.117 105.872L71.9036 114.293C72.0371 114.321 72.1637 114.375 72.2762 114.451C72.3888 114.528 72.485 114.626 72.5594 114.74C72.6338 114.854 72.6849 114.981 72.7098 115.115C72.7347 115.248 72.7329 115.385 72.7045 115.518C72.6761 115.651 72.6217 115.777 72.5444 115.888C72.467 116 72.3683 116.096 72.2538 116.17C72.1393 116.244 72.0113 116.294 71.8771 116.319C71.743 116.343 71.6052 116.341 71.4719 116.313Z" fill="#E6E6E6"/>
<path d="M46.6008 64.7254C49.6191 64.7254 52.0658 62.2906 52.0658 59.2872C52.0658 56.2838 49.6191 53.8491 46.6008 53.8491C43.5825 53.8491 41.1357 56.2838 41.1357 59.2872C41.1357 62.2906 43.5825 64.7254 46.6008 64.7254Z" fill="#E6E6E6"/>
<path d="M116.284 7.87186C116.129 7.77431 115.942 7.74191 115.763 7.78179C115.584 7.82167 115.428 7.93056 115.33 8.08457L75.6903 70.2881C75.5922 70.4423 75.5597 70.6289 75.5997 70.807C75.6398 70.9851 75.7492 71.1401 75.904 71.2381L126.264 103.014C126.419 103.112 126.606 103.144 126.785 103.104C126.964 103.065 127.12 102.956 127.219 102.802L166.858 40.5982C166.956 40.444 166.989 40.2573 166.949 40.0793C166.909 39.9012 166.799 39.7462 166.644 39.6482L116.284 7.87186Z" fill="#008FFF"/>
<path d="M116.968 10.9119C116.813 10.8143 116.626 10.782 116.447 10.8218C116.268 10.8617 116.112 10.9706 116.013 11.1246L78.7449 69.6075C78.6469 69.7617 78.6144 69.9483 78.6544 70.1264C78.6945 70.3045 78.8039 70.4595 78.9587 70.5574L125.58 99.9746C125.735 100.072 125.922 100.105 126.101 100.065C126.28 100.025 126.436 99.9159 126.534 99.7619L163.803 41.279C163.901 41.1247 163.933 40.9381 163.893 40.76C163.853 40.5819 163.744 40.4269 163.589 40.329L116.968 10.9119Z" fill="white"/>
<path d="M141.33 61.761L106.978 40.0852C106.863 40.0126 106.763 39.9182 106.685 39.8072C106.607 39.6963 106.551 39.5711 106.521 39.4388C106.491 39.3065 106.488 39.1696 106.511 39.0361C106.535 38.9025 106.584 38.7748 106.657 38.6603C106.73 38.5458 106.825 38.4467 106.937 38.3686C107.048 38.2906 107.174 38.2352 107.307 38.2056C107.44 38.176 107.578 38.1727 107.712 38.196C107.846 38.2192 107.974 38.2686 108.089 38.3412L142.442 60.017C142.557 60.0896 142.656 60.1841 142.735 60.295C142.813 60.4059 142.869 60.5311 142.899 60.6634C142.928 60.7957 142.932 60.9326 142.908 61.0662C142.885 61.1998 142.835 61.3275 142.762 61.442C142.689 61.5565 142.595 61.6556 142.483 61.7336C142.372 61.8116 142.246 61.867 142.113 61.8966C141.98 61.9262 141.842 61.9295 141.708 61.9063C141.574 61.883 141.445 61.8336 141.33 61.761Z" fill="#008FFF"/>
<path d="M151.98 45.6987L129.19 31.3183C128.869 31.1157 128.857 30.561 129.164 30.0794C129.471 29.5978 129.98 29.3717 130.301 29.5743L153.092 43.9546C153.413 44.1573 153.424 44.7119 153.117 45.1935C152.811 45.6751 152.301 45.9013 151.98 45.6987Z" fill="#008FFF"/>
<path d="M148.794 50.6983L126.003 36.3178C125.682 36.1152 125.671 35.5605 125.978 35.0789C126.285 34.5974 126.794 34.3712 127.115 34.5738L149.905 48.9542C150.226 49.1568 150.238 49.7115 149.931 50.1931C149.624 50.6747 149.115 50.9009 148.794 50.6983Z" fill="#008FFF"/>
<path d="M137.737 67.3999L103.385 45.7241C103.153 45.5773 102.989 45.3448 102.929 45.0778C102.869 44.8108 102.918 44.531 103.066 44.2999C103.213 44.0688 103.446 43.9054 103.715 43.8454C103.983 43.7855 104.264 43.8339 104.497 43.9801L138.849 65.6558C138.964 65.7285 139.063 65.8229 139.142 65.9338C139.22 66.0447 139.276 66.1699 139.306 66.3022C139.335 66.4346 139.339 66.5714 139.315 66.705C139.292 66.8386 139.242 66.9663 139.169 67.0808C139.096 67.1953 139.002 67.2944 138.89 67.3724C138.779 67.4504 138.653 67.5058 138.52 67.5355C138.387 67.5651 138.249 67.5684 138.115 67.5451C137.981 67.5218 137.853 67.4725 137.737 67.3999H137.737Z" fill="#008FFF"/>
<path d="M134.144 73.0391L99.7914 51.3633C99.5593 51.2165 99.3954 50.984 99.3355 50.717C99.2756 50.4499 99.3246 50.1701 99.4719 49.9391C99.6191 49.708 99.8525 49.5445 100.121 49.4846C100.389 49.4246 100.67 49.4731 100.903 49.6193L135.255 71.2951C135.37 71.3676 135.47 71.462 135.549 71.573C135.627 71.6839 135.683 71.8092 135.713 71.9416C135.743 72.074 135.746 72.211 135.723 72.3447C135.7 72.4784 135.65 72.6062 135.577 72.7208C135.504 72.8354 135.409 72.9346 135.297 73.0126C135.186 73.0907 135.06 73.146 134.927 73.1756C134.794 73.2052 134.656 73.2083 134.522 73.1849C134.387 73.1615 134.259 73.112 134.144 73.0391Z" fill="#008FFF"/>
<path d="M130.55 78.6782L96.198 57.0025C96.0827 56.9299 95.9829 56.8355 95.9044 56.7246C95.8258 56.6137 95.77 56.4884 95.7401 56.356C95.7102 56.2236 95.7068 56.0866 95.7302 55.9529C95.7535 55.8192 95.8031 55.6914 95.8762 55.5768C95.9492 55.4622 96.0442 55.363 96.1558 55.285C96.2674 55.2069 96.3934 55.1515 96.5265 55.122C96.6596 55.0924 96.7972 55.0892 96.9316 55.1127C97.0659 55.1361 97.1943 55.1856 97.3094 55.2584L131.662 76.9342C131.894 77.081 132.058 77.3135 132.117 77.5805C132.177 77.8476 132.128 78.1273 131.981 78.3584C131.834 78.5895 131.6 78.7529 131.332 78.8129C131.064 78.8729 130.783 78.8244 130.55 78.6782Z" fill="#008FFF"/>
<path d="M126.956 84.3172L92.604 62.6414C92.3716 62.4947 92.2073 62.2622 92.1471 61.995C92.087 61.7278 92.136 61.4477 92.2834 61.2164C92.4308 60.9852 92.6645 60.8216 92.933 60.7618C93.2016 60.7019 93.483 60.7507 93.7154 60.8974L128.068 82.5732C128.3 82.72 128.464 82.9525 128.524 83.2195C128.584 83.4866 128.534 83.7663 128.387 83.9974C128.24 84.2285 128.007 84.3919 127.738 84.4519C127.47 84.5119 127.189 84.4634 126.956 84.3172Z" fill="#008FFF"/>
<path d="M123.363 89.9563L89.0103 68.2805C88.8952 68.2079 88.7956 68.1135 88.7172 68.0026C88.6388 67.8917 88.5832 67.7665 88.5534 67.6341C88.5236 67.5018 88.5203 67.365 88.5437 67.2314C88.5671 67.0978 88.6167 66.9701 88.6897 66.8556C88.7626 66.7411 88.8576 66.642 88.969 66.564C89.0805 66.486 89.2063 66.4306 89.3393 66.4009C89.4722 66.3713 89.6098 66.368 89.744 66.3913C89.8783 66.4146 90.0066 66.4639 90.1217 66.5365L124.474 88.2123C124.706 88.3589 124.871 88.5914 124.931 88.8587C124.991 89.1259 124.942 89.406 124.795 89.6372C124.647 89.8685 124.414 90.032 124.145 90.0919C123.876 90.1517 123.595 90.1029 123.363 89.9563Z" fill="#008FFF"/>
<path d="M119.997 33.3201C123.016 33.3201 125.462 30.8853 125.462 27.882C125.462 24.8786 123.016 22.4438 119.997 22.4438C116.979 22.4438 114.532 24.8786 114.532 27.882C114.532 30.8853 116.979 33.3201 119.997 33.3201Z" fill="#008FFF"/>
<path d="M12.6595 62.9121C12.5219 62.9121 12.386 62.941 12.2605 62.9968C12.1349 63.0527 12.0227 63.1343 11.9311 63.2364C11.8394 63.3384 11.7705 63.4585 11.7287 63.5889C11.687 63.7193 11.6734 63.8569 11.6888 63.9929L20.1564 138.772C20.1831 139.009 20.2969 139.229 20.476 139.388C20.6551 139.547 20.8869 139.635 21.127 139.635H148.043C148.283 139.635 148.515 139.547 148.694 139.388C148.873 139.229 148.987 139.009 149.014 138.772L157.481 63.9929C157.497 63.8569 157.483 63.7193 157.441 63.5889C157.4 63.4586 157.331 63.3384 157.239 63.2364C157.148 63.1338 157.036 63.0518 156.91 62.9959C156.785 62.94 156.648 62.9114 156.511 62.9121H12.6595Z" fill="#E6E6E6"/>
<path d="M24.2054 75.4717L64.8814 75.2525C65.1563 75.2506 65.4191 75.1401 65.6123 74.9455C65.8054 74.7509 65.9131 74.488 65.9116 74.2144C65.9101 73.9409 65.7996 73.6792 65.6043 73.4866C65.4091 73.2941 65.1451 73.1865 64.8702 73.1875L24.1942 73.4067C23.919 73.4082 23.6556 73.5184 23.4621 73.7131C23.2685 73.9077 23.1606 74.171 23.1621 74.4448C23.1636 74.7186 23.2744 74.9807 23.47 75.1733C23.6657 75.3659 23.9302 75.4732 24.2054 75.4717Z" fill="white"/>
<path d="M24.2054 81.857L48.3318 81.6378C48.6067 81.6359 48.8696 81.5254 49.0627 81.3308C49.2559 81.1362 49.3635 80.8732 49.362 80.5997C49.3605 80.3262 49.25 80.0644 49.0548 79.8719C48.8595 79.6793 48.5955 79.5718 48.3206 79.5728L24.1942 79.792C23.919 79.7934 23.6556 79.9036 23.4621 80.0983C23.2685 80.293 23.1606 80.5562 23.1621 80.8301C23.1636 81.1039 23.2744 81.366 23.47 81.5586C23.6657 81.7512 23.9302 81.8585 24.2054 81.857Z" fill="white"/>
<path d="M167.908 140H-8V139.267H168L167.908 140Z" fill="#3F3D56"/>
</g>
<defs>
<clipPath id="clip0">
<rect width="177" height="140" fill="white"/>
</clipPath>
</defs>
</svg>
