<svg width="18" height="18" viewBox="0 0 18 18" fill="none" xmlns="http://www.w3.org/2000/svg">
<path fill-rule="evenodd" clip-rule="evenodd" d="M12.502 10.9992H11.708L11.432 10.7252C12.407 9.58823 13 8.11423 13 6.49923C13 2.90923 10.09 -0.000770569 6.5 -0.000770569C2.91 -0.000770569 0 2.90923 0 6.49923C0 10.0892 2.91 12.9992 6.5 12.9992C8.115 12.9992 9.588 12.4072 10.725 11.4332L11.001 11.7072V12.4992L15.999 17.4902L17.49 15.9992L12.502 10.9992ZM6.5 10.9994C4.014 10.9994 2 8.98539 2 6.49939C2 4.01439 4.014 1.99939 6.5 1.99939C8.985 1.99939 11 4.01439 11 6.49939C11 8.98539 8.985 10.9994 6.5 10.9994Z" fill="#83959D"/>
</svg>
