<svg width="4" height="16" viewBox="0 0 4 16" fill="none" xmlns="http://www.w3.org/2000/svg">
<path d="M1.14283 8C1.14283 8.47339 1.52659 8.85714 1.99997 8.85714C2.47336 8.85714 2.85712 8.47339 2.85712 8C2.85712 7.52661 2.47336 7.14286 1.99997 7.14286C1.52659 7.14286 1.14283 7.52661 1.14283 8Z" stroke="#757575" stroke-width="2" stroke-linecap="round" stroke-linejoin="round"/>
<path d="M1.14283 14C1.14283 14.4734 1.52659 14.8571 1.99997 14.8571C2.47336 14.8571 2.85712 14.4734 2.85712 14C2.85712 13.5266 2.47336 13.1429 1.99997 13.1429C1.52659 13.1429 1.14283 13.5266 1.14283 14Z" stroke="#757575" stroke-width="2" stroke-linecap="round" stroke-linejoin="round"/>
<path d="M1.14283 2C1.14283 2.47339 1.52659 2.85714 1.99997 2.85714C2.47336 2.85714 2.85712 2.47339 2.85712 2C2.85712 1.52661 2.47336 1.14286 1.99997 1.14286C1.52659 1.14286 1.14283 1.52661 1.14283 2Z" stroke="#757575" stroke-width="2" stroke-linecap="round" stroke-linejoin="round"/>
</svg>
