<svg width="893" height="210" viewBox="0 0 893 210" fill="none" xmlns="http://www.w3.org/2000/svg">
<rect width="723.501" height="180.297" transform="translate(80 17.8403)" fill="white"/>
<rect x="627.25" y="32.0442" width="89.5" height="41.5" stroke="#83959D" stroke-width="0.5"/>
<path d="M639.739 41.9387H636.76L636.091 43.7942H635.125L637.839 36.6848H638.66L641.379 43.7942H640.418L639.739 41.9387ZM637.044 41.1672H639.461L638.25 37.842L637.044 41.1672ZM642.175 41.1086C642.175 40.2981 642.367 39.6471 642.751 39.1555C643.135 38.6607 643.638 38.4133 644.26 38.4133C644.879 38.4133 645.369 38.6249 645.73 39.0481V36.2942H646.633V43.7942H645.803L645.759 43.2278C645.398 43.6705 644.895 43.8918 644.25 43.8918C643.638 43.8918 643.139 43.6412 642.751 43.1399C642.367 42.6386 642.175 41.9843 642.175 41.177V41.1086ZM643.079 41.2112C643.079 41.8101 643.202 42.2789 643.45 42.6174C643.697 42.956 644.039 43.1252 644.475 43.1252C645.048 43.1252 645.466 42.8681 645.73 42.3538V39.927C645.46 39.429 645.045 39.1799 644.485 39.1799C644.042 39.1799 643.697 39.3508 643.45 39.6926C643.202 40.0344 643.079 40.5406 643.079 41.2112ZM649.221 43.7942H648.318V38.511H649.221V43.7942ZM648.244 37.1096C648.244 36.9631 648.288 36.8394 648.376 36.7385C648.467 36.6376 648.601 36.5872 648.777 36.5872C648.952 36.5872 649.086 36.6376 649.177 36.7385C649.268 36.8394 649.314 36.9631 649.314 37.1096C649.314 37.2561 649.268 37.3782 649.177 37.4758C649.086 37.5735 648.952 37.6223 648.777 37.6223C648.601 37.6223 648.467 37.5735 648.376 37.4758C648.288 37.3782 648.244 37.2561 648.244 37.1096ZM652.097 37.2317V38.511H653.083V39.2092H652.097V42.4856C652.097 42.6972 652.141 42.8567 652.229 42.9641C652.316 43.0683 652.466 43.1204 652.678 43.1204C652.782 43.1204 652.925 43.1008 653.107 43.0618V43.7942C652.87 43.8593 652.639 43.8918 652.414 43.8918C652.01 43.8918 651.706 43.7698 651.501 43.5256C651.296 43.2815 651.193 42.9348 651.193 42.4856V39.2092H650.231V38.511H651.193V37.2317H652.097ZM656.071 42.4709L657.302 38.511H658.268L656.144 44.6096C655.816 45.4885 655.293 45.928 654.577 45.928L654.406 45.9133L654.069 45.8499V45.1174L654.313 45.137C654.619 45.137 654.857 45.0751 655.026 44.9514C655.199 44.8277 655.34 44.6015 655.451 44.2727L655.651 43.7356L653.766 38.511H654.753L656.071 42.4709ZM662.463 43.7942C662.41 43.69 662.368 43.5045 662.336 43.2375C661.916 43.6737 661.414 43.8918 660.832 43.8918C660.311 43.8918 659.883 43.7454 659.547 43.4524C659.215 43.1562 659.049 42.7818 659.049 42.3293C659.049 41.7792 659.258 41.3528 659.674 41.05C660.094 40.7441 660.684 40.5911 661.442 40.5911H662.321V40.176C662.321 39.8603 662.226 39.6096 662.038 39.4241C661.849 39.2353 661.571 39.1409 661.203 39.1409C660.88 39.1409 660.61 39.2222 660.392 39.385C660.174 39.5478 660.065 39.7447 660.065 39.9758H659.157C659.157 39.7122 659.25 39.4583 659.435 39.2141C659.624 38.9667 659.878 38.7714 660.197 38.6282C660.519 38.4849 660.872 38.4133 661.256 38.4133C661.865 38.4133 662.342 38.5663 662.687 38.8723C663.032 39.175 663.211 39.5933 663.224 40.1272V42.5588C663.224 43.0439 663.286 43.4296 663.41 43.7161V43.7942H662.463ZM660.963 43.1057C661.247 43.1057 661.515 43.0325 661.769 42.886C662.023 42.7395 662.207 42.5491 662.321 42.3147V41.2307H661.613C660.506 41.2307 659.953 41.5546 659.953 42.2024C659.953 42.4856 660.047 42.7069 660.236 42.8665C660.425 43.026 660.667 43.1057 660.963 43.1057ZM667.662 43.7942V36.6848H669.987C670.758 36.6848 671.337 36.8443 671.725 37.1633C672.115 37.4823 672.311 37.9543 672.311 38.5793C672.311 38.9114 672.216 39.206 672.028 39.4631C671.839 39.717 671.582 39.914 671.256 40.054C671.64 40.1614 671.943 40.3665 672.164 40.6692C672.389 40.9687 672.501 41.3267 672.501 41.7434C672.501 42.3814 672.294 42.8827 671.881 43.2473C671.468 43.6119 670.883 43.7942 670.128 43.7942H667.662ZM668.6 40.469V43.0276H670.148C670.584 43.0276 670.927 42.9153 671.178 42.6907C671.432 42.4628 671.559 42.1503 671.559 41.7532C671.559 40.8971 671.093 40.469 670.162 40.469H668.6ZM668.6 39.717H670.016C670.426 39.717 670.753 39.6145 670.997 39.4094C671.245 39.2043 671.368 38.926 671.368 38.5745C671.368 38.1838 671.254 37.9006 671.027 37.7249C670.799 37.5458 670.452 37.4563 669.987 37.4563H668.6V39.717ZM674.933 43.7942H674.029V38.511H674.933V43.7942ZM673.956 37.1096C673.956 36.9631 674 36.8394 674.088 36.7385C674.179 36.6376 674.312 36.5872 674.488 36.5872C674.664 36.5872 674.798 36.6376 674.889 36.7385C674.98 36.8394 675.025 36.9631 675.025 37.1096C675.025 37.2561 674.98 37.3782 674.889 37.4758C674.798 37.5735 674.664 37.6223 674.488 37.6223C674.312 37.6223 674.179 37.5735 674.088 37.4758C674 37.3782 673.956 37.2561 673.956 37.1096ZM679.137 39.3215C679 39.2987 678.852 39.2874 678.692 39.2874C678.1 39.2874 677.698 39.5396 677.486 40.0442V43.7942H676.583V38.511H677.462L677.476 39.1213C677.773 38.6493 678.193 38.4133 678.736 38.4133C678.912 38.4133 679.045 38.4361 679.137 38.4817V39.3215ZM681.153 43.7942H680.25V36.2942H681.153V43.7942ZM686.065 43.7942C686.013 43.69 685.97 43.5045 685.938 43.2375C685.518 43.6737 685.017 43.8918 684.434 43.8918C683.913 43.8918 683.485 43.7454 683.15 43.4524C682.818 43.1562 682.652 42.7818 682.652 42.3293C682.652 41.7792 682.86 41.3528 683.277 41.05C683.697 40.7441 684.286 40.5911 685.044 40.5911H685.923V40.176C685.923 39.8603 685.829 39.6096 685.64 39.4241C685.451 39.2353 685.173 39.1409 684.805 39.1409C684.483 39.1409 684.213 39.2222 683.995 39.385C683.776 39.5478 683.667 39.7447 683.667 39.9758H682.759C682.759 39.7122 682.852 39.4583 683.038 39.2141C683.226 38.9667 683.48 38.7714 683.799 38.6282C684.121 38.4849 684.475 38.4133 684.859 38.4133C685.468 38.4133 685.944 38.5663 686.289 38.8723C686.635 39.175 686.814 39.5933 686.827 40.1272V42.5588C686.827 43.0439 686.888 43.4296 687.012 43.7161V43.7942H686.065ZM684.566 43.1057C684.849 43.1057 685.118 43.0325 685.371 42.886C685.625 42.7395 685.809 42.5491 685.923 42.3147V41.2307H685.215C684.108 41.2307 683.555 41.5546 683.555 42.2024C683.555 42.4856 683.649 42.7069 683.838 42.8665C684.027 43.026 684.27 43.1057 684.566 43.1057ZM693.359 40.6252C692.555 40.3941 691.969 40.1109 691.602 39.7756C691.237 39.4371 691.055 39.0204 691.055 38.5256C691.055 37.9657 691.278 37.5035 691.724 37.1389C692.173 36.7711 692.756 36.5872 693.472 36.5872C693.96 36.5872 694.395 36.6816 694.775 36.8704C695.16 37.0592 695.456 37.3196 695.664 37.6516C695.876 37.9836 695.981 38.3466 695.981 38.7405H695.039C695.039 38.3108 694.902 37.9739 694.629 37.7297C694.355 37.4823 693.97 37.3586 693.472 37.3586C693.009 37.3586 692.648 37.4612 692.388 37.6663C692.131 37.8681 692.002 38.1497 692.002 38.511C692.002 38.8007 692.124 39.0465 692.368 39.2483C692.616 39.4469 693.034 39.6292 693.623 39.7952C694.215 39.9612 694.678 40.1451 695.01 40.3469C695.345 40.5455 695.592 40.7782 695.752 41.0452C695.915 41.3121 695.996 41.6262 695.996 41.9875C695.996 42.5637 695.771 43.026 695.322 43.3743C694.873 43.7193 694.272 43.8918 693.521 43.8918C693.032 43.8918 692.576 43.7991 692.153 43.6135C691.73 43.4247 691.403 43.1676 691.172 42.842C690.944 42.5165 690.83 42.1471 690.83 41.7336H691.772C691.772 42.1633 691.93 42.5035 692.246 42.7542C692.565 43.0015 692.99 43.1252 693.521 43.1252C694.015 43.1252 694.395 43.0243 694.658 42.8225C694.922 42.6207 695.054 42.3456 695.054 41.9973C695.054 41.649 694.932 41.3805 694.688 41.1917C694.443 40.9996 694.001 40.8108 693.359 40.6252ZM700.522 43.2717C700.171 43.6851 699.655 43.8918 698.974 43.8918C698.411 43.8918 697.982 43.7291 697.685 43.4036C697.392 43.0748 697.244 42.5898 697.241 41.9485V38.511H698.144V41.9241C698.144 42.7249 698.47 43.1252 699.121 43.1252C699.811 43.1252 700.27 42.8681 700.498 42.3538V38.511H701.401V43.7942H700.542L700.522 43.2717ZM703.833 38.511L703.862 39.175C704.266 38.6672 704.793 38.4133 705.444 38.4133C706.56 38.4133 707.124 39.0432 707.133 40.303V43.7942H706.23V40.2981C706.227 39.9172 706.139 39.6357 705.966 39.4534C705.797 39.2711 705.532 39.1799 705.171 39.1799C704.878 39.1799 704.62 39.2581 704.399 39.4143C704.178 39.5706 704.005 39.7756 703.881 40.0295V43.7942H702.978V38.511H703.833ZM636.287 55.0276H639.656V55.7942H635.344V48.6848H636.287V55.0276ZM641.765 55.7942H640.862V50.511H641.765V55.7942ZM640.788 49.1096C640.788 48.9631 640.832 48.8394 640.92 48.7385C641.011 48.6376 641.145 48.5872 641.321 48.5872C641.496 48.5872 641.63 48.6376 641.721 48.7385C641.812 48.8394 641.858 48.9631 641.858 49.1096C641.858 49.2561 641.812 49.3782 641.721 49.4758C641.63 49.5735 641.496 49.6223 641.321 49.6223C641.145 49.6223 641.011 49.5735 640.92 49.4758C640.832 49.3782 640.788 49.2561 640.788 49.1096ZM643.86 55.7942V51.2092H643.025V50.511H643.86V49.969C643.86 49.4026 644.011 48.9648 644.314 48.6555C644.616 48.3463 645.044 48.1917 645.598 48.1917C645.806 48.1917 646.013 48.2193 646.218 48.2747L646.169 49.0071C646.016 48.9778 645.853 48.9631 645.681 48.9631C645.388 48.9631 645.162 49.0494 645.002 49.2219C644.843 49.3912 644.763 49.6353 644.763 49.9543V50.511H645.891V51.2092H644.763V55.7942H643.86ZM649.167 55.8918C648.451 55.8918 647.868 55.6575 647.419 55.1887C646.97 54.7167 646.745 54.0868 646.745 53.2991V53.1331C646.745 52.609 646.844 52.1418 647.043 51.7317C647.245 51.3183 647.525 50.996 647.883 50.7649C648.244 50.5305 648.635 50.4133 649.055 50.4133C649.742 50.4133 650.275 50.6396 650.656 51.092C651.037 51.5445 651.228 52.1923 651.228 53.0354V53.4114H647.648C647.661 53.9322 647.813 54.3538 648.103 54.676C648.396 54.995 648.767 55.1545 649.216 55.1545C649.535 55.1545 649.805 55.0894 650.026 54.9592C650.248 54.829 650.441 54.6565 650.607 54.4417L651.159 54.8713C650.716 55.5517 650.052 55.8918 649.167 55.8918ZM649.055 51.1555C648.69 51.1555 648.384 51.289 648.137 51.5559C647.889 51.8196 647.736 52.1907 647.678 52.6692H650.324V52.6008C650.298 52.1418 650.174 51.787 649.953 51.5364C649.732 51.2825 649.432 51.1555 649.055 51.1555ZM659.318 52.5081H656.237V55.0276H659.816V55.7942H655.299V48.6848H659.767V49.4563H656.237V51.7415H659.318V52.5081ZM660.724 53.1086C660.724 52.2786 660.914 51.6226 661.295 51.1409C661.676 50.6558 662.187 50.4133 662.829 50.4133C663.454 50.4133 663.947 50.6233 664.308 51.0432L664.347 50.511H665.177V57.8254H664.274V55.3059C663.909 55.6965 663.424 55.8918 662.819 55.8918C662.181 55.8918 661.671 55.6444 661.29 55.1497C660.913 54.6516 660.724 53.9924 660.724 53.1721V53.1086ZM661.627 53.2112C661.627 53.8167 661.754 54.2919 662.008 54.637C662.265 54.982 662.61 55.1545 663.043 55.1545C663.58 55.1545 663.991 54.9169 664.274 54.4417V51.8538C663.987 51.3883 663.58 51.1555 663.053 51.1555C662.617 51.1555 662.27 51.3297 662.013 51.678C661.756 52.023 661.627 52.5341 661.627 53.2112ZM670.089 55.2717C669.738 55.6851 669.222 55.8918 668.541 55.8918C667.978 55.8918 667.548 55.7291 667.252 55.4036C666.959 55.0748 666.811 54.5898 666.808 53.9485V50.511H667.711V53.9241C667.711 54.7249 668.037 55.1252 668.688 55.1252C669.378 55.1252 669.837 54.8681 670.065 54.3538V50.511H670.968V55.7942H670.109L670.089 55.2717ZM673.526 55.7942H672.623V50.511H673.526V55.7942ZM672.55 49.1096C672.55 48.9631 672.594 48.8394 672.682 48.7385C672.773 48.6376 672.906 48.5872 673.082 48.5872C673.258 48.5872 673.391 48.6376 673.482 48.7385C673.574 48.8394 673.619 48.9631 673.619 49.1096C673.619 49.2561 673.574 49.3782 673.482 49.4758C673.391 49.5735 673.258 49.6223 673.082 49.6223C672.906 49.6223 672.773 49.5735 672.682 49.4758C672.594 49.3782 672.55 49.2561 672.55 49.1096ZM676.402 49.2317V50.511H677.388V51.2092H676.402V54.4856C676.402 54.6972 676.446 54.8567 676.534 54.9641C676.622 55.0683 676.772 55.1204 676.983 55.1204C677.087 55.1204 677.231 55.1008 677.413 55.0618V55.7942C677.175 55.8593 676.944 55.8918 676.72 55.8918C676.316 55.8918 676.012 55.7698 675.806 55.5256C675.601 55.2815 675.499 54.9348 675.499 54.4856V51.2092H674.537V50.511H675.499V49.2317H676.402ZM680.377 54.4709L681.607 50.511H682.574L680.45 56.6096C680.121 57.4885 679.599 57.928 678.882 57.928L678.712 57.9133L678.375 57.8499V57.1174L678.619 57.137C678.925 57.137 679.162 57.0751 679.332 56.9514C679.504 56.8277 679.646 56.6015 679.756 56.2727L679.957 55.7356L678.072 50.511H679.058L680.377 54.4709ZM690.327 52.6545H687.344V55.7942H686.406V48.6848H690.811V49.4563H687.344V51.8879H690.327V52.6545ZM695.146 55.2717C694.795 55.6851 694.279 55.8918 693.599 55.8918C693.035 55.8918 692.606 55.7291 692.31 55.4036C692.017 55.0748 691.868 54.5898 691.865 53.9485V50.511H692.769V53.9241C692.769 54.7249 693.094 55.1252 693.745 55.1252C694.435 55.1252 694.894 54.8681 695.122 54.3538V50.511H696.025V55.7942H695.166L695.146 55.2717ZM698.457 50.511L698.486 51.175C698.89 50.6672 699.417 50.4133 700.068 50.4133C701.185 50.4133 701.748 51.0432 701.758 52.303V55.7942H700.854V52.2981C700.851 51.9172 700.763 51.6357 700.591 51.4534C700.421 51.2711 700.156 51.1799 699.795 51.1799C699.502 51.1799 699.245 51.2581 699.023 51.4143C698.802 51.5706 698.629 51.7756 698.506 52.0295V55.7942H697.602V50.511H698.457ZM703.1 53.1086C703.1 52.2981 703.292 51.6471 703.676 51.1555C704.06 50.6607 704.563 50.4133 705.185 50.4133C705.804 50.4133 706.294 50.6249 706.655 51.0481V48.2942H707.558V55.7942H706.728L706.684 55.2278C706.323 55.6705 705.82 55.8918 705.175 55.8918C704.563 55.8918 704.064 55.6412 703.676 55.1399C703.292 54.6386 703.1 53.9843 703.1 53.177V53.1086ZM704.004 53.2112C704.004 53.8101 704.127 54.2789 704.375 54.6174C704.622 54.956 704.964 55.1252 705.4 55.1252C705.973 55.1252 706.391 54.8681 706.655 54.3538V51.927C706.385 51.429 705.97 51.1799 705.41 51.1799C704.967 51.1799 704.622 51.3508 704.375 51.6926C704.127 52.0344 704.004 52.5406 704.004 53.2112ZM640.783 67.7942V60.6848H642.79C643.409 60.6848 643.956 60.8215 644.431 61.095C644.906 61.3684 645.272 61.7574 645.529 62.262C645.79 62.7665 645.922 63.3459 645.925 64.0002V64.4543C645.925 65.1249 645.795 65.7125 645.534 66.217C645.277 66.7216 644.908 67.109 644.426 67.3792C643.947 67.6493 643.389 67.7877 642.751 67.7942H640.783ZM641.721 61.4563V67.0276H642.707C643.43 67.0276 643.991 66.803 644.392 66.3538C644.795 65.9045 644.997 65.2649 644.997 64.4348V64.0198C644.997 63.2125 644.807 62.5859 644.426 62.1399C644.048 61.6907 643.511 61.4628 642.815 61.4563H641.721ZM648.386 67.7942H647.482V62.511H648.386V67.7942ZM647.409 61.1096C647.409 60.9631 647.453 60.8394 647.541 60.7385C647.632 60.6376 647.766 60.5872 647.941 60.5872C648.117 60.5872 648.251 60.6376 648.342 60.7385C648.433 60.8394 648.479 60.9631 648.479 61.1096C648.479 61.2561 648.433 61.3782 648.342 61.4758C648.251 61.5735 648.117 61.6223 647.941 61.6223C647.766 61.6223 647.632 61.5735 647.541 61.4758C647.453 61.3782 647.409 61.2561 647.409 61.1096ZM652.59 63.3215C652.453 63.2987 652.305 63.2874 652.145 63.2874C651.553 63.2874 651.151 63.5396 650.939 64.0442V67.7942H650.036V62.511H650.915L650.929 63.1213C651.226 62.6493 651.646 62.4133 652.189 62.4133C652.365 62.4133 652.499 62.4361 652.59 62.4817V63.3215ZM655.719 67.8918C655.003 67.8918 654.421 67.6575 653.971 67.1887C653.522 66.7167 653.297 66.0868 653.297 65.2991V65.1331C653.297 64.609 653.397 64.1418 653.595 63.7317C653.797 63.3183 654.077 62.996 654.435 62.7649C654.796 62.5305 655.187 62.4133 655.607 62.4133C656.294 62.4133 656.828 62.6396 657.209 63.092C657.589 63.5445 657.78 64.1923 657.78 65.0354V65.4114H654.201C654.214 65.9322 654.365 66.3538 654.655 66.676C654.948 66.995 655.319 67.1545 655.768 67.1545C656.087 67.1545 656.357 67.0894 656.579 66.9592C656.8 66.829 656.994 66.6565 657.16 66.4417L657.712 66.8713C657.269 67.5517 656.605 67.8918 655.719 67.8918ZM655.607 63.1555C655.242 63.1555 654.936 63.289 654.689 63.5559C654.442 63.8196 654.289 64.1907 654.23 64.6692H656.877V64.6008C656.851 64.1418 656.727 63.787 656.505 63.5364C656.284 63.2825 655.985 63.1555 655.607 63.1555ZM661.149 67.1545C661.471 67.1545 661.753 67.0569 661.994 66.8616C662.234 66.6663 662.368 66.4221 662.394 66.1292H663.248C663.232 66.4319 663.128 66.72 662.936 66.9934C662.744 67.2668 662.487 67.4849 662.164 67.6477C661.845 67.8105 661.507 67.8918 661.149 67.8918C660.429 67.8918 659.857 67.6526 659.43 67.1741C659.007 66.6923 658.795 66.0347 658.795 65.2014V65.05C658.795 64.5357 658.89 64.0784 659.079 63.678C659.267 63.2776 659.537 62.9667 659.889 62.7454C660.244 62.524 660.662 62.4133 661.144 62.4133C661.736 62.4133 662.228 62.5907 662.619 62.9456C663.012 63.3004 663.222 63.761 663.248 64.3274H662.394C662.368 63.9856 662.238 63.7056 662.003 63.4875C661.772 63.2662 661.486 63.1555 661.144 63.1555C660.685 63.1555 660.329 63.3215 660.075 63.6536C659.824 63.9823 659.699 64.4592 659.699 65.0842V65.2551C659.699 65.8639 659.824 66.3326 660.075 66.6614C660.325 66.9902 660.683 67.1545 661.149 67.1545ZM665.69 61.2317V62.511H666.676V63.2092H665.69V66.4856C665.69 66.6972 665.734 66.8567 665.821 66.9641C665.909 67.0683 666.059 67.1204 666.271 67.1204C666.375 67.1204 666.518 67.1008 666.7 67.0618V67.7942C666.463 67.8593 666.232 67.8918 666.007 67.8918C665.603 67.8918 665.299 67.7698 665.094 67.5256C664.889 67.2815 664.786 66.9348 664.786 66.4856V63.2092H663.824V62.511H664.786V61.2317H665.69ZM676.007 66.8616C675.766 67.2066 675.429 67.4654 674.996 67.6379C674.566 67.8072 674.065 67.8918 673.492 67.8918C672.913 67.8918 672.398 67.7568 671.949 67.4866C671.5 67.2131 671.151 66.8258 670.904 66.3245C670.66 65.8232 670.535 65.2421 670.528 64.5813V63.9612C670.528 62.8902 670.777 62.0601 671.275 61.4709C671.776 60.8818 672.48 60.5872 673.385 60.5872C674.127 60.5872 674.724 60.7776 675.177 61.1584C675.629 61.5361 675.906 62.0732 676.007 62.7698H675.069C674.893 61.829 674.333 61.3586 673.389 61.3586C672.761 61.3586 672.284 61.58 671.959 62.0227C671.637 62.4622 671.474 63.1002 671.471 63.9368V64.5178C671.471 65.3153 671.653 65.9501 672.017 66.4221C672.382 66.8909 672.875 67.1252 673.497 67.1252C673.848 67.1252 674.156 67.0862 674.42 67.0081C674.683 66.9299 674.901 66.7981 675.074 66.6125V65.0159H673.429V64.2542H676.007V66.8616ZM680.186 63.3215C680.049 63.2987 679.901 63.2874 679.742 63.2874C679.149 63.2874 678.747 63.5396 678.536 64.0442V67.7942H677.632V62.511H678.511L678.526 63.1213C678.822 62.6493 679.242 62.4133 679.786 62.4133C679.962 62.4133 680.095 62.4361 680.186 62.4817V63.3215ZM680.884 65.1038C680.884 64.5862 680.985 64.1207 681.187 63.7073C681.392 63.2939 681.675 62.9749 682.037 62.7502C682.401 62.5256 682.816 62.4133 683.282 62.4133C684.001 62.4133 684.582 62.6624 685.025 63.1604C685.471 63.6584 685.694 64.3209 685.694 65.1477V65.2112C685.694 65.7255 685.594 66.1877 685.396 66.5979C685.201 67.0048 684.919 67.3222 684.551 67.55C684.187 67.7779 683.767 67.8918 683.291 67.8918C682.575 67.8918 681.994 67.6428 681.548 67.1448C681.106 66.6467 680.884 65.9875 680.884 65.1672V65.1038ZM681.792 65.2112C681.792 65.7971 681.927 66.2675 682.198 66.6223C682.471 66.9771 682.836 67.1545 683.291 67.1545C683.75 67.1545 684.115 66.9755 684.385 66.6174C684.655 66.2561 684.79 65.7515 684.79 65.1038C684.79 64.5243 684.652 64.0556 684.375 63.6975C684.102 63.3362 683.737 63.1555 683.282 63.1555C682.836 63.1555 682.476 63.3329 682.203 63.6877C681.929 64.0426 681.792 64.5504 681.792 65.2112ZM691.704 66.5491L692.72 62.511H693.623L692.085 67.7942H691.353L690.069 63.7903L688.819 67.7942H688.086L686.553 62.511H687.451L688.491 66.4661L689.722 62.511H690.449L691.704 66.5491ZM695.972 61.2317V62.511H696.958V63.2092H695.972V66.4856C695.972 66.6972 696.016 66.8567 696.104 66.9641C696.191 67.0683 696.341 67.1204 696.553 67.1204C696.657 67.1204 696.8 67.1008 696.982 67.0618V67.7942C696.745 67.8593 696.514 67.8918 696.289 67.8918C695.885 67.8918 695.581 67.7698 695.376 67.5256C695.171 67.2815 695.068 66.9348 695.068 66.4856V63.2092H694.106V62.511H695.068V61.2317H695.972ZM699.121 63.1506C699.521 62.6591 700.042 62.4133 700.683 62.4133C701.8 62.4133 702.363 63.0432 702.373 64.303V67.7942H701.47V64.2981C701.466 63.9172 701.378 63.6357 701.206 63.4534C701.037 63.2711 700.771 63.1799 700.41 63.1799C700.117 63.1799 699.86 63.2581 699.638 63.4143C699.417 63.5706 699.245 63.7756 699.121 64.0295V67.7942H698.218V60.2942H699.121V63.1506Z" fill="#83959D"/>
<path d="M1.76758 193.028H5.13672V193.794H0.825195V186.685H1.76758V193.028ZM6.0252 191.104C6.0252 190.586 6.12611 190.121 6.32793 189.707C6.53301 189.294 6.81621 188.975 7.17754 188.75C7.54212 188.526 7.95716 188.413 8.42266 188.413C9.14206 188.413 9.72311 188.662 10.1658 189.16C10.6118 189.658 10.8348 190.321 10.8348 191.148V191.211C10.8348 191.726 10.7355 192.188 10.5369 192.598C10.3416 193.005 10.06 193.322 9.69219 193.55C9.3276 193.778 8.90768 193.892 8.43242 193.892C7.71628 193.892 7.13522 193.643 6.68926 193.145C6.24655 192.647 6.0252 191.988 6.0252 191.167V191.104ZM6.9334 191.211C6.9334 191.797 7.06849 192.267 7.33867 192.622C7.61211 192.977 7.97669 193.155 8.43242 193.155C8.89141 193.155 9.25599 192.976 9.52617 192.617C9.79635 192.256 9.93145 191.752 9.93145 191.104C9.93145 190.524 9.7931 190.056 9.51641 189.698C9.24297 189.336 8.87839 189.156 8.42266 189.156C7.97669 189.156 7.61699 189.333 7.34355 189.688C7.07012 190.043 6.9334 190.55 6.9334 191.211ZM16.8453 192.549L17.8609 188.511H18.7643L17.2262 193.794H16.4937L15.2096 189.79L13.9596 193.794H13.2271L11.6939 188.511H12.5924L13.6324 192.466L14.8629 188.511H15.5904L16.8453 192.549ZM25.3166 190.918H23.6467V193.794H22.7043V186.685H25.0578C25.8586 186.685 26.4738 186.867 26.9035 187.232C27.3365 187.596 27.5529 188.127 27.5529 188.823C27.5529 189.266 27.4325 189.652 27.1916 189.981C26.954 190.309 26.6219 190.555 26.1955 190.718L27.8654 193.736V193.794H26.8596L25.3166 190.918ZM23.6467 190.152H25.0871C25.5526 190.152 25.9221 190.031 26.1955 189.79C26.4722 189.549 26.6105 189.227 26.6105 188.823C26.6105 188.384 26.4787 188.047 26.215 187.813C25.9546 187.578 25.577 187.46 25.0822 187.456H23.6467V190.152ZM29.9111 193.794H29.0078V188.511H29.9111V193.794ZM28.9346 187.11C28.9346 186.963 28.9785 186.839 29.0664 186.739C29.1576 186.638 29.291 186.587 29.4668 186.587C29.6426 186.587 29.776 186.638 29.8672 186.739C29.9583 186.839 30.0039 186.963 30.0039 187.11C30.0039 187.256 29.9583 187.378 29.8672 187.476C29.776 187.573 29.6426 187.622 29.4668 187.622C29.291 187.622 29.1576 187.573 29.0664 187.476C28.9785 187.378 28.9346 187.256 28.9346 187.11ZM34.6375 192.393C34.6375 192.149 34.5447 191.96 34.3592 191.826C34.1769 191.69 33.8563 191.573 33.3973 191.475C32.9415 191.377 32.5786 191.26 32.3084 191.123C32.0415 190.987 31.8429 190.824 31.7127 190.635C31.5857 190.446 31.5223 190.222 31.5223 189.961C31.5223 189.528 31.7046 189.162 32.0691 188.863C32.437 188.563 32.9057 188.413 33.4754 188.413C34.0743 188.413 34.5594 188.568 34.9305 188.877C35.3048 189.186 35.492 189.582 35.492 190.064H34.5838C34.5838 189.816 34.478 189.603 34.2664 189.424C34.0581 189.245 33.7944 189.156 33.4754 189.156C33.1466 189.156 32.8895 189.227 32.7039 189.37C32.5184 189.514 32.4256 189.701 32.4256 189.932C32.4256 190.15 32.5118 190.314 32.6844 190.425C32.8569 190.536 33.1678 190.642 33.617 190.742C34.0695 190.843 34.4357 190.964 34.7156 191.104C34.9956 191.244 35.2023 191.413 35.3357 191.612C35.4725 191.807 35.5408 192.046 35.5408 192.329C35.5408 192.801 35.352 193.181 34.9744 193.467C34.5968 193.75 34.1069 193.892 33.5047 193.892C33.0815 193.892 32.7072 193.817 32.3816 193.667C32.0561 193.517 31.8006 193.309 31.615 193.042C31.4327 192.772 31.3416 192.481 31.3416 192.168H32.2449C32.2612 192.471 32.3816 192.712 32.6063 192.891C32.8341 193.067 33.1336 193.155 33.5047 193.155C33.8465 193.155 34.1199 193.086 34.325 192.949C34.5333 192.809 34.6375 192.624 34.6375 192.393ZM38.3922 191.348L37.8258 191.939V193.794H36.9225V186.294H37.8258V190.83L38.3092 190.249L39.9547 188.511H41.0533L38.9977 190.718L41.2926 193.794H40.233L38.3922 191.348ZM1.76758 206.028H5.13672V206.794H0.825195V199.685H1.76758V206.028ZM6.0252 204.104C6.0252 203.586 6.12611 203.121 6.32793 202.707C6.53301 202.294 6.81621 201.975 7.17754 201.75C7.54212 201.526 7.95716 201.413 8.42266 201.413C9.14206 201.413 9.72311 201.662 10.1658 202.16C10.6118 202.658 10.8348 203.321 10.8348 204.148V204.211C10.8348 204.726 10.7355 205.188 10.5369 205.598C10.3416 206.005 10.06 206.322 9.69219 206.55C9.3276 206.778 8.90768 206.892 8.43242 206.892C7.71628 206.892 7.13522 206.643 6.68926 206.145C6.24655 205.647 6.0252 204.988 6.0252 204.167V204.104ZM6.9334 204.211C6.9334 204.797 7.06849 205.267 7.33867 205.622C7.61211 205.977 7.97669 206.155 8.43242 206.155C8.89141 206.155 9.25599 205.976 9.52617 205.617C9.79635 205.256 9.93145 204.752 9.93145 204.104C9.93145 203.524 9.7931 203.056 9.51641 202.698C9.24297 202.336 8.87839 202.156 8.42266 202.156C7.97669 202.156 7.61699 202.333 7.34355 202.688C7.07012 203.043 6.9334 203.55 6.9334 204.211ZM16.8453 205.549L17.8609 201.511H18.7643L17.2262 206.794H16.4937L15.2096 202.79L13.9596 206.794H13.2271L11.6939 201.511H12.5924L13.6324 205.466L14.8629 201.511H15.5904L16.8453 205.549ZM25.3166 203.918H23.6467V206.794H22.7043V199.685H25.0578C25.8586 199.685 26.4738 199.867 26.9035 200.232C27.3365 200.596 27.5529 201.127 27.5529 201.823C27.5529 202.266 27.4325 202.652 27.1916 202.981C26.954 203.309 26.6219 203.555 26.1955 203.718L27.8654 206.736V206.794H26.8596L25.3166 203.918ZM23.6467 203.152H25.0871C25.5526 203.152 25.9221 203.031 26.1955 202.79C26.4722 202.549 26.6105 202.227 26.6105 201.823C26.6105 201.384 26.4787 201.047 26.215 200.813C25.9546 200.578 25.577 200.46 25.0822 200.456H23.6467V203.152ZM31.1221 206.892C30.4059 206.892 29.8232 206.657 29.374 206.189C28.9248 205.717 28.7002 205.087 28.7002 204.299V204.133C28.7002 203.609 28.7995 203.142 28.998 202.732C29.1999 202.318 29.4798 201.996 29.8379 201.765C30.1992 201.531 30.5898 201.413 31.0098 201.413C31.6966 201.413 32.2305 201.64 32.6113 202.092C32.9922 202.545 33.1826 203.192 33.1826 204.035V204.411H29.6035C29.6165 204.932 29.7679 205.354 30.0576 205.676C30.3506 205.995 30.7217 206.155 31.1709 206.155C31.4899 206.155 31.7601 206.089 31.9814 205.959C32.2028 205.829 32.3965 205.656 32.5625 205.442L33.1143 205.871C32.6715 206.552 32.0075 206.892 31.1221 206.892ZM31.0098 202.156C30.6452 202.156 30.3392 202.289 30.0918 202.556C29.8444 202.82 29.6914 203.191 29.6328 203.669H32.2793V203.601C32.2533 203.142 32.1296 202.787 31.9082 202.536C31.6868 202.282 31.3874 202.156 31.0098 202.156ZM35.658 200.232V201.511H36.6443V202.209H35.658V205.486C35.658 205.697 35.702 205.857 35.7898 205.964C35.8777 206.068 36.0275 206.12 36.2391 206.12C36.3432 206.12 36.4865 206.101 36.6688 206.062V206.794C36.4311 206.859 36.2 206.892 35.9754 206.892C35.5717 206.892 35.2674 206.77 35.0623 206.526C34.8572 206.281 34.7547 205.935 34.7547 205.486V202.209H33.7928V201.511H34.7547V200.232H35.658ZM41.1656 206.272C40.8141 206.685 40.2981 206.892 39.6178 206.892C39.0546 206.892 38.6249 206.729 38.3287 206.404C38.0357 206.075 37.8876 205.59 37.8844 204.948V201.511H38.7877V204.924C38.7877 205.725 39.1132 206.125 39.7643 206.125C40.4544 206.125 40.9133 205.868 41.1412 205.354V201.511H42.0445V206.794H41.1852L41.1656 206.272ZM46.1752 202.322C46.0385 202.299 45.8904 202.287 45.7309 202.287C45.1384 202.287 44.7364 202.54 44.5248 203.044V206.794H43.6215V201.511H44.5004L44.515 202.121C44.8113 201.649 45.2312 201.413 45.7748 201.413C45.9506 201.413 46.084 201.436 46.1752 201.482V202.322ZM48.0646 201.511L48.0939 202.175C48.4976 201.667 49.0249 201.413 49.676 201.413C50.7925 201.413 51.3557 202.043 51.3654 203.303V206.794H50.4621V203.298C50.4589 202.917 50.371 202.636 50.1984 202.453C50.0292 202.271 49.7639 202.18 49.4025 202.18C49.1096 202.18 48.8524 202.258 48.6311 202.414C48.4097 202.571 48.2372 202.776 48.1135 203.03V206.794H47.2102V201.511H48.0646Z" fill="black"/>
<path d="M1.76758 9.02759H5.13672V9.79419H0.825195V2.68481H1.76758V9.02759ZM6.0252 7.10376C6.0252 6.58618 6.12611 6.12069 6.32793 5.70728C6.53301 5.29386 6.81621 4.97485 7.17754 4.75024C7.54212 4.52563 7.95716 4.41333 8.42266 4.41333C9.14206 4.41333 9.72311 4.66235 10.1658 5.1604C10.6118 5.65845 10.8348 6.32088 10.8348 7.14771V7.21118C10.8348 7.7255 10.7355 8.18774 10.5369 8.5979C10.3416 9.0048 10.06 9.32218 9.69219 9.55005C9.3276 9.77791 8.90768 9.89185 8.43242 9.89185C7.71628 9.89185 7.13522 9.64282 6.68926 9.14478C6.24655 8.64673 6.0252 7.98755 6.0252 7.16724V7.10376ZM6.9334 7.21118C6.9334 7.79712 7.06849 8.2675 7.33867 8.62231C7.61211 8.97713 7.97669 9.15454 8.43242 9.15454C8.89141 9.15454 9.25599 8.9755 9.52617 8.61743C9.79635 8.2561 9.93145 7.75155 9.93145 7.10376C9.93145 6.52433 9.7931 6.05558 9.51641 5.69751C9.24297 5.33618 8.87839 5.15552 8.42266 5.15552C7.97669 5.15552 7.61699 5.33293 7.34355 5.68774C7.07012 6.04256 6.9334 6.55037 6.9334 7.21118ZM16.8453 8.54907L17.8609 4.51099H18.7643L17.2262 9.79419H16.4937L15.2096 5.79028L13.9596 9.79419H13.2271L11.6939 4.51099H12.5924L13.6324 8.46606L14.8629 4.51099H15.5904L16.8453 8.54907ZM25.3166 6.91821H23.6467V9.79419H22.7043V2.68481H25.0578C25.8586 2.68481 26.4738 2.86711 26.9035 3.23169C27.3365 3.59627 27.5529 4.12687 27.5529 4.82349C27.5529 5.26619 27.4325 5.65194 27.1916 5.98071C26.954 6.30949 26.6219 6.55526 26.1955 6.71802L27.8654 9.7356V9.79419H26.8596L25.3166 6.91821ZM23.6467 6.15161H25.0871C25.5526 6.15161 25.9221 6.03117 26.1955 5.79028C26.4722 5.5494 26.6105 5.22713 26.6105 4.82349C26.6105 4.38403 26.4787 4.04712 26.215 3.81274C25.9546 3.57837 25.577 3.45955 25.0822 3.4563H23.6467V6.15161ZM29.9111 9.79419H29.0078V4.51099H29.9111V9.79419ZM28.9346 3.10962C28.9346 2.96313 28.9785 2.83944 29.0664 2.73853C29.1576 2.63761 29.291 2.58716 29.4668 2.58716C29.6426 2.58716 29.776 2.63761 29.8672 2.73853C29.9583 2.83944 30.0039 2.96313 30.0039 3.10962C30.0039 3.2561 29.9583 3.37817 29.8672 3.47583C29.776 3.57349 29.6426 3.62231 29.4668 3.62231C29.291 3.62231 29.1576 3.57349 29.0664 3.47583C28.9785 3.37817 28.9346 3.2561 28.9346 3.10962ZM34.6375 8.39282C34.6375 8.14868 34.5447 7.95988 34.3592 7.82642C34.1769 7.6897 33.8563 7.57251 33.3973 7.47485C32.9415 7.3772 32.5786 7.26001 32.3084 7.12329C32.0415 6.98657 31.8429 6.82381 31.7127 6.63501C31.5857 6.44621 31.5223 6.2216 31.5223 5.96118C31.5223 5.52824 31.7046 5.16203 32.0691 4.86255C32.437 4.56307 32.9057 4.41333 33.4754 4.41333C34.0743 4.41333 34.5594 4.56795 34.9305 4.8772C35.3048 5.18644 35.492 5.58195 35.492 6.06372H34.5838C34.5838 5.81632 34.478 5.60311 34.2664 5.42407C34.0581 5.24504 33.7944 5.15552 33.4754 5.15552C33.1466 5.15552 32.8895 5.22713 32.7039 5.37036C32.5184 5.51359 32.4256 5.70076 32.4256 5.93188C32.4256 6.14998 32.5118 6.31437 32.6844 6.42505C32.8569 6.53573 33.1678 6.64152 33.617 6.74243C34.0695 6.84334 34.4357 6.96379 34.7156 7.10376C34.9956 7.24373 35.2023 7.413 35.3357 7.61157C35.4725 7.80688 35.5408 8.04614 35.5408 8.32935C35.5408 8.80135 35.352 9.18058 34.9744 9.46704C34.5968 9.75024 34.1069 9.89185 33.5047 9.89185C33.0815 9.89185 32.7072 9.81698 32.3816 9.66724C32.0561 9.5175 31.8006 9.30916 31.615 9.04224C31.4327 8.77205 31.3416 8.48071 31.3416 8.16821H32.2449C32.2612 8.47095 32.3816 8.71183 32.6063 8.89087C32.8341 9.06665 33.1336 9.15454 33.5047 9.15454C33.8465 9.15454 34.1199 9.08618 34.325 8.94946C34.5333 8.80949 34.6375 8.62394 34.6375 8.39282ZM38.3922 7.3479L37.8258 7.93872V9.79419H36.9225V2.29419H37.8258V6.83032L38.3092 6.24927L39.9547 4.51099H41.0533L38.9977 6.71802L41.2926 9.79419H40.233L38.3922 7.3479ZM6.28906 22.7942H5.34668V19.5081H1.7627V22.7942H0.825195V15.6848H1.7627V18.7415H5.34668V15.6848H6.28906V22.7942ZM8.99395 22.7942H8.09062V17.511H8.99395V22.7942ZM8.01738 16.1096C8.01738 15.9631 8.06133 15.8394 8.14922 15.7385C8.24036 15.6376 8.37383 15.5872 8.54961 15.5872C8.72539 15.5872 8.85885 15.6376 8.95 15.7385C9.04115 15.8394 9.08672 15.9631 9.08672 16.1096C9.08672 16.2561 9.04115 16.3782 8.95 16.4758C8.85885 16.5735 8.72539 16.6223 8.54961 16.6223C8.37383 16.6223 8.24036 16.5735 8.14922 16.4758C8.06133 16.3782 8.01738 16.2561 8.01738 16.1096ZM10.4293 20.1086C10.4293 19.2851 10.6197 18.6308 11.0006 18.1458C11.3814 17.6575 11.886 17.4133 12.5143 17.4133C13.1588 17.4133 13.6617 17.6412 14.023 18.0969L14.067 17.511H14.8922V22.6672C14.8922 23.3508 14.6887 23.8896 14.2818 24.2834C13.8782 24.6773 13.3346 24.8743 12.651 24.8743C12.2701 24.8743 11.8974 24.7929 11.5328 24.6301C11.1682 24.4674 10.8899 24.2444 10.6979 23.9612L11.1666 23.4192C11.554 23.8977 12.0276 24.137 12.5875 24.137C13.027 24.137 13.3687 24.0133 13.6129 23.7659C13.8603 23.5185 13.984 23.1702 13.984 22.7209V22.2668C13.6227 22.6835 13.1295 22.8918 12.5045 22.8918C11.886 22.8918 11.3847 22.6428 11.0006 22.1448C10.6197 21.6467 10.4293 20.968 10.4293 20.1086ZM11.3375 20.2112C11.3375 20.8069 11.4596 21.2756 11.7037 21.6174C11.9479 21.956 12.2896 22.1252 12.7291 22.1252C13.2988 22.1252 13.7171 21.8665 13.984 21.3489V18.9368C13.7073 18.4322 13.2923 18.1799 12.7389 18.1799C12.2994 18.1799 11.956 18.3508 11.7086 18.6926C11.4612 19.0344 11.3375 19.5406 11.3375 20.2112ZM17.3627 18.1506C17.7631 17.6591 18.2839 17.4133 18.9252 17.4133C20.0417 17.4133 20.6049 18.0432 20.6146 19.303V22.7942H19.7113V19.2981C19.7081 18.9172 19.6202 18.6357 19.4477 18.4534C19.2784 18.2711 19.0131 18.1799 18.6518 18.1799C18.3588 18.1799 18.1016 18.2581 17.8803 18.4143C17.6589 18.5706 17.4864 18.7756 17.3627 19.0295V22.7942H16.4594V15.2942H17.3627V18.1506ZM27.5967 19.9182H25.9268V22.7942H24.9844V15.6848H27.3379C28.1387 15.6848 28.7539 15.8671 29.1836 16.2317C29.6165 16.5963 29.833 17.1269 29.833 17.8235C29.833 18.2662 29.7126 18.6519 29.4717 18.9807C29.234 19.3095 28.902 19.5553 28.4756 19.718L30.1455 22.7356V22.7942H29.1396L27.5967 19.9182ZM25.9268 19.1516H27.3672C27.8327 19.1516 28.2021 19.0312 28.4756 18.7903C28.7523 18.5494 28.8906 18.2271 28.8906 17.8235C28.8906 17.384 28.7588 17.0471 28.4951 16.8127C28.2347 16.5784 27.8571 16.4596 27.3623 16.4563H25.9268V19.1516ZM33.4021 22.8918C32.686 22.8918 32.1033 22.6575 31.6541 22.1887C31.2049 21.7167 30.9803 21.0868 30.9803 20.2991V20.1331C30.9803 19.609 31.0796 19.1418 31.2781 18.7317C31.4799 18.3183 31.7599 17.996 32.118 17.7649C32.4793 17.5305 32.8699 17.4133 33.2898 17.4133C33.9767 17.4133 34.5105 17.6396 34.8914 18.092C35.2723 18.5445 35.4627 19.1923 35.4627 20.0354V20.4114H31.8836C31.8966 20.9322 32.048 21.3538 32.3377 21.676C32.6307 21.995 33.0018 22.1545 33.451 22.1545C33.77 22.1545 34.0402 22.0894 34.2615 21.9592C34.4829 21.829 34.6766 21.6565 34.8426 21.4417L35.3943 21.8713C34.9516 22.5517 34.2876 22.8918 33.4021 22.8918ZM33.2898 18.1555C32.9253 18.1555 32.6193 18.289 32.3719 18.5559C32.1245 18.8196 31.9715 19.1907 31.9129 19.6692H34.5594V19.6008C34.5333 19.1418 34.4096 18.787 34.1883 18.5364C33.9669 18.2825 33.6674 18.1555 33.2898 18.1555ZM37.9381 16.2317V17.511H38.9244V18.2092H37.9381V21.4856C37.9381 21.6972 37.982 21.8567 38.0699 21.9641C38.1578 22.0683 38.3076 22.1204 38.5191 22.1204C38.6233 22.1204 38.7665 22.1008 38.9488 22.0618V22.7942C38.7112 22.8593 38.4801 22.8918 38.2555 22.8918C37.8518 22.8918 37.5475 22.7698 37.3424 22.5256C37.1373 22.2815 37.0348 21.9348 37.0348 21.4856V18.2092H36.0729V17.511H37.0348V16.2317H37.9381ZM43.4457 22.2717C43.0941 22.6851 42.5782 22.8918 41.8979 22.8918C41.3347 22.8918 40.905 22.7291 40.6088 22.4036C40.3158 22.0748 40.1677 21.5898 40.1645 20.9485V17.511H41.0678V20.9241C41.0678 21.7249 41.3933 22.1252 42.0443 22.1252C42.7344 22.1252 43.1934 21.8681 43.4213 21.3538V17.511H44.3246V22.7942H43.4652L43.4457 22.2717ZM48.4553 18.3215C48.3186 18.2987 48.1704 18.2874 48.0109 18.2874C47.4185 18.2874 47.0165 18.5396 46.8049 19.0442V22.7942H45.9016V17.511H46.7805L46.7951 18.1213C47.0913 17.6493 47.5113 17.4133 48.0549 17.4133C48.2307 17.4133 48.3641 17.4361 48.4553 17.4817V18.3215ZM50.3447 17.511L50.374 18.175C50.7777 17.6672 51.305 17.4133 51.9561 17.4133C53.0726 17.4133 53.6357 18.0432 53.6455 19.303V22.7942H52.7422V19.2981C52.7389 18.9172 52.651 18.6357 52.4785 18.4534C52.3092 18.2711 52.0439 18.1799 51.6826 18.1799C51.3896 18.1799 51.1325 18.2581 50.9111 18.4143C50.6898 18.5706 50.5173 18.7756 50.3936 19.0295V22.7942H49.4902V17.511H50.3447Z" fill="black"/>
<path d="M853.707 193.794H852.764V190.508H849.18V193.794H848.243V186.685H849.18V189.741H852.764V186.685H853.707V193.794ZM856.412 193.794H855.508V188.511H856.412V193.794ZM855.435 187.11C855.435 186.963 855.479 186.839 855.567 186.739C855.658 186.638 855.791 186.587 855.967 186.587C856.143 186.587 856.276 186.638 856.368 186.739C856.459 186.839 856.504 186.963 856.504 187.11C856.504 187.256 856.459 187.378 856.368 187.476C856.276 187.573 856.143 187.622 855.967 187.622C855.791 187.622 855.658 187.573 855.567 187.476C855.479 187.378 855.435 187.256 855.435 187.11ZM857.847 191.109C857.847 190.285 858.037 189.631 858.418 189.146C858.799 188.657 859.304 188.413 859.932 188.413C860.576 188.413 861.079 188.641 861.441 189.097L861.485 188.511H862.31V193.667C862.31 194.351 862.106 194.89 861.699 195.283C861.296 195.677 860.752 195.874 860.069 195.874C859.688 195.874 859.315 195.793 858.95 195.63C858.586 195.467 858.307 195.244 858.115 194.961L858.584 194.419C858.972 194.898 859.445 195.137 860.005 195.137C860.445 195.137 860.786 195.013 861.03 194.766C861.278 194.518 861.402 194.17 861.402 193.721V193.267C861.04 193.684 860.547 193.892 859.922 193.892C859.304 193.892 858.802 193.643 858.418 193.145C858.037 192.647 857.847 191.968 857.847 191.109ZM858.755 191.211C858.755 191.807 858.877 192.276 859.121 192.617C859.365 192.956 859.707 193.125 860.147 193.125C860.716 193.125 861.135 192.866 861.402 192.349V189.937C861.125 189.432 860.71 189.18 860.156 189.18C859.717 189.18 859.374 189.351 859.126 189.693C858.879 190.034 858.755 190.541 858.755 191.211ZM864.78 189.151C865.181 188.659 865.701 188.413 866.343 188.413C867.459 188.413 868.022 189.043 868.032 190.303V193.794H867.129V190.298C867.126 189.917 867.038 189.636 866.865 189.453C866.696 189.271 866.431 189.18 866.069 189.18C865.776 189.18 865.519 189.258 865.298 189.414C865.076 189.571 864.904 189.776 864.78 190.03V193.794H863.877V186.294H864.78V189.151ZM875.014 190.918H873.344V193.794H872.402V186.685H874.755C875.556 186.685 876.171 186.867 876.601 187.232C877.034 187.596 877.251 188.127 877.251 188.823C877.251 189.266 877.13 189.652 876.889 189.981C876.652 190.309 876.32 190.555 875.893 190.718L877.563 193.736V193.794H876.557L875.014 190.918ZM873.344 190.152H874.785C875.25 190.152 875.62 190.031 875.893 189.79C876.17 189.549 876.308 189.227 876.308 188.823C876.308 188.384 876.176 188.047 875.913 187.813C875.652 187.578 875.275 187.46 874.78 187.456H873.344V190.152ZM879.609 193.794H878.705V188.511H879.609V193.794ZM878.632 187.11C878.632 186.963 878.676 186.839 878.764 186.739C878.855 186.638 878.989 186.587 879.164 186.587C879.34 186.587 879.474 186.638 879.565 186.739C879.656 186.839 879.702 186.963 879.702 187.11C879.702 187.256 879.656 187.378 879.565 187.476C879.474 187.573 879.34 187.622 879.164 187.622C878.989 187.622 878.855 187.573 878.764 187.476C878.676 187.378 878.632 187.256 878.632 187.11ZM884.335 192.393C884.335 192.149 884.242 191.96 884.057 191.826C883.875 191.69 883.554 191.573 883.095 191.475C882.639 191.377 882.276 191.26 882.006 191.123C881.739 190.987 881.541 190.824 881.41 190.635C881.283 190.446 881.22 190.222 881.22 189.961C881.22 189.528 881.402 189.162 881.767 188.863C882.135 188.563 882.603 188.413 883.173 188.413C883.772 188.413 884.257 188.568 884.628 188.877C885.002 189.186 885.19 189.582 885.19 190.064H884.281C884.281 189.816 884.176 189.603 883.964 189.424C883.756 189.245 883.492 189.156 883.173 189.156C882.844 189.156 882.587 189.227 882.402 189.37C882.216 189.514 882.123 189.701 882.123 189.932C882.123 190.15 882.21 190.314 882.382 190.425C882.555 190.536 882.865 190.642 883.315 190.742C883.767 190.843 884.133 190.964 884.413 191.104C884.693 191.244 884.9 191.413 885.033 191.612C885.17 191.807 885.238 192.046 885.238 192.329C885.238 192.801 885.05 193.181 884.672 193.467C884.294 193.75 883.805 193.892 883.202 193.892C882.779 193.892 882.405 193.817 882.079 193.667C881.754 193.517 881.498 193.309 881.313 193.042C881.13 192.772 881.039 192.481 881.039 192.168H881.943C881.959 192.471 882.079 192.712 882.304 192.891C882.532 193.067 882.831 193.155 883.202 193.155C883.544 193.155 883.818 193.086 884.023 192.949C884.231 192.809 884.335 192.624 884.335 192.393ZM888.09 191.348L887.523 191.939V193.794H886.62V186.294H887.523V190.83L888.007 190.249L889.652 188.511H890.751L888.695 190.718L890.99 193.794H889.931L888.09 191.348ZM840.723 206.028H844.093V206.794H839.781V199.685H840.723V206.028ZM844.981 204.104C844.981 203.586 845.082 203.121 845.284 202.707C845.489 202.294 845.772 201.975 846.133 201.75C846.498 201.526 846.913 201.413 847.379 201.413C848.098 201.413 848.679 201.662 849.122 202.16C849.568 202.658 849.791 203.321 849.791 204.148V204.211C849.791 204.726 849.691 205.188 849.493 205.598C849.297 206.005 849.016 206.322 848.648 206.55C848.283 206.778 847.864 206.892 847.388 206.892C846.672 206.892 846.091 206.643 845.645 206.145C845.202 205.647 844.981 204.988 844.981 204.167V204.104ZM845.889 204.211C845.889 204.797 846.024 205.267 846.295 205.622C846.568 205.977 846.933 206.155 847.388 206.155C847.847 206.155 848.212 205.976 848.482 205.617C848.752 205.256 848.887 204.752 848.887 204.104C848.887 203.524 848.749 203.056 848.472 202.698C848.199 202.336 847.834 202.156 847.379 202.156C846.933 202.156 846.573 202.333 846.299 202.688C846.026 203.043 845.889 203.55 845.889 204.211ZM855.801 205.549L856.817 201.511H857.72L856.182 206.794H855.45L854.165 202.79L852.915 206.794H852.183L850.65 201.511H851.548L852.588 205.466L853.819 201.511H854.546L855.801 205.549ZM864.272 203.918H862.603V206.794H861.66V199.685H864.014C864.814 199.685 865.43 199.867 865.859 200.232C866.292 200.596 866.509 201.127 866.509 201.823C866.509 202.266 866.388 202.652 866.147 202.981C865.91 203.309 865.578 203.555 865.151 203.718L866.821 206.736V206.794H865.815L864.272 203.918ZM862.603 203.152H864.043C864.508 203.152 864.878 203.031 865.151 202.79C865.428 202.549 865.566 202.227 865.566 201.823C865.566 201.384 865.435 201.047 865.171 200.813C864.91 200.578 864.533 200.46 864.038 200.456H862.603V203.152ZM870.078 206.892C869.362 206.892 868.779 206.657 868.33 206.189C867.881 205.717 867.656 205.087 867.656 204.299V204.133C867.656 203.609 867.755 203.142 867.954 202.732C868.156 202.318 868.436 201.996 868.794 201.765C869.155 201.531 869.546 201.413 869.966 201.413C870.652 201.413 871.186 201.64 871.567 202.092C871.948 202.545 872.138 203.192 872.138 204.035V204.411H868.559C868.572 204.932 868.724 205.354 869.013 205.676C869.306 205.995 869.678 206.155 870.127 206.155C870.446 206.155 870.716 206.089 870.937 205.959C871.159 205.829 871.352 205.656 871.518 205.442L872.07 205.871C871.627 206.552 870.963 206.892 870.078 206.892ZM869.966 202.156C869.601 202.156 869.295 202.289 869.048 202.556C868.8 202.82 868.647 203.191 868.589 203.669H871.235V203.601C871.209 203.142 871.085 202.787 870.864 202.536C870.643 202.282 870.343 202.156 869.966 202.156ZM874.614 200.232V201.511H875.6V202.209H874.614V205.486C874.614 205.697 874.658 205.857 874.746 205.964C874.834 206.068 874.983 206.12 875.195 206.12C875.299 206.12 875.442 206.101 875.625 206.062V206.794C875.387 206.859 875.156 206.892 874.931 206.892C874.528 206.892 874.223 206.77 874.018 206.526C873.813 206.281 873.711 205.935 873.711 205.486V202.209H872.749V201.511H873.711V200.232H874.614ZM880.121 206.272C879.77 206.685 879.254 206.892 878.574 206.892C878.01 206.892 877.581 206.729 877.285 206.404C876.992 206.075 876.843 205.59 876.84 204.948V201.511H877.744V204.924C877.744 205.725 878.069 206.125 878.72 206.125C879.41 206.125 879.869 205.868 880.097 205.354V201.511H881V206.794H880.141L880.121 206.272ZM885.131 202.322C884.994 202.299 884.846 202.287 884.687 202.287C884.094 202.287 883.692 202.54 883.481 203.044V206.794H882.577V201.511H883.456L883.471 202.121C883.767 201.649 884.187 201.413 884.731 201.413C884.906 201.413 885.04 201.436 885.131 201.482V202.322ZM887.021 201.511L887.05 202.175C887.453 201.667 887.981 201.413 888.632 201.413C889.748 201.413 890.312 202.043 890.321 203.303V206.794H889.418V203.298C889.415 202.917 889.327 202.636 889.154 202.453C888.985 202.271 888.72 202.18 888.358 202.18C888.065 202.18 887.808 202.258 887.587 202.414C887.366 202.571 887.193 202.776 887.069 203.03V206.794H886.166V201.511H887.021Z" fill="black"/>
<path d="M855.707 9.79419H854.764V6.50806H851.18V9.79419H850.243V2.68481H851.18V5.74146H854.764V2.68481H855.707V9.79419ZM858.412 9.79419H857.508V4.51099H858.412V9.79419ZM857.435 3.10962C857.435 2.96313 857.479 2.83944 857.567 2.73853C857.658 2.63761 857.791 2.58716 857.967 2.58716C858.143 2.58716 858.276 2.63761 858.368 2.73853C858.459 2.83944 858.504 2.96313 858.504 3.10962C858.504 3.2561 858.459 3.37817 858.368 3.47583C858.276 3.57349 858.143 3.62231 857.967 3.62231C857.791 3.62231 857.658 3.57349 857.567 3.47583C857.479 3.37817 857.435 3.2561 857.435 3.10962ZM859.847 7.10864C859.847 6.28507 860.037 5.63078 860.418 5.14575C860.799 4.65747 861.304 4.41333 861.932 4.41333C862.576 4.41333 863.079 4.64119 863.441 5.09692L863.485 4.51099H864.31V9.66724C864.31 10.3508 864.106 10.8896 863.699 11.2834C863.296 11.6773 862.752 11.8743 862.069 11.8743C861.688 11.8743 861.315 11.7929 860.95 11.6301C860.586 11.4674 860.307 11.2444 860.115 10.9612L860.584 10.4192C860.972 10.8977 861.445 11.137 862.005 11.137C862.445 11.137 862.786 11.0133 863.03 10.7659C863.278 10.5185 863.402 10.1702 863.402 9.72095V9.26685C863.04 9.68351 862.547 9.89185 861.922 9.89185C861.304 9.89185 860.802 9.64282 860.418 9.14478C860.037 8.64673 859.847 7.96802 859.847 7.10864ZM860.755 7.21118C860.755 7.80688 860.877 8.27563 861.121 8.61743C861.365 8.95597 861.707 9.12524 862.147 9.12524C862.716 9.12524 863.135 8.86646 863.402 8.34888V5.93677C863.125 5.43221 862.71 5.17993 862.156 5.17993C861.717 5.17993 861.374 5.35083 861.126 5.69263C860.879 6.03442 860.755 6.54061 860.755 7.21118ZM866.78 5.15063C867.181 4.6591 867.701 4.41333 868.343 4.41333C869.459 4.41333 870.022 5.04321 870.032 6.30298V9.79419H869.129V6.2981C869.126 5.91724 869.038 5.63566 868.865 5.45337C868.696 5.27108 868.431 5.17993 868.069 5.17993C867.776 5.17993 867.519 5.25806 867.298 5.41431C867.076 5.57056 866.904 5.77563 866.78 6.02954V9.79419H865.877V2.29419H866.78V5.15063ZM877.014 6.91821H875.344V9.79419H874.402V2.68481H876.755C877.556 2.68481 878.171 2.86711 878.601 3.23169C879.034 3.59627 879.251 4.12687 879.251 4.82349C879.251 5.26619 879.13 5.65194 878.889 5.98071C878.652 6.30949 878.32 6.55526 877.893 6.71802L879.563 9.7356V9.79419H878.557L877.014 6.91821ZM875.344 6.15161H876.785C877.25 6.15161 877.62 6.03117 877.893 5.79028C878.17 5.5494 878.308 5.22713 878.308 4.82349C878.308 4.38403 878.176 4.04712 877.913 3.81274C877.652 3.57837 877.275 3.45955 876.78 3.4563H875.344V6.15161ZM881.609 9.79419H880.705V4.51099H881.609V9.79419ZM880.632 3.10962C880.632 2.96313 880.676 2.83944 880.764 2.73853C880.855 2.63761 880.989 2.58716 881.164 2.58716C881.34 2.58716 881.474 2.63761 881.565 2.73853C881.656 2.83944 881.702 2.96313 881.702 3.10962C881.702 3.2561 881.656 3.37817 881.565 3.47583C881.474 3.57349 881.34 3.62231 881.164 3.62231C880.989 3.62231 880.855 3.57349 880.764 3.47583C880.676 3.37817 880.632 3.2561 880.632 3.10962ZM886.335 8.39282C886.335 8.14868 886.242 7.95988 886.057 7.82642C885.875 7.6897 885.554 7.57251 885.095 7.47485C884.639 7.3772 884.276 7.26001 884.006 7.12329C883.739 6.98657 883.541 6.82381 883.41 6.63501C883.283 6.44621 883.22 6.2216 883.22 5.96118C883.22 5.52824 883.402 5.16203 883.767 4.86255C884.135 4.56307 884.603 4.41333 885.173 4.41333C885.772 4.41333 886.257 4.56795 886.628 4.8772C887.002 5.18644 887.19 5.58195 887.19 6.06372H886.281C886.281 5.81632 886.176 5.60311 885.964 5.42407C885.756 5.24504 885.492 5.15552 885.173 5.15552C884.844 5.15552 884.587 5.22713 884.402 5.37036C884.216 5.51359 884.123 5.70076 884.123 5.93188C884.123 6.14998 884.21 6.31437 884.382 6.42505C884.555 6.53573 884.865 6.64152 885.315 6.74243C885.767 6.84334 886.133 6.96379 886.413 7.10376C886.693 7.24373 886.9 7.413 887.033 7.61157C887.17 7.80688 887.238 8.04614 887.238 8.32935C887.238 8.80135 887.05 9.18058 886.672 9.46704C886.294 9.75024 885.805 9.89185 885.202 9.89185C884.779 9.89185 884.405 9.81698 884.079 9.66724C883.754 9.5175 883.498 9.30916 883.313 9.04224C883.13 8.77205 883.039 8.48071 883.039 8.16821H883.943C883.959 8.47095 884.079 8.71183 884.304 8.89087C884.532 9.06665 884.831 9.15454 885.202 9.15454C885.544 9.15454 885.818 9.08618 886.023 8.94946C886.231 8.80949 886.335 8.62394 886.335 8.39282ZM890.09 7.3479L889.523 7.93872V9.79419H888.62V2.29419H889.523V6.83032L890.007 6.24927L891.652 4.51099H892.751L890.695 6.71802L892.99 9.79419H891.931L890.09 7.3479ZM844.965 22.7942H844.022V19.5081H840.438V22.7942H839.501V15.6848H840.438V18.7415H844.022V15.6848H844.965V22.7942ZM847.67 22.7942H846.766V17.511H847.67V22.7942ZM846.693 16.1096C846.693 15.9631 846.737 15.8394 846.825 15.7385C846.916 15.6376 847.05 15.5872 847.225 15.5872C847.401 15.5872 847.535 15.6376 847.626 15.7385C847.717 15.8394 847.762 15.9631 847.762 16.1096C847.762 16.2561 847.717 16.3782 847.626 16.4758C847.535 16.5735 847.401 16.6223 847.225 16.6223C847.05 16.6223 846.916 16.5735 846.825 16.4758C846.737 16.3782 846.693 16.2561 846.693 16.1096ZM849.105 20.1086C849.105 19.2851 849.296 18.6308 849.676 18.1458C850.057 17.6575 850.562 17.4133 851.19 17.4133C851.835 17.4133 852.337 17.6412 852.699 18.0969L852.743 17.511H853.568V22.6672C853.568 23.3508 853.365 23.8896 852.958 24.2834C852.554 24.6773 852.01 24.8743 851.327 24.8743C850.946 24.8743 850.573 24.7929 850.209 24.6301C849.844 24.4674 849.566 24.2444 849.374 23.9612L849.842 23.4192C850.23 23.8977 850.703 24.137 851.263 24.137C851.703 24.137 852.045 24.0133 852.289 23.7659C852.536 23.5185 852.66 23.1702 852.66 22.7209V22.2668C852.298 22.6835 851.805 22.8918 851.18 22.8918C850.562 22.8918 850.06 22.6428 849.676 22.1448C849.296 21.6467 849.105 20.968 849.105 20.1086ZM850.013 20.2112C850.013 20.8069 850.135 21.2756 850.379 21.6174C850.624 21.956 850.965 22.1252 851.405 22.1252C851.975 22.1252 852.393 21.8665 852.66 21.3489V18.9368C852.383 18.4322 851.968 18.1799 851.415 18.1799C850.975 18.1799 850.632 18.3508 850.384 18.6926C850.137 19.0344 850.013 19.5406 850.013 20.2112ZM856.038 18.1506C856.439 17.6591 856.96 17.4133 857.601 17.4133C858.718 17.4133 859.281 18.0432 859.29 19.303V22.7942H858.387V19.2981C858.384 18.9172 858.296 18.6357 858.123 18.4534C857.954 18.2711 857.689 18.1799 857.328 18.1799C857.035 18.1799 856.777 18.2581 856.556 18.4143C856.335 18.5706 856.162 18.7756 856.038 19.0295V22.7942H855.135V15.2942H856.038V18.1506ZM866.272 19.9182H864.603V22.7942H863.66V15.6848H866.014C866.814 15.6848 867.43 15.8671 867.859 16.2317C868.292 16.5963 868.509 17.1269 868.509 17.8235C868.509 18.2662 868.388 18.6519 868.147 18.9807C867.91 19.3095 867.578 19.5553 867.151 19.718L868.821 22.7356V22.7942H867.815L866.272 19.9182ZM864.603 19.1516H866.043C866.508 19.1516 866.878 19.0312 867.151 18.7903C867.428 18.5494 867.566 18.2271 867.566 17.8235C867.566 17.384 867.435 17.0471 867.171 16.8127C866.91 16.5784 866.533 16.4596 866.038 16.4563H864.603V19.1516ZM872.078 22.8918C871.362 22.8918 870.779 22.6575 870.33 22.1887C869.881 21.7167 869.656 21.0868 869.656 20.2991V20.1331C869.656 19.609 869.755 19.1418 869.954 18.7317C870.156 18.3183 870.436 17.996 870.794 17.7649C871.155 17.5305 871.546 17.4133 871.966 17.4133C872.652 17.4133 873.186 17.6396 873.567 18.092C873.948 18.5445 874.138 19.1923 874.138 20.0354V20.4114H870.559C870.572 20.9322 870.724 21.3538 871.013 21.676C871.306 21.995 871.678 22.1545 872.127 22.1545C872.446 22.1545 872.716 22.0894 872.937 21.9592C873.159 21.829 873.352 21.6565 873.518 21.4417L874.07 21.8713C873.627 22.5517 872.963 22.8918 872.078 22.8918ZM871.966 18.1555C871.601 18.1555 871.295 18.289 871.048 18.5559C870.8 18.8196 870.647 19.1907 870.589 19.6692H873.235V19.6008C873.209 19.1418 873.085 18.787 872.864 18.5364C872.643 18.2825 872.343 18.1555 871.966 18.1555ZM876.614 16.2317V17.511H877.6V18.2092H876.614V21.4856C876.614 21.6972 876.658 21.8567 876.746 21.9641C876.834 22.0683 876.983 22.1204 877.195 22.1204C877.299 22.1204 877.442 22.1008 877.625 22.0618V22.7942C877.387 22.8593 877.156 22.8918 876.931 22.8918C876.528 22.8918 876.223 22.7698 876.018 22.5256C875.813 22.2815 875.711 21.9348 875.711 21.4856V18.2092H874.749V17.511H875.711V16.2317H876.614ZM882.121 22.2717C881.77 22.6851 881.254 22.8918 880.574 22.8918C880.01 22.8918 879.581 22.7291 879.285 22.4036C878.992 22.0748 878.843 21.5898 878.84 20.9485V17.511H879.744V20.9241C879.744 21.7249 880.069 22.1252 880.72 22.1252C881.41 22.1252 881.869 21.8681 882.097 21.3538V17.511H883V22.7942H882.141L882.121 22.2717ZM887.131 18.3215C886.994 18.2987 886.846 18.2874 886.687 18.2874C886.094 18.2874 885.692 18.5396 885.481 19.0442V22.7942H884.577V17.511H885.456L885.471 18.1213C885.767 17.6493 886.187 17.4133 886.731 17.4133C886.906 17.4133 887.04 17.4361 887.131 17.4817V18.3215ZM889.021 17.511L889.05 18.175C889.453 17.6672 889.981 17.4133 890.632 17.4133C891.748 17.4133 892.312 18.0432 892.321 19.303V22.7942H891.418V19.2981C891.415 18.9172 891.327 18.6357 891.154 18.4534C890.985 18.2711 890.72 18.1799 890.358 18.1799C890.065 18.1799 889.808 18.2581 889.587 18.4143C889.366 18.5706 889.193 18.7756 889.069 19.0295V22.7942H888.166V17.511H889.021Z" fill="black"/>
<circle cx="554.4" cy="59.9036" r="4.62301" fill="#008FFF"/>
<circle cx="406.805" cy="49.5185" r="4.62301" fill="#008FFF"/>
<circle cx="666.832" cy="169.344" r="4.62301" fill="#008FFF"/>
<circle cx="331.995" cy="59.5973" r="4.62301" fill="#008FFF"/>
<circle cx="111.183" cy="34.9866" r="4.62301" fill="#008FFF"/>
<circle cx="419.033" cy="118.987" r="4.62301" fill="#008FFF"/>
<circle cx="463.673" cy="77.3383" r="4.62301" fill="#008FFF"/>
<circle cx="182.086" cy="164.512" r="4.62301" fill="#008FFF"/>
<circle cx="341.256" cy="35.8339" r="4.62301" fill="#008FFF"/>
<circle cx="379.892" cy="26.9453" r="4.62301" fill="#008FFF"/>
<circle cx="331.417" cy="193.774" r="4.62301" fill="#008FFF"/>
<circle cx="208.856" cy="94.8272" r="4.62301" fill="#008FFF"/>
<circle cx="233.165" cy="61.4361" r="4.62301" fill="#008FFF"/>
<circle cx="507.734" cy="112.406" r="4.62301" fill="#008FFF"/>
<circle cx="188.019" cy="194.171" r="4.62301" fill="#008FFF"/>
<circle cx="757.197" cy="20.2923" r="4.62301" fill="#008FFF"/>
<circle cx="95.5554" cy="188.816" r="4.62301" fill="#008FFF"/>
<circle cx="794.168" cy="135.34" r="4.62301" fill="#008FFF"/>
<circle cx="454.484" cy="48.8875" r="4.62301" fill="#008FFF"/>
<circle cx="504.768" cy="76.8155" r="4.62301" fill="#008FFF"/>
<circle cx="281.133" cy="125.099" r="4.62301" fill="#008FFF"/>
<circle cx="392.263" cy="35.9963" r="4.62301" fill="#008FFF"/>
<circle cx="676.599" cy="100.849" r="4.62301" fill="#008FFF"/>
<circle cx="470.908" cy="61.7066" r="4.62301" fill="#008FFF"/>
<circle cx="499.775" cy="96.8286" r="4.62301" fill="#008FFF"/>
<circle cx="343.572" cy="63.0589" r="4.62301" fill="#008FFF"/>
<circle cx="694.397" cy="94.665" r="4.62301" fill="#008FFF"/>
<circle cx="332.14" cy="180.811" r="4.62301" fill="#008FFF"/>
<circle cx="791.997" cy="101.661" r="4.62301" fill="#008FFF"/>
<circle cx="711.833" cy="24.8718" r="4.62301" fill="#008FFF"/>
<circle cx="332.285" cy="23.8442" r="4.62301" fill="#008FFF"/>
<circle cx="660.248" cy="18.4172" r="4.62301" fill="#008FFF"/>
<circle cx="578.782" cy="160.257" r="4.62301" fill="#008FFF"/>
<circle cx="337.06" cy="66.1059" r="4.62301" fill="#008FFF"/>
<circle cx="677.901" cy="193.919" r="4.62301" fill="#008FFF"/>
<circle cx="737.735" cy="99.9296" r="4.62301" fill="#008FFF"/>
<circle cx="660.826" cy="82.0982" r="4.62301" fill="#008FFF"/>
<circle cx="746.634" cy="114.984" r="4.62301" fill="#008FFF"/>
<circle cx="464.469" cy="136.404" r="4.62301" fill="#008FFF"/>
</svg>
