<svg width="20" height="20" viewBox="0 0 20 20" fill="none" xmlns="http://www.w3.org/2000/svg">
<path d="M18.056 0H1.944C1.42367 0 1 0.423667 1 0.944V19.056C1 19.5763 1.42367 20 1.944 20H18.056C18.5763 20 19 19.5763 19 19.056V0.944C19 0.423667 18.5763 0 18.056 0ZM1.944 0.666667H18.056C18.209 0.666667 18.3333 0.791 18.3333 0.944V9.66667H1.66667V0.944C1.66667 0.791 1.791 0.666667 1.944 0.666667ZM18.056 19.3333H1.944C1.791 19.3333 1.66667 19.209 1.66667 19.056V10.3333H18.3333V19.056C18.3333 19.209 18.209 19.3333 18.056 19.3333Z" fill="#757575"/>
<path d="M8.16833 6H11.8317C12.476 6 13 5.476 13 4.83167V4.33333C13 4.149 12.851 4 12.6667 4C12.4823 4 12.3333 4.149 12.3333 4.33333V4.83167C12.3333 5.10833 12.1083 5.33333 11.8317 5.33333H8.16833C7.89167 5.33333 7.66667 5.10833 7.66667 4.83167V4.33333C7.66667 4.149 7.51767 4 7.33333 4C7.149 4 7 4.149 7 4.33333V4.83167C7 5.476 7.524 6 8.16833 6Z" fill="#757575"/>
<path d="M12.6667 13.6667C12.4823 13.6667 12.3333 13.8157 12.3333 14V14.4984C12.3333 14.775 12.1083 15 11.8317 15H8.16833C7.89167 15 7.66667 14.775 7.66667 14.4984V14C7.66667 13.8157 7.51767 13.6667 7.33333 13.6667C7.149 13.6667 7 13.8157 7 14V14.4984C7 15.1427 7.524 15.6667 8.16833 15.6667H11.8317C12.476 15.6667 13 15.1427 13 14.4984V14C13 13.8157 12.851 13.6667 12.6667 13.6667Z" fill="#757575"/>
</svg>
