<svg width="20" height="20" viewBox="0 0 20 20" fill="none" xmlns="http://www.w3.org/2000/svg">
<path d="M8.49991 1.99219H0.500031C0.223846 1.99219 0 2.21603 0 2.49222V10.4921C0 10.7681 0.223846 10.9921 0.500031 10.9921H5.99014C5.87646 13.7537 4.78653 14.9921 2.50015 14.9921C2.22412 14.9921 2.00027 15.2159 2.00027 15.4919V17.4919C2.00027 17.7681 2.22412 17.9919 2.50015 17.9919C5.49881 17.9919 9.00009 16.0281 9.00009 10.4921V2.49222C9.00009 2.21603 8.77625 1.99219 8.50021 1.99219C8.50006 1.99219 8.49991 1.99219 8.49991 1.99219ZM7.99988 10.4921C7.99988 14.9852 5.50293 16.7664 3.00003 16.9716V15.9735C5.65491 15.7735 6.99997 13.9316 6.99997 10.4921C6.99997 10.2161 6.77597 9.99207 6.49994 9.99207H1.00006V2.99225H7.99988V10.4921Z" fill="black"/>
<path d="M19.4999 1.99219H11.4999C11.2238 1.99219 11 2.21603 11 2.49222V10.4921C11 10.7681 11.2238 10.9921 11.4999 10.9921H16.9901C16.8763 13.7537 15.7865 14.9921 13.5002 14.9921C13.2241 14.9921 13.0001 15.2159 13.0001 15.4919V17.4919C13.0001 17.7681 13.2241 17.9919 13.5002 17.9919C16.4987 17.9919 20.0001 16.0281 20.0001 10.4921V2.49222C20.0001 2.21603 19.7761 1.99219 19.4999 1.99219ZM18.9999 10.4921C18.9999 14.9852 16.5028 16.7664 13.9999 16.9716V15.9735C16.6549 15.7735 17.9998 13.9316 17.9998 10.4921C17.9998 10.2161 17.776 9.99207 17.4999 9.99207H11.9999V2.99225H18.9999V10.4921Z" fill="black"/>
</svg>
