<svg width="24" height="24" viewBox="0 0 24 24" fill="none" xmlns="http://www.w3.org/2000/svg">
<path d="M20.337 1.56779e-05H3.67359C1.65058 -0.00584007 0.00585575 1.6294 0 3.65242C0 3.65946 0 3.66656 0 3.67361V20.337C0.00580613 22.3576 1.64239 23.9942 3.66297 24H20.337C22.3576 23.9942 23.9941 22.3576 24 20.337V3.67361C24 1.64886 22.3617 0.00587143 20.337 1.56779e-05ZM15.4883 13.7627L12.3653 16.9387C12.3142 16.9819 12.2571 17.0176 12.1959 17.0446C12.1364 17.0555 12.0754 17.0555 12.0159 17.0446C11.9495 17.0577 11.8812 17.0577 11.8148 17.0446C11.7535 17.0176 11.6965 16.9819 11.6454 16.9387L8.53292 13.7627C8.31333 13.588 8.27691 13.2683 8.45164 13.0487C8.62637 12.829 8.94605 12.7927 9.16569 12.9674C9.19378 12.9898 9.21944 13.015 9.24221 13.0428L11.5077 15.2978V7.51657C11.5019 7.24184 11.7199 7.01436 11.9946 7.00851C11.9982 7.00841 12.0018 7.00841 12.0053 7.00841C12.2818 7.01417 12.503 7.24001 12.5029 7.51657V15.2554L14.7579 13.0005C14.9567 12.8017 15.279 12.8017 15.4778 13.0005C15.6766 13.1993 15.6766 13.5216 15.4778 13.7204L15.4883 13.7627Z" fill="#83959D"/>
</svg>
