<svg width="24" height="24" viewBox="0 0 24 24" fill="none" xmlns="http://www.w3.org/2000/svg">
<path d="M21.427 11.7687C21.1087 11.7687 20.854 12.0234 20.854 12.3417V17.554C20.854 18.9716 19.6995 20.1219 18.2861 20.1219H5.71392C4.29626 20.1219 3.14601 18.9674 3.14601 17.554V12.2568C3.14601 11.9385 2.89134 11.6838 2.57301 11.6838C2.25467 11.6838 2 11.9385 2 12.2568V17.554C2 19.604 3.66808 21.2679 5.71392 21.2679H18.2861C20.3362 21.2679 22 19.5998 22 17.554V12.3417C22 12.0276 21.7453 11.7687 21.427 11.7687Z" fill="black"/>
<path d="M8.7613 7.35442L11.4268 4.68888V16.3145C11.4268 16.6329 11.6815 16.8875 11.9998 16.8875C12.3182 16.8875 12.5728 16.6329 12.5728 16.3145V4.68888L15.2384 7.35442C15.3487 7.46478 15.4973 7.5242 15.6416 7.5242C15.7902 7.5242 15.9345 7.46902 16.0448 7.35442C16.2698 7.12946 16.2698 6.76868 16.0448 6.54372L12.4031 2.90196C12.297 2.79584 12.1484 2.73218 11.9998 2.73218C11.847 2.73218 11.7027 2.7916 11.5966 2.90196L7.95485 6.54372C7.72989 6.76868 7.72989 7.12946 7.95485 7.35442C8.17556 7.57513 8.54059 7.57513 8.7613 7.35442Z" fill="black"/>
</svg>
