<svg width="18" height="18" viewBox="0 0 18 18" fill="none" xmlns="http://www.w3.org/2000/svg">
<g clip-path="url(#clip0)">
<path d="M15.7258 0.66945C14.831 -0.22315 13.3829 -0.22315 12.4884 0.66945L1.63356 11.5243C1.50139 11.6564 1.46294 11.8558 1.53644 12.0279L0.0690464 17.4221C0.0257666 17.5811 0.0713713 17.7512 0.188334 17.8672C0.305475 17.9833 0.475912 18.0275 0.634545 17.983L5.98818 16.4782C6.15969 16.5503 6.35767 16.5113 6.48911 16.3798L17.3439 5.52501C18.2378 4.63098 18.2378 3.18164 17.3439 2.28761L15.7258 0.66945ZM11.8524 2.60005L15.3938 6.18011L6.16523 15.4085L2.60467 11.848L11.8524 2.60005ZM2.27238 12.8107L5.20807 15.7462L1.16463 16.8829L2.27238 12.8107ZM16.6963 4.8776L16.0414 5.53252L12.5 1.95264L13.1358 1.31704C13.6727 0.781405 14.5415 0.781405 15.0784 1.31704L16.6965 2.9352C17.232 3.4719 17.232 4.3409 16.6963 4.8776Z" fill="#757575"/>
</g>
<defs>
<clipPath id="clip0">
<rect width="18" height="18" fill="white"/>
</clipPath>
</defs>
</svg>
