<svg width="224" height="224" viewBox="0 0 224 224" fill="none" xmlns="http://www.w3.org/2000/svg">
<rect width="224" height="224" fill="#F5F7F7"/>
<g clip-path="url(#clip0)">
<path d="M20.6675 112.776C22.8336 108.41 24.0588 104.608 23.4039 104.283C22.749 103.958 20.4621 107.233 18.296 111.599C16.1298 115.965 14.9047 119.768 15.5595 120.093C16.2144 120.417 18.5013 117.142 20.6675 112.776Z" fill="#E0E0E0"/>
<path d="M130.552 167.349C132.718 162.984 134.114 159.265 133.669 159.045C133.224 158.824 131.107 162.184 128.941 166.55C126.775 170.916 125.379 174.634 125.824 174.855C126.269 175.075 128.386 171.715 130.552 167.349Z" fill="#E0E0E0"/>
<path d="M71.5033 145.279L67.4205 141.908L56.1832 155.517L60.2659 158.888L71.5033 145.279Z" fill="#F55F44"/>
<path opacity="0.05" d="M62.1146 159.974L67.9138 161.337L71.9533 144.157L66.1541 142.793L62.1146 159.974Z" fill="black"/>
<path d="M62.7597 160.125L67.9138 161.337L71.9533 144.157L66.7992 142.945L62.7597 160.125Z" fill="#F55F44"/>
<path d="M23.6001 103.887L15.3635 120.488L125.637 175.202L133.874 158.602L23.6001 103.887Z" fill="url(#paint0_linear)"/>
<path d="M125.834 174.807C123.675 173.772 13.9787 119.308 15.5597 120.093C21.6481 110.8 23.404 104.283 23.404 104.283L133.678 158.997C133.678 158.997 129.805 165.794 125.834 174.807Z" fill="#F5F5F5"/>
<path opacity="0.05" d="M80.7148 132.719L71.6241 128.208L63.7798 144.018L72.8704 148.528L80.7148 132.719Z" fill="black"/>
<path d="M80.3196 132.522L72.0194 128.404L64.175 144.214L72.4752 148.332L80.3196 132.522Z" fill="#F55F44"/>
<path opacity="0.05" d="M78.7387 131.738L73.2052 128.992L65.3608 144.802L70.8943 147.548L78.7387 131.738Z" fill="black"/>
<path d="M78.3433 131.542L73.6003 129.189L65.7559 144.998L70.4989 147.352L78.3433 131.542Z" fill="#F55F44"/>
<path d="M77.7046 182.533C78.1109 182.533 78.4403 182.204 78.4403 181.798C78.4403 181.391 78.1109 181.062 77.7046 181.062C77.2984 181.062 76.969 181.391 76.969 181.798C76.969 182.204 77.2984 182.533 77.7046 182.533Z" fill="#DBDBDB"/>
<g opacity="0.5">
<path opacity="0.5" d="M20.1457 161.198H19.3914V165.472H20.1457V161.198Z" fill="#47E6B1"/>
<path opacity="0.5" d="M21.9058 163.712V162.958H17.6312V163.712H21.9058Z" fill="#47E6B1"/>
</g>
<g opacity="0.5">
<path opacity="0.5" d="M210.24 107.891H209.485V112.165H210.24V107.891Z" fill="#47E6B1"/>
<path opacity="0.5" d="M212 110.405V109.651H207.725V110.405H212Z" fill="#47E6B1"/>
</g>
<g opacity="0.5">
<path opacity="0.5" d="M24.6716 54.8354H23.9172V59.11H24.6716V54.8354Z" fill="#47E6B1"/>
<path opacity="0.5" d="M26.4316 57.3499V56.5955H22.157V57.3499H26.4316Z" fill="#47E6B1"/>
</g>
<g opacity="0.5">
<path opacity="0.5" d="M187.61 48.2978H186.855V52.5724H187.61V48.2978Z" fill="#47E6B1"/>
<path opacity="0.5" d="M189.37 50.8122V50.0579H185.095V50.8122H189.37Z" fill="#47E6B1"/>
</g>
<path opacity="0.5" d="M15.0903 103.731C14.8824 103.64 14.715 103.477 14.6201 103.271C14.5252 103.065 14.5093 102.831 14.5754 102.614C14.5861 102.581 14.5929 102.547 14.5955 102.512C14.6016 102.412 14.5754 102.314 14.521 102.23C14.4666 102.147 14.3868 102.083 14.2934 102.049C14.2 102.015 14.098 102.011 14.0025 102.039C13.907 102.067 13.823 102.125 13.7631 102.205C13.7425 102.233 13.7253 102.264 13.7118 102.296C13.6213 102.504 13.4575 102.671 13.2516 102.766C13.0457 102.861 12.812 102.877 12.5952 102.811C12.5619 102.8 12.5275 102.793 12.4927 102.79C12.3933 102.784 12.2946 102.811 12.2113 102.865C12.1279 102.919 12.0643 102.999 12.0299 103.093C11.9954 103.186 11.9919 103.288 12.02 103.384C12.0481 103.479 12.1061 103.563 12.1856 103.623C12.2138 103.643 12.2443 103.661 12.2766 103.674C12.4845 103.765 12.6518 103.929 12.7467 104.134C12.8417 104.34 12.8576 104.574 12.7914 104.791C12.7807 104.824 12.774 104.858 12.7713 104.893C12.7653 104.993 12.7914 105.091 12.8458 105.175C12.9002 105.258 12.98 105.322 13.0734 105.356C13.1668 105.391 13.2688 105.394 13.3644 105.366C13.4599 105.338 13.5438 105.28 13.6037 105.2C13.6243 105.172 13.6416 105.142 13.655 105.109C13.7455 104.902 13.9094 104.734 14.1153 104.639C14.3212 104.544 14.5548 104.528 14.7717 104.595C14.8049 104.605 14.8393 104.612 14.8742 104.615C14.9735 104.621 15.0722 104.595 15.1556 104.54C15.2389 104.486 15.3025 104.406 15.337 104.313C15.3714 104.219 15.3749 104.117 15.3468 104.022C15.3188 103.926 15.2607 103.842 15.1812 103.782C15.153 103.762 15.1225 103.744 15.0903 103.731Z" fill="#4D8AF0"/>
<path opacity="0.5" d="M58.3392 54.1958C58.1313 54.1053 57.9639 53.9415 57.869 53.7355C57.7741 53.5296 57.7582 53.296 57.8243 53.0791C57.835 53.0459 57.8418 53.0115 57.8444 52.9766C57.8505 52.8773 57.8243 52.7786 57.7699 52.6952C57.7155 52.6119 57.6357 52.5483 57.5423 52.5138C57.4489 52.4794 57.3469 52.4759 57.2514 52.504C57.1559 52.532 57.0719 52.5901 57.012 52.6696C56.9914 52.6978 56.9742 52.7283 56.9607 52.7606C56.8702 52.9684 56.7064 53.1358 56.5005 53.2307C56.2946 53.3256 56.0609 53.3415 55.8441 53.2754C55.8108 53.2647 55.7764 53.2579 55.7416 53.2553C55.6422 53.2493 55.5435 53.2754 55.4602 53.3298C55.3768 53.3842 55.3132 53.464 55.2788 53.5574C55.2443 53.6508 55.2408 53.7528 55.2689 53.8483C55.297 53.9438 55.355 54.0278 55.4345 54.0877C55.4627 54.1083 55.4933 54.1255 55.5255 54.139C55.7334 54.2295 55.9007 54.3933 55.9956 54.5992C56.0906 54.8051 56.1065 55.0388 56.0403 55.2557C56.0296 55.2889 56.0229 55.3233 56.0202 55.3581C56.0142 55.4575 56.0403 55.5562 56.0947 55.6395C56.1491 55.7229 56.2289 55.7865 56.3223 55.821C56.4157 55.8554 56.5177 55.8589 56.6133 55.8308C56.7088 55.8028 56.7927 55.7447 56.8526 55.6652C56.8732 55.637 56.8905 55.6065 56.9039 55.5742C56.9944 55.3663 57.1583 55.199 57.3642 55.1041C57.5701 55.0091 57.8037 54.9932 58.0206 55.0594C58.0538 55.0701 58.0882 55.0768 58.1231 55.0795C58.2224 55.0855 58.3211 55.0594 58.4045 55.005C58.4878 54.9506 58.5514 54.8708 58.5859 54.7774C58.6203 54.684 58.6238 54.582 58.5957 54.4865C58.5677 54.3909 58.5096 54.307 58.4301 54.2471C58.4019 54.2265 58.3714 54.2093 58.3392 54.1958Z" fill="#4D8AF0"/>
<path opacity="0.5" d="M111.143 182.686C110.935 182.595 110.768 182.431 110.673 182.225C110.578 182.019 110.562 181.786 110.628 181.569C110.639 181.536 110.646 181.501 110.649 181.466C110.655 181.367 110.628 181.268 110.574 181.185C110.52 181.102 110.44 181.038 110.346 181.004C110.253 180.969 110.151 180.966 110.055 180.994C109.96 181.022 109.876 181.08 109.816 181.159C109.795 181.187 109.778 181.218 109.765 181.25C109.674 181.458 109.51 181.625 109.305 181.72C109.099 181.815 108.865 181.831 108.648 181.765C108.615 181.754 108.58 181.748 108.546 181.745C108.446 181.739 108.348 181.765 108.264 181.819C108.181 181.874 108.117 181.954 108.083 182.047C108.048 182.141 108.045 182.243 108.073 182.338C108.101 182.434 108.159 182.517 108.239 182.577C108.267 182.598 108.297 182.615 108.33 182.629C108.537 182.719 108.705 182.883 108.8 183.089C108.895 183.295 108.911 183.528 108.844 183.745C108.834 183.779 108.827 183.813 108.824 183.848C108.818 183.947 108.844 184.046 108.899 184.129C108.953 184.213 109.033 184.276 109.126 184.311C109.22 184.345 109.322 184.349 109.417 184.321C109.513 184.292 109.597 184.234 109.657 184.155C109.677 184.127 109.695 184.096 109.708 184.064C109.799 183.856 109.962 183.689 110.168 183.594C110.374 183.499 110.608 183.483 110.825 183.549C110.858 183.56 110.892 183.567 110.927 183.569C111.027 183.575 111.125 183.549 111.209 183.495C111.292 183.44 111.356 183.36 111.39 183.267C111.424 183.174 111.428 183.072 111.4 182.976C111.372 182.881 111.314 182.797 111.234 182.737C111.206 182.716 111.175 182.699 111.143 182.686Z" fill="#4D8AF0"/>
<path opacity="0.5" d="M202.948 153.151C203.781 153.151 204.457 152.476 204.457 151.643C204.457 150.81 203.781 150.134 202.948 150.134C202.115 150.134 201.439 150.81 201.439 151.643C201.439 152.476 202.115 153.151 202.948 153.151Z" fill="#F55F44"/>
<path opacity="0.5" d="M169.757 162.706C170.59 162.706 171.265 162.031 171.265 161.198C171.265 160.365 170.59 159.689 169.757 159.689C168.924 159.689 168.248 160.365 168.248 161.198C168.248 162.031 168.924 162.706 169.757 162.706Z" fill="#4D8AF0"/>
<path opacity="0.5" d="M37.9982 177.542C38.8314 177.542 39.5069 176.866 39.5069 176.033C39.5069 175.2 38.8314 174.524 37.9982 174.524C37.165 174.524 36.4895 175.2 36.4895 176.033C36.4895 176.866 37.165 177.542 37.9982 177.542Z" fill="#47E6B1"/>
<path opacity="0.5" d="M115.444 43.0174C116.277 43.0174 116.953 42.3419 116.953 41.5087C116.953 40.6755 116.277 40 115.444 40C114.611 40 113.935 40.6755 113.935 41.5087C113.935 42.3419 114.611 43.0174 115.444 43.0174Z" fill="#F55F44"/>
<path d="M63.5202 129.893L57.4855 138.945C57.4855 138.945 59.497 148.248 104.003 147.997C148.509 147.745 152.03 138.945 152.03 138.945L143.732 126.875L118.336 109.525L63.5202 129.893Z" fill="#008FFF"/>
<path opacity="0.15" d="M63.5202 129.893L57.4855 138.945C57.4855 138.945 59.497 148.248 104.003 147.997C148.509 147.745 152.03 138.945 152.03 138.945L143.732 126.875L118.336 109.525L63.5202 129.893Z" fill="black"/>
<path d="M191.884 96.3243L112.678 131.275L16.1223 96.3243L104.632 56.0926L148.08 76.1255L149.636 76.8446L191.884 96.3243Z" fill="#008FFF"/>
<path opacity="0.15" d="M191.884 96.3243L112.678 131.275L16.1223 96.3243L104.632 56.0926L148.08 76.1255L149.636 76.8446L191.884 96.3243Z" fill="black"/>
<path d="M151.275 104.702L149.767 104.793L148.079 76.1255L149.636 76.8446L151.275 104.702Z" fill="#F5F5F5"/>
<path d="M64.526 96.1985L57.4855 138.945C57.4855 138.945 108.026 122.601 152.03 138.945L145.492 93.6841C145.492 93.6841 86.4019 86.3921 64.526 96.1985Z" fill="#008FFF"/>
<path d="M151.15 113.423C155.177 113.423 158.442 111.171 158.442 108.394C158.442 105.616 155.177 103.365 151.15 103.365C147.122 103.365 143.858 105.616 143.858 108.394C143.858 111.171 147.122 113.423 151.15 113.423Z" fill="#F5F5F5"/>
</g>
<defs>
<linearGradient id="paint0_linear" x1="70.5005" y1="147.845" x2="78.7371" y2="131.245" gradientUnits="userSpaceOnUse">
<stop stop-color="#808080" stop-opacity="0.25"/>
<stop offset="0.53514" stop-color="#808080" stop-opacity="0.12"/>
<stop offset="1" stop-color="#808080" stop-opacity="0.1"/>
</linearGradient>
<clipPath id="clip0">
<rect width="200" height="144.34" fill="white" transform="translate(12 40)"/>
</clipPath>
</defs>
</svg>
