<svg width="36" height="36" viewBox="0 0 36 36" fill="none" xmlns="http://www.w3.org/2000/svg">
<circle cx="18" cy="18" r="17.5" stroke="#008FFF"/>
<path d="M27.9995 12.9366C27.9884 11.8355 27.0933 10.9484 25.9922 10.9473H10.0077C8.90656 10.9484 8.01151 11.8355 8.00038 12.9366V12.9397C8.00038 12.9446 8 12.9498 8 12.9549V23.0943C8.00132 24.2025 8.89939 25.1006 10.0077 25.1019H25.9922C27.1005 25.1006 27.9986 24.2025 27.9999 23.0943V12.9549C27.9999 12.9498 27.9997 12.9447 27.9995 12.9397C27.9995 12.9387 27.9995 12.9376 27.9995 12.9366ZM10.0077 11.6236H25.9922C26.6571 11.6244 27.2196 12.1148 27.3111 12.7734L17.9999 18.463L8.68898 12.773C8.78069 12.1148 9.34304 11.6245 10.0077 11.6236ZM25.9922 24.4256H10.0077C9.27265 24.4246 8.67709 23.8291 8.67614 23.0943V13.5579L17.8236 19.148C17.9319 19.214 18.068 19.214 18.1763 19.148L27.3236 13.5579V23.0941C27.3228 23.8291 26.7273 24.4246 25.9922 24.4256Z" fill="#008FFF"/>
</svg>
