<svg width="224" height="224" viewBox="0 0 224 224" fill="none" xmlns="http://www.w3.org/2000/svg">
<rect width="224" height="224" fill="#F5F7F7"/>
<g clip-path="url(#clip0)">
<path d="M94.2786 182.117C128.434 182.117 156.123 154.429 156.123 120.273C156.123 86.1172 128.434 58.4285 94.2786 58.4285C60.1228 58.4285 32.4341 86.1172 32.4341 120.273C32.4341 154.429 60.1228 182.117 94.2786 182.117Z" fill="#F2F2F2"/>
<path d="M177.409 74.7341L170.957 82.3838C170.609 85.6786 170.115 89.3603 169.416 93.2227L180.016 82.2559L180.066 82.4475C179.462 79.5004 178.55 76.8266 177.35 74.5528L177.409 74.7341Z" fill="#008FFF"/>
<path d="M171.017 81.8057L177.267 74.3958C175.903 71.8599 174.176 69.8342 172.111 68.5048C172.004 68.4357 171.896 68.3704 171.788 68.3057C171.789 69.2064 171.763 74.4934 171.017 81.8057Z" fill="#008FFF"/>
<path d="M179.023 105.52L179.036 105.742C179.398 104.383 179.707 103.021 179.964 101.658L164.591 111.583L164.581 111.482C164.29 112.274 163.991 113.051 163.684 113.813L179.023 105.52Z" fill="#008FFF"/>
<path d="M180.855 93.4603L180.886 93.6706C181.062 89.9802 180.8 86.282 180.106 82.6532L169.303 93.8288C168.631 97.4459 167.839 100.888 166.928 104.157L180.855 93.4603Z" fill="#008FFF"/>
<path d="M153.599 74.7619C152.002 76.8533 150.62 79.1007 149.475 81.4698L167.279 101.794C168.012 98.9435 168.603 96.1791 169.079 93.6012L153.505 74.9633L153.599 74.7619Z" fill="#008FFF"/>
<path d="M148.217 84.2605L148.307 84.0567L166.591 104.343C166.788 103.648 166.976 102.957 167.156 102.27L149.286 81.8707L149.378 81.6677C148.973 82.5023 148.586 83.3665 148.217 84.2605Z" fill="#008FFF"/>
<path d="M179.991 101.178L180.013 101.395C180.468 98.9235 180.757 96.4237 180.876 93.9129L166.761 104.754C166.141 106.93 165.47 109.019 164.747 111.021L179.991 101.178Z" fill="#008FFF"/>
<path d="M159.617 122.264C157.225 126.428 154.514 129.947 151.512 132.781C154.833 131.442 168.21 125.542 175.143 114.902L159.617 122.264Z" fill="#008FFF"/>
<path d="M145.436 94.5862C145.17 96.9863 145.067 99.4014 145.124 101.815L145.236 101.599L159.576 121.715C160.892 119.373 162.067 116.954 163.095 114.471L145.436 94.5862Z" fill="#008FFF"/>
<path d="M170.753 81.7832C171.558 73.8716 171.515 68.3587 171.514 68.2796L171.65 68.2241C168.422 66.3527 164.855 66.4178 161.38 68.0812L170.753 81.7832Z" fill="#008FFF"/>
<path d="M163.443 114.402C163.346 114.637 163.25 114.874 163.152 115.107C162.211 117.341 161.149 119.521 159.972 121.64L175.351 114.347L175.358 114.565C176.563 112.681 177.525 110.653 178.22 108.528C178.489 107.692 178.737 106.852 178.965 106.01L163.443 114.402Z" fill="#008FFF"/>
<path d="M169.173 93.0865C169.862 89.2675 170.349 85.629 170.692 82.3725L161.104 68.356L161.205 68.1646C158.594 69.456 156.04 71.6497 153.726 74.6004L169.173 93.0865Z" fill="#008FFF"/>
<path d="M159.365 122.086L145.13 102.117C145.473 116.592 150.415 132.041 150.734 133.023C154.153 129.962 156.997 126.198 159.365 122.086Z" fill="#008FFF"/>
<path d="M163.26 114.043L163.274 114.035C164.501 111.018 165.564 107.937 166.458 104.806L148.13 84.4703C147.634 85.6836 147.174 86.9476 146.75 88.2622C146.158 90.1477 145.74 92.0832 145.5 94.0447L163.26 114.043Z" fill="#008FFF"/>
<path d="M191.914 134.164L182.065 135.94C179.696 138.256 176.967 140.777 173.965 143.305L189.124 141.62L189.04 141.799C190.455 139.144 191.458 136.503 191.984 133.987L191.914 134.164Z" fill="#008FFF"/>
<path d="M182.48 135.533L192.02 133.813C192.587 130.989 192.548 128.327 191.806 125.987C191.768 125.865 191.726 125.746 191.684 125.627C191.111 126.322 187.718 130.377 182.48 135.533Z" fill="#008FFF"/>
<path d="M173.521 158.904L173.39 159.084C174.535 158.267 175.642 157.416 176.709 156.53L158.538 154.369L158.595 154.285C157.866 154.709 157.14 155.117 156.418 155.508L173.521 158.904Z" fill="#008FFF"/>
<path d="M182.624 150.784L182.514 150.966C185.003 148.236 187.16 145.221 188.94 141.983L173.492 143.7C170.667 146.057 167.861 148.204 165.075 150.14L182.624 150.784Z" fill="#008FFF"/>
<path d="M173.558 118.999C170.994 119.591 168.496 120.44 166.103 121.535L166.852 148.544C169.235 146.816 171.453 145.064 173.464 143.382L173.357 119.094L173.558 118.999Z" fill="#008FFF"/>
<path d="M163.354 122.882L163.554 122.782L164.697 150.068C165.292 149.659 165.877 149.247 166.454 148.832L165.701 121.723L165.902 121.625C165.058 122.01 164.209 122.429 163.354 122.882Z" fill="#008FFF"/>
<path d="M177.036 156.178L176.914 156.359C178.841 154.745 180.658 153.004 182.351 151.146L164.565 150.493C162.7 151.773 160.851 152.954 159.017 154.035L177.036 156.178Z" fill="#008FFF"/>
<path d="M147.895 159.423C143.397 161.104 139.065 162.086 134.945 162.354C138.357 163.44 152.423 167.428 164.549 163.656L147.895 159.423Z" fill="#008FFF"/>
<path d="M154.626 129.06C152.891 130.74 151.27 132.534 149.775 134.43L149.999 134.334L148.213 158.974C150.721 158.009 153.169 156.896 155.544 155.638L154.626 129.06Z" fill="#008FFF"/>
<path d="M182.291 135.348C187.957 129.767 191.44 125.494 191.49 125.432L191.63 125.477C190.338 121.976 187.548 119.751 183.811 118.816L182.291 135.348Z" fill="#008FFF"/>
<path d="M155.857 155.808C155.632 155.927 155.406 156.049 155.182 156.165C153.033 157.285 150.824 158.288 148.566 159.168L165.062 163.36L164.929 163.533C167.059 162.851 169.093 161.902 170.984 160.708C171.724 160.236 172.451 159.748 173.164 159.244L155.857 155.808Z" fill="#008FFF"/>
<path d="M173.864 143.045C176.831 140.543 179.527 138.052 181.868 135.763L183.423 118.852L183.623 118.769C180.789 118.098 177.422 118.158 173.758 118.955L173.864 143.045Z" fill="#008FFF"/>
<path d="M147.814 159.125L149.587 134.666C140.619 146.033 134.572 161.084 134.191 162.044C138.777 161.866 143.368 160.782 147.814 159.125Z" fill="#008FFF"/>
<path d="M155.944 155.414L155.961 155.418C158.829 153.876 161.613 152.181 164.299 150.34L163.153 122.988C161.998 123.606 160.837 124.286 159.672 125.028C158.013 126.103 156.457 127.327 155.021 128.684L155.944 155.414Z" fill="#008FFF"/>
<path d="M140.765 101.234L136.993 110.503C137.681 113.744 138.349 117.398 138.878 121.288L145.569 107.581L145.675 107.748C144.191 105.132 142.497 102.871 140.653 101.079L140.765 101.234Z" fill="#008FFF"/>
<path d="M136.872 109.935L140.525 100.956C138.444 98.9656 136.175 97.573 133.801 96.9468C133.677 96.9143 133.554 96.8857 133.432 96.8575C133.711 97.7137 135.32 102.75 136.872 109.935Z" fill="#008FFF"/>
<path d="M151.816 130.013L151.897 130.22C151.821 128.815 151.694 127.425 151.516 126.049L139.965 140.24L139.924 140.147C139.892 140.99 139.848 141.821 139.792 142.641L151.816 130.013Z" fill="#008FFF"/>
<path d="M149.83 117.978L149.925 118.168C148.951 114.604 147.559 111.168 145.777 107.931L138.958 121.899C139.437 125.546 139.748 129.065 139.892 132.455L149.83 117.978Z" fill="#008FFF"/>
<path d="M118.129 108.62C117.257 111.102 116.637 113.667 116.28 116.274L139.495 130.1C139.311 127.162 139.019 124.35 138.674 121.752L118.102 108.84L118.129 108.62Z" fill="#008FFF"/>
<path d="M115.947 119.317L115.97 119.095L139.629 132.736C139.601 132.014 139.566 131.299 139.525 130.59L116.225 116.713L116.249 116.492C116.123 117.411 116.022 118.352 115.947 119.317Z" fill="#008FFF"/>
<path d="M151.394 125.585L151.482 125.785C151.151 123.293 150.653 120.826 149.99 118.402L139.917 133.075C140 135.335 140.007 137.53 139.939 139.658L151.394 125.585Z" fill="#008FFF"/>
<path d="M138.536 151.936C137.547 156.635 136.058 160.82 134.079 164.443C136.823 162.143 147.721 152.397 151.026 140.135L138.536 151.936Z" fill="#008FFF"/>
<path d="M116.493 129.996C116.983 132.361 117.631 134.69 118.432 136.968L118.471 136.728L138.326 151.426C138.855 148.792 139.224 146.128 139.434 143.449L116.493 129.996Z" fill="#008FFF"/>
<path d="M136.614 109.995C134.933 102.222 133.188 96.9924 133.163 96.9174L133.276 96.8224C129.627 96.0404 126.255 97.2051 123.464 99.861L136.614 109.995Z" fill="#008FFF"/>
<path d="M139.744 143.275C139.725 143.529 139.707 143.785 139.685 144.037C139.481 146.451 139.145 148.853 138.68 151.232L151.051 139.543L151.126 139.748C151.69 137.584 151.977 135.358 151.981 133.122C151.979 132.243 151.956 131.368 151.912 130.497L139.744 143.275Z" fill="#008FFF"/>
<path d="M138.604 121.233C138.079 117.388 137.418 113.777 136.738 110.574L123.286 100.208L123.323 99.9945C121.239 102.03 119.488 104.905 118.2 108.427L138.604 121.233Z" fill="#008FFF"/>
<path d="M138.24 151.844L118.53 137.253C123.331 150.913 132.806 164.077 133.413 164.913C135.718 160.945 137.26 156.486 138.24 151.844Z" fill="#008FFF"/>
<path d="M139.458 142.991L139.47 142.979C139.704 139.731 139.762 136.472 139.646 133.218L115.929 119.543C115.833 120.85 115.786 122.194 115.788 123.576C115.808 125.552 116.009 127.522 116.387 129.462L139.458 142.991Z" fill="#008FFF"/>
<path d="M112 183.745C167.228 183.745 212 181.154 212 177.958C212 174.762 167.228 172.172 112 172.172C56.7715 172.172 12 174.762 12 177.958C12 181.154 56.7715 183.745 112 183.745Z" fill="#3F3D56"/>
<path opacity="0.1" d="M146.72 170.587C146.72 181.833 131.043 178.355 111.849 178.355C92.6548 178.355 77.2112 181.833 77.2112 170.587C77.2112 159.34 92.8855 156.894 112.08 156.894C131.274 156.894 146.72 159.34 146.72 170.587Z" fill="black"/>
<path d="M146.72 167.818C146.72 179.064 131.043 175.586 111.849 175.586C92.6548 175.586 77.2112 179.064 77.2112 167.818C77.2112 156.571 92.8855 154.125 112.08 154.125C131.274 154.125 146.72 156.571 146.72 167.818Z" fill="#3F3D56"/>
<path d="M89.4875 146.076C98.0763 146.076 105.039 139.113 105.039 130.524C105.039 121.935 98.0763 114.973 89.4875 114.973C80.8986 114.973 73.9359 121.935 73.9359 130.524C73.9359 139.113 80.8986 146.076 89.4875 146.076Z" fill="#E94900"/>
<path d="M81.5778 107.428H81.5778C78.7024 108.393 75.5707 108.251 72.7942 107.031C70.0177 105.811 67.7957 103.599 66.562 100.829L49.705 62.9711C48.7798 60.8932 48.299 58.6448 48.2935 56.3702C48.288 54.0956 48.758 51.8449 49.6732 49.7625C50.5884 47.6802 51.9287 45.812 53.6081 44.278C55.2875 42.7439 57.269 41.5777 59.4255 40.8542L59.4255 40.8542C61.5929 40.127 63.8888 39.8632 66.1646 40.0798C68.4404 40.2964 70.6454 40.9886 72.6367 42.1116C74.6279 43.2345 76.3612 44.7632 77.7241 46.5986C79.087 48.434 80.0492 50.5352 80.5484 52.7661L89.5976 93.2072C90.256 96.1498 89.8007 99.2319 88.3195 101.858C86.8384 104.485 84.4365 106.469 81.5778 107.428Z" fill="#E94900"/>
<path opacity="0.1" d="M89.4875 146.076C98.0763 146.076 105.039 139.113 105.039 130.524C105.039 121.935 98.0763 114.973 89.4875 114.973C80.8986 114.973 73.9359 121.935 73.9359 130.524C73.9359 139.113 80.8986 146.076 89.4875 146.076Z" fill="#FF6823"/>
<path opacity="0.1" d="M81.5778 107.428H81.5778C78.7024 108.393 75.5707 108.251 72.7942 107.031C70.0177 105.811 67.7957 103.599 66.562 100.829L49.705 62.9711C48.7798 60.8932 48.299 58.6448 48.2935 56.3702C48.288 54.0956 48.758 51.8449 49.6732 49.7625C50.5884 47.6802 51.9287 45.812 53.6081 44.278C55.2875 42.7439 57.269 41.5777 59.4255 40.8542L59.4255 40.8542C61.5929 40.127 63.8888 39.8632 66.1646 40.0798C68.4404 40.2964 70.6454 40.9886 72.6367 42.1116C74.6279 43.2345 76.3612 44.7632 77.7241 46.5986C79.087 48.434 80.0492 50.5352 80.5484 52.7661L89.5976 93.2072C90.256 96.1498 89.8007 99.2319 88.3195 101.858C86.8384 104.485 84.4365 106.469 81.5778 107.428Z" fill="#FF6823"/>
<path d="M88.9122 141.287C95.8033 141.287 101.39 135.701 101.39 128.81C101.39 121.919 95.8033 116.332 88.9122 116.332C82.0211 116.332 76.4348 121.919 76.4348 128.81C76.4348 135.701 82.0211 141.287 88.9122 141.287Z" fill="#FF6823"/>
<path d="M80.0959 102.966H80.0958C77.4576 103.851 74.5842 103.722 72.0367 102.602C69.4892 101.482 67.4504 99.4532 66.3185 96.9111L50.8518 62.1757C50.0028 60.2691 49.5617 58.2062 49.5567 56.1192C49.5517 54.0321 49.9828 51.9671 50.8226 50.0565C51.6623 48.1458 52.892 46.4318 54.433 45.0242C55.9739 43.6167 57.7919 42.5467 59.7706 41.8828L59.7706 41.8828C61.7592 41.2156 63.8658 40.9736 65.9539 41.1723C68.042 41.3711 70.0651 42.0062 71.8922 43.0365C73.7192 44.0669 75.3095 45.4695 76.56 47.1535C77.8105 48.8375 78.6933 50.7654 79.1514 52.8124L87.4542 89.9181C88.0584 92.618 87.6406 95.4459 86.2816 97.8557C84.9226 100.266 82.7188 102.086 80.0959 102.966Z" fill="#FF6823"/>
</g>
<defs>
<clipPath id="clip0">
<rect width="200" height="143.745" fill="white" transform="translate(12 40)"/>
</clipPath>
</defs>
</svg>
