<svg width="200" height="200" viewBox="0 0 200 200" fill="none" xmlns="http://www.w3.org/2000/svg">
<g clip-path="url(#clip0)">
<path d="M104.712 7.40413C102.966 7.26413 101.189 7.17207 99.429 7.12604L99.4637 5.80466C101.247 5.85069 103.049 5.94466 104.818 6.08466L104.712 7.40413ZM88.8543 7.42908L88.7439 6.11151C90.5167 5.96384 92.3188 5.86412 94.0998 5.81425L94.1383 7.13564C92.3805 7.1855 90.6015 7.28523 88.8543 7.42908ZM115.193 8.81754C113.468 8.48959 111.712 8.20195 109.972 7.96797L110.151 6.65617C111.915 6.89398 113.696 7.1855 115.444 7.5192L115.193 8.81754ZM78.3791 8.87894L78.1232 7.58055C79.8704 7.2411 81.6503 6.94386 83.4135 6.7003L83.5966 8.01015C81.8567 8.25179 80.1014 8.54332 78.3791 8.87894ZM125.453 11.3759C123.776 10.8581 122.061 10.3806 120.359 9.95673L120.68 8.6718C122.407 9.1033 124.146 9.58853 125.846 10.114L125.453 11.3759ZM68.1279 11.4718L67.7295 10.2099C69.4287 9.67867 71.1655 9.1877 72.8903 8.75237L73.2175 10.0334C71.5158 10.463 69.8039 10.9482 68.1279 11.4718ZM135.385 15.0581C133.773 14.3562 132.12 13.6907 130.47 13.0808L130.934 11.84C132.605 12.4614 134.282 13.1346 135.917 13.8461L135.385 15.0581ZM58.2384 15.1732L57.7024 13.963C59.3272 13.2515 60.9944 12.5726 62.6583 11.9493L63.1271 13.1882C61.4855 13.8019 59.8406 14.4693 58.2384 15.1732ZM144.839 19.8085C143.314 18.9359 141.745 18.0921 140.178 17.3038L140.777 16.1244C142.368 16.9222 143.956 17.7776 145.502 18.6636L144.839 19.8085ZM48.8238 19.9389L48.1575 18.794C49.696 17.9061 51.2791 17.0488 52.8631 16.2471L53.4664 17.4266C51.903 18.2167 50.3415 19.0625 48.8238 19.9389ZM153.705 25.5658C152.288 24.5302 150.823 23.5214 149.351 22.5663L150.077 21.4579C151.571 22.4264 153.055 23.4505 154.491 24.4995L153.705 25.5658ZM39.9879 25.7077L39.1984 24.6433C40.6312 23.5924 42.1111 22.5663 43.5975 21.5959L44.3272 22.7025C42.8607 23.6595 41.4007 24.6702 39.9879 25.7077ZM161.879 32.2532C160.585 31.0699 159.242 29.9077 157.885 28.7973L158.729 27.7751C160.105 28.9028 161.466 30.0803 162.779 31.279L161.879 32.2532ZM31.8352 32.4086L30.9343 31.4381C32.2424 30.2357 33.6009 29.0562 34.9735 27.9285L35.8199 28.9469C34.4663 30.0592 33.1256 31.2253 31.8352 32.4086ZM169.266 39.7845C168.112 38.4707 166.903 37.1686 165.678 35.9182L166.628 34.9957C167.871 36.2633 169.097 37.5809 170.269 38.9157L169.266 39.7845ZM24.4648 39.9609L23.4624 39.094C24.6304 37.7554 25.8527 36.434 27.0928 35.1625L28.0463 36.085C26.8224 37.3373 25.6176 38.6433 24.4648 39.9609ZM175.779 48.0732C174.777 46.6425 173.721 45.2195 172.637 43.8406L173.686 43.0275C174.783 44.4236 175.854 45.8658 176.87 47.3176L175.779 48.0732ZM17.9664 48.2727L16.8743 47.519C17.8887 46.0634 18.9577 44.6154 20.0528 43.2154L21.1015 44.0286C20.0216 45.4094 18.9671 46.8362 17.9664 48.2727ZM181.338 57.0179C180.499 55.4856 179.607 53.9552 178.684 52.4689L179.813 51.7746C180.75 53.2801 181.656 54.8316 182.504 56.385L181.338 57.0179ZM12.4224 57.25L11.2536 56.619C12.1015 55.0598 13.0049 53.5025 13.9383 51.9913L15.0705 52.6856C14.1496 54.1757 13.2593 55.7119 12.4224 57.25ZM185.867 66.5091C185.204 64.8943 184.487 63.2776 183.735 61.7012L184.934 61.1335C185.697 62.7311 186.426 64.3727 187.099 66.0067L185.867 66.5091ZM7.90556 66.7834L6.67434 66.2867C7.34315 64.6431 8.06881 62.9957 8.82956 61.3886L10.0321 61.9524C9.28153 63.5385 8.56647 65.1628 7.90556 66.7834ZM189.321 76.4568C188.841 74.7749 188.307 73.0872 187.733 71.4341L188.989 71.0026C189.571 72.6768 190.113 74.3913 190.599 76.0944L189.321 76.4568ZM4.48077 76.7503L3.20156 76.3936C3.68244 74.6886 4.21922 72.9741 4.79513 71.296L6.05276 71.7256C5.48475 73.3787 4.95607 75.0703 4.48077 76.7503ZM191.645 86.7229C191.354 84.9988 191.013 83.2593 190.628 81.5563L191.923 81.2667C192.314 82.9927 192.663 84.7552 192.956 86.5043L191.645 86.7229ZM2.18967 87.0259L0.878467 86.8111C1.16719 85.0621 1.50892 83.2996 1.8944 81.5697L3.19192 81.8555C2.81203 83.5623 2.47435 85.2999 2.18967 87.0259ZM192.819 97.1807C192.721 95.4355 192.572 93.6692 192.378 91.9355L193.698 91.7897C193.895 93.5484 194.047 95.3377 194.145 97.1059L192.819 97.1807ZM1.05039 97.4875L-0.276814 97.4185C-0.182372 95.6465 -0.0376218 93.8571 0.154347 92.0985L1.47519 92.2404C1.2865 93.976 1.14406 95.7404 1.05039 97.4875ZM194.159 107.982L192.831 107.911C192.925 106.169 192.973 104.399 192.973 102.648V102.445L194.303 102.443V102.648C194.303 104.422 194.253 106.217 194.159 107.982ZM-0.265634 108.087C-0.363931 106.321 -0.414435 104.526 -0.416748 102.752H0.91277C0.914505 104.501 0.964043 106.271 1.06157 108.014L-0.265634 108.087ZM192.991 118.589L191.68 118.373C191.965 116.65 192.208 114.896 192.399 113.158L193.721 113.302C193.527 115.062 193.282 116.842 192.991 118.589ZM0.911999 118.693C0.619998 116.948 0.372912 115.168 0.176896 113.405L1.49755 113.26C1.69125 114.999 1.93526 116.754 2.22321 118.474L0.911999 118.693ZM190.657 129.003L189.377 128.644C189.855 126.962 190.288 125.244 190.672 123.539L191.969 123.827C191.582 125.557 191.14 127.297 190.657 129.003ZM3.25842 129.104C2.77291 127.399 2.32961 125.658 1.94008 123.93L3.23683 123.641C3.62154 125.346 4.05848 127.062 4.53686 128.743L3.25842 129.104ZM187.174 139.106L185.942 138.608C186.605 136.985 187.23 135.323 187.8 133.668L189.057 134.098C188.481 135.775 187.845 137.46 187.174 139.106ZM6.74874 139.194C6.07762 137.554 5.44235 135.873 4.86316 134.197L6.12002 133.766C6.6913 135.419 7.31751 137.077 7.97996 138.695L6.74874 139.194ZM182.583 148.768L181.415 148.138C182.253 146.599 183.059 145.017 183.81 143.436L185.013 144.001C184.25 145.604 183.433 147.208 182.583 148.768ZM11.3329 148.822C10.4833 147.267 9.66721 145.668 8.90646 144.07L10.108 143.504C10.8583 145.079 11.6632 146.656 12.5009 148.19L11.3329 148.822ZM176.953 157.862L175.862 157.107C176.864 155.67 177.841 154.187 178.763 152.699L179.894 153.393C178.959 154.901 177.97 156.404 176.953 157.862ZM16.9568 157.895C15.9417 156.443 14.9527 154.941 14.0193 153.435L15.1505 152.74C16.0712 154.227 17.0464 155.707 18.0479 157.14L16.9568 157.895ZM170.355 166.281L169.355 165.413C170.508 164.095 171.641 162.727 172.722 161.349L173.771 162.162C172.674 163.56 171.525 164.946 170.355 166.281ZM23.5504 166.305C22.3799 164.97 21.2312 163.585 20.1376 162.189L21.1855 161.376C22.2649 162.752 23.3976 164.118 24.5519 165.434L23.5504 166.305ZM162.875 173.93L161.975 172.956C163.268 171.771 164.544 170.537 165.768 169.286L166.72 170.208C165.479 171.476 164.186 172.728 162.875 173.93ZM31.032 173.949C29.7224 172.75 28.4287 171.499 27.1855 170.228L28.1376 169.306C29.364 170.558 30.6408 171.793 31.9319 172.976L31.032 173.949ZM154.605 180.714L153.816 179.65C155.229 178.615 156.632 177.526 157.987 176.415L158.833 177.435C157.459 178.562 156.037 179.666 154.605 180.714ZM39.3119 180.736C37.8768 179.686 36.4519 178.581 35.0784 177.455L35.9232 176.435C37.2783 177.546 38.684 178.635 40.0998 179.671L39.3119 180.736ZM145.638 186.554L144.973 185.41C146.492 184.535 148.005 183.607 149.474 182.651L150.201 183.757C148.713 184.727 147.178 185.668 145.638 186.554ZM48.2951 186.582C46.7519 185.695 45.2136 184.752 43.7224 183.782L44.4496 182.675C45.9208 183.632 47.4384 184.561 48.9599 185.437L48.2951 186.582ZM136.088 191.375L135.554 190.164C137.16 189.462 138.765 188.706 140.328 187.916L140.93 189.096C139.345 189.896 137.717 190.663 136.088 191.375ZM57.8759 191.409C56.2439 190.697 54.6087 189.929 53.0175 189.127L53.6175 187.947C55.1879 188.738 56.8 189.495 58.4095 190.198L57.8759 191.409ZM126.058 195.118L125.661 193.855C127.336 193.334 129.02 192.758 130.664 192.145L131.131 193.383C129.464 194.005 127.756 194.589 126.058 195.118ZM67.9407 195.152C66.2359 194.624 64.5248 194.041 62.8543 193.419L63.32 192.181C64.9671 192.794 66.6552 193.368 68.3358 193.89L67.9407 195.152ZM115.662 197.735L115.407 196.437C117.13 196.103 118.867 195.717 120.569 195.287L120.896 196.57C119.169 197.005 117.408 197.396 115.662 197.735ZM78.3398 197.758C76.5911 197.42 74.8294 197.031 73.1046 196.599L73.4286 195.316C75.1303 195.742 76.8678 196.127 78.5927 196.458L78.3398 197.758ZM105.04 199.194L104.93 197.875C106.682 197.732 108.451 197.539 110.188 197.3L110.371 198.61C108.609 198.851 106.817 199.048 105.04 199.194ZM88.9638 199.203C87.1879 199.06 85.3943 198.866 83.6326 198.626L83.8126 197.316C85.5502 197.552 87.319 197.743 89.0717 197.885L88.9638 199.203ZM96.9427 199.524C96.0734 199.524 95.1907 199.512 94.3195 199.489L94.3542 198.168C96.1139 198.213 97.8967 198.212 99.6468 198.164L99.6834 199.486C98.7756 199.511 97.8543 199.524 96.9427 199.524Z" fill="#545C74"/>
<path d="M177.995 102.968C177.995 103.315 177.992 103.661 177.988 104.006C177.975 105.04 177.943 106.072 177.89 107.095C176.236 139.56 155.179 166.93 126.033 177.957C125.725 178.073 125.417 178.187 125.109 178.299C124.183 178.638 123.249 178.958 122.307 179.262C121.994 179.364 121.68 179.463 121.363 179.561C119.471 180.147 117.548 180.665 115.599 181.112C114.948 181.261 114.296 181.402 113.64 181.536C112.001 181.871 110.342 182.155 108.669 182.388C108.334 182.435 107.998 182.479 107.661 182.522C106.988 182.607 106.314 182.684 105.636 182.753C105.299 182.787 104.959 182.819 104.619 182.849C103.939 182.909 103.257 182.96 102.573 183.004C100.862 183.111 99.1357 183.166 97.3967 183.166C95.6578 183.166 93.9316 183.111 92.22 183.004C91.5346 182.96 90.8529 182.909 90.1729 182.849C89.8339 182.819 89.4949 182.787 89.1558 182.753C88.4777 182.684 87.8033 182.607 87.1307 182.522C86.7953 182.479 86.4599 182.435 86.1245 182.388C84.4512 182.155 82.7924 181.871 81.1537 181.536C80.4975 181.402 79.845 181.261 79.1937 181.112C77.2449 180.665 75.3217 180.147 73.4282 179.561C73.113 179.463 72.7986 179.364 72.4849 179.262C71.5434 178.958 70.609 178.638 69.6834 178.299C69.3754 178.187 69.0682 178.073 68.7609 177.957C39.6114 166.93 18.557 139.56 16.9024 107.095C16.8592 106.242 16.8297 105.386 16.8129 104.526C16.8096 104.354 16.8065 104.178 16.8049 104.006C16.8033 103.879 16.8016 103.754 16.8002 103.627C16.7985 103.407 16.7976 103.188 16.7976 102.968C16.7976 102.016 16.8153 101.067 16.8481 100.123C16.8585 99.8251 16.8705 99.5276 16.884 99.232C16.8904 99.1014 16.896 98.9726 16.9024 98.842C16.9376 98.1583 16.9808 97.4763 17.0329 96.798C17.0594 96.4588 17.0873 96.1196 17.1177 95.7823C17.1777 95.1058 17.2466 94.431 17.3233 93.76C17.401 93.0889 17.4864 92.4196 17.5801 91.7522C17.7201 90.7528 17.8792 89.7589 18.0568 88.7722C19.6249 80.0336 22.6176 71.7866 26.7849 64.2741C26.9233 64.0238 27.0625 63.7753 27.2041 63.5287C28.8512 60.6303 30.6746 57.8463 32.6592 55.1891C32.7721 55.0386 32.8849 54.888 32.9968 54.7393C34.8729 52.2636 36.8889 49.8985 39.0338 47.6585C39.0482 47.6422 39.0626 47.6277 39.077 47.6132C41.9624 44.6042 45.0802 41.8201 48.4009 39.2863C49.9377 38.1128 51.5185 36.9938 53.141 35.9327C54.7625 34.8699 56.4242 33.8651 58.1249 32.9183C58.6914 32.6027 59.2625 32.2944 59.8377 31.9933C60.413 31.6904 60.9928 31.3948 61.5752 31.1064C61.9609 30.9159 62.349 30.7291 62.7376 30.546C63.4354 30.214 64.1384 29.893 64.8466 29.5829C65.0289 29.5012 65.2114 29.4214 65.3936 29.3435C65.9033 29.124 66.4153 28.9081 66.9297 28.6978C67.5369 28.4511 68.1473 28.2135 68.7609 27.9813C69.0682 27.8634 69.3754 27.751 69.6834 27.6385C70.0722 27.4971 70.461 27.3592 70.8522 27.225C71.3945 27.0364 71.9377 26.8532 72.4849 26.6754C72.7986 26.5739 73.113 26.4741 73.4282 26.3762C74.0601 26.1821 74.6945 25.9935 75.3306 25.8139C76.925 25.3641 78.5393 24.9597 80.1713 24.6078C80.8238 24.4645 81.48 24.3321 82.1399 24.2051C82.7979 24.08 83.4578 23.9621 84.1231 23.8533C85.1202 23.6882 86.1209 23.5431 87.1307 23.4162C87.8033 23.3309 88.4777 23.2529 89.1558 23.1858C89.4949 23.1514 89.8339 23.1205 90.1729 23.0897C90.8529 23.0298 91.5346 22.9772 92.22 22.9337C93.9316 22.8267 95.6578 22.7705 97.3967 22.7705C99.1357 22.7705 100.862 22.8267 102.573 22.9337C103.257 22.9772 103.939 23.0298 104.619 23.0897C104.959 23.1205 105.299 23.1514 105.636 23.1858C106.314 23.2529 106.988 23.3309 107.661 23.4162C108.669 23.5431 109.673 23.6882 110.669 23.8533C111.334 23.9621 111.996 24.08 112.654 24.2051C113.312 24.3321 113.97 24.4645 114.62 24.6078C116.254 24.9597 117.867 25.3641 119.462 25.8139C120.098 25.9935 120.732 26.1821 121.363 26.3762C121.68 26.4741 121.994 26.5739 122.307 26.6754C122.854 26.8532 123.399 27.0364 123.94 27.225C124.332 27.3592 124.72 27.4971 125.109 27.6385C125.417 27.751 125.725 27.8634 126.033 27.9813C126.645 28.2135 127.256 28.4511 127.861 28.6978C128.377 28.9081 128.889 29.124 129.4 29.3435C129.582 29.4214 129.764 29.5012 129.946 29.5829C130.654 29.893 131.357 30.214 132.055 30.546C132.444 30.7291 132.832 30.9178 133.217 31.1064C133.8 31.3948 134.38 31.6904 134.956 31.9933C135.53 32.2944 136.1 32.6027 136.667 32.9183C138.368 33.8651 140.03 34.8699 141.652 35.9327C143.273 36.9938 144.855 38.1128 146.392 39.2863C149.713 41.8201 152.83 44.6042 155.715 47.6132C155.73 47.6277 155.745 47.6422 155.759 47.6585C157.903 49.8985 159.919 52.2636 161.796 54.7393C161.907 54.888 162.02 55.0386 162.133 55.1891C164.118 57.8463 165.941 60.6303 167.589 63.5287C167.729 63.7753 167.87 64.0238 168.008 64.2741C172.173 71.7866 175.168 80.0336 176.736 88.7722C176.913 89.7589 177.073 90.7528 177.213 91.7522C177.306 92.4196 177.392 93.0889 177.469 93.76C177.547 94.431 177.616 95.1058 177.675 95.7823C177.706 96.1196 177.733 96.4588 177.76 96.798C177.811 97.4763 177.855 98.1583 177.89 98.842C177.959 100.21 177.995 101.584 177.995 102.968Z" fill="#008FFF"/>
<path d="M30.3428 102.968C30.3428 139.817 60.3636 169.688 97.3964 169.688C134.429 169.688 164.451 139.817 164.451 102.968C164.451 66.1193 134.429 36.2466 97.3964 36.2466C60.3636 36.2466 30.3428 66.1193 30.3428 102.968Z" fill="white"/>
<path d="M44.2947 102.968C44.2947 132.149 68.0691 155.806 97.3964 155.806C126.724 155.806 150.498 132.149 150.498 102.968C150.498 73.7867 126.724 50.1305 97.3964 50.1305C68.0691 50.1305 44.2947 73.7867 44.2947 102.968Z" fill="#008FFF"/>
<path d="M57.1306 102.969C57.1306 125.096 75.1588 143.035 97.3963 143.035C119.634 143.035 137.661 125.096 137.661 102.969C137.661 80.8421 119.634 62.9051 97.3963 62.9051C75.1588 62.9051 57.1306 80.8421 57.1306 102.969Z" fill="white"/>
<path d="M69.3008 103.193C69.3008 118.633 81.88 131.15 97.3965 131.15C112.914 131.15 125.492 118.633 125.492 103.193C125.492 87.7534 112.914 75.2368 97.3965 75.2368C81.88 75.2368 69.3008 87.7534 69.3008 103.193Z" fill="#008FFF"/>
<path d="M83.9077 102.311C83.9077 109.724 89.946 115.733 97.3952 115.733C104.846 115.733 110.884 109.724 110.884 102.311C110.884 94.8985 104.846 88.8903 97.3952 88.8903C89.946 88.8903 83.9077 94.8985 83.9077 102.311Z" fill="white"/>
<path d="M109.322 128.586L109.262 128.542C117.781 124.585 123.977 116.503 125.25 106.877L125.258 106.884C124.008 116.517 117.83 124.612 109.322 128.586Z" fill="#E5E5E4"/>
<path d="M109.264 128.54L89.1775 113.034L89.1803 113.029C91.4544 114.772 94.304 115.806 97.3959 115.806C104.846 115.806 110.885 109.798 110.885 102.386C110.885 102.366 110.885 102.348 110.885 102.33C110.885 102.324 110.885 102.319 110.885 102.312C110.885 98.3617 109.17 94.8101 106.441 92.3551L125.251 106.876C123.978 116.502 117.782 124.584 109.264 128.54Z" fill="#0081E5" fill-opacity="0.6"/>
<path d="M110.886 102.329C110.868 98.064 108.85 94.2675 105.718 91.8207L105.731 91.8055L106.44 92.3546C109.17 94.8096 110.886 98.3615 110.886 102.311C110.886 102.318 110.886 102.324 110.886 102.329Z" fill="#E5E5E4"/>
<path d="M100.142 155.813L100.049 155.742C128.142 154.366 150.497 131.265 150.497 102.969C150.497 99.3914 150.141 95.8993 149.459 92.5217L149.529 92.5759C150.212 95.9581 150.572 99.4579 150.572 103.041C150.572 131.33 128.228 154.429 100.142 155.813Z" fill="#E5E5E4"/>
<path d="M100.048 155.742L73.1436 134.971C79.9009 140.077 88.3301 143.107 97.47 143.107C119.708 143.107 137.734 125.17 137.734 103.042C137.734 92.0268 133.266 82.0488 126.036 74.8066C125.291 74.0561 124.513 73.3334 123.711 72.6433L149.46 92.522C150.141 95.8986 150.498 99.3927 150.498 102.969C150.498 131.264 128.143 154.366 100.048 155.742Z" fill="#0081E6" fill-opacity="0.6"/>
<path d="M126.036 74.8071C125.246 74.0168 124.424 73.2581 123.572 72.5356L123.712 72.6426C124.514 73.3335 125.29 74.056 126.036 74.8071Z" fill="#E5E5E4"/>
<path d="M97.3959 183.164C95.6583 183.164 93.9309 183.108 92.2208 183.002C91.9812 182.987 91.7399 182.971 91.502 182.953C91.7416 182.97 91.9812 182.987 92.2208 183.002C93.9309 183.108 95.6583 183.164 97.3959 183.164C99.1354 183.164 100.861 183.108 102.573 183.002C103.257 182.958 103.938 182.907 104.619 182.847C104.96 182.817 105.298 182.784 105.636 182.75C106.315 182.682 106.989 182.604 107.662 182.52C107.998 182.476 108.334 182.433 108.669 182.386C110.342 182.152 112.001 181.869 113.64 181.534C114.295 181.4 114.949 181.259 115.599 181.11C117.548 180.662 119.472 180.145 121.363 179.559C121.681 179.461 121.994 179.361 122.308 179.26C123.249 178.956 124.184 178.636 125.109 178.297C125.418 178.185 125.725 178.07 126.033 177.955C155.181 166.928 176.237 139.557 177.89 107.093C177.942 106.069 177.974 105.038 177.988 104.004C177.993 103.659 177.995 103.313 177.995 102.966C177.995 103.313 177.993 103.659 177.988 104.004C177.974 105.038 177.942 106.069 177.89 107.093C176.237 139.557 155.181 166.928 126.033 177.955C125.725 178.07 125.418 178.185 125.109 178.297C124.184 178.636 123.249 178.956 122.308 179.26C121.994 179.361 121.681 179.461 121.363 179.559C119.472 180.145 117.548 180.662 115.599 181.11C114.949 181.259 114.295 181.4 113.64 181.534C112.001 181.869 110.342 182.152 108.669 182.386C108.334 182.433 107.998 182.476 107.662 182.52C106.989 182.604 106.315 182.682 105.636 182.75C105.298 182.784 104.96 182.817 104.619 182.847C103.938 182.907 103.257 182.958 102.573 183.002C100.861 183.108 99.1354 183.164 97.3959 183.164ZM176.737 88.77C176.733 88.7546 176.73 88.7409 176.728 88.7254C176.73 88.7409 176.733 88.7546 176.737 88.77Z" fill="#E3E2E0"/>
<path d="M97.3961 183.164C95.6584 183.164 93.931 183.108 92.2209 183.002C91.9813 182.987 91.7417 182.97 91.5021 182.953C91.4814 182.952 91.4624 182.95 91.4434 182.948L54.7981 154.658L54.8748 154.558C66.4468 164.012 81.2552 169.687 97.3961 169.687C120.651 169.687 141.14 157.909 153.168 140.02C160.296 129.421 164.45 116.677 164.45 102.966C164.45 87.7288 159.317 73.6837 150.676 62.4501C150.676 62.4484 150.673 62.4467 150.673 62.445C150.664 62.4347 150.656 62.4227 150.647 62.4124C150.645 62.4089 150.642 62.4055 150.639 62.4021C150.632 62.3918 150.623 62.3798 150.614 62.3712C150.611 62.3661 150.611 62.3644 150.606 62.3592C150.599 62.3489 150.59 62.3386 150.582 62.3283C150.58 62.3266 150.58 62.3249 150.578 62.3249C150.561 62.3009 150.542 62.2751 150.523 62.2511C150.521 62.2494 150.521 62.2494 150.52 62.2477C150.513 62.2391 150.504 62.2271 150.497 62.2186C150.494 62.2134 150.49 62.21 150.487 62.2048C150.478 62.1963 150.473 62.1877 150.466 62.1774C150.461 62.1705 150.458 62.1671 150.452 62.1602C150.445 62.1516 150.439 62.1448 150.432 62.1362C150.427 62.1276 150.423 62.1225 150.418 62.1156C150.411 62.1088 150.406 62.1002 150.399 62.0916C150.392 62.083 150.387 62.0779 150.378 62.0676C150.371 62.0573 150.364 62.047 150.356 62.0367C150.349 62.0281 150.34 62.0161 150.333 62.0076C150.328 62.0024 150.323 61.9956 150.318 61.9887C150.311 61.9801 150.306 61.9715 150.299 61.9647C150.294 61.9578 150.289 61.9527 150.283 61.9458C150.277 61.9355 150.271 61.9287 150.263 61.9184C150.259 61.9132 150.254 61.9064 150.249 61.9012C150.242 61.8909 150.235 61.8823 150.227 61.872C150.223 61.8686 150.22 61.8635 150.214 61.8583C150.204 61.8446 150.194 61.8292 150.183 61.8172C150.182 61.8154 150.182 61.8154 150.18 61.8137C150.17 61.8 150.158 61.7846 150.146 61.7691C150.144 61.7674 150.14 61.7623 150.139 61.7606C150.128 61.7486 150.12 61.7365 150.109 61.7245C150.108 61.7211 150.104 61.716 150.101 61.7142C150.092 61.7022 150.082 61.6902 150.073 61.6782C150.071 61.6748 150.068 61.6714 150.066 61.6696C150.054 61.6542 150.046 61.6439 150.033 61.6285C150.033 61.6268 150.032 61.6268 150.032 61.625C150.006 61.5924 149.982 61.5633 149.956 61.5324C149.944 61.5153 149.934 61.5033 149.921 61.4861C149.92 61.4844 149.92 61.4844 149.918 61.4827C149.906 61.4672 149.896 61.4535 149.884 61.4398C149.882 61.4381 149.882 61.4381 149.88 61.4364C146.172 56.8033 141.859 52.6728 137.058 49.1632L137.096 49.1135L173.839 77.4815C175.064 81.1197 176.035 84.8745 176.728 88.7254C176.73 88.7408 176.733 88.7545 176.737 88.77C176.914 89.758 177.073 90.7512 177.214 91.7512C177.307 92.4185 177.392 93.0857 177.469 93.7581C177.547 94.4288 177.616 95.1029 177.676 95.7788C177.705 96.1184 177.735 96.4563 177.761 96.796C177.812 97.4752 177.855 98.1562 177.89 98.8406C177.961 100.206 177.995 101.582 177.995 102.966C177.995 103.312 177.993 103.659 177.988 104.004C177.974 105.038 177.942 106.069 177.89 107.093C176.237 139.557 155.181 166.928 126.033 177.955C125.725 178.07 125.418 178.185 125.109 178.297C124.184 178.636 123.249 178.956 122.308 179.26C121.994 179.361 121.681 179.461 121.363 179.559C119.472 180.145 117.548 180.662 115.599 181.11C114.949 181.259 114.295 181.4 113.64 181.534C112.001 181.869 110.343 182.152 108.669 182.386C108.334 182.433 107.998 182.476 107.662 182.52C106.99 182.604 106.315 182.682 105.636 182.75C105.298 182.784 104.961 182.817 104.619 182.847C103.938 182.907 103.257 182.958 102.573 183.002C100.861 183.108 99.1355 183.164 97.3961 183.164Z" fill="#0081E5" fill-opacity="0.6"/>
<path d="M97.3953 169.688C81.2545 169.688 66.4468 164.013 54.874 154.559L54.8749 154.558C66.4468 164.013 81.2562 169.688 97.3953 169.688C120.649 169.688 141.14 157.91 153.167 140.021C141.14 157.91 120.649 169.688 97.3953 169.688ZM150.675 62.4527C150.673 62.451 150.673 62.4494 150.672 62.4461C150.673 62.4477 150.675 62.451 150.675 62.4527ZM150.647 62.413C150.643 62.4097 150.642 62.4081 150.638 62.4031C150.64 62.4064 150.643 62.4097 150.647 62.413ZM150.614 62.3717C150.61 62.3684 150.609 62.3651 150.605 62.3618C150.609 62.3651 150.61 62.3668 150.614 62.3717ZM150.582 62.3288C150.58 62.3288 150.579 62.3255 150.579 62.3255C150.579 62.3271 150.58 62.3271 150.582 62.3288ZM150.522 62.2528C150.521 62.2512 150.521 62.2512 150.519 62.2495C150.521 62.2512 150.521 62.2512 150.522 62.2528ZM150.497 62.2198C150.492 62.2148 150.489 62.2115 150.486 62.2066C150.489 62.2115 150.492 62.2148 150.497 62.2198ZM150.464 62.1785C150.459 62.1735 150.456 62.1669 150.451 62.162C150.456 62.1686 150.459 62.1719 150.464 62.1785ZM150.431 62.1372C150.428 62.1306 150.421 62.1223 150.416 62.1174C150.423 62.124 150.426 62.1289 150.431 62.1372ZM150.398 62.0942C150.391 62.0843 150.386 62.0777 150.378 62.0678C150.386 62.0794 150.391 62.0843 150.398 62.0942ZM150.355 62.0381C150.348 62.0298 150.34 62.0183 150.333 62.01C150.34 62.0183 150.348 62.0298 150.355 62.0381ZM150.318 61.9902C150.311 61.9819 150.303 61.9737 150.298 61.9654C150.305 61.9737 150.311 61.9819 150.318 61.9902ZM150.283 61.9456C150.277 61.9373 150.27 61.9291 150.262 61.9208C150.27 61.9307 150.275 61.9373 150.283 61.9456ZM150.248 61.9026C150.242 61.8944 150.233 61.8828 150.227 61.8746C150.233 61.8828 150.24 61.8927 150.248 61.9026ZM150.213 61.858C150.204 61.8448 150.192 61.8316 150.182 61.8184C150.192 61.8316 150.204 61.8465 150.213 61.858ZM150.18 61.8151C150.169 61.8002 150.157 61.7854 150.144 61.7705C150.157 61.7854 150.169 61.8002 150.18 61.8151ZM150.137 61.7622C150.127 61.749 150.119 61.7375 150.109 61.7259C150.119 61.7375 150.127 61.749 150.137 61.7622ZM150.101 61.716C150.092 61.7044 150.081 61.6912 150.072 61.6796C150.081 61.6912 150.092 61.7044 150.101 61.716ZM150.064 61.6697C150.054 61.6565 150.044 61.6433 150.033 61.6301C150.044 61.645 150.054 61.6549 150.064 61.6697ZM150.031 61.6251C150.006 61.5938 149.981 61.564 149.956 61.5326C149.981 61.564 150.006 61.5938 150.031 61.6251ZM149.956 61.5326C149.945 61.5178 149.931 61.5029 149.92 61.4864C149.933 61.5046 149.943 61.5161 149.956 61.5326ZM149.916 61.4847C149.905 61.4699 149.893 61.455 149.881 61.4401C149.895 61.455 149.905 61.4682 149.916 61.4847ZM149.88 61.4385C146.171 56.8035 141.858 52.674 137.056 49.164C141.858 52.674 146.171 56.8035 149.88 61.4385Z" fill="#E5E5E4"/>
<path d="M184.98 0.412003L185.002 15.8943L200.393 15.8007L176.73 39.346L164.736 39.0534L99.98 103.488C99.1605 104.303 97.8194 104.303 96.9998 103.488L96.8293 103.318C96.0097 102.502 96.0097 101.168 96.8293 100.352L161.617 35.8871L161.235 24.0393L184.98 0.412003Z" fill="#545C74"/>
<path d="M185.001 15.8945L200.392 15.8035L176.729 39.3492L164.736 39.054L99.9802 103.488C99.1592 104.303 97.8175 104.303 96.9983 103.488L96.9143 103.404L185.001 15.7552V15.8945Z" fill="#2C3139"/>
</g>
<defs>
<clipPath id="clip0">
<rect width="200" height="200" fill="white" transform="matrix(1 0 0 -1 0 200)"/>
</clipPath>
</defs>
</svg>
