<svg id="Capa_1" enable-background="new 0 0 512 512" height="512" viewBox="0 0 512 512" width="512" xmlns="http://www.w3.org/2000/svg"><g><path d="m470.62 324.52-102.249-115.748c-2.371-2.684-5.786-4.224-9.367-4.224-3.583 0-6.997 1.539-9.369 4.224l-23.494 26.596v-94.622h31.552c4.981 0 9.348-2.821 11.396-7.362s1.271-9.681-2.027-13.414l-102.25-115.745c-2.37-2.685-5.785-4.225-9.366-4.225-.001 0-.001 0-.002 0-3.582 0-6.996 1.539-9.368 4.224l-23.472 26.571c-2.737 3.098-2.443 7.828.654 10.565 3.097 2.736 7.828 2.443 10.565-.655l21.622-24.476 96.773 109.549h-33.562c-4.134 0-7.485 3.351-7.485 7.484v119.052l-63.783 72.205c-3.299 3.733-4.076 8.873-2.028 13.414 2.047 4.541 6.415 7.362 11.396 7.362h31.552v151.735h-64.615v-301.168h31.552c4.982 0 9.349-2.821 11.396-7.362 2.048-4.541 1.271-9.681-2.027-13.414l-74.75-84.619 20.96-23.727c2.737-3.098 2.443-7.828-.654-10.565-3.099-2.737-7.829-2.444-10.565.654l-19.728 22.332-17.512-19.824c-2.371-2.684-5.786-4.224-9.367-4.224-3.583 0-6.997 1.54-9.368 4.224h-.001l-102.249 115.749c-3.298 3.733-4.075 8.873-2.027 13.414 2.047 4.541 6.414 7.362 11.395 7.362h31.552v308.654c0 4.134 3.351 7.485 7.485 7.485h332.43c4.134 0 7.485-3.351 7.485-7.485v-62.176c0-4.134-3.351-7.484-7.485-7.484s-7.484 3.351-7.484 7.484v54.691h-111.454v-159.22c0-4.134-3.351-7.485-7.485-7.485h-33.562l96.773-109.549 96.772 109.549h-33.561c-4.134 0-7.484 3.351-7.484 7.485v69.99c0 4.134 3.35 7.485 7.484 7.485s7.485-3.351 7.485-7.485v-62.505h31.552c4.981 0 9.348-2.821 11.395-7.362 2.049-4.542 1.272-9.682-2.026-13.414zm-261.897-136.143v308.654h-111.453v-308.654c0-4.134-3.35-7.485-7.484-7.485h-33.562l96.773-109.549 96.772 109.549h-33.562c-4.133.001-7.484 3.352-7.484 7.485z"/></g></svg>