<svg width="64" height="85" viewBox="0 0 64 85" fill="none" xmlns="http://www.w3.org/2000/svg">
<path d="M6.69989 60.3479C9.48525 68.2041 5.11851 82.6632 5.11851 82.6632H30.3641V38.2422L2.65796 43.612C2.65836 43.6116 4.18156 53.2445 6.69989 60.3479Z" fill="#432B1F"/>
<path d="M54.0531 60.3479C51.2677 68.2041 55.6349 82.6632 55.6349 82.6632H30.3889V38.2422L58.0946 43.612C58.0946 43.6116 56.5718 53.2445 54.0531 60.3479Z" fill="#432B1F"/>
<path d="M36.2222 64.1816H24.5073V77.4487H36.2222V64.1816Z" fill="#FDCC9B"/>
<path d="M24.5073 65.7444C24.5073 65.7444 29.4352 68.9176 36.2222 68.1825V64.1816H24.5073V65.7444Z" fill="#FCBC85"/>
<path d="M7.61462 50.2026C10.7716 50.2026 13.3308 47.2501 13.3308 43.6081C13.3308 39.9661 10.7716 37.0137 7.61462 37.0137C4.45766 37.0137 1.89844 39.9661 1.89844 43.6081C1.89844 47.2501 4.45766 50.2026 7.61462 50.2026Z" fill="#FCBC85"/>
<path d="M53.1144 50.2026C56.2713 50.2026 58.8306 47.2501 58.8306 43.6081C58.8306 39.9661 56.2713 37.0137 53.1144 37.0137C49.9574 37.0137 47.3982 39.9661 47.3982 43.6081C47.3982 47.2501 49.9574 50.2026 53.1144 50.2026Z" fill="#FCBC85"/>
<path d="M53.0913 31.0143C53.0913 21.3012 46.0624 14.1934 30.3649 14.1934C14.6666 14.1934 7.63807 21.3008 7.63807 31.0143C7.63807 40.7279 5.99811 66.3146 30.3649 66.3146C54.7313 66.3142 53.0913 40.7279 53.0913 31.0143Z" fill="#FDCC9B"/>
<path d="M19.2951 44.7577C20.6539 44.7577 21.7553 43.5379 21.7553 42.0331C21.7553 40.5284 20.6539 39.3086 19.2951 39.3086C17.9364 39.3086 16.835 40.5284 16.835 42.0331C16.835 43.5379 17.9364 44.7577 19.2951 44.7577Z" fill="#3B2519"/>
<path d="M18.2225 41.5757C18.6288 41.5757 18.9582 41.2427 18.9582 40.8318C18.9582 40.421 18.6288 40.0879 18.2225 40.0879C17.8162 40.0879 17.4868 40.421 17.4868 40.8318C17.4868 41.2427 17.8162 41.5757 18.2225 41.5757Z" fill="white"/>
<path d="M15.3597 36.1586C16.5226 36.6091 18.3909 34.628 22.6664 36.3512C23.4459 36.6655 23.9114 33.6641 19.3279 33.6641C15.3597 33.6641 14.6567 35.8865 15.3597 36.1586Z" fill="#51362A"/>
<path d="M41.738 44.7577C43.0967 44.7577 44.1981 43.5379 44.1981 42.0331C44.1981 40.5284 43.0967 39.3086 41.738 39.3086C40.3793 39.3086 39.2778 40.5284 39.2778 42.0331C39.2778 43.5379 40.3793 44.7577 41.738 44.7577Z" fill="#3B2519"/>
<path d="M40.6653 41.5765C41.0718 41.5765 41.4014 41.2432 41.4014 40.8322C41.4014 40.4211 41.0718 40.0879 40.6653 40.0879C40.2588 40.0879 39.9292 40.4211 39.9292 40.8322C39.9292 41.2432 40.2588 41.5765 40.6653 41.5765Z" fill="white"/>
<path d="M45.3698 36.1585C44.2065 36.609 42.339 34.628 38.0627 36.3511C37.2836 36.6654 36.8181 33.6641 41.4016 33.6641C45.3698 33.6641 46.0724 35.8864 45.3698 36.1585Z" fill="#51362A"/>
<path d="M30.3645 51.6124C27.9335 51.6124 26.4692 49.7763 26.4692 50.6645C26.4692 51.5531 27.1723 53.2413 30.3645 53.2413C33.5568 53.2413 34.2594 51.5531 34.2594 50.6645C34.2598 49.7763 32.7956 51.6124 30.3645 51.6124Z" fill="#FCBC85"/>
<path d="M30.3646 59.7808C29.524 59.7808 29.0171 59.1457 29.0171 59.4532C29.0171 59.7607 29.2602 60.3442 30.3646 60.3442C31.4689 60.3442 31.712 59.7607 31.712 59.4532C31.712 59.1457 31.2055 59.7808 30.3646 59.7808Z" fill="#FCBC85"/>
<path d="M30.3644 57.5172C26.5114 57.5172 24.1899 55.9311 24.1899 56.3329C24.1899 56.7351 25.3042 58.3171 30.3644 58.3171C35.4246 58.3171 36.5385 56.7351 36.5385 56.3329C36.5385 55.9307 34.2175 57.5172 30.3644 57.5172Z" fill="#F7945E"/>
<path d="M16.1314 54.1157C17.9754 54.1157 19.4703 52.6041 19.4703 50.7395C19.4703 48.8749 17.9754 47.3633 16.1314 47.3633C14.2874 47.3633 12.7925 48.8749 12.7925 50.7395C12.7925 52.6041 14.2874 54.1157 16.1314 54.1157Z" fill="#F9AA8D"/>
<path d="M45.0082 54.1111C46.852 54.1111 48.3467 52.5997 48.3467 50.7352C48.3467 48.8708 46.852 47.3594 45.0082 47.3594C43.1644 47.3594 41.6697 48.8708 41.6697 50.7352C41.6697 52.5997 43.1644 54.1111 45.0082 54.1111Z" fill="#F9AA8D"/>
<path d="M30.3643 69.5137V84.4395H4.70947C4.70947 78.3979 16.8923 69.5137 30.3643 69.5137Z" fill="#694B74"/>
<path d="M30.3643 69.5137V84.4395H56.0187C56.0187 78.3979 43.8363 69.5137 30.3643 69.5137Z" fill="#694B74"/>
<path d="M30.2882 69.5137C27.3904 69.5137 24.4237 69.9187 21.5471 70.6098C21.5666 70.6352 24.7378 74.7259 30.2882 74.7259C35.4285 74.7259 38.8455 71.2227 39.3409 70.6839C36.3678 69.9461 33.2907 69.5137 30.2882 69.5137Z" fill="#563C60"/>
<path d="M24.5066 70.0295C24.5066 70.0295 26.2199 72.1782 30.3639 72.1782C34.5078 72.1782 36.2211 70.0295 36.2211 70.0295C36.2211 70.0295 30.1443 67.7922 24.5066 70.0295Z" fill="#FDCC9B"/>
<path d="M50.9824 10.5225C36.2215 -7.24632 8.1061 -0.138881 1.89774 24.3819C-4.31022 48.9023 6.70008 60.3471 6.70008 60.3471C2.47801 45.8965 12.3234 30.9562 20.758 30.7785C29.1929 30.6008 42.5478 25.8033 42.5478 25.8033C42.5478 25.8033 44.7896 37.3375 52.0369 41.5729C57.4845 44.7564 55.4153 54.1145 54.0092 60.3471C59.2807 58.3197 74.8805 17.8076 50.9824 10.5225Z" fill="#51362A"/>
</svg>
