<svg width="84" height="84" viewBox="0 0 84 84" fill="none" xmlns="http://www.w3.org/2000/svg">
<g clip-path="url(#clip0)">
<path d="M68.9148 56.6159C51.9792 48.0187 31.9578 48.0187 15.0229 56.6159C11.3423 58.484 9.02368 62.2613 9.02368 66.3885V82.3205C9.02368 83.2485 9.77606 84.0003 10.704 84.0003H73.2337C74.1616 84.0003 74.914 83.2485 74.914 82.3205V66.3885C74.9134 62.2613 72.5947 58.484 68.9148 56.6159Z" fill="#D7DEE3"/>
<path d="M68.9146 56.6146C67.4688 55.8808 65.9993 55.2137 64.5125 54.6055V64.114C66.0691 66.0187 66.9644 68.4329 66.9644 70.9835V83.9989H73.2334C74.1614 83.9989 74.9131 83.2465 74.9131 82.3186V66.3872C74.9131 62.26 72.5945 58.4827 68.9146 56.6146Z" fill="#CCD2D6"/>
<path d="M41.9708 55.0929L49.0569 48.931V38.0195H34.8809V48.9278L41.9708 55.0929Z" fill="#EBAE6D"/>
<path d="M26.97 17.9961H24.3931C22.2058 17.9961 20.4351 19.7694 20.4351 21.956V23.8293C20.4351 26.0159 22.2058 27.7892 24.3931 27.7892H26.97V17.9961Z" fill="#DD9554"/>
<path d="M56.967 17.9961H59.5446C61.7313 17.9961 63.502 19.7694 63.502 21.956V23.8293C63.502 26.0159 61.7313 27.7892 59.5446 27.7892H56.967V17.9961Z" fill="#DD9554"/>
<path d="M41.9686 0.482422C32.7433 0.486908 25.2714 7.97546 25.2893 17.2014L25.3137 30.3764C25.3137 40.704 36.9435 45.715 41.9686 45.8085C46.9937 45.715 58.6229 40.704 58.6229 30.3764L58.6479 17.2014C58.6652 7.97546 51.1933 0.486908 41.9686 0.482422Z" fill="#EBAE6D"/>
<path d="M50.271 2.69727L50.2492 30.3777C50.2492 38.3821 43.2644 43.1919 37.7817 44.9946C39.373 45.5182 40.838 45.7887 41.9685 45.8098C46.9936 45.7162 58.6228 40.7053 58.6228 30.3777L58.6478 17.2027C58.6593 11.0004 55.2864 5.5831 50.271 2.69727Z" fill="#DD9554"/>
<path d="M43.4495 31.2117H42.2229C41.2013 31.2117 40.3701 30.3805 40.3701 29.3583V25.6368C40.3701 24.9363 40.9373 24.3691 41.6378 24.3691C42.3376 24.3691 42.9054 24.9363 42.9054 25.6368V28.6764H43.4495C44.1493 28.6764 44.7171 29.2442 44.7171 29.9441C44.7171 30.6439 44.15 31.2117 43.4495 31.2117Z" fill="#D08F61"/>
<path d="M41.969 39.2879C39.1601 39.2879 36.6171 38.026 35.3315 35.9945C34.9573 35.4029 35.1335 34.6198 35.725 34.2455C36.3165 33.8713 37.099 34.0469 37.474 34.639C38.2866 35.9233 40.0509 36.7526 41.969 36.7526C43.8865 36.7526 45.6508 35.9233 46.4634 34.6384C46.8383 34.0469 47.6208 33.8713 48.213 34.2455C48.8045 34.6198 48.9801 35.4029 48.6059 35.9945C47.3203 38.026 44.7773 39.2879 41.969 39.2879Z" fill="#C35F58"/>
<path d="M50.4897 25.1353C49.7898 25.1353 49.2227 24.5681 49.2227 23.8677V22.1719C49.2227 21.4721 49.7898 20.9043 50.4897 20.9043C51.1901 20.9043 51.7573 21.4721 51.7573 22.1719V23.8677C51.7573 24.5681 51.1901 25.1353 50.4897 25.1353Z" fill="#844535"/>
<path d="M33.4471 25.1353C32.7466 25.1353 32.1794 24.5681 32.1794 23.8677V22.1719C32.1794 21.4721 32.7473 20.9043 33.4471 20.9043C34.1469 20.9043 34.7147 21.4721 34.7147 22.1719V23.8677C34.7147 24.5681 34.1476 25.1353 33.4471 25.1353Z" fill="#844535"/>
<path d="M64.5125 54.603C61.7516 53.4731 58.9267 52.5592 56.062 51.8613L42.9268 70.3363C42.3019 71.2156 40.992 71.2028 40.3844 70.312L27.8054 51.8786C24.9645 52.574 22.1626 53.4821 19.4248 54.603V84.0003H64.5125V54.603Z" fill="#D08F61"/>
<path d="M64.5123 54.603C64.1707 54.4633 63.8278 54.3268 63.4843 54.1935C63.4779 54.1909 63.4709 54.1883 63.4638 54.1858C62.0834 53.6513 60.6882 53.17 59.2809 52.7419C59.2706 52.7387 59.2604 52.7355 59.2501 52.7329C58.194 52.4125 57.1308 52.1215 56.0618 51.8613L51.9775 57.6061C55.0435 58.5757 58.0504 59.7985 60.9651 61.2783C62.3603 61.9762 63.56 62.9503 64.5117 64.1154V54.603H64.5123Z" fill="#C67F4F"/>
<path d="M58.057 3.25748C51.697 -1.93932 44.2917 0.640174 44.2917 0.640174C55.8184 3.77338 58.6472 17.984 58.6472 17.984C58.6472 17.984 61.5106 18.2141 62.4937 15.6045C63.6088 12.6424 62.0111 6.48939 58.057 3.25748Z" fill="#CCD2D6"/>
<path d="M25.8809 3.25748C32.2403 -1.93932 39.6455 0.640174 39.6455 0.640174C28.1188 3.77338 25.29 17.984 25.29 17.984C25.29 17.984 22.4266 18.2141 21.4442 15.6045C20.3284 12.6424 21.9261 6.48939 25.8809 3.25748Z" fill="#D7DEE3"/>
<path d="M41.9685 45.8087C41.6993 45.8036 41.4109 45.7837 41.1072 45.751V50.8004C41.1072 52.2353 41.6942 53.5472 42.6568 54.4976L49.0559 48.9323V43.8047C46.4052 45.1133 43.7649 45.7754 41.9685 45.8087Z" fill="#DD9554"/>
<path d="M50.4109 59.8102L56.0627 51.8608L51.9804 48.6667C51.1518 48.0566 50.011 48.1021 49.2343 48.7776L41.9688 55.0953L49.4682 59.6519C49.7604 59.8294 50.0982 59.8775 50.4109 59.8102Z" fill="#B2B9BF"/>
<path d="M51.982 57.5998L56.0605 51.8595L51.9801 48.6667C51.1515 48.0566 50.0101 48.1021 49.2333 48.7776L42.6567 54.4967C43.3777 55.2081 44.3076 55.7163 45.3618 55.9207C47.5901 56.3533 49.7986 56.916 51.9775 57.6056L51.982 57.5998Z" fill="#A0A9AF"/>
<path d="M34.473 59.6518L41.9718 55.0959L34.7069 48.7776C33.9302 48.1021 32.7888 48.0566 31.9602 48.6667L27.8054 51.8781L33.0932 59.6269C33.4983 59.8935 34.0353 59.9178 34.473 59.6518Z" fill="#B2B9BF"/>
</g>
<defs>
<clipPath id="clip0">
<rect width="84" height="84" fill="white"/>
</clipPath>
</defs>
</svg>
