<svg width="140" height="140" viewBox="0 0 140 140" fill="none" xmlns="http://www.w3.org/2000/svg">
<g clip-path="url(#clip0)">
<path d="M106.207 15.6895C120.872 15.6895 132.759 27.5772 132.759 42.2411C132.759 59.1376 135.173 76.0341 135.173 76.0341C135.173 76.0341 123.104 83.2755 106.208 85.6891C89.3111 83.2752 77.2422 76.0341 77.2422 76.0341C77.2422 76.0341 79.6561 59.1376 79.6561 42.2411C79.6555 27.5772 91.5432 15.6895 106.207 15.6895Z" fill="#D59F63"/>
<path d="M96.5506 39.8275V32.586C96.5506 24.3807 102.401 17.547 110.157 16.0152C108.865 15.8219 107.552 15.6895 106.206 15.6895H106.206C91.5415 15.6895 79.6541 27.5772 79.6541 42.2411C79.6541 59.1376 77.2402 76.0341 77.2402 76.0341C77.2402 76.0341 89.3092 83.2755 106.206 85.6891V49.4828L96.5506 39.8275Z" fill="#CD915A"/>
<path d="M135.448 93.5239L118.897 86.9035C117.064 86.1704 115.862 84.3952 115.862 82.4213V73.6207H96.552V82.4213C96.552 84.3952 95.3502 86.1704 93.5174 86.9035L76.966 93.5239C74.2168 94.6237 72.4141 97.2864 72.4141 100.247V109.827C72.4141 111.16 73.4947 112.241 74.828 112.241V133.965H135.173C136.506 133.965 137.587 132.885 137.587 131.551V112.241C138.92 112.241 140.001 111.16 140.001 109.827V100.247C140 97.2862 138.198 94.6234 135.448 93.5239Z" fill="#FAD7A5"/>
<path d="M137.585 109.827V117.069H135.171C133.838 117.069 132.757 118.149 132.757 119.483V133.966H125.516V109.828H137.585V109.827Z" fill="#F0C891"/>
<path d="M96.5511 81.432C99.5479 82.6075 102.797 83.2761 106.206 83.2761C109.615 83.2761 112.864 82.6075 115.861 81.432V73.621H96.5508V81.432H96.5511Z" fill="#F0C891"/>
<path d="M106.206 78.4482C94.2086 78.4482 84.4824 68.7221 84.4824 56.7242V49.2826C84.4824 48.0965 85.3569 47.0973 86.5288 46.9152C92.0708 46.0542 94.7549 41.7828 95.8735 39.2699C96.2503 38.4234 97.3009 38.1488 98.0405 38.7069C108.267 46.4222 127.931 40.6491 127.931 56.7245C127.93 68.7218 118.204 78.4482 106.206 78.4482Z" fill="#FFE1B4"/>
<path d="M96.5514 56.724V38.6C96.2692 38.7425 96.0163 38.9492 95.8735 39.2697C94.7549 41.7825 92.0708 46.0539 86.5288 46.9149C85.3566 47.0971 84.4824 48.0965 84.4824 49.2824V56.724C84.4824 68.7218 94.2086 78.448 106.206 78.448C108.303 78.448 110.323 78.1349 112.241 77.5809C103.182 74.9638 96.5514 66.6257 96.5514 56.724Z" fill="#FAD098"/>
<path d="M106.207 68.7929C103.651 68.7929 101.209 67.5873 99.5049 65.4857C98.6632 64.4496 98.8237 62.9304 99.8584 62.0902C100.898 61.251 102.416 61.4112 103.253 62.4448C104.846 64.4059 107.567 64.4059 109.16 62.4448C109.997 61.4112 111.517 61.251 112.554 62.0902C113.589 62.9304 113.75 64.4496 112.908 65.4857C111.204 67.5873 108.762 68.7929 106.207 68.7929Z" fill="#D7AF7D"/>
<path d="M115.861 56.724C114.527 56.724 113.447 55.6431 113.447 54.3101V51.8962C113.447 50.5631 114.527 49.4823 115.861 49.4823C117.195 49.4823 118.275 50.5631 118.275 51.8962V54.3101C118.275 55.6433 117.195 56.724 115.861 56.724Z" fill="#64463C"/>
<path d="M96.5506 56.724C95.2165 56.724 94.1367 55.6431 94.1367 54.3101V51.8962C94.1367 50.5631 95.2162 49.4823 96.5506 49.4823C97.885 49.4823 98.9645 50.5631 98.9645 51.8962V54.3101C98.9645 55.6433 97.885 56.724 96.5506 56.724Z" fill="#64463C"/>
<path d="M135.448 93.5239L125.152 89.4054C123.419 98.2908 115.6 105 106.207 105C96.8142 105 88.9956 98.2908 87.2622 89.4054L76.966 93.5239C74.2168 94.6237 72.4141 97.2864 72.4141 100.247V133.965H84.483H127.931V112.241H137.586C138.919 112.241 140 111.161 140 109.827V100.247C140 97.2861 138.197 94.6234 135.448 93.5239Z" fill="#FF507D"/>
<path d="M125.152 89.4054C123.419 98.2908 115.6 105 106.207 105C96.8144 105 88.9957 98.2908 87.2624 89.4054L82.7305 91.218C85.2332 101.88 94.7817 109.827 106.207 109.827C117.633 109.827 127.181 101.88 129.684 91.218L125.152 89.4054Z" fill="#D23C69"/>
<path d="M127.932 109.413C127.932 108.133 128.44 106.905 129.346 106L138.902 96.4429C139.597 97.5642 140.001 98.8693 140.001 100.247V109.827C140.001 111.16 138.92 112.241 137.587 112.241H127.932V109.413Z" fill="#D23C69"/>
<path d="M16.8969 133.965H4.82796C3.49496 133.965 2.41406 132.885 2.41406 131.551V102.586H16.8969V133.965Z" fill="#B48764"/>
<path d="M2.41406 107.414V112.241H7.24159C8.5746 112.241 9.6555 113.322 9.6555 114.655V133.966H16.8969V107.414H2.41406V107.414Z" fill="#966D50"/>
<path d="M69.9985 102.586H55.5156V133.965H69.9985V102.586Z" fill="#966D50"/>
<path d="M67.0776 76.9927L45.8619 71.2065H26.5515L5.33585 76.9927C2.18558 77.8522 0 80.7134 0 83.9791V105C0 106.333 1.08062 107.414 2.4139 107.414H14.4829V133.965H57.9312V101.983H72.4138V83.9791C72.4138 80.7134 70.2282 77.8522 67.0776 76.9927Z" fill="#00AAF0"/>
<path d="M45.8611 71.2068H26.5507L17.0879 73.7875C18.3523 83.229 26.4184 90.5172 36.2061 90.5172C45.9937 90.5172 54.0599 83.229 55.3242 73.7875L45.8611 71.2068Z" fill="#0096DC"/>
<path d="M24.1387 62.7584V71.2068C24.1387 77.8724 29.5421 83.2758 36.2076 83.2758C42.8732 83.2758 48.2766 77.8724 48.2766 71.2068V62.7584H24.1387Z" fill="#B48764"/>
<path d="M24.1387 68.2835C27.7639 70.1431 31.8611 71.2068 36.2076 71.2068C40.5542 71.2068 44.6514 70.1431 48.2766 68.2835V62.7584H24.1387V68.2835Z" fill="#966D50"/>
<path d="M57.9318 34.9999V20.5171H14.4838V34.9999C11.8175 34.9999 9.65625 37.1612 9.65625 39.8275C9.65625 42.4937 11.8178 44.655 14.4838 44.655C14.4838 56.6529 24.2099 66.379 36.2078 66.379C48.2057 66.379 57.9318 56.6529 57.9318 44.655C60.5981 44.655 62.7593 42.4935 62.7593 39.8275C62.7593 37.1612 60.5981 34.9999 57.9318 34.9999Z" fill="#C39772"/>
<path d="M26.5525 44.655V20.5171H14.4838V34.9999C11.8175 34.9999 9.65625 37.1612 9.65625 39.8275C9.65625 42.4937 11.8178 44.655 14.4838 44.655C14.4838 56.6529 24.2099 66.379 36.2078 66.379C38.304 66.379 40.3244 66.0659 42.2423 65.5119C33.1836 62.8949 26.5525 54.5567 26.5525 44.655Z" fill="#B48764"/>
<path d="M36.2065 56.724C33.6512 56.724 31.2092 55.5184 29.5049 53.4167C28.6632 52.3807 28.8237 50.8615 29.8584 50.0212C30.898 49.1831 32.4159 49.3436 33.2528 50.3758C34.8464 52.3369 37.5666 52.3369 39.1599 50.3758C39.9991 49.3433 41.5172 49.1831 42.5543 50.0212C43.589 50.8615 43.7495 52.3807 42.9079 53.4167C41.2038 55.5184 38.7618 56.724 36.2065 56.724Z" fill="#966D50"/>
<path d="M26.5506 44.655C25.2165 44.655 24.1367 43.5741 24.1367 42.2411V39.8272C24.1367 38.4942 25.2162 37.4133 26.5506 37.4133C27.885 37.4133 28.9645 38.4942 28.9645 39.8272V42.2411C28.9645 43.5744 27.885 44.655 26.5506 44.655Z" fill="#553732"/>
<path d="M45.8612 44.655C44.5271 44.655 43.4473 43.5741 43.4473 42.2411V39.8272C43.4473 38.4942 44.5268 37.4133 45.8612 37.4133C47.1953 37.4133 48.2751 38.4942 48.2751 39.8272V42.2411C48.2751 43.5744 47.1953 44.655 45.8612 44.655Z" fill="#553732"/>
<path d="M52.4547 32.7025C53.1597 34.5693 55.1549 35.415 57.1204 35.0702C57.3832 35.024 57.6536 34.9999 57.9303 34.9999C58.8141 34.9999 59.6316 35.2548 60.3442 35.6696V20.5171C60.3442 16.9058 58.3383 13.7946 55.4021 12.1387C54.8536 8.68327 51.8852 6.03421 48.2752 6.03421H28.9649C19.6333 6.03421 12.0684 13.5991 12.0684 22.9307V35.6693C12.7809 35.2545 13.5982 34.9997 14.4823 34.9997C14.7926 34.9997 15.0953 35.0297 15.3879 35.0874C17.7386 35.5504 20.0926 34.251 20.6814 31.9284L21.275 29.5542C21.5372 28.5047 22.4573 27.7566 23.5385 27.7273C28.0294 27.6062 39.8843 27.0107 47.9674 24.0849C49.3985 23.567 50.9407 24.4384 51.1909 25.9396L52.0946 31.3624C52.172 31.8283 52.2937 32.276 52.4547 32.7025Z" fill="#64463C"/>
<path d="M26.5509 20.5171C26.5509 12.5185 33.035 6.03421 41.0338 6.03421H28.9648C19.6333 6.03421 12.0684 13.5988 12.0684 22.9307V35.6693C12.7809 35.2545 13.5982 34.9997 14.4823 34.9997C14.7926 34.9997 15.095 35.0297 15.3876 35.0874C17.7386 35.5501 20.0924 34.251 20.6811 31.9284L21.2747 29.5542C21.5369 28.5047 22.4568 27.7566 23.5382 27.7273C24.3306 27.706 25.3615 27.6685 26.5512 27.6073L26.5509 20.5171Z" fill="#553732"/>
<path d="M0 83.9788V105C0 106.333 1.08062 107.414 2.4139 107.414H14.4829V99.4857C14.4829 96.8019 13.5882 94.1947 11.9404 92.0761L1.88207 79.1439C0.71203 80.4413 0 82.1383 0 83.9788Z" fill="#0096DC"/>
<path d="M89.1858 120.246L81.3051 117.619C80.3193 117.29 79.6546 116.368 79.6546 115.329V109.828H65.172V115.329C65.172 116.368 64.5073 117.291 63.5216 117.619L55.6408 120.246C52.6839 121.232 50.6895 123.999 50.6895 127.116V131.552C50.6895 132.885 51.7701 133.966 53.1034 133.966H91.7239C93.0569 133.966 94.1378 132.885 94.1378 131.552V127.116C94.1372 123.999 92.1428 121.232 89.1858 120.246Z" fill="#E6AF78"/>
<path d="M65.1725 109.827V115.329C65.1725 115.467 65.1318 115.594 65.1094 115.726C67.2003 116.511 69.4269 116.989 71.7493 117.059C71.9707 117.065 72.1939 117.068 72.414 117.068C74.9824 117.068 77.4376 116.598 79.7265 115.776C79.6981 115.628 79.6554 115.484 79.6554 115.329V109.827H65.1725Z" fill="#D29B6E"/>
<path d="M72.4135 59.1379C60.4156 59.1379 50.6895 68.864 50.6895 80.8619V88.1033H94.1378V80.8619C94.1375 68.864 84.4113 59.1379 72.4135 59.1379Z" fill="#64463C"/>
<path d="M79.6549 60.4003C77.387 59.5975 74.9567 59.1379 72.4135 59.1379C60.4156 59.1379 50.6895 68.864 50.6895 80.8619V88.1033H65.1723V80.8619C65.1723 71.4072 71.2232 63.3857 79.6549 60.4003Z" fill="#553732"/>
<path d="M89.31 83.2758V81.1856C89.31 77.6238 85.5907 75.389 82.3748 76.9206C69.0603 83.2613 55.517 83.2758 55.517 83.2758C52.8507 83.2758 50.6895 85.437 50.6895 88.1033C50.6895 90.7696 52.851 92.9308 55.517 92.9308V94.636C55.517 103.888 62.646 111.955 71.8937 112.233C81.4626 112.521 89.31 104.849 89.31 95.3447V92.9308C91.9762 92.9308 94.1375 90.7693 94.1375 88.1033C94.1375 85.437 91.976 83.2758 89.31 83.2758Z" fill="#F0C087"/>
<path d="M85.2146 55.0311L72.4142 60.5171L59.6138 55.0311C58.8173 54.6899 57.9316 55.2739 57.9316 56.1404V66.9625C57.9316 67.8291 58.8176 68.4131 59.6138 68.0719L72.4142 62.5859L85.2146 68.0719C86.0112 68.4131 86.8968 67.8291 86.8968 66.9625V56.1404C86.8968 55.2742 86.0109 54.6899 85.2146 55.0311Z" fill="#FFDC64"/>
<path d="M65.172 95.3447V82.2671C59.4643 83.2624 55.517 83.2758 55.517 83.2758C52.8507 83.2758 50.6895 85.437 50.6895 88.1033C50.6895 90.7696 52.851 92.9308 55.517 92.9308V94.636C55.517 103.888 62.646 111.956 71.8937 112.233C73.7577 112.289 75.5528 112.035 77.241 111.532C70.2632 109.454 65.172 102.997 65.172 95.3447Z" fill="#E6AF78"/>
<path d="M72.4136 105C69.8583 105 67.4162 103.794 65.7119 101.693C64.8702 100.657 65.0308 99.1373 66.0654 98.297C67.1026 97.4589 68.6229 97.6195 69.4599 98.6517C71.0535 100.613 73.7736 100.613 75.3669 98.6517C76.2037 97.6192 77.7218 97.4589 78.7614 98.297C79.7961 99.1373 79.9566 100.657 79.115 101.693C77.4106 103.794 74.9686 105 72.4136 105Z" fill="#D29B6E"/>
<path d="M65.1734 92.9308C64.5464 92.9308 63.917 92.6645 63.4598 92.2308C63.0236 91.7723 62.7598 91.1442 62.7598 90.5172C62.7598 89.8891 63.0239 89.2619 63.4598 88.8036C64.3531 87.9103 65.9937 87.9103 66.887 88.8036C67.3207 89.2621 67.587 89.8891 67.587 90.5172C67.587 91.1442 67.3207 91.7726 66.887 92.2308C66.4274 92.6645 65.8004 92.9308 65.1734 92.9308Z" fill="#553732"/>
<path d="M79.6558 92.9308C79.0288 92.9308 78.3994 92.6645 77.9422 92.2308C77.7253 92.0129 77.5555 91.7477 77.4355 91.434C77.3152 91.1442 77.2422 90.8306 77.2422 90.5172C77.2422 90.2025 77.3152 89.8891 77.4355 89.599C77.5558 89.2854 77.7253 89.0204 77.9422 88.8036C78.8355 87.9103 80.4526 87.9103 81.3694 88.8036C81.5863 89.0439 81.7561 89.2856 81.8761 89.599C81.9964 89.8889 82.0694 90.2025 82.0694 90.5172C82.0694 91.1442 81.8031 91.7726 81.3694 92.2308C80.9101 92.6645 80.2828 92.9308 79.6558 92.9308Z" fill="#553732"/>
<path d="M89.1858 120.246L85.2497 118.934C82.832 123.561 77.9957 126.724 72.4132 126.724C66.8307 126.724 61.9944 123.561 59.577 118.934L55.6408 120.246C52.6839 121.232 50.6895 123.999 50.6895 127.116V131.552C50.6895 132.885 51.7701 133.966 53.1034 133.966H91.7239C93.0569 133.966 94.1378 132.885 94.1378 131.552V127.116C94.1372 123.999 92.1428 121.232 89.1858 120.246Z" fill="#FFDC64"/>
<path d="M72.4136 65.1712C74.4131 65.1712 76.0341 63.5503 76.0341 61.5507C76.0341 59.5511 74.4131 57.9301 72.4136 57.9301C70.414 57.9301 68.793 59.5511 68.793 61.5507C68.793 63.5503 70.414 65.1712 72.4136 65.1712Z" fill="#FFC850"/>
</g>
<defs>
<clipPath id="clip0">
<rect width="140" height="140" fill="white"/>
</clipPath>
</defs>
</svg>
