<svg width="60" height="85" viewBox="0 0 60 85" fill="none" xmlns="http://www.w3.org/2000/svg">
<path d="M36.2967 63.7051H24.1404V77.2889H36.2967V63.7051Z" fill="#FDCC9B"/>
<path d="M24.1406 65.3051C24.1406 65.3051 29.2538 68.5539 36.2965 67.8017V63.7051H24.1406V65.3051Z" fill="#FCBC85"/>
<path d="M6.61148 49.392C9.88738 49.392 12.543 46.3692 12.543 42.6404C12.543 38.9115 9.88738 35.8887 6.61148 35.8887C3.33558 35.8887 0.679932 38.9115 0.679932 42.6404C0.679932 46.3692 3.33558 49.392 6.61148 49.392Z" fill="#FCBC85"/>
<path d="M53.8258 49.392C57.1017 49.392 59.7574 46.3692 59.7574 42.6404C59.7574 38.9115 57.1017 35.8887 53.8258 35.8887C50.5499 35.8887 47.8943 38.9115 47.8943 42.6404C47.8943 46.3692 50.5499 49.392 53.8258 49.392Z" fill="#FCBC85"/>
<path d="M53.8019 29.745C53.8019 19.8003 46.5081 12.5234 30.2192 12.5234C13.9294 12.5234 6.63601 19.8003 6.63601 29.745C6.63601 39.6902 4.93425 65.8869 30.2192 65.8869C55.5036 65.8869 53.8019 39.6902 53.8019 29.745Z" fill="#FDCC9B"/>
<path d="M18.732 43.8173C20.1419 43.8173 21.2849 42.5684 21.2849 41.0278C21.2849 39.4872 20.1419 38.2383 18.732 38.2383C17.3221 38.2383 16.1792 39.4872 16.1792 41.0278C16.1792 42.5684 17.3221 43.8173 18.732 43.8173Z" fill="#3B2519"/>
<path d="M17.6189 40.5585C18.0405 40.5585 18.3823 40.2175 18.3823 39.7968C18.3823 39.3762 18.0405 39.0352 17.6189 39.0352C17.1973 39.0352 16.8555 39.3762 16.8555 39.7968C16.8555 40.2175 17.1973 40.5585 17.6189 40.5585Z" fill="white"/>
<path d="M14.6481 34.1123C15.8553 34.7147 17.7936 32.0659 22.2305 34.3702C23.0395 34.7902 23.5221 30.7773 18.7662 30.7773C14.6481 30.7773 13.919 33.7488 14.6481 34.1123Z" fill="#4C2D19"/>
<path d="M42.0211 43.8173C43.431 43.8173 44.5739 42.5684 44.5739 41.0278C44.5739 39.4872 43.431 38.2383 42.0211 38.2383C40.6112 38.2383 39.4683 39.4872 39.4683 41.0278C39.4683 42.5684 40.6112 43.8173 42.0211 43.8173Z" fill="#3B2519"/>
<path d="M40.9077 40.5585C41.3293 40.5585 41.6711 40.2175 41.6711 39.7968C41.6711 39.3762 41.3293 39.0352 40.9077 39.0352C40.4861 39.0352 40.1443 39.3762 40.1443 39.7968C40.1443 40.2175 40.4861 40.5585 40.9077 40.5585Z" fill="white"/>
<path d="M45.7889 34.1123C44.5818 34.7147 42.6431 32.0659 38.2065 34.3702C37.3976 34.7902 36.915 30.7773 41.6708 30.7773C45.7889 30.7773 46.5184 33.7488 45.7889 34.1123Z" fill="#4C2D19"/>
<path d="M30.219 50.8342C27.6964 50.8342 26.177 48.954 26.177 49.8638C26.177 50.7732 26.9065 52.502 30.219 52.502C33.5316 52.502 34.2607 50.7736 34.2607 49.8638C34.2607 48.954 32.7409 50.8342 30.219 50.8342Z" fill="#FCBC85"/>
<path d="M30.2188 59.2008C29.3462 59.2008 28.8206 58.5505 28.8206 58.8654C28.8206 59.1802 29.0724 59.7781 30.2188 59.7781C31.3643 59.7781 31.6166 59.1802 31.6166 58.8654C31.6166 58.5505 31.091 59.2008 30.2188 59.2008Z" fill="#FCBC85"/>
<path d="M30.2191 56.8792C26.2205 56.8792 23.812 55.2544 23.812 55.6666C23.812 56.0779 24.9683 57.6982 30.2191 57.6982C35.4696 57.6982 36.6259 56.0779 36.6259 55.6666C36.6259 55.2548 34.2173 56.8792 30.2191 56.8792Z" fill="#F7945E"/>
<path d="M30.219 69.1582V84.4398H0.679932C0.679932 78.2546 16.2389 69.1582 30.219 69.1582Z" fill="#F6A4B7"/>
<path d="M30.219 69.1582V84.4398H59.7577C59.7573 78.2546 44.1983 69.1582 30.219 69.1582Z" fill="#F6A4B7"/>
<path d="M24.1404 69.6859C24.1404 69.6859 25.9182 71.8857 30.2183 71.8857C34.5184 71.8857 36.2963 69.6859 36.2963 69.6859C36.2963 69.6859 29.9909 67.3956 24.1404 69.6859Z" fill="#FDCC9B"/>
<path d="M21.6488 84.4377L20.3916 70.49C20.3916 70.49 17.7217 70.1223 14.513 72.4481L11.8477 84.4377H21.6488Z" fill="#665853"/>
<path d="M30.2188 71.8867V84.4395H26.0249L26.8454 78.6636L24.4294 76.1162L30.2188 71.8867Z" fill="#665853"/>
<path d="M38.7883 84.4377L40.0455 70.49C40.0455 70.49 42.7154 70.1223 45.9241 72.4481L48.5891 84.4377H38.7883Z" fill="#665853"/>
<path d="M30.219 71.8867V84.4395H34.4124L33.5919 78.6636L36.0083 76.1162L30.219 71.8867Z" fill="#665853"/>
<path d="M36.2967 68.1851L30.2188 71.8844L36.6259 78.252L41.3858 70.8616C41.3858 70.8612 38.2722 67.8047 36.2967 68.1851Z" fill="#F2788F"/>
<path d="M24.1403 68.1851L30.2182 71.8844L23.8115 78.252L19.0515 70.8616C19.0519 70.8612 22.1651 67.8047 24.1403 68.1851Z" fill="#F2788F"/>
<path d="M56.2938 12.4573C55.7215 11.3322 54.1057 11.1841 53.2546 10.6988C52.4031 10.2136 52.4031 8.15191 50.8234 7.30321C49.2432 6.45409 48.9996 7.78841 47.8938 7.54581C46.7875 7.3032 45.7173 5.12017 44.2578 4.63497C42.798 4.14934 41.4627 5.12017 40.3688 4.87716C39.275 4.63497 38.5455 2.33022 36.6254 2.45194C34.7052 2.57324 34.6552 3.90715 34.2603 3.78585C33.8657 3.66496 32.5891 0.632812 30.219 0.632812C27.8486 0.632812 26.5719 3.66496 26.177 3.78626C25.7821 3.90756 25.732 2.57365 23.8119 2.45235C21.8918 2.33063 21.1627 4.63538 20.0684 4.87757C18.9742 5.12059 17.6392 4.14976 16.1794 4.63538C14.72 5.12059 13.6497 7.30362 12.5435 7.54622C11.4376 7.78883 11.1945 6.4545 9.61388 7.30362C8.03412 8.15273 8.03412 10.2145 7.18303 10.6993C6.33153 11.1845 4.7162 11.3326 4.14343 12.4577C2.07692 16.5209 5.77448 45.1755 7.36913 45.1755C8.96337 45.1755 8.0337 30.5891 10.465 25.0105C12.8958 19.4318 22.2565 24.2826 30.219 24.2826C38.1811 24.2826 47.5414 19.4314 49.9731 25.0105C52.404 30.5891 51.4743 45.1755 53.0685 45.1755C54.6628 45.1751 58.3603 16.5205 56.2938 12.4573Z" fill="#4C2D19"/>
</svg>
