<svg width="84" height="84" viewBox="0 0 84 84" fill="none" xmlns="http://www.w3.org/2000/svg">
<g clip-path="url(#clip0)">
<path d="M48.9658 6.90921C48.9658 10.7256 45.8723 13.8191 42.0566 13.8191C38.2402 13.8191 35.1467 10.7256 35.1467 6.90921C35.1467 3.09348 38.2402 0 42.0566 0C45.8723 0 48.9658 3.09348 48.9658 6.90921Z" fill="#B2B9BF"/>
<path d="M42.0566 5.69141C30.3447 6.04581 20.9758 14.3848 20.9758 24.6214C20.9758 42.5375 30.3447 45.8105 42.0566 45.9431C53.7678 45.8105 63.1373 42.5375 63.1373 24.6214C63.1373 14.3848 53.7678 6.04581 42.0566 5.69141Z" fill="#D7DEE3"/>
<path d="M42.0564 5.69141C40.6702 5.73306 39.3179 5.88815 38.0093 6.14386C47.7595 8.04724 55.0436 15.596 55.0436 24.6214C55.0436 40.4175 47.7595 44.8299 38.0093 45.7444C39.3179 45.8668 40.6702 45.9271 42.0564 45.9431C53.7676 45.8105 63.1371 42.5375 63.1371 24.6214C63.1371 14.3848 53.7676 6.04581 42.0564 5.69141Z" fill="#CCD2D6"/>
<path d="M65.9871 57.5667C61.9887 55.537 57.7961 54.0476 53.5139 53.0972C50.5043 52.4294 48.351 49.7801 48.351 46.6975V41.0527H35.7611V46.6975C35.7611 49.7801 33.6078 52.4294 30.5983 53.0972C26.3154 54.0476 22.1234 55.537 18.1251 57.5667C14.856 59.2259 12.7969 62.5808 12.7969 66.2466V82.3606C12.7969 83.2661 13.5307 83.9999 14.4362 83.9999H69.6759C70.5815 83.9999 71.3153 83.2661 71.3153 82.3606V66.2466C71.3153 62.5808 69.2562 59.2259 65.9871 57.5667Z" fill="#DD9554"/>
<path d="M28.7351 24.6406H26.4466C24.5041 24.6406 22.9314 26.2152 22.9314 28.1577V29.8214C22.9314 31.7632 24.5041 33.3385 26.4466 33.3385H28.7351V24.6406Z" fill="#DD9554"/>
<path d="M55.377 24.6406H57.6655C59.608 24.6406 61.1807 26.2152 61.1807 28.1577V29.8214C61.1807 31.7632 59.608 33.3385 57.6655 33.3385H55.377V24.6406Z" fill="#DD9554"/>
<path d="M53.4233 22.408C43.3771 22.408 42.062 16.9004 42.062 16.9004H42.0498C42.0498 16.9004 40.7348 22.408 30.6885 22.408C28.9504 22.408 27.5373 23.8058 27.5405 25.5438C27.5469 29.0961 27.5572 34.2628 27.5572 34.2628C27.5572 43.2401 36.6466 47.9569 42.0549 47.9569H42.0562H42.0575C47.4658 47.9569 56.5546 43.2401 56.5546 34.2628C56.5546 34.2628 56.5649 29.0961 56.5713 25.5438C56.5745 23.8058 55.1614 22.408 53.4233 22.408Z" fill="#EBAE6D"/>
<path d="M53.4235 22.4089C51.4189 22.4089 49.7628 22.1891 48.3946 21.8379C48.3888 26.8796 48.3824 34.2643 48.3824 34.2643C48.3824 41.2114 42.9389 45.6064 37.9702 47.2387C39.4211 47.7155 40.8323 47.9578 42.0551 47.9578H42.0564H42.0577C47.466 47.9578 56.5548 43.241 56.5548 34.2643C56.5548 34.2643 56.565 29.097 56.5714 25.5447C56.5746 23.8066 55.1615 22.4089 53.4235 22.4089Z" fill="#DD9554"/>
<path d="M65.9871 57.5663C63.496 56.3019 60.9293 55.247 58.3127 54.4017C53.0204 52.7579 53.1915 58.8224 42.0558 58.8224C31.7275 58.8224 31.0911 52.7579 25.7988 54.4017C23.1822 55.247 20.6161 56.3019 18.1244 57.5663C14.856 59.2255 12.7969 62.5805 12.7969 66.2463V82.3603C12.7969 83.2658 13.5307 83.9996 14.4362 83.9996H69.6759C70.5815 83.9996 71.3153 83.2658 71.3153 82.3603V66.2463C71.3153 62.5805 69.2562 59.2255 65.9871 57.5663Z" fill="#FC6A58"/>
<path d="M69.676 83.9997C70.5815 83.9997 71.3153 83.2659 71.3153 82.3603V66.2463C71.3153 62.5805 69.2562 59.2256 65.9878 57.5664C63.4961 56.3019 60.93 55.2471 58.3134 54.4018C53.8189 53.006 53.2627 57.1671 46.3804 58.4546C50.3025 59.4082 54.1407 60.8162 57.8154 62.6818C61.0838 64.341 63.1429 67.6953 63.1429 71.3611V83.9997H69.676Z" fill="#E35052"/>
<path d="M42.0565 58.8224C31.7282 58.8224 31.0919 52.7579 25.7996 54.4017C25.0959 54.6292 24.3961 54.8728 23.7001 55.1304C23.3572 56.102 23.4969 57.0818 24.0013 57.6259C24.6633 58.3873 25.947 58.7398 27.2088 57.9047C27.3723 57.7958 27.5754 57.9573 27.5075 58.1412C26.9685 59.6049 27.4639 61.0853 28.4605 61.6359C29.4468 62.2992 31.0797 62.2255 32.2121 60.9642C32.3422 60.82 32.5787 60.9251 32.5582 61.1187C32.38 62.8042 33.4509 64.1109 34.7083 64.4563C35.9894 64.8434 37.6973 64.2769 38.4843 62.6798C38.5721 62.501 38.8304 62.5382 38.8643 62.7343C39.1694 64.4807 40.6658 65.4958 42.0507 65.4791C43.4356 65.4958 44.9327 64.4807 45.2384 62.7343C45.2724 62.5382 45.53 62.501 45.6178 62.6798C46.4048 64.2769 48.1121 64.8434 49.3938 64.4563C50.6518 64.1109 51.7227 62.8042 51.5446 61.1187C51.5241 60.9251 51.7612 60.82 51.8906 60.9642C53.023 62.2255 54.656 62.2992 55.6423 61.6359C56.5799 60.9642 57.1586 59.6081 56.6023 58.1374C56.5331 57.9541 56.7356 57.7926 56.9003 57.8996C58.1564 58.7135 59.5368 58.4655 60.1027 57.6259C60.5462 57.012 60.7327 56.0776 60.4116 55.1304C60.4071 55.1285 60.4033 55.1272 60.3994 55.1259C60.0912 55.0112 59.3894 54.7632 59.3484 54.7491C59.0043 54.6292 58.6588 54.5132 58.3128 54.4017C53.0211 52.7579 53.1916 58.8224 42.0565 58.8224Z" fill="#C35F58"/>
<path d="M60.4116 55.1296C60.4077 55.1283 60.4039 55.127 60.4 55.1258C60.3501 55.1072 60.3001 55.0892 60.2501 55.0706C60.0174 54.986 59.7028 54.8739 59.5124 54.8066C59.4381 54.7803 59.3644 54.7547 59.2907 54.7291C58.9658 54.6169 58.6409 54.5073 58.3147 54.4022C58.314 54.4016 58.3134 54.4016 58.3127 54.4016C53.8189 53.0064 53.2627 57.1669 46.3804 58.4544C49.5341 59.2215 52.6333 60.2822 55.6371 61.6383C55.639 61.6376 55.6409 61.6363 55.6422 61.6357C56.5798 60.9634 57.1585 59.6073 56.6022 58.1372C56.533 57.9533 56.7355 57.7924 56.9003 57.8988C58.1564 58.7127 59.5368 58.4653 60.1027 57.6258C60.5462 57.0112 60.7327 56.0774 60.4116 55.1296Z" fill="#B24D4B"/>
<path d="M61.6292 73.0488C60.9287 73.0488 60.3616 73.616 60.3616 74.3165V84.0013H62.8969V74.3165C62.8969 73.6166 62.329 73.0488 61.6292 73.0488Z" fill="#C35F58"/>
<path d="M22.483 73.0488C21.7831 73.0488 21.2153 73.616 21.2153 74.3165V84.0013H23.7506V74.3165C23.7506 73.6166 23.1834 73.0488 22.483 73.0488Z" fill="#C35F58"/>
<path d="M42.0563 42.5906C40.0285 42.5906 38.2918 41.546 37.7336 39.9912C37.4965 39.3324 37.8393 38.6063 38.4981 38.3698C39.157 38.1333 39.8831 38.4755 40.1195 39.1344C40.2817 39.5868 41.0507 40.0553 42.0563 40.0553C43.0611 40.0553 43.8302 39.5868 43.9923 39.1344C44.2294 38.4755 44.9555 38.1333 45.6137 38.3698C46.2732 38.6063 46.6154 39.3324 46.3783 39.9912C45.8201 41.546 44.0833 42.5906 42.0563 42.5906Z" fill="#C35F58"/>
<path d="M45.1535 32.9182C44.4537 32.9182 43.4488 32.7477 43.4488 31.6505C43.4488 30.8828 42.824 30.2579 42.0562 30.2579C41.2878 30.2579 40.7162 30.8847 40.663 31.6505C40.5982 32.5785 40.1759 32.9182 38.9589 32.9182C38.2584 32.9182 38.1277 32.351 38.1277 31.6505C38.1277 29.485 39.8901 27.7227 42.0562 27.7227C44.2224 27.7227 45.9841 29.485 45.9841 31.6505C45.9841 32.351 45.854 32.9182 45.1535 32.9182Z" fill="#CCD2D6"/>
<path d="M49.6246 30.2582C48.9241 30.2582 48.3569 29.6904 48.3569 28.9906V27.5333C48.3569 26.8334 48.9241 26.2656 49.6246 26.2656C50.3244 26.2656 50.8916 26.8334 50.8916 27.5333V28.9906C50.8916 29.6904 50.3244 30.2582 49.6246 30.2582Z" fill="#844535"/>
<path d="M34.4883 30.2582C33.7879 30.2582 33.2207 29.6904 33.2207 28.9906V27.5333C33.2207 26.8334 33.7879 26.2656 34.4883 26.2656C35.1882 26.2656 35.7553 26.8334 35.7553 27.5333V28.9906C35.756 29.6904 35.1882 30.2582 34.4883 30.2582Z" fill="#844535"/>
<path d="M53.5137 53.0978C50.5042 52.43 48.3508 49.7806 48.3508 46.6974V46.3379C46.1623 47.4113 43.8968 47.958 42.0569 47.958C42.0569 47.958 42.0562 47.958 42.0556 47.958C42.0556 47.958 42.0549 47.958 42.0543 47.958C41.4673 47.958 40.836 47.9023 40.1785 47.7914V51.8128C40.1785 54.8954 42.3318 57.5448 45.3413 58.2126C45.688 58.2895 46.0347 58.3715 46.3802 58.4554C53.2625 57.1679 53.8187 53.0068 58.3125 54.4026C56.7296 53.8912 55.128 53.456 53.5137 53.0978Z" fill="#DD9554"/>
<path d="M39.3954 31.7376C39.3954 30.2649 37.4933 29.0703 35.1464 29.0703C32.8002 29.0703 30.8975 30.2649 30.8975 31.7376C30.8975 33.211 32.8002 34.4049 35.1464 34.4049C37.4933 34.4049 39.3954 33.211 39.3954 31.7376Z" fill="#80D5E8"/>
<path d="M53.2145 31.7376C53.2145 30.2649 51.3124 29.0703 48.9655 29.0703C46.6187 29.0703 44.7166 30.2649 44.7166 31.7376C44.7166 33.211 46.6187 34.4049 48.9655 34.4049C51.3124 34.4049 53.2145 33.211 53.2145 31.7376Z" fill="#80D5E8"/>
</g>
<defs>
<clipPath id="clip0">
<rect width="84" height="84" fill="white"/>
</clipPath>
</defs>
</svg>
