<svg width="84" height="84" viewBox="0 0 84 84" fill="none" xmlns="http://www.w3.org/2000/svg">
<g clip-path="url(#clip0)">
<path d="M68.9148 56.6149C51.9792 48.0177 31.9578 48.0177 15.0229 56.6149C11.3423 58.4831 9.02368 62.2604 9.02368 66.3876V82.3196C9.02368 83.2475 9.77606 83.9993 10.704 83.9993H73.2337C74.1616 83.9993 74.914 83.2475 74.914 82.3196V66.3876C74.9134 62.2604 72.5947 58.4831 68.9148 56.6149Z" fill="#D7DEE3"/>
<path d="M68.9146 56.6156C67.4688 55.8818 65.9993 55.2146 64.5125 54.6064V64.115C66.0691 66.0197 66.9644 68.4338 66.9644 70.9845V83.9999H73.2334C74.1614 83.9999 74.9131 83.2475 74.9131 82.3195V66.3882C74.9131 62.261 72.5945 58.4837 68.9146 56.6156Z" fill="#CCD2D6"/>
<path d="M41.9708 55.0937L49.0569 48.9317V38.0203H34.8809V48.9285L41.9708 55.0937Z" fill="#EBAE6D"/>
<path d="M26.97 17.9961H24.3931C22.2058 17.9961 20.4351 19.7694 20.4351 21.956V23.8293C20.4351 26.0159 22.2058 27.7892 24.3931 27.7892H26.97V17.9961Z" fill="#DD9554"/>
<path d="M56.967 17.9961H59.5446C61.7313 17.9961 63.502 19.7694 63.502 21.956V23.8293C63.502 26.0159 61.7313 27.7892 59.5446 27.7892H56.967V17.9961Z" fill="#DD9554"/>
<path d="M41.9686 0.481689C32.7433 0.486176 25.2714 7.97473 25.2893 17.2007L25.3137 30.3757C25.3137 40.7033 36.9435 45.7142 41.9686 45.8078C46.9937 45.7142 58.6229 40.7033 58.6229 30.3757L58.6479 17.2007C58.6652 7.97473 51.1933 0.486176 41.9686 0.481689Z" fill="#EBAE6D"/>
<path d="M50.271 2.69629L50.2492 30.3767C50.2492 38.3812 43.2644 43.1909 37.7817 44.9937C39.373 45.5172 40.838 45.7877 41.9685 45.8088C46.9936 45.7153 58.6228 40.7043 58.6228 30.3767L58.6478 17.2017C58.6593 10.9994 55.2864 5.58212 50.271 2.69629Z" fill="#DD9554"/>
<path d="M43.4495 31.2115H42.2229C41.2013 31.2115 40.3701 30.3802 40.3701 29.3581V25.6365C40.3701 24.9361 40.9373 24.3689 41.6378 24.3689C42.3376 24.3689 42.9054 24.9361 42.9054 25.6365V28.6762H43.4495C44.1493 28.6762 44.7171 29.244 44.7171 29.9438C44.7171 30.6436 44.15 31.2115 43.4495 31.2115Z" fill="#D08F61"/>
<path d="M41.969 39.2881C39.1601 39.2881 36.6171 38.0263 35.3315 35.9947C34.9573 35.4032 35.1335 34.62 35.725 34.2458C36.3165 33.8715 37.099 34.0471 37.474 34.6393C38.2866 35.9236 40.0509 36.7529 41.969 36.7529C43.8865 36.7529 45.6508 35.9236 46.4634 34.6386C46.8383 34.0471 47.6208 33.8715 48.213 34.2458C48.8045 34.62 48.9801 35.4032 48.6059 35.9947C47.3203 38.0263 44.7773 39.2881 41.969 39.2881Z" fill="#C35F58"/>
<path d="M50.4897 25.136C49.7898 25.136 49.2227 24.5689 49.2227 23.8684V22.1727C49.2227 21.4728 49.7898 20.905 50.4897 20.905C51.1901 20.905 51.7573 21.4728 51.7573 22.1727V23.8684C51.7573 24.5689 51.1901 25.136 50.4897 25.136Z" fill="#844535"/>
<path d="M33.4471 25.136C32.7466 25.136 32.1794 24.5689 32.1794 23.8684V22.1727C32.1794 21.4728 32.7473 20.905 33.4471 20.905C34.1469 20.905 34.7147 21.4728 34.7147 22.1727V23.8684C34.7147 24.5689 34.1476 25.136 33.4471 25.136Z" fill="#844535"/>
<path d="M64.5125 54.603C61.7516 53.4731 58.9267 52.5592 56.062 51.8613L42.9268 70.3363C42.3019 71.2156 40.992 71.2028 40.3844 70.312L27.8054 51.8786C24.9645 52.574 22.1626 53.4821 19.4248 54.603V84.0003H64.5125V54.603Z" fill="#D08F61"/>
<path d="M64.5123 54.603C64.1707 54.4633 63.8278 54.3268 63.4843 54.1935C63.4779 54.1909 63.4709 54.1883 63.4638 54.1858C62.0834 53.6513 60.6882 53.17 59.2809 52.7419C59.2706 52.7387 59.2604 52.7355 59.2501 52.7329C58.194 52.4125 57.1308 52.1215 56.0618 51.8613L51.9775 57.6061C55.0435 58.5757 58.0504 59.7985 60.9651 61.2783C62.3603 61.9762 63.56 62.9503 64.5117 64.1154V54.603H64.5123Z" fill="#C67F4F"/>
<path d="M58.057 3.25773C51.697 -1.93908 44.2917 0.640418 44.2917 0.640418C55.8184 3.77363 58.6472 17.9843 58.6472 17.9843C58.6472 17.9843 61.5106 18.2143 62.4937 15.6047C63.6088 12.6426 62.0111 6.48963 58.057 3.25773Z" fill="#CCD2D6"/>
<path d="M25.8809 3.25773C32.2403 -1.93908 39.6455 0.640418 39.6455 0.640418C28.1188 3.77363 25.29 17.9843 25.29 17.9843C25.29 17.9843 22.4266 18.2143 21.4442 15.6047C20.3284 12.6426 21.9261 6.48963 25.8809 3.25773Z" fill="#D7DEE3"/>
<path d="M41.9685 45.8082C41.6993 45.8031 41.4109 45.7832 41.1072 45.7505V50.7999C41.1072 52.2348 41.6942 53.5467 42.6568 54.4971L49.0559 48.9318V43.8042C46.4052 45.1129 43.7649 45.7749 41.9685 45.8082Z" fill="#DD9554"/>
<path d="M50.4109 59.8104L56.0627 51.8611L51.9804 48.667C51.1518 48.0569 50.011 48.1024 49.2343 48.7778L41.9688 55.0955L49.4682 59.6521C49.7604 59.8296 50.0982 59.8777 50.4109 59.8104Z" fill="#B2B9BF"/>
<path d="M51.982 57.6L56.0605 51.8598L51.9801 48.667C51.1515 48.0569 50.0101 48.1024 49.2333 48.7778L42.6567 54.497C43.3777 55.2083 44.3076 55.7165 45.3618 55.921C47.5901 56.3536 49.7986 56.9162 51.9775 57.6058L51.982 57.6Z" fill="#A0A9AF"/>
<path d="M34.473 59.6521L41.9718 55.0962L34.7069 48.7778C33.9302 48.1024 32.7888 48.0569 31.9602 48.667L27.8054 51.8784L33.0932 59.6271C33.4983 59.8937 34.0353 59.918 34.473 59.6521Z" fill="#B2B9BF"/>
</g>
<defs>
<clipPath id="clip0">
<rect width="84" height="84" fill="white"/>
</clipPath>
</defs>
</svg>
