<svg width="240" height="240" viewBox="0 0 240 240" fill="none" xmlns="http://www.w3.org/2000/svg">
<path d="M217.5 37.4999C217.688 37.4999 122.438 0.937391 120 0C118.126 0.749817 22.3127 37.4999 22.5003 37.4999V106.5C22.5003 154.312 36.1879 216.75 120 240C203.625 216.75 217.313 153.187 217.313 106.5C217.5 82.875 217.5 37.4999 217.5 37.4999Z" fill="#D9DEE1"/>
<path d="M22.4995 106.5C22.4995 154.313 36.1871 216.75 120 240V0C116.437 1.31254 22.4995 37.4999 22.4995 37.4999C22.4995 37.4999 22.5 106.5 22.4995 106.5Z" fill="#BCC6CA"/>
<path d="M198.561 50.4375C198.749 50.4375 121.874 19.4998 119.811 18.75C118.124 19.3127 40.874 49.125 41.0616 48.9374V106.875C41.0616 147 48.9368 201.75 119.811 221.25C190.499 201.75 198.561 146.062 198.561 106.875C198.749 87 198.749 50.4375 198.561 50.4375Z" fill="#008FFF"/>
<path d="M119.999 18.75C118.312 19.3127 41.0618 49.125 41.2494 48.9374V106.875C41.2494 147 49.1246 201.75 119.999 221.25V18.75Z" fill="#008FFF"/>
<g clip-path="url(#clip0)">
<path d="M131.296 110.944C126.08 115.392 125.296 121.472 128.96 129.024C130.832 132.88 131.488 136.608 130.56 138.112C130.416 138.336 129.968 139.04 128.224 139.04C125.76 139.04 124.176 137.584 123.52 134.704C123.285 133.693 122.426 132.948 121.393 132.857C120.359 132.766 119.384 133.35 118.976 134.304C117.984 136.656 116.8 141.008 116.8 148.48C116.8 161.968 129.6 168 142.4 168C155.2 168 168 161.968 168 148.48C168 141.008 166.816 136.656 165.824 134.304C165.416 133.35 164.441 132.766 163.407 132.857C162.373 132.948 161.515 133.693 161.28 134.704C160.624 137.584 159.04 139.04 156.576 139.04C154.832 139.04 154.384 138.336 154.24 138.112C153.312 136.608 153.968 132.88 155.84 129.024C159.504 121.472 158.72 115.392 153.504 110.944C150.512 108.4 146.416 105.328 144.464 101.984C144.038 101.247 143.251 100.793 142.4 100.793C141.549 100.793 140.762 101.247 140.336 101.984C138.368 105.344 134.272 108.4 131.296 110.944V110.944ZM134.896 151.184C139.952 153.504 145.28 148.688 143.776 144C154.736 147.904 150.576 164.8 142.4 164.8C136.48 164.8 133.008 155.952 134.896 151.184ZM142.4 104.784C145.047 108.033 148.077 110.95 151.424 113.472C156.784 118.032 154.864 123.776 153.024 127.712C152 129.6 149.184 136 151.536 139.808C152.643 141.481 154.577 142.415 156.576 142.24C159.627 142.326 162.42 140.536 163.616 137.728C164.488 141.243 164.886 144.859 164.8 148.48C164.8 157.072 158.256 162.048 150.208 163.92C152.476 160.964 153.672 157.325 153.6 153.6C153.77 147.916 150.224 142.781 144.848 140.928C143.734 140.543 142.498 140.801 141.632 141.601C140.766 142.4 140.409 143.611 140.704 144.752C140.92 145.926 140.464 147.122 139.522 147.856C138.581 148.589 137.309 148.737 136.224 148.24C135.41 147.858 134.472 147.836 133.641 148.18C132.81 148.524 132.162 149.202 131.856 150.048C130.256 154.432 131.744 160.304 134.592 163.872C126.592 162 120 157.024 120 148.432C119.914 144.811 120.312 141.195 121.184 137.68C122.38 140.488 125.173 142.278 128.224 142.192C130.223 142.367 132.157 141.433 133.264 139.76C135.616 136 132.8 129.6 131.84 127.632C129.936 123.696 128.016 117.952 133.44 113.392C136.288 110.896 140.032 108.08 142.4 104.704V104.784Z" fill="white"/>
<path d="M73.6 81.6041H80.24L75.808 85.1561C75.2796 85.58 75.0754 86.2907 75.2982 86.9304C75.5211 87.5701 76.1226 88.0002 76.8 88.0041C77.6 88.0041 77.392 88.0041 83.76 82.8841C84.0212 83.5669 84.3708 84.2124 84.8 84.8041V90.9001C78.077 93.5244 73.6374 99.9871 73.6 107.204V163.204C73.6 165.855 75.749 168.004 78.4 168.004H104C106.651 168.004 108.8 165.855 108.8 163.204V107.204C108.809 103.342 107.531 99.587 105.168 96.5321C103.229 93.9579 100.607 91.979 97.6 90.8201V84.8041C98.2994 83.8523 98.7851 82.7608 99.024 81.6041H104.112C106.701 81.6041 108.8 83.703 108.8 86.2921C108.797 89.9146 111.267 93.0713 114.784 93.9401L117.136 94.5321C116.78 96.1278 117.684 97.7354 119.232 98.2601L129.856 101.876C130.72 102.171 131.669 102.082 132.463 101.633C133.258 101.184 133.823 100.416 134.016 99.5241L135.312 93.6521C135.508 92.7633 135.317 91.8329 134.785 91.0939C134.254 90.3548 133.433 89.877 132.528 89.7801L121.328 88.5961C119.703 88.4193 118.206 89.4955 117.856 91.0921V91.4121L115.584 90.8361C113.482 90.3328 112 88.4535 112 86.2921C112 81.9357 108.468 78.4041 104.112 78.4041H99.04C98.2829 74.6756 95.0046 71.9961 91.2 71.9961C87.3954 71.9961 84.1171 74.6756 83.36 78.4041H73.6C72.7163 78.4041 72 79.1205 72 80.0041C72 80.8878 72.7163 81.6041 73.6 81.6041V81.6041ZM121.024 91.7801L132.224 92.9641L130.928 98.8361C130.768 98.8361 132.192 99.2681 120.288 95.2361L121.024 91.7801ZM79.216 99.2041H103.216C104.792 101.573 105.622 104.359 105.6 107.204V155.204H76.8L76.8 107.204C76.7968 104.357 77.6376 101.573 79.216 99.2041V99.2041ZM104 164.804H78.4C77.5163 164.804 76.8 164.088 76.8 163.204V158.404H105.6V163.204C105.6 164.088 104.884 164.804 104 164.804ZM100.24 96.0041H82.144C83.2888 95.0844 84.5676 94.3452 85.936 93.8121C87.1786 93.3402 88.0002 92.1493 88 90.8201V87.3321C90.0404 88.2226 92.3596 88.2226 94.4 87.3321V90.8201C94.4023 92.1534 95.2311 93.3455 96.48 93.8121C97.841 94.3402 99.11 95.0799 100.24 96.0041ZM91.2 75.2041C93.4029 75.2144 95.316 76.7227 95.8399 78.8624C96.3639 81.0021 95.3641 83.2237 93.4152 84.2506C91.4663 85.2775 89.0686 84.846 87.6 83.2041C86.3353 81.7902 86.022 79.7642 86.8004 78.0343C87.5789 76.3044 89.3031 75.1953 91.2 75.2041V75.2041Z" fill="white"/>
<path d="M83.1993 139.2H99.1993C100.967 139.2 102.399 137.767 102.399 136V108.8C102.399 107.033 100.967 105.6 99.1993 105.6H83.1993C81.432 105.6 79.9993 107.033 79.9993 108.8V136C79.9993 137.767 81.432 139.2 83.1993 139.2ZM83.1993 108.8H99.1993V136H83.1993V108.8Z" fill="white"/>
<path d="M81.5993 145.6H100.799C101.683 145.6 102.399 144.884 102.399 144C102.399 143.117 101.683 142.4 100.799 142.4H81.5993C80.7156 142.4 79.9993 143.117 79.9993 144C79.9993 144.884 80.7156 145.6 81.5993 145.6Z" fill="white"/>
</g>
<defs>
<clipPath id="clip0">
<rect x="72" y="72" width="96" height="96" fill="white"/>
</clipPath>
</defs>
</svg>
