<svg width="100" height="100" viewBox="0 0 100 100" fill="none" xmlns="http://www.w3.org/2000/svg">
<path d="M90.6251 15.625C90.7033 15.625 51.0158 0.390579 50.0001 0C49.219 0.312424 9.29696 15.625 9.37511 15.625V44.3749C9.37511 64.2968 15.0783 90.3125 50.0001 99.9998C84.8438 90.3123 90.547 63.8279 90.547 44.3749C90.6251 34.5313 90.6251 15.625 90.6251 15.625Z" fill="#D9DEE1"/>
<path d="M9.37476 44.3751C9.37476 64.297 15.0779 90.3127 49.9998 100V0C48.5154 0.54689 9.37476 15.625 9.37476 15.625C9.37476 15.625 9.37495 44.3751 9.37476 44.3751Z" fill="#BCC6CA"/>
<path d="M82.7339 21.0156C82.812 21.0156 50.7808 8.12492 49.9214 7.8125C49.2182 8.04697 17.0309 20.4687 17.109 20.3906V44.5311C17.109 61.2498 20.3904 84.0623 49.9214 92.1873C79.3746 84.0623 82.7339 60.8593 82.7339 44.5311C82.812 36.25 82.812 21.0156 82.7339 21.0156Z" fill="#008FFF"/>
<path d="M49.9996 7.8125C49.2964 8.04697 17.109 20.4687 17.1872 20.3906V44.5311C17.1872 61.2498 20.4685 84.0623 49.9996 92.1873V7.8125Z" fill="#008FFF"/>
<g clip-path="url(#clip0)">
<path d="M54.7065 46.2268C52.5332 48.0801 52.2065 50.6134 53.7332 53.7601C54.5132 55.3668 54.7865 56.9201 54.3998 57.5468C54.3398 57.6401 54.1532 57.9334 53.4265 57.9334C52.3998 57.9334 51.7398 57.3268 51.4665 56.1268C51.3685 55.7057 51.0109 55.3952 50.5802 55.3573C50.1495 55.3194 49.7433 55.5626 49.5732 55.9601C49.1598 56.9401 48.6665 58.7534 48.6665 61.8668C48.6665 67.4868 53.9998 70.0001 59.3332 70.0001C64.6665 70.0001 69.9999 67.4868 69.9999 61.8668C69.9999 58.7534 69.5065 56.9401 69.0932 55.9601C68.9231 55.5626 68.5168 55.3194 68.0861 55.3573C67.6554 55.3952 67.2979 55.7057 67.1999 56.1268C66.9265 57.3268 66.2665 57.9334 65.2399 57.9334C64.5132 57.9334 64.3265 57.6401 64.2665 57.5468C63.8799 56.9201 64.1532 55.3668 64.9332 53.7601C66.4599 50.6134 66.1332 48.0801 63.9599 46.2268C62.7132 45.1668 61.0065 43.8868 60.1932 42.4934C60.0157 42.1863 59.6879 41.9972 59.3332 41.9972C58.9785 41.9972 58.6507 42.1863 58.4732 42.4934C57.6532 43.8934 55.9465 45.1668 54.7065 46.2268ZM56.2065 62.9934C58.3132 63.9601 60.5332 61.9534 59.9065 60.0001C64.4732 61.6268 62.7399 68.6668 59.3332 68.6668C56.8665 68.6668 55.4198 64.9801 56.2065 62.9934ZM59.3332 43.6601C60.436 45.0139 61.6985 46.2294 63.0932 47.2801C65.3265 49.1801 64.5265 51.5734 63.7599 53.2134C63.3332 54.0001 62.1599 56.6668 63.1399 58.2534C63.6011 58.9507 64.407 59.3395 65.2399 59.2668C66.5111 59.3027 67.6749 58.5568 68.1732 57.3868C68.5365 58.8515 68.7024 60.3581 68.6665 61.8668C68.6665 65.4468 65.9399 67.5201 62.5865 68.3001C63.5315 67.0684 64.0299 65.5522 63.9999 64.0001C64.0709 61.6317 62.5933 59.4923 60.3532 58.7201C59.889 58.5596 59.3743 58.6673 59.0133 59.0004C58.6524 59.3334 58.5038 59.8379 58.6265 60.3134C58.7165 60.8026 58.5267 61.3011 58.1343 61.6066C57.7419 61.9122 57.212 61.9739 56.7598 61.7668C56.4206 61.6076 56.0299 61.5986 55.6836 61.7419C55.3374 61.8852 55.0674 62.1677 54.9398 62.5201C54.2732 64.3468 54.8932 66.7934 56.0798 68.2801C52.7465 67.5001 49.9998 65.4268 49.9998 61.8468C49.964 60.3381 50.1299 58.8315 50.4932 57.3668C50.9915 58.5368 52.1552 59.2827 53.4265 59.2468C54.2594 59.3195 55.0652 58.9307 55.5265 58.2334C56.5065 56.6668 55.3332 54.0001 54.9332 53.1801C54.1398 51.5401 53.3398 49.1468 55.5998 47.2468C56.7865 46.2068 58.3465 45.0334 59.3332 43.6268V43.6601Z" fill="white"/>
<path d="M30.6667 33.9994H33.4333L31.5867 35.4794C31.3665 35.6561 31.2814 35.9522 31.3743 36.2187C31.4671 36.4853 31.7178 36.6645 32 36.6661C32.3333 36.6661 32.2467 36.6661 34.9 34.5328C35.0088 34.8173 35.1545 35.0862 35.3333 35.3328V37.8728C32.5321 38.9662 30.6823 41.659 30.6667 44.6661V67.9994C30.6667 69.104 31.5621 69.9994 32.6667 69.9994H43.3333C44.4379 69.9994 45.3333 69.104 45.3333 67.9994V44.6661C45.3371 43.0569 44.8046 41.4923 43.82 40.2194C43.0121 39.1468 41.9197 38.3223 40.6667 37.8394V35.3328C40.9581 34.9362 41.1605 34.4814 41.26 33.9994H43.38C44.4588 33.9994 45.3333 34.874 45.3333 35.9528C45.3322 37.4622 46.3613 38.7774 47.8267 39.1394L48.8067 39.3861C48.6582 40.051 49.0348 40.7208 49.68 40.9394L54.1067 42.4461C54.4667 42.5688 54.862 42.5319 55.1931 42.3447C55.5242 42.1575 55.7595 41.8379 55.84 41.4661L56.38 39.0194C56.4618 38.6491 56.382 38.2614 56.1606 37.9535C55.9392 37.6456 55.5971 37.4465 55.22 37.4061L50.5533 36.9128C49.8763 36.8391 49.2525 37.2875 49.1067 37.9528V38.0861L48.16 37.8461C47.2842 37.6364 46.6666 36.8533 46.6667 35.9528C46.6667 34.1376 45.1952 32.6661 43.38 32.6661H41.2667C40.9512 31.1126 39.5853 29.9961 38 29.9961C36.4147 29.9961 35.0488 31.1126 34.7333 32.6661H30.6667C30.2985 32.6661 30 32.9646 30 33.3328C30 33.701 30.2985 33.9994 30.6667 33.9994ZM50.4267 38.2394L55.0933 38.7328L54.5533 41.1794C54.4867 41.1794 55.08 41.3594 50.12 39.6794L50.4267 38.2394ZM33.0067 41.3328H43.0067C43.6633 42.3197 44.0093 43.4807 44 44.6661V64.6661H32L32 44.6661C31.9987 43.4799 32.349 42.3199 33.0067 41.3328ZM43.3333 68.6661H32.6667C32.2985 68.6661 32 68.3676 32 67.9994V65.9994H44V67.9994C44 68.3676 43.7015 68.6661 43.3333 68.6661ZM41.7667 39.9994H34.2267C34.7037 39.6162 35.2365 39.3082 35.8067 39.0861C36.3244 38.8895 36.6667 38.3933 36.6667 37.8394V36.3861C37.5168 36.7571 38.4832 36.7571 39.3333 36.3861V37.8394C39.3343 38.395 39.6796 38.8917 40.2 39.0861C40.7671 39.3061 41.2958 39.6144 41.7667 39.9994ZM38 31.3328C38.9179 31.337 39.715 31.9655 39.9333 32.8571C40.1516 33.7486 39.7351 34.6743 38.923 35.1022C38.111 35.53 37.1119 35.3502 36.5 34.6661C35.9731 34.077 35.8425 33.2328 36.1669 32.512C36.4912 31.7912 37.2096 31.3291 38 31.3328Z" fill="white"/>
<path d="M34.6663 58.0001H41.333C42.0694 58.0001 42.6663 57.4032 42.6663 56.6668V45.3335C42.6663 44.5971 42.0694 44.0001 41.333 44.0001H34.6663C33.93 44.0001 33.333 44.5971 33.333 45.3335V56.6668C33.333 57.4032 33.93 58.0001 34.6663 58.0001ZM34.6663 45.3335H41.333V56.6668H34.6663V45.3335Z" fill="white"/>
<path d="M33.9997 60.6668H41.9997C42.3679 60.6668 42.6663 60.3683 42.6663 60.0002C42.6663 59.632 42.3679 59.3335 41.9997 59.3335H33.9997C33.6315 59.3335 33.333 59.632 33.333 60.0002C33.333 60.3683 33.6315 60.6668 33.9997 60.6668Z" fill="white"/>
</g>
<defs>
<clipPath id="clip0">
<rect x="30" y="30" width="40" height="40" fill="white"/>
</clipPath>
</defs>
</svg>
