<svg width="60" height="60" viewBox="0 0 60 60" fill="none" xmlns="http://www.w3.org/2000/svg">
<path d="M54.3751 9.37498C54.422 9.37498 30.6095 0.234348 30.0001 0C29.5314 0.187454 5.57818 9.37498 5.62507 9.37498V26.6249C5.62507 38.5781 9.04697 54.1875 30.0001 59.9999C50.9063 54.1874 54.3282 38.2967 54.3282 26.6249C54.3751 20.7188 54.3751 9.37498 54.3751 9.37498Z" fill="#D9DEE1"/>
<path d="M5.62476 26.6251C5.62476 38.5782 9.04666 54.1876 29.9998 60V0C29.1091 0.328134 5.62476 9.37497 5.62476 9.37497C5.62476 9.37497 5.62487 26.6251 5.62476 26.6251Z" fill="#BCC6CA"/>
<path d="M49.6404 12.6094C49.6873 12.6094 30.4685 4.87495 29.9529 4.6875C29.531 4.82818 10.2186 12.2812 10.2655 12.2343V26.7187C10.2655 36.7499 12.2343 50.4374 29.9529 55.3124C47.6248 50.4374 49.6404 36.5156 49.6404 26.7187C49.6873 21.75 49.6873 12.6094 49.6404 12.6094Z" fill="#008FFF"/>
<path d="M29.9998 4.6875C29.5779 4.82818 10.2654 12.2812 10.3123 12.2343V26.7187C10.3123 36.7499 12.2811 50.4374 29.9998 55.3124V4.6875Z" fill="#008FFF"/>
<g clip-path="url(#clip0)">
<path d="M32.824 27.736C31.52 28.848 31.324 30.368 32.24 32.256C32.708 33.22 32.872 34.152 32.64 34.528C32.604 34.584 32.492 34.76 32.056 34.76C31.44 34.76 31.044 34.396 30.88 33.676C30.8211 33.4233 30.6066 33.2371 30.3482 33.2143C30.0898 33.1916 29.846 33.3375 29.744 33.576C29.496 34.164 29.2 35.252 29.2 37.12C29.2 40.492 32.4 42 35.6 42C38.8 42 42 40.492 42 37.12C42 35.252 41.704 34.164 41.456 33.576C41.3539 33.3375 41.1101 33.1916 40.8517 33.2143C40.5933 33.2371 40.3788 33.4233 40.32 33.676C40.156 34.396 39.76 34.76 39.144 34.76C38.708 34.76 38.596 34.584 38.56 34.528C38.328 34.152 38.492 33.22 38.96 32.256C39.876 30.368 39.68 28.848 38.376 27.736C37.628 27.1 36.604 26.332 36.116 25.496C36.0095 25.3117 35.8128 25.1982 35.6 25.1982C35.3871 25.1982 35.1905 25.3117 35.084 25.496C34.592 26.336 33.568 27.1 32.824 27.736V27.736ZM33.724 37.796C34.988 38.376 36.32 37.172 35.944 36C38.684 36.976 37.644 41.2 35.6 41.2C34.12 41.2 33.252 38.988 33.724 37.796ZM35.6 26.196C36.2616 27.0083 37.0191 27.7376 37.856 28.368C39.196 29.508 38.716 30.944 38.256 31.928C38 32.4 37.296 34 37.884 34.952C38.1607 35.3703 38.6443 35.6036 39.144 35.56C39.9067 35.5815 40.605 35.134 40.904 34.432C41.1219 35.3108 41.2215 36.2148 41.2 37.12C41.2 39.268 39.564 40.512 37.552 40.98C38.1189 40.241 38.418 39.3313 38.4 38.4C38.4426 36.9789 37.556 35.6953 36.212 35.232C35.9335 35.1357 35.6246 35.2003 35.4081 35.4001C35.1915 35.6 35.1023 35.9027 35.176 36.188C35.2299 36.4815 35.1161 36.7806 34.8806 36.9639C34.6452 37.1472 34.3272 37.1843 34.056 37.06C33.8524 36.9645 33.618 36.9591 33.4102 37.0451C33.2025 37.1311 33.0405 37.3005 32.964 37.512C32.564 38.608 32.936 40.076 33.648 40.968C31.648 40.5 30 39.256 30 37.108C29.9785 36.2028 30.078 35.2988 30.296 34.42C30.595 35.122 31.2932 35.5695 32.056 35.548C32.5557 35.5916 33.0392 35.3583 33.316 34.94C33.904 34 33.2 32.4 32.96 31.908C32.484 30.924 32.004 29.488 33.36 28.348C34.072 27.724 35.008 27.02 35.6 26.176V26.196Z" fill="white"/>
<path d="M18.4 20.3981H20.06L18.952 21.2861C18.8199 21.3921 18.7689 21.5698 18.8246 21.7297C18.8803 21.8896 19.0307 21.9971 19.2 21.9981C19.4 21.9981 19.348 21.9981 20.94 20.7181C21.0053 20.8888 21.0927 21.0502 21.2 21.1981V22.7221C19.5192 23.3782 18.4094 24.9939 18.4 26.7981V40.7981C18.4 41.4608 18.9373 41.9981 19.6 41.9981H26C26.6627 41.9981 27.2 41.4608 27.2 40.7981V26.7981C27.2023 25.8326 26.8828 24.8938 26.292 24.1301C25.8073 23.4865 25.1518 22.9918 24.4 22.7021V21.1981C24.5748 20.9602 24.6963 20.6873 24.756 20.3981H26.028C26.6753 20.3981 27.2 20.9228 27.2 21.5701C27.1993 22.4757 27.8168 23.2649 28.696 23.4821L29.284 23.6301C29.1949 24.029 29.4209 24.4309 29.808 24.5621L32.464 25.4661C32.68 25.5397 32.9172 25.5176 33.1158 25.4053C33.3145 25.293 33.4557 25.1011 33.504 24.8781L33.828 23.4101C33.8771 23.1879 33.8292 22.9553 33.6964 22.7705C33.5635 22.5858 33.3583 22.4663 33.132 22.4421L30.332 22.1461C29.9258 22.1019 29.5515 22.3709 29.464 22.7701V22.8501L28.896 22.7061C28.3705 22.5803 27.9999 22.1104 28 21.5701C28 20.481 27.1171 19.5981 26.028 19.5981H24.76C24.5707 18.666 23.7512 17.9961 22.8 17.9961C21.8488 17.9961 21.0293 18.666 20.84 19.5981H18.4C18.1791 19.5981 18 19.7772 18 19.9981C18 20.219 18.1791 20.3981 18.4 20.3981V20.3981ZM30.256 22.9421L33.056 23.2381L32.732 24.7061C32.692 24.7061 33.048 24.8141 30.072 23.8061L30.256 22.9421ZM19.804 24.7981H25.804C26.198 25.3903 26.4056 26.0869 26.4 26.7981V38.7981H19.2L19.2 26.7981C19.1992 26.0864 19.4094 25.3904 19.804 24.7981V24.7981ZM26 41.1981H19.6C19.3791 41.1981 19.2 41.019 19.2 40.7981V39.5981H26.4V40.7981C26.4 41.019 26.2209 41.1981 26 41.1981ZM25.06 23.9981H20.536C20.8222 23.7682 21.1419 23.5834 21.484 23.4501C21.7947 23.3321 22 23.0344 22 22.7021V21.8301C22.5101 22.0527 23.0899 22.0527 23.6 21.8301V22.7021C23.6006 23.0354 23.8078 23.3334 24.12 23.4501C24.4602 23.5821 24.7775 23.7671 25.06 23.9981ZM22.8 18.7981C23.3507 18.8007 23.829 19.1778 23.96 19.7127C24.091 20.2476 23.841 20.803 23.3538 21.0597C22.8666 21.3165 22.2672 21.2086 21.9 20.7981C21.5838 20.4446 21.5055 19.9381 21.7001 19.5056C21.8947 19.0732 22.3258 18.7959 22.8 18.7981V18.7981Z" fill="white"/>
<path d="M20.7998 34.7999H24.7998C25.2416 34.7999 25.5998 34.4417 25.5998 33.9999V27.1999C25.5998 26.7581 25.2416 26.3999 24.7998 26.3999H20.7998C20.3579 26.3999 19.9998 26.7581 19.9998 27.1999V33.9999C19.9998 34.4417 20.3579 34.7999 20.7998 34.7999ZM20.7998 27.1999H24.7998V33.9999H20.7998V27.1999Z" fill="white"/>
<path d="M20.3998 36.4001H25.1998C25.4207 36.4001 25.5998 36.221 25.5998 36.0001C25.5998 35.7792 25.4207 35.6001 25.1998 35.6001H20.3998C20.1788 35.6001 19.9998 35.7792 19.9998 36.0001C19.9998 36.221 20.1788 36.4001 20.3998 36.4001Z" fill="white"/>
</g>
<defs>
<clipPath id="clip0">
<rect x="18" y="18" width="24" height="24" fill="white"/>
</clipPath>
</defs>
</svg>
