<svg width="400" height="358" viewBox="0 0 400 358" fill="none" xmlns="http://www.w3.org/2000/svg">
<g clip-path="url(#clip0)">
<path d="M200.791 5.00171L75.2605 82.2513C75.2605 82.2513 75.2605 241.578 200.791 328.484C326.322 241.578 326.322 82.2513 326.322 82.2513L200.791 5.00171Z" fill="#3F3D56"/>
<path opacity="0.04" d="M201.541 5.00171L199.395 6.32222V326.977C200.107 327.481 200.82 327.985 201.541 328.484C327.071 241.578 327.071 82.2512 327.071 82.2512L201.541 5.00171Z" fill="#008FFF"/>
<g opacity="0.7">
<path opacity="0.7" d="M170.401 161.54L194.065 183.232L223.401 140.912L235.234 150.773L194.065 202.953L160.541 165.484L170.401 161.54Z" fill="url(#paint0_linear)"/>
</g>
<path d="M175.986 162.843L195.182 180.44L222.377 140.447L231.976 148.446L195.182 196.437L167.988 166.043L175.986 162.843Z" fill="#3AD29F"/>
<path opacity="0.5" d="M76.9327 22.321C76.5479 22.1534 76.2381 21.8502 76.0624 21.469C75.8867 21.0879 75.8572 20.6554 75.9797 20.2539C75.9995 20.1924 76.012 20.1287 76.0169 20.0643C76.0281 19.8803 75.9797 19.6977 75.879 19.5434C75.7783 19.3891 75.6305 19.2713 75.4577 19.2075C75.2848 19.1438 75.096 19.1374 74.9192 19.1893C74.7424 19.2412 74.587 19.3487 74.4761 19.4959C74.4379 19.5481 74.4061 19.6046 74.3812 19.6643C74.2136 20.0491 73.9103 20.3588 73.5292 20.5345C73.148 20.7103 72.7156 20.7397 72.3141 20.6173C72.2526 20.5974 72.1889 20.585 72.1244 20.5801C71.9405 20.5689 71.7579 20.6172 71.6036 20.7179C71.4493 20.8186 71.3315 20.9664 71.2677 21.1393C71.2039 21.3122 71.1976 21.501 71.2495 21.6778C71.3014 21.8546 71.4089 22.0099 71.5561 22.1209C71.6083 22.159 71.6648 22.1909 71.7244 22.2158C72.1092 22.3834 72.419 22.6866 72.5947 23.0677C72.7704 23.4489 72.7999 23.8814 72.6774 24.2828C72.6576 24.3444 72.6451 24.408 72.6402 24.4725C72.629 24.6564 72.6774 24.8391 72.7781 24.9934C72.8788 25.1477 73.0266 25.2654 73.1995 25.3292C73.3723 25.393 73.5612 25.3994 73.738 25.3475C73.9148 25.2955 74.0701 25.188 74.1811 25.0409C74.2192 24.9887 74.2511 24.9322 74.276 24.8725C74.4435 24.4877 74.7468 24.178 75.1279 24.0022C75.5091 23.8265 75.9415 23.7971 76.343 23.9195C76.4045 23.9393 76.4682 23.9518 76.5327 23.9567C76.7166 23.9679 76.8992 23.9195 77.0535 23.8188C77.2079 23.7181 77.3256 23.5704 77.3894 23.3975C77.4532 23.2246 77.4596 23.0358 77.4076 22.859C77.3557 22.6822 77.2482 22.5268 77.1011 22.4159C77.0489 22.3777 76.9923 22.3459 76.9327 22.321Z" fill="#4D8AF0"/>
<path opacity="0.5" d="M8.97814 173.589C8.59334 173.422 8.28361 173.118 8.10788 172.737C7.93215 172.356 7.90271 171.924 8.02516 171.522C8.04498 171.461 8.05746 171.397 8.06235 171.333C8.07355 171.149 8.0252 170.966 7.92448 170.812C7.82376 170.657 7.67602 170.54 7.50314 170.476C7.33026 170.412 7.14143 170.406 6.96463 170.458C6.78783 170.51 6.63246 170.617 6.52153 170.764C6.48339 170.816 6.45153 170.873 6.42663 170.933C6.25904 171.317 5.95581 171.627 5.57466 171.803C5.19351 171.979 4.76105 172.008 4.3596 171.886C4.29805 171.866 4.23439 171.853 4.16992 171.848C3.98599 171.837 3.80334 171.886 3.64904 171.986C3.49473 172.087 3.37697 172.235 3.31319 172.408C3.24942 172.58 3.24302 172.769 3.29495 172.946C3.34689 173.123 3.45438 173.278 3.60152 173.389C3.65373 173.427 3.71025 173.459 3.76992 173.484C4.15472 173.652 4.46446 173.955 4.64019 174.336C4.81591 174.717 4.84535 175.15 4.7229 175.551C4.70308 175.613 4.6906 175.676 4.68571 175.741C4.67451 175.925 4.72286 176.107 4.82358 176.262C4.9243 176.416 5.07204 176.534 5.24492 176.598C5.4178 176.661 5.60663 176.668 5.78343 176.616C5.96023 176.564 6.1156 176.456 6.22653 176.309C6.26468 176.257 6.29654 176.2 6.32144 176.141C6.48903 175.756 6.79225 175.446 7.1734 175.271C7.55455 175.095 7.98701 175.065 8.38846 175.188C8.45001 175.208 8.51367 175.22 8.57814 175.225C8.76207 175.236 8.94472 175.188 9.09902 175.087C9.25333 174.986 9.37109 174.839 9.43486 174.666C9.49863 174.493 9.50503 174.304 9.4531 174.127C9.40117 173.95 9.29367 173.795 9.14654 173.684C9.09433 173.646 9.03781 173.614 8.97814 173.589Z" fill="#4D8AF0"/>
<path opacity="0.5" d="M348.336 121.015C349.878 121.015 351.129 119.764 351.129 118.222C351.129 116.68 349.878 115.429 348.336 115.429C346.794 115.429 345.543 116.68 345.543 118.222C345.543 119.764 346.794 121.015 348.336 121.015Z" fill="#F55F44"/>
<path opacity="0.5" d="M56.5041 320.689C58.0465 320.689 59.2968 319.439 59.2968 317.897C59.2968 316.354 58.0465 315.104 56.5041 315.104C54.9618 315.104 53.7115 316.354 53.7115 317.897C53.7115 319.439 54.9618 320.689 56.5041 320.689Z" fill="#F55F44"/>
<path opacity="0.5" d="M395.811 228.532C397.353 228.532 398.604 227.282 398.604 225.739C398.604 224.197 397.353 222.947 395.811 222.947C394.269 222.947 393.018 224.197 393.018 225.739C393.018 227.282 394.269 228.532 395.811 228.532Z" fill="#F55F44"/>
<path opacity="0.5" d="M327.806 35.8188C327.421 35.6512 327.111 35.348 326.935 34.9668C326.76 34.5857 326.73 34.1532 326.853 33.7517C326.872 33.6902 326.885 33.6265 326.89 33.5621C326.901 33.3781 326.853 33.1955 326.752 33.0412C326.651 32.8869 326.503 32.7691 326.331 32.7053C326.158 32.6416 325.969 32.6352 325.792 32.6871C325.615 32.739 325.46 32.8465 325.349 32.9937C325.311 33.0459 325.279 33.1024 325.254 33.1621C325.086 33.5469 324.783 33.8566 324.402 34.0323C324.021 34.2081 323.589 34.2375 323.187 34.1151C323.126 34.0952 323.062 34.0828 322.997 34.0779C322.813 34.0667 322.631 34.115 322.476 34.2157C322.322 34.3164 322.204 34.4642 322.141 34.6371C322.077 34.81 322.07 34.9988 322.122 35.1756C322.174 35.3524 322.282 35.5078 322.429 35.6187C322.481 35.6568 322.538 35.6887 322.597 35.7136C322.982 35.8812 323.292 36.1844 323.468 36.5656C323.643 36.9467 323.673 37.3792 323.55 37.7806C323.531 37.8422 323.518 37.9058 323.513 37.9703C323.502 38.1542 323.55 38.3369 323.651 38.4912C323.752 38.6455 323.899 38.7633 324.072 38.827C324.245 38.8908 324.434 38.8972 324.611 38.8453C324.788 38.7933 324.943 38.6858 325.054 38.5387C325.092 38.4865 325.124 38.43 325.149 38.3703C325.316 37.9855 325.62 37.6758 326.001 37.5C326.382 37.3243 326.814 37.2949 327.216 37.4173C327.277 37.4371 327.341 37.4496 327.406 37.4545C327.59 37.4657 327.772 37.4174 327.926 37.3166C328.081 37.2159 328.199 37.0682 328.262 36.8953C328.326 36.7224 328.332 36.5336 328.281 36.3568C328.229 36.18 328.121 36.0246 327.974 35.9137C327.922 35.8755 327.865 35.8437 327.806 35.8188Z" fill="#4D8AF0"/>
<path opacity="0.5" d="M374.35 328.116C373.965 327.948 373.655 327.645 373.48 327.264C373.304 326.883 373.274 326.45 373.397 326.049C373.417 325.987 373.429 325.924 373.434 325.859C373.445 325.675 373.397 325.493 373.296 325.338C373.195 325.184 373.048 325.066 372.875 325.002C372.702 324.939 372.513 324.932 372.336 324.984C372.159 325.036 372.004 325.144 371.893 325.291C371.855 325.343 371.823 325.4 371.798 325.459C371.631 325.844 371.327 326.154 370.946 326.329C370.565 326.505 370.133 326.535 369.731 326.412C369.67 326.392 369.606 326.38 369.542 326.375C369.358 326.364 369.175 326.412 369.021 326.513C368.866 326.614 368.749 326.761 368.685 326.934C368.621 327.107 368.615 327.296 368.667 327.473C368.719 327.649 368.826 327.805 368.973 327.916C369.025 327.954 369.082 327.986 369.142 328.011C369.526 328.178 369.836 328.482 370.012 328.863C370.188 329.244 370.217 329.676 370.095 330.078C370.075 330.139 370.062 330.203 370.057 330.267C370.046 330.451 370.095 330.634 370.195 330.788C370.296 330.943 370.444 331.06 370.617 331.124C370.789 331.188 370.978 331.194 371.155 331.142C371.332 331.09 371.487 330.983 371.598 330.836C371.636 330.784 371.668 330.727 371.693 330.667C371.861 330.283 372.164 329.973 372.545 329.797C372.926 329.621 373.359 329.592 373.76 329.714C373.822 329.734 373.885 329.747 373.95 329.752C374.134 329.763 374.316 329.714 374.471 329.614C374.625 329.513 374.743 329.365 374.807 329.192C374.87 329.02 374.877 328.831 374.825 328.654C374.773 328.477 374.665 328.322 374.518 328.211C374.466 328.173 374.409 328.141 374.35 328.116Z" fill="#4D8AF0"/>
<path opacity="0.5" d="M5.72008 85.1554C5.33529 84.9879 5.02555 84.6846 4.84982 84.3035C4.6741 83.9223 4.64466 83.4899 4.76711 83.0884C4.78692 83.0269 4.7994 82.9632 4.80429 82.8987C4.81549 82.7148 4.76715 82.5322 4.66643 82.3779C4.56571 82.2236 4.41796 82.1058 4.24508 82.042C4.0722 81.9782 3.88337 81.9718 3.70657 82.0238C3.52977 82.0757 3.37441 82.1832 3.26348 82.3303C3.22533 82.3825 3.19347 82.4391 3.16857 82.4987C3.00098 82.8835 2.69775 83.1933 2.3166 83.369C1.93545 83.5447 1.50299 83.5742 1.10154 83.4517C1.04 83.4319 0.976331 83.4194 0.911859 83.4145C0.727931 83.4033 0.545285 83.4517 0.390979 83.5524C0.236673 83.6531 0.118911 83.8009 0.0551365 83.9737C-0.00863769 84.1466 -0.0150332 84.3354 0.0368983 84.5122C0.0888299 84.689 0.196328 84.8444 0.343466 84.9554C0.39567 84.9935 0.452193 85.0254 0.511864 85.0503C0.896662 85.2178 1.2064 85.5211 1.38213 85.9022C1.55786 86.2834 1.58729 86.7158 1.46484 87.1173C1.44503 87.1788 1.43255 87.2425 1.42765 87.307C1.41646 87.4909 1.4648 87.6735 1.56552 87.8278C1.66624 87.9822 1.81398 88.0999 1.98686 88.1637C2.15975 88.2275 2.34857 88.2339 2.52537 88.1819C2.70217 88.13 2.85755 88.0225 2.96848 87.8754C3.00662 87.8232 3.03848 87.7666 3.06338 87.707C3.23097 87.3222 3.5342 87.0124 3.91535 86.8367C4.2965 86.661 4.72896 86.6315 5.1304 86.754C5.19195 86.7738 5.25562 86.7863 5.32009 86.7912C5.50401 86.8024 5.68666 86.754 5.84097 86.6533C5.99527 86.5526 6.11303 86.4048 6.1768 86.232C6.24058 86.0591 6.24697 85.8703 6.19504 85.6935C6.14311 85.5167 6.03562 85.3613 5.88848 85.2504C5.83628 85.2122 5.77975 85.1803 5.72008 85.1554Z" fill="#4D8AF0"/>
<path opacity="0.5" d="M36.9557 134.978C38.498 134.978 39.7483 133.728 39.7483 132.185C39.7483 130.643 38.498 129.393 36.9557 129.393C35.4133 129.393 34.163 130.643 34.163 132.185C34.163 133.728 35.4133 134.978 36.9557 134.978Z" fill="#47E6B1"/>
<path opacity="0.5" d="M397.207 157.319C398.75 157.319 400 156.069 400 154.527C400 152.984 398.75 151.734 397.207 151.734C395.665 151.734 394.415 152.984 394.415 154.527C394.415 156.069 395.665 157.319 397.207 157.319Z" fill="#47E6B1"/>
<g opacity="0.5">
<path opacity="0.5" d="M272.934 0H271.538V7.9125H272.934V0Z" fill="#47E6B1"/>
<path opacity="0.5" d="M276.193 4.65438V3.25806L268.28 3.25806V4.65438H276.193Z" fill="#47E6B1"/>
</g>
<g opacity="0.5">
<path opacity="0.5" d="M278.054 309.984H276.658V317.896H278.054V309.984Z" fill="#47E6B1"/>
<path opacity="0.5" d="M281.312 314.638V313.242H273.4V314.638H281.312Z" fill="#47E6B1"/>
</g>
<g opacity="0.5">
<path opacity="0.5" d="M13.6834 326.74H12.2871V334.652H13.6834V326.74Z" fill="#47E6B1"/>
<path opacity="0.5" d="M16.9416 331.394V329.998H9.02909V331.394H16.9416Z" fill="#47E6B1"/>
</g>
<g opacity="0.5">
<path opacity="0.5" d="M331.58 184.315H330.184V192.227H331.58V184.315Z" fill="#47E6B1"/>
<path opacity="0.5" d="M334.838 188.969V187.573H326.926V188.969H334.838Z" fill="#47E6B1"/>
</g>
<path opacity="0.5" d="M370.308 57.2577L373.307 60.0066L377.555 53.7585L379.055 55.0083L373.307 62.5061L369.058 57.7576L370.308 57.2577Z" fill="#47E6B1"/>
<path d="M284.696 111.367L274.351 111.768L274.867 125.068L285.212 124.667L284.696 111.367Z" fill="#008FFF"/>
<path d="M238.031 157.948C238.031 157.948 223.705 151.103 223.935 157.014C224.164 162.926 238.375 166.815 238.375 166.815L238.031 157.948Z" fill="#FFB9B9"/>
<path d="M245.891 207.964C245.891 207.964 239.132 224.507 236.635 236.444C234.138 248.381 230.335 264.809 235.227 276.46C240.119 288.11 254.027 322.352 254.17 326.047C254.313 329.741 252.979 333.493 255.934 333.378C258.89 333.264 274.974 328.2 275.627 325.954C276.28 323.709 270.14 318.027 270.14 318.027L254.977 270.514L270.797 239.559L282.208 285.738L284.443 343.373C284.443 343.373 295.412 339.988 297.004 342.886C297.004 342.886 301.919 336.035 302.543 333.051C303.167 330.067 300.222 273.199 300.222 273.199C300.222 273.199 310.291 208.427 302.163 208.742C294.035 209.058 262.198 189.572 245.891 207.964Z" fill="#008FFF"/>
<path d="M255.82 330.423C255.82 330.423 248.322 346.994 247.612 347.761C246.902 348.529 242.016 356.119 245.71 355.975C249.405 355.832 258.129 351.794 264.55 345.624C270.97 339.455 279.436 328.767 278.669 328.056C277.901 327.346 272.643 325.33 272.643 325.33L255.82 330.423Z" fill="#575A89"/>
<path d="M285.777 339.621C285.777 339.621 285.325 347.039 283.962 350.052C282.599 353.065 282.77 357.498 286.465 357.355C290.16 357.212 299.708 355.361 299.708 355.361C299.708 355.361 300.275 350.899 299.507 350.189C298.74 349.479 295.469 341.465 296.861 339.191C298.253 336.917 285.777 339.621 285.777 339.621Z" fill="#575A89"/>
<path d="M291.243 98.9028C291.243 98.9028 299.119 111.178 302.19 114.019C305.26 116.86 296.622 123.115 296.622 123.115L281.162 125.194C281.162 125.194 281.357 111.127 280.561 109.677C279.764 108.228 291.243 98.9028 291.243 98.9028Z" fill="#FFB9B9"/>
<path d="M277.806 114.964C277.806 114.964 280.99 120.761 283.946 120.646C286.902 120.532 302.19 114.019 302.843 111.773C303.495 109.528 307.906 127.857 307.906 127.857L270.498 193.69L261.373 187.384L265.795 148.731L269.426 127.87L277.806 114.964Z" fill="#008FFF"/>
<path d="M304.222 173.882C302.73 177.003 301.798 180.258 301.927 183.591C301.933 183.739 301.939 183.886 301.952 184.034C302.306 190.873 304.825 198.782 305.729 204.534C306.385 208.66 306.198 211.672 303.784 212.38C297.93 214.087 304.637 215.307 281.989 222.845C259.341 230.384 255.388 223.877 255.331 222.399C255.274 220.921 258.538 209.694 257.771 208.984C257.003 208.274 247.031 218.281 244.018 216.917C241.005 215.554 243.674 208.05 243.674 208.05C243.674 208.05 250.462 192.247 250.318 188.552C250.175 184.858 260.6 167.433 260.6 167.433L267.69 121.277C267.69 121.277 270.417 115.251 274.082 114.369C277.748 113.487 280.79 115.589 280.79 115.589L274.655 129.147L268.183 153.079L269.266 161.917C269.266 161.917 276.792 146.085 281.735 139.973C286.679 133.861 297.218 119.392 297.218 119.392C297.218 119.392 299.678 111.089 297.821 108.608C295.963 106.12 305.569 105.748 309.665 115.949C311.835 121.356 315.36 129.419 317.567 136.926C319.535 143.576 320.464 149.793 318.515 153.347C315.536 158.776 308.043 165.911 304.222 173.882Z" fill="#575A89"/>
<path opacity="0.1" d="M318.515 153.347C315.536 158.775 308.043 165.911 304.222 173.881C303.224 170.287 302.007 166.567 302.007 166.567C302.007 166.567 297.338 141.587 311.148 135.132C313.437 134.911 315.725 135.55 317.567 136.925C319.535 143.576 320.464 149.793 318.515 153.347Z" fill="black"/>
<path d="M263.692 151.772L251.984 155.187L235.728 155.817L234.056 169.942L260.771 171.866C260.771 171.866 267.444 153.107 263.692 151.772Z" fill="#575A89"/>
<path d="M282.784 199.266C282.784 199.266 267.121 201.864 270.696 206.578C274.271 211.291 288.146 206.336 288.146 206.336L282.784 199.266Z" fill="#FFB9B9"/>
<path opacity="0.1" d="M301.952 184.034C302.306 190.873 304.825 198.782 305.729 204.534C300.74 209.256 295.995 213.422 294.207 213.491C290.512 213.634 284.572 213.124 282.384 213.949C280.196 214.774 278.913 200.764 278.913 200.764C278.913 200.764 280.219 196.273 286.044 193.827C289.976 192.172 297.513 187.684 301.952 184.034Z" fill="black"/>
<path d="M310.977 130.699C310.977 130.699 323.481 128.734 322.805 149.48C322.13 170.227 324.123 183.47 319.094 187.365C314.065 191.26 297.729 208.914 294.035 209.058C290.34 209.201 284.4 208.691 282.212 209.516C280.024 210.341 278.741 196.33 278.741 196.33C278.741 196.33 280.047 191.84 285.872 189.394C291.697 186.948 305.421 178.275 305.307 175.32C305.192 172.364 301.835 162.134 301.835 162.134C301.835 162.134 297.166 137.154 310.977 130.699Z" fill="#575A89"/>
<path d="M280.217 117.079C289.201 117.079 296.485 109.795 296.485 100.81C296.485 91.8258 289.201 84.5422 280.217 84.5422C271.232 84.5422 263.949 91.8258 263.949 100.81C263.949 109.795 271.232 117.079 280.217 117.079Z" fill="#FFB9B9"/>
<path d="M269.263 77.4933C268.871 77.8313 268.401 78.0671 267.895 78.1797C267.641 78.2249 267.38 78.1679 267.168 78.0211C266.956 77.8743 266.811 77.6496 266.764 77.3961C266.392 78.168 265.972 78.9907 265.212 79.3868C264.452 79.7829 263.277 79.4507 263.167 78.6008C263.056 79.2461 262.771 79.8488 262.342 80.3434C261.87 80.7929 261.015 80.9064 260.604 80.4015C260.937 82.2202 260.731 84.0905 260.836 85.9364C260.94 87.7824 261.432 89.7393 262.827 90.9532C264.861 92.7234 267.919 92.2865 270.595 91.9511C270.999 91.8662 271.419 91.8892 271.812 92.0177C272.814 92.4445 272.769 93.839 272.782 94.9278C272.864 96.8383 273.62 98.658 274.916 100.064C276.212 101.47 277.965 102.37 279.862 102.606C280.924 102.77 282.008 102.506 282.875 101.871C283.635 101.227 284.023 100.178 284.893 99.6943C286.309 98.9075 288.026 100.055 289.061 101.301C290.097 102.547 291.117 104.079 292.721 104.307C294.842 104.609 296.457 102.447 297.25 100.457C298.343 97.6674 298.867 94.6871 298.79 91.6919C298.714 88.6966 298.038 85.747 296.803 83.017C292.375 73.3632 277.246 71.8363 269.263 77.4933Z" fill="#2F2E41"/>
</g>
<defs>
<linearGradient id="paint0_linear" x1="160.541" y1="171.933" x2="235.234" y2="171.933" gradientUnits="userSpaceOnUse">
<stop stop-color="#808080" stop-opacity="0.25"/>
<stop offset="0.53514" stop-color="#808080" stop-opacity="0.12"/>
<stop offset="1" stop-color="#808080" stop-opacity="0.1"/>
</linearGradient>
<clipPath id="clip0">
<rect width="400" height="357.358" fill="white"/>
</clipPath>
</defs>
</svg>
