<svg width="300" height="250" viewBox="0 0 300 250" fill="none" xmlns="http://www.w3.org/2000/svg">
<g clip-path="url(#clip0)">
<path opacity="0.1" d="M97.2513 8.89106C106.024 1.0972 119.793 -0.500542 132.328 0.119969C171.697 2.07443 207.233 21.0435 237.973 42.5036C249.103 50.2705 260.058 58.6429 267.281 69.3414C281.996 91.1193 277.624 121.287 257.178 139.228C250.22 145.332 241.787 150.02 233.129 154.16C217.735 161.534 201.124 167.454 183.652 169.148C171.195 170.347 158.582 169.373 146.194 167.697C111.588 163.003 77.6257 152.643 49.1468 134.921C36.6597 127.148 24.8904 117.483 19.743 104.914C14.5955 92.3453 17.89 76.3979 30.6414 68.9427C35.9149 65.8642 42.2216 64.4733 48.393 63.1663C57.4806 61.2448 66.7123 59.3503 74.9109 55.4444C83.3828 51.4096 93.4103 43.6067 91.7285 34.6737C89.9387 25.1023 88.4911 16.6849 97.2513 8.89106Z" fill="#008FFF"/>
<path d="M205.701 200.514C205.701 200.514 213.227 187.208 224.558 183.374C229.322 181.796 233.444 178.718 236.306 174.602C237.65 172.638 238.81 170.555 239.772 168.379" stroke="#535461" stroke-width="2" stroke-miterlimit="10"/>
<path d="M246.901 165.918C245.61 167.171 239.595 168.463 239.595 168.463C239.595 168.463 241.069 162.501 242.361 161.251C242.981 160.65 243.815 160.319 244.679 160.332C245.543 160.345 246.367 160.699 246.969 161.318C247.571 161.937 247.902 162.77 247.89 163.632C247.877 164.495 247.521 165.317 246.901 165.918Z" fill="#008FFF"/>
<path d="M243.499 176.698C241.733 177.049 235.991 174.873 235.991 174.873C235.991 174.873 240.477 170.676 242.24 170.316C243.088 170.148 243.968 170.323 244.687 170.803C245.405 171.282 245.904 172.027 246.072 172.873C246.241 173.72 246.065 174.598 245.585 175.315C245.105 176.033 244.358 176.53 243.511 176.698H243.499Z" fill="#008FFF"/>
<path d="M231.111 188.381C229.408 187.782 225.543 183.015 225.543 183.015C225.543 183.015 231.549 181.649 233.243 182.236C233.656 182.369 234.039 182.582 234.368 182.865C234.697 183.147 234.966 183.492 235.16 183.879C235.354 184.267 235.468 184.689 235.497 185.122C235.525 185.554 235.466 185.987 235.324 186.397C235.182 186.806 234.959 187.183 234.669 187.505C234.38 187.827 234.028 188.089 233.636 188.274C233.243 188.458 232.818 188.563 232.384 188.582C231.951 188.6 231.518 188.532 231.111 188.381Z" fill="#008FFF"/>
<path d="M219.744 195.096C217.969 194.796 213.35 190.746 213.35 190.746C213.35 190.746 219.029 188.384 220.804 188.678C221.229 188.744 221.637 188.893 222.005 189.117C222.372 189.341 222.691 189.636 222.943 189.984C223.196 190.332 223.376 190.727 223.475 191.145C223.574 191.563 223.589 191.997 223.519 192.421C223.449 192.845 223.295 193.25 223.067 193.615C222.839 193.979 222.541 194.295 222.19 194.544C221.839 194.792 221.442 194.969 221.022 195.064C220.602 195.159 220.168 195.169 219.744 195.096Z" fill="#008FFF"/>
<path d="M230.963 170.222C230.963 172.021 234.219 177.228 234.219 177.228C234.219 177.228 237.48 172.021 237.48 170.225C237.48 169.362 237.137 168.535 236.526 167.925C235.915 167.315 235.086 166.973 234.222 166.973C233.358 166.973 232.529 167.315 231.918 167.925C231.307 168.535 230.963 169.362 230.963 170.225V170.222Z" fill="#008FFF"/>
<path d="M217.771 178.25C218.311 179.965 222.978 183.964 222.978 183.964C222.978 183.964 224.528 178.019 223.99 176.305C223.732 175.481 223.156 174.794 222.39 174.395C221.624 173.995 220.731 173.915 219.906 174.173C219.081 174.431 218.393 175.006 217.992 175.77C217.592 176.535 217.512 177.427 217.771 178.25Z" fill="#008FFF"/>
<path d="M206.022 187.807C206.262 189.588 210.188 194.318 210.188 194.318C210.188 194.318 212.722 188.721 212.482 186.941C212.367 186.086 211.916 185.311 211.229 184.788C210.542 184.265 209.675 184.035 208.818 184.15C207.962 184.265 207.186 184.715 206.661 185.401C206.137 186.086 205.907 186.952 206.022 187.807Z" fill="#008FFF"/>
<path opacity="0.25" d="M246.901 165.918C245.61 167.171 239.595 168.463 239.595 168.463C239.595 168.463 241.069 162.501 242.361 161.251C242.981 160.65 243.815 160.319 244.679 160.332C245.543 160.345 246.367 160.699 246.969 161.318C247.571 161.937 247.902 162.77 247.89 163.632C247.877 164.495 247.521 165.317 246.901 165.918Z" fill="black"/>
<path opacity="0.25" d="M243.499 176.698C241.733 177.049 235.991 174.873 235.991 174.873C235.991 174.873 240.477 170.676 242.24 170.316C243.088 170.148 243.968 170.323 244.687 170.803C245.405 171.282 245.904 172.027 246.072 172.873C246.241 173.72 246.065 174.598 245.585 175.315C245.105 176.033 244.358 176.53 243.511 176.698H243.499Z" fill="black"/>
<path opacity="0.25" d="M231.111 188.381C229.408 187.782 225.543 183.015 225.543 183.015C225.543 183.015 231.549 181.649 233.243 182.236C233.656 182.369 234.039 182.582 234.368 182.865C234.697 183.147 234.966 183.492 235.16 183.879C235.354 184.267 235.468 184.689 235.497 185.122C235.525 185.554 235.466 185.987 235.324 186.397C235.182 186.806 234.959 187.183 234.669 187.505C234.38 187.827 234.028 188.089 233.636 188.274C233.243 188.458 232.818 188.563 232.384 188.582C231.951 188.6 231.518 188.532 231.111 188.381Z" fill="black"/>
<path opacity="0.25" d="M219.744 195.096C217.969 194.796 213.35 190.746 213.35 190.746C213.35 190.746 219.029 188.384 220.804 188.678C221.229 188.744 221.637 188.893 222.005 189.117C222.372 189.341 222.691 189.636 222.943 189.984C223.196 190.332 223.376 190.727 223.475 191.145C223.574 191.563 223.589 191.997 223.519 192.421C223.449 192.845 223.295 193.25 223.067 193.615C222.839 193.979 222.541 194.295 222.19 194.544C221.839 194.792 221.442 194.969 221.022 195.064C220.602 195.159 220.168 195.169 219.744 195.096Z" fill="black"/>
<path opacity="0.25" d="M230.963 170.222C230.963 172.021 234.219 177.228 234.219 177.228C234.219 177.228 237.48 172.021 237.48 170.225C237.48 169.362 237.137 168.535 236.526 167.925C235.915 167.315 235.086 166.973 234.222 166.973C233.358 166.973 232.529 167.315 231.918 167.925C231.307 168.535 230.963 169.362 230.963 170.225V170.222Z" fill="black"/>
<path opacity="0.25" d="M217.771 178.25C218.311 179.965 222.978 183.964 222.978 183.964C222.978 183.964 224.528 178.019 223.99 176.305C223.732 175.481 223.156 174.794 222.39 174.395C221.624 173.995 220.731 173.915 219.906 174.173C219.081 174.431 218.393 175.006 217.992 175.77C217.592 176.535 217.512 177.427 217.771 178.25Z" fill="black"/>
<path opacity="0.25" d="M206.022 187.807C206.262 189.588 210.188 194.318 210.188 194.318C210.188 194.318 212.722 188.721 212.482 186.941C212.367 186.086 211.916 185.311 211.229 184.788C210.542 184.265 209.675 184.035 208.818 184.15C207.962 184.265 207.186 184.715 206.661 185.401C206.137 186.086 205.907 186.952 206.022 187.807Z" fill="black"/>
<path d="M206.133 200.237C206.133 200.237 207.611 185.027 216.416 176.94C220.13 173.569 222.649 169.087 223.594 164.167C224.026 161.826 224.241 159.451 224.236 157.071" stroke="#535461" stroke-width="2" stroke-miterlimit="10"/>
<path d="M229.753 151.947C229.081 153.614 224.107 157.229 224.107 157.229C224.107 157.229 223.038 151.18 223.711 149.516C223.863 149.11 224.096 148.738 224.394 148.422C224.693 148.107 225.052 147.854 225.45 147.679C225.847 147.504 226.277 147.41 226.711 147.403C227.146 147.396 227.578 147.476 227.981 147.639C228.385 147.801 228.751 148.042 229.06 148.348C229.368 148.654 229.612 149.019 229.777 149.42C229.943 149.822 230.026 150.252 230.021 150.686C230.017 151.12 229.926 151.549 229.753 151.947Z" fill="#008FFF"/>
<path d="M231.024 163.198C229.552 164.232 223.408 164.568 223.408 164.568C223.408 164.568 225.81 158.911 227.273 157.877C227.623 157.631 228.018 157.457 228.436 157.363C228.853 157.27 229.285 157.26 229.707 157.333C230.128 157.406 230.531 157.561 230.893 157.79C231.254 158.019 231.567 158.316 231.814 158.666C232.06 159.015 232.235 159.409 232.328 159.826C232.422 160.243 232.432 160.674 232.359 161.095C232.286 161.516 232.13 161.918 231.901 162.279C231.672 162.64 231.374 162.952 231.024 163.198Z" fill="#008FFF"/>
<path d="M224.438 178.878C222.636 179.028 217.17 176.222 217.17 176.222C217.17 176.222 222.098 172.547 223.879 172.394C224.74 172.322 225.595 172.594 226.256 173.151C226.916 173.708 227.328 174.504 227.4 175.363C227.473 176.223 227.2 177.077 226.642 177.736C226.084 178.395 225.287 178.806 224.426 178.878H224.438Z" fill="#008FFF"/>
<path d="M216.776 189.622C215.035 190.072 209.167 188.231 209.167 188.231C209.167 188.231 213.398 183.774 215.14 183.324C215.557 183.207 215.993 183.175 216.423 183.228C216.854 183.281 217.269 183.42 217.644 183.635C218.02 183.851 218.349 184.139 218.612 184.483C218.875 184.827 219.066 185.22 219.175 185.639C219.284 186.057 219.308 186.493 219.246 186.922C219.184 187.35 219.037 187.761 218.813 188.132C218.59 188.503 218.295 188.825 217.945 189.08C217.595 189.336 217.198 189.519 216.776 189.619V189.622Z" fill="#008FFF"/>
<path d="M216.933 162.318C217.66 163.961 222.753 167.414 222.753 167.414C222.753 167.414 223.621 161.335 222.891 159.692C222.531 158.92 221.882 158.32 221.083 158.021C220.284 157.722 219.399 157.747 218.619 158.092C217.839 158.436 217.225 159.073 216.91 159.864C216.594 160.656 216.603 161.539 216.933 162.324V162.318Z" fill="#008FFF"/>
<path d="M208.134 175.011C209.32 176.36 215.212 178.129 215.212 178.129C215.212 178.129 214.218 172.068 213.029 170.719C212.749 170.389 212.406 170.119 212.021 169.924C211.635 169.728 211.214 169.611 210.783 169.579C210.351 169.548 209.918 169.602 209.508 169.74C209.098 169.877 208.719 170.095 208.394 170.38C208.069 170.665 207.804 171.012 207.615 171.4C207.425 171.788 207.315 172.21 207.291 172.641C207.267 173.072 207.329 173.504 207.474 173.911C207.618 174.318 207.843 174.692 208.134 175.011Z" fill="#008FFF"/>
<path d="M201.274 188.511C202.217 190.043 207.725 192.777 207.725 192.777C207.725 192.777 207.77 186.637 206.824 185.106C206.6 184.742 206.306 184.425 205.96 184.175C205.613 183.924 205.221 183.744 204.805 183.645C204.388 183.545 203.957 183.529 203.534 183.596C203.112 183.664 202.706 183.813 202.342 184.037C201.977 184.261 201.66 184.554 201.409 184.899C201.158 185.245 200.978 185.637 200.878 186.053C200.779 186.468 200.762 186.899 200.83 187.321C200.897 187.743 201.047 188.147 201.271 188.511H201.274Z" fill="#008FFF"/>
<path opacity="0.1" d="M112.369 249.996C132.086 249.996 148.07 247.322 148.07 244.022C148.07 240.723 132.086 238.048 112.369 238.048C92.6516 238.048 76.6675 240.723 76.6675 244.022C76.6675 247.322 92.6516 249.996 112.369 249.996Z" fill="#008FFF"/>
<path opacity="0.1" d="M182.64 204.136C202.357 204.136 218.341 201.461 218.341 198.161C218.341 194.862 202.357 192.187 182.64 192.187C162.923 192.187 146.938 194.862 146.938 198.161C146.938 201.461 162.923 204.136 182.64 204.136Z" fill="#008FFF"/>
<path d="M185.009 119.301L184.976 120.468L182.946 191.967H179.535L181.207 120.468L181.24 119.122L185.009 119.301Z" fill="#B77B7F"/>
<path d="M204.761 179.889L202.205 179.883L164.234 179.802L162.209 179.799L163.288 176.483H204.491L204.761 179.889Z" fill="#DDA2A6"/>
<path opacity="0.1" d="M185.009 119.301L184.976 120.468H181.207L181.24 119.122L185.009 119.301Z" fill="black"/>
<path d="M186.448 117.559H180.12V119.936H186.448V117.559Z" fill="#B77B7F"/>
<path opacity="0.1" d="M164.57 176.483L164.234 179.802L162.209 179.799L163.288 176.483H164.57Z" fill="black"/>
<path d="M170.02 117.52L169.915 118.551L161.491 201.477L157.632 201.295L166.51 118.551L166.609 117.609L170.02 117.52Z" fill="#DDA2A6"/>
<path opacity="0.1" d="M204.761 179.889L202.205 179.883L201.86 176.483H204.491L204.761 179.889Z" fill="black"/>
<path d="M208.8 201.295L204.938 201.477L196.517 118.551L196.412 117.52L199.821 117.609L199.92 118.551L208.8 201.295Z" fill="#DDA2A6"/>
<path d="M225.224 35.7627H140.127V117.209H225.224V35.7627Z" fill="white"/>
<path d="M184.337 8.52553V28.193H181.018V8.52553C181.009 8.30211 181.044 8.07907 181.124 7.86985C181.203 7.66062 181.323 7.46953 181.478 7.30808C181.633 7.14663 181.819 7.01815 182.026 6.93038C182.232 6.84261 182.453 6.79736 182.677 6.79736C182.901 6.79736 183.123 6.84261 183.329 6.93038C183.535 7.01815 183.721 7.14663 183.876 7.30808C184.031 7.46953 184.152 7.66062 184.231 7.86985C184.31 8.07907 184.346 8.30211 184.337 8.52553Z" fill="#DDA2A6"/>
<path opacity="0.1" d="M184.337 26.3872H181.015V28.1768H184.337V26.3872Z" fill="black"/>
<path d="M185.64 27.7409V34.2338H179.733V27.7409C179.733 27.6349 179.753 27.5299 179.794 27.4319C179.834 27.3339 179.894 27.2448 179.969 27.1699C180.044 27.0949 180.133 27.0355 180.231 26.9951C180.329 26.9548 180.435 26.9342 180.541 26.9346H184.838C185.051 26.9362 185.255 27.0218 185.406 27.1729C185.556 27.3239 185.64 27.5281 185.64 27.7409Z" fill="#DDA2A6"/>
<path opacity="0.1" d="M182.676 32.3102C183.369 32.3102 183.931 31.7492 183.931 31.0572C183.931 30.3652 183.369 29.8042 182.676 29.8042C181.982 29.8042 181.42 30.3652 181.42 31.0572C181.42 31.7492 181.982 32.3102 182.676 32.3102Z" fill="black"/>
<path d="M182.676 32.0558C183.369 32.0558 183.931 31.4948 183.931 30.8028C183.931 30.1108 183.369 29.5498 182.676 29.5498C181.982 29.5498 181.42 30.1108 181.42 30.8028C181.42 31.4948 181.982 32.0558 182.676 32.0558Z" fill="#B77B7F"/>
<path opacity="0.1" d="M185.64 33.4375H179.715V34.2439H185.64V33.4375Z" fill="black"/>
<path opacity="0.1" d="M188.063 34.5122H177.291V36.3048H188.063V34.5122Z" fill="black"/>
<path d="M188.063 33.9653H177.291V35.7579H188.063V33.9653Z" fill="#DDA2A6"/>
<path opacity="0.1" d="M160.885 115.117H206.127C206.645 115.117 207.141 115.322 207.507 115.688C207.874 116.053 208.079 116.549 208.079 117.066V117.491H158.933V117.066C158.933 116.549 159.138 116.053 159.504 115.688C159.87 115.322 160.367 115.117 160.885 115.117Z" fill="black"/>
<path opacity="0.1" d="M166.609 117.609L170.02 117.52L169.915 118.551H166.51L166.609 117.609Z" fill="black"/>
<path opacity="0.1" d="M186.448 117.559H180.12V118.545H186.448V117.559Z" fill="black"/>
<path opacity="0.1" d="M199.92 118.551H196.517L196.412 117.52L199.821 117.609L199.92 118.551Z" fill="black"/>
<path d="M160.885 115.644H206.127C206.645 115.644 207.141 115.849 207.507 116.214C207.874 116.58 208.079 117.075 208.079 117.592V118.018H158.933V117.592C158.933 117.075 159.138 116.58 159.504 116.214C159.87 115.849 160.367 115.644 160.885 115.644Z" fill="#DDA2A6"/>
<path d="M150.966 77.8223C150.284 77.4625 142.857 71.863 142.857 71.863L130.871 64.2759C130.871 64.2759 130.808 64.0961 130.694 63.7873C133.983 60.0613 133.265 54.6535 129.919 50.8525C125.865 46.2421 107.546 36.317 102.026 44.8063C101.254 46.0053 101.227 47.3663 101.026 48.6852C100.555 51.7638 99.0351 54.7464 96.6506 57.2585C94.8126 59.1979 92.4011 60.9845 91.344 63.1788C91.344 63.1518 91.323 63.1248 91.3139 63.0949C91.0588 63.5652 90.8736 64.0701 90.7644 64.5937C90.2388 67.2706 92.0407 69.8366 92.9987 72.4415C93.3203 73.3236 93.5537 74.2354 93.6955 75.1634C93.7195 74.9775 93.7405 74.7947 93.7615 74.6088C93.995 75.9302 94.0746 77.274 93.9988 78.6136C87.3468 79.9656 87.3438 91.3236 87.3438 91.3236C87.3438 91.3236 86.5239 95.8381 86.6621 97.4658C86.8002 99.0935 86.7972 102.613 86.7972 103.461C86.7972 104.309 85.9773 109.6 85.8963 110.236C85.8971 110.245 85.8971 110.254 85.8963 110.263C85.7761 110.958 84.5298 114.31 87.542 115.059C87.7522 115.113 87.9744 115.158 88.2057 115.2C88.3348 117.913 88.5691 123.593 88.3619 124.858C88.3619 124.858 89.458 132.49 90.368 134.43C90.9434 135.567 91.6166 136.652 92.3801 137.673C92.314 138.138 92.1568 138.585 91.9176 138.989C91.4521 139.658 91.6923 140.206 92.4702 140.443C92.4431 140.674 92.4131 140.935 92.3801 141.228C92.0467 144.172 91.5482 150.023 92.3951 152.988C93.5573 157.053 93.6264 158.408 93.6264 158.408C93.6264 158.408 93.6264 159.625 94.1069 160.302C94.5874 160.98 95.4733 167.281 95.4733 168.297C95.4733 169.313 97.7978 178.456 97.113 180.623C96.4283 182.791 96.9779 185.839 96.9779 185.839C96.9779 185.839 96.5665 191.19 96.077 192.341C95.5874 193.492 95.3922 212.05 96.143 216.859C96.8938 221.667 97.3743 225.663 97.3743 225.663C97.3743 225.663 96.8968 230.066 97.3052 230.675C97.7137 231.283 98.4675 234.943 97.9209 235.144C97.3743 235.345 97.101 236.838 97.101 236.838C97.3901 237.277 97.7018 237.7 98.035 238.106C97.8243 238.033 97.6186 237.945 97.4194 237.845C97.6356 238.145 97.9599 238.571 98.3594 239.044L97.984 243.915C97.9682 244.105 98.0196 244.295 98.1294 244.451C98.2391 244.607 98.4002 244.72 98.5846 244.77C99.7838 245.095 101.049 245.09 102.245 244.754C103.442 244.418 104.524 243.765 105.378 242.863C108.795 239.41 109.958 239.884 110.573 237.785C110.639 237.56 110.696 237.339 110.744 237.129C111.186 235.258 109.189 233.867 107.6 234.665C107.819 233.184 107.99 231.502 107.825 230.552C107.483 228.588 107.552 223.441 107.552 223.441L107.075 198.786C107.075 198.786 107.96 193.909 108.988 192.014C110.015 190.12 109.888 183.48 109.888 183.48L111.051 161.669L112.144 151.037C112.144 151.037 113.237 147.379 114.603 151.444C114.603 151.444 113.853 159.637 114.195 161.603C114.537 163.57 115.015 173.117 114.672 175.215C114.33 177.314 112.829 188.831 113.772 191.741C114.715 194.652 115.766 198.18 115.555 199.335C115.345 200.489 114.654 225.477 114.654 225.477C114.654 225.477 116.501 230.273 115.135 231.844C113.769 233.415 115.066 239.638 115.066 239.638C115.066 239.638 115.231 239.755 115.513 239.917L115.474 240.435L115.045 246.038C115.03 246.228 115.081 246.418 115.191 246.574C115.3 246.731 115.461 246.844 115.646 246.895C116.845 247.221 118.11 247.215 119.306 246.88C120.503 246.544 121.585 245.89 122.439 244.989C125.856 241.532 127.018 242.009 127.634 239.908C127.7 239.683 127.757 239.464 127.808 239.251C128.289 237.21 125.856 235.729 124.229 237.063L124.147 237.132C124.062 237.204 123.973 237.271 123.88 237.333C123.837 237.364 123.792 237.393 123.745 237.419C124.087 235.873 124.586 233.223 124.346 231.982C124.003 230.153 124.685 224.602 124.685 224.602C124.685 224.602 126.667 217.962 126.736 215.309L127.283 194.179C127.283 194.179 127.217 185.575 127.49 183.477C127.763 181.379 129.95 163.225 132.136 157.805C133.815 153.657 134.565 143.069 134.121 137.7C134.097 137.436 134.073 137.181 134.043 136.945C136.725 134.969 136.992 131.684 136.992 131.684C136.992 131.684 134.529 126.99 132.16 125.002C129.79 123.015 129.28 119.597 129.364 118.143C129.404 117.258 129.112 116.389 128.544 115.706C128.544 115.706 127.451 112.184 126.721 111.824C126.661 111.794 126.608 111.754 126.562 111.705C126.066 111.174 126.448 109.657 126.448 109.657V109.609C126.535 109.258 127.048 106.986 126.895 106.405C126.712 105.775 126.985 102.793 126.985 102.793C126.985 102.793 128.718 97.6456 128.445 93.5808C128.172 89.516 132.001 89.8788 132.001 89.8788L143.824 89.7559H145.17C145.644 89.3538 146.077 88.9059 146.464 88.4189C148.716 88.1521 153.272 87.3038 153.783 84.8217C154.476 81.5273 151.65 78.185 150.966 77.8223ZM96.1881 115.401L96.2692 113.335C96.5484 113.575 96.7346 113.728 96.7346 113.728C96.8854 114.268 96.8927 114.839 96.7557 115.383C96.6823 115.638 96.5521 115.874 96.3748 116.072C96.1975 116.27 95.9776 116.426 95.7316 116.528C95.6744 116.553 95.6192 116.582 95.5664 116.615L95.4523 115.449L96.1881 115.401ZM139.073 79.1292C138.572 78.9044 136.884 78.9494 136.016 78.9494C135.148 78.9494 133.74 78.2269 133.74 78.2269C133.439 77.6424 131.778 77.2947 130.301 77.0968C129.178 74.333 127.598 71.6381 127.385 68.7574C127.385 68.6525 127.385 68.5476 127.37 68.4427L127.541 68.7424C127.541 68.7424 134.424 73.125 135.199 74.4379C135.8 75.4391 138.692 77.6754 140.031 78.6766C139.847 78.9168 139.588 79.0896 139.295 79.1682C139.219 79.1765 139.142 79.1629 139.073 79.1292Z" fill="url(#paint0_linear)"/>
<path d="M127.706 239.268C127.655 239.478 127.601 239.697 127.535 239.919C126.934 242.017 125.784 241.532 122.429 244.958C121.593 245.852 120.529 246.501 119.35 246.835C118.171 247.169 116.923 247.175 115.741 246.852C115.557 246.804 115.395 246.692 115.286 246.536C115.176 246.38 115.124 246.191 115.141 246.001L115.564 240.443L115.765 237.769C115.765 237.769 121.123 239.268 123.85 237.365C123.941 237.302 124.029 237.235 124.114 237.164C124.135 237.145 124.155 237.125 124.174 237.104C124.526 236.813 124.96 236.64 125.416 236.607C125.872 236.575 126.326 236.686 126.716 236.925C127.105 237.164 127.41 237.518 127.587 237.938C127.765 238.358 127.806 238.823 127.706 239.268Z" fill="#67647E"/>
<path d="M110.888 237.177C110.837 237.387 110.783 237.606 110.717 237.828C110.117 239.926 108.966 239.44 105.612 242.867C104.776 243.761 103.711 244.41 102.532 244.744C101.354 245.078 100.106 245.084 98.9239 244.761C98.7394 244.712 98.5781 244.6 98.4682 244.445C98.3583 244.289 98.307 244.099 98.3233 243.91L98.7467 238.352L98.9479 235.678C98.9479 235.678 104.306 237.177 107.032 235.274C107.124 235.211 107.212 235.144 107.297 235.073C107.318 235.054 107.338 235.034 107.357 235.013C107.709 234.722 108.143 234.548 108.599 234.516C109.055 234.484 109.509 234.595 109.898 234.834C110.288 235.072 110.593 235.427 110.77 235.847C110.948 236.267 110.989 236.732 110.888 237.177Z" fill="#67647E"/>
<path opacity="0.1" d="M105.354 238.018L105.57 240.908C102.495 243.974 98.8338 239.409 97.7617 237.91C100.582 239.361 105.354 238.018 105.354 238.018Z" fill="black"/>
<path opacity="0.1" d="M123.43 239.177L123.832 238.911C121.024 243.173 116.853 241.207 115.552 240.442L115.753 237.768C115.753 237.768 121.111 239.267 123.838 237.364C123.625 238.407 123.43 239.177 123.43 239.177Z" fill="black"/>
<path d="M131.983 158.474C129.826 163.849 127.673 181.855 127.403 183.954C127.133 186.052 127.202 194.571 127.202 194.571L126.661 215.522C126.592 218.145 124.64 224.731 124.64 224.731C124.64 224.731 123.967 230.24 124.304 232.054C124.64 233.867 123.43 238.649 123.43 238.649L123.832 238.379C120.466 243.475 115.147 239.656 115.147 239.656C115.147 239.656 113.868 233.475 115.216 231.928C116.564 230.381 114.745 225.612 114.745 225.612C114.745 225.612 115.417 200.815 115.618 199.673C115.82 198.531 114.811 195.036 113.868 192.146C112.925 189.257 114.408 177.833 114.745 175.749C115.081 173.666 114.609 164.19 114.273 162.242C113.937 160.293 114.676 152.161 114.676 152.161C113.33 148.129 112.252 151.759 112.252 151.759L111.174 162.308L110.03 183.948C110.03 183.948 110.165 190.543 109.156 192.416C108.147 194.29 107.27 199.134 107.27 199.134L107.741 223.598C107.741 223.598 107.675 228.694 108.012 230.651C108.348 232.608 107.27 237.641 107.27 237.641C103.501 246.505 97.4464 236.895 97.4464 236.895C97.4464 236.895 97.7167 235.417 98.2543 235.216C98.7918 235.016 98.053 231.385 97.6536 230.78C97.2542 230.174 97.7197 225.807 97.7197 225.807C97.7197 225.807 97.2482 221.844 96.5184 217.072C95.7887 212.299 95.9809 193.888 96.4524 192.746C96.9239 191.604 97.3263 186.295 97.3263 186.295C97.3263 186.295 96.7887 183.27 97.4614 181.118C98.1341 178.966 95.8457 169.898 95.8457 168.888C95.8457 167.877 94.9718 161.63 94.5003 160.959C94.0288 160.287 94.0288 159.076 94.0288 159.076C94.0288 159.076 93.9627 157.733 92.8276 153.702C91.9927 150.758 92.4852 144.955 92.8125 142.032C92.9297 140.95 93.0318 140.26 93.0318 140.26C93.0318 140.26 131.643 134.01 133.184 135.422C133.544 135.755 133.785 136.897 133.926 138.525C134.385 143.848 133.628 154.37 131.983 158.474Z" fill="#444053"/>
<path opacity="0.1" d="M117.369 188.682C117.549 188.682 121.814 189.042 123.375 188.727C124.937 188.413 117.369 188.682 117.369 188.682Z" fill="black"/>
<path opacity="0.1" d="M117.685 191.211C117.685 191.211 123.574 192.242 123.874 191.706C124.174 191.169 117.685 191.211 117.685 191.211Z" fill="black"/>
<path opacity="0.1" d="M99.6865 190.118C99.6865 190.118 102.738 190.253 104.398 191.017C106.059 191.782 99.6865 190.118 99.6865 190.118Z" fill="black"/>
<path d="M88.5991 114.777C88.5991 114.777 89.0916 124.139 88.8244 125.796C88.8244 125.796 89.8995 133.368 90.7974 135.293C91.6954 137.217 93.6264 139.639 93.6264 139.639L96.2752 121.054L95.6445 114.687L88.5991 114.777Z" fill="#EFB7B9"/>
<path d="M116.426 72.1215C122.152 72.1215 126.793 67.4886 126.793 61.7736C126.793 56.0587 122.152 51.4258 116.426 51.4258C110.701 51.4258 106.06 56.0587 106.06 61.7736C106.06 67.4886 110.701 72.1215 116.426 72.1215Z" fill="#EFB7B9"/>
<path d="M111.042 66.6096C111.042 66.6096 107.81 72.9286 104.579 75.8843C101.348 78.84 123.967 82.2003 124.505 82.2003C125.042 82.2003 120.466 68.7619 121.274 67.1402C122.081 65.5185 111.042 66.6096 111.042 66.6096Z" fill="#EFB7B9"/>
<path opacity="0.1" d="M133.932 138.525C133.424 138.911 132.864 139.224 132.268 139.454C128.142 141.067 123.652 143.306 120.601 142.412C117.55 141.519 111.087 142.412 111.087 142.412C111.087 142.412 98.0681 141.336 95.4704 141.963C94.2872 142.248 93.3682 142.236 92.7676 142.032C92.8847 140.95 92.9868 140.26 92.9868 140.26C92.9868 140.26 131.643 134.01 133.184 135.422C133.55 135.755 133.785 136.897 133.932 138.525Z" fill="black"/>
<path d="M136.758 132.563C136.758 132.563 136.4 137.044 132.268 138.657C128.136 140.27 123.652 142.509 120.601 141.615C117.55 140.722 111.087 141.615 111.087 141.615C111.087 141.615 98.0682 140.539 95.4704 141.166C92.8727 141.792 91.5183 140.989 92.3261 139.823C93.134 138.657 93.0469 134.805 93.0469 133.192C93.0469 131.579 92.146 125.039 92.9538 123.872C93.7617 122.706 94.4794 118.228 96.0951 117.508C96.3377 117.407 96.5543 117.251 96.729 117.055C96.9036 116.858 97.0318 116.625 97.1042 116.372C97.2377 115.833 97.2305 115.268 97.0831 114.733C97.0831 114.733 96.8098 114.508 96.4345 114.175C95.4825 113.327 93.8728 111.753 94.3893 111.237C95.1071 110.518 94.3893 105.86 94.3893 105.86C94.3893 105.86 92.6835 102.278 93.3142 100.935C93.9448 99.5916 87.8364 92.5112 87.8364 92.5112C87.8364 92.5112 87.8364 80.3288 95.1972 79.7893C95.1972 79.7893 100.405 79.9691 101.032 77.6399C101.66 75.3108 105.789 73.9648 105.789 73.9648L115.216 76.0272C115.216 76.0272 123.562 77.8258 125.091 76.7437C126.619 75.6615 127.793 78.1765 127.793 78.1765C127.793 78.1765 132.998 78.4463 133.535 79.5225C134.073 80.5986 131.833 91.0783 131.833 91.0783C131.833 91.0783 128.061 90.7216 128.331 94.7534C128.601 98.7853 126.877 103.893 126.877 103.893C126.877 103.893 126.607 106.849 126.787 107.475C126.956 108.054 126.433 110.308 126.349 110.656V110.701C126.349 110.701 125.973 112.2 126.46 112.733C126.505 112.782 126.558 112.822 126.616 112.853C127.337 113.21 128.418 116.705 128.418 116.705C128.979 117.384 129.266 118.246 129.226 119.124C129.139 120.56 129.676 123.962 132.01 125.935C134.343 127.907 136.758 132.563 136.758 132.563Z" fill="#A36468"/>
<path d="M96.7227 111.794V112.174L96.5605 116.371C96.5605 116.371 91.0378 116.818 88.0316 116.071C85.0255 115.325 86.2898 111.994 86.4099 111.305C86.411 111.296 86.411 111.287 86.4099 111.278C86.497 110.648 87.3108 105.409 87.3108 104.557C87.3108 103.706 87.3108 100.211 87.1757 98.5979C87.0406 96.9852 87.8364 92.4918 87.8364 92.4918L88.419 91.7783L94.7436 94.1974L96.7227 111.794Z" fill="#A36468"/>
<path opacity="0.1" d="M96.7076 112.198L96.5454 116.395C96.5454 116.395 91.0226 116.841 88.0165 116.095C85.0103 115.348 86.2746 112.018 86.3948 111.329L96.7076 112.198Z" fill="black"/>
<path opacity="0.1" d="M97.1038 116.364C97.2373 115.825 97.2301 115.26 97.0828 114.724C97.0828 114.724 96.8095 114.499 96.4341 114.167C101.188 113.504 120.015 110.926 126.354 110.645V110.689C126.354 110.689 125.979 112.188 126.466 112.722L97.1038 116.364Z" fill="black"/>
<path opacity="0.1" d="M127.063 119.609C127.063 119.609 128.232 126.204 123.877 128.524C123.874 128.536 126.346 125.265 127.063 119.609Z" fill="black"/>
<path opacity="0.1" d="M98.5635 128.707C98.5635 128.707 109.075 126.908 111.132 128.305C113.189 129.702 98.5635 128.707 98.5635 128.707Z" fill="black"/>
<path opacity="0.1" d="M123.429 87.8911C123.429 87.8911 121.814 94.5219 123.024 96.0447C124.234 97.5675 123.429 87.8911 123.429 87.8911Z" fill="black"/>
<path opacity="0.1" d="M92.9985 82.48C92.9985 82.48 94.479 84.944 93.5811 87.498C92.6832 90.052 92.9985 82.48 92.9985 82.48Z" fill="black"/>
<path opacity="0.1" d="M89.9385 104.082C89.9385 104.082 91.8245 105.2 91.1968 106.947C90.5691 108.695 89.9385 104.082 89.9385 104.082Z" fill="black"/>
<path opacity="0.1" d="M89.7671 98.9644C89.7671 98.9644 91.5149 99.9056 91.7402 101.294C91.9654 102.681 89.7671 98.9644 89.7671 98.9644Z" fill="black"/>
<path opacity="0.1" d="M115.708 152.533C115.708 152.533 126.706 153.654 128.904 151.055C128.904 151.07 118.985 153.028 115.708 152.533Z" fill="black"/>
<path opacity="0.1" d="M96.7227 151.915C96.7227 151.915 108.528 154.694 110.862 152.497C110.862 152.497 100.717 153.258 96.7227 151.915Z" fill="black"/>
<path opacity="0.1" d="M116.562 156.172C116.562 156.172 121.499 156.172 123.787 156.307C126.076 156.442 116.562 156.172 116.562 156.172Z" fill="black"/>
<path opacity="0.1" d="M97.5303 158.281C97.5303 158.281 99.9538 161.015 102.693 160.523C105.432 160.032 97.5303 158.281 97.5303 158.281Z" fill="black"/>
<path d="M102.29 46.3413C101.531 47.5194 101.504 48.8833 101.305 50.1903C100.843 53.2449 99.3443 56.2036 96.9988 58.6976C94.8455 60.9818 91.8934 63.0532 91.3349 65.844C90.8063 68.4939 92.5992 71.0449 93.5392 73.6378C96.0168 80.4395 92.5571 87.5738 91.5481 94.5943C91.2688 96.5338 91.6051 99.0128 93.9986 99.6573C94.7464 99.8612 95.6023 99.8342 96.275 100.158C97.176 100.59 97.4523 101.486 97.6174 102.292C98.2198 105.177 98.4279 108.129 98.2361 111.069C98.128 112.718 98.0079 114.616 99.5695 115.749C100.278 116.267 101.233 116.531 102.155 116.78C104.615 117.442 107.795 117.979 109.453 116.423C110.15 115.773 110.411 114.855 111.279 114.34C112.579 113.569 114.423 114.091 116.06 114.172C119.42 114.34 122.508 112.373 123.832 110.002C125.156 107.631 125.033 104.906 124.553 102.349C124.072 99.7922 123.213 97.2532 123.153 94.6573C123.132 93.758 123.213 92.8437 123.73 92.0463C124.73 90.5025 127.057 89.8011 128.649 88.587C131.631 86.3088 131.622 82.5768 130.538 79.4532C129.454 76.3297 127.508 73.3351 127.268 70.1066C127.16 69.3262 127.316 68.5323 127.709 67.8494C128.135 67.1929 128.88 66.7013 129.511 66.1587C133.862 62.4896 133.349 56.4644 129.751 52.3396C125.769 47.7682 107.726 37.921 102.29 46.3413Z" fill="#E3787D"/>
<g opacity="0.1">
<path opacity="0.1" d="M94.0916 76.4878C94.431 73.7629 94.3679 71.062 93.4039 68.4091C92.9294 67.1082 92.2417 65.8162 91.7402 64.5122C91.4896 64.9837 91.3076 65.4883 91.1996 66.011C90.671 68.6609 92.4639 71.2119 93.4039 73.8049C93.7203 74.6746 93.9507 75.5732 94.0916 76.4878Z" fill="black"/>
<path opacity="0.1" d="M98.101 105.837C98.2924 102.897 98.0853 99.9451 97.4853 97.0604C97.3172 96.254 97.0409 95.3607 96.1399 94.929C95.4672 94.6053 94.6113 94.6293 93.8635 94.4284C93.4041 94.3185 92.9759 94.1052 92.6115 93.805C92.2472 93.5047 91.9564 93.1253 91.7613 92.6958C91.6232 93.3793 91.5031 94.0597 91.404 94.7432C91.1247 96.6827 91.461 99.1617 93.8545 99.8062C94.6023 100.007 95.4582 99.9801 96.1309 100.304C97.0319 100.735 97.3082 101.632 97.4763 102.438C97.7518 103.776 97.9444 105.129 98.0529 106.491C98.074 106.269 98.086 106.053 98.101 105.837Z" fill="black"/>
<path opacity="0.1" d="M123.7 104.768C122.372 107.148 119.285 109.105 115.925 108.938C114.288 108.854 112.444 108.338 111.147 109.105C110.279 109.618 110.014 110.538 109.318 111.189C107.66 112.733 104.48 112.208 102.02 111.545C101.098 111.294 100.146 111.033 99.4343 110.514C98.7561 110.016 98.2984 109.275 98.158 108.446C98.176 109.366 98.158 110.289 98.1009 111.21C97.9928 112.858 97.8727 114.756 99.4343 115.892C100.146 116.408 101.098 116.671 102.02 116.92C104.48 117.583 107.66 118.119 109.318 116.564C110.014 115.913 110.279 114.996 111.147 114.465C112.444 113.695 114.288 114.216 115.925 114.297C119.285 114.465 122.372 112.499 123.7 110.128C124.973 107.837 124.916 105.247 124.472 102.774C124.304 103.47 124.045 104.141 123.7 104.768Z" fill="black"/>
<path opacity="0.1" d="M129.388 60.9375C128.745 61.4771 128 61.9717 127.586 62.6281C127.192 63.311 127.037 64.1049 127.144 64.8854C127.232 65.8663 127.439 66.8328 127.763 67.7631C128.263 67.2307 128.811 66.7451 129.4 66.3122C132.343 63.8332 133.058 60.275 132.103 56.9536C131.599 58.5138 130.656 59.8966 129.388 60.9375Z" fill="black"/>
<path opacity="0.1" d="M128.514 83.3589C126.925 84.5729 124.595 85.2774 123.598 86.8211C123.078 87.6185 122.997 88.5388 123.018 89.4291C123.055 90.4775 123.184 91.5206 123.402 92.5466C123.459 92.4253 123.525 92.3082 123.598 92.1959C124.595 90.6521 126.925 89.9507 128.514 88.7366C131.238 86.6563 131.466 83.3649 130.661 80.4302C130.253 81.5977 129.505 82.6173 128.514 83.3589Z" fill="black"/>
</g>
<path d="M144.836 89.7185C144.836 89.7185 152.602 89.3169 153.275 86.0464C153.947 82.776 151.173 79.4516 150.494 79.1009C149.815 78.7502 142.493 73.1866 142.493 73.1866L130.691 65.6625C130.691 65.6625 125.036 49.4753 123.784 55.6714C122.531 61.8675 127.421 70.096 127.421 70.096C127.421 70.096 134.196 74.4426 134.959 75.7406C135.721 77.0385 140.391 80.4439 140.391 80.4439L144.836 89.7185Z" fill="#EFB7B9"/>
<path d="M149.01 84.4452C147.172 89.1066 144.791 90.9441 144.791 90.9441H143.467L131.823 91.064L130.481 87.4039L132.367 79.4722L133.532 79.5201C133.532 79.5201 134.926 80.2366 135.776 80.2366C136.625 80.2366 138.292 80.1916 138.779 80.4134C138.847 80.4466 138.923 80.4581 138.998 80.4464C139.439 80.4014 139.899 79.742 139.899 79.742C139.899 79.742 150.851 79.7869 149.01 84.4452Z" fill="#A36468"/>
<path opacity="0.1" d="M149.01 84.4413C147.172 89.1027 144.791 90.9402 144.791 90.9402H143.467C144.157 89.0937 145.614 85.3047 146.169 84.4294C146.713 83.602 141.836 81.5426 138.983 80.4305C139.424 80.3855 139.884 79.7261 139.884 79.7261C139.884 79.7261 150.851 79.783 149.01 84.4413Z" fill="black"/>
<path opacity="0.1" d="M27.2748 231.352C34.6024 231.352 40.5427 230.192 40.5427 228.762C40.5427 227.331 34.6024 226.172 27.2748 226.172C19.9471 226.172 14.0068 227.331 14.0068 228.762C14.0068 230.192 19.9471 231.352 27.2748 231.352Z" fill="#008FFF"/>
<path opacity="0.1" d="M248.445 213.557C253.782 213.557 258.109 212.713 258.109 211.671C258.109 210.63 253.782 209.786 248.445 209.786C243.108 209.786 238.781 210.63 238.781 211.671C238.781 212.713 243.108 213.557 248.445 213.557Z" fill="#008FFF"/>
<path opacity="0.1" d="M290.336 221.211C295.673 221.211 300 220.367 300 219.326C300 218.285 295.673 217.44 290.336 217.44C284.999 217.44 280.672 218.285 280.672 219.326C280.672 220.367 284.999 221.211 290.336 221.211Z" fill="#008FFF"/>
<path opacity="0.1" d="M225.471 236.954C230.808 236.954 235.135 236.11 235.135 235.069C235.135 234.027 230.808 233.183 225.471 233.183C220.133 233.183 215.807 234.027 215.807 235.069C215.807 236.11 220.133 236.954 225.471 236.954Z" fill="#008FFF"/>
<path d="M39.8127 156.874C39.8127 156.874 41.987 159.713 38.8096 163.993C35.6323 168.274 33.0166 171.889 34.0797 174.56C34.0797 174.56 38.8697 166.607 42.7708 166.496C46.6719 166.386 44.1042 161.658 39.8127 156.874Z" fill="#008FFF"/>
<path opacity="0.1" d="M39.8126 156.874C40.0028 157.151 40.1525 157.454 40.2571 157.773C44.0621 162.237 46.0892 166.401 42.4314 166.505C39.0258 166.601 34.9385 172.684 33.9595 174.218C33.9908 174.338 34.0299 174.455 34.0766 174.569C34.0766 174.569 38.8666 166.616 42.7677 166.505C46.6688 166.395 44.1041 161.658 39.8126 156.874Z" fill="black"/>
<path d="M43.8521 160.487C43.8521 161.485 43.741 162.285 43.6029 162.285C43.4647 162.285 43.3506 161.476 43.3506 160.487C43.3506 159.497 43.4917 159.959 43.6299 159.959C43.768 159.959 43.8521 159.476 43.8521 160.487Z" fill="#FFD037"/>
<path d="M45.2397 161.665C44.3628 162.142 43.597 162.433 43.5309 162.31C43.4648 162.187 44.1315 161.71 44.9994 161.224C45.8673 160.739 45.531 161.096 45.6001 161.224C45.6691 161.353 46.1166 161.185 45.2397 161.665Z" fill="#FFD037"/>
<path d="M28.3378 156.874C28.3378 156.874 26.1635 159.713 29.3409 163.993C32.5182 168.274 35.134 171.889 34.0799 174.56C34.0799 174.56 29.2748 166.607 25.3707 166.496C21.4666 166.386 24.0463 161.658 28.3378 156.874Z" fill="#008FFF"/>
<path opacity="0.1" d="M28.3376 156.874C28.1473 157.151 27.9977 157.454 27.8931 157.773C24.0881 162.237 22.061 166.401 25.7188 166.505C29.1244 166.601 33.2267 172.684 34.1907 174.218C34.159 174.337 34.1209 174.454 34.0766 174.569C34.0766 174.569 29.2715 166.616 25.3674 166.505C21.4633 166.395 24.0461 161.658 28.3376 156.874Z" fill="black"/>
<path d="M24.2983 160.487C24.2983 161.485 24.4095 162.285 24.5476 162.285C24.6857 162.285 24.7999 161.476 24.7999 160.487C24.7999 159.497 24.6587 159.959 24.5206 159.959C24.3824 159.959 24.2983 159.476 24.2983 160.487Z" fill="#FFD037"/>
<path d="M22.9112 161.665C23.7911 162.142 24.5539 162.433 24.623 162.31C24.692 162.187 24.0223 161.71 23.1514 161.224C22.2805 160.739 22.6199 161.096 22.5508 161.224C22.4817 161.353 22.0342 161.185 22.9112 161.665Z" fill="#FFD037"/>
<path opacity="0.1" d="M34.0738 196.239C46.6211 196.239 56.7927 194.681 56.7927 192.759C56.7927 190.836 46.6211 189.278 34.0738 189.278C21.5266 189.278 11.355 190.836 11.355 192.759C11.355 194.681 21.5266 196.239 34.0738 196.239Z" fill="#008FFF"/>
<path d="M45.7679 170.723L45.6597 171.623L45.5066 172.873L45.4435 173.394L45.2904 174.647L45.2243 175.169L45.0711 176.419L43.3353 190.64C43.1791 191.911 41.101 192.9 38.5903 192.9H29.5749C27.0642 192.9 24.989 191.911 24.8329 190.64L23.0941 176.416L22.9409 175.166L22.8778 174.644L22.7217 173.391L22.6586 172.87L22.5054 171.62L22.3973 170.72C22.3102 170.001 23.4334 169.396 24.8539 169.396H43.3293C44.7318 169.399 45.858 170.004 45.7679 170.723Z" fill="#65617D"/>
<path d="M45.657 171.621L45.5069 172.874H22.6409L22.4907 171.621H45.657Z" fill="#9D9CB5"/>
<path d="M45.4409 173.379L45.2907 174.629H22.8602L22.707 173.379H45.4409Z" fill="#9D9CB5"/>
<path d="M45.2243 175.175L45.0711 176.425H23.076L22.9229 175.175H45.2243Z" fill="#9D9CB5"/>
<path opacity="0.1" d="M54.0537 46.7753C59.2783 46.7753 63.5136 42.5477 63.5136 37.3327C63.5136 32.1177 59.2783 27.8901 54.0537 27.8901C48.8291 27.8901 44.5938 32.1177 44.5938 37.3327C44.5938 42.5477 48.8291 46.7753 54.0537 46.7753Z" fill="#008FFF"/>
<path opacity="0.1" d="M34.2331 20.6942C37.4674 20.6942 40.0893 18.0771 40.0893 14.8488C40.0893 11.6205 37.4674 9.00342 34.2331 9.00342C30.9988 9.00342 28.377 11.6205 28.377 14.8488C28.377 18.0771 30.9988 20.6942 34.2331 20.6942Z" fill="#008FFF"/>
<path opacity="0.1" d="M3.60378 31.4727C5.5941 31.4727 7.20757 29.8621 7.20757 27.8755C7.20757 25.8888 5.5941 24.2783 3.60378 24.2783C1.61347 24.2783 0 25.8888 0 27.8755C0 29.8621 1.61347 31.4727 3.60378 31.4727Z" fill="#008FFF"/>
</g>
<defs>
<linearGradient id="paint0_linear" x1="119.712" y1="247.123" x2="119.712" y2="41.4849" gradientUnits="userSpaceOnUse">
<stop stop-color="#808080" stop-opacity="0.25"/>
<stop offset="0.54" stop-color="#808080" stop-opacity="0.12"/>
<stop offset="1" stop-color="#808080" stop-opacity="0.1"/>
</linearGradient>
<clipPath id="clip0">
<rect width="300" height="250" fill="white"/>
</clipPath>
</defs>
</svg>
