<svg width="19" height="25" viewBox="0 0 19 25" fill="none" xmlns="http://www.w3.org/2000/svg">
<path fill-rule="evenodd" clip-rule="evenodd" d="M2.69535 23.9999H16.614C17.9837 23.9999 19 22.8225 19 21.1924V4.16595C19 2.53576 18.0279 1.3584 16.6581 1.3584H2.73953C1.2814 1.3584 0 2.67161 0 4.16595V21.1924C0 22.6867 1.23721 23.9999 2.69535 23.9999ZM1.76744 4.16595C1.76744 3.66783 2.25349 3.16972 2.73953 3.16972H16.6581C17.2326 3.16972 17.2326 4.07538 17.2326 4.16595V21.1924C17.2326 21.5093 17.1 22.1886 16.614 22.1886H2.69535C2.2093 22.1886 1.76744 21.6905 1.76744 21.1924V4.16595Z" fill="white"/>
<path fill-rule="evenodd" clip-rule="evenodd" d="M4.86051 5.4336H4.81632C4.24191 5.4336 3.75586 4.93549 3.75586 4.34681V1.13171C3.75586 0.543035 4.24191 0.0449219 4.81632 0.0449219H4.86051C5.43493 0.0449219 5.92098 0.543035 5.92098 1.13171V4.34681C5.92098 4.93549 5.43493 5.4336 4.86051 5.4336Z" fill="white"/>
<path fill-rule="evenodd" clip-rule="evenodd" d="M9.72098 5.4336H9.6768C9.10238 5.4336 8.61633 4.93549 8.61633 4.34681V1.13171C8.61633 0.543035 9.10238 0.0449219 9.6768 0.0449219H9.72098C10.2954 0.0449219 10.7814 0.543035 10.7814 1.13171V4.34681C10.7814 4.93549 10.2954 5.4336 9.72098 5.4336Z" fill="white"/>
<path fill-rule="evenodd" clip-rule="evenodd" d="M14.5813 5.4336H14.5371C13.9627 5.4336 13.4767 4.93549 13.4767 4.34681V1.13171C13.4767 0.543035 13.9627 0.0449219 14.5371 0.0449219H14.5813C15.1558 0.0449219 15.6418 0.543035 15.6418 1.13171V4.34681C15.6418 4.93549 15.1558 5.4336 14.5813 5.4336Z" fill="white"/>
<path fill-rule="evenodd" clip-rule="evenodd" d="M14.5814 9.05644H4.41863C3.93259 9.05644 3.53491 8.64889 3.53491 8.15078C3.53491 7.65266 3.93259 7.24512 4.41863 7.24512H14.5814C15.0675 7.24512 15.4651 7.65266 15.4651 8.15078C15.4651 8.64889 15.0675 9.05644 14.5814 9.05644Z" fill="white"/>
<path fill-rule="evenodd" clip-rule="evenodd" d="M14.5814 14.0379H4.41863C3.93259 14.0379 3.53491 13.6303 3.53491 13.1322C3.53491 12.6341 3.93259 12.2266 4.41863 12.2266H14.5814C15.0675 12.2266 15.4651 12.6341 15.4651 13.1322C15.4651 13.6303 15.0675 14.0379 14.5814 14.0379Z" fill="white"/>
<path fill-rule="evenodd" clip-rule="evenodd" d="M14.5814 19.0193H4.41863C3.93259 19.0193 3.53491 18.6118 3.53491 18.1137C3.53491 17.6156 3.93259 17.208 4.41863 17.208H14.5814C15.0675 17.208 15.4651 17.6156 15.4651 18.1137C15.4651 18.6118 15.0675 19.0193 14.5814 19.0193Z" fill="white"/>
</svg>
