<svg width="144" height="144" viewBox="0 0 144 144" fill="none" xmlns="http://www.w3.org/2000/svg">
<rect width="144" height="144" rx="2" fill="#EBE7D3"/>
<mask id="mask0" mask-type="alpha" maskUnits="userSpaceOnUse" x="0" y="0" width="144" height="144">
<rect width="144" height="144" rx="11.7" fill="white"/>
</mask>
<g mask="url(#mask0)">
<path fill-rule="evenodd" clip-rule="evenodd" d="M161.004 43.8532C158.457 22.8579 139.857 7.96325 119.461 10.5849C108.113 12.0436 98.6056 18.6207 92.8365 27.7812C85.0235 25.5115 76.65 24.7777 68.0882 25.8783C33.7649 30.29 9.41526 62.5078 13.7011 97.8385C17.987 133.169 49.2859 158.234 83.6088 153.822C117.227 149.501 141.272 118.505 138.22 84.0358C153.378 77.6336 163.132 61.3929 161.004 43.8532Z" fill="#FFDC99"/>
<mask id="mask1" mask-type="alpha" maskUnits="userSpaceOnUse" x="128" y="87" width="24" height="25">
<path fill-rule="evenodd" clip-rule="evenodd" d="M128.51 87.311H151.729V111.258H128.51V87.311Z" fill="white"/>
</mask>
<g mask="url(#mask1)">
<path fill-rule="evenodd" clip-rule="evenodd" d="M151.729 99.2846C151.729 105.898 146.531 111.258 140.119 111.258C133.708 111.258 128.51 105.898 128.51 99.2846C128.51 92.6717 133.708 87.311 140.119 87.311C146.531 87.311 151.729 92.6717 151.729 99.2846Z" fill="#EBE7D3"/>
</g>
<path fill-rule="evenodd" clip-rule="evenodd" d="M148.585 138.822C148.585 140.746 123.641 142.305 92.8699 142.305C62.0992 142.305 37.1545 140.746 37.1545 138.822C37.1545 136.898 62.0992 135.339 92.8699 135.339C123.641 135.339 148.585 136.898 148.585 138.822Z" fill="#CDCDCD"/>
<path fill-rule="evenodd" clip-rule="evenodd" d="M104.668 119.245H56.5679C52.3258 119.245 48.8044 115.613 48.8044 111.238C48.8044 106.863 52.246 103.231 56.5679 103.231H104.668V119.245Z" fill="white"/>
<path fill-rule="evenodd" clip-rule="evenodd" d="M106.109 119.492C106.109 118.832 105.548 118.254 104.908 118.254H56.5679C52.8863 118.254 49.9249 115.2 49.9249 111.403C49.9249 107.606 52.8863 104.552 56.5679 104.552H104.908C105.548 104.552 106.109 103.974 106.109 103.313C106.109 102.653 105.548 102.075 104.908 102.075H56.5679C51.6057 102.075 47.604 106.202 47.604 111.32C47.604 116.438 51.6057 120.566 56.5679 120.566H104.908C105.548 120.566 106.109 120.153 106.109 119.492Z" fill="#FFAC00"/>
<path fill-rule="evenodd" clip-rule="evenodd" d="M107.131 136.845H48.2852V120.888H107.131C108.809 120.888 110.17 122.292 110.17 124.023V133.711C110.17 135.442 108.809 136.845 107.131 136.845Z" fill="white"/>
<path fill-rule="evenodd" clip-rule="evenodd" d="M105.78 137.984H47.2105C46.5998 137.984 46.1055 137.474 46.1055 136.844C46.1055 136.214 46.5998 135.705 47.2105 135.705H105.78C107.608 135.705 109.095 134.171 109.095 132.286V125.447C109.095 123.561 107.608 122.028 105.78 122.028H47.2105C46.5998 122.028 46.1055 121.518 46.1055 120.888C46.1055 120.258 46.5998 119.748 47.2105 119.748H105.78C108.826 119.748 111.305 122.305 111.305 125.447V132.286C111.305 135.428 108.826 137.984 105.78 137.984Z" fill="#2B0907"/>
<path fill-rule="evenodd" clip-rule="evenodd" d="M48.2854 123.167H105.75C106.36 123.167 106.855 123.677 106.855 124.307C106.855 124.936 106.36 125.446 105.75 125.446H48.2854V123.167Z" fill="#CDCDCD"/>
<path fill-rule="evenodd" clip-rule="evenodd" d="M48.2854 127.346H105.75C106.36 127.346 106.855 127.857 106.855 128.486C106.855 129.115 106.36 129.626 105.75 129.626H48.2854V127.346Z" fill="#CDCDCD"/>
<path fill-rule="evenodd" clip-rule="evenodd" d="M48.2854 131.953H105.75C106.36 131.953 106.855 132.463 106.855 133.093C106.855 133.722 106.36 134.232 105.75 134.232H48.2854V131.953Z" fill="#CDCDCD"/>
<path fill-rule="evenodd" clip-rule="evenodd" d="M104.715 117.191H53.589C53.046 117.191 52.606 116.681 52.606 116.051C52.606 115.422 53.046 114.912 53.589 114.912H104.715V117.191Z" fill="#CDCDCD"/>
<path fill-rule="evenodd" clip-rule="evenodd" d="M104.715 113.011H53.589C53.046 113.011 52.606 112.501 52.606 111.871C52.606 111.242 53.046 110.732 53.589 110.732H104.715V113.011Z" fill="#CDCDCD"/>
<path fill-rule="evenodd" clip-rule="evenodd" d="M104.715 108.404H53.589C53.046 108.404 52.606 107.894 52.606 107.264C52.606 106.635 53.046 106.125 53.589 106.125H104.715V108.404Z" fill="#CDCDCD"/>
<path fill-rule="evenodd" clip-rule="evenodd" d="M49.1235 103.101V85.667H106.878C107.656 85.667 108.287 86.3175 108.287 87.1198V101.648C108.287 102.451 107.656 103.101 106.878 103.101H49.1235Z" fill="#FF6B32"/>
<path fill-rule="evenodd" clip-rule="evenodd" d="M51.9407 88.5726V98.7428C51.9407 99.5451 52.5715 100.196 53.3496 100.196H104.061C105.617 100.196 106.878 101.496 106.878 103.101H95.6091H70.2534H49.1235V85.667C50.6796 85.667 51.9407 86.968 51.9407 88.5726Z" fill="#CDCDCD"/>
<path fill-rule="evenodd" clip-rule="evenodd" d="M98.426 103.101H99.835V85.667H98.426V103.101Z" fill="#CDCDCD"/>
<path fill-rule="evenodd" clip-rule="evenodd" d="M95.6089 103.101H97.0178V85.667H95.6089V103.101Z" fill="#CDCDCD"/>
<path fill-rule="evenodd" clip-rule="evenodd" d="M58.9839 103.101H60.3928V85.667H58.9839V103.101Z" fill="#CDCDCD"/>
<path fill-rule="evenodd" clip-rule="evenodd" d="M56.1665 103.101H57.5754V85.667H56.1665V103.101Z" fill="#CDCDCD"/>
<path fill-rule="evenodd" clip-rule="evenodd" d="M67.436 95.6546V93.1121C67.436 93.0121 67.515 92.9304 67.6119 92.9304H89.7983C89.8955 92.9304 89.9745 93.0121 89.9745 93.1121V95.6546C89.9745 95.7549 89.8955 95.8363 89.7983 95.8363H67.6119C67.515 95.8363 67.436 95.7549 67.436 95.6546Z" fill="#E1E3E5"/>
<path fill-rule="evenodd" clip-rule="evenodd" d="M107.656 85.6158L121.263 83.9875L127.27 137.385C127.36 138.182 126.925 138.889 126.298 138.964L114.959 140.321C114.333 140.396 113.753 139.811 113.663 139.014L107.656 85.6158Z" fill="#FFB800"/>
<path fill-rule="evenodd" clip-rule="evenodd" d="M119.319 87.1452L111.382 88.0951C110.756 88.1702 110.321 88.877 110.41 89.6739L115.606 135.856C115.785 137.45 114.915 138.864 113.663 139.014L112.364 127.468L110.091 107.264L107.655 85.6158L121.262 83.9875C121.442 85.5817 120.572 86.9952 119.319 87.1452Z" fill="#EF9720"/>
<path fill-rule="evenodd" clip-rule="evenodd" d="M126.782 133.056L113.175 134.684L113.013 133.241L126.62 131.613L126.782 133.056Z" fill="#EF9720"/>
<path fill-rule="evenodd" clip-rule="evenodd" d="M126.458 130.17L112.851 131.798L112.689 130.355L126.296 128.727L126.458 130.17Z" fill="#EF9720"/>
<path fill-rule="evenodd" clip-rule="evenodd" d="M122.399 94.0902L108.792 95.7184L108.63 94.2752L122.236 92.647L122.399 94.0902Z" fill="#EF9720"/>
<path fill-rule="evenodd" clip-rule="evenodd" d="M122.074 91.2037L108.467 92.8319L108.305 91.389L121.912 89.7607L122.074 91.2037Z" fill="#EF9720"/>
<path fill-rule="evenodd" clip-rule="evenodd" d="M115.74 105.125L117.724 104.887C117.802 104.878 117.875 104.951 117.886 105.051L119.631 120.565C119.643 120.664 119.588 120.753 119.51 120.762L117.526 121C117.448 121.009 117.375 120.936 117.364 120.836L115.618 105.322C115.607 105.223 115.661 105.134 115.74 105.125Z" fill="#EF9720"/>
<path fill-rule="evenodd" clip-rule="evenodd" d="M140.155 136.949L126.655 138.644L122.407 102.677C122.332 102.036 122.774 101.454 123.396 101.375L134.645 99.9621C135.266 99.8839 135.831 100.34 135.907 100.981L140.155 136.949Z" fill="#2B0907"/>
<path fill-rule="evenodd" clip-rule="evenodd" d="M132.882 124.91L130.914 125.157C130.836 125.167 130.765 125.11 130.756 125.03L129.831 117.198C129.821 117.118 129.877 117.046 129.954 117.035L131.923 116.788C132.001 116.779 132.071 116.835 132.081 116.916L133.006 124.747C133.015 124.828 132.96 124.9 132.882 124.91Z" fill="#E1E3E5"/>
<path fill-rule="evenodd" clip-rule="evenodd" d="M131.786 115.628L129.817 115.875C129.739 115.885 129.669 115.828 129.66 115.748L129.283 112.558C129.273 112.478 129.328 112.405 129.406 112.395L131.375 112.148C131.452 112.138 131.523 112.195 131.533 112.275L131.909 115.466C131.919 115.546 131.864 115.619 131.786 115.628Z" fill="#E1E3E5"/>
<path fill-rule="evenodd" clip-rule="evenodd" d="M100.987 107.523V119.74L97.3851 115.613L94.0237 119.327V107.523H100.987Z" fill="#FF6B32"/>
<mask id="mask2" mask-type="alpha" maskUnits="userSpaceOnUse" x="54" y="22" width="47" height="42">
<path fill-rule="evenodd" clip-rule="evenodd" d="M54.2708 22.7158H100.134V63.6799H54.2708V22.7158Z" fill="white"/>
</mask>
<g mask="url(#mask2)">
<path fill-rule="evenodd" clip-rule="evenodd" d="M85.6213 22.7168C83.0682 22.7476 80.4873 23.8029 78.9713 25.9831C76.5401 29.48 76.1602 33.5055 71.7678 35.1817C69.6617 35.9851 67.4488 35.9085 65.3186 36.4471C63.6395 36.8719 61.9752 37.6897 60.5268 38.6516C57.5555 40.625 55.2074 43.6368 54.4837 47.2552C53.265 53.3503 57.4571 58.4664 62.4535 61.0612C75.3242 67.7466 92.105 61.0343 98.0328 47.7043C99.5964 44.1883 100.336 40.3046 100.087 36.4399C99.7642 31.4363 96.9603 27.1219 92.9754 24.7261C90.8046 23.4209 88.2829 22.6851 85.6213 22.7168Z" fill="#2B0907"/>
</g>
<mask id="mask3" mask-type="alpha" maskUnits="userSpaceOnUse" x="33" y="22" width="119" height="133">
<path fill-rule="evenodd" clip-rule="evenodd" d="M33.7263 154.481H151.729V22.7158H33.7263V154.481Z" fill="white"/>
</mask>
<g mask="url(#mask3)">
<path fill-rule="evenodd" clip-rule="evenodd" d="M82.1025 79.429H97.3957V51.8098H82.1025V79.429Z" fill="#EBEBEB"/>
<path fill-rule="evenodd" clip-rule="evenodd" d="M93.9641 33.3676C94.529 37.3269 92.683 40.8863 89.8411 41.3177C86.9989 41.7491 84.2369 38.8893 83.6717 34.9302C83.1069 30.9709 84.9526 27.4114 87.7948 26.9801C90.637 26.5487 93.399 29.4082 93.9641 33.3676Z" fill="#FF6B32"/>
<path fill-rule="evenodd" clip-rule="evenodd" d="M87.0078 40.1865C87.0078 40.1865 87.8452 43.3582 87.123 46.5381C87.123 46.5381 90.097 48.3163 92.0695 45.9872C92.0695 45.9872 90.618 43.1137 91.1227 39.1947C91.1227 39.1947 87.2748 36.8426 87.0078 40.1865Z" fill="#FF6B32"/>
<path fill-rule="evenodd" clip-rule="evenodd" d="M87.1232 46.5379C87.1232 46.5379 82.0551 46.3241 78.3521 51.1232L100.26 49.7443C100.26 49.7443 98.2405 45.3482 92.0697 45.987L87.1232 46.5379Z" fill="#FF6B32"/>
<path fill-rule="evenodd" clip-rule="evenodd" d="M102.355 83.944C102.312 83.4539 93.6394 80.1505 92.9129 79.8352C88.8804 78.0864 84.8024 76.2321 80.4604 75.4756C77.8699 75.0242 66.71 73.3621 67.7389 78.8926C68.2965 81.8883 74.173 83.4716 76.558 84.1203C80.6346 85.2289 84.841 85.8473 89.025 86.3329C93.4847 86.8508 98.0217 87.2966 102.516 87.2861L102.355 83.944Z" fill="#FFAC00"/>
<path fill-rule="evenodd" clip-rule="evenodd" d="M104.172 87.9456L102.552 88.0291L102.301 82.8303L103.921 82.7468L104.172 87.9456Z" fill="#FFAC00"/>
<path fill-rule="evenodd" clip-rule="evenodd" d="M104 84.3825L106.745 84.2412L106.873 86.887L104.128 87.0286L104 84.3825Z" fill="#FF6B32"/>
<path fill-rule="evenodd" clip-rule="evenodd" d="M111.669 83.2421L103.766 84.2411L104.038 87.0542L111.92 87.7736C112.83 87.8568 113.682 87.2602 113.908 86.348C114.067 85.7056 114.071 84.9344 113.617 84.1803C113.208 83.502 112.438 83.1448 111.669 83.2421Z" fill="#2B0907"/>
<path fill-rule="evenodd" clip-rule="evenodd" d="M74.7244 84.5437C74.7668 84.0536 83.4393 80.7499 84.1658 80.435C88.1986 78.6861 92.2766 76.8318 96.6185 76.075C99.2088 75.6239 110.369 73.9618 109.34 79.492C108.782 82.4877 102.906 84.0713 100.521 84.72C96.4444 85.8286 92.2377 86.4471 88.054 86.9326C83.594 87.4502 79.057 87.8963 74.5627 87.8858L74.7244 84.5437Z" fill="#FFB800"/>
<path fill-rule="evenodd" clip-rule="evenodd" d="M72.9065 88.5455L74.5267 88.6287L74.7781 83.43L73.1579 83.3464L72.9065 88.5455Z" fill="#FFB800"/>
<path fill-rule="evenodd" clip-rule="evenodd" d="M73.0788 84.9829L70.3336 84.8416L70.2056 87.4876L72.9508 87.6286L73.0788 84.9829Z" fill="#FF6B32"/>
<path fill-rule="evenodd" clip-rule="evenodd" d="M65.4096 83.8417L73.3124 84.8407L73.041 87.6538L65.1582 88.3731C64.2486 88.4564 63.397 87.86 63.1712 86.9476C63.0124 86.3052 63.008 85.534 63.4623 84.7802C63.8713 84.1016 64.6407 83.7444 65.4096 83.8417Z" fill="#2B0907"/>
<path fill-rule="evenodd" clip-rule="evenodd" d="M89.7909 68.8513V82.6277L83.2515 79.9397L83.1792 65.8271L89.7909 68.8513Z" fill="#231704"/>
<path fill-rule="evenodd" clip-rule="evenodd" d="M89.7578 68.9255V82.7019L96.2969 80.0139L96.3692 65.9014L89.7578 68.9255Z" fill="#231704"/>
<path fill-rule="evenodd" clip-rule="evenodd" d="M89.7908 68.8513C89.7908 68.8513 88.0008 64.7605 83.8499 66.134L89.7908 68.8513Z" fill="#FF6B32"/>
<path fill-rule="evenodd" clip-rule="evenodd" d="M95.4017 66.2849C95.4017 66.2849 91.4124 64.6513 89.7908 68.8514L95.4017 66.2849Z" fill="#FF6B32"/>
<path fill-rule="evenodd" clip-rule="evenodd" d="M91.4007 25.4619C90.0214 24.8456 88.091 24.8854 86.9154 25.027C85.0645 25.25 83.2739 25.9493 81.6578 26.8902C80.7078 27.4431 79.7758 28.1011 79.1793 29.0426C78.5823 29.9844 78.3864 31.2675 78.9402 32.2365C79.2351 32.7526 79.7102 33.1352 80.2129 33.4355C81.9884 34.4961 84.1952 34.6383 86.1762 34.0878C88.1572 33.5375 89.9271 32.3428 91.4266 30.8984C92.3963 29.9644 93.5022 28.0999 92.7757 26.6759C92.4912 26.1181 91.9978 25.7287 91.4007 25.4619Z" fill="#2B0907"/>
<path fill-rule="evenodd" clip-rule="evenodd" d="M95.9483 33.9897C95.9483 35.0229 95.1364 35.8602 94.135 35.8602C93.1334 35.8602 92.3215 35.0229 92.3215 33.9897C92.3215 32.9569 93.1334 32.1196 94.135 32.1196C95.1364 32.1196 95.9483 32.9569 95.9483 33.9897Z" fill="#FF6B32"/>
<path fill-rule="evenodd" clip-rule="evenodd" d="M85.6706 49.983C85.0741 49.2451 77.3284 57.565 76.8846 58.2463C74.9602 61.2007 73.9269 65.355 76.4057 68.6863C78.6197 71.6622 82.1602 73.412 84.2048 76.5014C84.8065 77.419 82.0827 76.8095 81.6767 76.6754C77.2863 75.2255 72.4823 70.6965 71.3445 66.2297C70.5585 63.1448 71.3445 60.1392 72.79 57.5572C74.023 55.3551 75.6885 53.4146 77.5176 51.6933C77.9507 51.2858 83.0089 46.9454 83.3961 47.3873C83.3961 47.3873 85.6694 49.9809 85.6706 49.983Z" fill="#FF6B32"/>
<path fill-rule="evenodd" clip-rule="evenodd" d="M94.0593 48.9581C94.7304 48.2911 101.553 57.4304 101.922 58.1572C103.524 61.3101 104.114 65.5554 101.298 68.5894C98.7835 71.2992 95.0796 72.6419 92.7216 75.4837C92.0267 76.3282 94.7986 76.028 95.2163 75.9399C99.7338 74.9913 104.986 71.0277 106.588 66.7145C107.695 63.7361 107.23 60.6602 106.065 57.9315C105.072 55.6043 103.621 53.4887 101.984 51.5724C101.596 51.1186 97.0254 46.2369 96.5938 46.6327C96.5938 46.6327 94.0608 48.9563 94.0593 48.9581Z" fill="#FF6B32"/>
<path fill-rule="evenodd" clip-rule="evenodd" d="M78.5495 50.9455C78.4734 50.95 78.3994 50.9673 78.3289 50.9967C77.214 51.4622 76.0992 51.9277 74.984 52.3932C74.8734 52.4393 74.7544 52.4929 74.6961 52.6003C74.6052 52.7683 74.7036 52.9748 74.804 53.1368C75.4295 54.1468 76.2112 55.0743 77.1928 55.7158C78.0372 56.2675 79.002 56.5911 79.9677 56.8582C87.2939 58.8831 95.3752 57.8248 101.978 53.9762C102.67 53.5733 103.351 53.1356 103.974 52.6288C104.403 52.2791 104.303 51.5744 103.787 51.3858C103.608 51.3203 103.433 51.2361 103.271 51.141C102.67 50.7898 102.149 50.2997 101.522 50.0028C100.514 49.5253 99.3525 49.5965 98.2458 49.6774C91.895 50.1417 79.8466 50.8676 78.5495 50.9455Z" fill="white"/>
<path fill-rule="evenodd" clip-rule="evenodd" d="M91.4053 36.8843C91.4053 38.1617 90.4016 39.1969 89.1631 39.1969C87.9249 39.1969 86.9209 38.1617 86.9209 36.8843H91.4053Z" fill="white"/>
<path fill-rule="evenodd" clip-rule="evenodd" d="M90.9554 41.0007C90.9554 41.0007 89.7018 41.8192 87.6941 41.2366L92.1661 46.4159C92.1661 46.4159 90.9429 44.6161 90.9554 41.0007Z" fill="#FF8C60"/>
</g>
</g>
</svg>
