<svg width="20" height="20" viewBox="0 0 20 20" fill="none" xmlns="http://www.w3.org/2000/svg">
<g clip-path="url(#clip0)">
<path d="M7.50033 10.0003C9.10866 10.0003 10.417 8.69199 10.417 7.08366C10.417 5.47533 9.10866 4.16699 7.50033 4.16699C5.89199 4.16699 4.58366 5.47533 4.58366 7.08366C4.58366 8.69199 5.89199 10.0003 7.50033 10.0003ZM7.50033 5.83366C8.19199 5.83366 8.75033 6.39199 8.75033 7.08366C8.75033 7.77533 8.19199 8.33366 7.50033 8.33366C6.80866 8.33366 6.25033 7.77533 6.25033 7.08366C6.25033 6.39199 6.80866 5.83366 7.50033 5.83366ZM7.54199 14.167H3.97533C4.80033 13.7503 6.22533 13.3337 7.50033 13.3337C7.59199 13.3337 7.69199 13.342 7.78366 13.342C8.06699 12.7337 8.55866 12.2337 9.15032 11.8337C8.54199 11.7253 7.96699 11.667 7.50033 11.667C5.55033 11.667 1.66699 12.642 1.66699 14.5837V15.8337H7.50033V14.5837C7.50033 14.442 7.51699 14.3003 7.54199 14.167ZM13.7503 12.0837C12.217 12.0837 9.16699 12.9253 9.16699 14.5837V15.8337H18.3337V14.5837C18.3337 12.9253 15.2837 12.0837 13.7503 12.0837ZM14.7587 10.567C15.392 10.2087 15.8337 9.53366 15.8337 8.75033C15.8337 7.60033 14.9003 6.66699 13.7503 6.66699C12.6003 6.66699 11.667 7.60033 11.667 8.75033C11.667 9.53366 12.1087 10.2087 12.742 10.567C13.042 10.7337 13.3837 10.8337 13.7503 10.8337C14.117 10.8337 14.4587 10.7337 14.7587 10.567Z" fill="#757575"/>
</g>
<defs>
<clipPath id="clip0">
<rect width="20" height="20" fill="white"/>
</clipPath>
</defs>
</svg>
