<svg width="300" height="300" viewBox="0 0 300 300" fill="none" xmlns="http://www.w3.org/2000/svg">
<rect width="300" height="300" fill="#D9DEE1"/>
<rect width="300" height="300" rx="2" fill="#EBE7D3"/>
<mask id="mask0" mask-type="alpha" maskUnits="userSpaceOnUse" x="0" y="0" width="300" height="300">
<rect width="300" height="300" rx="11.7" fill="white"/>
</mask>
<g mask="url(#mask0)">
<path fill-rule="evenodd" clip-rule="evenodd" d="M335.425 91.361C330.119 47.6207 291.37 16.5903 248.877 22.052C225.237 25.0909 205.429 38.7932 193.41 57.8778C177.133 53.1492 159.688 51.6203 141.851 53.9132C70.3442 63.1043 19.6157 130.225 28.5446 203.83C37.4735 277.436 102.68 329.655 174.186 320.464C244.223 311.462 294.318 246.885 287.958 175.075C319.539 161.737 339.858 127.902 335.425 91.361Z" fill="#FFDC99"/>
<mask id="mask1" mask-type="alpha" maskUnits="userSpaceOnUse" x="267" y="181" width="50" height="51">
<path fill-rule="evenodd" clip-rule="evenodd" d="M267.729 181.898H316.101V231.788H267.729V181.898Z" fill="white"/>
</mask>
<g mask="url(#mask1)">
<path fill-rule="evenodd" clip-rule="evenodd" d="M316.102 206.843C316.102 220.62 305.273 231.788 291.916 231.788C278.558 231.788 267.729 220.62 267.729 206.843C267.729 193.067 278.558 181.898 291.916 181.898C305.273 181.898 316.102 193.067 316.102 206.843Z" fill="#EBE7D3"/>
</g>
<path fill-rule="evenodd" clip-rule="evenodd" d="M309.554 289.213C309.554 293.221 257.586 296.47 193.48 296.47C129.374 296.47 77.4062 293.221 77.4062 289.213C77.4062 285.205 129.374 281.956 193.48 281.956C257.586 281.956 309.554 285.205 309.554 289.213Z" fill="#CDCDCD"/>
<path fill-rule="evenodd" clip-rule="evenodd" d="M218.059 248.427H117.851C109.013 248.427 101.677 240.86 101.677 231.747C101.677 222.632 108.847 215.065 117.851 215.065H218.059V248.427Z" fill="white"/>
<path fill-rule="evenodd" clip-rule="evenodd" d="M221.061 248.942C221.061 247.567 219.893 246.363 218.56 246.363H117.851C110.181 246.363 104.011 240 104.011 232.09C104.011 224.179 110.181 217.816 117.851 217.816H218.56C219.893 217.816 221.061 216.612 221.061 215.236C221.061 213.86 219.893 212.657 218.56 212.657H117.851C107.513 212.657 99.1758 221.255 99.1758 231.917C99.1758 242.58 107.513 251.178 117.851 251.178H218.56C219.893 251.178 221.061 250.318 221.061 248.942Z" fill="#FFAC00"/>
<path fill-rule="evenodd" clip-rule="evenodd" d="M223.189 285.094H100.595V251.851H223.189C226.686 251.851 229.521 254.775 229.521 258.381V278.564C229.521 282.171 226.686 285.094 223.189 285.094Z" fill="white"/>
<path fill-rule="evenodd" clip-rule="evenodd" d="M220.375 287.468H98.3558C97.0835 287.468 96.0537 286.406 96.0537 285.093C96.0537 283.781 97.0835 282.719 98.3558 282.719H220.375C224.184 282.719 227.282 279.523 227.282 275.595V261.348C227.282 257.42 224.184 254.225 220.375 254.225H98.3558C97.0835 254.225 96.0537 253.163 96.0537 251.85C96.0537 250.538 97.0835 249.475 98.3558 249.475H220.375C226.722 249.475 231.886 254.802 231.886 261.348V275.595C231.886 282.141 226.722 287.468 220.375 287.468Z" fill="#2B0907"/>
<path fill-rule="evenodd" clip-rule="evenodd" d="M100.596 256.598H220.313C221.584 256.598 222.615 257.661 222.615 258.972C222.615 260.283 221.584 261.347 220.313 261.347H100.596V256.598Z" fill="#CDCDCD"/>
<path fill-rule="evenodd" clip-rule="evenodd" d="M100.596 265.305H220.313C221.584 265.305 222.615 266.368 222.615 267.68C222.615 268.99 221.584 270.054 220.313 270.054H100.596V265.305Z" fill="#CDCDCD"/>
<path fill-rule="evenodd" clip-rule="evenodd" d="M100.596 274.902H220.313C221.584 274.902 222.615 275.965 222.615 277.277C222.615 278.588 221.584 279.651 220.313 279.651H100.596V274.902Z" fill="#CDCDCD"/>
<path fill-rule="evenodd" clip-rule="evenodd" d="M218.158 244.148H111.645C110.513 244.148 109.597 243.085 109.597 241.773C109.597 240.462 110.513 239.399 111.645 239.399H218.158V244.148Z" fill="#CDCDCD"/>
<path fill-rule="evenodd" clip-rule="evenodd" d="M218.158 235.44H111.645C110.513 235.44 109.597 234.377 109.597 233.065C109.597 231.754 110.513 230.691 111.645 230.691H218.158V235.44Z" fill="#CDCDCD"/>
<path fill-rule="evenodd" clip-rule="evenodd" d="M218.158 225.843H111.645C110.513 225.843 109.597 224.779 109.597 223.468C109.597 222.157 110.513 221.094 111.645 221.094H218.158V225.843Z" fill="#CDCDCD"/>
<path fill-rule="evenodd" clip-rule="evenodd" d="M102.341 214.794V178.473H222.663C224.284 178.473 225.598 179.828 225.598 181.5V211.767C225.598 213.439 224.284 214.794 222.663 214.794H102.341Z" fill="#FF6B32"/>
<path fill-rule="evenodd" clip-rule="evenodd" d="M108.21 184.526V205.714C108.21 207.386 109.524 208.741 111.145 208.741H216.794C220.036 208.741 222.663 211.451 222.663 214.794H199.186H146.361H102.341V178.473C105.583 178.473 108.21 181.183 108.21 184.526Z" fill="#CDCDCD"/>
<path fill-rule="evenodd" clip-rule="evenodd" d="M205.055 214.794H207.99V178.473H205.055V214.794Z" fill="#CDCDCD"/>
<path fill-rule="evenodd" clip-rule="evenodd" d="M199.186 214.794H202.121V178.473H199.186V214.794Z" fill="#CDCDCD"/>
<path fill-rule="evenodd" clip-rule="evenodd" d="M122.884 214.794H125.819V178.473H122.884V214.794Z" fill="#CDCDCD"/>
<path fill-rule="evenodd" clip-rule="evenodd" d="M117.014 214.794H119.949V178.473H117.014V214.794Z" fill="#CDCDCD"/>
<path fill-rule="evenodd" clip-rule="evenodd" d="M140.492 199.281V193.984C140.492 193.776 140.657 193.605 140.859 193.605H187.08C187.283 193.605 187.447 193.776 187.447 193.984V199.281C187.447 199.49 187.283 199.659 187.08 199.659H140.859C140.657 199.659 140.492 199.49 140.492 199.281Z" fill="#E1E3E5"/>
<path fill-rule="evenodd" clip-rule="evenodd" d="M224.283 178.366L252.631 174.974L265.146 286.219C265.333 287.879 264.427 289.352 263.122 289.508L239.499 292.335C238.194 292.491 236.985 291.272 236.798 289.612L224.283 178.366Z" fill="#FFB800"/>
<path fill-rule="evenodd" clip-rule="evenodd" d="M248.582 181.553L232.046 183.531C230.742 183.688 229.835 185.16 230.022 186.821L240.846 283.033C241.219 286.354 239.407 289.299 236.798 289.612L234.092 265.558L229.356 223.466L224.282 178.366L252.63 174.974C253.004 178.295 251.192 181.24 248.582 181.553Z" fill="#EF9720"/>
<path fill-rule="evenodd" clip-rule="evenodd" d="M264.13 277.2L235.782 280.592L235.444 277.585L263.792 274.193L264.13 277.2Z" fill="#EF9720"/>
<path fill-rule="evenodd" clip-rule="evenodd" d="M263.455 271.187L235.106 274.579L234.769 271.572L263.116 268.18L263.455 271.187Z" fill="#EF9720"/>
<path fill-rule="evenodd" clip-rule="evenodd" d="M254.999 196.021L226.651 199.414L226.312 196.407L254.66 193.015L254.999 196.021Z" fill="#EF9720"/>
<path fill-rule="evenodd" clip-rule="evenodd" d="M254.322 190.008L225.974 193.4L225.636 190.394L253.983 187.002L254.322 190.008Z" fill="#EF9720"/>
<path fill-rule="evenodd" clip-rule="evenodd" d="M241.125 219.01L245.259 218.516C245.422 218.496 245.573 218.649 245.597 218.856L249.233 251.177C249.256 251.384 249.143 251.569 248.98 251.588L244.846 252.083C244.683 252.103 244.532 251.95 244.508 251.742L240.872 219.421C240.849 219.214 240.962 219.029 241.125 219.01Z" fill="#EF9720"/>
<path fill-rule="evenodd" clip-rule="evenodd" d="M291.989 285.31L263.865 288.843L255.016 213.911C254.858 212.575 255.78 211.362 257.075 211.199L280.511 208.255C281.805 208.092 282.981 209.042 283.14 210.378L291.989 285.31Z" fill="#2B0907"/>
<path fill-rule="evenodd" clip-rule="evenodd" d="M276.838 260.23L272.737 260.744C272.575 260.765 272.427 260.646 272.408 260.479L270.481 244.163C270.461 243.997 270.577 243.845 270.738 243.824L274.839 243.309C275.001 243.289 275.148 243.407 275.168 243.575L277.095 259.89C277.115 260.058 277 260.209 276.838 260.23Z" fill="#E1E3E5"/>
<path fill-rule="evenodd" clip-rule="evenodd" d="M274.555 240.892L270.453 241.407C270.291 241.428 270.144 241.31 270.125 241.142L269.339 234.495C269.32 234.329 269.435 234.177 269.597 234.156L273.698 233.641C273.86 233.621 274.007 233.739 274.027 233.907L274.812 240.554C274.831 240.721 274.717 240.872 274.555 240.892Z" fill="#E1E3E5"/>
<path fill-rule="evenodd" clip-rule="evenodd" d="M210.39 224.007V249.459L202.887 240.86L195.884 248.599V224.007H210.39Z" fill="#FF6B32"/>
<mask id="mask2" mask-type="alpha" maskUnits="userSpaceOnUse" x="113" y="47" width="96" height="86">
<path fill-rule="evenodd" clip-rule="evenodd" d="M113.064 47.325H208.614V132.667H113.064V47.325Z" fill="white"/>
</mask>
<g mask="url(#mask2)">
<path fill-rule="evenodd" clip-rule="evenodd" d="M178.378 47.327C173.059 47.3912 167.682 49.5897 164.524 54.1319C159.459 61.417 158.667 69.8035 149.517 73.2954C145.129 74.9694 140.519 74.8097 136.081 75.9317C132.583 76.8167 129.115 78.5206 126.098 80.5244C119.908 84.6357 115.016 90.9104 113.508 98.4487C110.969 111.147 119.703 121.805 130.112 127.211C156.926 141.139 191.886 127.155 204.235 99.3842C207.493 92.0592 209.034 83.9683 208.515 75.9167C207.842 65.4927 202.001 56.5043 193.699 51.5131C189.177 48.7939 183.923 47.2609 178.378 47.327Z" fill="#2B0907"/>
</g>
<mask id="mask3" mask-type="alpha" maskUnits="userSpaceOnUse" x="70" y="47" width="247" height="275">
<path fill-rule="evenodd" clip-rule="evenodd" d="M70.2637 321.836H316.102V47.3249H70.2637V321.836Z" fill="white"/>
</mask>
<g mask="url(#mask3)">
<path fill-rule="evenodd" clip-rule="evenodd" d="M171.048 165.477H202.909V107.937H171.048V165.477Z" fill="#EBEBEB"/>
<path fill-rule="evenodd" clip-rule="evenodd" d="M195.759 69.5162C196.936 77.7648 193.09 85.1803 187.169 86.079C181.248 86.9777 175.494 81.0198 174.316 72.7717C173.14 64.5231 176.985 57.1076 182.906 56.2089C188.827 55.3102 194.581 61.2675 195.759 69.5162Z" fill="#FF6B32"/>
<path fill-rule="evenodd" clip-rule="evenodd" d="M181.267 83.7224C181.267 83.7224 183.011 90.3302 181.507 96.9548C181.507 96.9548 187.702 100.659 191.812 95.8073C191.812 95.8073 188.788 89.8206 189.839 81.6562C189.839 81.6562 181.823 76.756 181.267 83.7224Z" fill="#FF6B32"/>
<path fill-rule="evenodd" clip-rule="evenodd" d="M181.508 96.9539C181.508 96.9539 170.949 96.5086 163.234 106.507L208.876 103.634C208.876 103.634 204.669 94.4755 191.813 95.8064L181.508 96.9539Z" fill="#FF6B32"/>
<path fill-rule="evenodd" clip-rule="evenodd" d="M213.24 174.884C213.151 173.863 195.083 166.98 193.569 166.324C185.168 162.68 176.672 158.817 167.627 157.241C162.23 156.301 138.98 152.838 141.124 164.36C142.285 170.601 154.528 173.899 159.497 175.251C167.99 177.56 176.753 178.849 185.469 179.861C194.761 180.939 204.213 181.868 213.576 181.846L213.24 174.884Z" fill="#FFAC00"/>
<path fill-rule="evenodd" clip-rule="evenodd" d="M217.026 183.22L213.651 183.394L213.127 172.563L216.502 172.389L217.026 183.22Z" fill="#FFAC00"/>
<path fill-rule="evenodd" clip-rule="evenodd" d="M216.667 175.797L222.386 175.502L222.653 181.014L216.933 181.309L216.667 175.797Z" fill="#FF6B32"/>
<path fill-rule="evenodd" clip-rule="evenodd" d="M232.645 173.421L216.181 175.502L216.746 181.363L233.168 182.862C235.064 183.035 236.838 181.792 237.308 179.892C237.64 178.553 237.648 176.947 236.702 175.376C235.85 173.963 234.247 173.219 232.645 173.421Z" fill="#2B0907"/>
<path fill-rule="evenodd" clip-rule="evenodd" d="M155.677 176.133C155.765 175.112 173.833 168.229 175.346 167.573C183.748 163.929 192.244 160.066 201.289 158.49C206.686 157.55 229.936 154.087 227.793 165.608C226.631 171.849 214.388 175.149 209.419 176.5C200.927 178.809 192.163 180.098 183.447 181.11C174.155 182.188 164.703 183.117 155.34 183.095L155.677 176.133Z" fill="#FFB800"/>
<path fill-rule="evenodd" clip-rule="evenodd" d="M151.889 184.47L155.264 184.643L155.788 173.812L152.412 173.638L151.889 184.47Z" fill="#FFB800"/>
<path fill-rule="evenodd" clip-rule="evenodd" d="M152.248 177.048L146.528 176.753L146.262 182.266L151.981 182.56L152.248 177.048Z" fill="#FF6B32"/>
<path fill-rule="evenodd" clip-rule="evenodd" d="M136.271 174.671L152.735 176.752L152.169 182.612L135.747 184.111C133.852 184.284 132.078 183.042 131.607 181.141C131.277 179.803 131.267 178.196 132.214 176.626C133.066 175.212 134.669 174.468 136.271 174.671Z" fill="#2B0907"/>
<path fill-rule="evenodd" clip-rule="evenodd" d="M187.064 143.441V172.141L173.441 166.541L173.29 137.14L187.064 143.441Z" fill="#231704"/>
<path fill-rule="evenodd" clip-rule="evenodd" d="M186.996 143.595V172.296L200.619 166.696L200.77 137.295L186.996 143.595Z" fill="#231704"/>
<path fill-rule="evenodd" clip-rule="evenodd" d="M187.064 143.44C187.064 143.44 183.335 134.918 174.688 137.779L187.064 143.44Z" fill="#FF6B32"/>
<path fill-rule="evenodd" clip-rule="evenodd" d="M198.754 138.094C198.754 138.094 190.443 134.69 187.064 143.44L198.754 138.094Z" fill="#FF6B32"/>
<path fill-rule="evenodd" clip-rule="evenodd" d="M190.419 53.046C187.546 51.7618 183.524 51.8448 181.075 52.1398C177.219 52.6044 173.489 54.0613 170.122 56.0215C168.142 57.1734 166.201 58.5443 164.958 60.5057C163.714 62.4678 163.306 65.1408 164.46 67.1597C165.074 68.2349 166.064 69.0319 167.111 69.6575C170.81 71.8671 175.408 72.1634 179.535 71.0164C183.662 69.8701 187.349 67.3811 190.473 64.3719C192.493 62.426 194.797 58.5418 193.284 55.575C192.691 54.4131 191.663 53.6017 190.419 53.046Z" fill="#2B0907"/>
<path fill-rule="evenodd" clip-rule="evenodd" d="M199.893 70.8122C199.893 72.9645 198.201 74.7089 196.115 74.7089C194.028 74.7089 192.337 72.9645 192.337 70.8122C192.337 68.6606 194.028 66.9161 196.115 66.9161C198.201 66.9161 199.893 68.6606 199.893 70.8122Z" fill="#FF6B32"/>
<path fill-rule="evenodd" clip-rule="evenodd" d="M178.481 104.131C177.238 102.594 161.101 119.927 160.177 121.347C156.168 127.502 154.015 136.156 159.179 143.096C163.792 149.296 171.168 152.942 175.427 159.378C176.681 161.29 171.006 160.02 170.16 159.74C161.014 156.72 151.005 147.284 148.635 137.979C146.997 131.552 148.635 125.29 151.646 119.911C154.215 115.323 157.685 111.28 161.496 107.694C162.398 106.846 172.936 97.8029 173.742 98.7235C173.742 98.7235 178.478 104.127 178.481 104.131Z" fill="#FF6B32"/>
<path fill-rule="evenodd" clip-rule="evenodd" d="M195.957 101.996C197.355 100.607 211.569 119.647 212.338 121.161C215.675 127.729 216.904 136.574 211.038 142.895C205.799 148.54 198.083 151.337 193.17 157.258C191.723 159.017 197.497 158.392 198.368 158.208C207.779 156.232 218.722 147.975 222.059 138.989C224.365 132.784 223.397 126.376 220.97 120.691C218.899 115.842 215.877 111.435 212.467 107.443C211.659 106.497 202.137 96.327 201.237 97.1515C201.237 97.1515 195.96 101.992 195.957 101.996Z" fill="#FF6B32"/>
<path fill-rule="evenodd" clip-rule="evenodd" d="M163.646 106.136C163.487 106.145 163.333 106.182 163.186 106.243C160.864 107.213 158.541 108.182 156.218 109.152C155.987 109.248 155.739 109.36 155.618 109.584C155.429 109.934 155.634 110.364 155.843 110.701C157.146 112.806 158.774 114.738 160.819 116.074C162.578 117.224 164.588 117.898 166.6 118.454C181.863 122.673 198.699 120.468 212.456 112.45C213.896 111.611 215.316 110.699 216.613 109.643C217.507 108.915 217.3 107.446 216.225 107.054C215.85 106.917 215.487 106.742 215.149 106.543C213.898 105.812 212.811 104.791 211.504 104.172C209.404 103.177 206.985 103.326 204.68 103.494C191.449 104.462 166.348 105.974 163.646 106.136Z" fill="white"/>
<path fill-rule="evenodd" clip-rule="evenodd" d="M190.428 76.8426C190.428 79.5038 188.337 81.6604 185.757 81.6604C183.178 81.6604 181.086 79.5038 181.086 76.8426H190.428Z" fill="white"/>
<path fill-rule="evenodd" clip-rule="evenodd" d="M189.492 85.4187C189.492 85.4187 186.88 87.1238 182.697 85.9102L192.014 96.7003C192.014 96.7003 189.466 92.9508 189.492 85.4187Z" fill="#FF8C60"/>
</g>
</g>
</svg>
