<svg width="300" height="167" viewBox="0 0 300 167" fill="none" xmlns="http://www.w3.org/2000/svg">
<g clip-path="url(#clip0)">
<rect width="300" height="167" fill="white"/>
<path d="M242.203 106.659C242.203 94.7954 239.788 83.0479 235.097 72.0872C230.406 61.1266 223.53 51.1675 214.862 42.7786C206.194 34.3896 195.903 27.7352 184.578 23.1951C173.252 18.6551 161.114 16.3184 148.855 16.3184C136.596 16.3184 124.458 18.6551 113.132 23.1951C101.807 27.7352 91.516 34.3896 82.8478 42.7786C74.1797 51.1675 67.3037 61.1266 62.6125 72.0872C57.9214 83.0479 55.5068 94.7954 55.5068 106.659H83.5113C83.5113 98.3545 85.2014 90.1313 88.4852 82.4588C91.7691 74.7863 96.5822 67.815 102.65 61.9427C108.718 56.0705 115.921 51.4124 123.849 48.2343C131.777 45.0563 140.274 43.4206 148.855 43.4206C157.436 43.4206 165.933 45.0563 173.861 48.2343C181.789 51.4124 188.992 56.0705 195.06 61.9427C201.128 67.815 205.941 74.7863 209.225 82.4588C212.508 90.1312 214.199 98.3545 214.199 106.659H242.203Z" fill="#02B875"/>
<path d="M242.203 106.659C242.203 87.581 235.962 68.9927 224.375 53.5582C212.788 38.1237 196.449 26.6354 177.701 20.74C158.953 14.8445 138.757 14.8445 120.009 20.74C101.26 26.6354 84.9218 38.1237 73.3347 53.5582L95.9908 69.4885C104.102 58.6843 115.539 50.6425 128.663 46.5157C141.786 42.3889 155.923 42.3889 169.047 46.5157C182.171 50.6425 193.608 58.6843 201.719 69.4885C209.83 80.2926 214.199 93.3045 214.199 106.659H242.203Z" fill="#5DC644"/>
<path d="M242.203 106.659C242.203 92.4024 238.716 78.3481 232.029 65.6453C225.341 52.9425 215.641 41.9518 203.723 33.5719C191.806 25.192 178.008 19.6608 163.458 17.4306C148.908 15.2004 134.019 16.3344 120.009 20.74L128.663 46.5157C138.47 43.4318 148.892 42.638 159.077 44.1992C169.262 45.7603 178.92 49.6322 187.263 55.4981C195.605 61.364 202.395 69.0575 207.076 77.9494C211.758 86.8414 214.199 96.6794 214.199 106.659H242.203Z" fill="#FFC100"/>
<path d="M242.203 106.659C242.203 87.581 235.962 68.9927 224.375 53.5582C212.788 38.1237 196.449 26.6354 177.701 20.74L169.047 46.5157C182.171 50.6425 193.608 58.6843 201.719 69.4885C209.83 80.2926 214.199 93.3045 214.199 106.659H242.203Z" fill="#FDAF40"/>
<path d="M242.203 106.659C242.203 87.581 235.962 68.9927 224.375 53.5582L201.719 69.4885C209.83 80.2926 214.199 93.3045 214.199 106.659H242.203Z" fill="#FF7272"/>
<path d="M192.758 42.7973L201.562 40.373L150.216 107.155L192.758 42.7973Z" fill="#C4C4C4"/>
<path d="M201.486 49.4995L150.205 107.169L201.551 40.3871L201.486 49.4995Z" fill="#848484"/>
<path d="M155.904 103.273C157.982 106.533 157.023 110.86 153.763 112.938C150.503 115.016 146.176 114.057 144.098 110.797C142.02 107.537 142.979 103.209 146.239 101.132C149.499 99.054 153.827 100.013 155.904 103.273ZM148.908 107.731C149.293 108.335 150.094 108.512 150.697 108.128C151.301 107.743 151.478 106.942 151.094 106.338C150.709 105.735 149.908 105.558 149.305 105.942C148.701 106.327 148.524 107.128 148.908 107.731Z" fill="#008FFF"/>
<path d="M44.1777 139H43.0527V130.469H44.1777V139ZM47.0957 132.66L47.1309 133.457C47.6152 132.848 48.248 132.543 49.0293 132.543C50.3691 132.543 51.0449 133.299 51.0566 134.811V139H49.9727V134.805C49.9688 134.348 49.8633 134.01 49.6562 133.791C49.4531 133.572 49.1348 133.463 48.7012 133.463C48.3496 133.463 48.041 133.557 47.7754 133.744C47.5098 133.932 47.3027 134.178 47.1543 134.482V139H46.0703V132.66H47.0957ZM54.7832 137.529L56.3535 132.66H57.4609L55.1875 139H54.3613L52.0645 132.66H53.1719L54.7832 137.529ZM61.0527 139.117C60.1934 139.117 59.4941 138.836 58.9551 138.273C58.416 137.707 58.1465 136.951 58.1465 136.006V135.807C58.1465 135.178 58.2656 134.617 58.5039 134.125C58.7461 133.629 59.082 133.242 59.5117 132.965C59.9453 132.684 60.4141 132.543 60.918 132.543C61.7422 132.543 62.3828 132.814 62.8398 133.357C63.2969 133.9 63.5254 134.678 63.5254 135.689V136.141H59.2305C59.2461 136.766 59.4277 137.271 59.7754 137.658C60.127 138.041 60.5723 138.232 61.1113 138.232C61.4941 138.232 61.8184 138.154 62.084 137.998C62.3496 137.842 62.582 137.635 62.7812 137.377L63.4434 137.893C62.9121 138.709 62.1152 139.117 61.0527 139.117ZM60.918 133.434C60.4805 133.434 60.1133 133.594 59.8164 133.914C59.5195 134.23 59.3359 134.676 59.2656 135.25H62.4414V135.168C62.4102 134.617 62.2617 134.191 61.9961 133.891C61.7305 133.586 61.3711 133.434 60.918 133.434ZM68.4766 137.318C68.4766 137.025 68.3652 136.799 68.1426 136.639C67.9238 136.475 67.5391 136.334 66.9883 136.217C66.4414 136.1 66.0059 135.959 65.6816 135.795C65.3613 135.631 65.123 135.436 64.9668 135.209C64.8145 134.982 64.7383 134.713 64.7383 134.4C64.7383 133.881 64.957 133.441 65.3945 133.082C65.8359 132.723 66.3984 132.543 67.082 132.543C67.8008 132.543 68.3828 132.729 68.8281 133.1C69.2773 133.471 69.502 133.945 69.502 134.523H68.4121C68.4121 134.227 68.2852 133.971 68.0312 133.756C67.7812 133.541 67.4648 133.434 67.082 133.434C66.6875 133.434 66.3789 133.52 66.1562 133.691C65.9336 133.863 65.8223 134.088 65.8223 134.365C65.8223 134.627 65.9258 134.824 66.1328 134.957C66.3398 135.09 66.7129 135.217 67.252 135.338C67.7949 135.459 68.2344 135.604 68.5703 135.771C68.9062 135.939 69.1543 136.143 69.3145 136.381C69.4785 136.615 69.5605 136.902 69.5605 137.242C69.5605 137.809 69.334 138.264 68.8809 138.607C68.4277 138.947 67.8398 139.117 67.1172 139.117C66.6094 139.117 66.1602 139.027 65.7695 138.848C65.3789 138.668 65.0723 138.418 64.8496 138.098C64.6309 137.773 64.5215 137.424 64.5215 137.049H65.6055C65.625 137.412 65.7695 137.701 66.0391 137.916C66.3125 138.127 66.6719 138.232 67.1172 138.232C67.5273 138.232 67.8555 138.15 68.1016 137.986C68.3516 137.818 68.4766 137.596 68.4766 137.318ZM72.4434 131.125V132.66H73.627V133.498H72.4434V137.43C72.4434 137.684 72.4961 137.875 72.6016 138.004C72.707 138.129 72.8867 138.191 73.1406 138.191C73.2656 138.191 73.4375 138.168 73.6562 138.121V139C73.3711 139.078 73.0938 139.117 72.8242 139.117C72.3398 139.117 71.9746 138.971 71.7285 138.678C71.4824 138.385 71.3594 137.969 71.3594 137.43V133.498H70.2051V132.66H71.3594V131.125H72.4434ZM74.4941 135.771C74.4941 135.15 74.6152 134.592 74.8574 134.096C75.1035 133.6 75.4434 133.217 75.877 132.947C76.3145 132.678 76.8125 132.543 77.3711 132.543C78.2344 132.543 78.9316 132.842 79.4629 133.439C79.998 134.037 80.2656 134.832 80.2656 135.824V135.9C80.2656 136.518 80.1465 137.072 79.9082 137.564C79.6738 138.053 79.3359 138.434 78.8945 138.707C78.457 138.98 77.9531 139.117 77.3828 139.117C76.5234 139.117 75.8262 138.818 75.291 138.221C74.7598 137.623 74.4941 136.832 74.4941 135.848V135.771ZM75.584 135.9C75.584 136.604 75.7461 137.168 76.0703 137.594C76.3984 138.02 76.8359 138.232 77.3828 138.232C77.9336 138.232 78.3711 138.018 78.6953 137.588C79.0195 137.154 79.1816 136.549 79.1816 135.771C79.1816 135.076 79.0156 134.514 78.6836 134.084C78.3555 133.65 77.918 133.434 77.3711 133.434C76.8359 133.434 76.4043 133.646 76.0762 134.072C75.748 134.498 75.584 135.107 75.584 135.9ZM84.6895 133.633C84.5254 133.605 84.3477 133.592 84.1562 133.592C83.4453 133.592 82.9629 133.895 82.709 134.5V139H81.625V132.66H82.6797L82.6973 133.393C83.0527 132.826 83.5566 132.543 84.209 132.543C84.4199 132.543 84.5801 132.57 84.6895 132.625V133.633ZM89.3828 137.318C89.3828 137.025 89.2715 136.799 89.0488 136.639C88.8301 136.475 88.4453 136.334 87.8945 136.217C87.3477 136.1 86.9121 135.959 86.5879 135.795C86.2676 135.631 86.0293 135.436 85.873 135.209C85.7207 134.982 85.6445 134.713 85.6445 134.4C85.6445 133.881 85.8633 133.441 86.3008 133.082C86.7422 132.723 87.3047 132.543 87.9883 132.543C88.707 132.543 89.2891 132.729 89.7344 133.1C90.1836 133.471 90.4082 133.945 90.4082 134.523H89.3184C89.3184 134.227 89.1914 133.971 88.9375 133.756C88.6875 133.541 88.3711 133.434 87.9883 133.434C87.5938 133.434 87.2852 133.52 87.0625 133.691C86.8398 133.863 86.7285 134.088 86.7285 134.365C86.7285 134.627 86.832 134.824 87.0391 134.957C87.2461 135.09 87.6191 135.217 88.1582 135.338C88.7012 135.459 89.1406 135.604 89.4766 135.771C89.8125 135.939 90.0605 136.143 90.2207 136.381C90.3848 136.615 90.4668 136.902 90.4668 137.242C90.4668 137.809 90.2402 138.264 89.7871 138.607C89.334 138.947 88.7461 139.117 88.0234 139.117C87.5156 139.117 87.0664 139.027 86.6758 138.848C86.2852 138.668 85.9785 138.418 85.7559 138.098C85.5371 137.773 85.4277 137.424 85.4277 137.049H86.5117C86.5312 137.412 86.6758 137.701 86.9453 137.916C87.2188 138.127 87.5781 138.232 88.0234 138.232C88.4336 138.232 88.7617 138.15 89.0078 137.986C89.2578 137.818 89.3828 137.596 89.3828 137.318ZM98.7695 138.373C98.3477 138.869 97.7285 139.117 96.9121 139.117C96.2363 139.117 95.7207 138.922 95.3652 138.531C95.0137 138.137 94.8359 137.555 94.832 136.785V132.66H95.916V136.756C95.916 137.717 96.3066 138.197 97.0879 138.197C97.916 138.197 98.4668 137.889 98.7402 137.271V132.66H99.8242V139H98.793L98.7695 138.373ZM102.502 132.66L102.537 133.457C103.021 132.848 103.654 132.543 104.436 132.543C105.775 132.543 106.451 133.299 106.463 134.811V139H105.379V134.805C105.375 134.348 105.27 134.01 105.062 133.791C104.859 133.572 104.541 133.463 104.107 133.463C103.756 133.463 103.447 133.557 103.182 133.744C102.916 133.932 102.709 134.178 102.561 134.482V139H101.477V132.66H102.502ZM107.834 135.777C107.834 134.805 108.064 134.023 108.525 133.434C108.986 132.84 109.59 132.543 110.336 132.543C111.078 132.543 111.666 132.797 112.1 133.305V130H113.184V139H112.188L112.135 138.32C111.701 138.852 111.098 139.117 110.324 139.117C109.59 139.117 108.99 138.816 108.525 138.215C108.064 137.613 107.834 136.828 107.834 135.859V135.777ZM108.918 135.9C108.918 136.619 109.066 137.182 109.363 137.588C109.66 137.994 110.07 138.197 110.594 138.197C111.281 138.197 111.783 137.889 112.1 137.271V134.359C111.775 133.762 111.277 133.463 110.605 133.463C110.074 133.463 109.66 133.668 109.363 134.078C109.066 134.488 108.918 135.096 108.918 135.9ZM117.502 139.117C116.643 139.117 115.943 138.836 115.404 138.273C114.865 137.707 114.596 136.951 114.596 136.006V135.807C114.596 135.178 114.715 134.617 114.953 134.125C115.195 133.629 115.531 133.242 115.961 132.965C116.395 132.684 116.863 132.543 117.367 132.543C118.191 132.543 118.832 132.814 119.289 133.357C119.746 133.9 119.975 134.678 119.975 135.689V136.141H115.68C115.695 136.766 115.877 137.271 116.225 137.658C116.576 138.041 117.021 138.232 117.561 138.232C117.943 138.232 118.268 138.154 118.533 137.998C118.799 137.842 119.031 137.635 119.23 137.377L119.893 137.893C119.361 138.709 118.564 139.117 117.502 139.117ZM117.367 133.434C116.93 133.434 116.562 133.594 116.266 133.914C115.969 134.23 115.785 134.676 115.715 135.25H118.891V135.168C118.859 134.617 118.711 134.191 118.445 133.891C118.18 133.586 117.82 133.434 117.367 133.434ZM124.299 133.633C124.135 133.605 123.957 133.592 123.766 133.592C123.055 133.592 122.572 133.895 122.318 134.5V139H121.234V132.66H122.289L122.307 133.393C122.662 132.826 123.166 132.543 123.818 132.543C124.029 132.543 124.189 132.57 124.299 132.625V133.633ZM128.992 137.318C128.992 137.025 128.881 136.799 128.658 136.639C128.439 136.475 128.055 136.334 127.504 136.217C126.957 136.1 126.521 135.959 126.197 135.795C125.877 135.631 125.639 135.436 125.482 135.209C125.33 134.982 125.254 134.713 125.254 134.4C125.254 133.881 125.473 133.441 125.91 133.082C126.352 132.723 126.914 132.543 127.598 132.543C128.316 132.543 128.898 132.729 129.344 133.1C129.793 133.471 130.018 133.945 130.018 134.523H128.928C128.928 134.227 128.801 133.971 128.547 133.756C128.297 133.541 127.98 133.434 127.598 133.434C127.203 133.434 126.895 133.52 126.672 133.691C126.449 133.863 126.338 134.088 126.338 134.365C126.338 134.627 126.441 134.824 126.648 134.957C126.855 135.09 127.229 135.217 127.768 135.338C128.311 135.459 128.75 135.604 129.086 135.771C129.422 135.939 129.67 136.143 129.83 136.381C129.994 136.615 130.076 136.902 130.076 137.242C130.076 137.809 129.85 138.264 129.396 138.607C128.943 138.947 128.355 139.117 127.633 139.117C127.125 139.117 126.676 139.027 126.285 138.848C125.895 138.668 125.588 138.418 125.365 138.098C125.146 137.773 125.037 137.424 125.037 137.049H126.121C126.141 137.412 126.285 137.701 126.555 137.916C126.828 138.127 127.188 138.232 127.633 138.232C128.043 138.232 128.371 138.15 128.617 137.986C128.867 137.818 128.992 137.596 128.992 137.318ZM132.959 131.125V132.66H134.143V133.498H132.959V137.43C132.959 137.684 133.012 137.875 133.117 138.004C133.223 138.129 133.402 138.191 133.656 138.191C133.781 138.191 133.953 138.168 134.172 138.121V139C133.887 139.078 133.609 139.117 133.34 139.117C132.855 139.117 132.49 138.971 132.244 138.678C131.998 138.385 131.875 137.969 131.875 137.43V133.498H130.721V132.66H131.875V131.125H132.959ZM139.328 139C139.266 138.875 139.215 138.652 139.176 138.332C138.672 138.855 138.07 139.117 137.371 139.117C136.746 139.117 136.232 138.941 135.83 138.59C135.432 138.234 135.232 137.785 135.232 137.242C135.232 136.582 135.482 136.07 135.982 135.707C136.486 135.34 137.193 135.156 138.104 135.156H139.158V134.658C139.158 134.279 139.045 133.979 138.818 133.756C138.592 133.529 138.258 133.416 137.816 133.416C137.43 133.416 137.105 133.514 136.844 133.709C136.582 133.904 136.451 134.141 136.451 134.418H135.361C135.361 134.102 135.473 133.797 135.695 133.504C135.922 133.207 136.227 132.973 136.609 132.801C136.996 132.629 137.42 132.543 137.881 132.543C138.611 132.543 139.184 132.727 139.598 133.094C140.012 133.457 140.227 133.959 140.242 134.6V137.518C140.242 138.1 140.316 138.562 140.465 138.906V139H139.328ZM137.529 138.174C137.869 138.174 138.191 138.086 138.496 137.91C138.801 137.734 139.021 137.506 139.158 137.225V135.924H138.309C136.98 135.924 136.316 136.312 136.316 137.09C136.316 137.43 136.43 137.695 136.656 137.887C136.883 138.078 137.174 138.174 137.529 138.174ZM142.967 132.66L143.002 133.457C143.486 132.848 144.119 132.543 144.9 132.543C146.24 132.543 146.916 133.299 146.928 134.811V139H145.844V134.805C145.84 134.348 145.734 134.01 145.527 133.791C145.324 133.572 145.006 133.463 144.572 133.463C144.221 133.463 143.912 133.557 143.646 133.744C143.381 133.932 143.174 134.178 143.025 134.482V139H141.941V132.66H142.967ZM148.299 135.777C148.299 134.805 148.529 134.023 148.99 133.434C149.451 132.84 150.055 132.543 150.801 132.543C151.543 132.543 152.131 132.797 152.564 133.305V130H153.648V139H152.652L152.6 138.32C152.166 138.852 151.562 139.117 150.789 139.117C150.055 139.117 149.455 138.816 148.99 138.215C148.529 137.613 148.299 136.828 148.299 135.859V135.777ZM149.383 135.9C149.383 136.619 149.531 137.182 149.828 137.588C150.125 137.994 150.535 138.197 151.059 138.197C151.746 138.197 152.248 137.889 152.564 137.271V134.359C152.24 133.762 151.742 133.463 151.07 133.463C150.539 133.463 150.125 133.668 149.828 134.078C149.531 134.488 149.383 135.096 149.383 135.9ZM159.783 131.125V132.66H160.967V133.498H159.783V137.43C159.783 137.684 159.836 137.875 159.941 138.004C160.047 138.129 160.227 138.191 160.48 138.191C160.605 138.191 160.777 138.168 160.996 138.121V139C160.711 139.078 160.434 139.117 160.164 139.117C159.68 139.117 159.314 138.971 159.068 138.678C158.822 138.385 158.699 137.969 158.699 137.43V133.498H157.545V132.66H158.699V131.125H159.783ZM163.322 133.428C163.803 132.838 164.428 132.543 165.197 132.543C166.537 132.543 167.213 133.299 167.225 134.811V139H166.141V134.805C166.137 134.348 166.031 134.01 165.824 133.791C165.621 133.572 165.303 133.463 164.869 133.463C164.518 133.463 164.209 133.557 163.943 133.744C163.678 133.932 163.471 134.178 163.322 134.482V139H162.238V130H163.322V133.428ZM172.762 139C172.699 138.875 172.648 138.652 172.609 138.332C172.105 138.855 171.504 139.117 170.805 139.117C170.18 139.117 169.666 138.941 169.264 138.59C168.865 138.234 168.666 137.785 168.666 137.242C168.666 136.582 168.916 136.07 169.416 135.707C169.92 135.34 170.627 135.156 171.537 135.156H172.592V134.658C172.592 134.279 172.479 133.979 172.252 133.756C172.025 133.529 171.691 133.416 171.25 133.416C170.863 133.416 170.539 133.514 170.277 133.709C170.016 133.904 169.885 134.141 169.885 134.418H168.795C168.795 134.102 168.906 133.797 169.129 133.504C169.355 133.207 169.66 132.973 170.043 132.801C170.43 132.629 170.854 132.543 171.314 132.543C172.045 132.543 172.617 132.727 173.031 133.094C173.445 133.457 173.66 133.959 173.676 134.6V137.518C173.676 138.1 173.75 138.562 173.898 138.906V139H172.762ZM170.963 138.174C171.303 138.174 171.625 138.086 171.93 137.91C172.234 137.734 172.455 137.506 172.592 137.225V135.924H171.742C170.414 135.924 169.75 136.312 169.75 137.09C169.75 137.43 169.863 137.695 170.09 137.887C170.316 138.078 170.607 138.174 170.963 138.174ZM176.846 131.125V132.66H178.029V133.498H176.846V137.43C176.846 137.684 176.898 137.875 177.004 138.004C177.109 138.129 177.289 138.191 177.543 138.191C177.668 138.191 177.84 138.168 178.059 138.121V139C177.773 139.078 177.496 139.117 177.227 139.117C176.742 139.117 176.377 138.971 176.131 138.678C175.885 138.385 175.762 137.969 175.762 137.43V133.498H174.607V132.66H175.762V131.125H176.846ZM183.748 131.125V132.66H184.932V133.498H183.748V137.43C183.748 137.684 183.801 137.875 183.906 138.004C184.012 138.129 184.191 138.191 184.445 138.191C184.57 138.191 184.742 138.168 184.961 138.121V139C184.676 139.078 184.398 139.117 184.129 139.117C183.645 139.117 183.279 138.971 183.033 138.678C182.787 138.385 182.664 137.969 182.664 137.43V133.498H181.51V132.66H182.664V131.125H183.748ZM187.287 133.428C187.768 132.838 188.393 132.543 189.162 132.543C190.502 132.543 191.178 133.299 191.189 134.811V139H190.105V134.805C190.102 134.348 189.996 134.01 189.789 133.791C189.586 133.572 189.268 133.463 188.834 133.463C188.482 133.463 188.174 133.557 187.908 133.744C187.643 133.932 187.436 134.178 187.287 134.482V139H186.203V130H187.287V133.428ZM195.443 139.117C194.584 139.117 193.885 138.836 193.346 138.273C192.807 137.707 192.537 136.951 192.537 136.006V135.807C192.537 135.178 192.656 134.617 192.895 134.125C193.137 133.629 193.473 133.242 193.902 132.965C194.336 132.684 194.805 132.543 195.309 132.543C196.133 132.543 196.773 132.814 197.23 133.357C197.688 133.9 197.916 134.678 197.916 135.689V136.141H193.621C193.637 136.766 193.818 137.271 194.166 137.658C194.518 138.041 194.963 138.232 195.502 138.232C195.885 138.232 196.209 138.154 196.475 137.998C196.74 137.842 196.973 137.635 197.172 137.377L197.834 137.893C197.303 138.709 196.506 139.117 195.443 139.117ZM195.309 133.434C194.871 133.434 194.504 133.594 194.207 133.914C193.91 134.23 193.727 134.676 193.656 135.25H196.832V135.168C196.801 134.617 196.652 134.191 196.387 133.891C196.121 133.586 195.762 133.434 195.309 133.434ZM200.354 139H199.27V132.66H200.354V139ZM199.182 130.979C199.182 130.803 199.234 130.654 199.34 130.533C199.449 130.412 199.609 130.352 199.82 130.352C200.031 130.352 200.191 130.412 200.301 130.533C200.41 130.654 200.465 130.803 200.465 130.979C200.465 131.154 200.41 131.301 200.301 131.418C200.191 131.535 200.031 131.594 199.82 131.594C199.609 131.594 199.449 131.535 199.34 131.418C199.234 131.301 199.182 131.154 199.182 130.979ZM205.158 133.633C204.994 133.605 204.816 133.592 204.625 133.592C203.914 133.592 203.432 133.895 203.178 134.5V139H202.094V132.66H203.148L203.166 133.393C203.521 132.826 204.025 132.543 204.678 132.543C204.889 132.543 205.049 132.57 205.158 132.625V133.633ZM214.492 135.9C214.492 136.865 214.271 137.643 213.83 138.232C213.389 138.822 212.791 139.117 212.037 139.117C211.268 139.117 210.662 138.873 210.221 138.385V141.438H209.137V132.66H210.127L210.18 133.363C210.621 132.816 211.234 132.543 212.02 132.543C212.781 132.543 213.383 132.83 213.824 133.404C214.27 133.979 214.492 134.777 214.492 135.801V135.9ZM213.408 135.777C213.408 135.062 213.256 134.498 212.951 134.084C212.646 133.67 212.229 133.463 211.697 133.463C211.041 133.463 210.549 133.754 210.221 134.336V137.365C210.545 137.943 211.041 138.232 211.709 138.232C212.229 138.232 212.641 138.027 212.945 137.617C213.254 137.203 213.408 136.59 213.408 135.777ZM218.939 133.633C218.775 133.605 218.598 133.592 218.406 133.592C217.695 133.592 217.213 133.895 216.959 134.5V139H215.875V132.66H216.93L216.947 133.393C217.303 132.826 217.807 132.543 218.459 132.543C218.67 132.543 218.83 132.57 218.939 132.625V133.633ZM221.119 139H220.035V132.66H221.119V139ZM219.947 130.979C219.947 130.803 220 130.654 220.105 130.533C220.215 130.412 220.375 130.352 220.586 130.352C220.797 130.352 220.957 130.412 221.066 130.533C221.176 130.654 221.23 130.803 221.23 130.979C221.23 131.154 221.176 131.301 221.066 131.418C220.957 131.535 220.797 131.594 220.586 131.594C220.375 131.594 220.215 131.535 220.105 131.418C220 131.301 219.947 131.154 219.947 130.979ZM223.885 132.66L223.92 133.457C224.404 132.848 225.037 132.543 225.818 132.543C227.158 132.543 227.834 133.299 227.846 134.811V139H226.762V134.805C226.758 134.348 226.652 134.01 226.445 133.791C226.242 133.572 225.924 133.463 225.49 133.463C225.139 133.463 224.83 133.557 224.564 133.744C224.299 133.932 224.092 134.178 223.943 134.482V139H222.859V132.66H223.885ZM232.023 138.232C232.41 138.232 232.748 138.115 233.037 137.881C233.326 137.646 233.486 137.354 233.518 137.002H234.543C234.523 137.365 234.398 137.711 234.168 138.039C233.938 138.367 233.629 138.629 233.242 138.824C232.859 139.02 232.453 139.117 232.023 139.117C231.16 139.117 230.473 138.83 229.961 138.256C229.453 137.678 229.199 136.889 229.199 135.889V135.707C229.199 135.09 229.312 134.541 229.539 134.061C229.766 133.58 230.09 133.207 230.512 132.941C230.938 132.676 231.439 132.543 232.018 132.543C232.729 132.543 233.318 132.756 233.787 133.182C234.26 133.607 234.512 134.16 234.543 134.84H233.518C233.486 134.43 233.33 134.094 233.049 133.832C232.771 133.566 232.428 133.434 232.018 133.434C231.467 133.434 231.039 133.633 230.734 134.031C230.434 134.426 230.283 134.998 230.283 135.748V135.953C230.283 136.684 230.434 137.246 230.734 137.641C231.035 138.035 231.465 138.232 232.023 138.232ZM236.939 139H235.855V132.66H236.939V139ZM235.768 130.979C235.768 130.803 235.82 130.654 235.926 130.533C236.035 130.412 236.195 130.352 236.406 130.352C236.617 130.352 236.777 130.412 236.887 130.533C236.996 130.654 237.051 130.803 237.051 130.979C237.051 131.154 236.996 131.301 236.887 131.418C236.777 131.535 236.617 131.594 236.406 131.594C236.195 131.594 236.035 131.535 235.926 131.418C235.82 131.301 235.768 131.154 235.768 130.979ZM244.035 135.9C244.035 136.865 243.814 137.643 243.373 138.232C242.932 138.822 242.334 139.117 241.58 139.117C240.811 139.117 240.205 138.873 239.764 138.385V141.438H238.68V132.66H239.67L239.723 133.363C240.164 132.816 240.777 132.543 241.562 132.543C242.324 132.543 242.926 132.83 243.367 133.404C243.812 133.979 244.035 134.777 244.035 135.801V135.9ZM242.951 135.777C242.951 135.062 242.799 134.498 242.494 134.084C242.189 133.67 241.771 133.463 241.24 133.463C240.584 133.463 240.092 133.754 239.764 134.336V137.365C240.088 137.943 240.584 138.232 241.252 138.232C241.771 138.232 242.184 138.027 242.488 137.617C242.797 137.203 242.951 136.59 242.951 135.777ZM249.332 139C249.27 138.875 249.219 138.652 249.18 138.332C248.676 138.855 248.074 139.117 247.375 139.117C246.75 139.117 246.236 138.941 245.834 138.59C245.436 138.234 245.236 137.785 245.236 137.242C245.236 136.582 245.486 136.07 245.986 135.707C246.49 135.34 247.197 135.156 248.107 135.156H249.162V134.658C249.162 134.279 249.049 133.979 248.822 133.756C248.596 133.529 248.262 133.416 247.82 133.416C247.434 133.416 247.109 133.514 246.848 133.709C246.586 133.904 246.455 134.141 246.455 134.418H245.365C245.365 134.102 245.477 133.797 245.699 133.504C245.926 133.207 246.23 132.973 246.613 132.801C247 132.629 247.424 132.543 247.885 132.543C248.615 132.543 249.188 132.727 249.602 133.094C250.016 133.457 250.23 133.959 250.246 134.6V137.518C250.246 138.1 250.32 138.562 250.469 138.906V139H249.332ZM247.533 138.174C247.873 138.174 248.195 138.086 248.5 137.91C248.805 137.734 249.025 137.506 249.162 137.225V135.924H248.312C246.984 135.924 246.32 136.312 246.32 137.09C246.32 137.43 246.434 137.695 246.66 137.887C246.887 138.078 247.178 138.174 247.533 138.174ZM253.123 139H252.039V130H253.123V139ZM75.9355 152.506L77.1543 147.66H78.2383L76.3926 154H75.5137L73.9727 149.195L72.4727 154H71.5938L69.7539 147.66H70.832L72.0801 152.406L73.5566 147.66H74.4297L75.9355 152.506ZM80.5234 154H79.4395V147.66H80.5234V154ZM79.3516 145.979C79.3516 145.803 79.4043 145.654 79.5098 145.533C79.6191 145.412 79.7793 145.352 79.9902 145.352C80.2012 145.352 80.3613 145.412 80.4707 145.533C80.5801 145.654 80.6348 145.803 80.6348 145.979C80.6348 146.154 80.5801 146.301 80.4707 146.418C80.3613 146.535 80.2012 146.594 79.9902 146.594C79.7793 146.594 79.6191 146.535 79.5098 146.418C79.4043 146.301 79.3516 146.154 79.3516 145.979ZM83.4414 154H82.3574V145H83.4414V154ZM86.3594 154H85.2754V145H86.3594V154ZM96.4434 150.9C96.4434 151.869 96.2207 152.648 95.7754 153.238C95.3301 153.824 94.7324 154.117 93.9824 154.117C93.1816 154.117 92.5625 153.834 92.125 153.268L92.0723 154H91.0762V145H92.1602V148.357C92.5977 147.814 93.2012 147.543 93.9707 147.543C94.7402 147.543 95.3438 147.834 95.7812 148.416C96.2227 148.998 96.4434 149.795 96.4434 150.807V150.9ZM95.3594 150.777C95.3594 150.039 95.2168 149.469 94.9316 149.066C94.6465 148.664 94.2363 148.463 93.7012 148.463C92.9863 148.463 92.4727 148.795 92.1602 149.459V152.201C92.4922 152.865 93.0098 153.197 93.7129 153.197C94.2324 153.197 94.6367 152.996 94.9258 152.594C95.2148 152.191 95.3594 151.586 95.3594 150.777ZM100.445 154.117C99.5859 154.117 98.8867 153.836 98.3477 153.273C97.8086 152.707 97.5391 151.951 97.5391 151.006V150.807C97.5391 150.178 97.6582 149.617 97.8965 149.125C98.1387 148.629 98.4746 148.242 98.9043 147.965C99.3379 147.684 99.8066 147.543 100.311 147.543C101.135 147.543 101.775 147.814 102.232 148.357C102.689 148.9 102.918 149.678 102.918 150.689V151.141H98.623C98.6387 151.766 98.8203 152.271 99.168 152.658C99.5195 153.041 99.9648 153.232 100.504 153.232C100.887 153.232 101.211 153.154 101.477 152.998C101.742 152.842 101.975 152.635 102.174 152.377L102.836 152.893C102.305 153.709 101.508 154.117 100.445 154.117ZM100.311 148.434C99.873 148.434 99.5059 148.594 99.209 148.914C98.9121 149.23 98.7285 149.676 98.6582 150.25H101.834V150.168C101.803 149.617 101.654 149.191 101.389 148.891C101.123 148.586 100.764 148.434 100.311 148.434ZM111.068 154C111.006 153.875 110.955 153.652 110.916 153.332C110.412 153.855 109.811 154.117 109.111 154.117C108.486 154.117 107.973 153.941 107.57 153.59C107.172 153.234 106.973 152.785 106.973 152.242C106.973 151.582 107.223 151.07 107.723 150.707C108.227 150.34 108.934 150.156 109.844 150.156H110.898V149.658C110.898 149.279 110.785 148.979 110.559 148.756C110.332 148.529 109.998 148.416 109.557 148.416C109.17 148.416 108.846 148.514 108.584 148.709C108.322 148.904 108.191 149.141 108.191 149.418H107.102C107.102 149.102 107.213 148.797 107.436 148.504C107.662 148.207 107.967 147.973 108.35 147.801C108.736 147.629 109.16 147.543 109.621 147.543C110.352 147.543 110.924 147.727 111.338 148.094C111.752 148.457 111.967 148.959 111.982 149.6V152.518C111.982 153.1 112.057 153.562 112.205 153.906V154H111.068ZM109.27 153.174C109.609 153.174 109.932 153.086 110.236 152.91C110.541 152.734 110.762 152.506 110.898 152.225V150.924H110.049C108.721 150.924 108.057 151.312 108.057 152.09C108.057 152.43 108.17 152.695 108.396 152.887C108.623 153.078 108.914 153.174 109.27 153.174ZM115.152 146.125V147.66H116.336V148.498H115.152V152.43C115.152 152.684 115.205 152.875 115.311 153.004C115.416 153.129 115.596 153.191 115.85 153.191C115.975 153.191 116.146 153.168 116.365 153.121V154C116.08 154.078 115.803 154.117 115.533 154.117C115.049 154.117 114.684 153.971 114.438 153.678C114.191 153.385 114.068 152.969 114.068 152.43V148.498H112.914V147.66H114.068V146.125H115.152ZM122.207 145.469L124.996 152.43L127.785 145.469H129.244V154H128.119V150.678L128.225 147.092L125.424 154H124.562L121.768 147.109L121.879 150.678V154H120.754V145.469H122.207ZM130.773 150.771C130.773 150.15 130.895 149.592 131.137 149.096C131.383 148.6 131.723 148.217 132.156 147.947C132.594 147.678 133.092 147.543 133.65 147.543C134.514 147.543 135.211 147.842 135.742 148.439C136.277 149.037 136.545 149.832 136.545 150.824V150.9C136.545 151.518 136.426 152.072 136.188 152.564C135.953 153.053 135.615 153.434 135.174 153.707C134.736 153.98 134.232 154.117 133.662 154.117C132.803 154.117 132.105 153.818 131.57 153.221C131.039 152.623 130.773 151.832 130.773 150.848V150.771ZM131.863 150.9C131.863 151.604 132.025 152.168 132.35 152.594C132.678 153.02 133.115 153.232 133.662 153.232C134.213 153.232 134.65 153.018 134.975 152.588C135.299 152.154 135.461 151.549 135.461 150.771C135.461 150.076 135.295 149.514 134.963 149.084C134.635 148.65 134.197 148.434 133.65 148.434C133.115 148.434 132.684 148.646 132.355 149.072C132.027 149.498 131.863 150.107 131.863 150.9ZM137.641 150.777C137.641 149.805 137.871 149.023 138.332 148.434C138.793 147.84 139.396 147.543 140.143 147.543C140.885 147.543 141.473 147.797 141.906 148.305V145H142.99V154H141.994L141.941 153.32C141.508 153.852 140.904 154.117 140.131 154.117C139.396 154.117 138.797 153.816 138.332 153.215C137.871 152.613 137.641 151.828 137.641 150.859V150.777ZM138.725 150.9C138.725 151.619 138.873 152.182 139.17 152.588C139.467 152.994 139.877 153.197 140.4 153.197C141.088 153.197 141.59 152.889 141.906 152.271V149.359C141.582 148.762 141.084 148.463 140.412 148.463C139.881 148.463 139.467 148.668 139.17 149.078C138.873 149.488 138.725 150.096 138.725 150.9ZM147.309 154.117C146.449 154.117 145.75 153.836 145.211 153.273C144.672 152.707 144.402 151.951 144.402 151.006V150.807C144.402 150.178 144.521 149.617 144.76 149.125C145.002 148.629 145.338 148.242 145.768 147.965C146.201 147.684 146.67 147.543 147.174 147.543C147.998 147.543 148.639 147.814 149.096 148.357C149.553 148.9 149.781 149.678 149.781 150.689V151.141H145.486C145.502 151.766 145.684 152.271 146.031 152.658C146.383 153.041 146.828 153.232 147.367 153.232C147.75 153.232 148.074 153.154 148.34 152.998C148.605 152.842 148.838 152.635 149.037 152.377L149.699 152.893C149.168 153.709 148.371 154.117 147.309 154.117ZM147.174 148.434C146.736 148.434 146.369 148.594 146.072 148.914C145.775 149.23 145.592 149.676 145.521 150.25H148.697V150.168C148.666 149.617 148.518 149.191 148.252 148.891C147.986 148.586 147.627 148.434 147.174 148.434ZM154.105 148.633C153.941 148.605 153.764 148.592 153.572 148.592C152.861 148.592 152.379 148.895 152.125 149.5V154H151.041V147.66H152.096L152.113 148.393C152.469 147.826 152.973 147.543 153.625 147.543C153.836 147.543 153.996 147.57 154.105 147.625V148.633ZM158.787 154C158.725 153.875 158.674 153.652 158.635 153.332C158.131 153.855 157.529 154.117 156.83 154.117C156.205 154.117 155.691 153.941 155.289 153.59C154.891 153.234 154.691 152.785 154.691 152.242C154.691 151.582 154.941 151.07 155.441 150.707C155.945 150.34 156.652 150.156 157.562 150.156H158.617V149.658C158.617 149.279 158.504 148.979 158.277 148.756C158.051 148.529 157.717 148.416 157.275 148.416C156.889 148.416 156.564 148.514 156.303 148.709C156.041 148.904 155.91 149.141 155.91 149.418H154.82C154.82 149.102 154.932 148.797 155.154 148.504C155.381 148.207 155.686 147.973 156.068 147.801C156.455 147.629 156.879 147.543 157.34 147.543C158.07 147.543 158.643 147.727 159.057 148.094C159.471 148.457 159.686 148.959 159.701 149.6V152.518C159.701 153.1 159.775 153.562 159.924 153.906V154H158.787ZM156.988 153.174C157.328 153.174 157.65 153.086 157.955 152.91C158.26 152.734 158.48 152.506 158.617 152.225V150.924H157.768C156.439 150.924 155.775 151.312 155.775 152.09C155.775 152.43 155.889 152.695 156.115 152.887C156.342 153.078 156.633 153.174 156.988 153.174ZM162.871 146.125V147.66H164.055V148.498H162.871V152.43C162.871 152.684 162.924 152.875 163.029 153.004C163.135 153.129 163.314 153.191 163.568 153.191C163.693 153.191 163.865 153.168 164.084 153.121V154C163.799 154.078 163.521 154.117 163.252 154.117C162.768 154.117 162.402 153.971 162.156 153.678C161.91 153.385 161.787 152.969 161.787 152.43V148.498H160.633V147.66H161.787V146.125H162.871ZM167.957 154.117C167.098 154.117 166.398 153.836 165.859 153.273C165.32 152.707 165.051 151.951 165.051 151.006V150.807C165.051 150.178 165.17 149.617 165.408 149.125C165.65 148.629 165.986 148.242 166.416 147.965C166.85 147.684 167.318 147.543 167.822 147.543C168.646 147.543 169.287 147.814 169.744 148.357C170.201 148.9 170.43 149.678 170.43 150.689V151.141H166.135C166.15 151.766 166.332 152.271 166.68 152.658C167.031 153.041 167.477 153.232 168.016 153.232C168.398 153.232 168.723 153.154 168.988 152.998C169.254 152.842 169.486 152.635 169.686 152.377L170.348 152.893C169.816 153.709 169.02 154.117 167.957 154.117ZM167.822 148.434C167.385 148.434 167.018 148.594 166.721 148.914C166.424 149.23 166.24 149.676 166.17 150.25H169.346V150.168C169.314 149.617 169.166 149.191 168.9 148.891C168.635 148.586 168.275 148.434 167.822 148.434ZM172.867 154H171.783V145H172.867V154ZM176.682 152.412L178.158 147.66H179.318L176.77 154.979C176.375 156.033 175.748 156.561 174.889 156.561L174.684 156.543L174.279 156.467V155.588L174.572 155.611C174.939 155.611 175.225 155.537 175.428 155.389C175.635 155.24 175.805 154.969 175.938 154.574L176.178 153.93L173.916 147.66H175.1L176.682 152.412ZM189.994 154H188.863V150.057H184.562V154H183.438V145.469H184.562V149.137H188.863V145.469H189.994V154ZM193 154H191.916V147.66H193V154ZM191.828 145.979C191.828 145.803 191.881 145.654 191.986 145.533C192.096 145.412 192.256 145.352 192.467 145.352C192.678 145.352 192.838 145.412 192.947 145.533C193.057 145.654 193.111 145.803 193.111 145.979C193.111 146.154 193.057 146.301 192.947 146.418C192.838 146.535 192.678 146.594 192.467 146.594C192.256 146.594 192.096 146.535 191.986 146.418C191.881 146.301 191.828 146.154 191.828 145.979ZM194.482 150.777C194.482 149.789 194.711 149.004 195.168 148.422C195.625 147.836 196.23 147.543 196.984 147.543C197.758 147.543 198.361 147.816 198.795 148.363L198.848 147.66H199.838V153.848C199.838 154.668 199.594 155.314 199.105 155.787C198.621 156.26 197.969 156.496 197.148 156.496C196.691 156.496 196.244 156.398 195.807 156.203C195.369 156.008 195.035 155.74 194.805 155.4L195.367 154.75C195.832 155.324 196.4 155.611 197.072 155.611C197.6 155.611 198.01 155.463 198.303 155.166C198.6 154.869 198.748 154.451 198.748 153.912V153.367C198.314 153.867 197.723 154.117 196.973 154.117C196.23 154.117 195.629 153.818 195.168 153.221C194.711 152.623 194.482 151.809 194.482 150.777ZM195.572 150.9C195.572 151.615 195.719 152.178 196.012 152.588C196.305 152.994 196.715 153.197 197.242 153.197C197.926 153.197 198.428 152.887 198.748 152.266V149.371C198.416 148.766 197.918 148.463 197.254 148.463C196.727 148.463 196.314 148.668 196.018 149.078C195.721 149.488 195.572 150.096 195.572 150.9ZM202.562 148.428C203.043 147.838 203.668 147.543 204.438 147.543C205.777 147.543 206.453 148.299 206.465 149.811V154H205.381V149.805C205.377 149.348 205.271 149.01 205.064 148.791C204.861 148.572 204.543 148.463 204.109 148.463C203.758 148.463 203.449 148.557 203.184 148.744C202.918 148.932 202.711 149.178 202.562 149.482V154H201.479V145H202.562V148.428ZM214.129 148.633C213.965 148.605 213.787 148.592 213.596 148.592C212.885 148.592 212.402 148.895 212.148 149.5V154H211.064V147.66H212.119L212.137 148.393C212.492 147.826 212.996 147.543 213.648 147.543C213.859 147.543 214.02 147.57 214.129 147.625V148.633ZM216.309 154H215.225V147.66H216.309V154ZM215.137 145.979C215.137 145.803 215.189 145.654 215.295 145.533C215.404 145.412 215.564 145.352 215.775 145.352C215.986 145.352 216.146 145.412 216.256 145.533C216.365 145.654 216.42 145.803 216.42 145.979C216.42 146.154 216.365 146.301 216.256 146.418C216.146 146.535 215.986 146.594 215.775 146.594C215.564 146.594 215.404 146.535 215.295 146.418C215.189 146.301 215.137 146.154 215.137 145.979ZM221.74 152.318C221.74 152.025 221.629 151.799 221.406 151.639C221.188 151.475 220.803 151.334 220.252 151.217C219.705 151.1 219.27 150.959 218.945 150.795C218.625 150.631 218.387 150.436 218.23 150.209C218.078 149.982 218.002 149.713 218.002 149.4C218.002 148.881 218.221 148.441 218.658 148.082C219.1 147.723 219.662 147.543 220.346 147.543C221.064 147.543 221.646 147.729 222.092 148.1C222.541 148.471 222.766 148.945 222.766 149.523H221.676C221.676 149.227 221.549 148.971 221.295 148.756C221.045 148.541 220.729 148.434 220.346 148.434C219.951 148.434 219.643 148.52 219.42 148.691C219.197 148.863 219.086 149.088 219.086 149.365C219.086 149.627 219.189 149.824 219.396 149.957C219.604 150.09 219.977 150.217 220.516 150.338C221.059 150.459 221.498 150.604 221.834 150.771C222.17 150.939 222.418 151.143 222.578 151.381C222.742 151.615 222.824 151.902 222.824 152.242C222.824 152.809 222.598 153.264 222.145 153.607C221.691 153.947 221.104 154.117 220.381 154.117C219.873 154.117 219.424 154.027 219.033 153.848C218.643 153.668 218.336 153.418 218.113 153.098C217.895 152.773 217.785 152.424 217.785 152.049H218.869C218.889 152.412 219.033 152.701 219.303 152.916C219.576 153.127 219.936 153.232 220.381 153.232C220.791 153.232 221.119 153.15 221.365 152.986C221.615 152.818 221.74 152.596 221.74 152.318ZM226.006 151.064L225.326 151.773V154H224.242V145H225.326V150.443L225.906 149.746L227.881 147.66H229.199L226.732 150.309L229.486 154H228.215L226.006 151.064Z" fill="black"/>
</g>
<defs>
<clipPath id="clip0">
<rect width="300" height="167" fill="white"/>
</clipPath>
</defs>
</svg>
