<svg width="300" height="182" viewBox="0 0 300 182" fill="none" xmlns="http://www.w3.org/2000/svg">
<g clip-path="url(#clip0)">
<rect width="300" height="182" fill="white"/>
<path d="M232.706 159.662H230.421V166H229.488V159.662H227.208V158.891H232.706V159.662ZM234.522 161.356C234.923 160.865 235.444 160.619 236.085 160.619C237.201 160.619 237.765 161.249 237.774 162.509V166H236.871V162.504C236.868 162.123 236.78 161.841 236.607 161.659C236.438 161.477 236.173 161.386 235.812 161.386C235.519 161.386 235.261 161.464 235.04 161.62C234.819 161.776 234.646 161.981 234.522 162.235V166H233.619V158.5H234.522V161.356ZM240.108 166H239.205V160.717H240.108V166ZM239.132 159.315C239.132 159.169 239.176 159.045 239.264 158.944C239.355 158.843 239.488 158.793 239.664 158.793C239.84 158.793 239.973 158.843 240.064 158.944C240.156 159.045 240.201 159.169 240.201 159.315C240.201 159.462 240.156 159.584 240.064 159.682C239.973 159.779 239.84 159.828 239.664 159.828C239.488 159.828 239.355 159.779 239.264 159.682C239.176 159.584 239.132 159.462 239.132 159.315ZM244.635 164.599C244.635 164.354 244.542 164.166 244.356 164.032C244.174 163.896 243.854 163.778 243.395 163.681C242.939 163.583 242.576 163.466 242.306 163.329C242.039 163.192 241.84 163.03 241.71 162.841C241.583 162.652 241.52 162.427 241.52 162.167C241.52 161.734 241.702 161.368 242.066 161.068C242.434 160.769 242.903 160.619 243.473 160.619C244.072 160.619 244.557 160.774 244.928 161.083C245.302 161.392 245.489 161.788 245.489 162.27H244.581C244.581 162.022 244.475 161.809 244.264 161.63C244.055 161.451 243.792 161.361 243.473 161.361C243.144 161.361 242.887 161.433 242.701 161.576C242.516 161.719 242.423 161.907 242.423 162.138C242.423 162.356 242.509 162.52 242.682 162.631C242.854 162.742 243.165 162.847 243.614 162.948C244.067 163.049 244.433 163.17 244.713 163.31C244.993 163.45 245.2 163.619 245.333 163.817C245.47 164.013 245.538 164.252 245.538 164.535C245.538 165.007 245.349 165.386 244.972 165.673C244.594 165.956 244.104 166.098 243.502 166.098C243.079 166.098 242.704 166.023 242.379 165.873C242.053 165.723 241.798 165.515 241.612 165.248C241.43 164.978 241.339 164.687 241.339 164.374H242.242C242.258 164.677 242.379 164.918 242.604 165.097C242.831 165.272 243.131 165.36 243.502 165.36C243.844 165.36 244.117 165.292 244.322 165.155C244.531 165.015 244.635 164.83 244.635 164.599ZM221.393 175.831C220.589 175.6 220.003 175.317 219.635 174.981C219.27 174.643 219.088 174.226 219.088 173.731C219.088 173.172 219.311 172.709 219.757 172.345C220.206 171.977 220.789 171.793 221.505 171.793C221.993 171.793 222.428 171.887 222.809 172.076C223.193 172.265 223.489 172.525 223.697 172.857C223.909 173.189 224.015 173.552 224.015 173.946H223.072C223.072 173.517 222.936 173.18 222.662 172.936C222.389 172.688 222.003 172.564 221.505 172.564C221.043 172.564 220.681 172.667 220.421 172.872C220.164 173.074 220.035 173.355 220.035 173.717C220.035 174.007 220.157 174.252 220.401 174.454C220.649 174.653 221.067 174.835 221.656 175.001C222.249 175.167 222.711 175.351 223.043 175.553C223.378 175.751 223.626 175.984 223.785 176.251C223.948 176.518 224.029 176.832 224.029 177.193C224.029 177.77 223.805 178.232 223.355 178.58C222.906 178.925 222.306 179.098 221.554 179.098C221.065 179.098 220.61 179.005 220.187 178.819C219.763 178.631 219.436 178.373 219.205 178.048C218.977 177.722 218.863 177.353 218.863 176.939H219.806C219.806 177.369 219.964 177.709 220.279 177.96C220.598 178.207 221.023 178.331 221.554 178.331C222.049 178.331 222.428 178.23 222.691 178.028C222.955 177.826 223.087 177.551 223.087 177.203C223.087 176.855 222.965 176.586 222.721 176.397C222.477 176.205 222.034 176.017 221.393 175.831ZM227.213 178.36C227.535 178.36 227.817 178.263 228.058 178.067C228.299 177.872 228.432 177.628 228.458 177.335H229.312C229.296 177.638 229.192 177.926 229 178.199C228.808 178.473 228.551 178.691 228.229 178.854C227.91 179.016 227.571 179.098 227.213 179.098C226.493 179.098 225.921 178.858 225.494 178.38C225.071 177.898 224.859 177.241 224.859 176.407V176.256C224.859 175.742 224.954 175.284 225.143 174.884C225.331 174.483 225.602 174.173 225.953 173.951C226.308 173.73 226.726 173.619 227.208 173.619C227.8 173.619 228.292 173.797 228.683 174.151C229.076 174.506 229.286 174.967 229.312 175.533H228.458C228.432 175.191 228.302 174.911 228.067 174.693C227.836 174.472 227.55 174.361 227.208 174.361C226.749 174.361 226.393 174.527 226.139 174.859C225.888 175.188 225.763 175.665 225.763 176.29V176.461C225.763 177.07 225.888 177.538 226.139 177.867C226.389 178.196 226.747 178.36 227.213 178.36ZM231.231 174.356C231.632 173.865 232.153 173.619 232.794 173.619C233.91 173.619 234.474 174.249 234.483 175.509V179H233.58V175.504C233.577 175.123 233.489 174.841 233.316 174.659C233.147 174.477 232.882 174.386 232.521 174.386C232.228 174.386 231.97 174.464 231.749 174.62C231.528 174.776 231.355 174.981 231.231 175.235V179H230.328V171.5H231.231V174.356ZM238.028 179.098C237.312 179.098 236.729 178.863 236.28 178.395C235.831 177.923 235.606 177.293 235.606 176.505V176.339C235.606 175.815 235.706 175.348 235.904 174.938C236.106 174.524 236.386 174.202 236.744 173.971C237.105 173.736 237.496 173.619 237.916 173.619C238.603 173.619 239.137 173.845 239.518 174.298C239.898 174.75 240.089 175.398 240.089 176.241V176.617H236.51C236.523 177.138 236.674 177.56 236.964 177.882C237.257 178.201 237.628 178.36 238.077 178.36C238.396 178.36 238.666 178.295 238.888 178.165C239.109 178.035 239.303 177.862 239.469 177.647L240.021 178.077C239.578 178.757 238.914 179.098 238.028 179.098ZM237.916 174.361C237.551 174.361 237.245 174.495 236.998 174.762C236.751 175.025 236.598 175.396 236.539 175.875H239.186V175.807C239.16 175.348 239.036 174.993 238.814 174.742C238.593 174.488 238.294 174.361 237.916 174.361ZM241.988 173.717L242.013 174.303C242.4 173.847 242.923 173.619 243.58 173.619C244.319 173.619 244.822 173.902 245.089 174.469C245.265 174.215 245.493 174.01 245.772 173.854C246.056 173.697 246.389 173.619 246.773 173.619C247.932 173.619 248.521 174.233 248.541 175.46V179H247.638V175.514C247.638 175.136 247.551 174.854 247.379 174.669C247.206 174.48 246.917 174.386 246.51 174.386C246.174 174.386 245.896 174.487 245.675 174.688C245.453 174.887 245.325 175.156 245.289 175.494V179H244.381V175.538C244.381 174.77 244.005 174.386 243.253 174.386C242.66 174.386 242.255 174.638 242.037 175.143V179H241.134V173.717H241.988ZM252.101 179.098C251.384 179.098 250.802 178.863 250.353 178.395C249.903 177.923 249.679 177.293 249.679 176.505V176.339C249.679 175.815 249.778 175.348 249.977 174.938C250.178 174.524 250.458 174.202 250.816 173.971C251.178 173.736 251.568 173.619 251.988 173.619C252.675 173.619 253.209 173.845 253.59 174.298C253.971 174.75 254.161 175.398 254.161 176.241V176.617H250.582C250.595 177.138 250.746 177.56 251.036 177.882C251.329 178.201 251.7 178.36 252.149 178.36C252.468 178.36 252.739 178.295 252.96 178.165C253.181 178.035 253.375 177.862 253.541 177.647L254.093 178.077C253.65 178.757 252.986 179.098 252.101 179.098ZM251.988 174.361C251.624 174.361 251.318 174.495 251.07 174.762C250.823 175.025 250.67 175.396 250.611 175.875H253.258V175.807C253.232 175.348 253.108 174.993 252.887 174.742C252.665 174.488 252.366 174.361 251.988 174.361Z" fill="black"/>
<path d="M141.621 162.86H138.638V166H137.7V158.891H142.104V159.662H138.638V162.094H141.621V162.86ZM144.067 166H143.164V160.717H144.067V166ZM143.091 159.315C143.091 159.169 143.135 159.045 143.223 158.944C143.314 158.843 143.447 158.793 143.623 158.793C143.799 158.793 143.932 158.843 144.023 158.944C144.115 159.045 144.16 159.169 144.16 159.315C144.16 159.462 144.115 159.584 144.023 159.682C143.932 159.779 143.799 159.828 143.623 159.828C143.447 159.828 143.314 159.779 143.223 159.682C143.135 159.584 143.091 159.462 143.091 159.315ZM147.29 162.646L148.462 160.717H149.517L147.788 163.329L149.57 166H148.525L147.305 164.022L146.084 166H145.034L146.816 163.329L145.088 160.717H146.133L147.29 162.646ZM152.573 166.098C151.857 166.098 151.274 165.863 150.825 165.395C150.376 164.923 150.151 164.293 150.151 163.505V163.339C150.151 162.815 150.251 162.348 150.449 161.938C150.651 161.524 150.931 161.202 151.289 160.971C151.65 160.736 152.041 160.619 152.461 160.619C153.148 160.619 153.682 160.845 154.062 161.298C154.443 161.75 154.634 162.398 154.634 163.241V163.617H151.055C151.068 164.138 151.219 164.56 151.509 164.882C151.802 165.201 152.173 165.36 152.622 165.36C152.941 165.36 153.211 165.295 153.433 165.165C153.654 165.035 153.848 164.862 154.014 164.647L154.565 165.077C154.123 165.757 153.459 166.098 152.573 166.098ZM152.461 161.361C152.096 161.361 151.79 161.495 151.543 161.762C151.296 162.025 151.143 162.396 151.084 162.875H153.73V162.807C153.704 162.348 153.581 161.993 153.359 161.742C153.138 161.488 152.839 161.361 152.461 161.361ZM155.464 163.314C155.464 162.504 155.656 161.853 156.04 161.361C156.424 160.867 156.927 160.619 157.549 160.619C158.167 160.619 158.657 160.831 159.019 161.254V158.5H159.922V166H159.092L159.048 165.434C158.687 165.876 158.184 166.098 157.539 166.098C156.927 166.098 156.427 165.847 156.04 165.346C155.656 164.844 155.464 164.19 155.464 163.383V163.314ZM156.367 163.417C156.367 164.016 156.491 164.485 156.738 164.823C156.986 165.162 157.327 165.331 157.764 165.331C158.337 165.331 158.755 165.074 159.019 164.56V162.133C158.748 161.635 158.333 161.386 157.773 161.386C157.331 161.386 156.986 161.557 156.738 161.898C156.491 162.24 156.367 162.746 156.367 163.417ZM131.226 179V171.891H133.232C133.851 171.891 134.398 172.027 134.873 172.301C135.348 172.574 135.715 172.963 135.972 173.468C136.232 173.972 136.364 174.552 136.367 175.206V175.66C136.367 176.331 136.237 176.918 135.977 177.423C135.719 177.927 135.35 178.315 134.868 178.585C134.39 178.855 133.831 178.993 133.193 179H131.226ZM132.163 172.662V178.233H133.149C133.872 178.233 134.434 178.009 134.834 177.56C135.238 177.11 135.439 176.471 135.439 175.641V175.226C135.439 174.418 135.249 173.792 134.868 173.346C134.491 172.896 133.953 172.669 133.257 172.662H132.163ZM139.839 179.098C139.123 179.098 138.54 178.863 138.091 178.395C137.642 177.923 137.417 177.293 137.417 176.505V176.339C137.417 175.815 137.516 175.348 137.715 174.938C137.917 174.524 138.197 174.202 138.555 173.971C138.916 173.736 139.307 173.619 139.727 173.619C140.413 173.619 140.947 173.845 141.328 174.298C141.709 174.75 141.899 175.398 141.899 176.241V176.617H138.32C138.333 177.138 138.485 177.56 138.774 177.882C139.067 178.201 139.438 178.36 139.888 178.36C140.207 178.36 140.477 178.295 140.698 178.165C140.92 178.035 141.113 177.862 141.279 177.647L141.831 178.077C141.388 178.757 140.724 179.098 139.839 179.098ZM139.727 174.361C139.362 174.361 139.056 174.495 138.809 174.762C138.561 175.025 138.408 175.396 138.35 175.875H140.996V175.807C140.97 175.348 140.846 174.993 140.625 174.742C140.404 174.488 140.104 174.361 139.727 174.361ZM147.412 176.417C147.412 177.221 147.228 177.869 146.86 178.36C146.493 178.852 145.994 179.098 145.366 179.098C144.725 179.098 144.22 178.894 143.853 178.487V181.031H142.949V173.717H143.774L143.818 174.303C144.186 173.847 144.697 173.619 145.352 173.619C145.986 173.619 146.488 173.858 146.855 174.337C147.227 174.815 147.412 175.481 147.412 176.334V176.417ZM146.509 176.314C146.509 175.719 146.382 175.248 146.128 174.903C145.874 174.558 145.526 174.386 145.083 174.386C144.536 174.386 144.126 174.628 143.853 175.113V177.638C144.123 178.119 144.536 178.36 145.093 178.36C145.526 178.36 145.869 178.189 146.123 177.848C146.38 177.503 146.509 176.992 146.509 176.314ZM148.325 176.31C148.325 175.792 148.426 175.326 148.628 174.913C148.833 174.5 149.116 174.181 149.478 173.956C149.842 173.731 150.257 173.619 150.723 173.619C151.442 173.619 152.023 173.868 152.466 174.366C152.912 174.864 153.135 175.527 153.135 176.354V176.417C153.135 176.931 153.035 177.394 152.837 177.804C152.642 178.211 152.36 178.528 151.992 178.756C151.628 178.984 151.208 179.098 150.732 179.098C150.016 179.098 149.435 178.849 148.989 178.351C148.547 177.853 148.325 177.193 148.325 176.373V176.31ZM149.233 176.417C149.233 177.003 149.368 177.473 149.639 177.828C149.912 178.183 150.277 178.36 150.732 178.36C151.191 178.36 151.556 178.181 151.826 177.823C152.096 177.462 152.231 176.957 152.231 176.31C152.231 175.73 152.093 175.261 151.816 174.903C151.543 174.542 151.178 174.361 150.723 174.361C150.277 174.361 149.917 174.539 149.644 174.894C149.37 175.248 149.233 175.756 149.233 176.417ZM157.344 177.599C157.344 177.354 157.251 177.166 157.065 177.032C156.883 176.896 156.562 176.778 156.104 176.681C155.648 176.583 155.285 176.466 155.015 176.329C154.748 176.192 154.549 176.03 154.419 175.841C154.292 175.652 154.229 175.427 154.229 175.167C154.229 174.734 154.411 174.368 154.775 174.068C155.143 173.769 155.612 173.619 156.182 173.619C156.781 173.619 157.266 173.774 157.637 174.083C158.011 174.392 158.198 174.788 158.198 175.27H157.29C157.29 175.022 157.184 174.809 156.973 174.63C156.764 174.451 156.501 174.361 156.182 174.361C155.853 174.361 155.596 174.433 155.41 174.576C155.225 174.719 155.132 174.907 155.132 175.138C155.132 175.356 155.218 175.52 155.391 175.631C155.563 175.742 155.874 175.847 156.323 175.948C156.776 176.049 157.142 176.17 157.422 176.31C157.702 176.45 157.909 176.619 158.042 176.817C158.179 177.013 158.247 177.252 158.247 177.535C158.247 178.007 158.058 178.386 157.681 178.673C157.303 178.956 156.813 179.098 156.211 179.098C155.788 179.098 155.413 179.023 155.088 178.873C154.762 178.723 154.507 178.515 154.321 178.248C154.139 177.978 154.048 177.687 154.048 177.374H154.951C154.967 177.677 155.088 177.918 155.312 178.097C155.54 178.272 155.84 178.36 156.211 178.36C156.553 178.36 156.826 178.292 157.031 178.155C157.24 178.015 157.344 177.83 157.344 177.599ZM160.405 179H159.502V173.717H160.405V179ZM159.429 172.315C159.429 172.169 159.473 172.045 159.561 171.944C159.652 171.843 159.785 171.793 159.961 171.793C160.137 171.793 160.27 171.843 160.361 171.944C160.452 172.045 160.498 172.169 160.498 172.315C160.498 172.462 160.452 172.584 160.361 172.682C160.27 172.779 160.137 172.828 159.961 172.828C159.785 172.828 159.652 172.779 159.561 172.682C159.473 172.584 159.429 172.462 159.429 172.315ZM163.081 172.438V173.717H164.067V174.415H163.081V177.691C163.081 177.903 163.125 178.062 163.213 178.17C163.301 178.274 163.451 178.326 163.662 178.326C163.766 178.326 163.91 178.307 164.092 178.268V179C163.854 179.065 163.623 179.098 163.398 179.098C162.995 179.098 162.69 178.976 162.485 178.731C162.28 178.487 162.178 178.141 162.178 177.691V174.415H161.216V173.717H162.178V172.438H163.081ZM168.203 177.599C168.203 177.354 168.11 177.166 167.925 177.032C167.743 176.896 167.422 176.778 166.963 176.681C166.507 176.583 166.144 176.466 165.874 176.329C165.607 176.192 165.409 176.03 165.278 175.841C165.151 175.652 165.088 175.427 165.088 175.167C165.088 174.734 165.27 174.368 165.635 174.068C166.003 173.769 166.471 173.619 167.041 173.619C167.64 173.619 168.125 173.774 168.496 174.083C168.87 174.392 169.058 174.788 169.058 175.27H168.149C168.149 175.022 168.044 174.809 167.832 174.63C167.624 174.451 167.36 174.361 167.041 174.361C166.712 174.361 166.455 174.433 166.27 174.576C166.084 174.719 165.991 174.907 165.991 175.138C165.991 175.356 166.077 175.52 166.25 175.631C166.423 175.742 166.733 175.847 167.183 175.948C167.635 176.049 168.001 176.17 168.281 176.31C168.561 176.45 168.768 176.619 168.901 176.817C169.038 177.013 169.106 177.252 169.106 177.535C169.106 178.007 168.918 178.386 168.54 178.673C168.162 178.956 167.673 179.098 167.07 179.098C166.647 179.098 166.273 179.023 165.947 178.873C165.622 178.723 165.366 178.515 165.181 178.248C164.998 177.978 164.907 177.687 164.907 177.374H165.811C165.827 177.677 165.947 177.918 166.172 178.097C166.4 178.272 166.699 178.36 167.07 178.36C167.412 178.36 167.686 178.292 167.891 178.155C168.099 178.015 168.203 177.83 168.203 177.599Z" fill="black"/>
<path d="M49.4883 162.831C48.6842 162.6 48.0983 162.317 47.7305 161.981C47.3659 161.643 47.1836 161.226 47.1836 160.731C47.1836 160.172 47.4066 159.709 47.8525 159.345C48.3018 158.977 48.8844 158.793 49.6006 158.793C50.0889 158.793 50.5234 158.887 50.9043 159.076C51.2884 159.265 51.5846 159.525 51.793 159.857C52.0046 160.189 52.1104 160.552 52.1104 160.946H51.168C51.168 160.517 51.0312 160.18 50.7578 159.936C50.4844 159.688 50.0986 159.564 49.6006 159.564C49.1383 159.564 48.777 159.667 48.5166 159.872C48.2594 160.074 48.1309 160.355 48.1309 160.717C48.1309 161.007 48.2529 161.252 48.4971 161.454C48.7445 161.653 49.1628 161.835 49.752 162.001C50.3444 162.167 50.8066 162.351 51.1387 162.553C51.474 162.751 51.7214 162.984 51.8809 163.251C52.0436 163.518 52.125 163.832 52.125 164.193C52.125 164.77 51.9004 165.232 51.4512 165.58C51.002 165.925 50.4014 166.098 49.6494 166.098C49.1611 166.098 48.7054 166.005 48.2822 165.819C47.859 165.631 47.5319 165.373 47.3008 165.048C47.0729 164.722 46.959 164.353 46.959 163.939H47.9014C47.9014 164.369 48.0592 164.709 48.375 164.96C48.694 165.207 49.1188 165.331 49.6494 165.331C50.1442 165.331 50.5234 165.23 50.7871 165.028C51.0508 164.826 51.1826 164.551 51.1826 164.203C51.1826 163.855 51.0605 163.586 50.8164 163.397C50.5723 163.205 50.1296 163.017 49.4883 162.831ZM56.4512 166C56.3991 165.896 56.3568 165.71 56.3242 165.443C55.9043 165.88 55.403 166.098 54.8203 166.098C54.2995 166.098 53.8714 165.951 53.5361 165.658C53.2041 165.362 53.0381 164.988 53.0381 164.535C53.0381 163.985 53.2464 163.559 53.6631 163.256C54.083 162.95 54.6722 162.797 55.4307 162.797H56.3096V162.382C56.3096 162.066 56.2152 161.815 56.0264 161.63C55.8376 161.441 55.5592 161.347 55.1914 161.347C54.8691 161.347 54.599 161.428 54.3809 161.591C54.1628 161.754 54.0537 161.951 54.0537 162.182H53.1455C53.1455 161.918 53.2383 161.664 53.4238 161.42C53.6126 161.173 53.8665 160.977 54.1855 160.834C54.5078 160.691 54.861 160.619 55.2451 160.619C55.8538 160.619 56.3307 160.772 56.6758 161.078C57.0208 161.381 57.1999 161.799 57.2129 162.333V164.765C57.2129 165.25 57.2747 165.635 57.3984 165.922V166H56.4512ZM54.9521 165.312C55.2354 165.312 55.5039 165.238 55.7578 165.092C56.0117 164.945 56.1956 164.755 56.3096 164.521V163.437H55.6016C54.4948 163.437 53.9414 163.76 53.9414 164.408C53.9414 164.691 54.0358 164.913 54.2246 165.072C54.4134 165.232 54.6559 165.312 54.9521 165.312ZM60.2939 164.774L61.6025 160.717H62.5254L60.6309 166H59.9424L58.0283 160.717H58.9512L60.2939 164.774ZM64.376 166H63.4727V160.717H64.376V166ZM63.3994 159.315C63.3994 159.169 63.4434 159.045 63.5312 158.944C63.6224 158.843 63.7559 158.793 63.9316 158.793C64.1074 158.793 64.2409 158.843 64.332 158.944C64.4232 159.045 64.4688 159.169 64.4688 159.315C64.4688 159.462 64.4232 159.584 64.332 159.682C64.2409 159.779 64.1074 159.828 63.9316 159.828C63.7559 159.828 63.6224 159.779 63.5312 159.682C63.4434 159.584 63.3994 159.462 63.3994 159.315ZM66.6807 160.717L66.71 161.381C67.1136 160.873 67.641 160.619 68.292 160.619C69.4085 160.619 69.9717 161.249 69.9814 162.509V166H69.0781V162.504C69.0749 162.123 68.987 161.841 68.8145 161.659C68.6452 161.477 68.3799 161.386 68.0186 161.386C67.7256 161.386 67.4684 161.464 67.2471 161.62C67.0257 161.776 66.8532 161.981 66.7295 162.235V166H65.8262V160.717H66.6807ZM71.1289 163.314C71.1289 162.491 71.3193 161.837 71.7002 161.352C72.0811 160.863 72.5856 160.619 73.2139 160.619C73.8584 160.619 74.3613 160.847 74.7227 161.303L74.7666 160.717H75.5918V165.873C75.5918 166.557 75.3883 167.095 74.9814 167.489C74.5778 167.883 74.0342 168.08 73.3506 168.08C72.9697 168.08 72.597 167.999 72.2324 167.836C71.8678 167.673 71.5895 167.45 71.3975 167.167L71.8662 166.625C72.2536 167.104 72.7272 167.343 73.2871 167.343C73.7266 167.343 74.0684 167.219 74.3125 166.972C74.5599 166.724 74.6836 166.376 74.6836 165.927V165.473C74.3223 165.889 73.8291 166.098 73.2041 166.098C72.5856 166.098 72.0843 165.849 71.7002 165.351C71.3193 164.853 71.1289 164.174 71.1289 163.314ZM72.0371 163.417C72.0371 164.013 72.1592 164.481 72.4033 164.823C72.6475 165.162 72.9893 165.331 73.4287 165.331C73.9984 165.331 74.4167 165.072 74.6836 164.555V162.143C74.4069 161.638 73.9919 161.386 73.4385 161.386C72.999 161.386 72.6556 161.557 72.4082 161.898C72.1608 162.24 72.0371 162.746 72.0371 163.417ZM80.0352 164.599C80.0352 164.354 79.9424 164.166 79.7568 164.032C79.5745 163.896 79.2539 163.778 78.7949 163.681C78.3392 163.583 77.9762 163.466 77.7061 163.329C77.4391 163.192 77.2406 163.03 77.1104 162.841C76.9834 162.652 76.9199 162.427 76.9199 162.167C76.9199 161.734 77.1022 161.368 77.4668 161.068C77.8346 160.769 78.3034 160.619 78.873 160.619C79.472 160.619 79.957 160.774 80.3281 161.083C80.7025 161.392 80.8896 161.788 80.8896 162.27H79.9814C79.9814 162.022 79.8757 161.809 79.6641 161.63C79.4557 161.451 79.1921 161.361 78.873 161.361C78.5443 161.361 78.2871 161.433 78.1016 161.576C77.916 161.719 77.8232 161.907 77.8232 162.138C77.8232 162.356 77.9095 162.52 78.082 162.631C78.2546 162.742 78.5654 162.847 79.0146 162.948C79.4671 163.049 79.8333 163.17 80.1133 163.31C80.3932 163.45 80.5999 163.619 80.7334 163.817C80.8701 164.013 80.9385 164.252 80.9385 164.535C80.9385 165.007 80.7497 165.386 80.3721 165.673C79.9945 165.956 79.5046 166.098 78.9023 166.098C78.4792 166.098 78.1048 166.023 77.7793 165.873C77.4538 165.723 77.1982 165.515 77.0127 165.248C76.8304 164.978 76.7393 164.687 76.7393 164.374H77.6426C77.6589 164.677 77.7793 164.918 78.0039 165.097C78.2318 165.272 78.5312 165.36 78.9023 165.36C79.2441 165.36 79.5176 165.292 79.7227 165.155C79.931 165.015 80.0352 164.83 80.0352 164.599ZM50.25 177.145H47.2715L46.6025 179H45.6357L48.3506 171.891H49.1709L51.8906 179H50.9287L50.25 177.145ZM47.5547 176.373H49.9717L48.7607 173.048L47.5547 176.373ZM54.8252 178.36C55.1475 178.36 55.429 178.263 55.6699 178.067C55.9108 177.872 56.0443 177.628 56.0703 177.335H56.9248C56.9085 177.638 56.8044 177.926 56.6123 178.199C56.4202 178.473 56.1631 178.691 55.8408 178.854C55.5218 179.016 55.1833 179.098 54.8252 179.098C54.1058 179.098 53.5329 178.858 53.1064 178.38C52.6833 177.898 52.4717 177.241 52.4717 176.407V176.256C52.4717 175.742 52.5661 175.284 52.7549 174.884C52.9437 174.483 53.2139 174.173 53.5654 173.951C53.9202 173.73 54.3385 173.619 54.8203 173.619C55.4128 173.619 55.9043 173.797 56.2949 174.151C56.6888 174.506 56.8988 174.967 56.9248 175.533H56.0703C56.0443 175.191 55.9141 174.911 55.6797 174.693C55.4486 174.472 55.1621 174.361 54.8203 174.361C54.3613 174.361 54.0049 174.527 53.751 174.859C53.5003 175.188 53.375 175.665 53.375 176.29V176.461C53.375 177.07 53.5003 177.538 53.751 177.867C54.0016 178.196 54.3597 178.36 54.8252 178.36ZM60.0596 178.36C60.3818 178.36 60.6634 178.263 60.9043 178.067C61.1452 177.872 61.2786 177.628 61.3047 177.335H62.1592C62.1429 177.638 62.0387 177.926 61.8467 178.199C61.6546 178.473 61.3975 178.691 61.0752 178.854C60.7562 179.016 60.4176 179.098 60.0596 179.098C59.3402 179.098 58.7673 178.858 58.3408 178.38C57.9176 177.898 57.7061 177.241 57.7061 176.407V176.256C57.7061 175.742 57.8005 175.284 57.9893 174.884C58.1781 174.483 58.4482 174.173 58.7998 173.951C59.1546 173.73 59.5729 173.619 60.0547 173.619C60.6471 173.619 61.1387 173.797 61.5293 174.151C61.9232 174.506 62.1331 174.967 62.1592 175.533H61.3047C61.2786 175.191 61.1484 174.911 60.9141 174.693C60.6829 174.472 60.3965 174.361 60.0547 174.361C59.5957 174.361 59.2393 174.527 58.9854 174.859C58.7347 175.188 58.6094 175.665 58.6094 176.29V176.461C58.6094 177.07 58.7347 177.538 58.9854 177.867C59.236 178.196 59.5941 178.36 60.0596 178.36ZM62.9355 176.31C62.9355 175.792 63.0365 175.326 63.2383 174.913C63.4434 174.5 63.7266 174.181 64.0879 173.956C64.4525 173.731 64.8675 173.619 65.333 173.619C66.0524 173.619 66.6335 173.868 67.0762 174.366C67.5221 174.864 67.7451 175.527 67.7451 176.354V176.417C67.7451 176.931 67.6458 177.394 67.4473 177.804C67.252 178.211 66.9704 178.528 66.6025 178.756C66.238 178.984 65.818 179.098 65.3428 179.098C64.6266 179.098 64.0456 178.849 63.5996 178.351C63.1569 177.853 62.9355 177.193 62.9355 176.373V176.31ZM63.8438 176.417C63.8438 177.003 63.9788 177.473 64.249 177.828C64.5225 178.183 64.887 178.36 65.3428 178.36C65.8018 178.36 66.1663 178.181 66.4365 177.823C66.7067 177.462 66.8418 176.957 66.8418 176.31C66.8418 175.73 66.7035 175.261 66.4268 174.903C66.1533 174.542 65.7887 174.361 65.333 174.361C64.887 174.361 64.5273 174.539 64.2539 174.894C63.9805 175.248 63.8438 175.756 63.8438 176.417ZM72.1396 178.478C71.7881 178.891 71.2721 179.098 70.5918 179.098C70.0286 179.098 69.599 178.935 69.3027 178.609C69.0098 178.281 68.8617 177.796 68.8584 177.154V173.717H69.7617V177.13C69.7617 177.931 70.0872 178.331 70.7383 178.331C71.4284 178.331 71.8874 178.074 72.1152 177.56V173.717H73.0186V179H72.1592L72.1396 178.478ZM75.25 173.717L75.2793 174.381C75.6829 173.873 76.2103 173.619 76.8613 173.619C77.9779 173.619 78.541 174.249 78.5508 175.509V179H77.6475V175.504C77.6442 175.123 77.5563 174.841 77.3838 174.659C77.2145 174.477 76.9492 174.386 76.5879 174.386C76.2949 174.386 76.0378 174.464 75.8164 174.62C75.5951 174.776 75.4225 174.981 75.2988 175.235V179H74.3955V173.717H75.25ZM81.1387 172.438V173.717H82.125V174.415H81.1387V177.691C81.1387 177.903 81.1826 178.062 81.2705 178.17C81.3584 178.274 81.5081 178.326 81.7197 178.326C81.8239 178.326 81.9671 178.307 82.1494 178.268V179C81.9118 179.065 81.6807 179.098 81.4561 179.098C81.0524 179.098 80.748 178.976 80.543 178.731C80.3379 178.487 80.2354 178.141 80.2354 177.691V174.415H79.2734V173.717H80.2354V172.438H81.1387Z" fill="black"/>
<path d="M24 151.5H286" stroke="black"/>
<rect x="40" y="43" width="47" height="108" fill="#FDAF40"/>
<rect x="127" y="29" width="46" height="122" fill="#84BDF3"/>
<rect x="213" y="12" width="47" height="139" fill="#5DC644"/>
<path d="M53.6611 32.3984L50.7168 39H49.7695L52.7041 32.6328H48.8564V31.8906H53.6611V32.3984ZM59.1445 35.9678C59.1445 37.0257 58.9639 37.8118 58.6025 38.3262C58.2412 38.8405 57.6764 39.0977 56.9082 39.0977C56.1497 39.0977 55.5882 38.847 55.2236 38.3457C54.859 37.8411 54.6702 37.0892 54.6572 36.0898V34.8838C54.6572 33.8389 54.8379 33.0625 55.1992 32.5547C55.5605 32.0469 56.127 31.793 56.8984 31.793C57.6634 31.793 58.2266 32.0387 58.5879 32.5303C58.9492 33.0186 59.1348 33.7738 59.1445 34.7959V35.9678ZM58.2412 34.7324C58.2412 33.9674 58.1338 33.4108 57.9189 33.0625C57.7041 32.7109 57.3639 32.5352 56.8984 32.5352C56.4362 32.5352 56.0993 32.7093 55.8877 33.0576C55.6761 33.4059 55.5671 33.9414 55.5605 34.6641V36.1094C55.5605 36.8776 55.6712 37.4456 55.8926 37.8135C56.1172 38.1781 56.4557 38.3604 56.9082 38.3604C57.3542 38.3604 57.6846 38.1878 57.8994 37.8428C58.1175 37.4977 58.2314 36.9541 58.2412 36.2119V34.7324ZM60.3652 40.416L59.8525 40.0645C60.1585 39.638 60.318 39.1986 60.3311 38.7461V37.9307H61.2148V38.6387C61.2148 38.9674 61.1335 39.2962 60.9707 39.625C60.8112 39.9538 60.6094 40.2174 60.3652 40.416ZM63.5781 35.0059H64.2568C64.6833 34.9993 65.0186 34.887 65.2627 34.6689C65.5068 34.4508 65.6289 34.1562 65.6289 33.7852C65.6289 32.9518 65.2139 32.5352 64.3838 32.5352C63.9932 32.5352 63.6807 32.6475 63.4463 32.8721C63.2152 33.0934 63.0996 33.388 63.0996 33.7559H62.1963C62.1963 33.1927 62.4014 32.7256 62.8115 32.3545C63.2249 31.9801 63.749 31.793 64.3838 31.793C65.0544 31.793 65.5801 31.9704 65.9609 32.3252C66.3418 32.68 66.5322 33.1732 66.5322 33.8047C66.5322 34.1139 66.4313 34.4134 66.2295 34.7031C66.0309 34.9928 65.7591 35.2093 65.4141 35.3525C65.8047 35.4762 66.1058 35.6813 66.3174 35.9678C66.5322 36.2542 66.6396 36.6042 66.6396 37.0176C66.6396 37.6556 66.4313 38.1618 66.0146 38.5361C65.598 38.9105 65.056 39.0977 64.3887 39.0977C63.7214 39.0977 63.1777 38.917 62.7578 38.5557C62.3411 38.1943 62.1328 37.7174 62.1328 37.125H63.041C63.041 37.4993 63.1631 37.7988 63.4072 38.0234C63.6514 38.248 63.9785 38.3604 64.3887 38.3604C64.8249 38.3604 65.1585 38.2464 65.3896 38.0186C65.6208 37.7907 65.7363 37.4635 65.7363 37.0371C65.7363 36.6237 65.6094 36.3063 65.3555 36.085C65.1016 35.8636 64.7354 35.7497 64.2568 35.7432H63.5781V35.0059ZM68.2949 35.4355L68.6562 31.8906H72.2988V32.7256H69.4229L69.208 34.6641C69.5563 34.459 69.9518 34.3564 70.3945 34.3564C71.0423 34.3564 71.5566 34.5713 71.9375 35.001C72.3184 35.4274 72.5088 36.0052 72.5088 36.7344C72.5088 37.4668 72.3102 38.0446 71.9131 38.4678C71.5192 38.8877 70.9674 39.0977 70.2578 39.0977C69.6296 39.0977 69.1169 38.9235 68.7197 38.5752C68.3226 38.2269 68.0964 37.7451 68.041 37.1299H68.8955C68.9508 37.5368 69.0957 37.8444 69.3301 38.0527C69.5645 38.2578 69.8737 38.3604 70.2578 38.3604C70.6777 38.3604 71.0065 38.2171 71.2441 37.9307C71.485 37.6442 71.6055 37.2487 71.6055 36.7441C71.6055 36.2689 71.4753 35.888 71.2148 35.6016C70.9577 35.3118 70.6143 35.167 70.1846 35.167C69.7907 35.167 69.4814 35.2533 69.2568 35.4258L69.0176 35.6211L68.2949 35.4355ZM74.8086 35.0059H75.4873C75.9137 34.9993 76.249 34.887 76.4932 34.6689C76.7373 34.4508 76.8594 34.1562 76.8594 33.7852C76.8594 32.9518 76.4443 32.5352 75.6143 32.5352C75.2236 32.5352 74.9111 32.6475 74.6768 32.8721C74.4456 33.0934 74.3301 33.388 74.3301 33.7559H73.4268C73.4268 33.1927 73.6318 32.7256 74.042 32.3545C74.4554 31.9801 74.9795 31.793 75.6143 31.793C76.2848 31.793 76.8105 31.9704 77.1914 32.3252C77.5723 32.68 77.7627 33.1732 77.7627 33.8047C77.7627 34.1139 77.6618 34.4134 77.46 34.7031C77.2614 34.9928 76.9896 35.2093 76.6445 35.3525C77.0352 35.4762 77.3363 35.6813 77.5479 35.9678C77.7627 36.2542 77.8701 36.6042 77.8701 37.0176C77.8701 37.6556 77.6618 38.1618 77.2451 38.5361C76.8285 38.9105 76.2865 39.0977 75.6191 39.0977C74.9518 39.0977 74.4082 38.917 73.9883 38.5557C73.5716 38.1943 73.3633 37.7174 73.3633 37.125H74.2715C74.2715 37.4993 74.3936 37.7988 74.6377 38.0234C74.8818 38.248 75.209 38.3604 75.6191 38.3604C76.0553 38.3604 76.389 38.2464 76.6201 38.0186C76.8512 37.7907 76.9668 37.4635 76.9668 37.0371C76.9668 36.6237 76.8398 36.3063 76.5859 36.085C76.332 35.8636 75.9658 35.7497 75.4873 35.7432H74.8086V35.0059Z" fill="black"/>
<path d="M139.661 18.3984L136.717 25H135.77L138.704 18.6328H134.856V17.8906H139.661V18.3984ZM141.102 21.4355L141.463 17.8906H145.105V18.7256H142.229L142.015 20.6641C142.363 20.459 142.758 20.3564 143.201 20.3564C143.849 20.3564 144.363 20.5713 144.744 21.001C145.125 21.4274 145.315 22.0052 145.315 22.7344C145.315 23.4668 145.117 24.0446 144.72 24.4678C144.326 24.8877 143.774 25.0977 143.064 25.0977C142.436 25.0977 141.924 24.9235 141.526 24.5752C141.129 24.2269 140.903 23.7451 140.848 23.1299H141.702C141.757 23.5368 141.902 23.8444 142.137 24.0527C142.371 24.2578 142.68 24.3604 143.064 24.3604C143.484 24.3604 143.813 24.2171 144.051 23.9307C144.292 23.6442 144.412 23.2487 144.412 22.7441C144.412 22.2689 144.282 21.888 144.021 21.6016C143.764 21.3118 143.421 21.167 142.991 21.167C142.597 21.167 142.288 21.2533 142.063 21.4258L141.824 21.6211L141.102 21.4355ZM146.365 26.416L145.853 26.0645C146.159 25.638 146.318 25.1986 146.331 24.7461V23.9307H147.215V24.6387C147.215 24.9674 147.133 25.2962 146.971 25.625C146.811 25.9538 146.609 26.2174 146.365 26.416ZM152.923 25H148.265V24.3506L150.726 21.6162C151.09 21.2028 151.341 20.8675 151.478 20.6104C151.618 20.3499 151.688 20.0814 151.688 19.8047C151.688 19.4336 151.575 19.1292 151.351 18.8916C151.126 18.654 150.826 18.5352 150.452 18.5352C150.003 18.5352 149.653 18.6637 149.402 18.9209C149.155 19.1748 149.031 19.5296 149.031 19.9854H148.128C148.128 19.3311 148.338 18.8021 148.758 18.3984C149.181 17.9948 149.746 17.793 150.452 17.793C151.113 17.793 151.635 17.9671 152.02 18.3154C152.404 18.6605 152.596 19.1211 152.596 19.6973C152.596 20.3971 152.15 21.2305 151.258 22.1973L149.354 24.2627H152.923V25ZM157.693 22.6123H158.68V23.3496H157.693V25H156.785V23.3496H153.548V22.8174L156.731 17.8906H157.693V22.6123ZM154.573 22.6123H156.785V19.126L156.678 19.3213L154.573 22.6123ZM164.085 18.3984L161.141 25H160.193L163.128 18.6328H159.28V17.8906H164.085V18.3984Z" fill="black"/>
<path d="M225.383 2.74609C225.383 3.10091 225.288 3.41667 225.1 3.69336C224.914 3.97005 224.662 4.18652 224.343 4.34277C224.714 4.50228 225.007 4.73503 225.222 5.04102C225.44 5.34701 225.549 5.69368 225.549 6.08105C225.549 6.69629 225.34 7.1862 224.924 7.55078C224.51 7.91536 223.965 8.09766 223.288 8.09766C222.604 8.09766 222.056 7.91536 221.643 7.55078C221.232 7.18294 221.027 6.69303 221.027 6.08105C221.027 5.69694 221.132 5.35026 221.34 5.04102C221.551 4.73177 221.843 4.4974 222.214 4.33789C221.898 4.18164 221.649 3.96517 221.467 3.68848C221.285 3.41178 221.193 3.09766 221.193 2.74609C221.193 2.14714 221.385 1.67188 221.77 1.32031C222.154 0.96875 222.66 0.792969 223.288 0.792969C223.913 0.792969 224.418 0.96875 224.802 1.32031C225.189 1.67188 225.383 2.14714 225.383 2.74609ZM224.646 6.06152C224.646 5.66439 224.519 5.34049 224.265 5.08984C224.014 4.83919 223.685 4.71387 223.278 4.71387C222.871 4.71387 222.544 4.83757 222.297 5.08496C222.053 5.33236 221.931 5.65788 221.931 6.06152C221.931 6.46517 222.049 6.78255 222.287 7.01367C222.528 7.24479 222.862 7.36035 223.288 7.36035C223.711 7.36035 224.043 7.24479 224.284 7.01367C224.525 6.7793 224.646 6.46191 224.646 6.06152ZM223.288 1.53516C222.933 1.53516 222.645 1.64583 222.424 1.86719C222.206 2.08529 222.097 2.38314 222.097 2.76074C222.097 3.12207 222.204 3.41504 222.419 3.63965C222.637 3.861 222.927 3.97168 223.288 3.97168C223.649 3.97168 223.938 3.861 224.152 3.63965C224.37 3.41504 224.479 3.12207 224.479 2.76074C224.479 2.39941 224.367 2.10482 224.143 1.87695C223.918 1.64909 223.633 1.53516 223.288 1.53516ZM231.145 4.96777C231.145 6.02572 230.964 6.81185 230.603 7.32617C230.241 7.84049 229.676 8.09766 228.908 8.09766C228.15 8.09766 227.588 7.84701 227.224 7.3457C226.859 6.84115 226.67 6.08919 226.657 5.08984V3.88379C226.657 2.83887 226.838 2.0625 227.199 1.55469C227.561 1.04688 228.127 0.792969 228.898 0.792969C229.663 0.792969 230.227 1.03874 230.588 1.53027C230.949 2.01855 231.135 2.77376 231.145 3.7959V4.96777ZM230.241 3.73242C230.241 2.96745 230.134 2.41081 229.919 2.0625C229.704 1.71094 229.364 1.53516 228.898 1.53516C228.436 1.53516 228.099 1.70931 227.888 2.05762C227.676 2.40592 227.567 2.94141 227.561 3.66406V5.10938C227.561 5.8776 227.671 6.44564 227.893 6.81348C228.117 7.17806 228.456 7.36035 228.908 7.36035C229.354 7.36035 229.685 7.18783 229.899 6.84277C230.118 6.49772 230.231 5.9541 230.241 5.21191V3.73242ZM232.365 9.41602L231.853 9.06445C232.159 8.63802 232.318 8.19857 232.331 7.74609V6.93066H233.215V7.63867C233.215 7.96745 233.133 8.29622 232.971 8.625C232.811 8.95378 232.609 9.21745 232.365 9.41602ZM237.727 4.875C237.538 5.09961 237.312 5.28027 237.048 5.41699C236.787 5.55371 236.501 5.62207 236.188 5.62207C235.778 5.62207 235.42 5.52116 235.114 5.31934C234.812 5.11751 234.577 4.83431 234.411 4.46973C234.245 4.10189 234.162 3.69661 234.162 3.25391C234.162 2.77865 234.252 2.35059 234.431 1.96973C234.613 1.58887 234.87 1.29753 235.202 1.0957C235.534 0.89388 235.922 0.792969 236.364 0.792969C237.067 0.792969 237.621 1.05664 238.024 1.58398C238.431 2.10807 238.635 2.82422 238.635 3.73242V3.99609C238.635 5.37956 238.361 6.3903 237.814 7.02832C237.268 7.66309 236.442 7.98861 235.339 8.00488H235.163V7.24316H235.354C236.099 7.23014 236.672 7.03646 237.072 6.66211C237.473 6.28451 237.691 5.6888 237.727 4.875ZM236.335 4.875C236.638 4.875 236.916 4.78223 237.17 4.59668C237.427 4.41113 237.614 4.18164 237.731 3.9082V3.54688C237.731 2.95443 237.603 2.47266 237.346 2.10156C237.089 1.73047 236.763 1.54492 236.369 1.54492C235.972 1.54492 235.653 1.69792 235.412 2.00391C235.171 2.30664 235.051 2.70703 235.051 3.20508C235.051 3.6901 235.166 4.09049 235.397 4.40625C235.632 4.71875 235.944 4.875 236.335 4.875ZM244.338 4.96777C244.338 6.02572 244.157 6.81185 243.796 7.32617C243.435 7.84049 242.87 8.09766 242.102 8.09766C241.343 8.09766 240.782 7.84701 240.417 7.3457C240.052 6.84115 239.864 6.08919 239.851 5.08984V3.88379C239.851 2.83887 240.031 2.0625 240.393 1.55469C240.754 1.04688 241.32 0.792969 242.092 0.792969C242.857 0.792969 243.42 1.03874 243.781 1.53027C244.143 2.01855 244.328 2.77376 244.338 3.7959V4.96777ZM243.435 3.73242C243.435 2.96745 243.327 2.41081 243.112 2.0625C242.897 1.71094 242.557 1.53516 242.092 1.53516C241.63 1.53516 241.293 1.70931 241.081 2.05762C240.869 2.40592 240.76 2.94141 240.754 3.66406V5.10938C240.754 5.8776 240.865 6.44564 241.086 6.81348C241.311 7.17806 241.649 7.36035 242.102 7.36035C242.548 7.36035 242.878 7.18783 243.093 6.84277C243.311 6.49772 243.425 5.9541 243.435 5.21191V3.73242ZM248.464 8H247.556V1.97949L245.734 2.64844V1.82812L248.322 0.856445H248.464V8Z" fill="black"/>
</g>
<defs>
<clipPath id="clip0">
<rect width="300" height="182" fill="white"/>
</clipPath>
</defs>
</svg>