<svg width="20" height="20" viewBox="0 0 20 20" fill="none" xmlns="http://www.w3.org/2000/svg">
<path d="M10 0C4.48609 0 0 4.48609 0 10C0 15.5139 4.48609 20 10 20C15.5139 20 20 15.5139 20 10C20 4.48609 15.5139 0 10 0ZM10 19.1304C4.96522 19.1304 0.869565 15.0348 0.869565 10C0.869565 4.96522 4.96522 0.869565 10 0.869565C15.0348 0.869565 19.1304 4.96522 19.1304 10C19.1304 15.0348 15.0348 19.1304 10 19.1304Z" fill="#02B875"/>
<path d="M7.82598 8.2604C7.82598 7.54127 7.24076 6.95605 6.52163 6.95605C5.8025 6.95605 5.21729 7.54127 5.21729 8.2604C5.21729 8.97953 5.8025 9.56475 6.52163 9.56475C7.24076 9.56475 7.82598 8.97953 7.82598 8.2604ZM6.08685 8.2604C6.08685 8.02084 6.28207 7.82562 6.52163 7.82562C6.7612 7.82562 6.95642 8.02084 6.95642 8.2604C6.95642 8.49997 6.7612 8.69519 6.52163 8.69519C6.28207 8.69519 6.08685 8.49997 6.08685 8.2604Z" fill="#02B875"/>
<path d="M13.4782 6.95605C12.759 6.95605 12.1738 7.54127 12.1738 8.2604C12.1738 8.97953 12.759 9.56475 13.4782 9.56475C14.1973 9.56475 14.7825 8.97953 14.7825 8.2604C14.7825 7.54127 14.1973 6.95605 13.4782 6.95605ZM13.4782 8.69519C13.2386 8.69519 13.0434 8.49997 13.0434 8.2604C13.0434 8.02084 13.2386 7.82562 13.4782 7.82562C13.7177 7.82562 13.9129 8.02084 13.9129 8.2604C13.9129 8.49997 13.7177 8.69519 13.4782 8.69519Z" fill="#02B875"/>
<path d="M14.203 12.2847C14.0239 12.1243 13.7486 12.1399 13.5891 12.3186C12.6821 13.3321 11.3743 13.913 9.99994 13.913C8.62602 13.913 7.31776 13.3321 6.4108 12.3186C6.25036 12.1399 5.97602 12.1243 5.79689 12.2847C5.61775 12.4447 5.60297 12.7195 5.76297 12.8986C6.83471 14.096 8.37906 14.7826 9.99994 14.7826C11.6212 14.7826 13.1656 14.0956 14.2369 12.8986C14.3969 12.7195 14.3817 12.4447 14.203 12.2847Z" fill="#02B875"/>
</svg>
