<svg width="240" height="240" viewBox="0 0 240 240" fill="none" xmlns="http://www.w3.org/2000/svg">
<path d="M217.5 37.4999C217.688 37.4999 122.438 0.937391 120 0C118.126 0.749817 22.3127 37.4999 22.5003 37.4999V106.5C22.5003 154.312 36.1879 216.75 120 240C203.625 216.75 217.313 153.187 217.313 106.5C217.5 82.875 217.5 37.4999 217.5 37.4999Z" fill="#D9DEE1"/>
<path d="M22.4995 106.5C22.4995 154.313 36.1871 216.75 120 240V0C116.437 1.31254 22.4995 37.4999 22.4995 37.4999C22.4995 37.4999 22.5 106.5 22.4995 106.5Z" fill="#BCC6CA"/>
<path d="M198.561 50.4375C198.749 50.4375 121.874 19.4998 119.811 18.75C118.124 19.3127 40.874 49.125 41.0616 48.9374V106.875C41.0616 147 48.9368 201.75 119.811 221.25C190.499 201.75 198.561 146.062 198.561 106.875C198.749 87 198.749 50.4375 198.561 50.4375Z" fill="#008FFF"/>
<path d="M119.999 18.75C118.312 19.3127 41.0618 49.125 41.2494 48.9374V106.875C41.2494 147 49.1246 201.75 119.999 221.25V18.75Z" fill="#008FFF"/>
<path d="M164.868 155.952H164.058V137.919C164.058 137.632 163.98 137.35 163.831 137.104C163.683 136.859 163.47 136.658 163.216 136.524L147.184 128.105V125.85C148.633 126.443 150.252 126.461 151.714 125.902C153.175 125.342 154.369 124.247 155.051 122.839C155.734 121.431 155.854 119.816 155.388 118.322C154.922 116.828 153.904 115.568 152.542 114.798L133.99 104.297C134.569 102.853 135.05 101.372 135.43 99.8643C136.388 95.9793 136.826 91.9846 136.734 87.9843C136.727 87.6553 136.618 87.3367 136.42 87.0732C136.223 86.8098 135.948 86.6148 135.635 86.5155C128.506 84.2601 123.163 82.1055 120.613 81.0255C120.418 80.9431 120.209 80.9006 119.997 80.9006C119.786 80.9006 119.576 80.9431 119.381 81.0255C116.831 82.1055 111.488 84.2655 104.36 86.5155C104.046 86.6148 103.772 86.8096 103.574 87.0726C103.377 87.3357 103.267 87.6538 103.26 87.9825C103.168 91.9828 103.606 95.9776 104.564 99.8625C104.944 101.371 105.425 102.852 106.004 104.296L87.4576 114.802C86.276 115.473 85.3498 116.517 84.8233 117.77C84.2968 119.023 84.1995 120.415 84.5468 121.729C84.894 123.043 85.6661 124.205 86.7428 125.035C87.8196 125.864 89.1404 126.314 90.4996 126.314C91.2941 126.314 92.0808 126.158 92.8153 125.855V128.15L76.8691 136.52C76.6148 136.654 76.402 136.855 76.2535 137.101C76.1051 137.346 76.0266 137.628 76.0267 137.915V155.949H75.1312C74.7134 155.949 74.3128 156.115 74.0175 156.41C73.7221 156.705 73.5562 157.106 73.5562 157.524C73.5562 157.941 73.7221 158.342 74.0175 158.637C74.3128 158.933 74.7134 159.099 75.1312 159.099H164.868C165.286 159.099 165.687 158.933 165.982 158.637C166.277 158.342 166.443 157.941 166.443 157.524C166.443 157.106 166.277 156.705 165.982 156.41C165.687 156.115 165.286 155.949 164.868 155.949V155.952ZM160.908 138.871V155.952H147.184V131.664L160.908 138.871ZM130.212 155.952H109.787V135.529H130.212V155.952ZM131.79 132.379H108.21C107.792 132.379 107.391 132.545 107.096 132.84C106.801 133.135 106.635 133.536 106.635 133.954V155.952H95.9698V124.128L113.213 114.362C115.087 115.868 117.187 117.069 119.435 117.921C119.799 118.061 120.201 118.061 120.564 117.921C122.813 117.069 124.913 115.868 126.787 114.362L144.034 124.128V155.952H133.362V133.95C133.361 133.533 133.195 133.134 132.9 132.84C132.606 132.545 132.206 132.379 131.79 132.379V132.379ZM150.989 117.542C151.333 117.737 151.634 117.997 151.877 118.308C152.12 118.619 152.299 118.974 152.405 119.354C152.51 119.735 152.539 120.132 152.491 120.524C152.443 120.915 152.318 121.293 152.124 121.637C151.93 121.98 151.669 122.282 151.358 122.525C151.048 122.767 150.692 122.947 150.312 123.052C149.931 123.157 149.534 123.187 149.143 123.139C148.751 123.09 148.373 122.966 148.029 122.771L129.186 112.101C130.544 110.605 131.71 108.946 132.656 107.161L150.989 117.542ZM120 84.18C122.639 85.2834 127.404 87.168 133.595 89.166C133.583 92.5096 133.175 95.8399 132.38 99.0876C130.4 106.888 126.234 112.156 120 114.754C113.765 112.156 109.602 106.888 107.619 99.0867C106.824 95.8394 106.417 92.5093 106.404 89.166C112.595 87.1689 117.361 85.2843 120 84.18V84.18ZM89.6887 123.053C89.116 122.894 88.6032 122.569 88.2152 122.119C87.8271 121.669 87.5812 121.114 87.5086 120.524C87.436 119.934 87.5399 119.336 87.8071 118.805C88.0744 118.275 88.493 117.835 89.0101 117.542L107.344 107.161C108.29 108.946 109.455 110.605 110.813 112.101L91.9693 122.771C91.6267 122.967 91.2487 123.092 90.8572 123.141C90.4657 123.189 90.0685 123.159 89.6887 123.053V123.053ZM79.1767 138.871L92.8198 131.709V155.952H79.1767V138.871Z" fill="white"/>
<path d="M116.987 103.241C117.133 103.391 117.308 103.51 117.501 103.592C117.695 103.673 117.902 103.715 118.112 103.715C118.321 103.715 118.529 103.674 118.722 103.592C118.915 103.511 119.09 103.393 119.237 103.243L126.76 95.5605C126.908 95.4135 127.026 95.2385 127.105 95.0457C127.185 94.8529 127.226 94.6462 127.225 94.4375C127.225 94.2288 127.183 94.0223 127.101 93.8301C127.02 93.6378 126.902 93.4636 126.753 93.3176C126.604 93.1715 126.427 93.0566 126.233 92.9794C126.039 92.9022 125.832 92.8643 125.623 92.8679C125.415 92.8715 125.209 92.9166 125.018 93.0004C124.826 93.0843 124.654 93.2053 124.51 93.3564L118.115 99.8877L115.489 97.1994C115.193 96.9213 114.801 96.7683 114.395 96.7724C113.989 96.7765 113.6 96.9373 113.31 97.2213C113.019 97.5053 112.85 97.8905 112.837 98.2964C112.824 98.7024 112.968 99.0977 113.239 99.3999L116.987 103.241Z" fill="white"/>
</svg>
