<svg width="60" height="60" viewBox="0 0 60 60" fill="none" xmlns="http://www.w3.org/2000/svg">
<path d="M54.3751 9.37498C54.422 9.37498 30.6095 0.234348 30.0001 0C29.5314 0.187454 5.57824 9.37498 5.62513 9.37498V26.6249C5.62513 38.5781 9.04703 54.1875 30.0001 59.9999C50.9064 54.1874 54.3283 38.2967 54.3283 26.6249C54.3751 20.7188 54.3751 9.37498 54.3751 9.37498Z" fill="#D9DEE1"/>
<path d="M5.62482 26.6251C5.62482 38.5782 9.04672 54.1876 29.9998 60V0C29.1092 0.328134 5.62482 9.37497 5.62482 9.37497C5.62482 9.37497 5.62494 26.6251 5.62482 26.6251Z" fill="#BCC6CA"/>
<path d="M49.6404 12.6094C49.6873 12.6094 30.4685 4.87495 29.9529 4.6875C29.531 4.82818 10.2186 12.2812 10.2655 12.2343V26.7187C10.2655 36.7499 12.2343 50.4374 29.9529 55.3124C47.6248 50.4374 49.6404 36.5156 49.6404 26.7187C49.6873 21.75 49.6873 12.6094 49.6404 12.6094Z" fill="#008FFF"/>
<path d="M29.9998 4.6875C29.5779 4.82818 10.2654 12.2812 10.3123 12.2343V26.7187C10.3123 36.7499 12.2811 50.4374 29.9998 55.3124V4.6875Z" fill="#008FFF"/>
<g clip-path="url(#clip0)">
<g clip-path="url(#clip1)">
<path d="M41.8606 25.5343C41.5132 21.7105 38.8067 18.9362 35.4196 18.9362C33.1631 18.9362 31.0969 20.1506 29.9343 22.0968C28.7822 20.1254 26.8008 18.9358 24.5804 18.9358C21.1937 18.9358 18.4868 21.71 18.1398 25.5338C18.1123 25.7027 17.9997 26.5916 18.3421 28.0412C18.8355 30.132 19.9753 32.0339 21.6372 33.5398L29.9288 41.0642L38.3627 33.5402C40.0247 32.0339 41.1644 30.1325 41.6579 28.0412C42.0002 26.5921 41.8876 25.7032 41.8606 25.5343ZM40.7667 27.8316C40.3163 29.7412 39.2722 31.4809 37.7503 32.8596L29.9343 39.8329L22.2524 32.8614C20.7278 31.48 19.6842 29.7407 19.2333 27.8311C18.9092 26.4593 19.0424 25.6844 19.0429 25.6794L19.0498 25.6331C19.3473 22.2831 21.6729 19.8512 24.5804 19.8512C26.7257 19.8512 28.6142 21.1695 29.5105 23.291L29.932 24.2902L30.3536 23.291C31.2356 21.202 33.2239 19.8517 35.4201 19.8517C38.327 19.8517 40.6532 22.2835 40.9566 25.6771C40.9575 25.6844 41.0907 26.4598 40.7667 27.8316Z" fill="white"/>
</g>
</g>
<defs>
<clipPath id="clip0">
<rect x="15" y="15" width="30" height="30" fill="white"/>
</clipPath>
<clipPath id="clip1">
<rect x="18.1" y="18.1" width="23.8" height="23.8" fill="white"/>
</clipPath>
</defs>
</svg>
