<svg width="100" height="100" viewBox="0 0 100 100" fill="none" xmlns="http://www.w3.org/2000/svg">
<path d="M90.6251 15.625C90.7033 15.625 51.0158 0.390579 50.0001 0C49.219 0.312424 9.29696 15.625 9.37511 15.625V44.3749C9.37511 64.2968 15.0783 90.3125 50.0001 99.9998C84.8438 90.3123 90.547 63.8279 90.547 44.3749C90.6251 34.5313 90.6251 15.625 90.6251 15.625Z" fill="#D9DEE1"/>
<path d="M9.37476 44.3751C9.37476 64.297 15.0779 90.3127 49.9998 100V0C48.5154 0.54689 9.37476 15.625 9.37476 15.625C9.37476 15.625 9.37495 44.3751 9.37476 44.3751Z" fill="#BCC6CA"/>
<path d="M82.7339 21.0156C82.812 21.0156 50.7808 8.12492 49.9214 7.8125C49.2182 8.04697 17.0309 20.4687 17.109 20.3906V44.5311C17.109 61.2498 20.3904 84.0623 49.9214 92.1873C79.3746 84.0623 82.7339 60.8593 82.7339 44.5311C82.812 36.25 82.812 21.0156 82.7339 21.0156Z" fill="#008FFF"/>
<path d="M49.9996 7.8125C49.2964 8.04697 17.109 20.4687 17.1872 20.3906V44.5311C17.1872 61.2498 20.4685 84.0623 49.9996 92.1873V7.8125Z" fill="#008FFF"/>
<g clip-path="url(#clip0)">
<g clip-path="url(#clip1)">
<path d="M71.1798 42.0254C70.5594 35.1972 65.7264 30.2432 59.6779 30.2432C55.6484 30.2432 51.9588 32.4117 49.8828 35.8871C47.8255 32.3667 44.2871 30.2424 40.3222 30.2424C34.2746 30.2424 29.4407 35.1964 28.8212 42.0246C28.7721 42.3262 28.571 43.9135 29.1824 46.5021C30.0635 50.2358 32.0988 53.6319 35.0666 56.321L49.873 69.7575L64.9335 56.3218C67.9013 53.6319 69.9366 50.2366 70.8177 46.5021C71.429 43.9143 71.228 42.327 71.1798 42.0254ZM69.2263 46.1277C68.422 49.5377 66.5576 52.6445 63.8399 55.1064L49.8828 67.5588L36.1651 55.1096C33.4425 52.6429 31.5789 49.5369 30.7738 46.1269C30.1951 43.6773 30.433 42.2935 30.4338 42.2845L30.4461 42.202C30.9773 36.2197 35.1303 31.8771 40.3222 31.8771C44.1531 31.8771 47.5255 34.2311 49.1259 38.0196L49.8787 39.8039L50.6315 38.0196C52.2065 34.2892 55.7571 31.878 59.6788 31.878C64.8698 31.878 69.0236 36.2206 69.5655 42.2804C69.5671 42.2935 69.805 43.6781 69.2263 46.1277Z" fill="white"/>
</g>
</g>
<defs>
<clipPath id="clip0">
<rect x="23.2144" y="23.2142" width="53.5714" height="53.5714" fill="white"/>
</clipPath>
<clipPath id="clip1">
<rect x="28.7498" y="28.75" width="42.5" height="42.5" fill="white"/>
</clipPath>
</defs>
</svg>
