<svg width="240" height="240" viewBox="0 0 240 240" fill="none" xmlns="http://www.w3.org/2000/svg">
<path d="M217.5 37.4999C217.688 37.4999 122.438 0.93739 120 0C118.126 0.749817 22.3127 37.4999 22.5003 37.4999V106.5C22.5003 154.312 36.1879 216.75 120 240C203.625 216.75 217.313 153.187 217.313 106.5C217.5 82.875 217.5 37.4999 217.5 37.4999Z" fill="#D9DEE1"/>
<path d="M22.4995 106.5C22.4995 154.313 36.1871 216.75 120 240V0C116.437 1.31254 22.4995 37.4999 22.4995 37.4999C22.4995 37.4999 22.5 106.5 22.4995 106.5Z" fill="#BCC6CA"/>
<path d="M198.561 50.4375C198.749 50.4375 121.874 19.4998 119.811 18.75C118.124 19.3127 40.874 49.125 41.0616 48.9374V106.875C41.0616 147 48.9368 201.75 119.811 221.25C190.499 201.75 198.561 146.062 198.561 106.875C198.749 87 198.749 50.4375 198.561 50.4375Z" fill="#008FFF"/>
<path d="M119.999 18.75C118.311 19.3127 41.0618 49.125 41.2494 48.9374V106.875C41.2494 147 49.1246 201.75 119.999 221.25V18.75Z" fill="#008FFF"/>
<g clip-path="url(#clip0)">
<g clip-path="url(#clip1)">
<path d="M170.832 100.861C169.343 84.4736 157.743 72.584 143.227 72.584C133.556 72.584 124.701 77.7883 119.719 86.1292C114.781 77.6804 106.289 72.582 96.7733 72.582C82.2591 72.582 70.6579 84.4716 69.1709 100.859C69.0532 101.583 68.5707 105.393 70.038 111.605C72.1526 120.566 77.0372 128.717 84.1599 135.171L119.695 167.418L155.841 135.172C162.963 128.717 167.848 120.568 169.963 111.605C171.43 105.395 170.947 101.585 170.832 100.861ZM166.143 110.707C164.213 118.891 159.738 126.347 153.216 132.256L119.719 162.141L86.7964 132.263C80.2621 126.343 75.7895 118.889 73.8573 110.705C72.4685 104.826 73.0393 101.505 73.0413 101.483L73.0707 101.285C74.3458 86.9276 84.3129 76.5053 96.7733 76.5053C105.968 76.5053 114.061 82.1549 117.902 91.2472L119.709 95.5294L121.516 91.2472C125.296 82.2942 133.817 76.5073 143.229 76.5073C155.688 76.5073 165.657 86.9296 166.957 101.473C166.961 101.505 167.532 104.828 166.143 110.707Z" fill="white"/>
</g>
</g>
<defs>
<clipPath id="clip0">
<rect x="55.7146" y="55.7141" width="128.571" height="128.571" fill="white"/>
</clipPath>
<clipPath id="clip1">
<rect x="68.9998" y="69" width="102" height="102" fill="white"/>
</clipPath>
</defs>
</svg>
