<svg width="20" height="16" viewBox="0 0 20 16" fill="none" xmlns="http://www.w3.org/2000/svg">
<path d="M9.99992 2.99935C13.1582 2.99935 15.9749 4.77435 17.3499 7.58268C16.8582 8.59935 16.1666 9.47435 15.3416 10.1827L16.5166 11.3577C17.6749 10.3327 18.5916 9.04935 19.1666 7.58268C17.7249 3.92435 14.1666 1.33268 9.99992 1.33268C8.94158 1.33268 7.92492 1.49935 6.96658 1.80768L8.34158 3.18268C8.88325 3.07435 9.43325 2.99935 9.99992 2.99935ZM9.10825 3.94935L10.8333 5.67435C11.3083 5.88268 11.6916 6.26602 11.8999 6.74102L13.6249 8.46602C13.6916 8.18268 13.7416 7.88268 13.7416 7.57435C13.7499 5.50768 12.0666 3.83268 9.99992 3.83268C9.69158 3.83268 9.39992 3.87435 9.10825 3.94935ZM1.67492 1.22435L3.90825 3.45768C2.54992 4.52435 1.47492 5.94102 0.833252 7.58268C2.27492 11.241 5.83325 13.8327 9.99992 13.8327C11.2666 13.8327 12.4832 13.591 13.5999 13.1494L16.4499 15.9994L17.6249 14.8244L2.84992 0.0410156L1.67492 1.22435ZM7.92492 7.47435L10.0999 9.64935C10.0666 9.65768 10.0333 9.66602 9.99992 9.66602C8.84992 9.66602 7.91658 8.73269 7.91658 7.58268C7.91658 7.54102 7.92492 7.51602 7.92492 7.47435ZM5.09158 4.64102L6.54992 6.09935C6.35825 6.55768 6.24992 7.05768 6.24992 7.58268C6.24992 9.64935 7.93325 11.3327 9.99992 11.3327C10.5249 11.3327 11.0249 11.2244 11.4749 11.0327L12.2916 11.8494C11.5582 12.0494 10.7916 12.166 9.99992 12.166C6.84158 12.166 4.02492 10.391 2.64992 7.58268C3.23325 6.39102 4.08325 5.40768 5.09158 4.64102Z" fill="#757575"/>
</svg>
