<svg width="70" height="70" viewBox="0 0 70 70" fill="none" xmlns="http://www.w3.org/2000/svg">
<rect width="70" height="70" rx="2" fill="#EBE7D3"/>
<mask id="mask0" mask-type="alpha" maskUnits="userSpaceOnUse" x="0" y="0" width="70" height="70">
<rect width="70" height="70" rx="11.7" fill="white"/>
</mask>
<g mask="url(#mask0)">
<path fill-rule="evenodd" clip-rule="evenodd" d="M78.2657 21.3176C77.0276 11.1115 67.9863 3.87106 58.0714 5.14547C52.5552 5.85454 47.9334 9.05175 45.1289 13.5048C41.331 12.4015 37.2605 12.0447 33.0985 12.5797C16.4136 14.7243 4.57695 30.3858 6.66036 47.5604C8.74377 64.735 23.9585 76.9194 40.6433 74.7748C56.9853 72.6743 68.6742 57.6066 67.1902 40.8508C74.5591 37.7386 79.3001 29.8438 78.2657 21.3176Z" fill="#FFDC99"/>
<mask id="mask1" mask-type="alpha" maskUnits="userSpaceOnUse" x="62" y="42" width="12" height="13">
<path fill-rule="evenodd" clip-rule="evenodd" d="M62.4702 42.4429H73.757V54.0839H62.4702V42.4429Z" fill="white"/>
</mask>
<g mask="url(#mask1)">
<path fill-rule="evenodd" clip-rule="evenodd" d="M73.757 48.2634C73.757 51.478 71.2304 54.0839 68.1136 54.0839C64.9968 54.0839 62.4702 51.478 62.4702 48.2634C62.4702 45.0488 64.9968 42.4429 68.1136 42.4429C71.2304 42.4429 73.757 45.0488 73.757 48.2634Z" fill="#EBE7D3"/>
</g>
<path fill-rule="evenodd" clip-rule="evenodd" d="M72.229 67.483C72.229 68.4182 60.1033 69.1763 45.1452 69.1763C30.1872 69.1763 18.0613 68.4182 18.0613 67.483C18.0613 66.5478 30.1872 65.7898 45.1452 65.7898C60.1033 65.7898 72.229 66.5478 72.229 67.483Z" fill="#CDCDCD"/>
<path fill-rule="evenodd" clip-rule="evenodd" d="M50.8804 57.9664H27.4983C25.4362 57.9664 23.7244 56.2007 23.7244 54.0742C23.7244 51.9475 25.3974 50.1819 27.4983 50.1819H50.8804V57.9664Z" fill="white"/>
<path fill-rule="evenodd" clip-rule="evenodd" d="M51.5808 58.0866C51.5808 57.7655 51.3084 57.4847 50.9971 57.4847H27.4984C25.7087 57.4847 24.2691 56 24.2691 54.1542C24.2691 52.3084 25.7087 50.8238 27.4984 50.8238H50.9971C51.3084 50.8238 51.5808 50.5428 51.5808 50.2218C51.5808 49.9007 51.3084 49.6199 50.9971 49.6199H27.4984C25.0862 49.6199 23.1409 51.6262 23.1409 54.1141C23.1409 56.6019 25.0862 58.6083 27.4984 58.6083H50.9971C51.3084 58.6083 51.5808 58.4076 51.5808 58.0866Z" fill="#FFAC00"/>
<path fill-rule="evenodd" clip-rule="evenodd" d="M52.0775 66.522H23.472V58.7653H52.0775C52.8933 58.7653 53.5549 59.4475 53.5549 60.2889V64.9983C53.5549 65.8399 52.8933 66.522 52.0775 66.522Z" fill="white"/>
<path fill-rule="evenodd" clip-rule="evenodd" d="M51.4209 67.0758H22.9496C22.6528 67.0758 22.4125 66.828 22.4125 66.5216C22.4125 66.2154 22.6528 65.9678 22.9496 65.9678H51.4209C52.3095 65.9678 53.0325 65.2221 53.0325 64.3056V60.9813C53.0325 60.0646 52.3095 59.3191 51.4209 59.3191H22.9496C22.6528 59.3191 22.4125 59.0713 22.4125 58.7651C22.4125 58.4588 22.6528 58.2109 22.9496 58.2109H51.4209C52.9018 58.2109 54.1068 59.4537 54.1068 60.9813V64.3056C54.1068 65.833 52.9018 67.0758 51.4209 67.0758Z" fill="#2B0907"/>
<path fill-rule="evenodd" clip-rule="evenodd" d="M23.4722 59.8727H51.4061C51.7029 59.8727 51.9434 60.1209 51.9434 60.4269C51.9434 60.7328 51.7029 60.9809 51.4061 60.9809H23.4722V59.8727Z" fill="#CDCDCD"/>
<path fill-rule="evenodd" clip-rule="evenodd" d="M23.4722 61.9045H51.4061C51.7029 61.9045 51.9434 62.1525 51.9434 62.4585C51.9434 62.7644 51.7029 63.0126 51.4061 63.0126H23.4722V61.9045Z" fill="#CDCDCD"/>
<path fill-rule="evenodd" clip-rule="evenodd" d="M23.4722 64.1439H51.4061C51.7029 64.1439 51.9434 64.3918 51.9434 64.6979C51.9434 65.0039 51.7029 65.2519 51.4061 65.2519H23.4722V64.1439Z" fill="#CDCDCD"/>
<path fill-rule="evenodd" clip-rule="evenodd" d="M50.9034 56.9678H26.0504C25.7864 56.9678 25.5725 56.7198 25.5725 56.4137C25.5725 56.1079 25.7864 55.8597 26.0504 55.8597H50.9034V56.9678Z" fill="#CDCDCD"/>
<path fill-rule="evenodd" clip-rule="evenodd" d="M50.9034 54.936H26.0504C25.7864 54.936 25.5725 54.688 25.5725 54.3819C25.5725 54.076 25.7864 53.828 26.0504 53.828H50.9034V54.936Z" fill="#CDCDCD"/>
<path fill-rule="evenodd" clip-rule="evenodd" d="M50.9034 52.6966H26.0504C25.7864 52.6966 25.5725 52.4485 25.5725 52.1425C25.5725 51.8366 25.7864 51.5886 26.0504 51.5886H50.9034V52.6966Z" fill="#CDCDCD"/>
<path fill-rule="evenodd" clip-rule="evenodd" d="M23.8795 50.1187V41.6437H51.9547C52.333 41.6437 52.6394 41.96 52.6394 42.35V49.4123C52.6394 49.8025 52.333 50.1187 51.9547 50.1187H23.8795Z" fill="#FF6B32"/>
<path fill-rule="evenodd" clip-rule="evenodd" d="M25.249 43.0562V48C25.249 48.39 25.5556 48.7063 25.9339 48.7063H50.5852C51.3416 48.7063 51.9547 49.3386 51.9547 50.1187H46.4767H34.151H23.8795V41.6437C24.6359 41.6437 25.249 42.2762 25.249 43.0562Z" fill="#CDCDCD"/>
<path fill-rule="evenodd" clip-rule="evenodd" d="M47.8461 50.1187H48.531V41.6437H47.8461V50.1187Z" fill="#CDCDCD"/>
<path fill-rule="evenodd" clip-rule="evenodd" d="M46.4767 50.1187H47.1616V41.6437H46.4767V50.1187Z" fill="#CDCDCD"/>
<path fill-rule="evenodd" clip-rule="evenodd" d="M28.6728 50.1187H29.3577V41.6437H28.6728V50.1187Z" fill="#CDCDCD"/>
<path fill-rule="evenodd" clip-rule="evenodd" d="M27.3033 50.1187H27.9882V41.6437H27.3033V50.1187Z" fill="#CDCDCD"/>
<path fill-rule="evenodd" clip-rule="evenodd" d="M32.7814 46.4988V45.2629C32.7814 45.2143 32.8198 45.1746 32.8669 45.1746H43.652C43.6993 45.1746 43.7376 45.2143 43.7376 45.2629V46.4988C43.7376 46.5476 43.6993 46.5872 43.652 46.5872H32.8669C32.8198 46.5872 32.7814 46.5476 32.7814 46.4988Z" fill="#E1E3E5"/>
<path fill-rule="evenodd" clip-rule="evenodd" d="M52.3326 41.6188L58.9472 40.8273L61.8673 66.7845C61.911 67.1719 61.6995 67.5156 61.3951 67.552L55.883 68.2116C55.5785 68.248 55.2965 67.9635 55.2528 67.5761L52.3326 41.6188Z" fill="#FFB800"/>
<path fill-rule="evenodd" clip-rule="evenodd" d="M58.0025 42.3623L54.144 42.8241C53.8396 42.8606 53.6281 43.2042 53.6717 43.5915L56.1973 66.041C56.2844 66.8159 55.8615 67.5032 55.2527 67.5761L54.6213 61.9636L53.5164 52.1421L52.3325 41.6188L58.947 40.8273C59.0342 41.6022 58.6113 42.2894 58.0025 42.3623Z" fill="#EF9720"/>
<path fill-rule="evenodd" clip-rule="evenodd" d="M61.6305 64.68L55.0159 65.4715L54.9371 64.7699L61.5515 63.9784L61.6305 64.68Z" fill="#EF9720"/>
<path fill-rule="evenodd" clip-rule="evenodd" d="M61.4728 63.2769L54.8581 64.0684L54.7794 63.3669L61.3938 62.5754L61.4728 63.2769Z" fill="#EF9720"/>
<path fill-rule="evenodd" clip-rule="evenodd" d="M59.4996 45.7383L52.8851 46.5298L52.8062 45.8282L59.4206 45.0367L59.4996 45.7383Z" fill="#EF9720"/>
<path fill-rule="evenodd" clip-rule="evenodd" d="M59.3417 44.3351L52.7271 45.1266L52.6483 44.4252L59.2627 43.6337L59.3417 44.3351Z" fill="#EF9720"/>
<path fill-rule="evenodd" clip-rule="evenodd" d="M56.2624 51.1023L57.2271 50.9869C57.2651 50.9824 57.3003 51.018 57.306 51.0664L58.1542 58.608C58.1597 58.6563 58.1334 58.6993 58.0953 58.7039L57.1306 58.8193C57.0926 58.8239 57.0574 58.7883 57.0519 58.7398L56.2035 51.1982C56.1981 51.1499 56.2243 51.1068 56.2624 51.1023Z" fill="#EF9720"/>
<path fill-rule="evenodd" clip-rule="evenodd" d="M68.1307 66.5723L61.5685 67.3967L59.5036 49.9125C59.4669 49.6009 59.6819 49.3177 59.984 49.2798L65.4525 48.5927C65.7544 48.5548 66.029 48.7765 66.0659 49.0881L68.1307 66.5723Z" fill="#2B0907"/>
<path fill-rule="evenodd" clip-rule="evenodd" d="M64.5955 60.7202L63.6386 60.8403C63.6008 60.8451 63.5664 60.8175 63.5619 60.7785L63.1122 56.9714C63.1077 56.9326 63.1346 56.8972 63.1723 56.8923L64.1292 56.7721C64.167 56.7674 64.2013 56.795 64.206 56.834L64.6556 60.6411C64.6602 60.6801 64.6333 60.7154 64.5955 60.7202Z" fill="#E1E3E5"/>
<path fill-rule="evenodd" clip-rule="evenodd" d="M64.0627 56.2082L63.1058 56.3284C63.0679 56.3332 63.0336 56.3055 63.0291 56.2665L62.8458 54.7156C62.8413 54.6767 62.8681 54.6412 62.9059 54.6364L63.8628 54.5162C63.9006 54.5115 63.935 54.5392 63.9395 54.5782L64.1227 56.1292C64.1273 56.1682 64.1005 56.2035 64.0627 56.2082Z" fill="#E1E3E5"/>
<path fill-rule="evenodd" clip-rule="evenodd" d="M49.0908 52.2682V58.2071L47.3401 56.2006L45.7061 58.0064V52.2682H49.0908Z" fill="#FF6B32"/>
<mask id="mask2" mask-type="alpha" maskUnits="userSpaceOnUse" x="26" y="11" width="23" height="20">
<path fill-rule="evenodd" clip-rule="evenodd" d="M26.3817 11.0425H48.6766V30.9556H26.3817V11.0425Z" fill="white"/>
</mask>
<g mask="url(#mask2)">
<path fill-rule="evenodd" clip-rule="evenodd" d="M41.6216 11.043C40.3805 11.0579 39.1259 11.5709 38.3889 12.6308C37.2071 14.3306 37.0224 16.2875 34.8872 17.1023C33.8634 17.4928 32.7877 17.4556 31.7522 17.7174C30.936 17.9239 30.1269 18.3215 29.4229 18.789C27.9785 19.7483 26.837 21.2124 26.4853 22.9714C25.8928 25.9342 27.9306 28.4212 30.3595 29.6826C36.6161 32.9324 44.7733 29.6695 47.6549 23.1896C48.415 21.4805 48.7747 19.5926 48.6535 17.7139C48.4966 15.2816 47.1336 13.1843 45.1965 12.0197C44.1412 11.3852 42.9154 11.0275 41.6216 11.043Z" fill="#2B0907"/>
</g>
<mask id="mask3" mask-type="alpha" maskUnits="userSpaceOnUse" x="16" y="11" width="58" height="65">
<path fill-rule="evenodd" clip-rule="evenodd" d="M16.3948 75.095H73.757V11.0424H16.3948V75.095Z" fill="white"/>
</mask>
<g mask="url(#mask3)">
<path fill-rule="evenodd" clip-rule="evenodd" d="M39.911 38.6113H47.3452V25.1854H39.911V38.6113Z" fill="#EBEBEB"/>
<path fill-rule="evenodd" clip-rule="evenodd" d="M45.6771 16.2204C45.9516 18.1451 45.0543 19.8753 43.6728 20.085C42.2912 20.2947 40.9485 18.9046 40.6738 16.98C40.3992 15.0553 41.2965 13.325 42.6781 13.1153C44.0597 12.9056 45.4024 14.2957 45.6771 16.2204Z" fill="#FF6B32"/>
<path fill-rule="evenodd" clip-rule="evenodd" d="M42.2956 19.5352C42.2956 19.5352 42.7027 21.077 42.3516 22.6227C42.3516 22.6227 43.7973 23.4871 44.7562 22.355C44.7562 22.355 44.0505 20.9581 44.2959 19.0531C44.2959 19.0531 42.4254 17.9097 42.2956 19.5352Z" fill="#FF6B32"/>
<path fill-rule="evenodd" clip-rule="evenodd" d="M42.3517 22.6226C42.3517 22.6226 39.888 22.5187 38.0879 24.8516L48.7376 24.1813C48.7376 24.1813 47.7559 22.0443 44.7562 22.3548L42.3517 22.6226Z" fill="#FF6B32"/>
<path fill-rule="evenodd" clip-rule="evenodd" d="M49.7558 40.8061C49.7352 40.5679 45.5193 38.9621 45.1661 38.8088C43.2059 37.9587 41.2235 37.0573 39.1129 36.6896C37.8536 36.4701 32.4286 35.6622 32.9288 38.3506C33.1998 39.8068 36.0564 40.5765 37.2158 40.8918C39.1975 41.4307 41.2423 41.7314 43.2762 41.9674C45.4441 42.2192 47.6496 42.4358 49.8344 42.4307L49.7558 40.8061Z" fill="#FFAC00"/>
<path fill-rule="evenodd" clip-rule="evenodd" d="M50.6394 42.7514L49.8518 42.792L49.7296 40.2648L50.5171 40.2242L50.6394 42.7514Z" fill="#FFAC00"/>
<path fill-rule="evenodd" clip-rule="evenodd" d="M50.5556 41.0193L51.8901 40.9506L51.9523 42.2368L50.6177 42.3056L50.5556 41.0193Z" fill="#FF6B32"/>
<path fill-rule="evenodd" clip-rule="evenodd" d="M54.2838 40.465L50.4421 40.9506L50.574 42.3181L54.4059 42.6678C54.8481 42.7083 55.2622 42.4182 55.3718 41.9748C55.4492 41.6625 55.4511 41.2877 55.2305 40.9211C55.0317 40.5913 54.6575 40.4177 54.2838 40.465Z" fill="#2B0907"/>
<path fill-rule="evenodd" clip-rule="evenodd" d="M36.3244 41.0977C36.345 40.8595 40.5608 39.2535 40.914 39.1004C42.8744 38.2502 44.8568 37.3488 46.9674 36.981C48.2265 36.7617 53.6515 35.9537 53.1515 38.642C52.8804 40.0982 50.0238 40.868 48.8643 41.1834C46.8828 41.7223 44.8379 42.0229 42.8041 42.259C40.636 42.5106 38.4306 42.7274 36.2458 42.7223L36.3244 41.0977Z" fill="#FFB800"/>
<path fill-rule="evenodd" clip-rule="evenodd" d="M35.4407 43.0429L36.2283 43.0834L36.3505 40.5562L35.5629 40.5156L35.4407 43.0429Z" fill="#FFB800"/>
<path fill-rule="evenodd" clip-rule="evenodd" d="M35.5245 41.3111L34.19 41.2424L34.1278 42.5287L35.4623 42.5973L35.5245 41.3111Z" fill="#FF6B32"/>
<path fill-rule="evenodd" clip-rule="evenodd" d="M31.7964 40.7565L35.6381 41.2421L35.5061 42.6096L31.6743 42.9593C31.2321 42.9997 30.8181 42.7099 30.7083 42.2663C30.6311 41.954 30.629 41.5792 30.8498 41.2127C31.0486 40.8828 31.4227 40.7092 31.7964 40.7565Z" fill="#2B0907"/>
<path fill-rule="evenodd" clip-rule="evenodd" d="M43.6484 33.4695V40.1663L40.4695 38.8597L40.4344 31.9994L43.6484 33.4695Z" fill="#231704"/>
<path fill-rule="evenodd" clip-rule="evenodd" d="M43.6324 33.5055V40.2023L46.8111 38.8957L46.8462 32.0354L43.6324 33.5055Z" fill="#231704"/>
<path fill-rule="evenodd" clip-rule="evenodd" d="M43.6484 33.4694C43.6484 33.4694 42.7782 31.4809 40.7604 32.1485L43.6484 33.4694Z" fill="#FF6B32"/>
<path fill-rule="evenodd" clip-rule="evenodd" d="M46.376 32.2218C46.376 32.2218 44.4367 31.4277 43.6484 33.4694L46.376 32.2218Z" fill="#FF6B32"/>
<path fill-rule="evenodd" clip-rule="evenodd" d="M44.431 12.3773C43.7605 12.0777 42.8221 12.0971 42.2507 12.1659C41.3509 12.2743 40.4805 12.6143 39.6949 13.0716C39.2331 13.3404 38.78 13.6603 38.4901 14.1179C38.1998 14.5758 38.1046 15.1995 38.3738 15.6705C38.5172 15.9214 38.7481 16.1074 38.9925 16.2534C39.8556 16.7689 40.9283 16.8381 41.8913 16.5705C42.8543 16.303 43.7147 15.7222 44.4436 15.02C44.915 14.566 45.4526 13.6597 45.0994 12.9674C44.9611 12.6963 44.7213 12.507 44.431 12.3773Z" fill="#2B0907"/>
<path fill-rule="evenodd" clip-rule="evenodd" d="M46.6417 16.5228C46.6417 17.025 46.247 17.432 45.7602 17.432C45.2733 17.432 44.8787 17.025 44.8787 16.5228C44.8787 16.0207 45.2733 15.6137 45.7602 15.6137C46.247 15.6137 46.6417 16.0207 46.6417 16.5228Z" fill="#FF6B32"/>
<path fill-rule="evenodd" clip-rule="evenodd" d="M41.6455 24.2973C41.3556 23.9386 37.5903 27.983 37.3746 28.3142C36.4391 29.7504 35.9368 31.7698 37.1418 33.3892C38.2181 34.8358 39.9391 35.6864 40.933 37.1882C41.2255 37.6342 39.9015 37.3379 39.7041 37.2727C37.5699 36.568 35.2346 34.3664 34.6815 32.195C34.2994 30.6954 34.6815 29.2343 35.3842 27.9792C35.9835 26.9087 36.7931 25.9654 37.6823 25.1287C37.8928 24.9306 40.3517 22.8207 40.5399 23.0355C40.5399 23.0355 41.645 24.2963 41.6455 24.2973Z" fill="#FF6B32"/>
<path fill-rule="evenodd" clip-rule="evenodd" d="M45.7233 23.7991C46.0495 23.4749 49.3661 27.9176 49.5456 28.2709C50.3241 29.8035 50.6108 31.8672 49.2422 33.3421C48.0198 34.6594 46.2192 35.312 45.073 36.6935C44.7352 37.104 46.0827 36.9581 46.2857 36.9153C48.4817 36.4541 51.035 34.5274 51.8138 32.4307C52.3517 30.9829 52.1259 29.4876 51.5596 28.1612C51.0765 27.0299 50.3713 26.0015 49.5756 25.07C49.3871 24.8493 47.1651 22.4763 46.9553 22.6687C46.9553 22.6687 45.724 23.7982 45.7233 23.7991Z" fill="#FF6B32"/>
<path fill-rule="evenodd" clip-rule="evenodd" d="M38.1839 24.7651C38.1469 24.7673 38.1109 24.7757 38.0766 24.79C37.5347 25.0163 36.9927 25.2426 36.4506 25.4689C36.3969 25.4913 36.339 25.5173 36.3107 25.5696C36.2665 25.6512 36.3143 25.7516 36.3632 25.8303C36.6672 26.3213 37.0472 26.7722 37.5244 27.084C37.9348 27.3522 38.4038 27.5095 38.8732 27.6393C42.4346 28.6237 46.363 28.1092 49.5729 26.2384C49.909 26.0425 50.2403 25.8297 50.543 25.5834C50.7515 25.4134 50.7031 25.0708 50.4522 24.9792C50.3649 24.9473 50.2801 24.9064 50.2012 24.8601C49.9093 24.6894 49.6558 24.4512 49.3509 24.3068C48.8608 24.0747 48.2964 24.1094 47.7584 24.1487C44.6713 24.3744 38.8144 24.7273 38.1839 24.7651Z" fill="white"/>
<path fill-rule="evenodd" clip-rule="evenodd" d="M44.4333 17.9299C44.4333 18.5509 43.9454 19.0541 43.3433 19.0541C42.7414 19.0541 42.2534 18.5509 42.2534 17.9299H44.4333Z" fill="white"/>
<path fill-rule="evenodd" clip-rule="evenodd" d="M44.2146 19.931C44.2146 19.931 43.6052 20.3289 42.6292 20.0457L44.8031 22.5634C44.8031 22.5634 44.2085 21.6885 44.2146 19.931Z" fill="#FF8C60"/>
</g>
</g>
</svg>
