<svg width="60" height="60" viewBox="0 0 60 60" fill="none" xmlns="http://www.w3.org/2000/svg">
<path d="M54.3751 9.37498C54.422 9.37498 30.6095 0.234348 30.0001 0C29.5314 0.187454 5.57818 9.37498 5.62507 9.37498V26.6249C5.62507 38.5781 9.04697 54.1875 30.0001 59.9999C50.9063 54.1874 54.3282 38.2967 54.3282 26.6249C54.3751 20.7188 54.3751 9.37498 54.3751 9.37498Z" fill="#D9DEE1"/>
<path d="M5.62476 26.6251C5.62476 38.5782 9.04666 54.1876 29.9998 60V0C29.1091 0.328134 5.62476 9.37497 5.62476 9.37497C5.62476 9.37497 5.62487 26.6251 5.62476 26.6251Z" fill="#BCC6CA"/>
<path d="M49.6404 12.6094C49.6873 12.6094 30.4685 4.87495 29.9529 4.6875C29.531 4.82818 10.2186 12.2812 10.2655 12.2343V26.7187C10.2655 36.7499 12.2343 50.4374 29.9529 55.3124C47.6248 50.4374 49.6404 36.5156 49.6404 26.7187C49.6873 21.75 49.6873 12.6094 49.6404 12.6094Z" fill="#008FFF"/>
<path d="M29.9998 4.6875C29.5779 4.82818 10.2654 12.2812 10.3123 12.2343V26.7187C10.3123 36.7499 12.2811 50.4374 29.9998 55.3124V4.6875Z" fill="#008FFF"/>
<g clip-path="url(#clip0)">
<g clip-path="url(#clip1)">
<path d="M42.708 25.2153C42.3357 21.1184 39.4359 18.146 35.8069 18.146C33.3891 18.146 31.1754 19.4471 29.9298 21.5323C28.6954 19.4201 26.5724 18.1455 24.1934 18.1455C20.5648 18.1455 17.6645 21.1179 17.2928 25.2148C17.2634 25.3958 17.1427 26.3482 17.5096 27.9013C18.0382 30.1415 19.2594 32.1792 21.04 33.7926L29.9239 41.8545L38.9602 33.7931C40.7409 32.1792 41.962 30.142 42.4907 27.9013C42.8575 26.3486 42.7369 25.3963 42.708 25.2153ZM41.5359 27.6767C41.0533 29.7227 39.9347 31.5867 38.304 33.0639L29.9298 40.5353L21.6992 33.0658C20.0656 31.5858 18.9474 29.7222 18.4644 27.6762C18.1172 26.2064 18.2599 25.3762 18.2604 25.3708L18.2677 25.3212C18.5865 21.7319 21.0783 19.1263 24.1934 19.1263C26.492 19.1263 28.5154 20.5387 29.4756 22.8118L29.9273 23.8824L30.379 22.8118C31.324 20.5735 33.4544 19.1268 35.8074 19.1268C38.922 19.1268 41.4142 21.7324 41.7394 25.3683C41.7404 25.3762 41.8831 26.2069 41.5359 27.6767Z" fill="white"/>
</g>
</g>
<defs>
<clipPath id="clip0">
<rect x="13.9287" y="13.9287" width="32.1429" height="32.1429" fill="white"/>
</clipPath>
<clipPath id="clip1">
<rect x="17.25" y="17.25" width="25.5" height="25.5" fill="white"/>
</clipPath>
</defs>
</svg>
