<svg width="26" height="23" viewBox="0 0 26 23" fill="none" xmlns="http://www.w3.org/2000/svg">
<path fill-rule="evenodd" clip-rule="evenodd" d="M10.4113 22.9159H5.42029C4.8098 22.9167 4.22404 22.6747 3.79209 22.2433C3.36013 21.8119 3.11742 21.2264 3.11742 20.6159V10.401L1.86679 11.3814C1.54359 11.639 1.10701 11.7034 0.723229 11.55C0.339444 11.3966 0.067485 11.0491 0.010864 10.6397C-0.0457569 10.2302 0.12167 9.82195 0.449418 9.57016L12.3232 0.252282C12.7433 -0.0840938 13.3405 -0.0840938 13.7607 0.252282L25.4418 9.58166C25.938 9.97861 26.0184 10.7027 25.6215 11.1988C25.2245 11.695 24.5005 11.7755 24.0043 11.3785L22.9693 10.5534V20.6159C22.9693 21.8862 21.9395 22.9159 20.6693 22.9159H15.6754C15.0403 22.9159 14.5254 22.401 14.5254 21.7659V17.0049C14.5494 16.4598 14.2723 15.9456 13.8039 15.6659C13.3354 15.3862 12.7513 15.3862 12.2828 15.6659C11.8144 15.9456 11.5373 16.4598 11.5613 17.0049V21.7659C11.5613 22.401 11.0464 22.9159 10.4113 22.9159ZM20.6693 8.71341L13.039 2.62703L5.42029 8.58978V20.6159H9.26417V17.0049C9.22622 15.6288 9.93867 14.3408 11.1245 13.6415C12.3102 12.9423 13.7822 12.9423 14.968 13.6415C16.1538 14.3408 16.8662 15.6288 16.8283 17.0049V20.6159H20.6693V8.71341Z" fill="#C6C6C6"/>
</svg>
