<svg width="100" height="100" viewBox="0 0 100 100" fill="none" xmlns="http://www.w3.org/2000/svg">
<path d="M90.6251 15.625C90.7033 15.625 51.0158 0.390579 50.0001 0C49.219 0.312424 9.29696 15.625 9.37511 15.625V44.3749C9.37511 64.2968 15.0783 90.3125 50.0001 99.9998C84.8438 90.3123 90.547 63.8279 90.547 44.3749C90.6251 34.5313 90.6251 15.625 90.6251 15.625Z" fill="#D9DEE1"/>
<path d="M9.37476 44.3751C9.37476 64.297 15.0779 90.3127 49.9998 100V0C48.5154 0.54689 9.37476 15.625 9.37476 15.625C9.37476 15.625 9.37495 44.3751 9.37476 44.3751Z" fill="#BCC6CA"/>
<path d="M82.7339 21.0156C82.812 21.0156 50.7808 8.12492 49.9214 7.8125C49.2182 8.04697 17.0309 20.4687 17.109 20.3906V44.5311C17.109 61.2498 20.3904 84.0623 49.9214 92.1873C79.3746 84.0623 82.7339 60.8593 82.7339 44.5311C82.812 36.25 82.812 21.0156 82.7339 21.0156Z" fill="#008FFF"/>
<path d="M49.9996 7.8125C49.2964 8.04697 17.109 20.4687 17.1872 20.3906V44.5311C17.1872 61.2498 20.4685 84.0623 49.9996 92.1873V7.8125Z" fill="#008FFF"/>
<path d="M68.6952 64.9802H68.3577V57.4663C68.3576 57.3466 68.3249 57.2293 68.263 57.1268C68.2012 57.0244 68.1125 56.9408 68.0067 56.885L61.3268 53.3773V52.4375C61.9303 52.6844 62.6052 52.6922 63.2141 52.4591C63.8231 52.226 64.3204 51.7697 64.6048 51.183C64.8892 50.5963 64.9394 49.9232 64.7452 49.3008C64.5509 48.6784 64.1268 48.1533 63.5592 47.8325L55.8293 43.457C56.0703 42.8555 56.2708 42.2385 56.4293 41.6102C56.8283 39.9914 57.011 38.3269 56.9727 36.6602C56.9698 36.5231 56.9241 36.3903 56.8419 36.2805C56.7597 36.1708 56.6452 36.0895 56.5144 36.0482C53.5441 35.1084 51.3181 34.2107 50.2553 33.7607C50.1742 33.7263 50.0869 33.7086 49.9988 33.7086C49.9107 33.7086 49.8235 33.7263 49.7423 33.7607C48.6796 34.2107 46.4536 35.1107 43.4832 36.0482C43.3526 36.0895 43.2382 36.1707 43.156 36.2803C43.0738 36.3899 43.028 36.5225 43.0249 36.6594C42.9865 38.3262 43.1692 39.9907 43.5683 41.6094C43.7269 42.2379 43.9273 42.855 44.1683 43.4567L36.4407 47.834C35.9484 48.1139 35.5624 48.5488 35.3431 49.0708C35.1237 49.5929 35.0832 50.1729 35.2279 50.7205C35.3725 51.268 35.6942 51.7523 36.1429 52.0978C36.5915 52.4434 37.1419 52.6309 37.7082 52.631C38.0392 52.6308 38.367 52.5657 38.6731 52.4394V53.396L32.0288 56.8835C31.9229 56.9392 31.8342 57.0228 31.7723 57.1253C31.7105 57.2277 31.6778 57.3451 31.6778 57.4648V64.9787H31.3047C31.1306 64.9787 30.9637 65.0478 30.8406 65.1709C30.7176 65.2939 30.6484 65.4609 30.6484 65.6349C30.6484 65.809 30.7176 65.9759 30.8406 66.0989C30.9637 66.222 31.1306 66.2912 31.3047 66.2912H68.6952C68.8692 66.2912 69.0362 66.222 69.1592 66.0989C69.2823 65.9759 69.3514 65.809 69.3514 65.6349C69.3514 65.4609 69.2823 65.2939 69.1592 65.1709C69.0362 65.0478 68.8692 64.9787 68.6952 64.9787V64.9802ZM67.0452 57.863V64.9802H61.3268V54.86L67.0452 57.863ZM54.2551 64.9802H45.7448V56.4703H54.2551V64.9802ZM54.9124 55.1578H45.0874C44.9134 55.1578 44.7465 55.2269 44.6234 55.35C44.5003 55.4731 44.4312 55.64 44.4312 55.814V64.9802H39.9874V51.7202L47.1721 47.6507C47.9529 48.2784 48.8279 48.7789 49.7648 49.1338C49.9161 49.1923 50.0838 49.1923 50.2351 49.1338C51.172 48.7789 52.047 48.2784 52.8278 47.6507L60.0143 51.7202V64.9802H55.5676V55.8125C55.5672 55.6389 55.498 55.4726 55.3752 55.3499C55.2524 55.2271 55.086 55.1581 54.9124 55.1578ZM62.9123 48.9759C63.0554 49.0569 63.1811 49.1653 63.2823 49.2948C63.3834 49.4244 63.4581 49.5726 63.502 49.731C63.5459 49.8895 63.5581 50.055 63.5381 50.2181C63.518 50.3813 63.466 50.5389 63.385 50.682C63.304 50.825 63.1956 50.9507 63.0661 51.0519C62.9365 51.1531 62.7883 51.2278 62.6299 51.2717C62.4714 51.3155 62.3059 51.3278 62.1428 51.3077C61.9796 51.2877 61.822 51.2356 61.6789 51.1547L53.8276 46.7087C54.3935 46.0856 54.8791 45.3941 55.2732 44.6503L62.9123 48.9759ZM49.9999 35.075C51.0994 35.5348 53.0851 36.32 55.6647 37.1525C55.6596 38.5457 55.4896 39.9333 55.1584 41.2865C54.3334 44.5367 52.5976 46.7315 49.9999 47.8142C47.4023 46.7315 45.6676 44.5367 44.8414 41.2862C44.5102 39.9331 44.3403 38.5456 44.3352 37.1525C46.9148 36.3204 48.9004 35.5352 49.9999 35.075ZM37.3703 51.272C37.1317 51.2059 36.918 51.0705 36.7564 50.883C36.5947 50.6954 36.4922 50.4642 36.462 50.2184C36.4317 49.9727 36.475 49.7235 36.5863 49.5023C36.6977 49.2811 36.8721 49.098 37.0876 48.9759L44.7267 44.6503C45.1207 45.3941 45.6064 46.0856 46.1723 46.7087L38.3206 51.1547C38.1778 51.2362 38.0203 51.2885 37.8572 51.3087C37.6941 51.3288 37.5286 51.3164 37.3703 51.272ZM32.9903 57.863L38.6749 54.8788V64.9802H32.9903V57.863Z" fill="white"/>
<path d="M48.7447 43.0172C48.8057 43.0797 48.8786 43.1294 48.9591 43.1634C49.0396 43.1973 49.1261 43.2148 49.2135 43.2148C49.3008 43.2148 49.3872 43.1974 49.4677 43.1636C49.5482 43.1298 49.6211 43.0803 49.6822 43.0179L52.8168 39.8169C52.8786 39.7557 52.9275 39.6828 52.9608 39.6024C52.9941 39.5221 53.0111 39.436 53.0108 39.349C53.0105 39.2621 52.9929 39.176 52.9591 39.0959C52.9253 39.0158 52.8759 38.9432 52.8137 38.8824C52.7516 38.8216 52.678 38.7737 52.5973 38.7415C52.5165 38.7093 52.4301 38.6935 52.3432 38.695C52.2562 38.6965 52.1704 38.7153 52.0908 38.7503C52.0112 38.7852 51.9393 38.8356 51.8793 38.8986L49.2146 41.6199L48.1207 40.4998C47.9974 40.3839 47.834 40.3202 47.6648 40.3219C47.4956 40.3236 47.3335 40.3906 47.2125 40.509C47.0915 40.6273 47.0209 40.7878 47.0155 40.9569C47.01 41.1261 47.0701 41.2908 47.1832 41.4167L48.7447 43.0172Z" fill="white"/>
</svg>
