<svg width="224" height="224" viewBox="0 0 224 224" fill="none" xmlns="http://www.w3.org/2000/svg">
<rect width="224" height="224" fill="#F5F7F7"/>
<g clip-path="url(#clip0)">
<path d="M28.6959 171.482L28.3286 171.399C32.4234 153.189 42.7139 136.653 57.3045 124.837C68.3355 115.917 81.4551 109.951 95.4281 107.501C109.401 105.052 123.768 106.199 137.175 110.834C150.583 115.469 162.59 123.44 172.066 133.997C181.542 144.554 188.176 157.349 191.342 171.177L190.976 171.26C182.308 133.202 148.952 106.621 109.861 106.621C71.2817 106.621 37.1469 133.899 28.6959 171.482Z" fill="#3F3D56"/>
<path d="M60.5316 105.395H58.856V171.582H60.5316V105.395Z" fill="#3F3D56"/>
<path d="M75.9954 113.83C76.1021 136.974 59.8193 155.811 59.8193 155.811C59.8193 155.811 43.3635 137.125 43.2569 113.981C43.1502 90.8371 59.433 72 59.433 72C59.433 72 75.8888 90.6862 75.9954 113.83Z" fill="#008FFF"/>
<path d="M177.122 144.18H47.4424V171.66H177.122V144.18Z" fill="#F2F2F2"/>
<path d="M43.3016 147.192L57.4177 117.642H170.158L180.698 147.192H43.3016Z" fill="#3F3D56"/>
<path d="M130.821 119.524H78.4978V136.84H130.821V119.524Z" fill="#F2F2F2"/>
<path d="M81.8857 105.408L73.6042 122.724H135.715L130.821 105.408H81.8857Z" fill="#3F3D56"/>
<path d="M124.422 149.639H83.1091V171.66H124.422V149.639Z" fill="#CCCCCC"/>
<path d="M74.5453 150.391H52.5242V171.66H74.5453V150.391Z" fill="#CCCCCC"/>
<path d="M142.961 151.709H131.574V171.66H142.961V151.709Z" fill="#3F3D56"/>
<path d="M219 171.566H5V171.942H219V171.566Z" fill="#3F3D56"/>
<path d="M39.9664 127.911H38.8607V171.587H39.9664V127.911Z" fill="#3F3D56"/>
<path d="M50.1709 133.477C50.2413 148.749 39.4964 161.18 39.4964 161.18C39.4964 161.18 28.6374 148.849 28.567 133.576C28.4966 118.304 39.2415 105.874 39.2415 105.874C39.2415 105.874 50.1006 118.204 50.1709 133.477Z" fill="#008FFF"/>
<path opacity="0.1" d="M50.1709 133.477C50.2413 148.749 39.4964 161.18 39.4964 161.18C39.4964 161.18 28.6374 148.849 28.567 133.576C28.4966 118.304 39.2415 105.874 39.2415 105.874C39.2415 105.874 50.1006 118.204 50.1709 133.477Z" fill="black"/>
<path d="M25.5921 127.911H24.4863V171.587H25.5921V127.911Z" fill="#3F3D56"/>
<path d="M35.7967 133.477C35.8671 148.749 25.1222 161.18 25.1222 161.18C25.1222 161.18 14.2631 148.849 14.1927 133.576C14.1223 118.304 24.8673 105.874 24.8673 105.874C24.8673 105.874 35.7263 118.204 35.7967 133.477Z" fill="#008FFF"/>
<path d="M160.842 152.838H155.289V158.014H160.842V152.838Z" fill="#3F3D56"/>
<path d="M168.276 152.838H162.724V158.014H168.276V152.838Z" fill="#3F3D56"/>
<path d="M160.842 159.896H155.289V165.26H160.842V159.896Z" fill="#3F3D56"/>
<path d="M168.276 159.896H162.724V165.26H168.276V159.896Z" fill="#3F3D56"/>
<path d="M87.6425 124.262H83.2972V128.313H87.6425V124.262Z" fill="#3F3D56"/>
<path d="M93.4609 124.262H89.1156V128.313H93.4609V124.262Z" fill="#3F3D56"/>
<path d="M87.6425 129.786H83.2972V133.984H87.6425V129.786Z" fill="#3F3D56"/>
<path d="M93.4609 129.786H89.1156V133.984H93.4609V129.786Z" fill="#3F3D56"/>
<path d="M120.204 124.262H115.858V128.313H120.204V124.262Z" fill="#3F3D56"/>
<path d="M126.022 124.262H121.677V128.313H126.022V124.262Z" fill="#3F3D56"/>
<path d="M120.204 129.786H115.858V133.984H120.204V129.786Z" fill="#3F3D56"/>
<path d="M126.022 129.786H121.677V133.984H126.022V129.786Z" fill="#3F3D56"/>
<path d="M104.017 124.262H99.672V128.313H104.017V124.262Z" fill="#3F3D56"/>
<path d="M109.836 124.262H105.49V128.313H109.836V124.262Z" fill="#3F3D56"/>
<path d="M104.017 129.786H99.672V133.984H104.017V129.786Z" fill="#3F3D56"/>
<path d="M109.836 129.786H105.49V133.984H109.836V129.786Z" fill="#3F3D56"/>
<path d="M136.851 153.73H134.115V156.281H136.851V153.73Z" fill="#F2F2F2"/>
<path d="M140.515 153.73H137.779V156.281H140.515V153.73Z" fill="#F2F2F2"/>
<path d="M136.851 157.208H134.115V159.851H136.851V157.208Z" fill="#F2F2F2"/>
<path d="M140.515 157.208H137.779V159.851H140.515V157.208Z" fill="#F2F2F2"/>
<path d="M141.456 163.849C141.871 163.849 142.208 163.512 142.208 163.096C142.208 162.68 141.871 162.343 141.456 162.343C141.04 162.343 140.703 162.68 140.703 163.096C140.703 163.512 141.04 163.849 141.456 163.849Z" fill="#F2F2F2"/>
<path d="M124.516 151.991H83.1091V152.368H124.516V151.991Z" fill="#F2F2F2"/>
<path d="M124.516 153.685H83.1091V154.062H124.516V153.685Z" fill="#F2F2F2"/>
<path d="M124.516 155.379H83.1091V155.756H124.516V155.379Z" fill="#F2F2F2"/>
<path d="M124.516 157.073H83.1091V157.449H124.516V157.073Z" fill="#F2F2F2"/>
<path d="M124.516 158.767H83.1091V159.143H124.516V158.767Z" fill="#F2F2F2"/>
<path d="M124.516 160.461H83.1091V160.837H124.516V160.461Z" fill="#F2F2F2"/>
<path d="M124.516 162.155H83.1091V162.531H124.516V162.155Z" fill="#F2F2F2"/>
<path d="M124.516 163.849H83.1091V164.225H124.516V163.849Z" fill="#F2F2F2"/>
<path d="M124.516 165.543H83.1091V165.919H124.516V165.543Z" fill="#F2F2F2"/>
<path d="M124.516 167.237H83.1091V167.613H124.516V167.237Z" fill="#F2F2F2"/>
<path d="M124.516 168.931H83.1091V169.307H124.516V168.931Z" fill="#F2F2F2"/>
<path d="M74.5453 151.991H52.5242V152.368H74.5453V151.991Z" fill="#F2F2F2"/>
<path d="M74.5453 153.685H52.5242V154.062H74.5453V153.685Z" fill="#F2F2F2"/>
<path d="M74.5453 155.379H52.5242V155.756H74.5453V155.379Z" fill="#F2F2F2"/>
<path d="M74.5453 157.073H52.5242V157.449H74.5453V157.073Z" fill="#F2F2F2"/>
<path d="M74.5453 158.767H52.5242V159.143H74.5453V158.767Z" fill="#F2F2F2"/>
<path d="M74.5453 160.461H52.5242V160.837H74.5453V160.461Z" fill="#F2F2F2"/>
<path d="M74.5453 162.155H52.5242V162.531H74.5453V162.155Z" fill="#F2F2F2"/>
<path d="M74.5453 163.849H52.5242V164.225H74.5453V163.849Z" fill="#F2F2F2"/>
<path d="M74.5453 165.543H52.5242V165.919H74.5453V165.543Z" fill="#F2F2F2"/>
<path d="M74.5453 167.237H52.5242V167.613H74.5453V167.237Z" fill="#F2F2F2"/>
<path d="M74.5453 168.931H52.5242V169.307H74.5453V168.931Z" fill="#F2F2F2"/>
<path d="M170.064 132.793C178.484 132.793 185.31 125.968 185.31 117.548C185.31 109.128 178.484 102.303 170.064 102.303C161.644 102.303 154.819 109.128 154.819 117.548C154.819 125.968 161.644 132.793 170.064 132.793Z" fill="#008FFF"/>
<path d="M179.663 116.042H171.57V107.949H168.558V116.042H160.465V119.054H168.558V127.147H171.57V119.054H179.663V116.042Z" fill="white"/>
</g>
<defs>
<clipPath id="clip0">
<rect width="214" height="99.9736" fill="white" transform="translate(5 72)"/>
</clipPath>
</defs>
</svg>
