<svg width="60" height="60" viewBox="0 0 60 60" fill="none" xmlns="http://www.w3.org/2000/svg">
<path d="M54.3751 9.37498C54.422 9.37498 30.6095 0.234348 30.0001 0C29.5314 0.187454 5.57818 9.37498 5.62507 9.37498V26.6249C5.62507 38.5781 9.04697 54.1875 30.0001 59.9999C50.9063 54.1874 54.3282 38.2967 54.3282 26.6249C54.3751 20.7188 54.3751 9.37498 54.3751 9.37498Z" fill="#D9DEE1"/>
<path d="M5.62476 26.6251C5.62476 38.5782 9.04666 54.1876 29.9998 60V0C29.1091 0.328134 5.62476 9.37497 5.62476 9.37497C5.62476 9.37497 5.62487 26.6251 5.62476 26.6251Z" fill="#BCC6CA"/>
<path d="M49.6404 12.6094C49.6873 12.6094 30.4685 4.87495 29.9529 4.6875C29.531 4.82818 10.2186 12.2812 10.2655 12.2343V26.7187C10.2655 36.7499 12.2343 50.4374 29.9529 55.3124C47.6248 50.4374 49.6404 36.5156 49.6404 26.7187C49.6873 21.75 49.6873 12.6094 49.6404 12.6094Z" fill="#008FFF"/>
<path d="M29.9998 4.6875C29.5779 4.82818 10.2654 12.2812 10.3123 12.2343V26.7187C10.3123 36.7499 12.2811 50.4374 29.9998 55.3124V4.6875Z" fill="#008FFF"/>
<path d="M41.2172 38.988H41.0147V34.4797C41.0147 34.4079 40.995 34.3375 40.9579 34.276C40.9208 34.2146 40.8676 34.1644 40.8041 34.1309L36.7962 32.0263V31.4624C37.1583 31.6106 37.5632 31.6152 37.9286 31.4754C38.2939 31.3355 38.5923 31.0618 38.763 30.7097C38.9336 30.3577 38.9637 29.9539 38.8472 29.5804C38.7306 29.207 38.4762 28.8919 38.1356 28.6994L33.4977 26.0741C33.6423 25.7132 33.7625 25.343 33.8577 24.966C34.0971 23.9948 34.2067 22.9961 34.1837 21.996C34.182 21.9138 34.1545 21.8341 34.1052 21.7682C34.0559 21.7024 33.9872 21.6536 33.9088 21.6288C32.1265 21.065 30.7909 20.5263 30.1533 20.2563C30.1046 20.2357 30.0523 20.2251 29.9994 20.2251C29.9465 20.2251 29.8942 20.2357 29.8455 20.2563C29.2078 20.5263 27.8722 21.0663 26.09 21.6288C26.0116 21.6536 25.943 21.7023 25.8937 21.7681C25.8444 21.8339 25.8169 21.9134 25.8151 21.9956C25.792 22.9956 25.9016 23.9943 26.1411 24.9656C26.2362 25.3426 26.3565 25.7129 26.5011 26.0739L21.8645 28.7003C21.5691 28.8683 21.3376 29.1292 21.2059 29.4424C21.0743 29.7557 21.05 30.1037 21.1368 30.4322C21.2236 30.7607 21.4166 31.0513 21.6858 31.2586C21.955 31.466 22.2852 31.5785 22.625 31.5785C22.8236 31.5784 23.0203 31.5394 23.2039 31.4636V32.0375L19.2174 34.13C19.1538 34.1635 19.1006 34.2136 19.0635 34.2751C19.0264 34.3365 19.0068 34.407 19.0068 34.4788V38.9871H18.7829C18.6785 38.9871 18.5783 39.0286 18.5045 39.1024C18.4306 39.1763 18.3892 39.2764 18.3892 39.3809C18.3892 39.4853 18.4306 39.5854 18.5045 39.6593C18.5783 39.7331 18.6785 39.7746 18.7829 39.7746H41.2172C41.3216 39.7746 41.4218 39.7331 41.4956 39.6593C41.5695 39.5854 41.611 39.4853 41.611 39.3809C41.611 39.2764 41.5695 39.1763 41.4956 39.1024C41.4218 39.0286 41.3216 38.9871 41.2172 38.9871V38.988ZM40.2272 34.7177V38.988H36.7962V32.9159L40.2272 34.7177ZM32.5531 38.988H27.447V33.8821H32.5531V38.988ZM32.9476 33.0946H27.0526C26.9481 33.0946 26.848 33.1361 26.7741 33.2099C26.7003 33.2838 26.6588 33.3839 26.6588 33.4883V38.988H23.9926V31.032L28.3033 28.5903C28.7718 28.967 29.2968 29.2673 29.859 29.4802C29.9498 29.5153 30.0504 29.5153 30.1411 29.4802C30.7033 29.2673 31.2283 28.967 31.6968 28.5903L36.0087 31.032V38.988H33.3406V33.4874C33.3404 33.3833 33.2989 33.2835 33.2252 33.2098C33.1516 33.1362 33.0517 33.0948 32.9476 33.0946V33.0946ZM37.7475 29.3855C37.8333 29.4341 37.9087 29.4991 37.9694 29.5768C38.0302 29.6546 38.075 29.7435 38.1013 29.8386C38.1276 29.9336 38.135 30.0329 38.1229 30.1308C38.1109 30.2287 38.0797 30.3233 38.0311 30.4091C37.9825 30.4949 37.9175 30.5704 37.8397 30.6311C37.762 30.6918 37.6731 30.7366 37.578 30.7629C37.483 30.7893 37.3836 30.7966 37.2858 30.7846C37.1879 30.7725 37.0933 30.7413 37.0075 30.6927L32.2966 28.0251C32.6362 27.6513 32.9276 27.2364 33.164 26.7901L37.7475 29.3855ZM30.0001 21.0449C30.6598 21.3208 31.8511 21.7919 33.3989 22.2914C33.3958 23.1273 33.2939 23.9599 33.0952 24.7718C32.6002 26.7219 31.5586 28.0388 30.0001 28.6884C28.4415 28.0388 27.4006 26.7219 26.905 24.7716C26.7062 23.9598 26.6042 23.1273 26.6012 22.2914C28.149 21.7922 29.3404 21.321 30.0001 21.0449V21.0449ZM22.4223 30.7631C22.2791 30.7235 22.1509 30.6422 22.0539 30.5297C21.9569 30.4172 21.8954 30.2784 21.8773 30.131C21.8591 29.9835 21.8851 29.834 21.9519 29.7013C22.0187 29.5686 22.1234 29.4587 22.2526 29.3855L26.8361 26.7901C27.0725 27.2364 27.3639 27.6513 27.7035 28.0251L22.9924 30.6927C22.9068 30.7416 22.8123 30.773 22.7144 30.7851C22.6165 30.7972 22.5172 30.7898 22.4223 30.7631V30.7631ZM19.7943 34.7177L23.2051 32.9272V38.988H19.7943V34.7177Z" fill="white"/>
<path d="M29.247 25.8106C29.2836 25.8482 29.3273 25.878 29.3756 25.8984C29.4239 25.9187 29.4758 25.9292 29.5282 25.9292C29.5806 25.9292 29.6325 25.9188 29.6808 25.8985C29.729 25.8782 29.7728 25.8485 29.8095 25.8111L31.6903 23.8905C31.7273 23.8537 31.7566 23.81 31.7766 23.7618C31.7966 23.7136 31.8068 23.6619 31.8066 23.6097C31.8064 23.5576 31.7959 23.5059 31.7756 23.4579C31.7553 23.4098 31.7257 23.3663 31.6884 23.3298C31.6511 23.2932 31.607 23.2645 31.5585 23.2452C31.51 23.2259 31.4582 23.2164 31.406 23.2173C31.3539 23.2182 31.3024 23.2295 31.2546 23.2505C31.2069 23.2714 31.1637 23.3017 31.1278 23.3395L29.5289 24.9723L28.8726 24.3002C28.7986 24.2307 28.7006 24.1924 28.599 24.1935C28.4975 24.1945 28.4003 24.2347 28.3277 24.3057C28.2551 24.3767 28.2127 24.473 28.2094 24.5745C28.2062 24.676 28.2422 24.7748 28.3101 24.8503L29.247 25.8106Z" fill="white"/>
</svg>
