<svg width="86" height="96" viewBox="0 0 86 96" fill="none" xmlns="http://www.w3.org/2000/svg">
<path d="M42.3872 51.4266C48.0784 51.4266 53.006 49.3854 57.0333 45.3581C61.0593 41.3314 63.1011 36.4046 63.1011 30.7126C63.1011 25.0227 61.0599 20.0952 57.0326 16.0672C53.0053 12.0412 48.0778 10 42.3872 10C36.6953 10 31.7684 12.0412 27.7417 16.0679C23.7151 20.0945 21.6732 25.022 21.6732 30.7126C21.6732 36.4046 23.7151 41.3321 27.7417 45.3587C31.7697 49.3847 36.6972 51.4266 42.3872 51.4266ZM31.3058 19.6313C34.3955 16.5416 38.02 15.0397 42.3872 15.0397C46.7537 15.0397 50.3788 16.5416 53.4692 19.6313C56.5589 22.7217 58.0614 26.3468 58.0614 30.7126C58.0614 35.0798 56.5589 38.7043 53.4692 41.7946C50.3788 44.885 46.7537 46.3869 42.3872 46.3869C38.0213 46.3869 34.3969 44.8844 31.3058 41.7946C28.2155 38.7049 26.7129 35.0798 26.7129 30.7126C26.7129 26.3468 28.2155 22.7217 31.3058 19.6313Z" fill="#3F3F3F"/>
<path d="M78.631 76.1294C78.5149 74.4537 78.28 72.6257 77.9342 70.6954C77.5852 68.7506 77.1357 66.9121 76.5977 65.2318C76.0413 63.495 75.2861 61.7799 74.3511 60.1363C73.382 58.4304 72.243 56.9449 70.9648 55.7225C69.6283 54.4437 67.9919 53.4156 66.0996 52.6656C64.2139 51.9196 62.1242 51.5417 59.8887 51.5417C59.0108 51.5417 58.1618 51.9019 56.5221 52.9694C55.513 53.6275 54.3326 54.3886 53.0151 55.2304C51.8886 55.9482 50.3624 56.6208 48.4774 57.2296C46.6382 57.8248 44.7709 58.1266 42.9272 58.1266C41.0848 58.1266 39.2174 57.8248 37.377 57.2296C35.4939 56.6214 33.9671 55.9489 32.8425 55.2311C31.5374 54.3971 30.3564 53.636 29.3322 52.9688C27.6938 51.9012 26.8448 51.541 25.9669 51.541C23.7308 51.541 21.6417 51.9196 19.7567 52.6663C17.8657 53.4149 16.2287 54.4431 14.8908 55.7232C13.6127 56.9462 12.4736 58.431 11.5052 60.1363C10.5715 61.7799 9.81567 63.4944 9.25928 65.2324C8.72191 66.9128 8.27246 68.7506 7.9234 70.6954C7.57697 72.6231 7.34273 74.4517 7.22659 76.1314C7.11243 77.7737 7.05469 79.4829 7.05469 81.2098C7.05469 85.699 8.48177 89.3333 11.2959 92.0136C14.0753 94.6585 17.7522 95.9996 22.225 95.9996H63.6346C68.1061 95.9996 71.783 94.6585 74.563 92.0136C77.3778 89.3353 78.8049 85.6997 78.8049 81.2092C78.8043 79.4763 78.7459 77.7671 78.631 76.1294ZM71.0882 88.3623C69.2517 90.1102 66.8135 90.9599 63.6339 90.9599H22.225C19.0448 90.9599 16.6066 90.1102 14.7708 88.3629C12.9697 86.6485 12.0944 84.308 12.0944 81.2098C12.0944 79.5984 12.1476 78.0072 12.2538 76.4798C12.3575 74.9812 12.5694 73.335 12.8837 71.5857C13.1941 69.8581 13.5891 68.2368 14.0589 66.7691C14.5096 65.3617 15.1244 63.9681 15.8868 62.6256C16.6145 61.3462 17.4517 60.2485 18.3755 59.364C19.2396 58.5367 20.3288 57.8595 21.6122 57.3517C22.7991 56.8819 24.133 56.6247 25.5811 56.586C25.7576 56.6798 26.0719 56.8589 26.5811 57.1909C27.6171 57.8661 28.8112 58.6364 30.1314 59.4795C31.6195 60.4283 33.5367 61.2852 35.8272 62.0246C38.1689 62.7818 40.5572 63.1663 42.9278 63.1663C45.2984 63.1663 47.6874 62.7818 50.0278 62.0253C52.3203 61.2845 54.2369 60.4283 55.7269 59.4782C57.0779 58.6147 58.2386 57.8667 59.2746 57.1909C59.7838 56.8596 60.098 56.6798 60.2745 56.586C61.7233 56.6247 63.0572 56.8819 64.2448 57.3517C65.5275 57.8595 66.6167 58.5373 67.4808 59.364C68.4046 60.2478 69.2418 61.3455 69.9695 62.6263C70.7326 63.9681 71.348 65.3624 71.7981 66.7684C72.2686 68.2382 72.6642 69.8588 72.9739 71.5851C73.2875 73.3376 73.5001 74.9845 73.6038 76.4804V76.4818C73.7107 78.0033 73.7645 79.5938 73.7652 81.2098C73.7645 84.3087 72.8893 86.6485 71.0882 88.3623Z" fill="#3F3F3F"/>
<line x1="10" y1="4.37114e-08" x2="10" y2="10" stroke="#008FFF" stroke-width="2"/>
<line x1="9" y1="1" x2="19" y2="1" stroke="#008FFF" stroke-width="2"/>
<line x1="9" y1="49" x2="19" y2="49" stroke="#008FFF" stroke-width="2"/>
<line x1="10" y1="50" x2="10" y2="40" stroke="#008FFF" stroke-width="2"/>
<line x1="79" y1="1" x2="69" y2="1" stroke="#008FFF" stroke-width="2"/>
<line x1="78" x2="78" y2="10" stroke="#008FFF" stroke-width="2"/>
<line x1="78" y1="50" x2="78" y2="40" stroke="#008FFF" stroke-width="2"/>
<line x1="79" y1="49" x2="69" y2="49" stroke="#008FFF" stroke-width="2"/>
</svg>
