<svg width="120" height="60" viewBox="0 0 120 60" fill="none" xmlns="http://www.w3.org/2000/svg">
<rect x="1" y="1" width="118" height="58" rx="4" fill="#F5F7F7" stroke="#008FFF" stroke-width="2"/>
<path d="M28.7432 27.3413C31.1256 27.3413 33.1883 26.4869 34.8741 24.801C36.5594 23.1155 37.4142 21.053 37.4142 18.6704C37.4142 16.2886 36.5597 14.2259 34.8738 12.5398C33.188 10.8545 31.1253 10 28.7432 10C26.3606 10 24.2981 10.8545 22.6126 12.54C20.927 14.2256 20.0723 16.2883 20.0723 18.6704C20.0723 21.053 20.927 23.1157 22.6126 24.8013C24.2987 26.4866 26.3614 27.3413 28.7432 27.3413ZM24.1045 14.0317C25.3979 12.7383 26.9151 12.1096 28.7432 12.1096C30.5711 12.1096 32.0885 12.7383 33.3822 14.0317C34.6755 15.3253 35.3045 16.8428 35.3045 18.6704C35.3045 20.4985 34.6755 22.0157 33.3822 23.3094C32.0885 24.603 30.5711 25.2317 28.7432 25.2317C26.9156 25.2317 25.3984 24.6027 24.1045 23.3094C22.8109 22.016 22.1819 20.4985 22.1819 18.6704C22.1819 16.8428 22.8109 15.3253 24.1045 14.0317Z" fill="#008FFF"/>
<path d="M43.9153 37.6824C43.8666 36.981 43.7683 36.2158 43.6236 35.4077C43.4775 34.5936 43.2893 33.8241 43.0641 33.1207C42.8312 32.3936 42.5151 31.6757 42.1237 30.9877C41.718 30.2736 41.2412 29.6517 40.7062 29.14C40.1467 28.6047 39.4617 28.1743 38.6696 27.8604C37.8802 27.5481 37.0054 27.3899 36.0697 27.3899C35.7022 27.3899 35.3468 27.5407 34.6604 27.9876C34.238 28.2631 33.7439 28.5817 33.1923 28.934C32.7208 29.2345 32.0819 29.516 31.2928 29.7709C30.5229 30.02 29.7413 30.1464 28.9695 30.1464C28.1982 30.1464 27.4166 30.02 26.6462 29.7709C25.8579 29.5163 25.2188 29.2348 24.748 28.9343C24.2017 28.5852 23.7073 28.2666 23.2786 27.9873C22.5928 27.5404 22.2374 27.3896 21.8699 27.3896C20.9338 27.3896 20.0593 27.5481 19.2702 27.8607C18.4787 28.1741 17.7934 28.6045 17.2334 29.1403C16.6983 29.6523 16.2215 30.2738 15.8161 30.9877C15.4253 31.6757 15.1089 32.3934 14.876 33.1209C14.651 33.8243 14.4629 34.5936 14.3168 35.4077C14.1718 36.2147 14.0737 36.9801 14.0251 37.6833C13.9773 38.3707 13.9531 39.0862 13.9531 39.8091C13.9531 41.6883 14.5505 43.2097 15.7285 44.3316C16.892 45.4388 18.4311 46.0002 20.3035 46.0002H37.6377C39.5095 46.0002 41.0487 45.4388 42.2124 44.3316C43.3907 43.2105 43.988 41.6886 43.988 39.8088C43.9878 39.0835 43.9633 38.368 43.9153 37.6824ZM40.7578 42.8032C39.989 43.5349 38.9684 43.8905 37.6374 43.8905H20.3035C18.9722 43.8905 17.9516 43.5349 17.1831 42.8034C16.4292 42.0858 16.0628 41.1061 16.0628 39.8091C16.0628 39.1346 16.085 38.4685 16.1295 37.8291C16.1729 37.2018 16.2616 36.5127 16.3932 35.7804C16.5231 35.0573 16.6884 34.3786 16.8851 33.7642C17.0738 33.175 17.3311 32.5917 17.6503 32.0297C17.9549 31.4941 18.3054 31.0346 18.6921 30.6644C19.0538 30.318 19.5097 30.0346 20.047 29.822C20.5438 29.6254 21.1022 29.5177 21.7084 29.5015C21.7822 29.5408 21.9138 29.6157 22.1269 29.7547C22.5606 30.0373 23.0605 30.3598 23.6131 30.7127C24.236 31.1099 25.0386 31.4686 25.9974 31.7781C26.9777 32.0951 27.9774 32.256 28.9698 32.256C29.9621 32.256 30.9621 32.0951 31.9418 31.7784C32.9015 31.4683 33.7038 31.1099 34.3275 30.7122C34.893 30.3507 35.3789 30.0376 35.8126 29.7547C36.0257 29.616 36.1573 29.5408 36.2312 29.5015C36.8376 29.5177 37.396 29.6254 37.8931 29.822C38.4301 30.0346 38.886 30.3183 39.2477 30.6644C39.6344 31.0344 39.9849 31.4939 40.2895 32.03C40.6089 32.5917 40.8666 33.1753 41.055 33.7639C41.2519 34.3791 41.4175 35.0575 41.5472 35.7802C41.6784 36.5138 41.7674 37.2032 41.8108 37.8294V37.8299C41.8556 38.4669 41.8781 39.1326 41.8784 39.8091C41.8781 41.1063 41.5117 42.0858 40.7578 42.8032Z" fill="#008FFF"/>
<line x1="58" y1="14" x2="83" y2="14" stroke="black" stroke-width="2"/>
<line x1="86" y1="14" x2="91" y2="14" stroke="black" stroke-width="2"/>
<line x1="58" y1="24" x2="99" y2="24" stroke="black" stroke-width="2"/>
<line x1="58" y1="34" x2="99" y2="34" stroke="black" stroke-width="2"/>
<line x1="58" y1="44" x2="99" y2="44" stroke="black" stroke-width="2" stroke-dasharray="3 3"/>
</svg>
