<svg width="22" height="28" viewBox="0 0 22 28" fill="none" xmlns="http://www.w3.org/2000/svg">
<path d="M16.2923 10.3335H5.19206C4.94696 10.3335 4.74805 10.5384 4.74805 10.7918C4.74805 11.0453 4.94696 11.2502 5.19206 11.2502H16.2923C16.5374 11.2502 16.7363 11.0453 16.7363 10.7918C16.7363 10.5384 16.5374 10.3335 16.2923 10.3335Z" fill="#008FFF"/>
<path d="M5.19206 7.58317H9.63216C9.87725 7.58317 10.0762 7.37829 10.0762 7.12484C10.0762 6.87138 9.87725 6.6665 9.63216 6.6665H5.19206C4.94696 6.6665 4.74805 6.87138 4.74805 7.12484C4.74805 7.37829 4.94696 7.58317 5.19206 7.58317Z" fill="#008FFF"/>
<path d="M16.2923 14H5.19206C4.94696 14 4.74805 14.2049 4.74805 14.4583C4.74805 14.7118 4.94696 14.9167 5.19206 14.9167H16.2923C16.5374 14.9167 16.7363 14.7118 16.7363 14.4583C16.7363 14.2049 16.5374 14 16.2923 14Z" fill="#008FFF"/>
<path d="M16.2923 17.6665H5.19206C4.94696 17.6665 4.74805 17.8714 4.74805 18.1248C4.74805 18.3783 4.94696 18.5832 5.19206 18.5832H16.2923C16.5374 18.5832 16.7363 18.3783 16.7363 18.1248C16.7363 17.8714 16.5374 17.6665 16.2923 17.6665Z" fill="#008FFF"/>
<path d="M16.2923 21.3335H5.19206C4.94696 21.3335 4.74805 21.5384 4.74805 21.7918C4.74805 22.0453 4.94696 22.2502 5.19206 22.2502H16.2923C16.5374 22.2502 16.7363 22.0453 16.7363 21.7918C16.7363 21.5384 16.5374 21.3335 16.2923 21.3335Z" fill="#008FFF"/>
<path d="M14.6998 0.25H0.307617V27.75H21.1761V6.93525L14.6998 0.25ZM14.96 1.81475L19.6603 6.66667H14.96V1.81475ZM1.19564 26.8333V1.16667H14.0719V7.58333H20.2881V26.8333H1.19564Z" fill="#008FFF"/>
</svg>
