<svg width="20" height="20" viewBox="0 0 20 20" fill="none" xmlns="http://www.w3.org/2000/svg">
<path d="M10.8107 19.9962H9.18155C8.56482 19.9962 8.06373 19.4951 8.06373 18.8784V16.8945C7.45728 16.7249 6.87653 16.4757 6.33432 16.1519L5.05461 17.4213C4.84389 17.6295 4.56379 17.7451 4.26828 17.7451C3.96762 17.7451 3.68495 17.6269 3.47424 17.4162L2.32558 16.2599C1.8913 15.823 1.89387 15.1137 2.33072 14.6795L3.66697 13.3535C3.42798 12.9012 3.23526 12.4258 3.09906 11.935H1.11782C0.501092 11.9325 0 11.4314 0 10.8146V9.18544C0 8.56872 0.501092 8.06763 1.11782 8.06763H3.10163C3.27123 7.46118 3.52049 6.88299 3.84428 6.33822L2.37184 4.85293C1.93756 4.41608 1.94013 3.70684 2.37955 3.27256L3.53591 2.12391C3.74663 1.91576 4.02416 1.80013 4.32224 1.80013C4.6229 1.80013 4.90556 1.91833 5.11628 2.12905L6.64525 3.67087C7.09752 3.42932 7.57548 3.23916 8.0663 3.10296V1.12173C8.0663 0.504998 8.56739 0.00390625 9.18412 0.00390625H10.8133C11.43 0.00390625 11.9311 0.504998 11.9311 1.12173V3.10553C12.4399 3.24687 12.9333 3.4473 13.401 3.7017L14.9428 2.17273C15.1535 1.96459 15.4311 1.84895 15.7292 1.84895C16.0298 1.84895 16.3125 1.96716 16.5232 2.17787L17.6718 3.33424C17.8826 3.54495 17.9956 3.82762 17.9956 4.12571C17.9956 4.42379 17.8774 4.70389 17.6667 4.9146L16.184 6.38704C16.4949 6.9164 16.7339 7.48173 16.8984 8.07019H18.8822C19.4989 8.07019 20 8.57129 20 9.18801V10.8146C20 11.4314 19.4989 11.9325 18.8822 11.9325H16.8984C16.757 12.4413 16.5566 12.9346 16.3022 13.4023L17.6282 14.7386C17.8389 14.9493 17.952 15.2319 17.952 15.53C17.952 15.8281 17.8338 16.1082 17.6231 16.3189L16.4667 17.4676C16.256 17.6757 15.9784 17.7914 15.6804 17.7914C15.3797 17.7914 15.097 17.6732 14.8863 17.4624L13.6195 16.1853C13.0901 16.4962 12.5273 16.7352 11.9389 16.8997V18.8835C11.9286 19.4951 11.4275 19.9962 10.8107 19.9962ZM6.2598 15.5069L6.43197 15.6148C7.03585 15.9977 7.69112 16.2804 8.3798 16.4526L8.57253 16.5014V18.8784C8.57253 19.215 8.84494 19.4874 9.18155 19.4874H10.8107C11.1474 19.4874 11.4198 19.215 11.4198 18.8784V16.5014L11.6125 16.4526C12.2832 16.2856 12.923 16.0131 13.5141 15.6431L13.6862 15.5352L15.2383 17.1001C15.354 17.2158 15.5056 17.28 15.67 17.28C15.8319 17.28 15.9836 17.2184 16.0992 17.1053L17.2556 15.9566C17.3712 15.8436 17.4329 15.6894 17.4354 15.5275C17.4354 15.363 17.3738 15.2114 17.2607 15.0958L15.6623 13.4871L15.76 13.3201C16.0684 12.783 16.3022 12.2126 16.4487 11.619L16.4975 11.4262H18.8745C19.2111 11.4262 19.4835 11.1538 19.4835 10.8172V9.18801C19.4835 8.85138 19.2111 8.579 18.8745 8.579H16.4975L16.4487 8.38627C16.2816 7.71558 16.0093 7.07315 15.6392 6.48212L15.5313 6.30995L17.2993 4.55485C17.4149 4.44178 17.4766 4.2876 17.4791 4.12571C17.4791 3.96124 17.4175 3.80963 17.3044 3.694L16.1558 2.53763C16.0401 2.42199 15.8885 2.35775 15.724 2.35775C15.5621 2.35775 15.4105 2.41942 15.2949 2.53249L13.4807 4.33385L13.3136 4.2362C12.7791 3.92784 12.2061 3.69657 11.6125 3.54752L11.4198 3.4987V1.12173C11.4198 0.785095 11.1474 0.512707 10.8108 0.512707H9.18157C8.84494 0.512707 8.57256 0.785095 8.57256 1.12173V3.4987L8.37983 3.54752C7.80164 3.69143 7.24659 3.91499 6.72237 4.21051L6.55277 4.30558L4.75398 2.48881C4.63834 2.37317 4.48673 2.30893 4.32227 2.30893C4.16038 2.30893 4.00876 2.3706 3.89313 2.48367L2.73676 3.63232C2.49778 3.86874 2.49778 4.25419 2.73419 4.49317L4.49187 6.2637L4.38394 6.43587C4.00105 7.03974 3.71839 7.69502 3.54622 8.38113L3.49739 8.57386H1.11782C0.78119 8.57386 0.508801 8.84624 0.508801 9.18287V10.8146C0.508801 11.1513 0.78119 11.4237 1.11782 11.4237H3.4948L3.54362 11.6164C3.68752 12.1946 3.91109 12.7496 4.2066 13.2712L4.30168 13.4409L2.69048 15.0392C2.4515 15.2756 2.4515 15.6611 2.68791 15.9001L3.83657 17.0564C3.9522 17.1721 4.10382 17.2363 4.26828 17.2363C4.43017 17.2363 4.58178 17.1746 4.69742 17.0615L6.2598 15.5069Z" fill="black"/>
<path d="M9.99606 13.8109C7.89404 13.8109 6.18262 12.0995 6.18262 9.99752C6.18262 7.8955 7.89404 6.18665 9.99606 6.18665C12.0981 6.18665 13.8095 7.89807 13.8095 10.0001C13.8095 12.1021 12.0981 13.8109 9.99606 13.8109ZM9.99606 6.69542C8.17414 6.69542 6.69142 8.17814 6.69142 10.0001C6.69142 11.822 8.17414 13.3021 9.99606 13.3021C11.818 13.3021 13.3007 11.8194 13.3007 9.99749C13.3007 8.17557 11.818 6.69542 9.99606 6.69542Z" fill="black"/>
</svg>
