<svg width="84" height="84" viewBox="0 0 84 84" fill="none" xmlns="http://www.w3.org/2000/svg">
<g clip-path="url(#clip0)">
<path d="M22.4074 31.1612H61.5936L63.2659 20.2909C64.907 9.62194 56.6522 0 45.8575 0H38.143C27.3483 0 19.0935 9.62194 20.735 20.2911L22.4074 31.1612Z" fill="#5A4650"/>
<path d="M68.681 60.6063L54.4017 56.4065C52.6718 55.8977 51.484 54.3101 51.484 52.507V46.0645H32.5165V52.507C32.5165 54.3101 31.3287 55.8977 29.5989 56.4065L15.3195 60.6063C11.8599 61.6238 9.48413 64.7989 9.48413 68.405V79.9355C9.48413 82.1802 11.3039 83.9999 13.5486 83.9999H70.4519C72.6966 83.9999 74.5164 82.1802 74.5164 79.9355V68.405C74.5164 64.7989 72.1408 61.6238 68.681 60.6063Z" fill="#E3AA75"/>
<path d="M68.681 60.6074L54.4017 56.4076C54.1602 56.3365 55.7672 57.0151 55.5485 56.9043L41.9994 60.9688L28.4516 56.9043C28.233 57.0151 29.8399 56.3365 29.5984 56.4076L15.3195 60.6074C11.8599 61.6249 9.48413 64.8 9.48413 68.4061V79.9366C9.48413 82.1813 11.3039 84.0011 13.5486 84.0011H70.4519C72.6966 84.0011 74.5164 82.1813 74.5164 79.9366V68.4061C74.5164 64.8 72.1408 61.6249 68.681 60.6074Z" fill="#5A4650"/>
<path d="M55.0835 59.1487L53.468 57.5332L42 59.6135L30.5321 57.5332L28.9166 59.1487C26.8838 61.1813 25.7419 63.9382 25.7419 66.8129V84.0007H58.2581V66.8129C58.2581 63.9382 57.1163 61.1813 55.0835 59.1487Z" fill="#A5CDFF"/>
<path d="M55.0835 59.1487L53.468 57.5332L42 59.6135L30.5321 57.5332L28.9166 59.1487C28.2515 59.8137 27.6925 60.5621 27.2271 61.3611L32.2331 67.0823C33.0048 67.9645 34.1198 68.4703 35.2922 68.4703C36.3776 68.4703 37.3983 68.0475 38.1661 67.2797L42 63.4457L45.8342 67.2798C46.6017 68.0475 47.6223 68.4703 48.7079 68.4703C49.8803 68.4703 50.9954 67.9643 51.7672 67.0821L56.7732 61.3611C56.3076 60.5623 55.7486 59.8138 55.0835 59.1487Z" fill="#8CB4EB"/>
<path d="M40.0433 66.3867L37.9358 83.9996H46.0646L43.9571 66.3867H40.0433Z" fill="#5A4650"/>
<path d="M43.733 67.7424H40.2667C39.6835 67.7424 39.1659 67.3692 38.9815 66.8159L36.5806 59.6133H47.4194L45.0185 66.8159C44.8339 67.3693 44.3163 67.7424 43.733 67.7424Z" fill="#64505A"/>
<path d="M32.5161 49.0878C35.3624 50.6082 38.5904 51.4838 41.9999 51.4838C45.4095 51.4838 48.6374 50.6082 51.4837 49.0878V46.0645H32.5161V49.0878Z" fill="#CE925A"/>
<path d="M31.6113 53.8418L28.0413 58.1765L34.2723 65.2976C34.7885 65.8874 35.6958 65.9176 36.25 65.3634L42 59.6135L31.6113 53.8418Z" fill="#A5CDFF"/>
<path d="M52.3889 53.8418L55.9589 58.1765L49.7278 65.2976C49.2117 65.8874 48.3044 65.9176 47.7502 65.3634L42 59.6135L52.3889 53.8418Z" fill="#A5CDFF"/>
<path d="M18.9679 83.9999L16.5809 74.6133C16.38 73.709 16.6549 72.7644 17.31 72.1093L21.6775 67.7418L19.6681 64.7277C19.1951 64.0181 19.0937 63.1272 19.3629 62.3179C22.5935 52.6095 32.5162 50.1289 32.5162 50.1289V52.7423C32.5162 54.5389 31.8025 56.2619 30.532 57.5324L28.9165 59.1479C26.8837 61.1805 25.7419 63.9374 25.7419 66.8121V83.9999" fill="#64505A"/>
<path d="M65.0322 83.9999L67.4191 74.6133C67.6201 73.709 67.3451 72.7644 66.69 72.1093L62.3225 67.7418L64.3319 64.7277C64.8049 64.0181 64.9063 63.1272 64.6371 62.3179C61.4065 52.6095 51.4839 50.1289 51.4839 50.1289V52.7423C51.4839 54.5389 52.1976 56.2619 53.4681 57.5324L55.0836 59.1479C57.1161 61.1805 58.2582 63.9374 58.2582 66.8121V83.9999" fill="#64505A"/>
<path d="M60.1716 25.7423H60.1132C58.4659 25.7423 57.2423 24.2168 57.5996 22.6089C58.6329 17.9593 55.0949 13.5488 50.3318 13.5488H33.6685C28.9056 13.5488 25.3676 17.9593 26.4007 22.6089C26.758 24.2168 25.5344 25.7423 23.8871 25.7423H23.8287C22.2861 25.7423 20.8455 26.7198 20.4458 28.2096C19.8414 30.4629 21.5475 32.5164 23.7099 32.5164H24.4557C25.1497 41.6086 32.7302 48.7745 42.0002 48.7745C51.2702 48.7745 58.8507 41.6086 59.5447 32.5164H60.2906C62.4529 32.5164 64.159 30.4629 63.5546 28.2096C63.1548 26.7198 61.7141 25.7423 60.1716 25.7423Z" fill="#F5B97D"/>
<path d="M29.8064 31.1616V23.0326C29.8064 19.2913 32.8393 16.2585 36.5806 16.2585H47.4194C48.9158 16.2585 50.1289 15.0452 50.1285 13.5488H33.6683C28.9016 13.5488 25.3618 17.9662 26.403 22.6198C26.7618 24.2236 25.5303 25.7424 23.8869 25.7424H23.8287C22.2861 25.7424 20.8455 26.7199 20.4459 28.2098C19.8415 30.463 21.5474 32.5167 23.7097 32.5167H24.4555C25.1495 41.6089 32.73 48.7748 42.0001 48.7748C42.9269 48.7748 43.8305 48.6846 44.7183 48.5465C36.2766 47.2435 29.8064 39.968 29.8064 31.1616Z" fill="#E3AA75"/>
<path d="M45.8571 0H38.1425C36.6624 0 35.2365 0.196219 33.8708 0.535992V1.35483C33.8708 6.59252 38.117 10.8386 43.3546 10.8386H62.1203C59.4859 4.53928 53.2711 0 45.8571 0Z" fill="#64505A"/>
<path d="M33.8709 29.8067C33.122 29.8067 32.5161 29.2006 32.5161 28.4518V27.097C32.5161 26.3481 33.1222 25.7422 33.8709 25.7422C34.6197 25.7422 35.2258 26.3482 35.2258 27.097V28.4518C35.2259 29.2008 34.6199 29.8067 33.8709 29.8067Z" fill="#5A4650"/>
<path d="M50.129 29.8067C49.3801 29.8067 48.7742 29.2006 48.7742 28.4518V27.097C48.7742 26.3481 49.3802 25.7422 50.129 25.7422C50.8779 25.7422 51.4838 26.3482 51.4838 27.097V28.4518C51.4838 29.2008 50.8779 29.8067 50.129 29.8067Z" fill="#5A4650"/>
<path d="M42.0003 39.2891C39.9667 39.2891 38.0918 38.6368 36.9844 37.544C36.4512 37.0174 36.4459 36.1601 36.9711 35.6282C37.499 35.095 38.3564 35.0898 38.8868 35.6149C39.338 36.0596 40.423 36.5795 42.0001 36.5795C43.5772 36.5795 44.6622 36.0596 45.1133 35.6149C45.6439 35.0896 46.5013 35.095 47.0291 35.6282C47.5544 36.1601 47.549 37.0175 47.0158 37.544C45.9087 38.6368 44.0338 39.2891 42.0003 39.2891Z" fill="#B67F5F"/>
<path d="M35.2261 24.3874H32.5165C31.7675 24.3874 31.1616 23.7813 31.1616 23.0326C31.1616 22.2838 31.7677 21.6777 32.5165 21.6777H35.2261C35.9751 21.6777 36.5809 22.2838 36.5809 23.0326C36.5809 23.7813 35.9749 24.3874 35.2261 24.3874Z" fill="#B67F5F"/>
<path d="M51.4839 24.3874H48.7743C48.0253 24.3874 47.4194 23.7813 47.4194 23.0326C47.4194 22.2838 48.0255 21.6777 48.7743 21.6777H51.4839C52.2329 21.6777 52.8387 22.2838 52.8387 23.0326C52.8387 23.7813 52.2329 24.3874 51.4839 24.3874Z" fill="#B67F5F"/>
</g>
<defs>
<clipPath id="clip0">
<rect width="84" height="84" fill="white"/>
</clipPath>
</defs>
</svg>
