<svg width="300" height="300" viewBox="0 0 300 300" fill="none" xmlns="http://www.w3.org/2000/svg">
<rect x="0.5" y="0.5" width="299" height="299" fill="#F5F7F7" stroke="#DADCE0"/>
<path d="M247.5 67.4999C247.687 67.4999 152.437 30.9374 150 30C148.125 30.7498 52.3122 67.4999 52.4998 67.4999V136.5C52.4998 184.312 66.1874 246.75 150 270C233.625 246.749 247.312 183.187 247.312 136.5C247.5 112.875 247.5 67.4999 247.5 67.4999Z" fill="#D9DEE1"/>
<path d="M52.4998 136.5C52.4998 184.313 66.1874 246.75 150 270V30C146.437 31.3125 52.4998 67.4999 52.4998 67.4999C52.4998 67.4999 52.5002 136.5 52.4998 136.5Z" fill="#BCC6CA"/>
<path d="M228.562 80.4376C228.75 80.4376 151.875 49.4999 149.812 48.7501C148.124 49.3128 70.8748 79.1251 71.0624 78.9375V136.875C71.0624 177 78.9376 231.75 149.812 251.25C220.5 231.75 228.562 176.062 228.562 136.875C228.75 117 228.75 80.4376 228.562 80.4376Z" fill="#008FFF"/>
<path d="M150 48.7501C148.312 49.3128 71.0623 79.1251 71.2499 78.9375V136.875C71.2499 177 79.1251 231.75 150 251.25V48.7501Z" fill="#008FFF"/>
<g clip-path="url(#clip0)">
<path d="M153.53 154.748C157.437 152.886 158.712 147.411 156.39 142.547C154.064 137.666 149.008 135.209 145.101 137.071C141.194 138.933 139.919 144.408 142.245 149.289C144.571 154.162 149.627 156.618 153.53 154.748Z" fill="white"/>
<path d="M165.239 125.623C168.995 149.134 152.263 166.758 152.263 166.758C152.263 166.758 138.469 143.418 115.271 136.374C160.395 169.37 134.712 210.505 134.712 210.505H147.774C147.778 210.505 178.137 158.109 165.239 125.623Z" fill="white"/>
<path d="M139.772 128.308C139.52 127.933 139.263 127.534 139.006 127.094C137.813 125.032 137.267 123.118 137.267 123.118C137.267 123.118 138.644 124.56 139.838 126.609C140.086 127.045 140.302 127.473 140.502 127.88C140.689 126.898 140.909 124.882 139.956 123.22C138.64 120.942 135.609 120.233 135.609 120.233C135.609 120.233 134.704 123.215 136.02 125.497C136.974 127.159 138.831 127.978 139.772 128.308Z" fill="white"/>
<path d="M169.728 145.602C170.486 146.254 172.124 147.452 174.035 147.452C176.666 147.452 178.793 145.174 178.793 145.174C178.793 145.174 176.67 142.901 174.035 142.901C172.124 142.901 170.486 144.099 169.728 144.751C170.18 144.718 170.653 144.694 171.162 144.694C173.542 144.694 175.485 145.166 175.485 145.166C175.485 145.166 173.542 145.647 171.162 145.643C170.649 145.663 170.18 145.635 169.728 145.602Z" fill="white"/>
<path d="M160.171 126.617C161.357 124.556 162.742 123.118 162.742 123.118C162.742 123.118 162.192 125.041 160.998 127.102C160.745 127.534 160.489 127.941 160.228 128.316C161.181 127.986 163.035 127.163 163.984 125.513C165.304 123.228 164.408 120.241 164.408 120.241C164.408 120.241 161.369 120.962 160.057 123.232C159.104 124.886 159.316 126.898 159.507 127.892C159.694 127.481 159.914 127.053 160.171 126.617Z" fill="white"/>
<path d="M148.939 114.208C148.939 108.907 150.002 104.618 150.002 104.618C150.002 104.618 151.07 108.916 151.07 114.208C151.07 115.328 151.017 116.387 150.935 117.389C152.394 115.707 155.054 112.061 155.054 107.807C155.054 101.957 150.002 97.2191 150.002 97.2191C150.002 97.2191 144.95 101.957 144.95 107.807C144.95 112.061 147.611 115.703 149.065 117.389C148.992 116.387 148.939 115.332 148.939 114.208Z" fill="white"/>
<path d="M115.117 130.871C118.803 132.997 123.285 132.512 125.473 132.093C124.568 131.669 123.619 131.172 122.653 130.618C118.066 127.974 114.88 124.906 114.88 124.906C114.88 124.906 119.129 126.128 123.717 128.776C124.686 129.339 125.579 129.909 126.41 130.484C125.684 128.373 123.863 124.25 120.172 122.124C115.112 119.194 108.48 121.199 108.48 121.199C108.48 121.199 110.053 127.949 115.117 130.871Z" fill="white"/>
<path d="M184.884 159.482C181.201 157.36 176.719 157.836 174.532 158.256C175.44 158.684 176.385 159.181 177.355 159.735C181.938 162.383 185.128 165.447 185.128 165.447C185.128 165.447 180.879 164.229 176.287 161.58C175.318 161.014 174.426 160.444 173.599 159.869C174.324 161.98 176.145 166.098 179.828 168.225C184.888 171.154 191.524 169.15 191.524 169.15C191.524 169.15 189.944 162.403 184.884 159.482Z" fill="white"/>
<path d="M126.401 159.882C125.57 160.448 124.682 161.018 123.712 161.584C119.125 164.224 114.872 165.459 114.872 165.459C114.872 165.459 118.058 162.387 122.645 159.739C123.619 159.173 124.564 158.696 125.468 158.26C123.285 157.836 118.795 157.352 115.112 159.486C110.048 162.407 108.468 169.154 108.468 169.154C108.468 169.154 115.1 171.158 120.164 168.237C123.855 166.103 125.676 161.984 126.401 159.882Z" fill="white"/>
<path d="M173.603 130.467C174.43 129.901 175.322 129.331 176.3 128.768C180.883 126.12 185.132 124.898 185.132 124.898C185.132 124.898 181.95 127.966 177.359 130.61C176.389 131.172 175.44 131.661 174.544 132.085C176.723 132.508 181.213 132.997 184.888 130.862C189.956 127.937 191.532 121.191 191.532 121.191C191.532 121.191 184.904 119.19 179.844 122.116C176.149 124.242 174.324 128.365 173.603 130.467Z" fill="white"/>
<path d="M130.288 113.544C129.53 112.432 128.76 111.234 128.007 109.93C124.454 103.787 122.812 98.083 122.812 98.083C122.812 98.083 126.927 102.353 130.476 108.512C131.229 109.808 131.877 111.075 132.455 112.293C133.026 109.364 133.674 103.355 130.822 98.417C126.903 91.6257 117.858 89.5072 117.858 89.5072C117.858 89.5072 115.174 98.3967 119.093 105.184C121.945 110.126 127.477 112.566 130.288 113.544Z" fill="white"/>
<path d="M169.72 176.813C170.478 177.925 171.256 179.119 172.006 180.418C175.562 186.586 177.2 192.274 177.2 192.274C177.2 192.274 173.085 188 169.529 181.848C168.779 180.545 168.127 179.278 167.549 178.068C166.991 180.997 166.339 186.994 169.187 191.936C173.11 198.723 182.15 200.849 182.15 200.849C182.15 200.849 184.847 191.952 180.924 185.165C178.064 180.227 172.535 177.787 169.72 176.813Z" fill="white"/>
<path d="M108.48 146.608C101.379 146.608 95.6223 145.174 95.6223 145.174C95.6223 145.174 101.379 143.74 108.48 143.74C109.987 143.74 111.409 143.822 112.749 143.92C110.497 141.964 105.616 138.395 99.9041 138.395C92.0698 138.399 85.7144 145.174 85.7144 145.174C85.7144 145.174 92.0739 151.954 99.9041 151.949C105.612 151.949 110.492 148.385 112.745 146.433C111.405 146.535 109.979 146.608 108.48 146.608Z" fill="white"/>
<path d="M200.1 138.412C194.397 138.412 189.516 141.964 187.259 143.928C188.603 143.826 190.029 143.749 191.525 143.753C198.63 143.753 204.382 145.183 204.382 145.183C204.382 145.183 198.63 146.617 191.533 146.617C190.029 146.617 188.603 146.539 187.259 146.441C189.512 148.393 194.397 151.958 200.1 151.958C207.939 151.958 214.286 145.191 214.286 145.191C214.286 145.191 207.931 138.403 200.1 138.412Z" fill="white"/>
<path d="M130.479 181.852C126.927 188.004 122.812 192.278 122.812 192.278C122.812 192.278 124.45 186.574 128.002 180.422C128.76 179.127 129.53 177.933 130.292 176.809C127.473 177.787 121.94 180.231 119.088 185.173C115.165 191.96 117.854 200.858 117.854 200.858C117.854 200.858 126.902 198.739 130.822 191.952C133.677 187.01 133.03 180.997 132.463 178.076C131.873 179.282 131.225 180.537 130.479 181.852Z" fill="white"/>
<path d="M169.529 108.5C173.077 102.348 177.192 98.0788 177.192 98.0788C177.192 98.0788 175.554 103.778 171.998 109.926C171.248 111.218 170.478 112.423 169.72 113.536C172.536 112.562 178.068 110.118 180.916 105.18C184.839 98.3925 182.15 89.4908 182.15 89.4908C182.15 89.4908 173.11 91.6134 169.187 98.4007C166.323 103.342 166.975 109.352 167.541 112.277C168.127 111.075 168.771 109.808 169.529 108.5Z" fill="white"/>
</g>
<defs>
<clipPath id="clip0">
<rect width="128.571" height="128.571" fill="white" transform="translate(85.7144 85.7142)"/>
</clipPath>
</defs>
</svg>
