<svg width="300" height="300" viewBox="0 0 300 300" fill="none" xmlns="http://www.w3.org/2000/svg">
<rect x="0.5" y="0.5" width="299" height="299" fill="#F5F7F7" stroke="#DADCE0"/>
<path d="M247.5 67.4999C247.687 67.4999 152.437 30.9374 150 30C148.125 30.7498 52.3122 67.4999 52.4998 67.4999V136.5C52.4998 184.312 66.1874 246.75 150 270C233.625 246.749 247.312 183.187 247.312 136.5C247.5 112.875 247.5 67.4999 247.5 67.4999Z" fill="#D9DEE1"/>
<path d="M52.4998 136.5C52.4998 184.313 66.1874 246.75 150 270V30C146.437 31.3125 52.4998 67.4999 52.4998 67.4999C52.4998 67.4999 52.5002 136.5 52.4998 136.5Z" fill="#BCC6CA"/>
<path d="M228.562 80.4376C228.75 80.4376 151.875 49.4999 149.812 48.7501C148.124 49.3128 70.8748 79.1251 71.0624 78.9375V136.875C71.0624 177 78.9376 231.75 149.812 251.25C220.5 231.75 228.562 176.062 228.562 136.875C228.75 117 228.75 80.4376 228.562 80.4376Z" fill="#008FFF"/>
<path d="M150 48.7501C148.312 49.3128 71.0624 79.1251 71.25 78.9375V136.875C71.25 177 79.1252 231.75 150 251.25V48.7501Z" fill="#008FFF"/>
<g clip-path="url(#clip0)">
<path d="M200.831 134.861C199.342 118.474 187.743 106.584 173.227 106.584C163.556 106.584 154.701 111.788 149.719 120.129C144.781 111.68 136.289 106.582 126.773 106.582C112.259 106.582 100.658 118.472 99.1707 134.859C99.053 135.583 98.5704 139.393 100.038 145.605C102.152 154.566 107.037 162.717 114.16 169.17L149.695 201.418L185.84 169.172C192.963 162.717 197.848 154.568 199.962 145.605C201.43 139.395 200.947 135.585 200.831 134.861ZM196.143 144.707C194.213 152.891 189.738 160.347 183.216 166.255L149.719 196.141L116.796 166.263C110.262 160.343 105.789 152.889 103.857 144.705C102.468 138.826 103.039 135.505 103.041 135.483L103.07 135.285C104.346 120.928 114.313 110.505 126.773 110.505C135.967 110.505 144.061 116.155 147.902 125.247L149.709 129.529L151.515 125.247C155.295 116.294 163.817 110.507 173.229 110.507C185.687 110.507 195.656 120.93 196.957 135.473C196.961 135.505 197.532 138.828 196.143 144.707Z" fill="white"/>
</g>
<defs>
<clipPath id="clip0">
<rect width="128.571" height="128.571" fill="white" transform="translate(85.7142 89.7142)"/>
</clipPath>
</defs>
</svg>