<svg width="20" height="20" viewBox="0 0 20 20" fill="none" xmlns="http://www.w3.org/2000/svg">
<path d="M10.5718 8.67026C10.3522 8.88981 10.3522 9.24192 10.5718 9.46148C11.479 10.3687 11.479 11.8434 10.5718 12.7506L5.80791 17.5145C4.9007 18.4217 3.42597 18.4217 2.51876 17.5145L1.80211 16.7978C0.894903 15.8906 0.894903 14.4159 1.80211 13.5087L6.56599 8.74482C6.78554 8.52527 6.78554 8.17316 6.56599 7.9536C6.34644 7.73405 5.99432 7.73405 5.77477 7.9536L1.01089 12.7175C0.36052 13.3679 0.00012207 14.2336 0.00012207 15.1533C0.00012207 16.0729 0.356377 16.9387 1.01089 17.5891L1.72755 18.3057C2.39863 18.9768 3.28098 19.3123 4.16334 19.3123C5.04569 19.3123 5.92804 18.9768 6.59913 18.3057L11.363 13.5418C12.7052 12.1997 12.7052 10.0124 11.363 8.67026C11.1476 8.45071 10.7913 8.45071 10.5718 8.67026Z" fill="#008FFF"/>
<path d="M18.9935 2.4109L18.2769 1.69425C16.9347 0.352079 14.7474 0.352079 13.4053 1.69425L8.64139 6.45813C7.29922 7.8003 7.29922 9.98754 8.64139 11.3297C8.86095 11.5493 9.21306 11.5493 9.43261 11.3297C9.65216 11.1102 9.65216 10.758 9.43261 10.5385C8.5254 9.63128 8.5254 8.15655 9.43261 7.24935L14.1965 2.48547C15.1037 1.57826 16.5784 1.57826 17.4856 2.48547L18.2023 3.20212C19.1095 4.10933 19.1095 5.58406 18.2023 6.49127L13.4384 11.2551C13.2189 11.4747 13.2189 11.8268 13.4384 12.0464C13.5461 12.1541 13.6911 12.2121 13.8319 12.2121C13.9728 12.2121 14.1178 12.1582 14.2255 12.0464L18.9894 7.28249C19.6397 6.63211 20.0001 5.76633 20.0001 4.84669C20.0001 3.92706 19.6439 3.06128 18.9935 2.4109Z" fill="#008FFF"/>
</svg>
