<svg width="20" height="20" viewBox="0 0 20 20" fill="none" xmlns="http://www.w3.org/2000/svg">
<path d="M18.338 15.1296L15.1537 13.5376C14.8533 13.3872 14.6667 13.0853 14.6667 12.7493V11.6223C14.743 11.5289 14.8233 11.4226 14.9063 11.3053C15.3193 10.7219 15.6503 10.0726 15.891 9.37225C16.3613 9.15658 16.6667 8.69158 16.6667 8.16658V6.83325C16.6667 6.51225 16.5467 6.20125 16.3333 5.95825V4.18525C16.352 4.00192 16.4253 2.91058 15.636 2.01025C14.9513 1.22925 13.8403 0.833252 12.3333 0.833252C10.8263 0.833252 9.71533 1.22925 9.03067 2.00992C8.55233 2.55559 8.39133 3.17025 8.34267 3.61158C7.77133 3.31625 7.098 3.16658 6.33333 3.16658C2.87033 3.16658 2.66867 6.11825 2.66667 6.16658V7.69292C2.45067 7.92825 2.33333 8.19992 2.33333 8.46958V9.62092C2.33333 9.98058 2.49433 10.3159 2.77033 10.5426C3.04533 11.5793 3.72167 12.3626 3.985 12.6376V13.5519C3.985 13.8142 3.84233 14.0549 3.59467 14.1902L1.377 15.5812C0.527667 16.0446 0 16.9336 0 17.9009V19.1666H4.66667H5.33333H20V17.8189C20 16.6729 19.363 15.6423 18.338 15.1296ZM4.66667 17.7539V18.4999H0.666667V17.9009C0.666667 17.1776 1.06133 16.5129 1.71367 16.1566L3.931 14.7656C4.37533 14.5233 4.65133 14.0586 4.65133 13.5519V12.3549L4.54533 12.2559C4.53667 12.2479 3.651 11.4113 3.38933 10.2709L3.359 10.1389L3.245 10.0656C3.09167 9.96625 3 9.79992 3 9.62092V8.46958C3 8.34958 3.08167 8.20692 3.22367 8.07825L3.33333 7.97925L3.33267 6.18592C3.33867 6.09025 3.51233 3.83325 6.33333 3.83325C7.131 3.83325 7.80267 4.01758 8.33333 4.38125V5.95825C8.12 6.20125 8 6.51225 8 6.83325V8.16658C8 8.26792 8.01167 8.36758 8.03367 8.46425C8.04267 8.50292 8.06067 8.53825 8.073 8.57558C8.09133 8.63158 8.106 8.68925 8.13167 8.74225C8.132 8.74292 8.13233 8.74325 8.13267 8.74392C8.218 8.91992 8.34233 9.07725 8.499 9.20292C8.50067 9.20925 8.50267 9.21492 8.50433 9.22092C8.52433 9.29725 8.54533 9.37325 8.568 9.44758L8.595 9.53458C8.59967 9.54992 8.60533 9.56558 8.61033 9.58092C8.622 9.61692 8.63333 9.65258 8.64533 9.68792C8.66533 9.74625 8.68633 9.80658 8.71067 9.87225C8.721 9.89958 8.73233 9.92425 8.743 9.95125C8.77033 10.0209 8.79767 10.0883 8.82633 10.1549C8.83333 10.1709 8.83933 10.1883 8.84633 10.2039L8.865 10.2459C8.87367 10.2653 8.88267 10.2826 8.89133 10.3016C8.924 10.3729 8.956 10.4419 8.98933 10.5086C8.99467 10.5192 8.99967 10.5309 9.005 10.5416C9.026 10.5833 9.047 10.6226 9.068 10.6626C9.104 10.7313 9.13933 10.7959 9.17467 10.8586C9.192 10.8893 9.209 10.9193 9.226 10.9483C9.274 11.0303 9.31967 11.1056 9.364 11.1756C9.37367 11.1906 9.383 11.2063 9.39233 11.2206C9.473 11.3456 9.543 11.4469 9.601 11.5259C9.61633 11.5469 9.62967 11.5649 9.64267 11.5826C9.65 11.5923 9.66 11.6063 9.66633 11.6149V12.7179C9.66633 13.0406 9.49033 13.3366 9.20733 13.4913L8.32533 13.9722L8.17167 13.9586L8.109 14.0903L6.23367 15.1132C5.267 15.6412 4.66667 16.6526 4.66667 17.7539ZM19.3333 18.4999H5.33333V17.7539C5.33333 16.8969 5.80067 16.1092 6.553 15.6992L9.52667 14.0772C10.0243 13.8056 10.3333 13.2846 10.3333 12.7182V11.3789V11.3786L10.2687 11.3013L10.256 11.2863C10.2553 11.2853 10.2347 11.2603 10.201 11.2162C10.199 11.2136 10.197 11.2109 10.1947 11.2083C10.177 11.1853 10.1563 11.1576 10.1327 11.1246C10.1323 11.1239 10.132 11.1236 10.1317 11.1229C10.082 11.0539 10.0197 10.9643 9.95033 10.8563C9.94867 10.8539 9.94733 10.8513 9.94567 10.8489C9.913 10.7979 9.87833 10.7423 9.843 10.6833C9.84033 10.6789 9.83767 10.6746 9.835 10.6699C9.75967 10.5436 9.67967 10.4006 9.6 10.2423C9.6 10.2423 9.59967 10.2419 9.59967 10.2416C9.55733 10.1566 9.515 10.0673 9.47367 9.97425C9.468 9.96125 9.462 9.94858 9.45633 9.93558C9.438 9.89392 9.41967 9.85025 9.401 9.80525C9.39433 9.78892 9.38767 9.77192 9.381 9.75525C9.36367 9.71158 9.346 9.66758 9.32733 9.61725C9.29333 9.52658 9.26133 9.43192 9.23067 9.33425L9.21233 9.27492C9.21033 9.26825 9.208 9.26158 9.206 9.25458C9.17467 9.14925 9.14467 9.04158 9.11933 8.93092L9.089 8.79892L8.97533 8.72558C8.782 8.60092 8.66667 8.39192 8.66667 8.16658V6.83325C8.66667 6.64625 8.746 6.47192 8.89 6.34158L9 6.24258V4.16658V4.04858L8.991 4.04158C8.97967 3.80092 8.994 3.06325 9.532 2.44959C10.0843 1.81925 11.027 1.49992 12.3333 1.49992C13.635 1.49992 14.5757 1.81692 15.1287 2.44259C15.7777 3.17625 15.6703 4.11492 15.6697 4.12292L15.6667 6.24258L15.7767 6.34192C15.9207 6.47192 16 6.64625 16 6.83325V8.16658C16 8.45758 15.8093 8.71225 15.526 8.79958L15.36 8.85058L15.3067 9.01558C15.0837 9.70925 14.766 10.3499 14.362 10.9199C14.263 11.0603 14.1667 11.1846 14.083 11.2796L14 11.3743V12.7493C14 13.3393 14.3277 13.8696 14.8553 14.1336L18.0397 15.7256C18.8377 16.1246 19.3333 16.9266 19.3333 17.8189V18.4999Z" fill="black"/>
</svg>
