<svg width="344" height="111" viewBox="0 0 344 111" fill="none" xmlns="http://www.w3.org/2000/svg">
<g clip-path="url(#clip0)">
<g filter="url(#filter0_d)">
<rect y="0.0944824" width="344" height="110" rx="4" fill="white"/>
<rect y="0.0944824" width="344" height="110" rx="4" stroke="#83959D"/>
</g>
<mask id="mask0" mask-type="alpha" maskUnits="userSpaceOnUse" x="0" y="0" width="344" height="111">
<rect y="0.0944824" width="344" height="110" rx="4" fill="white"/>
</mask>
<g mask="url(#mask0)">
<rect x="336.5" y="89.0945" width="43" height="43" transform="rotate(45 336.5 89.0945)" fill="url(#paint0_linear)" fill-opacity="0.4"/>
<rect x="274.5" y="-38.9055" width="43" height="43" transform="rotate(45 274.5 -38.9055)" fill="url(#paint1_linear)" fill-opacity="0.4"/>
<rect x="317.406" y="89.0945" width="43" height="43" transform="rotate(45 317.406 89.0945)" fill="url(#paint2_linear)" fill-opacity="0.4"/>
<rect x="255.406" y="-38.9055" width="43" height="43" transform="rotate(45 255.406 -38.9055)" fill="url(#paint3_linear)" fill-opacity="0.4"/>
</g>
</g>
<rect x="0.25" y="0.25" width="343.5" height="110.5" rx="3.75" stroke="#83959D" stroke-width="0.5"/>
<path fill-rule="evenodd" clip-rule="evenodd" d="M255.659 46.9346L260.321 44.2573L255.659 46.9346ZM255.527 46.8083L258.332 45.1979L255.527 46.8083ZM260.498 44.1559L265.161 41.4787H265.161L260.498 44.1559ZM260.5 43.9531L268.106 39.5857L260.5 43.9531ZM265.337 41.3773L270 38.6999L265.337 41.3773ZM270.177 38.5986L274.315 36.2224L270.177 38.5986ZM270.179 38.3958L273.544 36.4638L270.179 38.3958ZM275.016 35.82L279.638 33.1658L275.016 35.82ZM275.018 35.6171L279.724 32.915L275.018 35.6172" fill="#D5E8F1"/>
<path fill-rule="evenodd" clip-rule="evenodd" d="M274.955 41.0828L279.578 38.4286L274.955 41.0828ZM274.781 40.9814L274.839 35.9213L274.781 40.9814ZM274.958 40.88L274.987 38.3578L274.958 40.88L276.996 39.7094L274.958 40.88ZM279.757 38.1245L279.815 33.068L279.855 33.045L279.797 38.1051V38.1013L279.757 38.1245ZM275.016 35.8199L275.018 35.617L279.858 32.8384V32.8422L279.684 32.9418L279.641 32.9666L279.638 33.1657L275.016 35.8199Z" fill="#D5E8F1"/>
<path fill-rule="evenodd" clip-rule="evenodd" d="M270.116 43.8615L274.779 41.1842L270.116 43.8615ZM270.118 43.6586L270.147 41.1363L270.118 43.6586L274.781 40.9814L274.839 35.9212L270.177 38.5984L270.179 38.3957L275.018 35.6169L274.958 40.88L274.781 40.9814L270.118 43.6586Z" fill="#D5E8F1"/>
<path fill-rule="evenodd" clip-rule="evenodd" d="M265.277 46.6402L267.383 45.4307L265.277 46.6402ZM265.279 46.4374L265.34 41.1745L265.163 41.2759L270.179 38.3958L270.118 43.6587L269.942 43.7601L267.698 45.0486L269.942 43.7601L270 38.6999L265.337 41.3772L265.279 46.4374ZM265.132 43.9863L265.161 41.4786H265.161L265.132 43.9863Z" fill="#D5E8F1"/>
<path fill-rule="evenodd" clip-rule="evenodd" d="M260.438 49.4187V49.4186L260.44 49.2159L265.102 46.5386L265.161 41.4785L260.498 44.1557L260.468 46.7636L260.5 43.9529L265.163 41.2757L265.34 41.1743L265.279 46.4373L265.102 46.5386L265.1 46.7414L260.438 49.4187Z" fill="#D5E8F1"/>
<path fill-rule="evenodd" clip-rule="evenodd" d="M255.421 52.2987L255.484 46.8329L255.527 46.8081L260.5 43.9529L260.437 49.4186L260.44 49.2158L255.424 52.0959L255.422 52.2987H255.421ZM255.659 46.9344L255.6 51.9945L260.263 49.3172L260.321 44.257L255.659 46.9344Z" fill="#D5E8F1"/>
<path fill-rule="evenodd" clip-rule="evenodd" d="M274.895 46.3459L279.518 43.6917L274.895 46.3459ZM274.721 46.2445L274.75 43.6689L274.721 46.2444M274.897 46.143L274.926 43.6207L274.897 46.143L276.936 44.9725L274.897 46.143ZM279.697 43.3874L279.755 38.331L279.795 38.3079L279.737 43.3681H279.737L279.737 43.3644L279.697 43.3874ZM274.955 41.0828L274.958 40.88L274.781 40.9814L274.958 40.88L279.58 38.2258L279.578 38.4286L274.955 41.0828ZM279.757 38.1282L279.757 38.1245L279.797 38.1013V38.1051L279.757 38.1282Z" fill="#D5E8F1"/>
<path fill-rule="evenodd" clip-rule="evenodd" d="M270.056 49.1243L270.088 46.3535L270.058 48.9215L274.721 46.2442L274.779 41.184L270.116 43.8614L270.119 43.6585L269.942 43.76V43.7599L270.119 43.6585L274.781 40.9813L274.958 40.8799L274.897 46.1428L274.721 46.2442L274.718 46.4471L270.056 49.1243ZM269.881 49.0229L269.94 43.9628L269.882 49.0229" fill="#D5E8F1"/>
<path fill-rule="evenodd" clip-rule="evenodd" d="M265.216 51.9031L265.777 51.5814L265.216 51.9031ZM265.042 51.8017L265.102 46.5388L265.279 46.4374L269.942 43.7602L270.118 43.6587L270.058 48.9217L265.042 51.8017ZM265.277 46.6402L265.219 51.7003L269.881 49.0231L269.94 43.963L265.277 46.6402Z" fill="#D5E8F1"/>
<path fill-rule="evenodd" clip-rule="evenodd" d="M255.361 57.5616L255.424 52.0959L260.44 49.2158L260.438 49.4186V49.4187L260.379 54.4788L260.203 54.5801L255.363 57.3589L255.361 57.5616ZM260.261 49.5201L255.598 52.1973L255.54 57.2575L260.203 54.5801L260.261 49.5201ZM255.538 57.4603L260.201 54.783H260.2L255.538 57.4603Z" fill="#D5E8F1"/>
<path fill-rule="evenodd" clip-rule="evenodd" d="M274.835 51.6087L279.457 48.9545L274.835 51.6087ZM274.66 51.5073L274.721 46.2442L274.897 46.1429L279.52 43.4887L279.518 43.6916L274.895 46.3458L274.837 51.4058L274.66 51.5073ZM279.636 48.6502L279.694 43.5939L279.734 43.5708L279.676 48.6309V48.631V48.6272L279.636 48.6502ZM279.696 43.3911L279.697 43.3873L279.737 43.3643L279.737 43.368L279.696 43.3911Z" fill="#D5E8F1"/>
<path fill-rule="evenodd" clip-rule="evenodd" d="M265.156 57.1661L269.819 54.4887L265.156 57.1661ZM265.158 56.9632L265.187 54.4409L265.158 56.9632ZM265.011 54.5345L265.04 52.0045H265.04L265.011 54.5345ZM269.821 54.286L269.879 49.2258L265.216 51.903L265.219 51.7002L270.058 48.9216L269.998 54.1846H269.998L269.821 54.286Z" fill="#D5E8F1"/>
<path fill-rule="evenodd" clip-rule="evenodd" d="M260.317 59.9446L262.423 58.7351L260.317 59.9446ZM260.319 59.7419L260.348 57.2196L260.319 59.7419ZM262.738 58.3531L264.982 57.0645L265.04 52.0045L260.377 54.6817L260.379 54.4788L260.203 54.5803V54.5802L260.379 54.4788L265.219 51.7002L265.158 56.9631L264.982 57.0645L262.738 58.3531ZM260.171 57.3131L260.2 54.7831H260.2L260.171 57.3131Z" fill="#D5E8F1"/>
<path fill-rule="evenodd" clip-rule="evenodd" d="M255.301 62.8247L255.363 57.3589L260.203 54.5803L260.379 54.4788L260.319 59.7418L260.142 59.8432L255.303 62.6218L255.301 62.8247ZM255.538 57.4603L255.48 62.5204L260.142 59.8432L260.2 54.783L255.538 57.4603Z" fill="#D5E8F1"/>
<path fill-rule="evenodd" clip-rule="evenodd" d="M274.6 56.7702L274.629 54.2401L274.6 56.7702ZM274.776 56.7003L274.837 51.4059L274.66 51.5073L274.837 51.4058L279.46 48.7516L279.457 48.9545L274.835 51.6087L274.777 56.6689L279.399 54.0147L279.399 54.0462L274.776 56.7003ZM279.576 53.917L279.634 48.8568L279.674 48.8338L279.616 53.894L279.576 53.917ZM279.636 48.654V48.6502L279.676 48.6272V48.631L279.636 48.654Z" fill="#D5E8F1"/>
<path fill-rule="evenodd" clip-rule="evenodd" d="M269.761 59.549L269.79 57.0189L269.761 59.5489M269.937 59.479L269.998 54.1846H269.998L274.837 51.406L274.776 56.7004L269.937 59.479ZM274.658 51.7102L269.995 54.3874L269.937 59.4475L274.6 56.7703L274.658 51.7102Z" fill="#D5E8F1"/>
<path fill-rule="evenodd" clip-rule="evenodd" d="M264.921 62.3276L264.979 57.2674L264.921 62.3276M265.098 62.2577L265.127 59.6582L265.098 62.2262L269.761 59.5489L269.819 54.4887L265.156 57.1661L265.158 56.9632L264.982 57.0647V57.0646L265.158 56.9632L269.998 54.1846L269.937 59.479L269.762 59.5794L265.099 62.2568V62.2566L265.098 62.2577Z" fill="#D5E8F1"/>
<path fill-rule="evenodd" clip-rule="evenodd" d="M260.258 65.0363L260.288 62.4367L260.259 65.0048L264.921 62.3276L264.979 57.2674L260.317 59.9446L260.319 59.7419L260.142 59.8432L260.319 59.7419L264.982 57.0646L265.158 56.9631L265.098 62.2577L260.26 65.0353L260.258 65.0363ZM260.111 62.5762L260.14 60.046L260.111 62.5762Z" fill="#D5E8F1"/>
<path fill-rule="evenodd" clip-rule="evenodd" d="M255.24 68.0878L255.303 62.6219L260.142 59.8433L260.319 59.7419L260.258 65.0364L255.287 67.8906L255.244 67.9155L255.242 68.0868L255.24 68.0878ZM260.14 60.0461L255.477 62.7234L255.419 67.7836L260.082 65.1063L260.14 60.0461Z" fill="#D5E8F1"/>
<path fill-rule="evenodd" clip-rule="evenodd" d="M279.815 33.0679L281.232 32.254L279.855 33.0448L279.815 33.0679ZM279.684 32.9417L279.858 32.8421L283.69 30.6417L279.684 32.9417ZM284.657 30.0865L288.529 27.863L284.657 30.0865ZM289.494 27.5105L292.355 25.8675L289.494 27.5105ZM289.496 27.3078L293.368 25.0844L289.496 27.3078ZM299.173 21.9533L302.254 20.1841L299.173 21.9533Z" fill="#D5E8F1"/>
<path fill-rule="evenodd" clip-rule="evenodd" d="M298.938 27.115L298.995 22.0548L298.938 27.115ZM299.114 27.0136L299.143 24.4912L299.114 27.0136ZM301.637 25.7662L303.775 24.5391L301.637 25.7662ZM301.533 25.6248L303.777 24.3362L303.835 19.2761L302.254 20.1842L299.173 21.9534L299.175 21.7505L298.998 21.852V21.8519L304.015 18.9719L303.953 24.2349L301.533 25.6248Z" fill="#D5E8F1"/>
<path fill-rule="evenodd" clip-rule="evenodd" d="M294.272 29.9949L298.935 27.3177L294.272 29.9949ZM294.098 29.8935L294.157 24.8334L294.098 29.8935ZM294.274 29.7921L294.336 24.5292L294.159 24.6306L298.998 21.852L299.175 21.7505L299.114 27.0135L298.938 27.1149L296.694 28.4034L298.938 27.1149L298.995 22.0548L294.333 24.732L294.274 29.7921Z" fill="#D5E8F1"/>
<path fill-rule="evenodd" clip-rule="evenodd" d="M289.434 32.7737L290.408 32.2143L289.434 32.7737ZM289.259 32.6723L289.289 30.1422L289.259 32.6722M289.436 32.571L290.306 32.0712L289.436 32.571ZM289.464 30.0956L289.496 27.3079L293.368 25.0845L294.159 24.6307L294.336 24.5293L294.274 29.7922L294.098 29.8936L294.157 24.8335L289.494 27.5107L289.464 30.0956Z" fill="#D5E8F1"/>
<path fill-rule="evenodd" clip-rule="evenodd" d="M284.594 35.5523H284.594L284.657 30.0866L288.529 27.8631L289.496 27.3079L289.436 32.5709L289.259 32.6723L289.256 32.8751L284.594 35.5523ZM289.317 27.6121L284.654 30.2894L284.596 35.3495L289.259 32.6722L289.317 27.6121ZM284.42 35.4509L284.449 32.8754L284.42 35.4509Z" fill="#D5E8F1"/>
<path fill-rule="evenodd" clip-rule="evenodd" d="M279.578 38.4325V38.4287L279.641 32.9667L279.684 32.9418L284.657 30.0867L284.594 35.5524L284.596 35.3496L284.42 35.451L284.478 30.3908L279.815 33.068L279.757 38.1245L279.757 38.1282L279.797 38.1052L280.2 37.8741L279.58 38.2296L279.578 38.4325ZM279.755 38.3311L284.417 35.6538L279.795 38.308L279.755 38.3311Z" fill="#D5E8F1"/>
<path fill-rule="evenodd" clip-rule="evenodd" d="M299.052 32.4793L303.715 29.8021L299.052 32.4793ZM298.878 32.3779L298.906 29.8479L298.878 32.3779ZM299.054 32.2765L299.114 27.0136L298.938 27.115L299.114 27.0136L301.533 25.6248L303.953 24.2349L303.893 29.4978L299.054 32.2765ZM301.637 25.7662L299.112 27.2164L299.054 32.2765L303.717 29.5993L303.775 24.5391L301.637 25.7662Z" fill="#D5E8F1"/>
<path fill-rule="evenodd" clip-rule="evenodd" d="M294.212 35.2581L294.214 35.0552L298.878 32.378L298.935 27.3178L294.272 29.995L294.274 29.7923L298.938 27.1151L299.114 27.0137L299.054 32.2766L298.878 32.378L298.875 32.5808L294.212 35.2581ZM294.038 35.1567L294.067 32.6266L294.038 35.1566M294.214 35.0552L294.243 32.5329L294.214 35.0552Z" fill="#D5E8F1"/>
<path fill-rule="evenodd" clip-rule="evenodd" d="M289.373 38.0367L291.571 36.7743L289.373 38.0367ZM289.199 37.9353L289.259 32.6723L289.436 32.571L290.306 32.0712L294.098 29.8936L294.274 29.7922L294.214 35.0552L291.794 36.4451L294.038 35.1566L294.096 30.0965L290.408 32.2143L289.434 32.7737L289.375 37.8339L289.199 37.9353Z" fill="#D5E8F1"/>
<path fill-rule="evenodd" clip-rule="evenodd" d="M279.518 43.6954L279.518 43.6917L279.58 38.2296L280.199 37.8741L284.42 35.451L284.596 35.3496L284.536 40.6125L284.359 40.7139L284.417 35.6538L279.755 38.3311L279.697 43.3874L279.696 43.3913L279.737 43.3681H279.737L281.735 42.2207L279.52 43.4927L279.518 43.6954H279.518ZM279.694 43.594L284.357 40.9168L279.734 43.571L279.694 43.594Z" fill="#D5E8F1"/>
<path fill-rule="evenodd" clip-rule="evenodd" d="M298.992 37.7424V37.7422L303.654 35.065L298.992 37.7424ZM298.816 37.641L298.878 32.3779L299.054 32.2765L303.893 29.4978L303.832 34.7609L298.816 37.6408V37.641ZM299.052 32.4793L298.994 37.5395L303.656 34.8622L303.715 29.8021L299.052 32.4793Z" fill="#D5E8F1"/>
<path fill-rule="evenodd" clip-rule="evenodd" d="M289.313 43.2996L293.976 40.6224L289.313 43.2996ZM289.315 43.0968L289.375 37.8339L289.199 37.9353L289.375 37.8339L291.794 36.4451L294.214 35.0552L294.154 40.3181L293.977 40.4196L294.036 35.3595L289.373 38.0367L289.315 43.0968ZM289.167 40.6682L289.196 38.1381L289.167 40.6682Z" fill="#D5E8F1"/>
<path fill-rule="evenodd" clip-rule="evenodd" d="M284.473 46.0782L285.027 45.7604L284.473 46.0782ZM284.299 45.9768L284.329 43.4012L284.299 45.9768ZM284.476 45.8753L284.536 40.6123L289.199 37.9351L289.375 37.8337L289.315 43.0967L289.139 43.1981L287.728 44.0076L289.139 43.1981L289.196 38.1379L284.534 40.8152L284.476 45.8753Z" fill="#D5E8F1"/>
<path fill-rule="evenodd" clip-rule="evenodd" d="M279.457 48.9584V48.9547L279.52 43.4927L284.536 40.6125L284.476 45.8755L284.299 45.9769L284.357 40.9168L279.694 43.594L279.636 48.6504V48.6542L279.459 48.7556L279.457 48.9584ZM279.634 48.857L281.832 47.5947L279.674 48.834L279.634 48.857Z" fill="#D5E8F1"/>
<path fill-rule="evenodd" clip-rule="evenodd" d="M298.757 42.904L298.814 37.8439L298.757 42.904ZM298.933 42.834L298.962 40.2813L298.933 42.8026L303.596 40.1253L303.654 35.0651L298.992 37.7424L298.994 37.5396L298.816 37.6411V37.641L303.832 34.761L303.772 40.0554L298.933 42.834Z" fill="#D5E8F1"/>
<path fill-rule="evenodd" clip-rule="evenodd" d="M293.917 45.6826L293.947 43.1071L293.917 45.6826ZM294.093 45.6127L294.154 40.3182L298.816 37.6411L298.994 37.5396L298.992 37.7423V37.7424L298.962 40.2813L298.933 42.834L294.094 45.6117L294.093 45.6127ZM298.814 37.8438L294.152 40.521L294.093 45.5812L298.756 42.904L298.814 37.8438Z" fill="#D5E8F1"/>
<path fill-rule="evenodd" clip-rule="evenodd" d="M289.254 48.3913L289.283 45.8829L289.254 48.3598L293.917 45.6826L293.976 40.6224L289.313 43.2996L289.315 43.0968L289.139 43.1983V43.1982L289.315 43.0968L293.977 40.4196L294.155 40.3181L294.093 45.6127L293.128 46.167L289.256 48.3903L289.254 48.3913ZM289.106 45.9311L289.136 43.4011L289.106 45.9311Z" fill="#D5E8F1"/>
<path fill-rule="evenodd" clip-rule="evenodd" d="M284.415 51.1698L284.476 45.8753L287.728 44.0076L289.139 43.1982L289.315 43.0967L289.254 48.3911L284.416 51.1689L284.415 51.1698ZM284.473 46.0782L284.415 51.1383L289.078 48.4611L289.136 43.401L284.473 46.0782Z" fill="#D5E8F1"/>
<path fill-rule="evenodd" clip-rule="evenodd" d="M279.399 54.0463L279.459 48.7556L279.636 48.6542L279.676 48.6312V48.6311L284.299 45.977V45.9769L284.476 45.8755L284.415 51.17L279.617 53.9247L279.617 53.9208L279.399 54.0463ZM279.634 48.857L279.576 53.9171L279.616 53.8941L284.238 51.2399L284.297 46.1798L279.634 48.857Z" fill="#D5E8F1"/>
<path fill-rule="evenodd" clip-rule="evenodd" d="M255.418 68.0167L256.836 67.2029L255.418 68.0167ZM255.287 67.8905L257.277 66.748L255.287 67.8905ZM260.258 65.2381L262.397 64.0096L260.258 65.2381ZM274.111 57.0825L279.07 54.2351L274.111 57.0825ZM274.776 56.9022L277.857 55.1329L274.776 56.9022Z" fill="#D5E8F1"/>
<path fill-rule="evenodd" clip-rule="evenodd" d="M274.715 62.1651L276.822 60.9556L274.715 62.1651ZM274.717 61.9623L279.34 59.3081L274.717 61.9623ZM274.717 61.9623L274.746 59.4855L274.717 61.9623ZM279.517 59.2067L279.575 54.1503L279.615 54.1272L279.557 59.1837L279.517 59.2067ZM274.776 56.9021L274.778 56.6994L279.617 53.9207L279.617 53.9245L279.4 54.0489L279.398 54.248L274.776 56.9021" fill="#D5E8F1"/>
<path fill-rule="evenodd" clip-rule="evenodd" d="M269.876 64.9438L271.851 63.8098L269.876 64.9438ZM269.878 64.741L269.939 59.4781L269.762 59.5794L269.937 59.479L274.778 56.6995L274.718 61.9624L272.297 63.3522L274.541 62.0638L274.599 57.0036L269.936 59.6808L269.878 64.741H269.878ZM269.731 62.3124L269.76 59.7823V59.7822L269.731 62.3124Z" fill="#D5E8F1"/>
<path fill-rule="evenodd" clip-rule="evenodd" d="M265.039 67.5197L269.702 64.8425L269.76 59.7822L265.097 62.4595L265.067 65.0674L265.099 62.2566L269.762 59.5794L269.939 59.478L269.878 64.741L269.702 64.8425L265.039 67.5197Z" fill="#D5E8F1"/>
<path fill-rule="evenodd" clip-rule="evenodd" d="M260.197 70.5011L260.197 70.501L260.2 70.2982L264.862 67.621L264.92 62.5609L260.258 65.2381L260.228 67.823L260.26 65.0353L265.098 62.2577L265.099 62.2566L265.039 67.5196L264.862 67.621L264.86 67.8238L260.197 70.5011ZM260.023 70.3998L260.052 67.8696L260.023 70.3998Z" fill="#D5E8F1"/>
<path fill-rule="evenodd" clip-rule="evenodd" d="M255.181 73.3812L255.244 67.9155L255.287 67.8906L260.258 65.0364L260.26 65.0354L260.197 70.5011L260.2 70.2983L260.023 70.3998L260.081 65.3396L255.418 68.0168L255.36 73.0771L257.399 71.9065L255.184 73.1784L255.181 73.3812ZM255.358 73.2798L256.33 72.7215L255.358 73.2798Z" fill="#D5E8F1"/>
<path fill-rule="evenodd" clip-rule="evenodd" d="M274.681 65.1131L274.687 64.6574L274.681 65.1131ZM274.507 65.013L274.51 64.7967L274.507 65.013ZM279.456 64.4698L279.514 59.4134L279.554 59.3903L279.496 64.4505V64.4468L279.456 64.4698ZM274.715 62.1652L274.718 61.9624L279.34 59.3082L279.338 59.5111L274.715 62.1652ZM279.517 59.2106V59.2069L279.557 59.1838V59.1875L279.517 59.2106Z" fill="#D5E8F1"/>
<path fill-rule="evenodd" clip-rule="evenodd" d="M269.696 65.3348L269.699 65.0453H269.699L269.696 65.3348ZM274.681 65.113L274.507 65.013L274.539 62.2666L269.876 64.9438L269.878 64.741L269.702 64.8425L269.878 64.741H269.878L274.718 61.9624L274.681 65.113Z" fill="#D5E8F1"/>
<path fill-rule="evenodd" clip-rule="evenodd" d="M264.857 68.0804L264.862 67.6211L265.039 67.5197L269.702 64.8425L269.878 64.741L269.872 65.2345L269.696 65.3347L269.699 65.0452L265.036 67.7225L265.034 67.9802L264.857 68.0804Z" fill="#D5E8F1"/>
<path fill-rule="evenodd" clip-rule="evenodd" d="M255.121 78.6442L255.184 73.1784L260.023 70.3998L260.2 70.2983L260.197 70.5012L260.195 70.726L260.018 70.8263L260.021 70.6026L255.358 73.2798L255.3 78.34L259.963 75.6628L260.002 72.2599L260.176 72.3592L260.139 75.5613V75.5614L255.123 78.4414L255.121 78.6442H255.121ZM255.297 78.5428L259.96 75.8656L255.297 78.5428Z" fill="#D5E8F1"/>
<path fill-rule="evenodd" clip-rule="evenodd" d="M279.457 67.8553L279.418 67.8326L279.454 64.6764L279.494 64.6534L279.457 67.8553ZM276.684 66.263L276.509 66.1622L279.28 64.5712L279.277 64.7741L276.684 66.263ZM279.456 64.4735L279.456 64.4698L279.496 64.4468V64.4505L279.456 64.4735Z" fill="#D5E8F1"/>
<path fill-rule="evenodd" clip-rule="evenodd" d="M264.918 78.0455L264.948 75.4775L264.918 78.0455L267.527 76.5474L264.918 78.0455Z" fill="#D5E8F1"/>
<path fill-rule="evenodd" clip-rule="evenodd" d="M260.076 81.027L260.637 80.7053L260.076 81.027ZM260.079 80.8242L260.139 75.5613V75.5611L262.957 73.9434L263.133 74.0438L260.137 75.764L260.079 80.8242L264.741 78.147L264.778 74.981L264.952 75.0802L264.918 78.0455L264.741 78.147L260.079 80.8242Z" fill="#D5E8F1"/>
<path fill-rule="evenodd" clip-rule="evenodd" d="M255.063 83.7043L255.123 78.4413L260.139 75.5613L260.079 80.8242L257.658 82.2141L259.902 80.9256L259.96 75.8654L255.297 78.5427L255.239 83.6028L255.063 83.7043Z" fill="#D5E8F1"/>
<path fill-rule="evenodd" clip-rule="evenodd" d="M269.518 80.8341L269.651 80.7576L269.518 80.8341ZM269.651 80.7576L269.695 80.7326L269.727 77.9619L269.697 80.5299L272.098 79.1515L272.274 79.2518L269.651 80.7576ZM269.52 80.6314L269.549 78.1012L269.52 80.6314Z" fill="#D5E8F1"/>
<path fill-rule="evenodd" clip-rule="evenodd" d="M264.772 83.5593L264.812 83.5361L264.772 83.5593ZM264.812 83.5361L264.855 83.5113L264.887 80.7405L264.858 83.3086L269.52 80.6313L269.554 77.7021L269.728 77.8015L269.695 80.7326L269.651 80.7575L269.518 80.8341L264.812 83.5361ZM264.681 83.4099L264.739 78.3498H264.739L264.681 83.4099ZM264.916 78.2484L264.918 78.0456L264.741 78.147L264.918 78.0455L267.527 76.5474L267.703 76.6478L264.916 78.2484Z" fill="#D5E8F1"/>
<path fill-rule="evenodd" clip-rule="evenodd" d="M259.839 86.3915L259.973 86.3149L259.839 86.3915ZM259.973 86.3149L260.016 86.29L260.047 83.6104L260.018 86.0872L264.681 83.41L264.739 78.3498L260.076 81.027L260.079 80.8243L264.741 78.147L264.918 78.0457L264.855 83.5114L259.973 86.3149Z" fill="#D5E8F1"/>
<path fill-rule="evenodd" clip-rule="evenodd" d="M255 89.17L255.063 83.7043L255.239 83.6028L260.079 80.8242L260.016 86.2899L259.973 86.3149L255.133 89.0935L255.089 89.018L255.133 89.0935L255 89.17ZM259.9 81.1284L255.237 83.8056L255.179 88.8659L259.842 86.1885L259.9 81.1284Z" fill="#D5E8F1"/>
<path fill-rule="evenodd" clip-rule="evenodd" d="M279.575 54.1505L280.992 53.3366L279.615 54.1275L279.575 54.1505ZM284.414 51.3719L289.076 48.6947L284.414 51.3719ZM289.254 48.5932L292.116 46.9501L289.254 48.5933M289.256 48.3904L293.128 46.167L289.256 48.3905M294.093 45.8146L297.677 43.7569L294.093 45.8146ZM294.095 45.6118L297.967 43.3884L294.095 45.6118Z" fill="#D5E8F1"/>
<path fill-rule="evenodd" clip-rule="evenodd" d="M298.698 48.1975L298.755 43.1373L298.698 48.1975ZM298.874 48.0961L298.934 42.8332L298.758 42.9345L303.772 40.0554L303.774 40.0544L303.714 45.3175L301.293 46.7073L303.537 45.4189L303.595 40.3587L298.932 43.0359L298.874 48.0961Z" fill="#D5E8F1"/>
<path fill-rule="evenodd" clip-rule="evenodd" d="M293.858 50.9759L293.887 48.4459L293.858 50.9759ZM296.366 49.5356L298.698 48.1973L298.755 43.1372L297.677 43.7567L294.093 45.8144L294.063 48.3993L294.095 45.6116L298.758 42.9344L298.934 42.833L298.874 48.0959L296.366 49.5356Z" fill="#D5E8F1"/>
<path fill-rule="evenodd" clip-rule="evenodd" d="M289.193 53.856L293.856 51.1788L289.193 53.856ZM289.019 53.7546L289.048 51.2699L289.019 53.7546ZM289.195 53.6531L289.256 48.3902L293.128 46.1668L294.093 45.6125L294.095 45.6116L294.035 50.8745L289.195 53.6531ZM289.254 48.5929L289.195 53.6531L293.858 50.9759L293.916 45.9157L292.116 46.9499L289.254 48.5929Z" fill="#D5E8F1"/>
<path fill-rule="evenodd" clip-rule="evenodd" d="M284.354 56.6349V56.6348L284.416 51.1691L289.254 48.3913L289.256 48.3904L289.195 53.6533L289.019 53.7548L289.016 53.9576L284.354 56.6349ZM284.414 51.3719L284.356 56.432L289.019 53.7548L289.076 48.6947L284.414 51.3719ZM284.179 56.5334L284.209 53.9563L284.179 56.5334Z" fill="#D5E8F1"/>
<path fill-rule="evenodd" clip-rule="evenodd" d="M279.338 59.5148V59.5111L279.4 54.0489L284.415 51.1699L284.416 51.1689L284.354 56.6347L284.356 56.4319L284.179 56.5333L284.237 51.4731L279.575 54.1503L279.517 59.2068V59.2105L279.557 59.1875L281.555 58.04L279.34 59.312L279.338 59.5148ZM279.514 59.4134L284.177 56.736L279.554 59.3902L279.514 59.4134Z" fill="#D5E8F1"/>
<path fill-rule="evenodd" clip-rule="evenodd" d="M298.812 53.5617L303.474 50.8845L298.812 53.5617ZM298.637 53.4603L298.695 48.4001L298.637 53.4603ZM298.814 53.3589L298.874 48.096L303.714 45.3174L303.654 50.5803L301.232 51.9702L303.476 50.6817L303.535 45.6215L298.872 48.2988L298.814 53.3589Z" fill="#D5E8F1"/>
<path fill-rule="evenodd" clip-rule="evenodd" d="M293.972 56.3404L293.975 56.1375L298.637 53.4603L298.695 48.4001L294.032 51.0773L294.002 53.662L294.035 50.8745L296.366 49.5356L298.874 48.0959L298.814 53.3589L298.637 53.4603L298.634 53.6632L293.972 56.3404ZM293.797 56.239L293.856 51.1788L293.797 56.239Z" fill="#D5E8F1"/>
<path fill-rule="evenodd" clip-rule="evenodd" d="M289.133 59.1189L293.796 56.4417L289.133 59.1189ZM288.959 59.0176L289.019 53.7546L289.195 53.6531L294.035 50.8745L293.972 56.3403L293.975 56.1376L289.135 58.9162L288.959 59.0176ZM289.193 53.856L289.135 58.9162L293.797 56.239L293.856 51.1788L289.193 53.856Z" fill="#D5E8F1"/>
<path fill-rule="evenodd" clip-rule="evenodd" d="M279.277 64.7777V64.774L279.34 59.312L284.356 56.4319L284.354 56.6347V56.6348L284.296 61.6948V61.6949L284.119 61.7963L284.177 56.736L279.514 59.4134L279.456 64.4697L279.456 64.4734L279.28 64.5749L279.277 64.7777ZM279.454 64.6763L280.426 64.118L279.494 64.6533L279.454 64.6763Z" fill="#D5E8F1"/>
<path fill-rule="evenodd" clip-rule="evenodd" d="M298.751 58.8246L299.723 58.2664L298.751 58.8246ZM298.577 58.7234L298.637 53.4603L298.814 53.3589L301.232 51.9702L303.654 50.5803L303.592 55.8433L301.172 57.2331L303.416 55.9446L303.474 50.8845L298.812 53.5617L298.753 58.6219L298.577 58.7234Z" fill="#D5E8F1"/>
<path fill-rule="evenodd" clip-rule="evenodd" d="M289.073 64.382L291.271 63.1198L289.073 64.382ZM288.898 64.2806L288.926 61.796L288.898 64.2806ZM289.075 64.1792L293.737 61.502L293.796 56.4419L289.133 59.1191L289.103 61.6813L289.135 58.9163L293.975 56.1377L293.913 61.4006L293.737 61.502L289.075 64.1792Z" fill="#D5E8F1"/>
<path fill-rule="evenodd" clip-rule="evenodd" d="M284.233 67.1607L288.895 64.4835L284.233 67.1607ZM284.059 67.0593L284.088 64.5292L284.059 67.0593H284.059ZM284.264 64.4599L284.296 61.695V61.6949L288.959 59.0176L289.135 58.9163L289.103 61.6813L289.075 64.1792L288.898 64.2806L288.956 59.2204L284.293 61.8976L284.264 64.4599Z" fill="#D5E8F1"/>
<path fill-rule="evenodd" clip-rule="evenodd" d="M281.24 68.8791L284.056 67.2622L281.24 68.8791ZM281.065 68.7783L281.434 68.566L281.065 68.7783ZM279.418 67.8327L279.243 67.7325L279.28 64.5751L279.456 64.4735L279.496 64.4505L284.119 61.7965L284.296 61.6951L284.235 66.9579L284.058 67.0594L284.117 61.9992L279.454 64.6764L279.418 67.8327Z" fill="#D5E8F1"/>
<path fill-rule="evenodd" clip-rule="evenodd" d="M298.607 64.1356L298.647 64.1125L298.607 64.1356ZM298.647 64.1125L298.691 64.0877L298.722 61.3625L298.693 63.8848L303.356 61.2077L303.414 56.1475L299.723 58.2664L298.75 58.8246L298.753 58.6219L301.172 57.2331L303.592 55.8433L303.53 61.309L298.647 64.1125ZM298.517 63.9863L298.574 58.9261L298.517 63.9863Z" fill="#D5E8F1"/>
<path fill-rule="evenodd" clip-rule="evenodd" d="M293.767 66.9143L293.808 66.8912L293.767 66.9143ZM293.808 66.8912L293.851 66.8663L293.882 64.1867L293.853 66.6635L298.517 63.9863L298.574 58.9261L293.911 61.6033L293.913 61.4005L293.737 61.5019L293.913 61.4005L298.577 58.7233L298.753 58.6218L298.691 64.0877L298.647 64.1125L298.607 64.1356L293.808 66.8912ZM293.677 66.7649L293.735 61.7047L293.677 66.7649Z" fill="#D5E8F1"/>
<path fill-rule="evenodd" clip-rule="evenodd" d="M289.012 69.6451L289.014 69.4422L293.677 66.765L293.735 61.7048L291.271 63.1198L289.073 64.382L289.043 66.9667L289.075 64.1792L293.737 61.502L293.913 61.4006L293.911 61.6034L293.851 66.8663L293.808 66.8913L293.767 66.9144L289.012 69.6451Z" fill="#D5E8F1"/>
<path fill-rule="evenodd" clip-rule="evenodd" d="M285.793 71.4931L285.618 71.3923L288.838 69.5436L288.895 64.4835L284.233 67.1607L284.203 69.7686L284.235 66.9579L284.059 67.0593L288.898 64.2806L289.075 64.1792L289.012 69.645L285.793 71.4931ZM284.019 70.4747L284.056 67.2621L284.019 70.4747Z" fill="#D5E8F1"/>
<path fill-rule="evenodd" clip-rule="evenodd" d="M284.194 70.5749L284.019 70.4748L284.056 67.2622L281.24 68.8791L281.065 68.7783L281.435 68.566L284.059 67.0594L284.235 66.958L284.194 70.5749Z" fill="#D5E8F1"/>
<path fill-rule="evenodd" clip-rule="evenodd" d="M307.626 30.0862L321.187 22.3257L307.713 14.5894L294.063 22.3257L307.626 30.0862Z" fill="#FDED9E"/>
<path fill-rule="evenodd" clip-rule="evenodd" d="M321.187 22.3257V67.8707L307.636 75.6313L307.626 30.0862L321.187 22.3257Z" fill="#FBE26F"/>
<mask id="mask1" mask-type="alpha" maskUnits="userSpaceOnUse" x="294" y="22" width="14" height="54">
<path fill-rule="evenodd" clip-rule="evenodd" d="M307.626 30.0862L307.636 75.6313L294.063 67.8707V22.3257L307.626 30.0862Z" fill="white"/>
</mask>
<g mask="url(#mask1)">
<path fill-rule="evenodd" clip-rule="evenodd" d="M307.626 30.0862L307.636 75.6313L294.063 67.8707V22.3257L307.626 30.0862Z" fill="#E1C95B"/>
</g>
<path fill-rule="evenodd" clip-rule="evenodd" d="M290.41 57.775L303.875 49.9904L290.444 42.2783L276.928 50.0388L290.41 57.775Z" fill="#8CB0D2"/>
<path fill-rule="evenodd" clip-rule="evenodd" d="M290.41 86.3281L303.806 78.5676V50.0146L290.41 57.775V86.3281Z" fill="#6491BF"/>
<mask id="mask2" mask-type="alpha" maskUnits="userSpaceOnUse" x="277" y="50" width="14" height="37">
<path fill-rule="evenodd" clip-rule="evenodd" d="M290.41 86.3281L277.015 78.5676V50.0146L290.41 57.775V86.3281Z" fill="white"/>
</mask>
<g mask="url(#mask2)">
<path fill-rule="evenodd" clip-rule="evenodd" d="M290.41 86.3281L277.015 78.5676V50.0146L290.41 57.775V86.3281Z" fill="#507FAE"/>
</g>
<path fill-rule="evenodd" clip-rule="evenodd" d="M272.313 79.2742L285.829 71.5137L272.398 63.8018L258.749 71.5462L272.313 79.2742Z" fill="#FFFFFE"/>
<path fill-rule="evenodd" clip-rule="evenodd" d="M272.55 97.4245L258.749 89.1968V71.5461L272.55 79.3067V97.4245Z" fill="#B3D6E1"/>
<mask id="mask3" mask-type="alpha" maskUnits="userSpaceOnUse" x="258" y="71" width="15" height="27">
<path fill-rule="evenodd" clip-rule="evenodd" d="M272.55 97.4245L258.749 89.1968V71.5461L272.55 79.3067V97.4245Z" fill="white"/>
</mask>
<g mask="url(#mask3)">
</g>
<path fill-rule="evenodd" clip-rule="evenodd" d="M272.293 97.3917V79.2738L285.809 71.5134V89.6312L272.293 97.3917Z" fill="#DBEEF4"/>
<path fill-rule="evenodd" clip-rule="evenodd" d="M325.517 27.5264L313.043 51.7876L295.952 72.2439L280.36 83.3964L271.455 96.7718L273.304 97.8863L282.109 85.0687L297.107 74.5795L314.962 53.0996L326.903 29.3154L325.517 27.5264Z" fill="#2A4084"/>
<path fill-rule="evenodd" clip-rule="evenodd" d="M322.758 28.5281L327.946 25.5759L327.646 32.017L322.758 28.5281Z" fill="#2A4084"/>
<path fill-rule="evenodd" clip-rule="evenodd" d="M271.427 74.9712C270.043 74.9712 268.676 74.7032 267.67 74.1708C265.711 73.133 265.867 71.4835 268.02 70.4865C269.068 70.0009 270.396 69.7598 271.709 69.7598C273.093 69.7598 274.46 70.0278 275.466 70.5602C277.425 71.598 277.269 73.2475 275.116 74.2445C274.068 74.73 272.74 74.9713 271.427 74.9712Z" fill="#DAE6EE"/>
<path fill-rule="evenodd" clip-rule="evenodd" d="M268.558 71.4658L267.99 69.6553L267.356 69.0237C266.452 69.7889 266.64 69.7521 266.743 70.1844L267.344 71.6107C267.719 72.2804 267.874 72.4413 268.307 72.5306C268.657 72.4608 268.664 72.053 268.558 71.4658Z" fill="#2A4084"/>
<path fill-rule="evenodd" clip-rule="evenodd" d="M267.637 70.1085C267.766 70.1085 267.896 70.0725 268.012 69.9972C268.105 69.9371 270.292 68.4971 271.122 66.1237C271.529 64.9594 272.076 61.2621 272.099 61.1052C272.155 60.7308 271.894 60.3829 271.518 60.3281C271.142 60.2722 270.792 60.5321 270.736 60.9065C270.584 61.9391 270.123 64.8087 269.82 65.6737C269.148 67.5965 267.277 68.8381 267.258 68.8504C266.941 69.058 266.852 69.4824 267.06 69.7986C267.192 69.9994 267.412 70.1085 267.637 70.1085Z" fill="#DBEEF4"/>
<path fill-rule="evenodd" clip-rule="evenodd" d="M276.365 71.7236L274.647 70.9016L273.75 70.9319C273.696 72.1116 273.798 71.9494 274.186 72.1692L275.644 72.7051C276.392 72.8896 276.616 72.8862 276.977 72.6325C277.164 72.33 276.869 72.0469 276.365 71.7236Z" fill="#2A4084"/>
<path fill-rule="evenodd" clip-rule="evenodd" d="M274.42 71.4623C274.749 71.4623 275.04 71.2275 275.098 70.8943C276.504 62.8452 274.927 59.458 274.859 59.3177C274.694 58.9766 274.282 58.8334 273.939 58.9972C273.598 59.1606 273.453 59.5676 273.615 59.9078C273.639 59.9599 275.054 63.1424 273.741 70.6598C273.676 71.0327 273.927 71.3874 274.302 71.4521C274.341 71.459 274.381 71.4623 274.42 71.4623Z" fill="#DBEEF4"/>
<path fill-rule="evenodd" clip-rule="evenodd" d="M276.808 52.5013C276.997 53.1386 277.603 54.33 278.394 54.3863C279.581 54.4707 279.544 51.5706 279.56 50.9481C279.577 50.296 280.598 50.2933 280.581 50.9481C280.546 52.2829 280.448 55.4823 278.405 55.404C277.101 55.354 276.152 53.8783 275.823 52.7712C275.637 52.1432 276.622 51.875 276.808 52.5013Z" fill="#F3BDAA"/>
<path fill-rule="evenodd" clip-rule="evenodd" d="M275.767 50.0294C276.419 50.551 276.874 51.4532 277.33 52.3799C277.497 52.6153 277.37 52.9666 277.095 53.1653L276.184 53.914C275.972 54.0065 275.612 53.611 275.502 53.3995L274.287 51.0706C274.089 50.6916 274.202 50.2283 274.548 49.9992C274.908 49.7603 275.277 49.673 275.767 50.0294Z" fill="#465C9A"/>
<path fill-rule="evenodd" clip-rule="evenodd" d="M271.805 51.0686L274.268 50.5688L273.964 49.3627C273.23 49.3187 272.704 49.5304 272.068 49.9223L271.805 51.0686Z" fill="#323F4D"/>
<path fill-rule="evenodd" clip-rule="evenodd" d="M274.125 61.2922C273.748 61.5518 272.077 62.4392 271.618 62.4279C271.065 62.4141 270.793 62.3646 270.397 61.9801C270.02 61.6152 269.952 61.0449 269.935 60.5226C269.931 60.3783 269.93 60.2276 269.993 60.0977C270.062 59.9572 270.195 59.8612 270.324 59.7724C271.332 59.0766 273.332 57.3342 274.674 57.973C276.224 58.7113 274.755 60.8585 274.125 61.2922Z" fill="#DBEEF4"/>
<path fill-rule="evenodd" clip-rule="evenodd" d="M275.442 50.1954C275.716 50.5785 275.672 50.8064 275.637 51.3126C275.603 51.8075 275.248 52.2225 274.762 52.3365L269.804 53.5014C269.804 53.5014 268.862 51.9367 269.853 51.4121C270.386 51.1295 271.952 50.3542 272.603 49.9963C273.558 49.4705 274.809 49.3103 275.442 50.1954Z" fill="#465C9A"/>
<path fill-rule="evenodd" clip-rule="evenodd" d="M275.376 58.8734C275.297 58.6542 275.214 53.9317 275.641 50.6162L270.015 52.9993C269.938 55.5078 270.174 57.4997 269.745 60.5426L275.376 58.8734Z" fill="#465C9A"/>
<path fill-rule="evenodd" clip-rule="evenodd" d="M271.563 61.1637C272.946 60.7256 274.358 60.1371 275.16 59.2381C275.543 59.0384 275.421 58.7579 274.999 58.4917C274.576 58.2254 273.917 58.1709 273.533 58.3706L270.027 60.1957C269.643 60.3953 269.675 60.7766 270.097 61.0428C270.52 61.309 271.179 61.3634 271.563 61.1637Z" fill="#465C9A"/>
<path fill-rule="evenodd" clip-rule="evenodd" d="M273.087 50.7347C273.087 50.7347 273.688 50.7571 273.843 49.7228L274.245 49.6838C274.299 49.7296 274.416 49.705 274.455 50.0547C274.478 50.2628 274.455 50.4735 274.396 50.6743L274.223 51.2605C274.184 51.3919 274.018 51.4457 273.909 51.3621L273.087 50.7347Z" fill="#FFFFFE"/>
<path fill-rule="evenodd" clip-rule="evenodd" d="M273.421 50.5227L273.755 48.416L272.5 48.9493L272.229 50.6694C272.163 50.952 273.137 51.6097 273.421 50.5227Z" fill="#F3BDAA"/>
<path fill-rule="evenodd" clip-rule="evenodd" d="M273.405 50.2114L273.824 50.2524C274.471 50.3155 275.051 49.8416 275.115 49.1991L275.325 47.0776C275.388 46.435 274.911 45.8576 274.265 45.7944L273.846 45.7535C273.2 45.6902 272.619 46.1643 272.556 46.8067L272.346 48.9283C272.282 49.5707 272.759 50.1482 273.405 50.2114Z" fill="#F3BDAA"/>
<path fill-rule="evenodd" clip-rule="evenodd" d="M273.586 47.4167C274.013 47.651 274.595 47.7135 275.095 47.5578C275.638 47.3888 275.685 46.6587 275.295 46.2478C275.084 46.0256 274.861 45.8718 274.395 45.6481C273.074 45.0134 271.594 45.5544 271.442 47.0913C271.442 47.0913 271.18 49.193 272.395 49.5838L272.437 49.4559C272.471 49.3552 272.457 49.246 272.404 49.1544C272.305 48.9849 272.209 48.676 272.606 48.4267C272.781 48.3168 272.962 48.0333 272.963 47.7762C272.963 47.5161 273.357 47.2909 273.586 47.4167Z" fill="#2A4084"/>
<path fill-rule="evenodd" clip-rule="evenodd" d="M272.176 48.9675C272.338 49.1517 272.56 49.1325 272.672 48.9247C272.784 48.7169 272.744 48.3992 272.583 48.2151C272.421 48.0309 272.199 48.0502 272.086 48.2579C271.974 48.4657 272.014 48.7835 272.176 48.9675Z" fill="#F3BDAA"/>
<path fill-rule="evenodd" clip-rule="evenodd" d="M273.483 50.2188C273.296 50.1768 272.882 50.0186 272.828 49.9924C272.828 49.9924 273.125 50.3313 273.43 50.4674L273.483 50.2188Z" fill="#DE8266"/>
<path fill-rule="evenodd" clip-rule="evenodd" d="M273.398 50.6991C273.398 50.6991 272.704 50.905 272.068 49.9224L271.6 50.454C271.557 50.5366 271.552 50.5465 271.618 50.6237L272.475 51.6296C272.576 51.7478 272.771 51.7428 272.845 51.6202L273.398 50.6991Z" fill="#FFFFFE"/>
<path fill-rule="evenodd" clip-rule="evenodd" d="M276.509 48.9326L278.447 49.5892L278.214 50.2708L276.275 49.6143C276.156 49.574 276.112 49.3886 276.176 49.2004C276.241 49.0122 276.39 48.8923 276.509 48.9326Z" fill="#AED0E3"/>
<path fill-rule="evenodd" clip-rule="evenodd" d="M276.911 48.9035L279.669 49.8376L279.337 50.8074L276.579 49.8733C276.409 49.8158 276.346 49.5522 276.438 49.2845C276.529 49.0166 276.741 48.846 276.911 48.9035Z" fill="#AED0E3"/>
<path fill-rule="evenodd" clip-rule="evenodd" d="M278.622 49.2586L278.625 49.26L282.011 50.3046L282.01 50.3058L282.024 50.3091C282.263 50.3899 282.335 50.8094 282.186 51.2461C282.036 51.6828 281.722 51.9711 281.483 51.8903L281.47 51.8846L281.47 51.8858L278.146 50.6478C277.908 50.5669 277.821 50.1904 277.952 49.8068C278.083 49.4232 278.383 49.1777 278.622 49.2586Z" fill="#2A4084"/>
<path fill-rule="evenodd" clip-rule="evenodd" d="M280.8 49.8031L280.804 49.805L282.441 50.2031L281.698 52.1796L280.209 51.5299C279.912 51.4293 279.804 50.9614 279.967 50.4845C280.13 50.0076 280.503 49.7026 280.8 49.8031Z" fill="#465C9A"/>
<path fill-rule="evenodd" clip-rule="evenodd" d="M281.422 50.9768C281.232 51.5312 281.397 52.0882 281.789 52.2211C282.182 52.3541 282.654 52.0124 282.843 51.4581C283.033 50.9038 282.869 50.3466 282.476 50.2138C282.084 50.0808 281.612 50.4225 281.422 50.9768Z" fill="#AED0E3"/>
<path fill-rule="evenodd" clip-rule="evenodd" d="M281.59 51.0335C281.445 51.4569 281.571 51.8822 281.87 51.9837C282.17 52.0852 282.531 51.8244 282.675 51.401C282.82 50.9777 282.695 50.5524 282.395 50.4509C282.095 50.3494 281.735 50.6102 281.59 51.0335Z" fill="#2A4084"/>
<path fill-rule="evenodd" clip-rule="evenodd" d="M280.405 49.289L280.117 49.2743C279.859 49.2611 279.636 49.4606 279.623 49.7178L279.611 49.9396C279.598 50.1968 279.799 50.4181 280.057 50.4313L280.346 50.4461C280.604 50.4593 280.827 50.2598 280.84 50.0026L280.851 49.7806C280.865 49.5235 280.664 49.3022 280.405 49.289Z" fill="#F3BDAA"/>
<path fill-rule="evenodd" clip-rule="evenodd" d="M270.238 52.7482C269.763 53.7503 269.047 54.6202 268.542 55.6085C267.59 57.4703 267.266 59.55 267.164 61.6164C267.132 62.2668 266.111 62.2707 266.143 61.6164C266.248 59.494 266.577 57.3819 267.49 55.4434C268.019 54.3187 268.826 53.3551 269.356 52.2357C269.636 51.6451 270.516 52.1599 270.238 52.7482Z" fill="#F3BDAA"/>
<path fill-rule="evenodd" clip-rule="evenodd" d="M270.947 52.5442L269.513 54.8587C268.951 55.4229 267.639 54.2066 268.055 53.7037L269.626 51.5999C269.894 51.2795 270.363 51.2134 270.71 51.447C271.072 51.6905 271.176 52.1743 270.947 52.5442Z" fill="#465C9A"/>
<path fill-rule="evenodd" clip-rule="evenodd" d="M282.184 50.8093C282.235 50.6342 282.469 50.5905 282.578 50.7371C282.68 50.8741 282.716 51.1108 282.483 51.5148C282.051 52.2661 281.993 51.476 282.184 50.8093Z" fill="#465C9A"/>
<path fill-rule="evenodd" clip-rule="evenodd" d="M282.112 50.763C282.066 50.839 282.079 50.9312 282.142 50.969C282.205 51.0068 282.293 50.9761 282.34 50.9001C282.386 50.8242 282.372 50.732 282.31 50.6942C282.247 50.6563 282.158 50.6872 282.112 50.763Z" fill="#FFFFFE"/>
<path fill-rule="evenodd" clip-rule="evenodd" d="M305.069 17.3266C304.867 18.6082 304.4 19.545 303.759 20.6489C303.548 21.0118 303.32 21.3342 303.391 21.7559C303.487 22.3352 303.67 22.8858 303.736 23.4779C303.808 24.126 302.788 24.1209 302.716 23.4779C302.599 22.42 302.115 21.6244 302.62 20.6049C302.886 20.0696 303.241 19.5853 303.518 19.0569C303.845 18.4328 303.976 17.747 304.084 17.0568C304.186 16.4137 305.168 16.6868 305.069 17.3266Z" fill="#F3BDAA"/>
<path fill-rule="evenodd" clip-rule="evenodd" d="M305.317 17.3522C304.901 18.5299 304.346 19.6338 303.881 20.7899C303.561 21.5888 302.245 21.2402 302.571 20.4302C303.035 19.2738 303.59 18.1697 304.006 16.9926C304.294 16.1767 305.61 16.5279 305.317 17.3522Z" fill="#FFFFFE"/>
<path fill-rule="evenodd" clip-rule="evenodd" d="M305.688 24.6658C304.542 25.1787 303.134 26.1408 302.549 27.2854C302.207 27.953 302.259 28.6372 302.297 29.3521C302.364 30.6062 302.431 31.8604 302.5 33.1145C302.549 34.0354 301.108 34.0327 301.059 33.1145C300.986 31.7433 300.912 30.3721 300.837 29.0009C300.787 28.0458 300.931 27.1025 301.467 26.2848C302.259 25.0796 303.654 24.0148 304.961 23.4294C305.799 23.0539 306.532 24.2876 305.688 24.6658Z" fill="#F3BDAA"/>
<path fill-rule="evenodd" clip-rule="evenodd" d="M296.923 29.9599C297.965 28.833 298.707 27.5126 299.877 26.4888C300.6 25.8543 301.386 25.5035 302.332 25.7771C303.47 26.1064 304.41 26.1678 305.444 25.4779C306.215 24.9631 306.937 26.203 306.171 26.7143C305.204 27.3589 304.12 27.6019 302.972 27.4137C302.583 27.3497 302.219 27.2132 301.837 27.1239C301.678 27.0871 301.693 27.0798 301.609 27.091C301.267 27.1366 300.962 27.435 300.726 27.6538C299.648 28.6507 298.929 29.9036 297.941 30.9725C297.312 31.6524 296.295 30.6377 296.923 29.9599Z" fill="#F3BDAA"/>
<path fill-rule="evenodd" clip-rule="evenodd" d="M297.121 31.8753L297.076 31.7839C297.051 31.7319 297.074 31.6687 297.125 31.6435C297.178 31.6183 297.242 31.6403 297.267 31.6923L297.311 31.7837C297.336 31.8358 297.315 31.899 297.262 31.9242C297.209 31.9494 297.146 31.9274 297.121 31.8753Z" fill="#4A4166"/>
<path fill-rule="evenodd" clip-rule="evenodd" d="M297.088 31.6721L297.374 31.2892C297.408 31.2428 297.476 31.233 297.522 31.2673C297.568 31.3018 297.579 31.368 297.544 31.4145L297.258 31.7973C297.224 31.8438 297.157 31.8536 297.11 31.8191C297.063 31.7847 297.053 31.7185 297.088 31.6721Z" fill="#3A3454"/>
<path fill-rule="evenodd" clip-rule="evenodd" d="M298.508 30.487C298.548 30.2369 298.447 29.858 298.286 29.7981L297.516 30.0995L297.452 30.0774C297.077 30.181 295.318 30.4987 294.772 30.6771C294.495 30.7677 294.722 31.1153 294.722 31.1153C295.297 31.7305 296.184 31.9203 296.184 31.9203C296.613 31.9366 296.625 31.5347 297.231 31.3275C297.333 31.2925 297.503 31.3049 297.472 31.3863L297.11 31.8193L297.291 31.9059C297.291 31.9059 297.867 31.3305 298.277 30.9595C298.447 30.8056 298.524 30.6292 298.508 30.487Z" fill="#2A4084"/>
<path fill-rule="evenodd" clip-rule="evenodd" d="M298.231 29.6831L297.755 29.7085C297.755 29.7085 296.153 30.3154 295.841 30.4426C295.479 30.5903 296.108 31.77 297.953 30.6891C299.062 30.2177 298.231 29.6831 298.231 29.6831Z" fill="#F3BDAA"/>
<path fill-rule="evenodd" clip-rule="evenodd" d="M303.947 22.469C301.479 24.0258 299.971 25.4493 300.065 26.1179C300.065 26.1179 301.296 25.4399 302.26 25.997C303.215 26.5479 303.007 27.021 302.764 27.2751C302.687 27.3551 303.187 27.8846 303.297 27.8879C304.442 27.9224 307.983 27.5066 308.053 25.3607C308.113 23.5417 307.862 23.3242 307.862 23.3242C307.862 23.3242 305.29 24.2118 303.947 22.469Z" fill="#5671A8"/>
<path fill-rule="evenodd" clip-rule="evenodd" d="M304.665 17.3533C304.665 17.3533 303.723 18.6534 303.775 19.4732C303.808 19.9948 304.15 20.5988 304.196 20.7679C304.566 22.1509 304.294 22.5477 304.32 22.9261C304.32 22.9261 304.546 24.2342 307.82 23.1975L309.269 19.3821L304.665 17.3533Z" fill="#FFFFFE"/>
<path fill-rule="evenodd" clip-rule="evenodd" d="M308.918 20.2804C308.948 20.2313 309.257 19.7464 309.269 19.6903C309.413 19.0457 309.793 18.5534 309.1 17.6987C308.955 17.5206 307.36 16.5381 306.112 16.2393C305.508 16.0945 304.884 16.3982 304.605 16.9509C304.442 17.2742 304.263 17.9216 304.263 17.922C304.129 19.2058 304.8 17.5484 304.851 18.2644C304.848 18.247 304.845 18.2294 304.843 18.2122C304.843 18.2122 304.93 19.4218 304.994 20.3583C305.034 20.9425 305.062 21.365 305.063 21.4241V21.4314L307.151 23.271L308.421 21.2705L308.918 20.2804Z" fill="#FFFFFE"/>
<path fill-rule="evenodd" clip-rule="evenodd" d="M306.193 16.2256C306.193 16.2256 305.034 17.2855 305.936 18.1355C306.838 18.9853 308.555 17.2995 308.555 17.2995C307.739 16.7232 306.945 16.3184 306.193 16.2256Z" fill="#F3BDAA"/>
<path fill-rule="evenodd" clip-rule="evenodd" d="M309.269 19.6902C309.128 19.7489 308.735 20.2725 308.427 20.544C307.827 21.071 306.96 21.3756 306.194 21.1462C305.07 20.8095 303.947 20.1681 303.947 20.1681C303.947 20.1681 304.179 21.5618 303.947 22.4689C303.794 23.0711 305.076 23.5276 305.076 23.5276C306.492 24.0561 307.862 23.3241 307.862 23.3241L308.913 20.5297L309.269 19.6902Z" fill="#DBEEF4"/>
<path fill-rule="evenodd" clip-rule="evenodd" d="M305.871 16.1778C305.595 16.7662 305.173 17.7426 305.82 18.1986C306.717 18.8324 307.805 18.1238 308.503 17.5242C308.679 17.3733 308.423 17.1211 308.248 17.271C307.745 17.7039 306.874 18.3304 306.194 17.9939C305.709 17.754 305.845 17.4751 305.958 17.0611C306.021 16.8285 306.079 16.578 306.182 16.3585C306.279 16.1511 305.968 15.9691 305.871 16.1778Z" fill="#6491BF"/>
<path fill-rule="evenodd" clip-rule="evenodd" d="M302.344 34.5376L302.253 34.4905C302.201 34.4638 302.181 34.3999 302.208 34.3486C302.235 34.2974 302.299 34.2773 302.351 34.3042L302.441 34.3512C302.493 34.378 302.513 34.4418 302.487 34.4931C302.459 34.5444 302.395 34.5644 302.344 34.5376Z" fill="#4A4166"/>
<path fill-rule="evenodd" clip-rule="evenodd" d="M302.195 34.3937V33.917C302.195 33.8591 302.243 33.8118 302.301 33.8118C302.359 33.8118 302.406 33.8591 302.406 33.917V34.3937C302.406 34.4515 302.359 34.4988 302.301 34.4988C302.243 34.4988 302.195 34.4515 302.195 34.3937Z" fill="#3A3454"/>
<path fill-rule="evenodd" clip-rule="evenodd" d="M302.626 32.6008C302.508 32.3758 302.2 32.1314 302.034 32.1788L301.597 32.8771L301.532 32.8976C301.293 33.2028 300.07 34.5004 299.739 34.9671C299.571 35.2043 299.962 35.3486 299.962 35.3486C300.792 35.5019 301.617 35.1292 301.617 35.1292C301.972 34.8876 301.741 34.5579 302.103 34.0327C302.164 33.9441 302.308 33.853 302.332 33.9367L302.301 34.4989L302.499 34.4614C302.499 34.4614 302.616 33.6577 302.723 33.117C302.767 32.8926 302.723 32.7056 302.626 32.6008Z" fill="#2A4084"/>
<path fill-rule="evenodd" clip-rule="evenodd" d="M301.922 32.1189L301.553 32.4219C301.553 32.4219 300.631 33.8582 300.457 34.1453C300.255 34.4786 301.467 35.0529 302.301 33.0917C302.909 32.0563 301.922 32.1189 301.922 32.1189Z" fill="#F3BDAA"/>
<path fill-rule="evenodd" clip-rule="evenodd" d="M304.269 14.1464C304.123 14.5545 304.084 15.0462 304.352 15.3881C304.401 15.451 304.458 15.5064 304.512 15.5642C304.656 15.7154 304.782 15.8838 304.885 16.0648C304.903 16.0959 304.921 16.1284 304.95 16.1495C305.017 16.1984 305.116 16.1664 305.174 16.1077C305.233 16.049 305.264 15.9698 305.31 15.9008C305.444 15.6951 308.269 17.3313 308.408 17.1284C308.596 16.8535 307.902 13.7476 307.829 13.4229C307.735 13.0089 305.672 13.5576 305.334 13.2992C305.268 13.2485 305.195 13.2064 305.136 13.1477C305.05 13.0625 304.972 12.882 304.829 12.943C304.715 12.9921 304.677 13.1972 304.637 13.2966C304.522 13.5833 304.372 13.855 304.269 14.1464Z" fill="#2A4084"/>
<path fill-rule="evenodd" clip-rule="evenodd" d="M306.35 16.9505L305.78 14.7668L307.157 15.2001L307.619 16.9833C307.718 17.274 306.761 18.0657 306.35 16.9505Z" fill="#F3BDAA"/>
<path fill-rule="evenodd" clip-rule="evenodd" d="M306.212 16.3762L306.832 16.0559C306.832 16.0559 306.621 16.5028 306.314 16.6772L306.212 16.3762Z" fill="#DE8266"/>
<path fill-rule="evenodd" clip-rule="evenodd" d="M306.315 16.2057L305.944 16.218C305.372 16.2371 304.89 15.7876 304.871 15.2195L304.807 13.3436C304.788 12.7755 305.24 12.295 305.811 12.276L306.183 12.2638C306.754 12.2448 307.237 12.6941 307.255 13.2622L307.319 15.1383C307.338 15.7064 306.886 16.1867 306.315 16.2057Z" fill="#F3BDAA"/>
<path fill-rule="evenodd" clip-rule="evenodd" d="M306.585 13.8106C306.154 13.2814 305.357 13.9121 304.926 13.7471C304.46 13.568 304.618 13.0909 304.935 12.7056C305.105 12.4988 305.321 12.3244 305.752 12.1622C306.96 11.7081 308.173 12.2164 308.218 13.5753C308.218 13.5753 308.376 15.4235 307.285 15.6981L307.168 15.4391C307.168 15.4391 307.795 14.7513 307.127 14.3498C306.971 14.256 306.964 14.2532 306.977 14.0274C306.991 13.7988 306.73 13.9886 306.585 13.8106Z" fill="#2A4084"/>
<path fill-rule="evenodd" clip-rule="evenodd" d="M307.544 15.4641C307.352 15.6229 307.133 15.568 307.055 15.3419C306.976 15.1156 307.067 14.8036 307.259 14.6449C307.451 14.4863 307.67 14.541 307.749 14.7673C307.829 14.9936 307.736 15.3055 307.544 15.4641Z" fill="#F3BDAA"/>
<path fill-rule="evenodd" clip-rule="evenodd" d="M304.633 14.8231C304.633 14.8231 304.651 14.1987 306.154 13.3826C307.656 12.5663 306.221 13.3449 306.221 13.3449L304.732 13.0098C304.732 13.0098 304.143 13.6743 304.633 14.8231Z" fill="#2A4084"/>
<path fill-rule="evenodd" clip-rule="evenodd" d="M309.761 19.1514C309.89 20.0132 309.884 20.8098 309.868 21.6735C309.852 22.4587 310.079 23.3723 309.851 24.1431C309.703 24.641 309.297 24.861 308.805 24.9197C307.969 25.0195 307.121 24.9786 306.281 25.0847C305.633 25.1667 305.639 24.1513 306.281 24.0701C307.005 23.9787 307.722 23.9629 308.447 23.931C308.819 23.9147 308.864 23.9896 308.898 23.6842C308.981 22.9558 308.824 22.1959 308.853 21.4616C308.88 20.7643 308.882 20.1174 308.777 19.4212C308.681 18.7825 309.664 18.5068 309.761 19.1514Z" fill="#F3BDAA"/>
<path fill-rule="evenodd" clip-rule="evenodd" d="M309.604 18.3389C310.226 19.9347 310.07 21.453 310.029 23.1229C310.008 23.9919 308.647 23.9952 308.668 23.1229C308.707 21.5711 308.871 20.1815 308.292 18.6985C307.975 17.8863 309.289 17.5346 309.604 18.3389Z" fill="#FFFFFE"/>
<path fill-rule="evenodd" clip-rule="evenodd" d="M303.421 24.4448C303.102 24.4958 302.798 24.2779 302.747 23.9604L302.544 22.7142C302.494 22.3967 302.712 22.095 303.032 22.0438C303.351 21.9927 303.655 22.2107 303.706 22.5282L303.908 23.7743C303.959 24.092 303.74 24.3936 303.421 24.4448Z" fill="#F3BDAA"/>
<path fill-rule="evenodd" clip-rule="evenodd" d="M306.648 25.2613L306.647 25.1479L306.501 25.2044L306.469 25.1323L302.791 23.0208C302.747 22.9954 302.669 22.9986 302.619 23.028L301.035 23.937V23.9117L300.743 24.0286V24.1493H300.744C300.747 24.161 300.757 24.1718 300.771 24.1804L304.599 26.3777C304.643 26.4031 304.721 26.3998 304.773 26.3705L306.606 25.3176C306.634 25.3016 306.648 25.281 306.648 25.2615V25.2613Z" fill="#A4BDD7"/>
<path fill-rule="evenodd" clip-rule="evenodd" d="M304.596 26.2576L300.77 24.0604C300.726 24.035 300.731 23.9901 300.782 23.9607L302.616 22.9079C302.668 22.8785 302.746 22.8752 302.79 22.9008L306.616 25.0979C306.66 25.1234 306.654 25.1681 306.604 25.1976L304.77 26.2505C304.719 26.2798 304.641 26.283 304.596 26.2576Z" fill="#E0E9EE"/>
<path fill-rule="evenodd" clip-rule="evenodd" d="M304.858 24.8425L303.932 24.3107C303.921 24.3045 303.922 24.2937 303.935 24.2866L304.379 24.0317C304.391 24.0247 304.41 24.0239 304.421 24.0301L305.347 24.5618C305.358 24.568 305.357 24.5789 305.344 24.5859L304.9 24.8408C304.888 24.8478 304.869 24.8487 304.858 24.8425Z" fill="#A4BDD7"/>
<path fill-rule="evenodd" clip-rule="evenodd" d="M304.499 23.7848C304.484 23.6846 304.404 23.5661 304.323 23.5198L300.523 21.3725C300.49 21.3534 300.461 21.3499 300.439 21.3592V21.3591V21.3595L300.419 21.3746L300.293 21.506L300.408 21.4959L300.769 23.8177C300.785 23.9178 300.863 24.0365 300.945 24.0828L304.538 26.1131L304.654 26.2428L304.668 26.2746C304.74 26.2903 304.914 26.1674 304.914 26.1674L304.499 23.7848Z" fill="#FFFFFE"/>
<path fill-rule="evenodd" clip-rule="evenodd" d="M304.609 26.3703L300.81 24.223C300.728 24.1767 300.649 24.0581 300.634 23.958L300.269 21.6105C300.253 21.5104 300.307 21.4666 300.389 21.5128L304.188 23.66C304.27 23.7063 304.348 23.825 304.364 23.9251L304.729 26.2726C304.745 26.3728 304.691 26.4164 304.609 26.3703Z" fill="#2A4084"/>
<path fill-rule="evenodd" clip-rule="evenodd" d="M304.854 25.0357C304.753 24.7301 304.923 24.3982 305.23 24.298L306.293 23.9511C306.6 23.8509 306.935 24.019 307.036 24.3247C307.137 24.6303 306.967 24.9623 306.659 25.0625L305.597 25.4093C305.288 25.5096 304.955 25.3414 304.854 25.0357Z" fill="#F3BDAA"/>
<path fill-rule="evenodd" clip-rule="evenodd" d="M302.591 24.0974C302.61 24.2221 302.496 24.2501 302.337 24.1598C302.177 24.0696 302.032 23.8953 302.012 23.7706C301.992 23.6459 302.106 23.618 302.266 23.7082C302.425 23.7985 302.571 23.9727 302.591 24.0974Z" fill="#FFFFFE"/>
<path fill-rule="evenodd" clip-rule="evenodd" d="M306.521 13.7435C306.521 13.7435 307.729 15.3159 307.621 16.3448C307.531 17.1953 306.602 17.7367 306.437 19.0219C306.403 19.2893 306.75 19.4306 306.916 19.2178C307.126 18.9501 307.4 18.6574 307.73 18.433C308.536 17.8846 308.684 17.3007 308.607 16.8731C308.531 16.4455 308.196 13.3241 308.196 13.3241L306.343 13.1406L306.521 13.7435Z" fill="#2A4084"/>
<path fill-rule="evenodd" clip-rule="evenodd" d="M316.729 47.4836C316.744 47.5159 317.437 49.2446 318.964 51.293C319.728 52.317 320.701 53.4211 321.907 54.4294C323.111 55.4374 324.55 56.3497 326.239 56.9804C326.55 57.0964 326.896 56.94 327.013 56.6313C327.129 56.3225 326.972 55.9781 326.661 55.8622C325.12 55.2865 323.798 54.4507 322.679 53.5152C321.001 52.1129 319.785 50.485 318.994 49.2105C318.598 48.5733 318.309 48.0251 318.119 47.6391C318.024 47.4461 317.955 47.2938 317.909 47.1911C317.887 47.1398 317.87 47.1009 317.859 47.0756C317.854 47.063 317.851 47.0537 317.848 47.0479L317.846 47.0421L317.845 47.0412L317.623 47.13L317.846 47.0416L317.845 47.0412L317.623 47.13L317.846 47.0416C317.722 46.7352 317.373 46.5857 317.065 46.7079C316.757 46.8299 316.607 47.1772 316.729 47.4837" fill="#F3BDAA"/>
<path fill-rule="evenodd" clip-rule="evenodd" d="M327.342 77.042C326.299 77.042 325.259 76.8146 324.466 76.3594C322.874 75.445 322.882 73.958 324.484 73.0379C325.289 72.5759 326.342 72.3447 327.394 72.3447C328.436 72.3447 329.476 72.5722 330.269 73.0275C331.862 73.9419 331.853 75.4289 330.251 76.3489C329.446 76.8109 328.393 77.042 327.342 77.042Z" fill="#DAE6EE"/>
<path fill-rule="evenodd" clip-rule="evenodd" d="M329.765 74.8332L329.558 73.3651L329.838 72.6371C330.214 72.4095 330.427 72.3184 330.755 72.488C331.029 72.6305 331.095 73.1413 331.091 73.4253L330.93 74.7213C330.849 75.6649 330.514 75.7454 330.22 75.7774C329.878 75.7834 329.788 75.4037 329.765 74.8332Z" fill="#2A4084"/>
<path fill-rule="evenodd" clip-rule="evenodd" d="M323.85 73.8082L325.597 74.1843L325.825 74.7917C325.877 75.2257 325.871 75.4562 325.579 75.6814C325.333 75.8707 324.839 75.7163 324.583 75.5932L323.465 74.907C322.637 74.44 322.704 74.1022 322.797 73.824C322.935 73.5125 323.32 73.5897 323.85 73.8082Z" fill="#2A4084"/>
<path fill-rule="evenodd" clip-rule="evenodd" d="M328.577 52.9402C329.878 54.0811 330.769 55.7443 331.571 57.2506C331.744 57.5751 331.831 57.7733 331.831 58.1369C331.831 59.3475 331.769 60.4956 331.958 61.7067C332.052 62.3173 331.112 62.5786 331.016 61.9611C330.841 60.836 330.758 59.703 330.823 58.5648C330.835 58.3504 330.807 57.8898 330.758 57.7969C329.988 56.345 329.144 54.7306 327.892 53.6329C327.419 53.2185 328.106 52.5285 328.577 52.9402Z" fill="#F3BDAA"/>
<path fill-rule="evenodd" clip-rule="evenodd" d="M328.8 53.0511C329.62 53.7155 330.502 55.2077 331.264 56.3252C331.509 56.6137 331.537 56.9871 331.321 57.0944L330.65 57.6077C330.472 57.6963 330.123 57.3057 329.943 57.0501L327.841 54.4096C327.519 53.9515 327.473 53.4233 327.737 53.1879L327.643 52.9172C327.628 52.6887 328.195 52.5932 328.8 53.0511Z" fill="#E7CD5F"/>
<path fill-rule="evenodd" clip-rule="evenodd" d="M328.094 59.5544C328.094 59.9166 328.351 60.3578 328.669 60.54C328.986 60.7222 329.243 60.5763 329.243 60.2142C329.243 59.852 328.986 59.4108 328.669 59.2286C328.351 59.0464 328.094 59.1923 328.094 59.5544Z" fill="#FFFFFE"/>
<path fill-rule="evenodd" clip-rule="evenodd" d="M325.278 50.3477C325.011 50.3477 325.025 49.9985 325.025 49.9985L325.032 49.815C325.571 49.3241 325.954 49.2886 326.053 49.2886C326.07 49.2886 326.08 49.2896 326.08 49.2896C326.08 49.2896 326.096 49.9796 325.548 50.2656C325.437 50.3243 325.348 50.3477 325.278 50.3477Z" fill="#FFFFFE"/>
<path fill-rule="evenodd" clip-rule="evenodd" d="M325.542 50.1856C325.011 50.4602 325.03 49.9809 325.03 49.9809L325.035 49.8219C325.645 49.2943 326.051 49.3155 326.051 49.3155C326.051 49.3155 326.074 49.9111 325.542 50.1856ZM326.181 49.1406C326.181 49.1406 325.675 49.1081 324.879 49.7886L324.857 50.0081L324.863 50.0054C324.863 50.0054 324.838 50.6507 325.552 50.2817C326.267 49.9126 326.181 49.1406 326.181 49.1406Z" fill="#442F44"/>
<path fill-rule="evenodd" clip-rule="evenodd" d="M324.597 50.1291L325.022 49.9364L325.044 49.6975L324.62 49.89L324.597 50.1291Z" fill="#442F44"/>
<path fill-rule="evenodd" clip-rule="evenodd" d="M326.148 49.3241L326.222 49.29C326.263 49.2714 326.3 49.2145 326.306 49.163C326.311 49.1114 326.281 49.0847 326.24 49.1033L326.166 49.1374C326.124 49.1561 326.087 49.2129 326.082 49.2645C326.077 49.316 326.106 49.3427 326.148 49.3241Z" fill="#442F44"/>
<path fill-rule="evenodd" clip-rule="evenodd" d="M325.97 49.6015C325.988 49.5805 325.993 49.5538 325.982 49.5419L325.856 49.4029C325.846 49.391 325.822 49.3984 325.805 49.4194C325.787 49.4405 325.781 49.4671 325.792 49.479L325.919 49.618C325.93 49.6299 325.952 49.6225 325.97 49.6015Z" fill="#FFFEFE"/>
<path fill-rule="evenodd" clip-rule="evenodd" d="M326.131 63.8952C325.482 65.7895 325.422 67.8259 325.483 69.8086C325.529 71.2859 325.763 72.7763 325.726 74.2541C325.702 75.2233 324.184 75.227 324.208 74.2541C324.247 72.7354 324.003 71.2045 323.961 69.6858C323.905 67.6193 323.991 65.4667 324.668 63.4941C324.981 62.58 326.448 62.9725 326.131 63.8952Z" fill="#465C9A"/>
<path fill-rule="evenodd" clip-rule="evenodd" d="M329.184 62.1949C328.843 63.4248 328.669 65.2339 328.669 66.6936C328.669 70.6207 330.926 71.65 330.926 73.1633C330.926 73.6751 329.835 73.7944 329.48 73.1954C328.572 71.6645 327.549 70.111 327.323 68.2862C327.229 67.5199 327.107 65.4574 327.184 64.6898C327.318 63.34 327.357 63.1044 327.72 61.7938C327.978 60.8586 329.443 61.2557 329.184 62.1949Z" fill="#465C9A"/>
<path fill-rule="evenodd" clip-rule="evenodd" d="M327.94 64.1896C327.799 64.3459 328.402 63.5862 328.222 63.6944C327.846 63.9199 325.74 65.3432 325.301 65.3504C324.772 65.3592 325.08 64.8502 324.687 64.4984C324.313 64.1647 324.224 63.6226 324.188 63.1241C324.178 62.9865 324.171 62.8426 324.226 62.7159C324.286 62.5791 324.41 62.482 324.53 62.392C325.465 61.6876 327.305 59.9443 328.613 60.5018C330.124 61.146 328.61 63.4421 327.94 64.1896Z" fill="#465C9A"/>
<path fill-rule="evenodd" clip-rule="evenodd" d="M329.038 53.0409C329.315 53.3962 329.282 53.6157 329.269 54.1006C329.255 54.5749 328.933 54.9852 328.473 55.1133L323.973 56.4215C323.973 56.4215 323.513 54.627 324.439 54.0868C324.937 53.7957 325.71 53.3302 326.317 52.9626C327.209 52.4226 328.398 52.2203 329.038 53.0409Z" fill="#FBE26F"/>
<path fill-rule="evenodd" clip-rule="evenodd" d="M326.899 52.9801L326.502 51.2217L325.423 51.9434L325.748 53.5445C325.78 53.8045 326.977 53.5774 326.899 52.9801Z" fill="#F3BDAA"/>
<path fill-rule="evenodd" clip-rule="evenodd" d="M326.244 48.658C326.244 48.658 327.326 47.9091 327.336 49.7291C327.344 50.9952 326.57 52.0923 325.525 52.5863C324.875 52.8941 324.08 52.5 324.044 51.8696C323.889 50.9501 323.887 50.0903 324.191 49.3504C324.147 48.5903 324.674 48.8608 325.583 48.8116L326.244 48.658Z" fill="#F3BDAA"/>
<path fill-rule="evenodd" clip-rule="evenodd" d="M326.863 52.19C326.863 52.19 328.114 51.7283 327.995 49.9786C327.865 48.0852 326.114 48.2482 325.142 48.1554C324.711 48.1144 324.411 48.0526 323.97 48.4441C323.568 48.8 323.943 49.6 324.519 49.6517C324.747 49.672 324.643 50.2836 324.689 50.4934C324.771 50.8664 325.005 51.0488 325.091 51.4104C325.173 51.7526 325.68 52.2889 326.01 52.3268C326.598 52.3943 326.863 52.19 326.863 52.19Z" fill="#2A4084"/>
<path fill-rule="evenodd" clip-rule="evenodd" d="M329.402 61.5112C329.698 61.3958 329.553 56.2675 329.245 53.4351L324 55.9454C324.062 58.3565 324.394 60.2591 324.147 63.1973L329.402 61.5112Z" fill="#FBE26F"/>
<path fill-rule="evenodd" clip-rule="evenodd" d="M325.916 63.7218C327.214 63.2465 328.448 62.7258 329.167 61.8311C329.522 61.6243 329.471 61.2597 329.054 61.0207C328.637 60.7818 328.003 60.7557 327.648 60.9625L324.398 62.8532C324.043 63.0601 324.093 63.4248 324.511 63.6636C324.928 63.9025 325.56 63.9288 325.916 63.7218Z" fill="#FBE26F"/>
<path fill-rule="evenodd" clip-rule="evenodd" d="M323.904 55.8114L324.835 55.6543C324.871 57.9935 325.158 59.8724 324.874 62.744L324.889 62.7393C324.883 62.9018 324.999 63.0746 325.232 63.2081C325.645 63.4458 326.277 63.4718 326.636 63.266C327.262 63.0388 327.874 62.8008 328.421 62.5168C327.701 63.0656 326.752 63.4483 325.768 63.8053C325.409 64.0112 324.777 63.9852 324.363 63.7475C324.131 63.614 324.015 63.4412 324.021 63.2787L324.007 63.2834C324.296 60.3592 323.93 58.2109 323.904 55.8114Z" fill="#E7CD5F"/>
<path fill-rule="evenodd" clip-rule="evenodd" d="M325.049 53.7241C326.261 53.5429 327.079 54.3002 327.368 52.5652C327.191 52.4563 326.963 52.509 326.845 52.6791C326.637 52.9777 326.195 53.1666 325.707 53.1069C325.56 53.0891 325.416 53.1561 325.337 53.2793L325.049 53.7241Z" fill="#FFFFFE"/>
<path fill-rule="evenodd" clip-rule="evenodd" d="M324.799 51.0438C324.772 51.3433 324.927 51.601 325.143 51.6193C325.166 51.6214 325.19 51.6204 325.212 51.6168C325.398 51.5871 325.557 51.3772 325.579 51.1105C325.606 50.811 325.451 50.5534 325.236 50.535C325.02 50.5165 324.824 50.7443 324.799 51.0438Z" fill="#F3BDAA"/>
<path fill-rule="evenodd" clip-rule="evenodd" d="M323.959 55.9811L321.699 54.5569C321.122 53.9992 322.064 52.6996 322.568 53.1134L325.245 54.3627C325.566 54.629 325.091 55.4036 324.921 55.7473C324.745 56.1056 324.32 56.2087 323.959 55.9811Z" fill="#FBE26F"/>
<defs>
<filter id="filter0_d" x="-1" y="0.0944824" width="346" height="112" filterUnits="userSpaceOnUse" color-interpolation-filters="sRGB">
<feFlood flood-opacity="0" result="BackgroundImageFix"/>
<feColorMatrix in="SourceAlpha" type="matrix" values="0 0 0 0 0 0 0 0 0 0 0 0 0 0 0 0 0 0 127 0"/>
<feOffset dy="1"/>
<feGaussianBlur stdDeviation="0.5"/>
<feColorMatrix type="matrix" values="0 0 0 0 0 0 0 0 0 0 0 0 0 0 0 0 0 0 0.14 0"/>
<feBlend mode="normal" in2="BackgroundImageFix" result="effect1_dropShadow"/>
<feBlend mode="normal" in="SourceGraphic" in2="effect1_dropShadow" result="shape"/>
</filter>
<linearGradient id="paint0_linear" x1="336.5" y1="89.0945" x2="336.5" y2="132.094" gradientUnits="userSpaceOnUse">
<stop stop-color="#36DBFA"/>
<stop offset="1" stop-color="#19B5F2"/>
</linearGradient>
<linearGradient id="paint1_linear" x1="325.108" y1="-26.2151" x2="285.787" y2="-48.7888" gradientUnits="userSpaceOnUse">
<stop stop-color="#94E9B6"/>
<stop offset="1" stop-color="#5BCF7F"/>
</linearGradient>
<linearGradient id="paint2_linear" x1="368.014" y1="101.785" x2="328.692" y2="79.2112" gradientUnits="userSpaceOnUse">
<stop stop-color="#94E9B6"/>
<stop offset="1" stop-color="#5BCF7F"/>
</linearGradient>
<linearGradient id="paint3_linear" x1="255.406" y1="-38.9055" x2="255.406" y2="4.09448" gradientUnits="userSpaceOnUse">
<stop stop-color="#36DBFA"/>
<stop offset="1" stop-color="#19B5F2"/>
</linearGradient>
<clipPath id="clip0">
</clipPath>
</defs>
</svg>
