<svg width="120" height="92" viewBox="0 0 120 92" fill="none" xmlns="http://www.w3.org/2000/svg">
<path d="M60 120C91.7132 120 117.422 94.2914 117.422 62.5781C117.422 30.8649 91.7132 5.15625 60 5.15625C28.2868 5.15625 2.57812 30.8649 2.57812 62.5781C2.57812 94.2914 28.2868 120 60 120Z" fill="#FF9518" fill-opacity="0.2"/>
<path d="M79.9988 61.3118C74.8802 56.1928 74.8802 47.8927 79.9988 42.7725C84.435 38.3374 91.2581 37.7484 96.3314 40.9997V1.17188C96.3314 0.527344 95.8041 0 95.1595 0H24.8402C24.1957 0 23.6684 0.527344 23.6684 1.17188V107.044C33.566 115.141 46.215 120 60 120C73.785 120 86.434 115.141 96.3317 107.044V63.0851C91.2581 66.3368 84.435 65.7476 79.9988 61.3118Z" fill="#D9EAFC"/>
<path d="M28.3191 1.17188C28.3191 0.527344 28.8464 0 29.4909 0H24.8402C24.1957 0 23.6684 0.527344 23.6684 1.17188V107.044C25.1576 108.262 26.7103 109.406 28.3191 110.472V1.17188Z" fill="#C3DDF4"/>
<path d="M86.2542 13.498C86.2542 14.1425 85.7269 14.6699 85.0824 14.6699H34.9177C34.2731 14.6699 33.7458 14.1425 33.7458 13.498V9.14917C33.7458 8.50464 34.2731 7.97729 34.9177 7.97729H85.0821C85.7267 7.97729 86.254 8.50464 86.254 9.14917V13.498H86.2542Z" fill="white"/>
<path d="M38.3965 13.498V9.14917C38.3965 8.50464 38.9238 7.97729 39.5684 7.97729H34.9177C34.2731 7.97729 33.7458 8.50464 33.7458 9.14917V13.498C33.7458 14.1425 34.2731 14.6699 34.9177 14.6699H39.5684C38.9238 14.6699 38.3965 14.1425 38.3965 13.498Z" fill="#EEF6FF"/>
<path d="M84.4153 26.2517H50.1188C49.1478 26.2517 48.361 25.4649 48.361 24.4939C48.361 23.5229 49.1478 22.7361 50.1188 22.7361H84.4153C85.3863 22.7361 86.1731 23.5229 86.1731 24.4939C86.1731 25.4649 85.3863 26.2517 84.4153 26.2517Z" fill="#B7092B"/>
<path d="M84.4153 31.8762H50.1188C49.1478 31.8762 48.361 31.0894 48.361 30.1184C48.361 29.1474 49.1478 28.3606 50.1188 28.3606H84.4153C85.3863 28.3606 86.1731 29.1474 86.1731 30.1184C86.1731 31.0892 85.3863 31.8762 84.4153 31.8762Z" fill="#B7092B"/>
<path d="M39.8039 32.5806C42.7163 32.5806 45.0773 30.2196 45.0773 27.3071C45.0773 24.3947 42.7163 22.0337 39.8039 22.0337C36.8915 22.0337 34.5305 24.3947 34.5305 27.3071C34.5305 30.2196 36.8915 32.5806 39.8039 32.5806Z" fill="white"/>
<path d="M79.9988 42.7725C81.5506 41.2212 83.3953 40.1431 85.3545 39.5323C85.0826 39.36 84.761 39.2588 84.4153 39.2588H50.1188C49.1478 39.2588 48.361 40.0456 48.361 41.0166C48.361 41.9876 49.1478 42.7744 50.1188 42.7744H79.9969C79.9976 42.7739 79.9981 42.773 79.9988 42.7725Z" fill="#0F9390"/>
<path d="M78.2855 44.8833H50.1188C49.1478 44.8833 48.361 45.6701 48.361 46.6411C48.361 47.6121 49.1478 48.3989 50.1188 48.3989H76.6758C77.0297 47.1713 77.5659 45.9851 78.2855 44.8833Z" fill="#0F9390"/>
<path d="M39.8039 49.1016C42.7163 49.1016 45.0773 46.7406 45.0773 43.8281C45.0773 40.9157 42.7163 38.5547 39.8039 38.5547C36.8915 38.5547 34.5305 40.9157 34.5305 43.8281C34.5305 46.7406 36.8915 49.1016 39.8039 49.1016Z" fill="#2BB381"/>
<path d="M39.803 50.8601C35.926 50.8601 32.772 47.7059 32.772 43.8289C32.772 39.9518 35.926 36.7976 39.803 36.7976C43.6803 36.7976 46.8345 39.9518 46.8345 43.8289C46.8345 47.7059 43.6803 50.8601 39.803 50.8601ZM39.803 40.3132C37.8645 40.3132 36.2876 41.8903 36.2876 43.8289C36.2876 45.7674 37.8647 47.3445 39.803 47.3445C41.7415 47.3445 43.3189 45.7674 43.3189 43.8289C43.3189 41.8903 41.7417 40.3132 39.803 40.3132Z" fill="#0F9390"/>
<path d="M76.7018 55.7812H50.1188C49.1478 55.7812 48.361 56.568 48.361 57.5391C48.361 58.5101 49.1478 59.2969 50.1188 59.2969H78.3481C77.6156 58.1967 77.0663 57.0108 76.7018 55.7812Z" fill="#1E99D6"/>
<path d="M80.0977 61.4058H50.1188C49.1478 61.4058 48.361 62.1928 48.361 63.1636C48.361 64.1346 49.1478 64.9214 50.1188 64.9214H84.4153C84.802 64.9214 85.1588 64.7951 85.4489 64.5832C83.4956 63.99 81.6544 62.9306 80.0977 61.4058Z" fill="#1E99D6"/>
<path d="M39.8039 65.625C42.7163 65.625 45.0773 63.264 45.0773 60.3516C45.0773 57.4391 42.7163 55.0781 39.8039 55.0781C36.8915 55.0781 34.5305 57.4391 34.5305 60.3516C34.5305 63.264 36.8915 65.625 39.8039 65.625Z" fill="#69CDFF"/>
<path d="M39.803 67.3826C35.926 67.3826 32.772 64.2283 32.772 60.3513C32.772 56.4743 35.926 53.3201 39.803 53.3201C43.6803 53.3201 46.8345 56.4743 46.8345 60.3513C46.8345 64.2283 43.6803 67.3826 39.803 67.3826ZM39.803 56.8357C37.8645 56.8357 36.2876 58.4128 36.2876 60.3513C36.2876 62.2901 37.8647 63.8669 39.803 63.8669C41.7415 63.8669 43.3189 62.2901 43.3189 60.3513C43.3189 58.4126 41.7417 56.8357 39.803 56.8357Z" fill="#1E99D6"/>
<path d="M84.4153 75.8193H50.1188C49.1478 75.8193 48.361 75.0325 48.361 74.0615C48.361 73.0905 49.1478 72.3037 50.1188 72.3037H84.4153C85.3863 72.3037 86.1731 73.0905 86.1731 74.0615C86.1731 75.0325 85.3863 75.8193 84.4153 75.8193Z" fill="#DB722C"/>
<path d="M84.4153 81.4438H50.1188C49.1478 81.4438 48.361 80.6571 48.361 79.686C48.361 78.715 49.1478 77.9282 50.1188 77.9282H84.4153C85.3863 77.9282 86.1731 78.715 86.1731 79.686C86.1731 80.6571 85.3863 81.4438 84.4153 81.4438Z" fill="#DB722C"/>
<path d="M39.8039 82.1484C42.7163 82.1484 45.0773 79.7874 45.0773 76.875C45.0773 73.9626 42.7163 71.6016 39.8039 71.6016C36.8915 71.6016 34.5305 73.9626 34.5305 76.875C34.5305 79.7874 36.8915 82.1484 39.8039 82.1484Z" fill="#FFAF10"/>
<path d="M39.803 83.9048C35.926 83.9048 32.772 80.7506 32.772 76.8735C32.772 72.9965 35.926 69.8423 39.803 69.8423C43.6803 69.8423 46.8345 72.9965 46.8345 76.8735C46.8345 80.7506 43.6803 83.9048 39.803 83.9048ZM39.803 73.3579C37.8645 73.3579 36.2876 74.935 36.2876 76.8735C36.2876 78.8123 37.8647 80.3892 39.803 80.3892C41.7415 80.3892 43.3189 78.8123 43.3189 76.8735C43.3189 74.935 41.7417 73.3579 39.803 73.3579Z" fill="#DB722C"/>
<path d="M98.5376 42.7725C103.657 47.8927 103.657 56.1928 98.5376 61.3118C93.4187 66.4313 85.1185 66.4313 79.9988 61.3118C74.8803 56.1928 74.8803 47.8927 79.9988 42.7725C85.1185 37.6543 93.4187 37.6543 98.5376 42.7725Z" fill="white"/>
<path d="M112.083 72.3714L100.947 61.236C105.543 55.4069 105.156 46.9061 99.7802 41.5295C96.9726 38.722 93.2392 37.176 89.2682 37.176C85.2972 37.176 81.5638 38.7222 78.7556 41.5298C72.9599 47.327 72.9599 56.7588 78.7558 62.5548C81.5636 65.3627 85.2972 66.9091 89.2685 66.9091C92.6472 66.9091 95.8514 65.7862 98.4621 63.7227L109.597 74.8574C109.94 75.2006 110.39 75.3721 110.84 75.3721C111.29 75.3721 111.74 75.2006 112.083 74.8572C112.769 74.1709 112.769 73.0579 112.083 72.3714ZM81.2418 60.0691C76.8168 55.6436 76.8168 48.442 81.2416 44.0158C83.3856 41.8722 86.2363 40.6917 89.2685 40.6917C92.3003 40.6917 95.151 41.8722 97.2944 44.0156C101.72 48.4422 101.72 55.6434 97.2944 60.0691C95.1508 62.2129 92.3003 63.3937 89.2685 63.3937C86.2363 63.3934 83.3856 62.2129 81.2418 60.0691Z" fill="#1A2B63"/>
<path d="M95.5819 45.7278C99.0692 49.2155 99.0692 54.8696 95.5819 58.3561C92.0954 61.8436 86.4413 61.8436 82.9538 58.3561C79.4672 54.8696 79.4672 49.2155 82.9538 45.7278C86.4413 42.2415 92.0954 42.2415 95.5819 45.7278Z" fill="#69CDFF"/>
<path d="M87.6044 58.356C84.1179 54.8694 84.1179 49.2153 87.6044 45.7276C88.7512 44.5813 90.1324 43.8146 91.5935 43.422C88.6111 42.6207 85.2947 43.3874 82.954 45.7276C79.4674 49.2153 79.4674 54.8694 82.954 58.356C85.2947 60.6967 88.6113 61.464 91.5935 60.6622C90.1324 60.2696 88.7512 59.5028 87.6044 58.356Z" fill="#3EB7FF"/>
<path d="M46.7604 23.5751C47.419 22.8617 47.3745 21.7498 46.661 21.0912C45.9473 20.4326 44.8357 20.4772 44.1771 21.1906L43.8408 21.5551C42.697 20.7497 41.3048 20.2749 39.8027 20.2749C35.9257 20.2749 32.7717 23.4291 32.7717 27.3062C32.7717 31.1832 35.9257 34.3374 39.8027 34.3374C43.68 34.3374 46.8342 31.1832 46.8342 27.3062C46.8342 26.2123 46.583 25.1759 46.1355 24.252L46.7604 23.5751ZM41.4134 24.1845L39.694 26.0473L37.9322 24.5567C37.8816 24.5138 37.8293 24.4751 37.7754 24.439C38.3489 24.0324 39.0476 23.7905 39.8027 23.7905C40.3838 23.7905 40.9306 23.9342 41.4134 24.1845ZM43.3188 27.3062C43.3188 29.2447 41.7417 30.8218 39.803 30.8218C38.0339 30.8218 36.5698 29.5069 36.327 27.8037L38.7082 29.8187C39.0377 30.0973 39.4413 30.2344 39.8431 30.2344C40.3174 30.2344 40.7897 30.0432 41.1354 29.6689L43.3188 27.3036C43.3186 27.3036 43.3188 27.3052 43.3188 27.3062Z" fill="#B7092B"/>
<path d="M85.1011 91.2881H35.6049C34.6338 91.2881 33.847 90.5013 33.847 89.5303C33.847 88.5593 34.6338 87.7725 35.6049 87.7725H85.1011C86.0721 87.7725 86.8589 88.5593 86.8589 89.5303C86.8589 90.5013 86.0719 91.2881 85.1011 91.2881Z" fill="#445EA0"/>
</svg>
