<svg width="18" height="18" viewBox="0 0 18 18" fill="none" xmlns="http://www.w3.org/2000/svg">
<path d="M13.2043 15.4286H0.64284C0.46509 15.4286 0.321411 15.5726 0.321411 15.75C0.321411 15.9274 0.46509 16.0714 0.64284 16.0714H13.2043C13.3611 17.1601 14.2974 18 15.4286 18C16.6689 18 17.6786 16.9907 17.6786 15.75C17.6786 14.5093 16.6689 13.5 15.4286 13.5C14.2974 13.5 13.3611 14.3399 13.2043 15.4286ZM17.0357 15.75C17.0357 16.6362 16.3147 17.3571 15.4286 17.3571C14.5424 17.3571 13.8214 16.6362 13.8214 15.75C13.8214 14.8638 14.5424 14.1429 15.4286 14.1429C16.3147 14.1429 17.0357 14.8638 17.0357 15.75Z" fill="black"/>
<path d="M6.65195 8.67856H0.64284C0.46509 8.67856 0.321411 8.82256 0.321411 8.99998C0.321411 9.17741 0.46509 9.32141 0.64284 9.32141H6.6317C6.75898 10.4792 7.74255 11.3831 8.93344 11.3831C10.1243 11.3831 11.1079 10.4792 11.2352 9.32141H17.3571C17.5349 9.32141 17.6786 9.17741 17.6786 8.99998C17.6786 8.82256 17.5349 8.67856 17.3571 8.67856H11.2149C11.0295 7.5857 10.0784 6.74998 8.93344 6.74998C7.78852 6.74998 6.83741 7.5857 6.65195 8.67856ZM10.6071 9.06652C10.6071 9.98934 9.85627 10.7402 8.93344 10.7402C8.01062 10.7402 7.25977 9.98966 7.25977 9.06652C7.25977 8.14338 8.01062 7.39284 8.93344 7.39284C9.85627 7.39284 10.6071 8.1437 10.6071 9.06652Z" fill="black"/>
<path d="M2.57141 0C1.33102 0 0.321411 1.00929 0.321411 2.25C0.321411 3.49071 1.33102 4.5 2.57141 4.5C3.70252 4.5 4.63884 3.66011 4.7957 2.57143L17.3571 2.57143C17.5349 2.57143 17.6786 2.42743 17.6786 2.25C17.6786 2.07257 17.5349 1.92857 17.3571 1.92857L4.7957 1.92857C4.63884 0.839893 3.70252 0 2.57141 0ZM4.17855 2.25C4.17855 3.13618 3.45759 3.85714 2.57141 3.85714C1.68523 3.85714 0.964268 3.13618 0.964268 2.25C0.964268 1.36382 1.68523 0.642857 2.57141 0.642857C3.45759 0.642857 4.17855 1.36382 4.17855 2.25Z" fill="black"/>
</svg>
