<svg width="31" height="26" viewBox="0 0 31 26" fill="none" xmlns="http://www.w3.org/2000/svg">
<path d="M30.6474 19.3885C30.3994 18.7904 29.695 18.4991 29.0739 18.7378C28.4529 18.9766 28.1503 19.6548 28.3982 20.2529C28.7134 21.0133 28.6101 21.8815 28.1217 22.5756C27.6331 23.2699 26.8508 23.6682 25.9754 23.6682H5.02954C4.07465 23.6682 3.22669 23.1884 2.76114 22.3847C2.29487 21.5796 2.31679 20.6309 2.81975 19.8466L13.2927 3.51918C13.7695 2.77573 14.5956 2.33188 15.5025 2.33188C16.4093 2.33188 17.2353 2.77573 17.7122 3.51918L25.4578 15.5948C25.8092 16.1426 26.5554 16.3126 27.1243 15.974C27.6932 15.6357 27.8696 14.9173 27.5181 14.3694L19.7725 2.29381C18.8512 0.857496 17.2549 0 15.5024 0C13.7499 0 12.1536 0.857554 11.2323 2.29381L0.759402 18.6213C-0.211529 20.1352 -0.253791 21.9667 0.64624 23.5206C1.54554 25.0731 3.18413 26 5.02954 26H25.9754C27.667 26 29.18 25.2285 30.1265 23.8835C31.0659 22.5485 31.2606 20.8681 30.6474 19.3885Z" fill="white"/>
<path d="M15.5021 21.3953C16.1709 21.3953 16.713 20.8733 16.713 20.2294C16.713 19.5854 16.1709 19.0635 15.5021 19.0635H15.5015C14.8328 19.0635 14.291 19.5854 14.291 20.2294C14.291 20.8733 14.8334 21.3953 15.5021 21.3953Z" fill="white"/>
<path d="M16.7127 16.1475V7.57802C16.7127 6.93408 16.1706 6.41211 15.5018 6.41211C14.8331 6.41211 14.291 6.93408 14.291 7.57802V16.1475C14.291 16.7915 14.8331 17.3135 15.5018 17.3135C16.1706 17.3135 16.7127 16.7915 16.7127 16.1475Z" fill="white"/>
</svg>
