<svg width="64" height="57" viewBox="0 0 64 57" fill="none" xmlns="http://www.w3.org/2000/svg">
<g clip-path="url(#clip0)">
<path d="M47.7281 12.4902C33.2859 12.4902 30.8423 6.8604 30.8205 6.80778C30.7683 6.67278 30.6774 6.55639 30.5593 6.47338C30.4413 6.39037 30.3013 6.34449 30.1572 6.34155C30.0124 6.34235 29.8709 6.38566 29.7502 6.46616C29.6295 6.54665 29.5349 6.66082 29.4779 6.79463C29.4605 6.85309 26.9645 12.4902 12.5761 12.4902C12.3835 12.4922 12.1995 12.5708 12.0645 12.7089C11.9295 12.847 11.8546 13.0333 11.8561 13.2269L14.9732 38.453C17.0474 47.2895 29.1288 51.8685 29.859 52.1988C29.9565 52.2426 30.0481 52.2572 30.1528 52.2572C30.2474 52.2572 30.3507 52.2426 30.4423 52.1988C31.1797 51.8685 42.0874 48.3842 45.331 38.453L48.4481 13.2269C48.4485 13.0336 48.3732 12.848 48.2385 12.7102C48.1037 12.5723 47.9204 12.4933 47.7281 12.4902Z" fill="white" stroke="#008FFF" stroke-width="1.591"/>
<path d="M42.672 17.3996C32.4466 17.3996 30.7186 13.4154 30.7026 13.3774C30.6657 13.2818 30.6013 13.1993 30.5177 13.1405C30.434 13.0817 30.3348 13.0492 30.2328 13.0471C30.1303 13.048 30.0303 13.0788 29.945 13.136C29.8598 13.1931 29.793 13.2739 29.7528 13.3687C29.7382 13.4096 27.9724 17.3996 17.7862 17.3996C17.7186 17.4003 17.6518 17.4145 17.5896 17.4412C17.5274 17.4679 17.4711 17.5067 17.4238 17.5552C17.3765 17.6038 17.3393 17.6613 17.3141 17.7244C17.2889 17.7874 17.2764 17.8549 17.2771 17.9228L19.4822 35.7828C20.9513 42.0382 29.504 45.2784 30.0219 45.5137C30.0902 45.543 30.1557 45.5547 30.2299 45.5547C30.2999 45.5558 30.3693 45.5419 30.4335 45.5137C30.9571 45.2799 38.6808 42.8128 40.976 35.7814L43.1826 17.9214C43.183 17.7846 43.1298 17.6532 43.0345 17.5556C42.9393 17.4579 42.8096 17.4019 42.6735 17.3996H42.672Z" fill="#008FFF"/>
<path d="M52.4946 7.36478C61.1651 5.40048 62.2706 8.01809 55.8109 15.2132C46.1193 26.0067 24.5484 44.2511 11.7469 50.79C-1.05452 57.3304 4.32875 47.1479 8.66911 42.639" stroke="white" stroke-width="4.774" stroke-linecap="round" stroke-linejoin="round"/>
<path d="M52.4946 7.36478C61.1651 5.40048 62.2706 8.01809 55.8109 15.2132C46.1193 26.0067 24.5484 44.2511 11.7469 50.79C-1.05452 57.3304 4.32875 47.1479 8.66911 42.639" stroke="#80868B" stroke-width="1.591" stroke-linecap="round" stroke-linejoin="round"/>
<path d="M51.395 50.5634C51.2618 50.562 51.1302 50.5343 51.0078 50.4819C50.8853 50.4295 50.7742 50.3533 50.681 50.2578C50.5878 50.1622 50.5143 50.0492 50.4646 49.9251C50.4149 49.8009 50.39 49.6682 50.3913 49.5344C50.394 49.2648 50.2902 49.005 50.1026 48.8121C49.915 48.6192 49.659 48.509 49.3906 48.5055C49.2575 48.5068 49.1259 48.5345 49.0034 48.587C48.8809 48.6394 48.7699 48.7156 48.6767 48.8111C48.5835 48.9066 48.5099 49.0197 48.4602 49.1438C48.4105 49.2679 48.3856 49.4007 48.387 49.5344C48.3897 49.8041 48.2859 50.0639 48.0983 50.2567C47.9107 50.4496 47.6546 50.5599 47.3862 50.5634C47.2531 50.5647 47.1215 50.5924 46.999 50.6448C46.8765 50.6972 46.7655 50.7734 46.6723 50.8689C46.5791 50.9645 46.5056 51.0775 46.4559 51.2017C46.4061 51.3258 46.3813 51.4585 46.3826 51.5923C46.3826 52.1623 46.8335 52.6212 47.3862 52.6212C47.939 52.6212 48.3884 53.083 48.3884 53.6516C48.3884 54.2187 48.8364 54.6805 49.3906 54.6805C49.9433 54.6805 50.3928 54.2187 50.3928 53.6516C50.3928 53.083 50.8422 52.6212 51.395 52.6212C51.9477 52.6212 52.3971 52.1608 52.3971 51.5923C52.3985 51.4585 52.3736 51.3258 52.3239 51.2017C52.2742 51.0775 52.2006 50.9645 52.1074 50.8689C52.0142 50.7734 51.9032 50.6972 51.7807 50.6448C51.6582 50.5924 51.5266 50.5647 51.3935 50.5634H51.395ZM4.34769 19.1198C4.06028 19.1163 3.78594 18.9986 3.58475 18.7923C3.38356 18.5861 3.2719 18.3081 3.27423 18.0193C3.27539 17.9214 3.25734 17.8242 3.22112 17.7334C3.1849 17.6425 3.13122 17.5597 3.06315 17.4896C2.99507 17.4196 2.91393 17.3637 2.82437 17.3252C2.7348 17.2867 2.63856 17.2663 2.54114 17.2651C2.4436 17.2661 2.3472 17.2864 2.25747 17.3248C2.16774 17.3632 2.08643 17.4191 2.0182 17.4891C1.94997 17.5592 1.89616 17.6421 1.85985 17.733C1.82354 17.824 1.80544 17.9213 1.8066 18.0193C1.8066 18.6258 1.3266 19.1198 0.734597 19.1198C0.637055 19.1208 0.540658 19.141 0.450924 19.1795C0.36119 19.2179 0.279882 19.2738 0.211653 19.3438C0.143424 19.4139 0.0896149 19.4967 0.0533055 19.5877C0.0169961 19.6787 -0.00110047 19.776 5.1757e-05 19.874C-0.00110047 19.972 0.0169961 20.0693 0.0533055 20.1602C0.0896149 20.2512 0.143424 20.3341 0.211653 20.4041C0.279882 20.4742 0.36119 20.53 0.450924 20.5685C0.540658 20.6069 0.637055 20.6272 0.734597 20.6281C1.32514 20.6281 1.8066 21.1221 1.8066 21.7287C1.80544 21.8267 1.82354 21.9239 1.85985 22.0149C1.89616 22.1059 1.94997 22.1888 2.0182 22.2588C2.08643 22.3289 2.16774 22.3847 2.25747 22.4232C2.3472 22.4616 2.4436 22.4819 2.54114 22.4828C2.63856 22.4817 2.7348 22.4613 2.82437 22.4227C2.91393 22.3842 2.99507 22.3283 3.06315 22.2583C3.13122 22.1883 3.1849 22.1055 3.22112 22.0146C3.25734 21.9237 3.27539 21.8265 3.27423 21.7287C3.27423 21.1221 3.75569 20.6281 4.34769 20.6281C4.44523 20.6272 4.54163 20.6069 4.63136 20.5685C4.72109 20.53 4.8024 20.4742 4.87063 20.4041C4.93886 20.3341 4.99267 20.2512 5.02898 20.1602C5.06529 20.0693 5.08339 19.972 5.08223 19.874C5.08339 19.776 5.06529 19.6787 5.02898 19.5877C4.99267 19.4967 4.93886 19.4139 4.87063 19.3438C4.8024 19.2738 4.72109 19.2179 4.63136 19.1795C4.54163 19.141 4.44523 19.1208 4.34769 19.1198ZM45.715 2.71113C45.1913 2.71113 44.7637 2.27266 44.7637 1.73482C44.7637 1.36505 44.4728 1.06689 44.112 1.06689C43.9378 1.06921 43.7716 1.14078 43.6497 1.26596C43.5279 1.39114 43.4603 1.55972 43.4619 1.73482C43.4642 1.99118 43.3652 2.23798 43.1865 2.42104C43.0079 2.60409 42.7643 2.70843 42.5091 2.71113C42.3346 2.71344 42.1682 2.78522 42.0463 2.91071C41.9244 3.0362 41.857 3.20516 41.859 3.38051C41.859 3.74882 42.1499 4.04843 42.5091 4.04843C43.0342 4.04843 43.4619 4.48689 43.4619 5.0262C43.4619 5.39451 43.7528 5.69413 44.112 5.69413C44.2866 5.6922 44.4532 5.62079 44.5753 5.49557C44.6975 5.37035 44.7652 5.20155 44.7637 5.0262C44.7637 4.48689 45.1899 4.04843 45.715 4.04843C45.8892 4.04612 46.0555 3.97454 46.1773 3.84937C46.2992 3.72419 46.3667 3.5556 46.3651 3.38051C46.3651 3.01074 46.0742 2.71113 45.715 2.71113Z" fill="#80868B"/>
</g>
<defs>
<clipPath id="clip0">
<rect width="64" height="57" fill="white"/>
</clipPath>
</defs>
</svg>
