<svg width="332" height="220" viewBox="0 0 332 220" fill="none" xmlns="http://www.w3.org/2000/svg">
<g clip-path="url(#clip0)">
<g opacity="0.2">
<path opacity="0.2" d="M271.573 183.91C269.354 185.245 267.091 186.539 264.784 187.793C264.426 187.987 264.068 188.181 263.709 188.38C261.974 189.31 260.213 190.214 258.426 191.092C258.44 190.951 258.458 190.811 258.479 190.67C258.684 189.211 259.138 187.799 259.823 186.496C260.145 185.872 260.529 185.282 260.968 184.735C262.729 182.554 265.139 181.336 267.616 181.691C269.16 181.928 270.565 182.716 271.573 183.91Z" fill="#3F3D56"/>
<path opacity="0.2" d="M275.64 180.561C275.596 180.875 275.54 181.183 275.473 181.489C274.191 182.31 272.891 183.118 271.572 183.91C269.353 185.245 267.09 186.539 264.783 187.793C264.425 187.987 264.067 188.181 263.709 188.38C263.278 188.064 262.885 187.701 262.535 187.297C261.878 186.539 261.352 185.677 260.976 184.747C260.192 182.716 259.942 180.518 260.25 178.363C260.559 176.208 261.415 174.169 262.738 172.44C264.499 170.259 266.908 169.041 269.386 169.396C271.863 169.751 273.847 171.603 274.909 174.186C275.714 176.209 275.967 178.409 275.64 180.561Z" fill="#3F3D56"/>
<path opacity="0.2" d="M277.417 168.264C278.216 162.703 275.42 157.7 271.171 157.089C266.923 156.478 262.83 160.491 262.031 166.053C261.232 171.614 264.028 176.617 268.277 177.228C272.525 177.839 276.618 173.825 277.417 168.264Z" fill="#3F3D56"/>
<path opacity="0.2" d="M321.771 65.4203C321.016 70.7397 319.113 75.8312 316.195 80.3423L294.349 77.0521L314.084 83.2774C313.015 84.627 311.855 85.9018 310.612 87.0931C314.786 94.3214 316.411 102.743 315.224 111.005C314.037 119.267 310.107 126.891 304.067 132.652C307.598 138.744 309.32 145.716 309.03 152.751C299.746 163.555 288.42 173.247 275.473 181.515C274.192 182.337 272.891 183.144 271.573 183.936C269.354 185.271 267.091 186.565 264.784 187.82C264.023 187.673 263.275 187.506 262.535 187.312C261.617 187.08 260.716 186.81 259.832 186.511C253.77 184.449 248.341 180.858 244.072 176.085C239.803 171.312 236.837 165.519 235.462 159.265C234.086 153.011 234.347 146.508 236.219 140.384C238.091 134.26 241.511 128.723 246.149 124.307C245.773 123.657 245.418 122.999 245.083 122.332C244.983 122.138 244.89 121.944 244.79 121.745C242.077 116.089 240.845 109.838 241.209 103.577L241.253 102.928C241.279 102.579 241.312 102.226 241.347 101.877C241.4 101.384 241.461 100.888 241.532 100.392V100.345C242.106 96.3417 243.334 92.4598 245.165 88.8541L271.79 102.262L247.528 84.8595C249.026 82.641 250.757 80.5903 252.694 78.7427C250.136 74.3169 248.518 69.4117 247.939 64.3329C247.36 59.2541 247.833 54.1104 249.329 49.2225C250.825 44.3345 253.311 39.8071 256.634 35.9222C259.956 32.0374 264.043 28.8784 268.639 26.6421C273.236 24.4058 278.244 23.1402 283.351 22.9241C288.458 22.7079 293.555 23.546 298.324 25.3859C303.093 27.2259 307.432 30.0283 311.071 33.6186C314.71 37.2089 317.57 41.5101 319.473 46.2542L289.573 62.2475L321.085 51.2497C322.223 55.8851 322.456 60.6966 321.771 65.4203Z" fill="#008FFF"/>
<path opacity="0.1" d="M309.03 152.725C299.747 163.529 288.42 173.22 275.473 181.489C274.192 182.31 272.891 183.118 271.573 183.91C269.354 185.245 267.091 186.539 264.784 187.793C264.024 187.646 263.275 187.479 262.535 187.285C261.617 187.054 260.716 186.784 259.832 186.484C253.775 184.42 248.352 180.83 244.087 176.059C239.821 171.288 236.858 165.498 235.483 159.249C234.107 152.999 234.366 146.5 236.235 140.379C238.103 134.259 241.518 128.723 246.149 124.307C245.773 123.657 245.418 122.999 245.083 122.332C244.984 122.138 244.89 121.944 244.79 121.745C242.078 116.089 240.845 109.838 241.209 103.577L241.253 102.928C241.279 102.579 241.312 102.226 241.347 101.877C241.4 101.384 241.461 100.888 241.532 100.392V100.345C241.761 99.5525 244.79 100.219 249.404 101.813L250.378 102.159C251.4 102.526 252.489 102.931 253.633 103.374C256.131 104.337 258.89 105.473 261.802 106.729L261.992 106.811L262.397 106.987C281.975 115.475 307.727 129.094 304.035 132.61C307.58 138.703 309.313 145.681 309.03 152.725Z" fill="black"/>
</g>
<g opacity="0.2">
<path opacity="0.2" d="M93.6061 200.37C92.3734 199.946 91.1495 199.507 89.9343 199.055C87.1049 198.014 84.3195 196.914 81.5781 195.753C82.134 195.302 82.7649 194.952 83.4419 194.72C85.8868 193.881 88.5725 194.682 90.7591 196.613C91.9393 197.672 92.9057 198.947 93.6061 200.37Z" fill="#3F3D56"/>
<path opacity="0.2" d="M90.7588 196.613C90.5926 197.46 90.3153 198.281 89.9341 199.055C87.1047 198.014 84.3193 196.914 81.5779 195.753C79.1926 194.749 76.8445 193.702 74.5336 192.61C74.4326 191.909 74.3875 191.201 74.3986 190.494C74.4085 189.756 74.4871 189.021 74.6334 188.298C75.2205 185.413 76.8817 183.115 79.3296 182.275C81.7775 181.436 84.4601 182.237 86.6468 184.171C87.1763 184.641 87.6616 185.157 88.0967 185.715C89.0605 186.956 89.8032 188.354 90.2922 189.848C91.0332 192.024 91.1941 194.356 90.7588 196.613Z" fill="#3F3D56"/>
<path opacity="0.2" d="M81.797 190.24C86.0197 188.905 87.9954 183.244 86.2098 177.594C84.4243 171.945 79.5536 168.447 75.3309 169.782C71.1082 171.117 69.1325 176.778 70.9181 182.428C72.7037 188.077 77.5743 191.575 81.797 190.24Z" fill="#3F3D56"/>
<path opacity="0.2" d="M77.671 177.792C81.8937 176.457 83.8694 170.796 82.0838 165.146C80.2983 159.497 75.4276 155.999 71.2049 157.334C66.9822 158.669 65.0066 164.33 66.7921 169.98C68.5777 175.629 73.4483 179.127 77.671 177.792Z" fill="#3F3D56"/>
<path opacity="0.2" d="M88.0822 185.715C87.2663 186.193 86.4288 186.64 85.5698 187.056C84.1852 187.729 82.761 188.317 81.3051 188.818C79.9766 189.276 78.6233 189.659 77.2517 189.965C76.2988 190.18 75.3449 190.356 74.39 190.491C73.2042 190.661 72.0214 190.772 70.8415 190.825C56.6591 183.781 43.9266 175.164 33.0609 165.322C32.9054 164.905 32.7674 164.486 32.6177 164.06C29.8323 155.708 29.8798 146.671 32.7527 138.349C25.487 133.47 20.0609 126.302 17.3376 117.985C15.9828 113.915 15.2892 109.654 15.2831 105.364H46.0223L15.5824 100.498C15.9206 97.6992 16.5542 94.9444 17.4726 92.2794C10.2059 87.4018 4.77962 80.2335 2.05753 71.9157C-4.7695 51.3377 5.96414 29.0633 26.0314 22.1541C39.4653 17.5343 53.6741 20.9801 63.6505 29.9321L43.6478 59.2126L67.4632 33.8769C70.6855 37.7241 73.1477 42.1484 74.7187 46.9146C76.51 52.298 77.1383 58.0003 76.562 63.6446L54.9509 70.8884L75.9955 67.3868C75.6448 69.1624 75.1731 70.9119 74.5837 72.6231C81.8493 77.5006 87.2753 84.6675 89.9988 92.9838C91.3181 96.9455 92.0113 101.089 92.0534 105.264V105.297C92.0534 105.619 92.0534 105.942 92.0534 106.265C92.0534 106.403 92.0534 106.538 92.0534 106.676C91.9508 110.775 91.2172 114.834 89.8785 118.71C92.8314 120.688 95.498 123.063 97.8032 125.769C97.8619 125.833 97.9177 125.898 97.9705 125.965C101.221 129.828 103.703 134.276 105.282 139.071C111.29 157.18 103.685 176.619 88.0822 185.715Z" fill="#008FFF"/>
<path opacity="0.1" d="M88.082 185.715C87.2661 186.193 86.4286 186.64 85.5696 187.056C84.185 187.729 82.7608 188.317 81.3049 188.818C79.9764 189.276 78.6232 189.659 77.2515 189.965C76.2986 190.18 75.3447 190.356 74.3898 190.491C73.204 190.661 72.0212 190.772 70.8413 190.825C56.6589 183.781 43.9265 175.163 33.0608 165.322C32.9052 164.905 32.7673 164.486 32.6176 164.06C29.8322 155.708 29.8796 146.671 32.7526 138.349C25.4868 133.47 20.0608 126.302 17.3375 117.985C16.2838 114.812 60.2251 112.25 80.2453 114.706L80.712 114.765C86.7877 115.549 90.5182 116.82 89.8695 118.701C92.8224 120.679 95.489 123.055 97.7943 125.76C97.853 125.825 97.9087 125.889 97.9616 125.957C101.212 129.819 103.694 134.267 105.273 139.062C111.29 157.18 103.685 176.619 88.082 185.715Z" fill="black"/>
</g>
<path opacity="0.1" d="M179.692 32.8437C179.851 32.6149 179.939 32.3444 179.945 32.0659C179.945 30.3812 176.508 29.0163 172.269 29.0163C168.031 29.0163 164.594 30.3812 164.594 32.0659C164.599 32.3864 164.711 32.6961 164.911 32.9464C160.194 33.4718 157.013 34.4609 157.013 35.588C157.013 37.2757 164.057 38.6405 172.73 38.6405C181.403 38.6405 188.45 37.2757 188.45 35.588C188.45 34.3817 184.878 33.3427 179.692 32.8437Z" fill="#008FFF"/>
<path opacity="0.1" d="M233.968 13.7773C234.221 13.4155 234.36 12.9861 234.367 12.5446C234.367 9.87073 228.914 7.7017 222.187 7.7017C215.459 7.7017 210.006 9.87073 210.006 12.5446C210.019 13.0463 210.197 13.5298 210.511 13.9212C203.021 14.7577 197.972 16.325 197.972 18.1213C197.972 20.7952 209.143 22.9642 222.92 22.9642C236.698 22.9642 247.869 20.7952 247.869 18.1213C247.869 16.2164 242.204 14.5698 233.968 13.7773Z" fill="#008FFF"/>
<path opacity="0.1" d="M136.229 13.7773C136.482 13.4155 136.621 12.9861 136.629 12.5446C136.629 9.87073 131.175 7.7017 124.448 7.7017C117.721 7.7017 112.267 9.87073 112.267 12.5446C112.281 13.0463 112.458 13.5298 112.772 13.9212C105.282 14.7577 100.233 16.325 100.233 18.1213C100.233 20.7952 111.404 22.9642 125.182 22.9642C138.959 22.9642 150.13 20.7952 150.13 18.1213C150.13 16.2164 144.465 14.5698 136.229 13.7773Z" fill="#008FFF"/>
<path opacity="0.1" d="M105.349 39.0632C106.033 38.6669 106.958 39.0456 107.427 39.6825C107.897 40.3194 108.029 41.15 108.146 41.9219C108.407 43.6566 108.598 45.6495 107.427 46.9586C109.341 41.1559 114.844 36.7092 120.929 36.0606" stroke="#008FFF" stroke-width="3" stroke-miterlimit="10"/>
<path opacity="0.1" d="M182.093 10.2934C182.534 10.038 183.126 10.2934 183.429 10.6896C183.697 11.1256 183.856 11.62 183.892 12.1308C184.06 13.2461 184.186 14.5258 183.429 15.3594C184.077 13.5002 185.233 11.8599 186.766 10.6246C188.299 9.38936 190.148 8.60857 192.102 8.3709" stroke="#008FFF" stroke-width="3" stroke-miterlimit="10"/>
<path opacity="0.1" d="M259.874 2.36863C260.314 2.11328 260.907 2.36863 261.209 2.76487C261.477 3.20089 261.636 3.69528 261.673 4.206C261.84 5.32134 261.966 6.60104 261.209 7.4346C261.857 5.57546 263.013 3.93516 264.546 2.69988C266.079 1.46461 267.928 0.683822 269.882 0.446144" stroke="#008FFF" stroke-width="3" stroke-miterlimit="10"/>
<path opacity="0.1" d="M170.761 220C259.43 220 331.31 214.152 331.31 206.939C331.31 199.725 259.43 193.878 170.761 193.878C82.0915 193.878 10.2109 199.725 10.2109 206.939C10.2109 214.152 82.0915 220 170.761 220Z" fill="#008FFF"/>
<path d="M292.136 57.1023H45.864C42.87 57.1023 40.4429 59.5294 40.4429 62.5234V199.023C40.4429 202.017 42.87 204.444 45.864 204.444H292.136C295.13 204.444 297.557 202.017 297.557 199.023V62.5234C297.557 59.5294 295.13 57.1023 292.136 57.1023Z" fill="white"/>
<path d="M297.56 62.5234V70.3014H40.4453V62.5234C40.4442 61.8107 40.5835 61.1048 40.8555 60.4461C41.1274 59.7874 41.5265 59.1887 42.03 58.6844C42.5335 58.18 43.1315 57.7799 43.7898 57.5069C44.4481 57.234 45.1538 57.0934 45.8664 57.0934H292.139C292.851 57.0934 293.557 57.234 294.215 57.5069C294.873 57.7799 295.471 58.18 295.975 58.6844C296.478 59.1887 296.878 59.7874 297.149 60.4461C297.421 61.1048 297.561 61.8107 297.56 62.5234Z" fill="#3F3D56"/>
<g opacity="0.6">
<path opacity="0.6" d="M105.493 91.5896H64.3255C61.5909 91.5896 59.374 93.8065 59.374 96.5411V121.272C59.374 124.007 61.5909 126.224 64.3255 126.224H105.493C108.228 126.224 110.445 124.007 110.445 121.272V96.5411C110.445 93.8065 108.228 91.5896 105.493 91.5896Z" fill="#008FFF"/>
<path opacity="0.6" d="M79.9344 121.325C78.0997 120.131 76.7395 118.334 76.089 116.244C75.4384 114.154 75.5382 111.902 76.3712 109.878C75.3303 108.43 74.6964 106.729 74.5357 104.953C74.375 103.177 74.6933 101.39 75.4574 99.7782C76.2215 98.1666 77.4036 96.7893 78.8806 95.7896C80.3576 94.7898 82.0755 94.2042 83.8556 94.0936C85.6357 93.983 87.4129 94.3515 89.0023 95.1607C90.5917 95.9699 91.9352 97.1903 92.8929 98.6949C93.8506 100.199 94.3876 101.933 94.448 103.716C94.5084 105.498 94.09 107.264 93.2363 108.83C94.4098 110.91 94.7474 113.358 94.1804 115.677C93.6134 117.997 92.1843 120.013 90.1838 121.316C92.2243 122.543 93.8523 124.351 94.8594 126.508H75.2559C76.2653 124.354 77.8942 122.549 79.9344 121.325Z" fill="white"/>
</g>
<path d="M187.676 148.53H146.508C143.774 148.53 141.557 150.747 141.557 153.482V178.213C141.557 180.948 143.774 183.165 146.508 183.165H187.676C190.41 183.165 192.627 180.948 192.627 178.213V153.482C192.627 150.747 190.41 148.53 187.676 148.53Z" fill="#008FFF"/>
<path d="M172.073 180.027C173.527 180.89 174.774 182.062 175.727 183.458H158.169C159.123 182.062 160.37 180.89 161.824 180.027C159.989 178.833 158.629 177.036 157.978 174.946C157.328 172.856 157.427 170.604 158.26 168.58C157.219 167.132 156.586 165.431 156.425 163.655C156.264 161.879 156.582 160.092 157.347 158.48C158.111 156.869 159.293 155.491 160.77 154.491C162.247 153.492 163.965 152.906 165.745 152.795C167.525 152.685 169.302 153.053 170.891 153.863C172.481 154.672 173.824 155.892 174.782 157.397C175.74 158.901 176.277 160.635 176.337 162.418C176.398 164.2 175.979 165.966 175.125 167.532C176.299 169.612 176.637 172.06 176.07 174.379C175.503 176.699 174.073 178.715 172.073 180.018V180.027Z" fill="white"/>
<g opacity="0.6">
<path opacity="0.6" d="M187.676 91.5896H146.508C143.774 91.5896 141.557 93.8065 141.557 96.5411V121.272C141.557 124.007 143.774 126.224 146.508 126.224H187.676C190.41 126.224 192.627 124.007 192.627 121.272V96.5411C192.627 93.8065 190.41 91.5896 187.676 91.5896Z" fill="#008FFF"/>
<path opacity="0.6" d="M177.03 111.563C177.41 113.411 177.224 115.331 176.497 117.073C175.77 118.814 174.535 120.296 172.953 121.325C174.994 122.552 176.622 124.36 177.629 126.517H158.025C159.032 124.36 160.66 122.552 162.701 121.325C161.009 120.222 159.718 118.603 159.019 116.708C158.32 114.813 158.25 112.743 158.821 110.806C158.693 110.82 158.565 110.827 158.436 110.826C157.456 110.816 156.518 110.43 155.815 109.747C155.113 109.064 154.7 108.137 154.662 107.158C154.624 106.179 154.965 105.222 155.613 104.487C156.261 103.752 157.167 103.295 158.143 103.21C157.946 102.74 157.846 102.236 157.849 101.727C157.852 100.835 158.168 99.9713 158.741 99.2873C159.315 98.6033 160.11 98.1422 160.989 97.984C161.868 97.8259 162.774 97.9809 163.55 98.4219C164.326 98.8629 164.923 99.5621 165.237 100.398C165.835 99.8443 166.594 99.4967 167.404 99.4059C168.213 99.3151 169.031 99.4858 169.736 99.893C170.205 99.6211 170.725 99.4521 171.264 99.3971C171.803 99.342 172.347 99.4023 172.861 99.5739C173.374 99.7455 173.846 100.024 174.243 100.392C174.641 100.76 174.955 101.208 175.166 101.707C176.162 101.707 177.119 102.096 177.832 102.791C178.545 103.486 178.957 104.433 178.982 105.429C179.391 105.921 179.67 106.508 179.793 107.136C179.916 107.765 179.879 108.414 179.685 109.024C179.491 109.634 179.147 110.185 178.684 110.628C178.221 111.07 177.654 111.388 177.036 111.554L177.03 111.563Z" fill="white"/>
</g>
<g opacity="0.6">
<path opacity="0.6" d="M273.674 148.53H232.506C229.772 148.53 227.555 150.747 227.555 153.482V178.213C227.555 180.948 229.772 183.165 232.506 183.165H273.674C276.408 183.165 278.625 180.948 278.625 178.213V153.482C278.625 150.747 276.408 148.53 273.674 148.53Z" fill="#008FFF"/>
<path opacity="0.6" d="M263.028 170.265C263.408 172.113 263.222 174.033 262.495 175.775C261.768 177.516 260.533 178.998 258.951 180.027C260.405 180.89 261.652 182.062 262.605 183.458H245.048C246.001 182.062 247.248 180.89 248.702 180.027C247.01 178.924 245.718 177.305 245.018 175.41C244.319 173.515 244.249 171.445 244.819 169.508C244.691 169.522 244.563 169.529 244.434 169.528C243.454 169.518 242.516 169.132 241.813 168.449C241.111 167.766 240.698 166.839 240.66 165.86C240.622 164.88 240.963 163.924 241.611 163.189C242.259 162.454 243.165 161.997 244.141 161.912C243.944 161.442 243.844 160.938 243.847 160.429C243.85 159.537 244.166 158.673 244.739 157.989C245.313 157.305 246.108 156.844 246.987 156.686C247.866 156.528 248.772 156.683 249.548 157.124C250.324 157.565 250.921 158.264 251.235 159.1C251.833 158.546 252.592 158.199 253.402 158.108C254.211 158.017 255.029 158.188 255.734 158.595C256.203 158.323 256.724 158.154 257.262 158.099C257.801 158.044 258.345 158.104 258.859 158.276C259.373 158.447 259.844 158.726 260.241 159.094C260.639 159.462 260.953 159.91 261.164 160.409C262.16 160.408 263.117 160.798 263.83 161.493C264.543 162.188 264.955 163.135 264.98 164.13C265.389 164.623 265.668 165.21 265.791 165.838C265.914 166.466 265.877 167.116 265.683 167.726C265.489 168.336 265.145 168.887 264.682 169.33C264.219 169.772 263.652 170.09 263.034 170.256L263.028 170.265Z" fill="white"/>
</g>
<path d="M273.674 91.5896H232.506C229.772 91.5896 227.555 93.8065 227.555 96.5411V121.272C227.555 124.007 229.772 126.224 232.506 126.224H273.674C276.408 126.224 278.625 124.007 278.625 121.272V96.5411C278.625 93.8065 276.408 91.5896 273.674 91.5896Z" fill="#008FFF"/>
<path d="M262.747 126.517H243.143C244.151 124.36 245.779 122.552 247.819 121.325C245.858 120.048 244.445 118.084 243.856 115.819C243.266 113.554 243.544 111.151 244.634 109.08C243.399 108.164 242.671 107.04 242.671 105.825C242.671 102.746 247.335 100.248 253.09 100.248C258.846 100.248 263.51 102.746 263.51 105.825C263.51 107.11 262.697 108.29 261.332 109.235C262.37 111.299 262.611 113.673 262.009 115.904C261.407 118.134 260.004 120.064 258.068 121.325C260.11 122.552 261.739 124.359 262.747 126.517Z" fill="white"/>
<g opacity="0.6">
<path opacity="0.6" d="M105.493 148.53H64.3255C61.5909 148.53 59.374 150.747 59.374 153.482V178.213C59.374 180.948 61.5909 183.165 64.3255 183.165H105.493C108.228 183.165 110.445 180.948 110.445 178.213V153.482C110.445 150.747 108.228 148.53 105.493 148.53Z" fill="#008FFF"/>
<path opacity="0.6" d="M89.3033 180.027C90.757 180.89 92.0042 182.062 92.9575 183.458H75.3997C76.3529 182.062 77.6002 180.89 79.0539 180.027C77.0929 178.75 75.6794 176.786 75.0904 174.521C74.5013 172.256 74.7791 169.853 75.8693 167.782C74.6337 166.866 73.9058 165.727 73.9058 164.527C73.9058 161.448 78.5696 158.95 84.3253 158.95C90.0811 158.95 94.7449 161.448 94.7449 164.527C94.7449 165.812 93.9319 166.992 92.5671 167.937C93.6051 170.001 93.8461 172.375 93.2439 174.605C92.6418 176.836 91.2389 178.766 89.3033 180.027Z" fill="#008FFF"/>
<path opacity="0.6" d="M105.493 148.53H64.3255C61.5909 148.53 59.374 150.747 59.374 153.482V178.213C59.374 180.948 61.5909 183.165 64.3255 183.165H105.493C108.228 183.165 110.445 180.948 110.445 178.213V153.482C110.445 150.747 108.228 148.53 105.493 148.53Z" fill="#008FFF"/>
<path opacity="0.6" d="M89.3033 180.027C90.757 180.89 92.0042 182.062 92.9575 183.458H75.3997C76.3529 182.062 77.6002 180.89 79.0539 180.027C77.0929 178.75 75.6794 176.786 75.0904 174.521C74.5013 172.256 74.7791 169.853 75.8693 167.782C74.6337 166.866 73.9058 165.727 73.9058 164.527C73.9058 161.448 78.5696 158.95 84.3253 158.95C90.0811 158.95 94.7449 161.448 94.7449 164.527C94.7449 165.812 93.9319 166.992 92.5671 167.937C93.6051 170.001 93.8461 172.375 93.2439 174.605C92.6418 176.836 91.2389 178.766 89.3033 180.027Z" fill="white"/>
</g>
<path d="M309.77 202.627C309.284 202.264 308.752 201.968 308.188 201.747C308.146 201.724 308.1 201.712 308.053 201.711C306.885 200.872 305.794 199.931 304.792 198.9C304.994 198.732 305.2 198.562 305.408 198.401C304.12 197.79 303.421 196.396 302.729 195.137C300.905 191.788 298.5 188.79 295.626 186.285C295.555 186.012 295.144 186.067 294.924 185.897C294.854 185.827 294.803 185.74 294.776 185.644C294.749 185.549 294.746 185.448 294.769 185.351C294.804 185.155 294.892 184.976 294.942 184.782C295.014 184.323 295.002 183.854 294.906 183.399C294.857 182.936 294.877 182.422 295.182 182.076C295.282 181.961 295.405 181.876 295.502 181.762C295.604 181.626 295.676 181.471 295.714 181.306C295.751 181.142 295.755 180.971 295.722 180.805C295.696 180.472 295.621 180.144 295.499 179.833L298.631 171.295C299.362 169.305 300.099 167.271 300.172 165.149C300.231 163.455 299.793 161.674 298.76 160.374C298.948 160.327 299.136 160.28 299.324 160.227C298.103 158.61 297.971 156.47 297.938 154.439C297.925 153.423 297.89 152.408 297.836 151.392C298.187 151.548 298.547 151.685 298.913 151.803C299.027 151.841 299.139 151.876 299.253 151.909C299.807 152.072 300.372 152.194 300.944 152.273C301.196 152.308 301.452 152.334 301.707 152.352L300.606 149.596C300.418 149.188 300.302 148.75 300.266 148.302C300.266 148.275 300.266 148.246 300.266 148.216C300.263 148.166 300.263 148.115 300.266 148.064C300.281 147.942 300.308 147.822 300.348 147.706C300.368 147.648 300.39 147.591 300.416 147.535C300.493 147.369 300.583 147.209 300.686 147.057C300.765 146.94 300.85 146.828 300.935 146.714C301.253 146.342 301.51 145.923 301.698 145.472C301.775 145.245 301.816 145.007 301.819 144.768C301.821 144.525 301.799 144.284 301.754 144.046C301.722 143.884 301.684 143.726 301.643 143.573C301.613 143.479 301.587 143.382 301.554 143.28C301.548 143.254 301.541 143.228 301.531 143.203C301.508 143.13 301.481 143.059 301.458 142.989L301.431 142.919C301.405 142.842 301.375 142.766 301.346 142.69L301.328 142.643C300.92 141.598 300.38 140.588 300.058 139.526C299.971 139.236 299.9 138.942 299.846 138.645L299.811 138.419C299.811 138.354 299.79 138.29 299.782 138.228L299.755 138.005C299.755 137.935 299.741 137.864 299.735 137.794C299.729 137.723 299.735 137.659 299.735 137.588C299.735 137.459 299.735 137.33 299.735 137.198C299.735 137.154 299.735 137.107 299.735 137.06C299.735 136.963 299.735 136.863 299.735 136.767V136.605C299.735 136.508 299.735 136.411 299.758 136.312C299.758 136.265 299.758 136.221 299.758 136.174C299.758 136.033 299.79 135.88 299.814 135.751L299.884 135.369C299.964 135.017 300.004 134.657 300.005 134.295C300.005 134.225 300.005 134.157 300.005 134.087L299.978 133.917C299.977 133.9 299.977 133.883 299.978 133.867C299.978 133.829 299.961 133.79 299.949 133.752C299.937 133.714 299.949 133.714 299.949 133.696L299.914 133.588L299.896 133.538L299.849 133.424L299.832 133.388C299.811 133.341 299.788 133.294 299.764 133.25C299.679 133.094 299.581 132.946 299.471 132.807C298.772 131.886 297.604 131.184 296.964 130.166C296.591 129.511 296.347 128.79 296.245 128.043C296.213 127.873 296.186 127.703 296.157 127.533C296.127 127.363 296.101 127.201 296.072 127.034C296.051 126.931 296.034 126.828 296.013 126.74C296.012 126.718 296.012 126.695 296.013 126.673L295.96 126.426C295.96 126.409 295.96 126.388 295.96 126.37L295.899 126.115C295.899 126.1 295.899 126.083 295.899 126.068C295.878 125.98 295.855 125.889 295.828 125.801C295.828 125.801 295.828 125.781 295.828 125.769C295.802 125.675 295.775 125.581 295.746 125.475V125.458C295.717 125.361 295.687 125.264 295.655 125.164C295.62 125.064 295.587 124.965 295.549 124.871C295.514 124.768 295.476 124.671 295.435 124.577C295.167 123.892 294.805 123.248 294.358 122.663C293.38 121.41 291.872 120.509 290.298 120.571C289.459 120.648 288.637 120.856 287.862 121.187L285.808 121.944L286.38 121.68C285.781 121.696 285.19 121.823 284.637 122.053C284.36 122.173 284.12 122.364 283.942 122.608C283.764 122.851 283.654 123.138 283.624 123.438C283.624 123.791 283.75 124.14 283.706 124.489C283.633 125.076 283.101 125.458 282.826 125.971C282.664 126.279 282.591 126.625 282.614 126.972V126.993V127.11C282.616 127.122 282.616 127.134 282.614 127.145V127.213C281.757 126.843 280.903 126.456 280.064 126.039C278.658 125.346 277.231 124.533 276.354 123.218C276.06 122.796 275.855 122.338 275.576 121.909C275.257 121.455 274.901 121.027 274.513 120.629L271.898 117.797C271.699 118.176 271.954 118.622 272.156 118.995C272.372 119.388 272.535 119.809 272.641 120.245C272.696 120.384 272.696 120.54 272.641 120.679C272.545 120.794 272.422 120.882 272.283 120.935C272.042 121.084 271.859 121.31 271.761 121.576C271.663 121.842 271.657 122.132 271.743 122.402C271.835 122.668 271.994 122.904 272.206 123.089C272.417 123.274 272.674 123.4 272.949 123.456C273.135 123.477 273.317 123.522 273.492 123.588C273.806 123.747 273.956 124.105 274.179 124.378C274.593 124.871 275.253 125.058 275.872 125.22C276.838 126.335 277.845 127.407 278.807 128.522C280.275 130.213 281.769 131.93 283.68 133.074C283.876 133.192 284.079 133.303 284.284 133.406C284.284 133.441 284.284 133.473 284.284 133.509C284.232 133.761 284.265 134.023 284.378 134.254C284.483 134.376 284.611 134.474 284.754 134.545C284.898 134.615 285.055 134.655 285.215 134.662L286.659 134.92C286.659 135.105 286.621 135.293 286.588 135.478C286.568 135.59 286.544 135.701 286.524 135.813L286.497 135.959C286.499 135.966 286.499 135.973 286.497 135.98C286.497 136.018 286.497 136.056 286.483 136.097C286.468 136.138 286.483 136.124 286.483 136.138C286.483 136.153 286.483 136.206 286.483 136.241V136.282C286.48 136.328 286.48 136.374 286.483 136.42C286.533 136.99 286.92 137.456 287.284 137.888C287.354 137.967 287.422 138.049 287.489 138.131C287.169 138.537 286.943 139.01 286.829 139.514C286.765 139.83 286.734 140.151 286.738 140.474C286.541 140.657 286.39 140.884 286.298 141.137C286.199 141.487 286.162 141.851 286.189 142.214V142.241C286.189 142.373 286.189 142.508 286.189 142.64C286.163 143.151 286.247 143.661 286.436 144.137L286.497 144.245C286.177 144.873 285.634 145.361 285.262 145.959C284.877 146.615 284.703 147.373 284.764 148.13C284.824 148.888 285.116 149.608 285.599 150.195C285.893 150.532 286.268 150.858 286.301 151.304C286.297 151.507 286.278 151.709 286.242 151.909C286.207 152.39 286.43 152.848 286.55 153.315C286.613 153.508 286.635 153.712 286.615 153.914C286.595 154.116 286.533 154.312 286.433 154.489C286.207 154.815 286.103 155.211 286.139 155.607C286.245 156.212 285.995 156.813 285.954 157.424C285.934 157.688 285.954 157.952 285.931 158.216C285.875 158.464 285.798 158.706 285.702 158.941L285.681 159.023C285.153 159.255 284.631 159.496 284.129 159.775C283.855 159.896 283.628 160.102 283.48 160.362C283.396 160.625 283.385 160.906 283.448 161.175C283.597 162.226 283.748 163.277 283.903 164.33C283.873 164.33 283.85 164.307 283.821 164.295C283.859 164.814 283.894 165.334 283.932 165.853C283.921 166.249 284.022 166.64 284.226 166.98C284.345 167.109 284.453 167.248 284.549 167.394C284.725 167.755 284.513 168.178 284.355 168.548C284.196 168.918 284.143 169.446 284.49 169.646C284.673 169.772 284.87 169.876 285.077 169.957C284.645 171.718 285.042 173.596 285.441 175.381L286.348 179.466C286.467 180.046 286.534 180.636 286.55 181.227C286.55 181.313 286.55 181.398 286.55 181.483C286.594 182.295 286.738 183.098 286.979 183.875C287.451 185.469 286.999 187.397 287.146 189.117C287.246 189.954 287.413 190.781 287.645 191.591C288.675 195.671 289.591 199.674 289.946 203.872C290.323 204.352 290.834 204.711 291.414 204.902C291.37 205.418 291.414 206.005 291.414 206.308C291.412 206.557 291.372 206.804 291.296 207.042C291.19 207.27 291.035 207.473 290.843 207.636C290.651 207.8 290.426 207.92 290.184 207.99C290.034 208.04 289.89 208.081 289.729 208.119L289.899 207.972C288.931 207.76 287.919 207.935 287.079 208.459C286.812 208.597 286.61 208.834 286.518 209.12C286.483 209.391 286.553 209.665 286.715 209.886C287.184 210.571 287.882 211.068 288.684 211.286C289.478 211.495 290.294 211.608 291.114 211.623L292.62 211.711C292.568 211.797 292.55 211.899 292.568 211.997C292.586 212.096 292.64 212.184 292.72 212.245C292.879 212.364 293.07 212.435 293.269 212.448C293.884 212.539 294.509 212.548 295.127 212.474C295.281 212.47 295.43 212.417 295.552 212.322C295.581 212.296 295.603 212.264 295.619 212.229C295.634 212.194 295.642 212.156 295.642 212.118C295.642 212.079 295.634 212.041 295.619 212.006C295.603 211.971 295.581 211.94 295.552 211.914C295.642 211.911 295.729 211.882 295.802 211.83C295.876 211.778 295.932 211.705 295.963 211.62C296.02 211.447 296.039 211.264 296.016 211.083C295.978 210.382 295.913 209.36 295.549 208.735C295.488 208.62 295.39 208.529 295.271 208.476C295.152 208.423 295.018 208.411 294.892 208.442C294.661 207.193 294.521 205.93 294.475 204.661C294.851 204.519 295.218 204.354 295.573 204.165C294.525 202.478 294.496 200.332 294.824 198.365C294.957 197.745 295.055 197.118 295.118 196.487C295.188 195.234 295 193.807 294.302 192.768C295.572 193.576 296.697 194.593 297.627 195.777C299.095 197.69 299.999 200.018 301.801 201.615L302.52 200.925C302.905 201.571 303.266 202.231 303.603 202.9C303.87 203.394 304.08 203.917 304.228 204.459C304.396 205.286 304.416 206.137 304.287 206.971C304.237 207.414 304.178 207.852 304.105 208.295C304.076 208.482 304.033 208.666 303.976 208.847C303.973 208.79 303.959 208.734 303.935 208.682C303.82 208.483 303.521 208.574 303.348 208.709C303.043 208.94 302.791 209.234 302.611 209.572C302.512 209.735 302.466 209.924 302.479 210.115C302.505 210.229 302.557 210.336 302.629 210.429C302.702 210.521 302.794 210.596 302.899 210.649C303.688 211.113 304.68 210.778 305.54 210.435C305.774 210.351 305.997 210.239 306.204 210.1C306.62 209.806 306.864 209.287 307.287 208.99C307.514 208.866 307.732 208.727 307.941 208.574C308.335 208.216 308.379 207.608 308.654 207.15C309.133 206.364 310.201 206.164 310.618 205.33C311.064 204.391 310.501 203.229 309.77 202.627Z" fill="url(#paint0_linear)"/>
<path d="M291.399 206.378C291.4 206.624 291.361 206.869 291.285 207.103C291.176 207.329 291.02 207.529 290.828 207.69C290.636 207.851 290.411 207.969 290.169 208.037C289.697 208.201 289.195 208.254 288.702 208.395C288.49 208.442 288.294 208.543 288.132 208.688C287.716 209.108 287.962 209.883 288.461 210.2C288.96 210.517 289.594 210.493 290.187 210.467C291.444 210.393 292.693 210.215 293.92 209.936C294.364 209.833 294.88 209.624 294.951 209.178C294.965 209.035 294.953 208.891 294.915 208.753C294.613 207.228 294.454 205.678 294.44 204.124C294.44 204.024 291.966 203.96 291.734 204.106C291.232 204.435 291.429 205.853 291.399 206.378Z" fill="#A1616A"/>
<path d="M302.414 200.951C302.822 201.629 303.207 202.319 303.568 203.026C304.279 204.235 304.523 205.663 304.252 207.039C304.202 207.476 304.14 207.919 304.07 208.345C303.999 208.77 303.885 209.255 303.521 209.501C303.683 209.597 303.865 209.656 304.053 209.672C304.241 209.689 304.43 209.664 304.607 209.598C304.959 209.462 305.283 209.263 305.564 209.011C307.389 207.505 308.769 205.316 308.828 202.947C308.849 202.763 308.814 202.577 308.728 202.413C308.643 202.294 308.534 202.194 308.408 202.119C307.045 201.191 305.78 200.128 304.63 198.947C304.606 198.902 304.572 198.864 304.531 198.834C304.49 198.804 304.443 198.783 304.394 198.773C304.344 198.763 304.293 198.764 304.243 198.775C304.194 198.787 304.148 198.809 304.108 198.841C303.407 199.193 302.235 199.695 301.942 200.49C302.141 200.594 302.306 200.754 302.414 200.951Z" fill="#A1616A"/>
<path d="M293.92 208.853C292.385 209.498 290.715 209.733 289.066 209.941C288.966 209.97 288.861 209.975 288.759 209.956C288.657 209.937 288.561 209.895 288.479 209.833C288.424 209.763 288.391 209.679 288.384 209.591C288.377 209.502 288.397 209.414 288.44 209.337C288.531 209.183 288.652 209.049 288.796 208.943L289.899 208.022C288.933 207.811 287.923 207.984 287.082 208.503C286.949 208.569 286.832 208.661 286.736 208.773C286.639 208.884 286.566 209.014 286.521 209.155C286.486 209.422 286.557 209.693 286.718 209.909C287.189 210.588 287.888 211.077 288.687 211.289C289.48 211.497 290.295 211.61 291.114 211.623L292.614 211.711C292.564 211.796 292.546 211.897 292.565 211.994C292.583 212.091 292.636 212.179 292.714 212.24C292.876 212.354 293.067 212.422 293.266 212.436C293.88 212.524 294.504 212.533 295.121 212.463C295.275 212.459 295.424 212.405 295.546 212.31C295.574 212.285 295.597 212.254 295.612 212.22C295.628 212.185 295.636 212.148 295.636 212.11C295.636 212.073 295.628 212.035 295.612 212.001C295.597 211.967 295.574 211.936 295.546 211.911C295.636 211.909 295.723 211.88 295.796 211.828C295.869 211.775 295.924 211.702 295.954 211.617C296.013 211.447 296.032 211.265 296.01 211.086C295.969 210.396 295.907 209.39 295.543 208.779C295.179 208.169 294.413 208.638 293.92 208.853Z" fill="#3F3D56"/>
<path d="M309.732 202.759C309.246 202.399 308.715 202.103 308.153 201.879C308.13 201.86 308.103 201.847 308.074 201.84C308.046 201.834 308.016 201.834 307.987 201.841C307.959 201.848 307.932 201.862 307.91 201.881C307.888 201.901 307.87 201.925 307.859 201.952C306.853 203.318 306.067 204.833 305.532 206.443C305.238 207.359 304.986 208.333 304.358 209.084C304.275 209.181 304.149 209.281 304.035 209.225C303.92 209.17 303.973 208.885 303.885 208.729C303.797 208.574 303.471 208.624 303.298 208.759C302.994 208.985 302.744 209.276 302.564 209.61C302.464 209.769 302.418 209.956 302.432 210.144C302.459 210.257 302.51 210.362 302.582 210.453C302.654 210.544 302.745 210.618 302.849 210.669C303.639 211.127 304.631 210.799 305.491 210.458C305.724 210.375 305.947 210.265 306.154 210.129C306.568 209.836 306.811 209.328 307.234 209.035C307.461 208.912 307.679 208.775 307.888 208.624C308.282 208.268 308.323 207.67 308.602 207.221C309.08 206.446 310.146 206.246 310.562 205.424C311.023 204.5 310.46 203.352 309.732 202.759Z" fill="#3F3D56"/>
<path d="M297.839 160.195C299.515 161.454 300.219 163.687 300.146 165.771C300.072 167.855 299.333 169.88 298.605 171.835C297.56 174.641 296.517 177.449 295.476 180.259C295.596 180.565 295.672 180.888 295.699 181.216C295.732 181.379 295.729 181.548 295.691 181.71C295.653 181.873 295.581 182.025 295.479 182.158C295.382 182.272 295.259 182.357 295.159 182.469C295.026 182.656 294.933 182.869 294.885 183.093C294.838 183.318 294.837 183.55 294.883 183.775C294.978 184.224 294.99 184.687 294.918 185.14C294.869 185.331 294.781 185.51 294.745 185.703C294.722 185.799 294.724 185.899 294.751 185.993C294.778 186.087 294.83 186.173 294.901 186.241C295.121 186.408 295.532 186.355 295.602 186.622C298.468 189.088 300.871 192.045 302.699 195.354C303.389 196.596 304.088 197.975 305.373 198.583C304.119 199.579 302.916 200.638 301.769 201.755C299.967 200.179 299.069 197.884 297.598 195.997C296.666 194.826 295.543 193.822 294.276 193.026C294.974 194.054 295.156 195.46 295.092 196.698C295.029 197.321 294.931 197.939 294.798 198.55C294.469 200.49 294.505 202.607 295.544 204.274C294.428 204.861 293.146 205.283 291.898 205.11C291.116 205 290.406 204.595 289.914 203.977C289.559 199.836 288.643 195.888 287.613 191.858C287.381 191.061 287.215 190.247 287.117 189.422C286.967 187.708 287.41 185.821 286.947 184.248C286.708 183.486 286.565 182.697 286.521 181.9C286.521 181.817 286.521 181.732 286.521 181.647C286.505 181.066 286.437 180.487 286.319 179.918L285.409 175.874C285.013 174.113 284.616 172.275 285.045 170.523C284.839 170.447 284.642 170.348 284.458 170.23C284.111 170.03 284.164 169.513 284.326 169.147C284.487 168.78 284.696 168.363 284.516 168.008C284.422 167.862 284.314 167.725 284.194 167.6C283.991 167.265 283.889 166.879 283.9 166.487L283.789 164.949C284.433 165.204 284.969 165.674 285.306 166.279C284.467 164.979 284.883 163.124 285.5 161.706C285.615 161.271 285.867 160.884 286.22 160.605C286.573 160.326 287.007 160.168 287.457 160.156C290.891 159.555 295.065 158.108 297.839 160.195Z" fill="#3F3D56"/>
<path opacity="0.1" d="M296.283 168.944C296.283 168.944 294.601 170.065 294.601 170.905C294.601 171.744 294.182 179.302 294.182 179.302V184.62C294.182 184.62 294.475 187.42 294.182 188.119C293.888 188.818 294.182 192.037 294.182 192.457C294.182 192.877 294.601 188.119 294.601 188.119V183.079L295.021 171.603L296.283 168.944Z" fill="black"/>
<path d="M286.917 130.13L285.937 129.74C283.941 128.939 281.939 128.134 280.002 127.195C278.596 126.511 277.173 125.71 276.295 124.413C276.002 123.996 275.799 123.532 275.517 123.121C275.199 122.672 274.845 122.25 274.458 121.859L271.843 119.065C271.646 119.438 271.901 119.878 272.104 120.239C272.318 120.627 272.481 121.042 272.588 121.472C272.639 121.611 272.634 121.765 272.574 121.9C272.5 122.027 272.345 122.079 272.215 122.15C271.978 122.296 271.796 122.518 271.699 122.78C271.601 123.041 271.594 123.328 271.678 123.594C271.772 123.857 271.933 124.091 272.144 124.273C272.356 124.455 272.611 124.579 272.885 124.633C273.069 124.654 273.251 124.699 273.425 124.765C273.739 124.918 273.888 125.273 274.114 125.543C274.525 126.03 275.186 126.215 275.802 126.373C276.768 127.474 277.774 128.531 278.737 129.631C280.205 131.299 281.696 132.992 283.604 134.122C284.283 134.537 285.027 134.835 285.805 135.003C286.061 133.354 286.432 131.726 286.917 130.13Z" fill="#A1616A"/>
<path opacity="0.15" d="M286.917 130.13L285.937 129.74C283.941 128.939 281.939 128.134 280.002 127.195C278.596 126.511 277.173 125.71 276.295 124.413C276.002 123.996 275.799 123.532 275.517 123.121C275.199 122.672 274.845 122.25 274.458 121.859L271.843 119.065C271.646 119.438 271.901 119.878 272.104 120.239C272.318 120.627 272.481 121.042 272.588 121.472C272.639 121.611 272.634 121.765 272.574 121.9C272.5 122.027 272.345 122.079 272.215 122.15C271.978 122.296 271.796 122.518 271.699 122.78C271.601 123.041 271.594 123.328 271.678 123.594C271.772 123.857 271.933 124.091 272.144 124.273C272.356 124.455 272.611 124.579 272.885 124.633C273.069 124.654 273.251 124.699 273.425 124.765C273.739 124.918 273.888 125.273 274.114 125.543C274.525 126.03 275.186 126.215 275.802 126.373C276.768 127.474 277.774 128.531 278.737 129.631C280.205 131.299 281.696 132.992 283.604 134.122C284.283 134.537 285.027 134.835 285.805 135.003C286.061 133.354 286.432 131.726 286.917 130.13Z" fill="black"/>
<path d="M285.115 135.695C284.956 135.689 284.799 135.65 284.655 135.58C284.512 135.511 284.383 135.414 284.279 135.293C284.167 135.066 284.135 134.807 284.188 134.559C284.356 132.958 284.711 131.382 285.244 129.863C285.72 130.744 286.656 131.254 287.542 131.718C288.333 132.159 289.157 132.535 290.008 132.842C289.805 132.775 289.274 136.053 288.981 136.256C288.608 136.517 287.716 136.168 287.305 136.094L285.115 135.695Z" fill="#FF6F61"/>
<path d="M287.393 134.727C289.867 134.727 291.872 132.721 291.872 130.248C291.872 127.774 289.867 125.769 287.393 125.769C284.919 125.769 282.914 127.774 282.914 130.248C282.914 132.721 284.919 134.727 287.393 134.727Z" fill="#A1616A"/>
<path d="M286.486 133.958C286.486 133.958 289.421 136.476 288.165 138.155C286.909 139.834 286.204 140.955 287.886 141.09C289.568 141.225 295.162 138.29 295.162 138.29C295.162 138.29 289.984 134.09 290.824 131.571C291.663 129.053 286.486 133.958 286.486 133.958Z" fill="#FBBEBE"/>
<path d="M289.303 137.9C288.677 138.05 288.106 138.372 287.652 138.828C287.198 139.285 286.879 139.859 286.732 140.485C286.403 141.997 287.105 143.673 286.439 145.073C286.128 145.733 285.558 146.226 285.162 146.834C284.776 147.479 284.601 148.229 284.662 148.978C284.722 149.727 285.015 150.439 285.499 151.014C285.793 151.345 286.166 151.668 286.198 152.108C286.194 152.305 286.174 152.502 286.139 152.695C286.104 153.171 286.327 153.62 286.433 154.081C286.495 154.27 286.516 154.469 286.496 154.667C286.476 154.865 286.414 155.056 286.315 155.228C286.09 155.55 285.986 155.941 286.022 156.332C286.128 156.919 285.878 157.521 285.837 158.122C285.816 158.384 285.837 158.645 285.813 158.906C285.782 159.153 285.73 159.396 285.658 159.634L285.285 161.019C287.313 161.852 289.496 162.241 291.687 162.161C293.656 162.123 295.596 161.715 297.522 161.31C298.109 161.187 298.696 161.063 299.283 160.905C298.065 159.308 297.932 157.198 297.9 155.193C297.847 151.855 297.597 148.523 297.152 145.214C297.739 144.098 298.003 142.866 298.246 141.618C298.357 141.119 298.403 140.608 298.384 140.098C298.323 139.021 297.836 138.023 297.354 137.054C296.917 136.174 296.438 135.243 295.461 134.865C295.224 134.762 294.964 134.722 294.706 134.75C294.449 134.778 294.203 134.872 293.994 135.023C293.251 135.581 293.474 136.543 293.283 137.371C293.034 138.434 292.053 139.2 291.006 139.511C290.225 139.714 289.416 139.79 288.611 139.734C288.532 139.729 288.456 139.702 288.392 139.657C288.328 139.611 288.277 139.548 288.247 139.476C288.216 139.403 288.207 139.323 288.219 139.246C288.232 139.168 288.265 139.095 288.317 139.035C288.666 138.648 289.013 138.261 289.303 137.9Z" fill="#FF6F61"/>
<path d="M292.776 155.214C291.118 156.57 289.442 157.937 287.525 158.897C286.404 159.458 285.209 159.875 284.111 160.479C283.836 160.598 283.608 160.804 283.463 161.066C283.378 161.325 283.367 161.603 283.43 161.868L283.918 165.216C284.05 166.123 284.922 166.702 285.629 167.271C285.55 167.004 285.565 166.718 285.673 166.461C285.723 166.376 285.778 166.294 285.837 166.214C286.102 165.735 286.185 165.177 286.072 164.641C285.96 164.11 285.898 163.57 285.887 163.027C285.881 162.936 285.899 162.845 285.939 162.762C285.978 162.68 286.038 162.61 286.113 162.557C288.494 161.413 291.056 160.535 293.451 159.446C294.088 159.19 294.688 158.849 295.235 158.433C295.786 158.013 296.156 157.399 296.272 156.716C296.292 156.626 296.276 156.531 296.228 156.452C296.179 156.401 296.117 156.364 296.049 156.347C294.986 155.962 293.85 155.601 292.776 155.214Z" fill="#A1616A"/>
<path opacity="0.1" d="M288.17 141.157C287.346 141.295 286.483 141.721 286.201 142.511C286.102 142.854 286.065 143.213 286.092 143.57C286.07 144.071 286.154 144.571 286.339 145.038C286.48 145.295 286.649 145.537 286.841 145.76C288.81 148.284 289.796 151.454 291.716 154.016C291.886 154.242 292.197 154.536 292.101 154.803C292.066 154.868 292.036 154.936 292.01 155.005C292.001 155.074 292.009 155.144 292.034 155.209C292.058 155.274 292.098 155.332 292.15 155.378C292.253 155.471 292.333 155.586 292.382 155.716C292.418 155.851 292.329 156.027 292.192 156.009C292.42 156.722 293.128 157.136 293.794 157.477C294.906 158.037 296.142 158.477 297.378 158.357C297.61 157.427 297.935 156.376 297.803 155.422C297.668 154.698 297.428 153.998 297.09 153.344L296.257 151.524C295.546 149.972 294.83 148.407 293.841 147.016C293.489 146.574 293.193 146.09 292.96 145.575C292.708 144.917 292.01 144.457 291.59 143.89C290.962 143.048 290.319 142.191 289.471 141.571C289.121 141.331 288.581 141.087 288.17 141.157Z" fill="black"/>
<path d="M288.17 140.744C287.346 140.882 286.483 141.307 286.201 142.097C286.102 142.441 286.065 142.799 286.092 143.156C286.07 143.657 286.154 144.158 286.339 144.624C286.48 144.881 286.649 145.124 286.841 145.346C288.81 147.87 289.797 151.04 291.716 153.602C291.886 153.828 292.197 154.122 292.101 154.389C292.066 154.454 292.036 154.522 292.01 154.591C292.001 154.66 292.009 154.73 292.034 154.795C292.058 154.86 292.098 154.918 292.15 154.964C292.253 155.057 292.333 155.173 292.382 155.302C292.418 155.437 292.33 155.613 292.192 155.595C292.421 156.308 293.128 156.722 293.794 157.063C294.907 157.623 296.142 158.064 297.378 157.943C297.61 157.013 297.936 155.962 297.803 155.008C297.668 154.285 297.428 153.585 297.09 152.93L296.257 151.11C295.546 149.558 294.83 147.993 293.841 146.599C293.488 146.159 293.192 145.675 292.961 145.161C292.708 144.504 292.01 144.043 291.59 143.476C290.962 142.634 290.319 141.777 289.471 141.157C289.121 140.92 288.581 140.667 288.17 140.744Z" fill="#FF6F61"/>
<path d="M286.289 122.889C285.691 122.906 285.1 123.03 284.546 123.256C284.27 123.374 284.031 123.563 283.854 123.804C283.676 124.045 283.566 124.329 283.536 124.627C283.536 124.973 283.662 125.317 283.618 125.663C283.542 126.233 283.014 126.617 282.738 127.131C282.262 128.011 282.632 129.127 283.251 129.91C283.871 130.694 284.719 131.284 285.341 132.053C285.842 132.67 286.204 133.387 286.404 134.156C286.603 134.926 286.635 135.729 286.498 136.511C286.418 136.815 286.379 137.128 286.383 137.442C286.433 138.002 286.821 138.463 287.184 138.892C289.01 141.024 290.698 143.27 292.239 145.616C292.702 146.295 293.118 147.005 293.483 147.741C293.847 148.504 294.12 149.32 294.628 149.995C295.091 150.576 295.66 151.064 296.304 151.433C297.927 152.435 299.769 153.029 301.672 153.165L300.574 150.444C300.34 149.976 300.227 149.456 300.246 148.933C300.366 147.955 301.355 147.309 301.678 146.379C301.849 145.762 301.829 145.108 301.619 144.503C301.232 143.124 300.445 141.882 300.037 140.515C299.673 139.313 299.592 138.043 299.8 136.805C299.935 136.268 299.994 135.714 299.973 135.161C299.77 133.497 297.815 132.701 296.911 131.287C296.324 130.38 296.216 129.262 296.031 128.199C295.737 126.649 295.241 125.103 294.27 123.867C293.298 122.631 291.79 121.745 290.213 121.812C289.376 121.889 288.555 122.095 287.78 122.423L285.726 123.168" fill="#3F3D56"/>
<g opacity="0.1">
<path opacity="0.1" d="M295.461 126.362C295.637 127.319 295.755 128.322 296.198 129.176C296.136 128.845 296.083 128.51 296.022 128.181C295.876 127.346 295.646 126.528 295.335 125.739C295.388 125.957 295.423 126.162 295.461 126.362Z" fill="black"/>
<path opacity="0.1" d="M299.242 134.976C299.034 136.215 299.115 137.484 299.48 138.686C299.581 139.012 299.698 139.332 299.832 139.646C299.652 138.705 299.642 137.74 299.802 136.796C299.938 136.259 299.997 135.706 299.976 135.152C299.91 134.686 299.718 134.246 299.421 133.881C299.389 134.245 299.303 134.612 299.242 134.976Z" fill="black"/>
<path opacity="0.1" d="M301.622 144.495C301.507 144.095 301.367 143.703 301.202 143.321C301.276 143.732 301.247 144.155 301.12 144.553C300.8 145.484 299.808 146.13 299.688 147.107C299.67 147.631 299.784 148.151 300.02 148.619L300.24 149.164C300.234 149.085 300.234 149.006 300.24 148.927C300.36 147.949 301.349 147.304 301.672 146.373C301.847 145.757 301.829 145.101 301.622 144.495Z" fill="black"/>
<path opacity="0.1" d="M295.746 149.605C295.101 149.235 294.533 148.747 294.07 148.166C293.565 147.491 293.289 146.675 292.925 145.915C292.56 145.178 292.144 144.467 291.681 143.787C290.14 141.441 288.452 139.195 286.626 137.063L286.436 136.834C286.392 137.027 286.376 137.224 286.386 137.421C286.436 137.982 286.823 138.443 287.187 138.871C289.012 141.003 290.701 143.249 292.241 145.595C292.704 146.274 293.12 146.984 293.486 147.72C293.85 148.483 294.123 149.299 294.63 149.975C295.093 150.555 295.662 151.043 296.306 151.413C297.93 152.414 299.772 153.009 301.674 153.144L300.935 151.31C299.096 151.154 297.319 150.57 295.746 149.605Z" fill="black"/>
<path opacity="0.1" d="M284.783 130.224C284.149 129.455 283.316 128.868 282.693 128.085C282.638 128.011 282.585 127.935 282.532 127.859C282.515 128.608 282.772 129.339 283.254 129.913C283.87 130.7 284.722 131.287 285.344 132.056C285.59 132.357 285.803 132.683 285.978 133.03C285.85 132.002 285.436 131.029 284.783 130.224Z" fill="black"/>
</g>
<path d="M280.777 92.7959L279.292 91.302C279.219 91.2281 279.132 91.1694 279.036 91.1293C278.94 91.0893 278.837 91.0686 278.733 91.0686C278.629 91.0686 278.526 91.0893 278.43 91.1293C278.334 91.1694 278.247 91.2281 278.174 91.302L268.852 100.533L264.91 96.5587C264.837 96.4854 264.751 96.4272 264.656 96.3875C264.561 96.3478 264.458 96.3274 264.355 96.3274C264.252 96.3274 264.15 96.3478 264.055 96.3875C263.96 96.4272 263.873 96.4854 263.801 96.5587L262.301 98.041C262.153 98.1904 262.071 98.3917 262.071 98.6016C262.071 98.8114 262.153 99.0128 262.301 99.1622L268.285 105.194C268.435 105.341 268.636 105.424 268.846 105.424C269.056 105.424 269.257 105.341 269.407 105.194L280.777 93.9054C280.924 93.758 281.006 93.5586 281.006 93.3507C281.006 93.1428 280.924 92.9433 280.777 92.7959Z" fill="#3ACC6C"/>
<path d="M194.485 147.976L193 146.482C192.927 146.408 192.84 146.349 192.744 146.309C192.648 146.269 192.545 146.248 192.441 146.248C192.337 146.248 192.234 146.269 192.138 146.309C192.042 146.349 191.955 146.408 191.882 146.482L182.56 155.713L178.618 151.739C178.545 151.665 178.459 151.607 178.364 151.567C178.269 151.528 178.166 151.507 178.063 151.507C177.96 151.507 177.858 151.528 177.763 151.567C177.668 151.607 177.581 151.665 177.509 151.739L176.009 153.206C175.861 153.355 175.779 153.557 175.779 153.767C175.779 153.976 175.861 154.178 176.009 154.327L181.993 160.359C182.143 160.506 182.344 160.589 182.554 160.589C182.764 160.589 182.965 160.506 183.115 160.359L194.485 149.07C194.627 148.924 194.707 148.727 194.707 148.523C194.707 148.319 194.627 148.122 194.485 147.976Z" fill="#3ACC6C"/>
</g>
<defs>
<linearGradient id="paint0_linear" x1="291.194" y1="212.51" x2="291.194" y2="117.791" gradientUnits="userSpaceOnUse">
<stop stop-color="#808080" stop-opacity="0.25"/>
<stop offset="0.54" stop-color="#808080" stop-opacity="0.12"/>
<stop offset="1" stop-color="#808080" stop-opacity="0.1"/>
</linearGradient>
<clipPath id="clip0">
<rect width="331.311" height="220" fill="white"/>
</clipPath>
</defs>
</svg>
