<svg width="24" height="24" viewBox="0 0 24 24" fill="none" xmlns="http://www.w3.org/2000/svg">
<path d="M12.0043 21.9999C6.62332 22.0251 2.19446 17.7727 2 12.3943V11.894L7.50239 11.6738V12.1741C7.6085 14.6586 9.70828 16.5867 12.1924 16.4805C12.9598 16.4478 13.7062 16.2191 14.3604 15.8163L14.7856 15.5561L17.6818 20.2289L17.2566 20.494C15.6795 21.4737 13.8609 21.9951 12.0043 21.9999ZM3.05046 12.8545C3.51197 17.7927 7.88862 21.4217 12.826 20.9601C14.0467 20.846 15.2311 20.4831 16.3062 19.8937L14.4604 16.8919C13.7008 17.2842 12.8593 17.4916 12.0043 17.4973C9.24489 17.4959 6.9132 15.4506 6.55198 12.7144L3.05046 12.8545Z" fill="black"/>
<path d="M2.04002 12.8951L2 12.2597C2 12.1697 2 12.0846 2 11.9946C2.00625 6.46845 6.49039 1.99375 12.0156 2.00001C15.0713 2.00345 17.9578 3.4034 19.8527 5.80093L20.1629 6.19116L15.846 9.59817L15.5359 9.20794C13.9938 7.25723 11.1627 6.92609 9.21226 8.46838C8.13391 9.32107 7.5042 10.6198 7.50239 11.9946C7.49989 12.0245 7.49989 12.0547 7.50239 12.0846V12.675L2.04002 12.8951ZM12.0043 2.98928C7.08583 2.98865 3.07697 6.93579 3.00043 11.8545L6.50195 11.7144C6.65002 8.67869 9.23064 6.33775 12.2659 6.48583C13.6891 6.55525 15.0299 7.17418 16.0061 8.21235L18.7623 6.04107C17.0556 4.09599 14.5918 2.98334 12.0043 2.98928Z" fill="black"/>
<path d="M16.8416 20.7593L13.9453 16.0816L14.3705 15.8164C16.4832 14.5053 17.1332 11.7295 15.8223 9.61644C15.7345 9.47492 15.6389 9.3384 15.536 9.20751L15.2259 8.81228L19.5427 5.40527L19.8529 5.80051C23.2732 10.1404 22.5284 16.4319 18.189 19.8528C17.894 20.0854 17.5861 20.3012 17.2668 20.4992L16.8416 20.7593ZM15.3109 16.3867L17.1567 19.3885C21.231 16.5372 22.2229 10.9223 19.372 6.84731C19.3705 6.84525 19.3691 6.84318 19.3677 6.84112L16.6115 8.99239C18.1873 11.4162 17.6192 14.6463 15.3109 16.3867Z" fill="black"/>
</svg>
