<svg width="240" height="240" viewBox="0 0 240 240" fill="none" xmlns="http://www.w3.org/2000/svg">
<path d="M217.5 37.4999C217.688 37.4999 122.438 0.93739 120 0C118.126 0.749817 22.3127 37.4999 22.5003 37.4999V106.5C22.5003 154.312 36.1879 216.75 120 240C203.625 216.75 217.313 153.187 217.313 106.5C217.5 82.875 217.5 37.4999 217.5 37.4999Z" fill="#D9DEE1"/>
<path d="M22.4995 106.5C22.4995 154.313 36.1871 216.75 119.999 240V0C116.437 1.31254 22.4995 37.4999 22.4995 37.4999C22.4995 37.4999 22.5 106.5 22.4995 106.5Z" fill="#BCC6CA"/>
<path d="M198.561 50.4375C198.749 50.4375 121.874 19.4998 119.811 18.75C118.124 19.3127 40.874 49.125 41.0616 48.9374V106.875C41.0616 147 48.9368 201.75 119.811 221.25C190.499 201.75 198.561 146.062 198.561 106.875C198.749 87 198.749 50.4375 198.561 50.4375Z" fill="#008FFF"/>
<path d="M119.999 18.75C118.311 19.3127 41.0618 49.125 41.2494 48.9374V106.875C41.2494 147 49.1246 201.75 119.999 221.25V18.75Z" fill="#008FFF"/>
<g clip-path="url(#clip0)">
<path d="M123.53 124.748C127.437 122.886 128.713 117.411 126.39 112.547C124.064 107.666 119.008 105.209 115.101 107.071C111.194 108.933 109.919 114.408 112.245 119.289C114.572 124.162 119.628 126.618 123.53 124.748Z" fill="white"/>
<path d="M135.24 95.623C138.996 119.134 122.264 136.758 122.264 136.758C122.264 136.758 108.469 113.418 85.272 106.374C130.396 139.37 104.713 180.505 104.713 180.505H117.774C117.778 180.505 148.138 128.109 135.24 95.623Z" fill="white"/>
<path d="M109.773 98.3081C109.521 97.9332 109.264 97.534 109.007 97.094C107.814 95.0326 107.268 93.1178 107.268 93.1178C107.268 93.1178 108.645 94.56 109.839 96.6092C110.087 97.0451 110.303 97.4729 110.503 97.8803C110.69 96.8985 110.91 94.8818 109.957 93.2196C108.641 90.9423 105.61 90.2334 105.61 90.2334C105.61 90.2334 104.705 93.2156 106.021 95.497C106.974 97.1592 108.832 97.9781 109.773 98.3081Z" fill="white"/>
<path d="M139.729 115.602C140.487 116.254 142.125 117.452 144.035 117.452C146.667 117.452 148.794 115.174 148.794 115.174C148.794 115.174 146.671 112.901 144.035 112.901C142.125 112.901 140.487 114.099 139.729 114.75C140.181 114.718 140.654 114.693 141.163 114.693C143.542 114.693 145.486 115.166 145.486 115.166C145.486 115.166 143.542 115.647 141.163 115.643C140.65 115.663 140.181 115.635 139.729 115.602Z" fill="white"/>
<path d="M130.172 96.617C131.358 94.5556 132.743 93.1175 132.743 93.1175C132.743 93.1175 132.193 95.0404 130.999 97.1018C130.746 97.5337 130.49 97.9411 130.229 98.3159C131.182 97.9859 133.036 97.1629 133.985 95.513C135.305 93.2275 134.409 90.2412 134.409 90.2412C134.409 90.2412 131.37 90.9623 130.058 93.2315C129.105 94.8856 129.316 96.8981 129.508 97.8922C129.695 97.4807 129.915 97.0529 130.172 96.617Z" fill="white"/>
<path d="M118.939 84.2078C118.939 78.9075 120.002 74.6176 120.002 74.6176C120.002 74.6176 121.07 78.9157 121.07 84.2078C121.07 85.3282 121.017 86.3874 120.935 87.3896C122.394 85.7071 125.054 82.0608 125.054 77.8076C125.054 71.9573 120.002 67.2192 120.002 67.2192C120.002 67.2192 114.951 71.9573 114.951 77.8076C114.951 82.0608 117.611 85.703 119.065 87.3896C118.992 86.3874 118.939 85.3323 118.939 84.2078Z" fill="white"/>
<path d="M85.1168 100.87C88.8037 102.997 93.2852 102.512 95.4729 102.093C94.5685 101.669 93.6192 101.172 92.6537 100.618C88.0664 97.9738 84.8805 94.9061 84.8805 94.9061C84.8805 94.9061 89.1297 96.1283 93.717 98.7764C94.6866 99.3386 95.5788 99.909 96.4099 100.483C95.6847 98.3731 93.8637 94.2502 90.1726 92.1235C85.1127 89.1943 78.4802 91.1987 78.4802 91.1987C78.4802 91.1987 80.0528 97.9494 85.1168 100.87Z" fill="white"/>
<path d="M154.884 129.482C151.201 127.36 146.719 127.837 144.532 128.256C145.44 128.684 146.385 129.181 147.355 129.735C151.938 132.383 155.128 135.447 155.128 135.447C155.128 135.447 150.879 134.229 146.287 131.581C145.318 131.014 144.426 130.444 143.599 129.869C144.324 131.98 146.145 136.099 149.828 138.225C154.888 141.154 161.524 139.15 161.524 139.15C161.524 139.15 159.944 132.403 154.884 129.482Z" fill="white"/>
<path d="M96.402 129.881C95.5709 130.448 94.6828 131.018 93.7132 131.584C89.1258 134.224 84.8726 135.459 84.8726 135.459C84.8726 135.459 88.0585 132.387 92.6458 129.739C93.6195 129.173 94.5646 128.696 95.4691 128.26C93.2854 127.836 88.7959 127.351 85.113 129.486C80.049 132.407 78.4683 139.154 78.4683 139.154C78.4683 139.154 85.1007 141.158 90.1647 138.237C93.8558 136.102 95.6768 131.984 96.402 129.881Z" fill="white"/>
<path d="M143.603 100.467C144.43 99.9009 145.322 99.3305 146.3 98.7683C150.883 96.1202 155.132 94.898 155.132 94.898C155.132 94.898 151.95 97.9657 147.359 100.61C146.389 101.172 145.44 101.661 144.544 102.085C146.723 102.508 151.213 102.997 154.888 100.862C159.956 97.9372 161.532 91.1907 161.532 91.1907C161.532 91.1907 154.904 89.1903 149.844 92.1155C146.149 94.2421 144.324 98.365 143.603 100.467Z" fill="white"/>
<path d="M100.288 83.5437C99.5304 82.4315 98.7604 81.2337 98.0067 79.93C94.4541 73.7864 92.8123 68.0828 92.8123 68.0828C92.8123 68.0828 96.9271 72.3524 100.476 78.5123C101.229 79.8078 101.877 81.0748 102.455 82.293C103.026 79.3638 103.674 73.3546 100.822 68.4169C96.9026 61.6256 87.8583 59.5071 87.8583 59.5071C87.8583 59.5071 85.1736 68.3965 89.0928 75.1838C91.9446 80.1256 97.4771 82.5659 100.288 83.5437Z" fill="white"/>
<path d="M139.721 146.813C140.479 147.925 141.257 149.119 142.006 150.418C145.563 156.586 147.201 162.274 147.201 162.274C147.201 162.274 143.086 158 139.529 151.848C138.78 150.545 138.128 149.278 137.549 148.068C136.991 150.997 136.339 156.994 139.187 161.935C143.11 168.723 152.151 170.849 152.151 170.849C152.151 170.849 154.848 161.952 150.924 155.164C148.064 150.227 142.536 147.786 139.721 146.813Z" fill="white"/>
<path d="M78.4804 116.608C71.3794 116.608 65.6228 115.174 65.6228 115.174C65.6228 115.174 71.3794 113.74 78.4804 113.74C79.9877 113.74 81.4096 113.822 82.7499 113.919C80.497 111.964 75.6163 108.395 69.9046 108.395C62.0703 108.399 55.7148 115.174 55.7148 115.174C55.7148 115.174 62.0744 121.953 69.9046 121.949C75.6123 121.949 80.4929 118.384 82.7458 116.433C81.4055 116.535 79.9796 116.608 78.4804 116.608Z" fill="white"/>
<path d="M170.1 108.411C164.397 108.411 159.516 111.964 157.259 113.928C158.603 113.826 160.029 113.748 161.525 113.752C168.63 113.752 174.382 115.182 174.382 115.182C174.382 115.182 168.63 116.616 161.533 116.616C160.029 116.616 158.603 116.539 157.259 116.441C159.512 118.393 164.397 121.957 170.1 121.957C177.939 121.957 184.286 115.191 184.286 115.191C184.286 115.191 177.931 108.403 170.1 108.411Z" fill="white"/>
<path d="M100.479 151.852C96.9268 158.004 92.812 162.278 92.812 162.278C92.812 162.278 94.4498 156.574 98.0023 150.422C98.7601 149.127 99.53 147.933 100.292 146.809C97.4727 147.787 91.9402 150.231 89.0884 155.173C85.1651 161.96 87.854 170.858 87.854 170.858C87.854 170.858 96.9023 168.739 100.822 161.952C103.677 157.01 103.03 150.997 102.463 148.076C101.873 149.282 101.225 150.537 100.479 151.852Z" fill="white"/>
<path d="M139.53 78.5C143.078 72.3483 147.193 68.0787 147.193 68.0787C147.193 68.0787 145.555 73.7783 141.999 79.9259C141.249 81.2174 140.479 82.4233 139.721 83.5355C142.537 82.5618 148.069 80.1174 150.917 75.1797C154.84 68.3924 152.151 59.4907 152.151 59.4907C152.151 59.4907 143.111 61.6133 139.188 68.4006C136.324 73.3423 136.975 79.3515 137.542 82.2766C138.128 81.0748 138.772 79.8078 139.53 78.5Z" fill="white"/>
</g>
<defs>
<clipPath id="clip0">
<rect x="55.7148" y="55.7141" width="128.571" height="128.571" fill="white"/>
</clipPath>
</defs>
</svg>
