<svg width="60" height="60" viewBox="0 0 60 60" fill="none" xmlns="http://www.w3.org/2000/svg">
<path d="M54.3751 9.37498C54.422 9.37498 30.6095 0.234348 30.0001 0C29.5314 0.187454 5.57824 9.37498 5.62513 9.37498V26.6249C5.62513 38.5781 9.04703 54.1875 30.0001 59.9999C50.9064 54.1874 54.3283 38.2967 54.3283 26.6249C54.3751 20.7188 54.3751 9.37498 54.3751 9.37498Z" fill="#D9DEE1"/>
<path d="M5.62482 26.6251C5.62482 38.5782 9.04672 54.1876 29.9998 60V0C29.1092 0.328134 5.62482 9.37497 5.62482 9.37497C5.62482 9.37497 5.62494 26.6251 5.62482 26.6251Z" fill="#BCC6CA"/>
<path d="M49.6404 12.6094C49.6873 12.6094 30.4685 4.87495 29.9529 4.6875C29.531 4.82818 10.2186 12.2812 10.2655 12.2343V26.7187C10.2655 36.7499 12.2343 50.4374 29.9529 55.3124C47.6248 50.4374 49.6404 36.5156 49.6404 26.7187C49.6873 21.75 49.6873 12.6094 49.6404 12.6094Z" fill="#008FFF"/>
<path d="M29.9998 4.6875C29.5779 4.82818 10.2654 12.2812 10.3123 12.2343V26.7187C10.3123 36.7499 12.2811 50.4374 29.9998 55.3124V4.6875Z" fill="#008FFF"/>
<g clip-path="url(#clip0)">
<path d="M30.9327 31.2561C31.9659 30.7638 32.303 29.3159 31.689 28.0296C31.0738 26.739 29.7369 26.0894 28.7038 26.5817C27.6707 27.074 27.3335 28.5219 27.9486 29.8125C28.5637 31.101 29.9007 31.7506 30.9327 31.2561Z" fill="white"/>
<path d="M34.0288 23.5546C35.0221 29.7716 30.5976 34.432 30.5976 34.432C30.5976 34.432 26.9499 28.2602 20.8158 26.3975C32.7479 35.1226 25.9566 46 25.9566 46H29.4105C29.4115 46 37.4395 32.1449 34.0288 23.5546Z" fill="white"/>
<path d="M27.2947 24.2645C27.2279 24.1654 27.16 24.0598 27.0921 23.9434C26.7765 23.3983 26.6321 22.892 26.6321 22.892C26.6321 22.892 26.9962 23.2734 27.3119 23.8152C27.3776 23.9305 27.4347 24.0436 27.4875 24.1514C27.537 23.8917 27.5952 23.3585 27.3431 22.9189C26.9952 22.3167 26.1937 22.1293 26.1937 22.1293C26.1937 22.1293 25.9545 22.9179 26.3025 23.5211C26.5546 23.9607 27.0458 24.1772 27.2947 24.2645Z" fill="white"/>
<path d="M35.2159 28.8375C35.4163 29.0099 35.8494 29.3266 36.3547 29.3266C37.0506 29.3266 37.6129 28.7244 37.6129 28.7244C37.6129 28.7244 37.0517 28.1233 36.3547 28.1233C35.8494 28.1233 35.4163 28.44 35.2159 28.6124C35.3355 28.6038 35.4605 28.5973 35.5952 28.5973C36.2243 28.5973 36.7382 28.7223 36.7382 28.7223C36.7382 28.7223 36.2243 28.8494 35.5952 28.8483C35.4594 28.8537 35.3355 28.8462 35.2159 28.8375Z" fill="white"/>
<path d="M32.6887 23.8173C33.0022 23.2722 33.3685 22.8919 33.3685 22.8919C33.3685 22.8919 33.223 23.4004 32.9074 23.9455C32.8406 24.0597 32.7727 24.1674 32.7038 24.2665C32.9559 24.1793 33.446 23.9617 33.697 23.5254C34.0461 22.921 33.8091 22.1313 33.8091 22.1313C33.8091 22.1313 33.0054 22.322 32.6585 22.9221C32.4064 23.3595 32.4625 23.8916 32.5131 24.1545C32.5626 24.0457 32.6208 23.9326 32.6887 23.8173Z" fill="white"/>
<path d="M29.7186 20.5359C29.7186 19.1343 29.9997 17.9999 29.9997 17.9999C29.9997 17.9999 30.282 19.1365 30.282 20.5359C30.282 20.8322 30.268 21.1123 30.2464 21.3773C30.6321 20.9323 31.3356 19.9682 31.3356 18.8435C31.3356 17.2965 29.9997 16.0436 29.9997 16.0436C29.9997 16.0436 28.6639 17.2965 28.6639 18.8435C28.6639 19.9682 29.3674 20.9313 29.7519 21.3773C29.7326 21.1123 29.7186 20.8332 29.7186 20.5359Z" fill="white"/>
<path d="M20.7749 24.9421C21.7498 25.5044 22.9348 25.3762 23.5134 25.2653C23.2742 25.1532 23.0232 25.0218 22.7679 24.8753C21.5548 24.1761 20.7124 23.3649 20.7124 23.3649C20.7124 23.3649 21.836 23.6881 23.049 24.3884C23.3054 24.537 23.5414 24.6879 23.7611 24.8398C23.5694 24.2817 23.0878 23.1915 22.1118 22.6291C20.7738 21.8546 19.02 22.3846 19.02 22.3846C19.02 22.3846 19.4358 24.1697 20.7749 24.9421Z" fill="white"/>
<path d="M39.2236 32.5079C38.2497 31.9466 37.0647 32.0727 36.4861 32.1836C36.7264 32.2968 36.9763 32.4282 37.2327 32.5747C38.4447 33.2749 39.2882 34.0851 39.2882 34.0851C39.2882 34.0851 38.1646 33.763 36.9505 33.0627C36.6941 32.913 36.4581 32.7622 36.2394 32.6103C36.4312 33.1683 36.9128 34.2574 37.8866 34.8198C39.2246 35.5944 40.9795 35.0643 40.9795 35.0643C40.9795 35.0643 40.5616 33.2803 39.2236 32.5079Z" fill="white"/>
<path d="M23.7589 32.6135C23.5392 32.7632 23.3043 32.9141 23.0479 33.0638C21.8349 33.7619 20.7102 34.0883 20.7102 34.0883C20.7102 34.0883 21.5526 33.276 22.7657 32.5758C23.0231 32.426 23.2731 32.3 23.5122 32.1847C22.9348 32.0727 21.7476 31.9445 20.7737 32.509C19.4347 33.2814 19.0167 35.0654 19.0167 35.0654C19.0167 35.0654 20.7705 35.5955 22.1096 34.823C23.0856 34.2585 23.5672 33.1694 23.7589 32.6135Z" fill="white"/>
<path d="M36.2405 24.8354C36.4592 24.6857 36.6951 24.5349 36.9536 24.3862C38.1656 23.686 39.2892 23.3628 39.2892 23.3628C39.2892 23.3628 38.4479 24.174 37.2337 24.8731C36.9773 25.0218 36.7263 25.1511 36.4893 25.2631C37.0657 25.3752 38.2529 25.5044 39.2246 24.9399C40.5647 24.1664 40.9817 22.3824 40.9817 22.3824C40.9817 22.3824 39.2289 21.8535 37.8909 22.627C36.9138 23.1893 36.4312 24.2795 36.2405 24.8354Z" fill="white"/>
<path d="M24.7867 20.3603C24.5863 20.0662 24.3827 19.7495 24.1834 19.4048C23.244 17.7802 22.8099 16.272 22.8099 16.272C22.8099 16.272 23.8979 17.401 24.8363 19.0299C25.0356 19.3724 25.2068 19.7075 25.3598 20.0296C25.5106 19.255 25.6819 17.666 24.9278 16.3603C23.8915 14.5645 21.4999 14.0043 21.4999 14.0043C21.4999 14.0043 20.7899 16.3549 21.8263 18.1497C22.5804 19.4565 24.0434 20.1018 24.7867 20.3603Z" fill="white"/>
<path d="M35.2138 37.0907C35.4142 37.3848 35.6199 37.7004 35.8182 38.0441C36.7586 39.6751 37.1917 41.179 37.1917 41.179C37.1917 41.179 36.1037 40.049 35.1632 38.4222C34.9649 38.0775 34.7926 37.7425 34.6396 37.4225C34.492 38.1971 34.3196 39.7829 35.0727 41.0896C36.1101 42.8844 38.5006 43.4467 38.5006 43.4467C38.5006 43.4467 39.2138 41.0939 38.1764 39.2992C37.4201 37.9935 35.9582 37.3482 35.2138 37.0907Z" fill="white"/>
<path d="M19.0199 29.1037C17.1422 29.1037 15.62 28.7245 15.62 28.7245C15.62 28.7245 17.1422 28.3453 19.0199 28.3453C19.4185 28.3453 19.7945 28.3668 20.1489 28.3927C19.5532 27.8756 18.2626 26.9319 16.7522 26.9319C14.6806 26.933 13 28.7245 13 28.7245C13 28.7245 14.6817 30.5171 16.7522 30.516C18.2615 30.516 19.5521 29.5734 20.1479 29.0574C19.7934 29.0843 19.4164 29.1037 19.0199 29.1037Z" fill="white"/>
<path d="M43.2473 26.9362C41.739 26.9362 40.4484 27.8756 39.8516 28.3948C40.2071 28.3679 40.5842 28.3474 40.9796 28.3485C42.8584 28.3485 44.3795 28.7266 44.3795 28.7266C44.3795 28.7266 42.8584 29.1058 40.9817 29.1058C40.5842 29.1058 40.2071 29.0854 39.8516 29.0595C40.4474 29.5755 41.739 30.5182 43.2473 30.5182C45.32 30.5182 46.9984 28.7288 46.9984 28.7288C46.9984 28.7288 45.3178 26.934 43.2473 26.9362Z" fill="white"/>
<path d="M24.8373 38.4233C23.8979 40.05 22.8098 41.1801 22.8098 41.1801C22.8098 41.1801 23.2429 39.6719 24.1823 38.0452C24.3827 37.7026 24.5863 37.3869 24.7877 37.0896C24.0422 37.3482 22.5793 37.9945 21.8252 39.3013C20.7877 41.0961 21.4987 43.4489 21.4987 43.4489C21.4987 43.4489 23.8914 42.8887 24.9278 41.0939C25.683 39.7871 25.5117 38.1971 25.3619 37.4246C25.2057 37.7435 25.0344 38.0753 24.8373 38.4233Z" fill="white"/>
<path d="M35.1632 19.0267C36.1015 17.3999 37.1896 16.2709 37.1896 16.2709C37.1896 16.2709 36.7565 17.7781 35.816 19.4037C35.6178 19.7452 35.4142 20.0641 35.2138 20.3582C35.9582 20.1007 37.4212 19.4543 38.1742 18.1487C39.2117 16.3539 38.5007 14 38.5007 14C38.5007 14 36.1101 14.5613 35.0727 16.356C34.3154 17.6628 34.4877 19.2518 34.6375 20.0253C34.7926 19.7075 34.9628 19.3725 35.1632 19.0267Z" fill="white"/>
</g>
<defs>
<clipPath id="clip0">
<rect x="13.9287" y="13.9285" width="32.1429" height="32.1429" fill="white"/>
</clipPath>
</defs>
</svg>
