<svg width="40" height="41" viewBox="0 0 40 41" fill="none" xmlns="http://www.w3.org/2000/svg">
<path d="M12.4999 19.1045H0.833252V39.1045H12.4999V19.1045Z" fill="#0277BD"/>
<path d="M12.5 39.9381H0.833359C0.373125 39.9381 0 39.5651 0 39.1048V19.1048C0 18.6446 0.373125 18.2715 0.833359 18.2715H12.5C12.9602 18.2715 13.3334 18.6446 13.3334 19.1048V39.1048C13.3334 39.5651 12.9602 39.9381 12.5 39.9381ZM1.66664 38.2715H11.6666V19.9381H1.66664V38.2715Z" fill="#01579B"/>
<path d="M12.5 35.7719C13.9523 36.8349 15.7004 37.4175 17.5 37.4386H32.9166C34.5238 37.4442 35.8312 36.1459 35.8368 34.5387C35.8396 33.7307 35.5063 32.9578 34.9166 32.4052C36.508 32.2332 37.6588 30.8037 37.4869 29.2123C37.4122 28.5211 37.0915 27.8797 36.5834 27.4052C38.175 27.2351 39.3274 25.8069 39.1573 24.2153C39.0528 23.2381 38.4603 22.3804 37.5834 21.9368C39.1473 20.9656 39.6277 18.9104 38.6564 17.3465C38.0499 16.37 36.983 15.7748 35.8334 15.7718H24.1666C25.0822 13.3657 25.6436 10.8393 25.8333 8.27184C25.8333 5.14684 23.1249 2.43848 21.6666 2.43848C20.7673 2.4516 19.894 2.7427 19.1666 3.27184V9.1052L14.1666 19.9386L12.5 20.7719V35.7719Z" fill="#ECEFF1"/>
<path d="M32.9165 38.2711H17.4999C15.4792 38.255 13.5179 37.585 11.9099 36.3611C11.7537 36.2046 11.6661 35.9923 11.6665 35.7711V20.7711C11.6665 20.4557 11.8446 20.1674 12.1265 20.0261L13.5315 19.3228L18.3331 8.92277V3.27113C18.3326 3.01785 18.4473 2.77801 18.6448 2.61949C19.5218 1.97496 20.5781 1.6202 21.6664 1.60449C23.5948 1.60449 26.6664 4.65613 26.6664 8.27113C26.5405 10.5454 26.0915 12.79 25.3331 14.9378H35.8331C38.1342 14.9378 39.9997 16.8032 39.9997 19.1044C40.0024 20.1386 39.6156 21.1358 38.9164 21.8978C40.3668 23.358 40.3588 25.7176 38.8986 27.1681C38.6181 27.4468 38.2949 27.679 37.9413 27.8561C38.2007 28.3733 38.3349 28.9443 38.333 29.5228C38.3314 30.9334 37.5352 32.2229 36.2746 32.8561C36.534 33.3733 36.6681 33.9443 36.6663 34.5228C36.6628 36.5921 34.9858 38.2684 32.9165 38.2711ZM13.3332 35.3895C14.5952 36.1446 16.0299 36.563 17.4999 36.6045H32.9165C34.0667 36.6036 34.9989 35.6714 34.9999 34.5211C34.9999 33.9486 34.7613 33.4021 34.3415 33.0128C34.0063 32.6975 33.9901 32.17 34.3054 31.8348C34.4405 31.6911 34.6222 31.6 34.8181 31.5778C35.9523 31.4579 36.7746 30.4413 36.6546 29.3071C36.6023 28.8118 36.3727 28.3521 36.0081 28.0128C35.6729 27.6975 35.6567 27.17 35.9721 26.8348C36.1071 26.6911 36.2888 26.6 36.4848 26.5778C37.619 26.4582 38.4415 25.4419 38.322 24.3078C38.2481 23.6062 37.8211 22.9909 37.1898 22.6761C36.7808 22.465 36.6203 21.9625 36.8314 21.5534C36.9009 21.4187 37.0058 21.3056 37.1348 21.2261C38.3066 20.4959 38.6646 18.954 37.9343 17.7822C37.4817 17.0558 36.6889 16.6115 35.8331 16.6045H24.1665C23.7063 16.6043 23.3334 16.231 23.3336 15.7707C23.3337 15.6695 23.3521 15.5691 23.3882 15.4745C24.2664 13.1625 24.8092 10.7368 24.9999 8.27113C24.9999 5.54113 22.5799 3.27113 21.6665 3.27113C21.082 3.28059 20.5091 3.43582 19.9999 3.72277V9.10441C19.9997 9.2252 19.9736 9.34457 19.9232 9.45441L14.9232 20.2878C14.8438 20.459 14.7087 20.5983 14.5399 20.6828L13.3332 21.2861V35.3895Z" fill="#01579B"/>
<path d="M12.5 39.9381H0.833359C0.373125 39.9381 0 39.5651 0 39.1048V19.1048C0 18.6446 0.373125 18.2715 0.833359 18.2715H12.5C12.9602 18.2715 13.3334 18.6446 13.3334 19.1048V39.1048C13.3334 39.5651 12.9602 39.9381 12.5 39.9381ZM1.66664 38.2715H11.6666V19.9381H1.66664V38.2715Z" fill="black"/>
<path d="M32.9167 38.2711H17.5C15.4793 38.255 13.5182 37.5848 11.91 36.3611C11.5903 36.0301 11.5995 35.5025 11.9305 35.1828C12.2535 34.8708 12.7654 34.8708 13.0884 35.1828C14.384 36.0867 15.9205 36.5818 17.5 36.6044H32.9167C34.0669 36.6036 34.9991 35.6714 35 34.5211C34.9996 33.9487 34.7612 33.4023 34.3417 33.0128C34.0064 32.6975 33.9903 32.17 34.3056 31.8348C34.4407 31.6911 34.6224 31.6 34.8183 31.5778C35.9524 31.4579 36.7747 30.4413 36.6548 29.3071C36.6024 28.8118 36.3728 28.3521 36.0083 28.0128C35.6731 27.6975 35.6569 27.17 35.9722 26.8348C36.1073 26.6911 36.289 26.6 36.4849 26.5778C37.6192 26.459 38.4424 25.4432 38.3237 24.3089C38.2502 23.6069 37.8232 22.9911 37.1916 22.6761C36.7826 22.465 36.6221 21.9624 36.8332 21.5533C36.9027 21.4186 37.0076 21.3055 37.1366 21.2261C38.3084 20.4958 38.6664 18.9539 37.9361 17.7821C37.4831 17.0553 36.6896 16.6109 35.8332 16.6044H24.1667C23.7064 16.6042 23.3336 16.2309 23.3338 15.7707C23.3339 15.6694 23.3523 15.569 23.3884 15.4744C24.2657 13.1623 24.8083 10.7367 25 8.27113C25 5.54113 22.58 3.27113 21.6667 3.27113C21.0821 3.28059 20.5093 3.43582 20 3.72277V9.10441C19.9999 9.2252 19.9738 9.34457 19.9234 9.45441L14.9234 20.2878C14.844 20.459 14.7089 20.5983 14.54 20.6828L12.8734 21.5161C12.4615 21.7218 11.9608 21.5547 11.755 21.1428C11.5493 20.7308 11.7165 20.2302 12.1284 20.0244L13.5334 19.3211L18.3334 8.9227V3.27113C18.3332 3.01754 18.4486 2.7777 18.6468 2.61949C19.5234 1.97543 20.579 1.62059 21.6668 1.60449C23.5951 1.60449 26.6668 4.65613 26.6668 8.27113C26.5412 10.5454 26.0922 12.7902 25.3334 14.9378H35.8334C38.1346 14.9378 40 16.8032 40 19.1044C40.0026 20.1386 39.6158 21.1357 38.9167 21.8978C40.3674 23.3577 40.36 25.7173 38.9001 27.1681C38.6197 27.4468 38.2967 27.679 37.9434 27.8561C38.859 29.6975 38.1139 31.9325 36.2767 32.8561C36.5352 33.3736 36.6688 33.9444 36.6667 34.5228C36.663 36.5921 34.986 38.2684 32.9167 38.2711Z" fill="black"/>
</svg>
