<svg width="20" height="20" viewBox="0 0 20 20" fill="none" xmlns="http://www.w3.org/2000/svg">
<path d="M10.5717 8.67026C10.3521 8.88981 10.3521 9.24192 10.5717 9.46148C11.4789 10.3687 11.4789 11.8434 10.5717 12.7506L5.80779 17.5145C4.90058 18.4217 3.42585 18.4217 2.51864 17.5145L1.80199 16.7978C0.89478 15.8906 0.89478 14.4159 1.80199 13.5087L6.56587 8.74482C6.78542 8.52527 6.78542 8.17316 6.56587 7.9536C6.34631 7.73405 5.9942 7.73405 5.77465 7.9536L1.01077 12.7175C0.360398 13.3679 0 14.2336 0 15.1533C0 16.0729 0.356255 16.9387 1.01077 17.5891L1.72742 18.3057C2.39851 18.9768 3.28086 19.3123 4.16321 19.3123C5.04557 19.3123 5.92792 18.9768 6.59901 18.3057L11.3629 13.5418C12.7051 12.1997 12.7051 10.0124 11.3629 8.67026C11.1475 8.45071 10.7912 8.45071 10.5717 8.67026Z" fill="#008FFF"/>
<path d="M18.9935 2.41096L18.2769 1.69431C16.9347 0.35214 14.7474 0.35214 13.4053 1.69431L8.64139 6.45819C7.29922 7.80036 7.29922 9.9876 8.64139 11.3298C8.86095 11.5493 9.21306 11.5493 9.43261 11.3298C9.65216 11.1102 9.65216 10.7581 9.43261 10.5386C8.5254 9.63135 8.5254 8.15662 9.43261 7.24941L14.1965 2.48553C15.1037 1.57832 16.5784 1.57832 17.4856 2.48553L18.2023 3.20218C19.1095 4.10939 19.1095 5.58412 18.2023 6.49133L13.4384 11.2552C13.2189 11.4748 13.2189 11.8269 13.4384 12.0464C13.5461 12.1541 13.6911 12.2121 13.8319 12.2121C13.9728 12.2121 14.1178 12.1583 14.2255 12.0464L18.9894 7.28255C19.6397 6.63217 20.0001 5.76639 20.0001 4.84676C20.0001 3.92712 19.6439 3.06134 18.9935 2.41096Z" fill="#008FFF"/>
</svg>
