<svg width="97" height="101" viewBox="0 0 97 101" fill="none" xmlns="http://www.w3.org/2000/svg">
<path d="M88.9366 9.31863C88.9366 8.28945 88.1022 7.45508 87.073 7.45508H9.92672C8.89755 7.45508 8.06317 8.28945 8.06317 9.31863V64.1036C8.06317 65.1327 8.89755 65.9671 9.92672 65.9671H87.073C88.1022 65.9671 88.9366 65.1327 88.9366 64.1036V9.31863ZM11.7903 62.24V53.8426H27.221C27.9602 55.6609 29.7437 56.9478 31.8242 56.9478C34.5644 56.9478 36.7937 54.7185 36.7937 51.9783C36.7937 49.2381 34.5644 47.0088 31.8242 47.0088C29.743 47.0088 27.9592 48.2964 27.2202 50.1155H11.7903V45.9677H40.3712L45.0557 50.6522C44.7784 51.2711 44.6206 51.9547 44.6206 52.6755C44.6206 55.4157 46.8499 57.645 49.5901 57.645C52.3302 57.645 54.5595 55.4157 54.5595 52.6755C54.5595 49.9353 52.3302 47.706 49.5901 47.706C48.9363 47.706 48.3131 47.8362 47.7409 48.0666L42.4606 42.7863C42.1112 42.4367 41.6372 42.2404 41.1429 42.2404H11.7903V38.5754H62.9994C63.7386 40.3937 65.5222 41.6803 67.6026 41.6803C70.3428 41.6803 72.5721 39.451 72.5721 36.7108C72.5721 33.9707 70.3428 31.7414 67.6026 31.7414C65.5214 31.7414 63.7374 33.029 62.9987 34.8483H11.7903V31.1833H24.6197C25.1139 31.1833 25.588 30.987 25.9374 30.6374L31.2194 25.3554C31.7916 25.5857 32.4146 25.7159 33.0683 25.7159C35.8085 25.7159 38.0378 23.4866 38.0378 20.7464C38.0378 18.0063 35.8085 15.777 33.0683 15.777C30.3281 15.777 28.0988 18.0063 28.0988 20.7464C28.0988 21.4672 28.2566 22.151 28.5339 22.77L23.8477 27.4562H11.7903V11.1822H85.2095V15.7772H56.2653C55.7711 15.7772 55.297 15.9735 54.9476 16.3231L49.6656 21.6051C49.0934 21.3748 48.4704 21.2446 47.8167 21.2446C45.0765 21.2446 42.8472 23.4739 42.8472 26.2141C42.8472 28.9542 45.0765 31.1836 47.8167 31.1836C50.5569 31.1836 52.7862 28.9542 52.7862 26.2141C52.7862 25.493 52.6284 24.8095 52.3511 24.1905L57.0373 19.5043H85.2097V50.813H70.4007C69.662 48.9936 67.8779 47.706 65.7967 47.706C63.0566 47.706 60.8273 49.9353 60.8273 52.6755C60.8273 55.4157 63.0566 57.645 65.7967 57.645C67.8772 57.645 69.6607 56.3584 70.4 54.5401H85.2097V62.24H11.7903ZM30.5818 51.9783C30.5818 51.2933 31.1392 50.7359 31.8242 50.7359C32.5092 50.7359 33.0666 51.2933 33.0666 51.9783C33.0666 52.6633 32.5092 53.2207 31.8242 53.2207C31.1392 53.2207 30.5818 52.6631 30.5818 51.9783ZM49.5901 51.4331C50.2751 51.4331 50.8324 51.9905 50.8324 52.6755C50.8324 53.3606 50.2751 53.9179 49.5901 53.9179C48.905 53.9179 48.3477 53.3606 48.3477 52.6755C48.3477 51.9905 48.9053 51.4331 49.5901 51.4331ZM66.3603 36.7111C66.3603 36.0261 66.9176 35.4687 67.6026 35.4687C68.2877 35.4687 68.845 36.0261 68.845 36.7111C68.845 37.3961 68.2877 37.9535 67.6026 37.9535C66.9176 37.9535 66.3603 37.3961 66.3603 36.7111ZM31.8259 20.7467C31.8259 20.0616 32.3833 19.5043 33.0683 19.5043C33.7533 19.5043 34.3107 20.0616 34.3107 20.7467C34.3107 21.4317 33.7533 21.989 33.0683 21.989C32.3833 21.989 31.8259 21.4317 31.8259 20.7467ZM49.0591 26.2141C49.0591 26.8991 48.5017 27.4564 47.8167 27.4564C47.1317 27.4564 46.5743 26.8991 46.5743 26.2141C46.5743 25.529 47.1317 24.9717 47.8167 24.9717C48.5017 24.9717 49.0591 25.529 49.0591 26.2141ZM67.0391 52.6755C67.0391 53.3606 66.4818 53.9179 65.7967 53.9179C65.1117 53.9179 64.5544 53.3606 64.5544 52.6755C64.5544 51.9905 65.1117 51.4331 65.7967 51.4331C66.4818 51.4331 67.0391 51.9905 67.0391 52.6755Z" fill="#83959D"/>
<path d="M89.7379 77.893H71.98V73.4204H88.8869C93.0247 73.4204 96.391 70.0541 96.391 65.9163V7.50415C96.391 3.36632 93.0247 0 88.8869 0H8.11314C3.97531 0 0.608988 3.36632 0.608988 7.50415V65.9163C0.608988 70.0541 3.97531 73.4204 8.11314 73.4204H25.0208V77.893H7.26236C3.28554 77.893 0.0501709 81.1283 0.0501709 85.1052V93.7878C0.0501709 97.7646 3.28554 101 7.26236 101H89.7379C93.7147 101 96.9501 97.7646 96.9501 93.7878V85.1052C96.9499 81.1283 93.7145 77.893 89.7379 77.893ZM4.33609 65.9163V7.50415C4.33609 5.42144 6.03043 3.7271 8.11314 3.7271H88.8869C90.9696 3.7271 92.6639 5.42144 92.6639 7.50415V65.9163C92.6639 67.999 90.9696 69.6933 88.8869 69.6933H8.11314C6.03043 69.6933 4.33609 67.999 4.33609 65.9163ZM28.7481 73.4204H68.2529V77.893H28.7481V73.4204ZM93.2228 93.7878C93.2228 95.7095 91.6594 97.2729 89.7377 97.2729H7.26236C5.34067 97.2729 3.77727 95.7095 3.77727 93.7878V85.1052C3.77727 83.1835 5.34067 81.6201 7.26236 81.6201H89.7379C91.6596 81.6201 93.223 83.1835 93.223 85.1052V93.7878H93.2228Z" fill="#83959D"/>
<path d="M43.096 87.582H11.0446C10.0155 87.582 9.18109 88.4164 9.18109 89.4456C9.18109 90.4748 10.0155 91.3091 11.0446 91.3091H43.0962C44.1254 91.3091 44.9598 90.4748 44.9598 89.4456C44.9598 88.4164 44.1252 87.582 43.096 87.582Z" fill="#83959D"/>
<path d="M86.3281 87.582H80.7377C79.7085 87.582 78.8741 88.4164 78.8741 89.4456C78.8741 90.4748 79.7085 91.3091 80.7377 91.3091H86.3281C87.3573 91.3091 88.1917 90.4748 88.1917 89.4456C88.1917 88.4164 87.3573 87.582 86.3281 87.582Z" fill="#83959D"/>
</svg>
