<svg width="20" height="20" viewBox="0 0 20 20" fill="none" xmlns="http://www.w3.org/2000/svg">
<g clip-path="url(#clip0)">
<path d="M7.50008 10.0001C9.10841 10.0001 10.4167 8.69175 10.4167 7.08342C10.4167 5.47508 9.10841 4.16675 7.50008 4.16675C5.89175 4.16675 4.58341 5.47508 4.58341 7.08342C4.58341 8.69175 5.89175 10.0001 7.50008 10.0001ZM7.50008 5.83342C8.19175 5.83342 8.75008 6.39175 8.75008 7.08342C8.75008 7.77508 8.19175 8.33342 7.50008 8.33342C6.80841 8.33342 6.25008 7.77508 6.25008 7.08342C6.25008 6.39175 6.80841 5.83342 7.50008 5.83342ZM7.54175 14.1668H3.97508C4.80008 13.7501 6.22508 13.3334 7.50008 13.3334C7.59175 13.3334 7.69175 13.3418 7.78341 13.3418C8.06675 12.7334 8.55841 12.2334 9.15008 11.8334C8.54175 11.7251 7.96675 11.6668 7.50008 11.6668C5.55008 11.6668 1.66675 12.6418 1.66675 14.5834V15.8334H7.50008V14.5834C7.50008 14.4418 7.51675 14.3001 7.54175 14.1668ZM13.7501 12.0834C12.2167 12.0834 9.16675 12.9251 9.16675 14.5834V15.8334H18.3334V14.5834C18.3334 12.9251 15.2834 12.0834 13.7501 12.0834ZM14.7584 10.5668C15.3917 10.2084 15.8334 9.53342 15.8334 8.75008C15.8334 7.60008 14.9001 6.66675 13.7501 6.66675C12.6001 6.66675 11.6667 7.60008 11.6667 8.75008C11.6667 9.53342 12.1084 10.2084 12.7417 10.5668C13.0417 10.7334 13.3834 10.8334 13.7501 10.8334C14.1167 10.8334 14.4584 10.7334 14.7584 10.5668Z" fill="black"/>
</g>
<defs>
<clipPath id="clip0">
<rect width="20" height="20" fill="white"/>
</clipPath>
</defs>
</svg>