<svg width="60" height="60" viewBox="0 0 60 60" fill="none" xmlns="http://www.w3.org/2000/svg">
<path d="M54.3751 9.37498C54.422 9.37498 30.6095 0.234348 30.0001 0C29.5314 0.187454 5.57818 9.37498 5.62507 9.37498V26.6249C5.62507 38.5781 9.04697 54.1875 30.0001 59.9999C50.9063 54.1874 54.3282 38.2967 54.3282 26.6249C54.3751 20.7188 54.3751 9.37498 54.3751 9.37498Z" fill="#D9DEE1"/>
<path d="M5.62476 26.6251C5.62476 38.5782 9.04666 54.1876 29.9998 60V0C29.1091 0.328134 5.62476 9.37497 5.62476 9.37497C5.62476 9.37497 5.62487 26.6251 5.62476 26.6251Z" fill="#BCC6CA"/>
<path d="M49.6404 12.6094C49.6873 12.6094 30.4685 4.87495 29.9529 4.6875C29.531 4.82818 10.2186 12.2812 10.2655 12.2343V26.7187C10.2655 36.7499 12.2343 50.4374 29.9529 55.3124C47.6248 50.4374 49.6404 36.5156 49.6404 26.7187C49.6873 21.75 49.6873 12.6094 49.6404 12.6094Z" fill="#008FFF"/>
<path d="M29.9998 4.6875C29.5779 4.82818 10.2654 12.2812 10.3123 12.2343V26.7187C10.3123 36.7499 12.2811 50.4374 29.9998 55.3124V4.6875Z" fill="#008FFF"/>
<g clip-path="url(#clip0)">
<path d="M30.8827 31.1872C31.8595 30.7217 32.1783 29.3529 31.5977 28.1368C31.0162 26.9166 29.7522 26.3025 28.7755 26.7679C27.7987 27.2334 27.4799 28.6022 28.0615 29.8224C28.643 31.0405 29.907 31.6547 30.8827 31.1872Z" fill="white"/>
<path d="M33.81 23.9062C34.7491 29.784 30.5661 34.19 30.5661 34.19C30.5661 34.19 27.1175 28.3551 21.3181 26.5941C32.599 34.8429 26.1784 45.1267 26.1784 45.1267H29.4437C29.4447 45.1267 37.0346 32.0278 33.81 23.9062Z" fill="white"/>
<path d="M27.4433 24.5773C27.3802 24.4836 27.316 24.3837 27.2519 24.2737C26.9534 23.7584 26.817 23.2797 26.817 23.2797C26.817 23.2797 27.1612 23.6402 27.4596 24.1525C27.5218 24.2615 27.5757 24.3685 27.6256 24.4703C27.6725 24.2249 27.7275 23.7207 27.4892 23.3052C27.1602 22.7358 26.4024 22.5586 26.4024 22.5586C26.4024 22.5586 26.1763 23.3041 26.5053 23.8745C26.7436 24.29 27.2081 24.4948 27.4433 24.5773Z" fill="white"/>
<path d="M34.9324 28.9009C35.1218 29.0638 35.5313 29.3633 36.0089 29.3633C36.6669 29.3633 37.1985 28.7939 37.1985 28.7939C37.1985 28.7939 36.6679 28.2256 36.0089 28.2256C35.5313 28.2256 35.1218 28.525 34.9324 28.688C35.0454 28.6798 35.1636 28.6737 35.2909 28.6737C35.8857 28.6737 36.3715 28.7919 36.3715 28.7919C36.3715 28.7919 35.8857 28.9121 35.2909 28.911C35.1626 28.9161 35.0454 28.909 34.9324 28.9009Z" fill="white"/>
<path d="M32.543 24.1545C32.8394 23.6391 33.1857 23.2796 33.1857 23.2796C33.1857 23.2796 33.0482 23.7603 32.7498 24.2757C32.6866 24.3837 32.6224 24.4855 32.5573 24.5792C32.7956 24.4967 33.259 24.291 33.4963 23.8785C33.8263 23.3071 33.6022 22.5605 33.6022 22.5605C33.6022 22.5605 32.8424 22.7408 32.5145 23.3081C32.2762 23.7216 32.3291 24.2248 32.377 24.4733C32.4238 24.3704 32.4788 24.2635 32.543 24.1545Z" fill="white"/>
<path d="M29.7347 21.0523C29.7347 19.7273 30.0005 18.6548 30.0005 18.6548C30.0005 18.6548 30.2673 19.7293 30.2673 21.0523C30.2673 21.3324 30.2541 21.5972 30.2337 21.8478C30.5983 21.4271 31.2634 20.5156 31.2634 19.4523C31.2634 17.9897 30.0005 16.8052 30.0005 16.8052C30.0005 16.8052 28.7375 17.9897 28.7375 19.4523C28.7375 20.5156 29.4026 21.4261 29.7662 21.8478C29.7479 21.5972 29.7347 21.3334 29.7347 21.0523Z" fill="white"/>
<path d="M21.2793 25.218C22.201 25.7497 23.3213 25.6285 23.8683 25.5236C23.6422 25.4177 23.4049 25.2934 23.1635 25.1549C22.0166 24.4939 21.2202 23.7269 21.2202 23.7269C21.2202 23.7269 22.2825 24.0325 23.4293 24.6945C23.6717 24.8351 23.8948 24.9777 24.1025 25.1213C23.9212 24.5937 23.466 23.563 22.5432 23.0313C21.2782 22.299 19.6201 22.8001 19.6201 22.8001C19.6201 22.8001 20.0133 24.4878 21.2793 25.218Z" fill="white"/>
<path d="M38.7209 32.3707C37.8002 31.8401 36.6798 31.9593 36.1329 32.0642C36.36 32.1711 36.5963 32.2954 36.8387 32.4339C37.9845 33.0959 38.782 33.8618 38.782 33.8618C38.782 33.8618 37.7197 33.5573 36.5719 32.8953C36.3295 32.7537 36.1064 32.6111 35.8997 32.4675C36.081 32.9951 36.5362 34.0248 37.4569 34.5564C38.7219 35.2887 40.3811 34.7876 40.3811 34.7876C40.3811 34.7876 39.9859 33.101 38.7209 32.3707Z" fill="white"/>
<path d="M24.1006 32.4709C23.8929 32.6125 23.6708 32.7551 23.4284 32.8966C22.2816 33.5566 21.2183 33.8652 21.2183 33.8652C21.2183 33.8652 22.0147 33.0973 23.1616 32.4352C23.405 32.2937 23.6413 32.1745 23.8674 32.0655C23.3215 31.9596 22.1991 31.8384 21.2784 32.3721C20.0124 33.1024 19.6172 34.789 19.6172 34.789C19.6172 34.789 21.2753 35.2901 22.5413 34.5598C23.4641 34.0261 23.9193 32.9964 24.1006 32.4709Z" fill="white"/>
<path d="M35.9006 25.1169C36.1074 24.9753 36.3304 24.8327 36.5749 24.6921C37.7207 24.0301 38.783 23.7246 38.783 23.7246C38.783 23.7246 37.9875 24.4915 36.8397 25.1525C36.5973 25.2931 36.36 25.4153 36.1359 25.5212C36.6808 25.6271 37.8032 25.7493 38.7219 25.2156C39.9889 24.4844 40.3831 22.7977 40.3831 22.7977C40.3831 22.7977 38.726 22.2976 37.461 23.0289C36.5372 23.5606 36.0809 24.5913 35.9006 25.1169Z" fill="white"/>
<path d="M25.072 20.8861C24.8825 20.6081 24.69 20.3086 24.5016 19.9827C23.6135 18.4468 23.203 17.0209 23.203 17.0209C23.203 17.0209 24.2317 18.0883 25.1188 19.6283C25.3072 19.9521 25.4692 20.2689 25.6138 20.5734C25.7564 19.8411 25.9183 18.3388 25.2054 17.1044C24.2256 15.4066 21.9645 14.877 21.9645 14.877C21.9645 14.877 21.2933 17.0993 22.2731 18.7961C22.9861 20.0316 24.3692 20.6417 25.072 20.8861Z" fill="white"/>
<path d="M34.9301 36.7036C35.1196 36.9817 35.3141 37.2801 35.5015 37.605C36.3907 39.147 36.8001 40.5688 36.8001 40.5688C36.8001 40.5688 35.7714 39.5004 34.8823 37.9625C34.6949 37.6366 34.5319 37.3198 34.3873 37.0173C34.2477 37.7496 34.0848 39.2488 34.7967 40.4843C35.7775 42.1811 38.0376 42.7128 38.0376 42.7128C38.0376 42.7128 38.7118 40.4884 37.731 38.7915C37.016 37.5571 35.6339 36.947 34.9301 36.7036Z" fill="white"/>
<path d="M19.6201 29.1524C17.8448 29.1524 16.4057 28.7939 16.4057 28.7939C16.4057 28.7939 17.8448 28.4354 19.6201 28.4354C19.9969 28.4354 20.3524 28.4558 20.6875 28.4802C20.1242 27.9913 18.9041 27.0991 17.4761 27.0991C15.5176 27.1001 13.9287 28.7939 13.9287 28.7939C13.9287 28.7939 15.5186 30.4887 17.4761 30.4877C18.9031 30.4877 20.1232 29.5965 20.6865 29.1086C20.3514 29.1341 19.9949 29.1524 19.6201 29.1524Z" fill="white"/>
<path d="M42.525 27.103C41.0991 27.103 39.8789 27.9912 39.3147 28.4821C39.6508 28.4566 40.0073 28.4373 40.3811 28.4383C42.1573 28.4383 43.5955 28.7958 43.5955 28.7958C43.5955 28.7958 42.1573 29.1543 40.3831 29.1543C40.0073 29.1543 39.6508 29.1349 39.3147 29.1105C39.8779 29.5984 41.0991 30.4895 42.525 30.4895C44.4846 30.4895 46.0714 28.7978 46.0714 28.7978C46.0714 28.7978 44.4826 27.101 42.525 27.103Z" fill="white"/>
<path d="M25.1198 37.9635C24.2317 39.5015 23.203 40.5699 23.203 40.5699C23.203 40.5699 23.6124 39.144 24.5006 37.606C24.69 37.2822 24.8825 36.9837 25.073 36.7026C24.3682 36.9471 22.985 37.5582 22.2721 38.7936C21.2913 40.4904 21.9635 42.7148 21.9635 42.7148C21.9635 42.7148 24.2256 42.1852 25.2054 40.4884C25.9193 39.253 25.7574 37.7497 25.6158 37.0194C25.4682 37.3209 25.3062 37.6346 25.1198 37.9635Z" fill="white"/>
<path d="M34.8825 19.6254C35.7696 18.0874 36.7983 17.02 36.7983 17.02C36.7983 17.02 36.3888 18.4449 35.4997 19.9818C35.3123 20.3047 35.1198 20.6062 34.9303 20.8842C35.6341 20.6408 37.0172 20.0297 37.7292 18.7953C38.71 17.0985 38.0378 14.873 38.0378 14.873C38.0378 14.873 35.7777 15.4037 34.7969 17.1005C34.0809 18.3359 34.2439 19.8382 34.3854 20.5695C34.5321 20.2691 34.693 19.9523 34.8825 19.6254Z" fill="white"/>
</g>
<defs>
<clipPath id="clip0">
<rect x="13.9287" y="13.9287" width="32.1429" height="32.1429" fill="white"/>
</clipPath>
</defs>
</svg>
