<svg width="100" height="72" viewBox="0 0 100 72" fill="none" xmlns="http://www.w3.org/2000/svg">
<path d="M82.1394 88.3022C77.1095 92.5228 71.2975 95.7114 65.0353 97.6858C58.7731 99.6603 52.1833 100.382 45.6422 99.8097C39.1011 99.2375 32.7368 97.3824 26.9126 94.3505C21.0884 91.3187 15.9184 87.1693 11.6978 82.1394C7.47717 77.1095 4.28861 71.2975 2.31415 65.0353C0.339689 58.7731 -0.382008 52.1833 0.190266 45.6422C0.762539 39.1011 2.61758 32.7368 5.64946 26.9126C8.68135 21.0884 12.8307 15.9184 17.8606 11.6978L37.1442 34.6791C35.1323 36.3674 33.4725 38.4353 32.2598 40.765C31.047 43.0947 30.305 45.6404 30.0761 48.2569C29.8472 50.8733 30.1359 53.5092 30.9257 56.0141C31.7154 58.519 32.9909 60.8438 34.6791 62.8558C36.3674 64.8677 38.4353 66.5275 40.765 67.7402C43.0947 68.953 45.6404 69.695 48.2569 69.9239C50.8733 70.1528 53.5092 69.8641 56.0141 69.0743C58.519 68.2846 60.8438 67.0091 62.8558 65.3209L82.1394 88.3022Z" fill="#FFC100"/>
<path d="M17.8606 11.6978C26.9805 4.04529 38.5316 -0.101989 50.4363 0.00190393C62.341 0.105797 73.818 4.45404 82.803 12.2645C91.7879 20.075 97.6911 30.8352 99.4508 42.6095C101.21 54.3839 98.7112 66.3998 92.4024 76.496C86.0936 86.5921 76.3894 94.1059 65.0353 97.6859C53.6811 101.266 41.4222 100.677 30.4634 96.0252C19.5047 91.3735 10.5653 82.9642 5.25327 72.3099C-0.0587789 61.6555 -1.3949 49.4554 1.48522 37.9039L30.5941 45.1616C29.442 49.7822 29.9765 54.6622 32.1013 58.9239C34.2261 63.1857 37.8019 66.5494 42.1854 68.4101C46.5689 70.2708 51.4724 70.5063 56.0141 69.0743C60.5558 67.6424 64.4374 64.6368 66.961 60.5984C69.4845 56.5599 70.4842 51.7536 69.7803 47.0438C69.0764 42.3341 66.7152 38.03 63.1212 34.9058C59.5272 31.7816 54.9364 30.0423 50.1745 30.0008C45.4127 29.9592 40.7922 31.6181 37.1442 34.6791L17.8606 11.6978Z" fill="#008FFF"/>
</svg>