<svg width="18" height="18" viewBox="0 0 18 18" fill="none" xmlns="http://www.w3.org/2000/svg">
<path d="M9.00368 18C4.16088 18.0227 0.175009 14.1956 0 9.35515V8.9049L4.95202 8.70679V9.15704C5.04752 11.393 6.93727 13.1282 9.17289 13.0327C9.86358 13.0032 10.5353 12.7974 11.124 12.4349L11.5067 12.2008L14.1133 16.4061L13.7306 16.6448C12.3112 17.5264 10.6745 17.9957 9.00368 18ZM0.945386 9.76939C1.36074 14.2136 5.29962 17.4796 9.7431 17.0642C10.8417 16.9615 11.9076 16.6349 12.8753 16.1045L11.2141 13.4029C10.5304 13.756 9.7731 13.9426 9.00368 13.9477C6.52024 13.9466 4.42176 12.1058 4.09667 9.64331L0.945386 9.76939Z" fill="black"/>
<path d="M0.0360147 9.80534L0 9.23352C0 9.15247 0 9.07593 0 8.99489C0.0056273 4.0215 4.04124 -0.00562227 9.0138 5.89211e-06C11.7639 0.00310138 14.3617 1.26302 16.0671 3.42075L16.3462 3.77195L12.4611 6.83817L12.182 6.48697C10.7942 4.73138 8.24619 4.43337 6.49086 5.82139C5.52038 6.58879 4.95365 7.75759 4.95202 8.99489C4.94977 9.02184 4.94977 9.04897 4.95202 9.07593V9.60723L0.0360147 9.80534ZM9.00368 0.890326C4.57713 0.889763 0.969246 4.44209 0.900368 8.86881L4.05165 8.74274C4.18491 6.01066 6.50741 3.90387 9.23907 4.03715C10.5199 4.09962 11.7266 4.65664 12.6051 5.59097L15.0857 3.63687C13.5497 1.88634 11.3323 0.884979 9.00368 0.890326Z" fill="black"/>
<path d="M13.3568 16.8832L10.7502 12.6734L11.1329 12.4347C13.0343 11.2548 13.6193 8.7566 12.4394 6.8549C12.3604 6.72753 12.2745 6.60467 12.1818 6.48687L11.9027 6.13117L15.7878 3.06494L16.0669 3.42064C19.1452 7.32648 18.4748 12.9886 14.5695 16.0674C14.3039 16.2767 14.0269 16.4709 13.7395 16.6491L13.3568 16.8832ZM11.9792 12.948L13.6404 15.6495C17.3072 13.0834 18.1999 8.03011 15.6341 4.36274C15.6328 4.36088 15.6315 4.35903 15.6302 4.35717L13.1497 6.29326C14.5679 8.47463 14.0566 11.3816 11.9792 12.948Z" fill="black"/>
</svg>
