<svg width="720" height="809" viewBox="0 0 720 809" fill="none" xmlns="http://www.w3.org/2000/svg">
<rect width="720" height="809" fill="#F5F7F7"/>
<g clip-path="url(#clip0)">
<path d="M650 423.087H167.231V598.72H650V423.087Z" fill="#3F3D56"/>
<path opacity="0.1" d="M297.461 423.087L167.231 512.552V460.741L222.042 423.087H297.461Z" fill="black"/>
<path opacity="0.1" d="M426.162 423.087L304.352 506.77L299.99 509.77L170.508 598.72H167.231V549.155L250.666 491.843L253.458 489.923L350.748 423.087H426.162Z" fill="black"/>
<path d="M181.421 511.458L180.122 509.828C180.251 509.725 193.273 499.448 214.073 493.57C226.122 490.134 238.678 488.834 251.175 489.729C266.673 490.857 282.084 495.434 296.977 503.334L296.002 505.177C262.867 487.601 233.467 490.255 214.639 495.576C194.239 501.342 181.547 511.357 181.421 511.458Z" fill="#F2F2F2"/>
<path d="M307.323 510.643C301.105 509.568 292.877 509.118 286.95 510.263L295.026 503.493L296.904 493.121C298.845 498.84 303.31 505.771 307.323 510.643Z" fill="#F2F2F2"/>
<path d="M394.531 531.836C384.578 531.825 374.674 530.438 365.101 527.716C344.301 521.838 331.279 511.561 331.15 511.458L332.449 509.828C332.575 509.929 345.331 519.98 365.752 525.734C384.563 531.034 413.932 533.666 447.03 516.11L448.005 517.952C433.111 525.852 417.701 530.429 402.203 531.557C399.649 531.744 397.091 531.837 394.531 531.836Z" fill="#F2F2F2"/>
<path d="M458.351 510.643C454.339 515.517 449.874 522.447 447.933 528.167L446.054 517.794L437.979 511.025C443.906 512.17 452.134 511.72 458.351 510.643Z" fill="#F2F2F2"/>
<path d="M489.206 511.458L487.906 509.828C488.035 509.725 501.058 499.448 521.858 493.57C533.907 490.134 546.463 488.834 558.96 489.728C574.458 490.857 589.868 495.434 604.762 503.334L603.787 505.176C570.653 487.601 541.252 490.254 522.424 495.576C502.024 501.341 489.332 511.357 489.206 511.458Z" fill="#F2F2F2"/>
<path d="M615.107 510.643C608.89 509.568 600.662 509.118 594.735 510.263L602.811 503.493L604.689 493.121C606.63 498.84 611.094 505.771 615.107 510.643Z" fill="#F2F2F2"/>
<path d="M484.911 471.035H451.06V472.077H484.911V471.035Z" fill="#008FFF"/>
<path d="M484.911 481.458H451.06V482.5H484.911V481.458Z" fill="#008FFF"/>
<path d="M484.911 491.881H451.06V492.923H484.911V491.881Z" fill="#008FFF"/>
<path d="M332.841 532.532H298.99V533.573H332.841V532.532Z" fill="#008FFF"/>
<path d="M332.841 542.955H298.99V543.997H332.841V542.955Z" fill="#008FFF"/>
<path d="M332.841 553.378H298.99V554.42H332.841V553.378Z" fill="#008FFF"/>
<path d="M641.667 532.532H607.816V533.573H641.667V532.532Z" fill="#008FFF"/>
<path d="M641.667 542.955H607.816V543.997H641.667V542.955Z" fill="#008FFF"/>
<path d="M641.667 553.378H607.816V554.42H641.667V553.378Z" fill="#008FFF"/>
<path d="M316.697 523.672C320.436 523.672 323.467 520.639 323.467 516.897C323.467 513.155 320.436 510.122 316.697 510.122C312.958 510.122 309.927 513.155 309.927 516.897C309.927 520.639 312.958 523.672 316.697 523.672Z" fill="#008FFF"/>
<path d="M468.246 514.291C471.985 514.291 475.016 511.258 475.016 507.516C475.016 503.775 471.985 500.741 468.246 500.741C464.507 500.741 461.475 503.775 461.475 507.516C461.475 511.258 464.507 514.291 468.246 514.291Z" fill="#008FFF"/>
<path d="M624.481 523.672C628.22 523.672 631.252 520.639 631.252 516.897C631.252 513.155 628.22 510.122 624.481 510.122C620.742 510.122 617.711 513.155 617.711 516.897C617.711 520.639 620.742 523.672 624.481 523.672Z" fill="#008FFF"/>
<path d="M248.714 375.926L238.63 365.107L249.442 355.016L259.526 365.835L248.714 375.926ZM240.238 365.163L248.77 374.317L257.918 365.779L249.386 356.624L240.238 365.163Z" fill="#3F3D56"/>
<path d="M491.34 249.099L481.256 238.28L492.068 228.188L502.152 239.008L491.34 249.099ZM482.864 238.336L491.396 247.49L500.544 238.952L492.012 229.797L482.864 238.336Z" fill="#3F3D56"/>
<path d="M615.176 423.965H600.392V409.17H615.176V423.965ZM601.529 422.827H614.039V410.308H601.529L601.529 422.827Z" fill="#3F3D56"/>
<path d="M396.213 482.241C400.382 482.241 403.761 478.86 403.761 474.688C403.761 470.516 400.382 467.135 396.213 467.135C392.044 467.135 388.665 470.516 388.665 474.688C388.665 478.86 392.044 482.241 396.213 482.241Z" fill="#008FFF"/>
<path d="M396.213 496.509C391.9 496.509 387.685 495.229 384.099 492.831C380.513 490.434 377.718 487.026 376.068 483.039C374.417 479.052 373.986 474.664 374.827 470.431C375.668 466.199 377.745 462.31 380.795 459.259C383.844 456.207 387.729 454.129 391.959 453.287C396.189 452.445 400.573 452.877 404.557 454.529C408.542 456.18 411.947 458.977 414.343 462.565C416.739 466.154 418.018 470.373 418.018 474.688C418.012 480.474 415.712 486.02 411.624 490.111C407.536 494.201 401.994 496.502 396.213 496.509ZM396.213 454.546C392.232 454.546 388.341 455.728 385.031 457.941C381.721 460.154 379.141 463.3 377.617 466.98C376.094 470.661 375.695 474.711 376.472 478.618C377.249 482.525 379.166 486.114 381.981 488.931C384.795 491.748 388.382 493.666 392.286 494.443C396.191 495.221 400.238 494.822 403.916 493.297C407.593 491.773 410.737 489.191 412.949 485.879C415.16 482.566 416.341 478.672 416.341 474.688C416.335 469.348 414.212 464.228 410.439 460.452C406.665 456.676 401.549 454.552 396.213 454.546Z" fill="#F2F2F2"/>
<path d="M416.635 292.767H353.75V366.083H416.635V292.767Z" fill="#F2F2F2"/>
<path d="M395.255 475.658L394.381 474.805C398.4 470.245 401.446 464.912 403.333 459.133C406.303 450.186 407.755 436.057 397.797 419.553C387.608 402.666 387.15 388.95 388.559 380.417C390.093 371.133 394.005 365.928 394.171 365.711L395.141 366.453C395.102 366.504 391.224 371.681 389.752 380.688C388.393 389.005 388.867 402.388 398.842 418.921C409.054 435.848 407.542 450.369 404.474 459.57C401.151 469.54 395.494 475.413 395.255 475.658Z" fill="#3F3D56"/>
<path d="M441.056 366.694H353.14V278.714H441.056V366.694ZM354.361 365.472H439.835V279.936H354.361V365.472Z" fill="#3F3D56"/>
<path d="M425.182 304.375H371.456V305.597H425.182V304.375Z" fill="#3F3D56"/>
<path d="M425.182 317.816H371.456V319.038H425.182V317.816Z" fill="#3F3D56"/>
<path d="M425.182 331.257H371.456V332.479H425.182V331.257Z" fill="#3F3D56"/>
<path d="M138.53 544.971L136.322 566.336L148.837 564.863L150.31 547.181L138.53 544.971Z" fill="#FFB9B9"/>
<path d="M105.4 382.886C105.4 382.886 41.3485 444.773 81.8409 463.928H94.3567C94.3567 463.928 121.597 418.987 134.849 419.723L138.53 462.455L136.322 548.655L152.518 549.392C152.518 549.392 162.089 505.923 161.353 481.611L178.286 391.727L105.4 382.886Z" fill="#2F2E41"/>
<path d="M85.522 460.981L94.3567 463.928C94.3567 463.928 128.959 455.824 131.168 456.561L138.018 456.514L137.794 438.879H108.345L85.522 460.981Z" fill="#2F2E41"/>
<path d="M150.31 561.916C150.31 561.916 137.058 556.022 134.849 561.916C132.64 567.81 133.377 584.756 133.377 584.756C133.377 584.756 136.322 589.913 134.849 595.807C133.377 601.701 140.739 604.648 150.31 601.701C159.881 598.754 159.881 591.387 159.881 591.387L150.31 561.916Z" fill="#2F2E41"/>
<path d="M161.353 437.406C161.353 437.406 171.66 431.512 170.924 440.353C170.188 449.194 166.507 457.298 166.507 457.298C166.507 457.298 176.078 482.347 166.507 484.558C156.936 486.768 149.574 481.611 149.574 477.927C149.574 474.243 161.353 437.406 161.353 437.406Z" fill="#2F2E41"/>
<path d="M128.959 235.535L130.432 263.532L142.948 274.583L156.936 254.691V234.799L128.959 235.535Z" fill="#FFB9B9"/>
<path d="M138.53 263.532L130.102 257.265L124.542 265.742L99.5103 280.477L114.235 318.788L114.971 356.363C114.971 356.363 87.7307 384.359 103.928 388.043C120.125 391.727 177.55 399.831 180.495 393.2C183.44 386.569 176.814 318.051 176.814 318.051L179.023 259.848L156.936 251.857L138.53 263.532Z" fill="#008FFF"/>
<path d="M93.6205 310.194C93.6205 310.194 87.7307 351.942 98.7741 351.942C105.333 351.964 111.833 350.713 117.916 348.258L109.081 325.419L112.762 309.947L93.6205 310.194Z" fill="#FFB9B9"/>
<path d="M110.554 346.785L118.652 348.258C118.652 348.258 142.211 333.523 143.684 332.786C145.156 332.05 120.125 319.525 120.125 319.525L103.191 326.156L110.554 346.785Z" fill="#FFB9B9"/>
<path opacity="0.1" d="M120.125 319.525L109.493 323.688L112.762 309.947L93.6205 310.194C93.6205 310.194 87.7307 351.942 98.7741 351.942C105.333 351.964 111.833 350.713 117.916 348.258L117.86 348.114L118.652 348.258C118.652 348.258 142.211 333.523 143.684 332.787C145.156 332.05 120.125 319.525 120.125 319.525Z" fill="black"/>
<path d="M145.991 249.505C157.602 249.505 167.014 240.086 167.014 228.467C167.014 216.848 157.602 207.429 145.991 207.429C134.381 207.429 124.969 216.848 124.969 228.467C124.969 240.086 134.381 249.505 145.991 249.505Z" fill="#FFB9B9"/>
<path d="M127.405 204.733L123.297 203.088C123.297 203.088 131.886 193.626 143.835 194.448L140.474 190.746C140.474 190.746 148.689 187.455 156.157 196.094C160.083 200.635 164.625 205.974 167.457 211.987H171.856L170.02 216.033L176.446 220.078L169.85 219.351C170.475 222.844 170.261 226.435 169.227 229.828L169.403 233.026C169.403 233.026 161.758 221.189 161.758 219.544V223.657C161.758 223.657 157.651 219.955 157.651 217.487L155.41 220.366L154.29 215.841L140.474 220.366L142.714 216.664L134.126 217.898L137.487 213.373C137.487 213.373 127.778 218.721 127.405 223.246C127.031 227.771 122.177 233.531 122.177 233.531L119.937 229.417C119.937 229.417 116.576 210.904 127.405 204.733Z" fill="#2F2E41"/>
<path d="M164.298 297.422C164.298 297.422 158.408 304.053 158.408 313.631L119.388 312.157C119.388 312.157 109.081 310.684 109.081 318.051V325.419C109.081 325.419 114.235 323.209 117.18 325.419C120.125 327.629 151.782 346.785 167.243 339.417C182.704 332.05 186.385 303.316 186.385 303.316C186.385 303.316 172.397 291.528 164.298 297.422Z" fill="#FFB9B9"/>
<path d="M173.133 260.585L179.023 259.848C179.023 259.848 190.802 261.322 189.33 284.161C187.857 307 187.121 308.474 187.121 308.474C187.121 308.474 171.66 294.476 160.617 301.106L173.133 260.585Z" fill="#008FFF"/>
<path d="M102.455 280.477H99.5103C95.695 285.3 93.6195 291.271 93.6205 297.422C93.5529 304.011 92.6876 310.566 91.0437 316.946L114.235 312.894L102.455 280.477Z" fill="#008FFF"/>
<path d="M468.744 373.754H467.602V403.421H468.744V373.754Z" fill="#3F3D56"/>
<path d="M468.173 366.858C469.376 370.103 471.429 374.129 473.603 376.624L468.173 374.659L462.744 376.624C464.918 374.129 466.971 370.103 468.173 366.858Z" fill="#3F3D56"/>
<path d="M331.732 348.046H330.59V377.713H331.732V348.046Z" fill="#3F3D56"/>
<path d="M331.161 341.15C332.364 344.395 334.417 348.42 336.591 350.916L331.161 348.951L325.732 350.916C327.906 348.42 329.959 344.395 331.161 341.15Z" fill="#3F3D56"/>
<path d="M521.266 325.194H520.124V354.861H521.266V325.194Z" fill="#3F3D56"/>
<path d="M520.695 318.298C521.898 321.543 523.951 325.569 526.125 328.064L520.695 326.099L515.266 328.064C517.44 325.569 519.493 321.543 520.695 318.298Z" fill="#3F3D56"/>
<path d="M551.237 312.53C551.237 312.53 570.076 304.315 578.925 312.993C587.774 321.671 555.233 318.815 551.237 312.53Z" fill="#3F3D56"/>
<path d="M583.767 273.571C577.436 262.866 564.911 262.367 564.911 262.367C564.911 262.367 552.705 260.805 544.876 277.109C537.578 292.306 527.506 306.979 543.254 310.536L546.099 301.676L547.861 311.196C550.103 311.357 552.352 311.395 554.599 311.311C571.464 310.766 587.525 311.47 587.008 305.414C586.321 297.363 589.859 283.872 583.767 273.571Z" fill="#2F2E41"/>
<path d="M592.626 467.637C592.626 467.637 584.634 482.49 579.496 482.49C574.358 482.49 574.929 492.202 576.07 494.488C577.212 496.773 580.066 501.914 575.499 509.341C573.904 511.935 574.19 514.878 575.236 517.609C578.169 525.262 589.579 522.943 589.215 514.755C589.211 514.665 589.206 514.574 589.201 514.483C588.63 505.342 593.197 491.06 597.764 487.632C602.331 484.204 606.327 475.064 606.327 475.064L592.626 467.637Z" fill="#FFB8B8"/>
<path d="M537.821 464.209C537.821 464.209 545.813 479.063 550.951 479.063C556.089 479.063 555.519 488.775 554.377 491.06C553.235 493.345 550.381 498.487 554.948 505.913C556.543 508.508 556.258 511.45 555.211 514.182C552.278 521.834 540.868 519.516 541.232 511.328C541.236 511.237 541.241 511.146 541.246 511.055C541.817 501.914 537.25 487.632 532.683 484.204C528.116 480.776 524.12 471.636 524.12 471.636L537.821 464.209Z" fill="#FFB8B8"/>
<path d="M544.101 391.084L540.675 398.51C540.675 398.51 490.438 415.078 495.005 434.502C499.572 453.926 521.836 484.204 525.262 483.062C528.687 481.919 546.955 478.491 547.526 468.779C548.097 459.067 534.396 441.929 534.396 441.929L553.235 424.79L580.649 424.219L604.044 441.929C604.044 441.929 579.496 463.638 590.342 472.207C601.189 480.777 617.174 486.489 619.458 483.062C621.741 479.634 647.431 428.789 643.435 424.219C639.439 419.648 598.906 402.509 598.906 402.509L588.059 387.084L545.813 384.799L544.101 391.084Z" fill="#FDAF40"/>
<path d="M554.377 296.82C554.377 296.82 557.231 315.673 551.522 317.958C545.813 320.243 562.94 329.955 562.94 329.955H572.645L578.925 316.815C578.925 316.815 573.216 306.532 576.641 296.82C580.066 287.108 554.377 296.82 554.377 296.82Z" fill="#FFB8B8"/>
<path opacity="0.1" d="M554.377 296.82C554.377 296.82 557.231 315.673 551.522 317.958C545.813 320.243 562.94 329.955 562.94 329.955H572.645L578.925 316.815C578.925 316.815 573.216 306.532 576.641 296.82C580.066 287.108 554.377 296.82 554.377 296.82Z" fill="black"/>
<path d="M550.381 312.816C550.381 312.816 556.66 319.672 557.802 320.815C558.944 321.957 564.082 328.241 574.929 319.101C585.775 309.96 586.917 320.815 586.917 320.815V389.37C586.917 389.37 577.783 385.371 570.362 389.37C562.94 393.369 547.526 388.227 547.526 388.227L544.672 317.387L550.381 312.816Z" fill="#D0CDE1"/>
<path d="M554.574 312.816C554.574 312.816 549.239 310.531 544.672 312.816C540.105 315.102 524.12 326.527 525.262 331.669C526.403 336.811 541.246 372.802 530.971 389.941C520.695 407.08 518.982 411.65 518.982 411.65L544.101 398.51C544.101 398.51 563.511 386.513 561.798 379.086C560.086 371.66 554.574 312.816 554.574 312.816Z" fill="#3F3D56"/>
<path d="M577.219 312.816C577.219 312.816 589.201 313.959 589.772 315.102C590.343 316.244 607.755 321.1 606.613 326.242C605.471 331.383 589.772 377.373 596.622 385.942C603.473 394.511 614.891 406.508 610.894 407.651C606.898 408.794 600.048 405.937 593.197 407.651C586.346 409.365 570.362 395.083 572.074 379.658C573.787 364.233 572.088 316.815 577.219 312.816Z" fill="#3F3D56"/>
<path d="M548.668 421.933V427.646C548.668 427.646 545.813 440.786 554.948 440.214C564.082 439.643 558.373 424.218 558.373 424.218L557.802 419.077L548.668 421.933Z" fill="#FFB8B8"/>
<path d="M574.358 422.504C574.358 422.504 568.078 435.644 574.358 436.787C580.637 437.929 585.204 429.36 585.204 427.075C585.204 424.79 574.358 422.504 574.358 422.504Z" fill="#FFB8B8"/>
<path d="M582.636 291.393C583.266 291.393 583.777 290.37 583.777 289.107C583.777 287.845 583.266 286.822 582.636 286.822C582.005 286.822 581.494 287.845 581.494 289.107C581.494 290.37 582.005 291.393 582.636 291.393Z" fill="#FFB8B8"/>
<path d="M548.953 291.393C549.584 291.393 550.095 290.37 550.095 289.107C550.095 287.845 549.584 286.822 548.953 286.822C548.323 286.822 547.812 287.845 547.812 289.107C547.812 290.37 548.323 291.393 548.953 291.393Z" fill="#FFB8B8"/>
<path d="M592.626 320.243C592.626 320.243 606.898 320.243 606.327 325.956C605.756 331.669 586.917 429.931 586.917 429.931C586.917 429.931 578.925 422.505 572.074 424.219L592.626 320.243Z" fill="#3F3D56"/>
<path d="M537.25 321.957C537.25 321.957 522.978 324.813 522.978 333.383C522.978 341.952 543.53 424.219 546.384 424.219C549.239 424.219 560.086 422.505 560.086 419.648C560.086 416.792 537.25 321.957 537.25 321.957Z" fill="#3F3D56"/>
<path opacity="0.2" d="M540.39 338.81L553.235 389.079C553.235 389.079 547.241 345.094 540.39 338.81Z" fill="black"/>
<path opacity="0.2" d="M590.352 331.747L577.361 397.47C577.361 397.47 581.513 335.538 590.352 331.747Z" fill="black"/>
<path d="M565.794 305.961C574.938 305.961 582.35 298.543 582.35 289.393C582.35 280.243 574.938 272.826 565.794 272.826C556.651 272.826 549.239 280.243 549.239 289.393C549.239 298.543 556.651 305.961 565.794 305.961Z" fill="#FFB8B8"/>
<path d="M580.968 272.539L568.594 266.052L551.505 268.706L547.97 284.332L556.77 283.994L559.229 278.253V283.899L563.291 283.743L565.647 274.603L567.121 284.332L581.558 284.038L580.968 272.539Z" fill="#2F2E41"/>
</g>
<defs>
<clipPath id="clip0">
<rect x="50" y="140" width="600" height="462.857" fill="white"/>
</clipPath>
</defs>
</svg>
