<svg width="18" height="20" viewBox="0 0 18 20" fill="none" xmlns="http://www.w3.org/2000/svg">
<path d="M16.9558 3.23875L9.29957 0.0599658C9.10777 -0.0196436 8.89219 -0.0196826 8.70043 0.0599658L1.04418 3.23875C0.752578 3.35985 0.5625 3.64454 0.5625 3.96028V7.82454C0.5625 13.1454 3.77848 17.9316 8.70477 19.9423C8.89398 20.0195 9.10598 20.0195 9.29523 19.9423C14.2214 17.9316 17.4375 13.1454 17.4375 7.82454V3.96028C17.4375 3.64454 17.2475 3.35985 16.9558 3.23875ZM15.875 7.82454C15.875 12.3478 13.2188 16.5117 9 18.3704C4.89398 16.5614 2.125 12.4704 2.125 7.82454V4.48184L9 1.62739L15.875 4.48184V7.82454ZM8.13648 10.4579L11.4945 7.09997C11.7995 6.79489 12.2942 6.79485 12.5993 7.09997C12.9044 7.40508 12.9044 7.89973 12.5993 8.20481L8.68891 12.1152C8.38375 12.4203 7.8891 12.4202 7.58406 12.1152L5.4007 9.9318C5.09559 9.62668 5.09559 9.13204 5.4007 8.82696C5.70582 8.52188 6.20047 8.52184 6.50555 8.82696L8.13648 10.4579Z" fill="white"/>
</svg>
