<svg width="600" height="463" viewBox="0 0 600 463" fill="none" xmlns="http://www.w3.org/2000/svg">
<g clip-path="url(#clip0)">
<path d="M600 283.087H117.231V458.72H600V283.087Z" fill="#3F3D56"/>
<path opacity="0.1" d="M247.461 283.087L117.231 372.552V320.741L172.042 283.087H247.461Z" fill="black"/>
<path opacity="0.1" d="M376.162 283.087L254.352 366.77L249.99 369.769L120.508 458.72H117.231V409.154L200.666 351.842L203.458 349.923L300.748 283.087H376.162Z" fill="black"/>
<path d="M131.421 371.458L130.122 369.828C130.251 369.725 143.273 359.448 164.073 353.57C176.122 350.134 188.678 348.834 201.175 349.729C216.673 350.857 232.084 355.434 246.977 363.334L246.002 365.177C212.867 347.601 183.467 350.255 164.639 355.576C144.239 361.342 131.547 371.357 131.421 371.458Z" fill="#F2F2F2"/>
<path d="M257.323 370.643C251.105 369.568 242.877 369.118 236.95 370.263L245.026 363.493L246.904 353.121C248.845 358.84 253.31 365.771 257.323 370.643Z" fill="#F2F2F2"/>
<path d="M344.531 391.836C334.578 391.825 324.675 390.438 315.101 387.716C294.301 381.838 281.279 371.561 281.15 371.458L282.449 369.828C282.576 369.929 295.331 379.98 315.752 385.734C334.563 391.034 363.932 393.666 397.03 376.11L398.005 377.952C383.111 385.852 367.701 390.429 352.203 391.557C349.649 391.744 347.091 391.837 344.531 391.836Z" fill="#F2F2F2"/>
<path d="M408.351 370.643C404.339 375.517 399.874 382.447 397.933 388.167L396.054 377.794L387.979 371.025C393.906 372.17 402.134 371.72 408.351 370.643Z" fill="#F2F2F2"/>
<path d="M439.206 371.458L437.906 369.828C438.035 369.725 451.058 359.448 471.858 353.57C483.907 350.135 496.463 348.835 508.96 349.728C524.458 350.857 539.868 355.434 554.762 363.334L553.787 365.177C520.653 347.601 491.252 350.254 472.424 355.576C452.024 361.342 439.332 371.357 439.206 371.458Z" fill="#F2F2F2"/>
<path d="M565.107 370.643C558.89 369.568 550.662 369.118 544.735 370.263L552.811 363.493L554.689 353.121C556.63 358.84 561.094 365.771 565.107 370.643Z" fill="#F2F2F2"/>
<path d="M434.911 331.035H401.06V332.077H434.911V331.035Z" fill="#008FFF"/>
<path d="M434.911 341.458H401.06V342.5H434.911V341.458Z" fill="#008FFF"/>
<path d="M434.911 351.881H401.06V352.923H434.911V351.881Z" fill="#008FFF"/>
<path d="M282.841 392.532H248.99V393.573H282.841V392.532Z" fill="#008FFF"/>
<path d="M282.841 402.955H248.99V403.996H282.841V402.955Z" fill="#008FFF"/>
<path d="M282.841 413.378H248.99V414.42H282.841V413.378Z" fill="#008FFF"/>
<path d="M591.667 392.532H557.816V393.573H591.667V392.532Z" fill="#008FFF"/>
<path d="M591.667 402.955H557.816V403.996H591.667V402.955Z" fill="#008FFF"/>
<path d="M591.667 413.378H557.816V414.42H591.667V413.378Z" fill="#008FFF"/>
<path d="M266.697 383.672C270.436 383.672 273.467 380.639 273.467 376.897C273.467 373.155 270.436 370.122 266.697 370.122C262.958 370.122 259.927 373.155 259.927 376.897C259.927 380.639 262.958 383.672 266.697 383.672Z" fill="#008FFF"/>
<path d="M418.246 374.291C421.985 374.291 425.016 371.258 425.016 367.516C425.016 363.774 421.985 360.741 418.246 360.741C414.506 360.741 411.475 363.774 411.475 367.516C411.475 371.258 414.506 374.291 418.246 374.291Z" fill="#008FFF"/>
<path d="M574.481 383.672C578.221 383.672 581.252 380.639 581.252 376.897C581.252 373.155 578.221 370.122 574.481 370.122C570.742 370.122 567.711 373.155 567.711 376.897C567.711 380.639 570.742 383.672 574.481 383.672Z" fill="#008FFF"/>
<path d="M198.714 235.926L188.63 225.107L199.442 215.015L209.526 225.834L198.714 235.926ZM190.238 225.163L198.77 234.317L207.918 225.778L199.386 216.624L190.238 225.163Z" fill="#3F3D56"/>
<path d="M441.34 109.099L431.256 98.2795L442.068 88.1882L452.152 99.0073L441.34 109.099ZM432.864 98.3355L441.396 107.49L450.544 98.9513L442.012 89.7967L432.864 98.3355Z" fill="#3F3D56"/>
<path d="M565.176 283.965H550.392V269.17H565.176V283.965ZM551.529 282.827H564.039V270.308H551.529L551.529 282.827Z" fill="#3F3D56"/>
<path d="M346.213 342.242C350.382 342.242 353.761 338.86 353.761 334.688C353.761 330.517 350.382 327.135 346.213 327.135C342.044 327.135 338.665 330.517 338.665 334.688C338.665 338.86 342.044 342.242 346.213 342.242Z" fill="#008FFF"/>
<path d="M346.213 356.509C341.9 356.509 337.685 355.229 334.099 352.831C330.513 350.434 327.718 347.026 326.068 343.039C324.417 339.052 323.986 334.664 324.827 330.431C325.668 326.199 327.745 322.31 330.795 319.259C333.844 316.207 337.729 314.129 341.959 313.287C346.189 312.445 350.573 312.877 354.557 314.529C358.542 316.18 361.947 318.977 364.343 322.565C366.739 326.154 368.018 330.373 368.018 334.688C368.012 340.474 365.712 346.02 361.624 350.111C357.536 354.201 351.994 356.502 346.213 356.509ZM346.213 314.546C342.232 314.546 338.341 315.728 335.031 317.941C331.721 320.154 329.141 323.3 327.617 326.98C326.094 330.661 325.695 334.711 326.472 338.618C327.249 342.525 329.166 346.114 331.981 348.931C334.795 351.748 338.382 353.666 342.286 354.443C346.191 355.221 350.238 354.822 353.916 353.297C357.593 351.773 360.737 349.191 362.949 345.879C365.16 342.566 366.341 338.672 366.341 334.688C366.335 329.348 364.212 324.228 360.439 320.452C356.665 316.676 351.549 314.552 346.213 314.546Z" fill="#F2F2F2"/>
<path d="M366.635 152.766H303.75V226.082H366.635V152.766Z" fill="#F2F2F2"/>
<path d="M345.255 335.658L344.381 334.805C348.4 330.245 351.446 324.912 353.333 319.133C356.303 310.186 357.755 296.057 347.797 279.552C337.608 262.665 337.15 248.949 338.559 240.417C340.092 231.132 344.005 225.928 344.171 225.711L345.141 226.453C345.102 226.504 341.223 231.681 339.752 240.688C338.393 249.004 338.867 262.388 348.842 278.92C359.054 295.847 357.541 310.369 354.474 319.57C351.151 329.539 345.494 335.413 345.255 335.658Z" fill="#3F3D56"/>
<path d="M391.056 226.693H303.14V138.714H391.056V226.693ZM304.361 225.471H389.835V139.936H304.361V225.471Z" fill="#3F3D56"/>
<path d="M375.182 164.375H321.456V165.597H375.182V164.375Z" fill="#3F3D56"/>
<path d="M375.182 177.816H321.456V179.038H375.182V177.816Z" fill="#3F3D56"/>
<path d="M375.182 191.257H321.456V192.479H375.182V191.257Z" fill="#3F3D56"/>
<path d="M88.53 404.971L86.3218 426.337L98.8373 424.863L100.31 407.181L88.53 404.971Z" fill="#FFB9B9"/>
<path d="M55.4001 242.886C55.4001 242.886 -8.65148 304.773 31.8409 323.928H44.3567C44.3567 323.928 71.597 278.987 84.8491 279.723L88.5302 322.455L86.3215 408.655L102.518 409.392C102.518 409.392 112.089 365.923 111.353 341.611L128.286 251.727L55.4001 242.886Z" fill="#2F2E41"/>
<path d="M35.522 320.981L44.3567 323.928C44.3567 323.928 78.9593 315.824 81.1679 316.561L88.0184 316.514L87.794 298.879H58.3449L35.522 320.981Z" fill="#2F2E41"/>
<path d="M100.31 421.916C100.31 421.916 87.0577 416.022 84.8491 421.916C82.6404 427.81 83.3766 444.756 83.3766 444.756C83.3766 444.756 86.3215 449.913 84.8491 455.807C83.3766 461.701 90.7389 464.648 100.31 461.701C109.881 458.754 109.881 451.387 109.881 451.387L100.31 421.916Z" fill="#2F2E41"/>
<path d="M111.353 297.405C111.353 297.405 121.66 291.511 120.924 300.352C120.188 309.193 116.507 317.298 116.507 317.298C116.507 317.298 126.078 342.347 116.507 344.557C106.936 346.768 99.5736 341.61 99.5736 337.927C99.5736 334.243 111.353 297.405 111.353 297.405Z" fill="#2F2E41"/>
<path d="M78.9591 95.535L80.432 123.532L92.9475 134.583L106.936 114.691V94.7986L78.9591 95.535Z" fill="#FFB9B9"/>
<path d="M88.5302 123.532L80.1021 117.265L74.5419 125.742L49.5103 140.477L64.2348 178.788L64.971 216.363C64.971 216.363 37.7307 244.359 53.9276 248.043C70.1246 251.727 127.55 259.831 130.495 253.2C133.44 246.569 126.814 178.051 126.814 178.051L129.023 119.848L106.936 111.857L88.5302 123.532Z" fill="#008FFF"/>
<path d="M43.6205 170.194C43.6205 170.194 37.7307 211.942 48.7741 211.942C55.3327 211.964 61.8334 210.713 67.9159 208.258L59.0812 185.419L62.7624 169.947L43.6205 170.194Z" fill="#FFB9B9"/>
<path d="M60.5537 206.785L68.6521 208.259C68.6521 208.259 92.2113 193.523 93.6838 192.787C95.1562 192.05 70.1246 179.525 70.1246 179.525L53.1914 186.156L60.5537 206.785Z" fill="#FFB9B9"/>
<path opacity="0.1" d="M70.1246 179.525L59.493 183.688L62.7624 169.947L43.6205 170.194C43.6205 170.194 37.7307 211.942 48.7741 211.942C55.3327 211.964 61.8334 210.713 67.9159 208.258L67.8602 208.114L68.6522 208.258C68.6522 208.258 92.2114 193.523 93.6838 192.787C95.1563 192.05 70.1246 179.525 70.1246 179.525Z" fill="black"/>
<path d="M95.9913 109.505C107.602 109.505 117.014 100.086 117.014 88.4668C117.014 76.8479 107.602 67.429 95.9913 67.429C84.3808 67.429 74.9686 76.8479 74.9686 88.4668C74.9686 100.086 84.3808 109.505 95.9913 109.505Z" fill="#FFB9B9"/>
<path d="M77.4047 64.7333L73.2972 63.0877C73.2972 63.0877 81.8856 53.6256 93.8348 54.4484L90.474 50.7458C90.474 50.7458 98.6891 47.4547 106.157 56.094C110.083 60.6355 114.625 65.9737 117.457 71.9873H121.856L120.02 76.0326L126.446 80.078L119.85 79.3514C120.475 82.8438 120.261 86.4349 119.227 89.8285L119.403 93.0259C119.403 93.0259 111.758 81.1891 111.758 79.5435V83.6575C111.758 83.6575 107.651 79.9549 107.651 77.4866L105.41 80.3663L104.29 75.841L90.474 80.3663L92.7145 76.6638L84.1261 77.898L87.4869 73.3726C87.4869 73.3726 77.7783 78.7207 77.4048 83.2461C77.0314 87.7715 72.1771 93.531 72.1771 93.531L69.9367 89.4171C69.9367 89.4171 66.5759 70.9042 77.4047 64.7333Z" fill="#2F2E41"/>
<path d="M114.298 157.422C114.298 157.422 108.408 164.053 108.408 173.631L69.3883 172.157C69.3883 172.157 59.0812 170.684 59.0812 178.051V185.419C59.0812 185.419 64.2348 183.209 67.1797 185.419C70.1246 187.629 101.782 206.785 117.243 199.417C132.704 192.05 136.385 163.316 136.385 163.316C136.385 163.316 122.397 151.528 114.298 157.422Z" fill="#FFB9B9"/>
<path d="M123.133 120.585L129.023 119.848C129.023 119.848 140.802 121.322 139.33 144.161C137.857 167 137.121 168.474 137.121 168.474C137.121 168.474 121.66 154.476 110.617 161.106L123.133 120.585Z" fill="#008FFF"/>
<path d="M52.4552 140.477H49.5103C45.695 145.3 43.6195 151.271 43.6205 157.422C43.5529 164.011 42.6876 170.566 41.0437 176.946L64.2348 172.894L52.4552 140.477Z" fill="#008FFF"/>
<path d="M418.744 233.754H417.602V263.421H418.744V233.754Z" fill="#3F3D56"/>
<path d="M418.173 226.858C419.376 230.103 421.429 234.129 423.603 236.624L418.173 234.659L412.744 236.624C414.918 234.129 416.971 230.103 418.173 226.858Z" fill="#3F3D56"/>
<path d="M281.732 208.046H280.59V237.713H281.732V208.046Z" fill="#3F3D56"/>
<path d="M281.161 201.15C282.364 204.395 284.417 208.42 286.591 210.916L281.161 208.951L275.732 210.916C277.906 208.42 279.959 204.395 281.161 201.15Z" fill="#3F3D56"/>
<path d="M471.265 185.194H470.124V214.861H471.265V185.194Z" fill="#3F3D56"/>
<path d="M470.695 178.298C471.898 181.543 473.95 185.569 476.125 188.064L470.695 186.099L465.266 188.064C467.44 185.569 469.493 181.543 470.695 178.298Z" fill="#3F3D56"/>
<path d="M501.237 172.531C501.237 172.531 520.076 164.316 528.925 172.994C537.773 181.671 505.233 178.815 501.237 172.531Z" fill="#3F3D56"/>
<path d="M533.767 133.571C527.436 122.866 514.911 122.367 514.911 122.367C514.911 122.367 502.705 120.805 494.876 137.109C487.578 152.306 477.506 166.979 493.254 170.536L496.099 161.676L497.861 171.196C500.103 171.357 502.352 171.395 504.599 171.311C521.464 170.766 537.525 171.47 537.008 165.414C536.321 157.363 539.859 143.872 533.767 133.571Z" fill="#2F2E41"/>
<path d="M542.626 327.637C542.626 327.637 534.634 342.49 529.496 342.49C524.358 342.49 524.929 352.202 526.07 354.488C527.212 356.773 530.067 361.914 525.499 369.341C523.904 371.935 524.19 374.878 525.236 377.609C528.17 385.262 539.579 382.943 539.215 374.755C539.211 374.665 539.206 374.574 539.201 374.483C538.63 365.342 543.197 351.06 547.764 347.632C552.331 344.204 556.327 335.064 556.327 335.064L542.626 327.637Z" fill="#FFB8B8"/>
<path d="M487.821 324.209C487.821 324.209 495.813 339.063 500.951 339.063C506.089 339.063 505.519 348.775 504.377 351.06C503.235 353.345 500.381 358.487 504.948 365.913C506.543 368.508 506.258 371.45 505.211 374.182C502.278 381.834 490.868 379.516 491.232 371.328C491.236 371.237 491.241 371.146 491.246 371.055C491.817 361.914 487.25 347.632 482.683 344.204C478.116 340.776 474.12 331.636 474.12 331.636L487.821 324.209Z" fill="#FFB8B8"/>
<path d="M494.101 251.084L490.675 258.51C490.675 258.51 440.438 275.078 445.005 294.502C449.572 313.926 471.836 344.204 475.262 343.062C478.687 341.919 496.955 338.491 497.526 328.779C498.097 319.067 484.396 301.929 484.396 301.929L503.235 284.79L530.649 284.219L554.044 301.929C554.044 301.929 529.496 323.638 540.342 332.207C551.189 340.777 567.174 346.489 569.458 343.062C571.741 339.634 597.431 288.789 593.435 284.219C589.439 279.648 548.906 262.509 548.906 262.509L538.059 247.084L495.813 244.799L494.101 251.084Z" fill="#FDAF40"/>
<path d="M504.377 156.82C504.377 156.82 507.231 175.673 501.522 177.958C495.813 180.243 512.94 189.955 512.94 189.955H522.645L528.925 176.815C528.925 176.815 523.216 166.532 526.641 156.82C530.067 147.108 504.377 156.82 504.377 156.82Z" fill="#FFB8B8"/>
<path opacity="0.1" d="M504.377 156.82C504.377 156.82 507.231 175.673 501.522 177.958C495.813 180.243 512.94 189.955 512.94 189.955H522.645L528.925 176.815C528.925 176.815 523.216 166.532 526.641 156.82C530.067 147.108 504.377 156.82 504.377 156.82Z" fill="black"/>
<path d="M500.381 172.816C500.381 172.816 506.66 179.672 507.802 180.814C508.944 181.957 514.082 188.241 524.929 179.1C535.775 169.96 536.917 180.814 536.917 180.814V249.369C536.917 249.369 527.783 245.37 520.362 249.369C512.94 253.369 497.526 248.227 497.526 248.227L494.672 177.387L500.381 172.816Z" fill="#D0CDE1"/>
<path d="M504.574 172.816C504.574 172.816 499.239 170.531 494.672 172.816C490.105 175.101 474.12 186.527 475.262 191.669C476.403 196.81 491.246 232.802 480.97 249.941C470.695 267.08 468.982 271.65 468.982 271.65L494.101 258.51C494.101 258.51 513.511 246.513 511.798 239.086C510.086 231.659 504.574 172.816 504.574 172.816Z" fill="#3F3D56"/>
<path d="M527.219 172.816C527.219 172.816 539.201 173.959 539.772 175.101C540.342 176.244 557.754 181.1 556.613 186.242C555.471 191.383 539.772 237.372 546.622 245.942C553.473 254.511 564.891 266.508 560.894 267.651C556.898 268.793 550.048 265.937 543.197 267.651C536.346 269.365 520.362 255.082 522.074 239.657C523.787 224.233 522.088 176.815 527.219 172.816Z" fill="#3F3D56"/>
<path d="M498.668 281.933V287.646C498.668 287.646 495.813 300.786 504.948 300.215C514.082 299.643 508.373 284.219 508.373 284.219L507.802 279.077L498.668 281.933Z" fill="#FFB8B8"/>
<path d="M524.358 282.505C524.358 282.505 518.078 295.644 524.358 296.787C530.637 297.93 535.205 289.36 535.205 287.075C535.205 284.79 524.358 282.505 524.358 282.505Z" fill="#FFB8B8"/>
<path d="M532.636 151.393C533.266 151.393 533.777 150.37 533.777 149.108C533.777 147.846 533.266 146.823 532.636 146.823C532.005 146.823 531.494 147.846 531.494 149.108C531.494 150.37 532.005 151.393 532.636 151.393Z" fill="#FFB8B8"/>
<path d="M498.953 151.393C499.584 151.393 500.095 150.37 500.095 149.108C500.095 147.846 499.584 146.823 498.953 146.823C498.323 146.823 497.812 147.846 497.812 149.108C497.812 150.37 498.323 151.393 498.953 151.393Z" fill="#FFB8B8"/>
<path d="M542.626 180.243C542.626 180.243 556.898 180.243 556.327 185.956C555.756 191.669 536.917 289.931 536.917 289.931C536.917 289.931 528.925 282.504 522.074 284.218L542.626 180.243Z" fill="#3F3D56"/>
<path d="M487.25 181.957C487.25 181.957 472.978 184.813 472.978 193.383C472.978 201.952 493.53 284.218 496.384 284.218C499.239 284.218 510.086 282.504 510.086 279.648C510.086 276.791 487.25 181.957 487.25 181.957Z" fill="#3F3D56"/>
<path opacity="0.2" d="M490.39 198.81L503.235 249.079C503.235 249.079 497.241 205.094 490.39 198.81Z" fill="black"/>
<path opacity="0.2" d="M540.352 191.747L527.361 257.47C527.361 257.47 531.513 195.538 540.352 191.747Z" fill="black"/>
<path d="M515.794 165.961C524.938 165.961 532.35 158.543 532.35 149.393C532.35 140.243 524.938 132.826 515.794 132.826C506.651 132.826 499.239 140.243 499.239 149.393C499.239 158.543 506.651 165.961 515.794 165.961Z" fill="#FFB8B8"/>
<path d="M530.968 132.539L518.594 126.052L501.505 128.706L497.97 144.333L506.77 143.994L509.229 138.253V143.9L513.291 143.743L515.647 134.603L517.121 144.333L531.558 144.038L530.968 132.539Z" fill="#2F2E41"/>
</g>
<defs>
<clipPath id="clip0">
<rect width="600" height="462.857" fill="white"/>
</clipPath>
</defs>
</svg>
