<svg width="101" height="86" viewBox="0 0 101 86" fill="none" xmlns="http://www.w3.org/2000/svg">
<path d="M88.9013 49.5805C94.4109 44.4454 97.4452 37.4917 97.4453 29.9997C97.4452 22.5083 94.4109 15.5547 88.9013 10.4194C88.27 9.83115 87.2813 9.86591 86.6929 10.4972C86.1046 11.1285 86.1393 12.1172 86.7706 12.7055C91.6391 17.243 94.3202 23.3849 94.3203 30.0002C94.3202 36.6151 91.6391 42.7569 86.7706 47.2944C86.4405 47.6022 86.2735 48.0194 86.2735 48.4378C86.2735 48.8193 86.4124 49.2017 86.6929 49.5028C87.2813 50.134 88.27 50.1689 88.9013 49.5805Z" fill="#008FFF"/>
<path d="M82.4486 43.8434C86.2731 40.0475 88.3793 35.1312 88.3792 30C88.3791 24.8676 86.2728 19.9512 82.4485 16.1565C81.8359 15.5487 80.8466 15.5525 80.2388 16.1651C79.631 16.7777 79.6348 17.767 80.2474 18.3748C83.476 21.5783 85.2541 25.7069 85.2542 30C85.2543 34.292 83.4761 38.4206 80.2472 41.6253C79.9395 41.9307 79.7854 42.3325 79.7854 42.7343C79.7854 43.1321 79.9365 43.5303 80.2389 43.8351C80.8468 44.4475 81.8361 44.4513 82.4486 43.8434Z" fill="#008FFF"/>
<path d="M75.9772 37.5898C77.9912 35.557 79.2422 32.6432 79.2422 29.9852C79.2422 29.9849 79.2422 29.9844 79.2422 29.9841V29.8715C79.2422 29.871 79.2422 29.8708 79.2422 29.8703C79.2422 27.2123 77.9911 24.2982 75.9772 22.2655C75.3699 21.6525 74.3806 21.6479 73.7675 22.2553C73.4592 22.5608 73.3047 22.963 73.3047 23.3653C73.3047 23.7627 73.4554 24.1602 73.7572 24.4649C75.1909 25.912 76.1172 28.0336 76.1172 29.8705C76.1172 29.8707 76.1172 29.871 76.1172 29.8713V29.9843C76.1172 29.9846 76.1172 29.9847 76.1172 29.985C76.1172 31.8216 75.1909 33.9434 73.7572 35.3904C73.1499 36.0034 73.1543 36.9928 73.7675 37.6001C74.3805 38.2075 75.3699 38.2029 75.9772 37.5898Z" fill="#008FFF"/>
<path d="M42.3872 41.4266C48.0784 41.4266 53.006 39.3854 57.0333 35.3581C61.0593 31.3314 63.1011 26.4046 63.1011 20.7126C63.1011 15.0227 61.0599 10.0952 57.0326 6.06721C53.0053 2.04121 48.0778 0 42.3872 0C36.6953 0 31.7684 2.04121 27.7417 6.06787C23.7151 10.0945 21.6732 15.022 21.6732 20.7126C21.6732 26.4046 23.7151 31.3321 27.7417 35.3587C31.7697 39.3847 36.6972 41.4266 42.3872 41.4266ZM31.3058 9.6313C34.3955 6.5416 38.02 5.03972 42.3872 5.03972C46.7537 5.03972 50.3788 6.5416 53.4692 9.6313C56.5589 12.7217 58.0614 16.3468 58.0614 20.7126C58.0614 25.0798 56.5589 28.7043 53.4692 31.7946C50.3788 34.885 46.7537 36.3869 42.3872 36.3869C38.0213 36.3869 34.3969 34.8844 31.3058 31.7946C28.2155 28.7049 26.7129 25.0798 26.7129 20.7126C26.7129 16.3468 28.2155 12.7217 31.3058 9.6313Z" fill="#3F3F3F"/>
<path d="M78.631 66.1294C78.5149 64.4537 78.28 62.6257 77.9342 60.6954C77.5852 58.7506 77.1357 56.9121 76.5977 55.2318C76.0413 53.495 75.2861 51.7799 74.3511 50.1363C73.382 48.4304 72.243 46.9449 70.9648 45.7225C69.6283 44.4437 67.9919 43.4156 66.0996 42.6656C64.2139 41.9196 62.1242 41.5417 59.8887 41.5417C59.0108 41.5417 58.1618 41.9019 56.5221 42.9694C55.513 43.6275 54.3326 44.3886 53.0151 45.2304C51.8886 45.9482 50.3624 46.6208 48.4774 47.2296C46.6382 47.8248 44.7709 48.1266 42.9272 48.1266C41.0848 48.1266 39.2174 47.8248 37.377 47.2296C35.4939 46.6214 33.9671 45.9489 32.8425 45.2311C31.5374 44.3971 30.3564 43.636 29.3322 42.9688C27.6938 41.9012 26.8448 41.541 25.9669 41.541C23.7308 41.541 21.6417 41.9196 19.7567 42.6663C17.8657 43.4149 16.2287 44.4431 14.8908 45.7232C13.6127 46.9462 12.4736 48.431 11.5052 50.1363C10.5715 51.7799 9.81567 53.4944 9.25928 55.2324C8.72191 56.9128 8.27246 58.7506 7.9234 60.6954C7.57697 62.6231 7.34273 64.4517 7.22659 66.1314C7.11243 67.7737 7.05469 69.4829 7.05469 71.2098C7.05469 75.699 8.48177 79.3333 11.2959 82.0136C14.0753 84.6585 17.7522 85.9996 22.225 85.9996H63.6346C68.1061 85.9996 71.783 84.6585 74.563 82.0136C77.3778 79.3353 78.8049 75.6997 78.8049 71.2092C78.8043 69.4763 78.7459 67.7671 78.631 66.1294ZM71.0882 78.3623C69.2517 80.1102 66.8135 80.9599 63.6339 80.9599H22.225C19.0448 80.9599 16.6066 80.1102 14.7708 78.3629C12.9697 76.6485 12.0944 74.308 12.0944 71.2098C12.0944 69.5984 12.1476 68.0072 12.2538 66.4798C12.3575 64.9812 12.5694 63.335 12.8837 61.5857C13.1941 59.8581 13.5891 58.2368 14.0589 56.7691C14.5096 55.3617 15.1244 53.9681 15.8868 52.6256C16.6145 51.3462 17.4517 50.2485 18.3755 49.364C19.2396 48.5367 20.3288 47.8595 21.6122 47.3517C22.7991 46.8819 24.133 46.6247 25.5811 46.586C25.7576 46.6798 26.0719 46.8589 26.5811 47.1909C27.6171 47.8661 28.8112 48.6364 30.1314 49.4795C31.6195 50.4283 33.5367 51.2852 35.8272 52.0246C38.1689 52.7818 40.5572 53.1663 42.9278 53.1663C45.2984 53.1663 47.6874 52.7818 50.0278 52.0253C52.3203 51.2845 54.2369 50.4283 55.7269 49.4782C57.0779 48.6147 58.2386 47.8667 59.2746 47.1909C59.7838 46.8596 60.098 46.6798 60.2745 46.586C61.7233 46.6247 63.0572 46.8819 64.2448 47.3517C65.5275 47.8595 66.6167 48.5373 67.4808 49.364C68.4046 50.2478 69.2418 51.3455 69.9695 52.6263C70.7326 53.9681 71.348 55.3624 71.7981 56.7684C72.2686 58.2382 72.6642 59.8588 72.9739 61.5851C73.2875 63.3376 73.5001 64.9845 73.6038 66.4804V66.4818C73.7107 68.0033 73.7645 69.5938 73.7652 71.2098C73.7645 74.3087 72.8893 76.6485 71.0882 78.3623Z" fill="#3F3F3F"/>
</svg>
