<svg width="84" height="84" viewBox="0 0 84 84" fill="none" xmlns="http://www.w3.org/2000/svg">
<g clip-path="url(#clip0)">
<path d="M22.4074 31.1612H61.5936L63.2659 20.2909C64.907 9.62194 56.6522 0 45.8575 0H38.143C27.3483 0 19.0935 9.62194 20.735 20.2911L22.4074 31.1612Z" fill="#5A4650"/>
<path d="M68.681 60.6058L54.4017 56.406C52.6718 55.8972 51.484 54.3096 51.484 52.5065V46.064H32.5165V52.5065C32.5165 54.3096 31.3287 55.8972 29.5989 56.406L15.3195 60.6058C11.8599 61.6233 9.48413 64.7984 9.48413 68.4045V79.935C9.48413 82.1797 11.3039 83.9995 13.5486 83.9995H70.4519C72.6966 83.9995 74.5164 82.1797 74.5164 79.935V68.4045C74.5164 64.7984 72.1408 61.6233 68.681 60.6058Z" fill="#E3AA75"/>
<path d="M68.681 60.6072L54.4017 56.4073C54.1602 56.3363 55.7672 57.0148 55.5485 56.9041L41.9994 60.9686L28.4516 56.9041C28.233 57.0148 29.8399 56.3363 29.5984 56.4073L15.3195 60.6072C11.8599 61.6247 9.48413 64.7998 9.48413 68.4059V79.9364C9.48413 82.1811 11.3039 84.0008 13.5486 84.0008H70.4519C72.6966 84.0008 74.5164 82.1811 74.5164 79.9364V68.4059C74.5164 64.7998 72.1408 61.6247 68.681 60.6072Z" fill="#5A4650"/>
<path d="M55.0835 59.148L53.468 57.5325L42 59.6128L30.5321 57.5325L28.9166 59.148C26.8838 61.1806 25.7419 63.9375 25.7419 66.8122V84H58.2581V66.8122C58.2581 63.9375 57.1163 61.1806 55.0835 59.148Z" fill="#A5CDFF"/>
<path d="M55.0835 59.148L53.468 57.5325L42 59.6128L30.5321 57.5325L28.9166 59.148C28.2515 59.8129 27.6925 60.5614 27.2271 61.3604L32.2331 67.0816C33.0048 67.9637 34.1198 68.4695 35.2922 68.4695C36.3776 68.4695 37.3983 68.0467 38.1661 67.2789L42 63.445L45.8342 67.2791C46.6017 68.0467 47.6223 68.4695 48.7079 68.4695C49.8803 68.4695 50.9954 67.9636 51.7672 67.0814L56.7732 61.3604C56.3076 60.5616 55.7486 59.8131 55.0835 59.148Z" fill="#8CB4EB"/>
<path d="M40.0433 66.3867L37.9358 83.9996H46.0646L43.9571 66.3867H40.0433Z" fill="#5A4650"/>
<path d="M43.733 67.7424H40.2667C39.6835 67.7424 39.1659 67.3692 38.9815 66.8159L36.5806 59.6133H47.4194L45.0185 66.8159C44.8339 67.3693 44.3163 67.7424 43.733 67.7424Z" fill="#64505A"/>
<path d="M32.5161 49.0873C35.3624 50.6077 38.5904 51.4833 41.9999 51.4833C45.4095 51.4833 48.6374 50.6077 51.4837 49.0873V46.064H32.5161V49.0873Z" fill="#CE925A"/>
<path d="M31.6113 53.8416L28.0413 58.1763L34.2723 65.2974C34.7885 65.8872 35.6958 65.9174 36.25 65.3632L42 59.6133L31.6113 53.8416Z" fill="#A5CDFF"/>
<path d="M52.3889 53.8416L55.9589 58.1763L49.7278 65.2974C49.2117 65.8872 48.3044 65.9174 47.7502 65.3632L42 59.6133L52.3889 53.8416Z" fill="#A5CDFF"/>
<path d="M18.9679 83.9992L16.5809 74.6125C16.38 73.7082 16.6549 72.7637 17.31 72.1086L21.6775 67.7411L19.6681 64.727C19.1951 64.0174 19.0937 63.1265 19.3629 62.3172C22.5935 52.6088 32.5162 50.1282 32.5162 50.1282V52.7415C32.5162 54.5382 31.8025 56.2612 30.532 57.5317L28.9165 59.1472C26.8837 61.1798 25.7419 63.9367 25.7419 66.8114V83.9992" fill="#64505A"/>
<path d="M65.0322 83.9992L67.4191 74.6125C67.6201 73.7082 67.3451 72.7637 66.69 72.1086L62.3225 67.7411L64.3319 64.727C64.8049 64.0174 64.9063 63.1265 64.6371 62.3172C61.4065 52.6088 51.4839 50.1282 51.4839 50.1282V52.7415C51.4839 54.5382 52.1976 56.2612 53.4681 57.5317L55.0836 59.1472C57.1161 61.1798 58.2582 63.9367 58.2582 66.8114V83.9992" fill="#64505A"/>
<path d="M60.1716 25.7418H60.1132C58.4659 25.7418 57.2423 24.2163 57.5996 22.6084C58.6329 17.9588 55.0949 13.5483 50.3318 13.5483H33.6685C28.9056 13.5483 25.3676 17.9588 26.4007 22.6084C26.758 24.2163 25.5344 25.7418 23.8871 25.7418H23.8287C22.2861 25.7418 20.8455 26.7193 20.4458 28.2091C19.8414 30.4624 21.5475 32.5159 23.7099 32.5159H24.4557C25.1497 41.6081 32.7302 48.774 42.0002 48.774C51.2702 48.774 58.8507 41.6081 59.5447 32.5159H60.2906C62.4529 32.5159 64.159 30.4624 63.5546 28.2091C63.1548 26.7193 61.7141 25.7418 60.1716 25.7418Z" fill="#F5B97D"/>
<path d="M29.8064 31.1611V23.0321C29.8064 19.2909 32.8393 16.258 36.5806 16.258H47.4194C48.9158 16.258 50.1289 15.0448 50.1285 13.5483H33.6683C28.9016 13.5483 25.3618 17.9657 26.403 22.6194C26.7618 24.2231 25.5303 25.742 23.8869 25.742H23.8287C22.2861 25.742 20.8455 26.7194 20.4459 28.2093C19.8415 30.4625 21.5474 32.5163 23.7097 32.5163H24.4555C25.1495 41.6084 32.73 48.7744 42.0001 48.7744C42.9269 48.7744 43.8305 48.6841 44.7183 48.546C36.2766 47.243 29.8064 39.9675 29.8064 31.1611Z" fill="#E3AA75"/>
<path d="M45.8571 0H38.1425C36.6624 0 35.2365 0.196219 33.8708 0.535992V1.35483C33.8708 6.59252 38.117 10.8386 43.3546 10.8386H62.1203C59.4859 4.53928 53.2711 0 45.8571 0Z" fill="#64505A"/>
<path d="M33.8709 29.8069C33.122 29.8069 32.5161 29.2009 32.5161 28.4521V27.0973C32.5161 26.3483 33.1222 25.7424 33.8709 25.7424C34.6197 25.7424 35.2258 26.3485 35.2258 27.0973V28.4521C35.2259 29.201 34.6199 29.8069 33.8709 29.8069Z" fill="#5A4650"/>
<path d="M50.129 29.8069C49.3801 29.8069 48.7742 29.2009 48.7742 28.4521V27.0973C48.7742 26.3483 49.3802 25.7424 50.129 25.7424C50.8779 25.7424 51.4838 26.3485 51.4838 27.0973V28.4521C51.4838 29.201 50.8779 29.8069 50.129 29.8069Z" fill="#5A4650"/>
<path d="M42.0003 39.2899C39.9667 39.2899 38.0918 38.6376 36.9844 37.5447C36.4512 37.0181 36.4459 36.1609 36.9711 35.629C37.499 35.0958 38.3564 35.0905 38.8868 35.6157C39.338 36.0603 40.423 36.5802 42.0001 36.5802C43.5772 36.5802 44.6622 36.0603 45.1133 35.6157C45.6439 35.0903 46.5013 35.0958 47.0291 35.629C47.5544 36.1609 47.549 37.0183 47.0158 37.5447C45.9087 38.6376 44.0338 39.2899 42.0003 39.2899Z" fill="#B67F5F"/>
<path d="M35.2261 24.3869H32.5165C31.7675 24.3869 31.1616 23.7809 31.1616 23.0321C31.1616 22.2833 31.7677 21.6772 32.5165 21.6772H35.2261C35.9751 21.6772 36.5809 22.2833 36.5809 23.0321C36.5809 23.7809 35.9749 24.3869 35.2261 24.3869Z" fill="#B67F5F"/>
<path d="M51.4839 24.3869H48.7743C48.0253 24.3869 47.4194 23.7809 47.4194 23.0321C47.4194 22.2833 48.0255 21.6772 48.7743 21.6772H51.4839C52.2329 21.6772 52.8387 22.2833 52.8387 23.0321C52.8387 23.7809 52.2329 24.3869 51.4839 24.3869Z" fill="#B67F5F"/>
</g>
<defs>
<clipPath id="clip0">
<rect width="84" height="84" fill="white"/>
</clipPath>
</defs>
</svg>
