<svg width="30" height="20" viewBox="0 0 30 20" fill="none" xmlns="http://www.w3.org/2000/svg">
<mask id="path-1-inside-1" fill="white">
<path d="M21.2103 11.6665H3.33132C3.07156 11.6665 2.89844 11.8397 2.89844 12.0994C2.89844 12.3591 3.07161 12.5323 3.33132 12.5323H21.2103C21.47 12.5323 21.6431 12.3591 21.6431 12.0994C21.6431 11.8397 21.47 11.6665 21.2103 11.6665Z"/>
</mask>
<path d="M21.2103 11.6665H3.33132C3.07156 11.6665 2.89844 11.8397 2.89844 12.0994C2.89844 12.3591 3.07161 12.5323 3.33132 12.5323H21.2103C21.47 12.5323 21.6431 12.3591 21.6431 12.0994C21.6431 11.8397 21.47 11.6665 21.2103 11.6665Z" fill="black"/>
<path d="M21.2103 10.6665H3.33132V12.6665H21.2103V10.6665ZM3.33132 10.6665C2.97418 10.6665 2.59886 10.7899 2.31033 11.0785C2.02181 11.367 1.89844 11.7423 1.89844 12.0994H3.89844C3.89844 12.1967 3.86163 12.3556 3.72461 12.4926C3.58757 12.6297 3.42869 12.6665 3.33132 12.6665V10.6665ZM1.89844 12.0994C1.89844 12.4565 2.02188 12.8318 2.31038 13.1203C2.59888 13.4088 2.97416 13.5323 3.33132 13.5323V11.5323C3.42877 11.5323 3.58761 11.5691 3.72459 11.7061C3.86158 11.8431 3.89844 12.0019 3.89844 12.0994H1.89844ZM3.33132 13.5323H21.2103V11.5323H3.33132V13.5323ZM21.2103 13.5323C21.5674 13.5323 21.9427 13.4088 22.2313 13.1203C22.5198 12.8317 22.6431 12.4564 22.6431 12.0994H20.6431C20.6431 12.002 20.68 11.8432 20.817 11.7061C20.954 11.5691 21.1129 11.5323 21.2103 11.5323V13.5323ZM22.6431 12.0994C22.6431 11.7422 22.5197 11.3669 22.2312 11.0784C21.9427 10.7899 21.5674 10.6665 21.2103 10.6665V12.6665C21.1128 12.6665 20.954 12.6296 20.817 12.4927C20.68 12.3557 20.6431 12.1968 20.6431 12.0994H22.6431Z" fill="#008FFF" mask="url(#path-1-inside-1)"/>
<mask id="path-3-inside-2" fill="white">
<path d="M21.2103 15H3.33132C3.07156 15 2.89844 15.1732 2.89844 15.4329C2.89844 15.6926 3.07161 15.8658 3.33132 15.8658H21.2103C21.47 15.8658 21.6431 15.6926 21.6431 15.4329C21.6431 15.1732 21.47 15 21.2103 15Z"/>
</mask>
<path d="M21.2103 15H3.33132C3.07156 15 2.89844 15.1732 2.89844 15.4329C2.89844 15.6926 3.07161 15.8658 3.33132 15.8658H21.2103C21.47 15.8658 21.6431 15.6926 21.6431 15.4329C21.6431 15.1732 21.47 15 21.2103 15Z" fill="black"/>
<path d="M21.2103 14H3.33132V16H21.2103V14ZM3.33132 14C2.97418 14 2.59886 14.1234 2.31033 14.412C2.02181 14.7005 1.89844 15.0758 1.89844 15.4329H3.89844C3.89844 15.5302 3.86163 15.6891 3.72461 15.8261C3.58757 15.9632 3.42869 16 3.33132 16V14ZM1.89844 15.4329C1.89844 15.79 2.02188 16.1653 2.31038 16.4538C2.59888 16.7423 2.97416 16.8658 3.33132 16.8658V14.8658C3.42877 14.8658 3.58761 14.9026 3.7246 15.0396C3.86158 15.1766 3.89844 15.3354 3.89844 15.4329H1.89844ZM3.33132 16.8658H21.2103V14.8658H3.33132V16.8658ZM21.2103 16.8658C21.5674 16.8658 21.9427 16.7423 22.2313 16.4538C22.5198 16.1652 22.6431 15.7899 22.6431 15.4329H20.6431C20.6431 15.3355 20.68 15.1767 20.817 15.0396C20.954 14.9026 21.1129 14.8658 21.2103 14.8658V16.8658ZM22.6431 15.4329C22.6431 15.0757 22.5197 14.7004 22.2312 14.4119C21.9427 14.1234 21.5674 14 21.2103 14V16C21.1128 16 20.954 15.9631 20.817 15.8262C20.68 15.6892 20.6431 15.5303 20.6431 15.4329H22.6431Z" fill="#008FFF" mask="url(#path-3-inside-2)"/>
<mask id="path-5-inside-3" fill="white">
<path d="M12.2542 8.98344H20.3495C20.6093 8.98344 20.7824 8.81026 20.7824 8.55056C20.7824 8.29079 20.6092 8.11768 20.3495 8.11768H12.2542C11.9944 8.11768 11.8213 8.29085 11.8213 8.55056C11.8213 8.81026 12.0377 8.98344 12.2542 8.98344Z"/>
</mask>
<path d="M12.2542 8.98344H20.3495C20.6093 8.98344 20.7824 8.81026 20.7824 8.55056C20.7824 8.29079 20.6092 8.11768 20.3495 8.11768H12.2542C11.9944 8.11768 11.8213 8.29085 11.8213 8.55056C11.8213 8.81026 12.0377 8.98344 12.2542 8.98344Z" fill="black"/>
<path d="M12.2542 9.98344H20.3495V7.98344H12.2542V9.98344ZM20.3495 9.98344C20.7066 9.98344 21.0819 9.86002 21.3705 9.57146C21.659 9.28291 21.7824 8.90762 21.7824 8.55056H19.7824C19.7824 8.4532 19.8192 8.29435 19.9562 8.15731C20.0932 8.02026 20.2521 7.98344 20.3495 7.98344V9.98344ZM21.7824 8.55056C21.7824 8.19342 21.659 7.8181 21.3704 7.52957C21.0818 7.24105 20.7066 7.11768 20.3495 7.11768V9.11768C20.2521 9.11768 20.0933 9.08087 19.9562 8.94384C19.8192 8.80681 19.7824 8.64793 19.7824 8.55056H21.7824ZM20.3495 7.11768H12.2542V9.11768H20.3495V7.11768ZM12.2542 7.11768C11.897 7.11768 11.5217 7.24109 11.2332 7.52965C10.9447 7.8182 10.8213 8.19349 10.8213 8.55056H12.8213C12.8213 8.64792 12.7845 8.80677 12.6475 8.9438C12.5104 9.08085 12.3515 9.11768 12.2542 9.11768V7.11768ZM10.8213 8.55056C10.8213 9.42634 11.5514 9.98344 12.2542 9.98344V7.98344C12.524 7.98344 12.8213 8.19419 12.8213 8.55056H10.8213Z" fill="#008FFF" mask="url(#path-5-inside-3)"/>
<mask id="path-7-inside-4" fill="white">
<path d="M27.4164 10.2835C27.4164 10.1274 27.2899 10.001 27.1339 10.001H23.1419C22.9858 10.001 22.8594 10.1274 22.8594 10.2835C22.8594 10.4395 22.9858 10.5659 23.1419 10.5659H24.2841C24.9649 10.5667 25.551 11.0466 25.6863 11.7139H23.1419C22.9858 11.7139 22.8594 11.8403 22.8594 11.9963C22.8594 12.1523 22.9858 12.2788 23.1419 12.2788H25.6863C25.551 12.946 24.9649 13.4256 24.2841 13.4266H23.1419C23.0262 13.4266 22.9223 13.4972 22.8794 13.6046C22.8367 13.7121 22.8638 13.8347 22.9478 13.9143L25.8029 16.6123C25.8762 16.682 25.9812 16.7072 26.0782 16.6783C26.175 16.6495 26.2492 16.571 26.2725 16.4726C26.2957 16.3742 26.2647 16.2708 26.191 16.2016L23.852 13.9914H24.2841C25.2764 13.9901 26.1174 13.2608 26.2591 12.2787H27.1339C27.2899 12.2787 27.4164 12.1521 27.4164 11.9962C27.4164 11.8401 27.2899 11.7137 27.1339 11.7137H26.2591C26.1964 11.2767 25.9904 10.8729 25.6734 10.5658H27.1339C27.2899 10.5658 27.4164 10.4394 27.4164 10.2835Z"/>
</mask>
<path d="M27.4164 10.2835C27.4164 10.1274 27.2899 10.001 27.1339 10.001H23.1419C22.9858 10.001 22.8594 10.1274 22.8594 10.2835C22.8594 10.4395 22.9858 10.5659 23.1419 10.5659H24.2841C24.9649 10.5667 25.551 11.0466 25.6863 11.7139H23.1419C22.9858 11.7139 22.8594 11.8403 22.8594 11.9963C22.8594 12.1523 22.9858 12.2788 23.1419 12.2788H25.6863C25.551 12.946 24.9649 13.4256 24.2841 13.4266H23.1419C23.0262 13.4266 22.9223 13.4972 22.8794 13.6046C22.8367 13.7121 22.8638 13.8347 22.9478 13.9143L25.8029 16.6123C25.8762 16.682 25.9812 16.7072 26.0782 16.6783C26.175 16.6495 26.2492 16.571 26.2725 16.4726C26.2957 16.3742 26.2647 16.2708 26.191 16.2016L23.852 13.9914H24.2841C25.2764 13.9901 26.1174 13.2608 26.2591 12.2787H27.1339C27.2899 12.2787 27.4164 12.1521 27.4164 11.9962C27.4164 11.8401 27.2899 11.7137 27.1339 11.7137H26.2591C26.1964 11.2767 25.9904 10.8729 25.6734 10.5658H27.1339C27.2899 10.5658 27.4164 10.4394 27.4164 10.2835Z" fill="black"/>
<path d="M24.2841 10.5659L24.2853 9.56595H24.2841V10.5659ZM25.6863 11.7139V12.7139H26.9093L26.6664 11.5152L25.6863 11.7139ZM25.6863 12.2788L26.6663 12.4775L26.9094 11.2788H25.6863V12.2788ZM24.2841 13.4266V14.4266L24.2855 14.4266L24.2841 13.4266ZM22.8794 13.6046L21.9507 13.2336L21.9501 13.2353L22.8794 13.6046ZM22.9478 13.9143L22.26 14.6402L22.261 14.6411L22.9478 13.9143ZM25.8029 16.6123L26.4919 15.8875L26.4898 15.8854L25.8029 16.6123ZM26.0782 16.6783L26.3634 17.6368L26.3638 17.6367L26.0782 16.6783ZM26.2725 16.4726L27.2455 16.7034L27.2459 16.7019L26.2725 16.4726ZM26.191 16.2016L25.5042 16.9285L25.5061 16.9302L26.191 16.2016ZM23.852 13.9914V12.9914H21.3377L23.1652 14.7182L23.852 13.9914ZM24.2841 13.9914V14.9914L24.2854 14.9914L24.2841 13.9914ZM26.2591 12.2787V11.2787H25.3931L25.2694 12.1359L26.2591 12.2787ZM26.2591 11.7137L25.2693 11.8558L25.3925 12.7137H26.2591V11.7137ZM25.6734 10.5658V9.56579H23.2038L24.9776 11.2841L25.6734 10.5658ZM28.4164 10.2835C28.4164 9.57512 27.8422 9.00098 27.1339 9.00098V11.001C26.7376 11.001 26.4164 10.6797 26.4164 10.2835H28.4164ZM27.1339 9.00098H23.1419V11.001H27.1339V9.00098ZM23.1419 9.00098C22.4335 9.00098 21.8594 9.57512 21.8594 10.2835H23.8594C23.8594 10.6797 23.5381 11.001 23.1419 11.001V9.00098ZM21.8594 10.2835C21.8594 10.9918 22.4335 11.5659 23.1419 11.5659V9.56595C23.5381 9.56595 23.8594 9.88724 23.8594 10.2835H21.8594ZM23.1419 11.5659H24.2841V9.56595H23.1419V11.5659ZM24.2829 11.5659C24.4884 11.5662 24.6654 11.711 24.7062 11.9125L26.6664 11.5152C26.4367 10.3822 25.4414 9.56729 24.2853 9.56595L24.2829 11.5659ZM25.6863 10.7139H23.1419V12.7139H25.6863V10.7139ZM23.1419 10.7139C22.4335 10.7139 21.8594 11.288 21.8594 11.9963H23.8594C23.8594 12.3926 23.5381 12.7139 23.1419 12.7139V10.7139ZM21.8594 11.9963C21.8594 12.7042 22.4332 13.2788 23.1419 13.2788V11.2788C23.5384 11.2788 23.8594 11.6003 23.8594 11.9963H21.8594ZM23.1419 13.2788H25.6863V11.2788H23.1419V13.2788ZM24.7062 12.0801C24.6654 12.2813 24.4886 12.4263 24.2827 12.4266L24.2855 14.4266C25.4412 14.425 26.4366 13.6106 26.6663 12.4775L24.7062 12.0801ZM24.2841 12.4266H23.1419V14.4266H24.2841V12.4266ZM23.1419 12.4266C22.6158 12.4266 22.1449 12.7476 21.9507 13.2336L23.8081 13.9755C23.6997 14.2468 23.4365 14.4266 23.1419 14.4266V12.4266ZM21.9501 13.2353C21.7561 13.7234 21.8795 14.2797 22.26 14.6402L23.6356 13.1884C23.8481 13.3897 23.9173 13.7007 23.8087 13.9738L21.9501 13.2353ZM22.261 14.6411L25.1161 17.3391L26.4898 15.8854L23.6346 13.1875L22.261 14.6411ZM25.114 17.3371C25.4466 17.6532 25.923 17.7678 26.3634 17.6368L25.793 15.7199C26.0394 15.6465 26.3059 15.7107 26.4919 15.8875L25.114 17.3371ZM26.3638 17.6367C26.8031 17.5057 27.1396 17.15 27.2455 16.7034L25.2995 16.2418C25.3588 15.992 25.5468 15.7932 25.7925 15.72L26.3638 17.6367ZM27.2459 16.7019C27.3509 16.2563 27.2105 15.7875 26.876 15.473L25.5061 16.9302C25.3188 16.7542 25.2406 16.4922 25.2992 16.2433L27.2459 16.7019ZM26.8779 15.4748L24.5388 13.2646L23.1652 14.7182L25.5042 16.9285L26.8779 15.4748ZM23.852 14.9914H24.2841V12.9914H23.852V14.9914ZM24.2854 14.9914C25.7744 14.9895 27.0362 13.8951 27.2489 12.4215L25.2694 12.1359C25.1986 12.6264 24.7785 12.9908 24.2828 12.9914L24.2854 14.9914ZM26.2591 13.2787H27.1339V11.2787H26.2591V13.2787ZM27.1339 13.2787C27.8426 13.2787 28.4164 12.704 28.4164 11.9962H26.4164C26.4164 11.6002 26.7373 11.2787 27.1339 11.2787V13.2787ZM28.4164 11.9962C28.4164 11.2878 27.8422 10.7137 27.1339 10.7137V12.7137C26.7376 12.7137 26.4164 12.3924 26.4164 11.9962H28.4164ZM27.1339 10.7137H26.2591V12.7137H27.1339V10.7137ZM27.249 11.5716C27.1548 10.9155 26.8454 10.3089 26.3691 9.84752L24.9776 11.2841C25.1353 11.4368 25.238 11.638 25.2693 11.8558L27.249 11.5716ZM25.6734 11.5658H27.1339V9.56579H25.6734V11.5658ZM27.1339 11.5658C27.8419 11.5658 28.4164 10.992 28.4164 10.2835H26.4164C26.4164 9.88672 26.738 9.56579 27.1339 9.56579V11.5658Z" fill="#008FFF" mask="url(#path-7-inside-4)"/>
<mask id="path-9-inside-5" fill="white">
<path d="M4.54909 8.9825H10.0037C10.2635 8.9825 10.4366 8.80932 10.4366 8.54961V3.09499C10.4366 2.83523 10.2634 2.66211 10.0037 2.66211H4.54909C4.28933 2.66211 4.11621 2.83529 4.11621 3.09499V8.54961C4.11621 8.76603 4.28939 8.9825 4.54909 8.9825ZM4.98203 3.52787H9.57083V8.11668H4.98203V3.52787Z"/>
</mask>
<path d="M4.54909 8.9825H10.0037C10.2635 8.9825 10.4366 8.80932 10.4366 8.54961V3.09499C10.4366 2.83523 10.2634 2.66211 10.0037 2.66211H4.54909C4.28933 2.66211 4.11621 2.83529 4.11621 3.09499V8.54961C4.11621 8.76603 4.28939 8.9825 4.54909 8.9825ZM4.98203 3.52787H9.57083V8.11668H4.98203V3.52787Z" fill="black"/>
<path d="M4.98203 3.52787V2.52787H3.98203V3.52787H4.98203ZM9.57083 3.52787H10.5708V2.52787H9.57083V3.52787ZM9.57083 8.11668V9.11668H10.5708V8.11668H9.57083ZM4.98203 8.11668H3.98203V9.11668H4.98203V8.11668ZM4.54909 9.9825H10.0037V7.9825H4.54909V9.9825ZM10.0037 9.9825C10.3608 9.9825 10.7362 9.85908 11.0247 9.57052C11.3132 9.28197 11.4366 8.90668 11.4366 8.54961H9.43659C9.43659 8.45226 9.4734 8.2934 9.61042 8.15637C9.74745 8.01932 9.90633 7.9825 10.0037 7.9825V9.9825ZM11.4366 8.54961V3.09499H9.43659V8.54961H11.4366ZM11.4366 3.09499C11.4366 2.73785 11.3132 2.36253 11.0246 2.074C10.7361 1.78548 10.3608 1.66211 10.0037 1.66211V3.66211C9.90635 3.66211 9.7475 3.6253 9.61046 3.48828C9.47342 3.35124 9.43659 3.19237 9.43659 3.09499H11.4366ZM10.0037 1.66211H4.54909V3.66211H10.0037V1.66211ZM4.54909 1.66211C4.19195 1.66211 3.81663 1.78553 3.5281 2.07409C3.23958 2.36264 3.11621 2.73793 3.11621 3.09499H5.11621C5.11621 3.19235 5.0794 3.3512 4.94238 3.48823C4.80535 3.62528 4.64647 3.66211 4.54909 3.66211V1.66211ZM3.11621 3.09499V8.54961H5.11621V3.09499H3.11621ZM3.11621 8.54961C3.11621 9.2522 3.67323 9.9825 4.54909 9.9825V7.9825C4.90554 7.9825 5.11621 8.27985 5.11621 8.54961H3.11621ZM4.98203 4.52787H9.57083V2.52787H4.98203V4.52787ZM8.57083 3.52787V8.11668H10.5708V3.52787H8.57083ZM9.57083 7.11668H4.98203V9.11668H9.57083V7.11668ZM5.98203 8.11668V3.52787H3.98203V8.11668H5.98203Z" fill="#008FFF" mask="url(#path-9-inside-5)"/>
<rect x="0.5" y="0.5" width="29" height="19" rx="1.5" stroke="#008FFF"/>
</svg>
