<svg width="20" height="20" viewBox="0 0 20 20" fill="none" xmlns="http://www.w3.org/2000/svg">
<path d="M19.8354 2.54835C19.8235 2.53707 17.4743 0.274614 17.4743 0.274614C17.3845 0.187594 17.2916 0.0976562 17.1181 0.0976562H7.66032C7.38407 0.0976562 7.15931 0.324592 7.15931 0.603558V2.15708L3.82591 2.73411C3.55872 2.78144 3.37903 3.03966 3.42532 3.3092L3.5945 4.3053C2.51102 4.6735 1.39864 5.05305 0.324775 5.44259C0.0710246 5.53627 -0.0621395 5.8212 0.0284074 6.07898L2.16454 12.0755C2.20751 12.1962 2.32013 12.2713 2.44024 12.2713C2.47313 12.2713 2.50665 12.2657 2.53938 12.2537C2.69165 12.1984 2.77067 12.029 2.71591 11.8752L0.611376 5.96738C1.62309 5.6016 2.67083 5.24358 3.69477 4.89554L4.70145 10.8222L5.85981 17.6477C5.90165 17.8886 6.11138 18.0601 6.34809 18.0601C6.37489 18.0601 6.40208 18.0579 6.42935 18.0533L9.56669 17.5096L12.0183 17.0853L8.3311 18.4236L5.42349 19.4793L3.16536 13.1367C3.11063 12.983 2.94286 12.9032 2.79056 12.9584C2.63829 13.0137 2.55927 13.1831 2.61399 13.3369L4.90415 19.7696C4.97739 19.9719 5.16716 20.0977 5.36774 20.0977C5.42317 20.0977 5.47946 20.088 5.53431 20.0678L8.52927 18.9804L15.3298 16.5121L16.629 16.2872H19.499C19.7752 16.2872 20 16.0597 20 15.7802V2.88172C20 2.70464 19.9049 2.61431 19.8354 2.54835ZM19.0592 2.61841H17.5932L17.5568 2.61857C17.4867 2.61904 17.3223 2.62026 17.2806 2.57845C17.271 2.56879 17.2598 2.53652 17.2598 2.4766L17.2564 0.882367L19.0592 2.61841ZM19.4141 15.6954H7.74524V9.92963C7.74524 9.76625 7.61407 9.63379 7.45227 9.63379C7.29048 9.63379 7.15931 9.76625 7.15931 9.92963V15.7801C7.15931 16.0596 7.38407 16.2871 7.66032 16.2871H13.1608L9.46763 16.9264L6.42145 17.4543L5.27895 10.7222L4.01845 3.30107L7.15927 2.75738V8.55689C7.15927 8.72028 7.29044 8.85274 7.45224 8.85274C7.61403 8.85274 7.7452 8.72028 7.7452 8.55689V0.689315H16.67L16.6738 2.47727C16.6738 2.69399 16.7391 2.86929 16.8678 2.99836C17.0656 3.19666 17.3452 3.21046 17.5187 3.21046C17.5336 3.21046 17.5478 3.21035 17.561 3.21027L19.4141 3.21015V15.6954Z" fill="black"/>
<path d="M9.15625 4.69136C9.15625 4.85474 9.28742 4.98721 9.44922 4.98721H17.8256C17.9874 4.98721 18.1186 4.85474 18.1186 4.69136C18.1186 4.52797 17.9874 4.39551 17.8256 4.39551H9.44922C9.28742 4.39551 9.15625 4.52797 9.15625 4.69136Z" fill="black"/>
<path d="M17.8256 6.49707H9.44922C9.28742 6.49707 9.15625 6.62953 9.15625 6.79292C9.15625 6.95631 9.28742 7.08877 9.44922 7.08877H17.8256C17.9874 7.08877 18.1186 6.95631 18.1186 6.79292C18.1186 6.62953 17.9874 6.49707 17.8256 6.49707Z" fill="black"/>
<path d="M17.8256 8.59961H9.44922C9.28742 8.59961 9.15625 8.73207 9.15625 8.89546C9.15625 9.05885 9.28742 9.19131 9.44922 9.19131H17.8256C17.9874 9.19131 18.1186 9.05885 18.1186 8.89546C18.1186 8.73207 17.9874 8.59961 17.8256 8.59961Z" fill="black"/>
<path d="M17.8256 10.7012H9.44922C9.28742 10.7012 9.15625 10.8336 9.15625 10.997C9.15625 11.1604 9.28742 11.2929 9.44922 11.2929H17.8256C17.9874 11.2929 18.1186 11.1604 18.1186 10.997C18.1186 10.8336 17.9874 10.7012 17.8256 10.7012Z" fill="black"/>
<path d="M17.8256 12.8027H9.44922C9.28742 12.8027 9.15625 12.9352 9.15625 13.0986C9.15625 13.262 9.28742 13.3944 9.44922 13.3944H17.8256C17.9874 13.3944 18.1186 13.262 18.1186 13.0986C18.1186 12.9352 17.9874 12.8027 17.8256 12.8027Z" fill="black"/>
</svg>
