<svg width="60" height="60" viewBox="0 0 60 60" fill="none" xmlns="http://www.w3.org/2000/svg">
<path d="M50.625 31.875H54.375H56.25C57.2812 31.875 58.125 32.7188 58.125 33.75V35.625C58.125 36.6562 57.2812 37.5 56.25 37.5H54.375H50.625H46.875H43.125H39.375V31.875H43.125H46.875H50.625Z" fill="#FFC729"/>
<path d="M50.625 43.125H54.375H56.25C57.2812 43.125 58.125 43.9688 58.125 45V46.875C58.125 47.9062 57.2812 48.75 56.25 48.75H54.375H50.625H46.875H43.125H39.375V43.125H43.125H46.875H50.625Z" fill="#FFC729"/>
<path d="M50.625 48.75H54.375H56.25C57.2812 48.75 58.125 49.5937 58.125 50.625V52.5C58.125 53.5312 57.2812 54.375 56.25 54.375H39.375L37.6875 54.3844C37.6313 54.375 37.5656 54.375 37.5 54.375C38.5312 54.375 39.375 53.5312 39.375 52.5C39.375 51.9844 39.1687 51.5156 38.8219 51.1781C38.4844 50.8312 38.0156 50.625 37.5 50.625C38.5312 50.625 39.375 49.7812 39.375 48.75H43.125H46.875H50.625Z" fill="#FCD770"/>
<path d="M50.625 37.5H54.375H56.25C57.2812 37.5 58.125 38.3438 58.125 39.375V41.25C58.125 42.2812 57.2812 43.125 56.25 43.125H54.375H50.625H46.875H43.125H39.375V37.5H43.125H46.875H50.625Z" fill="#FCD770"/>
<path d="M50.625 26.25H54.375H56.25C57.2812 26.25 58.125 27.0938 58.125 28.125V30C58.125 31.0312 57.2812 31.875 56.25 31.875H54.375H50.625H46.875H43.125H39.375V26.25H43.125H46.875H48.75H50.625Z" fill="#FCD770"/>
<path d="M9.37498 50.625H30.9375H37.5C38.0156 50.625 38.4844 50.8313 38.8219 51.1781C39.1687 51.5156 39.375 51.9844 39.375 52.5C39.375 53.5312 38.5312 54.375 37.5 54.375H30.9375H9.37498C9.37498 52.3031 7.69685 50.625 5.63435 50.625H9.37498Z" fill="#CCD1D9"/>
<path d="M37.6875 54.3844C38.6344 54.4781 39.375 55.2844 39.375 56.25C39.375 56.7656 39.1688 57.2344 38.8219 57.5719C38.4844 57.9187 38.0156 58.125 37.5 58.125H5.625C3.55312 58.125 1.875 56.4469 1.875 54.375C1.875 54.0844 1.9125 53.7938 1.97812 53.4938C2.2875 52.1344 3.38437 51.0375 4.74375 50.7281C5.04375 50.6625 5.33437 50.625 5.625 50.625H5.63438C7.69688 50.625 9.375 52.3031 9.375 54.375H30.9375H37.5C37.5656 54.375 37.6313 54.375 37.6875 54.3844Z" fill="#E6E9ED"/>
<path d="M9.375 11.25V50.625H5.63438H5.625C5.33437 50.625 5.04375 50.6625 4.74375 50.7281C3.38437 51.0375 2.2875 52.1344 1.97812 53.4938C1.9125 53.7938 1.875 54.0844 1.875 54.375V15C1.875 12.9281 3.55312 11.25 5.625 11.25H9.375Z" fill="#CF9E76"/>
<path d="M35.625 11.25H9.375V50.625H30.9375H37.5C38.5312 50.625 39.375 49.7812 39.375 48.75V43.125V37.5V31.875V26.25V18.75V15C39.375 12.9281 37.6969 11.25 35.625 11.25Z" fill="#DFB28B"/>
<path d="M20.625 18.75V22.5L16.875 20.625L13.125 22.5V11.25H20.625V18.75Z" fill="#E6E9ED"/>
<path d="M24.375 45C29.5527 45 33.75 40.8027 33.75 35.625C33.75 30.4473 29.5527 26.25 24.375 26.25C19.1973 26.25 15 30.4473 15 35.625C15 40.8027 19.1973 45 24.375 45Z" fill="#FCD770"/>
<path d="M48.75 9.375H43.125C38.9812 9.375 35.625 6.01875 35.625 1.875H41.25C45.3938 1.875 48.75 5.23125 48.75 9.375Z" fill="#A0D468"/>
<path d="M54.375 11.25H58.125C58.125 12.8062 57.4969 14.2125 56.475 15.225C55.4625 16.2469 54.0563 16.875 52.5 16.875H48.75C48.75 15.3187 49.3781 13.9125 50.4 12.9C51.4125 11.8781 52.8187 11.25 54.375 11.25Z" fill="#A0D468"/>
<path d="M54.375 1.875H58.125C58.125 3.43125 57.4969 4.8375 56.475 5.85C55.4625 6.87187 54.0563 7.5 52.5 7.5H48.75C48.75 5.94375 49.3781 4.5375 50.4 3.525C51.4125 2.50312 52.8187 1.875 54.375 1.875Z" fill="#B4DD7F"/>
<path d="M48.75 20.625H45C41.8969 20.625 39.375 18.1031 39.375 15H43.125C46.2281 15 48.75 17.5219 48.75 20.625Z" fill="#B4DD7F"/>
<path d="M24.375 45.9375C18.6891 45.9375 14.0625 41.3109 14.0625 35.625C14.0625 29.9391 18.6891 25.3125 24.375 25.3125C30.0609 25.3125 34.6875 29.9391 34.6875 35.625C34.6875 41.3109 30.0609 45.9375 24.375 45.9375ZM24.375 27.1875C19.7231 27.1875 15.9375 30.9722 15.9375 35.625C15.9375 40.2778 19.7231 44.0625 24.375 44.0625C29.0269 44.0625 32.8125 40.2778 32.8125 35.625C32.8125 30.9722 29.0269 27.1875 24.375 27.1875Z" fill="black"/>
<path d="M37.5 59.0625H5.62504C4.19066 59.0625 2.85379 58.4184 1.95848 57.2953C1.06317 56.1722 0.735978 54.7097 1.06129 53.2828C1.45316 51.5662 2.81629 50.204 4.53285 49.8122C5.95973 49.484 7.42316 49.8131 8.54629 50.7084C9.4191 51.405 10.0032 52.3678 10.2188 53.4375H37.5C39.0507 53.4375 40.3125 54.6994 40.3125 56.25C40.3125 57.8006 39.0507 59.0625 37.5 59.0625ZM5.63066 51.5615C5.40754 51.5615 5.17973 51.5869 4.95004 51.6394C3.94691 51.869 3.11816 52.6969 2.88941 53.7C2.68879 54.5794 2.87816 55.4419 3.42379 56.1262C3.96191 56.8012 4.76441 57.1875 5.62504 57.1875H37.5C38.0166 57.1875 38.4375 56.7675 38.4375 56.25C38.4375 55.7325 38.0166 55.3125 37.5 55.3125H8.43754V54.375C8.43754 53.5144 8.05035 52.7119 7.37723 52.1737C6.87098 51.7706 6.26723 51.5615 5.63066 51.5615Z" fill="black"/>
<path d="M37.5 55.3125H30.9375V53.4375H37.5C38.0166 53.4375 38.4375 53.0175 38.4375 52.5C38.4375 51.9825 38.0166 51.5625 37.5 51.5625H30.9375V49.6875H37.5C39.0506 49.6875 40.3125 50.9494 40.3125 52.5C40.3125 54.0506 39.0506 55.3125 37.5 55.3125Z" fill="black"/>
<path d="M8.4375 11.25H10.3125V50.625H8.4375V11.25Z" fill="black"/>
<path d="M21.5625 24.0169L16.875 21.6731L12.1875 24.0169V11.25H14.0625V20.9831L16.875 19.5769L19.6875 20.9831V11.25H21.5625V24.0169Z" fill="black"/>
<path d="M23.4375 14.0625H36.5625V15.9375H23.4375V14.0625Z" fill="black"/>
<path d="M23.4375 17.8125H36.5625V19.6875H23.4375V17.8125Z" fill="black"/>
<path d="M23.4375 21.5625H36.5625V23.4375H23.4375V21.5625Z" fill="black"/>
<path d="M56.25 38.4375H39.375V36.5625H56.25C56.7666 36.5625 57.1875 36.1425 57.1875 35.625V33.75C57.1875 33.2325 56.7666 32.8125 56.25 32.8125H39.375V30.9375H56.25C57.8006 30.9375 59.0625 32.1994 59.0625 33.75V35.625C59.0625 37.1756 57.8006 38.4375 56.25 38.4375Z" fill="black"/>
<path d="M53.4375 31.875H55.3125V34.6875H53.4375V31.875Z" fill="black"/>
<path d="M49.6875 31.875H51.5625V34.6875H49.6875V31.875Z" fill="black"/>
<path d="M45.9375 31.875H47.8125V34.6875H45.9375V31.875Z" fill="black"/>
<path d="M42.1875 31.875H44.0625V34.6875H42.1875V31.875Z" fill="black"/>
<path d="M56.25 44.0625H39.375V42.1875H56.25C56.7666 42.1875 57.1875 41.7675 57.1875 41.25V39.375C57.1875 38.8575 56.7666 38.4375 56.25 38.4375H39.375V36.5625H56.25C57.8006 36.5625 59.0625 37.8244 59.0625 39.375V41.25C59.0625 42.8006 57.8006 44.0625 56.25 44.0625Z" fill="black"/>
<path d="M53.4375 37.5H55.3125V40.3125H53.4375V37.5Z" fill="black"/>
<path d="M49.6875 37.5H51.5625V40.3125H49.6875V37.5Z" fill="black"/>
<path d="M45.9375 37.5H47.8125V40.3125H45.9375V37.5Z" fill="black"/>
<path d="M42.1875 37.5H44.0625V40.3125H42.1875V37.5Z" fill="black"/>
<path d="M56.25 49.6875H39.375V47.8125H56.25C56.7666 47.8125 57.1875 47.3925 57.1875 46.875V45C57.1875 44.4825 56.7666 44.0625 56.25 44.0625H39.375V42.1875H56.25C57.8006 42.1875 59.0625 43.4494 59.0625 45V46.875C59.0625 48.4256 57.8006 49.6875 56.25 49.6875Z" fill="black"/>
<path d="M53.4375 43.125H55.3125V45.9375H53.4375V43.125Z" fill="black"/>
<path d="M49.6875 43.125H51.5625V45.9375H49.6875V43.125Z" fill="black"/>
<path d="M45.9375 43.125H47.8125V45.9375H45.9375V43.125Z" fill="black"/>
<path d="M42.1875 43.125H44.0625V45.9375H42.1875V43.125Z" fill="black"/>
<path d="M56.25 55.3125H39.375V53.4375H56.25C56.7666 53.4375 57.1875 53.0175 57.1875 52.5V50.625C57.1875 50.1075 56.7666 49.6875 56.25 49.6875H39.375V47.8125H56.25C57.8006 47.8125 59.0625 49.0744 59.0625 50.625V52.5C59.0625 54.0506 57.8006 55.3125 56.25 55.3125Z" fill="black"/>
<path d="M2.8125 54.375H0.9375V15C0.9375 12.4153 3.04031 10.3125 5.625 10.3125H35.625C38.2097 10.3125 40.3125 12.4153 40.3125 15V48.75C40.3125 50.3006 39.0506 51.5625 37.5 51.5625H5.625V49.6875H37.5C38.0166 49.6875 38.4375 49.2675 38.4375 48.75V15C38.4375 13.4494 37.1756 12.1875 35.625 12.1875H5.625C4.07437 12.1875 2.8125 13.4494 2.8125 15V54.375Z" fill="black"/>
<path d="M53.4375 48.75H55.3125V51.5625H53.4375V48.75Z" fill="black"/>
<path d="M49.6875 48.75H51.5625V51.5625H49.6875V48.75Z" fill="black"/>
<path d="M45.9375 48.75H47.8125V51.5625H45.9375V48.75Z" fill="black"/>
<path d="M42.1875 48.75H44.0625V51.5625H42.1875V48.75Z" fill="black"/>
<path d="M56.25 32.8125H39.375V30.9375H56.25C56.7666 30.9375 57.1875 30.5175 57.1875 30V28.125C57.1875 27.6075 56.7666 27.1875 56.25 27.1875H39.375V25.3125H56.25C57.8006 25.3125 59.0625 26.5744 59.0625 28.125V30C59.0625 31.5506 57.8006 32.8125 56.25 32.8125Z" fill="black"/>
<path d="M53.4375 26.25H55.3125V29.0625H53.4375V26.25Z" fill="black"/>
<path d="M49.6875 26.25H51.5625V29.0625H49.6875V26.25Z" fill="black"/>
<path d="M45.9375 26.25H47.8125V29.0625H45.9375V26.25Z" fill="black"/>
<path d="M42.1875 26.25H44.0625V29.0625H42.1875V26.25Z" fill="black"/>
<path d="M52.5 8.4375H47.8125V7.5C47.8125 3.88219 50.7563 0.9375 54.375 0.9375H59.0625V1.875C59.0625 5.49281 56.1187 8.4375 52.5 8.4375ZM49.7822 6.5625H52.5C54.7641 6.5625 56.6578 4.94906 57.0928 2.8125H54.375C52.1109 2.8125 50.2172 4.42594 49.7822 6.5625Z" fill="black"/>
<path d="M52.5 17.8125H47.8125V16.875C47.8125 13.2572 50.7563 10.3125 54.375 10.3125H59.0625V11.25C59.0625 14.8678 56.1187 17.8125 52.5 17.8125ZM49.7822 15.9375H52.5C54.7641 15.9375 56.6578 14.3241 57.0928 12.1875H54.375C52.1109 12.1875 50.2172 13.8009 49.7822 15.9375Z" fill="black"/>
<path d="M47.8125 7.5H49.6875V26.25H47.8125V7.5Z" fill="black"/>
<path d="M49.6875 21.5625H45C41.3813 21.5625 38.4375 18.6178 38.4375 15V14.0625H43.125C46.7437 14.0625 49.6875 17.0072 49.6875 20.625V21.5625ZM40.4072 15.9375C40.8422 18.0741 42.7369 19.6875 45 19.6875H47.7178C47.2828 17.5509 45.3881 15.9375 43.125 15.9375H40.4072Z" fill="black"/>
<path d="M49.6875 10.3125H43.125C38.4731 10.3125 34.6875 6.52781 34.6875 1.875V0.9375H41.25C45.9019 0.9375 49.6875 4.72219 49.6875 9.375V10.3125ZM36.6291 2.8125C37.0856 5.98875 39.8241 8.4375 43.125 8.4375H47.7459C47.2894 5.26125 44.5509 2.8125 41.25 2.8125H36.6291Z" fill="black"/>
<path d="M25.5254 30.5918H23.4512C23.8262 31.0664 24.0635 31.6465 24.1631 32.332H25.9297L25.5254 33.7207H24.1895C24.084 34.7637 23.6709 35.5488 22.9502 36.0762C22.2295 36.6035 21.2275 36.8672 19.9443 36.8672L24.2773 41.8945V42H22.2822L17.624 36.5771L17.6152 35.4785H19.8037C20.5361 35.4727 21.1309 35.3145 21.5879 35.0039C22.0449 34.6875 22.335 34.2598 22.458 33.7207H17.3691L17.7734 32.332H22.4404C22.1592 31.2188 21.2979 30.6387 19.8564 30.5918H17.3867L17.7998 29.2031H25.9297L25.5254 30.5918Z" fill="black"/>
</svg>
