<svg width="60" height="60" viewBox="0 0 60 60" fill="none" xmlns="http://www.w3.org/2000/svg">
<path d="M19.6875 25.3125V32.7469C18.2344 32.1844 16.65 31.875 15 31.875C13.35 31.875 11.7656 32.1844 10.3125 32.7469V25.3125C10.3125 24.0188 10.8375 22.8469 11.6813 21.9937C12.5344 21.15 13.7062 20.625 15 20.625C17.5875 20.625 19.6875 22.725 19.6875 25.3125Z" fill="#E6E9ED"/>
<path d="M50.625 13.125V16.2469L46.875 16.875L50.1562 20.1562L39.375 30.9375L33.75 25.3125L23.7937 35.2687C23.6812 35.1562 23.5594 35.0531 23.4375 34.95V25.3125C23.4375 20.6531 19.6594 16.875 15 16.875C12.8438 16.875 10.8656 17.6906 9.375 19.0219V13.125H50.625Z" fill="#E6E9ED"/>
<path d="M50.625 3.75V13.125H9.375V3.75C9.375 2.71875 10.2188 1.875 11.25 1.875H48.75C49.7812 1.875 50.625 2.71875 50.625 3.75Z" fill="#B4DD7F"/>
<path d="M28.125 5.625H31.875V9.375H28.125V5.625Z" fill="#E6E9ED"/>
<path d="M20.625 5.625H24.375V9.375H20.625V5.625Z" fill="#E6E9ED"/>
<path d="M13.125 5.625H16.875V9.375H13.125V5.625Z" fill="#E6E9ED"/>
<path d="M23.4375 25.3125V34.95C22.3313 34.0219 21.0656 33.2625 19.6875 32.7469V25.3125C19.6875 22.725 17.5875 20.625 15 20.625C13.7063 20.625 12.5344 21.15 11.6813 21.9937C10.8375 22.8469 10.3125 24.0187 10.3125 25.3125V32.7469C8.93438 33.2625 7.66875 34.0219 6.5625 34.95V25.3125C6.5625 22.9875 7.50938 20.8687 9.0375 19.35C9.15 19.2375 9.2625 19.1344 9.375 19.0219C10.8656 17.6906 12.8438 16.875 15 16.875C19.6594 16.875 23.4375 20.6531 23.4375 25.3125Z" fill="#969FAA"/>
<path d="M26.325 38.3625C27.4688 40.3125 28.125 42.5813 28.125 45C28.125 48.675 26.6156 51.9937 24.1781 54.375C21.8063 56.6906 18.5719 58.125 15 58.125C7.75313 58.125 1.875 52.2469 1.875 45C1.875 40.9688 3.69375 37.3594 6.5625 34.95C7.66875 34.0219 8.93437 33.2625 10.3125 32.7469C11.7656 32.1844 13.35 31.875 15 31.875C16.65 31.875 18.2344 32.1844 19.6875 32.7469C21.0656 33.2625 22.3312 34.0219 23.4375 34.95C23.5594 35.0531 23.6812 35.1562 23.7937 35.2687C24.7875 36.1594 25.6406 37.2 26.325 38.3625Z" fill="#FFC729"/>
<path d="M15 54.375C20.1777 54.375 24.375 50.1777 24.375 45C24.375 39.8223 20.1777 35.625 15 35.625C9.82233 35.625 5.625 39.8223 5.625 45C5.625 50.1777 9.82233 54.375 15 54.375Z" fill="#FCD770"/>
<path d="M39.375 36.5625L33.75 30.9375L26.325 38.3625C27.4687 40.3125 28.125 42.5812 28.125 45C28.125 48.675 26.6156 51.9937 24.1781 54.375H48.75C49.7812 54.375 50.625 53.5312 50.625 52.5V25.3125L39.375 36.5625Z" fill="#FF826E"/>
<path d="M58.125 15L56.25 26.25L52.9688 22.9688L50.625 25.3125L46.875 29.0625L43.125 32.8125L39.375 36.5625L35.625 32.8125L33.75 30.9375L31.875 32.8125L26.325 38.3625C25.6406 37.2 24.7875 36.1594 23.7938 35.2688L33.75 25.3125L39.375 30.9375L50.1563 20.1563L46.875 16.875L50.625 16.2469L58.125 15Z" fill="#FFEAA7"/>
<path d="M18.5254 40.5918H16.4512C16.8262 41.0664 17.0635 41.6465 17.1631 42.332H18.9297L18.5254 43.7207H17.1895C17.084 44.7637 16.6709 45.5488 15.9502 46.0762C15.2295 46.6035 14.2275 46.8672 12.9443 46.8672L17.2773 51.8945V52H15.2822L10.624 46.5771L10.6152 45.4785H12.8037C13.5361 45.4727 14.1309 45.3145 14.5879 45.0039C15.0449 44.6875 15.335 44.2598 15.458 43.7207H10.3691L10.7734 42.332H15.4404C15.1592 41.2188 14.2979 40.6387 12.8564 40.5918H10.3867L10.7998 39.2031H18.9297L18.5254 40.5918Z" fill="black"/>
<path d="M15 34.6875C9.31406 34.6875 4.6875 39.3141 4.6875 45C4.6875 50.6859 9.31406 55.3125 15 55.3125C20.6859 55.3125 25.3125 50.6859 25.3125 45C25.3125 39.3141 20.6859 34.6875 15 34.6875ZM15 53.4375C10.3472 53.4375 6.5625 49.6528 6.5625 45C6.5625 40.3472 10.3472 36.5625 15 36.5625C19.6528 36.5625 23.4375 40.3472 23.4375 45C23.4375 49.6528 19.6528 53.4375 15 53.4375Z" fill="black"/>
<path d="M51.5625 15.1434V3.75C51.5625 2.19937 50.3006 0.9375 48.75 0.9375H11.25C9.69937 0.9375 8.4375 2.19937 8.4375 3.75V18.6291C6.70406 20.3316 5.625 22.6969 5.625 25.3125V34.5478C2.75531 37.1241 0.9375 40.8488 0.9375 45C0.9375 52.7541 7.24594 59.0625 15 59.0625C18.6778 59.0625 22.02 57.6319 24.5287 55.3125H48.75C50.3006 55.3125 51.5625 54.0506 51.5625 52.5V25.7006L52.9687 24.2944L56.8753 28.2009L59.2659 13.8591L51.5625 15.1434ZM11.25 2.8125H48.75C49.2675 2.8125 49.6875 3.2325 49.6875 3.75V12.1875H10.3125V3.75C10.3125 3.2325 10.7325 2.8125 11.25 2.8125ZM10.3125 14.0625H49.6875V15.4556L44.9241 16.2497L48.8306 20.1562L39.375 29.6119L33.75 23.9869L24.375 33.3619V25.3125C24.375 20.1431 20.1694 15.9375 15 15.9375C13.2919 15.9375 11.6934 16.4044 10.3125 17.2059V14.0625ZM7.5 25.3125C7.5 21.1772 10.8647 17.8125 15 17.8125C19.1353 17.8125 22.5 21.1772 22.5 25.3125V33.1247C21.9028 32.7459 21.2784 32.4056 20.625 32.1197V25.3125C20.625 22.2103 18.1022 19.6875 15 19.6875C11.8978 19.6875 9.375 22.2103 9.375 25.3125V32.1197C8.72156 32.4066 8.09719 32.7459 7.5 33.1247V25.3125ZM18.75 31.4606C17.5537 31.1287 16.3003 30.9375 15 30.9375C13.6997 30.9375 12.4462 31.1287 11.25 31.4606V25.3125C11.25 23.2444 12.9319 21.5625 15 21.5625C17.0681 21.5625 18.75 23.2444 18.75 25.3125V31.4606ZM15 57.1875C8.28 57.1875 2.8125 51.72 2.8125 45C2.8125 38.28 8.28 32.8125 15 32.8125C21.72 32.8125 27.1875 38.28 27.1875 45C27.1875 51.72 21.72 57.1875 15 57.1875ZM45.9375 31.3256V53.4375H44.0625V33.2006L45.9375 31.3256ZM42.1875 53.4375H40.3125V36.9506L42.1875 35.0756V53.4375ZM38.4375 53.4375H36.5625V35.0756L38.4375 36.9506V53.4375ZM34.6875 53.4375H32.8125V33.2006L33.75 32.2631L34.6875 33.2006V53.4375ZM30.9375 53.4375H26.2237C27.9975 51.0844 29.0625 48.1678 29.0625 45C29.0625 42.6694 28.4841 40.4747 27.4762 38.5369L30.9375 35.0756V53.4375ZM49.6875 52.5C49.6875 53.0175 49.2675 53.4375 48.75 53.4375H47.8125V29.4506L49.6875 27.5756V52.5ZM55.6247 24.2991L52.9687 21.6431L39.375 35.2369L33.75 29.6119L26.4703 36.8916C26.0616 36.3159 25.6125 35.7713 25.1241 35.2641L33.75 26.6381L39.375 32.2631L51.4819 20.1562L48.8259 17.5003L56.9841 16.1409L55.6247 24.2991Z" fill="black"/>
<path d="M17.8125 4.6875H12.1875V10.3125H17.8125V4.6875ZM15.9375 8.4375H14.0625V6.5625H15.9375V8.4375Z" fill="black"/>
<path d="M25.3125 4.6875H19.6875V10.3125H25.3125V4.6875ZM23.4375 8.4375H21.5625V6.5625H23.4375V8.4375Z" fill="black"/>
<path d="M32.8125 4.6875H27.1875V10.3125H32.8125V4.6875ZM30.9375 8.4375H29.0625V6.5625H30.9375V8.4375Z" fill="black"/>
<path d="M26.25 15.9375H37.5V17.8125H26.25V15.9375Z" fill="black"/>
<path d="M26.25 19.6875H37.5V21.5625H26.25V19.6875Z" fill="black"/>
</svg>
