<svg fill="none" height="60" viewBox="0 0 60 60" width="60" xmlns="http://www.w3.org/2000/svg">
  <path d="M3.75 13.125H48.75V41.25H3.75V13.125Z" fill="#E6E9ED"/>
  <path d="M32.3438 48.75L33.5906 52.5H28.125H22.5H17.0344L18.2813 48.75H22.5H28.125H32.3438Z" fill="#B27946"/>
  <path
    d="M35.775 41.25L40.1625 54.4219C40.4062 55.1344 40.35 55.9031 40.0125 56.5688C39.675 57.2438 39.1031 57.7406 38.3812 57.9844C38.1 58.0781 37.8 58.125 37.5 58.125C36.2906 58.125 35.2125 57.3563 34.8281 56.2031L33.6 52.5H33.5906L32.3438 48.75L29.85 41.25H31.875H35.625H35.775Z"
    fill="#CF9E76"/>
  <path
    d="M20.625 41.25H20.775L18.2812 48.75L17.0344 52.5H17.025L15.7969 56.2031C15.4125 57.3563 14.3344 58.125 13.125 58.125C12.825 58.125 12.525 58.0781 12.2437 57.9844C11.5219 57.7406 10.95 57.2438 10.6125 56.5688C10.275 55.9031 10.2188 55.1344 10.4625 54.4219L14.85 41.25H16.875H20.625Z"
    fill="#CF9E76"/>
  <path
    d="M28.125 52.5V55.3125C28.125 56.8688 26.8688 58.125 25.3125 58.125C24.5344 58.125 23.8312 57.8062 23.325 57.3C22.8187 56.7937 22.5 56.0906 22.5 55.3125V52.5H28.125Z"
    fill="#CF9E76"/>
  <path d="M24.375 41.25H28.125V48.75H22.5V41.25H24.375Z" fill="#CF9E76"/>
  <path
    d="M45 13.125H3.75H2.8125C2.29688 13.125 1.875 12.7031 1.875 12.1875V10.3125C1.875 9.79688 2.29688 9.375 2.8125 9.375H39.7031C40.4625 11.5594 42.5531 13.125 45 13.125Z"
    fill="#CCD1D9"/>
  <path d="M33.75 27.1875L28.125 21.5625L13.125 36.5625V41.25H35.625V25.3125L33.75 27.1875Z" fill="#FF826E"/>
  <path
    d="M39.375 7.5H43.125C46.2281 7.5 48.75 10.0219 48.75 13.125H46.875H45C42.5531 13.125 40.4625 11.5594 39.7031 9.375C39.4875 8.78437 39.375 8.15625 39.375 7.5Z"
    fill="#A0D468"/>
  <path
    d="M54.375 11.25H58.125C58.125 14.3531 55.6031 16.875 52.5 16.875H48.75C48.75 13.7719 51.2719 11.25 54.375 11.25Z"
    fill="#A0D468"/>
  <path d="M54.375 1.875H58.125C58.125 4.97812 55.6031 7.5 52.5 7.5H48.75C48.75 4.39688 51.2719 1.875 54.375 1.875Z"
        fill="#B4DD7F"/>
  <path
    d="M48.75 22.5H45C43.2094 22.5 41.6063 21.6562 40.5844 20.3531C39.825 19.3969 39.375 18.1875 39.375 16.875H43.125C46.2281 16.875 48.75 19.3969 48.75 22.5Z"
    fill="#B4DD7F"/>
  <path
    d="M41.2594 41.25C40.0781 39.6844 39.375 37.7344 39.375 35.625C39.375 30.45 43.575 26.25 48.75 26.25C53.925 26.25 58.125 30.45 58.125 35.625C58.125 40.8 53.925 45 48.75 45C45.6844 45 42.9656 43.5281 41.2594 41.25Z"
    fill="#FCD770"/>
  <path
    d="M52.5 8.4375C56.1188 8.4375 59.0625 5.49281 59.0625 1.875V0.9375H54.375C50.7562 0.9375 47.8125 3.88219 47.8125 7.5V8.04469V8.4375V8.54156C46.62 7.32188 44.9606 6.5625 43.125 6.5625H38.4375V7.5C38.4375 7.81875 38.4684 8.13 38.5125 8.4375H2.8125C1.77844 8.4375 0.9375 9.27844 0.9375 10.3125V12.1875C0.9375 13.2216 1.77844 14.0625 2.8125 14.0625V42.1875H13.5487L9.56906 54.1266C9.25219 55.0781 9.32531 56.0962 9.77344 56.9916C10.2216 57.8869 10.9922 58.5544 11.9428 58.8713C12.3253 58.9988 12.7238 59.0625 13.1259 59.0625C14.7422 59.0625 16.1719 58.0322 16.6837 56.4994L17.7047 53.4375H21.5625V55.3125C21.5625 57.3806 23.2444 59.0625 25.3125 59.0625C27.3806 59.0625 29.0625 57.3806 29.0625 55.3125V53.4375H32.9203L33.9412 56.4994C34.4531 58.0322 35.8819 59.0625 37.4991 59.0625C37.9022 59.0625 38.2997 58.9988 38.6822 58.8713C39.6338 58.5544 40.4044 57.8869 40.8525 56.9916C41.3016 56.0962 41.3737 55.0781 41.0569 54.1256L37.0763 42.1875H40.8009C42.6937 44.4759 45.5541 45.9375 48.75 45.9375C54.4359 45.9375 59.0625 41.3109 59.0625 35.625C59.0625 30.255 54.9356 25.8356 49.6875 25.3603V23.4375V22.5V17.8125H52.5C56.1188 17.8125 59.0625 14.8678 59.0625 11.25V10.3125H54.375C52.5394 10.3125 50.88 11.0719 49.6875 12.2916V8.4375H52.5ZM54.375 2.8125H57.0928C56.6578 4.94906 54.7641 6.5625 52.5 6.5625H49.7822C50.2172 4.42594 52.1109 2.8125 54.375 2.8125ZM54.375 12.1875H57.0928C56.6578 14.3241 54.7631 15.9375 52.5 15.9375H49.7822C50.2172 13.8009 52.1109 12.1875 54.375 12.1875ZM43.125 8.4375C45.3891 8.4375 47.2828 10.0509 47.7178 12.1875H46.875H45C42.7359 12.1875 40.8422 10.5741 40.4072 8.4375H43.125ZM2.8125 10.3125H39.0797C39.4144 11.0147 39.8662 11.6494 40.4156 12.1875H2.8125V10.3125ZM32.8125 40.3125V27.5756L33.75 28.5131L34.6875 27.5756V40.3125H32.8125ZM21.5625 42.1875V47.8125H19.5797L21.4547 42.1875H21.5625ZM23.4375 42.1875H27.1875V47.8125H23.4375V42.1875ZM29.0625 42.1875H29.1703L31.0453 47.8125H29.0625V42.1875ZM30.9375 40.3125H29.0625V23.8256L30.9375 25.7006V40.3125ZM27.1875 40.3125H25.3125V25.7006L27.1875 23.8256V40.3125ZM23.4375 40.3125H21.5625V29.4506L23.4375 27.5756V40.3125ZM19.6875 40.3125H17.8125V33.2006L19.6875 31.3256V40.3125ZM15.9375 40.3125H14.0625V36.9506L15.9375 35.0756V40.3125ZM14.9053 55.9059C14.5866 56.8631 13.4953 57.4134 12.5353 57.0919C12.06 56.9334 11.6747 56.6006 11.4497 56.1534C11.2256 55.7044 11.1891 55.1963 11.3475 54.72L15.525 42.1875H19.4775L14.9053 55.9059ZM27.1875 55.3125C27.1875 56.3466 26.3466 57.1875 25.3125 57.1875C24.2784 57.1875 23.4375 56.3466 23.4375 55.3125V53.4375H27.1875V55.3125ZM18.33 51.5625L18.9553 49.6875H31.6706L32.2959 51.5625H18.33ZM39.2775 54.7181C39.4359 55.1953 39.3994 55.7044 39.1753 56.1525C38.9512 56.5997 38.5659 56.9325 38.0897 57.0909C37.1325 57.4125 36.0384 56.8622 35.7197 55.905L31.1466 42.1875H35.0991L39.2775 54.7181ZM57.1875 35.625C57.1875 40.2778 53.4019 44.0625 48.75 44.0625C44.0981 44.0625 40.3125 40.2778 40.3125 35.625C40.3125 30.9722 44.0981 27.1875 48.75 27.1875C53.4019 27.1875 57.1875 30.9722 57.1875 35.625ZM47.8125 25.3603C42.5644 25.8356 38.4375 30.255 38.4375 35.625C38.4375 37.3134 38.8538 38.9044 39.5756 40.3125H36.5625V25.7006L40.5656 21.6975C41.7347 22.7737 43.2891 23.4375 45 23.4375H47.8125V25.3603ZM40.4072 17.8125H43.125C45.3891 17.8125 47.2828 19.4259 47.7178 21.5625H45C42.7359 21.5625 40.8422 19.9491 40.4072 17.8125ZM47.8125 17.9166C46.62 16.6969 44.9606 15.9375 43.125 15.9375H38.4375V16.875C38.4375 18.105 38.7834 19.2525 39.375 20.2369L33.75 25.8619L28.125 20.2369L12.1875 36.1744V40.3125H4.6875V14.0625H45H46.875H47.8125V16.875V17.8125V17.9166Z"
    fill="black"/>
  <path d="M6.5625 15.9375H17.8125V17.8125H6.5625V15.9375Z" fill="black"/>
  <path d="M6.5625 19.6875H17.8125V21.5625H6.5625V19.6875Z" fill="black"/>
  <path d="M6.5625 23.4375H17.8125V25.3125H6.5625V23.4375Z" fill="black"/>
  <path d="M6.5625 27.1875H17.8125V29.0625H6.5625V27.1875Z" fill="black"/>
  <path
    d="M52.5254 30.5918H50.4512C50.8262 31.0664 51.0635 31.6465 51.1631 32.332H52.9297L52.5254 33.7207H51.1895C51.084 34.7637 50.6709 35.5488 49.9502 36.0762C49.2295 36.6035 48.2275 36.8672 46.9443 36.8672L51.2773 41.8945V42H49.2822L44.624 36.5771L44.6152 35.4785H46.8037C47.5361 35.4727 48.1309 35.3145 48.5879 35.0039C49.0449 34.6875 49.335 34.2598 49.458 33.7207H44.3691L44.7734 32.332H49.4404C49.1592 31.2188 48.2979 30.6387 46.8564 30.5918H44.3867L44.7998 29.2031H52.9297L52.5254 30.5918Z"
    fill="black"/>
</svg>
