<svg width="60" height="60" viewBox="0 0 60 60" fill="none" xmlns="http://www.w3.org/2000/svg">
<path d="M13.125 46.875V56.25L10.3125 53.4375L5.625 58.125L1.875 54.375L6.5625 49.6875L3.75 46.875H13.125Z" fill="#FFEAA7"/>
<path d="M13.125 3.75V13.125H3.75L6.5625 10.3125L1.875 5.625L5.625 1.875L10.3125 6.5625L13.125 3.75Z" fill="#FFEAA7"/>
<path d="M58.125 5.625L53.4375 10.3125L56.25 13.125H46.875V3.75L49.6875 6.5625L54.375 1.875L58.125 5.625Z" fill="#FFEAA7"/>
<path d="M58.125 54.375L54.375 58.125L49.6875 53.4375L46.875 56.25V46.875H56.25L53.4375 49.6875L58.125 54.375Z" fill="#FFEAA7"/>
<path d="M20.3156 4.59375C20.5125 4.89375 20.625 5.25 20.625 5.625C20.625 6.65625 19.7812 7.5 18.75 7.5C17.7188 7.5 16.875 6.65625 16.875 5.625C16.875 4.59375 17.7188 3.75 18.75 3.75C19.4062 3.75 19.9781 4.0875 20.3156 4.59375Z" fill="#FF826E"/>
<path d="M5.625 39.375C6.65625 39.375 7.5 40.2188 7.5 41.25C7.5 42.2812 6.65625 43.125 5.625 43.125C4.59375 43.125 3.75 42.2812 3.75 41.25C3.75 40.5938 4.0875 40.0219 4.59375 39.6844C4.89375 39.4875 5.25 39.375 5.625 39.375Z" fill="#FF826E"/>
<path d="M41.25 52.5C42.2812 52.5 43.125 53.3438 43.125 54.375C43.125 55.4062 42.2812 56.25 41.25 56.25C40.5938 56.25 40.0219 55.9125 39.6844 55.4062C39.4875 55.1062 39.375 54.75 39.375 54.375C39.375 53.3438 40.2188 52.5 41.25 52.5Z" fill="#FF826E"/>
<path d="M54.375 16.875C55.4062 16.875 56.25 17.7188 56.25 18.75C56.25 19.4062 55.9125 19.9781 55.4062 20.3156C55.1062 20.5125 54.75 20.625 54.375 20.625C53.3438 20.625 52.5 19.7812 52.5 18.75C52.5 17.7188 53.3438 16.875 54.375 16.875Z" fill="#FF826E"/>
<path d="M43.125 16.875V35.0719C43.125 37.7344 41.7094 40.2 39.4031 41.55L33.4969 44.9906C32.4375 45.6094 31.2281 45.9375 30 45.9375C28.7719 45.9375 27.5625 45.6094 26.5031 44.9906L20.5969 41.55C18.2906 40.2 16.875 37.7344 16.875 35.0719V16.875H21.5625L30 14.0625C30 14.0625 35.625 16.875 38.4375 16.875C41.25 16.875 43.125 16.875 43.125 16.875Z" fill="#CCD1D9"/>
<path d="M30 39.375C35.1777 39.375 39.375 35.1777 39.375 30C39.375 24.8223 35.1777 20.625 30 20.625C24.8223 20.625 20.625 24.8223 20.625 30C20.625 35.1777 24.8223 39.375 30 39.375Z" fill="#FCD770"/>
<path d="M30 19.6875C24.3141 19.6875 19.6875 24.3141 19.6875 30C19.6875 35.6859 24.3141 40.3125 30 40.3125C35.6859 40.3125 40.3125 35.6859 40.3125 30C40.3125 24.3141 35.6859 19.6875 30 19.6875ZM30 38.4375C25.3481 38.4375 21.5625 34.6528 21.5625 30C21.5625 25.3472 25.3481 21.5625 30 21.5625C34.6519 21.5625 38.4375 25.3472 38.4375 30C38.4375 34.6528 34.6519 38.4375 30 38.4375Z" fill="black"/>
<path d="M30.4191 13.2234L30 13.0144L29.5809 13.2244C28.0716 13.9781 23.6887 15.9375 21.5625 15.9375H15.9375V35.0672C15.9375 38.0559 17.5416 40.8497 20.1234 42.3553L26.0325 45.8016C27.2353 46.5037 28.6078 46.875 30 46.875C31.3922 46.875 32.7647 46.5037 33.9666 45.8025L39.8756 42.3553C42.4584 40.8497 44.0625 38.0569 44.0625 35.0672V15.9375H38.4375C36.3141 15.9375 31.9294 13.9781 30.4191 13.2234ZM42.1875 35.0672C42.1875 37.3922 40.9397 39.5644 38.9316 40.7353L33.0225 44.1834C31.1906 45.2513 28.8103 45.2522 26.9784 44.1825L21.0694 40.7353C19.0603 39.5644 17.8125 37.3931 17.8125 35.0672V17.8125H21.5625C24.1266 17.8125 28.605 15.7716 30 15.105C31.395 15.7716 35.8734 17.8125 38.4375 17.8125H42.1875V35.0672Z" fill="black"/>
<path d="M54.7631 10.3125L59.4506 5.625L54.375 0.549377L49.6875 5.23688L45.9375 1.48688V14.0625H58.5131L54.7631 10.3125ZM47.8125 12.1875V6.01313L49.6875 7.88813L54.375 3.20063L56.7994 5.625L52.1119 10.3125L53.9869 12.1875H47.8125Z" fill="black"/>
<path d="M5.62501 0.549377L0.549385 5.625L5.23689 10.3125L1.48689 14.0625H14.0625V1.48688L10.3125 5.23688L5.62501 0.549377ZM12.1875 12.1875H6.01314L7.88813 10.3125L3.20064 5.625L5.62501 3.20063L10.3125 7.88813L12.1875 6.01313V12.1875Z" fill="black"/>
<path d="M5.23689 49.6875L0.549385 54.375L5.62501 59.4507L10.3125 54.7632L14.0625 58.5132V45.9375H1.48689L5.23689 49.6875ZM12.1875 47.8125V53.9869L10.3125 52.1119L5.62501 56.7994L3.20064 54.375L7.88813 49.6875L6.01314 47.8125H12.1875Z" fill="black"/>
<path d="M58.5131 45.9375H45.9375V58.5132L49.6875 54.7632L54.375 59.4507L59.4506 54.375L54.7631 49.6875L58.5131 45.9375ZM56.7994 54.375L54.375 56.7994L49.6875 52.1119L47.8125 53.9869V47.8125H53.9869L52.1119 49.6875L56.7994 54.375Z" fill="black"/>
<path d="M52.4738 43.5722L54.0769 44.5444C54.4566 43.9181 54.8175 43.2666 55.1475 42.6084L53.4722 41.7666C53.1638 42.3806 52.8281 42.9881 52.4738 43.5722Z" fill="black"/>
<path d="M58.125 30C58.125 26.76 57.5738 23.5931 56.4985 20.5734C56.9222 20.0813 57.1875 19.4494 57.1875 18.75C57.1875 17.1994 55.9256 15.9375 54.375 15.9375C52.8244 15.9375 51.5625 17.1994 51.5625 18.75C51.5625 20.3006 52.8244 21.5625 54.375 21.5625C54.5353 21.5625 54.691 21.5409 54.8438 21.5147C55.7747 24.2381 56.25 27.0872 56.25 30C56.25 33.4866 55.5778 36.8719 54.2522 40.0622L55.9838 40.7822C57.4041 37.3622 58.125 33.7341 58.125 30ZM53.4375 18.75C53.4375 18.2325 53.8585 17.8125 54.375 17.8125C54.8916 17.8125 55.3125 18.2325 55.3125 18.75C55.3125 19.2675 54.8916 19.6875 54.375 19.6875C53.8585 19.6875 53.4375 19.2675 53.4375 18.75Z" fill="black"/>
<path d="M41.7647 6.52781C42.3788 6.83625 42.9872 7.17281 43.5731 7.52625L44.5435 5.92219C43.9163 5.5425 43.2647 5.1825 42.6085 4.85156L41.7647 6.52781Z" fill="black"/>
<path d="M18.75 8.4375C20.3006 8.4375 21.5625 7.17562 21.5625 5.625C21.5625 5.46469 21.5409 5.31 21.5156 5.15625C24.2391 4.22531 27.0881 3.75 30 3.75C33.4856 3.75 36.8719 4.42219 40.0631 5.74781L40.7822 4.01531C37.3622 2.59594 33.7341 1.875 30 1.875C26.7609 1.875 23.5941 2.42719 20.5734 3.50156C20.0813 3.07781 19.4494 2.8125 18.75 2.8125C17.1994 2.8125 15.9375 4.07437 15.9375 5.625C15.9375 7.17562 17.1994 8.4375 18.75 8.4375ZM18.75 4.6875C19.2666 4.6875 19.6875 5.1075 19.6875 5.625C19.6875 6.1425 19.2666 6.5625 18.75 6.5625C18.2334 6.5625 17.8125 6.1425 17.8125 5.625C17.8125 5.1075 18.2334 4.6875 18.75 4.6875Z" fill="black"/>
<path d="M7.52626 16.4278L5.92313 15.4556C5.54345 16.0819 5.18251 16.7334 4.85251 17.3916L6.52782 18.2334C6.83626 17.6194 7.17189 17.0119 7.52626 16.4278Z" fill="black"/>
<path d="M1.875 30C1.875 33.24 2.42625 36.4069 3.50156 39.4266C3.07781 39.9187 2.8125 40.5506 2.8125 41.25C2.8125 42.8006 4.07437 44.0625 5.625 44.0625C7.17562 44.0625 8.4375 42.8006 8.4375 41.25C8.4375 39.6994 7.17562 38.4375 5.625 38.4375C5.46469 38.4375 5.30906 38.4591 5.15625 38.4853C4.22531 35.7619 3.75 32.9128 3.75 30C3.75 26.5134 4.42219 23.1281 5.74781 19.9378L4.01625 19.2178C2.59594 22.6378 1.875 26.2659 1.875 30ZM6.5625 41.25C6.5625 41.7675 6.14156 42.1875 5.625 42.1875C5.10844 42.1875 4.6875 41.7675 4.6875 41.25C4.6875 40.7325 5.10844 40.3125 5.625 40.3125C6.14156 40.3125 6.5625 40.7325 6.5625 41.25Z" fill="black"/>
<path d="M15.4566 54.0778C16.0837 54.4575 16.7353 54.8175 17.3916 55.1485L18.2344 53.4731C17.6203 53.1647 17.0119 52.8281 16.4259 52.4747L15.4566 54.0778Z" fill="black"/>
<path d="M41.25 51.5625C39.6994 51.5625 38.4375 52.8244 38.4375 54.375C38.4375 54.5353 38.4591 54.69 38.4844 54.8438C35.7609 55.7747 32.9119 56.25 30 56.25C26.5144 56.25 23.1281 55.5778 19.9369 54.2522L19.2178 55.9847C22.6378 57.4041 26.2659 58.125 30 58.125C33.2391 58.125 36.4059 57.5728 39.4266 56.4984C39.9187 56.9222 40.5506 57.1875 41.25 57.1875C42.8006 57.1875 44.0625 55.9256 44.0625 54.375C44.0625 52.8244 42.8006 51.5625 41.25 51.5625ZM41.25 55.3125C40.7334 55.3125 40.3125 54.8925 40.3125 54.375C40.3125 53.8575 40.7334 53.4375 41.25 53.4375C41.7666 53.4375 42.1875 53.8575 42.1875 54.375C42.1875 54.8925 41.7666 55.3125 41.25 55.3125Z" fill="black"/>
<path d="M33.5254 25.5918H31.4512C31.8262 26.0664 32.0635 26.6465 32.1631 27.332H33.9297L33.5254 28.7207H32.1895C32.084 29.7637 31.6709 30.5488 30.9502 31.0762C30.2295 31.6035 29.2275 31.8672 27.9443 31.8672L32.2774 36.8945V37H30.2822L25.624 31.5771L25.6152 30.4785H27.8037C28.5361 30.4727 29.1309 30.3145 29.5879 30.0039C30.0449 29.6875 30.335 29.2598 30.458 28.7207H25.3691L25.7734 27.332H30.4404C30.1592 26.2188 29.2979 25.6387 27.8565 25.5918H25.3867L25.7998 24.2031H33.9297L33.5254 25.5918Z" fill="black"/>
</svg>
