<svg width="28" height="30" viewBox="0 0 28 30" fill="none" xmlns="http://www.w3.org/2000/svg">
<path fill-rule="evenodd" clip-rule="evenodd" d="M14 0C6.272 0 0 6.68171 0 14.9145C0 23.1473 6.272 29.8291 14 29.8291C21.728 29.8291 28 23.1473 28 14.9145C28 6.68171 21.728 0 14 0ZM14 4.47436C16.324 4.47436 18.2 6.47291 18.2 8.94872C18.2 11.4245 16.324 13.4231 14 13.4231C11.676 13.4231 9.79999 11.4245 9.79999 8.94872C9.79999 6.47291 11.676 4.47436 14 4.47436ZM5.59999 20.8505C7.40599 23.7439 10.5 25.653 14 25.653C17.5 25.653 20.594 23.7439 22.4 20.8505C22.358 17.8825 16.786 16.2568 14 16.2568C11.2 16.2568 5.64199 17.8825 5.59999 20.8505Z" fill="black" fill-opacity="0.54"/>
</svg>
