<svg width="16" height="16" viewBox="0 0 16 16" fill="none" xmlns="http://www.w3.org/2000/svg">
<path d="M14.6704 12.1041L12.1229 10.8305C11.8827 10.7102 11.7333 10.4686 11.7333 10.1998V9.29819C11.7944 9.22353 11.8587 9.13846 11.9251 9.04459C12.2555 8.57793 12.5203 8.05846 12.7128 7.49819C13.0891 7.32566 13.3333 6.95366 13.3333 6.53366V5.46699C13.3333 5.21019 13.2373 4.96139 13.0667 4.76699V3.34859C13.0816 3.20193 13.1403 2.32886 12.5088 1.60859C11.9611 0.983792 11.0723 0.666992 9.86667 0.666992C8.66107 0.666992 7.77227 0.983792 7.22453 1.60833C6.84187 2.04486 6.71307 2.53659 6.67413 2.88966C6.21707 2.65339 5.6784 2.53366 5.06667 2.53366C2.29627 2.53366 2.13493 4.89499 2.13333 4.93366V6.15473C1.96053 6.34299 1.86667 6.56033 1.86667 6.77606V7.69713C1.86667 7.98486 1.99547 8.25313 2.21627 8.43446C2.43627 9.26379 2.97733 9.89046 3.188 10.1105V10.8419C3.188 11.0518 3.07387 11.2443 2.87573 11.3526L1.1016 12.4654C0.422133 12.8361 0 13.5473 0 14.3211V15.3337H3.73333H4.26667H16V14.2555C16 13.3387 15.4904 12.5142 14.6704 12.1041ZM3.73333 14.2035V14.8003H0.533333V14.3211C0.533333 13.7425 0.849067 13.2107 1.37093 12.9257L3.1448 11.8129C3.50027 11.619 3.72107 11.2473 3.72107 10.8419V9.88433L3.63627 9.80513C3.62933 9.79873 2.9208 9.12939 2.71147 8.21712L2.6872 8.11153L2.596 8.05286C2.47333 7.97339 2.4 7.84033 2.4 7.69713V6.77606C2.4 6.68006 2.46533 6.56593 2.57893 6.46299L2.66667 6.38379L2.66613 4.94913C2.67093 4.87259 2.80987 3.06699 5.06667 3.06699C5.7048 3.06699 6.24213 3.21446 6.66667 3.50539V4.76699C6.496 4.96139 6.4 5.21019 6.4 5.46699V6.53366C6.4 6.61473 6.40933 6.69446 6.42693 6.77179C6.43413 6.80272 6.44853 6.83099 6.4584 6.86086C6.47307 6.90566 6.4848 6.95179 6.50533 6.99419C6.5056 6.99472 6.50587 6.99499 6.50613 6.99553C6.5744 7.13633 6.67387 7.26219 6.7992 7.36272C6.80053 7.36779 6.80213 7.37232 6.80347 7.37713C6.81947 7.43819 6.83627 7.49899 6.8544 7.55846L6.876 7.62806C6.87973 7.64033 6.88427 7.65286 6.88827 7.66512C6.8976 7.69392 6.90667 7.72246 6.91627 7.75072C6.93227 7.79739 6.94907 7.84566 6.96853 7.89819C6.9768 7.92006 6.98587 7.93979 6.9944 7.96139C7.01627 8.01713 7.03813 8.07099 7.06107 8.12433C7.06667 8.13713 7.07147 8.15099 7.07707 8.16353L7.092 8.19713C7.09893 8.21259 7.10613 8.22646 7.11307 8.24166C7.1392 8.29873 7.1648 8.35392 7.19147 8.40726C7.19573 8.41579 7.19973 8.42513 7.204 8.43366C7.2208 8.46699 7.2376 8.49846 7.2544 8.53046C7.2832 8.58539 7.31147 8.63713 7.33973 8.68726C7.3536 8.71179 7.3672 8.73579 7.3808 8.75899C7.4192 8.82459 7.45573 8.88486 7.4912 8.94086C7.49893 8.95286 7.5064 8.96539 7.51387 8.97686C7.5784 9.07686 7.6344 9.15792 7.6808 9.22112C7.69307 9.23792 7.70373 9.25233 7.71413 9.26646C7.72 9.27419 7.728 9.28539 7.73307 9.29233V10.1747C7.73307 10.4329 7.59227 10.6697 7.36587 10.7934L6.66027 11.1782L6.53733 11.1673L6.4872 11.2726L4.98693 12.091C4.2136 12.5134 3.73333 13.3225 3.73333 14.2035ZM15.4667 14.8003H4.26667V14.2035C4.26667 13.5179 4.64053 12.8878 5.2424 12.5598L7.62133 11.2622C8.01947 11.0449 8.26667 10.6281 8.26667 10.175V9.10353V9.10326L8.21493 9.04139L8.2048 9.02939C8.20427 9.02859 8.18773 9.00859 8.1608 8.97339C8.1592 8.97126 8.1576 8.96912 8.15573 8.96699C8.1416 8.94859 8.12507 8.92646 8.10613 8.90006C8.10587 8.89953 8.1056 8.89926 8.10533 8.89872C8.0656 8.84352 8.01573 8.77179 7.96027 8.68539C7.95893 8.68353 7.95787 8.68139 7.95653 8.67953C7.9304 8.63873 7.90267 8.59419 7.8744 8.54699C7.87227 8.54352 7.87013 8.54006 7.868 8.53632C7.80773 8.43526 7.74373 8.32086 7.68 8.19419C7.68 8.19419 7.67973 8.19393 7.67973 8.19366C7.64587 8.12566 7.612 8.05419 7.57893 7.97979C7.5744 7.96939 7.5696 7.95926 7.56507 7.94886C7.5504 7.91552 7.53573 7.88059 7.5208 7.84459C7.51547 7.83153 7.51013 7.81793 7.5048 7.80459C7.49093 7.76966 7.4768 7.73446 7.46187 7.69419C7.43467 7.62166 7.40907 7.54593 7.38453 7.46779L7.36987 7.42033C7.36827 7.41499 7.3664 7.40966 7.3648 7.40406C7.33973 7.31979 7.31573 7.23366 7.29547 7.14512L7.2712 7.03953L7.18027 6.98086C7.0256 6.88112 6.93333 6.71393 6.93333 6.53366V5.46699C6.93333 5.31739 6.9968 5.17793 7.112 5.07366L7.2 4.99446V3.33366V3.23926L7.1928 3.23366C7.18373 3.04113 7.1952 2.45099 7.6256 1.96006C8.06747 1.45579 8.8216 1.20033 9.86667 1.20033C10.908 1.20033 11.6605 1.45393 12.1029 1.95446C12.6221 2.54139 12.5363 3.29233 12.5357 3.29873L12.5333 4.99446L12.6213 5.07393C12.7365 5.17793 12.8 5.31739 12.8 5.46699V6.53366C12.8 6.76646 12.6475 6.97019 12.4208 7.04006L12.288 7.08086L12.2453 7.21286C12.0669 7.76779 11.8128 8.28032 11.4896 8.73632C11.4104 8.84859 11.3333 8.94806 11.2664 9.02406L11.2 9.09979V10.1998C11.2 10.6718 11.4621 11.0961 11.8843 11.3073L14.4317 12.5809C15.0701 12.9001 15.4667 13.5417 15.4667 14.2555V14.8003Z" fill="black"/>
</svg>
