<svg width="400" height="220" viewBox="0 0 400 220" fill="none" xmlns="http://www.w3.org/2000/svg">
<g clip-path="url(#clip0)">
<path d="M41.9761 202.155L41.3391 201.923C41.1991 201.872 27.2659 196.691 20.739 184.945C14.2118 173.198 17.4079 159.054 17.4409 158.913L17.5913 158.269L18.2281 158.501C18.3681 158.552 32.301 163.732 38.8282 175.479C45.3554 187.226 42.1593 201.369 42.1263 201.51L41.9761 202.155ZM21.7842 184.398C27.3024 194.33 38.3129 199.421 41.1026 200.583C41.633 197.681 43.2964 185.948 37.783 176.026C32.2703 166.105 21.2555 161.006 18.4646 159.841C17.9339 162.744 16.2711 174.476 21.7842 184.398Z" fill="#3F3D56"/>
<path d="M26.2298 181.8C37.9595 188.649 42.477 202.251 42.477 202.251C42.477 202.251 27.9769 204.751 16.2472 197.902C4.51747 191.054 0 177.451 0 177.451C0 177.451 14.5001 174.952 26.2298 181.8Z" fill="#008FFF"/>
<path d="M97.2131 186.01C97.2131 204.063 83.3702 203.086 66.2942 203.086C49.2181 203.086 35.3752 204.063 35.3752 186.01C35.3752 167.957 49.2181 137.709 66.2942 137.709C83.3702 137.709 97.2131 167.957 97.2131 186.01Z" fill="#3F3D56"/>
<path d="M373.221 202.598H15.2654V203.573H373.221V202.598Z" fill="#3F3D56"/>
<path d="M169.922 36.9324C169.905 36.8815 169.888 36.8299 169.871 36.7788C169.878 36.8012 169.887 36.8228 169.894 36.8452L169.922 36.9324Z" fill="#2F2E41"/>
<path d="M112.736 157.167L102.178 166.925L93.6316 158.143L106.703 151.8L112.736 157.167Z" fill="#A0616A"/>
<path d="M99.1298 159.095C99.1298 159.095 111.92 158.284 110.425 161.907C108.93 165.53 112.099 178.849 112.099 178.849C112.099 178.849 116.851 202.769 101.824 193.251C86.7974 183.733 90.0674 177.12 90.0674 177.12C90.0674 177.12 85.6819 170.686 86.6164 168.422C87.5508 166.157 94.9767 157.46 96.3996 158.549C96.7661 158.863 97.2109 159.079 97.6899 159.174C98.1688 159.27 98.6652 159.243 99.1298 159.095Z" fill="#2F2E41"/>
<path d="M94.6371 118.624C94.6371 118.624 150.945 114.233 155.469 125.455C159.994 136.676 150.945 144.97 150.945 144.97L114.244 162.534L102.539 152.372L109.217 146.434C109.217 146.434 71.5107 153.264 70.5052 147.897C69.4997 142.53 74.5272 114.233 94.6371 118.624Z" fill="#2F2E41"/>
<path d="M159.994 128.382C159.994 128.382 170.049 155.703 159.994 154.24C149.939 152.776 150.945 130.821 150.945 130.821L159.994 128.382Z" fill="#A0616A"/>
<path d="M137.622 72.519C137.622 72.519 143.906 75.6903 142.901 79.5934C141.895 83.4964 146.923 107.891 146.923 107.891L162.005 129.358L149.436 133.748C149.436 133.748 133.349 123.503 130.835 116.185C128.321 108.866 124.802 97.6451 124.802 97.6451L137.622 72.519Z" fill="#D0CDE1"/>
<path d="M134.354 61.0539C143.517 61.0539 150.945 53.8456 150.945 44.9537C150.945 36.0618 143.517 28.8535 134.354 28.8535C125.191 28.8535 117.763 36.0618 117.763 44.9537C117.763 53.8456 125.191 61.0539 134.354 61.0539Z" fill="#A0616A"/>
<path d="M135.611 56.4191C135.611 56.4191 133.6 72.5193 134.605 78.8617C135.611 85.2042 114.496 55.9312 114.496 55.9312C114.496 55.9312 123.545 49.5887 123.545 47.1493C123.545 44.7099 135.611 56.4191 135.611 56.4191Z" fill="#A0616A"/>
<path d="M154.429 38.7601C152.817 38.5737 151.187 38.5847 149.578 38.7927C147.954 39.0099 146.474 39.8126 145.433 41.041C144.285 42.5318 143.904 44.7962 142.106 45.4426C141.035 45.8278 139.794 45.4612 138.722 45.8446C137.435 46.3047 136.781 47.6857 136.439 48.9747C136.096 50.2637 135.898 51.6596 135.022 52.6836C134.145 53.7077 132.259 54.0518 131.483 52.9542C131.626 51.7766 131.564 50.584 131.298 49.4266C131.159 48.8487 130.874 48.3135 130.468 47.8694C130.063 47.4252 129.549 47.0861 128.975 46.8825C126.999 46.3272 125.16 47.993 123.83 49.5154C122.5 51.0377 120.718 52.7354 118.72 52.2589C116.624 51.759 115.909 49.2567 115.678 47.1741C115.152 42.4295 115.23 37.3915 117.595 33.2075C121.017 27.152 128.829 24.2131 135.878 25.1626C142.927 26.1121 149.149 30.3824 153.697 35.6951C154.436 36.5586 155.164 37.5074 155.322 38.6194" fill="#2F2E41"/>
<path d="M133.097 75.4464L127.567 70.0796L118.015 51.54L92.3747 59.3462C92.3747 59.3462 83.3252 61.7856 77.795 77.3979C77.795 77.3979 44.6137 118.868 50.1439 125.698C55.6741 132.529 56.6796 132.041 65.7291 126.674C71.4064 123.356 77.4858 120.734 83.828 118.868L107.96 121.307L122.539 103.744C122.539 103.744 144.158 90.0829 140.638 74.4706L134.605 66.6644L133.097 75.4464Z" fill="#575A89"/>
<path d="M129.327 124.479L132.343 126.43C132.343 126.43 148.934 146.433 140.89 150.336C132.846 154.239 124.802 130.821 124.802 130.821L129.327 124.479Z" fill="#A0616A"/>
<path d="M106.528 59.8876C107.128 59.9311 107.711 60.0956 108.241 60.3705C108.771 60.6453 109.236 61.0245 109.606 61.4838C111.601 63.9468 114.574 69.739 110.222 79.5931C106.692 87.4844 103.833 95.6431 101.676 103.987C101.676 103.987 104.189 103.499 104.189 105.451C104.189 107.403 102.178 106.427 104.189 107.403C106.2 108.378 105.697 106.915 106.2 108.378C106.725 109.907 106.154 109.839 107.349 110.398C108.55 111.041 109.597 111.925 110.42 112.989C110.646 113.281 110.919 113.536 111.228 113.745L129.829 123.015C129.829 123.015 132.343 132.772 124.802 132.772C124.802 132.772 78.5491 120.088 79.5546 110.33C80.5377 100.79 82.4818 58.1405 106.528 59.8876Z" fill="#D0CDE1"/>
<path d="M96.6481 183.025V195.71L82.5712 194.734L85.5877 182.049L96.6481 183.025Z" fill="#A0616A"/>
<path d="M86.5931 188.879C86.5931 188.879 98.1563 183.513 98.1563 187.416C98.1563 191.319 106.2 202.54 106.2 202.54C106.2 202.54 119.774 223.031 102.178 219.616C84.5821 216.201 85.0848 208.883 85.0848 208.883C85.0848 208.883 78.5491 204.492 78.5491 202.052C78.5491 199.613 82.1116 188.86 83.8496 189.358C84.3102 189.517 84.8057 189.557 85.287 189.473C85.7682 189.389 86.2185 189.184 86.5931 188.879Z" fill="#2F2E41"/>
<path d="M72.5161 119.6C72.5161 119.6 108.211 111.794 106.703 124.479C105.195 137.164 103.686 144.482 103.686 144.482L97.6535 185.952L83.5766 184.488L82.5711 176.682C82.5711 176.682 79.5546 173.755 81.0628 171.803C82.5711 169.852 78.5491 150.824 78.5491 150.824C78.5491 150.824 54.4172 155.703 52.4063 141.555C50.3953 127.406 55.4227 123.015 55.4227 123.015L72.5161 119.6Z" fill="#2F2E41"/>
<path d="M300.456 165.036H210.401V166.018H300.456V165.036Z" fill="#3F3D56"/>
<path d="M300.456 171.91H210.401V172.892H300.456V171.91Z" fill="#3F3D56"/>
<path d="M300.456 178.783H210.401V179.765H300.456V178.783Z" fill="#3F3D56"/>
<path d="M232.488 140.372H212.232V156.343H232.488V140.372Z" fill="#D0CDE1"/>
<path d="M229.534 153.886H208.434V137.095H229.534V153.886ZM209.278 153.067H228.69V137.914H209.278V153.067Z" fill="#3F3D56"/>
<path d="M192.17 149.564C194.392 149.564 196.192 147.817 196.192 145.661C196.192 143.506 194.392 141.758 192.17 141.758C189.949 141.758 188.148 143.506 188.148 145.661C188.148 147.817 189.949 149.564 192.17 149.564Z" fill="#008FFF"/>
<path d="M300.456 27.9409H210.401V28.9229H300.456V27.9409Z" fill="#3F3D56"/>
<path d="M300.456 34.8145H210.401V35.7964H300.456V34.8145Z" fill="#3F3D56"/>
<path d="M300.456 41.688H210.401V42.6699H300.456V41.688Z" fill="#3F3D56"/>
<path d="M232.488 3.27637H212.232V19.2477H232.488V3.27637Z" fill="#D0CDE1"/>
<path d="M229.534 16.7903H208.434V0H229.534V16.7903ZM209.278 15.9713H228.69V0.819038H209.278V15.9713Z" fill="#3F3D56"/>
<path d="M192.17 12.4692C194.392 12.4692 196.192 10.7218 196.192 8.56616C196.192 6.41055 194.392 4.66309 192.17 4.66309C189.949 4.66309 188.148 6.41055 188.148 8.56616C188.148 10.7218 189.949 12.4692 192.17 12.4692Z" fill="#008FFF"/>
<path d="M400 106.49H309.945V107.472H400V106.49Z" fill="#3F3D56"/>
<path d="M400 113.364H309.945V114.346H400V113.364Z" fill="#3F3D56"/>
<path d="M400 120.237H309.945V121.219H400V120.237Z" fill="#3F3D56"/>
<path d="M332.032 81.8257H311.776V97.797H332.032V81.8257Z" fill="#D0CDE1"/>
<path d="M329.078 95.3396H307.978V78.5493H329.078V95.3396ZM308.822 94.5206H328.234V79.3684H308.822V94.5206Z" fill="#3F3D56"/>
<path d="M291.714 91.0186C293.936 91.0186 295.736 89.2711 295.736 87.1155C295.736 84.9599 293.936 83.2124 291.714 83.2124C289.493 83.2124 287.692 84.9599 287.692 87.1155C287.692 89.2711 289.493 91.0186 291.714 91.0186Z" fill="#008FFF"/>
</g>
<defs>
<clipPath id="clip0">
<rect width="400" height="220" fill="white"/>
</clipPath>
</defs>
</svg>
