<svg width="215" height="110" viewBox="0 0 215 110" fill="none" xmlns="http://www.w3.org/2000/svg">
<path d="M135.492 47.3984H132.82V52H131.312V40.625H135.078C136.359 40.625 137.344 40.9167 138.031 41.5C138.724 42.0833 139.07 42.9323 139.07 44.0469C139.07 44.7552 138.878 45.3724 138.492 45.8984C138.112 46.4245 137.581 46.8177 136.898 47.0781L139.57 51.9062V52H137.961L135.492 47.3984ZM132.82 46.1719H135.125C135.87 46.1719 136.461 45.9792 136.898 45.5938C137.341 45.2083 137.562 44.6927 137.562 44.0469C137.562 43.3438 137.352 42.8047 136.93 42.4297C136.513 42.0547 135.909 41.8646 135.117 41.8594H132.82V46.1719ZM146.172 52C146.089 51.8333 146.021 51.5365 145.969 51.1094C145.297 51.8073 144.495 52.1562 143.562 52.1562C142.729 52.1562 142.044 51.9219 141.508 51.4531C140.977 50.9792 140.711 50.3802 140.711 49.6562C140.711 48.776 141.044 48.0938 141.711 47.6094C142.383 47.1198 143.326 46.875 144.539 46.875H145.945V46.2109C145.945 45.7057 145.794 45.3047 145.492 45.0078C145.19 44.7057 144.745 44.5547 144.156 44.5547C143.641 44.5547 143.208 44.6849 142.859 44.9453C142.51 45.2057 142.336 45.5208 142.336 45.8906H140.883C140.883 45.4688 141.031 45.0625 141.328 44.6719C141.63 44.276 142.036 43.9635 142.547 43.7344C143.062 43.5052 143.628 43.3906 144.242 43.3906C145.216 43.3906 145.979 43.6354 146.531 44.125C147.083 44.6094 147.37 45.2786 147.391 46.1328V50.0234C147.391 50.7995 147.49 51.4167 147.688 51.875V52H146.172ZM143.773 50.8984C144.227 50.8984 144.656 50.7812 145.062 50.5469C145.469 50.3125 145.763 50.0078 145.945 49.6328V47.8984H144.812C143.042 47.8984 142.156 48.4167 142.156 49.4531C142.156 49.9062 142.307 50.2604 142.609 50.5156C142.911 50.7708 143.299 50.8984 143.773 50.8984ZM151.102 44.5703C151.742 43.7839 152.576 43.3906 153.602 43.3906C155.388 43.3906 156.289 44.3984 156.305 46.4141V52H154.859V46.4062C154.854 45.7969 154.714 45.3464 154.438 45.0547C154.167 44.763 153.742 44.6172 153.164 44.6172C152.695 44.6172 152.284 44.7422 151.93 44.9922C151.576 45.2422 151.299 45.5703 151.102 45.9766V52H149.656V40H151.102V44.5703ZM163.688 51.1641C163.125 51.8255 162.299 52.1562 161.211 52.1562C160.31 52.1562 159.622 51.8958 159.148 51.375C158.68 50.849 158.443 50.0729 158.438 49.0469V43.5469H159.883V49.0078C159.883 50.2891 160.404 50.9297 161.445 50.9297C162.549 50.9297 163.284 50.5182 163.648 49.6953V43.5469H165.094V52H163.719L163.688 51.1641ZM168.867 52H167.422V40H168.867V52ZM180.148 40.625H181.656V48.6797C181.656 49.7682 181.328 50.6198 180.672 51.2344C180.021 51.849 179.151 52.1562 178.062 52.1562C176.932 52.1562 176.052 51.8672 175.422 51.2891C174.792 50.7109 174.477 49.901 174.477 48.8594H175.977C175.977 49.5104 176.154 50.0182 176.508 50.3828C176.867 50.7474 177.385 50.9297 178.062 50.9297C178.682 50.9297 179.182 50.7344 179.562 50.3438C179.948 49.9531 180.143 49.4062 180.148 48.7031V40.625ZM189.203 52C189.12 51.8333 189.052 51.5365 189 51.1094C188.328 51.8073 187.526 52.1562 186.594 52.1562C185.76 52.1562 185.076 51.9219 184.539 51.4531C184.008 50.9792 183.742 50.3802 183.742 49.6562C183.742 48.776 184.076 48.0938 184.742 47.6094C185.414 47.1198 186.357 46.875 187.57 46.875H188.977V46.2109C188.977 45.7057 188.826 45.3047 188.523 45.0078C188.221 44.7057 187.776 44.5547 187.188 44.5547C186.672 44.5547 186.24 44.6849 185.891 44.9453C185.542 45.2057 185.367 45.5208 185.367 45.8906H183.914C183.914 45.4688 184.062 45.0625 184.359 44.6719C184.661 44.276 185.068 43.9635 185.578 43.7344C186.094 43.5052 186.659 43.3906 187.273 43.3906C188.247 43.3906 189.01 43.6354 189.562 44.125C190.115 44.6094 190.401 45.2786 190.422 46.1328V50.0234C190.422 50.7995 190.521 51.4167 190.719 51.875V52H189.203ZM186.805 50.8984C187.258 50.8984 187.688 50.7812 188.094 50.5469C188.5 50.3125 188.794 50.0078 188.977 49.6328V47.8984H187.844C186.073 47.8984 185.188 48.4167 185.188 49.4531C185.188 49.9062 185.339 50.2604 185.641 50.5156C185.943 50.7708 186.331 50.8984 186.805 50.8984ZM194.258 52H192.812V43.5469H194.258V52ZM192.695 41.3047C192.695 41.0703 192.766 40.8724 192.906 40.7109C193.052 40.5495 193.266 40.4688 193.547 40.4688C193.828 40.4688 194.042 40.5495 194.188 40.7109C194.333 40.8724 194.406 41.0703 194.406 41.3047C194.406 41.5391 194.333 41.7344 194.188 41.8906C194.042 42.0469 193.828 42.125 193.547 42.125C193.266 42.125 193.052 42.0469 192.906 41.8906C192.766 41.7344 192.695 41.5391 192.695 41.3047ZM197.945 43.5469L197.992 44.6094C198.638 43.7969 199.482 43.3906 200.523 43.3906C202.31 43.3906 203.211 44.3984 203.227 46.4141V52H201.781V46.4062C201.776 45.7969 201.635 45.3464 201.359 45.0547C201.089 44.763 200.664 44.6172 200.086 44.6172C199.617 44.6172 199.206 44.7422 198.852 44.9922C198.497 45.2422 198.221 45.5703 198.023 45.9766V52H196.578V43.5469H197.945Z" fill="black"/>
<path d="M134.088 64.5635C132.962 64.2399 132.142 63.8434 131.627 63.374C131.117 62.9001 130.861 62.3167 130.861 61.624C130.861 60.8402 131.174 60.193 131.798 59.6826C132.427 59.1676 133.243 58.9102 134.245 58.9102C134.929 58.9102 135.537 59.0423 136.07 59.3066C136.608 59.571 137.023 59.9355 137.314 60.4004C137.611 60.8652 137.759 61.3734 137.759 61.9248H136.439C136.439 61.3232 136.248 60.8516 135.865 60.5098C135.482 60.1634 134.942 59.9902 134.245 59.9902C133.598 59.9902 133.092 60.1338 132.728 60.4209C132.368 60.7035 132.188 61.0977 132.188 61.6035C132.188 62.0091 132.358 62.3532 132.7 62.6357C133.047 62.9137 133.632 63.1689 134.457 63.4014C135.286 63.6338 135.934 63.8913 136.398 64.1738C136.868 64.4518 137.214 64.7777 137.438 65.1514C137.665 65.5251 137.779 65.9648 137.779 66.4707C137.779 67.2773 137.465 67.9245 136.836 68.4121C136.207 68.8952 135.366 69.1367 134.313 69.1367C133.63 69.1367 132.992 69.0068 132.399 68.7471C131.807 68.4827 131.349 68.1227 131.025 67.667C130.706 67.2113 130.547 66.694 130.547 66.1152H131.866C131.866 66.7168 132.087 67.193 132.529 67.5439C132.976 67.8903 133.571 68.0635 134.313 68.0635C135.006 68.0635 135.537 67.9222 135.906 67.6396C136.275 67.3571 136.46 66.972 136.46 66.4844C136.46 65.9967 136.289 65.6208 135.947 65.3564C135.605 65.0876 134.986 64.8232 134.088 64.5635ZM142.339 69.1367C141.336 69.1367 140.521 68.8086 139.892 68.1523C139.263 67.4915 138.948 66.6097 138.948 65.5068V65.2744C138.948 64.5407 139.087 63.8867 139.365 63.3125C139.648 62.7337 140.04 62.2826 140.541 61.959C141.047 61.6309 141.594 61.4668 142.182 61.4668C143.143 61.4668 143.891 61.7835 144.424 62.417C144.957 63.0505 145.224 63.9574 145.224 65.1377V65.6641H140.213C140.231 66.3932 140.443 66.9834 140.849 67.4346C141.259 67.8812 141.778 68.1045 142.407 68.1045C142.854 68.1045 143.232 68.0133 143.542 67.8311C143.852 67.6488 144.123 67.4072 144.355 67.1064L145.128 67.708C144.508 68.6605 143.578 69.1367 142.339 69.1367ZM142.182 62.5059C141.671 62.5059 141.243 62.6927 140.896 63.0664C140.55 63.4355 140.336 63.9551 140.254 64.625H143.959V64.5293C143.923 63.8867 143.749 63.39 143.439 63.0391C143.13 62.6836 142.71 62.5059 142.182 62.5059ZM148.067 69H146.803V58.5H148.067V69ZM150.72 69V62.5811H149.551V61.6035H150.72V60.8447C150.72 60.0518 150.932 59.4388 151.355 59.0059C151.779 58.5729 152.379 58.3564 153.153 58.3564C153.445 58.3564 153.734 58.3952 154.021 58.4727L153.953 59.498C153.739 59.457 153.511 59.4365 153.27 59.4365C152.859 59.4365 152.543 59.5573 152.319 59.7988C152.096 60.0358 151.984 60.3776 151.984 60.8242V61.6035H153.563V62.5811H151.984V69H150.72ZM154.924 70.9824L154.206 70.4902C154.634 69.8932 154.858 69.278 154.876 68.6445V67.5029H156.113V68.4941C156.113 68.9544 155.999 69.4147 155.771 69.875C155.548 70.3353 155.266 70.7044 154.924 70.9824ZM162.895 63.4082H163.845C164.442 63.3991 164.911 63.2419 165.253 62.9365C165.595 62.6312 165.766 62.2188 165.766 61.6992C165.766 60.5326 165.185 59.9492 164.022 59.9492C163.476 59.9492 163.038 60.1064 162.71 60.4209C162.386 60.7308 162.225 61.1432 162.225 61.6582H160.96C160.96 60.8698 161.247 60.2158 161.821 59.6963C162.4 59.1722 163.134 58.9102 164.022 58.9102C164.961 58.9102 165.697 59.1585 166.23 59.6553C166.764 60.152 167.03 60.8424 167.03 61.7266C167.03 62.1595 166.889 62.5788 166.606 62.9844C166.328 63.39 165.948 63.693 165.465 63.8936C166.012 64.0667 166.433 64.3538 166.729 64.7549C167.03 65.1559 167.181 65.6458 167.181 66.2246C167.181 67.1178 166.889 67.8265 166.306 68.3506C165.722 68.8747 164.964 69.1367 164.029 69.1367C163.095 69.1367 162.334 68.8838 161.746 68.3779C161.163 67.8721 160.871 67.2044 160.871 66.375H162.143C162.143 66.8991 162.313 67.3184 162.655 67.6328C162.997 67.9473 163.455 68.1045 164.029 68.1045C164.64 68.1045 165.107 67.945 165.431 67.626C165.754 67.307 165.916 66.849 165.916 66.252C165.916 65.6732 165.738 65.2288 165.383 64.9189C165.027 64.609 164.515 64.4495 163.845 64.4404H162.895V63.4082ZM175.343 59.7578L171.221 69H169.895L174.003 60.0859H168.616V59.0469H175.343V59.7578ZM183.614 64.0439L186.212 59.0469H187.702L184.271 65.2881V69H182.958V65.2881L179.526 59.0469H181.03L183.614 64.0439ZM191.407 69.1367C190.405 69.1367 189.589 68.8086 188.96 68.1523C188.331 67.4915 188.017 66.6097 188.017 65.5068V65.2744C188.017 64.5407 188.156 63.8867 188.434 63.3125C188.716 62.7337 189.108 62.2826 189.609 61.959C190.115 61.6309 190.662 61.4668 191.25 61.4668C192.212 61.4668 192.959 61.7835 193.492 62.417C194.025 63.0505 194.292 63.9574 194.292 65.1377V65.6641H189.281C189.299 66.3932 189.511 66.9834 189.917 67.4346C190.327 67.8812 190.847 68.1045 191.476 68.1045C191.922 68.1045 192.3 68.0133 192.61 67.8311C192.92 67.6488 193.191 67.4072 193.424 67.1064L194.196 67.708C193.576 68.6605 192.647 69.1367 191.407 69.1367ZM191.25 62.5059C190.74 62.5059 190.311 62.6927 189.965 63.0664C189.618 63.4355 189.404 63.9551 189.322 64.625H193.027V64.5293C192.991 63.8867 192.818 63.39 192.508 63.0391C192.198 62.6836 191.779 62.5059 191.25 62.5059ZM200.328 69C200.255 68.8542 200.196 68.5944 200.15 68.2207C199.562 68.8314 198.861 69.1367 198.045 69.1367C197.316 69.1367 196.716 68.9316 196.247 68.5215C195.782 68.1068 195.55 67.5827 195.55 66.9492C195.55 66.179 195.841 65.582 196.425 65.1582C197.013 64.7298 197.838 64.5156 198.899 64.5156H200.13V63.9346C200.13 63.4925 199.998 63.1416 199.733 62.8818C199.469 62.6175 199.079 62.4854 198.564 62.4854C198.113 62.4854 197.735 62.5993 197.43 62.8271C197.124 63.055 196.972 63.3307 196.972 63.6543H195.7C195.7 63.2852 195.83 62.9297 196.09 62.5879C196.354 62.2415 196.71 61.9681 197.156 61.7676C197.607 61.5671 198.102 61.4668 198.64 61.4668C199.492 61.4668 200.16 61.681 200.643 62.1094C201.126 62.5332 201.376 63.1188 201.395 63.8662V67.2705C201.395 67.9495 201.481 68.4896 201.654 68.8906V69H200.328ZM198.229 68.0361C198.626 68.0361 199.002 67.9336 199.357 67.7285C199.713 67.5234 199.97 67.2568 200.13 66.9287V65.4111H199.139C197.589 65.4111 196.814 65.8646 196.814 66.7715C196.814 67.168 196.947 67.4779 197.211 67.7012C197.475 67.9245 197.815 68.0361 198.229 68.0361ZM206.952 62.7383C206.761 62.7064 206.553 62.6904 206.33 62.6904C205.501 62.6904 204.938 63.0436 204.642 63.75V69H203.377V61.6035H204.607L204.628 62.458C205.043 61.7972 205.631 61.4668 206.392 61.4668C206.638 61.4668 206.825 61.4987 206.952 61.5625V62.7383ZM212.428 67.0381C212.428 66.6963 212.298 66.432 212.038 66.2451C211.783 66.0537 211.334 65.8896 210.691 65.7529C210.053 65.6162 209.545 65.4521 209.167 65.2607C208.793 65.0693 208.515 64.8415 208.333 64.5771C208.155 64.3128 208.066 63.9984 208.066 63.6338C208.066 63.0277 208.322 62.515 208.832 62.0957C209.347 61.6764 210.003 61.4668 210.801 61.4668C211.639 61.4668 212.318 61.6833 212.838 62.1162C213.362 62.5492 213.624 63.1029 213.624 63.7773H212.353C212.353 63.431 212.204 63.1325 211.908 62.8818C211.617 62.6312 211.247 62.5059 210.801 62.5059C210.34 62.5059 209.98 62.6061 209.721 62.8066C209.461 63.0072 209.331 63.2692 209.331 63.5928C209.331 63.8981 209.452 64.1283 209.693 64.2832C209.935 64.4382 210.37 64.5863 210.999 64.7275C211.632 64.8688 212.145 65.0374 212.537 65.2334C212.929 65.4294 213.218 65.6663 213.405 65.9443C213.597 66.2178 213.692 66.5527 213.692 66.9492C213.692 67.61 213.428 68.141 212.899 68.542C212.371 68.9385 211.685 69.1367 210.842 69.1367C210.249 69.1367 209.725 69.0319 209.27 68.8223C208.814 68.6126 208.456 68.321 208.196 67.9473C207.941 67.569 207.813 67.1611 207.813 66.7236H209.078C209.101 67.1475 209.27 67.4847 209.584 67.7354C209.903 67.9814 210.322 68.1045 210.842 68.1045C211.32 68.1045 211.703 68.0088 211.99 67.8174C212.282 67.6214 212.428 67.3617 212.428 67.0381Z" fill="#83959D"/>
<rect x="1" y="1" width="108" height="108" fill="#F5F7F7" stroke="#83959D" stroke-width="2"/>
<g clip-path="url(#clip0)">
<path d="M35.4074 44.1612H74.5936L76.2659 33.2909C77.907 22.6219 69.6522 13 58.8575 13H51.143C40.3483 13 32.0935 22.6219 33.735 33.2911L35.4074 44.1612Z" fill="#5A4650"/>
<path d="M81.6808 73.6058L67.4014 69.406C65.6716 68.8972 64.4837 67.3096 64.4837 65.5065V59.064H45.5163V65.5065C45.5163 67.3096 44.3285 68.8972 42.5986 69.406L28.3193 73.6058C24.8597 74.6233 22.4839 77.7984 22.4839 81.4045V92.935C22.4839 95.1797 24.3037 96.9995 26.5484 96.9995H83.4517C85.6964 96.9995 87.5162 95.1797 87.5162 92.935V81.4045C87.5162 77.7984 85.1405 74.6233 81.6808 73.6058Z" fill="#E3AA75"/>
<path d="M81.6808 73.6072L67.4014 69.4073C67.1599 69.3363 68.7669 70.0148 68.5482 69.9041L54.9991 73.9686L41.4513 69.9041C41.2328 70.0148 42.8396 69.3363 42.5981 69.4073L28.3193 73.6072C24.8597 74.6247 22.4839 77.7998 22.4839 81.4059V92.9364C22.4839 95.1811 24.3037 97.0008 26.5484 97.0008H83.4517C85.6964 97.0008 87.5162 95.1811 87.5162 92.9364V81.4059C87.5162 77.7998 85.1405 74.6247 81.6808 73.6072Z" fill="#5A4650"/>
<path d="M68.0833 72.148L66.4678 70.5325L54.9998 72.6128L43.5318 70.5325L41.9163 72.148C39.8836 74.1806 38.7417 76.9375 38.7417 79.8122V97H71.2579V79.8122C71.2579 76.9375 70.116 74.1806 68.0833 72.148Z" fill="#A5CDFF"/>
<path d="M68.0835 72.148L66.468 70.5325L55 72.6128L43.5321 70.5325L41.9166 72.148C41.2515 72.8129 40.6925 73.5614 40.2271 74.3604L45.2331 80.0816C46.0048 80.9637 47.1198 81.4695 48.2922 81.4695C49.3776 81.4695 50.3983 81.0467 51.1661 80.2789L55 76.445L58.8342 80.2791C59.6017 81.0467 60.6223 81.4695 61.7079 81.4695C62.8803 81.4695 63.9954 80.9636 64.7672 80.0814L69.7732 74.3604C69.3076 73.5616 68.7486 72.8131 68.0835 72.148Z" fill="#8CB4EB"/>
<path d="M53.0431 79.3867L50.9355 96.9996H59.0644L56.9568 79.3867H53.0431Z" fill="#5A4650"/>
<path d="M56.733 80.7424H53.2667C52.6835 80.7424 52.1659 80.3692 51.9815 79.8159L49.5806 72.6133H60.4194L58.0185 79.8159C57.8339 80.3693 57.3163 80.7424 56.733 80.7424Z" fill="#64505A"/>
<path d="M45.5161 62.0873C48.3624 63.6077 51.5904 64.4833 54.9999 64.4833C58.4095 64.4833 61.6374 63.6077 64.4837 62.0873V59.064H45.5161V62.0873Z" fill="#CE925A"/>
<path d="M44.611 66.8416L41.041 71.1763L47.2721 78.2974C47.7882 78.8872 48.6955 78.9174 49.2497 78.3632L54.9998 72.6133L44.611 66.8416Z" fill="#A5CDFF"/>
<path d="M65.3889 66.8416L68.9589 71.1763L62.7278 78.2974C62.2117 78.8872 61.3044 78.9174 60.7502 78.3632L55 72.6133L65.3889 66.8416Z" fill="#A5CDFF"/>
<path d="M31.9681 96.9992L29.5812 87.6125C29.3802 86.7082 29.6552 85.7637 30.3103 85.1086L34.6778 80.7411L32.6683 77.727C32.1954 77.0174 32.094 76.1265 32.3632 75.3172C35.5937 65.6088 45.5164 63.1282 45.5164 63.1282V65.7415C45.5164 67.5382 44.8027 69.2612 43.5322 70.5317L41.9167 72.1472C39.884 74.1798 38.7421 76.9367 38.7421 79.8114V96.9992" fill="#64505A"/>
<path d="M78.0326 96.9992L80.4196 87.6125C80.6206 86.7082 80.3456 85.7637 79.6905 85.1086L75.323 80.7411L77.3324 77.727C77.8054 77.0174 77.9068 76.1265 77.6376 75.3172C74.407 65.6088 64.4844 63.1282 64.4844 63.1282V65.7415C64.4844 67.5382 65.198 69.2612 66.4685 70.5317L68.0841 72.1472C70.1166 74.1798 71.2587 76.9367 71.2587 79.8114V96.9992" fill="#64505A"/>
<path d="M73.1716 38.7418H73.1132C71.4659 38.7418 70.2423 37.2163 70.5996 35.6084C71.6329 30.9588 68.0949 26.5483 63.3318 26.5483H46.6685C41.9056 26.5483 38.3676 30.9588 39.4007 35.6084C39.758 37.2163 38.5344 38.7418 36.8871 38.7418H36.8287C35.2861 38.7418 33.8455 39.7193 33.4458 41.2091C32.8414 43.4624 34.5475 45.5159 36.7099 45.5159H37.4557C38.1497 54.6081 45.7302 61.774 55.0002 61.774C64.2702 61.774 71.8507 54.6081 72.5447 45.5159H73.2906C75.4529 45.5159 77.159 43.4624 76.5546 41.2091C76.1548 39.7193 74.7141 38.7418 73.1716 38.7418Z" fill="#F5B97D"/>
<path d="M42.8064 44.1611V36.0321C42.8064 32.2909 45.8393 29.258 49.5806 29.258H60.4194C61.9158 29.258 63.1289 28.0448 63.1285 26.5483H46.6683C41.9016 26.5483 38.3618 30.9657 39.403 35.6194C39.7618 37.2231 38.5303 38.742 36.8869 38.742H36.8287C35.2861 38.742 33.8455 39.7194 33.4459 41.2093C32.8415 43.4625 34.5474 45.5163 36.7097 45.5163H37.4555C38.1495 54.6084 45.73 61.7744 55.0001 61.7744C55.9269 61.7744 56.8305 61.6841 57.7183 61.546C49.2766 60.243 42.8064 52.9675 42.8064 44.1611Z" fill="#E3AA75"/>
<path d="M58.8573 13H51.1428C49.6626 13 48.2368 13.1962 46.8711 13.536V14.3548C46.8711 19.5925 51.1172 23.8386 56.3549 23.8386H75.1205C72.4862 17.5393 66.2713 13 58.8573 13Z" fill="#64505A"/>
<path d="M46.8709 42.8069C46.122 42.8069 45.5161 42.2009 45.5161 41.4521V40.0973C45.5161 39.3483 46.1222 38.7424 46.8709 38.7424C47.6197 38.7424 48.2258 39.3485 48.2258 40.0973V41.4521C48.2259 42.201 47.6199 42.8069 46.8709 42.8069Z" fill="#5A4650"/>
<path d="M63.1288 42.8069C62.3798 42.8069 61.7739 42.2009 61.7739 41.4521V40.0973C61.7739 39.3483 62.38 38.7424 63.1288 38.7424C63.8777 38.7424 64.4836 39.3485 64.4836 40.0973V41.4521C64.4836 42.201 63.8777 42.8069 63.1288 42.8069Z" fill="#5A4650"/>
<path d="M55 52.2899C52.9665 52.2899 51.0916 51.6376 49.9841 50.5447C49.4509 50.0181 49.4457 49.1609 49.9708 48.629C50.4988 48.0958 51.3562 48.0905 51.8866 48.6157C52.3378 49.0603 53.4227 49.5802 54.9998 49.5802C56.577 49.5802 57.6619 49.0603 58.1131 48.6157C58.6437 48.0903 59.5011 48.0958 60.0289 48.629C60.5542 49.1609 60.5488 50.0183 60.0156 50.5447C58.9085 51.6376 57.0336 52.2899 55 52.2899Z" fill="#B67F5F"/>
<path d="M48.2261 37.3869H45.5165C44.7675 37.3869 44.1616 36.7809 44.1616 36.0321C44.1616 35.2833 44.7677 34.6772 45.5165 34.6772H48.2261C48.9751 34.6772 49.5809 35.2833 49.5809 36.0321C49.5809 36.7809 48.9749 37.3869 48.2261 37.3869Z" fill="#B67F5F"/>
<path d="M64.4839 37.3869H61.7743C61.0253 37.3869 60.4194 36.7809 60.4194 36.0321C60.4194 35.2833 61.0255 34.6772 61.7743 34.6772H64.4839C65.2329 34.6772 65.8387 35.2833 65.8387 36.0321C65.8387 36.7809 65.2329 37.3869 64.4839 37.3869Z" fill="#B67F5F"/>
</g>
<defs>
<clipPath id="clip0">
<rect width="84" height="84" fill="white" transform="translate(13 13)"/>
</clipPath>
</defs>
</svg>
