<svg width="330" height="240" viewBox="0 0 330 240" fill="none" xmlns="http://www.w3.org/2000/svg">
<g clip-path="url(#clip0)">
<path opacity="0.1" d="M107.64 152.277C118.554 148.019 135.687 147.151 151.281 147.492C200.266 148.556 244.483 158.905 282.729 170.613C296.575 174.853 310.207 179.422 319.195 185.259C337.491 197.141 332.063 213.6 306.624 223.388C297.967 226.719 287.474 229.281 276.701 231.533C257.542 235.559 236.883 238.787 215.142 239.718C199.641 240.372 183.946 239.839 168.536 238.924C125.476 236.359 83.2128 230.724 47.7873 221.038C32.249 216.798 17.6048 211.525 11.2082 204.662C4.81151 197.798 8.90088 189.108 24.7675 185.045C31.333 183.367 39.174 182.607 46.8556 181.897C58.1608 180.848 69.6473 179.812 79.8488 177.682C90.3879 175.48 102.865 171.221 100.78 166.349C98.5323 161.12 96.7377 156.53 107.64 152.277Z" fill="#008FFF"/>
<path opacity="0.1" d="M157.378 9.34492L156.187 77.888C156.187 77.888 199.306 77.888 235.992 89.7047L236.708 20.4421C236.708 20.4421 177.865 6.51015 157.378 9.34492Z" fill="black"/>
<path d="M156.752 8.41426L155.561 76.9573C155.561 76.9573 198.681 76.9573 235.366 88.774L236.082 19.5114C236.082 19.5114 177.24 5.57949 156.752 8.41426Z" fill="#F5F5FB"/>
<path opacity="0.1" d="M139.013 9.29223L140.204 77.8353C140.204 77.8353 97.0847 77.8353 60.3993 89.652L59.6833 20.408C59.6833 20.408 118.526 6.45746 139.013 9.29223Z" fill="black"/>
<path d="M139.638 8.36156L140.83 76.9046C140.83 76.9046 97.71 76.9046 61.0245 88.7213L60.3086 19.4773C60.3086 19.4773 119.151 5.5268 139.638 8.36156Z" fill="#F5F5FB"/>
<path opacity="0.1" d="M247.115 30.2148V98.0415C247.115 98.0415 261.184 96.3884 290.71 132.546L293.333 64.719C293.333 64.719 262.601 31.871 247.115 30.2148Z" fill="black"/>
<path d="M246.49 29.5947V97.4214C246.49 97.4214 260.559 95.7683 290.085 131.925L292.708 64.0989C292.708 64.0989 261.975 31.2509 246.49 29.5947Z" fill="#F5F5FB"/>
<path opacity="0.1" d="M50.0415 32.2275V100.057C50.0415 100.057 35.9726 98.4042 6.44672 134.561L3.82678 66.7348C3.82678 66.7348 34.5564 33.8868 50.0415 32.2275Z" fill="black"/>
<path d="M50.6668 31.2969V99.1266C50.6668 99.1266 36.5979 97.4735 7.07197 133.631L4.45203 65.8041C4.45203 65.8041 35.1816 32.9562 50.6668 31.2969Z" fill="#F5F5FB"/>
<path d="M208.864 145.671C208.864 147.982 194.073 161.334 160.404 161.334C126.736 161.334 108.505 148.447 108.505 146.136C108.505 143.826 127.361 149.548 161.029 149.548C194.698 149.548 208.864 143.357 208.864 145.671Z" fill="#F7F7FD"/>
<path opacity="0.1" d="M98.8292 113.847C100.808 113.847 102.412 113.629 102.412 113.36C102.412 113.091 100.808 112.873 98.8292 112.873C96.8504 112.873 95.2463 113.091 95.2463 113.36C95.2463 113.629 96.8504 113.847 98.8292 113.847Z" fill="#008FFF"/>
<path opacity="0.1" d="M85.1074 115.227C87.0862 115.227 88.6903 115.009 88.6903 114.74C88.6903 114.471 87.0862 114.253 85.1074 114.253C83.1286 114.253 81.5245 114.471 81.5245 114.74C81.5245 115.009 83.1286 115.227 85.1074 115.227Z" fill="#008FFF"/>
<path opacity="0.1" d="M68.9501 113.36C70.9288 113.36 72.533 113.142 72.533 112.873C72.533 112.604 70.9288 112.386 68.9501 112.386C66.9713 112.386 65.3672 112.604 65.3672 112.873C65.3672 113.142 66.9713 113.36 68.9501 113.36Z" fill="#008FFF"/>
<path opacity="0.1" d="M90.6006 119.017C92.0061 119.017 93.1455 118.861 93.1455 118.67C93.1455 118.478 92.0061 118.322 90.6006 118.322C89.1951 118.322 88.0557 118.478 88.0557 118.67C88.0557 118.861 89.1951 119.017 90.6006 119.017Z" fill="#008FFF"/>
<path opacity="0.1" d="M76.3597 118.669C77.7652 118.669 78.9046 118.514 78.9046 118.322C78.9046 118.13 77.7652 117.975 76.3597 117.975C74.9542 117.975 73.8148 118.13 73.8148 118.322C73.8148 118.514 74.9542 118.669 76.3597 118.669Z" fill="#008FFF"/>
<path d="M85.0324 114.631C85.0324 114.631 90.0534 98.2956 84.2445 91.7545C79.8988 86.8604 74.959 87.4342 72.7705 88.0545C72.1989 88.2054 71.6672 88.4777 71.2121 88.8525C70.7571 89.2274 70.3895 89.6958 70.135 90.2255C69.3627 91.8786 69.5097 94.5676 74.9559 97.6939C84.082 102.935 84.6478 110.128 84.6478 110.128L85.0324 114.631Z" fill="#008FFF"/>
<path d="M73.5459 90.3682C73.5459 90.3682 88.3526 94.9615 85.0324 114.631" stroke="#565987" stroke-miterlimit="10"/>
<path d="M82.1936 92.0156C82.1936 92.0156 80.1552 93.3772 80.8023 95.4273" stroke="#565987" stroke-miterlimit="10"/>
<path d="M75.031 93.2282C75.031 93.2282 76.2816 91.9689 77.7916 92.6637" stroke="#565987" stroke-miterlimit="10"/>
<path d="M80.8993 99.5518C80.8993 99.5518 83.0878 98.4508 83.6537 99.8309" stroke="#565987" stroke-miterlimit="10"/>
<path d="M86.2986 101.85C86.2986 101.85 84.6541 101.72 84.626 102.499" stroke="#565987" stroke-miterlimit="10"/>
<path d="M85.2355 114.762C85.2355 114.762 79.3516 102.889 77.7321 103.15C76.9662 103.274 76.6129 104.021 76.4503 104.775C76.2492 105.747 76.3585 106.758 76.7629 107.666C77.6102 109.564 79.8518 113.177 85.2355 114.762Z" fill="#008FFF"/>
<path d="M77.7728 105.401C77.7728 105.401 83.9475 114.284 85.1418 114.675" stroke="#565987" stroke-miterlimit="10"/>
<path d="M77.2133 106.788H78.6545" stroke="#565987" stroke-miterlimit="10"/>
<path d="M78.939 110.038L81.1962 110.134" stroke="#565987" stroke-miterlimit="10"/>
<path d="M80.3146 107.438L80.0676 108.605" stroke="#565987" stroke-miterlimit="10"/>
<path d="M82.7154 110.99L82.672 112.051" stroke="#565987" stroke-miterlimit="10"/>
<path d="M85.0605 114.762C85.0605 114.762 90.9413 102.889 92.564 103.15C93.3331 103.274 93.6864 104.021 93.8458 104.775C94.0454 105.747 93.9362 106.757 93.5332 107.666C92.6859 109.564 90.4442 113.177 85.0605 114.762Z" fill="#008FFF"/>
<path d="M92.5139 105.401C92.5139 105.401 86.3392 114.284 85.1481 114.675" stroke="#565987" stroke-miterlimit="10"/>
<path d="M93.0829 106.788H91.6416" stroke="#565987" stroke-miterlimit="10"/>
<path d="M91.3572 110.038L89.0968 110.134" stroke="#565987" stroke-miterlimit="10"/>
<path d="M89.9814 107.438L90.2284 108.605" stroke="#565987" stroke-miterlimit="10"/>
<path d="M87.5804 110.99L87.6239 112.051" stroke="#565987" stroke-miterlimit="10"/>
<path d="M74.9591 117.535C74.7987 117.405 74.682 117.229 74.6246 117.032C74.5982 116.934 74.6072 116.829 74.65 116.736C74.6927 116.643 74.7666 116.568 74.859 116.524C75.0716 116.44 75.303 116.589 75.4843 116.738C75.5586 116.824 75.6504 116.895 75.7538 116.945C75.8571 116.994 75.9698 117.022 76.0846 117.026C75.9675 116.921 75.8798 116.787 75.83 116.638C75.7801 116.489 75.7698 116.33 75.8001 116.176C75.8123 116.112 75.8402 116.053 75.8814 116.002C76.0002 115.875 76.2159 115.931 76.3597 116.03C76.8131 116.341 76.9381 116.961 76.9412 117.51C76.9657 117.304 76.9657 117.096 76.9412 116.889C76.9319 116.788 76.9482 116.685 76.9886 116.591C77.0289 116.497 77.0922 116.414 77.1726 116.35C77.2801 116.292 77.4007 116.264 77.5228 116.266C77.6242 116.252 77.7275 116.259 77.8261 116.286C77.9247 116.314 78.0162 116.362 78.0949 116.427C78.1696 116.53 78.208 116.654 78.2041 116.78C78.2001 116.906 78.154 117.028 78.073 117.125C77.9043 117.313 77.7045 117.472 77.4821 117.593C77.3121 117.693 77.1676 117.83 77.06 117.994C77.0465 118.016 77.0359 118.04 77.0288 118.065H75.7469C75.4625 117.922 75.1977 117.744 74.9591 117.535Z" fill="#008FFF"/>
<path d="M97.3755 112.752C97.2154 112.624 97.0987 112.449 97.041 112.253C97.0145 112.154 97.0233 112.049 97.0661 111.956C97.1088 111.862 97.1828 111.787 97.2755 111.741C97.3897 111.719 97.5079 111.728 97.6177 111.766C97.7276 111.804 97.8253 111.87 97.9008 111.958C97.9747 112.045 98.0665 112.116 98.17 112.165C98.2735 112.214 98.3863 112.241 98.501 112.244C98.3837 112.138 98.2958 112.005 98.246 111.856C98.1961 111.707 98.186 111.548 98.2165 111.394C98.2272 111.331 98.2554 111.272 98.2978 111.223C98.4166 111.096 98.6323 111.149 98.7762 111.248C99.2295 111.558 99.3546 112.179 99.3577 112.731C99.3819 112.525 99.3819 112.316 99.3577 112.11C99.3484 112.008 99.3646 111.906 99.405 111.812C99.4454 111.718 99.5086 111.635 99.589 111.571C99.6962 111.513 99.8173 111.485 99.9392 111.49C100.041 111.475 100.144 111.481 100.243 111.509C100.342 111.537 100.433 111.586 100.511 111.651C100.586 111.753 100.625 111.877 100.621 112.002C100.617 112.128 100.571 112.249 100.489 112.346C100.321 112.534 100.121 112.693 99.8985 112.814C99.7292 112.914 99.5849 113.051 99.4765 113.214C99.4629 113.237 99.4524 113.261 99.4452 113.286H98.1634C97.8781 113.143 97.6132 112.964 97.3755 112.752Z" fill="#008FFF"/>
<path d="M89.9034 117.535C89.743 117.405 89.6263 117.229 89.5688 117.032C89.5431 116.934 89.5524 116.829 89.5951 116.737C89.6378 116.644 89.7113 116.569 89.8033 116.524C90.019 116.44 90.2473 116.589 90.4286 116.738C90.503 116.824 90.5948 116.895 90.6982 116.944C90.8015 116.994 90.9141 117.022 91.0289 117.026C90.9121 116.92 90.8248 116.787 90.7755 116.638C90.7262 116.489 90.7165 116.33 90.7475 116.176C90.7571 116.112 90.7841 116.052 90.8257 116.002C90.9445 115.875 91.1602 115.931 91.304 116.03C91.7573 116.341 91.8855 116.961 91.8886 117.51C91.9114 117.304 91.9114 117.096 91.8886 116.889C91.8793 116.788 91.8956 116.685 91.936 116.591C91.9763 116.497 92.0396 116.414 92.12 116.35C92.2674 116.283 92.4298 116.254 92.5914 116.268C92.7531 116.281 92.9084 116.336 93.0423 116.427C93.1181 116.529 93.1571 116.653 93.1531 116.78C93.1492 116.907 93.1024 117.028 93.0204 117.125C92.8523 117.314 92.6524 117.473 92.4295 117.593C92.2607 117.694 92.1166 117.831 92.0074 117.994C91.9951 118.017 91.9847 118.04 91.9762 118.065H90.6975C90.4105 117.923 90.1435 117.745 89.9034 117.535Z" fill="#008FFF"/>
<path d="M68.7062 107.87C68.7062 107.87 68.2278 108.49 68.9282 109.421C69.6285 110.351 70.21 111.155 69.9755 111.741C69.9755 111.741 68.9157 109.995 68.0559 109.97C67.1961 109.945 67.7683 108.918 68.7062 107.87Z" fill="#008FFF"/>
<path opacity="0.1" d="M68.7062 107.87C68.6643 107.93 68.6316 107.996 68.6093 108.066C67.7683 109.042 67.3212 109.957 68.1278 109.979C68.8813 110.001 69.7849 111.338 70.0037 111.673C69.9972 111.699 69.9889 111.725 69.9787 111.75C69.9787 111.75 68.9188 110.004 68.0591 109.979C67.1993 109.954 67.7683 108.918 68.7062 107.87Z" fill="black"/>
<path d="M67.8246 108.661C67.8246 108.882 67.8494 109.058 67.8804 109.058C67.9114 109.058 67.9331 108.882 67.9331 108.661C67.9331 108.441 67.9052 108.547 67.8742 108.547C67.8432 108.547 67.8246 108.444 67.8246 108.661Z" fill="#FFD037"/>
<path d="M67.5181 108.925C67.712 109.03 67.8808 109.092 67.8964 109.064C67.912 109.036 67.7651 108.931 67.5838 108.829C67.4024 108.726 67.465 108.798 67.4525 108.829C67.44 108.86 67.3243 108.835 67.5181 108.925Z" fill="#FFD037"/>
<path d="M71.2512 107.87C71.2512 107.87 71.7326 108.49 71.0292 109.421C70.3257 110.351 69.7505 111.155 69.985 111.741C69.985 111.741 71.0417 109.995 71.9046 109.97C72.7675 109.945 72.1985 108.918 71.2512 107.87Z" fill="#008FFF"/>
<path opacity="0.1" d="M71.2511 107.87C71.293 107.93 71.3257 107.996 71.348 108.066C72.189 109.042 72.6361 109.957 71.8295 109.979C71.076 110.001 70.1756 111.338 69.9536 111.673C69.9601 111.699 69.9684 111.725 69.9786 111.75C69.9786 111.75 71.0354 110.004 71.8983 109.979C72.7611 109.954 72.1984 108.918 71.2511 107.87Z" fill="black"/>
<path d="M72.1443 108.661C72.1443 108.882 72.1226 109.058 72.0916 109.058C72.0606 109.058 72.0358 108.882 72.0358 108.661C72.0358 108.441 72.0668 108.547 72.0978 108.547C72.1288 108.547 72.1443 108.444 72.1443 108.661Z" fill="#FFD037"/>
<path d="M72.458 108.925C72.2641 109.03 72.0953 109.092 72.0828 109.064C72.0703 109.036 72.211 108.931 72.3955 108.829C72.5799 108.726 72.5143 108.798 72.5299 108.829C72.5455 108.86 72.6424 108.835 72.458 108.925Z" fill="#FFD037"/>
<path d="M71.9921 111.669C71.9921 111.669 70.6478 111.629 70.2445 111.343C69.8412 111.058 68.181 110.723 68.081 111.173C67.9809 111.622 66.0644 113.452 67.5776 113.465C69.0908 113.477 71.098 113.229 71.5013 112.987C71.9046 112.745 71.9921 111.669 71.9921 111.669Z" fill="#A8A8A8"/>
<path opacity="0.2" d="M67.5526 113.304C69.0657 113.304 71.0729 113.071 71.4762 112.826C71.7888 112.64 71.9045 111.973 71.9452 111.666H71.9921C71.9921 111.666 71.9045 112.739 71.5012 112.984C71.0979 113.229 69.0939 113.474 67.5776 113.462C67.143 113.462 66.9898 113.304 66.9992 113.074C67.0586 113.217 67.2274 113.3 67.5526 113.304Z" fill="black"/>
<path opacity="0.1" d="M61.0184 155.546C67.0134 155.546 71.8733 154.834 71.8733 153.955C71.8733 153.077 67.0134 152.364 61.0184 152.364C55.0234 152.364 50.1635 153.077 50.1635 153.955C50.1635 154.834 55.0234 155.546 61.0184 155.546Z" fill="#008FFF"/>
<path opacity="0.1" d="M91.3385 168.721C97.3335 168.721 102.193 168.009 102.193 167.13C102.193 166.251 97.3335 165.539 91.3385 165.539C85.3434 165.539 80.4835 166.251 80.4835 167.13C80.4835 168.009 85.3434 168.721 91.3385 168.721Z" fill="#008FFF"/>
<path opacity="0.1" d="M46.7369 183.71C52.7319 183.71 57.5918 182.998 57.5918 182.119C57.5918 181.241 52.7319 180.528 46.7369 180.528C40.7419 180.528 35.882 181.241 35.882 182.119C35.882 182.998 40.7419 183.71 46.7369 183.71Z" fill="#008FFF"/>
<path opacity="0.1" d="M276.732 216.636C282.727 216.636 287.587 215.924 287.587 215.045C287.587 214.166 282.727 213.454 276.732 213.454C270.737 213.454 265.877 214.166 265.877 215.045C265.877 215.924 270.737 216.636 276.732 216.636Z" fill="#008FFF"/>
<path opacity="0.1" d="M153.535 179.233C157.505 179.233 160.723 178.876 160.723 178.436C160.723 177.996 157.505 177.639 153.535 177.639C149.566 177.639 146.348 177.996 146.348 178.436C146.348 178.876 149.566 179.233 153.535 179.233Z" fill="#008FFF"/>
<path opacity="0.1" d="M256.395 138.292C260.364 138.292 263.582 137.936 263.582 137.495C263.582 137.055 260.364 136.698 256.395 136.698C252.425 136.698 249.207 137.055 249.207 137.495C249.207 137.936 252.425 138.292 256.395 138.292Z" fill="#008FFF"/>
<path opacity="0.1" d="M200.429 198.772C204.398 198.772 207.616 198.415 207.616 197.975C207.616 197.535 204.398 197.178 200.429 197.178C196.459 197.178 193.241 197.535 193.241 197.975C193.241 198.415 196.459 198.772 200.429 198.772Z" fill="#008FFF"/>
<path opacity="0.1" d="M138.388 193.512C142.357 193.512 145.575 193.155 145.575 192.715C145.575 192.275 142.357 191.918 138.388 191.918C134.418 191.918 131.2 192.275 131.2 192.715C131.2 193.155 134.418 193.512 138.388 193.512Z" fill="#008FFF"/>
<path opacity="0.1" d="M80.2459 191.443C84.2155 191.443 87.4335 191.086 87.4335 190.646C87.4335 190.206 84.2155 189.849 80.2459 189.849C76.2762 189.849 73.0582 190.206 73.0582 190.646C73.0582 191.086 76.2762 191.443 80.2459 191.443Z" fill="#008FFF"/>
<path opacity="0.1" d="M65.0952 205.722C69.0649 205.722 72.2829 205.365 72.2829 204.925C72.2829 204.485 69.0649 204.128 65.0952 204.128C61.1256 204.128 57.9076 204.485 57.9076 204.925C57.9076 205.365 61.1256 205.722 65.0952 205.722Z" fill="#008FFF"/>
<g opacity="0.1">
<path opacity="0.1" d="M159.072 95.3372C185.338 95.3372 206.631 85.9101 206.631 74.2812C206.631 62.6522 185.338 53.2251 159.072 53.2251C132.806 53.2251 111.513 62.6522 111.513 74.2812C111.513 85.9101 132.806 95.3372 159.072 95.3372Z" fill="black"/>
<path opacity="0.1" d="M207.457 81.8088C205.353 92.7881 184.562 101.407 159.219 101.407C133.654 101.407 112.72 92.6361 110.925 81.5234H110.747V99.416C119.107 108.082 137.616 114.108 159.1 114.108C180.585 114.108 199.094 108.082 207.457 99.416V81.8088Z" fill="black"/>
<path opacity="0.1" d="M207.457 103.58C205.353 114.557 184.562 123.179 159.219 123.179C133.654 123.179 112.72 114.408 110.925 103.292H110.747V121.188C119.107 129.853 137.616 135.876 159.1 135.876C180.585 135.876 199.094 129.853 207.457 121.188V103.58Z" fill="black"/>
<path opacity="0.1" d="M207.457 127.528C205.353 138.507 184.562 147.126 159.219 147.126C133.654 147.126 112.72 138.358 110.925 127.242H110.747V146.54C110.746 146.951 110.832 147.358 110.997 147.735C111.163 148.112 111.406 148.45 111.71 148.729C120.464 156.703 138.407 159.827 159.1 159.827C179.794 159.827 197.727 156.703 206.494 148.729C206.798 148.45 207.041 148.112 207.207 147.735C207.372 147.358 207.458 146.951 207.457 146.54V127.528Z" fill="black"/>
</g>
<path d="M159.072 94.0965C185.338 94.0965 206.631 84.6694 206.631 73.0404C206.631 61.4115 185.338 51.9844 159.072 51.9844C132.806 51.9844 111.513 61.4115 111.513 73.0404C111.513 84.6694 132.806 94.0965 159.072 94.0965Z" fill="#008FFF"/>
<path d="M207.457 80.568C205.353 91.5473 184.562 100.166 159.219 100.166C133.654 100.166 112.72 91.3954 110.925 80.2827H110.747V98.1753C119.107 106.841 137.616 112.867 159.1 112.867C180.585 112.867 199.094 106.841 207.457 98.1753V80.568Z" fill="#008FFF"/>
<path d="M207.457 102.34C205.353 113.316 184.562 121.939 159.219 121.939C133.654 121.939 112.72 113.168 110.925 102.052H110.747V119.947C119.107 128.613 137.616 134.636 159.1 134.636C180.585 134.636 199.094 128.613 207.457 119.947V102.34Z" fill="#008FFF"/>
<path d="M207.457 126.287C205.353 137.267 184.562 145.886 159.219 145.886C133.654 145.886 112.72 137.118 110.925 126.002H110.747V145.299C110.746 145.711 110.832 146.118 110.997 146.494C111.163 146.871 111.406 147.21 111.71 147.489C120.464 155.463 138.407 158.586 159.1 158.586C179.794 158.586 197.727 155.463 206.494 147.489C206.798 147.21 207.041 146.871 207.207 146.494C207.372 146.118 207.458 145.711 207.457 145.299V126.287Z" fill="#008FFF"/>
<path opacity="0.1" d="M229.176 180.355C239.018 180.355 246.997 178.93 246.997 177.172C246.997 175.415 239.018 173.99 229.176 173.99C219.334 173.99 211.355 175.415 211.355 177.172C211.355 178.93 219.334 180.355 229.176 180.355Z" fill="#008FFF"/>
<path d="M219.172 136.627C220.072 137.154 221.485 137.499 223.264 136.364L223.248 138.879C223.373 140.603 225.524 146.89 225.524 146.89L227.041 152.06C228.129 155.714 228.69 159.502 228.707 163.312C228.707 164.572 228.826 165.874 229.192 166.854C230.001 169.025 228.879 171.817 228.388 172.846C227.567 173.122 226.732 173.355 225.887 173.544C225.812 173.562 225.738 173.585 225.665 173.612V173.597C225.665 173.597 223.389 174.493 222.376 174.369C221.623 174.279 221.151 175.213 221.751 175.898C221.261 176.047 220.75 176.114 220.238 176.097C219.225 175.973 218.718 177.697 220.616 178.19C222.514 178.683 233.265 178.19 233.265 178.19C233.567 178.04 233.81 177.795 233.956 177.493C234.102 177.191 234.143 176.849 234.072 176.522L235.416 176.466C235.416 176.466 237.314 175.604 235.416 173.262L235.313 173.336L234.91 172.152V170.554C234.91 170.554 237.314 159.079 236.554 157.736C235.795 156.393 235.391 149.464 235.391 149.464L235.657 141.959C236.342 140.557 236.692 138.355 236.87 136.633C237.129 135.813 237.292 134.966 237.355 134.109C237.386 133.702 237.411 133.281 237.427 132.84C237.437 131.874 237.281 130.913 236.964 129.999C237.822 128.736 238.781 127.544 239.831 126.433C240.268 126.029 240.6 125.528 240.798 124.97C240.997 124.412 241.057 123.814 240.972 123.229L240.347 119.039L238.827 111.905C239.018 109.923 238.602 108.782 238.14 108.137C238.249 107.495 238.352 106.856 238.43 106.211C238.765 103.415 238.615 100.583 237.986 97.8367C237.767 96.8815 237.467 95.8983 236.789 95.1725C236.023 94.3475 234.779 93.8482 234.491 92.772C234.45 92.4976 234.392 92.2262 234.316 91.9594C234.038 91.2553 233.162 90.9979 232.393 90.9049C231.024 90.7405 229.045 90.6164 227.729 91.1499C226.573 91.6566 225.622 92.5322 225.027 93.6373C224.731 94.0913 224.619 94.64 224.715 95.1725C224.761 95.3574 224.834 95.5348 224.93 95.6998C224.492 96.8782 224.54 98.1804 225.063 99.3241C225.586 100.468 226.543 101.361 227.725 101.81C227.757 101.906 227.785 101.999 227.807 102.089C227.865 102.31 227.906 102.535 227.932 102.762C227.907 103.196 227.879 103.633 227.86 104.071L227.813 104.248C226.725 104.726 225.663 105.262 224.633 105.854C225.39 106.964 224.505 111.648 224.505 111.648C222.607 112.755 220.713 115.59 222.736 118.549C224.758 121.507 223.62 124.708 223.62 124.708L223.308 129.528L223.245 130.492H223.267L223.245 130.858H223.298V131.252C222.41 131.578 221.11 132.229 220.338 133.439C219.972 134.032 219.527 134.573 219.015 135.048C218.896 135.15 218.803 135.278 218.745 135.422C218.686 135.567 218.663 135.723 218.679 135.878C218.694 136.033 218.747 136.182 218.833 136.313C218.918 136.443 219.035 136.551 219.172 136.627ZM234.444 123.824C234.368 122.99 234.524 122.151 234.894 121.399H235.788C235.815 121.595 235.851 121.79 235.898 121.982C236.154 123.083 235.129 123.601 234.444 123.824Z" fill="url(#paint0_linear)"/>
<path d="M234.694 171.587L235.182 173.035L233.6 174.605L228.366 175.827L224.593 175.464L224.837 174.136C224.908 173.851 225.058 173.59 225.269 173.383C225.481 173.177 225.745 173.032 226.034 172.964C227.597 172.604 230.542 171.779 231.164 170.635L234.694 171.587Z" fill="#DB8B8B"/>
<path opacity="0.1" d="M234.694 171.587L235.182 173.035L233.6 174.605L228.366 175.827L224.593 175.464L224.837 174.136C224.908 173.851 225.058 173.59 225.269 173.383C225.481 173.177 225.745 173.032 226.034 172.964C227.597 172.604 230.542 171.779 231.164 170.635L234.694 171.587Z" fill="black"/>
<path d="M225.809 175.089L226.54 174.124L225.809 173.005C225.809 173.005 223.62 173.882 222.645 173.761C221.669 173.641 221.185 175.331 223.011 175.815C224.837 176.298 235.182 175.815 235.182 175.815C235.182 175.815 237.008 174.968 235.182 172.673L233.6 173.882C233.6 173.882 230.921 175.331 229.582 175.089H225.809Z" fill="#C17174"/>
<path d="M222.526 177.142L226.3 177.504L231.533 176.295L233.115 174.725L232.987 174.344L232.806 173.804L232.628 173.277L229.092 172.312C228.912 172.602 228.667 172.845 228.376 173.023C227.228 173.801 225.171 174.363 223.961 174.642C223.91 174.654 223.86 174.669 223.811 174.688C223.576 174.763 223.361 174.891 223.186 175.064C222.975 175.269 222.825 175.529 222.754 175.814L222.526 177.142Z" fill="#DB8B8B"/>
<path opacity="0.1" d="M222.526 177.142L226.3 177.505L231.533 176.296L233.115 174.726L232.987 174.345L231.533 175.452C231.533 175.452 228.854 176.9 227.516 176.658H223.739L224.471 175.694L223.814 174.689C223.579 174.763 223.365 174.892 223.189 175.064C222.978 175.27 222.828 175.53 222.757 175.815L222.526 177.142Z" fill="black"/>
<path d="M223.739 176.779L224.471 175.815L223.739 174.695C223.739 174.695 221.551 175.573 220.575 175.452C219.6 175.331 219.115 177.021 220.941 177.505C222.767 177.989 233.112 177.505 233.112 177.505C233.112 177.505 234.938 176.658 233.112 174.366L231.53 175.573C231.53 175.573 228.851 177.021 227.513 176.779H223.739Z" fill="#C17174"/>
<path d="M226.781 106.748C226.781 106.748 232.625 107.368 231.784 104.936C231.543 104.251 231.481 103.517 231.602 102.802C231.753 101.917 232.106 101.078 232.634 100.349L227.156 101.193C227.486 101.737 227.736 102.325 227.901 102.939C228.541 105.501 226.781 106.748 226.781 106.748Z" fill="#DB8B8B"/>
<path d="M236.764 134.267C236.764 134.267 236.642 139.458 235.426 141.996L235.182 149.362C235.182 149.362 235.545 156.123 236.276 157.45C237.008 158.778 234.694 170.008 234.694 170.008V171.94C234.694 171.94 230.799 173.389 229.692 171.699L230.786 157.329L230.298 137.408L236.764 134.267Z" fill="#474463"/>
<path opacity="0.1" d="M236.764 134.267C236.764 134.267 236.642 139.458 235.426 141.996L235.182 149.362C235.182 149.362 235.545 156.123 236.276 157.45C237.008 158.778 234.694 170.008 234.694 170.008V171.94C234.694 171.94 230.799 173.389 229.692 171.699L230.786 157.329L230.298 137.408L236.764 134.267Z" fill="black"/>
<path d="M239.196 117.615L239.928 119.547L240.553 123.651C240.634 124.223 240.577 124.807 240.387 125.353C240.196 125.899 239.877 126.393 239.456 126.793C237.996 128.241 236.048 131.259 236.048 131.259L233.737 124.376C233.737 124.376 236.048 124.014 235.682 122.444C235.316 120.875 235.441 117.978 235.441 117.978L239.196 117.615Z" fill="#FF748E"/>
<path opacity="0.05" d="M239.224 117.587L239.953 119.519L240.578 123.626C240.661 124.197 240.604 124.78 240.414 125.326C240.224 125.872 239.905 126.365 239.484 126.764C238.021 128.213 236.076 131.234 236.076 131.234L233.747 124.342C233.747 124.342 236.06 123.979 235.695 122.41C235.329 120.84 235.451 117.94 235.451 117.94L239.224 117.587Z" fill="black"/>
<path opacity="0.1" d="M228.379 173.035C229.942 175.473 232.371 174.09 232.803 173.817L232.624 173.289L229.092 172.312C228.915 172.606 228.67 172.853 228.379 173.035Z" fill="black"/>
<path d="M223.495 138.988C223.617 140.678 225.684 146.834 225.684 146.834L227.144 151.902C228.188 155.485 228.728 159.195 228.748 162.925C228.711 164.099 228.868 165.272 229.214 166.395C230.189 169.053 228.241 172.673 228.241 172.673C229.945 175.694 232.865 173.641 232.865 173.641V171.708C232.865 171.708 235.179 161.204 234.569 159.15C233.96 157.097 233.719 151.545 233.719 151.545V141.521C235.668 139.594 236.853 137.036 237.058 134.314C237.086 133.917 237.111 133.501 237.127 133.073C237.224 130.35 235.345 127.155 234.625 126.017C234.45 125.741 234.338 125.586 234.338 125.586L223.592 129.816H223.567V130.235V131.147L223.495 138.988Z" fill="#474463"/>
<path opacity="0.1" d="M227.147 101.193C227.476 101.737 227.727 102.325 227.891 102.939C228.486 103.163 229.12 103.266 229.756 103.243C230.392 103.219 231.016 103.069 231.593 102.802C231.743 101.917 232.096 101.078 232.624 100.349L227.147 101.193Z" fill="black"/>
<path d="M229.582 103.004C232.204 103.004 234.328 100.896 234.328 98.296C234.328 95.6958 232.204 93.5879 229.582 93.5879C226.961 93.5879 224.837 95.6958 224.837 98.296C224.837 100.896 226.961 103.004 229.582 103.004Z" fill="#DB8B8B"/>
<path opacity="0.1" d="M223.495 131.137H223.549C228.651 132.179 235.06 126.904 235.06 126.904C234.888 126.616 234.74 126.315 234.616 126.004C234.441 125.728 234.328 125.573 234.328 125.573L223.583 129.804L223.555 130.226L223.495 131.137Z" fill="black"/>
<path d="M224.837 106.627C224.837 106.627 231.652 102.521 233.841 104.211L236.886 108.075C236.886 108.075 238.834 108.68 238.471 112.557L239.931 119.56L235.554 120.646C235.554 120.646 233 123.062 235.069 126.563C235.069 126.563 228.616 131.876 223.502 130.788L223.867 125.115C223.867 125.115 224.962 121.973 223.017 119.076C221.072 116.18 222.895 113.401 224.721 112.315C224.715 112.303 225.565 107.712 224.837 106.627Z" fill="#FF748E"/>
<path d="M224.471 131.259C224.471 131.259 221.913 131.743 220.697 133.675C220.345 134.256 219.916 134.787 219.422 135.254C219.311 135.354 219.225 135.479 219.171 135.618C219.117 135.757 219.097 135.906 219.112 136.055C219.126 136.203 219.176 136.346 219.257 136.472C219.337 136.597 219.446 136.703 219.575 136.78C220.541 137.356 222.113 137.71 224.105 136.088C227.528 133.312 224.471 131.259 224.471 131.259Z" fill="#DB8B8B"/>
<path opacity="0.1" d="M228.244 108.922C228.244 108.922 230.677 108.68 231.286 114.957C231.896 121.235 232.868 122.686 232.868 122.686C232.868 122.686 233.478 125.946 232.015 127.878C230.552 129.811 227.757 133.917 227.757 133.917C227.757 133.917 224.715 134.761 224.105 131.746L227.879 124.743C227.879 124.743 228.485 122.327 227.025 120.636C225.565 118.946 224.471 107.712 228.244 108.922Z" fill="black"/>
<path d="M228 108.558C228 108.558 230.433 108.316 231.042 114.597C231.652 120.877 232.624 122.323 232.624 122.323C232.624 122.323 233.25 125.582 231.774 127.515C230.298 129.447 227.528 133.553 227.528 133.553C227.528 133.553 224.486 134.397 223.877 131.382L227.65 124.379C227.65 124.379 228.26 121.963 226.797 120.273C225.334 118.582 224.227 107.352 228 108.558Z" fill="#FF748E"/>
<path opacity="0.1" d="M225.99 113.087C225.99 113.087 225.75 116.83 226.844 118.884C227.938 120.937 227.938 123.592 226.844 125.04" fill="black"/>
<path opacity="0.1" d="M225.384 108.496C225.384 108.496 226.356 107.532 229.157 107.411C231.959 107.29 233.172 106.446 233.172 106.446" fill="black"/>
<path opacity="0.1" d="M232.152 92.211C232.893 92.301 233.738 92.5522 234.003 93.2407C234.076 93.5028 234.134 93.769 234.175 94.0378C234.45 95.0923 235.648 95.5886 236.386 96.3888C237.036 97.1021 237.324 98.0636 237.536 99.0033C238.142 101.695 238.287 104.468 237.964 107.207C237.727 109.207 237.239 111.18 237.105 113.19C236.97 115.199 237.217 117.318 238.324 119.008C238.802 119.734 239.431 120.373 239.768 121.179C239.071 121.74 238.108 121.821 237.208 121.852C236.166 121.887 235.118 121.887 234.066 121.852C233.515 121.874 232.967 121.76 232.471 121.52C232.121 121.299 231.832 120.992 231.633 120.63C231.033 119.622 230.883 118.409 230.908 117.24C230.933 116.071 231.121 114.908 231.143 113.735C231.205 113.096 231.061 112.453 230.733 111.899C230.431 111.551 230.089 111.239 229.714 110.969C228.41 109.821 227.963 107.985 227.919 106.258C227.876 104.53 228.163 102.803 228.016 101.081C227.96 100.408 227.704 99.5988 227.038 99.4685C226.827 99.4601 226.618 99.4331 226.412 99.3879C225.878 99.1832 225.931 98.4357 225.787 97.8868C225.615 97.2665 225.084 96.792 224.934 96.1717C224.583 94.7109 226.459 92.9647 227.688 92.4499C228.917 91.935 230.836 92.0498 232.152 92.211Z" fill="black"/>
<path d="M232.274 91.9685C233.015 92.0585 233.859 92.3097 234.125 93.0013C234.199 93.2623 234.256 93.5274 234.297 93.7953C234.572 94.8498 235.77 95.346 236.507 96.1462C237.158 96.8596 237.445 97.821 237.658 98.7608C238.264 101.455 238.408 104.232 238.083 106.974C237.849 108.974 237.361 110.947 237.227 112.959C237.092 114.972 237.339 117.084 238.446 118.775C238.924 119.504 239.553 120.139 239.89 120.946C239.193 121.51 238.23 121.588 237.33 121.619C236.288 121.652 235.24 121.652 234.188 121.619C233.637 121.642 233.089 121.529 232.593 121.29C232.242 121.067 231.954 120.76 231.755 120.397C231.155 119.389 231.005 118.176 231.03 117.007C231.055 115.838 231.243 114.675 231.264 113.505C231.264 112.866 231.227 112.19 230.855 111.669C230.553 111.32 230.211 111.008 229.836 110.739C228.532 109.591 228.085 107.755 228.041 106.028C227.997 104.3 228.285 102.573 228.138 100.851C228.082 100.178 227.825 99.3687 227.159 99.2384C226.949 99.2299 226.74 99.203 226.534 99.1578C226 98.9531 226.053 98.2056 225.909 97.6567C225.737 97.0364 225.205 96.5649 225.055 95.9415C224.705 94.4807 226.581 92.7346 227.81 92.2197C229.038 91.7049 230.967 91.8072 232.274 91.9685Z" fill="#464353"/>
<path d="M40.0308 177.644C40.0308 177.644 43.3823 177.542 44.389 176.829C45.3957 176.115 49.5413 175.263 49.7914 176.407C50.0416 177.551 54.825 182.095 51.042 182.126C47.259 182.157 42.2568 181.54 41.2469 180.932C40.2371 180.324 40.0308 177.644 40.0308 177.644Z" fill="#A8A8A8"/>
<path opacity="0.2" d="M51.1108 181.72C47.331 181.751 42.3256 181.136 41.3188 180.529C40.5529 180.063 40.2465 178.401 40.1433 177.632H40.0308C40.0308 177.632 40.2434 180.311 41.2501 180.919C42.2568 181.527 47.2622 182.141 51.0451 182.113C52.1363 182.113 52.5114 181.72 52.4927 181.149C52.3395 181.506 51.9237 181.72 51.1108 181.72Z" fill="black"/>
<path d="M252.906 134.022C252.906 134.022 255.204 133.95 255.898 133.46C256.592 132.97 259.434 132.387 259.606 133.172C259.778 133.957 263.063 137.077 260.465 137.099C257.867 137.12 254.434 136.695 253.744 136.28C253.053 135.864 252.906 134.022 252.906 134.022Z" fill="#A8A8A8"/>
<path opacity="0.2" d="M260.512 136.825C257.917 136.844 254.481 136.422 253.79 136.007C253.262 135.696 253.053 134.546 252.984 134.019H252.906C252.906 134.019 253.053 135.858 253.744 136.276C254.434 136.695 257.87 137.114 260.465 137.095C261.216 137.095 261.475 136.825 261.46 136.432C261.356 136.673 261.072 136.819 260.512 136.825Z" fill="black"/>
<path opacity="0.1" d="M9.78259 13.4171C13.5174 13.4171 16.545 10.4136 16.545 6.70854C16.545 3.00351 13.5174 0 9.78259 0C6.04779 0 3.02014 3.00351 3.02014 6.70854C3.02014 10.4136 6.04779 13.4171 9.78259 13.4171Z" fill="#008FFF"/>
<path opacity="0.1" d="M300.54 32.6466C304.275 32.6466 307.302 29.6431 307.302 25.938C307.302 22.233 304.275 19.2295 300.54 19.2295C296.805 19.2295 293.777 22.233 293.777 25.938C293.777 29.6431 296.805 32.6466 300.54 32.6466Z" fill="#008FFF"/>
<path opacity="0.1" d="M5.00227 37.894C7.76495 37.894 10.0045 35.6723 10.0045 32.9316C10.0045 30.191 7.76495 27.9692 5.00227 27.9692C2.23959 27.9692 0 30.191 0 32.9316C0 35.6723 2.23959 37.894 5.00227 37.894Z" fill="#008FFF"/>
<path opacity="0.1" d="M55.6503 9.98045C58.413 9.98045 60.6526 7.75871 60.6526 5.01806C60.6526 2.2774 58.413 0.0556641 55.6503 0.0556641C52.8877 0.0556641 50.6481 2.2774 50.6481 5.01806C50.6481 7.75871 52.8877 9.98045 55.6503 9.98045Z" fill="#008FFF"/>
<path opacity="0.1" d="M260.743 10.6006C263.506 10.6006 265.746 8.37883 265.746 5.63818C265.746 2.89752 263.506 0.675781 260.743 0.675781C257.981 0.675781 255.741 2.89752 255.741 5.63818C255.741 8.37883 257.981 10.6006 260.743 10.6006Z" fill="#008FFF"/>
<path d="M278.133 200.48C278.133 200.48 279.383 202.106 277.554 204.559C275.725 207.012 274.215 209.081 274.825 210.61C274.825 210.61 277.586 206.057 279.827 205.992C282.069 205.927 280.603 203.222 278.133 200.48Z" fill="#FC6681"/>
<path opacity="0.1" d="M278.133 200.48C278.241 200.638 278.327 200.81 278.386 200.992C280.574 203.548 281.75 205.933 279.636 205.992C277.673 206.048 275.319 209.531 274.753 210.411C274.772 210.479 274.795 210.545 274.822 210.61C274.822 210.61 277.582 206.057 279.824 205.992C282.066 205.927 280.602 203.222 278.133 200.48Z" fill="black"/>
<path d="M280.459 202.553C280.459 203.124 280.393 203.589 280.315 203.589C280.237 203.589 280.171 203.124 280.171 202.553C280.171 201.983 280.252 202.243 280.331 202.243C280.409 202.243 280.459 201.979 280.459 202.553Z" fill="#FFD037"/>
<path d="M281.259 203.236C280.753 203.509 280.321 203.673 280.271 203.605C280.221 203.536 280.615 203.257 281.118 202.984C281.622 202.711 281.431 202.91 281.465 202.984C281.5 203.059 281.766 202.963 281.259 203.236Z" fill="#FFD037"/>
<path d="M271.517 200.48C271.517 200.48 270.267 202.106 272.096 204.559C273.925 207.012 275.435 209.081 274.825 210.61C274.825 210.61 272.061 206.057 269.823 205.992C267.584 205.927 269.044 203.222 271.517 200.48Z" fill="#FC6681"/>
<path opacity="0.1" d="M271.517 200.48C271.408 200.638 271.322 200.811 271.261 200.992C269.072 203.548 267.9 205.933 270.01 205.992C271.974 206.048 274.331 209.531 274.894 210.411C274.875 210.477 274.853 210.545 274.828 210.61C274.828 210.61 272.064 206.057 269.826 205.992C267.587 205.927 269.044 203.222 271.517 200.48Z" fill="black"/>
<path d="M269.188 202.553C269.188 203.124 269.254 203.589 269.335 203.589C269.416 203.589 269.479 203.124 269.479 202.553C269.479 201.983 269.397 202.243 269.316 202.243C269.235 202.243 269.188 201.979 269.188 202.553Z" fill="#FFD037"/>
<path d="M268.391 203.236C268.897 203.509 269.329 203.673 269.376 203.605C269.422 203.536 269.035 203.257 268.528 202.984C268.022 202.711 268.216 202.91 268.184 202.984C268.153 203.059 267.884 202.963 268.391 203.236Z" fill="#FFD037"/>
<path d="M269.588 210.399C269.588 210.399 273.09 210.291 274.143 209.546C275.197 208.802 279.53 207.912 279.793 209.106C280.055 210.3 285.051 215.052 281.1 215.083C277.148 215.114 271.914 214.462 270.864 213.842C269.813 213.222 269.588 210.399 269.588 210.399Z" fill="#A8A8A8"/>
<path opacity="0.2" d="M281.172 214.667C277.217 214.698 271.986 214.047 270.932 213.427C270.132 212.943 269.81 211.203 269.704 210.399H269.588C269.588 210.399 269.81 213.191 270.864 213.836C271.917 214.481 277.148 215.114 281.1 215.077C282.241 215.077 282.635 214.664 282.613 214.069C282.457 214.434 282.019 214.661 281.172 214.667Z" fill="black"/>
<path opacity="0.7" d="M99.9356 44.0693C98.6371 44.0693 97.3677 44.4513 96.288 45.167C95.2083 45.8827 94.3668 46.8999 93.8699 48.09C93.373 49.2801 93.2429 50.5897 93.4963 51.8531C93.7496 53.1166 94.3749 54.2771 95.2931 55.188C96.2113 56.0988 97.3812 56.7192 98.6547 56.9705C99.9283 57.2218 101.248 57.0928 102.448 56.5998C103.648 56.1069 104.673 55.2721 105.395 54.201C106.116 53.1299 106.501 51.8707 106.501 50.5825C106.501 48.8551 105.809 47.1984 104.578 45.977C103.347 44.7555 101.677 44.0693 99.9356 44.0693ZM99.9356 45.3316C100.987 45.3316 102.014 45.6409 102.888 46.2202C103.762 46.7996 104.444 47.623 104.846 48.5865C105.248 49.5499 105.353 50.61 105.148 51.6328C104.943 52.6556 104.437 53.5951 103.694 54.3324C102.95 55.0698 102.003 55.572 100.972 55.7754C99.9415 55.9789 98.8728 55.8744 97.9017 55.4754C96.9305 55.0763 96.1004 54.4005 95.5164 53.5335C94.9324 52.6664 94.6207 51.647 94.6207 50.6042C94.6207 49.2058 95.1806 47.8647 96.1774 46.8759C97.1741 45.8871 98.526 45.3316 99.9356 45.3316ZM103.653 48.7588L103.056 48.1602C103.027 48.1302 102.992 48.1063 102.953 48.09C102.914 48.0737 102.873 48.0653 102.831 48.0653C102.789 48.0653 102.747 48.0737 102.708 48.09C102.67 48.1063 102.635 48.1302 102.606 48.1602L98.8539 51.8479L97.2719 50.2537C97.2427 50.2237 97.2077 50.1998 97.1691 50.1835C97.1304 50.1672 97.0888 50.1588 97.0468 50.1588C97.0048 50.1588 96.9632 50.1672 96.9245 50.1835C96.8858 50.1998 96.8508 50.2237 96.8217 50.2537L96.2214 50.8461C96.1911 50.875 96.1671 50.9097 96.1506 50.9481C96.1342 50.9865 96.1257 51.0277 96.1257 51.0694C96.1257 51.1111 96.1342 51.1524 96.1506 51.1907C96.1671 51.2291 96.1911 51.2638 96.2214 51.2927L98.6287 53.6995C98.6579 53.7295 98.6929 53.7534 98.7316 53.7697C98.7702 53.786 98.8118 53.7944 98.8539 53.7944C98.8959 53.7944 98.9375 53.786 98.9761 53.7697C99.0148 53.7534 99.0498 53.7295 99.079 53.6995L103.653 49.1961C103.683 49.1672 103.707 49.1325 103.724 49.0941C103.74 49.0558 103.749 49.0145 103.749 48.9728C103.749 48.9311 103.74 48.8899 103.724 48.8515C103.707 48.8131 103.683 48.7784 103.653 48.7495V48.7588Z" fill="#3ACC6C"/>
<path opacity="0.7" d="M26.2525 72.0449C24.9884 72.3362 23.8397 72.9926 22.9515 73.9312C22.0632 74.8698 21.4753 76.0485 21.2619 77.3184C21.0486 78.5883 21.2194 79.8924 21.7528 81.0661C22.2862 82.2397 23.1582 83.2302 24.2588 83.9125C25.3593 84.5947 26.639 84.9381 27.9362 84.8993C29.2334 84.8604 30.4898 84.4411 31.5469 83.6942C32.604 82.9474 33.4142 81.9065 33.8753 80.7031C34.3363 79.4997 34.4275 78.1877 34.1374 76.9329C33.9443 76.0977 33.5869 75.3086 33.0859 74.6107C32.5848 73.9128 31.9499 73.3198 31.2174 72.8657C30.4849 72.4117 29.6694 72.1054 28.8174 71.9646C27.9654 71.8237 27.0938 71.851 26.2525 72.0449ZM26.5402 73.2855C27.5649 73.0483 28.6376 73.1181 29.6222 73.4862C30.6069 73.8543 31.4593 74.5041 32.0713 75.3532C32.6834 76.2024 33.0276 77.2126 33.0604 78.256C33.0931 79.2993 32.8129 80.3289 32.2553 81.2141C31.6977 82.0994 30.8877 82.8005 29.928 83.2287C28.9684 83.6568 27.9022 83.7928 26.8646 83.6193C25.8269 83.4458 24.8646 82.9706 24.0994 82.254C23.3343 81.5374 22.8008 80.6116 22.5665 79.5939C22.2536 78.2349 22.496 76.8082 23.2407 75.626C23.9854 74.4438 25.1717 73.6023 26.5402 73.2855ZM30.939 75.7977L30.22 75.3387C30.1848 75.316 30.1455 75.3006 30.1043 75.2934C30.063 75.2861 30.0208 75.2871 29.9799 75.2964C29.9391 75.3056 29.9006 75.3229 29.8666 75.3473C29.8327 75.3716 29.804 75.4024 29.7823 75.4379L26.9685 79.8669L25.0645 78.6728C25.0294 78.6501 24.99 78.6347 24.9488 78.6275C24.9076 78.6202 24.8653 78.6212 24.8245 78.6305C24.7836 78.6397 24.7451 78.657 24.7112 78.6814C24.6772 78.7057 24.6485 78.7365 24.6268 78.772L24.1735 79.4854C24.1506 79.5202 24.1351 79.5592 24.1278 79.6001C24.1205 79.641 24.1215 79.683 24.1308 79.7235C24.1402 79.764 24.1576 79.8022 24.1821 79.8359C24.2066 79.8696 24.2377 79.898 24.2735 79.9196L27.1623 81.7278C27.1975 81.7509 27.2371 81.7667 27.2787 81.7743C27.3203 81.7818 27.3629 81.7809 27.4041 81.7716C27.4453 81.7623 27.4842 81.7449 27.5184 81.7203C27.5526 81.6957 27.5814 81.6645 27.6031 81.6285L31.0422 76.2226C31.0652 76.188 31.0809 76.1491 31.0885 76.1083C31.096 76.0675 31.0952 76.0257 31.0862 75.9852C31.0772 75.9447 31.0601 75.9064 31.0358 75.8726C31.0116 75.8388 30.9809 75.8102 30.9453 75.7884L30.939 75.7977Z" fill="#3ACC6C"/>
<path opacity="0.7" d="M194.626 40.0127C193.327 40.0127 192.058 40.3947 190.978 41.1104C189.899 41.826 189.057 42.8432 188.56 44.0334C188.063 45.2235 187.933 46.5331 188.187 47.7965C188.44 49.0599 189.065 50.2204 189.984 51.1313C190.902 52.0422 192.072 52.6625 193.345 52.9138C194.619 53.1651 195.939 53.0362 197.138 52.5432C198.338 52.0502 199.364 51.2154 200.085 50.1443C200.806 49.0733 201.191 47.814 201.191 46.5258C201.191 44.7984 200.5 43.1418 199.268 41.9204C198.037 40.6989 196.367 40.0127 194.626 40.0127ZM194.626 41.275C195.677 41.275 196.705 41.5842 197.579 42.1636C198.453 42.7429 199.134 43.5664 199.536 44.5298C199.939 45.4933 200.044 46.5534 199.839 47.5762C199.634 48.5989 199.127 49.5384 198.384 50.2758C197.641 51.0132 196.694 51.5153 195.663 51.7188C194.632 51.9222 193.563 51.8178 192.592 51.4187C191.621 51.0197 190.791 50.3439 190.207 49.4768C189.623 48.6098 189.311 47.5904 189.311 46.5475C189.311 45.1492 189.871 43.8081 190.868 42.8193C191.865 41.8305 193.216 41.275 194.626 41.275ZM198.343 44.7022L197.746 44.1036C197.717 44.0735 197.682 44.0497 197.643 44.0334C197.605 44.0171 197.563 44.0087 197.521 44.0087C197.479 44.0087 197.437 44.0171 197.399 44.0334C197.36 44.0497 197.325 44.0735 197.296 44.1036L193.544 47.7912L191.959 46.2064C191.93 46.1764 191.895 46.1525 191.856 46.1362C191.818 46.1199 191.776 46.1115 191.734 46.1115C191.692 46.1115 191.65 46.1199 191.612 46.1362C191.573 46.1525 191.538 46.1764 191.509 46.2064L190.912 46.805C190.882 46.8339 190.857 46.8686 190.841 46.907C190.825 46.9453 190.816 46.9866 190.816 47.0283C190.816 47.07 190.825 47.1112 190.841 47.1496C190.857 47.188 190.882 47.2227 190.912 47.2516L193.319 49.6583C193.348 49.6884 193.383 49.7122 193.422 49.7285C193.461 49.7449 193.502 49.7533 193.544 49.7533C193.586 49.7533 193.628 49.7449 193.667 49.7285C193.705 49.7122 193.74 49.6884 193.769 49.6583L198.343 45.155C198.374 45.126 198.398 45.0914 198.414 45.053C198.43 45.0146 198.439 44.9734 198.439 44.9317C198.439 44.89 198.43 44.8487 198.414 44.8103C198.398 44.772 198.374 44.7373 198.343 44.7084V44.7022Z" fill="#3ACC6C"/>
<path opacity="0.7" d="M269.951 72.1777C268.657 72.0781 267.362 72.3613 266.23 72.9916C265.097 73.6219 264.179 74.5709 263.591 75.7188C263.002 76.8667 262.77 78.1619 262.923 79.4407C263.077 80.7195 263.609 81.9245 264.452 82.9034C265.296 83.8823 266.413 84.5911 267.662 84.9404C268.912 85.2896 270.238 85.2636 271.472 84.8655C272.707 84.4675 273.795 83.7153 274.598 82.704C275.402 81.6928 275.886 80.4678 275.988 79.184C276.056 78.3306 275.954 77.4723 275.687 76.6582C275.42 75.844 274.994 75.09 274.433 74.4393C273.873 73.7886 273.188 73.2539 272.419 72.8659C271.65 72.4778 270.811 72.244 269.951 72.1777ZM269.851 73.4338C270.9 73.5121 271.902 73.8975 272.731 74.5413C273.559 75.1851 274.176 76.0583 274.503 77.0503C274.831 78.0423 274.854 79.1084 274.57 80.1136C274.287 81.1187 273.709 82.0177 272.909 82.6966C272.11 83.3755 271.126 83.8038 270.081 83.9271C269.036 84.0505 267.977 83.8634 267.04 83.3896C266.102 82.9158 265.328 82.1765 264.814 81.2655C264.3 80.3545 264.071 79.3127 264.154 78.2722C264.208 77.5833 264.398 76.9116 264.713 76.2955C265.028 75.6794 265.463 75.131 265.992 74.6816C266.521 74.2323 267.134 73.8908 267.796 73.6767C268.458 73.4626 269.156 73.38 269.851 73.4338ZM273.29 77.137L272.74 76.495C272.713 76.4629 272.68 76.4364 272.643 76.4171C272.606 76.3978 272.566 76.3861 272.524 76.3826C272.482 76.3791 272.44 76.384 272.401 76.3969C272.361 76.4098 272.324 76.4305 272.293 76.4578L268.269 79.8477L266.812 78.145C266.785 78.1124 266.752 78.0856 266.715 78.066C266.678 78.0464 266.637 78.0345 266.595 78.031C266.553 78.0275 266.51 78.0325 266.47 78.0457C266.43 78.0589 266.393 78.08 266.362 78.1078L265.715 78.6537C265.682 78.6802 265.656 78.7129 265.637 78.7497C265.618 78.7866 265.606 78.8268 265.603 78.8682C265.6 78.9095 265.605 78.9511 265.618 78.9904C265.631 79.0298 265.652 79.0661 265.68 79.0972L267.89 81.6807C267.917 81.7128 267.95 81.7393 267.987 81.7586C268.024 81.7779 268.064 81.7896 268.106 81.7931C268.148 81.7966 268.19 81.7917 268.23 81.7788C268.269 81.7659 268.306 81.7452 268.338 81.7179L273.252 77.5805C273.285 77.5542 273.311 77.5217 273.331 77.485C273.35 77.4482 273.362 77.408 273.366 77.3666C273.369 77.3253 273.364 77.2837 273.351 77.2442C273.338 77.2048 273.317 77.1683 273.29 77.137Z" fill="#3ACC6C"/>
<path d="M87.0323 31.916C87.1129 32.9728 86.886 33.8458 86.3517 34.5349C85.821 35.2187 85.0233 35.6643 83.9587 35.8718C82.8046 36.0966 81.7981 35.8633 80.939 35.1717C80.0844 34.4793 79.522 33.4397 79.2518 32.0531L79.0688 31.1137C78.8918 30.2056 78.8973 29.3758 79.0851 28.6242C79.2775 27.8717 79.6353 27.2541 80.1588 26.7713C80.6814 26.2842 81.3341 25.9643 82.1169 25.8118C83.1547 25.6095 84.0433 25.7382 84.7829 26.1977C85.5216 26.6527 86.0421 27.3823 86.3446 28.3866L85.0496 28.639C84.7861 27.8824 84.4325 27.3663 83.9888 27.0906C83.5495 26.8141 82.9944 26.7412 82.3235 26.8719C81.5004 27.0323 80.9133 27.4624 80.5621 28.1623C80.2155 28.8613 80.1515 29.7721 80.3703 30.8949L80.5546 31.841C80.7612 32.9011 81.1469 33.7012 81.7118 34.2411C82.2767 34.7811 82.9572 34.9735 83.7534 34.8183C84.4691 34.6789 84.9857 34.4111 85.3032 34.0149C85.6243 33.6134 85.769 32.9979 85.7373 32.1683L87.0323 31.916ZM94.2988 31.0712L90.2059 31.8687L89.7835 34.5975L88.4549 34.8564L90.282 24.3601L91.4092 24.1404L97.0501 33.1816L95.7283 33.4391L94.2988 31.0712ZM90.3885 30.7327L93.7098 30.0855L91.1554 25.8404L90.3885 30.7327ZM98.1257 22.8317L102.873 30.1805L104.513 21.587L106.184 21.2615L108.088 31.0309L106.799 31.2819L106.058 27.4775L105.379 23.3476L103.713 31.8833L102.727 32.0755L97.9885 24.8085L98.9122 28.8699L99.6535 32.6743L98.3652 32.9253L96.4616 23.1559L98.1257 22.8317ZM112.392 25.6722C111.225 25.5699 110.344 25.3376 109.749 24.9753C109.158 24.6078 108.796 24.084 108.663 23.4041C108.513 22.6347 108.696 21.9398 109.211 21.3194C109.73 20.6936 110.481 20.2849 111.465 20.0931C112.136 19.9624 112.759 19.9758 113.333 20.1332C113.911 20.2898 114.388 20.5684 114.763 20.9688C115.143 21.3684 115.385 21.8389 115.491 22.3801L114.196 22.6325C114.081 22.042 113.803 21.6156 113.361 21.3534C112.919 21.0866 112.356 21.0199 111.672 21.1533C111.037 21.277 110.568 21.5147 110.265 21.8662C109.965 22.2124 109.864 22.6338 109.961 23.1303C110.038 23.5284 110.272 23.8335 110.661 24.0454C111.055 24.252 111.678 24.3905 112.532 24.4609C113.391 24.5304 114.075 24.6594 114.586 24.8478C115.1 25.0309 115.502 25.2845 115.792 25.6086C116.088 25.9318 116.284 26.3417 116.38 26.8382C116.535 27.6299 116.35 28.3253 115.826 28.9242C115.301 29.5186 114.522 29.9165 113.488 30.1178C112.817 30.2486 112.166 30.2431 111.535 30.1015C110.903 29.9553 110.385 29.6895 109.98 29.3041C109.58 28.9178 109.324 28.4406 109.213 27.8725L110.508 27.6202C110.623 28.2106 110.931 28.6358 111.432 28.8957C111.937 29.1503 112.554 29.2065 113.283 29.0644C113.963 28.9319 114.457 28.6917 114.765 28.3438C115.074 27.9958 115.181 27.5826 115.088 27.1039C114.995 26.6253 114.755 26.289 114.369 26.0949C113.982 25.8963 113.323 25.7554 112.392 25.6722Z" fill="#02B875"/>
<path d="M180.858 25.6687L179.438 26.6998L178.847 30.0107L177.555 29.78L179.304 19.9819L180.596 20.2126L179.731 25.0578L184.95 20.99L186.512 21.2688L181.883 24.9073L185.065 31.121L183.517 30.8446L180.858 25.6687ZM192.063 29.7317L187.958 28.9988L186.579 31.3914L185.247 31.1534L190.738 22.0234L191.868 22.2252L193.867 32.6927L192.541 32.456L192.063 29.7317ZM188.538 28.0052L191.869 28.6L191.018 23.7192L188.538 28.0052ZM199.487 29.6062L197.186 29.1952L196.478 33.1589L195.179 32.927L196.929 23.1288L200.173 23.708C201.276 23.9051 202.079 24.3077 202.582 24.9159C203.089 25.5249 203.256 26.3095 203.085 27.2696C202.976 27.8797 202.715 28.3817 202.302 28.7755C201.894 29.1702 201.376 29.4272 200.748 29.5466L202.307 34.1163L202.292 34.1971L200.906 33.9496L199.487 29.6062ZM197.375 28.1387L199.36 28.4932C200.001 28.6077 200.54 28.5326 200.976 28.268C201.417 28.0041 201.687 27.594 201.786 27.0376C201.894 26.432 201.796 25.9352 201.49 25.5473C201.189 25.1602 200.697 24.9035 200.016 24.7773L198.038 24.424L197.375 28.1387ZM207.094 33.2837L211.337 25.7015L212.75 25.9538L207.367 35.1031L206.223 34.8988L204.345 24.453L205.751 24.7041L207.094 33.2837ZM216.178 31.6421L219.614 27.1794L221.081 27.4414L216.606 32.9822L215.953 36.6363L214.661 36.4056L215.314 32.7515L213.033 26.0043L214.513 26.2686L216.178 31.6421Z" fill="#02B875"/>
<path d="M271.333 60.6732L267.974 58.1911L265.362 61.7263L264.306 60.9463L270.221 52.9413L275.18 56.6056L274.538 57.4742L270.635 54.59L268.612 57.3279L271.971 59.81L271.333 60.6732ZM281.444 62.5766L278.871 60.6754L273.598 67.8117L272.548 67.0358L277.821 59.8995L275.253 58.0024L275.895 57.1337L282.086 61.7079L281.444 62.5766Z" fill="#02B875"/>
<path d="M134.015 66.0469L137.269 74.168L140.522 66.0469H142.225V76H140.912V72.124L141.035 67.9404L137.768 76H136.763L133.502 67.9609L133.632 72.124V76H132.319V66.0469H134.015ZM150.031 71.6045H145.854V76H144.542V66.0469H150.708V67.127H145.854V70.5312H150.031V71.6045ZM159.403 71.9736H157.065V76H155.746V66.0469H159.041C160.162 66.0469 161.023 66.3021 161.625 66.8125C162.231 67.3229 162.534 68.0658 162.534 69.041C162.534 69.6608 162.366 70.2008 162.028 70.6611C161.696 71.1214 161.231 71.4655 160.634 71.6934L162.972 75.918V76H161.563L159.403 71.9736ZM157.065 70.9004H159.082C159.734 70.9004 160.251 70.7318 160.634 70.3945C161.021 70.0573 161.215 69.6061 161.215 69.041C161.215 68.4258 161.03 67.9541 160.661 67.626C160.297 67.2979 159.768 67.1315 159.075 67.127H157.065V70.9004ZM170.71 67.127H167.511V76H166.205V67.127H163.013V66.0469H170.71V67.127ZM177.136 73.4023H172.966L172.029 76H170.676L174.477 66.0469H175.625L179.433 76H178.086L177.136 73.4023ZM173.362 72.3223H176.746L175.051 67.667L173.362 72.3223ZM184.881 74.0381C184.881 73.6963 184.751 73.432 184.491 73.2451C184.236 73.0537 183.787 72.8896 183.145 72.7529C182.507 72.6162 181.998 72.4521 181.62 72.2607C181.246 72.0693 180.968 71.8415 180.786 71.5771C180.608 71.3128 180.52 70.9984 180.52 70.6338C180.52 70.0277 180.775 69.515 181.285 69.0957C181.8 68.6764 182.456 68.4668 183.254 68.4668C184.092 68.4668 184.771 68.6833 185.291 69.1162C185.815 69.5492 186.077 70.1029 186.077 70.7773H184.806C184.806 70.431 184.658 70.1325 184.361 69.8818C184.07 69.6312 183.701 69.5059 183.254 69.5059C182.794 69.5059 182.434 69.6061 182.174 69.8066C181.914 70.0072 181.784 70.2692 181.784 70.5928C181.784 70.8981 181.905 71.1283 182.146 71.2832C182.388 71.4382 182.823 71.5863 183.452 71.7275C184.086 71.8688 184.598 72.0374 184.99 72.2334C185.382 72.4294 185.672 72.6663 185.858 72.9443C186.05 73.2178 186.146 73.5527 186.146 73.9492C186.146 74.61 185.881 75.141 185.353 75.542C184.824 75.9385 184.138 76.1367 183.295 76.1367C182.702 76.1367 182.178 76.0319 181.723 75.8223C181.267 75.6126 180.909 75.321 180.649 74.9473C180.394 74.569 180.267 74.1611 180.267 73.7236H181.531C181.554 74.1475 181.723 74.4847 182.037 74.7354C182.356 74.9814 182.775 75.1045 183.295 75.1045C183.773 75.1045 184.156 75.0088 184.443 74.8174C184.735 74.6214 184.881 74.3617 184.881 74.0381Z" fill="white"/>
</g>
<defs>
<linearGradient id="paint0_linear" x1="229.842" y1="178.41" x2="229.842" y2="90.7498" gradientUnits="userSpaceOnUse">
<stop stop-color="#808080" stop-opacity="0.25"/>
<stop offset="0.54" stop-color="#808080" stop-opacity="0.12"/>
<stop offset="1" stop-color="#808080" stop-opacity="0.1"/>
</linearGradient>
<clipPath id="clip0">
<rect width="330" height="240" fill="white"/>
</clipPath>
</defs>
</svg>
