<svg width="36" height="36" viewBox="0 0 36 36" fill="none" xmlns="http://www.w3.org/2000/svg">
<rect width="36" height="36" rx="18" fill="#7B50FF"/>
<path d="M22.2539 9H13.7461C11.1291 9 9 11.1291 9 13.7461V14.8008C9 15.6731 9.7097 16.3828 10.582 16.3828H12.6914C13.5637 16.3828 14.2734 15.6731 14.2734 14.8008V13.7461C14.2734 13.4553 14.51 13.2188 14.8008 13.2188H21.1992C21.49 13.2188 21.7266 13.4553 21.7266 13.7461V14.8008C21.7266 15.6731 22.4363 16.3828 23.3086 16.3828H25.418C26.2903 16.3828 27 15.6731 27 14.8008V13.7461C27 11.1291 24.8709 9 22.2539 9ZM13.2188 14.8008C13.2188 15.0916 12.9822 15.3281 12.6914 15.3281H10.582C10.2913 15.3281 10.0547 15.0916 10.0547 14.8008V14.2734H13.2188V14.8008ZM21.1992 12.1641H14.8008C14.1133 12.1641 13.5271 12.605 13.3095 13.2188H10.0925C10.3492 11.4323 11.8897 10.0547 13.7461 10.0547H22.2539C24.1103 10.0547 25.6508 11.4323 25.9075 13.2188H22.6905C22.4729 12.605 21.8867 12.1641 21.1992 12.1641ZM25.9453 14.8008C25.9453 15.0916 25.7087 15.3281 25.418 15.3281H23.3086C23.0178 15.3281 22.7812 15.0916 22.7812 14.8008V14.2734H25.9453V14.8008Z" fill="white"/>
<path d="M25.744 23.7739C22.8713 16.79 23.0437 17.2014 23.0134 17.1509C22.7291 16.6771 22.2093 16.3828 21.6568 16.3828H20.6719V15.8555C20.6719 14.9831 19.9622 14.2734 19.0898 14.2734H16.9102C16.0378 14.2734 15.3281 14.9831 15.3281 15.8555V16.3828H14.3433C13.6602 16.3828 13.1048 16.848 12.9512 17.2216L10.2568 23.7721C10.1227 24.0945 10.0547 24.4351 10.0547 24.7843V25.418C10.0547 26.2903 10.7644 27 11.6367 27H24.3633C25.2356 27 25.9453 26.2903 25.9453 25.418V24.7843C25.9453 24.4351 25.8773 24.0944 25.744 23.7739ZM16.3828 15.8555C16.3828 15.5647 16.6194 15.3281 16.9102 15.3281H19.0898C19.3806 15.3281 19.6172 15.5647 19.6172 15.8555V16.3828H16.3828V15.8555ZM24.8906 25.418C24.8906 25.7087 24.6541 25.9453 24.3633 25.9453H11.6367C11.3459 25.9453 11.1094 25.7087 11.1094 25.418V24.7843C11.1094 24.5748 11.1502 24.3705 11.2314 24.1751L13.9088 17.6659C14.0065 17.5243 14.17 17.4375 14.3433 17.4375C14.5054 17.4375 21.2566 17.4375 21.6568 17.4375C21.83 17.4375 21.9935 17.5243 22.0912 17.6659L24.7694 24.177C24.8498 24.3705 24.8906 24.5748 24.8906 24.7843V25.418Z" fill="white"/>
<path d="M18.0352 18.4922C16.2905 18.4922 14.8711 19.9116 14.8711 21.6562C14.8711 23.4009 16.2905 24.8203 18.0352 24.8203C19.7798 24.8203 21.1992 23.4009 21.1992 21.6562C21.1992 19.9116 19.7798 18.4922 18.0352 18.4922ZM18.0352 23.7656C16.872 23.7656 15.9258 22.8194 15.9258 21.6562C15.9258 20.4931 16.872 19.5469 18.0352 19.5469C19.1983 19.5469 20.1445 20.4931 20.1445 21.6562C20.1445 22.8194 19.1983 23.7656 18.0352 23.7656Z" fill="white"/>
<path d="M18.0352 20.6016C17.4536 20.6016 16.9805 21.0747 16.9805 21.6562C16.9805 22.2378 17.4536 22.7109 18.0352 22.7109C18.6167 22.7109 19.0898 22.2378 19.0898 21.6562C19.0898 21.0747 18.6167 20.6016 18.0352 20.6016Z" fill="white"/>
</svg>
