<svg width="36" height="36" viewBox="0 0 36 36" fill="none" xmlns="http://www.w3.org/2000/svg">
<rect width="36" height="36" rx="18" fill="#008FFF"/>
<g clip-path="url(#clip0)">
<path d="M25.3125 11.25H10.6875C9.75696 11.25 9 12.007 9 12.9375V23.0625C9 23.9931 9.75696 24.75 10.6875 24.75H25.3125C26.243 24.75 27 23.9931 27 23.0625V12.9375C27 12.007 26.243 11.25 25.3125 11.25ZM25.3125 12.375C25.3889 12.375 25.4616 12.3909 25.5281 12.4185L18 18.9432L10.4719 12.4185C10.5383 12.3909 10.611 12.375 10.6875 12.375H25.3125ZM25.3125 23.625H10.6875C10.3772 23.625 10.125 23.3729 10.125 23.0625V13.6071L17.6314 20.1127C17.7374 20.2044 17.8687 20.25 18 20.25C18.1313 20.25 18.2626 20.2044 18.3686 20.1127L25.875 13.6071V23.0625C25.875 23.3729 25.6228 23.625 25.3125 23.625Z" fill="white"/>
</g>
<defs>
<clipPath id="clip0">
<rect x="9" y="9" width="18" height="18" fill="white"/>
</clipPath>
</defs>
</svg>
