<svg width="22" height="22" viewBox="0 0 22 22" fill="none" xmlns="http://www.w3.org/2000/svg">
<path fill-rule="evenodd" clip-rule="evenodd" d="M8.85258 22H4.6088C4.0897 22.0007 3.59165 21.7684 3.22436 21.3542C2.85707 20.9401 2.6507 20.378 2.6507 19.7919V9.98532L1.58731 10.9265C1.31249 11.1738 0.941279 11.2356 0.614952 11.0883C0.288625 10.9411 0.0573816 10.6074 0.00923754 10.2144C-0.0389065 9.82136 0.103454 9.42938 0.382134 9.18765L10.4782 0.242198C10.8355 -0.0807328 11.3433 -0.0807328 11.7005 0.242198L21.6328 9.19869C22.0547 9.57978 22.1231 10.2749 21.7856 10.7512C21.4481 11.2276 20.8324 11.3048 20.4105 10.9238L19.5305 10.1316V19.7919C19.5305 21.0114 18.6549 22 17.5748 22H13.3286C12.7885 22 12.3508 21.5057 12.3508 20.896V16.3252C12.3712 15.802 12.1356 15.3083 11.7372 15.0398C11.3389 14.7712 10.8422 14.7712 10.4439 15.0398C10.0456 15.3083 9.80999 15.802 9.83041 16.3252V20.896C9.83041 21.5057 9.39262 22 8.85258 22ZM17.5749 8.36513L11.087 2.52202L4.60891 8.24645V19.7919H7.8773V16.3252C7.84504 15.0042 8.45082 13.7676 9.45908 13.0963C10.4673 12.425 11.7189 12.425 12.7272 13.0963C13.7355 13.7676 14.3412 15.0042 14.309 16.3252V19.7919H17.5749V8.36513Z" fill="#1A303E"/>
</svg>
