<svg width="23" height="23" viewBox="0 0 23 23" fill="none" xmlns="http://www.w3.org/2000/svg">
<path fill-rule="evenodd" clip-rule="evenodd" d="M21.8051 9.82106C22.2691 9.82723 22.6603 10.1581 22.7298 10.6031L22.7536 10.6491C22.7552 10.6797 22.7552 10.7104 22.7536 10.7411V16.0081C22.7536 16.5162 22.3289 16.9281 21.8051 16.9281C21.2813 16.9281 20.8567 16.5162 20.8567 16.0081V12.8801L15.1896 17.9861C14.5358 18.5791 13.647 18.8646 12.7575 18.7673C11.868 18.6699 11.0671 18.1995 10.5659 17.4801C10.3887 17.2236 10.1108 17.0488 9.79707 16.9967C9.48335 16.9445 9.16129 17.0195 8.90614 17.2041L1.5082 22.4251C1.23288 22.6182 0.872276 22.6541 0.562215 22.5194C0.252154 22.3847 0.0397438 22.0997 0.00499821 21.7719C-0.0297474 21.4441 0.11845 21.1232 0.393765 20.9301L7.7917 15.6861C9.08591 14.777 10.8834 14.9875 11.9175 16.1691V8.57906H1.76902C1.37903 8.58334 1.02609 8.35561 0.879439 8.00505C0.732785 7.6545 0.822317 7.2526 1.10511 6.99206L3.99789 4.27806L1.10511 1.58706C0.822317 1.32652 0.732785 0.924619 0.879439 0.574065C1.02609 0.223511 1.37903 -0.00422266 1.76902 5.93567e-05H12.8896C13.4135 5.93567e-05 13.8381 0.411957 13.8381 0.920059V16.7211L13.9092 16.6521L19.4103 11.6611H16.3752C15.8514 11.6611 15.4268 11.2492 15.4268 10.7411C15.4268 10.233 15.8514 9.82106 16.3752 9.82106H21.8051ZM4.11645 1.84006L6.03706 3.63406V3.61106C6.22555 3.78475 6.33227 4.02588 6.33227 4.27806C6.33227 4.53024 6.22555 4.77137 6.03706 4.94506L4.11645 6.73906H11.9175V1.84006H4.11645Z" fill="#C6C6C6"/>
</svg>
