<svg width="8" height="14" viewBox="0 0 8 14" fill="none" xmlns="http://www.w3.org/2000/svg">
<path fill-rule="evenodd" clip-rule="evenodd" d="M7.85349 7.05197C7.84186 7.22166 7.77607 7.3824 7.66663 7.50849L2.41663 13.5955C2.24242 13.7976 1.97807 13.8875 1.72317 13.8311C1.46827 13.7748 1.26154 13.5808 1.18085 13.3223C1.10017 13.0638 1.15778 12.78 1.332 12.5778L6.14449 6.99966L1.332 1.42154C1.15775 1.21937 1.10011 0.935549 1.18079 0.677005C1.26147 0.418461 1.46822 0.224479 1.72314 0.168139C1.97807 0.1118 2.24243 0.201664 2.41663 0.403875L7.66663 6.49083C7.7992 6.64374 7.86663 6.84623 7.85349 7.05197Z" fill="#1A303E"/>
</svg>
