<svg width="18" height="18" viewBox="0 0 18 18" fill="none" xmlns="http://www.w3.org/2000/svg">
<path d="M14.2522 12.748C13.0146 12.748 12.0078 13.7549 12.0078 14.9924C12.0078 16.23 13.0147 17.2368 14.2522 17.2368C15.4897 17.2368 16.4966 16.23 16.4966 14.9924C16.4966 13.7549 15.4897 12.748 14.2522 12.748ZM14.2522 15.8902C13.7571 15.8902 13.3544 15.4875 13.3544 14.9924C13.3544 14.4973 13.7571 14.0947 14.2522 14.0947C14.7473 14.0947 15.15 14.4973 15.15 14.9924C15.15 15.4875 14.7473 15.8902 14.2522 15.8902Z" fill="black"/>
<path d="M17.8569 4.07387C17.7294 3.91071 17.5339 3.81554 17.3268 3.81554H4.1562L3.5502 1.28005C3.47771 0.977076 3.2068 0.763184 2.89527 0.763184H0.673317C0.301431 0.763148 0 1.06458 0 1.43646C0 1.80835 0.301431 2.10978 0.673317 2.10978H2.36381L4.55209 11.266C4.62459 11.5693 4.8955 11.7829 5.20702 11.7829H15.6884C15.9979 11.7829 16.2677 11.5719 16.342 11.2716L17.9804 4.65064C18.03 4.44958 17.9844 4.23703 17.8569 4.07387ZM15.1616 10.4363H5.73848L4.47802 5.16217H16.4665L15.1616 10.4363Z" fill="black"/>
<path d="M6.1045 12.748C4.86692 12.748 3.86011 13.7549 3.86011 14.9924C3.86011 16.23 4.86695 17.2368 6.1045 17.2368C7.34204 17.2368 8.34888 16.23 8.34888 14.9924C8.34888 13.7549 7.34204 12.748 6.1045 12.748ZM6.1045 15.8902C5.60939 15.8902 5.20674 15.4875 5.20674 14.9924C5.20674 14.4973 5.60939 14.0947 6.1045 14.0947C6.5996 14.0947 7.00225 14.4973 7.00225 14.9924C7.00225 15.4875 6.5996 15.8902 6.1045 15.8902Z" fill="black"/>
</svg>
