<svg width="22" height="22" viewBox="0 0 22 22" fill="none" xmlns="http://www.w3.org/2000/svg">
<path d="M11 0C4.93488 0 0 4.93488 0 11C0 17.0651 4.93488 22 11 22C17.0651 22 22 17.0651 22 11C22 4.93488 17.0651 0 11 0ZM11 20.625C5.69387 20.625 1.375 16.3075 1.375 11C1.375 5.6925 5.69387 1.375 11 1.375C16.3061 1.375 20.625 5.6925 20.625 11C20.625 16.3075 16.3061 20.625 11 20.625Z" fill="black"/>
<path d="M14.4374 8.25H13.6797C13.5766 7.7385 13.3484 7.2765 13.0445 6.875H14.4374C14.8169 6.875 15.1249 6.567 15.1249 6.1875C15.1249 5.808 14.8169 5.5 14.4374 5.5H10.3124H7.56236C7.18286 5.5 6.87486 5.808 6.87486 6.1875C6.87486 6.567 7.18286 6.875 7.56236 6.875H10.3124C11.2075 6.875 11.9637 7.45113 12.2484 8.25H7.56236C7.18286 8.25 6.87486 8.558 6.87486 8.9375C6.87486 9.317 7.18286 9.625 7.56236 9.625H12.2484C11.9637 10.4239 11.2075 11 10.3124 11H7.56236C7.47298 11 7.38361 11.0179 7.29973 11.0522C7.13198 11.1224 6.99723 11.2558 6.92711 11.4249C6.85698 11.5926 6.85698 11.7824 6.92711 11.9501C6.96148 12.0354 7.01236 12.111 7.07698 12.1743L12.5756 17.6729C12.7104 17.8076 12.8864 17.875 13.0624 17.875C13.2384 17.875 13.4144 17.8076 13.5491 17.6742C13.8172 17.4061 13.8172 16.9703 13.5491 16.7021L9.22198 12.375H10.3124C11.9734 12.375 13.3607 11.1925 13.6797 9.625H14.4374C14.8169 9.625 15.1249 9.317 15.1249 8.9375C15.1249 8.558 14.8169 8.25 14.4374 8.25Z" fill="black"/>
</svg>
