<svg width="328" height="316" viewBox="0 0 328 316" fill="none" xmlns="http://www.w3.org/2000/svg">
<rect width="328" height="316" rx="11.7" fill="#EBE7D3"/>
<mask id="mask0" mask-type="alpha" maskUnits="userSpaceOnUse" x="0" y="0" width="328" height="316">
<rect width="328" height="316" rx="11.7" fill="white"/>
</mask>
<g mask="url(#mask0)">
<path fill-rule="evenodd" clip-rule="evenodd" d="M367.129 183.138C363.405 153.558 336.206 132.573 306.378 136.266C289.783 138.321 275.879 147.588 267.442 160.494C256.017 157.296 243.771 156.262 231.251 157.813C181.057 164.029 145.448 209.42 151.715 259.197C157.983 308.974 203.754 344.288 253.948 338.072C303.111 331.985 338.275 288.314 333.811 239.751C355.979 230.731 370.241 207.849 367.129 183.138Z" fill="#FFDC99"/>
<mask id="mask1" mask-type="alpha" maskUnits="userSpaceOnUse" x="319" y="244" width="35" height="35">
<path fill-rule="evenodd" clip-rule="evenodd" d="M319.611 244.365H353.566V278.104H319.611V244.365Z" fill="white"/>
</mask>
<g mask="url(#mask1)">
<path fill-rule="evenodd" clip-rule="evenodd" d="M353.566 261.235C353.566 270.552 345.965 278.104 336.588 278.104C327.212 278.104 319.611 270.552 319.611 261.235C319.611 251.918 327.212 244.365 336.588 244.365C345.965 244.365 353.566 251.918 353.566 261.235Z" fill="#EBE7D3"/>
</g>
<path fill-rule="evenodd" clip-rule="evenodd" d="M348.969 316.939C348.969 319.649 312.491 321.846 267.491 321.846C222.493 321.846 186.014 319.649 186.014 316.939C186.014 314.228 222.493 312.031 267.491 312.031C312.491 312.031 348.969 314.228 348.969 316.939Z" fill="#CDCDCD"/>
<path fill-rule="evenodd" clip-rule="evenodd" d="M284.745 289.357H214.403C208.2 289.357 203.05 284.239 203.05 278.076C203.05 271.912 208.083 266.795 214.403 266.795H284.745V289.357Z" fill="white"/>
<path fill-rule="evenodd" clip-rule="evenodd" d="M286.852 289.705C286.852 288.775 286.032 287.961 285.096 287.961H214.403C209.019 287.961 204.689 283.658 204.689 278.308C204.689 272.958 209.019 268.655 214.403 268.655H285.096C286.032 268.655 286.852 267.841 286.852 266.91C286.852 265.98 286.032 265.166 285.096 265.166H214.403C207.147 265.166 201.295 270.981 201.295 278.191C201.295 285.402 207.147 291.217 214.403 291.217H285.096C286.032 291.217 286.852 290.635 286.852 289.705Z" fill="#FFAC00"/>
<path fill-rule="evenodd" clip-rule="evenodd" d="M288.346 314.153H202.291V291.672H288.346C290.8 291.672 292.791 293.649 292.791 296.088V309.737C292.791 312.176 290.8 314.153 288.346 314.153Z" fill="white"/>
<path fill-rule="evenodd" clip-rule="evenodd" d="M286.371 315.758H200.719C199.826 315.758 199.103 315.04 199.103 314.152C199.103 313.265 199.826 312.547 200.719 312.547H286.371C289.044 312.547 291.219 310.386 291.219 307.73V298.095C291.219 295.438 289.044 293.277 286.371 293.277H200.719C199.826 293.277 199.103 292.559 199.103 291.672C199.103 290.784 199.826 290.065 200.719 290.065H286.371C290.826 290.065 294.451 293.667 294.451 298.095V307.73C294.451 312.156 290.826 315.758 286.371 315.758Z" fill="#2B0907"/>
<path fill-rule="evenodd" clip-rule="evenodd" d="M202.291 294.882H286.326C287.219 294.882 287.943 295.601 287.943 296.488C287.943 297.374 287.219 298.094 286.326 298.094H202.291V294.882Z" fill="#CDCDCD"/>
<path fill-rule="evenodd" clip-rule="evenodd" d="M202.291 300.771H286.326C287.219 300.771 287.943 301.489 287.943 302.376C287.943 303.263 287.219 303.982 286.326 303.982H202.291V300.771Z" fill="#CDCDCD"/>
<path fill-rule="evenodd" clip-rule="evenodd" d="M202.291 307.261H286.326C287.219 307.261 287.943 307.979 287.943 308.866C287.943 309.753 287.219 310.472 286.326 310.472H202.291V307.261Z" fill="#CDCDCD"/>
<path fill-rule="evenodd" clip-rule="evenodd" d="M284.814 286.462H210.047C209.253 286.462 208.609 285.744 208.609 284.857C208.609 283.97 209.253 283.251 210.047 283.251H284.814V286.462Z" fill="#CDCDCD"/>
<path fill-rule="evenodd" clip-rule="evenodd" d="M284.814 280.574H210.047C209.253 280.574 208.609 279.855 208.609 278.968C208.609 278.081 209.253 277.362 210.047 277.362H284.814V280.574Z" fill="#CDCDCD"/>
<path fill-rule="evenodd" clip-rule="evenodd" d="M284.814 274.083H210.047C209.253 274.083 208.609 273.364 208.609 272.477C208.609 271.591 209.253 270.872 210.047 270.872H284.814V274.083Z" fill="#CDCDCD"/>
<path fill-rule="evenodd" clip-rule="evenodd" d="M203.517 266.612V242.049H287.977C289.115 242.049 290.037 242.965 290.037 244.096V264.565C290.037 265.695 289.115 266.612 287.977 266.612H203.517Z" fill="#FF6B32"/>
<path fill-rule="evenodd" clip-rule="evenodd" d="M207.637 246.143V260.471C207.637 261.602 208.559 262.518 209.697 262.518H283.857C286.133 262.518 287.977 264.351 287.977 266.612H271.497H234.417H203.517V242.049C205.792 242.049 207.637 243.882 207.637 246.143Z" fill="#CDCDCD"/>
<path fill-rule="evenodd" clip-rule="evenodd" d="M275.617 266.612H277.677V242.049H275.617V266.612Z" fill="#CDCDCD"/>
<path fill-rule="evenodd" clip-rule="evenodd" d="M271.497 266.612H273.557V242.049H271.497V266.612Z" fill="#CDCDCD"/>
<path fill-rule="evenodd" clip-rule="evenodd" d="M217.937 266.612H219.997V242.049H217.937V266.612Z" fill="#CDCDCD"/>
<path fill-rule="evenodd" clip-rule="evenodd" d="M213.817 266.612H215.877V242.049H213.817V266.612Z" fill="#CDCDCD"/>
<path fill-rule="evenodd" clip-rule="evenodd" d="M230.297 256.12V252.538C230.297 252.397 230.412 252.282 230.554 252.282H262.999C263.142 252.282 263.257 252.397 263.257 252.538V256.12C263.257 256.262 263.142 256.376 262.999 256.376H230.554C230.412 256.376 230.297 256.262 230.297 256.12Z" fill="#E1E3E5"/>
<path fill-rule="evenodd" clip-rule="evenodd" d="M289.113 241.977L309.012 239.683L317.797 314.914C317.929 316.037 317.292 317.033 316.376 317.138L299.794 319.05C298.878 319.156 298.03 318.331 297.898 317.208L289.113 241.977Z" fill="#FFB800"/>
<path fill-rule="evenodd" clip-rule="evenodd" d="M306.171 244.131L294.563 245.47C293.647 245.576 293.011 246.571 293.142 247.694L300.74 312.759C301.002 315.005 299.73 316.997 297.898 317.208L295.999 300.942L292.675 272.476L289.113 241.977L309.012 239.683C309.275 241.929 308.002 243.92 306.171 244.131Z" fill="#EF9720"/>
<path fill-rule="evenodd" clip-rule="evenodd" d="M317.085 308.815L297.186 311.109L296.949 309.075L316.847 306.781L317.085 308.815Z" fill="#EF9720"/>
<path fill-rule="evenodd" clip-rule="evenodd" d="M316.61 304.748L296.711 307.042L296.474 305.009L316.373 302.715L316.61 304.748Z" fill="#EF9720"/>
<path fill-rule="evenodd" clip-rule="evenodd" d="M310.675 253.916L290.776 256.21L290.538 254.177L310.437 251.883L310.675 253.916Z" fill="#EF9720"/>
<path fill-rule="evenodd" clip-rule="evenodd" d="M310.199 249.849L290.301 252.143L290.063 250.11L309.962 247.816L310.199 249.849Z" fill="#EF9720"/>
<path fill-rule="evenodd" clip-rule="evenodd" d="M300.936 269.463L303.838 269.128C303.952 269.115 304.058 269.218 304.075 269.358L306.627 291.216C306.644 291.356 306.564 291.481 306.45 291.494L303.548 291.829C303.433 291.842 303.327 291.739 303.311 291.598L300.758 269.74C300.742 269.6 300.821 269.476 300.936 269.463Z" fill="#EF9720"/>
<path fill-rule="evenodd" clip-rule="evenodd" d="M336.64 314.299L316.898 316.688L310.686 266.014C310.576 265.111 311.223 264.29 312.132 264.18L328.583 262.189C329.491 262.079 330.317 262.722 330.428 263.625L336.64 314.299Z" fill="#2B0907"/>
<path fill-rule="evenodd" clip-rule="evenodd" d="M326.005 297.338L323.126 297.686C323.012 297.7 322.909 297.62 322.895 297.507L321.542 286.473C321.529 286.36 321.61 286.258 321.723 286.243L324.602 285.895C324.715 285.882 324.819 285.962 324.833 286.075L326.185 297.109C326.199 297.222 326.118 297.324 326.005 297.338Z" fill="#E1E3E5"/>
<path fill-rule="evenodd" clip-rule="evenodd" d="M324.402 284.261L321.523 284.609C321.409 284.623 321.306 284.543 321.292 284.43L320.741 279.935C320.727 279.822 320.808 279.719 320.921 279.705L323.8 279.357C323.914 279.343 324.017 279.424 324.031 279.537L324.582 284.032C324.596 284.145 324.515 284.247 324.402 284.261Z" fill="#E1E3E5"/>
<path fill-rule="evenodd" clip-rule="evenodd" d="M279.361 272.842V290.054L274.094 284.239L269.179 289.473V272.842H279.361Z" fill="#FF6B32"/>
<mask id="mask2" mask-type="alpha" maskUnits="userSpaceOnUse" x="211" y="153" width="68" height="59">
<path fill-rule="evenodd" clip-rule="evenodd" d="M211.044 153.357H278.115V211.071H211.044V153.357Z" fill="white"/>
</mask>
<g mask="url(#mask2)">
<path fill-rule="evenodd" clip-rule="evenodd" d="M256.891 153.359C253.157 153.402 249.383 154.889 247.166 157.961C243.611 162.887 243.055 168.559 236.632 170.92C233.552 172.052 230.316 171.944 227.201 172.703C224.745 173.302 222.311 174.454 220.193 175.809C215.848 178.589 212.414 182.833 211.356 187.931C209.573 196.518 215.704 203.726 223.011 207.382C241.833 216.801 266.373 207.344 275.042 188.563C277.328 183.61 278.41 178.138 278.045 172.693C277.573 165.644 273.473 159.565 267.646 156.19C264.471 154.351 260.783 153.314 256.891 153.359Z" fill="#2B0907"/>
</g>
<mask id="mask3" mask-type="alpha" maskUnits="userSpaceOnUse" x="181" y="153" width="173" height="187">
<path fill-rule="evenodd" clip-rule="evenodd" d="M181 339H353.566V153.357H181V339Z" fill="white"/>
</mask>
<g mask="url(#mask3)">
<path fill-rule="evenodd" clip-rule="evenodd" d="M251.745 233.26H274.11V194.348H251.745V233.26Z" fill="#EBEBEB"/>
<path fill-rule="evenodd" clip-rule="evenodd" d="M269.091 168.365C269.917 173.943 267.218 178.958 263.062 179.566C258.906 180.173 254.866 176.144 254.04 170.566C253.214 164.988 255.913 159.973 260.069 159.365C264.226 158.758 268.265 162.786 269.091 168.365Z" fill="#FF6B32"/>
<path fill-rule="evenodd" clip-rule="evenodd" d="M258.919 177.972C258.919 177.972 260.143 182.441 259.087 186.921C259.087 186.921 263.436 189.426 266.321 186.144C266.321 186.144 264.198 182.096 264.936 176.575C264.936 176.575 259.309 173.261 258.919 177.972Z" fill="#FF6B32"/>
<path fill-rule="evenodd" clip-rule="evenodd" d="M259.087 186.92C259.087 186.92 251.676 186.619 246.26 193.38L278.299 191.438C278.299 191.438 275.345 185.244 266.321 186.144L259.087 186.92Z" fill="#FF6B32"/>
<path fill-rule="evenodd" clip-rule="evenodd" d="M281.362 239.621C281.3 238.931 268.617 234.277 267.554 233.832C261.657 231.368 255.693 228.756 249.344 227.69C245.555 227.054 229.235 224.713 230.74 232.504C231.555 236.725 240.149 238.956 243.637 239.87C249.598 241.431 255.75 242.303 261.868 242.987C268.39 243.717 275.025 244.345 281.598 244.33L281.362 239.621Z" fill="#FFAC00"/>
<path fill-rule="evenodd" clip-rule="evenodd" d="M284.02 245.259L281.651 245.377L281.283 238.052L283.652 237.935L284.02 245.259Z" fill="#FFAC00"/>
<path fill-rule="evenodd" clip-rule="evenodd" d="M283.768 240.239L287.782 240.04L287.97 243.768L283.955 243.967L283.768 240.239Z" fill="#FF6B32"/>
<path fill-rule="evenodd" clip-rule="evenodd" d="M294.983 238.633L283.426 240.04L283.823 244.003L295.351 245.017C296.681 245.134 297.927 244.294 298.257 243.008C298.489 242.103 298.495 241.017 297.831 239.954C297.233 238.999 296.107 238.496 294.983 238.633Z" fill="#2B0907"/>
<path fill-rule="evenodd" clip-rule="evenodd" d="M240.955 240.466C241.017 239.776 253.7 235.121 254.762 234.677C260.66 232.213 266.624 229.601 272.973 228.535C276.761 227.899 293.081 225.557 291.577 233.349C290.762 237.569 282.168 239.801 278.68 240.715C272.718 242.276 266.567 243.148 260.448 243.832C253.926 244.561 247.291 245.189 240.719 245.175L240.955 240.466Z" fill="#FFB800"/>
<path fill-rule="evenodd" clip-rule="evenodd" d="M238.297 246.104L240.666 246.221L241.034 238.897L238.665 238.779L238.297 246.104Z" fill="#FFB800"/>
<path fill-rule="evenodd" clip-rule="evenodd" d="M238.549 241.085L234.534 240.886L234.347 244.614L238.362 244.812L238.549 241.085Z" fill="#FF6B32"/>
<path fill-rule="evenodd" clip-rule="evenodd" d="M227.333 239.477L238.89 240.885L238.493 244.848L226.966 245.862C225.636 245.979 224.39 245.139 224.06 243.853C223.828 242.948 223.821 241.862 224.486 240.8C225.084 239.843 226.209 239.34 227.333 239.477Z" fill="#2B0907"/>
<path fill-rule="evenodd" clip-rule="evenodd" d="M262.989 218.357V237.767L253.425 233.98L253.32 214.097L262.989 218.357Z" fill="#231704"/>
<path fill-rule="evenodd" clip-rule="evenodd" d="M262.94 218.462V237.871L272.503 234.084L272.609 214.201L262.94 218.462Z" fill="#231704"/>
<path fill-rule="evenodd" clip-rule="evenodd" d="M262.989 218.357C262.989 218.357 260.371 212.594 254.301 214.529L262.989 218.357Z" fill="#FF6B32"/>
<path fill-rule="evenodd" clip-rule="evenodd" d="M271.194 214.741C271.194 214.741 265.36 212.44 262.989 218.357L271.194 214.741Z" fill="#FF6B32"/>
<path fill-rule="evenodd" clip-rule="evenodd" d="M265.343 157.226C263.326 156.358 260.503 156.414 258.784 156.614C256.077 156.928 253.458 157.913 251.095 159.239C249.706 160.018 248.343 160.945 247.47 162.271C246.597 163.598 246.311 165.406 247.121 166.771C247.552 167.498 248.247 168.037 248.982 168.46C251.578 169.955 254.806 170.155 257.703 169.379C260.6 168.604 263.188 166.921 265.381 164.886C266.799 163.57 268.416 160.943 267.354 158.937C266.938 158.151 266.216 157.602 265.343 157.226Z" fill="#2B0907"/>
<path fill-rule="evenodd" clip-rule="evenodd" d="M271.993 169.241C271.993 170.697 270.806 171.876 269.341 171.876C267.877 171.876 266.689 170.697 266.689 169.241C266.689 167.786 267.877 166.606 269.341 166.606C270.806 166.606 271.993 167.786 271.993 169.241Z" fill="#FF6B32"/>
<path fill-rule="evenodd" clip-rule="evenodd" d="M256.963 191.774C256.091 190.734 244.763 202.456 244.114 203.416C241.3 207.578 239.789 213.431 243.414 218.125C246.652 222.318 251.829 224.783 254.819 229.135C255.699 230.428 251.716 229.569 251.122 229.38C244.702 227.338 237.677 220.957 236.013 214.664C234.863 210.317 236.013 206.083 238.126 202.445C239.93 199.342 242.365 196.609 245.04 194.183C245.673 193.609 253.071 187.494 253.637 188.117C253.637 188.117 256.961 191.771 256.963 191.774Z" fill="#FF6B32"/>
<path fill-rule="evenodd" clip-rule="evenodd" d="M269.23 190.33C270.212 189.39 280.189 202.266 280.729 203.29C283.071 207.733 283.934 213.714 279.816 217.988C276.139 221.806 270.722 223.698 267.274 227.702C266.258 228.891 270.311 228.468 270.922 228.344C277.529 227.008 285.21 221.424 287.553 215.347C289.171 211.151 288.492 206.817 286.788 202.972C285.335 199.694 283.213 196.713 280.819 194.013C280.252 193.374 273.568 186.496 272.937 187.054C272.937 187.054 269.232 190.327 269.23 190.33Z" fill="#FF6B32"/>
<path fill-rule="evenodd" clip-rule="evenodd" d="M246.549 193.13C246.438 193.136 246.33 193.161 246.227 193.202C244.596 193.858 242.966 194.514 241.335 195.169C241.173 195.234 240.999 195.31 240.914 195.461C240.781 195.698 240.925 195.989 241.072 196.217C241.987 197.64 243.13 198.947 244.565 199.851C245.8 200.628 247.211 201.084 248.623 201.46C259.337 204.313 271.155 202.822 280.812 197.4C281.823 196.832 282.819 196.215 283.73 195.501C284.357 195.009 284.212 194.016 283.457 193.75C283.194 193.658 282.939 193.539 282.702 193.405C281.824 192.91 281.061 192.22 280.143 191.802C278.669 191.129 276.971 191.229 275.353 191.343C266.066 191.997 248.446 193.02 246.549 193.13Z" fill="white"/>
<path fill-rule="evenodd" clip-rule="evenodd" d="M265.349 173.319C265.349 175.119 263.882 176.577 262.07 176.577C260.26 176.577 258.791 175.119 258.791 173.319H265.349Z" fill="white"/>
<path fill-rule="evenodd" clip-rule="evenodd" d="M264.692 179.119C264.692 179.119 262.858 180.272 259.922 179.451L266.462 186.749C266.462 186.749 264.673 184.213 264.692 179.119Z" fill="#FF8C60"/>
</g>
</g>
</svg>
