<svg width="7" height="14" viewBox="0 0 7 14" fill="none" xmlns="http://www.w3.org/2000/svg">
<path fill-rule="evenodd" clip-rule="evenodd" d="M6.85336 6.94803C6.84174 6.77834 6.77595 6.6176 6.66651 6.49151L1.41651 0.404548C1.2423 0.202373 0.97795 0.112538 0.72305 0.168883C0.468149 0.225229 0.261419 0.419194 0.180732 0.677715C0.100045 0.936236 0.15766 1.22004 0.331873 1.42221L5.14437 7.00034L0.331873 12.5785C0.157624 12.7806 0.0999837 13.0645 0.180667 13.323C0.261351 13.5815 0.468099 13.7755 0.723021 13.8319C0.977943 13.8882 1.2423 13.7983 1.41651 13.5961L6.66651 7.50917C6.79908 7.35626 6.86651 7.15377 6.85336 6.94803Z" fill="#5BCF7F"/>
</svg>
