<svg width="14" height="8" viewBox="0 0 14 8" fill="none" xmlns="http://www.w3.org/2000/svg">
<path fill-rule="evenodd" clip-rule="evenodd" d="M6.94778 0.146148C6.77809 0.157777 6.61736 0.223564 6.49126 0.333005L0.404304 5.583C0.202129 5.75722 0.112294 6.02156 0.168639 6.27646C0.224984 6.53136 0.41895 6.73809 0.677471 6.81878C0.935991 6.89947 1.21979 6.84185 1.42197 6.66764L7.00009 1.85514L12.5782 6.66764C12.7804 6.84189 13.0642 6.89953 13.3228 6.81884C13.5813 6.73816 13.7753 6.53141 13.8316 6.27649C13.888 6.02157 13.7981 5.75721 13.5959 5.583L7.50892 0.333005C7.35602 0.200432 7.15352 0.133002 6.94778 0.146148Z" fill="#1A303E"/>
</svg>
