<svg width="28" height="23" viewBox="0 0 28 23" fill="none" xmlns="http://www.w3.org/2000/svg">
<path fill-rule="evenodd" clip-rule="evenodd" d="M9.68421 0.109375C8.86163 0.109375 8.17105 0.79995 8.17105 1.62253V3.13569H3.02632C1.36544 3.13569 0 4.50113 0 6.16201V19.4778C0 21.1387 1.36544 22.5041 3.02632 22.5041H24.2105C25.8714 22.5041 27.2368 21.1387 27.2368 19.4778V6.16201C27.2368 4.50113 25.8714 3.13569 24.2105 3.13569H19.0658V1.62253C19.0658 0.79995 18.3752 0.109375 17.5526 0.109375H9.68421ZM9.98684 1.92516H17.25V3.13569H9.98684V1.92516ZM4.53003 4.95148H3.02632C2.33998 4.95104 1.81579 5.47567 1.81579 6.16201V19.4778C1.81579 20.1641 2.33998 20.6883 3.02632 20.6883H4.53003V4.95148ZM6.34582 4.95148H20.8911V20.6883H6.34582L6.34582 4.95148ZM24.2105 4.95148H22.7068V20.6883H24.2105C24.8969 20.6883 25.4211 20.1641 25.4211 19.4778V6.16201C25.4211 5.47567 24.8969 4.95148 24.2105 4.95148Z" fill="#1A303E"/>
</svg>
