<svg width="19" height="23" viewBox="0 0 19 23" fill="none" xmlns="http://www.w3.org/2000/svg">
<path fill-rule="evenodd" clip-rule="evenodd" d="M9.40908 11.239C6.37779 11.239 3.92044 8.78165 3.92044 5.75036C3.92044 2.71906 6.37779 0.261719 9.40908 0.261719C12.4404 0.261719 14.8977 2.71906 14.8977 5.75036C14.8977 8.78165 12.4404 11.239 9.40908 11.239ZM17.2538 22.739C17.9744 22.739 18.5568 22.1501 18.5568 21.4322C18.5568 16.38 14.4612 12.2844 9.40908 12.2844C4.35693 12.2844 0.261353 16.38 0.261353 21.4322C0.261353 22.1522 0.84713 22.739 1.5644 22.739H17.2538ZM1.83396 21.1708C1.97171 17.1058 5.31049 13.8526 9.40908 13.8526C13.5077 13.8526 16.8465 17.1058 16.9842 21.1708H1.83396ZM13.3295 5.75036C13.3295 7.91556 11.5743 9.67081 9.40908 9.67081C7.24387 9.67081 5.48863 7.91556 5.48863 5.75036C5.48863 3.58515 7.24387 1.8299 9.40908 1.8299C11.5743 1.8299 13.3295 3.58515 13.3295 5.75036Z" fill="#C6C6C6"/>
<path d="M1.83396 21.1708L1.5841 21.1623L1.57534 21.4208H1.83396V21.1708ZM16.9842 21.1708V21.4208H17.2428L17.2341 21.1623L16.9842 21.1708ZM3.67044 5.75036C3.67044 8.91972 6.23972 11.489 9.40908 11.489V10.989C6.51586 10.989 4.17044 8.64357 4.17044 5.75036H3.67044ZM9.40908 0.0117188C6.23972 0.0117188 3.67044 2.58099 3.67044 5.75036H4.17044C4.17044 2.85714 6.51586 0.511719 9.40908 0.511719V0.0117188ZM15.1477 5.75036C15.1477 2.58099 12.5784 0.0117188 9.40908 0.0117188V0.511719C12.3023 0.511719 14.6477 2.85714 14.6477 5.75036H15.1477ZM9.40908 11.489C12.5784 11.489 15.1477 8.91972 15.1477 5.75036H14.6477C14.6477 8.64357 12.3023 10.989 9.40908 10.989V11.489ZM18.3068 21.4322C18.3068 22.0133 17.835 22.489 17.2538 22.489V22.989C18.1137 22.989 18.8068 22.2869 18.8068 21.4322H18.3068ZM9.40908 12.5344C14.3232 12.5344 18.3068 16.5181 18.3068 21.4322H18.8068C18.8068 16.242 14.5993 12.0344 9.40908 12.0344V12.5344ZM0.511353 21.4322C0.511353 16.5181 4.495 12.5344 9.40908 12.5344V12.0344C4.21886 12.0344 0.0113525 16.242 0.0113525 21.4322H0.511353ZM1.5644 22.489C0.985801 22.489 0.511353 22.0147 0.511353 21.4322H0.0113525C0.0113525 22.2896 0.70846 22.989 1.5644 22.989V22.489ZM17.2538 22.489H1.5644V22.989H17.2538V22.489ZM9.40908 13.6026C5.17525 13.6026 1.7264 16.9631 1.5841 21.1623L2.08381 21.1793C2.21701 17.2485 5.44572 14.1026 9.40908 14.1026V13.6026ZM17.2341 21.1623C17.0918 16.9631 13.6429 13.6026 9.40908 13.6026V14.1026C13.3724 14.1026 16.6011 17.2485 16.7343 21.1793L17.2341 21.1623ZM1.83396 21.4208H16.9842V20.9208H1.83396V21.4208ZM9.40908 9.92081C11.7124 9.92081 13.5795 8.05363 13.5795 5.75036H13.0795C13.0795 7.77749 11.4362 9.42081 9.40908 9.42081V9.92081ZM5.23863 5.75036C5.23863 8.05363 7.1058 9.92081 9.40908 9.92081V9.42081C7.38194 9.42081 5.73863 7.77749 5.73863 5.75036H5.23863ZM9.40908 1.5799C7.1058 1.5799 5.23863 3.44708 5.23863 5.75036H5.73863C5.73863 3.72322 7.38194 2.0799 9.40908 2.0799V1.5799ZM13.5795 5.75036C13.5795 3.44708 11.7124 1.5799 9.40908 1.5799V2.0799C11.4362 2.0799 13.0795 3.72322 13.0795 5.75036H13.5795Z" fill="#C6C6C6"/>
</svg>
