<svg width="328" height="316" viewBox="0 0 328 316" fill="none" xmlns="http://www.w3.org/2000/svg">
<rect width="328" height="316" rx="11.7" fill="#C3FFD6"/>
<mask id="mask0" mask-type="alpha" maskUnits="userSpaceOnUse" x="0" y="0" width="328" height="316">
<rect width="328" height="316" rx="11.7" fill="white"/>
</mask>
<g mask="url(#mask0)">
<path fill-rule="evenodd" clip-rule="evenodd" d="M199.424 370.74C209.478 361.567 213.747 348.118 212.115 334.935C247.845 351.074 289.857 346.375 319.622 319.214C361.044 281.42 363.068 214.446 324.145 169.625C285.222 124.804 220.09 119.107 178.67 156.901C165.34 169.064 156.097 184.25 150.979 200.744C135.505 200.446 120.155 205.712 107.985 216.816C81.3353 241.133 80.0324 284.223 105.075 313.061C112.239 321.309 120.782 327.494 129.952 331.558C128.796 343.332 132.422 355.802 140.953 365.626C156.597 383.641 182.776 385.931 199.424 370.74Z" fill="white"/>
<path d="M292.922 265.217V265.217C289.989 258.655 289.989 250.107 292.922 243.546C295.917 236.845 296.275 228.265 293.86 221.062" stroke="#74E798" stroke-width="2" stroke-linecap="round" stroke-linejoin="round"/>
<path fill-rule="evenodd" clip-rule="evenodd" d="M278.442 304.947H307.242V297.724H278.442V304.947Z" fill="#68A4C4"/>
<path fill-rule="evenodd" clip-rule="evenodd" d="M271.242 272.44H314.442V265.217H271.242V272.44Z" fill="#68A4C4"/>
<path fill-rule="evenodd" clip-rule="evenodd" d="M310.842 272.44H274.842L282.042 297.723H303.642L310.842 272.44Z" fill="#68A4C4"/>
<path fill-rule="evenodd" clip-rule="evenodd" d="M288.077 289.697L285.448 280.467L288.077 289.697Z" fill="#68A4C4"/>
<path d="M288.077 289.697L285.448 280.467" stroke="#157DB4" stroke-width="2" stroke-linecap="round" stroke-linejoin="round"/>
<path fill-rule="evenodd" clip-rule="evenodd" d="M265.031 242.334C267.934 251.516 277.708 256.598 286.86 253.685C283.956 244.503 274.183 239.421 265.031 242.334Z" fill="#74E798"/>
<path fill-rule="evenodd" clip-rule="evenodd" d="M265.031 242.334V242.334C267.934 251.516 277.708 256.598 286.86 253.685C283.956 244.503 274.183 239.421 265.031 242.334Z" stroke="#74E798" stroke-width="2" stroke-linejoin="round"/>
<path fill-rule="evenodd" clip-rule="evenodd" d="M321.83 231.899C310.838 229.51 299.997 236.514 297.616 247.542C308.608 249.931 319.449 242.927 321.83 231.899Z" fill="#74E798"/>
<path fill-rule="evenodd" clip-rule="evenodd" d="M321.83 231.899V231.899C310.838 229.51 299.997 236.514 297.616 247.542C308.608 249.931 319.449 242.927 321.83 231.899Z" stroke="#74E798" stroke-width="2" stroke-linejoin="round"/>
<path fill-rule="evenodd" clip-rule="evenodd" d="M278.724 201.207C278.724 191.788 286.335 184.151 295.724 184.151C305.112 184.151 312.724 191.788 312.724 201.207C312.724 210.627 305.112 218.263 295.724 218.263C286.335 218.263 278.724 210.627 278.724 201.207Z" fill="#FFF361"/>
<path fill-rule="evenodd" clip-rule="evenodd" d="M279.124 201.207C279.124 191.788 286.735 184.151 296.124 184.151C305.512 184.151 313.124 191.788 313.124 201.207C313.124 210.627 305.512 218.263 296.124 218.263C286.735 218.263 279.124 210.627 279.124 201.207Z" stroke="#FFF361" stroke-width="2" stroke-linejoin="round"/>
<path d="M282.924 201.208C282.924 201.76 283.371 202.208 283.924 202.208C284.476 202.208 284.924 201.76 284.924 201.208H282.924ZM289.522 192.133C289.967 191.806 290.063 191.18 289.736 190.735C289.409 190.29 288.783 190.194 288.338 190.521L289.522 192.133ZM284.296 207.084C284.541 207.579 285.142 207.781 285.636 207.536C286.131 207.29 286.333 206.69 286.088 206.195L284.296 207.084ZM285.504 204.781C285.328 204.258 284.761 203.976 284.238 204.151C283.714 204.327 283.432 204.894 283.608 205.418L285.504 204.781ZM284.924 201.208C284.924 197.487 286.734 194.182 289.522 192.133L288.338 190.521C285.059 192.93 282.924 196.823 282.924 201.208H284.924ZM286.088 206.195C285.863 205.741 285.667 205.269 285.504 204.781L283.608 205.418C283.8 205.991 284.03 206.548 284.296 207.084L286.088 206.195Z" fill="#F1E22D"/>
<path d="M299.921 197.015H301.632C302.387 197.015 303 197.614 303 198.353C303 199.092 302.387 199.691 301.632 199.691H299.921C299.453 202.142 297.335 203.965 294.789 204.107L299.647 208.657C300.165 209.196 300.194 210.026 299.716 210.598C299.447 210.867 299.074 211.012 298.689 210.999C298.342 210.99 298.007 210.872 297.732 210.665L290.411 203.907C290.021 203.516 289.913 202.934 290.137 202.435C290.358 201.968 290.844 201.678 291.368 201.698H294.311C295.557 201.684 296.645 200.866 296.979 199.691H291.368C290.613 199.691 290 199.092 290 198.353C290 197.614 290.613 197.015 291.368 197.015H296.979C296.347 196.191 295.363 195.697 294.311 195.676H291.368C290.613 195.676 290 195.077 290 194.338C290 193.599 290.613 193 291.368 193H301.632C302.387 193 303 193.599 303 194.338C303 195.077 302.387 195.676 301.632 195.676H299.237C299.511 196.346 299.784 196.346 299.921 197.015Z" fill="#F1E22D"/>
<path fill-rule="evenodd" clip-rule="evenodd" d="M311.813 218.384C305.938 214.35 297.915 215.859 293.894 221.754C299.77 225.788 307.793 224.279 311.813 218.384Z" fill="#74E798"/>
<path fill-rule="evenodd" clip-rule="evenodd" d="M311.813 218.384V218.384C305.938 214.35 297.915 215.859 293.894 221.754C299.77 225.788 307.793 224.279 311.813 218.384Z" stroke="#74E798" stroke-width="2" stroke-linejoin="round"/>
<path fill-rule="evenodd" clip-rule="evenodd" d="M281.953 230.549C279.79 235.731 282.223 241.691 287.388 243.862C289.552 238.68 287.118 232.72 281.953 230.549Z" fill="#74E798"/>
<path fill-rule="evenodd" clip-rule="evenodd" d="M281.953 230.549V230.549C279.79 235.731 282.223 241.691 287.388 243.862C289.552 238.68 287.118 232.72 281.953 230.549Z" stroke="#74E798" stroke-width="2" stroke-linejoin="round"/>
<path fill-rule="evenodd" clip-rule="evenodd" d="M275.945 211.791C278.321 219.939 286.83 224.611 294.951 222.228V222.227C292.575 214.08 284.066 209.408 275.945 211.791Z" fill="#74E798"/>
<path fill-rule="evenodd" clip-rule="evenodd" d="M275.945 211.791V211.791C278.321 219.939 286.83 224.611 294.951 222.228V222.227C292.575 214.08 284.066 209.408 275.945 211.791Z" stroke="#74E798" stroke-width="2" stroke-linejoin="round"/>
<path fill-rule="evenodd" clip-rule="evenodd" d="M211.466 305.799H240.266V298.575H211.466V305.799Z" fill="#68A4C4"/>
<path d="M225.113 266.069V266.069C228.268 261.322 228.268 255.138 225.113 250.391L224.439 249.376C221.635 245.156 221.3 239.753 223.56 235.217L225.113 232.101" stroke="#74E798" stroke-width="2" stroke-linecap="round" stroke-linejoin="round"/>
<path fill-rule="evenodd" clip-rule="evenodd" d="M204.266 273.293H247.466V266.069H204.266V273.293Z" fill="#68A4C4"/>
<path fill-rule="evenodd" clip-rule="evenodd" d="M207.866 273.293H243.866L236.666 298.576H215.066L207.866 273.293Z" fill="#68A4C4"/>
<path d="M230.632 290.55L233.261 281.319" stroke="#157DB4" stroke-width="2" stroke-linecap="round" stroke-linejoin="round"/>
<path fill-rule="evenodd" clip-rule="evenodd" d="M230.632 290.55L233.261 281.319L230.632 290.55Z" fill="#68A4C4"/>
<path fill-rule="evenodd" clip-rule="evenodd" d="M245.055 239.939C245.055 248.103 238.459 254.72 230.322 254.72C230.322 246.557 236.918 239.939 245.055 239.939Z" fill="#74E798"/>
<path fill-rule="evenodd" clip-rule="evenodd" d="M245.055 239.939C245.055 248.103 238.459 254.72 230.322 254.72C230.322 246.557 236.918 239.939 245.055 239.939Z" stroke="#74E798" stroke-width="2" stroke-linejoin="round"/>
<path fill-rule="evenodd" clip-rule="evenodd" d="M204.278 232.101C212.415 232.101 219.011 238.718 219.011 246.881C210.874 246.881 204.278 240.264 204.278 232.101Z" fill="#74E798"/>
<path fill-rule="evenodd" clip-rule="evenodd" d="M204.278 232.101V232.101C212.415 232.101 219.011 238.718 219.011 246.881C210.874 246.881 204.278 240.264 204.278 232.101Z" stroke="#74E798" stroke-width="2" stroke-linejoin="round"/>
<path fill-rule="evenodd" clip-rule="evenodd" d="M240.74 216.423C240.74 224.586 234.144 231.204 226.007 231.204C226.007 223.041 232.603 216.423 240.74 216.423Z" fill="#74E798"/>
<path fill-rule="evenodd" clip-rule="evenodd" d="M240.74 216.423V216.423C240.74 224.586 234.144 231.204 226.007 231.204C226.007 223.041 232.603 216.423 240.74 216.423Z" stroke="#74E798" stroke-width="2" stroke-linejoin="round"/>
<path fill-rule="evenodd" clip-rule="evenodd" d="M216.602 221.665C221.752 221.665 225.928 225.854 225.928 231.022C220.777 231.022 216.602 226.832 216.602 221.665Z" fill="#74E798"/>
<path fill-rule="evenodd" clip-rule="evenodd" d="M216.602 221.665V221.665C221.752 221.665 225.928 225.854 225.928 231.022C220.777 231.022 216.602 226.832 216.602 221.665Z" stroke="#74E798" stroke-width="2" stroke-linejoin="round"/>
<path fill-rule="evenodd" clip-rule="evenodd" d="M144.333 305.799H173.133V298.575H144.333V305.799Z" fill="#68A4C4"/>
<path fill-rule="evenodd" clip-rule="evenodd" d="M144.333 305.799H173.133V298.575H144.333V305.799Z" stroke="#68A4C4" stroke-width="2" stroke-linecap="round" stroke-linejoin="round"/>
<path fill-rule="evenodd" clip-rule="evenodd" d="M157.306 265.054C154.502 260.834 154.166 255.431 156.427 250.895L157.98 247.778L157.306 265.054Z" stroke="#74E798" stroke-width="2" stroke-linecap="round" stroke-linejoin="round"/>
<path fill-rule="evenodd" clip-rule="evenodd" d="M173.606 232.101C173.606 240.264 167.01 246.881 158.874 246.881C158.874 238.718 165.47 232.101 173.606 232.101Z" fill="#74E798"/>
<path fill-rule="evenodd" clip-rule="evenodd" d="M173.606 232.101V232.101C173.606 240.264 167.01 246.881 158.874 246.881C158.874 238.718 165.47 232.101 173.606 232.101Z" stroke="#74E798" stroke-width="2" stroke-linejoin="round"/>
<path fill-rule="evenodd" clip-rule="evenodd" d="M149.468 237.342C154.619 237.342 158.794 241.531 158.794 246.698C153.644 246.698 149.468 242.51 149.468 237.342Z" fill="#74E798"/>
<path fill-rule="evenodd" clip-rule="evenodd" d="M149.468 237.342V237.342C154.619 237.342 158.794 241.531 158.794 246.698C153.644 246.698 149.468 242.51 149.468 237.342Z" stroke="#74E798" stroke-width="2" stroke-linejoin="round"/>
<path d="M138.64 252.236C138.938 252.508 139.215 252.797 139.474 253.102" stroke="#A5CFE8" stroke-width="2" stroke-linecap="round" stroke-linejoin="round"/>
<path d="M141.278 256.052C142.699 259.292 142.986 263.111 142.986 265.68" stroke="#A5CFE8" stroke-width="2" stroke-linecap="round" stroke-linejoin="round" stroke-dasharray="2.31 3.46"/>
<path d="M143.939 267.47C143.968 266.918 143.545 266.447 142.993 266.418C142.442 266.389 141.971 266.812 141.941 267.364L143.939 267.47ZM141.855 268.499C141.791 269.048 142.183 269.545 142.732 269.609C143.281 269.673 143.777 269.28 143.841 268.731L141.855 268.499ZM142.152 247.119C141.673 246.843 141.062 247.008 140.786 247.486C140.511 247.965 140.675 248.576 141.154 248.852L142.152 247.119ZM142.386 249.667C142.828 249.999 143.455 249.911 143.787 249.47C144.119 249.029 144.031 248.402 143.59 248.069L142.386 249.667ZM141.941 267.364C141.922 267.728 141.9 268.016 141.883 268.211C141.874 268.309 141.867 268.383 141.862 268.432C141.86 268.456 141.858 268.474 141.856 268.485C141.856 268.491 141.855 268.495 141.855 268.497C141.855 268.499 141.855 268.499 141.855 268.5C141.855 268.5 141.855 268.5 141.855 268.5C141.855 268.5 141.855 268.5 141.855 268.5C141.855 268.5 141.855 268.5 141.855 268.5C141.855 268.5 141.855 268.499 141.855 268.499C141.855 268.499 141.855 268.499 142.848 268.615C143.841 268.731 143.841 268.731 143.841 268.731C143.841 268.731 143.841 268.731 143.841 268.731C143.841 268.731 143.841 268.731 143.841 268.731C143.841 268.731 143.841 268.731 143.841 268.73C143.841 268.73 143.842 268.729 143.842 268.728C143.842 268.727 143.842 268.725 143.842 268.723C143.843 268.718 143.843 268.712 143.844 268.704C143.846 268.688 143.849 268.665 143.852 268.636C143.858 268.578 143.866 268.494 143.875 268.386C143.894 268.17 143.918 267.859 143.939 267.47L141.941 267.364ZM141.154 248.852C141.586 249.101 141.996 249.373 142.386 249.667L143.59 248.069C143.136 247.728 142.657 247.409 142.152 247.119L141.154 248.852Z" fill="#A5CFE8"/>
<path d="M145.626 251.461C148.604 255.204 149.883 260.139 150.428 263.396" stroke="#A5CFE8" stroke-width="2" stroke-linecap="round" stroke-linejoin="round" stroke-dasharray="3.7 3.7"/>
<path d="M151.68 265.124C151.618 264.575 151.123 264.181 150.574 264.243C150.025 264.305 149.631 264.8 149.693 265.349L151.68 265.124ZM149.822 266.871C149.842 267.423 150.306 267.854 150.858 267.834C151.41 267.813 151.841 267.35 151.82 266.798L149.822 266.871ZM145.05 242.81C144.54 242.598 143.955 242.839 143.742 243.348C143.53 243.858 143.77 244.444 144.28 244.656L145.05 242.81ZM146.303 245.67C146.778 245.951 147.391 245.793 147.672 245.318C147.953 244.842 147.795 244.229 147.32 243.948L146.303 245.67ZM149.693 265.349C149.747 265.833 149.78 266.218 149.799 266.48C149.808 266.612 149.814 266.712 149.817 266.778C149.819 266.811 149.82 266.836 149.821 266.851C149.821 266.859 149.822 266.865 149.822 266.868C149.822 266.87 149.822 266.871 149.822 266.871C149.822 266.871 149.822 266.872 149.822 266.871C149.822 266.871 149.822 266.871 149.822 266.871C149.822 266.871 149.822 266.871 149.822 266.871C149.822 266.871 149.822 266.871 149.822 266.871C149.822 266.871 149.822 266.871 150.821 266.834C151.82 266.798 151.82 266.798 151.82 266.798C151.82 266.798 151.82 266.798 151.82 266.797C151.82 266.797 151.82 266.797 151.82 266.797C151.82 266.797 151.82 266.797 151.82 266.796C151.82 266.796 151.82 266.795 151.82 266.794C151.82 266.792 151.82 266.79 151.82 266.787C151.82 266.781 151.819 266.772 151.819 266.762C151.818 266.741 151.817 266.711 151.815 266.672C151.81 266.594 151.804 266.482 151.794 266.338C151.773 266.051 151.738 265.638 151.68 265.124L149.693 265.349ZM144.28 244.656C144.99 244.952 145.663 245.292 146.303 245.67L147.32 243.948C146.603 243.525 145.847 243.143 145.05 242.81L144.28 244.656Z" fill="#A5CFE8"/>
<path d="M149.736 246.956C154.325 251.054 156.701 256.997 157.847 260.94" stroke="#A5CFE8" stroke-width="2" stroke-linecap="round" stroke-linejoin="round" stroke-dasharray="5.44 3.63"/>
<path d="M158.315 262.696C158.666 264.147 158.794 265.054 158.794 265.054" stroke="#A5CFE8" stroke-width="2" stroke-linecap="round" stroke-linejoin="round"/>
<path fill-rule="evenodd" clip-rule="evenodd" d="M137.133 273.293H180.333V266.069H137.133V273.293Z" fill="#68A4C4"/>
<path fill-rule="evenodd" clip-rule="evenodd" d="M137.133 273.293H180.333V266.069H137.133V273.293Z" stroke="#68A4C4" stroke-width="2" stroke-linecap="round" stroke-linejoin="round"/>
<path fill-rule="evenodd" clip-rule="evenodd" d="M176.733 273.293L169.533 298.576H147.933L140.733 273.293H176.733Z" fill="#68A4C4"/>
<path fill-rule="evenodd" clip-rule="evenodd" d="M140.733 273.293H176.733L169.533 298.576H147.933L140.733 273.293Z" stroke="#68A4C4" stroke-width="2" stroke-linecap="round" stroke-linejoin="round"/>
<path fill-rule="evenodd" clip-rule="evenodd" d="M163.499 290.55L166.127 281.319L163.499 290.55Z" fill="#68A4C4"/>
<path d="M163.499 290.55L166.127 281.319" stroke="#157DB4" stroke-width="2" stroke-linecap="round" stroke-linejoin="round"/>
<path fill-rule="evenodd" clip-rule="evenodd" d="M77.2 305.799H106V298.575H77.2V305.799Z" fill="#68A4C4"/>
<path fill-rule="evenodd" clip-rule="evenodd" d="M77.2 305.799H106V298.575H77.2V305.799Z" stroke="#68A4C4" stroke-width="2" stroke-linecap="round" stroke-linejoin="round"/>
<path fill-rule="evenodd" clip-rule="evenodd" d="M84 259.631C84 255.42 87.4028 252.006 91.6 252.006C95.7972 252.006 99.2 255.42 99.2 259.631C99.2 263.842 95.7972 267.256 91.6 267.256C87.4028 267.256 84 263.842 84 259.631Z" fill="#FFF361"/>
<path d="M93.5789 257.784H94.3684C94.7172 257.784 95 258.051 95 258.379C95 258.708 94.7172 258.974 94.3684 258.974H93.5789C93.3629 260.063 92.3855 260.873 91.2105 260.937L93.4526 262.959C93.6915 263.198 93.705 263.567 93.4842 263.821C93.36 263.941 93.188 264.006 93.0105 264C92.8502 263.995 92.6954 263.943 92.5684 263.851L89.1895 260.847C89.0098 260.674 88.9598 260.415 89.0632 260.193C89.165 259.986 89.3893 259.857 89.6316 259.866H90.9895C91.5649 259.859 92.0667 259.496 92.2211 258.974H89.6316C89.2828 258.974 89 258.708 89 258.379C89 258.051 89.2828 257.784 89.6316 257.784H92.2211C91.9296 257.418 91.4753 257.199 90.9895 257.19H89.6316C89.2828 257.19 89 256.923 89 256.595C89 256.266 89.2828 256 89.6316 256H94.3684C94.7172 256 95 256.266 95 256.595C95 256.923 94.7172 257.19 94.3684 257.19H93.2632C93.3895 257.487 93.5158 257.487 93.5789 257.784Z" fill="#F1E22D"/>
<path fill-rule="evenodd" clip-rule="evenodd" d="M84 259.631C84 255.42 87.4028 252.006 91.6 252.006C95.7972 252.006 99.2 255.42 99.2 259.631C99.2 263.842 95.7972 267.256 91.6 267.256C87.4028 267.256 84 263.842 84 259.631Z" stroke="#FFF361" stroke-width="1.2" stroke-linejoin="round"/>
<path d="M85.546 259.631C85.546 259.962 85.8146 260.231 86.146 260.231C86.4774 260.231 86.746 259.962 86.746 259.631H85.546ZM88.7393 255.697C89.0063 255.501 89.0637 255.126 88.8675 254.859C88.6713 254.592 88.2957 254.534 88.0287 254.73L88.7393 255.697ZM86.1758 262.326C86.3232 262.623 86.6832 262.744 86.98 262.597C87.2768 262.45 87.398 262.089 87.2506 261.793L86.1758 262.326ZM86.9972 261.18C86.8918 260.866 86.5516 260.697 86.2375 260.802C85.9233 260.907 85.7541 261.248 85.8596 261.562L86.9972 261.18ZM86.746 259.631C86.746 258.018 87.5304 256.586 88.7393 255.697L88.0287 254.73C86.5256 255.835 85.546 257.62 85.546 259.631H86.746ZM87.2506 261.793C87.1528 261.596 87.0681 261.391 86.9972 261.18L85.8596 261.562C85.9479 261.825 86.0536 262.08 86.1758 262.326L87.2506 261.793Z" fill="#F1E22D"/>
<path fill-rule="evenodd" clip-rule="evenodd" d="M70 273.293H113.2V266.069H70V273.293Z" fill="#68A4C4"/>
<path fill-rule="evenodd" clip-rule="evenodd" d="M70 273.293H113.2V266.069H70V273.293Z" stroke="#68A4C4" stroke-width="2" stroke-linecap="round" stroke-linejoin="round"/>
<path fill-rule="evenodd" clip-rule="evenodd" d="M73.6 273.293H109.6L102.4 298.576H80.8L73.6 273.293Z" fill="#68A4C4"/>
<path fill-rule="evenodd" clip-rule="evenodd" d="M73.6 273.293H109.6L102.4 298.576H80.8L73.6 273.293Z" stroke="#68A4C4" stroke-width="2" stroke-linecap="round" stroke-linejoin="round"/>
<path fill-rule="evenodd" clip-rule="evenodd" d="M96.3656 290.55L98.994 281.319L96.3656 290.55Z" fill="#68A4C4"/>
<path d="M96.3656 290.55L98.994 281.319" stroke="#157DB4" stroke-width="2" stroke-linecap="round" stroke-linejoin="round"/>
<path fill-rule="evenodd" clip-rule="evenodd" d="M111.199 230.148L133.124 244.267L135.134 241.125L120.923 225.317L111.199 230.148Z" fill="#FFF361"/>
<path fill-rule="evenodd" clip-rule="evenodd" d="M111.199 230.148L133.124 244.267L135.134 241.125L120.923 225.317L111.199 230.148Z" stroke="#FFF361" stroke-width="2" stroke-linejoin="round"/>
<path fill-rule="evenodd" clip-rule="evenodd" d="M98.7647 197.736L107.178 236.433L102.035 237.558L93.6219 198.862L98.7647 197.736Z" fill="#FFF361"/>
<path fill-rule="evenodd" clip-rule="evenodd" d="M98.7647 197.736L107.178 236.433L102.035 237.558L93.6219 198.862L98.7647 197.736Z" stroke="#FFF361" stroke-width="2" stroke-linejoin="round"/>
<path fill-rule="evenodd" clip-rule="evenodd" d="M138.456 194.455L144.626 222.833L139.483 223.958L133.314 195.58L138.456 194.455Z" fill="#FFF361"/>
<path fill-rule="evenodd" clip-rule="evenodd" d="M138.456 194.455L144.626 222.833L139.483 223.958L133.314 195.58L138.456 194.455Z" stroke="#FFF361" stroke-width="2" stroke-linejoin="round"/>
<path fill-rule="evenodd" clip-rule="evenodd" d="M107.966 204.589L107.484 196.812C107.384 195.201 108.605 193.814 110.21 193.714L123.22 192.902C124.826 192.802 126.208 194.027 126.308 195.638L126.666 201.406C126.755 202.846 125.784 204.135 124.379 204.442L111.494 207.262C109.75 207.644 108.077 206.376 107.966 204.589Z" stroke="#F1E22D" stroke-width="2" stroke-linejoin="round"/>
<path fill-rule="evenodd" clip-rule="evenodd" d="M106.617 233.853L99.3256 200.316L133.874 198.16L138.922 221.378L106.617 233.853Z" fill="#FFF361"/>
<path fill-rule="evenodd" clip-rule="evenodd" d="M106.617 233.853L99.3256 200.316L133.874 198.16L138.922 221.378L106.617 233.853Z" stroke="#FFF361" stroke-width="2" stroke-linejoin="round"/>
<path fill-rule="evenodd" clip-rule="evenodd" d="M118.012 223.165L132.139 217.71L118.012 223.165Z" fill="#74E798"/>
<path d="M118.012 223.165L132.139 217.71" stroke="#F1E22D" stroke-width="2" stroke-linecap="round" stroke-linejoin="round"/>
<path fill-rule="evenodd" clip-rule="evenodd" d="M110.878 225.92L113.947 224.735L110.878 225.92Z" fill="#74E798"/>
<path d="M110.878 225.92L113.947 224.735" stroke="#F1E22D" stroke-width="2" stroke-linecap="round" stroke-linejoin="round"/>
<path fill-rule="evenodd" clip-rule="evenodd" d="M133.124 244.267L135.134 241.125L142.848 239.437L134.806 252.007L133.124 244.267Z" fill="#FFF361"/>
<path fill-rule="evenodd" clip-rule="evenodd" d="M133.124 244.267L135.134 241.125L142.848 239.437L134.806 252.007L133.124 244.267Z" stroke="#F1E22D" stroke-width="2" stroke-linejoin="round"/>
<path d="M141.26 207.354C144.1 206.732 146.905 208.539 147.525 211.388C148.144 214.238 146.344 217.051 143.504 217.673" stroke="#F1E22D" stroke-width="2" stroke-linecap="round" stroke-linejoin="round"/>
</g>
</svg>
