<svg width="319" height="56" viewBox="0 0 319 56" fill="none" xmlns="http://www.w3.org/2000/svg">
<path d="M6 38L58 3L110 31L162 50L215 51L266 12" stroke="#4CD964" stroke-width="1.5"/>
<path d="M265 12L318 15" stroke="#4CD964" stroke-width="1.5" stroke-dasharray="4 4"/>
<path d="M62 5C62 7.20914 60.2091 9 58 9C55.7909 9 54 7.20914 54 5C54 2.79086 55.7909 1 58 1C60.2091 1 62 2.79086 62 5Z" fill="white" stroke="#4CD964" stroke-width="2"/>
<path d="M9 38C9 40.2091 7.20914 42 5 42C2.79086 42 1 40.2091 1 38C1 35.7909 2.79086 34 5 34C7.20914 34 9 35.7909 9 38Z" fill="white" stroke="#4CD964" stroke-width="2"/>
<path d="M113 30C113 32.2091 111.209 34 109 34C106.791 34 105 32.2091 105 30C105 27.7909 106.791 26 109 26C111.209 26 113 27.7909 113 30Z" fill="white" stroke="#4CD964" stroke-width="2"/>
<path d="M166 50C166 52.2091 164.209 54 162 54C159.791 54 158 52.2091 158 50C158 47.7909 159.791 46 162 46C164.209 46 166 47.7909 166 50Z" fill="white" stroke="#4CD964" stroke-width="2"/>
<path d="M218 51C218 53.2091 216.209 55 214 55C211.791 55 210 53.2091 210 51C210 48.7909 211.791 47 214 47C216.209 47 218 48.7909 218 51Z" fill="white" stroke="#4CD964" stroke-width="2"/>
<path d="M272 12C272 15.3137 269.314 18 266 18C262.686 18 260 15.3137 260 12C260 8.68629 262.686 6 266 6C269.314 6 272 8.68629 272 12Z" fill="white" stroke="#4CD964" stroke-width="2"/>
</svg>
