<svg width="22" height="22" viewBox="0 0 22 22" fill="none" xmlns="http://www.w3.org/2000/svg">
<path fill-rule="evenodd" clip-rule="evenodd" d="M20.8055 9.74996C20.4166 6.91663 19.0277 4.61107 16.6666 2.91663C16.4444 2.74996 16.1944 2.66663 15.9444 2.66663C15.4444 2.66663 14.9999 2.99996 14.8333 3.49996C14.6388 4.02774 14.8333 4.52774 15.4166 4.97218C17.5277 6.58329 18.5555 8.77774 18.4444 11.4722C18.2777 15.3611 14.8888 18.5277 10.861 18.5277C9.61104 18.5277 8.44438 18.2222 7.38882 17.6111C5.13882 16.3333 3.72216 14.1388 3.49993 11.6666C3.27771 9.16663 4.33327 6.80551 6.33327 5.13885C6.72216 4.80552 6.97216 4.4444 6.99993 4.08329C7.02771 3.77774 6.9166 3.49996 6.69438 3.22218C6.47216 2.97218 6.19438 2.83329 5.86104 2.83329C5.52771 2.83329 5.1666 2.97218 4.83327 3.27774C2.49993 5.22218 1.13882 7.77774 1.11105 10.2777C1.08327 13.3888 1.88882 15.6944 3.72216 17.75C5.49993 19.75 8.24993 20.9444 11.0833 20.9444C12.4999 20.9444 13.861 20.6388 15.0833 20.0833C19.0277 18.1944 21.3888 13.9722 20.8055 9.74996Z" fill="#1A303E" stroke="white" stroke-width="0.35"/>
<path fill-rule="evenodd" clip-rule="evenodd" d="M10.9724 12.1111C11.6946 12.1111 12.1669 11.5555 12.1669 10.75C12.1669 9.77775 12.1669 8.83331 12.1669 7.86108C12.1669 7.86108 12.1669 3.4722 12.1669 2.55553C12.1669 1.66664 11.7502 1.13886 10.9724 1.11108C10.278 1.11108 9.77797 1.69442 9.77797 2.49997C9.77797 5.24997 9.75019 8.02775 9.77797 10.7778C9.77797 11.5278 10.3057 12.1111 10.9724 12.1111Z" fill="#1A303E" stroke="white" stroke-width="0.35"/>
</svg>
