<svg width="18" height="20" viewBox="0 0 18 20" fill="none" xmlns="http://www.w3.org/2000/svg">
<path fill-rule="evenodd" clip-rule="evenodd" d="M13.04 14.85C13.56 14.38 14.24 14.08 15 14.08C16.61 14.08 17.92 15.39 17.92 17C17.92 18.61 16.61 19.92 15 19.92C13.39 19.92 12.08 18.61 12.08 17C12.08 16.78 12.11 16.56 12.16 16.35L5.04 12.19C4.5 12.69 3.79 13 3 13C1.34 13 0 11.66 0 10C0 8.34 1.34 7 3 7C3.79 7 4.5 7.31 5.04 7.81L12.09 3.7C12.04 3.47 12 3.24 12 3C12 1.34 13.34 0 15 0C16.66 0 18 1.34 18 3C18 4.66 16.66 6 15 6C14.21 6 13.5 5.69 12.96 5.19L5.91 9.3C5.96 9.53 6 9.76 6 10C6 10.24 5.96 10.47 5.91 10.7L13.04 14.85ZM16 3C16 2.45 15.55 2 15 2C14.45 2 14 2.45 14 3C14 3.55 14.45 4 15 4C15.55 4 16 3.55 16 3ZM3 11C2.45 11 2 10.55 2 10C2 9.45 2.45 9 3 9C3.55 9 4 9.45 4 10C4 10.55 3.55 11 3 11ZM14 17.02C14 17.57 14.45 18.02 15 18.02C15.55 18.02 16 17.57 16 17.02C16 16.47 15.55 16.02 15 16.02C14.45 16.02 14 16.47 14 17.02Z" fill="#1A303E"/>
</svg>
