<svg width="18" height="18" viewBox="0 0 18 18" fill="none" xmlns="http://www.w3.org/2000/svg">
<path fill-rule="evenodd" clip-rule="evenodd" d="M7.24302 18H3.77084C3.34612 18.0006 2.93862 17.8105 2.63811 17.4717C2.33761 17.1328 2.16875 16.6729 2.16875 16.1934V8.16981L1.29871 8.93987C1.07386 9.14221 0.770137 9.19277 0.503142 9.07228C0.236148 8.9518 0.0469485 8.67882 0.00755799 8.35724C-0.0318326 8.03566 0.0846442 7.71495 0.312655 7.51717L8.57309 0.198162C8.86537 -0.0660541 9.28086 -0.0660541 9.57314 0.198162L17.6996 7.5262C18.0448 7.838 18.1007 8.40672 17.8246 8.79647C17.5484 9.18622 17.0447 9.24941 16.6995 8.93761L15.9795 8.2895V16.1934C15.9795 17.1912 15.2631 18 14.3794 18H10.9052C10.4634 18 10.1052 17.5956 10.1052 17.0967V13.357C10.1219 12.9289 9.92909 12.5249 9.6032 12.3053C9.27731 12.0856 8.87091 12.0856 8.54503 12.3053C8.21914 12.5249 8.02635 12.9289 8.04306 13.357V17.0967C8.04306 17.5956 7.68487 18 7.24302 18ZM14.3796 6.84421L9.07136 2.06348L3.77108 6.7471V16.1934H6.44522V13.357C6.41882 12.2761 6.91446 11.2644 7.7394 10.7152C8.56433 10.1659 9.58838 10.1659 10.4133 10.7152C11.2383 11.2644 11.7339 12.2761 11.7075 13.357V16.1934H14.3796V6.84421Z" fill="#1A303E"/>
</svg>
