<svg width="16" height="20" viewBox="0 0 16 20" fill="none" xmlns="http://www.w3.org/2000/svg">
<path fill-rule="evenodd" clip-rule="evenodd" d="M8.42795 9.7955C6.03482 9.7955 4.09481 7.87236 4.09481 5.50004C4.09481 3.12773 6.03482 1.20459 8.42795 1.20459C10.8211 1.20459 12.7611 3.12773 12.7611 5.50004C12.7611 7.87236 10.8211 9.7955 8.42795 9.7955ZM14.6211 18.7955C15.19 18.7955 15.6498 18.3346 15.6498 17.7728C15.6498 13.8189 12.4165 10.6137 8.42794 10.6137C4.4394 10.6137 1.20605 13.8189 1.20605 17.7728C1.20605 18.3363 1.66851 18.7955 2.23478 18.7955H14.6211ZM2.44758 17.5682C2.55633 14.3869 5.19221 11.841 8.42795 11.841C11.6637 11.841 14.2996 14.3869 14.4083 17.5682H2.44758ZM11.523 5.50004C11.523 7.19455 10.1373 8.56823 8.42794 8.56823C6.71857 8.56823 5.33285 7.19455 5.33285 5.50004C5.33285 3.80553 6.71857 2.43186 8.42794 2.43186C10.1373 2.43186 11.523 3.80553 11.523 5.50004Z" fill="#1A303E"/>
<path d="M2.44758 17.5682L2.19773 17.5597L2.18889 17.8182H2.44758V17.5682ZM14.4083 17.5682V17.8182H14.667L14.6582 17.5597L14.4083 17.5682ZM3.84481 5.50004C3.84481 8.01248 5.89881 10.0455 8.42795 10.0455V9.5455C6.17083 9.5455 4.34481 7.73223 4.34481 5.50004H3.84481ZM8.42795 0.95459C5.89881 0.95459 3.84481 2.98761 3.84481 5.50004H4.34481C4.34481 3.26786 6.17083 1.45459 8.42795 1.45459V0.95459ZM13.0111 5.50004C13.0111 2.98761 10.9571 0.95459 8.42795 0.95459V1.45459C10.6851 1.45459 12.5111 3.26786 12.5111 5.50004H13.0111ZM8.42795 10.0455C10.9571 10.0455 13.0111 8.01248 13.0111 5.50004H12.5111C12.5111 7.73223 10.6851 9.5455 8.42795 9.5455V10.0455ZM15.3998 17.7728C15.3998 18.1958 15.0527 18.5455 14.6211 18.5455V19.0455C15.3273 19.0455 15.8998 18.4735 15.8998 17.7728H15.3998ZM8.42794 10.8637C12.2805 10.8637 15.3998 13.959 15.3998 17.7728H15.8998C15.8998 13.6788 12.5525 10.3637 8.42794 10.3637V10.8637ZM1.45605 17.7728C1.45605 13.959 4.57541 10.8637 8.42794 10.8637V10.3637C4.3034 10.3637 0.956055 13.6788 0.956055 17.7728H1.45605ZM2.23478 18.5455C1.80512 18.5455 1.45605 18.1967 1.45605 17.7728H0.956055C0.956055 18.4758 1.5319 19.0455 2.23478 19.0455V18.5455ZM14.6211 18.5455H2.23478V19.0455H14.6211V18.5455ZM8.42795 11.591C5.05896 11.591 2.31113 14.2422 2.19773 17.5597L2.69744 17.5768C2.80153 14.5316 5.32546 12.091 8.42795 12.091V11.591ZM14.6582 17.5597C14.5448 14.2422 11.7969 11.591 8.42795 11.591V12.091C11.5304 12.091 14.0544 14.5316 14.1585 17.5768L14.6582 17.5597ZM2.44758 17.8182H14.4083V17.3182H2.44758V17.8182ZM8.42794 8.81823C10.2733 8.81823 11.773 7.33468 11.773 5.50004H11.273C11.273 7.05443 10.0013 8.31823 8.42794 8.31823V8.81823ZM5.08285 5.50004C5.08285 7.33468 6.58256 8.81823 8.42794 8.81823V8.31823C6.85458 8.31823 5.58285 7.05443 5.58285 5.50004H5.08285ZM8.42794 2.18186C6.58256 2.18186 5.08285 3.66541 5.08285 5.50004H5.58285C5.58285 3.94566 6.85458 2.68186 8.42794 2.68186V2.18186ZM11.773 5.50004C11.773 3.66541 10.2733 2.18186 8.42794 2.18186V2.68186C10.0013 2.68186 11.273 3.94566 11.273 5.50004H11.773Z" fill="#1A303E"/>
</svg>
