<svg width="40" height="40" viewBox="0 0 40 40" fill="none" xmlns="http://www.w3.org/2000/svg">
<rect width="40" height="40" rx="20" fill="#F5F7F7"/>
<g clip-path="url(#clip0)">
<path d="M29.1502 12.8592L20.1299 8.05276C19.9961 7.98134 19.8357 7.98234 19.7029 8.05527L10.9323 12.8617C10.7884 12.9407 10.6992 13.0915 10.6992 13.2557V19.5341C10.7045 24.6952 13.7623 29.3643 18.491 31.432L19.7084 31.9625C19.8222 32.0121 19.9518 32.0124 20.0658 31.963L21.4376 31.3706C26.254 29.3478 29.3875 24.6335 29.388 19.4096V13.2557C29.388 13.0898 29.2965 12.9372 29.1502 12.8592ZM28.4899 19.4096C28.4889 24.2734 25.5707 28.6621 21.086 30.5444L21.083 30.5459L19.8884 31.0616L18.8504 30.6088C14.4487 28.6842 11.6021 24.3383 11.5971 19.5341V13.5215L19.9217 8.95917L28.4899 13.5248V19.4096Z" fill="black"/>
<path d="M22.8753 16.75H22.2554C22.171 16.3315 21.9843 15.9535 21.7357 15.625H22.8753C23.1858 15.625 23.4378 15.373 23.4378 15.0625C23.4378 14.752 23.1858 14.5 22.8753 14.5H19.5003H17.2503C16.9398 14.5 16.6878 14.752 16.6878 15.0625C16.6878 15.373 16.9398 15.625 17.2503 15.625H19.5003C20.2327 15.625 20.8514 16.0964 21.0843 16.75H17.2503C16.9398 16.75 16.6878 17.002 16.6878 17.3125C16.6878 17.623 16.9398 17.875 17.2503 17.875H21.0843C20.8514 18.5286 20.2327 19 19.5003 19H17.2503C17.1772 19 17.104 19.0146 17.0354 19.0427C16.8982 19.1001 16.7879 19.2092 16.7305 19.3476C16.6732 19.4849 16.6732 19.6401 16.7305 19.7774C16.7587 19.8471 16.8003 19.909 16.8532 19.9608L21.352 24.4596C21.4623 24.5699 21.6063 24.625 21.7503 24.625C21.8943 24.625 22.0383 24.5699 22.1485 24.4607C22.3679 24.2414 22.3679 23.8848 22.1485 23.6654L18.6082 20.125H19.5003C20.8593 20.125 21.9944 19.1575 22.2554 17.875H22.8753C23.1858 17.875 23.4378 17.623 23.4378 17.3125C23.4378 17.002 23.1858 16.75 22.8753 16.75Z" fill="black"/>
</g>
<defs>
<clipPath id="clip0">
<rect x="8.0625" y="8" width="24" height="24" fill="white"/>
</clipPath>
</defs>
</svg>
