<svg width="280" height="214" viewBox="0 0 280 214" fill="none" xmlns="http://www.w3.org/2000/svg">
<g clip-path="url(#clip0)">
<path opacity="0.1" d="M66.5151 178.212C64.1576 177.974 61.6947 177.718 59.462 178.342C57.2293 178.966 55.3794 180.789 56.0423 182.53C57.5233 186.413 66.2156 183.709 70.2234 186.364C71.6545 187.312 72.212 188.804 73.3297 189.969C75.1381 191.861 78.2472 192.743 81.2482 193.228C99.2762 196.143 119.828 188.641 135.629 195.866C140.746 198.207 144.782 201.931 150.393 203.493C157.826 205.562 165.966 203.351 173.657 201.934C183.249 200.181 193.026 199.669 202.749 200.409C209.94 200.963 219.506 201.149 221.808 195.927C223.29 192.568 220.155 188.829 215.995 187.24C211.835 185.651 206.964 185.701 202.319 185.853C193.352 186.175 184.382 186.824 175.415 186.508C158.075 185.892 141.695 179.019 124.809 178.792C105.145 178.553 86.2711 180.203 66.5151 178.212Z" fill="#008FFF"/>
<path opacity="0.1" d="M48.2845 91.2755C45.511 94.0796 45.3418 98.3785 45.3418 98.3785C45.3418 98.3785 49.638 98.1345 52.4005 95.3276C55.1629 92.5208 55.346 88.2246 55.346 88.2246C55.346 88.2246 51.047 88.477 48.2845 91.2755Z" fill="#008FFF"/>
<path opacity="0.1" d="M59.4483 22.0027C60.4274 25.8163 64.0191 28.1877 64.0191 28.1877C64.0191 28.1877 66.0244 24.3796 65.0454 20.566C64.0663 16.7524 60.4746 14.3838 60.4746 14.3838C60.4746 14.3838 58.4582 18.1919 59.4483 22.0027Z" fill="#008FFF"/>
<path opacity="0.1" d="M221.656 32.4921C218.882 35.2962 218.71 39.5952 218.71 39.5952C218.71 39.5952 223.009 39.3511 225.772 36.5443C228.534 33.7375 228.715 29.4385 228.715 29.4385C228.715 29.4385 224.418 29.702 221.656 32.4921Z" fill="#008FFF"/>
<path opacity="0.1" d="M137.121 71.7885C136.799 75.7103 139.415 79.1273 139.415 79.1273C139.415 79.1273 142.557 76.1846 142.879 72.26C143.201 68.3354 140.585 64.9268 140.585 64.9268C140.585 64.9268 137.443 67.8639 137.121 71.7885Z" fill="#008FFF"/>
<path opacity="0.1" d="M228.11 126.79C227.788 130.712 230.404 134.129 230.404 134.129C230.404 134.129 233.546 131.186 233.868 127.265C234.19 123.343 231.574 119.926 231.574 119.926C231.574 119.926 228.432 122.869 228.11 126.79Z" fill="#008FFF"/>
<path opacity="0.1" d="M162.682 27.5028C144.731 26.962 127.635 21.9557 111.31 16.4641C94.9851 10.9725 78.8154 4.90124 61.2949 1.99456C50.026 0.125198 37.1374 -0.138287 28.0596 5.08984C19.3202 10.1183 16.4967 18.8022 14.9796 26.8594C13.8369 32.9195 13.1657 39.2987 16.2942 44.9734C18.4687 48.9146 22.3239 52.2262 24.992 55.9982C34.2751 69.1309 27.7129 85.3228 17.656 98.156C12.941 104.172 7.46327 109.907 3.82161 116.312C0.179955 122.716 -1.50358 130.049 1.68321 136.578C4.8395 143.051 12.3641 147.913 20.5156 151.333C37.0708 158.267 56.5716 160.267 75.6008 161.393C117.712 163.889 160.044 162.807 202.266 161.726C217.892 161.326 233.584 160.921 248.955 158.83C257.492 157.671 266.304 155.829 272.503 151.38C280.369 145.733 282.318 136.173 277.046 129.092C268.204 117.219 243.763 114.267 237.576 101.523C234.175 94.5088 237.667 86.6957 242.612 80.189C253.218 66.2325 270.994 53.9874 271.929 38.0312C272.572 27.0757 264.027 16.1036 250.814 10.9198C236.965 5.48368 217.759 6.16874 207.546 15.1633C197.021 24.4131 178.532 27.9771 162.682 27.5028Z" fill="#008FFF"/>
<path d="M222.186 79.7147C221.803 79.8124 221.45 79.9994 221.154 80.2602C220.858 80.521 220.628 80.8483 220.483 81.2152L220.205 81.1708L219.171 81.0044C219.171 81.0044 213.69 80.5523 212.667 80.6217C211.643 80.691 211.003 79.6814 211.003 79.6814L206.928 76.2339L206.612 75.9566C207.053 75.7902 207.328 75.7042 207.328 75.7042C207.328 75.7042 196.395 62.1138 194.037 61.8503C191.679 61.5869 187.783 58.4139 187.744 58.3834L187.702 58.1671C187.616 57.7094 187.552 57.2463 187.505 56.7803L188.085 57.1353C188.085 56.9745 188.085 56.8136 188.102 56.6527C188.188 54.9755 188.754 53.3583 189.732 51.9932C190.872 50.4123 192.559 49.1697 193.233 47.3475C193.501 46.5639 193.623 45.7373 193.59 44.9096C193.608 43.4184 193.214 41.9513 192.453 40.6688C192.065 40.0277 191.546 39.4762 190.929 39.0507C190.312 38.6252 189.612 38.3354 188.875 38.2004C188.487 38.1393 188.091 38.131 187.708 38.0423C185.431 37.507 184.593 34.4533 182.38 33.7044C181.348 33.355 180.2 33.5852 179.204 34.0179C178.208 34.4505 177.307 35.0718 176.333 35.5516C175.36 36.0314 174.256 36.3837 173.371 37.0632C173.28 37.1325 173.183 37.2157 173.094 37.3017L172.919 37.4709C172.554 37.8415 172.236 38.2561 171.973 38.7051L171.932 38.7745C171.904 38.8216 171.879 38.8716 171.854 38.9215C171.829 38.9714 171.813 38.9991 171.796 39.038C171.779 39.0768 171.752 39.1267 171.732 39.1711L171.674 39.3042L171.624 39.4318C171.607 39.479 171.588 39.5261 171.574 39.576C171.56 39.626 171.546 39.6565 171.535 39.6981L171.494 39.8451L171.469 39.9643C171.469 40.0143 171.449 40.0669 171.441 40.1169C171.433 40.1668 171.441 40.1918 171.441 40.2278C171.441 40.2639 171.441 40.3332 171.441 40.3859C171.441 40.4386 171.441 40.4552 171.441 40.4885C171.441 40.5218 171.441 40.5995 171.441 40.6577C171.441 40.716 171.441 40.7132 171.441 40.7409C171.452 40.8225 171.468 40.9031 171.491 40.9822C171.641 41.4925 172.157 42.014 172.55 42.4688C172.506 42.5104 172.462 42.5493 172.417 42.5936C171.481 43.4959 170.736 44.5777 170.228 45.7743C169.719 46.9709 169.458 48.2578 169.458 49.558C169.458 50.1357 169.511 50.7122 169.616 51.2804C169.112 50.8996 168.57 50.5715 167.999 50.3013C166.121 49.4008 164.066 48.9272 161.983 48.9145C158.586 48.8757 153.812 47.5999 153.812 47.5999C153.934 47.8327 154.027 48.0795 154.09 48.3349C153.882 48.2156 153.657 48.088 153.41 47.9549C151.42 46.8865 149.263 46.1643 147.031 45.8193C147.031 45.8193 145.617 46.0162 145.428 43.0457C145.363 42.1176 145.196 41.1995 144.929 40.3082C144.117 37.5915 143.554 34.8065 143.248 31.9876L142.774 27.6276C142.774 27.6276 144.909 16.2561 143.625 11.4079C144.038 9.88805 143.805 8.49573 142.444 7.49448C137.071 3.53941 131.652 18.9326 131.652 18.9326L129.638 20.8879C129.122 20.5513 128.539 20.329 127.93 20.2361C127.93 20.2361 126.845 21.3455 126.091 24.3743C125.691 25.9801 122.962 28.6621 120.494 30.8227C118.741 32.3565 117.049 33.9513 115.36 35.5516C114.112 36.7387 111.33 38.4361 105.262 39.3957C104.31 39.5455 103.445 39.687 102.654 39.8173C102.856 39.1007 102.959 38.3597 102.959 37.6151C102.95 35.741 102.304 33.9259 101.126 32.4678C99.9488 31.0096 98.3105 29.9953 96.4805 29.5913C96.5082 29.3972 96.5082 29.2002 96.4805 29.0061C96.3782 28.5884 96.1666 28.2056 95.8675 27.8967C94.5889 26.3157 93.2022 24.6904 91.2995 23.9416C90.5149 23.6364 89.6745 23.5012 88.8338 23.545H88.4123C88.3263 23.545 88.2431 23.545 88.1571 23.545C87.26 23.5946 86.3838 23.8351 85.587 24.2502C84.7902 24.6653 84.0911 25.2456 83.5364 25.9524C82.8541 26.8649 82.4436 27.9466 81.8556 28.9201C80.7628 30.7229 79.0821 32.1124 77.2599 33.2108C76.1643 33.8736 75.0133 34.445 73.9788 35.1966C70.2262 37.923 68.4955 42.9625 69.4385 47.4668C69.8545 49.4443 70.7337 51.3913 70.498 53.3966C70.3121 54.9525 69.4745 56.3504 68.6203 57.6706C67.766 58.9908 66.8619 60.3332 66.5235 61.8614C66.1851 63.3897 66.5401 65.1897 67.8215 66.116C68.293 66.4544 68.8644 66.6707 69.2665 67.0812C69.534 67.3975 69.7579 67.7483 69.9322 68.1241C70.6125 69.3532 71.5354 70.4315 72.6448 71.2934C73.7542 72.1554 75.027 72.7831 76.3862 73.1386C76.8173 73.2488 77.2617 73.2973 77.7064 73.2829H77.7536H77.8395C78.8574 73.3467 79.9003 73.0749 80.2414 72.1735C80.2932 71.9686 80.3705 71.771 80.4716 71.5855C80.5674 71.4471 80.7104 71.3485 80.8738 71.3081C81.2019 71.3831 81.5182 71.5025 81.814 71.6631C83.2348 72.4 84.7891 72.8443 86.3848 72.9695C86.6514 72.9907 86.9191 72.9954 87.1864 72.9833C87.7416 73.0353 88.3013 72.9555 88.82 72.7504C89.3188 72.4972 89.7496 72.1282 90.0764 71.6742C90.1485 71.5827 90.2151 71.4856 90.2844 71.3969C89.918 73.612 89.2283 75.7613 88.2375 77.776C88.2375 77.776 86.5734 80.5496 86.6927 83.3453C86.6286 84.3638 86.8444 85.3805 87.3167 86.2852C87.3167 86.2852 87.3639 86.1632 87.4609 85.9718C87.938 86.7706 89.5023 89.325 90.5285 90.2209C90.5784 92.8585 90.5673 96.1618 90.2373 96.8413C89.6825 98.0034 87.9297 106.271 95.4682 111.91L97.2072 115.718L90.0487 116.226C89.3248 116.126 79.9641 114.867 79.9169 116.7C79.8698 118.605 81.3314 137.16 86.1851 135.904C90.7088 134.733 89.2166 129.322 88.9919 128.596L89.1528 128.551L88.9753 128.501L92.5948 125.07C92.663 124.653 92.5633 124.225 92.3174 123.881L92.3535 123.861L101.096 124.252L103.151 128.718C103.151 128.718 106.637 134.021 103.811 138.483C100.985 142.946 98.0614 149.924 97.5899 154.157C97.2044 157.618 94.6416 161.018 93.7236 162.139C92.0844 162.694 85.7968 165.162 88.3069 168.898C91.1803 173.175 100.51 181.315 104.282 181.035C108.054 180.755 106.543 178.012 106.543 178.012L103.389 174.955C103.389 174.955 102.835 168.443 103.059 166.538C103.181 165.547 102.452 164.835 101.673 164.532C101.969 162.411 102.721 158.389 104.335 156.167C106.596 153.05 113.854 139.332 113.854 139.332C113.854 139.332 116.162 137.285 115.643 131.194C115.435 128.737 115.318 126.579 115.252 124.874L123.467 125.242C123.467 125.242 132.279 124.358 126.293 114.916C120.308 105.475 107.586 96.2228 107.586 96.2228L107.472 90.379C108.049 90.5232 108.387 90.5953 108.387 90.5953C108.387 90.5953 108.337 90.3845 108.254 90.0073L108.387 90.0378C108.387 90.0378 106.548 82.0806 105.983 75.7541L106.501 75.9926C111.968 82.3191 115.654 76.9717 115.654 76.9717C115.654 76.9717 127.2 60.7409 126.069 61.4842C125.951 61.5423 125.824 61.5764 125.693 61.5845C125.563 61.5926 125.432 61.5745 125.309 61.5314L126.141 58.8799C126.141 58.8799 129.549 53.6712 124.601 50.7423C120.563 48.3515 120.669 55.8456 120.843 58.6774L120.644 58.5082C120.644 58.5082 116.78 64.3327 114.705 67.5777C112.631 70.8227 110.889 68.6871 110.889 68.6871L108.268 65.7333C108.699 64.5499 108.91 63.2981 108.892 62.0389C108.949 61.1605 108.821 60.2798 108.516 59.4541C108.21 58.6284 107.735 57.8762 107.12 57.2463C105.12 55.2077 104.535 53.2329 104.474 51.713C104.494 50.9256 104.672 50.1502 104.998 49.4332L118.619 42.222C118.619 42.222 121.492 42.2664 125.356 36.3143C127.86 32.5076 130.615 28.8727 133.604 25.4337C133.604 25.4337 133.524 25.3173 133.385 25.1259C133.524 24.9622 133.604 24.8735 133.604 24.8735C133.604 24.8735 133.446 24.6433 133.177 24.2883L135.277 21.867C135.21 22.9613 135.202 24.0584 135.252 25.1536L136.339 28.8286L136.949 49.289C136.949 49.289 136.289 51.2305 140.533 53.1969C144.122 54.861 149.807 57.6346 151.466 58.4528C151.405 58.6025 151.369 58.683 151.369 58.683L151.863 58.6497L151.935 58.683C160.225 57.9396 159.942 66.2159 159.942 66.2159C159.942 66.2159 160.497 83.0513 157.964 88.9118C155.432 94.7723 155.795 102.025 155.795 102.025C155.795 102.025 156.048 100.788 157.46 102.405C157.432 102.547 157.401 102.699 157.368 102.857C156.558 106.915 154.872 115.546 154.558 119.046C154.213 122.236 153.598 125.391 152.72 128.476L151.888 143.961L157.188 144.219L157.13 144.774C157.101 145.055 157.004 145.325 156.847 145.56C156.69 145.795 156.479 145.989 156.231 146.124C154.417 147.109 150.129 150.562 150.473 161.218L150.29 162.932C149.996 165.835 149.116 168.648 147.702 171.2C147.58 171.416 147.472 171.624 147.381 171.824C147.394 171.712 147.445 171.607 147.525 171.527C147.525 171.527 144.771 172.099 145.336 179.54C145.902 186.981 146.751 188.282 147.883 188.374C149.014 188.465 154.539 189.816 154.242 187.073C153.945 184.33 153.688 178.236 154.054 177.307C154.42 176.378 155.923 173.871 154.497 173.266C154.911 171.559 155.111 169.808 155.094 168.052C155.094 168.052 157.867 163.681 159.85 162.053C161.833 160.425 162.901 157.66 163.62 154.101C163.67 153.868 169.463 150.007 168.612 146.801C168.462 146.246 168.354 145.755 168.271 145.312C168.235 145.115 168.204 144.929 168.177 144.757H168.279L169.458 137.687V144.571L170.157 144.663L170.132 145.217L169.835 151.818C169.781 153.104 169.5 154.37 169.003 155.557C167.755 158.511 165.453 165.087 166.08 172.198L166.013 178.539C165.813 178.578 162.935 179.257 163.481 186.443C164.036 193.882 164.893 195.186 166.024 195.277C167.156 195.369 172.681 196.719 172.387 193.976C172.093 191.233 171.832 185.14 172.198 184.211C172.564 183.282 173.224 180.824 171.799 180.22C171.806 179.386 172.009 178.566 172.392 177.826C173.014 176.769 175.088 171.746 176.65 167.883C178.246 163.972 179.134 159.809 179.271 155.588C179.271 155.541 179.271 155.493 179.271 155.446C179.313 154.022 179.618 152.618 180.172 151.305C180.81 149.837 181.315 148.313 181.681 146.754C181.72 146.568 181.75 146.388 181.778 146.199L183.131 146.38L187.752 126.382C187.752 126.382 189.017 115.543 188.398 110.648C188.373 110.446 188.346 110.26 188.312 110.079L188.59 110.104C188.59 110.104 189.533 107.689 189.25 97.3628C188.967 87.0369 191.136 83.7724 191.136 83.7724C192.306 80.0614 193.599 78.8189 194.353 78.4028C194.547 78.2791 194.77 78.2065 194.999 78.192L198.497 82.1943L199.14 82.932C199.142 82.9173 199.142 82.9024 199.14 82.8876L199.418 83.2121C199.396 83.0476 199.389 82.8815 199.395 82.7157C201.262 83.8001 205.575 86.3352 208.149 88.1546C211.505 90.526 212.426 90.2486 215.36 90.0018C217.141 89.8548 219.548 88.8563 221.162 88.0964L221.309 88.027C221.744 88.2588 222.201 88.4447 222.674 88.5817C222.674 88.5817 227.411 92.595 227.869 85.2701C228.326 77.9452 222.186 79.7147 222.186 79.7147ZM99.3178 165.018C98.8355 164.874 98.3704 164.678 97.9311 164.433L99.3178 165.018ZM91.9014 85.7278L91.918 86.7678L91.8459 86.8011C91.8681 86.435 91.8847 86.0744 91.9014 85.7278ZM165.994 178.564V178.969C165.942 178.914 165.914 178.841 165.914 178.766C165.914 178.691 165.942 178.619 165.994 178.564Z" fill="url(#paint0_linear)"/>
<path d="M181.115 56.6943H173.072V65.1536H181.115V56.6943Z" fill="#FF7590"/>
<path d="M163.298 154.37C162.591 157.906 161.542 160.655 159.601 162.275C157.659 163.894 154.933 168.238 154.933 168.238C154.886 174.015 153.36 175.771 153.36 175.771L151.788 176.187H147.905C147.905 176.187 147.211 174.245 147.073 173.092C147.026 172.706 147.3 172.06 147.683 171.366C149.071 168.825 149.934 166.03 150.221 163.148L150.401 161.443C150.074 150.856 154.284 147.42 156.051 146.441C156.295 146.304 156.502 146.111 156.655 145.877C156.808 145.644 156.903 145.376 156.93 145.098L157.243 142.072L167.688 142.585C167.688 142.585 167.467 143.506 167.863 145.636C167.944 146.077 168.052 146.568 168.196 147.115C169.028 150.301 163.342 154.137 163.298 154.37Z" fill="#8E5362"/>
<path d="M181.009 147.059C180.651 148.608 180.156 150.122 179.531 151.583C178.987 152.89 178.686 154.284 178.644 155.699C178.644 155.746 178.644 155.793 178.644 155.84C178.508 160.033 177.638 164.169 176.072 168.061C174.539 171.899 172.506 176.894 171.895 177.946C170.88 179.701 171.479 182.661 171.479 182.661L165.6 182.245L165.702 172.351C165.089 165.287 167.347 158.761 168.57 155.813C169.064 154.634 169.346 153.376 169.402 152.099L169.679 145.537L169.765 143.595C169.765 143.595 180.161 142.117 181.037 144.475C181.278 145.099 181.22 146.028 181.009 147.059Z" fill="#8E5362"/>
<path opacity="0.1" d="M167.863 145.636L156.918 145.098L157.232 142.072L167.688 142.585C167.688 142.585 167.458 143.503 167.863 145.636Z" fill="black"/>
<path opacity="0.1" d="M181.009 147.059L169.677 145.537L169.763 143.595C169.763 143.595 180.158 142.117 181.034 144.475C181.278 145.099 181.22 146.028 181.009 147.059Z" fill="black"/>
<path d="M186.965 126.817L182.436 146.695L169.031 144.892V138.05L167.872 145.081L151.785 144.293L152.617 128.9C153.479 125.828 154.082 122.69 154.42 119.517C154.733 116.039 156.381 107.461 157.177 103.431C157.454 102.102 157.61 101.265 157.61 101.265C157.61 101.265 185.162 106.995 186.965 109.075C187.273 109.43 187.475 110.184 187.6 111.186C188.205 116.045 186.965 126.817 186.965 126.817Z" fill="#BDD2E8"/>
<path opacity="0.1" d="M154.792 128.113C154.792 128.113 165.636 122.428 168.279 123.629L154.792 128.113Z" fill="black"/>
<path opacity="0.1" d="M160.707 109.53C160.707 109.53 169.721 116.373 169.998 118.22L160.707 109.53Z" fill="black"/>
<path opacity="0.1" d="M158.258 133.105C158.258 133.105 164.776 132.828 166.856 134.492L158.258 133.105Z" fill="black"/>
<path opacity="0.1" d="M169.999 125.789C169.999 125.789 173.097 135.929 171.754 138.703C170.412 141.476 169.028 138.054 169.028 138.054L169.999 125.789Z" fill="black"/>
<path d="M165.647 178.642C165.647 178.642 162.596 179.105 163.15 186.499C163.705 193.893 164.537 195.191 165.647 195.283C166.756 195.374 172.164 196.717 171.887 193.988C171.61 191.258 171.332 185.207 171.701 184.28C172.07 183.354 172.708 180.916 171.31 180.314L171.008 181.74C171.008 181.74 168.049 179.01 166.293 180.999C166.217 180.514 166.096 180.038 165.93 179.576C165.755 179.144 165.372 178.919 165.647 178.642Z" fill="#494457"/>
<path d="M221.481 87.897C221.481 87.897 220.782 88.2881 219.756 88.7762C218.172 89.5306 215.812 90.5235 214.065 90.6705C211.186 90.9146 210.284 91.192 206.992 88.8345C204.465 87.0261 200.236 84.505 198.394 83.4288L197.593 82.9546L197.512 82.9074V82.8741L199.04 78.675L204.449 75.7988L205.791 76.9498L209.788 80.3752C209.788 80.3752 210.412 81.3792 211.419 81.3098C212.426 81.2405 217.798 81.6898 217.798 81.6898L218.813 81.8562L220.951 82.2112L221.481 87.897Z" fill="#8E5362"/>
<path opacity="0.1" d="M221.481 87.8967C221.481 87.8967 220.782 88.2878 219.756 88.7759C218.671 88.2212 217.323 87.1811 217.842 85.4699C218.311 83.9305 218.438 82.7296 218.824 81.8643L220.962 82.2193L221.481 87.8967Z" fill="black"/>
<path d="M220.754 80.4079C220.754 80.4079 226.787 78.6745 226.337 85.955C225.888 93.2355 221.24 89.25 221.24 89.25C221.24 89.25 217.287 88.2099 218.119 85.4696C218.952 82.7294 218.71 81.068 220.754 80.4079Z" fill="#8E5362"/>
<path d="M158.211 56.8335L151.926 59.4739L151.829 59.5155L151.76 59.4822L151.369 59.2853C149.743 58.4754 144.157 55.7046 140.643 54.0599C136.483 52.1184 137.129 50.177 137.129 50.177L136.53 29.8386L135.465 26.1858C135.465 26.1858 134.713 13.8047 140.735 10.7012C146.756 7.59757 142.862 28.6349 142.862 28.6349L143.328 33.006C143.629 35.8022 144.181 38.5657 144.978 41.2628C145.239 42.1495 145.402 43.0618 145.466 43.9836C145.652 46.9402 147.039 46.7433 147.039 46.7433C149.229 47.0873 151.344 47.8059 153.291 48.8678C154.013 49.2495 154.705 49.6872 155.36 50.177L158.211 56.8335Z" fill="#8E5362"/>
<path d="M180.585 66.5408L175.221 65.9861C175.221 65.9861 176.802 63.6342 177.498 61.346C177.597 61.0323 177.675 60.7127 177.734 60.3891C177.895 59.4822 177.853 58.6418 177.44 58.0344C175.87 55.724 186.779 52.4873 186.779 52.4873C186.646 53.766 186.606 55.0526 186.659 56.337C186.69 57.2307 186.783 58.1213 186.937 59.0023C187.267 60.7968 187.924 62.4859 189.178 63.3513C192.603 65.7088 180.585 66.5408 180.585 66.5408Z" fill="#8E5362"/>
<path opacity="0.1" d="M180.585 66.5404L175.221 65.9857C175.221 65.9857 176.802 63.6338 177.498 61.3456C178.117 62.2248 178.33 62.2054 179.198 62.3801C179.198 62.3801 184.612 63.1817 186.942 59.002C187.272 60.7964 187.93 62.4855 189.183 63.3509C192.603 65.7084 180.585 66.5404 180.585 66.5404Z" fill="black"/>
<path opacity="0.1" d="M198.405 83.4288C198.399 83.5937 198.406 83.7589 198.427 83.9225L197.595 82.9546L197.526 82.8741L199.054 78.675L204.463 75.7988L205.805 76.9498C203.883 77.6848 198.491 80.0174 198.405 83.4288Z" fill="black"/>
<path opacity="0.1" d="M158.211 56.8333L151.926 59.4737H151.76L151.274 59.507C151.274 59.507 151.31 59.4266 151.369 59.2768C151.893 58.0037 154.325 51.7882 153.274 48.8594C153.997 49.241 154.689 49.6787 155.343 50.1685L158.211 56.8333Z" fill="black"/>
<path opacity="0.1" d="M187.599 111.177C185.153 110.958 160.679 108.695 158.397 105.092C158.036 104.505 157.628 103.948 157.176 103.428C157.454 102.099 157.609 101.262 157.609 101.262C157.609 101.262 185.161 106.992 186.964 109.072C187.272 109.421 187.474 110.173 187.599 111.177Z" fill="black"/>
<path d="M179.199 62.6578C179.199 62.6578 184.671 63.4676 186.984 59.2158C186.984 59.2158 190.847 62.3887 193.158 62.6605C195.468 62.9323 206.193 76.4339 206.193 76.4339C206.193 76.4339 197.595 79.2075 198.15 83.6451L194.081 78.9301C194.081 78.9301 192.048 78.8358 190.293 84.4772C190.293 84.4772 188.165 87.7111 188.443 97.9732C188.72 108.235 187.797 110.64 187.797 110.64C187.797 110.64 160.799 108.33 158.397 104.538C155.995 100.747 155.623 102.597 155.623 102.597C155.623 102.597 155.252 95.3855 157.748 89.5611C160.244 83.7367 159.689 67.0039 159.689 67.0039C159.689 67.0039 159.967 58.7748 151.832 59.5153C151.832 59.5153 155.252 51.5636 153.682 48.5127C153.682 48.5127 158.361 49.783 161.695 49.8218C163.741 49.8377 165.758 50.3116 167.597 51.2086C168.598 51.6995 169.522 52.318 170.046 53.0558C171.616 55.2746 174.206 54.2595 174.206 54.2595C174.859 56.2899 175.666 58.2676 176.619 60.1754C176.727 60.3779 176.835 60.5776 176.946 60.769C177.107 61.0463 177.274 61.3237 177.44 61.5511C178.106 62.5024 178.294 62.4775 179.199 62.6578Z" fill="#FF7590"/>
<path opacity="0.1" d="M186.659 56.3282C186.364 56.7469 186.036 57.1411 185.678 57.5069C184.776 58.4325 183.697 59.1681 182.506 59.6702C181.316 60.1723 180.036 60.4307 178.744 60.4303C178.409 60.4304 178.075 60.4138 177.742 60.3803C177.903 59.4734 177.862 58.633 177.448 58.0256C175.879 55.7152 186.787 52.4785 186.787 52.4785C186.652 53.757 186.609 55.0436 186.659 56.3282Z" fill="black"/>
<path d="M188.443 50.4535C188.443 52.3735 187.873 54.2503 186.807 55.8467C185.74 57.4431 184.224 58.6873 182.45 59.422C180.676 60.1567 178.724 60.349 176.841 59.9744C174.958 59.5998 173.229 58.6753 171.871 57.3177C170.513 55.9601 169.589 54.2304 169.214 52.3474C168.84 50.4643 169.032 48.5125 169.767 46.7387C170.501 44.9649 171.746 43.4488 173.342 42.3821C174.938 41.3155 176.815 40.7462 178.735 40.7462C180.011 40.7414 181.276 40.9892 182.456 41.4754C183.636 41.9615 184.708 42.6764 185.61 43.5788C186.512 44.4811 187.227 45.5532 187.713 46.7331C188.2 47.913 188.447 49.1774 188.443 50.4535Z" fill="#8E5362"/>
<path opacity="0.1" d="M193.252 72.642L193.452 79.1376C193.452 79.1376 196.35 76.8023 196.442 74.5834C196.533 72.3646 193.252 72.642 193.252 72.642Z" fill="black"/>
<path opacity="0.1" d="M169.86 79.1377C169.86 79.1377 177.487 89.6078 181.925 90.6701C186.362 91.7323 171.524 82.5325 169.86 79.1377Z" fill="black"/>
<path opacity="0.1" d="M177.95 80.2275C177.95 80.2275 182.202 85.0313 185.253 85.6304L177.95 80.2275Z" fill="black"/>
<path opacity="0.1" d="M162.973 92.334C162.973 92.334 170.739 99.9612 175.177 100.424L162.973 92.334Z" fill="black"/>
<path opacity="0.1" d="M188.442 50.4537C188.444 52.9914 187.448 55.4279 185.669 57.2378L184.604 56.5749C184.192 56.3604 183.836 56.0516 183.567 55.6735C183.214 55.0855 183.317 54.3478 183.345 53.6627C183.403 52.2121 183.004 50.6423 181.869 49.7354C180.03 48.2626 177.082 49.078 175.213 47.633C174.762 47.2507 174.366 46.8095 174.034 46.3211L172.281 43.9719C172.176 43.8333 172.048 43.6946 171.912 43.5309C173.277 42.1889 175.008 41.2803 176.888 40.9193C178.767 40.5583 180.712 40.7611 182.477 41.5021C184.241 42.2431 185.748 43.4893 186.806 45.084C187.865 46.6787 188.428 48.5508 188.426 50.4648L188.442 50.4537Z" fill="black"/>
<path d="M172.886 38.0232C173.754 37.3603 174.813 37.0108 175.79 36.5227C176.766 36.0345 177.628 35.4133 178.605 34.9972C179.581 34.5812 180.71 34.3371 181.722 34.6838C183.894 35.4299 184.715 38.4642 186.948 38.9967C187.325 39.0854 187.713 39.0938 188.093 39.152C188.818 39.2895 189.506 39.5794 190.111 40.0025C190.716 40.4257 191.224 40.9724 191.602 41.6066C192.347 42.8863 192.73 44.3444 192.711 45.8251C192.742 46.647 192.622 47.4675 192.359 48.2464C191.699 50.0576 190.043 51.2973 188.925 52.8644C187.867 54.364 187.305 56.1574 187.319 57.9927L184.612 56.3091C184.2 56.0955 183.844 55.7865 183.575 55.4077C183.223 54.8197 183.325 54.082 183.353 53.3969C183.411 51.9463 183.012 50.3765 181.88 49.4696C180.039 47.9968 177.09 48.8123 175.224 47.3672C174.774 46.985 174.377 46.5437 174.045 46.0554L172.292 43.7062C171.912 43.1958 171.183 42.5607 171.016 41.9394C170.647 40.6026 171.909 38.7748 172.886 38.0232Z" fill="#362133"/>
<path opacity="0.1" d="M184.915 55.9951C184.502 55.7815 184.147 55.4724 183.878 55.0937C183.525 54.5057 183.628 53.7679 183.656 53.0829C183.714 51.6323 183.314 50.0625 182.18 49.1555C180.341 47.6828 177.393 48.4982 175.524 47.0532C175.073 46.6709 174.677 46.2296 174.345 45.7413L172.592 43.3921C172.209 42.8818 171.483 42.2466 171.316 41.6254C171.014 40.5548 171.779 39.1597 172.598 38.2666C171.679 39.1153 170.673 40.7267 171.014 41.9277C171.191 42.5489 171.91 43.1841 172.29 43.6944L174.043 46.0436C174.375 46.5319 174.771 46.9732 175.221 47.3555C177.082 48.8005 180.031 47.9851 181.878 49.4578C183.009 50.3648 183.409 51.9346 183.351 53.3852C183.323 54.0702 183.22 54.808 183.572 55.396C183.841 55.7748 184.197 56.0838 184.61 56.2974L187.317 57.9809C187.317 57.8201 187.317 57.6592 187.333 57.5011L184.915 55.9951Z" fill="black"/>
<path d="M147.508 171.691C147.508 171.691 144.806 172.246 145.361 179.654C145.916 187.062 146.748 188.347 147.857 188.438C148.967 188.53 154.375 189.872 154.098 187.143C153.821 184.414 153.543 178.362 153.912 177.435C154.281 176.509 155.745 174.021 154.347 173.419L153.219 174.895C153.219 174.895 150.259 172.166 148.504 174.154C148.504 174.154 146.862 172.338 147.508 171.691Z" fill="#494457"/>
<path opacity="0.1" d="M149.216 176.284C149.802 176.562 150.348 176.9 150.93 177.177C151.504 177.478 152.144 177.628 152.791 177.615C153.066 177.61 153.332 177.518 153.551 177.352" fill="black"/>
<path opacity="0.1" d="M166.995 183.528C167.341 183.847 167.61 184.255 168.001 184.518C168.556 184.89 169.266 184.912 169.943 184.921C170.056 184.931 170.169 184.917 170.276 184.879C170.397 184.813 170.499 184.718 170.573 184.602L170.936 184.133" fill="black"/>
<path d="M121.417 60.5303C121.417 60.5303 120.169 48.6984 125.023 51.6106C129.877 54.5228 126.535 59.6983 126.535 59.6983L125.395 63.351L121.417 60.5303Z" fill="#FFC1C7"/>
<path d="M129.183 22.7191L131.957 19.9955C131.957 19.9955 137.274 4.69386 142.543 8.62397C147.813 12.5541 135.865 22.4917 135.865 22.4917L132.697 26.1888L129.183 22.7191Z" fill="#FFC1C7"/>
<path d="M88.5952 83.232L88.4565 86.3745C88.4565 86.3745 90.9999 90.8121 92.0621 91.1366C93.1244 91.4611 93.0329 81.751 93.0329 81.751L88.5952 83.232Z" fill="#FF5374"/>
<path opacity="0.1" d="M88.5952 83.232L88.4565 86.3745C88.4565 86.3745 90.9999 90.8121 92.0621 91.1366C93.1244 91.4611 93.0329 81.751 93.0329 81.751L88.5952 83.232Z" fill="black"/>
<path d="M92.8472 79.7812L93.0358 91.3636H105.93L104.959 84.6155L92.8472 79.7812Z" fill="#FFC1C7"/>
<path d="M95.8535 108.698L96.4554 112.395L103.991 129.131C103.991 129.131 107.411 134.401 104.637 138.838C101.864 143.276 98.9987 150.21 98.5355 154.415C98.0723 158.619 94.4224 162.735 94.4224 162.735L102.374 166.111C102.374 166.111 102.929 159.501 105.148 156.403C107.366 153.305 114.483 139.67 114.483 139.67C114.483 139.67 116.749 137.635 116.242 131.58C115.734 125.525 115.779 121.271 115.779 121.271L114.994 111.61L95.8535 108.698Z" fill="#575988"/>
<path opacity="0.1" d="M95.8535 108.698L96.4554 112.395L103.991 129.131C103.991 129.131 107.411 134.401 104.637 138.838C101.864 143.276 98.9987 150.21 98.5355 154.415C98.0723 158.619 94.4224 162.735 94.4224 162.735L102.374 166.111C102.374 166.111 102.929 159.501 105.148 156.403C107.366 153.305 114.483 139.67 114.483 139.67C114.483 139.67 116.749 137.635 116.242 131.58C115.734 125.525 115.779 121.271 115.779 121.271L114.994 111.61L95.8535 108.698Z" fill="black"/>
<path d="M95.113 162.228C95.113 162.228 86.6065 164.815 89.4272 169.07C92.2479 173.324 101.401 181.412 105.098 181.135C108.795 180.857 107.317 178.128 107.317 178.128L104.218 175.077C104.218 175.077 103.664 168.607 103.897 166.712C104.13 164.818 101.262 163.939 100.89 165.048C100.519 166.158 95.113 162.228 95.113 162.228Z" fill="#C4747B"/>
<path d="M100.474 86.4434L93.7317 87.1894C93.1293 87.256 92.5738 87.5463 92.1752 88.0029C91.7766 88.4596 91.564 89.0492 91.5795 89.6551C91.6516 92.351 91.6987 96.6389 91.3215 97.421C90.7668 98.5776 89.0583 106.807 96.4526 112.398L106.484 115.588L90.3979 116.744L90.9083 125.667L93.4045 124.28L123.913 125.667C123.913 125.667 132.559 124.788 126.687 115.405C120.815 106.022 108.337 96.822 108.337 96.822L108.199 89.5164L107.272 87.3919L100.474 86.4434Z" fill="#575988"/>
<path opacity="0.1" d="M108.842 115.446C109.935 114.969 111.116 114.723 112.309 114.723C113.502 114.723 114.682 114.969 115.776 115.446H108.842Z" fill="black"/>
<path d="M91.1856 116.694C91.1856 116.694 81.248 115.263 81.2008 117.157C81.1537 119.052 82.5876 137.496 87.3498 136.247C92.1119 134.999 90.0762 128.898 90.0762 128.898L93.6374 125.478C93.6374 125.478 94.0063 123.583 91.6488 123.767L91.1856 116.694Z" fill="#C4747B"/>
<path d="M107.641 64.9677L111.569 69.4525C111.569 69.4525 113.28 71.5798 115.313 68.3431C117.346 65.1064 121.137 59.3291 121.137 59.3291C121.137 59.3291 125.345 63.0262 126.454 62.2885C127.564 61.5507 116.239 77.6844 116.239 77.6844C116.239 77.6844 112.634 82.9985 107.27 76.7136L105.7 75.9731L107.641 64.9677Z" fill="#FF5374"/>
<path opacity="0.1" d="M107.641 64.9677L111.569 69.4525C111.569 69.4525 113.28 71.5798 115.313 68.3431C117.346 65.1064 121.137 59.3291 121.137 59.3291C121.137 59.3291 125.345 63.0262 126.454 62.2885C127.564 61.5507 116.239 77.6844 116.239 77.6844C116.239 77.6844 112.634 82.9985 107.27 76.7136L105.7 75.9731L107.641 64.9677Z" fill="black"/>
<path d="M95.6263 46.7428C100.145 46.7428 103.808 43.0796 103.808 38.5609C103.808 34.0421 100.145 30.3789 95.6263 30.3789C91.1075 30.3789 87.4443 34.0421 87.4443 38.5609C87.4443 43.0796 91.1075 46.7428 95.6263 46.7428Z" fill="#FFC1C7"/>
<path opacity="0.1" d="M95.6233 42.9649C95.6233 42.9649 88.5924 46.2932 89.4244 52.1176C90.2565 57.9421 90.3952 65.2919 90.3952 65.2919C90.3952 65.2919 93.5875 70.007 89.3551 79.021C89.3551 79.021 86.6509 83.5973 88.4537 86.9256C88.4537 86.9256 90.4534 81.6558 95.6233 85.5388C100.793 89.4218 109.117 91.2245 109.117 91.2245C109.117 91.2245 104.818 72.3645 107.452 69.7296C107.452 69.7296 112.029 62.9344 107.868 58.6354C103.708 54.3365 105.788 50.3148 105.788 50.3148L119.148 43.1508C119.148 43.1508 121.966 43.1951 125.758 37.2792C128.212 33.4986 130.915 29.885 133.848 26.4624C133.848 26.4624 130.98 22.1634 128.301 21.8389C128.301 21.8389 127.236 22.9483 126.498 25.9548C126.105 27.5496 123.428 30.215 121.007 32.3645C119.287 33.8899 117.629 35.4736 115.973 37.0795C114.747 38.2582 112.018 39.9445 106.066 40.8986C96.2695 42.4601 95.6233 42.9649 95.6233 42.9649Z" fill="black"/>
<path d="M95.6233 42.4102C95.6233 42.4102 88.5924 45.7385 89.4244 51.5629C90.2565 57.3874 90.3952 64.7372 90.3952 64.7372C90.3952 64.7372 93.5875 69.4523 89.3551 78.4663C89.3551 78.4663 86.6509 83.0426 88.4537 86.3709C88.4537 86.3709 90.4534 81.1011 95.6233 84.9841C100.793 88.8671 109.117 90.6698 109.117 90.6698C109.117 90.6698 104.818 71.8098 107.452 69.1749C107.452 69.1749 112.029 62.3797 107.868 58.0807C103.708 53.7818 105.788 49.7601 105.788 49.7601L119.148 42.5961C119.148 42.5961 121.966 42.6404 125.758 36.7245C128.212 32.9439 130.915 29.3303 133.848 25.9077C133.848 25.9077 130.98 21.6087 128.301 21.2842C128.301 21.2842 127.236 22.3936 126.498 25.4001C126.105 26.9949 123.428 29.6603 121.007 31.8098C119.287 33.3352 117.629 34.9189 115.973 36.5248C114.747 37.7035 112.018 39.3899 106.066 40.344C96.2695 41.9055 95.6233 42.4102 95.6233 42.4102Z" fill="#FF5374"/>
<path opacity="0.1" d="M101.678 77.2656C101.678 77.2656 107.131 85.3089 107.269 86.6957C107.272 86.6957 106.44 78.0505 101.678 77.2656Z" fill="black"/>
<path opacity="0.1" d="M94.5137 50.1768C94.5137 50.1768 98.3162 54.7531 103.811 50.9173C102.292 51.4329 100.684 51.6332 99.0857 51.5058C97.4872 51.3785 95.9314 50.9262 94.5137 50.1768Z" fill="black"/>
<path opacity="0.1" d="M97.4624 30.0045C97.3627 29.5888 97.1562 29.2064 96.8633 28.895C95.6096 27.3224 94.2478 25.7082 92.3812 24.9622C91.1422 24.4993 89.7876 24.445 88.5155 24.8073C87.2434 25.1696 86.1207 25.9295 85.3115 26.9758C84.6403 27.8799 84.2409 28.9561 83.6612 29.924C82.5906 31.7157 80.9348 33.097 79.1542 34.1897C78.0809 34.8471 76.9493 35.4156 75.9369 36.1617C72.2564 38.8715 70.5562 43.8805 71.4826 48.3653C71.8903 50.329 72.7529 52.2649 72.5199 54.2591C72.3396 55.8067 71.5159 57.1935 70.6811 58.5081C69.8462 59.8228 68.9559 61.1541 68.6231 62.6684C68.2903 64.1828 68.6397 65.9773 69.8961 66.8953C70.3593 67.2337 70.9168 67.45 71.3134 67.855C71.5759 68.1702 71.7951 68.519 71.9652 68.8923C72.6259 70.1111 73.5281 71.1825 74.6168 72.0408C75.7056 72.8992 76.9578 73.5266 78.2972 73.8847C79.4898 74.1981 81.0902 74.0843 81.5256 72.9306C81.5756 72.7268 81.6511 72.5302 81.7503 72.3453C82.1441 71.7906 83.0122 72.1013 83.6224 72.4202C85.0115 73.1464 86.5334 73.5832 88.0961 73.7044C88.7159 73.7861 89.3463 73.7108 89.9294 73.4853C90.4217 73.2353 90.8455 72.8687 91.1637 72.4175C92.6225 70.5176 93.0413 68.0353 93.291 65.6528C93.4546 64.1024 93.5683 62.5242 93.2715 60.9932C92.8 58.5359 91.3051 56.2394 91.527 53.7487C91.7627 51.0861 93.9233 48.9089 94.2534 46.2602C94.4212 44.8734 94.0748 43.4732 93.2799 42.3245C92.9865 41.9698 92.7378 41.5805 92.5393 41.1652C92.4447 40.9552 92.4152 40.7215 92.4548 40.4946C92.4943 40.2676 92.6011 40.0578 92.7612 39.8921C92.9368 39.7684 93.1318 39.6747 93.3381 39.6148C95.1215 38.9297 96.0728 37.1436 96.2004 35.3158C96.2503 34.6224 96.2004 33.9845 96.3918 33.3077C96.6969 32.2621 97.6205 31.1194 97.4624 30.0045Z" fill="black"/>
<path d="M96.9072 30.0045C96.8075 29.5888 96.601 29.2064 96.3081 28.895C95.0544 27.3224 93.6926 25.7082 91.826 24.9622C90.587 24.4993 89.2324 24.445 87.9603 24.8073C86.6882 25.1696 85.5655 25.9295 84.7563 26.9758C84.0851 27.8799 83.6857 28.9561 83.106 29.924C82.0355 31.7157 80.3797 33.097 78.599 34.1897C77.5257 34.8471 76.3941 35.4156 75.3817 36.1617C71.7012 38.8715 70.0011 43.8805 70.9274 48.3653C71.3351 50.329 72.1977 52.2649 71.9647 54.2591C71.7845 55.8067 70.9607 57.1935 70.1259 58.5081C69.291 59.8228 68.4007 61.1541 68.0679 62.6684C67.7351 64.1828 68.0845 65.9773 69.341 66.8953C69.8041 67.2337 70.3616 67.45 70.7582 67.855C71.0207 68.1702 71.2399 68.519 71.41 68.8923C72.0707 70.1111 72.973 71.1825 74.0617 72.0408C75.1504 72.8992 76.4027 73.5266 77.742 73.8847C78.9346 74.1981 80.535 74.0843 80.9704 72.9306C81.0204 72.7268 81.0959 72.5302 81.1951 72.3453C81.5889 71.7906 82.457 72.1013 83.0672 72.4202C84.4563 73.1464 85.9782 73.5832 87.5409 73.7044C88.1607 73.7861 88.7912 73.7108 89.3742 73.4853C89.8665 73.2353 90.2903 72.8687 90.6085 72.4175C92.0674 70.5176 92.4862 68.0353 92.7358 65.6528C92.8994 64.1024 93.0131 62.5242 92.7164 60.9932C92.2449 58.5359 90.7499 56.2394 90.9718 53.7487C91.2076 51.0861 93.3681 48.9089 93.6982 46.2602C93.866 44.8734 93.5196 43.4732 92.7247 42.3245C92.4313 41.9698 92.1826 41.5805 91.9841 41.1652C91.8895 40.9552 91.86 40.7215 91.8996 40.4946C91.9391 40.2676 92.0459 40.0578 92.206 39.8921C92.3817 39.7684 92.5766 39.6747 92.7829 39.6148C94.5663 38.9297 95.5176 37.1436 95.6452 35.3158C95.6951 34.6224 95.6452 33.9845 95.8366 33.3077C96.1417 32.2621 97.0653 31.1194 96.9072 30.0045Z" fill="#BB7684"/>
<g opacity="0.1">
<path opacity="0.1" d="M80.369 72.3312C80.2699 72.5164 80.1936 72.7129 80.1415 72.9164C79.8836 73.6042 79.2096 73.9204 78.458 73.9981C79.5036 74.1034 80.6214 73.8511 80.9736 72.9164C81.0256 72.7129 81.102 72.5164 81.201 72.3312C81.2708 72.2293 81.3666 72.1479 81.4784 72.0954C81.0568 71.9734 80.6241 71.9789 80.369 72.3312Z" fill="black"/>
<path opacity="0.1" d="M96.9215 30.0017C96.8245 29.585 96.6177 29.2019 96.3224 28.8923C95.0688 27.3197 93.707 25.7055 91.8404 24.9594C91.0291 24.6427 90.1572 24.5119 89.2887 24.5767C89.8784 24.6138 90.4586 24.7429 91.0083 24.9594C92.8749 25.7055 94.2367 27.3197 95.4904 28.8923C95.7856 29.2019 95.9925 29.585 96.0894 30.0017C96.2475 31.1111 95.3267 32.2622 95.0216 33.2884C94.8192 33.9651 94.8774 34.6003 94.8303 35.2964C94.6999 37.1214 93.7513 38.902 91.9652 39.5954C91.7589 39.6553 91.5639 39.749 91.3883 39.8728C91.228 40.0389 91.1215 40.2494 91.0824 40.477C91.0433 40.7045 91.0736 40.9385 91.1692 41.1486C91.3667 41.5638 91.6145 41.9532 91.9069 42.3079C92.7027 43.4553 93.05 44.8546 92.8832 46.2408C92.5504 48.8951 90.387 51.0695 90.1541 53.7294C89.9322 56.2256 91.4299 58.5165 91.8986 60.9711C92.1926 62.5021 92.0817 64.0802 91.918 65.6306C91.6684 68.0131 91.2524 70.4982 89.7907 72.3953C89.4736 72.8465 89.0508 73.2131 88.5593 73.4631C88.272 73.5891 87.9652 73.665 87.6523 73.6878C88.2417 73.7579 88.8392 73.6807 89.3913 73.4631C89.8838 73.2197 90.3093 72.8598 90.6311 72.4147C92.0928 70.5176 92.5088 68.0325 92.7584 65.65C92.9221 64.0996 93.0358 62.5215 92.739 60.9905C92.2703 58.5359 90.7726 56.2367 90.9945 53.7488C91.233 51.0834 93.3908 48.909 93.7236 46.2602C93.8904 44.874 93.543 43.4747 92.7473 42.3273C92.4549 41.9726 92.2071 41.5832 92.0096 41.168C91.9139 40.9579 91.8837 40.7239 91.9228 40.4964C91.9618 40.2689 92.0684 40.0583 92.2287 39.8922C92.4043 39.7684 92.5993 39.6747 92.8056 39.6148C94.5917 38.927 95.5403 37.1408 95.6706 35.3158C95.7178 34.6197 95.6706 33.9845 95.862 33.3078C96.1588 32.2622 97.0796 31.1195 96.9215 30.0017Z" fill="black"/>
</g>
<path opacity="0.1" d="M86.4209 127.886C86.8962 128.405 87.5081 128.779 88.1865 128.967C88.8649 129.154 89.5824 129.147 90.2567 128.945" fill="black"/>
<path opacity="0.1" d="M104.194 175.313C103.928 175.528 103.62 175.682 103.29 175.765C102.959 175.848 102.615 175.859 102.28 175.796" fill="black"/>
<path opacity="0.1" d="M29.1635 183.922C33.2886 183.922 36.6326 183.357 36.6326 182.66C36.6326 181.963 33.2886 181.398 29.1635 181.398C25.0384 181.398 21.6943 181.963 21.6943 182.66C21.6943 183.357 25.0384 183.922 29.1635 183.922Z" fill="#008FFF"/>
<path d="M233.651 209.05C237.776 209.05 241.12 208.485 241.12 207.788C241.12 207.091 237.776 206.526 233.651 206.526C229.526 206.526 226.182 207.091 226.182 207.788C226.182 208.485 229.526 209.05 233.651 209.05Z" fill="#008FFF"/>
<path opacity="0.1" d="M233.651 184.76C237.776 184.76 241.12 184.195 241.12 183.498C241.12 182.801 237.776 182.236 233.651 182.236C229.526 182.236 226.182 182.801 226.182 183.498C226.182 184.195 229.526 184.76 233.651 184.76Z" fill="#008FFF"/>
<path opacity="0.1" d="M50.3427 195.64C54.4678 195.64 57.8118 195.075 57.8118 194.378C57.8118 193.681 54.4678 193.116 50.3427 193.116C46.2176 193.116 42.8735 193.681 42.8735 194.378C42.8735 195.075 46.2176 195.64 50.3427 195.64Z" fill="#008FFF"/>
<path d="M257.273 196.264C263.433 196.264 268.426 195.42 268.426 194.378C268.426 193.337 263.433 192.492 257.273 192.492C251.114 192.492 246.121 193.337 246.121 194.378C246.121 195.42 251.114 196.264 257.273 196.264Z" fill="#008FFF"/>
<path opacity="0.1" d="M96.9241 213.396C110.827 213.396 122.097 211.491 122.097 209.141C122.097 206.792 110.827 204.887 96.9241 204.887C83.0216 204.887 71.7515 206.792 71.7515 209.141C71.7515 211.491 83.0216 213.396 96.9241 213.396Z" fill="#008FFF"/>
<path d="M261.883 191.294C262.393 190.878 262.764 190.318 262.949 189.688C263.084 189.05 262.813 188.287 262.205 188.054C261.523 187.793 260.793 188.265 260.242 188.745C259.69 189.225 259.054 189.765 258.331 189.666C258.703 189.329 258.981 188.901 259.139 188.424C259.296 187.947 259.327 187.437 259.229 186.945C259.198 186.741 259.112 186.549 258.98 186.39C258.6 185.985 257.915 186.16 257.46 186.479C256.017 187.494 255.615 189.452 255.607 191.216C255.463 190.581 255.585 189.918 255.582 189.275C255.579 188.631 255.399 187.888 254.85 187.547C254.51 187.36 254.128 187.264 253.74 187.269C253.091 187.247 252.37 187.311 251.927 187.785C251.372 188.376 251.519 189.363 251.999 190.004C252.478 190.645 253.205 191.058 253.874 191.507C254.411 191.827 254.87 192.264 255.216 192.786C255.256 192.859 255.289 192.935 255.316 193.013H259.379C260.287 192.555 261.13 191.977 261.883 191.294Z" fill="#008FFF"/>
<path d="M238.264 204.77C238.772 204.355 239.142 203.795 239.326 203.164C239.462 202.526 239.193 201.778 238.583 201.531C237.9 201.27 237.171 201.742 236.619 202.221C236.067 202.701 235.432 203.242 234.708 203.142C235.08 202.805 235.359 202.377 235.516 201.9C235.674 201.423 235.705 200.914 235.607 200.421C235.577 200.217 235.49 200.025 235.357 199.867C234.98 199.462 234.292 199.636 233.84 199.955C232.398 200.97 231.996 202.929 231.987 204.693C231.84 204.057 231.962 203.395 231.959 202.751C231.957 202.108 231.776 201.364 231.227 201.023C230.887 200.84 230.504 200.749 230.118 200.76C229.469 200.738 228.748 200.801 228.304 201.276C227.749 201.866 227.896 202.854 228.376 203.494C228.856 204.135 229.583 204.548 230.254 204.998C230.791 205.318 231.249 205.755 231.593 206.276C231.633 206.349 231.667 206.425 231.693 206.504H235.756C236.666 206.041 237.51 205.458 238.264 204.77Z" fill="#008FFF"/>
<path d="M58.8018 179.751C58.8018 179.751 54.905 166.518 59.5341 156.78C61.5052 152.706 62.1009 148.103 61.2315 143.661C60.8025 141.557 60.1814 139.497 59.376 137.507" stroke="#535461" stroke-width="2" stroke-miterlimit="10"/>
<path d="M62.2465 131.353C62.2465 132.975 59.3093 137.676 59.3093 137.676C59.3093 137.676 56.3749 132.975 56.3749 131.353C56.3628 130.959 56.4298 130.568 56.5719 130.201C56.714 129.834 56.9283 129.5 57.2021 129.218C57.476 128.935 57.8037 128.711 58.1659 128.558C58.5281 128.404 58.9174 128.325 59.3107 128.325C59.704 128.325 60.0933 128.404 60.4555 128.558C60.8177 128.711 61.1455 128.935 61.4193 129.218C61.6931 129.5 61.9074 129.834 62.0495 130.201C62.1916 130.568 62.2586 130.959 62.2465 131.353Z" fill="#008FFF"/>
<path d="M67.1003 140.336C66.2184 141.695 61.1982 144.047 61.1982 144.047C61.1982 144.047 61.2898 138.5 62.1718 137.143C62.6051 136.513 63.2674 136.077 64.0176 135.927C64.7678 135.777 65.5468 135.926 66.1889 136.342C66.831 136.758 67.2855 137.408 67.4557 138.154C67.6259 138.9 67.4984 139.682 67.1003 140.336Z" fill="#008FFF"/>
<path d="M66.8893 155.685C65.4416 156.417 59.9194 155.913 59.9194 155.913C59.9194 155.913 62.7956 151.173 64.2434 150.443C64.9354 150.119 65.7267 150.076 66.4492 150.326C67.1718 150.575 67.7686 151.096 68.1131 151.779C68.4575 152.461 68.5223 153.251 68.2938 153.98C68.0654 154.71 67.5615 155.321 66.8893 155.685Z" fill="#008FFF"/>
<path d="M64.1135 167.27C62.8099 168.232 57.2822 168.657 57.2822 168.657C57.2822 168.657 59.318 163.498 60.6105 162.533C61.2377 162.114 62.0018 161.953 62.7446 162.083C63.4874 162.212 64.152 162.622 64.6007 163.228C65.0495 163.834 65.248 164.589 65.1552 165.338C65.0625 166.086 64.6855 166.77 64.1024 167.248L64.1135 167.27Z" fill="#008FFF"/>
<path d="M55.0328 144.363C56.1976 145.492 61.6144 146.663 61.6144 146.663C61.6144 146.663 60.2886 141.279 59.1182 140.15C58.5552 139.631 57.8116 139.352 57.0459 139.373C56.2802 139.394 55.553 139.714 55.0194 140.263C54.4858 140.813 54.188 141.549 54.1895 142.315C54.1909 143.081 54.4915 143.816 55.0272 144.363H55.0328Z" fill="#008FFF"/>
<path d="M51.9595 157.945C53.4073 158.674 58.9267 158.17 58.9267 158.17C58.9267 158.17 56.0505 153.43 54.6027 152.7C53.9094 152.368 53.1136 152.321 52.386 152.569C51.6585 152.817 51.0572 153.341 50.7112 154.027C50.3653 154.714 50.3022 155.509 50.5356 156.241C50.769 156.973 51.2802 157.585 51.9595 157.945Z" fill="#008FFF"/>
<path d="M50.7809 171.554C52.0845 172.52 57.6121 172.941 57.6121 172.941C57.6121 172.941 55.5764 167.782 54.2839 166.82C53.6566 166.402 52.8925 166.24 52.1497 166.37C51.4069 166.499 50.7424 166.909 50.2936 167.515C49.8449 168.121 49.6464 168.877 49.7391 169.625C49.8319 170.373 50.2089 171.057 50.792 171.535L50.7809 171.554Z" fill="#008FFF"/>
<path d="M49.5825 178.918C49.5825 178.918 54.328 177.975 55.5956 176.719C56.8631 175.463 62.5544 173.266 63.1867 174.836C63.8191 176.406 71.7292 181.745 66.3513 182.688C60.9734 183.631 53.6957 183.944 52.1148 183.317C50.5338 182.69 49.5825 178.918 49.5825 178.918Z" fill="#A8A8A8"/>
<path opacity="0.2" d="M66.3597 182.097C60.9818 183.04 53.704 183.353 52.1231 182.724C50.9166 182.247 50.079 179.95 49.7489 178.877L49.5825 178.919C49.5825 178.919 50.5311 182.688 52.1148 183.317C53.6985 183.947 60.9734 183.631 66.3513 182.688C67.9045 182.41 68.3483 181.778 68.1819 180.968C68.0571 181.487 67.5162 181.895 66.3597 182.097Z" fill="black"/>
<path d="M235.18 165.304C235.18 165.304 236.705 167.298 234.478 170.296C232.251 173.294 230.415 175.843 231.15 177.721C231.15 177.721 234.511 172.132 237.252 172.055C239.992 171.977 238.184 168.657 235.18 165.304Z" fill="#008FFF"/>
<path opacity="0.1" d="M235.18 165.304C235.313 165.497 235.418 165.708 235.493 165.931C238.161 169.065 239.581 171.991 237.016 172.063C234.628 172.132 231.763 176.403 231.075 177.482C231.097 177.566 231.124 177.648 231.155 177.729C231.155 177.729 234.517 172.14 237.257 172.063C239.997 171.985 238.183 168.657 235.18 165.304Z" fill="black"/>
<path d="M238.014 167.844C238.014 168.546 237.933 169.114 237.836 169.114C237.739 169.114 237.662 168.559 237.662 167.844C237.662 167.128 237.759 167.472 237.856 167.472C237.953 167.472 238.014 167.142 238.014 167.844Z" fill="#FFD037"/>
<path d="M238.985 168.682C238.369 169.017 237.831 169.22 237.787 169.134C237.742 169.048 238.2 168.709 238.816 168.374C239.431 168.038 239.19 168.282 239.237 168.374C239.284 168.465 239.601 168.346 238.985 168.682Z" fill="#FFD037"/>
<path d="M227.133 165.304C227.133 165.304 225.608 167.298 227.835 170.296C230.062 173.294 231.898 175.843 231.163 177.721C231.163 177.721 227.805 172.132 225.062 172.055C222.319 171.977 224.124 168.657 227.133 165.304Z" fill="#008FFF"/>
<path opacity="0.1" d="M227.134 165.304C227 165.497 226.895 165.708 226.82 165.931C224.152 169.065 222.732 171.991 225.298 172.063C227.686 172.132 230.551 176.403 231.239 177.482C231.216 177.566 231.188 177.649 231.155 177.729C231.155 177.729 227.797 172.14 225.054 172.063C222.31 171.985 224.124 168.657 227.134 165.304Z" fill="black"/>
<path d="M224.299 167.844C224.299 168.546 224.379 169.114 224.476 169.114C224.573 169.114 224.651 168.559 224.651 167.844C224.651 167.128 224.554 167.472 224.457 167.472C224.36 167.472 224.299 167.142 224.299 167.844Z" fill="#FFD037"/>
<path d="M223.328 168.682C223.944 169.017 224.479 169.22 224.526 169.134C224.573 169.048 224.113 168.709 223.497 168.374C222.881 168.038 223.123 168.282 223.076 168.374C223.028 168.465 222.712 168.346 223.328 168.682Z" fill="#FFD037"/>
<path d="M224.784 177.468C224.784 177.468 229.044 177.335 230.331 176.422C231.618 175.51 236.885 174.417 237.204 175.867C237.523 177.318 243.605 183.159 238.796 183.198C233.987 183.237 227.622 182.449 226.34 181.67C225.059 180.89 224.784 177.468 224.784 177.468Z" fill="#A8A8A8"/>
<path opacity="0.2" d="M238.879 182.702C234.07 182.741 227.705 181.953 226.423 181.174C225.447 180.58 225.056 178.448 224.928 177.463H224.784C224.784 177.463 225.062 180.899 226.337 181.679C227.613 182.458 233.984 183.246 238.793 183.207C240.18 183.207 240.66 182.702 240.635 181.973C240.441 182.419 239.911 182.694 238.879 182.702Z" fill="black"/>
</g>
<defs>
<linearGradient id="paint0_linear" x1="147.156" y1="195.701" x2="147.156" y2="6.84547" gradientUnits="userSpaceOnUse">
<stop stop-color="#808080" stop-opacity="0.25"/>
<stop offset="0.54" stop-color="#808080" stop-opacity="0.12"/>
<stop offset="1" stop-color="#808080" stop-opacity="0.1"/>
</linearGradient>
<clipPath id="clip0">
<rect y="0.771484" width="280" height="212.625" fill="white"/>
</clipPath>
</defs>
</svg>
