<svg width="22" height="22" viewBox="0 0 22 22" fill="none" xmlns="http://www.w3.org/2000/svg">
<path d="M17.4194 15.581C15.9068 15.581 14.6763 16.8116 14.6763 18.3241C14.6763 19.8367 15.9069 21.0673 17.4194 21.0673C18.932 21.0673 20.1626 19.8367 20.1626 18.3241C20.1626 16.8116 18.932 15.581 17.4194 15.581ZM17.4194 19.4214C16.8143 19.4214 16.3222 18.9293 16.3222 18.3241C16.3222 17.719 16.8143 17.2269 17.4194 17.2269C18.0245 17.2269 18.5167 17.719 18.5167 18.3241C18.5167 18.9293 18.0245 19.4214 17.4194 19.4214Z" fill="black"/>
<path d="M21.8251 4.97907C21.6693 4.77965 21.4304 4.66333 21.1772 4.66333H5.0798L4.33914 1.56441C4.25054 1.1941 3.91942 0.932678 3.53867 0.932678H0.822942C0.368416 0.932635 0 1.30105 0 1.75558C0 2.2101 0.368416 2.57852 0.822942 2.57852H2.88911L5.56367 13.7695C5.65227 14.1401 5.98339 14.4012 6.36414 14.4012H19.1747C19.553 14.4012 19.8827 14.1434 19.9735 13.7763L21.976 5.68402C22.0366 5.43828 21.9809 5.17849 21.8251 4.97907ZM18.5309 12.7554H7.0137L5.47313 6.30922H20.1257L18.5309 12.7554Z" fill="black"/>
<path d="M7.46091 15.581C5.94832 15.581 4.71777 16.8116 4.71777 18.3241C4.71777 19.8367 5.94836 21.0673 7.46091 21.0673C8.97347 21.0673 10.2041 19.8367 10.2041 18.3241C10.2041 16.8116 8.97347 15.581 7.46091 15.581ZM7.46091 19.4214C6.85578 19.4214 6.36366 18.9293 6.36366 18.3241C6.36366 17.719 6.85578 17.2269 7.46091 17.2269C8.06605 17.2269 8.55817 17.719 8.55817 18.3241C8.55817 18.9293 8.06605 19.4214 7.46091 19.4214Z" fill="black"/>
</svg>
