<svg width="14" height="8" viewBox="0 0 14 8" fill="none" xmlns="http://www.w3.org/2000/svg">
<path fill-rule="evenodd" clip-rule="evenodd" d="M6.94778 7.85385C6.77809 7.84222 6.61736 7.77644 6.49126 7.667L0.404304 2.417C0.202129 2.24278 0.112294 1.97844 0.168639 1.72354C0.224984 1.46864 0.41895 1.26191 0.677471 1.18122C0.935991 1.10053 1.21979 1.15815 1.42197 1.33236L7.00009 6.14486L12.5782 1.33236C12.7804 1.15811 13.0642 1.10047 13.3228 1.18116C13.5813 1.26184 13.7753 1.46859 13.8316 1.72351C13.888 1.97843 13.7981 2.24279 13.5959 2.417L7.50892 7.667C7.35602 7.79957 7.15352 7.867 6.94778 7.85385Z" fill="#1A303E"/>
</svg>
