<svg width="188" height="181" viewBox="0 0 188 181" fill="none" xmlns="http://www.w3.org/2000/svg">
<path d="M187.203 90.3408C187.203 78.4771 184.788 66.7295 180.097 55.7689C175.406 44.8082 168.53 34.8491 159.862 26.4602C151.194 18.0713 140.903 11.4168 129.578 6.87678C118.252 2.33673 106.114 -5.1858e-07 93.8549 0C81.5962 5.1858e-07 69.4576 2.33673 58.1321 6.87678C46.8066 11.4168 36.516 18.0713 27.8478 26.4602C19.1797 34.8491 12.3037 44.8082 7.61253 55.7689C2.92135 66.7295 0.506835 78.4771 0.506836 90.3408H28.5113C28.5113 82.0362 30.2014 73.8129 33.4852 66.1404C36.7691 58.468 41.5822 51.4966 47.65 45.6244C53.7177 39.7521 60.9211 35.094 68.849 31.916C76.7768 28.7379 85.2738 27.1022 93.8549 27.1022C102.436 27.1022 110.933 28.7379 118.861 31.916C126.789 35.094 133.992 39.7521 140.06 45.6244C146.128 51.4966 150.941 58.468 154.225 66.1404C157.508 73.8129 159.199 82.0362 159.199 90.3408H187.203Z" fill="#02B875"/>
<path d="M187.203 90.3408C187.203 71.2627 180.962 52.6743 169.375 37.2398C157.788 21.8053 141.449 10.317 122.701 4.42159C103.953 -1.47386 83.7571 -1.47386 65.0088 4.42159C46.2604 10.3171 29.9218 21.8053 18.3347 37.2398L40.9908 53.1701C49.1018 42.3659 60.5388 34.3242 73.6626 30.1973C86.7864 26.0705 100.923 26.0705 114.047 30.1973C127.171 34.3242 138.608 42.3659 146.719 53.1701C154.83 63.9743 159.199 76.9861 159.199 90.3408H187.203Z" fill="#5DC644"/>
<path d="M187.203 90.3408C187.203 76.0841 183.716 62.0298 177.029 49.3269C170.341 36.6241 160.641 25.6334 148.723 17.2536C136.806 8.87367 123.008 3.34249 108.458 1.11224C93.9078 -1.118 79.019 0.016026 65.0088 4.42159L73.6626 30.1973C83.4698 27.1135 93.8919 26.3196 104.077 27.8808C114.262 29.442 123.92 33.3138 132.263 39.1797C140.605 45.0456 147.395 52.7391 152.076 61.6311C156.758 70.5231 159.199 80.3611 159.199 90.3408H187.203Z" fill="#FFC100"/>
<path d="M187.203 90.3408C187.203 71.2627 180.962 52.6743 169.375 37.2398C157.788 21.8053 141.449 10.317 122.701 4.42159L114.047 30.1973C127.171 34.3242 138.608 42.3659 146.719 53.1701C154.83 63.9743 159.199 76.9861 159.199 90.3408H187.203Z" fill="#FDAF40"/>
<path d="M187.203 90.3408C187.203 71.2627 180.962 52.6743 169.375 37.2398L146.719 53.1701C154.83 63.9743 159.199 76.9861 159.199 90.3408H187.203Z" fill="#FF7272"/>
<path d="M88.4451 11.8755L94.0817 4.6904L92.5181 88.9151L88.4451 11.8755Z" fill="#C4C4C4"/>
<path d="M99.448 12.0728L92.5179 88.9326L94.0815 4.70794L99.448 12.0728Z" fill="#848484"/>
<path d="M94.7827 82.4111C98.3919 83.7966 100.195 87.8455 98.8092 91.4547C97.4237 95.064 93.3747 96.8667 89.7655 95.4812C86.1563 94.0958 84.3536 90.0468 85.739 86.4376C87.1245 82.8284 91.1735 81.0257 94.7827 82.4111ZM91.8098 90.1558C92.4778 90.4123 93.2273 90.0786 93.4838 89.4105C93.7402 88.7424 93.4065 87.993 92.7385 87.7365C92.0704 87.4801 91.3209 87.8137 91.0644 88.4818C90.808 89.1499 91.1417 89.8994 91.8098 90.1558Z" fill="#008FFF"/>
</svg>
