<svg width="16" height="16" viewBox="0 0 16 16" fill="none" xmlns="http://www.w3.org/2000/svg">
<path d="M9.67036 2.63531L8.00033 0.96528L6.33455 2.63531L5.84766 2.14842L8.00033 0L10.153 2.14842L9.67036 2.63531Z" fill="black"/>
<path d="M7.6582 0.482422H8.34156V6.63298H7.6582V0.482422Z" fill="black"/>
<path d="M13.8469 10.1525L13.3643 9.66562L15.0343 7.99984L13.3643 6.33406L13.8512 5.84717L15.9996 7.99984L13.8469 10.1525Z" fill="black"/>
<path d="M9.36719 7.6582H15.5177V8.34156H9.36719V7.6582Z" fill="black"/>
<path d="M8.00033 16.0001L5.84766 13.8516L6.3303 13.3647L8.00033 15.0348L9.6661 13.3647L10.153 13.8516L8.00033 16.0001Z" fill="black"/>
<path d="M7.6582 9.3667H8.34156V15.5173H7.6582V9.3667Z" fill="black"/>
<path d="M2.14842 10.1525L0 7.99984L2.15267 5.84717L2.63531 6.33406L0.96528 7.99984L2.63531 9.66562L2.14842 10.1525Z" fill="black"/>
<path d="M0.482422 7.6582H6.63298V8.34156H0.482422V7.6582Z" fill="black"/>
</svg>
