<svg width="30" height="30" viewBox="0 0 30 30" fill="none" xmlns="http://www.w3.org/2000/svg">
<rect width="30" height="30" rx="4" fill="#02B875"/>
<path d="M21.364 8.63602C19.6641 6.93618 17.404 6 15 6C12.596 6 10.3359 6.93618 8.63602 8.63602C6.93618 10.3359 6 12.596 6 15C6 16.5857 6.41611 18.137 7.20537 19.5014L6 24L10.4986 22.7946C11.863 23.5839 13.4143 24 15 24C17.404 24 19.6641 23.0638 21.364 21.364C23.0638 19.6641 24 17.404 24 15C24 12.596 23.0638 10.3359 21.364 8.63602ZM15 22.9453C13.5321 22.9453 12.098 22.5417 10.8528 21.7781L10.6596 21.6596L7.49154 22.5085L8.34042 19.3405L8.22195 19.1472C7.45828 17.902 7.05469 16.4679 7.05469 15C7.05469 10.6189 10.6189 7.05469 15 7.05469C19.3811 7.05469 22.9453 10.6189 22.9453 15C22.9453 19.3811 19.3811 22.9453 15 22.9453Z" fill="white"/>
<path d="M15.5273 18.4277H14.4727V19.4824H15.5273V18.4277Z" fill="white"/>
<path d="M15 10.5176C13.5461 10.5176 12.3633 11.7004 12.3633 13.1543H13.418C13.418 12.282 14.1277 11.5723 15 11.5723C15.8723 11.5723 16.582 12.282 16.582 13.1543C16.582 13.5439 16.4389 13.9183 16.1789 14.2088L14.4727 16.1169V17.373H15.5273V16.5198L16.965 14.9121C17.3981 14.428 17.6367 13.8038 17.6367 13.1543C17.6367 11.7004 16.4539 10.5176 15 10.5176Z" fill="white"/>
</svg>
