<svg width="84" height="84" viewBox="0 0 84 84" fill="none" xmlns="http://www.w3.org/2000/svg">
<g clip-path="url(#clip0)">
<path d="M48.9658 6.90921C48.9658 10.7256 45.8723 13.8191 42.0566 13.8191C38.2402 13.8191 35.1467 10.7256 35.1467 6.90921C35.1467 3.09348 38.2402 0 42.0566 0C45.8723 0 48.9658 3.09348 48.9658 6.90921Z" fill="#B2B9BF"/>
<path d="M42.0566 5.69141C30.3447 6.04581 20.9758 14.3848 20.9758 24.6214C20.9758 42.5375 30.3447 45.8105 42.0566 45.9431C53.7678 45.8105 63.1373 42.5375 63.1373 24.6214C63.1373 14.3848 53.7678 6.04581 42.0566 5.69141Z" fill="#D7DEE3"/>
<path d="M42.0564 5.69141C40.6702 5.73306 39.3179 5.88815 38.0093 6.14386C47.7595 8.04724 55.0436 15.596 55.0436 24.6214C55.0436 40.4175 47.7595 44.8299 38.0093 45.7444C39.3179 45.8668 40.6702 45.9271 42.0564 45.9431C53.7676 45.8105 63.1371 42.5375 63.1371 24.6214C63.1371 14.3848 53.7676 6.04581 42.0564 5.69141Z" fill="#CCD2D6"/>
<path d="M65.9871 57.5671C61.9887 55.5375 57.7961 54.0481 53.5139 53.0977C50.5043 52.4299 48.351 49.7806 48.351 46.698V41.0532H35.7611V46.698C35.7611 49.7806 33.6078 52.4299 30.5983 53.0977C26.3154 54.0481 22.1234 55.5375 18.1251 57.5671C14.856 59.2263 12.7969 62.5813 12.7969 66.2471V82.3611C12.7969 83.2666 13.5307 84.0004 14.4362 84.0004H69.6759C70.5815 84.0004 71.3153 83.2666 71.3153 82.3611V66.2471C71.3153 62.5813 69.2562 59.2263 65.9871 57.5671Z" fill="#DD9554"/>
<path d="M28.7351 24.6406H26.4466C24.5041 24.6406 22.9314 26.2152 22.9314 28.1577V29.8214C22.9314 31.7632 24.5041 33.3385 26.4466 33.3385H28.7351V24.6406Z" fill="#DD9554"/>
<path d="M55.377 24.6406H57.6655C59.608 24.6406 61.1807 26.2152 61.1807 28.1577V29.8214C61.1807 31.7632 59.608 33.3385 57.6655 33.3385H55.377V24.6406Z" fill="#DD9554"/>
<path d="M53.4233 22.4083C43.3771 22.4083 42.062 16.9006 42.062 16.9006H42.0498C42.0498 16.9006 40.7348 22.4083 30.6885 22.4083C28.9504 22.4083 27.5373 23.806 27.5405 25.544C27.5469 29.0964 27.5572 34.2631 27.5572 34.2631C27.5572 43.2404 36.6466 47.9572 42.0549 47.9572H42.0562H42.0575C47.4658 47.9572 56.5546 43.2404 56.5546 34.2631C56.5546 34.2631 56.5649 29.0964 56.5713 25.544C56.5745 23.806 55.1614 22.4083 53.4233 22.4083Z" fill="#EBAE6D"/>
<path d="M53.4235 22.4084C51.4189 22.4084 49.7628 22.1886 48.3946 21.8374C48.3888 26.8791 48.3824 34.2639 48.3824 34.2639C48.3824 41.2109 42.9389 45.606 37.9702 47.2383C39.4211 47.7151 40.8323 47.9573 42.0551 47.9573H42.0564H42.0577C47.466 47.9573 56.5548 43.2405 56.5548 34.2639C56.5548 34.2639 56.565 29.0965 56.5714 25.5442C56.5746 23.8062 55.1615 22.4084 53.4235 22.4084Z" fill="#DD9554"/>
<path d="M65.9871 57.5673C63.496 56.3029 60.9293 55.248 58.3127 54.4027C53.0204 52.7589 53.1915 58.8234 42.0558 58.8234C31.7275 58.8234 31.0911 52.7589 25.7988 54.4027C23.1822 55.248 20.6161 56.3029 18.1244 57.5673C14.856 59.2265 12.7969 62.5815 12.7969 66.2472V82.3612C12.7969 83.2668 13.5307 84.0006 14.4362 84.0006H69.6759C70.5815 84.0006 71.3153 83.2668 71.3153 82.3612V66.2472C71.3153 62.5815 69.2562 59.2265 65.9871 57.5673Z" fill="#FC6A58"/>
<path d="M69.676 84.0002C70.5815 84.0002 71.3153 83.2664 71.3153 82.3608V66.2468C71.3153 62.581 69.2562 59.2261 65.9878 57.5669C63.4961 56.3024 60.93 55.2476 58.3134 54.4023C53.8189 53.0064 53.2627 57.1676 46.3804 58.4551C50.3025 59.4087 54.1407 60.8167 57.8154 62.6823C61.0838 64.3415 63.1429 67.6958 63.1429 71.3616V84.0002H69.676Z" fill="#E35052"/>
<path d="M42.0565 58.8234C31.7282 58.8234 31.0919 52.7589 25.7996 54.4027C25.0959 54.6302 24.3961 54.8737 23.7001 55.1314C23.3572 56.1029 23.4969 57.0828 24.0013 57.6269C24.6633 58.3883 25.947 58.7407 27.2088 57.9057C27.3723 57.7967 27.5754 57.9582 27.5075 58.1422C26.9685 59.6059 27.4639 61.0863 28.4605 61.6368C29.4468 62.3001 31.0797 62.2264 32.2121 60.9652C32.3422 60.821 32.5787 60.9261 32.5582 61.1196C32.38 62.8051 33.4509 64.1119 34.7083 64.4573C35.9894 64.8444 37.6973 64.2779 38.4843 62.6808C38.5721 62.502 38.8304 62.5392 38.8643 62.7353C39.1694 64.4816 40.6658 65.4968 42.0507 65.4801C43.4356 65.4968 44.9327 64.4816 45.2384 62.7353C45.2724 62.5392 45.53 62.502 45.6178 62.6808C46.4048 64.2779 48.1121 64.8444 49.3938 64.4573C50.6518 64.1119 51.7227 62.8051 51.5446 61.1196C51.5241 60.9261 51.7612 60.821 51.8906 60.9652C53.023 62.2264 54.656 62.3001 55.6423 61.6368C56.5799 60.9652 57.1586 59.6091 56.6023 58.1383C56.5331 57.955 56.7356 57.7935 56.9003 57.9006C58.1564 58.7145 59.5368 58.4665 60.1027 57.6269C60.5462 57.013 60.7327 56.0786 60.4116 55.1314C60.4071 55.1294 60.4033 55.1282 60.3994 55.1269C60.0912 55.0122 59.3894 54.7642 59.3484 54.7501C59.0043 54.6302 58.6588 54.5142 58.3128 54.4027C53.0211 52.7589 53.1916 58.8234 42.0565 58.8234Z" fill="#C35F58"/>
<path d="M60.4116 55.1298C60.4077 55.1286 60.4039 55.1273 60.4 55.126C60.3501 55.1074 60.3001 55.0895 60.2501 55.0709C60.0174 54.9863 59.7028 54.8741 59.5124 54.8068C59.4381 54.7806 59.3644 54.7549 59.2907 54.7293C58.9658 54.6171 58.6409 54.5076 58.3147 54.4025C58.314 54.4018 58.3134 54.4018 58.3127 54.4018C53.8189 53.0066 53.2627 57.1672 46.3804 58.4547C49.5341 59.2218 52.6333 60.2824 55.6371 61.6385C55.639 61.6379 55.6409 61.6366 55.6422 61.6359C56.5798 60.9637 57.1585 59.6076 56.6022 58.1374C56.533 57.9535 56.7355 57.7927 56.9003 57.899C58.1564 58.7129 59.5368 58.4656 60.1027 57.626C60.5462 57.0114 60.7327 56.0777 60.4116 55.1298Z" fill="#B24D4B"/>
<path d="M61.6292 73.0479C60.9287 73.0479 60.3616 73.615 60.3616 74.3155V84.0003H62.8969V74.3155C62.8969 73.6157 62.329 73.0479 61.6292 73.0479Z" fill="#C35F58"/>
<path d="M22.483 73.0479C21.7831 73.0479 21.2153 73.615 21.2153 74.3155V84.0003H23.7506V74.3155C23.7506 73.6157 23.1834 73.0479 22.483 73.0479Z" fill="#C35F58"/>
<path d="M42.0563 42.5906C40.0285 42.5906 38.2918 41.546 37.7336 39.9912C37.4965 39.3324 37.8393 38.6063 38.4981 38.3698C39.157 38.1333 39.8831 38.4755 40.1195 39.1344C40.2817 39.5868 41.0507 40.0553 42.0563 40.0553C43.0611 40.0553 43.8302 39.5868 43.9923 39.1344C44.2294 38.4755 44.9555 38.1333 45.6137 38.3698C46.2732 38.6063 46.6154 39.3324 46.3783 39.9912C45.8201 41.546 44.0833 42.5906 42.0563 42.5906Z" fill="#C35F58"/>
<path d="M45.1535 32.9177C44.4537 32.9177 43.4488 32.7472 43.4488 31.6501C43.4488 30.8823 42.824 30.2574 42.0562 30.2574C41.2878 30.2574 40.7162 30.8842 40.663 31.6501C40.5982 32.578 40.1759 32.9177 38.9589 32.9177C38.2584 32.9177 38.1277 32.3505 38.1277 31.6501C38.1277 29.4846 39.8901 27.7222 42.0562 27.7222C44.2224 27.7222 45.9841 29.4846 45.9841 31.6501C45.9841 32.3505 45.854 32.9177 45.1535 32.9177Z" fill="#CCD2D6"/>
<path d="M49.6246 30.2575C48.9241 30.2575 48.3569 29.6897 48.3569 28.9899V27.5325C48.3569 26.8327 48.9241 26.2649 49.6246 26.2649C50.3244 26.2649 50.8916 26.8327 50.8916 27.5325V28.9899C50.8916 29.6897 50.3244 30.2575 49.6246 30.2575Z" fill="#844535"/>
<path d="M34.4883 30.2575C33.7879 30.2575 33.2207 29.6897 33.2207 28.9899V27.5325C33.2207 26.8327 33.7879 26.2649 34.4883 26.2649C35.1882 26.2649 35.7553 26.8327 35.7553 27.5325V28.9899C35.756 29.6897 35.1882 30.2575 34.4883 30.2575Z" fill="#844535"/>
<path d="M53.5137 53.097C50.5042 52.4293 48.3508 49.7799 48.3508 46.6967V46.3372C46.1623 47.4106 43.8968 47.9573 42.0569 47.9573C42.0569 47.9573 42.0562 47.9573 42.0556 47.9573C42.0556 47.9573 42.0549 47.9573 42.0543 47.9573C41.4673 47.9573 40.836 47.9015 40.1785 47.7906V51.8121C40.1785 54.8947 42.3318 57.544 45.3413 58.2118C45.688 58.2887 46.0347 58.3708 46.3802 58.4547C53.2625 57.1672 53.8187 53.006 58.3125 54.4019C56.7296 53.8904 55.128 53.4553 53.5137 53.097Z" fill="#DD9554"/>
<path d="M39.3954 31.7379C39.3954 30.2651 37.4933 29.0706 35.1464 29.0706C32.8002 29.0706 30.8975 30.2651 30.8975 31.7379C30.8975 33.2112 32.8002 34.4052 35.1464 34.4052C37.4933 34.4052 39.3954 33.2112 39.3954 31.7379Z" fill="#80D5E8"/>
<path d="M53.2145 31.7379C53.2145 30.2651 51.3124 29.0706 48.9655 29.0706C46.6187 29.0706 44.7166 30.2651 44.7166 31.7379C44.7166 33.2112 46.6187 34.4052 48.9655 34.4052C51.3124 34.4052 53.2145 33.2112 53.2145 31.7379Z" fill="#80D5E8"/>
</g>
<defs>
<clipPath id="clip0">
<rect width="84" height="84" fill="white"/>
</clipPath>
</defs>
</svg>
