<svg width="100" height="100" viewBox="0 0 100 100" fill="none" xmlns="http://www.w3.org/2000/svg">
<path d="M90.6251 15.625C90.7033 15.625 51.0158 0.390579 50.0001 0C49.219 0.312424 9.29696 15.625 9.37511 15.625V44.3749C9.37511 64.2968 15.0783 90.3125 50.0001 99.9998C84.8438 90.3123 90.547 63.8279 90.547 44.3749C90.6251 34.5313 90.6251 15.625 90.6251 15.625Z" fill="#D9DEE1"/>
<path d="M9.37476 44.3751C9.37476 64.297 15.0779 90.3127 49.9998 100V0C48.5154 0.54689 9.37476 15.625 9.37476 15.625C9.37476 15.625 9.37495 44.3751 9.37476 44.3751Z" fill="#BCC6CA"/>
<path d="M82.7339 21.0156C82.812 21.0156 50.7808 8.12492 49.9214 7.8125C49.2182 8.04697 17.0309 20.4687 17.109 20.3906V44.5311C17.109 61.2498 20.3904 84.0623 49.9214 92.1873C79.3746 84.0623 82.7339 60.8593 82.7339 44.5311C82.812 36.25 82.812 21.0156 82.7339 21.0156Z" fill="#008FFF"/>
<path d="M49.9996 7.8125C49.2964 8.04697 17.109 20.4687 17.1872 20.3906V44.5311C17.1872 61.2498 20.4685 84.0623 49.9996 92.1873V7.8125Z" fill="#008FFF"/>
<path d="M60.3088 44.8993H58.591C58.1463 44.8993 57.7856 45.2599 57.7856 45.7047C57.7856 46.1494 58.1462 46.5101 58.591 46.5101H60.3088C60.7536 46.5101 61.1142 46.1495 61.1142 45.7047C61.1141 45.2599 60.7536 44.8993 60.3088 44.8993Z" fill="white"/>
<path d="M60.5203 51.5528C60.2027 51.1461 59.7244 50.9127 59.2083 50.9127H40.7914C40.2753 50.9127 39.7972 51.1461 39.4795 51.5528C39.1619 51.9597 39.0514 52.4801 39.1767 52.9808L39.6063 54.6991C39.7919 55.4413 40.4559 55.9598 41.221 55.9598H58.7789C59.544 55.9598 60.2079 55.4413 60.3936 54.699L60.8232 52.9808C60.9483 52.48 60.8379 51.9596 60.5203 51.5528ZM59.2605 52.5903L58.8309 54.3083C58.8249 54.3324 58.8035 54.349 58.7789 54.349H41.221C41.1963 54.349 41.1748 54.3323 41.1689 54.3084L40.7393 52.5903C40.7373 52.5827 40.7329 52.5649 40.7491 52.5443C40.7652 52.5236 40.7836 52.5236 40.7913 52.5236H59.2083C59.2162 52.5236 59.2345 52.5236 59.2506 52.5443C59.2668 52.5649 59.2624 52.5826 59.2605 52.5903Z" fill="white"/>
<path d="M71.4765 46.5101C72.868 46.5101 74 45.3781 74 43.9867C74 42.5952 72.868 41.4632 71.4765 41.4632H70.6175C69.3628 41.4632 68.3194 42.3838 68.1263 43.5849L65.9778 37.6764C65.4936 36.3445 64.2161 35.4498 62.7989 35.4498H56.6736L56.2202 33.1832C55.9853 32.0077 54.9445 31.1545 53.7458 31.1545H46.254C45.0553 31.1545 44.0147 32.0077 43.7796 33.1832L43.3263 35.4498H37.201C35.7838 35.4498 34.5063 36.3446 34.0221 37.6764L31.8737 43.5848C31.6807 42.3838 30.6373 41.4632 29.3826 41.4632H28.5236C27.132 41.4632 26 42.5952 26 43.9867C26 45.3781 27.132 46.5101 28.5235 46.5101H29.3825C29.7792 46.5101 30.1545 46.4179 30.4888 46.2541L28.6476 48.5558C28.0482 49.305 27.7181 50.246 27.7181 51.2054V67.1813C27.7181 68.0991 28.4647 68.8457 29.3825 68.8457H31.9597C32.8775 68.8457 33.6241 68.0991 33.6241 67.1813V63.6913H66.3758V67.1813C66.3758 68.0991 67.1224 68.8457 68.0402 68.8457H70.6174C71.5352 68.8457 72.2818 68.0991 72.2818 67.1813V51.2054C72.2818 50.246 71.9517 49.3049 71.3523 48.5558L69.5111 46.2541C69.8454 46.4179 70.2208 46.5101 70.6174 46.5101H71.4765V46.5101ZM29.3826 44.8994H28.5236C28.0202 44.8994 27.6108 44.49 27.6108 43.9867C27.6108 43.4833 28.0202 43.0739 28.5236 43.0739H29.3826C29.8859 43.0739 30.2953 43.4833 30.2953 43.9867C30.2953 44.4899 29.8858 44.8994 29.3826 44.8994ZM45.3591 33.4989C45.4441 33.0738 45.8205 32.7652 46.254 32.7652H53.7458C54.1794 32.7652 54.5558 33.0738 54.6407 33.4989L55.0309 35.4498H44.9689L45.3591 33.4989ZM32.0134 67.1813C32.0134 67.2109 31.9893 67.235 31.9597 67.235H29.3825C29.3529 67.235 29.3288 67.2109 29.3288 67.1813V63.1886C29.8444 63.507 30.4513 63.6913 31.1006 63.6913H32.0133V67.1813H32.0134ZM59.5033 62.0806H40.4967V60.3088C40.4967 60.2792 40.5207 60.2551 40.5504 60.2551H59.4497C59.4793 60.2551 59.5034 60.2792 59.5034 60.3088V62.0806H59.5033ZM70.6711 67.1813C70.6711 67.2109 70.647 67.235 70.6174 67.235H68.0402C68.0106 67.235 67.9865 67.2109 67.9865 67.1813V63.6913H68.8993C69.5485 63.6913 70.1554 63.507 70.671 63.1886V67.1813H70.6711ZM70.0947 49.562C70.4664 50.0267 70.6712 50.6104 70.6712 51.2055V60.3088C70.6712 61.2858 69.8764 62.0806 68.8994 62.0806H61.1141V60.3088C61.1141 59.391 60.3674 58.6444 59.4496 58.6444H40.5504C39.6326 58.6444 38.8859 59.391 38.8859 60.3088V62.0806H31.1007C30.1237 62.0806 29.3289 61.2858 29.3289 60.3088V51.2055C29.3289 50.6104 29.5336 50.0267 29.9054 49.562L32.3468 46.5101H55.1544C55.5991 46.5101 55.9598 46.1496 55.9598 45.7047C55.9598 45.26 55.5992 44.8993 55.1544 44.8993H33.1096L35.5361 38.2267C35.7897 37.5291 36.4588 37.0604 37.2012 37.0604H62.799C63.5413 37.0604 64.2104 37.5292 64.4641 38.2267L66.8906 44.8993H63.7452C63.3004 44.8993 62.9397 45.2599 62.9397 45.7047C62.9397 46.1495 63.3003 46.5101 63.7452 46.5101H67.6534L70.0947 49.562ZM69.7047 43.9867C69.7047 43.4833 70.1141 43.0739 70.6174 43.0739H71.4764C71.9798 43.0739 72.3892 43.4833 72.3892 43.9867C72.3892 44.49 71.9798 44.8994 71.4764 44.8994H70.6174C70.1142 44.8994 69.7047 44.4899 69.7047 43.9867Z" fill="white"/>
<path d="M34.537 56.9261C33.6192 56.9261 32.8726 57.6728 32.8726 58.5906C32.8726 59.5084 33.6192 60.255 34.537 60.255C35.4548 60.255 36.2014 59.5084 36.2014 58.5906C36.2014 57.6728 35.4548 56.9261 34.537 56.9261Z" fill="white"/>
<path d="M65.463 56.9261C64.5452 56.9261 63.7986 57.6728 63.7986 58.5906C63.7986 59.5084 64.5452 60.255 65.463 60.255C66.3808 60.255 67.1275 59.5084 67.1275 58.5906C67.1275 57.6728 66.3807 56.9261 65.463 56.9261Z" fill="white"/>
<path d="M34.1073 50.0537C32.479 50.0537 31.1543 51.3784 31.1543 53.0067C31.1543 54.6351 32.479 55.9598 34.1073 55.9598C35.7357 55.9598 37.0604 54.6351 37.0604 53.0067C37.0604 51.3784 35.7357 50.0537 34.1073 50.0537ZM34.1073 54.349C33.3672 54.349 32.765 53.7469 32.765 53.0066C32.765 52.2664 33.3671 51.6643 34.1073 51.6643C34.8476 51.6643 35.4496 52.2664 35.4496 53.0066C35.4496 53.7469 34.8475 54.349 34.1073 54.349Z" fill="white"/>
<path d="M65.8927 50.0537C64.2644 50.0537 62.9397 51.3784 62.9397 53.0067C62.9397 54.6351 64.2644 55.9598 65.8927 55.9598C67.5211 55.9598 68.8458 54.6351 68.8458 53.0067C68.8458 51.3784 67.5211 50.0537 65.8927 50.0537ZM65.8927 54.349C65.1526 54.349 64.5504 53.7469 64.5504 53.0066C64.5504 52.2664 65.1525 51.6643 65.8927 51.6643C66.6329 51.6643 67.235 52.2664 67.235 53.0066C67.235 53.7469 66.633 54.349 65.8927 54.349Z" fill="white"/>
</svg>
