<?xml version="1.0" standalone="no"?>
<!DOCTYPE svg PUBLIC "-//W3C//DTD SVG 1.0//EN" "http://www.w3.org/TR/2001/REC-SVG-20010904/DTD/svg10.dtd">
<svg xmlns="http://www.w3.org/2000/svg" xmlns:xlink="http://www.w3.org/1999/xlink" id="body_1" width="240" height="240">

<g transform="matrix(2.4 0 0 2.4 0 0)">
    <path transform="matrix(1 0 0 1 0 0)"  d="M90.6251 15.625C 90.7033 15.625 51.0158 0.390579 50.0001 0C 49.219 0.312424 9.29696 15.625 9.37511 15.625L9.37511 15.625L9.37511 44.3749C 9.37511 64.2968 15.0783 90.3125 50.0001 99.9998C 84.8438 90.3123 90.547 63.8279 90.547 44.3749C 90.6251 34.5313 90.6251 15.625 90.6251 15.625z" stroke="none" fill="#D9DEE1" fill-rule="nonzero" />
    <path transform="matrix(1 0 0 1 0 0)"  d="M9.37476 44.3751C 9.37476 64.297 15.0779 90.3127 49.9998 100L49.9998 100L49.9998 0C 48.5154 0.54689 9.37476 15.625 9.37476 15.625C 9.37476 15.625 9.37495 44.3751 9.37476 44.3751z" stroke="none" fill="#BCC6CA" fill-rule="nonzero" />
    <path transform="matrix(1 0 0 1 0 0)"  d="M82.7339 21.0156C 82.812 21.0156 50.7808 8.12492 49.9214 7.8125C 49.2182 8.04697 17.0309 20.4687 17.109 20.3906L17.109 20.3906L17.109 44.5311C 17.109 61.2498 20.3904 84.0623 49.9214 92.1873C 79.3746 84.0623 82.7339 60.8593 82.7339 44.5311C 82.812 36.25 82.812 21.0156 82.7339 21.0156z" stroke="none" fill="#008FFF" fill-rule="nonzero" />
    <path transform="matrix(1 0 0 1 0 0)"  d="M49.9996 7.8125C 49.2964 8.04697 17.109 20.4687 17.1872 20.3906L17.1872 20.3906L17.1872 44.5311C 17.1872 61.2498 20.4685 84.0623 49.9996 92.1873L49.9996 92.1873L49.9996 7.8125z" stroke="none" fill="#008FFF" fill-rule="nonzero" />
    <path transform="matrix(1 0 0 1 0 0)"  d="M60.3088 44.8993L58.591 44.8993C 58.1463 44.8993 57.7856 45.2599 57.7856 45.7047C 57.7856 46.1494 58.1462 46.5101 58.591 46.5101L58.591 46.5101L60.3088 46.5101C 60.7536 46.5101 61.1142 46.1495 61.1142 45.7047C 61.1141 45.2599 60.7536 44.8993 60.3088 44.8993z" stroke="none" fill="#FFFFFF" fill-rule="nonzero" />
    <path transform="matrix(1 0 0 1 0 0)"  d="M60.5203 51.5528C 60.2027 51.1461 59.7244 50.9127 59.2083 50.9127L59.2083 50.9127L40.7914 50.9127C 40.2753 50.9127 39.7972 51.1461 39.4795 51.5528C 39.1619 51.9597 39.0514 52.4801 39.1767 52.9808L39.1767 52.9808L39.6063 54.6991C 39.7919 55.4413 40.4559 55.9598 41.221 55.9598L41.221 55.9598L58.7789 55.9598C 59.544 55.9598 60.2079 55.4413 60.3936 54.699L60.3936 54.699L60.8232 52.9808C 60.9483 52.48 60.8379 51.9596 60.5203 51.5528zM59.2605 52.5903L58.8309 54.3083C 58.8249 54.3324 58.8035 54.349 58.7789 54.349L58.7789 54.349L41.221 54.349C 41.1963 54.349 41.1748 54.3323 41.1689 54.3084L41.1689 54.3084L40.7393 52.5903C 40.7373 52.5827 40.7329 52.5649 40.7491 52.5443C 40.7652 52.5236 40.7836 52.5236 40.7913 52.5236L40.7913 52.5236L59.2083 52.5236C 59.2162 52.5236 59.2345 52.5236 59.2506 52.5443C 59.2668 52.5649 59.2624 52.5826 59.2605 52.5903z" stroke="none" fill="#FFFFFF" fill-rule="nonzero" />
    <path transform="matrix(1 0 0 1 0 0)"  d="M71.4765 46.5101C 72.868 46.5101 74 45.3781 74 43.9867C 74 42.5952 72.868 41.4632 71.4765 41.4632L71.4765 41.4632L70.6175 41.4632C 69.3628 41.4632 68.3194 42.3838 68.1263 43.5849L68.1263 43.5849L65.9778 37.6764C 65.4936 36.3445 64.2161 35.4498 62.7989 35.4498L62.7989 35.4498L56.6736 35.4498L56.2202 33.1832C 55.9853 32.0077 54.9445 31.1545 53.7458 31.1545L53.7458 31.1545L46.254 31.1545C 45.0553 31.1545 44.0147 32.0077 43.7796 33.1832L43.7796 33.1832L43.3263 35.4498L37.201 35.4498C 35.7838 35.4498 34.5063 36.3446 34.0221 37.6764L34.0221 37.6764L31.8737 43.5848C 31.6807 42.3838 30.6373 41.4632 29.3826 41.4632L29.3826 41.4632L28.5236 41.4632C 27.132 41.4632 26 42.5952 26 43.9867C 26 45.3781 27.132 46.5101 28.5235 46.5101L28.5235 46.5101L29.3825 46.5101C 29.7792 46.5101 30.1545 46.4179 30.4888 46.2541L30.4888 46.2541L28.6476 48.5558C 28.0482 49.305 27.7181 50.246 27.7181 51.2054L27.7181 51.2054L27.7181 67.1813C 27.7181 68.0991 28.4647 68.8457 29.3825 68.8457L29.3825 68.8457L31.9597 68.8457C 32.8775 68.8457 33.6241 68.0991 33.6241 67.1813L33.6241 67.1813L33.6241 63.6913L66.3758 63.6913L66.3758 67.1813C 66.3758 68.0991 67.1224 68.8457 68.0402 68.8457L68.0402 68.8457L70.6174 68.8457C 71.5352 68.8457 72.2818 68.0991 72.2818 67.1813L72.2818 67.1813L72.2818 51.2054C 72.2818 50.246 71.9517 49.3049 71.3523 48.5558L71.3523 48.5558L69.5111 46.2541C 69.8454 46.4179 70.2208 46.5101 70.6174 46.5101L70.6174 46.5101L71.4765 46.5101zM29.3826 44.8994L28.5236 44.8994C 28.0202 44.8994 27.6108 44.49 27.6108 43.9867C 27.6108 43.4833 28.0202 43.0739 28.5236 43.0739L28.5236 43.0739L29.3826 43.0739C 29.8859 43.0739 30.2953 43.4833 30.2953 43.9867C 30.2953 44.4899 29.8858 44.8994 29.3826 44.8994zM45.3591 33.4989C 45.4441 33.0738 45.8205 32.7652 46.254 32.7652L46.254 32.7652L53.7458 32.7652C 54.1794 32.7652 54.5558 33.0738 54.6407 33.4989L54.6407 33.4989L55.0309 35.4498L44.9689 35.4498L45.3591 33.4989zM32.0134 67.1813C 32.0134 67.2109 31.9893 67.235 31.9597 67.235L31.9597 67.235L29.3825 67.235C 29.3529 67.235 29.3288 67.2109 29.3288 67.1813L29.3288 67.1813L29.3288 63.1886C 29.8444 63.507 30.4513 63.6913 31.1006 63.6913L31.1006 63.6913L32.0133 63.6913L32.0133 67.1813L32.0134 67.1813zM59.5033 62.0806L40.4967 62.0806L40.4967 60.3088C 40.4967 60.2792 40.5207 60.2551 40.5504 60.2551L40.5504 60.2551L59.4497 60.2551C 59.4793 60.2551 59.5034 60.2792 59.5034 60.3088L59.5034 60.3088L59.5034 62.0806L59.5033 62.0806zM70.6711 67.1813C 70.6711 67.2109 70.647 67.235 70.6174 67.235L70.6174 67.235L68.0402 67.235C 68.0106 67.235 67.9865 67.2109 67.9865 67.1813L67.9865 67.1813L67.9865 63.6913L68.8993 63.6913C 69.5485 63.6913 70.1554 63.507 70.671 63.1886L70.671 63.1886L70.671 67.1813L70.6711 67.1813zM70.0947 49.562C 70.4664 50.0267 70.6712 50.6104 70.6712 51.2055L70.6712 51.2055L70.6712 60.3088C 70.6712 61.2858 69.8764 62.0806 68.8994 62.0806L68.8994 62.0806L61.1141 62.0806L61.1141 60.3088C 61.1141 59.391 60.3674 58.6444 59.4496 58.6444L59.4496 58.6444L40.5504 58.6444C 39.6326 58.6444 38.8859 59.391 38.8859 60.3088L38.8859 60.3088L38.8859 62.0806L31.1007 62.0806C 30.1237 62.0806 29.3289 61.2858 29.3289 60.3088L29.3289 60.3088L29.3289 51.2055C 29.3289 50.6104 29.5336 50.0267 29.9054 49.562L29.9054 49.562L32.3468 46.5101L55.1544 46.5101C 55.5991 46.5101 55.9598 46.1496 55.9598 45.7047C 55.9598 45.26 55.5992 44.8993 55.1544 44.8993L55.1544 44.8993L33.1096 44.8993L35.5361 38.2267C 35.7897 37.5291 36.4588 37.0604 37.2012 37.0604L37.2012 37.0604L62.799 37.0604C 63.5413 37.0604 64.2104 37.5292 64.4641 38.2267L64.4641 38.2267L66.8906 44.8993L63.7452 44.8993C 63.3004 44.8993 62.9397 45.2599 62.9397 45.7047C 62.9397 46.1495 63.3003 46.5101 63.7452 46.5101L63.7452 46.5101L67.6534 46.5101L70.0947 49.562zM69.7047 43.9867C 69.7047 43.4833 70.1141 43.0739 70.6174 43.0739L70.6174 43.0739L71.4764 43.0739C 71.9798 43.0739 72.3892 43.4833 72.3892 43.9867C 72.3892 44.49 71.9798 44.8994 71.4764 44.8994L71.4764 44.8994L70.6174 44.8994C 70.1142 44.8994 69.7047 44.4899 69.7047 43.9867z" stroke="none" fill="#FFFFFF" fill-rule="nonzero" />
    <path transform="matrix(1 0 0 1 0 0)"  d="M34.537 56.9261C 33.6192 56.9261 32.8726 57.6728 32.8726 58.5906C 32.8726 59.5084 33.6192 60.255 34.537 60.255C 35.4548 60.255 36.2014 59.5084 36.2014 58.5906C 36.2014 57.6728 35.4548 56.9261 34.537 56.9261z" stroke="none" fill="#FFFFFF" fill-rule="nonzero" />
    <path transform="matrix(1 0 0 1 0 0)"  d="M65.463 56.9261C 64.5452 56.9261 63.7986 57.6728 63.7986 58.5906C 63.7986 59.5084 64.5452 60.255 65.463 60.255C 66.3808 60.255 67.1275 59.5084 67.1275 58.5906C 67.1275 57.6728 66.3807 56.9261 65.463 56.9261z" stroke="none" fill="#FFFFFF" fill-rule="nonzero" />
    <path transform="matrix(1 0 0 1 0 0)"  d="M34.1073 50.0537C 32.479 50.0537 31.1543 51.3784 31.1543 53.0067C 31.1543 54.6351 32.479 55.9598 34.1073 55.9598C 35.7357 55.9598 37.0604 54.6351 37.0604 53.0067C 37.0604 51.3784 35.7357 50.0537 34.1073 50.0537zM34.1073 54.349C 33.3672 54.349 32.765 53.7469 32.765 53.0066C 32.765 52.2664 33.3671 51.6643 34.1073 51.6643C 34.8476 51.6643 35.4496 52.2664 35.4496 53.0066C 35.4496 53.7469 34.8475 54.349 34.1073 54.349z" stroke="none" fill="#FFFFFF" fill-rule="nonzero" />
    <path transform="matrix(1 0 0 1 0 0)"  d="M65.8927 50.0537C 64.2644 50.0537 62.9397 51.3784 62.9397 53.0067C 62.9397 54.6351 64.2644 55.9598 65.8927 55.9598C 67.5211 55.9598 68.8458 54.6351 68.8458 53.0067C 68.8458 51.3784 67.5211 50.0537 65.8927 50.0537zM65.8927 54.349C 65.1526 54.349 64.5504 53.7469 64.5504 53.0066C 64.5504 52.2664 65.1525 51.6643 65.8927 51.6643C 66.6329 51.6643 67.235 52.2664 67.235 53.0066C 67.235 53.7469 66.633 54.349 65.8927 54.349z" stroke="none" fill="#FFFFFF" fill-rule="nonzero" />
</g>
</svg>