<svg width="24" height="24" viewBox="0 0 24 24" fill="none" xmlns="http://www.w3.org/2000/svg">
<path d="M9.17 6L11.17 8H20V18H4V6H9.17ZM10 4H4C2.9 4 2.01 4.9 2.01 6L2 18C2 19.1 2.9 20 4 20H20C21.1 20 22 19.1 22 18V8C22 6.9 21.1 6 20 6H12L10 4Z" fill="black"/>
<rect x="15" y="11.5078" width="1.68" height="7" transform="rotate(90 15 11.5078)" fill="black"/>
<rect width="1.52" height="3.65557" transform="matrix(0.727356 0.68626 -0.727356 0.68626 13.9003 12.1504)" fill="black"/>
<rect width="1.52" height="3.65557" transform="matrix(-0.727356 0.68626 -0.727356 -0.68626 15 11.5078)" fill="black"/>
</svg>
