<svg width="16" height="16" viewBox="0 0 16 16" fill="none" xmlns="http://www.w3.org/2000/svg">
<path d="M13.6 0.799805H2.4C1.07513 0.801237 0.00143229 1.87493 0 3.1998V10.1331C0.00143229 11.458 1.07513 12.5317 2.4 12.5331H3.14128L2.67201 14.8798C2.65182 14.9807 2.69154 15.0841 2.77383 15.1456C2.85612 15.2072 2.96654 15.216 3.05755 15.168L8.06589 12.5331H13.6C14.9249 12.5317 15.9986 11.458 16 10.1331V3.1998C15.9986 1.87493 14.9249 0.801237 13.6 0.799805ZM15.4667 10.1331C15.4655 11.1636 14.6305 11.9986 13.6 11.9998H8C7.95664 11.9998 7.91406 12.0104 7.87578 12.0305L3.30482 14.4364L3.72799 12.3199C3.74401 12.2413 3.72396 12.1598 3.67331 12.0979C3.62266 12.0357 3.54675 11.9998 3.46667 11.9998H2.4C1.36953 11.9986 0.534505 11.1636 0.533333 10.1331V3.1998C0.534505 2.16934 1.36953 1.33431 2.4 1.33314H13.6C14.6305 1.33431 15.4655 2.16934 15.4667 3.1998V10.1331Z" fill="black"/>
</svg>
