<svg width="540" height="280" viewBox="0 0 540 280" fill="none" xmlns="http://www.w3.org/2000/svg">
<rect x="0.5" y="0.5" width="539" height="279" rx="3.5" fill="white" stroke="#D9DEE1"/>
<path d="M172 18C191.253 18 210.232 22.5566 227.387 31.2972C244.541 40.0378 259.384 52.7143 270.7 68.2902C282.017 83.8661 289.486 101.899 292.498 120.915C295.51 139.931 293.978 159.389 288.029 177.7L230.014 158.85C232.989 149.695 233.755 139.965 232.249 130.457C230.743 120.95 227.008 111.933 221.35 104.145C215.692 96.3571 208.271 90.0189 199.693 85.6486C191.116 81.2783 181.626 79 172 79V18Z" fill="#008FFF"/>
<path d="M288.147 177.335C281.062 199.376 267.852 218.945 250.061 233.758C232.269 248.571 210.63 258.016 187.671 260.989C164.712 263.963 141.38 260.343 120.402 250.552C99.4236 240.76 81.6641 225.202 69.1979 205.694L120.599 172.847C126.832 182.601 135.712 190.38 146.201 195.276C156.69 200.171 168.356 201.982 179.835 200.495C191.315 199.008 202.135 194.285 211.03 186.879C219.926 179.472 226.531 169.688 230.073 158.668L288.147 177.335Z" fill="#02B875"/>
<path d="M73.4378 211.899C63.6156 198.435 56.6564 183.1 52.9895 166.842C49.3226 150.584 49.0257 133.747 52.1173 117.37L112.059 128.685C110.513 136.873 110.661 145.292 112.495 153.421C114.328 161.55 117.808 169.217 122.719 175.95L73.4378 211.899Z" fill="#FFC100"/>
<path d="M50.2913 131.575C52.0705 105.872 61.9409 81.393 78.4878 61.6452C95.0347 41.8974 117.409 27.8949 142.403 21.6446L157.201 80.8223C144.704 83.9475 133.517 90.9487 125.244 100.823C116.97 110.697 112.035 122.936 111.146 135.787L50.2913 131.575Z" fill="#FF7272"/>
<path d="M128.597 25.9815C142.968 20.5112 158.243 17.8068 173.618 18.0107L172.809 79.0054C165.122 78.9034 157.484 80.2556 150.299 82.9908L128.597 25.9815Z" fill="#BCC6CA"/>
<circle cx="356" cy="80" r="6" fill="#008FFF"/>
<circle cx="356" cy="110" r="6" fill="#02B875"/>
<circle cx="356" cy="140" r="6" fill="#FFC100"/>
<circle cx="356" cy="170" r="6" fill="#FF7272"/>
<circle cx="356" cy="200" r="6" fill="#BCC6CA"/>
<path d="M413.781 80.3994H409.468V83.9268H414.479V85H408.155V75.0469H414.41V76.127H409.468V79.3262H413.781V80.3994ZM415.72 81.2402C415.72 80.0781 415.986 79.1598 416.52 78.4854C417.053 77.8063 417.768 77.4668 418.666 77.4668C419.541 77.4668 420.231 77.7607 420.737 78.3486L420.792 77.6035H421.954V87.8438H420.689V84.3164C420.179 84.8633 419.5 85.1367 418.652 85.1367C417.759 85.1367 417.046 84.7904 416.513 84.0977C415.984 83.4004 415.72 82.4775 415.72 81.3291V81.2402ZM416.984 81.3838C416.984 82.2314 417.162 82.8968 417.518 83.3799C417.878 83.863 418.361 84.1045 418.967 84.1045C419.719 84.1045 420.293 83.7718 420.689 83.1064V79.4834C420.288 78.8317 419.719 78.5059 418.98 78.5059C418.37 78.5059 417.884 78.7497 417.524 79.2373C417.164 79.7204 416.984 80.4359 416.984 81.3838ZM428.801 84.2686C428.309 84.8473 427.586 85.1367 426.634 85.1367C425.845 85.1367 425.244 84.9089 424.829 84.4531C424.419 83.9928 424.212 83.3138 424.207 82.416V77.6035H425.472V82.3818C425.472 83.5029 425.927 84.0635 426.839 84.0635C427.805 84.0635 428.448 83.7035 428.767 82.9834V77.6035H430.031V85H428.828L428.801 84.2686ZM433.583 85H432.318V77.6035H433.583V85ZM432.216 75.6416C432.216 75.4365 432.277 75.2633 432.4 75.1221C432.528 74.9808 432.715 74.9102 432.961 74.9102C433.207 74.9102 433.394 74.9808 433.521 75.1221C433.649 75.2633 433.713 75.4365 433.713 75.6416C433.713 75.8467 433.649 76.0176 433.521 76.1543C433.394 76.291 433.207 76.3594 432.961 76.3594C432.715 76.3594 432.528 76.291 432.4 76.1543C432.277 76.0176 432.216 75.8467 432.216 75.6416ZM437.579 75.8125V77.6035H438.96V78.5811H437.579V83.168C437.579 83.4642 437.641 83.6875 437.764 83.8379C437.887 83.9837 438.096 84.0566 438.393 84.0566C438.538 84.0566 438.739 84.0293 438.994 83.9746V85C438.661 85.0911 438.338 85.1367 438.023 85.1367C437.458 85.1367 437.032 84.9658 436.745 84.624C436.458 84.2822 436.314 83.7969 436.314 83.168V78.5811H434.968V77.6035H436.314V75.8125H437.579ZM443.113 83.1475L444.836 77.6035H446.189L443.216 86.1416C442.756 87.3721 442.024 87.9873 441.021 87.9873L440.782 87.9668L440.311 87.8779V86.8525L440.652 86.8799C441.081 86.8799 441.413 86.7933 441.65 86.6201C441.892 86.4469 442.09 86.1302 442.245 85.6699L442.525 84.918L439.887 77.6035H441.268L443.113 83.1475Z" fill="black"/>
<path d="M372.666 79.4082H373.616C374.213 79.3991 374.683 79.2419 375.024 78.9365C375.366 78.6312 375.537 78.2188 375.537 77.6992C375.537 76.5326 374.956 75.9492 373.794 75.9492C373.247 75.9492 372.81 76.1064 372.481 76.4209C372.158 76.7308 371.996 77.1432 371.996 77.6582H370.731C370.731 76.8698 371.019 76.2158 371.593 75.6963C372.172 75.1722 372.905 74.9102 373.794 74.9102C374.733 74.9102 375.469 75.1585 376.002 75.6553C376.535 76.152 376.802 76.8424 376.802 77.7266C376.802 78.1595 376.66 78.5788 376.378 78.9844C376.1 79.39 375.719 79.693 375.236 79.8936C375.783 80.0667 376.205 80.3538 376.501 80.7549C376.802 81.1559 376.952 81.6458 376.952 82.2246C376.952 83.1178 376.66 83.8265 376.077 84.3506C375.494 84.8747 374.735 85.1367 373.801 85.1367C372.867 85.1367 372.105 84.8838 371.518 84.3779C370.934 83.8721 370.643 83.2044 370.643 82.375H371.914C371.914 82.8991 372.085 83.3184 372.427 83.6328C372.769 83.9473 373.227 84.1045 373.801 84.1045C374.411 84.1045 374.879 83.945 375.202 83.626C375.526 83.307 375.688 82.849 375.688 82.252C375.688 81.6732 375.51 81.2288 375.154 80.9189C374.799 80.609 374.286 80.4495 373.616 80.4404H372.666V79.4082ZM384.975 77.6445C384.975 78.1413 384.842 78.5833 384.578 78.9707C384.318 79.3581 383.965 79.6611 383.519 79.8799C384.038 80.1032 384.448 80.429 384.749 80.8574C385.054 81.2858 385.207 81.7712 385.207 82.3135C385.207 83.1748 384.915 83.8607 384.332 84.3711C383.753 84.8815 382.99 85.1367 382.042 85.1367C381.085 85.1367 380.317 84.8815 379.738 84.3711C379.164 83.8561 378.877 83.1702 378.877 82.3135C378.877 81.7757 379.023 81.2904 379.314 80.8574C379.611 80.4245 380.019 80.0964 380.538 79.873C380.096 79.6543 379.747 79.3512 379.492 78.9639C379.237 78.5765 379.109 78.1367 379.109 77.6445C379.109 76.806 379.378 76.1406 379.916 75.6484C380.454 75.1562 381.162 74.9102 382.042 74.9102C382.917 74.9102 383.623 75.1562 384.161 75.6484C384.703 76.1406 384.975 76.806 384.975 77.6445ZM383.942 82.2861C383.942 81.7301 383.765 81.2767 383.409 80.9258C383.058 80.5749 382.598 80.3994 382.028 80.3994C381.459 80.3994 381.001 80.5726 380.654 80.9189C380.312 81.2653 380.142 81.721 380.142 82.2861C380.142 82.8512 380.308 83.2956 380.641 83.6191C380.978 83.9427 381.445 84.1045 382.042 84.1045C382.634 84.1045 383.099 83.9427 383.437 83.6191C383.774 83.291 383.942 82.8467 383.942 82.2861ZM382.042 75.9492C381.545 75.9492 381.142 76.1042 380.832 76.4141C380.527 76.7194 380.374 77.1364 380.374 77.665C380.374 78.1709 380.524 78.5811 380.825 78.8955C381.131 79.2054 381.536 79.3604 382.042 79.3604C382.548 79.3604 382.951 79.2054 383.252 78.8955C383.557 78.5811 383.71 78.1709 383.71 77.665C383.71 77.1592 383.553 76.7467 383.238 76.4277C382.924 76.1087 382.525 75.9492 382.042 75.9492ZM386.94 76.9609C386.94 76.3639 387.13 75.8717 387.508 75.4844C387.891 75.097 388.381 74.9033 388.978 74.9033C389.584 74.9033 390.074 75.0993 390.447 75.4912C390.826 75.8786 391.015 76.3822 391.015 77.002V77.4873C391.015 78.0889 390.823 78.5811 390.44 78.9639C390.062 79.3421 389.579 79.5312 388.991 79.5312C388.399 79.5312 387.909 79.3421 387.521 78.9639C387.134 78.5811 386.94 78.0729 386.94 77.4395V76.9609ZM387.884 77.4873C387.884 77.8428 387.984 78.1367 388.185 78.3691C388.385 78.597 388.654 78.7109 388.991 78.7109C389.315 78.7109 389.575 78.5993 389.771 78.376C389.971 78.1527 390.071 77.8473 390.071 77.46V76.9609C390.071 76.6055 389.973 76.3115 389.777 76.0791C389.581 75.8467 389.315 75.7305 388.978 75.7305C388.64 75.7305 388.374 75.8467 388.178 76.0791C387.982 76.3115 387.884 76.6146 387.884 76.9883V77.4873ZM391.787 82.5596C391.787 81.9626 391.976 81.4727 392.354 81.0898C392.737 80.7025 393.227 80.5088 393.824 80.5088C394.421 80.5088 394.911 80.7002 395.294 81.083C395.677 81.4658 395.868 81.974 395.868 82.6074V83.0928C395.868 83.6898 395.677 84.182 395.294 84.5693C394.916 84.9521 394.43 85.1436 393.838 85.1436C393.245 85.1436 392.756 84.9544 392.368 84.5762C391.981 84.1934 391.787 83.6852 391.787 83.0518V82.5596ZM392.73 83.0928C392.73 83.4528 392.831 83.749 393.031 83.9814C393.232 84.2093 393.501 84.3232 393.838 84.3232C394.166 84.3232 394.428 84.2116 394.624 83.9883C394.82 83.7604 394.918 83.4528 394.918 83.0654V82.5596C394.918 82.1995 394.818 81.9056 394.617 81.6777C394.421 81.4499 394.157 81.3359 393.824 81.3359C393.501 81.3359 393.236 81.4499 393.031 81.6777C392.831 81.901 392.73 82.2041 392.73 82.5869V83.0928ZM389.278 84.248L388.561 83.7969L393.421 76.0176L394.139 76.4688L389.278 84.248Z" fill="black"/>
<path d="M413.645 110.604H409.468V115H408.155V105.047H414.321V106.127H409.468V109.531H413.645V110.604ZM417.319 115H416.055V107.604H417.319V115ZM415.952 105.642C415.952 105.437 416.014 105.263 416.137 105.122C416.264 104.981 416.451 104.91 416.697 104.91C416.943 104.91 417.13 104.981 417.258 105.122C417.385 105.263 417.449 105.437 417.449 105.642C417.449 105.847 417.385 106.018 417.258 106.154C417.13 106.291 416.943 106.359 416.697 106.359C416.451 106.359 416.264 106.291 416.137 106.154C416.014 106.018 415.952 105.847 415.952 105.642ZM422.081 110.304L423.722 107.604H425.198L422.778 111.261L425.273 115H423.811L422.102 112.231L420.393 115H418.923L421.418 111.261L418.998 107.604H420.461L422.081 110.304ZM429.728 115.137C428.725 115.137 427.909 114.809 427.28 114.152C426.651 113.492 426.337 112.61 426.337 111.507V111.274C426.337 110.541 426.476 109.887 426.754 109.312C427.036 108.734 427.428 108.283 427.93 107.959C428.436 107.631 428.982 107.467 429.57 107.467C430.532 107.467 431.279 107.784 431.812 108.417C432.346 109.05 432.612 109.957 432.612 111.138V111.664H427.602C427.62 112.393 427.832 112.983 428.237 113.435C428.647 113.881 429.167 114.104 429.796 114.104C430.243 114.104 430.621 114.013 430.931 113.831C431.241 113.649 431.512 113.407 431.744 113.106L432.517 113.708C431.897 114.66 430.967 115.137 429.728 115.137ZM429.57 108.506C429.06 108.506 428.632 108.693 428.285 109.066C427.939 109.436 427.725 109.955 427.643 110.625H431.348V110.529C431.311 109.887 431.138 109.39 430.828 109.039C430.518 108.684 430.099 108.506 429.57 108.506ZM434.024 111.24C434.024 110.105 434.293 109.194 434.831 108.506C435.369 107.813 436.073 107.467 436.943 107.467C437.809 107.467 438.495 107.763 439.001 108.355V104.5H440.266V115H439.104L439.042 114.207C438.536 114.827 437.832 115.137 436.93 115.137C436.073 115.137 435.373 114.786 434.831 114.084C434.293 113.382 434.024 112.466 434.024 111.336V111.24ZM435.289 111.384C435.289 112.222 435.462 112.879 435.809 113.353C436.155 113.826 436.633 114.063 437.244 114.063C438.046 114.063 438.632 113.703 439.001 112.983V109.586C438.623 108.889 438.042 108.54 437.258 108.54C436.638 108.54 436.155 108.779 435.809 109.258C435.462 109.736 435.289 110.445 435.289 111.384ZM447.581 115H446.316V107.604H447.581V115ZM446.214 105.642C446.214 105.437 446.275 105.263 446.398 105.122C446.526 104.981 446.713 104.91 446.959 104.91C447.205 104.91 447.392 104.981 447.52 105.122C447.647 105.263 447.711 105.437 447.711 105.642C447.711 105.847 447.647 106.018 447.52 106.154C447.392 106.291 447.205 106.359 446.959 106.359C446.713 106.359 446.526 106.291 446.398 106.154C446.275 106.018 446.214 105.847 446.214 105.642ZM451.058 107.604L451.099 108.533C451.664 107.822 452.402 107.467 453.313 107.467C454.877 107.467 455.665 108.349 455.679 110.112V115H454.414V110.105C454.41 109.572 454.286 109.178 454.045 108.923C453.808 108.668 453.437 108.54 452.931 108.54C452.521 108.54 452.16 108.649 451.851 108.868C451.541 109.087 451.299 109.374 451.126 109.729V115H449.861V107.604H451.058ZM460.803 114.104C461.254 114.104 461.648 113.968 461.985 113.694C462.323 113.421 462.509 113.079 462.546 112.669H463.742C463.719 113.093 463.574 113.496 463.305 113.879C463.036 114.262 462.676 114.567 462.225 114.795C461.778 115.023 461.304 115.137 460.803 115.137C459.796 115.137 458.993 114.802 458.396 114.132C457.804 113.457 457.508 112.537 457.508 111.37V111.158C457.508 110.438 457.64 109.798 457.904 109.237C458.169 108.677 458.547 108.242 459.039 107.932C459.536 107.622 460.121 107.467 460.796 107.467C461.625 107.467 462.313 107.715 462.86 108.212C463.412 108.709 463.706 109.354 463.742 110.146H462.546C462.509 109.668 462.327 109.276 461.999 108.971C461.675 108.661 461.274 108.506 460.796 108.506C460.153 108.506 459.654 108.738 459.299 109.203C458.948 109.663 458.772 110.331 458.772 111.206V111.445C458.772 112.298 458.948 112.954 459.299 113.414C459.65 113.874 460.151 114.104 460.803 114.104ZM465.079 111.233C465.079 110.509 465.22 109.857 465.503 109.278C465.79 108.7 466.187 108.253 466.692 107.938C467.203 107.624 467.784 107.467 468.436 107.467C469.443 107.467 470.256 107.815 470.876 108.513C471.5 109.21 471.812 110.137 471.812 111.295V111.384C471.812 112.104 471.674 112.751 471.396 113.325C471.122 113.895 470.728 114.339 470.213 114.658C469.702 114.977 469.115 115.137 468.449 115.137C467.447 115.137 466.633 114.788 466.009 114.091C465.389 113.394 465.079 112.471 465.079 111.322V111.233ZM466.351 111.384C466.351 112.204 466.54 112.863 466.918 113.359C467.301 113.856 467.811 114.104 468.449 114.104C469.092 114.104 469.602 113.854 469.98 113.353C470.359 112.847 470.548 112.14 470.548 111.233C470.548 110.422 470.354 109.766 469.967 109.265C469.584 108.759 469.074 108.506 468.436 108.506C467.811 108.506 467.308 108.754 466.925 109.251C466.542 109.748 466.351 110.459 466.351 111.384ZM474.838 107.604L474.872 108.424C475.414 107.786 476.146 107.467 477.066 107.467C478.101 107.467 478.805 107.863 479.179 108.656C479.425 108.301 479.744 108.014 480.136 107.795C480.532 107.576 480.999 107.467 481.537 107.467C483.16 107.467 483.984 108.326 484.012 110.044V115H482.747V110.119C482.747 109.59 482.626 109.196 482.385 108.937C482.143 108.672 481.738 108.54 481.168 108.54C480.699 108.54 480.309 108.681 479.999 108.964C479.689 109.242 479.509 109.618 479.459 110.092V115H478.188V110.153C478.188 109.078 477.661 108.54 476.608 108.54C475.779 108.54 475.212 108.893 474.906 109.6V115H473.642V107.604H474.838ZM489.245 115.137C488.243 115.137 487.427 114.809 486.798 114.152C486.169 113.492 485.854 112.61 485.854 111.507V111.274C485.854 110.541 485.993 109.887 486.271 109.312C486.554 108.734 486.946 108.283 487.447 107.959C487.953 107.631 488.5 107.467 489.088 107.467C490.049 107.467 490.797 107.784 491.33 108.417C491.863 109.05 492.13 109.957 492.13 111.138V111.664H487.119C487.137 112.393 487.349 112.983 487.755 113.435C488.165 113.881 488.685 114.104 489.313 114.104C489.76 114.104 490.138 114.013 490.448 113.831C490.758 113.649 491.029 113.407 491.262 113.106L492.034 113.708C491.414 114.66 490.485 115.137 489.245 115.137ZM489.088 108.506C488.577 108.506 488.149 108.693 487.803 109.066C487.456 109.436 487.242 109.955 487.16 110.625H490.865V110.529C490.829 109.887 490.656 109.39 490.346 109.039C490.036 108.684 489.617 108.506 489.088 108.506Z" fill="black"/>
<path d="M377.349 115H370.827V114.091L374.272 110.263C374.783 109.684 375.134 109.215 375.325 108.854C375.521 108.49 375.619 108.114 375.619 107.727C375.619 107.207 375.462 106.781 375.147 106.448C374.833 106.116 374.414 105.949 373.89 105.949C373.261 105.949 372.771 106.129 372.42 106.489C372.074 106.845 371.9 107.341 371.9 107.979H370.636C370.636 107.063 370.93 106.323 371.518 105.758C372.11 105.193 372.901 104.91 373.89 104.91C374.815 104.91 375.546 105.154 376.084 105.642C376.622 106.125 376.891 106.77 376.891 107.576C376.891 108.556 376.266 109.723 375.018 111.076L372.352 113.968H377.349V115ZM380.777 109.408H381.728C382.325 109.399 382.794 109.242 383.136 108.937C383.478 108.631 383.648 108.219 383.648 107.699C383.648 106.533 383.067 105.949 381.905 105.949C381.358 105.949 380.921 106.106 380.593 106.421C380.269 106.731 380.107 107.143 380.107 107.658H378.843C378.843 106.87 379.13 106.216 379.704 105.696C380.283 105.172 381.017 104.91 381.905 104.91C382.844 104.91 383.58 105.159 384.113 105.655C384.646 106.152 384.913 106.842 384.913 107.727C384.913 108.16 384.772 108.579 384.489 108.984C384.211 109.39 383.831 109.693 383.348 109.894C383.895 110.067 384.316 110.354 384.612 110.755C384.913 111.156 385.063 111.646 385.063 112.225C385.063 113.118 384.772 113.826 384.188 114.351C383.605 114.875 382.846 115.137 381.912 115.137C380.978 115.137 380.217 114.884 379.629 114.378C379.046 113.872 378.754 113.204 378.754 112.375H380.025C380.025 112.899 380.196 113.318 380.538 113.633C380.88 113.947 381.338 114.104 381.912 114.104C382.523 114.104 382.99 113.945 383.313 113.626C383.637 113.307 383.799 112.849 383.799 112.252C383.799 111.673 383.621 111.229 383.266 110.919C382.91 110.609 382.397 110.45 381.728 110.44H380.777V109.408ZM386.94 106.961C386.94 106.364 387.13 105.872 387.508 105.484C387.891 105.097 388.381 104.903 388.978 104.903C389.584 104.903 390.074 105.099 390.447 105.491C390.826 105.879 391.015 106.382 391.015 107.002V107.487C391.015 108.089 390.823 108.581 390.44 108.964C390.062 109.342 389.579 109.531 388.991 109.531C388.399 109.531 387.909 109.342 387.521 108.964C387.134 108.581 386.94 108.073 386.94 107.439V106.961ZM387.884 107.487C387.884 107.843 387.984 108.137 388.185 108.369C388.385 108.597 388.654 108.711 388.991 108.711C389.315 108.711 389.575 108.599 389.771 108.376C389.971 108.153 390.071 107.847 390.071 107.46V106.961C390.071 106.605 389.973 106.312 389.777 106.079C389.581 105.847 389.315 105.73 388.978 105.73C388.64 105.73 388.374 105.847 388.178 106.079C387.982 106.312 387.884 106.615 387.884 106.988V107.487ZM391.787 112.56C391.787 111.963 391.976 111.473 392.354 111.09C392.737 110.702 393.227 110.509 393.824 110.509C394.421 110.509 394.911 110.7 395.294 111.083C395.677 111.466 395.868 111.974 395.868 112.607V113.093C395.868 113.69 395.677 114.182 395.294 114.569C394.916 114.952 394.43 115.144 393.838 115.144C393.245 115.144 392.756 114.954 392.368 114.576C391.981 114.193 391.787 113.685 391.787 113.052V112.56ZM392.73 113.093C392.73 113.453 392.831 113.749 393.031 113.981C393.232 114.209 393.501 114.323 393.838 114.323C394.166 114.323 394.428 114.212 394.624 113.988C394.82 113.76 394.918 113.453 394.918 113.065V112.56C394.918 112.2 394.818 111.906 394.617 111.678C394.421 111.45 394.157 111.336 393.824 111.336C393.501 111.336 393.236 111.45 393.031 111.678C392.831 111.901 392.73 112.204 392.73 112.587V113.093ZM389.278 114.248L388.561 113.797L393.421 106.018L394.139 106.469L389.278 114.248Z" fill="black"/>
<path d="M415.477 141.842C415.354 142.895 414.964 143.708 414.308 144.282C413.656 144.852 412.788 145.137 411.703 145.137C410.527 145.137 409.584 144.715 408.873 143.872C408.167 143.029 407.813 141.901 407.813 140.488V139.531C407.813 138.606 407.978 137.793 408.306 137.091C408.638 136.389 409.108 135.851 409.714 135.478C410.32 135.099 411.022 134.91 411.819 134.91C412.877 134.91 413.724 135.206 414.362 135.799C415 136.387 415.372 137.202 415.477 138.246H414.157C414.043 137.453 413.795 136.879 413.412 136.523C413.034 136.168 412.503 135.99 411.819 135.99C410.981 135.99 410.322 136.3 409.844 136.92C409.37 137.54 409.133 138.422 409.133 139.565V140.529C409.133 141.609 409.358 142.468 409.81 143.106C410.261 143.744 410.892 144.063 411.703 144.063C412.432 144.063 412.991 143.899 413.378 143.571C413.77 143.239 414.03 142.662 414.157 141.842H415.477ZM416.991 141.233C416.991 140.509 417.132 139.857 417.415 139.278C417.702 138.7 418.099 138.253 418.604 137.938C419.115 137.624 419.696 137.467 420.348 137.467C421.355 137.467 422.168 137.815 422.788 138.513C423.412 139.21 423.725 140.137 423.725 141.295V141.384C423.725 142.104 423.586 142.751 423.308 143.325C423.034 143.895 422.64 144.339 422.125 144.658C421.615 144.977 421.027 145.137 420.361 145.137C419.359 145.137 418.545 144.788 417.921 144.091C417.301 143.394 416.991 142.471 416.991 141.322V141.233ZM418.263 141.384C418.263 142.204 418.452 142.863 418.83 143.359C419.213 143.856 419.723 144.104 420.361 144.104C421.004 144.104 421.514 143.854 421.893 143.353C422.271 142.847 422.46 142.14 422.46 141.233C422.46 140.422 422.266 139.766 421.879 139.265C421.496 138.759 420.986 138.506 420.348 138.506C419.723 138.506 419.22 138.754 418.837 139.251C418.454 139.748 418.263 140.459 418.263 141.384ZM426.75 137.604L426.784 138.424C427.326 137.786 428.058 137.467 428.979 137.467C430.013 137.467 430.717 137.863 431.091 138.656C431.337 138.301 431.656 138.014 432.048 137.795C432.444 137.576 432.911 137.467 433.449 137.467C435.072 137.467 435.896 138.326 435.924 140.044V145H434.659V140.119C434.659 139.59 434.538 139.196 434.297 138.937C434.055 138.672 433.65 138.54 433.08 138.54C432.611 138.54 432.221 138.681 431.911 138.964C431.601 139.242 431.421 139.618 431.371 140.092V145H430.1V140.153C430.1 139.078 429.573 138.54 428.521 138.54C427.691 138.54 427.124 138.893 426.818 139.6V145H425.554V137.604H426.75ZM439.277 137.604L439.312 138.424C439.854 137.786 440.585 137.467 441.506 137.467C442.54 137.467 443.244 137.863 443.618 138.656C443.864 138.301 444.183 138.014 444.575 137.795C444.972 137.576 445.439 137.467 445.977 137.467C447.599 137.467 448.424 138.326 448.451 140.044V145H447.187V140.119C447.187 139.59 447.066 139.196 446.824 138.937C446.583 138.672 446.177 138.54 445.607 138.54C445.138 138.54 444.748 138.681 444.438 138.964C444.129 139.242 443.949 139.618 443.898 140.092V145H442.627V140.153C442.627 139.078 442.101 138.54 441.048 138.54C440.218 138.54 439.651 138.893 439.346 139.6V145H438.081V137.604H439.277ZM450.28 141.233C450.28 140.509 450.422 139.857 450.704 139.278C450.991 138.7 451.388 138.253 451.894 137.938C452.404 137.624 452.985 137.467 453.637 137.467C454.644 137.467 455.457 137.815 456.077 138.513C456.701 139.21 457.014 140.137 457.014 141.295V141.384C457.014 142.104 456.875 142.751 456.597 143.325C456.323 143.895 455.929 144.339 455.414 144.658C454.904 144.977 454.316 145.137 453.65 145.137C452.648 145.137 451.834 144.788 451.21 144.091C450.59 143.394 450.28 142.471 450.28 141.322V141.233ZM451.552 141.384C451.552 142.204 451.741 142.863 452.119 143.359C452.502 143.856 453.012 144.104 453.65 144.104C454.293 144.104 454.803 143.854 455.182 143.353C455.56 142.847 455.749 142.14 455.749 141.233C455.749 140.422 455.555 139.766 455.168 139.265C454.785 138.759 454.275 138.506 453.637 138.506C453.012 138.506 452.509 138.754 452.126 139.251C451.743 139.748 451.552 140.459 451.552 141.384ZM458.542 141.24C458.542 140.105 458.811 139.194 459.349 138.506C459.886 137.813 460.59 137.467 461.461 137.467C462.327 137.467 463.013 137.763 463.519 138.355V134.5H464.783V145H463.621L463.56 144.207C463.054 144.827 462.35 145.137 461.447 145.137C460.59 145.137 459.891 144.786 459.349 144.084C458.811 143.382 458.542 142.466 458.542 141.336V141.24ZM459.807 141.384C459.807 142.222 459.98 142.879 460.326 143.353C460.673 143.826 461.151 144.063 461.762 144.063C462.564 144.063 463.149 143.703 463.519 142.983V139.586C463.14 138.889 462.559 138.54 461.775 138.54C461.156 138.54 460.673 138.779 460.326 139.258C459.98 139.736 459.807 140.445 459.807 141.384ZM468.376 145H467.111V137.604H468.376V145ZM467.009 135.642C467.009 135.437 467.07 135.263 467.193 135.122C467.321 134.981 467.508 134.91 467.754 134.91C468 134.91 468.187 134.981 468.314 135.122C468.442 135.263 468.506 135.437 468.506 135.642C468.506 135.847 468.442 136.018 468.314 136.154C468.187 136.291 468 136.359 467.754 136.359C467.508 136.359 467.321 136.291 467.193 136.154C467.07 136.018 467.009 135.847 467.009 135.642ZM472.372 135.812V137.604H473.753V138.581H472.372V143.168C472.372 143.464 472.434 143.688 472.557 143.838C472.68 143.984 472.889 144.057 473.186 144.057C473.331 144.057 473.532 144.029 473.787 143.975V145C473.454 145.091 473.131 145.137 472.816 145.137C472.251 145.137 471.825 144.966 471.538 144.624C471.251 144.282 471.107 143.797 471.107 143.168V138.581H469.761V137.604H471.107V135.812H472.372ZM476.86 145H475.596V137.604H476.86V145ZM475.493 135.642C475.493 135.437 475.555 135.263 475.678 135.122C475.805 134.981 475.992 134.91 476.238 134.91C476.484 134.91 476.671 134.981 476.799 135.122C476.926 135.263 476.99 135.437 476.99 135.642C476.99 135.847 476.926 136.018 476.799 136.154C476.671 136.291 476.484 136.359 476.238 136.359C475.992 136.359 475.805 136.291 475.678 136.154C475.555 136.018 475.493 135.847 475.493 135.642ZM482.21 145.137C481.207 145.137 480.392 144.809 479.763 144.152C479.134 143.492 478.819 142.61 478.819 141.507V141.274C478.819 140.541 478.958 139.887 479.236 139.312C479.519 138.734 479.911 138.283 480.412 137.959C480.918 137.631 481.465 137.467 482.053 137.467C483.014 137.467 483.762 137.784 484.295 138.417C484.828 139.05 485.095 139.957 485.095 141.138V141.664H480.084C480.102 142.393 480.314 142.983 480.72 143.435C481.13 143.881 481.649 144.104 482.278 144.104C482.725 144.104 483.103 144.013 483.413 143.831C483.723 143.649 483.994 143.407 484.227 143.106L484.999 143.708C484.379 144.66 483.45 145.137 482.21 145.137ZM482.053 138.506C481.542 138.506 481.114 138.693 480.768 139.066C480.421 139.436 480.207 139.955 480.125 140.625H483.83V140.529C483.794 139.887 483.62 139.39 483.311 139.039C483.001 138.684 482.581 138.506 482.053 138.506ZM491.121 143.038C491.121 142.696 490.991 142.432 490.731 142.245C490.476 142.054 490.027 141.89 489.385 141.753C488.747 141.616 488.239 141.452 487.86 141.261C487.487 141.069 487.209 140.841 487.026 140.577C486.849 140.313 486.76 139.998 486.76 139.634C486.76 139.028 487.015 138.515 487.525 138.096C488.04 137.676 488.697 137.467 489.494 137.467C490.333 137.467 491.012 137.683 491.531 138.116C492.055 138.549 492.317 139.103 492.317 139.777H491.046C491.046 139.431 490.898 139.132 490.602 138.882C490.31 138.631 489.941 138.506 489.494 138.506C489.034 138.506 488.674 138.606 488.414 138.807C488.154 139.007 488.024 139.269 488.024 139.593C488.024 139.898 488.145 140.128 488.387 140.283C488.628 140.438 489.063 140.586 489.692 140.728C490.326 140.869 490.839 141.037 491.23 141.233C491.622 141.429 491.912 141.666 492.099 141.944C492.29 142.218 492.386 142.553 492.386 142.949C492.386 143.61 492.121 144.141 491.593 144.542C491.064 144.938 490.378 145.137 489.535 145.137C488.943 145.137 488.419 145.032 487.963 144.822C487.507 144.613 487.149 144.321 486.89 143.947C486.634 143.569 486.507 143.161 486.507 142.724H487.771C487.794 143.147 487.963 143.485 488.277 143.735C488.596 143.981 489.016 144.104 489.535 144.104C490.014 144.104 490.396 144.009 490.684 143.817C490.975 143.621 491.121 143.362 491.121 143.038Z" fill="black"/>
<path d="M374.983 145H373.712V136.571L371.162 137.508V136.359L374.785 134.999H374.983V145ZM385.46 145H378.938V144.091L382.384 140.263C382.894 139.684 383.245 139.215 383.437 138.854C383.632 138.49 383.73 138.114 383.73 137.727C383.73 137.207 383.573 136.781 383.259 136.448C382.944 136.116 382.525 135.949 382.001 135.949C381.372 135.949 380.882 136.129 380.531 136.489C380.185 136.845 380.012 137.341 380.012 137.979H378.747C378.747 137.063 379.041 136.323 379.629 135.758C380.221 135.193 381.012 134.91 382.001 134.91C382.926 134.91 383.658 135.154 384.195 135.642C384.733 136.125 385.002 136.77 385.002 137.576C385.002 138.556 384.378 139.723 383.129 141.076L380.463 143.968H385.46V145ZM386.94 136.961C386.94 136.364 387.13 135.872 387.508 135.484C387.891 135.097 388.381 134.903 388.978 134.903C389.584 134.903 390.074 135.099 390.447 135.491C390.826 135.879 391.015 136.382 391.015 137.002V137.487C391.015 138.089 390.823 138.581 390.44 138.964C390.062 139.342 389.579 139.531 388.991 139.531C388.399 139.531 387.909 139.342 387.521 138.964C387.134 138.581 386.94 138.073 386.94 137.439V136.961ZM387.884 137.487C387.884 137.843 387.984 138.137 388.185 138.369C388.385 138.597 388.654 138.711 388.991 138.711C389.315 138.711 389.575 138.599 389.771 138.376C389.971 138.153 390.071 137.847 390.071 137.46V136.961C390.071 136.605 389.973 136.312 389.777 136.079C389.581 135.847 389.315 135.73 388.978 135.73C388.64 135.73 388.374 135.847 388.178 136.079C387.982 136.312 387.884 136.615 387.884 136.988V137.487ZM391.787 142.56C391.787 141.963 391.976 141.473 392.354 141.09C392.737 140.702 393.227 140.509 393.824 140.509C394.421 140.509 394.911 140.7 395.294 141.083C395.677 141.466 395.868 141.974 395.868 142.607V143.093C395.868 143.69 395.677 144.182 395.294 144.569C394.916 144.952 394.43 145.144 393.838 145.144C393.245 145.144 392.756 144.954 392.368 144.576C391.981 144.193 391.787 143.685 391.787 143.052V142.56ZM392.73 143.093C392.73 143.453 392.831 143.749 393.031 143.981C393.232 144.209 393.501 144.323 393.838 144.323C394.166 144.323 394.428 144.212 394.624 143.988C394.82 143.76 394.918 143.453 394.918 143.065V142.56C394.918 142.2 394.818 141.906 394.617 141.678C394.421 141.45 394.157 141.336 393.824 141.336C393.501 141.336 393.236 141.45 393.031 141.678C392.831 141.901 392.73 142.204 392.73 142.587V143.093ZM389.278 144.248L388.561 143.797L393.421 136.018L394.139 136.469L389.278 144.248Z" fill="black"/>
<path d="M411.806 170.974H409.468V175H408.148V165.047H411.443C412.564 165.047 413.426 165.302 414.027 165.812C414.633 166.323 414.937 167.066 414.937 168.041C414.937 168.661 414.768 169.201 414.431 169.661C414.098 170.121 413.633 170.465 413.036 170.693L415.374 174.918V175H413.966L411.806 170.974ZM409.468 169.9H411.484C412.136 169.9 412.653 169.732 413.036 169.395C413.424 169.057 413.617 168.606 413.617 168.041C413.617 167.426 413.433 166.954 413.063 166.626C412.699 166.298 412.17 166.132 411.478 166.127H409.468V169.9ZM419.903 175.137C418.901 175.137 418.085 174.809 417.456 174.152C416.827 173.492 416.513 172.61 416.513 171.507V171.274C416.513 170.541 416.652 169.887 416.93 169.312C417.212 168.734 417.604 168.283 418.105 167.959C418.611 167.631 419.158 167.467 419.746 167.467C420.708 167.467 421.455 167.784 421.988 168.417C422.521 169.05 422.788 169.957 422.788 171.138V171.664H417.777C417.796 172.393 418.007 172.983 418.413 173.435C418.823 173.881 419.343 174.104 419.972 174.104C420.418 174.104 420.797 174.013 421.106 173.831C421.416 173.649 421.688 173.407 421.92 173.106L422.692 173.708C422.073 174.66 421.143 175.137 419.903 175.137ZM419.746 168.506C419.236 168.506 418.807 168.693 418.461 169.066C418.115 169.436 417.9 169.955 417.818 170.625H421.523V170.529C421.487 169.887 421.314 169.39 421.004 169.039C420.694 168.684 420.275 168.506 419.746 168.506ZM429.074 175C429.001 174.854 428.942 174.594 428.896 174.221C428.309 174.831 427.607 175.137 426.791 175.137C426.062 175.137 425.463 174.932 424.993 174.521C424.528 174.107 424.296 173.583 424.296 172.949C424.296 172.179 424.588 171.582 425.171 171.158C425.759 170.73 426.584 170.516 427.646 170.516H428.876V169.935C428.876 169.493 428.744 169.142 428.479 168.882C428.215 168.618 427.826 168.485 427.311 168.485C426.859 168.485 426.481 168.599 426.176 168.827C425.87 169.055 425.718 169.331 425.718 169.654H424.446C424.446 169.285 424.576 168.93 424.836 168.588C425.1 168.242 425.456 167.968 425.902 167.768C426.354 167.567 426.848 167.467 427.386 167.467C428.238 167.467 428.906 167.681 429.389 168.109C429.872 168.533 430.122 169.119 430.141 169.866V173.271C430.141 173.95 430.227 174.49 430.4 174.891V175H429.074ZM426.976 174.036C427.372 174.036 427.748 173.934 428.104 173.729C428.459 173.523 428.716 173.257 428.876 172.929V171.411H427.885C426.335 171.411 425.561 171.865 425.561 172.771C425.561 173.168 425.693 173.478 425.957 173.701C426.221 173.924 426.561 174.036 426.976 174.036ZM433.747 175H432.482V164.5H433.747V175ZM442.819 175.137C441.817 175.137 441.001 174.809 440.372 174.152C439.743 173.492 439.429 172.61 439.429 171.507V171.274C439.429 170.541 439.568 169.887 439.846 169.312C440.128 168.734 440.52 168.283 441.021 167.959C441.527 167.631 442.074 167.467 442.662 167.467C443.624 167.467 444.371 167.784 444.904 168.417C445.438 169.05 445.704 169.957 445.704 171.138V171.664H440.693C440.712 172.393 440.924 172.983 441.329 173.435C441.739 173.881 442.259 174.104 442.888 174.104C443.334 174.104 443.713 174.013 444.022 173.831C444.332 173.649 444.604 173.407 444.836 173.106L445.608 173.708C444.989 174.66 444.059 175.137 442.819 175.137ZM442.662 168.506C442.152 168.506 441.723 168.693 441.377 169.066C441.031 169.436 440.816 169.955 440.734 170.625H444.439V170.529C444.403 169.887 444.23 169.39 443.92 169.039C443.61 168.684 443.191 168.506 442.662 168.506ZM451.73 173.038C451.73 172.696 451.601 172.432 451.341 172.245C451.086 172.054 450.637 171.89 449.994 171.753C449.356 171.616 448.848 171.452 448.47 171.261C448.096 171.069 447.818 170.841 447.636 170.577C447.458 170.313 447.369 169.998 447.369 169.634C447.369 169.028 447.624 168.515 448.135 168.096C448.65 167.676 449.306 167.467 450.104 167.467C450.942 167.467 451.621 167.683 452.141 168.116C452.665 168.549 452.927 169.103 452.927 169.777H451.655C451.655 169.431 451.507 169.132 451.211 168.882C450.919 168.631 450.55 168.506 450.104 168.506C449.643 168.506 449.283 168.606 449.023 168.807C448.764 169.007 448.634 169.269 448.634 169.593C448.634 169.898 448.755 170.128 448.996 170.283C449.238 170.438 449.673 170.586 450.302 170.728C450.935 170.869 451.448 171.037 451.84 171.233C452.232 171.429 452.521 171.666 452.708 171.944C452.899 172.218 452.995 172.553 452.995 172.949C452.995 173.61 452.731 174.141 452.202 174.542C451.674 174.938 450.988 175.137 450.145 175.137C449.552 175.137 449.028 175.032 448.572 174.822C448.117 174.613 447.759 174.321 447.499 173.947C447.244 173.569 447.116 173.161 447.116 172.724H448.381C448.404 173.147 448.572 173.485 448.887 173.735C449.206 173.981 449.625 174.104 450.145 174.104C450.623 174.104 451.006 174.009 451.293 173.817C451.585 173.621 451.73 173.362 451.73 173.038ZM456.608 165.812V167.604H457.989V168.581H456.608V173.168C456.608 173.464 456.67 173.688 456.793 173.838C456.916 173.984 457.126 174.057 457.422 174.057C457.568 174.057 457.768 174.029 458.023 173.975V175C457.691 175.091 457.367 175.137 457.053 175.137C456.488 175.137 456.062 174.966 455.774 174.624C455.487 174.282 455.344 173.797 455.344 173.168V168.581H453.997V167.604H455.344V165.812H456.608ZM464.289 175C464.216 174.854 464.157 174.594 464.111 174.221C463.523 174.831 462.822 175.137 462.006 175.137C461.277 175.137 460.677 174.932 460.208 174.521C459.743 174.107 459.511 173.583 459.511 172.949C459.511 172.179 459.802 171.582 460.386 171.158C460.974 170.73 461.799 170.516 462.86 170.516H464.091V169.935C464.091 169.493 463.959 169.142 463.694 168.882C463.43 168.618 463.04 168.485 462.525 168.485C462.074 168.485 461.696 168.599 461.391 168.827C461.085 169.055 460.933 169.331 460.933 169.654H459.661C459.661 169.285 459.791 168.93 460.051 168.588C460.315 168.242 460.671 167.968 461.117 167.768C461.568 167.567 462.063 167.467 462.601 167.467C463.453 167.467 464.12 167.681 464.604 168.109C465.087 168.533 465.337 169.119 465.355 169.866V173.271C465.355 173.95 465.442 174.49 465.615 174.891V175H464.289ZM462.19 174.036C462.587 174.036 462.963 173.934 463.318 173.729C463.674 173.523 463.931 173.257 464.091 172.929V171.411H463.1C461.55 171.411 460.775 171.865 460.775 172.771C460.775 173.168 460.908 173.478 461.172 173.701C461.436 173.924 461.776 174.036 462.19 174.036ZM469.304 165.812V167.604H470.685V168.581H469.304V173.168C469.304 173.464 469.365 173.688 469.488 173.838C469.611 173.984 469.821 174.057 470.117 174.057C470.263 174.057 470.464 174.029 470.719 173.975V175C470.386 175.091 470.062 175.137 469.748 175.137C469.183 175.137 468.757 174.966 468.47 174.624C468.183 174.282 468.039 173.797 468.039 173.168V168.581H466.692V167.604H468.039V165.812H469.304ZM475.487 175.137C474.485 175.137 473.669 174.809 473.04 174.152C472.411 173.492 472.097 172.61 472.097 171.507V171.274C472.097 170.541 472.236 169.887 472.514 169.312C472.796 168.734 473.188 168.283 473.689 167.959C474.195 167.631 474.742 167.467 475.33 167.467C476.292 167.467 477.039 167.784 477.572 168.417C478.105 169.05 478.372 169.957 478.372 171.138V171.664H473.361C473.38 172.393 473.591 172.983 473.997 173.435C474.407 173.881 474.927 174.104 475.556 174.104C476.002 174.104 476.381 174.013 476.69 173.831C477 173.649 477.271 173.407 477.504 173.106L478.276 173.708C477.657 174.66 476.727 175.137 475.487 175.137ZM475.33 168.506C474.82 168.506 474.391 168.693 474.045 169.066C473.699 169.436 473.484 169.955 473.402 170.625H477.107V170.529C477.071 169.887 476.898 169.39 476.588 169.039C476.278 168.684 475.859 168.506 475.33 168.506Z" fill="black"/>
<path d="M374.983 175H373.712V166.571L371.162 167.508V166.359L374.785 164.999H374.983V175ZM384.975 167.645C384.975 168.141 384.842 168.583 384.578 168.971C384.318 169.358 383.965 169.661 383.519 169.88C384.038 170.103 384.448 170.429 384.749 170.857C385.054 171.286 385.207 171.771 385.207 172.313C385.207 173.175 384.915 173.861 384.332 174.371C383.753 174.882 382.99 175.137 382.042 175.137C381.085 175.137 380.317 174.882 379.738 174.371C379.164 173.856 378.877 173.17 378.877 172.313C378.877 171.776 379.023 171.29 379.314 170.857C379.611 170.424 380.019 170.096 380.538 169.873C380.096 169.654 379.747 169.351 379.492 168.964C379.237 168.576 379.109 168.137 379.109 167.645C379.109 166.806 379.378 166.141 379.916 165.648C380.454 165.156 381.162 164.91 382.042 164.91C382.917 164.91 383.623 165.156 384.161 165.648C384.703 166.141 384.975 166.806 384.975 167.645ZM383.942 172.286C383.942 171.73 383.765 171.277 383.409 170.926C383.058 170.575 382.598 170.399 382.028 170.399C381.459 170.399 381.001 170.573 380.654 170.919C380.312 171.265 380.142 171.721 380.142 172.286C380.142 172.851 380.308 173.296 380.641 173.619C380.978 173.943 381.445 174.104 382.042 174.104C382.634 174.104 383.099 173.943 383.437 173.619C383.774 173.291 383.942 172.847 383.942 172.286ZM382.042 165.949C381.545 165.949 381.142 166.104 380.832 166.414C380.527 166.719 380.374 167.136 380.374 167.665C380.374 168.171 380.524 168.581 380.825 168.896C381.131 169.205 381.536 169.36 382.042 169.36C382.548 169.36 382.951 169.205 383.252 168.896C383.557 168.581 383.71 168.171 383.71 167.665C383.71 167.159 383.553 166.747 383.238 166.428C382.924 166.109 382.525 165.949 382.042 165.949ZM386.94 166.961C386.94 166.364 387.13 165.872 387.508 165.484C387.891 165.097 388.381 164.903 388.978 164.903C389.584 164.903 390.074 165.099 390.447 165.491C390.826 165.879 391.015 166.382 391.015 167.002V167.487C391.015 168.089 390.823 168.581 390.44 168.964C390.062 169.342 389.579 169.531 388.991 169.531C388.399 169.531 387.909 169.342 387.521 168.964C387.134 168.581 386.94 168.073 386.94 167.439V166.961ZM387.884 167.487C387.884 167.843 387.984 168.137 388.185 168.369C388.385 168.597 388.654 168.711 388.991 168.711C389.315 168.711 389.575 168.599 389.771 168.376C389.971 168.153 390.071 167.847 390.071 167.46V166.961C390.071 166.605 389.973 166.312 389.777 166.079C389.581 165.847 389.315 165.73 388.978 165.73C388.64 165.73 388.374 165.847 388.178 166.079C387.982 166.312 387.884 166.615 387.884 166.988V167.487ZM391.787 172.56C391.787 171.963 391.976 171.473 392.354 171.09C392.737 170.702 393.227 170.509 393.824 170.509C394.421 170.509 394.911 170.7 395.294 171.083C395.677 171.466 395.868 171.974 395.868 172.607V173.093C395.868 173.69 395.677 174.182 395.294 174.569C394.916 174.952 394.43 175.144 393.838 175.144C393.245 175.144 392.756 174.954 392.368 174.576C391.981 174.193 391.787 173.685 391.787 173.052V172.56ZM392.73 173.093C392.73 173.453 392.831 173.749 393.031 173.981C393.232 174.209 393.501 174.323 393.838 174.323C394.166 174.323 394.428 174.212 394.624 173.988C394.82 173.76 394.918 173.453 394.918 173.065V172.56C394.918 172.2 394.818 171.906 394.617 171.678C394.421 171.45 394.157 171.336 393.824 171.336C393.501 171.336 393.236 171.45 393.031 171.678C392.831 171.901 392.73 172.204 392.73 172.587V173.093ZM389.278 174.248L388.561 173.797L393.421 166.018L394.139 166.469L389.278 174.248Z" fill="black"/>
<path d="M415.812 200.345C415.812 201.32 415.647 202.172 415.319 202.901C414.991 203.626 414.526 204.18 413.925 204.562C413.323 204.945 412.621 205.137 411.819 205.137C411.035 205.137 410.34 204.945 409.734 204.562C409.128 204.175 408.657 203.626 408.319 202.915C407.987 202.2 407.816 201.372 407.807 200.434V199.716C407.807 198.759 407.973 197.913 408.306 197.18C408.638 196.446 409.108 195.885 409.714 195.498C410.325 195.106 411.022 194.91 411.806 194.91C412.603 194.91 413.305 195.104 413.911 195.491C414.522 195.874 414.991 196.432 415.319 197.166C415.647 197.895 415.812 198.745 415.812 199.716V200.345ZM414.506 199.702C414.506 198.522 414.269 197.617 413.795 196.988C413.321 196.355 412.658 196.038 411.806 196.038C410.976 196.038 410.322 196.355 409.844 196.988C409.37 197.617 409.126 198.492 409.112 199.613V200.345C409.112 201.489 409.352 202.389 409.83 203.045C410.313 203.697 410.976 204.022 411.819 204.022C412.667 204.022 413.323 203.715 413.788 203.1C414.253 202.48 414.492 201.593 414.506 200.44V199.702ZM419.548 195.812V197.604H420.929V198.581H419.548V203.168C419.548 203.464 419.609 203.688 419.732 203.838C419.855 203.984 420.065 204.057 420.361 204.057C420.507 204.057 420.708 204.029 420.963 203.975V205C420.63 205.091 420.307 205.137 419.992 205.137C419.427 205.137 419.001 204.966 418.714 204.624C418.427 204.282 418.283 203.797 418.283 203.168V198.581H416.937V197.604H418.283V195.812H419.548ZM423.927 198.499C424.487 197.811 425.216 197.467 426.114 197.467C427.677 197.467 428.466 198.349 428.479 200.112V205H427.215V200.105C427.21 199.572 427.087 199.178 426.846 198.923C426.609 198.668 426.237 198.54 425.731 198.54C425.321 198.54 424.961 198.649 424.651 198.868C424.341 199.087 424.1 199.374 423.927 199.729V205H422.662V194.5H423.927V198.499ZM433.692 205.137C432.69 205.137 431.874 204.809 431.245 204.152C430.616 203.492 430.302 202.61 430.302 201.507V201.274C430.302 200.541 430.441 199.887 430.719 199.312C431.001 198.734 431.393 198.283 431.895 197.959C432.4 197.631 432.947 197.467 433.535 197.467C434.497 197.467 435.244 197.784 435.777 198.417C436.311 199.05 436.577 199.957 436.577 201.138V201.664H431.566C431.585 202.393 431.797 202.983 432.202 203.435C432.612 203.881 433.132 204.104 433.761 204.104C434.207 204.104 434.586 204.013 434.896 203.831C435.205 203.649 435.477 203.407 435.709 203.106L436.481 203.708C435.862 204.66 434.932 205.137 433.692 205.137ZM433.535 198.506C433.025 198.506 432.596 198.693 432.25 199.066C431.904 199.436 431.689 199.955 431.607 200.625H435.312V200.529C435.276 199.887 435.103 199.39 434.793 199.039C434.483 198.684 434.064 198.506 433.535 198.506ZM441.872 198.738C441.681 198.706 441.473 198.69 441.25 198.69C440.421 198.69 439.858 199.044 439.562 199.75V205H438.297V197.604H439.527L439.548 198.458C439.963 197.797 440.55 197.467 441.312 197.467C441.558 197.467 441.744 197.499 441.872 197.562V198.738ZM447.598 203.038C447.598 202.696 447.468 202.432 447.208 202.245C446.953 202.054 446.504 201.89 445.861 201.753C445.223 201.616 444.715 201.452 444.337 201.261C443.963 201.069 443.685 200.841 443.503 200.577C443.325 200.313 443.236 199.998 443.236 199.634C443.236 199.028 443.492 198.515 444.002 198.096C444.517 197.676 445.173 197.467 445.971 197.467C446.809 197.467 447.488 197.683 448.008 198.116C448.532 198.549 448.794 199.103 448.794 199.777H447.522C447.522 199.431 447.374 199.132 447.078 198.882C446.786 198.631 446.417 198.506 445.971 198.506C445.51 198.506 445.15 198.606 444.891 198.807C444.631 199.007 444.501 199.269 444.501 199.593C444.501 199.898 444.622 200.128 444.863 200.283C445.105 200.438 445.54 200.586 446.169 200.728C446.802 200.869 447.315 201.037 447.707 201.233C448.099 201.429 448.388 201.666 448.575 201.944C448.767 202.218 448.862 202.553 448.862 202.949C448.862 203.61 448.598 204.141 448.069 204.542C447.541 204.938 446.855 205.137 446.012 205.137C445.419 205.137 444.895 205.032 444.439 204.822C443.984 204.613 443.626 204.321 443.366 203.947C443.111 203.569 442.983 203.161 442.983 202.724H444.248C444.271 203.147 444.439 203.485 444.754 203.735C445.073 203.981 445.492 204.104 446.012 204.104C446.49 204.104 446.873 204.009 447.16 203.817C447.452 203.621 447.598 203.362 447.598 203.038Z" fill="black"/>
<path d="M375.674 200.625C375.41 200.939 375.093 201.192 374.724 201.384C374.359 201.575 373.958 201.671 373.521 201.671C372.946 201.671 372.445 201.53 372.017 201.247C371.593 200.965 371.265 200.568 371.032 200.058C370.8 199.543 370.684 198.975 370.684 198.355C370.684 197.69 370.809 197.091 371.06 196.558C371.315 196.024 371.675 195.617 372.14 195.334C372.604 195.051 373.147 194.91 373.767 194.91C374.751 194.91 375.526 195.279 376.091 196.018C376.66 196.751 376.945 197.754 376.945 199.025V199.395C376.945 201.331 376.562 202.746 375.797 203.64C375.031 204.528 373.876 204.984 372.331 205.007H372.085V203.94H372.352C373.395 203.922 374.197 203.651 374.758 203.127C375.318 202.598 375.624 201.764 375.674 200.625ZM373.726 200.625C374.149 200.625 374.539 200.495 374.895 200.235C375.255 199.976 375.517 199.654 375.681 199.271V198.766C375.681 197.936 375.501 197.262 375.141 196.742C374.781 196.223 374.325 195.963 373.773 195.963C373.217 195.963 372.771 196.177 372.434 196.605C372.096 197.029 371.928 197.59 371.928 198.287C371.928 198.966 372.09 199.527 372.413 199.969C372.741 200.406 373.179 200.625 373.726 200.625ZM378.829 196.961C378.829 196.364 379.018 195.872 379.396 195.484C379.779 195.097 380.269 194.903 380.866 194.903C381.472 194.903 381.962 195.099 382.336 195.491C382.714 195.879 382.903 196.382 382.903 197.002V197.487C382.903 198.089 382.712 198.581 382.329 198.964C381.951 199.342 381.468 199.531 380.88 199.531C380.287 199.531 379.798 199.342 379.41 198.964C379.023 198.581 378.829 198.073 378.829 197.439V196.961ZM379.772 197.487C379.772 197.843 379.873 198.137 380.073 198.369C380.274 198.597 380.543 198.711 380.88 198.711C381.203 198.711 381.463 198.599 381.659 198.376C381.86 198.153 381.96 197.847 381.96 197.46V196.961C381.96 196.605 381.862 196.312 381.666 196.079C381.47 195.847 381.203 195.73 380.866 195.73C380.529 195.73 380.262 195.847 380.066 196.079C379.87 196.312 379.772 196.615 379.772 196.988V197.487ZM383.676 202.56C383.676 201.963 383.865 201.473 384.243 201.09C384.626 200.702 385.116 200.509 385.713 200.509C386.31 200.509 386.8 200.7 387.183 201.083C387.565 201.466 387.757 201.974 387.757 202.607V203.093C387.757 203.69 387.565 204.182 387.183 204.569C386.804 204.952 386.319 205.144 385.727 205.144C385.134 205.144 384.644 204.954 384.257 204.576C383.869 204.193 383.676 203.685 383.676 203.052V202.56ZM384.619 203.093C384.619 203.453 384.719 203.749 384.92 203.981C385.12 204.209 385.389 204.323 385.727 204.323C386.055 204.323 386.317 204.212 386.513 203.988C386.709 203.76 386.807 203.453 386.807 203.065V202.56C386.807 202.2 386.706 201.906 386.506 201.678C386.31 201.45 386.046 201.336 385.713 201.336C385.389 201.336 385.125 201.45 384.92 201.678C384.719 201.901 384.619 202.204 384.619 202.587V203.093ZM381.167 204.248L380.449 203.797L385.31 196.018L386.027 196.469L381.167 204.248Z" fill="black"/>
</svg>
