<svg width="60" height="60" viewBox="0 0 60 60" fill="none" xmlns="http://www.w3.org/2000/svg">
<path d="M55.7848 13.5124H51.5631V12.0319C51.5634 11.0885 51.1895 10.1835 50.5234 9.51544C49.8573 8.84737 48.9534 8.47075 48.01 8.4682H43.1133V7.9582C43.1136 7.01483 42.7397 6.10985 42.0736 5.44177C41.4075 4.77369 40.5036 4.39708 39.5602 4.39453H4.725C3.78156 4.39708 2.87766 4.77369 2.21156 5.44177C1.54546 6.10985 1.17156 7.01483 1.17188 7.9582V42.9239C1.17156 43.8673 1.54546 44.7723 2.21156 45.4403C2.87766 46.1084 3.78156 46.485 4.725 46.4876H9.62164V46.9975C9.6213 47.9408 9.99517 48.8458 10.6612 49.5139C11.3273 50.182 12.2312 50.5587 13.1746 50.5612H16.8904V52.5586C16.8914 53.3664 17.2127 54.1408 17.7839 54.712C18.3552 55.2832 19.1297 55.6045 19.9375 55.6055H55.7848C56.5926 55.6045 57.3671 55.2832 57.9384 54.712C58.5096 54.1408 58.8309 53.3664 58.8319 52.5586V16.5593C58.831 15.7515 58.5097 14.977 57.9384 14.4058C57.3672 13.8346 56.5927 13.5133 55.7848 13.5124ZM4.725 45.0813C4.1544 45.0793 3.60791 44.851 3.20545 44.4465C2.80298 44.0421 2.57741 43.4945 2.57822 42.9239V7.9582C2.57744 7.38765 2.80302 6.84008 3.20548 6.43562C3.60794 6.03117 4.15441 5.80286 4.725 5.80078H39.5602C40.1308 5.80286 40.6772 6.03117 41.0797 6.43562C41.4822 6.84008 41.7078 7.38765 41.707 7.9582V8.4682H13.1746C12.2312 8.47078 11.3274 8.84741 10.6613 9.51548C9.99521 10.1836 9.62133 11.0885 9.62164 12.0319V45.0813H4.725ZM16.8904 16.5593V49.155H13.1746C12.6041 49.1529 12.0576 48.9245 11.6552 48.5201C11.2527 48.1156 11.0272 47.568 11.028 46.9975V12.0319C11.0272 11.4613 11.2528 10.9138 11.6552 10.5093C12.0576 10.1049 12.6041 9.87656 13.1746 9.87445H48.01C48.5805 9.87653 49.127 10.1048 49.5295 10.5093C49.9319 10.9137 50.1575 11.4613 50.1567 12.0319V13.5124H19.9375C19.1297 13.5133 18.3551 13.8346 17.7839 14.4058C17.2127 14.977 16.8913 15.7515 16.8904 16.5593ZM57.4255 52.5586C57.4251 52.9936 57.2521 53.4106 56.9445 53.7182C56.6369 54.0258 56.2198 54.1988 55.7848 54.1992H19.9375C19.5025 54.1988 19.0854 54.0258 18.7778 53.7182C18.4703 53.4106 18.2972 52.9936 18.2968 52.5586V16.5593C18.2972 16.1243 18.4703 15.7073 18.7778 15.3997C19.0854 15.0921 19.5025 14.9191 19.9375 14.9187H55.7848C56.2198 14.9191 56.6369 15.0921 56.9445 15.3997C57.2521 15.7073 57.4251 16.1243 57.4255 16.5593V52.5586Z" fill="#008FFF"/>
<path d="M45.5862 24.3304C45.5862 23.7794 45.1538 23.333 44.62 23.333H30.9662C30.4324 23.333 30 23.7794 30 24.3304C30 24.8814 30.4324 25.3277 30.9662 25.3277H34.873C37.2016 25.3305 39.2063 27.0247 39.6689 29.3806H30.9662C30.4324 29.3806 30 29.8269 30 30.3779C30 30.9284 30.4324 31.3753 30.9662 31.3753H39.6689C39.2063 33.7306 37.2016 35.4242 34.873 35.4276H30.9662C30.5704 35.4276 30.2151 35.6769 30.0685 36.0559C29.9224 36.4355 30.0151 36.8685 30.3025 37.1496L40.0679 46.6751C40.3186 46.9211 40.6777 47.0101 41.0092 46.9083C41.3403 46.8064 41.5942 46.5292 41.674 46.1819C41.7533 45.8347 41.6471 45.4696 41.3953 45.2252L33.3951 37.4217H34.873C38.267 37.4173 41.1435 34.8421 41.6282 31.3747H44.62C45.1538 31.3747 45.5862 30.9278 45.5862 30.3774C45.5862 29.8264 45.1538 29.38 44.62 29.38H41.6282C41.4136 27.8372 40.7089 26.4113 39.6247 25.3272H44.62C45.1538 25.3272 45.5862 24.8808 45.5862 24.3304Z" fill="#008FFF"/>
</svg>
