<svg width="24" height="24" viewBox="0 0 24 24" fill="none" xmlns="http://www.w3.org/2000/svg">
<rect x="0.5" y="3.5" width="23" height="16" rx="1.5" stroke="#008FFF"/>
<path d="M8.03125 14H7.27734L4.41406 9.61719V14H3.66016V8.3125H4.41406L7.28516 12.7148V8.3125H8.03125V14ZM12.5781 11.3711H10.1133V13.3867H12.9766V14H9.36328V8.3125H12.9375V8.92969H10.1133V10.7578H12.5781V11.3711ZM15.1367 12.207L15.2461 12.957L15.4062 12.2812L16.5312 8.3125H17.1641L18.2617 12.2812L18.418 12.9688L18.5391 12.2031L19.4219 8.3125H20.1758L18.7969 14H18.1133L16.9414 9.85547L16.8516 9.42188L16.7617 9.85547L15.5469 14H14.8633L13.4883 8.3125H14.2383L15.1367 12.207Z" fill="#008FFF"/>
</svg>
