<svg width="224" height="224" viewBox="0 0 224 224" fill="none" xmlns="http://www.w3.org/2000/svg">
<rect width="224" height="224" fill="#F5F7F7"/>
<g clip-path="url(#clip0)">
<path d="M100.207 143.124C100.207 143.124 121.456 140.574 128.892 136.537C136.329 132.5 191.575 130.587 191.575 143.124C191.575 155.66 128.043 161.185 128.043 161.185L94.6826 159.272L100.207 143.124Z" fill="#FBBEBE"/>
<path opacity="0.1" d="M100.207 143.124C100.207 143.124 121.456 140.574 128.892 136.537C136.329 132.5 191.575 130.587 191.575 143.124C191.575 155.66 128.043 161.185 128.043 161.185L94.6826 159.272L100.207 143.124Z" fill="black"/>
<path d="M106.369 140.786L101.907 153.748L32 154.598V135.474C32 135.474 58.7729 129.312 80.0213 142.486C80.0213 142.486 105.094 139.511 106.369 140.786Z" fill="#008FFF"/>
<path opacity="0.1" d="M106.369 140.765L101.907 153.727L32 154.577V135.453C32 135.453 58.7729 129.291 80.0213 142.465C80.0213 142.465 105.094 139.491 106.369 140.765Z" fill="black"/>
<path d="M186.294 135.368C186.294 136.092 184.67 136.63 184.511 137.328C184.352 138.021 185.317 139.075 185.012 139.737C184.696 140.413 184.323 141.062 183.897 141.675C183.497 142.248 182.262 142.164 181.755 142.701C181.259 143.189 180.734 143.646 180.182 144.069C179.644 144.516 178.916 144.61 178.305 145.022C177.723 145.413 177.794 146.848 177.151 147.205C176.536 147.545 175.596 147.271 174.929 147.578C174.29 147.871 173.952 148.934 173.268 149.194C172.609 149.444 171.793 149.336 171.095 149.553C170.42 149.764 169.665 149.729 168.958 149.906C168.272 150.078 167.747 151.107 167.033 151.246C166.337 151.381 165.521 151.021 164.802 151.123C164.099 151.223 163.281 150.334 162.558 150.401C161.851 150.467 161.184 150.879 160.459 150.912C159.749 150.945 159.046 151.258 158.321 151.258C157.597 151.258 156.849 151.937 156.138 151.905C155.414 151.872 154.758 150.841 154.05 150.775C153.327 150.708 152.465 151.784 151.762 151.684C151.042 151.582 150.472 150.528 149.776 150.393C149.062 150.254 148.139 151.007 147.452 150.835C146.745 150.659 146.325 149.433 145.65 149.223C144.953 149.006 144.088 149.3 143.429 149.049C142.745 148.789 141.912 148.831 141.272 148.537C140.605 148.231 140.127 147.507 139.513 147.166C138.87 146.81 138.573 145.926 137.992 145.535C137.381 145.123 136.449 145.175 135.912 144.728C135.344 144.256 134.281 144.232 133.802 143.724C133.295 143.187 133.09 142.285 132.69 141.712C132.269 141.109 133.096 139.833 132.802 139.196C132.496 138.534 131.22 138.265 131.062 137.573C130.899 136.849 130.815 136.11 130.812 135.368C130.812 134.644 131.903 134.09 132.063 133.392C132.221 132.699 131.418 131.704 131.724 131.042C132.018 130.404 131.98 129.424 132.402 128.821C132.802 128.248 133.8 128.024 134.306 127.487C134.785 126.979 135.643 126.837 136.21 126.365C136.748 125.918 136.679 124.57 137.291 124.158C137.872 123.767 138.683 123.588 139.326 123.232C139.941 122.891 140.81 122.949 141.476 122.643C142.116 122.349 143.118 122.928 143.802 122.668C144.462 122.417 144.996 121.87 145.694 121.653C146.369 121.443 146.686 119.841 147.393 119.664C148.08 119.492 148.924 119.777 149.639 119.638C150.335 119.503 151.271 120.767 151.991 120.665C152.694 120.565 153.219 118.877 153.942 118.81C154.65 118.744 155.448 119.618 156.172 119.585C156.883 119.552 157.597 120.064 158.321 120.064C159.046 120.064 159.768 119.361 160.479 119.394C161.203 119.427 161.842 120.356 162.55 120.422C163.273 120.489 164.161 119.077 164.863 119.177C165.583 119.279 166.139 120.371 166.835 120.506C167.55 120.645 168.444 119.967 169.131 120.139C169.839 120.316 170.264 121.476 170.939 121.686C171.636 121.903 172.066 122.722 172.725 122.973C173.409 123.233 174.68 122.017 175.32 122.311C175.986 122.617 176.562 123.146 177.176 123.487C177.819 123.843 178.841 123.664 179.422 124.056C180.034 124.467 180.184 125.572 180.722 126.019C181.289 126.491 182.225 126.633 182.704 127.141C183.211 127.678 183.281 128.641 183.681 129.214C184.103 129.817 184.089 130.653 184.384 131.29C184.689 131.952 185.503 132.452 185.662 133.145C185.821 133.843 186.294 134.644 186.294 135.368Z" fill="#3F3D56"/>
<path d="M109.769 148.648C109.769 148.648 133.78 136.324 149.291 140.999C164.802 145.673 186.475 137.599 189.025 140.361C191.575 143.124 195.187 172.871 164.59 174.571C133.992 176.271 107.857 169.472 107.857 169.472L109.769 148.648Z" fill="#FBBEBE"/>
<path d="M104.114 147.336C104.114 147.336 113.594 146.736 113.169 150.136C112.744 153.535 112.319 179.883 109.769 180.521C107.219 181.158 87.0332 181.158 78.7464 181.158H32V140.422C32 140.422 65.1474 138.449 81.7211 146.736C81.7211 146.736 101.647 146.448 104.114 147.336Z" fill="#008FFF"/>
<path d="M148.522 83.6193C147.616 83.6704 146.742 83.9729 145.999 84.4927C145.255 85.0126 144.671 85.7292 144.312 86.5624C143.26 89.1066 144.615 92.0952 146.65 93.9505C148.684 95.8058 151.297 96.8662 153.672 98.2601C156.861 100.132 159.727 102.731 161.323 106.068C162.918 109.404 163.088 113.536 161.212 116.724C159.471 119.682 156.306 121.452 153.286 123.085" stroke="#3F3D56" stroke-miterlimit="10"/>
<path d="M157.021 68.108C156.115 68.1592 155.242 68.4616 154.498 68.9815C153.755 69.5013 153.171 70.218 152.812 71.0511C151.759 73.5953 153.115 76.5839 155.149 78.4392C157.183 80.2945 159.797 81.355 162.171 82.7489C165.36 84.6211 168.226 87.2201 169.822 90.5563C171.418 93.8925 171.588 98.0251 169.712 101.212C167.971 104.171 164.805 105.941 161.786 107.574" stroke="#3F3D56" stroke-miterlimit="10"/>
<path d="M184.966 71.6755C184.219 71.1615 183.343 70.8658 182.437 70.8218C181.531 70.7777 180.63 70.9868 179.836 71.4259C177.446 72.7933 176.688 75.9861 177.161 78.6985C177.634 81.411 179.052 83.8493 180.076 86.4051C181.451 89.8379 182.126 93.6474 181.346 97.2623C180.565 100.877 178.17 104.249 174.735 105.621C171.548 106.894 167.961 106.356 164.574 105.799" stroke="#3F3D56" stroke-miterlimit="10"/>
<path d="M160.34 103.741C163.156 103.741 165.44 102.632 165.44 101.264C165.44 99.8965 163.156 98.7875 160.34 98.7875C157.524 98.7875 155.24 99.8965 155.24 101.264C155.24 102.632 157.524 103.741 160.34 103.741Z" fill="#57B894"/>
<path d="M159.703 103.316C162.519 103.316 164.802 102.207 164.802 100.839C164.802 99.4715 162.519 98.3625 159.703 98.3625C156.886 98.3625 154.603 99.4715 154.603 100.839C154.603 102.207 156.886 103.316 159.703 103.316Z" stroke="#3F3D56" stroke-miterlimit="10"/>
<path d="M171.389 101.617C174.206 101.617 176.489 100.508 176.489 99.1396C176.489 97.7716 174.206 96.6627 171.389 96.6627C168.573 96.6627 166.29 97.7716 166.29 99.1396C166.29 100.508 168.573 101.617 171.389 101.617Z" fill="#57B894"/>
<path d="M170.752 101.192C173.568 101.192 175.851 100.083 175.851 98.7147C175.851 97.3467 173.568 96.2377 170.752 96.2377C167.935 96.2377 165.652 97.3467 165.652 98.7147C165.652 100.083 167.935 101.192 170.752 101.192Z" stroke="#3F3D56" stroke-miterlimit="10"/>
<path d="M173.089 110.966C175.905 110.966 178.189 109.857 178.189 108.489C178.189 107.121 175.905 106.012 173.089 106.012C170.273 106.012 167.989 107.121 167.989 108.489C167.989 109.857 170.273 110.966 173.089 110.966Z" fill="#57B894"/>
<path d="M172.452 110.541C175.268 110.541 177.551 109.432 177.551 108.064C177.551 106.696 175.268 105.587 172.452 105.587C169.635 105.587 167.352 106.696 167.352 108.064C167.352 109.432 169.635 110.541 172.452 110.541Z" stroke="#3F3D56" stroke-miterlimit="10"/>
<path d="M172.027 87.5927C174.843 87.5927 177.126 86.4837 177.126 85.1157C177.126 83.7477 174.843 82.6388 172.027 82.6388C169.21 82.6388 166.927 83.7477 166.927 85.1157C166.927 86.4837 169.21 87.5927 172.027 87.5927Z" fill="#57B894"/>
<path d="M171.389 87.1677C174.206 87.1677 176.489 86.0587 176.489 84.6908C176.489 83.3228 174.206 82.2138 171.389 82.2138C168.573 82.2138 166.29 83.3228 166.29 84.6908C166.29 86.0587 168.573 87.1677 171.389 87.1677Z" stroke="#3F3D56" stroke-miterlimit="10"/>
<path d="M159.278 86.1053C162.094 86.1053 164.377 84.9963 164.377 83.6283C164.377 82.2603 162.094 81.1514 159.278 81.1514C156.461 81.1514 154.178 82.2603 154.178 83.6283C154.178 84.9963 156.461 86.1053 159.278 86.1053Z" fill="#57B894"/>
<path d="M158.64 85.6803C161.457 85.6803 163.74 84.5713 163.74 83.2034C163.74 81.8354 161.457 80.7264 158.64 80.7264C155.824 80.7264 153.541 81.8354 153.541 83.2034C153.541 84.5713 155.824 85.6803 158.64 85.6803Z" stroke="#3F3D56" stroke-miterlimit="10"/>
<path d="M165.015 80.7932C167.831 80.7932 170.114 79.6842 170.114 78.3162C170.114 76.9483 167.831 75.8393 165.015 75.8393C162.198 75.8393 159.915 76.9483 159.915 78.3162C159.915 79.6842 162.198 80.7932 165.015 80.7932Z" fill="#57B894"/>
<path d="M164.377 80.3682C167.194 80.3682 169.477 79.2593 169.477 77.8913C169.477 76.5233 167.194 75.4143 164.377 75.4143C161.561 75.4143 159.278 76.5233 159.278 77.8913C159.278 79.2593 161.561 80.3682 164.377 80.3682Z" stroke="#3F3D56" stroke-miterlimit="10"/>
<path d="M177.551 81.8556C180.368 81.8556 182.651 80.7467 182.651 79.3787C182.651 78.0107 180.368 76.9017 177.551 76.9017C174.735 76.9017 172.452 78.0107 172.452 79.3787C172.452 80.7467 174.735 81.8556 177.551 81.8556Z" fill="#57B894"/>
<path d="M176.914 81.4306C179.73 81.4306 182.013 80.3217 182.013 78.9537C182.013 77.5857 179.73 76.4767 176.914 76.4767C174.097 76.4767 171.814 77.5857 171.814 78.9537C171.814 80.3217 174.097 81.4306 176.914 81.4306Z" stroke="#3F3D56" stroke-miterlimit="10"/>
<path d="M186.9 88.8676C189.717 88.8676 192 87.7586 192 86.3906C192 85.0226 189.717 83.9137 186.9 83.9137C184.084 83.9137 181.801 85.0226 181.801 86.3906C181.801 87.7586 184.084 88.8676 186.9 88.8676Z" fill="#57B894"/>
<path d="M186.263 88.4426C189.079 88.4426 191.363 87.3336 191.363 85.9657C191.363 84.5977 189.079 83.4887 186.263 83.4887C183.446 83.4887 181.163 84.5977 181.163 85.9657C181.163 87.3336 183.446 88.4426 186.263 88.4426Z" stroke="#3F3D56" stroke-miterlimit="10"/>
<path d="M153.965 76.5435C156.782 76.5435 159.065 75.4346 159.065 74.0666C159.065 72.6986 156.782 71.5896 153.965 71.5896C151.149 71.5896 148.866 72.6986 148.866 74.0666C148.866 75.4346 151.149 76.5435 153.965 76.5435Z" fill="#57B894"/>
<path d="M153.328 76.1186C156.144 76.1186 158.428 75.0096 158.428 73.6416C158.428 72.2736 156.144 71.1647 153.328 71.1647C150.512 71.1647 148.228 72.2736 148.228 73.6416C148.228 75.0096 150.512 76.1186 153.328 76.1186Z" stroke="#3F3D56" stroke-miterlimit="10"/>
<path d="M157.153 68.4692C159.969 68.4692 162.252 67.3602 162.252 65.9922C162.252 64.6242 159.969 63.5153 157.153 63.5153C154.336 63.5153 152.053 64.6242 152.053 65.9922C152.053 67.3602 154.336 68.4692 157.153 68.4692Z" fill="#57B894"/>
<path d="M156.515 68.0442C159.332 68.0442 161.615 66.9352 161.615 65.5673C161.615 64.1993 159.332 63.0903 156.515 63.0903C153.699 63.0903 151.416 64.1993 151.416 65.5673C151.416 66.9352 153.699 68.0442 156.515 68.0442Z" stroke="#3F3D56" stroke-miterlimit="10"/>
<path d="M186.688 74.4187C189.504 74.4187 191.788 73.3097 191.788 71.9417C191.788 70.5738 189.504 69.4648 186.688 69.4648C183.871 69.4648 181.588 70.5738 181.588 71.9417C181.588 73.3097 183.871 74.4187 186.688 74.4187Z" fill="#57B894"/>
<path d="M186.05 73.9937C188.867 73.9937 191.15 72.8848 191.15 71.5168C191.15 70.1488 188.867 69.0398 186.05 69.0398C183.234 69.0398 180.951 70.1488 180.951 71.5168C180.951 72.8848 183.234 73.9937 186.05 73.9937Z" stroke="#3F3D56" stroke-miterlimit="10"/>
<path d="M139.729 93.9672C142.545 93.9672 144.829 92.8582 144.829 91.4902C144.829 90.1222 142.545 89.0133 139.729 89.0133C136.913 89.0133 134.629 90.1222 134.629 91.4902C134.629 92.8582 136.913 93.9672 139.729 93.9672Z" fill="#57B894"/>
<path d="M139.092 93.5422C141.908 93.5422 144.191 92.4333 144.191 91.0653C144.191 89.6973 141.908 88.5883 139.092 88.5883C136.275 88.5883 133.992 89.6973 133.992 91.0653C133.992 92.4333 136.275 93.5422 139.092 93.5422Z" stroke="#3F3D56" stroke-miterlimit="10"/>
<path d="M157.365 92.6923C160.182 92.6923 162.465 91.5833 162.465 90.2153C162.465 88.8473 160.182 87.7384 157.365 87.7384C154.549 87.7384 152.266 88.8473 152.266 90.2153C152.266 91.5833 154.549 92.6923 157.365 92.6923Z" fill="#57B894"/>
<path d="M156.728 92.2673C159.544 92.2673 161.827 91.1583 161.827 89.7903C161.827 88.4224 159.544 87.3134 156.728 87.3134C153.911 87.3134 151.628 88.4224 151.628 89.7903C151.628 91.1583 153.911 92.2673 156.728 92.2673Z" stroke="#3F3D56" stroke-miterlimit="10"/>
<path d="M180.526 94.6046C183.342 94.6046 185.625 93.4957 185.625 92.1277C185.625 90.7597 183.342 89.6507 180.526 89.6507C177.709 89.6507 175.426 90.7597 175.426 92.1277C175.426 93.4957 177.709 94.6046 180.526 94.6046Z" fill="#57B894"/>
<path d="M179.888 94.1796C182.705 94.1796 184.988 93.0707 184.988 91.7027C184.988 90.3347 182.705 89.2257 179.888 89.2257C177.072 89.2257 174.789 90.3347 174.789 91.7027C174.789 93.0707 177.072 94.1796 179.888 94.1796Z" stroke="#3F3D56" stroke-miterlimit="10"/>
<path d="M168.202 95.4546C171.018 95.4546 173.301 94.3456 173.301 92.9776C173.301 91.6096 171.018 90.5007 168.202 90.5007C165.385 90.5007 163.102 91.6096 163.102 92.9776C163.102 94.3456 165.385 95.4546 168.202 95.4546Z" fill="#57B894"/>
<path d="M167.564 95.0296C170.381 95.0296 172.664 93.9206 172.664 92.5526C172.664 91.1847 170.381 90.0757 167.564 90.0757C164.748 90.0757 162.465 91.1847 162.465 92.5526C162.465 93.9206 164.748 95.0296 167.564 95.0296Z" stroke="#3F3D56" stroke-miterlimit="10"/>
<path d="M169.052 74.2062C171.868 74.2062 174.151 73.0972 174.151 71.7292C174.151 70.3613 171.868 69.2523 169.052 69.2523C166.235 69.2523 163.952 70.3613 163.952 71.7292C163.952 73.0972 166.235 74.2062 169.052 74.2062Z" fill="#57B894"/>
<path d="M168.414 73.7813C171.231 73.7813 173.514 72.6723 173.514 71.3043C173.514 69.9363 171.231 68.8274 168.414 68.8274C165.598 68.8274 163.315 69.9363 163.315 71.3043C163.315 72.6723 165.598 73.7813 168.414 73.7813Z" stroke="#3F3D56" stroke-miterlimit="10"/>
<path d="M147.166 87.3802C149.982 87.3802 152.266 86.2712 152.266 84.9032C152.266 83.5352 149.982 82.4263 147.166 82.4263C144.35 82.4263 142.066 83.5352 142.066 84.9032C142.066 86.2712 144.35 87.3802 147.166 87.3802Z" fill="#57B894"/>
<path d="M146.529 86.9552C149.345 86.9552 151.628 85.8463 151.628 84.4783C151.628 83.1103 149.345 82.0013 146.529 82.0013C143.712 82.0013 141.429 83.1103 141.429 84.4783C141.429 85.8463 143.712 86.9552 146.529 86.9552Z" stroke="#3F3D56" stroke-miterlimit="10"/>
<path d="M150.141 96.9419C152.957 96.9419 155.24 95.833 155.24 94.465C155.24 93.097 152.957 91.988 150.141 91.988C147.324 91.988 145.041 93.097 145.041 94.465C145.041 95.833 147.324 96.9419 150.141 96.9419Z" fill="#57B894"/>
<path d="M149.503 96.517C152.32 96.517 154.603 95.408 154.603 94.04C154.603 92.672 152.32 91.5631 149.503 91.5631C146.687 91.5631 144.404 92.672 144.404 94.04C144.404 95.408 146.687 96.517 149.503 96.517Z" stroke="#3F3D56" stroke-miterlimit="10"/>
<g opacity="0.3">
<path opacity="0.3" d="M150.259 111.378C150.979 110.09 151.111 108.793 150.553 108.481C149.995 108.169 148.959 108.961 148.239 110.249C147.52 111.537 147.388 112.834 147.946 113.145C148.504 113.457 149.54 112.666 150.259 111.378Z" fill="#57B894"/>
<path opacity="0.3" d="M149.923 111.572C150.643 110.284 150.774 108.988 150.217 108.676C149.659 108.364 148.623 109.155 147.903 110.443C147.183 111.731 147.052 113.028 147.61 113.34C148.168 113.652 149.203 112.86 149.923 111.572Z" stroke="#3F3D56" stroke-miterlimit="10"/>
</g>
<g opacity="0.3">
<path opacity="0.3" d="M176.841 117.552C177.267 117.076 176.721 115.892 175.622 114.908C174.522 113.924 173.285 113.513 172.859 113.989C172.433 114.465 172.979 115.649 174.078 116.633C175.178 117.617 176.415 118.028 176.841 117.552Z" fill="#57B894"/>
<path opacity="0.3" d="M176.724 117.182C177.15 116.705 176.605 115.522 175.505 114.538C174.406 113.554 173.169 113.142 172.743 113.618C172.317 114.094 172.862 115.278 173.962 116.262C175.061 117.246 176.298 117.658 176.724 117.182Z" stroke="#3F3D56" stroke-miterlimit="10"/>
</g>
<g opacity="0.3">
<path opacity="0.3" d="M153.043 104.166C153.469 103.69 152.923 102.506 151.824 101.522C150.724 100.538 149.487 100.126 149.061 100.602C148.635 101.078 149.181 102.262 150.28 103.246C151.38 104.23 152.617 104.642 153.043 104.166Z" fill="#57B894"/>
<path opacity="0.3" d="M152.926 103.795C153.352 103.319 152.807 102.135 151.707 101.151C150.608 100.167 149.371 99.7556 148.945 100.232C148.519 100.708 149.064 101.892 150.164 102.876C151.263 103.86 152.5 104.271 152.926 103.795Z" stroke="#3F3D56" stroke-miterlimit="10"/>
</g>
</g>
<defs>
<clipPath id="clip0">
<rect width="160" height="118.158" fill="white" transform="translate(32 63)"/>
</clipPath>
</defs>
</svg>
