<svg width="36" height="36" viewBox="0 0 36 36" fill="none" xmlns="http://www.w3.org/2000/svg">
<path d="M18.0073 36C8.32175 36.0453 0.350018 28.3912 0 18.7103V17.8098L9.90403 17.4136V18.3141C10.095 22.786 13.8745 26.2564 18.3458 26.0654C19.7271 26.0064 21.0706 25.5948 22.2481 24.8698L23.0134 24.4015L28.2265 32.8122L27.4612 33.2895C24.6224 35.0528 21.349 35.9914 18.0073 36ZM1.89077 19.5388C2.72147 28.4272 10.5992 34.9593 19.4862 34.1284C21.6834 33.923 23.8153 33.2698 25.7505 32.2089L22.4281 26.8059C21.0608 27.512 19.5462 27.8852 18.0073 27.8955C13.0405 27.8931 8.84351 24.2115 8.19334 19.2866L1.89077 19.5388Z" fill="#008FFF"/>
<path d="M0.0720293 19.6107L0 18.467C0 18.3049 0 18.1518 0 17.9897C0.0112546 8.04299 8.08248 -0.0112445 18.0276 1.17842e-05C23.5277 0.00620276 28.7233 2.52604 32.1341 6.84149L32.6923 7.54388L24.9221 13.6763L24.3639 12.9739C21.5883 9.46275 16.4924 8.86672 12.9817 11.6428C11.0407 13.1776 9.9073 15.5152 9.90403 17.9897C9.89953 18.0437 9.89953 18.0979 9.90403 18.1518V19.2144L0.0720293 19.6107ZM18.0073 1.78065C9.15425 1.77952 1.93849 8.88417 1.80073 17.7376L8.1033 17.4855C8.36981 12.0213 13.0148 7.80773 18.4781 8.07428C21.0398 8.19922 23.4532 9.31326 25.2103 11.1819L30.1713 7.27373C27.0993 3.77268 22.6646 1.76995 18.0073 1.78065Z" fill="#02B875"/>
<path d="M26.7141 33.7664L21.501 25.3467L22.2663 24.8694C26.0691 22.5095 27.239 17.5132 24.8794 13.7098C24.7214 13.455 24.5494 13.2093 24.3641 12.9737L23.8059 12.2623L31.5761 6.12988L32.1343 6.84128C38.2908 14.6529 36.95 25.9773 29.1395 32.1347C28.6084 32.5534 28.0542 32.9418 27.4794 33.2981L26.7141 33.7664ZM23.959 25.896L27.2813 31.299C34.6149 26.1668 36.4002 16.0602 31.2687 8.72548C31.2661 8.72176 31.2635 8.71805 31.261 8.71434L26.2999 12.5865C29.1363 16.9492 28.1137 22.7632 23.959 25.896Z" fill="#FF6823"/>
</svg>
