<svg width="240" height="240" viewBox="0 0 240 240" fill="none" xmlns="http://www.w3.org/2000/svg">
<path d="M217.5 37.4999C217.688 37.4999 122.438 0.93739 120 0C118.126 0.749817 22.3127 37.4999 22.5003 37.4999V106.5C22.5003 154.312 36.1879 216.75 120 240C203.625 216.75 217.313 153.187 217.313 106.5C217.5 82.875 217.5 37.4999 217.5 37.4999Z" fill="#D9DEE1"/>
<path d="M22.4995 106.5C22.4995 154.313 36.1871 216.75 120 240V0C116.437 1.31254 22.4995 37.4999 22.4995 37.4999C22.4995 37.4999 22.5 106.5 22.4995 106.5Z" fill="#BCC6CA"/>
<path d="M198.561 50.4375C198.749 50.4375 121.874 19.4998 119.811 18.75C118.124 19.3127 40.874 49.125 41.0616 48.9374V106.875C41.0616 147 48.9368 201.75 119.811 221.25C190.499 201.75 198.561 146.062 198.561 106.875C198.749 87 198.749 50.4375 198.561 50.4375Z" fill="#008FFF"/>
<path d="M119.999 18.75C118.311 19.3127 41.0618 49.125 41.2494 48.9374V106.875C41.2494 147 49.1246 201.75 119.999 221.25V18.75Z" fill="#008FFF"/>
<path d="M166.4 160.794H73.6C72.7164 160.794 72 161.511 72 162.394C72 163.278 72.7164 163.994 73.6 163.994H166.4C167.284 163.994 168 163.278 168 162.394C168 161.511 167.284 160.794 166.4 160.794Z" fill="white"/>
<path d="M100.279 144.76C100.091 144.181 99.5896 143.758 98.9862 143.671L94.4454 143.012L92.4166 138.898C92.025 138.106 91.0656 137.781 90.2734 138.172C89.9584 138.328 89.7036 138.583 89.5478 138.898L87.5206 143.012L82.9766 143.674C82.1028 143.806 81.5012 144.621 81.6328 145.495C81.6842 145.836 81.8446 146.151 82.09 146.394L85.3748 149.594L84.6006 154.116C84.4518 154.987 85.0374 155.814 85.9084 155.962C86.2542 156.021 86.6098 155.965 86.9206 155.802L90.9814 153.668L95.0406 155.81C95.8228 156.221 96.7902 155.921 97.2014 155.139C97.3652 154.827 97.4216 154.471 97.3622 154.124L96.5862 149.602L99.8726 146.402C100.31 145.977 100.467 145.34 100.279 144.76ZM93.7606 147.896C93.3834 148.264 93.2116 148.795 93.3014 149.314L93.6694 151.469L91.7334 150.452C91.268 150.208 90.7124 150.208 90.247 150.452L88.311 151.469L88.679 149.314C88.7688 148.795 88.597 148.264 88.2198 147.896L86.6534 146.372L88.8166 146.052C89.3378 145.976 89.7884 145.649 90.0214 145.176L90.9894 143.215L91.9574 145.175C92.19 145.648 92.6408 145.976 93.1622 146.052L95.3254 146.372L93.7606 147.896Z" fill="white"/>
<path d="M151.814 117.706L135.539 101.434C134.914 100.809 133.901 100.809 133.276 101.434L121.601 113.1L110.91 102.408C117.967 101.355 123.193 95.2978 123.201 88.162V87.8884C123.201 85.2374 121.052 83.0884 118.401 83.0884C115.75 83.0884 113.601 85.2374 113.601 87.8884C113.597 90.6896 111.327 92.9594 108.526 92.962C105.716 92.9676 102.928 93.464 100.289 94.4292C101.989 89.407 99.295 83.958 94.2728 82.2586C89.2506 80.5592 83.8015 83.2526 82.1021 88.2748C80.4027 93.297 83.0961 98.746 88.1183 100.445C88.9111 100.714 89.7355 100.877 90.5705 100.932L90.081 101.434C83.2712 108.245 83.2712 119.286 90.081 126.096L90.6873 126.703C92.6435 128.647 95.8054 128.637 97.7494 126.681C98.6774 125.747 99.1989 124.485 99.2009 123.168C99.2047 121.843 98.6782 120.572 97.7386 119.637L97.1321 119.031C94.6647 116.555 94.2451 112.699 96.1225 109.751L118.375 131.994H105.601C104.717 131.994 104.001 132.71 104.001 133.594C104.001 134.478 104.717 135.194 105.601 135.194H121.569L123.201 136.826V151.194C123.203 152.318 123.502 153.422 124.067 154.394H113.601C112.717 154.394 112.001 155.11 112.001 155.994C112.001 156.878 112.717 157.594 113.601 157.594H129.558H129.601C133.136 157.594 136.001 154.729 136.001 151.194V131.354C136.001 130.93 135.832 130.523 135.532 130.223L128.663 123.354L134.401 117.626L143.151 126.368C145.543 128.76 149.422 128.76 151.814 126.368C154.206 123.976 154.206 120.098 151.814 117.706ZM84.8009 91.362C84.8009 87.8274 87.6663 84.962 91.201 84.962C94.7356 84.962 97.6009 87.8274 97.6009 91.362C97.6009 94.8966 94.7356 97.762 91.201 97.762C87.6663 97.762 84.8009 94.8966 84.8009 91.362ZM149.525 124.107C148.981 124.645 148.248 124.949 147.483 124.954C146.707 124.952 145.964 124.644 145.414 124.098L135.539 114.234C134.914 113.609 133.901 113.609 133.276 114.234L125.281 122.234C124.656 122.859 124.656 123.871 125.281 124.496L132.801 132.026V151.194C132.801 152.961 131.368 154.394 129.601 154.394C127.834 154.394 126.401 152.961 126.401 151.194V136.154C126.401 135.73 126.232 135.323 125.932 135.023L97.1321 106.223C96.5073 105.598 95.4945 105.598 94.8697 106.223C90.7159 110.384 90.7159 117.124 94.8697 121.285L95.4761 121.892C96.1769 122.592 96.1773 123.727 95.4771 124.428C95.1405 124.765 94.6835 124.954 94.2073 124.954C93.7317 124.953 93.276 124.764 92.9386 124.429L92.3321 123.823C86.7715 118.262 86.7715 109.246 92.3321 103.685L93.7386 102.28C97.6516 98.3454 102.976 96.1392 108.526 96.154C113.09 96.1496 116.791 92.453 116.801 87.8884C116.801 87.0048 117.517 86.2884 118.401 86.2884C119.285 86.2884 120.001 87.0048 120.001 87.8884V88.162C119.994 94.3446 114.984 99.355 108.801 99.362C107.917 99.362 107.201 100.078 107.201 100.962V102.562C107.201 102.986 107.37 103.393 107.67 103.693L120.47 116.493C121.095 117.118 122.107 117.118 122.732 116.493L134.401 104.826L149.545 119.968C150.682 121.117 150.673 122.97 149.525 124.107Z" fill="white"/>
<path d="M107.2 154.394H104C103.116 154.394 102.4 155.11 102.4 155.994C102.4 156.878 103.116 157.594 104 157.594H107.2C108.084 157.594 108.8 156.878 108.8 155.994C108.8 155.11 108.084 154.394 107.2 154.394Z" fill="white"/>
<path d="M99.1999 131.994H95.9999C95.1163 131.994 94.3999 132.711 94.3999 133.594C94.3999 134.478 95.1163 135.194 95.9999 135.194H99.1999C100.084 135.194 100.8 134.478 100.8 133.594C100.8 132.711 100.084 131.994 99.1999 131.994Z" fill="white"/>
<path d="M166.4 78.2449C166.293 78.2449 166.185 78.2557 166.08 78.2773H166.091C162.879 78.9259 159.54 78.3447 156.736 76.6485L156.033 76.2245C155.989 76.2025 155.944 76.1827 155.897 76.1653C155.851 76.1429 155.805 76.1237 155.757 76.1045C155.401 75.9733 155.011 75.9733 154.656 76.1045C154.608 76.1237 154.561 76.1429 154.515 76.1653C154.469 76.1827 154.423 76.2025 154.379 76.2245L153.677 76.6485C150.872 78.3457 147.533 78.9271 144.32 78.2773C143.454 78.1005 142.609 78.6591 142.432 79.5249C142.411 79.6303 142.4 79.7377 142.4 79.8453V95.9573C142.4 98.2269 143.014 100.454 144.176 102.404C145.518 104.665 147.544 106.442 149.961 107.479L154.566 109.463C154.968 109.636 155.422 109.636 155.824 109.463L160.43 107.479C162.847 106.442 164.873 104.665 166.216 102.404C167.381 100.455 167.997 98.2277 168 95.9573V79.8453C168 78.9617 167.284 78.2451 166.4 78.2449ZM153.606 105.56L151.233 104.538C149.435 103.767 147.928 102.446 146.93 100.764C146.065 99.3119 145.607 97.6537 145.606 95.9637V81.6837C148.349 81.9019 151.102 81.4191 153.606 80.2805V105.56V105.56ZM163.483 100.764C162.484 102.446 160.977 103.768 159.179 104.54L156.8 105.562V80.2805C159.304 81.4189 162.057 81.9019 164.8 81.6837L164.806 95.9637C164.805 97.6537 164.348 99.3119 163.483 100.764Z" fill="white"/>
</svg>
