<svg width="60" height="60" viewBox="0 0 60 60" fill="none" xmlns="http://www.w3.org/2000/svg">
<path d="M54.3751 9.37498C54.422 9.37498 30.6095 0.234348 30.0001 0C29.5314 0.187454 5.57818 9.37498 5.62507 9.37498V26.6249C5.62507 38.5781 9.04697 54.1875 30.0001 59.9999C50.9063 54.1874 54.3282 38.2967 54.3282 26.6249C54.3751 20.7188 54.3751 9.37498 54.3751 9.37498Z" fill="#D9DEE1"/>
<path d="M5.62476 26.6251C5.62476 38.5782 9.04666 54.1876 29.9998 60V0C29.1091 0.328134 5.62476 9.37497 5.62476 9.37497C5.62476 9.37497 5.62487 26.6251 5.62476 26.6251Z" fill="#BCC6CA"/>
<path d="M49.6404 12.6094C49.6873 12.6094 30.4685 4.87495 29.9529 4.6875C29.531 4.82818 10.2186 12.2812 10.2655 12.2343V26.7187C10.2655 36.7499 12.2343 50.4374 29.9529 55.3124C47.6248 50.4374 49.6404 36.5156 49.6404 26.7187C49.6873 21.75 49.6873 12.6094 49.6404 12.6094Z" fill="#008FFF"/>
<path d="M29.9998 4.6875C29.5779 4.82818 10.2654 12.2812 10.3123 12.2343V26.7187C10.3123 36.7499 12.2811 50.4374 29.9998 55.3124V4.6875Z" fill="#008FFF"/>
<path d="M41.6 40.1982H18.4C18.1791 40.1982 18 40.3773 18 40.5982C18 40.8191 18.1791 40.9982 18.4 40.9982H41.6C41.8209 40.9982 42 40.8191 42 40.5982C42 40.3773 41.8209 40.1982 41.6 40.1982Z" fill="white"/>
<path d="M25.0699 36.1899C25.0228 36.045 24.8975 35.9393 24.7467 35.9175L23.6115 35.7527L23.1043 34.7243C23.0064 34.5263 22.7665 34.4451 22.5685 34.5429C22.4897 34.5818 22.426 34.6456 22.3871 34.7243L21.8803 35.7527L20.7443 35.9183C20.5258 35.9512 20.3754 36.155 20.4083 36.3735C20.4212 36.4588 20.4613 36.5377 20.5226 36.5983L21.3438 37.3983L21.1503 38.5287C21.1131 38.7465 21.2595 38.9532 21.4772 38.9903C21.5637 39.0051 21.6526 38.991 21.7303 38.9503L22.7455 38.4167L23.7603 38.9523C23.9558 39.0551 24.1977 38.98 24.3005 38.7844C24.3414 38.7066 24.3555 38.6174 24.3407 38.5307L24.1467 37.4003L24.9683 36.6003C25.0776 36.4941 25.117 36.3349 25.0699 36.1899ZM23.4403 36.9739C23.346 37.0659 23.303 37.1985 23.3255 37.3283L23.4175 37.8671L22.9335 37.6127C22.8171 37.5517 22.6782 37.5517 22.5619 37.6127L22.0779 37.8671L22.1699 37.3283C22.1923 37.1985 22.1494 37.0659 22.0551 36.9739L21.6635 36.5927L22.2043 36.5127C22.3346 36.4938 22.4472 36.412 22.5055 36.2939L22.7475 35.8035L22.9895 36.2935C23.0476 36.4117 23.1603 36.4937 23.2907 36.5127L23.8315 36.5927L23.4403 36.9739Z" fill="white"/>
<path d="M37.9534 29.4266L33.8846 25.3586C33.7284 25.2025 33.4752 25.2025 33.319 25.3586L30.4002 28.275L27.7274 25.6022C29.4918 25.3388 30.7982 23.8246 30.8002 22.0406V21.9722C30.8002 21.3095 30.2629 20.7722 29.6002 20.7722C28.9374 20.7722 28.4002 21.3095 28.4002 21.9722C28.3993 22.6725 27.8317 23.24 27.1314 23.2406C26.4288 23.242 25.732 23.3661 25.0722 23.6074C25.4971 22.3519 24.8237 20.9896 23.5681 20.5648C22.3126 20.1399 20.9503 20.8133 20.5255 22.0688C20.1006 23.3244 20.774 24.6866 22.0295 25.1115C22.2277 25.1785 22.4338 25.2194 22.6426 25.233L22.5202 25.3586C20.8177 27.0613 20.8177 29.8216 22.5202 31.5242L22.6718 31.6758C23.1608 32.1618 23.9513 32.1594 24.4373 31.6703C24.6693 31.4369 24.7997 31.1213 24.8002 30.7922C24.8011 30.4609 24.6695 30.143 24.4346 29.9094L24.283 29.7578C23.6661 29.1389 23.5612 28.1749 24.0306 27.4378L29.5938 32.9986H26.4002C26.1793 32.9986 26.0002 33.1777 26.0002 33.3986C26.0002 33.6195 26.1793 33.7986 26.4002 33.7986H30.3922L30.8002 34.2066V37.7986C30.8007 38.0797 30.8753 38.3556 31.0166 38.5986H28.4002C28.1793 38.5986 28.0002 38.7777 28.0002 38.9986C28.0002 39.2195 28.1793 39.3986 28.4002 39.3986H32.3894H32.4002C33.2838 39.3986 34.0002 38.6823 34.0002 37.7986V32.8386C34.0002 32.7325 33.958 32.6308 33.883 32.5558L32.1658 30.8386L33.6002 29.4066L35.7878 31.5922C36.3858 32.1902 37.3554 32.1902 37.9534 31.5922C38.5514 30.9942 38.5514 30.0246 37.9534 29.4266ZM21.2002 22.8406C21.2002 21.957 21.9165 21.2406 22.8002 21.2406C23.6838 21.2406 24.4002 21.957 24.4002 22.8406C24.4002 23.7243 23.6838 24.4406 22.8002 24.4406C21.9165 24.4406 21.2002 23.7243 21.2002 22.8406ZM37.3812 31.0268C37.2452 31.1615 37.0619 31.2375 36.8706 31.2386C36.6767 31.2381 36.4909 31.1612 36.3534 31.0246L33.8846 28.5586C33.7284 28.4024 33.4752 28.4024 33.319 28.5586L31.3202 30.5586C31.164 30.7148 31.164 30.968 31.3202 31.1242L33.2002 33.0066V37.7986C33.2002 38.2405 32.842 38.5986 32.4002 38.5986C31.9583 38.5986 31.6002 38.2405 31.6002 37.7986V34.0386C31.6002 33.9325 31.558 33.8308 31.483 33.7558L24.283 26.5558C24.1268 26.3997 23.8736 26.3997 23.7174 26.5558C22.6789 27.5962 22.6789 29.281 23.7174 30.3214L23.869 30.473C24.0442 30.6481 24.0443 30.932 23.8692 31.1072C23.7851 31.1914 23.6708 31.2387 23.5518 31.2386C23.4329 31.2383 23.3189 31.1912 23.2346 31.1074L23.083 30.9558C21.6928 29.5656 21.6928 27.3117 23.083 25.9214L23.4346 25.5702C24.4128 24.5865 25.744 24.0349 27.1314 24.0386C28.2725 24.0375 29.1978 23.1134 29.2002 21.9722C29.2002 21.7513 29.3793 21.5722 29.6002 21.5722C29.8211 21.5722 30.0002 21.7513 30.0002 21.9722V22.0406C29.9984 23.5863 28.7458 24.8389 27.2002 24.8406C26.9793 24.8406 26.8002 25.0197 26.8002 25.2406V25.6406C26.8002 25.7467 26.8424 25.8484 26.9174 25.9234L30.1174 29.1234C30.2736 29.2796 30.5268 29.2796 30.683 29.1234L33.6002 26.2066L37.3862 29.9922C37.6705 30.2793 37.6683 30.7425 37.3812 31.0268Z" fill="white"/>
<path d="M26.7999 38.5986H25.9999C25.779 38.5986 25.5999 38.7777 25.5999 38.9986C25.5999 39.2195 25.779 39.3986 25.9999 39.3986H26.7999C27.0208 39.3986 27.1999 39.2195 27.1999 38.9986C27.1999 38.7777 27.0208 38.5986 26.7999 38.5986Z" fill="white"/>
<path d="M24.8001 32.9985H24.0001C23.7792 32.9985 23.6001 33.1776 23.6001 33.3985C23.6001 33.6194 23.7792 33.7985 24.0001 33.7985H24.8001C25.021 33.7985 25.2001 33.6194 25.2001 33.3985C25.2001 33.1776 25.021 32.9985 24.8001 32.9985Z" fill="white"/>
<path d="M41.6002 19.5612C41.5733 19.5612 41.5464 19.5639 41.5201 19.5693H41.5229C40.7198 19.7314 39.8851 19.5861 39.1841 19.1621L39.0085 19.0561C38.9974 19.0506 38.9861 19.0456 38.9745 19.0413C38.9629 19.0357 38.9513 19.0309 38.9393 19.0261C38.8505 18.9933 38.7529 18.9933 38.6641 19.0261C38.6521 19.0309 38.6405 19.0357 38.6289 19.0413C38.6173 19.0456 38.606 19.0506 38.5949 19.0561L38.4193 19.1621C37.7182 19.5864 36.8833 19.7317 36.0801 19.5693C35.8636 19.5251 35.6523 19.6647 35.6082 19.8812C35.6028 19.9075 35.6001 19.9344 35.6001 19.9613V23.9893C35.6001 24.5567 35.7535 25.1135 36.0441 25.6009C36.3797 26.1663 36.8862 26.6106 37.4905 26.8697L38.6417 27.3657C38.742 27.4089 38.8557 27.4089 38.9561 27.3657L40.1077 26.8697C40.712 26.6106 41.2185 26.1663 41.5541 25.6009C41.8454 25.1137 41.9995 24.5569 42.0001 23.9893V19.9613C42.0001 19.7404 41.8211 19.5612 41.6002 19.5612ZM38.4017 26.3901L37.8085 26.1345C37.359 25.9418 36.9822 25.6114 36.7325 25.1909C36.5162 24.8279 36.4019 24.4134 36.4017 23.9909V20.4209C37.0873 20.4754 37.7755 20.3547 38.4017 20.0701V26.3901V26.3901ZM40.8709 25.1909C40.6212 25.6115 40.2444 25.9421 39.7949 26.1349L39.2001 26.3905V20.0701C39.8262 20.3547 40.5144 20.4754 41.2001 20.4209L41.2017 23.9909C41.2014 24.4134 41.0871 24.8279 40.8709 25.1909Z" fill="white"/>
</svg>
