<svg width="60" height="60" viewBox="0 0 60 60" fill="none" xmlns="http://www.w3.org/2000/svg">
<path d="M47.6998 45.1425C47.1679 44.7736 46.4377 44.9062 46.0691 45.4382C45.712 45.9538 45.3072 46.4551 44.8655 46.9284C44.5696 47.2459 44.1625 47.6286 43.7195 48.0055C43.2267 48.425 43.1671 49.1646 43.5865 49.6576C43.8183 49.9299 44.148 50.0699 44.4796 50.0699C44.7481 50.0699 45.018 49.9781 45.2386 49.7904C45.7554 49.3504 46.2194 48.9136 46.5796 48.5267C47.0978 47.9715 47.5743 47.3815 47.9957 46.773C48.3643 46.2411 48.2318 45.511 47.6998 45.1425Z" fill="#008FFF"/>
<path d="M42.5945 50.3971C42.3196 49.8112 41.6221 49.559 41.0359 49.8338L40.9993 49.8503C40.4071 50.1116 40.139 50.8034 40.4004 51.3956C40.5938 51.8339 41.0229 52.0946 41.473 52.0946C41.6311 52.0946 41.7918 52.0624 41.9455 51.9945C41.9741 51.982 42.0025 51.9691 42.031 51.9559C42.6169 51.6809 42.8692 50.9833 42.5945 50.3971Z" fill="#008FFF"/>
<path d="M56.499 3.04688H3.50097C1.57043 3.04688 0 4.61754 0 6.54785V39.3898C0 41.32 1.57043 42.8906 3.50097 42.8906H28.179C29.2251 47.3167 31.5908 50.4515 33.6583 52.4598C36.6761 55.3916 40.1355 56.9529 41.4725 56.9529C42.8093 56.9529 46.2687 55.3917 49.2866 52.4599C51.3542 50.4515 53.7199 47.3167 54.7659 42.8907H56.499C58.4295 42.8907 60 41.3201 60 39.3899V6.54785C60 4.61754 58.4295 3.04688 56.499 3.04688ZM52.9687 38.088C52.9688 44.2623 50.1187 48.3579 47.7276 50.7065C44.8913 53.4924 41.9819 54.576 41.4725 54.6089C40.9629 54.576 38.0534 53.4925 35.2171 50.7065C32.8263 48.3579 29.9762 44.2623 29.9762 38.088V32.317C34.0109 31.1501 37.7862 29.5532 41.4728 27.4546C45.0763 29.4999 49.0208 31.1678 52.9687 32.3163V38.088ZM57.6563 39.3898C57.6563 40.0278 57.137 40.5468 56.499 40.5468H55.1735C55.2633 39.7615 55.3125 38.9426 55.3125 38.088V31.4285C55.3125 30.8995 54.9581 30.4362 54.4478 30.2976C50.1924 29.142 45.9102 27.3413 42.0644 25.0903C41.6987 24.8763 41.2462 24.8765 40.8803 25.0905C36.9255 27.4054 32.8749 29.1085 28.4971 30.2976C27.9868 30.4364 27.6324 30.8996 27.6324 31.4285V38.088C27.6324 38.9426 27.6815 39.7615 27.7714 40.5468H3.50097C2.86289 40.5468 2.34375 40.0277 2.34375 39.3898V19.4529H57.6563V39.3898ZM57.6563 17.1092H2.34375V12.422H57.6563V17.1092ZM57.6563 10.0781H2.34375V6.54785C2.34375 5.90976 2.86289 5.39062 3.50097 5.39062H56.499C57.137 5.39062 57.6563 5.90976 57.6563 6.54785V10.0781Z" fill="#008FFF"/>
<path d="M14.062 27.6562C13.3555 27.6562 12.6579 27.7991 12.0122 28.0714C11.3814 27.8041 10.6881 27.6562 9.96104 27.6562C7.05328 27.6562 4.6875 30.0218 4.6875 32.9294C4.6875 35.8371 7.05316 38.2029 9.96104 38.2029C10.6881 38.2029 11.3814 38.055 12.0121 37.7877C12.6579 38.06 13.3555 38.2029 14.062 38.2029C16.9699 38.2029 19.3357 35.8371 19.3357 32.9294C19.3357 30.0218 16.9699 27.6562 14.062 27.6562ZM9.96104 35.8591C8.3455 35.8591 7.03124 34.545 7.03124 32.9294C7.03124 31.314 8.3455 30 9.96104 30C11.5764 30 12.8906 31.314 12.8906 32.9294C12.8906 34.5449 11.5764 35.8591 9.96104 35.8591ZM14.3525 35.8448C14.9092 35.0092 15.2344 34.0066 15.2344 32.9296C15.2344 31.8525 14.9092 30.8502 14.3526 30.0145C15.8321 30.1608 16.9918 31.4123 16.9918 32.9296C16.9918 34.4468 15.8321 35.6985 14.3525 35.8448Z" fill="#008FFF"/>
<path d="M11.8871 22.3828H5.85937C5.21215 22.3828 4.6875 22.9075 4.6875 23.5547C4.6875 24.2018 5.21215 24.7266 5.85937 24.7266H11.8871C12.5344 24.7266 13.059 24.2017 13.059 23.5547C13.059 22.9075 12.5344 22.3828 11.8871 22.3828Z" fill="#008FFF"/>
<path d="M15.3512 22.3828H15.2957C14.6484 22.3828 14.1238 22.9075 14.1238 23.5547C14.1238 24.2018 14.6484 24.7266 15.2957 24.7266H15.3512C15.9983 24.7266 16.5231 24.2017 16.5231 23.5547C16.5231 22.9075 15.9983 22.3828 15.3512 22.3828Z" fill="#008FFF"/>
<path d="M47.9048 35.3939C47.4474 34.9365 46.7055 34.9363 46.2477 35.3938L39.9809 41.6602L36.6969 38.376C36.2392 37.9187 35.4972 37.9185 35.0395 38.376C34.5819 38.8337 34.5818 39.5757 35.0395 40.0334L39.1522 44.1462C39.3811 44.375 39.681 44.4895 39.9809 44.4895C40.2807 44.4895 40.5807 44.375 40.8094 44.1462L47.9047 37.0513C48.3624 36.5938 48.3624 35.8518 47.9048 35.3939Z" fill="#008FFF"/>
</svg>
