<svg width="236" height="232" viewBox="0 0 236 232" fill="none" xmlns="http://www.w3.org/2000/svg">
<g opacity="0.35">
<path fill-rule="evenodd" clip-rule="evenodd" d="M123 201.749C172.706 201.749 213 164.328 213 118.167C213 102.399 209.173 79.5855 201 67.0002C185.248 42.7423 155.727 34.5854 123 34.5854C73.2944 34.5854 33 72.0063 33 118.167C33 164.328 73.2944 201.749 123 201.749Z" fill="url(#paint0_linear)"/>
<path opacity="0.7" fill-rule="evenodd" clip-rule="evenodd" d="M27.5333 82.3662C12.4806 123.723 38.5549 171.181 85.7719 188.367C132.989 205.553 183.469 185.958 198.521 144.601C213.574 103.244 187.5 55.7856 140.283 38.6C93.0656 21.4144 42.5861 41.0092 27.5333 82.3662Z" fill="url(#paint1_linear)"/>
<path opacity="0.8" fill-rule="evenodd" clip-rule="evenodd" d="M164.339 42.0863C125.04 19.397 74.0468 34.1474 50.442 75.0323C26.8371 115.917 39.5597 167.454 78.8586 190.143C118.158 212.833 169.151 198.082 192.756 157.197C216.361 116.312 203.638 64.7755 164.339 42.0863Z" fill="url(#paint2_linear)"/>
</g>
<path fill-rule="evenodd" clip-rule="evenodd" d="M131.055 180.146C130.264 180.146 129.474 179.975 128.871 179.633L88.5575 156.738C87.3537 156.054 87.3578 154.946 88.5716 154.261L98.0232 149.937C98.629 149.595 99.422 149.424 100.214 149.424C101.006 149.424 101.797 149.595 102.399 149.937L142.712 172.832C143.918 173.516 143.909 174.625 142.698 175.308L133.246 179.633C132.639 179.975 131.847 180.146 131.055 180.146Z" fill="url(#paint3_linear)"/>
<path fill-rule="evenodd" clip-rule="evenodd" d="M85.0782 104.388C85.0498 104.388 85.0175 104.378 84.9834 104.359L80.3259 101.676C80.2086 101.608 80.1141 101.445 80.1145 101.311L80.1248 97.6402C80.1251 97.5452 80.173 97.4902 80.2424 97.4902C80.2709 97.4902 80.3032 97.4993 80.3373 97.519L84.9951 100.203C85.112 100.27 85.2065 100.433 85.2062 100.567L85.1955 104.238C85.1955 104.333 85.1477 104.388 85.0782 104.388Z" fill="url(#paint4_linear)"/>
<path fill-rule="evenodd" clip-rule="evenodd" d="M86.9762 110.827C86.9477 110.827 86.9155 110.818 86.8813 110.798L82.2235 108.115C82.1066 108.048 82.0121 107.884 82.0125 107.75L82.0227 104.079C82.0231 103.984 82.0709 103.929 82.1404 103.929C82.1688 103.929 82.2011 103.939 82.2353 103.958L86.8931 106.642C87.01 106.709 87.1045 106.872 87.1041 107.007L87.0935 110.678C87.0931 110.772 87.0457 110.827 86.9762 110.827Z" fill="url(#paint5_linear)"/>
<path fill-rule="evenodd" clip-rule="evenodd" d="M134.301 69.0877L134.378 69.1506C134.6 69.3324 134.819 69.5237 135.034 69.7225L135.111 69.7941C135.329 69.9987 135.543 70.2119 135.751 70.4323L135.805 70.488C136.028 70.7259 136.246 70.9713 136.457 71.2255L136.464 71.2342C136.681 71.4948 136.891 71.7629 137.095 72.0383L137.095 72.0387C137.281 72.2902 137.459 72.5493 137.633 72.8117C137.741 72.9746 137.842 73.142 137.945 73.3083C138.031 73.4465 138.119 73.5829 138.201 73.7234C138.24 73.7901 138.277 73.8583 138.315 73.9253C138.449 74.1624 138.58 74.4014 138.704 74.6434L138.745 74.7218C138.894 75.0165 139.035 75.3146 139.166 75.615L139.186 75.6608C140.008 77.5455 140.485 79.5193 140.48 81.3445L143.933 79.342C143.938 77.7239 143.558 75.9911 142.901 74.3056L142.906 74.3022C142.857 74.1772 142.807 74.0526 142.755 73.928C142.718 73.8378 142.679 73.748 142.64 73.6583L142.62 73.6121L142.597 73.5606C142.542 73.4359 142.485 73.3121 142.428 73.1882C142.364 73.0522 142.298 72.9167 142.23 72.7814L142.198 72.7193L142.157 72.6409C142.103 72.5333 142.048 72.4258 141.991 72.319C141.919 72.1849 141.842 72.0538 141.767 71.9216C141.73 71.855 141.693 71.7876 141.655 71.7217L141.61 71.6421C141.543 71.5277 141.468 71.4179 141.398 71.3046C141.295 71.1384 141.194 70.9717 141.087 70.8096L141.037 70.7304C140.879 70.4948 140.716 70.263 140.548 70.0362L140.548 70.0358V70.0354C140.436 69.8835 140.321 69.7335 140.205 69.5858C140.11 69.4661 140.015 69.3483 139.918 69.2317L139.91 69.2229L139.907 69.2184C139.809 69.1006 139.709 68.9847 139.608 68.8699C139.509 68.7578 139.409 68.6468 139.308 68.5381L139.258 68.4859L139.204 68.4294C139.134 68.3552 139.064 68.2802 138.992 68.2075C138.885 68.0984 138.777 67.9916 138.667 67.8867L138.564 67.792L138.487 67.7196C138.434 67.6704 138.381 67.6196 138.327 67.5715C138.214 67.4693 138.099 67.3697 137.984 67.2723C137.933 67.2299 137.882 67.1894 137.831 67.1481L137.754 67.0852C137.716 67.0545 137.678 67.0223 137.64 66.9924C137.528 66.9042 137.415 66.8182 137.301 66.7345C137.219 66.6739 137.136 66.6163 137.053 66.5583L137.008 66.5261L136.965 66.4962C136.856 66.422 136.747 66.3496 136.637 66.2799C136.529 66.211 136.42 66.1444 136.31 66.0803L136.235 66.036L103.262 47.0402C103.18 46.9929 103.098 46.9474 103.017 46.9031C102.911 46.8459 102.805 46.7914 102.7 46.7395C102.632 46.7058 102.565 46.6755 102.497 46.6441L102.447 46.621L102.388 46.5925C102.284 46.5463 102.181 46.5028 102.079 46.4619C101.974 46.4202 101.87 46.3808 101.767 46.3448L101.714 46.3278L101.667 46.3123C101.597 46.2888 101.527 46.2649 101.458 46.2441C101.351 46.2115 101.244 46.1823 101.139 46.1562C101.087 46.1433 101.037 46.1339 100.987 46.1225L100.92 46.1077L100.822 46.0858C100.708 46.0638 100.596 46.0452 100.484 46.0301C100.415 46.021 100.348 46.0161 100.28 46.0092L100.209 46.0024L100.14 45.9952C100.017 45.9865 99.8963 45.9827 99.7772 45.9835C99.7244 45.9835 99.6735 45.9888 99.6215 45.9907C99.5813 45.9922 99.5411 45.9937 99.5012 45.9964C99.4598 45.999 99.4177 45.9986 99.3767 46.0024C99.2249 46.0161 99.0765 46.0377 98.9315 46.0664L98.9235 46.0687L98.829 46.0948C98.6802 46.1286 98.5325 46.1649 98.3917 46.2149L98.3431 46.2346L98.2733 46.263C98.0979 46.332 97.9275 46.41 97.7661 46.5035L94.3127 48.5061C94.4744 48.4125 94.6449 48.3345 94.8199 48.2655L94.8897 48.2371C95.0461 48.1792 95.2097 48.1353 95.3759 48.0974L95.4701 48.0712C95.6568 48.0337 95.8504 48.0114 96.0478 47.9989C96.088 47.9962 96.1279 47.9947 96.1681 47.9932C96.3594 47.986 96.5549 47.9883 96.7553 48.005L96.8267 48.0122C97.0358 48.0318 97.2492 48.064 97.4667 48.1103L97.5335 48.125C97.7563 48.1746 97.9829 48.2375 98.2137 48.3148L98.2611 48.3303C98.5014 48.4125 98.7458 48.5102 98.9941 48.6231L99.0442 48.6466C99.2958 48.7636 99.5509 48.8939 99.809 49.0428L132.781 68.0385C133.042 68.1889 133.3 68.3533 133.554 68.529L133.599 68.5609C133.836 68.726 134.07 68.9021 134.301 69.0877Z" fill="url(#paint6_linear)"/>
<path fill-rule="evenodd" clip-rule="evenodd" d="M144.187 78.8265C144.182 78.7017 144.175 78.5762 144.164 78.4498C144.154 78.3239 144.141 78.1979 144.126 78.0712C144.111 77.9444 144.092 77.817 144.072 77.6895C144.051 77.5593 144.027 77.4291 144.001 77.2982C143.974 77.1673 143.946 77.0359 143.914 76.9042C143.882 76.7691 143.846 76.6339 143.809 76.498C143.771 76.3621 143.731 76.2262 143.688 76.0903C143.644 75.9525 143.598 75.8146 143.549 75.6768C143.5 75.5397 143.449 75.4023 143.396 75.2652C143.344 75.1308 143.288 74.9965 143.231 74.8625C143.175 74.73 143.116 74.5975 143.055 74.4654C142.996 74.338 142.935 74.2108 142.872 74.0837L138.431 76.1079C138.494 76.235 138.554 76.3621 138.613 76.4896C138.674 76.6217 138.733 76.7542 138.79 76.8866C138.847 77.0206 138.902 77.155 138.954 77.2894C139.008 77.4264 139.059 77.5639 139.108 77.701C139.156 77.8388 139.202 77.9766 139.246 78.1144C139.289 78.2503 139.33 78.3866 139.367 78.5226C139.405 78.6581 139.441 78.7936 139.473 78.9288C139.504 79.0601 139.533 79.1914 139.56 79.3223C139.586 79.4533 139.609 79.5838 139.63 79.7136C139.651 79.8411 139.669 79.9682 139.685 80.0949C139.7 80.2221 139.713 80.3484 139.723 80.474C139.733 80.6003 139.741 80.7259 139.746 80.8507C139.75 80.9686 139.752 81.0858 139.752 81.2022L139.463 161.001C139.462 161.296 139.443 161.58 139.411 161.855L139.401 161.929C139.369 162.18 139.323 162.422 139.266 162.655L139.242 162.748C139.183 162.973 139.112 163.189 139.029 163.395C139.013 163.434 138.997 163.471 138.98 163.509C138.898 163.704 138.806 163.89 138.703 164.067L138.671 164.125C138.551 164.326 138.417 164.516 138.272 164.692L138.209 164.761C138.089 164.902 137.961 165.034 137.826 165.159C137.776 165.204 137.724 165.248 137.672 165.291C137.553 165.391 137.429 165.485 137.3 165.573C137.247 165.61 137.194 165.648 137.139 165.683C136.956 165.797 136.766 165.904 136.565 165.996L141.006 163.972C141.207 163.88 141.397 163.773 141.58 163.658C141.636 163.624 141.688 163.586 141.741 163.549C141.871 163.461 141.995 163.367 142.114 163.267C142.166 163.223 142.217 163.18 142.267 163.135C142.402 163.01 142.531 162.878 142.651 162.737L142.714 162.668L142.728 162.653C142.863 162.486 142.989 162.308 143.102 162.12L143.113 162.102L143.144 162.041C143.214 161.923 143.281 161.803 143.341 161.677C143.37 161.615 143.394 161.549 143.422 161.485C143.438 161.447 143.455 161.409 143.471 161.37C143.485 161.336 143.501 161.303 143.514 161.267C143.563 161.138 143.607 161.006 143.646 160.87C143.66 160.822 143.671 160.772 143.684 160.724L143.708 160.63C143.719 160.583 143.733 160.537 143.744 160.489C143.771 160.367 143.794 160.243 143.814 160.117C143.826 160.047 143.834 159.975 143.843 159.904L143.853 159.831L143.864 159.742C143.876 159.622 143.886 159.499 143.893 159.375C143.9 159.251 143.904 159.126 143.904 158.999L143.905 158.976L144.193 79.178C144.194 79.0616 144.191 78.9445 144.187 78.8265Z" fill="url(#paint7_linear)"/>
<path fill-rule="evenodd" clip-rule="evenodd" d="M132.781 68.0387C137.045 70.4953 140.494 76.4521 140.48 81.345L140.256 160.29C140.242 165.18 136.771 167.153 132.507 164.697L99.5341 145.701C95.2703 143.245 91.8214 137.284 91.8355 132.395L92.0598 53.4494C92.0735 48.5569 95.5447 46.5862 99.8089 49.0429L132.781 68.0387Z" fill="url(#paint8_linear)"/>
<mask id="mask0" mask-type="alpha" maskUnits="userSpaceOnUse" x="111" y="63" width="11" height="8">
<path fill-rule="evenodd" clip-rule="evenodd" d="M120.622 68.624C121.138 68.9214 121.556 69.6433 121.554 70.2353C121.552 70.8307 121.132 71.0701 120.615 70.7724L112.113 65.8738C111.596 65.5765 111.179 64.8546 111.181 64.2592C111.182 63.6672 111.603 63.4282 112.119 63.7255L120.622 68.624Z" fill="white"/>
</mask>
<g mask="url(#mask0)">
<path fill-rule="evenodd" clip-rule="evenodd" d="M120.622 68.624C121.138 68.9214 121.556 69.6433 121.554 70.2353C121.552 70.8307 121.132 71.0701 120.615 70.7724L112.113 65.8738C111.596 65.5765 111.179 64.8546 111.181 64.2592C111.182 63.6672 111.603 63.4282 112.119 63.7255L120.622 68.624Z" fill="white"/>
</g>
<mask id="mask1" mask-type="alpha" maskUnits="userSpaceOnUse" x="113" y="143" width="6" height="7">
<path fill-rule="evenodd" clip-rule="evenodd" d="M116.15 143.833C117.542 144.635 118.667 146.58 118.663 148.176C118.658 149.772 117.525 150.417 116.133 149.615C114.741 148.813 113.616 146.867 113.62 145.271C113.624 143.675 114.758 143.03 116.15 143.833Z" fill="white"/>
</mask>
<g mask="url(#mask1)">
<path fill-rule="evenodd" clip-rule="evenodd" d="M116.15 143.833C117.542 144.635 118.667 146.58 118.663 148.176C118.658 149.772 117.525 150.417 116.133 149.615C114.741 148.813 113.616 146.867 113.62 145.271C113.624 143.675 114.758 143.03 116.15 143.833Z" fill="white"/>
</g>
<path fill-rule="evenodd" clip-rule="evenodd" d="M136.992 85.1367C137.421 85.3837 137.767 85.9821 137.765 86.4734L137.578 152.438C137.576 152.929 137.228 153.127 136.799 152.88L95.3118 128.979C94.8832 128.732 94.5371 128.134 94.5386 127.642L94.7261 61.6779C94.7276 61.1863 95.0757 60.9882 95.5042 61.2352L136.992 85.1367Z" fill="#FCFCFC"/>
<path fill-rule="evenodd" clip-rule="evenodd" d="M142.096 99.7836C141.826 99.7836 141.606 99.6773 141.606 99.5462V92.4249C141.606 92.2938 141.826 92.1875 142.096 92.1875C142.367 92.1875 142.586 92.2938 142.586 92.4249V99.5462C142.586 99.6773 142.367 99.7836 142.096 99.7836Z" fill="#FCFCFC"/>
<path fill-rule="evenodd" clip-rule="evenodd" d="M142.096 108.849C141.826 108.849 141.606 108.743 141.606 108.612V101.49C141.606 101.359 141.826 101.253 142.096 101.253C142.367 101.253 142.586 101.359 142.586 101.49V108.612C142.586 108.743 142.367 108.849 142.096 108.849Z" fill="#FCFCFC"/>
<path fill-rule="evenodd" clip-rule="evenodd" d="M115.89 89.6887C118.013 90.9117 119.733 93.8642 119.753 96.306L119.754 96.3663C119.665 96.4015 117.972 97.0749 115.82 95.8777L115.745 95.8352C114.062 94.8656 112.683 92.943 112.192 92.2006C112.067 92.0109 112.002 91.9037 111.999 91.8984C112.006 89.4447 113.748 88.4543 115.89 89.6887Z" fill="#FFFFFE"/>
<path fill-rule="evenodd" clip-rule="evenodd" d="M134.217 112.343L134.207 116.063C134.205 116.626 133.806 116.853 133.315 116.57L99.2198 96.9266C98.7286 96.6437 98.3327 95.9593 98.3342 95.396L98.3449 91.6766C98.3464 91.1168 98.7449 90.8903 99.2361 91.1732L133.332 110.816C133.823 111.099 134.219 111.783 134.217 112.343Z" fill="#E2E2E2"/>
<path fill-rule="evenodd" clip-rule="evenodd" d="M133.332 119.149C133.823 119.431 134.219 120.116 134.218 120.679L134.207 124.399C134.205 124.962 133.807 125.185 133.315 124.902L99.2198 105.259C98.729 104.976 98.3327 104.296 98.3342 103.732L98.3449 100.013C98.3464 99.4498 98.7453 99.2229 99.2361 99.5058L133.332 119.149Z" fill="#E2E2E2"/>
<path fill-rule="evenodd" clip-rule="evenodd" d="M119.999 125.086C121.163 125.757 122.101 127.382 122.097 128.713L122.096 129.567C122.091 130.901 121.147 131.439 119.983 130.768L108.955 124.415C107.792 123.744 106.851 122.121 106.854 120.787L106.856 119.933C106.86 118.602 107.808 118.063 108.972 118.733L119.999 125.086Z" fill="url(#paint9_linear)"/>
<mask id="mask2" mask-type="alpha" maskUnits="userSpaceOnUse" x="83" y="169" width="26" height="16">
<path fill-rule="evenodd" clip-rule="evenodd" d="M96.2175 184.168C89.2974 184.168 83.6873 180.841 83.6873 176.738C83.6873 172.635 89.2974 169.308 96.2175 169.308C103.138 169.308 108.748 172.635 108.748 176.738C108.748 180.841 103.138 184.168 96.2175 184.168Z" fill="white"/>
</mask>
<g mask="url(#mask2)">
<path fill-rule="evenodd" clip-rule="evenodd" d="M96.2175 184.168C89.2974 184.168 83.6873 180.841 83.6873 176.738C83.6873 172.635 89.2974 169.308 96.2175 169.308C103.138 169.308 108.748 172.635 108.748 176.738C108.748 180.841 103.138 184.168 96.2175 184.168Z" fill="url(#paint10_linear)"/>
</g>
<path fill-rule="evenodd" clip-rule="evenodd" d="M108.817 126.324C108.817 126.324 109.565 125.826 109.752 125.577C109.939 125.328 110.188 123.896 109.939 123.834C109.689 123.772 109.503 124.767 109.503 124.767C109.503 124.767 109.44 122.154 109.128 121.78C108.817 121.407 107.819 123.274 107.756 123.585C107.694 123.896 107.444 125.203 107.444 125.203C107.444 125.203 107.819 126.324 108.817 126.324Z" fill="#EC956D"/>
<path fill-rule="evenodd" clip-rule="evenodd" d="M89.9164 133.648C89.9164 133.648 87.9608 135.604 89.333 137.968C90.7048 140.334 100.06 134.483 101.058 133.612C102.056 132.741 108.604 126.891 108.979 126.144C109.353 125.398 108.542 124.651 107.544 124.775C106.546 124.9 102.555 129.131 99.4362 131.123C99.4362 131.123 91.9965 132.813 89.9164 133.648Z" fill="black"/>
<path fill-rule="evenodd" clip-rule="evenodd" d="M91.1803 174.973C91.1803 174.973 91.0193 176.151 91.2338 176.633C91.4486 177.062 92.3072 177.383 92.8979 176.954C93.4881 176.526 94.5077 175.455 94.5077 175.455C94.5077 175.455 96.2253 174.545 96.3862 174.063C96.5471 173.581 95.9569 173.152 95.4737 173.26C94.9909 173.367 93.5955 174.223 92.9514 174.223C92.3072 174.223 91.3951 174.384 91.1803 174.973Z" fill="#263764"/>
<mask id="mask3" mask-type="alpha" maskUnits="userSpaceOnUse" x="89" y="150" width="6" height="27">
<path fill-rule="evenodd" clip-rule="evenodd" d="M89.2524 150.059C89.2524 150.059 90.7544 174.795 90.9416 175.512C91.1291 176.228 93.0771 176.64 93.4384 175.501C93.6677 174.779 94.2333 151.888 94.2333 151.888L89.2524 150.059Z" fill="white"/>
</mask>
<g mask="url(#mask3)">
<path fill-rule="evenodd" clip-rule="evenodd" d="M89.2524 150.059C89.2524 150.059 90.7544 174.795 90.9416 175.512C91.1291 176.228 93.0771 176.64 93.4384 175.501C93.6677 174.779 94.2333 151.888 94.2333 151.888L89.2524 150.059Z" fill="url(#paint11_linear)"/>
</g>
<path fill-rule="evenodd" clip-rule="evenodd" d="M95.8093 176.396C95.7251 176.468 95.6788 176.573 95.6776 176.684C95.6742 177.024 95.6902 177.782 95.883 178.077C96.135 178.464 96.923 178.872 97.7478 178.425C98.4432 178.048 100.583 176.452 101.017 176.099C101.281 175.885 101.398 175.62 101.449 175.417C101.496 175.234 101.403 175.045 101.23 174.968C100.927 174.833 100.408 174.665 99.9441 174.82C99.2354 175.058 98.343 175.824 97.3781 175.783C96.6528 175.752 96.0595 176.18 95.8093 176.396Z" fill="#263764"/>
<mask id="mask4" mask-type="alpha" maskUnits="userSpaceOnUse" x="91" y="149" width="9" height="29">
<path fill-rule="evenodd" clip-rule="evenodd" d="M99.3038 150.326C99.1952 149.298 97.9623 148.964 96.8274 149.314C94.6608 149.198 91.3064 149.29 91.1888 150.968C91.0145 153.452 92.1817 155.225 93.3076 156.43C94.1396 157.321 94.693 159.026 94.9261 159.856C95.1231 166.417 95.5588 175.668 95.8306 176.553C96.2687 177.98 98.425 177.915 98.5226 176.526C98.9591 171.833 99.3038 150.326 99.3038 150.326Z" fill="white"/>
</mask>
<g mask="url(#mask4)">
<path fill-rule="evenodd" clip-rule="evenodd" d="M99.3038 150.326C99.1952 149.298 97.9623 148.964 96.8274 149.314C94.6608 149.198 91.3064 149.29 91.1888 150.968C91.0145 153.452 92.1817 155.225 93.3076 156.43C94.1396 157.321 94.693 159.026 94.9261 159.856C95.1231 166.417 95.5588 175.668 95.8306 176.553C96.2687 177.98 98.425 177.915 98.5226 176.526C98.9591 171.833 99.3038 150.326 99.3038 150.326Z" fill="url(#paint12_linear)"/>
</g>
<path fill-rule="evenodd" clip-rule="evenodd" d="M99.4938 150.887C99.2395 152.156 95.6141 152.79 93.4942 152.452C91.3742 152.114 89.0915 151.076 89.1666 148.623C89.1666 148.623 89.5693 142.759 89.4084 141.715C89.2475 140.67 88.8447 138.823 88.8447 136.895C88.8447 134.967 90.0601 133.54 90.0601 133.54C90.0601 133.54 91.2471 132.186 94.9783 132.948C94.9783 132.948 98.0184 133.609 99.4175 135.851C99.4175 135.851 100.384 138.314 100.061 143.455C99.7394 148.596 99.4938 150.887 99.4938 150.887Z" fill="black"/>
<path fill-rule="evenodd" clip-rule="evenodd" d="M91.8825 130.233C91.8825 130.233 92.2044 132.107 91.8825 132.965C91.8286 133.393 93.7071 134.839 95.3708 134.464C96.3365 134.25 96.2829 133.768 96.2829 133.768C96.2829 133.768 95.4778 132.429 95.5853 131.144C95.6927 129.858 93.0091 129.966 91.8825 130.233Z" fill="#E57447"/>
<path fill-rule="evenodd" clip-rule="evenodd" d="M98.0795 126.528C98.0795 128.969 96.097 130.946 93.6518 130.946C91.2065 130.946 89.2244 128.969 89.2244 126.528C89.2244 124.088 91.2065 122.11 93.6518 122.11C96.097 122.11 98.0795 124.088 98.0795 126.528Z" fill="#EC956D"/>
<path fill-rule="evenodd" clip-rule="evenodd" d="M98.3283 126.8C98.3283 126.8 98.3818 131.226 97.4158 132.119C96.4497 133.012 94.9671 131.283 92.5955 130.728C90.2243 130.12 94.5177 125.519 94.5177 125.519L98.3283 126.8Z" fill="#EC956D"/>
<path fill-rule="evenodd" clip-rule="evenodd" d="M108.133 133.309C108.133 133.309 107.712 131.582 107.852 131.442C107.993 131.302 108.554 132.049 108.554 132.049C108.554 132.049 108.835 130.275 109.069 130.088C109.303 129.902 110.238 130.835 110.378 131.348C110.519 131.862 109.817 133.916 109.537 133.963C109.256 134.009 108.274 134.149 108.133 133.309Z" fill="#EC956D"/>
<path fill-rule="evenodd" clip-rule="evenodd" d="M97.7688 135.355C97.7688 135.355 95.8041 136.288 96.646 138.715C97.4879 141.142 103.756 142.076 104.504 141.329C105.253 140.582 108.527 136.755 109.462 133.861C109.462 133.861 109.088 132.741 107.591 133.208C107.591 133.208 104.036 137.689 103.475 138.156C102.914 138.622 98.7041 135.168 97.7688 135.355Z" fill="black"/>
<path fill-rule="evenodd" clip-rule="evenodd" d="M89.9576 123.208C89.9576 123.208 91.337 121.526 93.7131 121.373C96.0893 121.22 97.2391 121.984 98.1588 121.908C99.0785 121.832 99.9219 122.596 99.6152 123.744C99.3085 124.891 98.6188 126.038 97.0857 126.038C95.5526 126.038 95.1696 125.809 95.1696 125.809C95.1696 125.809 96.396 126.344 96.5494 127.415C96.7027 128.486 96.7027 130.092 96.7027 130.092H96.3193C96.3193 130.092 96.0126 128.333 95.3992 128.333C94.7862 128.333 94.7862 130.245 95.3229 130.551C95.8593 130.857 95.8593 130.857 95.8593 130.857C95.8593 130.857 94.8302 132.76 94.2719 132.841C93.7131 132.922 91.8737 131.545 91.8737 131.545C91.8737 131.545 88.8075 130.092 88.5012 127.721C88.1945 125.35 89.9576 123.208 89.9576 123.208Z" fill="#733434"/>
<path fill-rule="evenodd" clip-rule="evenodd" d="M155.741 91.1216C155.697 91.1216 155.647 91.1073 155.594 91.077L148.386 86.9242C148.204 86.8196 148.058 86.5666 148.059 86.3594L148.075 80.678C148.075 80.5306 148.149 80.4458 148.257 80.4458C148.301 80.4458 148.351 80.4602 148.404 80.4909L155.613 84.6436C155.794 84.7478 155.94 85.0008 155.939 85.2088L155.923 90.8902C155.923 91.0368 155.849 91.1216 155.741 91.1216Z" fill="url(#paint13_linear)"/>
<path fill-rule="evenodd" clip-rule="evenodd" d="M158.399 101.349C158.354 101.349 158.305 101.334 158.252 101.304L151.043 97.1504C150.861 97.0462 150.715 96.7936 150.716 96.586L150.732 90.9045C150.733 90.7572 150.806 90.6724 150.914 90.6724C150.958 90.6724 151.008 90.6868 151.061 90.7174L158.27 94.8702C158.451 94.9747 158.597 95.2274 158.596 95.4353L158.58 101.117C158.58 101.264 158.506 101.349 158.399 101.349Z" fill="url(#paint14_linear)"/>
<defs>
<linearGradient id="paint0_linear" x1="33" y1="201.749" x2="213" y2="201.749" gradientUnits="userSpaceOnUse">
<stop stop-color="#CCD7C2"/>
<stop offset="1" stop-color="#ADE1E6"/>
</linearGradient>
<linearGradient id="paint1_linear" x1="54.7887" y1="7.48283" x2="0.278064" y2="157.25" gradientUnits="userSpaceOnUse">
<stop stop-color="#CCD7C2"/>
<stop offset="1" stop-color="#ADE1E6"/>
</linearGradient>
<linearGradient id="paint2_linear" x1="235.496" y1="83.1688" x2="93.1824" y2="1.00383" gradientUnits="userSpaceOnUse">
<stop stop-color="#CCD7C2"/>
<stop offset="1" stop-color="#ADE1E6"/>
</linearGradient>
<linearGradient id="paint3_linear" x1="87.658" y1="180.146" x2="143.611" y2="180.146" gradientUnits="userSpaceOnUse">
<stop stop-color="#CCD7C2"/>
<stop offset="1" stop-color="#ADE1E6"/>
</linearGradient>
<linearGradient id="paint4_linear" x1="80.1145" y1="97.4902" x2="80.1145" y2="104.388" gradientUnits="userSpaceOnUse">
<stop stop-color="#94E9B6"/>
<stop offset="1" stop-color="#5BCF7F"/>
</linearGradient>
<linearGradient id="paint5_linear" x1="82.0125" y1="103.929" x2="82.0125" y2="110.827" gradientUnits="userSpaceOnUse">
<stop stop-color="#385E72"/>
<stop offset="1" stop-color="#1A303E"/>
</linearGradient>
<linearGradient id="paint6_linear" x1="94.3127" y1="81.3445" x2="143.934" y2="81.3445" gradientUnits="userSpaceOnUse">
<stop stop-color="#385E72"/>
<stop offset="1" stop-color="#1A303E"/>
</linearGradient>
<linearGradient id="paint7_linear" x1="136.565" y1="165.996" x2="144.193" y2="165.996" gradientUnits="userSpaceOnUse">
<stop stop-color="#385E72"/>
<stop offset="1" stop-color="#1A303E"/>
</linearGradient>
<linearGradient id="paint8_linear" x1="92.3377" y1="47.9858" x2="92.3377" y2="163.321" gradientUnits="userSpaceOnUse">
<stop stop-color="#385E72"/>
<stop offset="0.600086" stop-color="#3F667D"/>
<stop offset="1" stop-color="#1A303E"/>
</linearGradient>
<linearGradient id="paint9_linear" x1="106.854" y1="118.445" x2="106.854" y2="131.057" gradientUnits="userSpaceOnUse">
<stop stop-color="#94E9B6"/>
<stop offset="1" stop-color="#5BCF7F"/>
</linearGradient>
<linearGradient id="paint10_linear" x1="83.6873" y1="184.168" x2="108.748" y2="184.168" gradientUnits="userSpaceOnUse">
<stop stop-color="#CCD7C2"/>
<stop offset="1" stop-color="#ADE1E6"/>
</linearGradient>
<linearGradient id="paint11_linear" x1="89.2524" y1="150.059" x2="89.2524" y2="176.21" gradientUnits="userSpaceOnUse">
<stop stop-color="#002C11"/>
<stop offset="1" stop-color="#3B8151"/>
</linearGradient>
<linearGradient id="paint12_linear" x1="91.1714" y1="149.18" x2="91.1714" y2="177.596" gradientUnits="userSpaceOnUse">
<stop stop-color="#002C11"/>
<stop offset="1" stop-color="#3B8151"/>
</linearGradient>
<linearGradient id="paint13_linear" x1="148.059" y1="80.4458" x2="148.059" y2="91.1216" gradientUnits="userSpaceOnUse">
<stop stop-color="#94E9B6"/>
<stop offset="1" stop-color="#5BCF7F"/>
</linearGradient>
<linearGradient id="paint14_linear" x1="150.716" y1="90.6724" x2="150.716" y2="101.349" gradientUnits="userSpaceOnUse">
<stop stop-color="#385E72"/>
<stop offset="1" stop-color="#1A303E"/>
</linearGradient>
</defs>
</svg>
