<svg width="62" height="62" viewBox="0 0 62 62" fill="none" xmlns="http://www.w3.org/2000/svg">
<rect x="0.5" y="0.5" width="61" height="61" fill="#F5F7F7" stroke="#D9DEE1"/>
<path d="M18.8203 31.5469V36H17.3203V24.625H21.5156C22.7604 24.625 23.7344 24.9427 24.4375 25.5781C25.1458 26.2135 25.5 27.0547 25.5 28.1016C25.5 29.2057 25.1536 30.0573 24.4609 30.6562C23.7734 31.25 22.7865 31.5469 21.5 31.5469H18.8203ZM18.8203 30.3203H21.5156C22.3177 30.3203 22.9323 30.1328 23.3594 29.7578C23.7865 29.3776 24 28.8307 24 28.1172C24 27.4401 23.7865 26.8984 23.3594 26.4922C22.9323 26.0859 22.3464 25.875 21.6016 25.8594H18.8203V30.3203ZM27.6141 36V24.625H30.825C31.8146 24.625 32.6896 24.8438 33.45 25.2812C34.2104 25.7188 34.7964 26.3411 35.2078 27.1484C35.6245 27.9557 35.8354 28.8828 35.8406 29.9297V30.6562C35.8406 31.7292 35.6323 32.6693 35.2156 33.4766C34.8042 34.2839 34.213 34.9036 33.4422 35.3359C32.6766 35.7682 31.7833 35.9896 30.7625 36H27.6141ZM29.1141 25.8594V34.7734H30.6922C31.8484 34.7734 32.7469 34.4141 33.3875 33.6953C34.0333 32.9766 34.3562 31.9531 34.3562 30.625V29.9609C34.3562 28.6693 34.0516 27.6667 33.4422 26.9531C32.838 26.2344 31.9786 25.8698 30.8641 25.8594H29.1141ZM44.5875 30.9766H39.8141V36H38.3141V24.625H45.3609V25.8594H39.8141V29.75H44.5875V30.9766Z" fill="#83959D"/>
</svg>