<svg width="30" height="30" viewBox="0 0 30 30" fill="none" xmlns="http://www.w3.org/2000/svg">
<rect width="30" height="30" fill="#F5F7F7"/>
<rect width="30" height="30" stroke="#D9DEE1"/>
<path d="M7.95801 15.3584V18H6.72266V10.8906H9.44238C10.2367 10.8906 10.8665 11.0973 11.332 11.5107C11.8008 11.9242 12.0352 12.471 12.0352 13.1514C12.0352 13.848 11.8057 14.39 11.3467 14.7773C10.891 15.1647 10.2513 15.3584 9.42773 15.3584H7.95801ZM7.95801 14.3672H9.44238C9.88184 14.3672 10.2171 14.2646 10.4482 14.0596C10.6794 13.8512 10.7949 13.5518 10.7949 13.1611C10.7949 12.777 10.6777 12.471 10.4434 12.2432C10.209 12.012 9.88672 11.8932 9.47656 11.8867H7.95801V14.3672ZM13.3191 18V10.8906H15.4187C16.047 10.8906 16.6036 11.0306 17.0887 11.3105C17.577 11.5905 17.9546 11.9876 18.2215 12.502C18.4884 13.0163 18.6219 13.6055 18.6219 14.2695V14.626C18.6219 15.2998 18.4868 15.8923 18.2166 16.4033C17.9497 16.9144 17.5672 17.3083 17.0691 17.585C16.5743 17.8617 16.0063 18 15.365 18H13.3191ZM14.5545 11.8867V17.0137H15.3602C16.0079 17.0137 16.5044 16.8118 16.8494 16.4082C17.1977 16.0013 17.3751 15.4186 17.3816 14.6602V14.2646C17.3816 13.4932 17.214 12.904 16.8787 12.4971C16.5434 12.0902 16.0568 11.8867 15.4187 11.8867H14.5545ZM24.149 14.9873H21.2877V18H20.0523V10.8906H24.5689V11.8867H21.2877V14.001H24.149V14.9873Z" fill="#83959D"/>
</svg>
