<svg width="18" height="18" viewBox="0 0 18 18" fill="none" xmlns="http://www.w3.org/2000/svg">
<g clip-path="url(#clip0)">
<path d="M15.7258 0.669389C14.831 -0.223211 13.3829 -0.223211 12.4884 0.669389L1.63356 11.5242C1.50139 11.6564 1.46294 11.8558 1.53644 12.0278L0.0690464 17.4221C0.0257666 17.581 0.0713713 17.7511 0.188334 17.8672C0.305475 17.9833 0.475912 18.0274 0.634545 17.9829L5.98818 16.4781C6.15969 16.5502 6.35767 16.5112 6.48911 16.3798L17.3439 5.52495C18.2378 4.63092 18.2378 3.18158 17.3439 2.28755L15.7258 0.669389ZM11.8524 2.59999L15.3938 6.18005L6.16523 15.4085L2.60467 11.8479L11.8524 2.59999ZM2.27238 12.8106L5.20807 15.7461L1.16463 16.8828L2.27238 12.8106ZM16.6963 4.87754L16.0414 5.53246L12.5 1.95258L13.1358 1.31698C13.6727 0.781344 14.5415 0.781344 15.0784 1.31698L16.6965 2.93514C17.232 3.47184 17.232 4.34084 16.6963 4.87754Z" fill="#004164"/>
</g>
<defs>
<clipPath id="clip0">
<rect width="18" height="18" fill="white"/>
</clipPath>
</defs>
</svg>
