<svg width="60" height="61" viewBox="0 0 60 61" fill="none" xmlns="http://www.w3.org/2000/svg">
<g clip-path="url(#clip0)">
<path d="M41.695 30.9614C41.6922 33.6732 41.8416 36.383 42.1425 39.0782H13.7289C12.3248 39.0782 11.1865 37.9425 11.1865 36.5417C11.1865 35.1408 12.3248 34.0052 13.7289 34.0052H36.6103V31.0121C36.6103 30.657 36.7933 25.8884 36.7933 25.8884C37.3323 18.1674 39.1119 11.2275 41.8272 6.14443C42.4947 4.93189 43.9019 4.32601 45.2441 4.67326L47.3289 5.19071C44.3696 10.3854 42.4374 17.7007 41.878 25.8884C41.878 25.8884 41.695 30.6164 41.695 30.9614Z" fill="#F2A149"/>
<path d="M14.2374 27.9166C21.5388 27.9166 27.4578 22.0113 27.4578 14.7268C27.4578 7.44235 21.5388 1.53711 14.2374 1.53711C6.93604 1.53711 1.01709 7.44235 1.01709 14.7268C1.01709 22.0113 6.93604 27.9166 14.2374 27.9166Z" fill="#FDCD56"/>
<path d="M26.4404 27.918H30.5082V41.1077H26.4404V27.918Z" fill="#937661"/>
<path d="M44.7457 43.1365H17.2881C17.5616 41.8175 17.7966 40.4681 17.9786 39.0781H44.043C44.2372 40.4681 44.46 41.8175 44.7457 43.1365Z" fill="#A38671"/>
<path d="M20.3389 28.9316V30.9608C20.3389 31.9856 20.3185 33.0002 20.2677 34.0046C20.2067 35.7294 20.0745 37.4339 19.8813 39.0776C19.7287 40.4676 19.5253 41.817 19.2914 43.136C18.6276 47.1068 17.4482 50.9745 15.7829 54.6415C15.0695 55.2308 14.1317 55.4759 13.2202 55.3111C12.3884 55.0828 11.1863 54.2965 11.827 53.5051C13.932 48.9457 15.2686 44.0711 15.7829 39.0776C15.9863 37.4238 16.1287 35.7396 16.1999 34.0046C16.2507 33.0002 16.2711 31.9856 16.2711 30.9608V28.9316H20.3389Z" fill="#937661"/>
<path d="M43.7289 25.8887C43.6272 27.2178 43.5764 28.5672 43.556 29.9471H13.2204C12.3785 29.9381 11.6262 29.4203 11.3187 28.6382C11.2329 28.4076 11.1882 28.1638 11.1865 27.9179C11.1861 27.8022 11.1964 27.6867 11.217 27.5729C11.2757 27.225 11.4267 26.8992 11.6543 26.6293C12.0407 26.1633 12.6142 25.892 13.2204 25.8887H43.7289Z" fill="#A38671"/>
<path d="M52.444 4.82507C48.3254 10.0604 45.7627 20.0744 45.7627 30.961C45.7627 39.5546 47.3593 47.6105 50.0542 53.1908C50.8474 54.2967 49.2366 55.1702 48.8135 55.3113C47.8254 55.6084 46.757 55.2504 46.1491 54.4184C44.5391 50.8168 43.3943 47.0257 42.7423 43.1361C42.4982 41.8172 42.305 40.4678 42.1423 39.0778C41.8415 36.3826 41.6921 33.6728 41.6949 30.961C41.6949 30.6161 41.6949 30.2812 41.705 29.9464C41.7254 28.5666 41.7762 27.2172 41.8779 25.888C42.4372 17.7003 44.3694 10.385 47.3288 5.19032C47.8957 4.18288 48.5382 3.21965 49.2508 2.30887C49.7013 1.73978 50.4219 1.45371 51.1412 1.55842C51.8604 1.66313 52.469 2.14271 52.7378 2.81652C53.0065 3.49032 52.8945 4.25597 52.444 4.82507Z" fill="#937661"/>
<path d="M60.0003 51.2527C60.0024 51.8741 59.7173 52.4617 59.2274 52.8456C53.1969 57.5634 42.4681 60.384 30.5088 60.384C18.5495 60.384 7.82066 57.5634 1.79016 52.8456C1.21974 52.3961 0.933007 51.6772 1.03796 50.9596C1.14291 50.242 1.62361 49.6348 2.29898 49.3667C2.97434 49.0986 3.74178 49.2103 4.31219 49.6598C6.5878 51.3459 9.12711 52.6452 11.8274 53.5051C13.0681 53.9312 14.4003 54.3167 15.7834 54.6414C20.6065 55.7894 25.5504 56.3548 30.5088 56.3256C35.7826 56.3581 41.0388 55.7171 46.1495 54.4182C47.4718 54.0772 48.7752 53.6675 50.0546 53.1905C52.4402 52.3615 54.6834 51.1706 56.7054 49.6598C57.3172 49.1774 58.1516 49.0865 58.8533 49.4258C59.5551 49.765 60.0006 50.4747 60.0003 51.2527Z" fill="#A38671"/>
<path d="M22.7803 7.09961H19.3232C19.9482 7.89062 20.3438 8.85742 20.5098 10H23.4541L22.7803 12.3145H20.5537C20.3779 14.0527 19.6895 15.3613 18.4883 16.2402C17.2871 17.1191 15.6172 17.5586 13.4785 17.5586L20.7002 25.9375V26.1133H17.375L9.61133 17.0752L9.59668 15.2441H13.2441C14.4648 15.2344 15.4561 14.9707 16.2178 14.4531C16.9795 13.9258 17.4629 13.2129 17.668 12.3145H9.18652L9.86035 10H17.6387C17.1699 8.14453 15.7344 7.17773 13.332 7.09961H9.21582L9.9043 4.78516H23.4541L22.7803 7.09961Z" fill="#FAB153"/>
<path d="M28.4745 14.7286C28.474 19.0847 26.4682 23.1992 23.0338 25.8891H19.1186C24.6239 23.4919 27.562 17.4541 26.0449 11.6555C24.5278 5.85688 19.0067 2.02204 13.0294 2.61514C7.05205 3.20824 2.39622 8.05288 2.05359 14.036C1.71097 20.0192 5.78345 25.3614 11.6542 26.6298C11.1827 27.1879 11.054 27.9582 11.3186 28.6387C3.99539 27.1084 -0.891051 20.1839 0.134262 12.7895C1.15958 5.39519 7.74676 0.054275 15.2113 0.565005C22.6759 1.07573 28.4706 7.26383 28.4745 14.7286Z" fill="#FAB153"/>
</g>
<defs>
<clipPath id="clip0">
<rect width="60" height="59.8611" fill="white" transform="translate(0 0.525391)"/>
</clipPath>
</defs>
</svg>
