<svg width="100" height="100" viewBox="0 0 100 100" fill="none" xmlns="http://www.w3.org/2000/svg">
<path d="M90.6251 15.625C90.7033 15.625 51.0158 0.390579 50.0001 0C49.219 0.312424 9.29696 15.625 9.37511 15.625V44.3749C9.37511 64.2968 15.0783 90.3125 50.0001 99.9998C84.8438 90.3123 90.547 63.8279 90.547 44.3749C90.6251 34.5313 90.6251 15.625 90.6251 15.625Z" fill="#D9DEE1"/>
<path d="M9.37476 44.3751C9.37476 64.297 15.0779 90.3127 49.9998 100V0C48.5154 0.54689 9.37476 15.625 9.37476 15.625C9.37476 15.625 9.37495 44.3751 9.37476 44.3751Z" fill="#BCC6CA"/>
<path d="M82.7339 21.0156C82.812 21.0156 50.7808 8.12492 49.9214 7.8125C49.2182 8.04697 17.0309 20.4687 17.109 20.3906V44.5311C17.109 61.2498 20.3904 84.0623 49.9214 92.1873C79.3746 84.0623 82.7339 60.8593 82.7339 44.5311C82.812 36.25 82.812 21.0156 82.7339 21.0156Z" fill="#008FFF"/>
<path d="M49.9996 7.8125C49.2964 8.04697 17.109 20.4687 17.1872 20.3906V44.5311C17.1872 61.2498 20.4685 84.0623 49.9996 92.1873V7.8125Z" fill="#008FFF"/>
<path d="M69.3333 66.9976H30.6667C30.2985 66.9976 30 67.2961 30 67.6642C30 68.0324 30.2985 68.3309 30.6667 68.3309H69.3333C69.7015 68.3309 70 68.0324 70 67.6642C70 67.2961 69.7015 66.9976 69.3333 66.9976Z" fill="white"/>
<path d="M41.7829 60.3168C41.7045 60.0752 41.4956 59.8991 41.2442 59.8628L39.3522 59.5881L38.5069 57.8741C38.3437 57.5441 37.944 57.4087 37.6139 57.5718C37.4826 57.6366 37.3765 57.7429 37.3115 57.8741L36.4669 59.5881L34.5735 59.8641C34.2095 59.919 33.9588 60.2586 34.0136 60.6227C34.035 60.7649 34.1019 60.8964 34.2041 60.9975L35.5728 62.3308L35.2502 64.2148C35.1882 64.5777 35.4322 64.9222 35.7951 64.9841C35.9392 65.0087 36.0874 64.9853 36.2169 64.9175L37.9089 64.0281L39.6002 64.9208C39.9261 65.0921 40.3292 64.9669 40.5006 64.641C40.5688 64.5112 40.5923 64.3626 40.5676 64.2181L40.2442 62.3341L41.6136 61.0008C41.7957 60.8237 41.8614 60.5585 41.7829 60.3168ZM39.0669 61.6235C38.9097 61.7768 38.8381 61.9977 38.8756 62.2141L39.0289 63.1121L38.2222 62.6881C38.0283 62.5864 37.7968 62.5864 37.6029 62.6881L36.7962 63.1121L36.9495 62.2141C36.987 61.9977 36.9154 61.7768 36.7582 61.6235L36.1055 60.9881L37.0069 60.8548C37.224 60.8233 37.4118 60.6869 37.5089 60.4901L37.9122 59.6728L38.3155 60.4895C38.4125 60.6865 38.6003 60.8231 38.8176 60.8548L39.7189 60.9881L39.0669 61.6235Z" fill="white"/>
<path d="M63.2557 49.0441L56.4744 42.2641C56.214 42.0039 55.792 42.0039 55.5317 42.2641L50.667 47.1248L46.2124 42.6701C49.153 42.2311 51.3304 39.7074 51.3337 36.7341V36.6201C51.3337 35.5156 50.4383 34.6201 49.3337 34.6201C48.2291 34.6201 47.3337 35.5156 47.3337 36.6201C47.3322 37.7873 46.3862 38.7331 45.219 38.7341C44.0481 38.7365 42.8867 38.9433 41.787 39.3455C42.4952 37.2529 41.3729 34.9825 39.2803 34.2744C37.1877 33.5663 34.9173 34.6886 34.2092 36.7811C33.5011 38.8737 34.6234 41.1441 36.716 41.8522C37.0463 41.964 37.3898 42.0321 37.7377 42.0548L37.5337 42.2641C34.6963 45.1019 34.6963 49.7024 37.5337 52.5401L37.7864 52.7928C38.6015 53.6028 39.9189 53.5987 40.7289 52.7836C41.1155 52.3946 41.3329 51.8686 41.3337 51.3201C41.3353 50.768 41.1159 50.2381 40.7244 49.8488L40.4717 49.5961C39.4436 48.5646 39.2688 46.9579 40.051 45.7295L49.323 54.9975H44.0004C43.6322 54.9975 43.3337 55.296 43.3337 55.6641C43.3337 56.0323 43.6322 56.3308 44.0004 56.3308H50.6537L51.3337 57.0108V62.9975C51.3345 63.4659 51.459 63.9258 51.6944 64.3308H47.3337C46.9655 64.3308 46.667 64.6293 46.667 64.9975C46.667 65.3656 46.9655 65.6641 47.3337 65.6641H53.9824H54.0004C55.4731 65.6641 56.667 64.4702 56.667 62.9975V54.7308C56.667 54.554 56.5967 54.3845 56.4717 54.2595L53.6097 51.3975L56.0004 49.0108L59.6464 52.6535C60.643 53.6501 62.259 53.6501 63.2557 52.6535C64.2524 51.6568 64.2524 50.0408 63.2557 49.0441ZM35.3337 38.0675C35.3337 36.5947 36.5276 35.4008 38.0004 35.4008C39.4731 35.4008 40.667 36.5947 40.667 38.0675C40.667 39.5402 39.4731 40.7341 38.0004 40.7341C36.5276 40.7341 35.3337 39.5402 35.3337 38.0675ZM62.302 51.7111C62.0755 51.9356 61.77 52.0622 61.451 52.0641C61.128 52.0633 60.8182 51.9351 60.589 51.7074L56.4744 47.5974C56.214 47.3371 55.792 47.3371 55.5317 47.5974L52.2004 50.9307C51.9401 51.1911 51.9401 51.6131 52.2004 51.8734L55.3337 55.0108V62.9975C55.3337 63.7339 54.7368 64.3308 54.0004 64.3308C53.264 64.3308 52.667 63.7339 52.667 62.9975V56.7308C52.667 56.554 52.5967 56.3845 52.4717 56.2595L40.4717 44.2595C40.2114 43.9992 39.7894 43.9992 39.529 44.2595C37.7983 45.9935 37.7983 48.8015 39.529 50.5355L39.7817 50.7881C40.0737 51.0799 40.0739 51.5531 39.7821 51.8451C39.6419 51.9855 39.4515 52.0643 39.253 52.0641C39.0549 52.0636 38.865 51.9851 38.7244 51.8455L38.4717 51.5928C36.1548 49.2757 36.1548 45.5192 38.4717 43.2021L39.0577 42.6168C40.6881 40.9772 42.9068 40.058 45.219 40.0641C47.121 40.0623 48.663 38.5221 48.667 36.6201C48.667 36.252 48.9655 35.9535 49.3337 35.9535C49.7019 35.9535 50.0004 36.252 50.0004 36.6201V36.7341C49.9975 39.3102 47.9098 41.3979 45.3337 41.4008C44.9655 41.4008 44.667 41.6993 44.667 42.0675V42.7341C44.667 42.911 44.7374 43.0805 44.8624 43.2055L50.1957 48.5388C50.456 48.7991 50.878 48.7991 51.1384 48.5388L56.0004 43.6775L62.3104 49.9868C62.7842 50.4653 62.7805 51.2373 62.302 51.7111Z" fill="white"/>
<path d="M44.6665 64.3308H43.3332C42.965 64.3308 42.6665 64.6293 42.6665 64.9975C42.6665 65.3656 42.965 65.6641 43.3332 65.6641H44.6665C45.0347 65.6641 45.3332 65.3656 45.3332 64.9975C45.3332 64.6293 45.0347 64.3308 44.6665 64.3308Z" fill="white"/>
<path d="M41.3333 54.9976H39.9999C39.6318 54.9976 39.3333 55.2961 39.3333 55.6642C39.3333 56.0324 39.6318 56.3309 39.9999 56.3309H41.3333C41.7014 56.3309 41.9999 56.0324 41.9999 55.6642C41.9999 55.2961 41.7014 54.9976 41.3333 54.9976Z" fill="white"/>
<path d="M69.3334 32.602C69.2886 32.602 69.2438 32.6065 69.1999 32.6155H69.2046C67.8661 32.8858 66.4749 32.6436 65.3066 31.9369L65.0139 31.7602C64.9955 31.751 64.9766 31.7428 64.9573 31.7355C64.9379 31.7262 64.9186 31.7182 64.8986 31.7102C64.7506 31.6555 64.5879 31.6555 64.4399 31.7102C64.4199 31.7182 64.4006 31.7262 64.3812 31.7355C64.3619 31.7428 64.3431 31.751 64.3246 31.7602L64.0319 31.9369C62.8635 32.644 61.4719 32.8863 60.1333 32.6155C59.7725 32.5419 59.4203 32.7746 59.3468 33.1354C59.3378 33.1793 59.3333 33.224 59.3333 33.2689V39.9822C59.3333 40.9279 59.5889 41.8559 60.0733 42.6682C60.6326 43.6105 61.4768 44.351 62.4839 44.7829L64.4026 45.6095C64.5698 45.6815 64.7593 45.6815 64.9266 45.6095L66.8459 44.7829C67.8531 44.351 68.6972 43.6105 69.2566 42.6682C69.7421 41.8563 69.9989 40.9282 69.9999 39.9822V33.2689C70 32.9007 69.7016 32.6021 69.3334 32.602ZM64.0026 43.9835L63.0139 43.5575C62.2648 43.2364 61.6368 42.6857 61.2206 41.9849C60.8602 41.3799 60.6697 40.689 60.6693 39.9849V34.0349C61.812 34.1258 62.959 33.9246 64.0026 33.4502V43.9835ZM68.1179 41.9849C67.7018 42.6859 67.0738 43.2369 66.3246 43.5582L65.3333 43.9842V33.4502C66.3768 33.9245 67.5238 34.1258 68.6666 34.0349L68.6693 39.9849C68.6688 40.689 68.4783 41.3799 68.1179 41.9849Z" fill="white"/>
</svg>
