<svg width="40" height="40" viewBox="0 0 40 40" fill="none" xmlns="http://www.w3.org/2000/svg">
<path d="M36.2501 6.24998C36.2814 6.24998 20.4063 0.156232 20.0001 0C19.6876 0.12497 3.71881 6.24998 3.75008 6.24998V17.75C3.75008 25.7187 6.03135 36.125 20.0001 39.9999C33.9376 36.1249 36.2188 25.5312 36.2188 17.75C36.2501 13.8125 36.2501 6.24998 36.2501 6.24998Z" fill="#D9DEE1"/>
<path d="M3.74989 17.75C3.74989 25.7188 6.03115 36.1251 19.9999 40V0C19.4061 0.218756 3.74989 6.24998 3.74989 6.24998C3.74989 6.24998 3.74996 17.75 3.74989 17.75Z" fill="#BCC6CA"/>
<path d="M33.0936 8.40625C33.1248 8.40625 20.3123 3.24997 19.9686 3.125C19.6873 3.21879 6.81237 8.18749 6.84363 8.15623V17.8124C6.84363 24.4999 8.15617 33.6249 19.9686 36.8749C31.7498 33.6249 33.0936 24.3437 33.0936 17.8124C33.1248 14.5 33.1248 8.40625 33.0936 8.40625Z" fill="#008FFF"/>
<path d="M19.9999 3.125C19.7186 3.21879 6.84363 8.18749 6.8749 8.15623V17.8124C6.8749 24.4999 8.18743 33.6249 19.9999 36.8749V3.125Z" fill="#008FFF"/>
<g clip-path="url(#clip0)">
<path d="M25.9108 11.8028H24.5972C24.4517 11.8028 24.3336 11.9209 24.3336 12.0664C24.3336 12.2121 24.4517 12.3301 24.5972 12.3301H24.7602V26.8895H14.9169V12.3301H16.0142V12.9291C16.0142 13.3882 16.3877 13.7617 16.8468 13.7617H18.0934C18.218 14.4497 18.8216 14.973 19.5447 14.973H20.1322C20.8553 14.973 21.4588 14.4497 21.5835 13.7617H22.83C23.2892 13.7617 23.6628 13.3881 23.6628 12.9291V11.7912C23.6628 11.332 23.2892 10.9585 22.8301 10.9585H16.8468C16.3877 10.9585 16.0142 11.332 16.0142 11.7912V11.8028H13.7662C13.1863 11.8028 12.7146 12.2746 12.7146 12.8543V23.4389C12.7146 23.5846 12.8326 23.7025 12.9783 23.7025C13.1238 23.7025 13.2419 23.5846 13.2419 23.4389V12.8543C13.2419 12.5653 13.4773 12.3301 13.7662 12.3301H14.3894V27.1529C14.3894 27.2986 14.5076 27.4166 14.6531 27.4166H25.0239C25.1696 27.4166 25.2875 27.2986 25.2875 27.1529V12.3301H25.9108C26.1998 12.3301 26.4349 12.5653 26.4349 12.8543V27.9068C26.4349 28.1959 26.1998 28.4312 25.9108 28.4312H13.7662C13.4773 28.4312 13.2419 28.1959 13.2419 27.9068V24.6817C13.2419 24.5362 13.1238 24.418 12.9783 24.418C12.8326 24.418 12.7146 24.5362 12.7146 24.6817V27.9068C12.7146 28.4867 13.1863 28.9585 13.7662 28.9585H25.9108C26.4906 28.9585 26.9622 28.4867 26.9622 27.9068V12.8543C26.9622 12.2746 26.4906 11.8028 25.9108 11.8028ZM16.5416 11.7912C16.5416 11.6228 16.6785 11.4859 16.8468 11.4859H22.8301C22.9984 11.4859 23.1353 11.6228 23.1353 11.7912V12.9291C23.1353 13.0974 22.9984 13.2343 22.8301 13.2343H21.3436C21.1979 13.2343 21.0799 13.3524 21.0799 13.498C21.0799 14.0206 20.6547 14.4457 20.1322 14.4457H19.5447C19.0222 14.4457 18.5971 14.0206 18.5971 13.498C18.5971 13.3524 18.479 13.2343 18.3334 13.2343H16.8468C16.6785 13.2343 16.5416 13.0974 16.5416 12.9291V11.7912Z" fill="white"/>
<path d="M23.1969 18.173H21.8027L20.9116 15.7398C20.8232 15.4979 20.4723 15.5143 20.4086 15.7655L19.4515 19.5341L18.5275 16.846C18.4536 16.6311 18.1595 16.6044 18.0482 16.8027L17.2794 18.1731H16.4796C16.3338 18.1731 16.2159 18.2911 16.2159 18.4368C16.2159 18.5824 16.3338 18.7005 16.4796 18.7005H17.4339C17.5293 18.7005 17.6172 18.6489 17.6639 18.5657L18.2201 17.574L19.2401 20.5412C19.325 20.7883 19.6808 20.7737 19.745 20.5204L20.7098 16.722L21.3709 18.5274C21.4089 18.6312 21.5077 18.7003 21.6185 18.7003H23.1968C23.3425 18.7003 23.4605 18.5824 23.4605 18.4367C23.4605 18.2911 23.3425 18.173 23.1969 18.173Z" fill="white"/>
<path d="M23.1969 22.521H16.4796C16.3339 22.521 16.2159 22.639 16.2159 22.7847C16.2159 22.9303 16.3339 23.0483 16.4796 23.0483H23.1969C23.3425 23.0483 23.4606 22.9303 23.4606 22.7847C23.4606 22.639 23.3425 22.521 23.1969 22.521Z" fill="white"/>
<path d="M23.1969 24.8442H16.4796C16.3339 24.8442 16.2159 24.9623 16.2159 25.1079C16.2159 25.2535 16.3339 25.3716 16.4796 25.3716H23.1969C23.3425 25.3716 23.4606 25.2535 23.4606 25.1079C23.4606 24.9623 23.3425 24.8442 23.1969 24.8442Z" fill="white"/>
</g>
<defs>
<clipPath id="clip0">
<rect x="10.4" y="10.3999" width="19.2" height="19.2" fill="white"/>
</clipPath>
</defs>
</svg>
