<svg width="40" height="40" viewBox="0 0 40 40" fill="none" xmlns="http://www.w3.org/2000/svg">
<path d="M36.2501 6.24998C36.2813 6.24998 20.4063 0.156232 20.0001 0C19.6876 0.12497 3.7188 6.24998 3.75006 6.24998V17.75C3.75006 25.7187 6.03133 36.125 20.0001 39.9999C33.9375 36.1249 36.2188 25.5312 36.2188 17.75C36.2501 13.8125 36.2501 6.24998 36.2501 6.24998Z" fill="#D9DEE1"/>
<path d="M3.7499 17.75C3.7499 25.7188 6.03117 36.1251 19.9999 40V0C19.4062 0.218756 3.7499 6.24998 3.7499 6.24998C3.7499 6.24998 3.74998 17.75 3.7499 17.75Z" fill="#BCC6CA"/>
<path d="M33.0936 8.40625C33.1248 8.40625 20.3123 3.24997 19.9686 3.125C19.6873 3.21879 6.81235 8.18749 6.84362 8.15623V17.8124C6.84362 24.4999 8.15615 33.6249 19.9686 36.8749C31.7498 33.6249 33.0936 24.3437 33.0936 17.8124C33.1248 14.5 33.1248 8.40625 33.0936 8.40625Z" fill="#008FFF"/>
<path d="M19.9999 3.125C19.7186 3.21879 6.84363 8.18749 6.8749 8.15623V17.8124C6.8749 24.4999 8.18743 33.6249 19.9999 36.8749V3.125Z" fill="#008FFF"/>
<g clip-path="url(#clip0)">
<g clip-path="url(#clip1)">
<path d="M28.472 16.8104C28.2238 14.0791 26.2906 12.0975 23.8713 12.0975C22.2594 12.0975 20.7836 12.9649 19.9532 14.355C19.1303 12.9469 17.7149 12.0972 16.1289 12.0972C13.7099 12.0972 11.7764 14.0788 11.5285 16.81C11.5089 16.9307 11.4285 17.5656 11.6731 18.601C12.0255 20.0945 12.8396 21.4529 14.0267 22.5286L19.9493 27.9032L25.9735 22.5289C27.1606 21.4529 27.9747 20.0948 28.3272 18.601C28.5717 17.5659 28.4913 16.931 28.472 16.8104ZM27.6906 18.4513C27.3689 19.8153 26.6231 21.058 25.536 22.0427L19.9532 27.0237L14.4661 22.0441C13.3771 21.0573 12.6317 19.815 12.3096 18.451C12.0781 17.4711 12.1733 16.9176 12.1736 16.914L12.1785 16.881C12.391 14.4881 14.0522 12.7511 16.1289 12.7511C17.6613 12.7511 19.0103 13.6926 19.6504 15.208L19.9516 15.9217L20.2527 15.208C20.8827 13.7159 22.3029 12.7514 23.8716 12.7514C25.948 12.7514 27.6095 14.4884 27.8263 16.9124C27.8269 16.9176 27.9221 17.4714 27.6906 18.4513Z" fill="white"/>
</g>
</g>
<defs>
<clipPath id="clip0">
<rect x="9.28579" y="9.28564" width="21.4286" height="21.4286" fill="white"/>
</clipPath>
<clipPath id="clip1">
<rect x="11.5" y="11.5" width="17" height="17" fill="white"/>
</clipPath>
</defs>
</svg>
