<svg width="40" height="40" viewBox="0 0 40 40" fill="none" xmlns="http://www.w3.org/2000/svg">
<path d="M36.2501 6.24998C36.2814 6.24998 20.4063 0.156232 20.0001 0C19.6876 0.12497 3.71881 6.24998 3.75008 6.24998V17.75C3.75008 25.7187 6.03135 36.125 20.0001 39.9999C33.9376 36.1249 36.2188 25.5312 36.2188 17.75C36.2501 13.8125 36.2501 6.24998 36.2501 6.24998Z" fill="#D9DEE1"/>
<path d="M3.74989 17.75C3.74989 25.7188 6.03115 36.1251 19.9999 40V0C19.4061 0.218756 3.74989 6.24998 3.74989 6.24998C3.74989 6.24998 3.74996 17.75 3.74989 17.75Z" fill="#BCC6CA"/>
<path d="M33.0936 8.40625C33.1248 8.40625 20.3123 3.24997 19.9686 3.125C19.6873 3.21879 6.81237 8.18749 6.84363 8.15623V17.8124C6.84363 24.4999 8.15617 33.6249 19.9686 36.8749C31.7498 33.6249 33.0936 24.3437 33.0936 17.8124C33.1248 14.5 33.1248 8.40625 33.0936 8.40625Z" fill="#008FFF"/>
<path d="M19.9999 3.125C19.7186 3.21879 6.84363 8.18749 6.8749 8.15623V17.8124C6.8749 24.4999 8.18743 33.6249 19.9999 36.8749V3.125Z" fill="#008FFF"/>
<path d="M20.5884 20.7911C21.2396 20.4808 21.4521 19.5683 21.0651 18.7575C20.6774 17.9441 19.8347 17.5347 19.1836 17.845C18.5324 18.1553 18.3199 19.0678 18.7076 19.8813C19.0953 20.6934 19.9379 21.1028 20.5884 20.7911Z" fill="white"/>
<path d="M22.5399 15.937C23.166 19.8555 20.3773 22.7929 20.3773 22.7929C20.3773 22.7929 18.0782 18.9029 14.212 17.7289C21.7326 23.2281 17.4522 30.084 17.4522 30.084H19.6291C19.6297 30.084 24.6897 21.3514 22.5399 15.937Z" fill="white"/>
<path d="M18.2955 16.3848C18.2534 16.3224 18.2107 16.2558 18.1679 16.1825C17.969 15.8389 17.878 15.5198 17.878 15.5198C17.878 15.5198 18.1075 15.7602 18.3064 16.1017C18.3478 16.1744 18.3838 16.2457 18.4171 16.3136C18.4483 16.1499 18.485 15.8138 18.3261 15.5368C18.1068 15.1572 17.6016 15.0391 17.6016 15.0391C17.6016 15.0391 17.4509 15.5361 17.6702 15.9163C17.8291 16.1934 18.1387 16.3298 18.2955 16.3848Z" fill="white"/>
<path d="M23.2882 19.2671C23.4144 19.3757 23.6874 19.5753 24.0059 19.5753C24.4445 19.5753 24.7989 19.1958 24.7989 19.1958C24.7989 19.1958 24.4452 18.8169 24.0059 18.8169C23.6874 18.8169 23.4144 19.0165 23.2882 19.1252C23.3635 19.1197 23.4423 19.1157 23.5272 19.1157C23.9237 19.1157 24.2476 19.1944 24.2476 19.1944C24.2476 19.1944 23.9237 19.2745 23.5272 19.2739C23.4416 19.2773 23.3635 19.2725 23.2882 19.2671Z" fill="white"/>
<path d="M21.6953 16.1027C21.8929 15.7591 22.1238 15.5194 22.1238 15.5194C22.1238 15.5194 22.0321 15.8399 21.8332 16.1835C21.7911 16.2554 21.7483 16.3233 21.7048 16.3858C21.8637 16.3308 22.1727 16.1937 22.3309 15.9187C22.5509 15.5377 22.4015 15.04 22.4015 15.04C22.4015 15.04 21.895 15.1602 21.6763 15.5384C21.5174 15.8141 21.5527 16.1495 21.5847 16.3152C21.6159 16.2466 21.6526 16.1753 21.6953 16.1027Z" fill="white"/>
<path d="M19.8232 14.0346C19.8232 13.1512 20.0004 12.4362 20.0004 12.4362C20.0004 12.4362 20.1783 13.1525 20.1783 14.0346C20.1783 14.2213 20.1695 14.3978 20.1559 14.5649C20.399 14.2844 20.8424 13.6767 20.8424 12.9678C20.8424 11.9928 20.0004 11.2031 20.0004 11.2031C20.0004 11.2031 19.1584 11.9928 19.1584 12.9678C19.1584 13.6767 19.6018 14.2837 19.8442 14.5649C19.832 14.3978 19.8232 14.222 19.8232 14.0346Z" fill="white"/>
<path d="M14.1861 16.8119C14.8006 17.1663 15.5475 17.0855 15.9121 17.0156C15.7614 16.9449 15.6032 16.8621 15.4423 16.7698C14.6777 16.3291 14.1467 15.8178 14.1467 15.8178C14.1467 15.8178 14.8549 16.0215 15.6195 16.4629C15.7811 16.5566 15.9298 16.6516 16.0683 16.7474C15.9475 16.3956 15.6439 15.7085 15.0288 15.354C14.1854 14.8658 13.08 15.1999 13.08 15.1999C13.08 15.1999 13.3421 16.325 14.1861 16.8119Z" fill="white"/>
<path d="M25.8139 21.5802C25.2001 21.2264 24.4532 21.3058 24.0886 21.3758C24.24 21.4471 24.3975 21.5299 24.5591 21.6223C25.323 22.0636 25.8547 22.5742 25.8547 22.5742C25.8547 22.5742 25.1465 22.3712 24.3812 21.9298C24.2196 21.8355 24.0709 21.7404 23.9331 21.6447C24.054 21.9964 24.3575 22.6829 24.9713 23.0373C25.8146 23.5255 26.9207 23.1914 26.9207 23.1914C26.9207 23.1914 26.6573 22.067 25.8139 21.5802Z" fill="white"/>
<path d="M16.067 21.6469C15.9285 21.7413 15.7805 21.8364 15.6189 21.9308C14.8543 22.3708 14.1454 22.5765 14.1454 22.5765C14.1454 22.5765 14.6764 22.0645 15.441 21.6232C15.6033 21.5288 15.7608 21.4493 15.9115 21.3767C15.5476 21.3061 14.7993 21.2253 14.1855 21.5811C13.3415 22.0679 13.078 23.1923 13.078 23.1923C13.078 23.1923 14.1835 23.5264 15.0275 23.0396C15.6426 22.6838 15.9461 21.9973 16.067 21.6469Z" fill="white"/>
<path d="M23.9338 16.7442C24.0717 16.6499 24.2204 16.5548 24.3833 16.4611C25.1472 16.0197 25.8554 15.816 25.8554 15.816C25.8554 15.816 25.3251 16.3273 24.5599 16.768C24.3983 16.8617 24.24 16.9432 24.0907 17.0138C24.4539 17.0844 25.2022 17.1659 25.8146 16.8101C26.6593 16.3226 26.9221 15.1982 26.9221 15.1982C26.9221 15.1982 25.8174 14.8648 24.974 15.3523C24.3582 15.7067 24.054 16.3939 23.9338 16.7442Z" fill="white"/>
<path d="M16.7147 13.9236C16.5884 13.7382 16.46 13.5386 16.3344 13.3213C15.7423 12.2974 15.4687 11.3468 15.4687 11.3468C15.4687 11.3468 16.1545 12.0584 16.7459 13.085C16.8715 13.3009 16.9795 13.5121 17.0759 13.7151C17.171 13.2269 17.2789 12.2254 16.8036 11.4025C16.1504 10.2706 14.643 9.91748 14.643 9.91748C14.643 9.91748 14.1956 11.3991 14.8488 12.5303C15.3241 13.3539 16.2462 13.7606 16.7147 13.9236Z" fill="white"/>
<path d="M23.2868 24.4688C23.4131 24.6541 23.5428 24.8531 23.6677 25.0697C24.2605 26.0977 24.5334 27.0456 24.5334 27.0456C24.5334 27.0456 23.8477 26.3333 23.2549 25.308C23.13 25.0907 23.0213 24.8795 22.9249 24.6779C22.8319 25.1661 22.7232 26.1656 23.1979 26.9892C23.8517 28.1204 25.3584 28.4749 25.3584 28.4749C25.3584 28.4749 25.8079 26.9919 25.154 25.8607C24.6774 25.0378 23.756 24.631 23.2868 24.4688Z" fill="white"/>
<path d="M13.0801 19.4343C11.8966 19.4343 10.9371 19.1953 10.9371 19.1953C10.9371 19.1953 11.8966 18.9563 13.0801 18.9563C13.3313 18.9563 13.5683 18.9699 13.7916 18.9862C13.4162 18.6602 12.6027 18.0654 11.6508 18.0654C10.345 18.0661 9.2858 19.1953 9.2858 19.1953C9.2858 19.1953 10.3457 20.3251 11.6508 20.3245C12.602 20.3245 13.4155 19.7303 13.791 19.4051C13.5676 19.4221 13.3299 19.4343 13.0801 19.4343Z" fill="white"/>
<path d="M28.35 18.0688C27.3994 18.0688 26.586 18.6609 26.2098 18.9882C26.4339 18.9712 26.6716 18.9583 26.9208 18.959C28.1049 18.959 29.0637 19.1973 29.0637 19.1973C29.0637 19.1973 28.1049 19.4364 26.9221 19.4364C26.6716 19.4364 26.4339 19.4235 26.2098 19.4072C26.5853 19.7324 27.3994 20.3265 28.35 20.3265C29.6564 20.3265 30.7143 19.1987 30.7143 19.1987C30.7143 19.1987 29.6551 18.0675 28.35 18.0688Z" fill="white"/>
<path d="M16.7465 25.3084C16.1545 26.3337 15.4687 27.0459 15.4687 27.0459C15.4687 27.0459 15.7416 26.0953 16.3337 25.07C16.46 24.8541 16.5883 24.6552 16.7153 24.4678C16.2454 24.6307 15.3234 25.0381 14.8481 25.8618C14.1942 26.993 14.6423 28.4759 14.6423 28.4759C14.6423 28.4759 16.1504 28.1228 16.8036 26.9916C17.2796 26.168 17.1716 25.1658 17.0772 24.6789C16.9788 24.8799 16.8708 25.0891 16.7465 25.3084Z" fill="white"/>
<path d="M23.255 13.0833C23.8464 12.058 24.5322 11.3464 24.5322 11.3464C24.5322 11.3464 24.2592 12.2963 23.6664 13.3209C23.5415 13.5361 23.4132 13.7371 23.2869 13.9225C23.7561 13.7602 24.6781 13.3528 25.1528 12.5299C25.8066 11.3987 25.3585 9.91504 25.3585 9.91504C25.3585 9.91504 23.8518 10.2688 23.1979 11.4C22.7206 12.2236 22.8292 13.2252 22.9236 13.7127C23.0214 13.5124 23.1287 13.3012 23.255 13.0833Z" fill="white"/>
</svg>
