<svg width="40" height="40" viewBox="0 0 40 40" fill="none" xmlns="http://www.w3.org/2000/svg">
<path d="M36.2501 6.24998C36.2814 6.24998 20.4063 0.156232 20.0001 0C19.6876 0.12497 3.71881 6.24998 3.75008 6.24998V17.75C3.75008 25.7187 6.03135 36.125 20.0001 39.9999C33.9376 36.1249 36.2188 25.5312 36.2188 17.75C36.2501 13.8125 36.2501 6.24998 36.2501 6.24998Z" fill="#D9DEE1"/>
<path d="M3.74989 17.75C3.74989 25.7188 6.03115 36.1251 19.9999 40V0C19.4061 0.218756 3.74989 6.24998 3.74989 6.24998C3.74989 6.24998 3.74996 17.75 3.74989 17.75Z" fill="#BCC6CA"/>
<path d="M33.0936 8.40625C33.1248 8.40625 20.3123 3.24997 19.9686 3.125C19.6873 3.21879 6.81237 8.18749 6.84363 8.15623V17.8124C6.84363 24.4999 8.15617 33.6249 19.9686 36.8749C31.7498 33.6249 33.0936 24.3437 33.0936 17.8124C33.1248 14.5 33.1248 8.40625 33.0936 8.40625Z" fill="#008FFF"/>
<path d="M19.9999 3.125C19.7186 3.21879 6.84363 8.18749 6.8749 8.15623V17.8124C6.8749 24.4999 8.18743 33.6249 19.9999 36.8749V3.125Z" fill="#008FFF"/>
<g clip-path="url(#clip0)">
<path fill-rule="evenodd" clip-rule="evenodd" d="M20.0319 11.1525C19.4929 11.1525 19.001 11.2652 18.6079 11.4575C18.2373 11.6383 17.9593 11.885 17.8252 12.1645L17.3256 13.5421C17.8007 13.2689 18.3459 13.0851 18.8816 12.983C19.2492 12.9128 19.6347 12.8756 20.0319 12.8756C20.4292 12.8756 20.8148 12.9128 21.1823 12.983C21.718 13.0851 22.2632 13.2689 22.7383 13.5421L22.2387 12.1645C22.1046 11.885 21.8266 11.6383 21.456 11.4575C21.0629 11.2652 20.5708 11.1525 20.0319 11.1525ZM16.4608 22.8358C16.6695 22.8358 16.8389 23.0049 16.8389 23.2132C16.8389 23.4216 16.6695 23.5905 16.4608 23.5905C16.2519 23.5905 16.0827 23.4216 16.0827 23.2132C16.0827 23.0049 16.2519 22.8358 16.4608 22.8358ZM17.0551 21.7962C16.924 21.9706 16.9582 22.2183 17.1317 22.3489C17.3063 22.4797 17.5535 22.4446 17.6846 22.2703H17.6856C19.1159 20.3729 20.5645 18.3394 21.3239 16.8692C21.7551 16.0369 22.0503 15.4193 22.2494 14.9356C22.3548 14.6827 22.4336 14.4647 22.4922 14.2713C22.651 14.3712 22.7926 14.4817 22.9151 14.5998C23.1132 14.789 23.2601 14.9973 23.3464 15.2173C23.3784 15.3896 23.5691 16.6418 22.6233 18.5127C21.0172 21.6899 18.3767 25.7856 16.1028 28.5568L14.7715 26.0323C15.0847 25.6315 15.45 25.1658 15.8483 24.6556C15.975 24.4898 15.943 24.2528 15.7758 24.1252C15.6086 23.9976 15.37 24.0285 15.2433 24.1943C14.5265 25.1308 14.0344 25.7569 14.0303 25.7633C13.9365 25.8823 13.9269 26.0418 13.994 26.1682L15.697 29.3998C15.7939 29.5826 16.0218 29.6528 16.2051 29.5571C16.253 29.5317 16.2935 29.4975 16.3243 29.4583C17.3298 28.3028 18.5769 26.5467 19.7529 24.7567C19.8455 24.6152 19.9381 24.4738 20.0297 24.3325C20.6474 25.2829 21.296 26.2416 21.9223 27.1154C22.5656 28.0126 23.1898 28.8268 23.7393 29.4583C23.7713 29.4975 23.8106 29.5317 23.8586 29.5571C24.0418 29.6528 24.2697 29.5826 24.3668 29.3998L26.0708 26.1682C26.1368 26.0418 26.1273 25.8823 26.0335 25.7633C26.0282 25.7559 24.0663 23.2567 22.2387 20.7566C22.6859 19.9902 23.0524 19.33 23.2942 18.8507C24.4349 16.5939 24.0791 15.043 24.0781 15.0388C23.9395 14.3967 23.2259 12.4366 22.9203 11.8498C22.7127 11.4118 22.3101 11.0409 21.7849 10.7847C21.2909 10.5435 20.6837 10.3999 20.0319 10.3999C19.3801 10.3999 18.7741 10.5435 18.2788 10.7847C17.7462 11.0441 17.3405 11.4225 17.1349 11.868C16.8208 12.5535 16.138 14.3351 15.9857 15.0388C15.9847 15.043 15.6289 16.594 16.7696 18.8507C16.8889 19.0867 17.0615 19.4066 17.2617 19.766C17.4459 20.0966 17.6378 20.4345 17.8242 20.7545C17.5685 21.1043 17.3096 21.4539 17.0551 21.7962ZM18.2554 13.9333C18.3076 14.129 18.3885 14.3617 18.5088 14.6509C18.6985 15.1089 18.985 15.7075 19.4078 16.5259C19.4972 16.6981 19.6262 16.9204 19.7764 17.1669C19.8594 17.302 19.9457 17.4401 20.0331 17.5784C20.2939 17.1713 20.507 16.813 20.6561 16.526C21.0789 15.7075 21.3654 15.1091 21.5549 14.6509C21.6753 14.3617 21.7563 14.129 21.8085 13.9334C21.5709 13.844 21.3142 13.7729 21.0405 13.7207C20.7242 13.6602 20.3856 13.6272 20.0319 13.6272C19.6783 13.6272 19.3396 13.6602 19.0233 13.7207C18.7495 13.7727 18.4928 13.844 18.2554 13.9333ZM19.5825 18.2639C19.4206 18.0162 19.2672 17.7739 19.1351 17.558C18.9754 17.2965 18.8369 17.0585 18.74 16.8692C18.3086 16.0369 18.0147 15.4193 17.8145 14.9356C17.7089 14.6827 17.6303 14.4647 17.5716 14.2713C17.4129 14.3712 17.2713 14.4818 17.1487 14.5998C16.9507 14.789 16.8037 14.9973 16.7174 15.2173C16.6855 15.3896 16.4948 16.6418 17.4406 18.5127C17.5598 18.7486 17.7271 19.058 17.9178 19.4014C18.0327 19.6075 18.1648 19.8404 18.3076 20.0869C18.7655 19.4502 19.2022 18.8283 19.5825 18.2639ZM20.475 23.6405C21.1353 24.6641 21.8447 25.7187 22.5349 26.6806C23.0322 27.3748 23.5168 28.0158 23.9609 28.5568L25.2923 26.0333C24.8162 25.4231 23.2846 23.4512 21.8223 21.4604C21.4133 22.1439 20.9564 22.8848 20.475 23.6405Z" fill="white"/>
</g>
<defs>
<clipPath id="clip0">
<rect x="10.4" y="10.3999" width="19.2" height="19.2" fill="white"/>
</clipPath>
</defs>
</svg>
