<svg width="40" height="40" viewBox="0 0 40 40" fill="none" xmlns="http://www.w3.org/2000/svg">
<path d="M36.2501 6.24998C36.2814 6.24998 20.4063 0.156232 20.0001 0C19.6876 0.12497 3.71881 6.24998 3.75008 6.24998V17.75C3.75008 25.7187 6.03135 36.125 20.0001 39.9999C33.9376 36.1249 36.2188 25.5312 36.2188 17.75C36.2501 13.8125 36.2501 6.24998 36.2501 6.24998Z" fill="#D9DEE1"/>
<path d="M3.74989 17.75C3.74989 25.7188 6.03115 36.1251 19.9999 40V0C19.4061 0.218756 3.74989 6.24998 3.74989 6.24998C3.74989 6.24998 3.74996 17.75 3.74989 17.75Z" fill="#BCC6CA"/>
<path d="M33.0936 8.40625C33.1248 8.40625 20.3123 3.24997 19.9686 3.125C19.6873 3.21879 6.81237 8.18749 6.84363 8.15623V17.8124C6.84363 24.4999 8.15617 33.6249 19.9686 36.8749C31.7498 33.6249 33.0936 24.3437 33.0936 17.8124C33.1248 14.5 33.1248 8.40625 33.0936 8.40625Z" fill="#008FFF"/>
<path d="M19.9999 3.125C19.7186 3.21879 6.84363 8.18749 6.8749 8.15623V17.8124C6.8749 24.4999 8.18743 33.6249 19.9999 36.8749V3.125Z" fill="#008FFF"/>
<path d="M27.7333 26.7988H12.2667C12.1194 26.7988 12 26.9182 12 27.0655C12 27.2128 12.1194 27.3322 12.2667 27.3322H27.7333C27.8806 27.3322 28 27.2128 28 27.0655C28 26.9182 27.8806 26.7988 27.7333 26.7988Z" fill="white"/>
<path d="M16.7132 24.1266C16.6818 24.03 16.5983 23.9596 16.4977 23.945L15.7409 23.8352L15.4028 23.1496C15.3375 23.0175 15.1776 22.9634 15.0456 23.0286C14.9931 23.0546 14.9506 23.0971 14.9246 23.1496L14.5868 23.8352L13.8294 23.9456C13.6838 23.9675 13.5835 24.1034 13.6055 24.249C13.614 24.3059 13.6408 24.3585 13.6817 24.3989L14.2291 24.9322L14.1001 25.6858C14.0753 25.831 14.1729 25.9688 14.3181 25.9936C14.3757 26.0034 14.435 25.994 14.4868 25.9669L15.1636 25.6112L15.8401 25.9682C15.9705 26.0368 16.1317 25.9867 16.2002 25.8563C16.2275 25.8044 16.2369 25.745 16.227 25.6872L16.0977 24.9336L16.6454 24.4002C16.7183 24.3294 16.7446 24.2233 16.7132 24.1266ZM15.6268 24.6493C15.5639 24.7106 15.5353 24.799 15.5502 24.8856L15.6116 25.2448L15.2889 25.0752C15.2113 25.0345 15.1187 25.0345 15.0412 25.0752L14.7185 25.2448L14.7798 24.8856C14.7948 24.799 14.7662 24.7106 14.7033 24.6493L14.4422 24.3952L14.8028 24.3418C14.8896 24.3292 14.9647 24.2747 15.0036 24.196L15.1649 23.869L15.3262 24.1957C15.365 24.2745 15.4401 24.3292 15.527 24.3418L15.8876 24.3952L15.6268 24.6493Z" fill="white"/>
<path d="M25.3023 19.6178L22.5898 16.9058C22.4856 16.8017 22.3168 16.8017 22.2127 16.9058L20.2668 18.85L18.485 17.0682C19.6612 16.8925 20.5322 15.8831 20.5335 14.6938V14.6482C20.5335 14.2063 20.1753 13.8482 19.7335 13.8482C19.2917 13.8482 18.9335 14.2063 18.9335 14.6482C18.9329 15.115 18.5545 15.4933 18.0876 15.4938C17.6193 15.4947 17.1547 15.5774 16.7148 15.7383C16.9981 14.9013 16.5492 13.9931 15.7121 13.7099C14.8751 13.4266 13.9669 13.8755 13.6837 14.7126C13.4005 15.5496 13.8494 16.4578 14.6864 16.741C14.8185 16.7857 14.9559 16.813 15.0951 16.822L15.0135 16.9058C13.8785 18.0409 13.8785 19.8811 15.0135 21.0162L15.1146 21.1172C15.4406 21.4412 15.9676 21.4396 16.2916 21.1136C16.4462 20.9579 16.5332 20.7476 16.5335 20.5282C16.5341 20.3073 16.4464 20.0954 16.2898 19.9396L16.1887 19.8386C15.7775 19.426 15.7075 18.7833 16.0204 18.2919L19.7292 21.9991H17.6002C17.4529 21.9991 17.3335 22.1185 17.3335 22.2658C17.3335 22.413 17.4529 22.5324 17.6002 22.5324H20.2615L20.5335 22.8044V25.1991C20.5338 25.3865 20.5836 25.5704 20.6778 25.7324H18.9335C18.7862 25.7324 18.6668 25.8518 18.6668 25.9991C18.6668 26.1464 18.7862 26.2658 18.9335 26.2658H21.593H21.6002C22.1893 26.2658 22.6668 25.7882 22.6668 25.1991V21.8924C22.6668 21.8217 22.6387 21.7539 22.5887 21.7039L21.4439 20.5591L22.4002 19.6044L23.8586 21.0615C24.2572 21.4602 24.9036 21.4602 25.3023 21.0615C25.701 20.6628 25.701 20.0164 25.3023 19.6178ZM14.1335 15.2271C14.1335 14.638 14.6111 14.1604 15.2002 14.1604C15.7893 14.1604 16.2668 14.638 16.2668 15.2271C16.2668 15.8162 15.7893 16.2938 15.2002 16.2938C14.6111 16.2938 14.1335 15.8162 14.1335 15.2271ZM24.9208 20.6846C24.8302 20.7743 24.708 20.825 24.5804 20.8257C24.4512 20.8254 24.3273 20.7742 24.2356 20.6831L22.5898 19.0391C22.4856 18.935 22.3168 18.935 22.2127 19.0391L20.8802 20.3724C20.7761 20.4765 20.7761 20.6453 20.8802 20.7495L22.1335 22.0044V25.1991C22.1335 25.4937 21.8947 25.7324 21.6002 25.7324C21.3056 25.7324 21.0668 25.4937 21.0668 25.1991V22.6924C21.0668 22.6217 21.0387 22.5539 20.9887 22.5039L16.1887 17.7039C16.0846 17.5998 15.9158 17.5998 15.8116 17.7039C15.1193 18.3975 15.1193 19.5207 15.8116 20.2143L15.9127 20.3154C16.0295 20.4321 16.0296 20.6213 15.9129 20.7381C15.8568 20.7943 15.7806 20.8258 15.7012 20.8258C15.622 20.8256 15.546 20.7942 15.4898 20.7383L15.3887 20.6372C14.4619 19.7104 14.4619 18.2078 15.3887 17.281L15.6231 17.0468C16.2753 16.391 17.1627 16.0233 18.0876 16.0258C18.8484 16.025 19.4652 15.4089 19.4668 14.6482C19.4668 14.5009 19.5862 14.3815 19.7335 14.3815C19.8808 14.3815 20.0002 14.5009 20.0002 14.6482V14.6938C19.999 15.7242 19.1639 16.5593 18.1335 16.5604C17.9862 16.5604 17.8668 16.6798 17.8668 16.8271V17.0938C17.8668 17.1645 17.895 17.2323 17.945 17.2823L20.0783 19.4156C20.1824 19.5197 20.3512 19.5197 20.4554 19.4156L22.4002 17.4711L24.9242 19.9948C25.1137 20.1862 25.1122 20.495 24.9208 20.6846Z" fill="white"/>
<path d="M17.8666 25.7324H17.3333C17.186 25.7324 17.0666 25.8518 17.0666 25.9991C17.0666 26.1464 17.186 26.2658 17.3333 26.2658H17.8666C18.0139 26.2658 18.1333 26.1464 18.1333 25.9991C18.1333 25.8518 18.0139 25.7324 17.8666 25.7324Z" fill="white"/>
<path d="M16.5333 21.999H16C15.8527 21.999 15.7333 22.1184 15.7333 22.2657C15.7333 22.413 15.8527 22.5324 16 22.5324H16.5333C16.6806 22.5324 16.8 22.413 16.8 22.2657C16.8 22.1184 16.6806 21.999 16.5333 21.999Z" fill="white"/>
<path d="M27.7334 13.0406C27.7154 13.0406 27.6975 13.0424 27.68 13.046H27.6818C27.1464 13.1541 26.59 13.0572 26.1226 12.7745L26.0056 12.7039C25.9982 12.7002 25.9906 12.6969 25.9829 12.694C25.9752 12.6903 25.9674 12.6871 25.9594 12.6839C25.9002 12.662 25.8352 12.662 25.776 12.6839C25.768 12.6871 25.7602 12.6903 25.7525 12.694C25.7448 12.6969 25.7372 12.7002 25.7298 12.7039L25.6128 12.7745C25.1454 13.0574 24.5888 13.1543 24.0533 13.046C23.909 13.0165 23.7681 13.1096 23.7387 13.2539C23.7351 13.2715 23.7333 13.2894 23.7333 13.3073V15.9927C23.7333 16.3709 23.8356 16.7422 24.0293 17.0671C24.253 17.444 24.5907 17.7402 24.9936 17.9129L25.761 18.2436C25.8279 18.2724 25.9037 18.2724 25.9706 18.2436L26.7384 17.9129C27.1412 17.7402 27.4789 17.444 27.7026 17.0671C27.8968 16.7423 27.9996 16.3711 28 15.9927V13.3073C28 13.1601 27.8806 13.0406 27.7334 13.0406ZM25.601 17.5932L25.2056 17.4228C24.9059 17.2943 24.6547 17.0741 24.4882 16.7937C24.3441 16.5518 24.2679 16.2754 24.2677 15.9937V13.6137C24.7248 13.6501 25.1836 13.5696 25.601 13.3799V17.5932ZM27.2472 16.7937C27.0807 17.0742 26.8295 17.2945 26.5298 17.4231L26.1333 17.5935V13.3799C26.5507 13.5696 27.0095 13.6501 27.4666 13.6137L27.4677 15.9937C27.4675 16.2754 27.3913 16.5518 27.2472 16.7937Z" fill="white"/>
</svg>
