<svg width="40" height="40" viewBox="0 0 40 40" fill="none" xmlns="http://www.w3.org/2000/svg">
<rect width="40" height="40" rx="2" fill="#EBE7D3"/>
<mask id="mask0" mask-type="alpha" maskUnits="userSpaceOnUse" x="0" y="0" width="40" height="40">
<rect width="40" height="40" rx="11.7" fill="white"/>
</mask>
<g mask="url(#mask0)">
<path fill-rule="evenodd" clip-rule="evenodd" d="M44.7232 12.1813C44.0157 6.34921 38.8492 2.21182 33.1835 2.94006C30.0314 3.34524 27.3904 5.17222 25.7879 7.71682C23.6176 7.08635 21.2916 6.8825 18.9133 7.18821C9.37909 8.41369 2.6153 17.3631 3.80582 27.1772C4.99634 36.9912 13.6905 43.9537 23.2246 42.7282C32.563 41.528 39.2423 32.9178 38.3943 23.3431C42.6051 21.5647 45.3143 17.0534 44.7232 12.1813Z" fill="#FFDC99"/>
<mask id="mask1" mask-type="alpha" maskUnits="userSpaceOnUse" x="35" y="24" width="8" height="7">
<path fill-rule="evenodd" clip-rule="evenodd" d="M35.6973 24.2529H42.1469V30.9049H35.6973V24.2529Z" fill="white"/>
</mask>
<g mask="url(#mask1)">
<path fill-rule="evenodd" clip-rule="evenodd" d="M42.1469 27.5789C42.1469 29.4158 40.7031 30.9049 38.9221 30.9049C37.141 30.9049 35.6973 29.4158 35.6973 27.5789C35.6973 25.742 37.141 24.2529 38.9221 24.2529C40.7031 24.2529 42.1469 25.742 42.1469 27.5789Z" fill="#EBE7D3"/>
</g>
<path fill-rule="evenodd" clip-rule="evenodd" d="M41.2733 38.5613C41.2733 39.0957 34.3443 39.5289 25.7968 39.5289C17.2494 39.5289 10.3203 39.0957 10.3203 38.5613C10.3203 38.0269 17.2494 37.5938 25.7968 37.5938C34.3443 37.5938 41.2733 38.0269 41.2733 38.5613Z" fill="#CDCDCD"/>
<path fill-rule="evenodd" clip-rule="evenodd" d="M29.0743 33.1236H15.7131C14.5348 33.1236 13.5566 32.1146 13.5566 30.8995C13.5566 29.6842 14.5126 28.6753 15.7131 28.6753H29.0743V33.1236Z" fill="white"/>
<path fill-rule="evenodd" clip-rule="evenodd" d="M29.475 33.1921C29.475 33.0087 29.3193 32.8482 29.1415 32.8482H15.7136C14.6909 32.8482 13.8683 31.9998 13.8683 30.9451C13.8683 29.8903 14.6909 29.042 15.7136 29.042H29.1415C29.3193 29.042 29.475 28.8814 29.475 28.6979C29.475 28.5145 29.3193 28.354 29.1415 28.354H15.7136C14.3352 28.354 13.2236 29.5005 13.2236 30.9221C13.2236 32.3438 14.3352 33.4902 15.7136 33.4902H29.1415C29.3193 33.4902 29.475 33.3756 29.475 33.1921Z" fill="#FFAC00"/>
<path fill-rule="evenodd" clip-rule="evenodd" d="M29.7581 38.0125H13.4121V33.5801H29.7581C30.2242 33.5801 30.6023 33.9699 30.6023 34.4507V37.1418C30.6023 37.6227 30.2242 38.0125 29.7581 38.0125Z" fill="white"/>
<path fill-rule="evenodd" clip-rule="evenodd" d="M29.3829 38.3288H13.1136C12.9439 38.3288 12.8066 38.1872 12.8066 38.0121C12.8066 37.8372 12.9439 37.6957 13.1136 37.6957H29.3829C29.8907 37.6957 30.3038 37.2696 30.3038 36.7458V34.8462C30.3038 34.3224 29.8907 33.8964 29.3829 33.8964H13.1136C12.9439 33.8964 12.8066 33.7548 12.8066 33.5798C12.8066 33.4048 12.9439 33.2632 13.1136 33.2632H29.3829C30.2291 33.2632 30.9177 33.9733 30.9177 34.8462V36.7458C30.9177 37.6187 30.2291 38.3288 29.3829 38.3288Z" fill="#2B0907"/>
<path fill-rule="evenodd" clip-rule="evenodd" d="M13.4121 34.2129H29.3744C29.5439 34.2129 29.6814 34.3547 29.6814 34.5296C29.6814 34.7043 29.5439 34.8461 29.3744 34.8461H13.4121V34.2129Z" fill="#CDCDCD"/>
<path fill-rule="evenodd" clip-rule="evenodd" d="M13.4121 35.374H29.3744C29.5439 35.374 29.6814 35.5157 29.6814 35.6906C29.6814 35.8654 29.5439 36.0072 29.3744 36.0072H13.4121V35.374Z" fill="#CDCDCD"/>
<path fill-rule="evenodd" clip-rule="evenodd" d="M13.4121 36.6533H29.3744C29.5439 36.6533 29.6814 36.795 29.6814 36.9699C29.6814 37.1448 29.5439 37.2865 29.3744 37.2865H13.4121V36.6533Z" fill="#CDCDCD"/>
<path fill-rule="evenodd" clip-rule="evenodd" d="M29.0871 32.5526H14.8854C14.7345 32.5526 14.6123 32.4109 14.6123 32.236C14.6123 32.0612 14.7345 31.9194 14.8854 31.9194H29.0871V32.5526Z" fill="#CDCDCD"/>
<path fill-rule="evenodd" clip-rule="evenodd" d="M29.0871 31.3919H14.8854C14.7345 31.3919 14.6123 31.2502 14.6123 31.0753C14.6123 30.9005 14.7345 30.7588 14.8854 30.7588H29.0871V31.3919Z" fill="#CDCDCD"/>
<path fill-rule="evenodd" clip-rule="evenodd" d="M29.0871 30.1122H14.8854C14.7345 30.1122 14.6123 29.9704 14.6123 29.7955C14.6123 29.6207 14.7345 29.479 14.8854 29.479H29.0871V30.1122Z" fill="#CDCDCD"/>
<path fill-rule="evenodd" clip-rule="evenodd" d="M13.6455 28.6392V23.7964H29.6885C29.9046 23.7964 30.0797 23.9771 30.0797 24.1999V28.2356C30.0797 28.4585 29.9046 28.6392 29.6885 28.6392H13.6455Z" fill="#FF6B32"/>
<path fill-rule="evenodd" clip-rule="evenodd" d="M14.4281 24.6035V27.4286C14.4281 27.6514 14.6033 27.8321 14.8194 27.8321H28.9059C29.3381 27.8321 29.6885 28.1934 29.6885 28.6392H26.5582H19.5149H13.6455V23.7964C14.0777 23.7964 14.4281 24.1578 14.4281 24.6035Z" fill="#CDCDCD"/>
<path fill-rule="evenodd" clip-rule="evenodd" d="M27.3408 28.6392H27.7322V23.7964H27.3408V28.6392Z" fill="#CDCDCD"/>
<path fill-rule="evenodd" clip-rule="evenodd" d="M26.5576 28.6392H26.949V23.7964H26.5576V28.6392Z" fill="#CDCDCD"/>
<path fill-rule="evenodd" clip-rule="evenodd" d="M16.3848 28.6392H16.7761V23.7964H16.3848V28.6392Z" fill="#CDCDCD"/>
<path fill-rule="evenodd" clip-rule="evenodd" d="M15.6016 28.6392H15.9929V23.7964H15.6016V28.6392Z" fill="#CDCDCD"/>
<path fill-rule="evenodd" clip-rule="evenodd" d="M18.7324 26.5707V25.8644C18.7324 25.8367 18.7544 25.814 18.7813 25.814H24.9442C24.9712 25.814 24.9931 25.8367 24.9931 25.8644V26.5707C24.9931 26.5985 24.9712 26.6212 24.9442 26.6212H18.7813C18.7544 26.6212 18.7324 26.5985 18.7324 26.5707Z" fill="#E1E3E5"/>
<path fill-rule="evenodd" clip-rule="evenodd" d="M29.9043 23.7819L33.684 23.3296L35.3527 38.1622C35.3777 38.3836 35.2568 38.58 35.0828 38.6008L31.9331 38.9778C31.7591 38.9985 31.5979 38.836 31.5729 38.6146L29.9043 23.7819Z" fill="#FFB800"/>
<path fill-rule="evenodd" clip-rule="evenodd" d="M33.1443 24.2067L30.9395 24.4706C30.7655 24.4914 30.6447 24.6878 30.6696 24.9091L32.1128 37.7374C32.1625 38.1802 31.9209 38.573 31.573 38.6146L31.2122 35.4074L30.5808 29.7952L29.9043 23.7819L33.684 23.3296C33.7339 23.7724 33.4922 24.1651 33.1443 24.2067Z" fill="#EF9720"/>
<path fill-rule="evenodd" clip-rule="evenodd" d="M35.2174 36.96L31.4376 37.4123L31.3926 37.0114L35.1722 36.5591L35.2174 36.96Z" fill="#EF9720"/>
<path fill-rule="evenodd" clip-rule="evenodd" d="M35.1276 36.1582L31.3477 36.6105L31.3027 36.2096L35.0824 35.7573L35.1276 36.1582Z" fill="#EF9720"/>
<path fill-rule="evenodd" clip-rule="evenodd" d="M33.9996 26.1358L30.2199 26.588L30.1748 26.1871L33.9545 25.7349L33.9996 26.1358Z" fill="#EF9720"/>
<path fill-rule="evenodd" clip-rule="evenodd" d="M33.9098 25.3344L30.13 25.7867L30.085 25.3859L33.8646 24.9336L33.9098 25.3344Z" fill="#EF9720"/>
<path fill-rule="evenodd" clip-rule="evenodd" d="M32.1503 29.2009L32.7015 29.135C32.7232 29.1324 32.7434 29.1528 32.7466 29.1804L33.2313 33.4899C33.2345 33.5175 33.2194 33.5421 33.1976 33.5447L32.6464 33.6106C32.6247 33.6133 32.6046 33.5929 32.6014 33.5652L32.1166 29.2557C32.1135 29.2281 32.1285 29.2035 32.1503 29.2009Z" fill="#EF9720"/>
<path fill-rule="evenodd" clip-rule="evenodd" d="M38.9321 38.0411L35.1823 38.5122L34.0023 28.5212C33.9814 28.3432 34.1042 28.1814 34.2769 28.1596L37.4017 27.7671C37.5742 27.7454 37.7311 27.8721 37.7522 28.0501L38.9321 38.0411Z" fill="#2B0907"/>
<path fill-rule="evenodd" clip-rule="evenodd" d="M36.9114 34.6968L36.3646 34.7654C36.343 34.7682 36.3233 34.7524 36.3207 34.7301L36.0638 32.5546C36.0612 32.5324 36.0766 32.5122 36.0981 32.5094L36.6449 32.4407C36.6665 32.4381 36.6861 32.4539 36.6888 32.4761L36.9457 34.6516C36.9483 34.6739 36.933 34.6941 36.9114 34.6968Z" fill="#E1E3E5"/>
<path fill-rule="evenodd" clip-rule="evenodd" d="M36.6068 32.119L36.06 32.1877C36.0383 32.1904 36.0187 32.1746 36.0161 32.1523L35.9114 31.2661C35.9088 31.2439 35.9242 31.2236 35.9458 31.2208L36.4926 31.1521C36.5142 31.1495 36.5339 31.1653 36.5364 31.1876L36.6411 32.0738C36.6437 32.0961 36.6284 32.1163 36.6068 32.119Z" fill="#E1E3E5"/>
<path fill-rule="evenodd" clip-rule="evenodd" d="M28.0513 29.8672V33.2608L27.0509 32.1142L26.1172 33.1461V29.8672H28.0513Z" fill="#FF6B32"/>
<mask id="mask2" mask-type="alpha" maskUnits="userSpaceOnUse" x="15" y="6" width="13" height="12">
<path fill-rule="evenodd" clip-rule="evenodd" d="M15.0752 6.30957H27.8151V17.6885H15.0752V6.30957Z" fill="white"/>
</mask>
<g mask="url(#mask2)">
<path fill-rule="evenodd" clip-rule="evenodd" d="M23.7837 6.30984C23.0745 6.31841 22.3576 6.61153 21.9365 7.21716C21.2611 8.18851 21.1556 9.30671 19.9355 9.7723C19.3505 9.99549 18.7358 9.9742 18.144 10.1238C17.6776 10.2418 17.2153 10.469 16.813 10.7362C15.9876 11.2843 15.3354 12.121 15.1344 13.1261C14.7958 14.8191 15.9603 16.2403 17.3482 16.9611C20.9234 18.8181 25.5847 16.9536 27.2313 13.2508C27.6657 12.2741 27.8712 11.1954 27.8019 10.1218C27.7123 8.73193 26.9334 7.53349 25.8265 6.86799C25.2235 6.50543 24.523 6.30103 23.7837 6.30984Z" fill="#2B0907"/>
</g>
<mask id="mask3" mask-type="alpha" maskUnits="userSpaceOnUse" x="9" y="6" width="34" height="37">
<path fill-rule="evenodd" clip-rule="evenodd" d="M9.36816 42.911H42.1466V6.30957H9.36816V42.911Z" fill="white"/>
</mask>
<g mask="url(#mask3)">
<path fill-rule="evenodd" clip-rule="evenodd" d="M22.8066 22.0636H27.0547V14.3916H22.8066V22.0636Z" fill="#EBEBEB"/>
<path fill-rule="evenodd" clip-rule="evenodd" d="M26.1011 9.26868C26.258 10.3685 25.7452 11.3572 24.9558 11.4771C24.1663 11.5969 23.3991 10.8025 23.2421 9.70276C23.0852 8.60293 23.5979 7.61421 24.3874 7.49438C25.1769 7.37455 25.9441 8.16886 26.1011 9.26868Z" fill="#FF6B32"/>
<path fill-rule="evenodd" clip-rule="evenodd" d="M24.1689 11.1628C24.1689 11.1628 24.4016 12.0438 24.201 12.9271C24.201 12.9271 25.027 13.4211 25.575 12.7741C25.575 12.7741 25.1718 11.9759 25.312 10.8873C25.312 10.8873 24.2431 10.2339 24.1689 11.1628Z" fill="#FF6B32"/>
<path fill-rule="evenodd" clip-rule="evenodd" d="M24.2011 12.927C24.2011 12.927 22.7933 12.8676 21.7646 14.2007L27.8502 13.8177C27.8502 13.8177 27.2892 12.5965 25.5751 12.774L24.2011 12.927Z" fill="#FF6B32"/>
<path fill-rule="evenodd" clip-rule="evenodd" d="M28.4319 23.3176C28.4201 23.1815 26.011 22.2639 25.8092 22.1763C24.689 21.6905 23.5563 21.1754 22.3502 20.9653C21.6306 20.8399 18.5306 20.3782 18.8164 21.9144C18.9713 22.7466 20.6036 23.1864 21.2661 23.3666C22.3985 23.6745 23.567 23.8463 24.7292 23.9812C25.968 24.1251 27.2283 24.2489 28.4768 24.246L28.4319 23.3176Z" fill="#FFAC00"/>
<path fill-rule="evenodd" clip-rule="evenodd" d="M28.9369 24.429L28.4868 24.4522L28.417 23.0081L28.867 22.9849L28.9369 24.429Z" fill="#FFAC00"/>
<path fill-rule="evenodd" clip-rule="evenodd" d="M28.8887 23.4396L29.6512 23.4004L29.6868 24.1353L28.9241 24.1747L28.8887 23.4396Z" fill="#FF6B32"/>
<path fill-rule="evenodd" clip-rule="evenodd" d="M31.0195 23.1226L28.8242 23.4L28.8996 24.1815L31.0893 24.3813C31.3419 24.4044 31.5786 24.2387 31.6412 23.9853C31.6854 23.8068 31.6865 23.5926 31.5604 23.3832C31.4468 23.1947 31.233 23.0955 31.0195 23.1226Z" fill="#2B0907"/>
<path fill-rule="evenodd" clip-rule="evenodd" d="M20.7568 23.4841C20.7686 23.348 23.1776 22.4303 23.3794 22.3428C24.4996 21.857 25.6324 21.342 26.8385 21.1317C27.558 21.0064 30.658 20.5447 30.3723 22.0809C30.2174 22.913 28.585 23.3529 27.9225 23.5331C26.7901 23.841 25.6216 24.0128 24.4595 24.1477C23.2206 24.2915 21.9603 24.4154 20.7119 24.4125L20.7568 23.4841Z" fill="#FFB800"/>
<path fill-rule="evenodd" clip-rule="evenodd" d="M20.252 24.5955L20.702 24.6187L20.7718 23.1746L20.3218 23.1514L20.252 24.5955Z" fill="#FFB800"/>
<path fill-rule="evenodd" clip-rule="evenodd" d="M20.3001 23.6061L19.5375 23.5669L19.502 24.3019L20.2645 24.3411L20.3001 23.6061Z" fill="#FF6B32"/>
<path fill-rule="evenodd" clip-rule="evenodd" d="M18.1694 23.2891L20.3646 23.5665L20.2892 24.348L18.0995 24.5478C17.8469 24.5709 17.6103 24.4053 17.5476 24.1518C17.5035 23.9733 17.5023 23.7591 17.6284 23.5497C17.742 23.3612 17.9558 23.262 18.1694 23.2891Z" fill="#2B0907"/>
<path fill-rule="evenodd" clip-rule="evenodd" d="M24.942 19.1252V22.952L23.1255 22.2053L23.1055 18.2852L24.942 19.1252Z" fill="#231704"/>
<path fill-rule="evenodd" clip-rule="evenodd" d="M24.9326 19.1457V22.9725L26.749 22.2258L26.7691 18.3057L24.9326 19.1457Z" fill="#231704"/>
<path fill-rule="evenodd" clip-rule="evenodd" d="M24.9422 19.1251C24.9422 19.1251 24.445 17.9888 23.292 18.3703L24.9422 19.1251Z" fill="#FF6B32"/>
<path fill-rule="evenodd" clip-rule="evenodd" d="M26.5 18.4121C26.5 18.4121 25.3919 17.9583 24.9414 19.125L26.5 18.4121Z" fill="#FF6B32"/>
<path fill-rule="evenodd" clip-rule="evenodd" d="M25.3891 7.07238C25.0059 6.90116 24.4697 6.91222 24.1431 6.95156C23.629 7.01351 23.1316 7.20776 22.6827 7.46912C22.4188 7.62271 22.1599 7.80549 21.9942 8.06701C21.8284 8.32862 21.7739 8.68503 21.9278 8.95421C22.0097 9.09757 22.1417 9.20384 22.2813 9.28725C22.7745 9.58187 23.3875 9.62137 23.9378 9.46844C24.4881 9.3156 24.9797 8.98373 25.3962 8.5825C25.6656 8.32305 25.9728 7.80515 25.771 7.40958C25.692 7.25466 25.5549 7.14647 25.3891 7.07238Z" fill="#2B0907"/>
<path fill-rule="evenodd" clip-rule="evenodd" d="M26.652 9.44135C26.652 9.72833 26.4264 9.96092 26.1483 9.96092C25.87 9.96092 25.6445 9.72833 25.6445 9.44135C25.6445 9.15446 25.87 8.92188 26.1483 8.92188C26.4264 8.92188 26.652 9.15446 26.652 9.44135Z" fill="#FF6B32"/>
<path fill-rule="evenodd" clip-rule="evenodd" d="M23.7972 13.8841C23.6316 13.6791 21.48 15.9902 21.3567 16.1795C20.8221 17.0001 20.5351 18.1541 21.2237 19.0795C21.8387 19.9061 22.8222 20.3922 23.3901 21.2503C23.5572 21.5052 22.8006 21.3359 22.6878 21.2986C21.4683 20.8959 20.1338 19.6378 19.8178 18.3971C19.5995 17.5401 19.8178 16.7053 20.2193 15.988C20.5618 15.3763 21.0244 14.8373 21.5325 14.3592C21.6528 14.246 23.0579 13.0403 23.1655 13.1631C23.1655 13.1631 23.7969 13.8835 23.7972 13.8841Z" fill="#FF6B32"/>
<path fill-rule="evenodd" clip-rule="evenodd" d="M26.1271 13.5991C26.3135 13.4138 28.2087 15.9525 28.3113 16.1544C28.7562 17.0302 28.92 18.2094 28.1379 19.0522C27.4394 19.8049 26.4105 20.1779 25.7555 20.9673C25.5625 21.2019 26.3325 21.1185 26.4485 21.094C27.7033 20.8305 29.1623 19.7295 29.6074 18.5314C29.9148 17.7041 29.7857 16.8496 29.4621 16.0917C29.1861 15.4452 28.7831 14.8576 28.3284 14.3253C28.2207 14.1992 26.951 12.8432 26.8311 12.9531C26.8311 12.9531 26.1275 13.5986 26.1271 13.5991Z" fill="#FF6B32"/>
<path fill-rule="evenodd" clip-rule="evenodd" d="M21.8196 14.1512C21.7985 14.1525 21.7779 14.1573 21.7583 14.1654C21.4487 14.2947 21.139 14.424 20.8292 14.5534C20.7985 14.5662 20.7654 14.581 20.7492 14.6109C20.724 14.6575 20.7513 14.7149 20.7792 14.7599C20.953 15.0405 21.1701 15.2981 21.4428 15.4763C21.6773 15.6296 21.9453 15.7195 22.2136 15.7936C24.2486 16.3561 26.4934 16.0621 28.3277 14.9931C28.5197 14.8812 28.709 14.7596 28.882 14.6188C29.0011 14.5217 28.9735 14.3259 28.8301 14.2735C28.7802 14.2553 28.7318 14.232 28.6867 14.2055C28.5199 14.108 28.375 13.9718 28.2008 13.8893C27.9208 13.7567 27.5982 13.7765 27.2908 13.799C25.5267 13.9279 22.1799 14.1296 21.8196 14.1512Z" fill="white"/>
<path fill-rule="evenodd" clip-rule="evenodd" d="M25.3902 10.2456C25.3902 10.6004 25.1114 10.888 24.7674 10.888C24.4234 10.888 24.1445 10.6004 24.1445 10.2456H25.3902Z" fill="white"/>
<path fill-rule="evenodd" clip-rule="evenodd" d="M25.2653 11.3892C25.2653 11.3892 24.9171 11.6165 24.3594 11.4547L25.6016 12.8934C25.6016 12.8934 25.2618 12.3934 25.2653 11.3892Z" fill="#FF8C60"/>
</g>
</g>
</svg>
