<svg width="14" height="14" viewBox="0 0 14 14" fill="none" xmlns="http://www.w3.org/2000/svg">
<path d="M7 0C3.14031 0 0 3.14004 0 7C0 10.86 3.14031 14 7 14C10.8597 14 14 10.86 14 7C14 3.14004 10.8597 0 7 0ZM7 13.4615C3.43727 13.4615 0.538462 10.5627 0.538462 7C0.538462 3.43727 3.43727 0.538462 7 0.538462C10.5627 0.538462 13.4615 3.43727 13.4615 7C13.4615 10.5627 10.5627 13.4615 7 13.4615Z" fill="black"/>
<path d="M10.3654 6.73077H7.2692V3.76923C7.2692 3.62035 7.14859 3.5 6.99997 3.5C6.85136 3.5 6.73074 3.62035 6.73074 3.76923V6.73077H3.63459C3.48597 6.73077 3.36536 6.85112 3.36536 7C3.36536 7.14888 3.48597 7.26923 3.63459 7.26923H6.73074V10.5C6.73074 10.6489 6.85136 10.7692 6.99997 10.7692C7.14859 10.7692 7.2692 10.6489 7.2692 10.5V7.26923H10.3654C10.514 7.26923 10.6346 7.14888 10.6346 7C10.6346 6.85112 10.514 6.73077 10.3654 6.73077Z" fill="black"/>
</svg>
