<svg width="180" height="180" viewBox="0 0 180 180" fill="none" xmlns="http://www.w3.org/2000/svg">
<path d="M90 0C109.006 2.26646e-07 127.524 6.01695 142.901 17.1885C158.277 28.36 169.722 44.1126 175.595 62.1885L132.798 76.0942C129.861 67.0563 124.138 59.18 116.45 53.5942C108.762 48.0085 99.5031 45 90 45V0Z" fill="#83959D" fill-opacity="0.9"/>
<path d="M175.595 62.1885C181.468 80.2644 181.468 99.7356 175.595 117.812C169.722 135.887 158.277 151.64 142.901 162.812L116.45 126.406C124.138 120.82 129.861 112.944 132.798 103.906C135.734 94.8678 135.734 85.1322 132.798 76.0942L175.595 62.1885Z" fill="#A0AEB4" fill-opacity="0.9"/>
<mask id="path-3-inside-1" fill="white">
<path d="M142.901 162.812C127.524 173.983 109.006 180 90 180C70.9939 180 52.4756 173.983 37.0993 162.812L63.5497 126.406C71.2378 131.992 80.4969 135 90 135C99.5031 135 108.762 131.992 116.45 126.406L142.901 162.812Z"/>
</mask>
<path d="M142.901 162.812C127.524 173.983 109.006 180 90 180C70.9939 180 52.4756 173.983 37.0993 162.812L63.5497 126.406C71.2378 131.992 80.4969 135 90 135C99.5031 135 108.762 131.992 116.45 126.406L142.901 162.812Z" fill="#D9DEE1" stroke="#D9DEE1" stroke-width="2" stroke-dasharray="4 4" mask="url(#path-3-inside-1)"/>
<path d="M37.0993 162.812C21.723 151.64 10.2781 135.887 4.40491 117.812C-1.46831 99.7356 -1.4683 80.2644 4.40492 62.1885L47.2025 76.0942C44.2658 85.1322 44.2658 94.8678 47.2025 103.906C50.1391 112.944 55.8615 120.82 63.5497 126.406L37.0993 162.812Z" fill="#A0AEB4" fill-opacity="0.8"/>
<path d="M4.40492 62.1885C10.2781 44.1125 21.7231 28.36 37.0993 17.1885C52.4756 6.01694 70.9939 -2.26646e-07 90 0V45C80.4969 45 71.2378 48.0085 63.5497 53.5942C55.8615 59.18 50.1391 67.0563 47.2025 76.0942L4.40492 62.1885Z" fill="#BCC6CA"/>
</svg>
