<svg width="42" height="43" viewBox="0 0 42 43" fill="none" xmlns="http://www.w3.org/2000/svg">
<g filter="url(#filter0_ddd)">
<path d="M35.9299 31.0948C35.9159 33.3039 34.1137 35.0834 31.9046 35.0694L5.90515 34.9044L6.09545 4.90503L32.0949 5.06996C34.304 5.08397 36.0835 6.88616 36.0695 9.09525L35.9299 31.0948Z" fill="white"/>
<path d="M31.9078 34.5694L6.40831 34.4076L6.59226 5.40819L32.0917 5.56995C34.0247 5.58221 35.5817 7.15912 35.5695 9.09208L35.4299 31.0916C35.4177 33.0246 33.8408 34.5816 31.9078 34.5694Z" stroke="#F5F7F7"/>
</g>
<path d="M25.0291 15.4354L20.2723 19.9953L24.9709 24.6152L23.5065 26.0159L17.3511 19.9767L23.5826 14.0162L25.0291 15.4354Z" fill="#83959D"/>
<defs>
<filter id="filter0_ddd" x="0.905029" y="0.905029" width="40.1897" height="41.1897" filterUnits="userSpaceOnUse" color-interpolation-filters="sRGB">
<feFlood flood-opacity="0" result="BackgroundImageFix"/>
<feColorMatrix in="SourceAlpha" type="matrix" values="0 0 0 0 0 0 0 0 0 0 0 0 0 0 0 0 0 0 127 0"/>
<feOffset dy="1"/>
<feGaussianBlur stdDeviation="2.5"/>
<feColorMatrix type="matrix" values="0 0 0 0 0 0 0 0 0 0 0 0 0 0 0 0 0 0 0.2 0"/>
<feBlend mode="normal" in2="BackgroundImageFix" result="effect1_dropShadow"/>
<feColorMatrix in="SourceAlpha" type="matrix" values="0 0 0 0 0 0 0 0 0 0 0 0 0 0 0 0 0 0 127 0"/>
<feOffset dy="3"/>
<feGaussianBlur stdDeviation="2"/>
<feColorMatrix type="matrix" values="0 0 0 0 0 0 0 0 0 0 0 0 0 0 0 0 0 0 0.12 0"/>
<feBlend mode="normal" in2="effect1_dropShadow" result="effect2_dropShadow"/>
<feColorMatrix in="SourceAlpha" type="matrix" values="0 0 0 0 0 0 0 0 0 0 0 0 0 0 0 0 0 0 127 0"/>
<feOffset dy="2"/>
<feGaussianBlur stdDeviation="2"/>
<feColorMatrix type="matrix" values="0 0 0 0 0 0 0 0 0 0 0 0 0 0 0 0 0 0 0.14 0"/>
<feBlend mode="normal" in2="effect2_dropShadow" result="effect3_dropShadow"/>
<feBlend mode="normal" in="SourceGraphic" in2="effect3_dropShadow" result="shape"/>
</filter>
</defs>
</svg>
