<svg width="60" height="60" viewBox="0 0 60 60" fill="none" xmlns="http://www.w3.org/2000/svg">
<g clip-path="url(#clip0)">
<path d="M54.0755 10.3338L35.7583 0.415068C34.0207 -0.526129 31.6315 0.197869 30.6903 1.93546L19.9752 21.8454H6.94324C5.27805 21.8454 3.97485 23.1486 3.97485 24.8138V30.0266V57.0317C3.97485 58.6969 5.27805 60.0001 6.94324 60.0001H48.5731C50.2383 60.0001 51.5415 58.6969 51.5415 57.0317V49.5021H52.7723C53.4239 49.5021 53.9307 48.9953 53.9307 48.3437V39.7281C53.9307 39.0765 53.4239 38.5697 52.7723 38.5697H51.5415V30.099C51.5415 28.7234 50.5279 27.4926 49.2247 27.203L55.5959 15.4018C56.537 13.5918 55.8854 11.3474 54.0755 10.3338ZM41.0435 5.91745L29.6044 27.1306H26.3464L38.5819 4.61425L41.0435 5.91745ZM32.7899 3.02146C33.1519 2.36986 34.0207 2.08026 34.6723 2.44226L36.4823 3.45586L23.74 27.1306H19.758L32.7899 3.02146ZM6.21924 24.7414C6.21924 24.5242 6.50884 24.1622 6.87084 24.1622H18.672L17.0792 27.0582H6.87084C6.65364 27.0582 6.43644 27.0582 6.21924 27.1306V24.7414ZM49.1523 57.0317C49.1523 57.3937 48.8627 57.6833 48.5007 57.6833H6.87084C6.50884 57.6833 6.21924 57.3937 6.21924 57.0317V30.099C6.21924 29.737 6.50884 29.4474 6.87084 29.4474H17.8032H22.4368H30.9075H47.1975H48.4283C48.7903 29.4474 49.0799 29.737 49.0799 30.099V38.5697H44.6635C42.7087 38.5697 41.1883 40.1625 41.1883 42.0449V46.0269C41.1883 47.9817 42.7811 49.5021 44.6635 49.5021H49.1523V57.0317ZM51.4691 40.8865H51.5415V47.1853H51.4691H44.6635C44.0119 47.1853 43.5051 46.6785 43.5051 46.0269V42.0449C43.5051 41.3933 44.0119 40.8865 44.6635 40.8865H51.4691ZM53.4963 14.2434L46.5459 27.1306H32.2107L43.0707 7.07584L52.9171 12.4334C53.6411 12.723 53.8583 13.5918 53.4963 14.2434Z" fill="#008FFF"/>
<path d="M49.0799 13.1576L48.5007 12.868C47.0527 12.0716 45.098 12.6508 44.3016 14.0988L43.5776 15.4744C43.2156 16.1984 43.0708 17.0672 43.3604 17.8636C43.5776 18.66 44.1568 19.3116 44.8808 19.6736L45.4599 19.9632C45.8943 20.1804 46.4011 20.3252 46.9079 20.3252C48.0663 20.3252 49.0799 19.6736 49.6591 18.7324L50.3831 17.3568C51.1071 15.8364 50.5279 13.954 49.0799 13.1576ZM48.2835 16.2708L47.5595 17.6464C47.3423 18.0084 46.8355 18.1532 46.4735 17.936L45.8943 17.574C45.7496 17.5016 45.6048 17.2844 45.5324 17.1396C45.46 16.9224 45.4599 16.7052 45.6047 16.5604L46.3287 15.1848C46.4735 14.9676 46.7631 14.7504 47.0527 14.7504C47.1975 14.7504 47.2699 14.7504 47.4147 14.8228L47.9939 15.1124C48.2835 15.402 48.4283 15.8364 48.2835 16.2708Z" fill="#FFC100"/>
</g>
<defs>
<clipPath id="clip0">
<rect width="60" height="60" fill="white"/>
</clipPath>
</defs>
</svg>
