<svg width="60" height="61" viewBox="0 0 60 61" fill="none" xmlns="http://www.w3.org/2000/svg">
<g clip-path="url(#clip0)">
<path d="M60 9.28401V58.6227C60 59.5907 59.2125 60.3764 58.2422 60.3764H1.75781C0.7875 60.3764 0 59.5907 0 58.6227V9.28401C0 8.47845 0.550781 7.77579 1.33477 7.58171L15.5145 4.07422H44.4855L58.6652 7.58171C59.4492 7.77579 60 8.47845 60 9.28401Z" fill="#FFF5F5"/>
<path d="M60 9.28401V58.6227C60 59.5907 59.2125 60.3764 58.2422 60.3764H30V4.07422H44.4855L58.6652 7.58171C59.4492 7.77579 60 8.47845 60 9.28401Z" fill="#EFE2DD"/>
<path d="M36.7277 18.6662L30.975 14.8396C30.6797 14.6431 30.3398 14.5449 30 14.5449C29.6602 14.5449 29.3203 14.6431 29.025 14.8396L23.2723 18.6662C22.6125 19.1047 22.3289 19.9301 22.5797 20.6795L24.7266 27.055C25.1295 27.1833 23.0412 26.518 30 28.735L35.3555 27.055L37.4203 20.6795C37.6711 19.9301 37.3875 19.1047 36.7277 18.6662Z" fill="#4895FF"/>
<path d="M37.4203 20.6795L35.3555 27.055L30 28.735V14.5449C30.3398 14.5449 30.6797 14.6431 30.975 14.8396L36.7277 18.6662C37.3875 19.1047 37.6711 19.9301 37.4203 20.6795Z" fill="#515BE0"/>
<path d="M38.2746 52.8476L31.2434 59.8626C30.9 60.2051 30.45 60.3758 30 60.3758C29.55 60.3758 29.1 60.2051 28.7567 59.8626L21.7254 52.8476C21.3352 52.4571 21.1512 51.9076 21.2285 51.3616L24.7266 27.0547H35.3555L38.7715 51.3616C38.8488 51.9076 38.6649 52.4571 38.2746 52.8476Z" fill="#5ECEF4"/>
<path d="M38.2746 52.8476L31.2434 59.8626C30.9 60.2051 30.45 60.3758 30 60.3758V27.0547H35.3555L38.7715 51.3616C38.8488 51.9076 38.6648 52.4571 38.2746 52.8476Z" fill="#4895FF"/>
<path d="M37.4707 9.28526L31.4062 17.7032C31.0547 18.1709 30.5273 18.4047 30 18.4047C29.4727 18.4047 28.9453 18.1709 28.5938 17.7032L22.5293 9.28526L30 7.64844L37.4707 9.28526Z" fill="#3F4A4A"/>
<path d="M37.4707 9.28526L31.4062 17.7032C31.0547 18.1709 30.5273 18.4047 30 18.4047V7.64844L37.4707 9.28526Z" fill="#32393F"/>
<path d="M41.9532 3.32161L37.4708 9.28434H22.5294L18.047 3.32161C17.1797 2.16707 18.0054 0.515625 19.4532 0.515625H40.547C41.9928 0.515625 42.8217 2.16555 41.9532 3.32161Z" fill="#607882"/>
<path d="M41.9531 3.32161L37.4707 9.28434H30V0.515625H40.5469C41.9927 0.515625 42.8216 2.16555 41.9531 3.32161Z" fill="#3F4A4A"/>
<path d="M18.2097 1.0293L14.6941 4.53678C14.2793 4.95184 14.0988 5.54577 14.2136 6.121L17.7293 23.6584C17.9736 24.8795 19.3869 25.4663 20.4281 24.7738L30 18.4077L18.2097 1.0293Z" fill="#EFE2DD"/>
<path d="M45.3059 4.53678L41.7902 1.0293L30 18.4077L39.5719 24.7738C40.6145 25.4674 42.0267 24.878 42.2707 23.6584L45.7863 6.121C45.9012 5.54577 45.7207 4.95184 45.3059 4.53678Z" fill="#E1D3CE"/>
<path d="M51.0938 32.0837H44.0625C43.0917 32.0837 42.3047 31.2984 42.3047 30.3299C42.3047 29.3614 43.0917 28.5762 44.0625 28.5762H51.0938C52.0645 28.5762 52.8516 29.3614 52.8516 30.3299C52.8516 31.2984 52.0645 32.0837 51.0938 32.0837Z" fill="#3F4A4A"/>
</g>
<defs>
<clipPath id="clip0">
<rect width="60" height="59.8611" fill="white" transform="translate(0 0.515625)"/>
</clipPath>
</defs>
</svg>
