<svg width="759" height="147" viewBox="0 0 759 147" fill="none" xmlns="http://www.w3.org/2000/svg">
<path d="M23.2539 18.0469L26.125 25.6758L28.9893 18.0469H31.2246V28H29.502V24.7188L29.6729 20.3301L26.7334 28H25.4961L22.5635 20.3369L22.7344 24.7188V28H21.0117V18.0469H23.2539ZM32.8037 24.2334C32.8037 23.5088 32.9473 22.8571 33.2344 22.2783C33.5215 21.695 33.9248 21.2484 34.4443 20.9385C34.9639 20.624 35.5609 20.4668 36.2354 20.4668C37.2334 20.4668 38.0423 20.7881 38.6621 21.4307C39.2865 22.0732 39.6237 22.9255 39.6738 23.9873L39.6807 24.377C39.6807 25.1061 39.5394 25.7578 39.2568 26.332C38.9788 26.9062 38.5778 27.3506 38.0537 27.665C37.5342 27.9795 36.9326 28.1367 36.249 28.1367C35.2054 28.1367 34.3691 27.7904 33.7402 27.0977C33.1159 26.4004 32.8037 25.473 32.8037 24.3154V24.2334ZM34.4648 24.377C34.4648 25.138 34.6221 25.735 34.9365 26.168C35.251 26.5964 35.6885 26.8105 36.249 26.8105C36.8096 26.8105 37.2448 26.5918 37.5547 26.1543C37.8691 25.7168 38.0264 25.0765 38.0264 24.2334C38.0264 23.486 37.8646 22.8936 37.541 22.4561C37.222 22.0186 36.7868 21.7998 36.2354 21.7998C35.693 21.7998 35.2624 22.0163 34.9434 22.4492C34.6243 22.8776 34.4648 23.5202 34.4648 24.377ZM42.627 20.6035L42.6748 21.458C43.2217 20.7972 43.9395 20.4668 44.8281 20.4668C46.3685 20.4668 47.1523 21.3486 47.1797 23.1123V28H45.5186V23.208C45.5186 22.7386 45.416 22.3923 45.2109 22.1689C45.0104 21.9411 44.68 21.8271 44.2197 21.8271C43.5498 21.8271 43.0508 22.1302 42.7227 22.7363V28H41.0615V20.6035H42.627ZM50.96 18.8057V20.6035H52.2656V21.834H50.96V25.9629C50.96 26.2454 51.0146 26.4505 51.124 26.5781C51.238 26.7012 51.4385 26.7627 51.7256 26.7627C51.917 26.7627 52.1107 26.7399 52.3066 26.6943V27.9795C51.9284 28.0843 51.5638 28.1367 51.2129 28.1367C49.9368 28.1367 49.2988 27.4326 49.2988 26.0244V21.834H48.082V20.6035H49.2988V18.8057H50.96ZM55.1777 21.4102C55.7201 20.7812 56.4059 20.4668 57.2354 20.4668C58.8122 20.4668 59.612 21.3669 59.6348 23.167V28H57.9736V23.2285C57.9736 22.7181 57.862 22.3581 57.6387 22.1484C57.4199 21.9342 57.0964 21.8271 56.668 21.8271C56.0026 21.8271 55.5059 22.1234 55.1777 22.7158V28H53.5166V17.5H55.1777V21.4102ZM63.0869 28H61.4258V17.5H63.0869V28ZM67.4893 25.6211L68.9932 20.6035H70.7637L67.8242 29.1211C67.373 30.3652 66.6074 30.9873 65.5273 30.9873C65.2858 30.9873 65.0192 30.9463 64.7275 30.8643V29.5791L65.042 29.5996C65.4613 29.5996 65.7757 29.5221 65.9854 29.3672C66.1995 29.2168 66.3682 28.9616 66.4912 28.6016L66.7305 27.9658L64.1328 20.6035H65.9238L67.4893 25.6211ZM79.083 22.1211C78.8643 22.0846 78.6387 22.0664 78.4062 22.0664C77.6452 22.0664 77.1325 22.3581 76.8682 22.9414V28H75.207V20.6035H76.793L76.834 21.4307C77.235 20.7881 77.791 20.4668 78.502 20.4668C78.7389 20.4668 78.9349 20.4987 79.0898 20.5625L79.083 22.1211ZM83.2529 28.1367C82.2002 28.1367 81.3457 27.8063 80.6895 27.1455C80.0378 26.4801 79.7119 25.596 79.7119 24.4932V24.2881C79.7119 23.5498 79.8532 22.8913 80.1357 22.3125C80.4229 21.7292 80.8239 21.2757 81.3389 20.9521C81.8538 20.6286 82.4281 20.4668 83.0615 20.4668C84.0687 20.4668 84.8457 20.7881 85.3926 21.4307C85.944 22.0732 86.2197 22.9824 86.2197 24.1582V24.8281H81.3867C81.4368 25.4388 81.6396 25.9219 81.9951 26.2773C82.3551 26.6328 82.8063 26.8105 83.3486 26.8105C84.1097 26.8105 84.7295 26.5029 85.208 25.8877L86.1035 26.7422C85.8073 27.1842 85.4108 27.5283 84.9141 27.7744C84.4219 28.016 83.8682 28.1367 83.2529 28.1367ZM83.0547 21.7998C82.599 21.7998 82.2298 21.9593 81.9473 22.2783C81.6693 22.5973 81.4915 23.0417 81.4141 23.6113H84.5791V23.4883C84.5426 22.9323 84.3945 22.513 84.1348 22.2305C83.875 21.9434 83.515 21.7998 83.0547 21.7998ZM87.2041 24.2402C87.2041 23.0827 87.4684 22.1644 87.9971 21.4854C88.5257 20.8063 89.2412 20.4668 90.1436 20.4668C90.9684 20.4668 91.6224 20.7562 92.1055 21.335L92.2012 20.6035H93.6777V30.8438H92.0166V27.3711C91.5335 27.8815 90.9046 28.1367 90.1299 28.1367C89.2458 28.1367 88.5371 27.7926 88.0039 27.1045C87.4707 26.4118 87.2041 25.457 87.2041 24.2402ZM88.8652 24.3838C88.8652 25.1403 89.0133 25.735 89.3096 26.168C89.6104 26.5964 90.0251 26.8105 90.5537 26.8105C91.21 26.8105 91.6976 26.5303 92.0166 25.9697V22.6064C91.6976 22.0687 91.2145 21.7998 90.5674 21.7998C90.0387 21.7998 89.6217 22.0117 89.3164 22.4355C89.0156 22.8594 88.8652 23.5088 88.8652 24.3838ZM99.9531 27.2754C99.4655 27.8496 98.7728 28.1367 97.875 28.1367C97.0729 28.1367 96.4645 27.902 96.0498 27.4326C95.6396 26.9632 95.4346 26.2842 95.4346 25.3955V20.6035H97.0957V25.375C97.0957 26.3138 97.4854 26.7832 98.2646 26.7832C99.0713 26.7832 99.6159 26.4938 99.8984 25.915V20.6035H101.56V28H99.9941L99.9531 27.2754ZM105.019 28H103.357V20.6035H105.019V28ZM103.255 18.6826C103.255 18.4274 103.335 18.2155 103.494 18.0469C103.658 17.8783 103.891 17.7939 104.191 17.7939C104.492 17.7939 104.725 17.8783 104.889 18.0469C105.053 18.2155 105.135 18.4274 105.135 18.6826C105.135 18.9333 105.053 19.1429 104.889 19.3115C104.725 19.4756 104.492 19.5576 104.191 19.5576C103.891 19.5576 103.658 19.4756 103.494 19.3115C103.335 19.1429 103.255 18.9333 103.255 18.6826ZM110.706 22.1211C110.487 22.0846 110.262 22.0664 110.029 22.0664C109.268 22.0664 108.756 22.3581 108.491 22.9414V28H106.83V20.6035H108.416L108.457 21.4307C108.858 20.7881 109.414 20.4668 110.125 20.4668C110.362 20.4668 110.558 20.4987 110.713 20.5625L110.706 22.1211ZM114.876 28.1367C113.823 28.1367 112.969 27.8063 112.312 27.1455C111.661 26.4801 111.335 25.596 111.335 24.4932V24.2881C111.335 23.5498 111.476 22.8913 111.759 22.3125C112.046 21.7292 112.447 21.2757 112.962 20.9521C113.477 20.6286 114.051 20.4668 114.685 20.4668C115.692 20.4668 116.469 20.7881 117.016 21.4307C117.567 22.0732 117.843 22.9824 117.843 24.1582V24.8281H113.01C113.06 25.4388 113.263 25.9219 113.618 26.2773C113.978 26.6328 114.429 26.8105 114.972 26.8105C115.733 26.8105 116.353 26.5029 116.831 25.8877L117.727 26.7422C117.43 27.1842 117.034 27.5283 116.537 27.7744C116.045 28.016 115.491 28.1367 114.876 28.1367ZM114.678 21.7998C114.222 21.7998 113.853 21.9593 113.57 22.2783C113.292 22.5973 113.115 23.0417 113.037 23.6113H116.202V23.4883C116.166 22.9323 116.018 22.513 115.758 22.2305C115.498 21.9434 115.138 21.7998 114.678 21.7998ZM120.7 20.6035L120.748 21.376C121.268 20.7699 121.979 20.4668 122.881 20.4668C123.87 20.4668 124.547 20.8451 124.911 21.6016C125.449 20.8451 126.205 20.4668 127.181 20.4668C127.996 20.4668 128.603 20.6924 128.999 21.1436C129.4 21.5947 129.605 22.2601 129.614 23.1396V28H127.953V23.1875C127.953 22.7181 127.851 22.374 127.646 22.1553C127.44 21.9365 127.101 21.8271 126.627 21.8271C126.249 21.8271 125.939 21.9297 125.697 22.1348C125.46 22.3353 125.294 22.5996 125.198 22.9277L125.205 28H123.544V23.1328C123.521 22.2624 123.077 21.8271 122.211 21.8271C121.546 21.8271 121.074 22.0983 120.796 22.6406V28H119.135V20.6035H120.7ZM134.577 28.1367C133.524 28.1367 132.67 27.8063 132.014 27.1455C131.362 26.4801 131.036 25.596 131.036 24.4932V24.2881C131.036 23.5498 131.177 22.8913 131.46 22.3125C131.747 21.7292 132.148 21.2757 132.663 20.9521C133.178 20.6286 133.752 20.4668 134.386 20.4668C135.393 20.4668 136.17 20.7881 136.717 21.4307C137.268 22.0732 137.544 22.9824 137.544 24.1582V24.8281H132.711C132.761 25.4388 132.964 25.9219 133.319 26.2773C133.679 26.6328 134.131 26.8105 134.673 26.8105C135.434 26.8105 136.054 26.5029 136.532 25.8877L137.428 26.7422C137.132 27.1842 136.735 27.5283 136.238 27.7744C135.746 28.016 135.192 28.1367 134.577 28.1367ZM134.379 21.7998C133.923 21.7998 133.554 21.9593 133.271 22.2783C132.993 22.5973 132.816 23.0417 132.738 23.6113H135.903V23.4883C135.867 22.9323 135.719 22.513 135.459 22.2305C135.199 21.9434 134.839 21.7998 134.379 21.7998ZM140.381 20.6035L140.429 21.458C140.976 20.7972 141.693 20.4668 142.582 20.4668C144.122 20.4668 144.906 21.3486 144.934 23.1123V28H143.272V23.208C143.272 22.7386 143.17 22.3923 142.965 22.1689C142.764 21.9411 142.434 21.8271 141.974 21.8271C141.304 21.8271 140.805 22.1302 140.477 22.7363V28H138.815V20.6035H140.381ZM148.714 18.8057V20.6035H150.02V21.834H148.714V25.9629C148.714 26.2454 148.769 26.4505 148.878 26.5781C148.992 26.7012 149.192 26.7627 149.479 26.7627C149.671 26.7627 149.865 26.7399 150.061 26.6943V27.9795C149.682 28.0843 149.318 28.1367 148.967 28.1367C147.691 28.1367 147.053 27.4326 147.053 26.0244V21.834H145.836V20.6035H147.053V18.8057H148.714ZM155.44 25.9902C155.44 25.694 155.317 25.4684 155.071 25.3135C154.83 25.1585 154.426 25.0218 153.861 24.9033C153.296 24.7848 152.825 24.6344 152.446 24.4521C151.617 24.0511 151.202 23.4701 151.202 22.709C151.202 22.071 151.471 21.5378 152.009 21.1094C152.547 20.681 153.23 20.4668 154.06 20.4668C154.944 20.4668 155.657 20.6855 156.199 21.123C156.746 21.5605 157.02 22.1279 157.02 22.8252H155.358C155.358 22.5062 155.24 22.2419 155.003 22.0322C154.766 21.818 154.451 21.7109 154.06 21.7109C153.695 21.7109 153.396 21.7952 153.164 21.9639C152.936 22.1325 152.822 22.3581 152.822 22.6406C152.822 22.8958 152.929 23.0941 153.144 23.2354C153.358 23.3766 153.791 23.5202 154.442 23.666C155.094 23.8073 155.604 23.9782 155.974 24.1787C156.347 24.3747 156.623 24.6117 156.801 24.8896C156.983 25.1676 157.074 25.5049 157.074 25.9014C157.074 26.5667 156.799 27.1068 156.247 27.5215C155.696 27.9316 154.973 28.1367 154.08 28.1367C153.474 28.1367 152.934 28.0273 152.46 27.8086C151.986 27.5898 151.617 27.2891 151.353 26.9062C151.088 26.5234 150.956 26.111 150.956 25.6689H152.569C152.592 26.0609 152.74 26.3639 153.014 26.5781C153.287 26.7878 153.649 26.8926 154.101 26.8926C154.538 26.8926 154.871 26.8105 155.099 26.6465C155.326 26.4779 155.44 26.2591 155.44 25.9902Z" fill="black"/>
<path d="M393.741 26.6191H398.26V28H392.012V18.0469H393.741V26.6191ZM403.811 27.2754C403.323 27.8496 402.63 28.1367 401.732 28.1367C400.93 28.1367 400.322 27.902 399.907 27.4326C399.497 26.9632 399.292 26.2842 399.292 25.3955V20.6035H400.953V25.375C400.953 26.3138 401.343 26.7832 402.122 26.7832C402.929 26.7832 403.473 26.4938 403.756 25.915V20.6035H405.417V28H403.852L403.811 27.2754ZM408.671 20.6035L408.719 21.376C409.238 20.7699 409.949 20.4668 410.852 20.4668C411.84 20.4668 412.517 20.8451 412.882 21.6016C413.42 20.8451 414.176 20.4668 415.151 20.4668C415.967 20.4668 416.573 20.6924 416.97 21.1436C417.371 21.5947 417.576 22.2601 417.585 23.1396V28H415.924V23.1875C415.924 22.7181 415.821 22.374 415.616 22.1553C415.411 21.9365 415.072 21.8271 414.598 21.8271C414.219 21.8271 413.91 21.9297 413.668 22.1348C413.431 22.3353 413.265 22.5996 413.169 22.9277L413.176 28H411.515V23.1328C411.492 22.2624 411.048 21.8271 410.182 21.8271C409.516 21.8271 409.045 22.0983 408.767 22.6406V28H407.105V20.6035H408.671ZM425.768 24.377C425.768 25.5208 425.508 26.4346 424.988 27.1182C424.469 27.7972 423.771 28.1367 422.896 28.1367C422.085 28.1367 421.436 27.8701 420.948 27.3369V30.8438H419.287V20.6035H420.818L420.887 21.3555C421.374 20.763 422.037 20.4668 422.876 20.4668C423.778 20.4668 424.485 20.804 424.995 21.4785C425.51 22.1484 425.768 23.0804 425.768 24.2744V24.377ZM424.113 24.2334C424.113 23.4951 423.965 22.9095 423.669 22.4766C423.377 22.0436 422.958 21.8271 422.411 21.8271C421.732 21.8271 421.244 22.1074 420.948 22.668V25.9492C421.249 26.5234 421.741 26.8105 422.425 26.8105C422.953 26.8105 423.366 26.5986 423.662 26.1748C423.963 25.7464 424.113 25.0993 424.113 24.2334ZM431.325 25.9902C431.325 25.694 431.202 25.4684 430.956 25.3135C430.715 25.1585 430.311 25.0218 429.746 24.9033C429.181 24.7848 428.709 24.6344 428.331 24.4521C427.502 24.0511 427.087 23.4701 427.087 22.709C427.087 22.071 427.356 21.5378 427.894 21.1094C428.431 20.681 429.115 20.4668 429.944 20.4668C430.828 20.4668 431.542 20.6855 432.084 21.123C432.631 21.5605 432.904 22.1279 432.904 22.8252H431.243C431.243 22.5062 431.125 22.2419 430.888 22.0322C430.651 21.818 430.336 21.7109 429.944 21.7109C429.58 21.7109 429.281 21.7952 429.049 21.9639C428.821 22.1325 428.707 22.3581 428.707 22.6406C428.707 22.8958 428.814 23.0941 429.028 23.2354C429.243 23.3766 429.675 23.5202 430.327 23.666C430.979 23.8073 431.489 23.9782 431.858 24.1787C432.232 24.3747 432.508 24.6117 432.686 24.8896C432.868 25.1676 432.959 25.5049 432.959 25.9014C432.959 26.5667 432.683 27.1068 432.132 27.5215C431.58 27.9316 430.858 28.1367 429.965 28.1367C429.359 28.1367 428.819 28.0273 428.345 27.8086C427.871 27.5898 427.502 27.2891 427.237 26.9062C426.973 26.5234 426.841 26.111 426.841 25.6689H428.454C428.477 26.0609 428.625 26.3639 428.898 26.5781C429.172 26.7878 429.534 26.8926 429.985 26.8926C430.423 26.8926 430.756 26.8105 430.983 26.6465C431.211 26.4779 431.325 26.2591 431.325 25.9902ZM438.893 27.2754C438.405 27.8496 437.712 28.1367 436.814 28.1367C436.012 28.1367 435.404 27.902 434.989 27.4326C434.579 26.9632 434.374 26.2842 434.374 25.3955V20.6035H436.035V25.375C436.035 26.3138 436.425 26.7832 437.204 26.7832C438.011 26.7832 438.555 26.4938 438.838 25.915V20.6035H440.499V28H438.934L438.893 27.2754ZM443.753 20.6035L443.801 21.376C444.32 20.7699 445.031 20.4668 445.934 20.4668C446.923 20.4668 447.599 20.8451 447.964 21.6016C448.502 20.8451 449.258 20.4668 450.233 20.4668C451.049 20.4668 451.655 20.6924 452.052 21.1436C452.453 21.5947 452.658 22.2601 452.667 23.1396V28H451.006V23.1875C451.006 22.7181 450.903 22.374 450.698 22.1553C450.493 21.9365 450.154 21.8271 449.68 21.8271C449.301 21.8271 448.992 21.9297 448.75 22.1348C448.513 22.3353 448.347 22.5996 448.251 22.9277L448.258 28H446.597V23.1328C446.574 22.2624 446.13 21.8271 445.264 21.8271C444.598 21.8271 444.127 22.0983 443.849 22.6406V28H442.188V20.6035H443.753ZM461.731 22.1211C461.513 22.0846 461.287 22.0664 461.055 22.0664C460.294 22.0664 459.781 22.3581 459.517 22.9414V28H457.855V20.6035H459.441L459.482 21.4307C459.883 20.7881 460.439 20.4668 461.15 20.4668C461.387 20.4668 461.583 20.4987 461.738 20.5625L461.731 22.1211ZM465.901 28.1367C464.849 28.1367 463.994 27.8063 463.338 27.1455C462.686 26.4801 462.36 25.596 462.36 24.4932V24.2881C462.36 23.5498 462.502 22.8913 462.784 22.3125C463.071 21.7292 463.472 21.2757 463.987 20.9521C464.502 20.6286 465.076 20.4668 465.71 20.4668C466.717 20.4668 467.494 20.7881 468.041 21.4307C468.592 22.0732 468.868 22.9824 468.868 24.1582V24.8281H464.035C464.085 25.4388 464.288 25.9219 464.644 26.2773C465.004 26.6328 465.455 26.8105 465.997 26.8105C466.758 26.8105 467.378 26.5029 467.856 25.8877L468.752 26.7422C468.456 27.1842 468.059 27.5283 467.562 27.7744C467.07 28.016 466.517 28.1367 465.901 28.1367ZM465.703 21.7998C465.247 21.7998 464.878 21.9593 464.596 22.2783C464.318 22.5973 464.14 23.0417 464.062 23.6113H467.228V23.4883C467.191 22.9323 467.043 22.513 466.783 22.2305C466.523 21.9434 466.163 21.7998 465.703 21.7998ZM469.853 24.2402C469.853 23.0827 470.117 22.1644 470.646 21.4854C471.174 20.8063 471.89 20.4668 472.792 20.4668C473.617 20.4668 474.271 20.7562 474.754 21.335L474.85 20.6035H476.326V30.8438H474.665V27.3711C474.182 27.8815 473.553 28.1367 472.778 28.1367C471.894 28.1367 471.186 27.7926 470.652 27.1045C470.119 26.4118 469.853 25.457 469.853 24.2402ZM471.514 24.3838C471.514 25.1403 471.662 25.735 471.958 26.168C472.259 26.5964 472.674 26.8105 473.202 26.8105C473.858 26.8105 474.346 26.5303 474.665 25.9697V22.6064C474.346 22.0687 473.863 21.7998 473.216 21.7998C472.687 21.7998 472.27 22.0117 471.965 22.4355C471.664 22.8594 471.514 23.5088 471.514 24.3838ZM482.602 27.2754C482.114 27.8496 481.421 28.1367 480.523 28.1367C479.721 28.1367 479.113 27.902 478.698 27.4326C478.288 26.9632 478.083 26.2842 478.083 25.3955V20.6035H479.744V25.375C479.744 26.3138 480.134 26.7832 480.913 26.7832C481.72 26.7832 482.264 26.4938 482.547 25.915V20.6035H484.208V28H482.643L482.602 27.2754ZM487.667 28H486.006V20.6035H487.667V28ZM485.903 18.6826C485.903 18.4274 485.983 18.2155 486.143 18.0469C486.307 17.8783 486.539 17.7939 486.84 17.7939C487.141 17.7939 487.373 17.8783 487.537 18.0469C487.701 18.2155 487.783 18.4274 487.783 18.6826C487.783 18.9333 487.701 19.1429 487.537 19.3115C487.373 19.4756 487.141 19.5576 486.84 19.5576C486.539 19.5576 486.307 19.4756 486.143 19.3115C485.983 19.1429 485.903 18.9333 485.903 18.6826ZM493.354 22.1211C493.136 22.0846 492.91 22.0664 492.678 22.0664C491.917 22.0664 491.404 22.3581 491.14 22.9414V28H489.479V20.6035H491.064L491.105 21.4307C491.507 20.7881 492.062 20.4668 492.773 20.4668C493.01 20.4668 493.206 20.4987 493.361 20.5625L493.354 22.1211ZM497.524 28.1367C496.472 28.1367 495.617 27.8063 494.961 27.1455C494.309 26.4801 493.983 25.596 493.983 24.4932V24.2881C493.983 23.5498 494.125 22.8913 494.407 22.3125C494.694 21.7292 495.095 21.2757 495.61 20.9521C496.125 20.6286 496.7 20.4668 497.333 20.4668C498.34 20.4668 499.117 20.7881 499.664 21.4307C500.215 22.0732 500.491 22.9824 500.491 24.1582V24.8281H495.658C495.708 25.4388 495.911 25.9219 496.267 26.2773C496.627 26.6328 497.078 26.8105 497.62 26.8105C498.381 26.8105 499.001 26.5029 499.479 25.8877L500.375 26.7422C500.079 27.1842 499.682 27.5283 499.186 27.7744C498.693 28.016 498.14 28.1367 497.524 28.1367ZM497.326 21.7998C496.87 21.7998 496.501 21.9593 496.219 22.2783C495.941 22.5973 495.763 23.0417 495.686 23.6113H498.851V23.4883C498.814 22.9323 498.666 22.513 498.406 22.2305C498.146 21.9434 497.786 21.7998 497.326 21.7998ZM503.349 20.6035L503.396 21.376C503.916 20.7699 504.627 20.4668 505.529 20.4668C506.518 20.4668 507.195 20.8451 507.56 21.6016C508.097 20.8451 508.854 20.4668 509.829 20.4668C510.645 20.4668 511.251 20.6924 511.647 21.1436C512.049 21.5947 512.254 22.2601 512.263 23.1396V28H510.602V23.1875C510.602 22.7181 510.499 22.374 510.294 22.1553C510.089 21.9365 509.749 21.8271 509.275 21.8271C508.897 21.8271 508.587 21.9297 508.346 22.1348C508.109 22.3353 507.942 22.5996 507.847 22.9277L507.854 28H506.192V23.1328C506.17 22.2624 505.725 21.8271 504.859 21.8271C504.194 21.8271 503.722 22.0983 503.444 22.6406V28H501.783V20.6035H503.349ZM517.226 28.1367C516.173 28.1367 515.318 27.8063 514.662 27.1455C514.01 26.4801 513.685 25.596 513.685 24.4932V24.2881C513.685 23.5498 513.826 22.8913 514.108 22.3125C514.396 21.7292 514.797 21.2757 515.312 20.9521C515.826 20.6286 516.401 20.4668 517.034 20.4668C518.041 20.4668 518.818 20.7881 519.365 21.4307C519.917 22.0732 520.192 22.9824 520.192 24.1582V24.8281H515.359C515.41 25.4388 515.612 25.9219 515.968 26.2773C516.328 26.6328 516.779 26.8105 517.321 26.8105C518.082 26.8105 518.702 26.5029 519.181 25.8877L520.076 26.7422C519.78 27.1842 519.383 27.5283 518.887 27.7744C518.395 28.016 517.841 28.1367 517.226 28.1367ZM517.027 21.7998C516.572 21.7998 516.202 21.9593 515.92 22.2783C515.642 22.5973 515.464 23.0417 515.387 23.6113H518.552V23.4883C518.515 22.9323 518.367 22.513 518.107 22.2305C517.848 21.9434 517.488 21.7998 517.027 21.7998ZM523.029 20.6035L523.077 21.458C523.624 20.7972 524.342 20.4668 525.23 20.4668C526.771 20.4668 527.555 21.3486 527.582 23.1123V28H525.921V23.208C525.921 22.7386 525.818 22.3923 525.613 22.1689C525.413 21.9411 525.082 21.8271 524.622 21.8271C523.952 21.8271 523.453 22.1302 523.125 22.7363V28H521.464V20.6035H523.029ZM531.362 18.8057V20.6035H532.668V21.834H531.362V25.9629C531.362 26.2454 531.417 26.4505 531.526 26.5781C531.64 26.7012 531.841 26.7627 532.128 26.7627C532.319 26.7627 532.513 26.7399 532.709 26.6943V27.9795C532.331 28.0843 531.966 28.1367 531.615 28.1367C530.339 28.1367 529.701 27.4326 529.701 26.0244V21.834H528.484V20.6035H529.701V18.8057H531.362ZM538.089 25.9902C538.089 25.694 537.966 25.4684 537.72 25.3135C537.478 25.1585 537.075 25.0218 536.51 24.9033C535.945 24.7848 535.473 24.6344 535.095 24.4521C534.265 24.0511 533.851 23.4701 533.851 22.709C533.851 22.071 534.119 21.5378 534.657 21.1094C535.195 20.681 535.879 20.4668 536.708 20.4668C537.592 20.4668 538.305 20.6855 538.848 21.123C539.395 21.5605 539.668 22.1279 539.668 22.8252H538.007C538.007 22.5062 537.888 22.2419 537.651 22.0322C537.414 21.818 537.1 21.7109 536.708 21.7109C536.343 21.7109 536.045 21.7952 535.812 21.9639C535.585 22.1325 535.471 22.3581 535.471 22.6406C535.471 22.8958 535.578 23.0941 535.792 23.2354C536.006 23.3766 536.439 23.5202 537.091 23.666C537.743 23.8073 538.253 23.9782 538.622 24.1787C538.996 24.3747 539.271 24.6117 539.449 24.8896C539.632 25.1676 539.723 25.5049 539.723 25.9014C539.723 26.5667 539.447 27.1068 538.896 27.5215C538.344 27.9316 537.622 28.1367 536.729 28.1367C536.122 28.1367 535.582 28.0273 535.108 27.8086C534.634 27.5898 534.265 27.2891 534.001 26.9062C533.737 26.5234 533.604 26.111 533.604 25.6689H535.218C535.241 26.0609 535.389 26.3639 535.662 26.5781C535.936 26.7878 536.298 26.8926 536.749 26.8926C537.187 26.8926 537.519 26.8105 537.747 26.6465C537.975 26.4779 538.089 26.2591 538.089 25.9902Z" fill="black"/>
<path d="M29.0283 51.3447C29.0283 52.32 28.8643 53.1722 28.5361 53.9014C28.208 54.626 27.7432 55.1797 27.1416 55.5625C26.54 55.9453 25.8382 56.1367 25.0361 56.1367C24.2523 56.1367 23.5573 55.9453 22.9512 55.5625C22.3451 55.1751 21.8734 54.626 21.5361 53.915C21.2035 53.1995 21.0326 52.3724 21.0234 51.4336V50.7158C21.0234 49.7588 21.1898 48.9134 21.5225 48.1797C21.8551 47.446 22.3245 46.8854 22.9307 46.498C23.5413 46.1061 24.2386 45.9102 25.0225 45.9102C25.82 45.9102 26.5218 46.1038 27.1279 46.4912C27.7386 46.874 28.208 47.4323 28.5361 48.166C28.8643 48.8952 29.0283 49.7451 29.0283 50.7158V51.3447ZM27.7227 50.7021C27.7227 49.5218 27.4857 48.6172 27.0117 47.9883C26.5378 47.3548 25.8747 47.0381 25.0225 47.0381C24.193 47.0381 23.5391 47.3548 23.0605 47.9883C22.5866 48.6172 22.3428 49.4922 22.3291 50.6133V51.3447C22.3291 52.4886 22.5684 53.3887 23.0469 54.0449C23.5299 54.6966 24.193 55.0225 25.0361 55.0225C25.8838 55.0225 26.54 54.7148 27.0049 54.0996C27.4697 53.4798 27.709 52.5934 27.7227 51.4404V50.7021ZM34.374 49.7383C34.1826 49.7064 33.9753 49.6904 33.752 49.6904C32.9225 49.6904 32.3597 50.0436 32.0635 50.75V56H30.7988V48.6035H32.0293L32.0498 49.458C32.4645 48.7972 33.0524 48.4668 33.8135 48.4668C34.0596 48.4668 34.2464 48.4987 34.374 48.5625V49.7383ZM36.917 56H35.6523V48.6035H36.917V56ZM35.5498 46.6416C35.5498 46.4365 35.6113 46.2633 35.7344 46.1221C35.862 45.9808 36.0488 45.9102 36.2949 45.9102C36.541 45.9102 36.7279 45.9808 36.8555 46.1221C36.9831 46.2633 37.0469 46.4365 37.0469 46.6416C37.0469 46.8467 36.9831 47.0176 36.8555 47.1543C36.7279 47.291 36.541 47.3594 36.2949 47.3594C36.0488 47.3594 35.862 47.291 35.7344 47.1543C35.6113 47.0176 35.5498 46.8467 35.5498 46.6416ZM38.6465 52.2402C38.6465 51.0872 38.9131 50.1712 39.4463 49.4922C39.9795 48.8086 40.6859 48.4668 41.5654 48.4668C42.4678 48.4668 43.1719 48.7858 43.6777 49.4238L43.7393 48.6035H44.8945V55.8223C44.8945 56.7793 44.6097 57.5335 44.04 58.085C43.4749 58.6364 42.7139 58.9121 41.7568 58.9121C41.2236 58.9121 40.7018 58.7982 40.1914 58.5703C39.681 58.3424 39.2913 58.0303 39.0225 57.6338L39.6787 56.875C40.221 57.5449 40.8841 57.8799 41.668 57.8799C42.2832 57.8799 42.7617 57.7067 43.1035 57.3604C43.4499 57.014 43.623 56.5264 43.623 55.8975V55.2617C43.1172 55.8451 42.4268 56.1367 41.5518 56.1367C40.6859 56.1367 39.984 55.7881 39.4463 55.0908C38.9131 54.3936 38.6465 53.4434 38.6465 52.2402ZM39.918 52.3838C39.918 53.2178 40.0889 53.874 40.4307 54.3525C40.7725 54.8265 41.251 55.0635 41.8662 55.0635C42.6637 55.0635 43.2493 54.7012 43.623 53.9766V50.5996C43.2357 49.8932 42.6546 49.54 41.8799 49.54C41.2646 49.54 40.7839 49.7793 40.4375 50.2578C40.0911 50.7363 39.918 51.445 39.918 52.3838ZM48.1826 56H46.918V48.6035H48.1826V56ZM46.8154 46.6416C46.8154 46.4365 46.877 46.2633 47 46.1221C47.1276 45.9808 47.3145 45.9102 47.5605 45.9102C47.8066 45.9102 47.9935 45.9808 48.1211 46.1221C48.2487 46.2633 48.3125 46.4365 48.3125 46.6416C48.3125 46.8467 48.2487 47.0176 48.1211 47.1543C47.9935 47.291 47.8066 47.3594 47.5605 47.3594C47.3145 47.3594 47.1276 47.291 47 47.1543C46.877 47.0176 46.8154 46.8467 46.8154 46.6416ZM51.4092 48.6035L51.4502 49.5332C52.0153 48.8223 52.7536 48.4668 53.665 48.4668C55.2282 48.4668 56.0166 49.3486 56.0303 51.1123V56H54.7656V51.1055C54.7611 50.5723 54.638 50.1781 54.3965 49.9229C54.1595 49.6676 53.7881 49.54 53.2822 49.54C52.8721 49.54 52.512 49.6494 52.2021 49.8682C51.8923 50.0869 51.6507 50.374 51.4775 50.7295V56H50.2129V48.6035H51.4092ZM62.5039 56C62.431 55.8542 62.3717 55.5944 62.3262 55.2207C61.7383 55.8314 61.0365 56.1367 60.2207 56.1367C59.4915 56.1367 58.8923 55.9316 58.4229 55.5215C57.958 55.1068 57.7256 54.5827 57.7256 53.9492C57.7256 53.179 58.0173 52.582 58.6006 52.1582C59.1885 51.7298 60.0133 51.5156 61.0752 51.5156H62.3057V50.9346C62.3057 50.4925 62.1735 50.1416 61.9092 49.8818C61.6449 49.6175 61.2552 49.4854 60.7402 49.4854C60.2891 49.4854 59.9108 49.5993 59.6055 49.8271C59.3001 50.055 59.1475 50.3307 59.1475 50.6543H57.876C57.876 50.2852 58.0059 49.9297 58.2656 49.5879C58.5299 49.2415 58.8854 48.9681 59.332 48.7676C59.7832 48.5671 60.2777 48.4668 60.8154 48.4668C61.6676 48.4668 62.3353 48.681 62.8184 49.1094C63.3014 49.5332 63.5521 50.1188 63.5703 50.8662V54.2705C63.5703 54.9495 63.6569 55.4896 63.8301 55.8906V56H62.5039ZM60.4053 55.0361C60.8018 55.0361 61.1777 54.9336 61.5332 54.7285C61.8887 54.5234 62.1462 54.2568 62.3057 53.9287V52.4111H61.3145C59.765 52.4111 58.9902 52.8646 58.9902 53.7715C58.9902 54.168 59.1224 54.4779 59.3867 54.7012C59.651 54.9245 59.9906 55.0361 60.4053 55.0361ZM66.9268 56H65.6621V45.5H66.9268V56Z" fill="#83959D"/>
<path d="M38.3389 71.127H35.1396V80H33.834V71.127H30.6416V70.0469H38.3389V71.127ZM38.5986 76.2334C38.5986 75.5088 38.7399 74.8571 39.0225 74.2783C39.3096 73.6995 39.7061 73.2529 40.2119 72.9385C40.7223 72.624 41.3034 72.4668 41.9551 72.4668C42.9622 72.4668 43.7757 72.8154 44.3955 73.5127C45.0199 74.21 45.332 75.1374 45.332 76.2949V76.3838C45.332 77.1038 45.193 77.751 44.915 78.3252C44.6416 78.8949 44.2474 79.3392 43.7324 79.6582C43.222 79.9772 42.6341 80.1367 41.9688 80.1367C40.9661 80.1367 40.1527 79.7881 39.5283 79.0908C38.9085 78.3936 38.5986 77.4707 38.5986 76.3223V76.2334ZM39.8701 76.3838C39.8701 77.2041 40.0592 77.8626 40.4375 78.3594C40.8203 78.8561 41.3307 79.1045 41.9688 79.1045C42.6113 79.1045 43.1217 78.8538 43.5 78.3525C43.8783 77.8467 44.0674 77.1403 44.0674 76.2334C44.0674 75.4222 43.8737 74.766 43.4863 74.2646C43.1035 73.7588 42.5931 73.5059 41.9551 73.5059C41.3307 73.5059 40.8271 73.7542 40.4443 74.251C40.0615 74.7477 39.8701 75.4587 39.8701 76.3838ZM46.6104 76.2402C46.6104 75.1055 46.8792 74.194 47.417 73.5059C47.9548 72.8132 48.6589 72.4668 49.5293 72.4668C50.3952 72.4668 51.0811 72.763 51.5869 73.3555V69.5H52.8516V80H51.6895L51.6279 79.207C51.1221 79.8268 50.418 80.1367 49.5156 80.1367C48.6589 80.1367 47.9593 79.7858 47.417 79.084C46.8792 78.3822 46.6104 77.4661 46.6104 76.3359V76.2402ZM47.875 76.3838C47.875 77.2223 48.0482 77.8786 48.3945 78.3525C48.7409 78.8265 49.2194 79.0635 49.8301 79.0635C50.6322 79.0635 51.2178 78.7035 51.5869 77.9834V74.5859C51.2087 73.8887 50.6276 73.54 49.8438 73.54C49.224 73.54 48.7409 73.7793 48.3945 74.2578C48.0482 74.7363 47.875 75.445 47.875 76.3838ZM59.3867 80C59.3138 79.8542 59.2546 79.5944 59.209 79.2207C58.6211 79.8314 57.9193 80.1367 57.1035 80.1367C56.3743 80.1367 55.7751 79.9316 55.3057 79.5215C54.8408 79.1068 54.6084 78.5827 54.6084 77.9492C54.6084 77.179 54.9001 76.582 55.4834 76.1582C56.0713 75.7298 56.8962 75.5156 57.958 75.5156H59.1885V74.9346C59.1885 74.4925 59.0563 74.1416 58.792 73.8818C58.5277 73.6175 58.138 73.4854 57.623 73.4854C57.1719 73.4854 56.7936 73.5993 56.4883 73.8271C56.1829 74.055 56.0303 74.3307 56.0303 74.6543H54.7588C54.7588 74.2852 54.8887 73.9297 55.1484 73.5879C55.4128 73.2415 55.7682 72.9681 56.2148 72.7676C56.666 72.5671 57.1605 72.4668 57.6982 72.4668C58.5505 72.4668 59.2181 72.681 59.7012 73.1094C60.1842 73.5332 60.4349 74.1188 60.4531 74.8662V78.2705C60.4531 78.9495 60.5397 79.4896 60.7129 79.8906V80H59.3867ZM57.2881 79.0361C57.6846 79.0361 58.0605 78.9336 58.416 78.7285C58.7715 78.5234 59.029 78.2568 59.1885 77.9287V76.4111H58.1973C56.6478 76.4111 55.873 76.8646 55.873 77.7715C55.873 78.168 56.0052 78.4779 56.2695 78.7012C56.5339 78.9245 56.8734 79.0361 57.2881 79.0361ZM64.7461 78.1475L66.4688 72.6035H67.8223L64.8486 81.1416C64.3883 82.3721 63.6569 82.9873 62.6543 82.9873L62.415 82.9668L61.9434 82.8779V81.8525L62.2852 81.8799C62.7135 81.8799 63.0462 81.7933 63.2832 81.6201C63.5247 81.4469 63.723 81.1302 63.8779 80.6699L64.1582 79.918L61.5195 72.6035H62.9004L64.7461 78.1475Z" fill="#83959D"/>
<path d="M31.5918 98.4082H32.542C33.139 98.3991 33.6084 98.2419 33.9502 97.9365C34.292 97.6312 34.4629 97.2188 34.4629 96.6992C34.4629 95.5326 33.8818 94.9492 32.7197 94.9492C32.1729 94.9492 31.7354 95.1064 31.4072 95.4209C31.0837 95.7308 30.9219 96.1432 30.9219 96.6582H29.6572C29.6572 95.8698 29.9443 95.2158 30.5186 94.6963C31.0973 94.1722 31.8311 93.9102 32.7197 93.9102C33.6585 93.9102 34.3945 94.1585 34.9277 94.6553C35.4609 95.152 35.7275 95.8424 35.7275 96.7266C35.7275 97.1595 35.5863 97.5788 35.3037 97.9844C35.0257 98.39 34.6452 98.693 34.1621 98.8936C34.709 99.0667 35.1305 99.3538 35.4268 99.7549C35.7275 100.156 35.8779 100.646 35.8779 101.225C35.8779 102.118 35.5863 102.826 35.0029 103.351C34.4196 103.875 33.6608 104.137 32.7266 104.137C31.7923 104.137 31.0312 103.884 30.4434 103.378C29.86 102.872 29.5684 102.204 29.5684 101.375H30.8398C30.8398 101.899 31.0107 102.318 31.3525 102.633C31.6943 102.947 32.1523 103.104 32.7266 103.104C33.3372 103.104 33.8044 102.945 34.1279 102.626C34.4515 102.307 34.6133 101.849 34.6133 101.252C34.6133 100.673 34.4355 100.229 34.0801 99.9189C33.7246 99.609 33.2119 99.4495 32.542 99.4404H31.5918V98.4082ZM44.4502 99.0439L47.0479 94.0469H48.5381L45.1064 100.288V104H43.7939V100.288L40.3623 94.0469H41.8662L44.4502 99.0439ZM52.2432 104.137C51.2406 104.137 50.4248 103.809 49.7959 103.152C49.167 102.492 48.8525 101.61 48.8525 100.507V100.274C48.8525 99.5407 48.9915 98.8867 49.2695 98.3125C49.5521 97.7337 49.944 97.2826 50.4453 96.959C50.9512 96.6309 51.498 96.4668 52.0859 96.4668C53.0475 96.4668 53.7949 96.7835 54.3281 97.417C54.8613 98.0505 55.1279 98.9574 55.1279 100.138V100.664H50.1172C50.1354 101.393 50.3473 101.983 50.7529 102.435C51.1631 102.881 51.6826 103.104 52.3115 103.104C52.7581 103.104 53.1364 103.013 53.4463 102.831C53.7562 102.649 54.0273 102.407 54.2598 102.106L55.0322 102.708C54.4124 103.66 53.4827 104.137 52.2432 104.137ZM52.0859 97.5059C51.5755 97.5059 51.1471 97.6927 50.8008 98.0664C50.4544 98.4355 50.2402 98.9551 50.1582 99.625H53.8633V99.5293C53.8268 98.8867 53.6536 98.39 53.3438 98.0391C53.0339 97.6836 52.6146 97.5059 52.0859 97.5059ZM61.1641 104C61.0911 103.854 61.0319 103.594 60.9863 103.221C60.3984 103.831 59.6966 104.137 58.8809 104.137C58.1517 104.137 57.5524 103.932 57.083 103.521C56.6182 103.107 56.3857 102.583 56.3857 101.949C56.3857 101.179 56.6774 100.582 57.2607 100.158C57.8486 99.7298 58.6735 99.5156 59.7354 99.5156H60.9658V98.9346C60.9658 98.4925 60.8337 98.1416 60.5693 97.8818C60.305 97.6175 59.9154 97.4854 59.4004 97.4854C58.9492 97.4854 58.571 97.5993 58.2656 97.8271C57.9603 98.055 57.8076 98.3307 57.8076 98.6543H56.5361C56.5361 98.2852 56.666 97.9297 56.9258 97.5879C57.1901 97.2415 57.5456 96.9681 57.9922 96.7676C58.4434 96.5671 58.9378 96.4668 59.4756 96.4668C60.3278 96.4668 60.9954 96.681 61.4785 97.1094C61.9616 97.5332 62.2122 98.1188 62.2305 98.8662V102.271C62.2305 102.95 62.3171 103.49 62.4902 103.891V104H61.1641ZM59.0654 103.036C59.4619 103.036 59.8379 102.934 60.1934 102.729C60.5488 102.523 60.8063 102.257 60.9658 101.929V100.411H59.9746C58.4251 100.411 57.6504 100.865 57.6504 101.771C57.6504 102.168 57.7826 102.478 58.0469 102.701C58.3112 102.924 58.6507 103.036 59.0654 103.036ZM67.7881 97.7383C67.5967 97.7064 67.3893 97.6904 67.166 97.6904C66.3366 97.6904 65.7738 98.0436 65.4775 98.75V104H64.2129V96.6035H65.4434L65.4639 97.458C65.8786 96.7972 66.4665 96.4668 67.2275 96.4668C67.4736 96.4668 67.6605 96.4987 67.7881 96.5625V97.7383Z" fill="#83959D"/>
<path d="M34.7158 118.04V119.113H34.4834C33.499 119.132 32.7152 119.423 32.1318 119.988C31.5485 120.553 31.2113 121.349 31.1201 122.374C31.6442 121.772 32.3597 121.472 33.2666 121.472C34.1325 121.472 34.8229 121.777 35.3379 122.388C35.8574 122.998 36.1172 123.787 36.1172 124.753C36.1172 125.778 35.8369 126.599 35.2764 127.214C34.7204 127.829 33.973 128.137 33.0342 128.137C32.0817 128.137 31.3092 127.772 30.7168 127.043C30.1243 126.309 29.8281 125.366 29.8281 124.213V123.728C29.8281 121.896 30.2178 120.496 30.9971 119.53C31.7809 118.56 32.9453 118.063 34.4902 118.04H34.7158ZM33.0547 122.524C32.6217 122.524 32.223 122.654 31.8584 122.914C31.4938 123.174 31.2409 123.5 31.0996 123.892V124.356C31.0996 125.177 31.2842 125.838 31.6533 126.339C32.0225 126.84 32.4827 127.091 33.0342 127.091C33.6038 127.091 34.0505 126.881 34.374 126.462C34.7021 126.043 34.8662 125.493 34.8662 124.814C34.8662 124.131 34.6999 123.579 34.3672 123.16C34.0391 122.736 33.6016 122.524 33.0547 122.524ZM44.4502 123.044L47.0479 118.047H48.5381L45.1064 124.288V128H43.7939V124.288L40.3623 118.047H41.8662L44.4502 123.044ZM52.2432 128.137C51.2406 128.137 50.4248 127.809 49.7959 127.152C49.167 126.492 48.8525 125.61 48.8525 124.507V124.274C48.8525 123.541 48.9915 122.887 49.2695 122.312C49.5521 121.734 49.944 121.283 50.4453 120.959C50.9512 120.631 51.498 120.467 52.0859 120.467C53.0475 120.467 53.7949 120.784 54.3281 121.417C54.8613 122.05 55.1279 122.957 55.1279 124.138V124.664H50.1172C50.1354 125.393 50.3473 125.983 50.7529 126.435C51.1631 126.881 51.6826 127.104 52.3115 127.104C52.7581 127.104 53.1364 127.013 53.4463 126.831C53.7562 126.649 54.0273 126.407 54.2598 126.106L55.0322 126.708C54.4124 127.66 53.4827 128.137 52.2432 128.137ZM52.0859 121.506C51.5755 121.506 51.1471 121.693 50.8008 122.066C50.4544 122.436 50.2402 122.955 50.1582 123.625H53.8633V123.529C53.8268 122.887 53.6536 122.39 53.3438 122.039C53.0339 121.684 52.6146 121.506 52.0859 121.506ZM61.1641 128C61.0911 127.854 61.0319 127.594 60.9863 127.221C60.3984 127.831 59.6966 128.137 58.8809 128.137C58.1517 128.137 57.5524 127.932 57.083 127.521C56.6182 127.107 56.3857 126.583 56.3857 125.949C56.3857 125.179 56.6774 124.582 57.2607 124.158C57.8486 123.73 58.6735 123.516 59.7354 123.516H60.9658V122.935C60.9658 122.493 60.8337 122.142 60.5693 121.882C60.305 121.618 59.9154 121.485 59.4004 121.485C58.9492 121.485 58.571 121.599 58.2656 121.827C57.9603 122.055 57.8076 122.331 57.8076 122.654H56.5361C56.5361 122.285 56.666 121.93 56.9258 121.588C57.1901 121.242 57.5456 120.968 57.9922 120.768C58.4434 120.567 58.9378 120.467 59.4756 120.467C60.3278 120.467 60.9954 120.681 61.4785 121.109C61.9616 121.533 62.2122 122.119 62.2305 122.866V126.271C62.2305 126.95 62.3171 127.49 62.4902 127.891V128H61.1641ZM59.0654 127.036C59.4619 127.036 59.8379 126.934 60.1934 126.729C60.5488 126.523 60.8063 126.257 60.9658 125.929V124.411H59.9746C58.4251 124.411 57.6504 124.865 57.6504 125.771C57.6504 126.168 57.7826 126.478 58.0469 126.701C58.3112 126.924 58.6507 127.036 59.0654 127.036ZM67.7881 121.738C67.5967 121.706 67.3893 121.69 67.166 121.69C66.3366 121.69 65.7738 122.044 65.4775 122.75V128H64.2129V120.604H65.4434L65.4639 121.458C65.8786 120.797 66.4665 120.467 67.2275 120.467C67.4736 120.467 67.6605 120.499 67.7881 120.562V121.738Z" fill="#83959D"/>
<rect x="78" y="46" width="100" height="10" fill="#5DC644"/>
<path d="M189.207 51.7227L189.641 47.4688H194.012V48.4707H190.561L190.303 50.7969C190.721 50.5508 191.195 50.4277 191.727 50.4277C192.504 50.4277 193.121 50.6855 193.578 51.2012C194.035 51.7129 194.264 52.4062 194.264 53.2812C194.264 54.1602 194.025 54.8535 193.549 55.3613C193.076 55.8652 192.414 56.1172 191.562 56.1172C190.809 56.1172 190.193 55.9082 189.717 55.4902C189.24 55.0723 188.969 54.4941 188.902 53.7559H189.928C189.994 54.2441 190.168 54.6133 190.449 54.8633C190.73 55.1094 191.102 55.2324 191.562 55.2324C192.066 55.2324 192.461 55.0605 192.746 54.7168C193.035 54.373 193.18 53.8984 193.18 53.293C193.18 52.7227 193.023 52.2656 192.711 51.9219C192.402 51.5742 191.99 51.4004 191.475 51.4004C191.002 51.4004 190.631 51.5039 190.361 51.7109L190.074 51.9453L189.207 51.7227ZM197.023 51.207H197.838C198.35 51.1992 198.752 51.0645 199.045 50.8027C199.338 50.541 199.484 50.1875 199.484 49.7422C199.484 48.7422 198.986 48.2422 197.99 48.2422C197.521 48.2422 197.146 48.377 196.865 48.6465C196.588 48.9121 196.449 49.2656 196.449 49.707H195.365C195.365 49.0312 195.611 48.4707 196.104 48.0254C196.6 47.5762 197.229 47.3516 197.99 47.3516C198.795 47.3516 199.426 47.5645 199.883 47.9902C200.34 48.416 200.568 49.0078 200.568 49.7656C200.568 50.1367 200.447 50.4961 200.205 50.8438C199.967 51.1914 199.641 51.4512 199.227 51.623C199.695 51.7715 200.057 52.0176 200.311 52.3613C200.568 52.7051 200.697 53.125 200.697 53.6211C200.697 54.3867 200.447 54.9941 199.947 55.4434C199.447 55.8926 198.797 56.1172 197.996 56.1172C197.195 56.1172 196.543 55.9004 196.039 55.4668C195.539 55.0332 195.289 54.4609 195.289 53.75H196.379C196.379 54.1992 196.525 54.5586 196.818 54.8281C197.111 55.0977 197.504 55.2324 197.996 55.2324C198.52 55.2324 198.92 55.0957 199.197 54.8223C199.475 54.5488 199.613 54.1562 199.613 53.6445C199.613 53.1484 199.461 52.7676 199.156 52.502C198.852 52.2363 198.412 52.0996 197.838 52.0918H197.023V51.207ZM202.262 57.6992L201.646 57.2773C202.014 56.7656 202.205 56.2383 202.221 55.6953V54.7168H203.281V55.5664C203.281 55.9609 203.184 56.3555 202.988 56.75C202.797 57.1445 202.555 57.4609 202.262 57.6992ZM209.891 52.3613C209.891 53.6309 209.674 54.5742 209.24 55.1914C208.807 55.8086 208.129 56.1172 207.207 56.1172C206.297 56.1172 205.623 55.8164 205.186 55.2148C204.748 54.6094 204.521 53.707 204.506 52.5078V51.0605C204.506 49.8066 204.723 48.875 205.156 48.2656C205.59 47.6562 206.27 47.3516 207.195 47.3516C208.113 47.3516 208.789 47.6465 209.223 48.2363C209.656 48.8223 209.879 49.7285 209.891 50.9551V52.3613ZM208.807 50.8789C208.807 49.9609 208.678 49.293 208.42 48.875C208.162 48.4531 207.754 48.2422 207.195 48.2422C206.641 48.2422 206.236 48.4512 205.982 48.8691C205.729 49.2871 205.598 49.9297 205.59 50.7969V52.5312C205.59 53.4531 205.723 54.1348 205.988 54.5762C206.258 55.0137 206.664 55.2324 207.207 55.2324C207.742 55.2324 208.139 55.0254 208.396 54.6113C208.658 54.1973 208.795 53.5449 208.807 52.6543V50.8789ZM216.629 52.3613C216.629 53.6309 216.412 54.5742 215.979 55.1914C215.545 55.8086 214.867 56.1172 213.945 56.1172C213.035 56.1172 212.361 55.8164 211.924 55.2148C211.486 54.6094 211.26 53.707 211.244 52.5078V51.0605C211.244 49.8066 211.461 48.875 211.895 48.2656C212.328 47.6562 213.008 47.3516 213.934 47.3516C214.852 47.3516 215.527 47.6465 215.961 48.2363C216.395 48.8223 216.617 49.7285 216.629 50.9551V52.3613ZM215.545 50.8789C215.545 49.9609 215.416 49.293 215.158 48.875C214.9 48.4531 214.492 48.2422 213.934 48.2422C213.379 48.2422 212.975 48.4512 212.721 48.8691C212.467 49.2871 212.336 49.9297 212.328 50.7969V52.5312C212.328 53.4531 212.461 54.1348 212.727 54.5762C212.996 55.0137 213.402 55.2324 213.945 55.2324C214.48 55.2324 214.877 55.0254 215.135 54.6113C215.396 54.1973 215.533 53.5449 215.545 52.6543V50.8789ZM223.367 52.3613C223.367 53.6309 223.15 54.5742 222.717 55.1914C222.283 55.8086 221.605 56.1172 220.684 56.1172C219.773 56.1172 219.1 55.8164 218.662 55.2148C218.225 54.6094 217.998 53.707 217.982 52.5078V51.0605C217.982 49.8066 218.199 48.875 218.633 48.2656C219.066 47.6562 219.746 47.3516 220.672 47.3516C221.59 47.3516 222.266 47.6465 222.699 48.2363C223.133 48.8223 223.355 49.7285 223.367 50.9551V52.3613ZM222.283 50.8789C222.283 49.9609 222.154 49.293 221.896 48.875C221.639 48.4531 221.23 48.2422 220.672 48.2422C220.117 48.2422 219.713 48.4512 219.459 48.8691C219.205 49.2871 219.074 49.9297 219.066 50.7969V52.5312C219.066 53.4531 219.199 54.1348 219.465 54.5762C219.734 55.0137 220.141 55.2324 220.684 55.2324C221.219 55.2324 221.615 55.0254 221.873 54.6113C222.135 54.1973 222.271 53.5449 222.283 52.6543V50.8789Z" fill="#83959D"/>
<rect x="78" y="70" width="105" height="10" fill="#008FFF"/>
<path d="M194.207 75.7227L194.641 71.4688H199.012V72.4707H195.561L195.303 74.7969C195.721 74.5508 196.195 74.4277 196.727 74.4277C197.504 74.4277 198.121 74.6855 198.578 75.2012C199.035 75.7129 199.264 76.4062 199.264 77.2812C199.264 78.1602 199.025 78.8535 198.549 79.3613C198.076 79.8652 197.414 80.1172 196.562 80.1172C195.809 80.1172 195.193 79.9082 194.717 79.4902C194.24 79.0723 193.969 78.4941 193.902 77.7559H194.928C194.994 78.2441 195.168 78.6133 195.449 78.8633C195.73 79.1094 196.102 79.2324 196.562 79.2324C197.066 79.2324 197.461 79.0605 197.746 78.7168C198.035 78.373 198.18 77.8984 198.18 77.293C198.18 76.7227 198.023 76.2656 197.711 75.9219C197.402 75.5742 196.99 75.4004 196.475 75.4004C196.002 75.4004 195.631 75.5039 195.361 75.7109L195.074 75.9453L194.207 75.7227ZM204.701 71.4629V72.3828H204.502C203.658 72.3984 202.986 72.6484 202.486 73.1328C201.986 73.6172 201.697 74.2988 201.619 75.1777C202.068 74.6621 202.682 74.4043 203.459 74.4043C204.201 74.4043 204.793 74.666 205.234 75.1895C205.68 75.7129 205.902 76.3887 205.902 77.2168C205.902 78.0957 205.662 78.7988 205.182 79.3262C204.705 79.8535 204.064 80.1172 203.26 80.1172C202.443 80.1172 201.781 79.8047 201.273 79.1797C200.766 78.5508 200.512 77.7422 200.512 76.7539V76.3379C200.512 74.7676 200.846 73.5684 201.514 72.7402C202.186 71.9082 203.184 71.4824 204.508 71.4629H204.701ZM203.277 75.3066C202.906 75.3066 202.564 75.418 202.252 75.6406C201.939 75.8633 201.723 76.1426 201.602 76.4785V76.877C201.602 77.5801 201.76 78.1465 202.076 78.5762C202.393 79.0059 202.787 79.2207 203.26 79.2207C203.748 79.2207 204.131 79.041 204.408 78.6816C204.689 78.3223 204.83 77.8516 204.83 77.2695C204.83 76.6836 204.688 76.2109 204.402 75.8516C204.121 75.4883 203.746 75.3066 203.277 75.3066ZM207.262 81.6992L206.646 81.2773C207.014 80.7656 207.205 80.2383 207.221 79.6953V78.7168H208.281V79.5664C208.281 79.9609 208.184 80.3555 207.988 80.75C207.797 81.1445 207.555 81.4609 207.262 81.6992ZM213.104 80H212.014V72.7754L209.828 73.5781V72.5938L212.934 71.4277H213.104V80ZM221.629 76.3613C221.629 77.6309 221.412 78.5742 220.979 79.1914C220.545 79.8086 219.867 80.1172 218.945 80.1172C218.035 80.1172 217.361 79.8164 216.924 79.2148C216.486 78.6094 216.26 77.707 216.244 76.5078V75.0605C216.244 73.8066 216.461 72.875 216.895 72.2656C217.328 71.6562 218.008 71.3516 218.934 71.3516C219.852 71.3516 220.527 71.6465 220.961 72.2363C221.395 72.8223 221.617 73.7285 221.629 74.9551V76.3613ZM220.545 74.8789C220.545 73.9609 220.416 73.293 220.158 72.875C219.9 72.4531 219.492 72.2422 218.934 72.2422C218.379 72.2422 217.975 72.4512 217.721 72.8691C217.467 73.2871 217.336 73.9297 217.328 74.7969V76.5312C217.328 77.4531 217.461 78.1348 217.727 78.5762C217.996 79.0137 218.402 79.2324 218.945 79.2324C219.48 79.2324 219.877 79.0254 220.135 78.6113C220.396 78.1973 220.533 77.5449 220.545 76.6543V74.8789ZM228.367 76.3613C228.367 77.6309 228.15 78.5742 227.717 79.1914C227.283 79.8086 226.605 80.1172 225.684 80.1172C224.773 80.1172 224.1 79.8164 223.662 79.2148C223.225 78.6094 222.998 77.707 222.982 76.5078V75.0605C222.982 73.8066 223.199 72.875 223.633 72.2656C224.066 71.6562 224.746 71.3516 225.672 71.3516C226.59 71.3516 227.266 71.6465 227.699 72.2363C228.133 72.8223 228.355 73.7285 228.367 74.9551V76.3613ZM227.283 74.8789C227.283 73.9609 227.154 73.293 226.896 72.875C226.639 72.4531 226.23 72.2422 225.672 72.2422C225.117 72.2422 224.713 72.4512 224.459 72.8691C224.205 73.2871 224.074 73.9297 224.066 74.7969V76.5312C224.066 77.4531 224.199 78.1348 224.465 78.5762C224.734 79.0137 225.141 79.2324 225.684 79.2324C226.219 79.2324 226.615 79.0254 226.873 78.6113C227.135 78.1973 227.271 77.5449 227.283 76.6543V74.8789Z" fill="#83959D"/>
<rect x="78" y="94" width="130" height="10" fill="#FFC100"/>
<path d="M224.217 96.0781L220.684 104H219.547L223.068 96.3594H218.451V95.4688H224.217V96.0781ZM227.023 99.207H227.838C228.35 99.1992 228.752 99.0645 229.045 98.8027C229.338 98.541 229.484 98.1875 229.484 97.7422C229.484 96.7422 228.986 96.2422 227.99 96.2422C227.521 96.2422 227.146 96.377 226.865 96.6465C226.588 96.9121 226.449 97.2656 226.449 97.707H225.365C225.365 97.0312 225.611 96.4707 226.104 96.0254C226.6 95.5762 227.229 95.3516 227.99 95.3516C228.795 95.3516 229.426 95.5645 229.883 95.9902C230.34 96.416 230.568 97.0078 230.568 97.7656C230.568 98.1367 230.447 98.4961 230.205 98.8438C229.967 99.1914 229.641 99.4512 229.227 99.623C229.695 99.7715 230.057 100.018 230.311 100.361C230.568 100.705 230.697 101.125 230.697 101.621C230.697 102.387 230.447 102.994 229.947 103.443C229.447 103.893 228.797 104.117 227.996 104.117C227.195 104.117 226.543 103.9 226.039 103.467C225.539 103.033 225.289 102.461 225.289 101.75H226.379C226.379 102.199 226.525 102.559 226.818 102.828C227.111 103.098 227.504 103.232 227.996 103.232C228.52 103.232 228.92 103.096 229.197 102.822C229.475 102.549 229.613 102.156 229.613 101.645C229.613 101.148 229.461 100.768 229.156 100.502C228.852 100.236 228.412 100.1 227.838 100.092H227.023V99.207ZM232.262 105.699L231.646 105.277C232.014 104.766 232.205 104.238 232.221 103.695V102.717H233.281V103.566C233.281 103.961 233.184 104.355 232.988 104.75C232.797 105.145 232.555 105.461 232.262 105.699ZM239.891 100.361C239.891 101.631 239.674 102.574 239.24 103.191C238.807 103.809 238.129 104.117 237.207 104.117C236.297 104.117 235.623 103.816 235.186 103.215C234.748 102.609 234.521 101.707 234.506 100.508V99.0605C234.506 97.8066 234.723 96.875 235.156 96.2656C235.59 95.6562 236.27 95.3516 237.195 95.3516C238.113 95.3516 238.789 95.6465 239.223 96.2363C239.656 96.8223 239.879 97.7285 239.891 98.9551V100.361ZM238.807 98.8789C238.807 97.9609 238.678 97.293 238.42 96.875C238.162 96.4531 237.754 96.2422 237.195 96.2422C236.641 96.2422 236.236 96.4512 235.982 96.8691C235.729 97.2871 235.598 97.9297 235.59 98.7969V100.531C235.59 101.453 235.723 102.135 235.988 102.576C236.258 103.014 236.664 103.232 237.207 103.232C237.742 103.232 238.139 103.025 238.396 102.611C238.658 102.197 238.795 101.545 238.807 100.654V98.8789ZM246.629 100.361C246.629 101.631 246.412 102.574 245.979 103.191C245.545 103.809 244.867 104.117 243.945 104.117C243.035 104.117 242.361 103.816 241.924 103.215C241.486 102.609 241.26 101.707 241.244 100.508V99.0605C241.244 97.8066 241.461 96.875 241.895 96.2656C242.328 95.6562 243.008 95.3516 243.934 95.3516C244.852 95.3516 245.527 95.6465 245.961 96.2363C246.395 96.8223 246.617 97.7285 246.629 98.9551V100.361ZM245.545 98.8789C245.545 97.9609 245.416 97.293 245.158 96.875C244.9 96.4531 244.492 96.2422 243.934 96.2422C243.379 96.2422 242.975 96.4512 242.721 96.8691C242.467 97.2871 242.336 97.9297 242.328 98.7969V100.531C242.328 101.453 242.461 102.135 242.727 102.576C242.996 103.014 243.402 103.232 243.945 103.232C244.48 103.232 244.877 103.025 245.135 102.611C245.396 102.197 245.533 101.545 245.545 100.654V98.8789ZM253.367 100.361C253.367 101.631 253.15 102.574 252.717 103.191C252.283 103.809 251.605 104.117 250.684 104.117C249.773 104.117 249.1 103.816 248.662 103.215C248.225 102.609 247.998 101.707 247.982 100.508V99.0605C247.982 97.8066 248.199 96.875 248.633 96.2656C249.066 95.6562 249.746 95.3516 250.672 95.3516C251.59 95.3516 252.266 95.6465 252.699 96.2363C253.133 96.8223 253.355 97.7285 253.367 98.9551V100.361ZM252.283 98.8789C252.283 97.9609 252.154 97.293 251.896 96.875C251.639 96.4531 251.23 96.2422 250.672 96.2422C250.117 96.2422 249.713 96.4512 249.459 96.8691C249.205 97.2871 249.074 97.9297 249.066 98.7969V100.531C249.066 101.453 249.199 102.135 249.465 102.576C249.734 103.014 250.141 103.232 250.684 103.232C251.219 103.232 251.615 103.025 251.873 102.611C252.135 102.197 252.271 101.545 252.283 100.654V98.8789Z" fill="#83959D"/>
<rect x="78" y="118" width="190" height="10" fill="#FF6823"/>
<path d="M282.271 128H281.182V120.775L278.996 121.578V120.594L282.102 119.428H282.271V128ZM285.523 129.699L284.908 129.277C285.275 128.766 285.467 128.238 285.482 127.695V126.717H286.543V127.566C286.543 127.961 286.445 128.355 286.25 128.75C286.059 129.145 285.816 129.461 285.523 129.699ZM293.393 128H287.803V127.221L290.756 123.939C291.193 123.443 291.494 123.041 291.658 122.732C291.826 122.42 291.91 122.098 291.91 121.766C291.91 121.32 291.775 120.955 291.506 120.67C291.236 120.385 290.877 120.242 290.428 120.242C289.889 120.242 289.469 120.396 289.168 120.705C288.871 121.01 288.723 121.436 288.723 121.982H287.639C287.639 121.197 287.891 120.562 288.395 120.078C288.902 119.594 289.58 119.352 290.428 119.352C291.221 119.352 291.848 119.561 292.309 119.979C292.77 120.393 293 120.945 293 121.637C293 122.477 292.465 123.477 291.395 124.637L289.109 127.115H293.393V128ZM296.117 123.207H296.932C297.443 123.199 297.846 123.064 298.139 122.803C298.432 122.541 298.578 122.188 298.578 121.742C298.578 120.742 298.08 120.242 297.084 120.242C296.615 120.242 296.24 120.377 295.959 120.646C295.682 120.912 295.543 121.266 295.543 121.707H294.459C294.459 121.031 294.705 120.471 295.197 120.025C295.693 119.576 296.322 119.352 297.084 119.352C297.889 119.352 298.52 119.564 298.977 119.99C299.434 120.416 299.662 121.008 299.662 121.766C299.662 122.137 299.541 122.496 299.299 122.844C299.061 123.191 298.734 123.451 298.32 123.623C298.789 123.771 299.15 124.018 299.404 124.361C299.662 124.705 299.791 125.125 299.791 125.621C299.791 126.387 299.541 126.994 299.041 127.443C298.541 127.893 297.891 128.117 297.09 128.117C296.289 128.117 295.637 127.9 295.133 127.467C294.633 127.033 294.383 126.461 294.383 125.75H295.473C295.473 126.199 295.619 126.559 295.912 126.828C296.205 127.098 296.598 127.232 297.09 127.232C297.613 127.232 298.014 127.096 298.291 126.822C298.568 126.549 298.707 126.156 298.707 125.645C298.707 125.148 298.555 124.768 298.25 124.502C297.945 124.236 297.506 124.1 296.932 124.092H296.117V123.207ZM301.355 129.699L300.74 129.277C301.107 128.766 301.299 128.238 301.314 127.695V126.717H302.375V127.566C302.375 127.961 302.277 128.355 302.082 128.75C301.891 129.145 301.648 129.461 301.355 129.699ZM308.984 124.361C308.984 125.631 308.768 126.574 308.334 127.191C307.9 127.809 307.223 128.117 306.301 128.117C305.391 128.117 304.717 127.816 304.279 127.215C303.842 126.609 303.615 125.707 303.6 124.508V123.061C303.6 121.807 303.816 120.875 304.25 120.266C304.684 119.656 305.363 119.352 306.289 119.352C307.207 119.352 307.883 119.646 308.316 120.236C308.75 120.822 308.973 121.729 308.984 122.955V124.361ZM307.9 122.879C307.9 121.961 307.771 121.293 307.514 120.875C307.256 120.453 306.848 120.242 306.289 120.242C305.734 120.242 305.33 120.451 305.076 120.869C304.822 121.287 304.691 121.93 304.684 122.797V124.531C304.684 125.453 304.816 126.135 305.082 126.576C305.352 127.014 305.758 127.232 306.301 127.232C306.836 127.232 307.232 127.025 307.49 126.611C307.752 126.197 307.889 125.545 307.9 124.654V122.879ZM315.723 124.361C315.723 125.631 315.506 126.574 315.072 127.191C314.639 127.809 313.961 128.117 313.039 128.117C312.129 128.117 311.455 127.816 311.018 127.215C310.58 126.609 310.354 125.707 310.338 124.508V123.061C310.338 121.807 310.555 120.875 310.988 120.266C311.422 119.656 312.102 119.352 313.027 119.352C313.945 119.352 314.621 119.646 315.055 120.236C315.488 120.822 315.711 121.729 315.723 122.955V124.361ZM314.639 122.879C314.639 121.961 314.51 121.293 314.252 120.875C313.994 120.453 313.586 120.242 313.027 120.242C312.473 120.242 312.068 120.451 311.814 120.869C311.561 121.287 311.43 121.93 311.422 122.797V124.531C311.422 125.453 311.555 126.135 311.82 126.576C312.09 127.014 312.496 127.232 313.039 127.232C313.574 127.232 313.971 127.025 314.229 126.611C314.49 126.197 314.627 125.545 314.639 124.654V122.879ZM322.461 124.361C322.461 125.631 322.244 126.574 321.811 127.191C321.377 127.809 320.699 128.117 319.777 128.117C318.867 128.117 318.193 127.816 317.756 127.215C317.318 126.609 317.092 125.707 317.076 124.508V123.061C317.076 121.807 317.293 120.875 317.727 120.266C318.16 119.656 318.84 119.352 319.766 119.352C320.684 119.352 321.359 119.646 321.793 120.236C322.227 120.822 322.449 121.729 322.461 122.955V124.361ZM321.377 122.879C321.377 121.961 321.248 121.293 320.99 120.875C320.732 120.453 320.324 120.242 319.766 120.242C319.211 120.242 318.807 120.451 318.553 120.869C318.299 121.287 318.168 121.93 318.16 122.797V124.531C318.16 125.453 318.293 126.135 318.559 126.576C318.828 127.014 319.234 127.232 319.777 127.232C320.312 127.232 320.709 127.025 320.967 126.611C321.229 126.197 321.365 125.545 321.377 124.654V122.879Z" fill="#83959D"/>
<path d="M400.028 51.3447C400.028 52.32 399.864 53.1722 399.536 53.9014C399.208 54.626 398.743 55.1797 398.142 55.5625C397.54 55.9453 396.838 56.1367 396.036 56.1367C395.252 56.1367 394.557 55.9453 393.951 55.5625C393.345 55.1751 392.873 54.626 392.536 53.915C392.203 53.1995 392.033 52.3724 392.023 51.4336V50.7158C392.023 49.7588 392.19 48.9134 392.522 48.1797C392.855 47.446 393.325 46.8854 393.931 46.498C394.541 46.1061 395.239 45.9102 396.022 45.9102C396.82 45.9102 397.522 46.1038 398.128 46.4912C398.739 46.874 399.208 47.4323 399.536 48.166C399.864 48.8952 400.028 49.7451 400.028 50.7158V51.3447ZM398.723 50.7021C398.723 49.5218 398.486 48.6172 398.012 47.9883C397.538 47.3548 396.875 47.0381 396.022 47.0381C395.193 47.0381 394.539 47.3548 394.061 47.9883C393.587 48.6172 393.343 49.4922 393.329 50.6133V51.3447C393.329 52.4886 393.568 53.3887 394.047 54.0449C394.53 54.6966 395.193 55.0225 396.036 55.0225C396.884 55.0225 397.54 54.7148 398.005 54.0996C398.47 53.4798 398.709 52.5934 398.723 51.4404V50.7021ZM405.374 49.7383C405.183 49.7064 404.975 49.6904 404.752 49.6904C403.923 49.6904 403.36 50.0436 403.063 50.75V56H401.799V48.6035H403.029L403.05 49.458C403.465 48.7972 404.052 48.4668 404.813 48.4668C405.06 48.4668 405.246 48.4987 405.374 48.5625V49.7383ZM407.917 56H406.652V48.6035H407.917V56ZM406.55 46.6416C406.55 46.4365 406.611 46.2633 406.734 46.1221C406.862 45.9808 407.049 45.9102 407.295 45.9102C407.541 45.9102 407.728 45.9808 407.855 46.1221C407.983 46.2633 408.047 46.4365 408.047 46.6416C408.047 46.8467 407.983 47.0176 407.855 47.1543C407.728 47.291 407.541 47.3594 407.295 47.3594C407.049 47.3594 406.862 47.291 406.734 47.1543C406.611 47.0176 406.55 46.8467 406.55 46.6416ZM409.646 52.2402C409.646 51.0872 409.913 50.1712 410.446 49.4922C410.979 48.8086 411.686 48.4668 412.565 48.4668C413.468 48.4668 414.172 48.7858 414.678 49.4238L414.739 48.6035H415.895V55.8223C415.895 56.7793 415.61 57.5335 415.04 58.085C414.475 58.6364 413.714 58.9121 412.757 58.9121C412.224 58.9121 411.702 58.7982 411.191 58.5703C410.681 58.3424 410.291 58.0303 410.022 57.6338L410.679 56.875C411.221 57.5449 411.884 57.8799 412.668 57.8799C413.283 57.8799 413.762 57.7067 414.104 57.3604C414.45 57.014 414.623 56.5264 414.623 55.8975V55.2617C414.117 55.8451 413.427 56.1367 412.552 56.1367C411.686 56.1367 410.984 55.7881 410.446 55.0908C409.913 54.3936 409.646 53.4434 409.646 52.2402ZM410.918 52.3838C410.918 53.2178 411.089 53.874 411.431 54.3525C411.772 54.8265 412.251 55.0635 412.866 55.0635C413.664 55.0635 414.249 54.7012 414.623 53.9766V50.5996C414.236 49.8932 413.655 49.54 412.88 49.54C412.265 49.54 411.784 49.7793 411.438 50.2578C411.091 50.7363 410.918 51.445 410.918 52.3838ZM419.183 56H417.918V48.6035H419.183V56ZM417.815 46.6416C417.815 46.4365 417.877 46.2633 418 46.1221C418.128 45.9808 418.314 45.9102 418.561 45.9102C418.807 45.9102 418.993 45.9808 419.121 46.1221C419.249 46.2633 419.312 46.4365 419.312 46.6416C419.312 46.8467 419.249 47.0176 419.121 47.1543C418.993 47.291 418.807 47.3594 418.561 47.3594C418.314 47.3594 418.128 47.291 418 47.1543C417.877 47.0176 417.815 46.8467 417.815 46.6416ZM422.409 48.6035L422.45 49.5332C423.015 48.8223 423.754 48.4668 424.665 48.4668C426.228 48.4668 427.017 49.3486 427.03 51.1123V56H425.766V51.1055C425.761 50.5723 425.638 50.1781 425.396 49.9229C425.16 49.6676 424.788 49.54 424.282 49.54C423.872 49.54 423.512 49.6494 423.202 49.8682C422.892 50.0869 422.651 50.374 422.478 50.7295V56H421.213V48.6035H422.409ZM433.504 56C433.431 55.8542 433.372 55.5944 433.326 55.2207C432.738 55.8314 432.036 56.1367 431.221 56.1367C430.492 56.1367 429.892 55.9316 429.423 55.5215C428.958 55.1068 428.726 54.5827 428.726 53.9492C428.726 53.179 429.017 52.582 429.601 52.1582C430.188 51.7298 431.013 51.5156 432.075 51.5156H433.306V50.9346C433.306 50.4925 433.174 50.1416 432.909 49.8818C432.645 49.6175 432.255 49.4854 431.74 49.4854C431.289 49.4854 430.911 49.5993 430.605 49.8271C430.3 50.055 430.147 50.3307 430.147 50.6543H428.876C428.876 50.2852 429.006 49.9297 429.266 49.5879C429.53 49.2415 429.885 48.9681 430.332 48.7676C430.783 48.5671 431.278 48.4668 431.815 48.4668C432.668 48.4668 433.335 48.681 433.818 49.1094C434.301 49.5332 434.552 50.1188 434.57 50.8662V54.2705C434.57 54.9495 434.657 55.4896 434.83 55.8906V56H433.504ZM431.405 55.0361C431.802 55.0361 432.178 54.9336 432.533 54.7285C432.889 54.5234 433.146 54.2568 433.306 53.9287V52.4111H432.314C430.765 52.4111 429.99 52.8646 429.99 53.7715C429.99 54.168 430.122 54.4779 430.387 54.7012C430.651 54.9245 430.991 55.0361 431.405 55.0361ZM437.927 56H436.662V45.5H437.927V56Z" fill="#83959D"/>
<path d="M409.339 71.127H406.14V80H404.834V71.127H401.642V70.0469H409.339V71.127ZM409.599 76.2334C409.599 75.5088 409.74 74.8571 410.022 74.2783C410.31 73.6995 410.706 73.2529 411.212 72.9385C411.722 72.624 412.303 72.4668 412.955 72.4668C413.962 72.4668 414.776 72.8154 415.396 73.5127C416.02 74.21 416.332 75.1374 416.332 76.2949V76.3838C416.332 77.1038 416.193 77.751 415.915 78.3252C415.642 78.8949 415.247 79.3392 414.732 79.6582C414.222 79.9772 413.634 80.1367 412.969 80.1367C411.966 80.1367 411.153 79.7881 410.528 79.0908C409.909 78.3936 409.599 77.4707 409.599 76.3223V76.2334ZM410.87 76.3838C410.87 77.2041 411.059 77.8626 411.438 78.3594C411.82 78.8561 412.331 79.1045 412.969 79.1045C413.611 79.1045 414.122 78.8538 414.5 78.3525C414.878 77.8467 415.067 77.1403 415.067 76.2334C415.067 75.4222 414.874 74.766 414.486 74.2646C414.104 73.7588 413.593 73.5059 412.955 73.5059C412.331 73.5059 411.827 73.7542 411.444 74.251C411.062 74.7477 410.87 75.4587 410.87 76.3838ZM417.61 76.2402C417.61 75.1055 417.879 74.194 418.417 73.5059C418.955 72.8132 419.659 72.4668 420.529 72.4668C421.395 72.4668 422.081 72.763 422.587 73.3555V69.5H423.852V80H422.689L422.628 79.207C422.122 79.8268 421.418 80.1367 420.516 80.1367C419.659 80.1367 418.959 79.7858 418.417 79.084C417.879 78.3822 417.61 77.4661 417.61 76.3359V76.2402ZM418.875 76.3838C418.875 77.2223 419.048 77.8786 419.395 78.3525C419.741 78.8265 420.219 79.0635 420.83 79.0635C421.632 79.0635 422.218 78.7035 422.587 77.9834V74.5859C422.209 73.8887 421.628 73.54 420.844 73.54C420.224 73.54 419.741 73.7793 419.395 74.2578C419.048 74.7363 418.875 75.445 418.875 76.3838ZM430.387 80C430.314 79.8542 430.255 79.5944 430.209 79.2207C429.621 79.8314 428.919 80.1367 428.104 80.1367C427.374 80.1367 426.775 79.9316 426.306 79.5215C425.841 79.1068 425.608 78.5827 425.608 77.9492C425.608 77.179 425.9 76.582 426.483 76.1582C427.071 75.7298 427.896 75.5156 428.958 75.5156H430.188V74.9346C430.188 74.4925 430.056 74.1416 429.792 73.8818C429.528 73.6175 429.138 73.4854 428.623 73.4854C428.172 73.4854 427.794 73.5993 427.488 73.8271C427.183 74.055 427.03 74.3307 427.03 74.6543H425.759C425.759 74.2852 425.889 73.9297 426.148 73.5879C426.413 73.2415 426.768 72.9681 427.215 72.7676C427.666 72.5671 428.16 72.4668 428.698 72.4668C429.55 72.4668 430.218 72.681 430.701 73.1094C431.184 73.5332 431.435 74.1188 431.453 74.8662V78.2705C431.453 78.9495 431.54 79.4896 431.713 79.8906V80H430.387ZM428.288 79.0361C428.685 79.0361 429.061 78.9336 429.416 78.7285C429.771 78.5234 430.029 78.2568 430.188 77.9287V76.4111H429.197C427.648 76.4111 426.873 76.8646 426.873 77.7715C426.873 78.168 427.005 78.4779 427.27 78.7012C427.534 78.9245 427.873 79.0361 428.288 79.0361ZM435.746 78.1475L437.469 72.6035H438.822L435.849 81.1416C435.388 82.3721 434.657 82.9873 433.654 82.9873L433.415 82.9668L432.943 82.8779V81.8525L433.285 81.8799C433.714 81.8799 434.046 81.7933 434.283 81.6201C434.525 81.4469 434.723 81.1302 434.878 80.6699L435.158 79.918L432.52 72.6035H433.9L435.746 78.1475Z" fill="#83959D"/>
<path d="M402.592 98.4082H403.542C404.139 98.3991 404.608 98.2419 404.95 97.9365C405.292 97.6312 405.463 97.2188 405.463 96.6992C405.463 95.5326 404.882 94.9492 403.72 94.9492C403.173 94.9492 402.735 95.1064 402.407 95.4209C402.084 95.7308 401.922 96.1432 401.922 96.6582H400.657C400.657 95.8698 400.944 95.2158 401.519 94.6963C402.097 94.1722 402.831 93.9102 403.72 93.9102C404.659 93.9102 405.395 94.1585 405.928 94.6553C406.461 95.152 406.728 95.8424 406.728 96.7266C406.728 97.1595 406.586 97.5788 406.304 97.9844C406.026 98.39 405.645 98.693 405.162 98.8936C405.709 99.0667 406.131 99.3538 406.427 99.7549C406.728 100.156 406.878 100.646 406.878 101.225C406.878 102.118 406.586 102.826 406.003 103.351C405.42 103.875 404.661 104.137 403.727 104.137C402.792 104.137 402.031 103.884 401.443 103.378C400.86 102.872 400.568 102.204 400.568 101.375H401.84C401.84 101.899 402.011 102.318 402.353 102.633C402.694 102.947 403.152 103.104 403.727 103.104C404.337 103.104 404.804 102.945 405.128 102.626C405.451 102.307 405.613 101.849 405.613 101.252C405.613 100.673 405.436 100.229 405.08 99.9189C404.725 99.609 404.212 99.4495 403.542 99.4404H402.592V98.4082ZM415.45 99.0439L418.048 94.0469H419.538L416.106 100.288V104H414.794V100.288L411.362 94.0469H412.866L415.45 99.0439ZM423.243 104.137C422.241 104.137 421.425 103.809 420.796 103.152C420.167 102.492 419.853 101.61 419.853 100.507V100.274C419.853 99.5407 419.992 98.8867 420.27 98.3125C420.552 97.7337 420.944 97.2826 421.445 96.959C421.951 96.6309 422.498 96.4668 423.086 96.4668C424.048 96.4668 424.795 96.7835 425.328 97.417C425.861 98.0505 426.128 98.9574 426.128 100.138V100.664H421.117C421.135 101.393 421.347 101.983 421.753 102.435C422.163 102.881 422.683 103.104 423.312 103.104C423.758 103.104 424.136 103.013 424.446 102.831C424.756 102.649 425.027 102.407 425.26 102.106L426.032 102.708C425.412 103.66 424.483 104.137 423.243 104.137ZM423.086 97.5059C422.576 97.5059 422.147 97.6927 421.801 98.0664C421.454 98.4355 421.24 98.9551 421.158 99.625H424.863V99.5293C424.827 98.8867 424.654 98.39 424.344 98.0391C424.034 97.6836 423.615 97.5059 423.086 97.5059ZM432.164 104C432.091 103.854 432.032 103.594 431.986 103.221C431.398 103.831 430.697 104.137 429.881 104.137C429.152 104.137 428.552 103.932 428.083 103.521C427.618 103.107 427.386 102.583 427.386 101.949C427.386 101.179 427.677 100.582 428.261 100.158C428.849 99.7298 429.674 99.5156 430.735 99.5156H431.966V98.9346C431.966 98.4925 431.834 98.1416 431.569 97.8818C431.305 97.6175 430.915 97.4854 430.4 97.4854C429.949 97.4854 429.571 97.5993 429.266 97.8271C428.96 98.055 428.808 98.3307 428.808 98.6543H427.536C427.536 98.2852 427.666 97.9297 427.926 97.5879C428.19 97.2415 428.546 96.9681 428.992 96.7676C429.443 96.5671 429.938 96.4668 430.476 96.4668C431.328 96.4668 431.995 96.681 432.479 97.1094C432.962 97.5332 433.212 98.1188 433.23 98.8662V102.271C433.23 102.95 433.317 103.49 433.49 103.891V104H432.164ZM430.065 103.036C430.462 103.036 430.838 102.934 431.193 102.729C431.549 102.523 431.806 102.257 431.966 101.929V100.411H430.975C429.425 100.411 428.65 100.865 428.65 101.771C428.65 102.168 428.783 102.478 429.047 102.701C429.311 102.924 429.651 103.036 430.065 103.036ZM438.788 97.7383C438.597 97.7064 438.389 97.6904 438.166 97.6904C437.337 97.6904 436.774 98.0436 436.478 98.75V104H435.213V96.6035H436.443L436.464 97.458C436.879 96.7972 437.466 96.4668 438.228 96.4668C438.474 96.4668 438.66 96.4987 438.788 96.5625V97.7383Z" fill="#83959D"/>
<path d="M405.716 118.04V119.113H405.483C404.499 119.132 403.715 119.423 403.132 119.988C402.549 120.553 402.211 121.349 402.12 122.374C402.644 121.772 403.36 121.472 404.267 121.472C405.132 121.472 405.823 121.777 406.338 122.388C406.857 122.998 407.117 123.787 407.117 124.753C407.117 125.778 406.837 126.599 406.276 127.214C405.72 127.829 404.973 128.137 404.034 128.137C403.082 128.137 402.309 127.772 401.717 127.043C401.124 126.309 400.828 125.366 400.828 124.213V123.728C400.828 121.896 401.218 120.496 401.997 119.53C402.781 118.56 403.945 118.063 405.49 118.04H405.716ZM404.055 122.524C403.622 122.524 403.223 122.654 402.858 122.914C402.494 123.174 402.241 123.5 402.1 123.892V124.356C402.1 125.177 402.284 125.838 402.653 126.339C403.022 126.84 403.483 127.091 404.034 127.091C404.604 127.091 405.05 126.881 405.374 126.462C405.702 126.043 405.866 125.493 405.866 124.814C405.866 124.131 405.7 123.579 405.367 123.16C405.039 122.736 404.602 122.524 404.055 122.524ZM415.45 123.044L418.048 118.047H419.538L416.106 124.288V128H414.794V124.288L411.362 118.047H412.866L415.45 123.044ZM423.243 128.137C422.241 128.137 421.425 127.809 420.796 127.152C420.167 126.492 419.853 125.61 419.853 124.507V124.274C419.853 123.541 419.992 122.887 420.27 122.312C420.552 121.734 420.944 121.283 421.445 120.959C421.951 120.631 422.498 120.467 423.086 120.467C424.048 120.467 424.795 120.784 425.328 121.417C425.861 122.05 426.128 122.957 426.128 124.138V124.664H421.117C421.135 125.393 421.347 125.983 421.753 126.435C422.163 126.881 422.683 127.104 423.312 127.104C423.758 127.104 424.136 127.013 424.446 126.831C424.756 126.649 425.027 126.407 425.26 126.106L426.032 126.708C425.412 127.66 424.483 128.137 423.243 128.137ZM423.086 121.506C422.576 121.506 422.147 121.693 421.801 122.066C421.454 122.436 421.24 122.955 421.158 123.625H424.863V123.529C424.827 122.887 424.654 122.39 424.344 122.039C424.034 121.684 423.615 121.506 423.086 121.506ZM432.164 128C432.091 127.854 432.032 127.594 431.986 127.221C431.398 127.831 430.697 128.137 429.881 128.137C429.152 128.137 428.552 127.932 428.083 127.521C427.618 127.107 427.386 126.583 427.386 125.949C427.386 125.179 427.677 124.582 428.261 124.158C428.849 123.73 429.674 123.516 430.735 123.516H431.966V122.935C431.966 122.493 431.834 122.142 431.569 121.882C431.305 121.618 430.915 121.485 430.4 121.485C429.949 121.485 429.571 121.599 429.266 121.827C428.96 122.055 428.808 122.331 428.808 122.654H427.536C427.536 122.285 427.666 121.93 427.926 121.588C428.19 121.242 428.546 120.968 428.992 120.768C429.443 120.567 429.938 120.467 430.476 120.467C431.328 120.467 431.995 120.681 432.479 121.109C432.962 121.533 433.212 122.119 433.23 122.866V126.271C433.23 126.95 433.317 127.49 433.49 127.891V128H432.164ZM430.065 127.036C430.462 127.036 430.838 126.934 431.193 126.729C431.549 126.523 431.806 126.257 431.966 125.929V124.411H430.975C429.425 124.411 428.65 124.865 428.65 125.771C428.65 126.168 428.783 126.478 429.047 126.701C429.311 126.924 429.651 127.036 430.065 127.036ZM438.788 121.738C438.597 121.706 438.389 121.69 438.166 121.69C437.337 121.69 436.774 122.044 436.478 122.75V128H435.213V120.604H436.443L436.464 121.458C436.879 120.797 437.466 120.467 438.228 120.467C438.474 120.467 438.66 120.499 438.788 120.562V121.738Z" fill="#83959D"/>
<rect x="449" y="46" width="100" height="10" fill="#5DC644"/>
<path d="M565.299 56H559.709V55.2207L562.662 51.9395C563.1 51.4434 563.4 51.041 563.564 50.7324C563.732 50.4199 563.816 50.0977 563.816 49.7656C563.816 49.3203 563.682 48.9551 563.412 48.6699C563.143 48.3848 562.783 48.2422 562.334 48.2422C561.795 48.2422 561.375 48.3965 561.074 48.7051C560.777 49.0098 560.629 49.4355 560.629 49.9824H559.545C559.545 49.1973 559.797 48.5625 560.301 48.0781C560.809 47.5938 561.486 47.3516 562.334 47.3516C563.127 47.3516 563.754 47.5605 564.215 47.9785C564.676 48.3926 564.906 48.9453 564.906 49.6367C564.906 50.4766 564.371 51.4766 563.301 52.6367L561.016 55.1152H565.299V56ZM572.037 56H566.447V55.2207L569.4 51.9395C569.838 51.4434 570.139 51.041 570.303 50.7324C570.471 50.4199 570.555 50.0977 570.555 49.7656C570.555 49.3203 570.42 48.9551 570.15 48.6699C569.881 48.3848 569.521 48.2422 569.072 48.2422C568.533 48.2422 568.113 48.3965 567.812 48.7051C567.516 49.0098 567.367 49.4355 567.367 49.9824H566.283C566.283 49.1973 566.535 48.5625 567.039 48.0781C567.547 47.5938 568.225 47.3516 569.072 47.3516C569.865 47.3516 570.492 47.5605 570.953 47.9785C571.414 48.3926 571.645 48.9453 571.645 49.6367C571.645 50.4766 571.109 51.4766 570.039 52.6367L567.754 55.1152H572.037V56ZM573.262 57.6992L572.646 57.2773C573.014 56.7656 573.205 56.2383 573.221 55.6953V54.7168H574.281V55.5664C574.281 55.9609 574.184 56.3555 573.988 56.75C573.797 57.1445 573.555 57.4609 573.262 57.6992ZM577.117 51.207H577.932C578.443 51.1992 578.846 51.0645 579.139 50.8027C579.432 50.541 579.578 50.1875 579.578 49.7422C579.578 48.7422 579.08 48.2422 578.084 48.2422C577.615 48.2422 577.24 48.377 576.959 48.6465C576.682 48.9121 576.543 49.2656 576.543 49.707H575.459C575.459 49.0312 575.705 48.4707 576.197 48.0254C576.693 47.5762 577.322 47.3516 578.084 47.3516C578.889 47.3516 579.52 47.5645 579.977 47.9902C580.434 48.416 580.662 49.0078 580.662 49.7656C580.662 50.1367 580.541 50.4961 580.299 50.8438C580.061 51.1914 579.734 51.4512 579.32 51.623C579.789 51.7715 580.15 52.0176 580.404 52.3613C580.662 52.7051 580.791 53.125 580.791 53.6211C580.791 54.3867 580.541 54.9941 580.041 55.4434C579.541 55.8926 578.891 56.1172 578.09 56.1172C577.289 56.1172 576.637 55.9004 576.133 55.4668C575.633 55.0332 575.383 54.4609 575.383 53.75H576.473C576.473 54.1992 576.619 54.5586 576.912 54.8281C577.205 55.0977 577.598 55.2324 578.09 55.2324C578.613 55.2324 579.014 55.0957 579.291 54.8223C579.568 54.5488 579.707 54.1562 579.707 53.6445C579.707 53.1484 579.555 52.7676 579.25 52.502C578.945 52.2363 578.506 52.0996 577.932 52.0918H577.117V51.207ZM587.629 52.3613C587.629 53.6309 587.412 54.5742 586.979 55.1914C586.545 55.8086 585.867 56.1172 584.945 56.1172C584.035 56.1172 583.361 55.8164 582.924 55.2148C582.486 54.6094 582.26 53.707 582.244 52.5078V51.0605C582.244 49.8066 582.461 48.875 582.895 48.2656C583.328 47.6562 584.008 47.3516 584.934 47.3516C585.852 47.3516 586.527 47.6465 586.961 48.2363C587.395 48.8223 587.617 49.7285 587.629 50.9551V52.3613ZM586.545 50.8789C586.545 49.9609 586.416 49.293 586.158 48.875C585.9 48.4531 585.492 48.2422 584.934 48.2422C584.379 48.2422 583.975 48.4512 583.721 48.8691C583.467 49.2871 583.336 49.9297 583.328 50.7969V52.5312C583.328 53.4531 583.461 54.1348 583.727 54.5762C583.996 55.0137 584.402 55.2324 584.945 55.2324C585.48 55.2324 585.877 55.0254 586.135 54.6113C586.396 54.1973 586.533 53.5449 586.545 52.6543V50.8789ZM589.094 57.6992L588.479 57.2773C588.846 56.7656 589.037 56.2383 589.053 55.6953V54.7168H590.113V55.5664C590.113 55.9609 590.016 56.3555 589.82 56.75C589.629 57.1445 589.387 57.4609 589.094 57.6992ZM592.949 51.207H593.764C594.275 51.1992 594.678 51.0645 594.971 50.8027C595.264 50.541 595.41 50.1875 595.41 49.7422C595.41 48.7422 594.912 48.2422 593.916 48.2422C593.447 48.2422 593.072 48.377 592.791 48.6465C592.514 48.9121 592.375 49.2656 592.375 49.707H591.291C591.291 49.0312 591.537 48.4707 592.029 48.0254C592.525 47.5762 593.154 47.3516 593.916 47.3516C594.721 47.3516 595.352 47.5645 595.809 47.9902C596.266 48.416 596.494 49.0078 596.494 49.7656C596.494 50.1367 596.373 50.4961 596.131 50.8438C595.893 51.1914 595.566 51.4512 595.152 51.623C595.621 51.7715 595.982 52.0176 596.236 52.3613C596.494 52.7051 596.623 53.125 596.623 53.6211C596.623 54.3867 596.373 54.9941 595.873 55.4434C595.373 55.8926 594.723 56.1172 593.922 56.1172C593.121 56.1172 592.469 55.9004 591.965 55.4668C591.465 55.0332 591.215 54.4609 591.215 53.75H592.305C592.305 54.1992 592.451 54.5586 592.744 54.8281C593.037 55.0977 593.43 55.2324 593.922 55.2324C594.445 55.2324 594.846 55.0957 595.123 54.8223C595.4 54.5488 595.539 54.1562 595.539 53.6445C595.539 53.1484 595.387 52.7676 595.082 52.502C594.777 52.2363 594.338 52.0996 593.764 52.0918H592.949V51.207ZM603.461 52.3613C603.461 53.6309 603.244 54.5742 602.811 55.1914C602.377 55.8086 601.699 56.1172 600.777 56.1172C599.867 56.1172 599.193 55.8164 598.756 55.2148C598.318 54.6094 598.092 53.707 598.076 52.5078V51.0605C598.076 49.8066 598.293 48.875 598.727 48.2656C599.16 47.6562 599.84 47.3516 600.766 47.3516C601.684 47.3516 602.359 47.6465 602.793 48.2363C603.227 48.8223 603.449 49.7285 603.461 50.9551V52.3613ZM602.377 50.8789C602.377 49.9609 602.248 49.293 601.99 48.875C601.732 48.4531 601.324 48.2422 600.766 48.2422C600.211 48.2422 599.807 48.4512 599.553 48.8691C599.299 49.2871 599.168 49.9297 599.16 50.7969V52.5312C599.16 53.4531 599.293 54.1348 599.559 54.5762C599.828 55.0137 600.234 55.2324 600.777 55.2324C601.312 55.2324 601.709 55.0254 601.967 54.6113C602.229 54.1973 602.365 53.5449 602.377 52.6543V50.8789ZM610.199 52.3613C610.199 53.6309 609.982 54.5742 609.549 55.1914C609.115 55.8086 608.438 56.1172 607.516 56.1172C606.605 56.1172 605.932 55.8164 605.494 55.2148C605.057 54.6094 604.83 53.707 604.814 52.5078V51.0605C604.814 49.8066 605.031 48.875 605.465 48.2656C605.898 47.6562 606.578 47.3516 607.504 47.3516C608.422 47.3516 609.098 47.6465 609.531 48.2363C609.965 48.8223 610.188 49.7285 610.199 50.9551V52.3613ZM609.115 50.8789C609.115 49.9609 608.986 49.293 608.729 48.875C608.471 48.4531 608.062 48.2422 607.504 48.2422C606.949 48.2422 606.545 48.4512 606.291 48.8691C606.037 49.2871 605.906 49.9297 605.898 50.7969V52.5312C605.898 53.4531 606.031 54.1348 606.297 54.5762C606.566 55.0137 606.973 55.2324 607.516 55.2324C608.051 55.2324 608.447 55.0254 608.705 54.6113C608.967 54.1973 609.104 53.5449 609.115 52.6543V50.8789Z" fill="#83959D"/>
<rect x="449" y="70" width="105" height="10" fill="#008FFF"/>
<path d="M570.299 80H564.709V79.2207L567.662 75.9395C568.1 75.4434 568.4 75.041 568.564 74.7324C568.732 74.4199 568.816 74.0977 568.816 73.7656C568.816 73.3203 568.682 72.9551 568.412 72.6699C568.143 72.3848 567.783 72.2422 567.334 72.2422C566.795 72.2422 566.375 72.3965 566.074 72.7051C565.777 73.0098 565.629 73.4355 565.629 73.9824H564.545C564.545 73.1973 564.797 72.5625 565.301 72.0781C565.809 71.5938 566.486 71.3516 567.334 71.3516C568.127 71.3516 568.754 71.5605 569.215 71.9785C569.676 72.3926 569.906 72.9453 569.906 73.6367C569.906 74.4766 569.371 75.4766 568.301 76.6367L566.016 79.1152H570.299V80ZM571.945 75.7227L572.379 71.4688H576.75V72.4707H573.299L573.041 74.7969C573.459 74.5508 573.934 74.4277 574.465 74.4277C575.242 74.4277 575.859 74.6855 576.316 75.2012C576.773 75.7129 577.002 76.4062 577.002 77.2812C577.002 78.1602 576.764 78.8535 576.287 79.3613C575.814 79.8652 575.152 80.1172 574.301 80.1172C573.547 80.1172 572.932 79.9082 572.455 79.4902C571.979 79.0723 571.707 78.4941 571.641 77.7559H572.666C572.732 78.2441 572.906 78.6133 573.188 78.8633C573.469 79.1094 573.84 79.2324 574.301 79.2324C574.805 79.2324 575.199 79.0605 575.484 78.7168C575.773 78.373 575.918 77.8984 575.918 77.293C575.918 76.7227 575.762 76.2656 575.449 75.9219C575.141 75.5742 574.729 75.4004 574.213 75.4004C573.74 75.4004 573.369 75.5039 573.1 75.7109L572.812 75.9453L571.945 75.7227ZM578.262 81.6992L577.646 81.2773C578.014 80.7656 578.205 80.2383 578.221 79.6953V78.7168H579.281V79.5664C579.281 79.9609 579.184 80.3555 578.988 80.75C578.797 81.1445 578.555 81.4609 578.262 81.6992ZM585.715 73.6953C585.715 74.1211 585.602 74.5 585.375 74.832C585.152 75.1641 584.85 75.4238 584.467 75.6113C584.912 75.8027 585.264 76.082 585.521 76.4492C585.783 76.8164 585.914 77.2324 585.914 77.6973C585.914 78.4355 585.664 79.0234 585.164 79.4609C584.668 79.8984 584.014 80.1172 583.201 80.1172C582.381 80.1172 581.723 79.8984 581.227 79.4609C580.734 79.0195 580.488 78.4316 580.488 77.6973C580.488 77.2363 580.613 76.8203 580.863 76.4492C581.117 76.0781 581.467 75.7969 581.912 75.6055C581.533 75.418 581.234 75.1582 581.016 74.8262C580.797 74.4941 580.688 74.1172 580.688 73.6953C580.688 72.9766 580.918 72.4062 581.379 71.9844C581.84 71.5625 582.447 71.3516 583.201 71.3516C583.951 71.3516 584.557 71.5625 585.018 71.9844C585.482 72.4062 585.715 72.9766 585.715 73.6953ZM584.83 77.6738C584.83 77.1973 584.678 76.8086 584.373 76.5078C584.072 76.207 583.678 76.0566 583.189 76.0566C582.701 76.0566 582.309 76.2051 582.012 76.502C581.719 76.7988 581.572 77.1895 581.572 77.6738C581.572 78.1582 581.715 78.5391 582 78.8164C582.289 79.0938 582.689 79.2324 583.201 79.2324C583.709 79.2324 584.107 79.0938 584.396 78.8164C584.686 78.5352 584.83 78.1543 584.83 77.6738ZM583.201 72.2422C582.775 72.2422 582.43 72.375 582.164 72.6406C581.902 72.9023 581.771 73.2598 581.771 73.7129C581.771 74.1465 581.9 74.498 582.158 74.7676C582.42 75.0332 582.768 75.166 583.201 75.166C583.635 75.166 583.98 75.0332 584.238 74.7676C584.5 74.498 584.631 74.1465 584.631 73.7129C584.631 73.2793 584.496 72.9258 584.227 72.6523C583.957 72.3789 583.615 72.2422 583.201 72.2422ZM590.842 80H589.752V72.7754L587.566 73.5781V72.5938L590.672 71.4277H590.842V80ZM594.094 81.6992L593.479 81.2773C593.846 80.7656 594.037 80.2383 594.053 79.6953V78.7168H595.113V79.5664C595.113 79.9609 595.016 80.3555 594.82 80.75C594.629 81.1445 594.387 81.4609 594.094 81.6992ZM596.871 75.7227L597.305 71.4688H601.676V72.4707H598.225L597.967 74.7969C598.385 74.5508 598.859 74.4277 599.391 74.4277C600.168 74.4277 600.785 74.6855 601.242 75.2012C601.699 75.7129 601.928 76.4062 601.928 77.2812C601.928 78.1602 601.689 78.8535 601.213 79.3613C600.74 79.8652 600.078 80.1172 599.227 80.1172C598.473 80.1172 597.857 79.9082 597.381 79.4902C596.904 79.0723 596.633 78.4941 596.566 77.7559H597.592C597.658 78.2441 597.832 78.6133 598.113 78.8633C598.395 79.1094 598.766 79.2324 599.227 79.2324C599.73 79.2324 600.125 79.0605 600.41 78.7168C600.699 78.373 600.844 77.8984 600.844 77.293C600.844 76.7227 600.688 76.2656 600.375 75.9219C600.066 75.5742 599.654 75.4004 599.139 75.4004C598.666 75.4004 598.295 75.5039 598.025 75.7109L597.738 75.9453L596.871 75.7227ZM608.461 76.3613C608.461 77.6309 608.244 78.5742 607.811 79.1914C607.377 79.8086 606.699 80.1172 605.777 80.1172C604.867 80.1172 604.193 79.8164 603.756 79.2148C603.318 78.6094 603.092 77.707 603.076 76.5078V75.0605C603.076 73.8066 603.293 72.875 603.727 72.2656C604.16 71.6562 604.84 71.3516 605.766 71.3516C606.684 71.3516 607.359 71.6465 607.793 72.2363C608.227 72.8223 608.449 73.7285 608.461 74.9551V76.3613ZM607.377 74.8789C607.377 73.9609 607.248 73.293 606.99 72.875C606.732 72.4531 606.324 72.2422 605.766 72.2422C605.211 72.2422 604.807 72.4512 604.553 72.8691C604.299 73.2871 604.168 73.9297 604.16 74.7969V76.5312C604.16 77.4531 604.293 78.1348 604.559 78.5762C604.828 79.0137 605.234 79.2324 605.777 79.2324C606.312 79.2324 606.709 79.0254 606.967 78.6113C607.229 78.1973 607.365 77.5449 607.377 76.6543V74.8789ZM615.199 76.3613C615.199 77.6309 614.982 78.5742 614.549 79.1914C614.115 79.8086 613.438 80.1172 612.516 80.1172C611.605 80.1172 610.932 79.8164 610.494 79.2148C610.057 78.6094 609.83 77.707 609.814 76.5078V75.0605C609.814 73.8066 610.031 72.875 610.465 72.2656C610.898 71.6562 611.578 71.3516 612.504 71.3516C613.422 71.3516 614.098 71.6465 614.531 72.2363C614.965 72.8223 615.188 73.7285 615.199 74.9551V76.3613ZM614.115 74.8789C614.115 73.9609 613.986 73.293 613.729 72.875C613.471 72.4531 613.062 72.2422 612.504 72.2422C611.949 72.2422 611.545 72.4512 611.291 72.8691C611.037 73.2871 610.906 73.9297 610.898 74.7969V76.5312C610.898 77.4531 611.031 78.1348 611.297 78.5762C611.566 79.0137 611.973 79.2324 612.516 79.2324C613.051 79.2324 613.447 79.0254 613.705 78.6113C613.967 78.1973 614.104 77.5449 614.115 76.6543V74.8789Z" fill="#83959D"/>
<rect x="449" y="94" width="130" height="10" fill="#FFC100"/>
<path d="M591.285 99.207H592.1C592.611 99.1992 593.014 99.0645 593.307 98.8027C593.6 98.541 593.746 98.1875 593.746 97.7422C593.746 96.7422 593.248 96.2422 592.252 96.2422C591.783 96.2422 591.408 96.377 591.127 96.6465C590.85 96.9121 590.711 97.2656 590.711 97.707H589.627C589.627 97.0312 589.873 96.4707 590.365 96.0254C590.861 95.5762 591.49 95.3516 592.252 95.3516C593.057 95.3516 593.688 95.5645 594.145 95.9902C594.602 96.416 594.83 97.0078 594.83 97.7656C594.83 98.1367 594.709 98.4961 594.467 98.8438C594.229 99.1914 593.902 99.4512 593.488 99.623C593.957 99.7715 594.318 100.018 594.572 100.361C594.83 100.705 594.959 101.125 594.959 101.621C594.959 102.387 594.709 102.994 594.209 103.443C593.709 103.893 593.059 104.117 592.258 104.117C591.457 104.117 590.805 103.9 590.301 103.467C589.801 103.033 589.551 102.461 589.551 101.75H590.641C590.641 102.199 590.787 102.559 591.08 102.828C591.373 103.098 591.766 103.232 592.258 103.232C592.781 103.232 593.182 103.096 593.459 102.822C593.736 102.549 593.875 102.156 593.875 101.645C593.875 101.148 593.723 100.768 593.418 100.502C593.113 100.236 592.674 100.1 592.1 100.092H591.285V99.207ZM598.023 99.207H598.838C599.35 99.1992 599.752 99.0645 600.045 98.8027C600.338 98.541 600.484 98.1875 600.484 97.7422C600.484 96.7422 599.986 96.2422 598.99 96.2422C598.521 96.2422 598.146 96.377 597.865 96.6465C597.588 96.9121 597.449 97.2656 597.449 97.707H596.365C596.365 97.0312 596.611 96.4707 597.104 96.0254C597.6 95.5762 598.229 95.3516 598.99 95.3516C599.795 95.3516 600.426 95.5645 600.883 95.9902C601.34 96.416 601.568 97.0078 601.568 97.7656C601.568 98.1367 601.447 98.4961 601.205 98.8438C600.967 99.1914 600.641 99.4512 600.227 99.623C600.695 99.7715 601.057 100.018 601.311 100.361C601.568 100.705 601.697 101.125 601.697 101.621C601.697 102.387 601.447 102.994 600.947 103.443C600.447 103.893 599.797 104.117 598.996 104.117C598.195 104.117 597.543 103.9 597.039 103.467C596.539 103.033 596.289 102.461 596.289 101.75H597.379C597.379 102.199 597.525 102.559 597.818 102.828C598.111 103.098 598.504 103.232 598.996 103.232C599.52 103.232 599.92 103.096 600.197 102.822C600.475 102.549 600.613 102.156 600.613 101.645C600.613 101.148 600.461 100.768 600.156 100.502C599.852 100.236 599.412 100.1 598.838 100.092H598.023V99.207ZM603.262 105.699L602.646 105.277C603.014 104.766 603.205 104.238 603.221 103.695V102.717H604.281V103.566C604.281 103.961 604.184 104.355 603.988 104.75C603.797 105.145 603.555 105.461 603.262 105.699ZM611.131 104H605.541V103.221L608.494 99.9395C608.932 99.4434 609.232 99.041 609.396 98.7324C609.564 98.4199 609.648 98.0977 609.648 97.7656C609.648 97.3203 609.514 96.9551 609.244 96.6699C608.975 96.3848 608.615 96.2422 608.166 96.2422C607.627 96.2422 607.207 96.3965 606.906 96.7051C606.609 97.0098 606.461 97.4355 606.461 97.9824H605.377C605.377 97.1973 605.629 96.5625 606.133 96.0781C606.641 95.5938 607.318 95.3516 608.166 95.3516C608.959 95.3516 609.586 95.5605 610.047 95.9785C610.508 96.3926 610.738 96.9453 610.738 97.6367C610.738 98.4766 610.203 99.4766 609.133 100.637L606.848 103.115H611.131V104ZM613.855 99.207H614.67C615.182 99.1992 615.584 99.0645 615.877 98.8027C616.17 98.541 616.316 98.1875 616.316 97.7422C616.316 96.7422 615.818 96.2422 614.822 96.2422C614.354 96.2422 613.979 96.377 613.697 96.6465C613.42 96.9121 613.281 97.2656 613.281 97.707H612.197C612.197 97.0312 612.443 96.4707 612.936 96.0254C613.432 95.5762 614.061 95.3516 614.822 95.3516C615.627 95.3516 616.258 95.5645 616.715 95.9902C617.172 96.416 617.4 97.0078 617.4 97.7656C617.4 98.1367 617.279 98.4961 617.037 98.8438C616.799 99.1914 616.473 99.4512 616.059 99.623C616.527 99.7715 616.889 100.018 617.143 100.361C617.4 100.705 617.529 101.125 617.529 101.621C617.529 102.387 617.279 102.994 616.779 103.443C616.279 103.893 615.629 104.117 614.828 104.117C614.027 104.117 613.375 103.9 612.871 103.467C612.371 103.033 612.121 102.461 612.121 101.75H613.211C613.211 102.199 613.357 102.559 613.65 102.828C613.943 103.098 614.336 103.232 614.828 103.232C615.352 103.232 615.752 103.096 616.029 102.822C616.307 102.549 616.445 102.156 616.445 101.645C616.445 101.148 616.293 100.768 615.988 100.502C615.684 100.236 615.244 100.1 614.67 100.092H613.855V99.207ZM619.094 105.699L618.479 105.277C618.846 104.766 619.037 104.238 619.053 103.695V102.717H620.113V103.566C620.113 103.961 620.016 104.355 619.82 104.75C619.629 105.145 619.387 105.461 619.094 105.699ZM626.723 100.361C626.723 101.631 626.506 102.574 626.072 103.191C625.639 103.809 624.961 104.117 624.039 104.117C623.129 104.117 622.455 103.816 622.018 103.215C621.58 102.609 621.354 101.707 621.338 100.508V99.0605C621.338 97.8066 621.555 96.875 621.988 96.2656C622.422 95.6562 623.102 95.3516 624.027 95.3516C624.945 95.3516 625.621 95.6465 626.055 96.2363C626.488 96.8223 626.711 97.7285 626.723 98.9551V100.361ZM625.639 98.8789C625.639 97.9609 625.51 97.293 625.252 96.875C624.994 96.4531 624.586 96.2422 624.027 96.2422C623.473 96.2422 623.068 96.4512 622.814 96.8691C622.561 97.2871 622.43 97.9297 622.422 98.7969V100.531C622.422 101.453 622.555 102.135 622.82 102.576C623.09 103.014 623.496 103.232 624.039 103.232C624.574 103.232 624.971 103.025 625.229 102.611C625.49 102.197 625.627 101.545 625.639 100.654V98.8789ZM633.461 100.361C633.461 101.631 633.244 102.574 632.811 103.191C632.377 103.809 631.699 104.117 630.777 104.117C629.867 104.117 629.193 103.816 628.756 103.215C628.318 102.609 628.092 101.707 628.076 100.508V99.0605C628.076 97.8066 628.293 96.875 628.727 96.2656C629.16 95.6562 629.84 95.3516 630.766 95.3516C631.684 95.3516 632.359 95.6465 632.793 96.2363C633.227 96.8223 633.449 97.7285 633.461 98.9551V100.361ZM632.377 98.8789C632.377 97.9609 632.248 97.293 631.99 96.875C631.732 96.4531 631.324 96.2422 630.766 96.2422C630.211 96.2422 629.807 96.4512 629.553 96.8691C629.299 97.2871 629.168 97.9297 629.16 98.7969V100.531C629.16 101.453 629.293 102.135 629.559 102.576C629.828 103.014 630.234 103.232 630.777 103.232C631.312 103.232 631.709 103.025 631.967 102.611C632.229 102.197 632.365 101.545 632.377 100.654V98.8789ZM640.199 100.361C640.199 101.631 639.982 102.574 639.549 103.191C639.115 103.809 638.438 104.117 637.516 104.117C636.605 104.117 635.932 103.816 635.494 103.215C635.057 102.609 634.83 101.707 634.814 100.508V99.0605C634.814 97.8066 635.031 96.875 635.465 96.2656C635.898 95.6562 636.578 95.3516 637.504 95.3516C638.422 95.3516 639.098 95.6465 639.531 96.2363C639.965 96.8223 640.188 97.7285 640.199 98.9551V100.361ZM639.115 98.8789C639.115 97.9609 638.986 97.293 638.729 96.875C638.471 96.4531 638.062 96.2422 637.504 96.2422C636.949 96.2422 636.545 96.4512 636.291 96.8691C636.037 97.2871 635.906 97.9297 635.898 98.7969V100.531C635.898 101.453 636.031 102.135 636.297 102.576C636.566 103.014 636.973 103.232 637.516 103.232C638.051 103.232 638.447 103.025 638.705 102.611C638.967 102.197 639.104 101.545 639.115 100.654V98.8789Z" fill="#83959D"/>
<rect x="449" y="118" width="190" height="10" fill="#FF6823"/>
<path d="M654.285 125.135H655.469V126.02H654.285V128H653.195V126.02H649.311V125.381L653.131 119.469H654.285V125.135ZM650.541 125.135H653.195V120.951L653.066 121.186L650.541 125.135ZM661.621 121.695C661.621 122.121 661.508 122.5 661.281 122.832C661.059 123.164 660.756 123.424 660.373 123.611C660.818 123.803 661.17 124.082 661.428 124.449C661.689 124.816 661.82 125.232 661.82 125.697C661.82 126.436 661.57 127.023 661.07 127.461C660.574 127.898 659.92 128.117 659.107 128.117C658.287 128.117 657.629 127.898 657.133 127.461C656.641 127.02 656.395 126.432 656.395 125.697C656.395 125.236 656.52 124.82 656.77 124.449C657.023 124.078 657.373 123.797 657.818 123.605C657.439 123.418 657.141 123.158 656.922 122.826C656.703 122.494 656.594 122.117 656.594 121.695C656.594 120.977 656.824 120.406 657.285 119.984C657.746 119.562 658.354 119.352 659.107 119.352C659.857 119.352 660.463 119.562 660.924 119.984C661.389 120.406 661.621 120.977 661.621 121.695ZM660.736 125.674C660.736 125.197 660.584 124.809 660.279 124.508C659.979 124.207 659.584 124.057 659.096 124.057C658.607 124.057 658.215 124.205 657.918 124.502C657.625 124.799 657.479 125.189 657.479 125.674C657.479 126.158 657.621 126.539 657.906 126.816C658.195 127.094 658.596 127.232 659.107 127.232C659.615 127.232 660.014 127.094 660.303 126.816C660.592 126.535 660.736 126.154 660.736 125.674ZM659.107 120.242C658.682 120.242 658.336 120.375 658.07 120.641C657.809 120.902 657.678 121.26 657.678 121.713C657.678 122.146 657.807 122.498 658.064 122.768C658.326 123.033 658.674 123.166 659.107 123.166C659.541 123.166 659.887 123.033 660.145 122.768C660.406 122.498 660.537 122.146 660.537 121.713C660.537 121.279 660.402 120.926 660.133 120.652C659.863 120.379 659.521 120.242 659.107 120.242ZM663.262 129.699L662.646 129.277C663.014 128.766 663.205 128.238 663.221 127.695V126.717H664.281V127.566C664.281 127.961 664.184 128.355 663.988 128.75C663.797 129.145 663.555 129.461 663.262 129.699ZM669.104 128H668.014V120.775L665.828 121.578V120.594L668.934 119.428H669.104V128ZM673.855 123.207H674.67C675.182 123.199 675.584 123.064 675.877 122.803C676.17 122.541 676.316 122.188 676.316 121.742C676.316 120.742 675.818 120.242 674.822 120.242C674.354 120.242 673.979 120.377 673.697 120.646C673.42 120.912 673.281 121.266 673.281 121.707H672.197C672.197 121.031 672.443 120.471 672.936 120.025C673.432 119.576 674.061 119.352 674.822 119.352C675.627 119.352 676.258 119.564 676.715 119.99C677.172 120.416 677.4 121.008 677.4 121.766C677.4 122.137 677.279 122.496 677.037 122.844C676.799 123.191 676.473 123.451 676.059 123.623C676.527 123.771 676.889 124.018 677.143 124.361C677.4 124.705 677.529 125.125 677.529 125.621C677.529 126.387 677.279 126.994 676.779 127.443C676.279 127.893 675.629 128.117 674.828 128.117C674.027 128.117 673.375 127.9 672.871 127.467C672.371 127.033 672.121 126.461 672.121 125.75H673.211C673.211 126.199 673.357 126.559 673.65 126.828C673.943 127.098 674.336 127.232 674.828 127.232C675.352 127.232 675.752 127.096 676.029 126.822C676.307 126.549 676.445 126.156 676.445 125.645C676.445 125.148 676.293 124.768 675.988 124.502C675.684 124.236 675.244 124.1 674.67 124.092H673.855V123.207ZM679.094 129.699L678.479 129.277C678.846 128.766 679.037 128.238 679.053 127.695V126.717H680.113V127.566C680.113 127.961 680.016 128.355 679.82 128.75C679.629 129.145 679.387 129.461 679.094 129.699ZM686.723 124.361C686.723 125.631 686.506 126.574 686.072 127.191C685.639 127.809 684.961 128.117 684.039 128.117C683.129 128.117 682.455 127.816 682.018 127.215C681.58 126.609 681.354 125.707 681.338 124.508V123.061C681.338 121.807 681.555 120.875 681.988 120.266C682.422 119.656 683.102 119.352 684.027 119.352C684.945 119.352 685.621 119.646 686.055 120.236C686.488 120.822 686.711 121.729 686.723 122.955V124.361ZM685.639 122.879C685.639 121.961 685.51 121.293 685.252 120.875C684.994 120.453 684.586 120.242 684.027 120.242C683.473 120.242 683.068 120.451 682.814 120.869C682.561 121.287 682.43 121.93 682.422 122.797V124.531C682.422 125.453 682.555 126.135 682.82 126.576C683.09 127.014 683.496 127.232 684.039 127.232C684.574 127.232 684.971 127.025 685.229 126.611C685.49 126.197 685.627 125.545 685.639 124.654V122.879ZM693.461 124.361C693.461 125.631 693.244 126.574 692.811 127.191C692.377 127.809 691.699 128.117 690.777 128.117C689.867 128.117 689.193 127.816 688.756 127.215C688.318 126.609 688.092 125.707 688.076 124.508V123.061C688.076 121.807 688.293 120.875 688.727 120.266C689.16 119.656 689.84 119.352 690.766 119.352C691.684 119.352 692.359 119.646 692.793 120.236C693.227 120.822 693.449 121.729 693.461 122.955V124.361ZM692.377 122.879C692.377 121.961 692.248 121.293 691.99 120.875C691.732 120.453 691.324 120.242 690.766 120.242C690.211 120.242 689.807 120.451 689.553 120.869C689.299 121.287 689.168 121.93 689.16 122.797V124.531C689.16 125.453 689.293 126.135 689.559 126.576C689.828 127.014 690.234 127.232 690.777 127.232C691.312 127.232 691.709 127.025 691.967 126.611C692.229 126.197 692.365 125.545 692.377 124.654V122.879ZM700.199 124.361C700.199 125.631 699.982 126.574 699.549 127.191C699.115 127.809 698.438 128.117 697.516 128.117C696.605 128.117 695.932 127.816 695.494 127.215C695.057 126.609 694.83 125.707 694.814 124.508V123.061C694.814 121.807 695.031 120.875 695.465 120.266C695.898 119.656 696.578 119.352 697.504 119.352C698.422 119.352 699.098 119.646 699.531 120.236C699.965 120.822 700.188 121.729 700.199 122.955V124.361ZM699.115 122.879C699.115 121.961 698.986 121.293 698.729 120.875C698.471 120.453 698.062 120.242 697.504 120.242C696.949 120.242 696.545 120.451 696.291 120.869C696.037 121.287 695.906 121.93 695.898 122.797V124.531C695.898 125.453 696.031 126.135 696.297 126.576C696.566 127.014 696.973 127.232 697.516 127.232C698.051 127.232 698.447 127.025 698.705 126.611C698.967 126.197 699.104 125.545 699.115 124.654V122.879Z" fill="#83959D"/>
</svg>
