<svg width="24" height="24" viewBox="0 0 24 24" fill="none" xmlns="http://www.w3.org/2000/svg">
<path d="M24 1.63497C24.0018 1.19674 23.8327 0.785318 23.5238 0.476412C23.2149 0.167505 22.8027 -0.00133843 22.3653 0.000255321C21.9283 0.00208345 21.5169 0.173787 21.207 0.483724C21.0757 0.614974 20.837 0.898474 20.7064 1.05583C20.5692 1.22107 20.5919 1.46622 20.7571 1.60333C20.9223 1.74049 21.1675 1.7178 21.3046 1.55257C21.5092 1.30619 21.6783 1.11218 21.7568 1.03361C21.9208 0.869693 22.138 0.778849 22.3685 0.777865C22.3698 0.777865 22.371 0.777865 22.3722 0.777865C22.6001 0.777865 22.8137 0.86599 22.974 1.02626C23.1351 1.18736 23.2233 1.40238 23.2223 1.63169C23.2214 1.86218 23.1305 2.0794 22.9666 2.24341C22.8198 2.39018 22.3154 2.79035 21.5926 3.29524C21.165 2.56427 20.3721 2.07185 19.4659 2.07185H13.7723C13.0037 2.07185 12.2812 2.37115 11.7376 2.91457L0.356859 14.2955C0.12675 14.5256 0 14.8316 0 15.157C0 15.4824 0.12675 15.7884 0.356859 16.0184L7.98187 23.6434C8.21944 23.881 8.53134 23.9997 8.84334 23.9997C9.15534 23.9997 9.46734 23.8809 9.70481 23.6434L21.0857 12.2626C21.6291 11.7191 21.9284 10.9966 21.9284 10.228V4.53443C21.9284 4.36638 21.9114 4.20232 21.8791 4.04365C22.7018 3.47754 23.3058 3.00396 23.5164 2.7933C23.8265 2.48336 23.9982 2.07199 24 1.63497ZM21.1508 10.228C21.1508 10.7889 20.9324 11.3162 20.5358 11.7127L9.15497 23.0936C8.98322 23.2654 8.70356 23.2654 8.53177 23.0936L0.90675 15.4686C0.823547 15.3854 0.777656 15.2747 0.777656 15.157C0.777656 15.0392 0.8235 14.9286 0.90675 14.8454L12.2876 3.46455C12.6842 3.06799 13.2114 2.8496 13.7723 2.8496H19.4658C20.1052 2.8496 20.6625 3.20758 20.9479 3.73361C20.4886 4.03774 19.9744 4.36113 19.4288 4.67913C19.4118 4.66047 19.3944 4.642 19.3763 4.62396C18.7396 3.98721 17.7036 3.98721 17.0668 4.62396C16.4301 5.26071 16.4301 6.29674 17.0668 6.93349C17.3852 7.25186 17.8034 7.411 18.2216 7.411C18.6397 7.411 19.058 7.25186 19.3763 6.93349C19.8014 6.50847 19.9422 5.90571 19.7999 5.36238C20.2744 5.08615 20.7301 4.80382 21.1506 4.53068C21.1507 4.53199 21.1507 4.53321 21.1507 4.53447V10.228H21.1508ZM17.8743 5.95343C17.9426 6.08922 18.0797 6.1676 18.222 6.1676C18.2807 6.1676 18.3404 6.15424 18.3965 6.12602C18.6244 6.01136 18.8515 5.89211 19.0763 5.76996C19.0786 5.99191 18.9956 6.21457 18.8266 6.3836C18.493 6.71711 17.9504 6.71711 17.6168 6.3836C17.2833 6.05004 17.2833 5.50741 17.6168 5.17385C17.7836 5.00707 18.0027 4.92372 18.2217 4.92372C18.3952 4.92372 18.5681 4.97688 18.7156 5.08136C18.4955 5.20099 18.2722 5.31813 18.047 5.43143C17.8551 5.52785 17.7778 5.76161 17.8743 5.95343Z" fill="#008FFF"/>
</svg>
