<svg width="140" height="140" viewBox="0 0 140 140" fill="none" xmlns="http://www.w3.org/2000/svg">
<path d="M114.24 84.175C113.125 84.8799 111.846 85.2315 110.568 85.2315C109.29 85.2315 108.012 84.8794 106.897 84.175L99.001 79.1858C88.6945 72.6737 82.5417 61.507 82.5417 49.3155V47.7515H8.33399C4.52282 47.7515 1.40454 50.8697 1.40454 54.6809V114.737C1.40454 118.548 4.52282 121.667 8.33399 121.667H111.123C114.934 121.667 118.052 118.548 118.052 114.737V81.7655L114.24 84.175Z" fill="#EDF4FC"/>
<path d="M84.5908 61.2297H1.40454V75.6661H94.3279C89.8862 71.715 86.5579 66.7532 84.5908 61.2297Z" fill="#004164"/>
<path d="M42.7223 81.9333H13.5312C13.1352 81.9333 12.8142 82.2544 12.8142 82.6503V86.6846C12.8142 87.0805 13.1352 87.4016 13.5312 87.4016H42.7223C43.1182 87.4016 43.4392 87.0805 43.4392 86.6846V82.6503C43.4392 82.2544 43.1182 81.9333 42.7223 81.9333Z" fill="#C5E3FF"/>
<path d="M58.4062 81.9333H49.7995C49.4035 81.9333 49.0825 82.2544 49.0825 82.6503V86.6846C49.0825 87.0805 49.4035 87.4016 49.7995 87.4016H58.4062C58.8021 87.4016 59.1231 87.0805 59.1231 86.6846V82.6503C59.1231 82.2544 58.8021 81.9333 58.4062 81.9333Z" fill="#C5E3FF"/>
<path d="M82.542 33.4546C82.542 32.17 83.3864 31.0915 84.549 30.7158H23.9263C20.1151 30.7158 16.9968 33.8341 16.9968 37.6453V47.751H82.542V33.4546Z" fill="#008FFF"/>
<path d="M122.135 79.1858L118.052 81.7659V104.632H126.714C130.526 104.632 133.644 101.514 133.644 97.7024V67.4006C130.847 72.0956 126.944 76.1474 122.135 79.1858Z" fill="#008FFF"/>
<path d="M110.569 85.2316C109.29 85.2316 108.013 84.8794 106.897 84.175L99.0013 79.1859C88.6949 72.6737 82.542 61.507 82.542 49.3155V33.4545C82.542 31.8724 83.814 30.584 85.3967 30.5637C94.3414 30.4516 102.696 26.3862 108.318 19.4097C108.866 18.7288 109.694 18.3329 110.569 18.3329C111.443 18.3329 112.271 18.7288 112.82 19.4097C118.441 26.3856 126.796 30.4511 135.741 30.5637C137.323 30.5834 138.596 31.8719 138.596 33.4545V49.315C138.596 61.5065 132.443 72.6731 122.136 79.1853L114.241 84.1745C113.125 84.8799 111.847 85.2316 110.569 85.2316Z" fill="#02B875"/>
<path d="M88.3237 36.1959V49.3149C88.3237 59.512 93.4704 68.8515 102.09 74.2978L109.985 79.2869C110.34 79.5112 110.799 79.5112 111.152 79.2869L119.048 74.2978C127.668 68.8515 132.814 59.512 132.814 49.3149V36.1959C124.352 35.4161 116.495 31.6613 110.569 25.5773C104.642 31.6613 96.785 35.4161 88.3237 36.1959Z" fill="#5DC644"/>
<path d="M119.102 48.3416H102.034C101.065 48.3416 100.279 49.1274 100.279 50.0965V63.1641C100.279 64.1331 101.065 64.919 102.034 64.919H119.102C120.072 64.919 120.857 64.1331 120.857 63.1641V50.0959C120.857 49.1269 120.072 48.3416 119.102 48.3416Z" fill="#45BDF0"/>
<path d="M110.569 58.4177C112.079 58.4177 113.303 57.1935 113.303 55.6833C113.303 54.1732 112.079 52.949 110.569 52.949C109.059 52.949 107.834 54.1732 107.834 55.6833C107.834 57.1935 109.059 58.4177 110.569 58.4177Z" fill="#1387CE"/>
<path d="M83.5838 101.089C83.5838 97.6758 85.1687 94.6373 87.6389 92.6555C85.7872 91.1696 83.44 90.276 80.8812 90.276C74.9093 90.276 70.0684 95.1169 70.0684 101.089C70.0684 107.061 74.9093 111.902 80.8812 111.902C83.44 111.902 85.7872 111.008 87.6389 109.522C85.1692 107.54 83.5838 104.502 83.5838 101.089Z" fill="#FC3850"/>
<path d="M94.3969 90.276C91.8381 90.276 89.4909 91.1696 87.6392 92.6555C90.1088 94.6373 91.6942 97.6758 91.6942 101.089C91.6942 104.502 90.1088 107.54 87.6392 109.522C89.4909 111.008 91.8381 111.902 94.3969 111.902C100.369 111.902 105.21 107.061 105.21 101.089C105.21 95.1169 100.369 90.276 94.3969 90.276Z" fill="#F9D87A"/>
<path d="M87.6391 109.522C89.8786 109.522 91.6941 105.746 91.6941 101.089C91.6941 96.4311 89.8786 92.6554 87.6391 92.6554C85.3995 92.6554 83.584 96.4311 83.584 101.089C83.584 105.746 85.3995 109.522 87.6391 109.522Z" fill="#FCAC27"/>
<path d="M111.123 123.034H8.33399C3.75938 123.034 0.0373535 119.312 0.0373535 114.737V54.6804C0.0373535 50.1058 3.75938 46.3838 8.33399 46.3838H82.5411C83.2963 46.3838 83.9083 46.9957 83.9083 47.751V49.3145C83.9083 61.0351 89.8227 71.7697 99.7305 78.0298L107.626 83.0189C109.377 84.1242 111.759 84.1242 113.51 83.0189L117.322 80.61C117.743 80.3442 118.276 80.3278 118.712 80.5684C119.149 80.8085 119.42 81.2673 119.42 81.7655V114.737C119.42 119.312 115.698 123.034 111.123 123.034ZM8.33399 49.1182C5.26712 49.1182 2.77173 51.613 2.77173 54.6804V114.737C2.77173 117.803 5.26657 120.299 8.33399 120.299H111.123C114.19 120.299 116.685 117.804 116.685 114.737V84.2467L114.97 85.33C113.657 86.1596 112.135 86.5977 110.568 86.5977C109.002 86.5977 107.479 86.1591 106.166 85.3306L98.2698 80.3409C87.5652 73.5766 81.1739 61.9779 81.1739 49.3145V49.1182H8.33399ZM114.24 84.175H114.245H114.24Z" fill="black"/>
<path d="M94.3274 77.0333H1.40454C0.649307 77.0333 0.0373535 76.4214 0.0373535 75.6661V61.2297C0.0373535 60.4745 0.649307 59.8625 1.40454 59.8625H84.5902C85.1688 59.8625 85.684 60.2262 85.8781 60.7709C87.7703 66.0843 91.0062 70.8815 95.2357 74.6446C95.6595 75.0219 95.8066 75.6218 95.6049 76.1523C95.4036 76.6833 94.895 77.0333 94.3274 77.0333ZM2.77173 74.299H90.9756C87.813 70.9029 85.3127 66.92 83.6398 62.5969H2.77173V74.299Z" fill="black"/>
<path d="M80.8806 113.269C74.165 113.269 68.7012 107.805 68.7012 101.089C68.7012 94.3731 74.165 88.9093 80.8806 88.9093C83.6363 88.9093 86.3401 89.8609 88.4942 91.589C88.818 91.8488 89.0061 92.2409 89.0061 92.6554C89.0061 93.0699 88.818 93.4626 88.4942 93.7218C86.2427 95.5287 84.951 98.2138 84.951 101.089C84.951 103.964 86.2422 106.649 88.4942 108.456C88.818 108.715 89.0061 109.108 89.0061 109.522C89.0061 109.937 88.818 110.329 88.4942 110.589C86.3401 112.317 83.6363 113.269 80.8806 113.269ZM80.8806 91.6431C75.6727 91.6431 71.4355 95.8803 71.4355 101.088C71.4355 106.297 75.6727 110.534 80.8806 110.534C82.507 110.534 84.0623 110.129 85.4541 109.351C83.3788 107.114 82.2166 104.187 82.2166 101.088C82.2166 97.9896 83.3788 95.0622 85.4541 92.8249C84.0629 92.0478 82.5076 91.6431 80.8806 91.6431Z" fill="black"/>
<path d="M94.3967 113.269C91.6415 113.269 88.9378 112.317 86.7831 110.589C86.4594 110.329 86.2712 109.937 86.2712 109.522C86.2712 109.108 86.4594 108.715 86.7831 108.456C89.0351 106.649 90.3263 103.964 90.3263 101.089C90.3263 98.2144 89.0351 95.5292 86.7831 93.7218C86.4594 93.462 86.2712 93.0699 86.2712 92.6554C86.2712 92.2409 86.4594 91.8482 86.7831 91.589C88.9367 89.8609 91.641 88.9093 94.3967 88.9093C101.113 88.9093 106.577 94.3731 106.577 101.089C106.577 107.805 101.113 113.269 94.3967 113.269ZM89.8232 109.352C91.215 110.129 92.7708 110.534 94.3967 110.534C99.6051 110.534 103.842 106.297 103.842 101.089C103.842 95.8809 99.6051 91.6437 94.3967 91.6437C92.7697 91.6437 91.215 92.0484 89.8232 92.8255C91.8986 95.0633 93.0612 97.9902 93.0612 101.089C93.0612 104.188 91.8991 107.115 89.8232 109.352Z" fill="black"/>
<path d="M87.639 110.889C87.336 110.889 87.0336 110.789 86.7837 110.589C83.8814 108.26 82.2173 104.798 82.2173 101.089C82.2173 97.3805 83.8814 93.9182 86.7837 91.5891C87.2835 91.1887 87.995 91.1887 88.4949 91.5891C91.3971 93.9187 93.0618 97.381 93.0618 101.089C93.0618 104.797 91.3971 108.26 88.4949 110.589C88.2444 110.789 87.942 110.889 87.639 110.889ZM87.639 94.4968C85.9185 96.2544 84.9517 98.6005 84.9517 101.089C84.9517 103.578 85.9196 105.924 87.639 107.681C89.3595 105.923 90.3269 103.577 90.3269 101.089C90.3269 98.6011 89.3589 96.255 87.639 94.4968Z" fill="black"/>
<path d="M82.5418 49.1182H16.9961C16.2409 49.1182 15.6289 48.5062 15.6289 47.751V37.6453C15.6289 33.0707 19.3509 29.3486 23.9261 29.3486H84.5488C85.2215 29.3486 85.7946 29.8386 85.8996 30.5031C86.0046 31.1675 85.6098 31.8101 84.9694 32.0168C84.3355 32.2214 83.9095 32.7994 83.9095 33.4546V47.7515C83.909 48.5062 83.2965 49.1182 82.5418 49.1182ZM18.3633 46.3838H81.1741V33.4546C81.1741 32.9777 81.2534 32.5156 81.401 32.083H23.9261C20.8592 32.083 18.3633 34.5779 18.3633 37.6453V46.3838Z" fill="black"/>
<path d="M126.714 105.999H118.052C117.297 105.999 116.685 105.387 116.685 104.631V81.7655C116.685 81.2968 116.925 80.8604 117.322 80.61L121.405 78.0298C125.932 75.1691 129.758 71.2513 132.47 66.7002C132.785 66.1714 133.414 65.9198 134.008 66.0817C134.6 66.2452 135.012 66.7844 135.012 67.3997V97.7009C135.012 102.277 131.29 105.999 126.714 105.999ZM119.42 103.264H126.714C129.781 103.264 132.277 100.769 132.277 97.7015V71.8151C129.671 75.1576 126.475 78.061 122.866 80.3415L119.42 82.5191V103.264Z" fill="black"/>
<path d="M21.5642 55.9568H12.8142C12.059 55.9568 11.447 55.3448 11.447 54.5896C11.447 53.8344 12.059 53.2224 12.8142 53.2224H21.5642C22.3194 53.2224 22.9314 53.8344 22.9314 54.5896C22.9314 55.3448 22.3194 55.9568 21.5642 55.9568Z" fill="black"/>
<path d="M42.7223 88.7693H13.5312C12.3817 88.7693 11.4465 87.8342 11.4465 86.6847V82.6504C11.4465 81.5008 12.3817 80.5657 13.5312 80.5657H42.7223C43.8718 80.5657 44.8065 81.5008 44.8065 82.6504V86.6847C44.8065 87.8342 43.8718 88.7693 42.7223 88.7693ZM14.1815 86.035H42.0721V83.3006H14.1815V86.035ZM42.7223 83.3006H42.7278H42.7223Z" fill="black"/>
<path d="M58.4062 88.7693H49.7995C48.6499 88.7693 47.7153 87.8342 47.7153 86.6847V82.6504C47.7153 81.5008 48.6499 80.5657 49.7995 80.5657H58.4062C59.5557 80.5657 60.4909 81.5008 60.4909 82.6504V86.6847C60.4903 87.8342 59.5552 88.7693 58.4062 88.7693ZM50.4497 86.035H57.756V83.3006H50.4497V86.035ZM58.4062 83.3006H58.4117H58.4062Z" fill="black"/>
<path d="M116.192 49.7088H104.945C104.19 49.7088 103.578 49.0968 103.578 48.3416V43.8687C103.578 40.0143 106.713 36.8785 110.568 36.8785C114.423 36.8785 117.559 40.0143 117.559 43.8687V48.3416C117.559 49.0963 116.947 49.7088 116.192 49.7088ZM106.311 46.9744H114.824V43.8687C114.824 41.5221 112.915 39.6129 110.568 39.6129C108.221 39.6129 106.311 41.5221 106.311 43.8687V46.9744Z" fill="black"/>
<path d="M110.57 86.5994C109.003 86.5994 107.48 86.1608 106.167 85.3312L98.2714 80.342C87.5669 73.5777 81.1755 61.979 81.1755 49.3156V33.4546C81.1755 31.1358 83.0617 29.2256 85.3799 29.1966C93.9161 29.09 101.889 25.2099 107.254 18.5522C108.066 17.5438 109.275 16.9663 110.569 16.9663C111.863 16.9663 113.071 17.5444 113.884 18.5517C119.25 25.2099 127.222 29.09 135.758 29.1966C138.076 29.2256 139.962 31.1358 139.962 33.4546V49.3151C139.962 61.9785 133.571 73.5772 122.866 80.3415L114.971 85.3306C113.659 86.1608 112.137 86.5994 110.57 86.5994ZM110.57 19.7001C110.106 19.7001 109.673 19.9069 109.383 20.2678C103.505 27.562 94.7687 31.8129 85.4144 31.9305C84.5848 31.9408 83.9099 32.6244 83.9099 33.454V49.3145C83.9099 61.0351 89.8244 71.7697 99.7321 78.0298L107.628 83.019C109.378 84.1253 111.761 84.1253 113.511 83.019L121.406 78.0298C131.314 71.7697 137.229 61.0351 137.229 49.3145V33.4546C137.229 32.6244 136.554 31.9408 135.725 31.931C126.371 31.8134 117.635 27.5626 111.756 20.2678C111.465 19.9069 111.032 19.7001 110.57 19.7001Z" fill="black"/>
<path d="M110.57 80.821C110.113 80.821 109.656 80.6958 109.257 80.4442L101.36 75.454C92.3418 69.755 86.9573 59.9835 86.9573 49.315V36.1966C86.9573 35.49 87.4954 34.8999 88.1992 34.8354C96.3077 34.0878 103.905 30.461 109.59 24.6242C110.105 24.0953 111.035 24.0953 111.549 24.6242C117.234 30.461 124.832 34.0878 132.94 34.8354C133.643 34.8999 134.182 35.49 134.182 36.1966V49.315C134.182 59.9835 128.798 69.755 119.779 75.454L111.883 80.4431C111.484 80.6952 111.027 80.821 110.57 80.821ZM110.716 78.1315H110.721H110.716ZM89.6911 37.4221V49.315C89.6911 59.0401 94.5993 67.9476 102.82 73.1424L110.569 78.0385L118.317 73.1424C126.539 67.947 131.447 59.0395 131.447 49.315V37.4221C123.614 36.4312 116.287 32.9487 110.569 27.5002C104.851 32.9487 97.524 36.4312 89.6911 37.4221Z" fill="black"/>
<path d="M119.102 66.2856H102.034C100.313 66.2856 98.9119 64.8845 98.9119 63.1634V50.0959C98.9119 48.3748 100.313 46.9738 102.034 46.9738H119.102C120.824 46.9738 122.225 48.3748 122.225 50.0959V63.1634C122.225 64.8845 120.824 66.2856 119.102 66.2856ZM102.034 49.7087C101.82 49.7087 101.646 49.8826 101.646 50.0964V63.164C101.646 63.3778 101.82 63.5517 102.034 63.5517H119.102C119.316 63.5517 119.49 63.3778 119.49 63.164V50.0959C119.49 49.882 119.316 49.7081 119.102 49.7081H102.034V49.7087Z" fill="black"/>
<path d="M110.569 59.7849C108.307 59.7849 106.468 57.9452 106.468 55.6833C106.468 53.4215 108.307 51.5818 110.569 51.5818C112.831 51.5818 114.671 53.4215 114.671 55.6833C114.671 57.9452 112.831 59.7849 110.569 59.7849ZM110.569 54.3162C109.815 54.3162 109.202 54.9292 109.202 55.6833C109.202 56.4375 109.815 57.0505 110.569 57.0505C111.323 57.0505 111.937 56.4375 111.937 55.6833C111.937 54.9292 111.323 54.3162 110.569 54.3162Z" fill="black"/>
</svg>
