<svg width="18" height="18" viewBox="0 0 18 18" fill="none" xmlns="http://www.w3.org/2000/svg">
<path d="M8.99169 0.666016C4.39169 0.666016 0.666687 4.39935 0.666687 8.99935C0.666687 13.5993 4.39169 17.3327 8.99169 17.3327C13.6 17.3327 17.3334 13.5993 17.3334 8.99935C17.3334 4.39935 13.6 0.666016 8.99169 0.666016ZM9.00002 15.666C5.31669 15.666 2.33335 12.6827 2.33335 8.99935C2.33335 5.31602 5.31669 2.33268 9.00002 2.33268C12.6834 2.33268 15.6667 5.31602 15.6667 8.99935C15.6667 12.6827 12.6834 15.666 9.00002 15.666ZM9.41669 4.83268H8.16669V9.83268L12.5417 12.4577L13.1667 11.4327L9.41669 9.20768V4.83268Z" fill="black"/>
</svg>
