<svg width="140" height="140" viewBox="0 0 140 140" fill="none" xmlns="http://www.w3.org/2000/svg">
<g clip-path="url(#clip0)">
<path d="M113.663 8.72266H8.61633C4.99025 8.72266 2.05078 11.6621 2.05078 15.2882V30.6076H120.228V15.2882C120.228 11.6621 117.289 8.72266 113.663 8.72266Z" fill="#EDEBED"/>
<path d="M113.663 109.392H8.61633C4.99025 109.392 2.05078 106.453 2.05078 102.827V30.6074H120.228V102.827C120.228 106.453 117.289 109.392 113.663 109.392Z" fill="white"/>
<path d="M104.909 54.6806H69.8932C68.6846 54.6806 67.7046 53.7009 67.7046 52.492V45.9268C67.7046 44.7182 68.6843 43.7382 69.8932 43.7382H104.909C106.117 43.7382 107.097 44.7179 107.097 45.9268V52.492C107.097 53.7006 106.117 54.6806 104.909 54.6806Z" fill="#A5CDFF"/>
<path d="M63.6641 88.0127L52.8903 83.5236C51.2593 82.8441 50.1967 81.2502 50.1967 79.4833V72.1885H32.6889V79.4836C32.6889 81.2505 31.6263 82.8444 29.9953 83.5239L19.2215 88.0129C16.7748 89.0323 15.1812 91.423 15.1812 94.0734V109.393H67.7044V94.0734C67.7044 91.4227 66.1108 89.032 63.6641 88.0127Z" fill="#C9C6CA"/>
<path d="M32.6892 72.1882V79.4833C32.6892 79.8874 32.6192 80.2782 32.5139 80.6553C35.1321 82.2166 38.1793 83.1307 41.4431 83.1307C44.7068 83.1307 47.7538 82.2166 50.3722 80.6553C50.267 80.2782 50.197 79.8874 50.197 79.4833V72.1885L32.6892 72.1882Z" fill="#B7B2B8"/>
<path d="M41.4426 45.9269C34.1907 45.9269 28.3118 50.8261 28.3118 56.8694V65.6232C28.3118 72.8751 34.1907 78.7541 41.4426 78.7541C48.6945 78.7541 54.5734 72.8751 54.5734 65.6232V56.8694C54.5734 50.8258 48.6945 45.9269 41.4426 45.9269Z" fill="#DBD9DC"/>
<path d="M34.878 65.6229V54.6804C34.878 51.1325 36.9132 47.9882 40.0542 45.9891C33.4556 46.5677 28.3127 51.217 28.3127 56.869V65.6229C28.3127 72.8748 34.1917 78.7537 41.4436 78.7537C42.5792 78.7537 43.6901 78.6093 44.7412 78.3383C39.0805 76.8785 34.878 71.7392 34.878 65.6229Z" fill="#C9C6CA"/>
<path d="M67.7042 102.827H32.6889C25.437 102.827 19.5581 96.9481 19.5581 89.6962V87.8727L19.2223 88.0127C16.7753 89.0318 15.1812 91.4227 15.1812 94.0735V109.393H67.7044L67.7042 102.827Z" fill="#B7B2B8"/>
<path d="M107.01 72.6886L80.4806 81.9161C79.5242 82.2488 78.9264 83.1886 79.021 84.1971C79.6445 90.8313 83.5175 115.024 107.236 130.505C107.963 130.979 108.933 130.979 109.659 130.505C133.378 115.024 137.251 90.8313 137.874 84.1971C137.969 83.1886 137.372 82.2488 136.415 81.9161L109.885 72.6886C108.954 72.3646 107.941 72.3646 107.01 72.6886Z" fill="#FFE17D"/>
<path d="M87.2655 79.556L80.4807 81.9161C79.5239 82.2489 78.9264 83.1887 79.021 84.1971C79.6445 90.8316 83.5177 115.024 107.236 130.505C107.962 130.979 108.933 130.979 109.659 130.505C111.083 129.576 112.427 128.611 113.712 127.624C94.2751 112.243 88.7869 90.1466 87.2655 79.556Z" fill="#FFD164"/>
<path d="M77.4164 107.341H69.7557V94.0731C69.7557 90.5835 67.6745 87.4616 64.4534 86.1199L53.6794 81.6306C52.8098 81.2682 52.2479 80.4255 52.2479 79.4835V76.2815C55.0088 73.4736 56.6249 69.6501 56.6249 65.6232V56.8693C56.6249 49.7049 49.8143 43.876 41.4433 43.876C33.0722 43.876 26.2616 49.7046 26.2616 56.8693V65.6232C26.2616 69.6496 27.8777 73.4733 30.6386 76.2815V79.4835C30.6386 80.4255 30.0767 81.2682 29.2071 81.6308L18.4334 86.1199C15.2122 87.4619 13.1308 90.5838 13.1308 94.0734V107.342H8.61634C6.12695 107.342 4.10159 105.316 4.10159 102.827V32.6582H118.177V66.7172C118.177 67.8498 119.096 68.768 120.228 68.768C121.361 68.768 122.279 67.8498 122.279 66.7172V15.2882C122.279 10.5372 118.414 6.67188 113.663 6.67188H8.61634C3.86534 6.67188 0 10.5372 0 15.2882V102.827C0 107.578 3.86534 111.443 8.61634 111.443H77.4164C78.5489 111.443 79.4671 110.525 79.4671 109.392C79.4671 108.26 78.5489 107.341 77.4164 107.341ZM8.61634 10.7735H113.663C116.152 10.7735 118.177 12.7988 118.177 15.2882V28.5566H4.10159V15.2882C4.10159 12.7988 6.12695 10.7735 8.61634 10.7735ZM17.2324 94.0731C17.2324 92.2446 18.3229 90.6089 20.0108 89.9056L30.7849 85.4166C33.1876 84.4155 34.7402 82.0867 34.7402 79.4835V79.0392C35.4929 79.0873 36.2441 78.7193 36.6479 78.0223C37.2153 77.042 36.8809 75.7874 35.9009 75.2198C32.4854 73.2423 30.3635 69.5651 30.3635 65.6234V56.8696C30.3635 51.9668 35.3341 47.9779 41.4435 47.9779C47.553 47.9779 52.5236 51.9665 52.5236 56.8696V65.6234C52.5236 69.5667 50.4003 73.2447 46.9826 75.2222C46.0023 75.7894 45.6673 77.0439 46.2345 78.0244C46.6145 78.6815 47.3033 79.0488 48.0115 79.0488C48.0566 79.0488 48.1018 79.043 48.1469 79.04V79.4841C48.1469 82.0872 49.6995 84.4161 52.1025 85.4171L62.8765 89.9065C64.5642 90.6095 65.6546 92.2455 65.6546 94.0737V107.342H17.2324V94.0731Z" fill="black"/>
<path d="M10.8261 21.716C11.9587 21.716 12.8769 20.7978 12.8769 19.6652C12.8769 18.5326 11.9587 17.6144 10.8261 17.6144H10.8043C9.67167 17.6144 8.7644 18.5326 8.7644 19.6652C8.7644 20.7978 9.69355 21.716 10.8261 21.716Z" fill="black"/>
<path d="M23.936 21.716C25.0686 21.716 25.9868 20.7978 25.9868 19.6652C25.9868 18.5326 25.0686 17.6144 23.936 17.6144H23.9141C22.7815 17.6144 21.8743 18.5326 21.8743 19.6652C21.8743 20.7978 22.8034 21.716 23.936 21.716Z" fill="black"/>
<path d="M17.3696 21.716C18.5022 21.716 19.4204 20.7978 19.4204 19.6652C19.4204 18.5326 18.5022 17.6144 17.3696 17.6144H17.3477C16.2151 17.6144 15.3079 18.5326 15.3079 19.6652C15.3079 20.7978 16.237 21.716 17.3696 21.716Z" fill="black"/>
<path d="M32.6895 21.716H111.474C112.607 21.716 113.525 20.7978 113.525 19.6652C113.525 18.5326 112.607 17.6144 111.474 17.6144H32.6895C31.5569 17.6144 30.6387 18.5326 30.6387 19.6652C30.6387 20.7978 31.5569 21.716 32.6895 21.716Z" fill="black"/>
<path d="M138.624 80.5279L109.08 70.2515C108.644 70.0994 108.169 70.0994 107.733 70.2515L86.4867 77.6412C85.417 78.0133 84.8515 79.1823 85.2234 80.252C85.5955 81.3217 86.7645 81.8869 87.8339 81.5152L108.406 74.3599L135.801 83.8887C135.563 86.5074 134.759 92.3746 132.095 99.4004C128.848 107.965 122.114 119.925 108.406 128.846C94.7568 119.963 88.0278 108.068 84.7738 99.5502C81.1303 90.0129 80.9137 82.4939 80.9118 82.419C80.8863 81.2877 79.9629 80.3936 78.8181 80.4144C77.6857 80.4384 76.7872 81.3758 76.811 82.5081C76.8181 82.8373 77.0259 90.6856 80.8812 100.854C84.437 110.233 91.9106 123.426 107.322 133.018C107.654 133.225 108.03 133.328 108.406 133.328C108.782 133.328 109.157 133.225 109.489 133.018C124.9 123.426 132.374 110.233 135.93 100.854C139.785 90.6856 139.993 82.8373 140 82.5081C140.02 81.6194 139.464 80.8196 138.624 80.5279Z" fill="black"/>
<path d="M106.158 109.725C106.683 109.725 107.208 109.524 107.608 109.124L121.738 94.9938C122.539 94.1929 122.539 92.8943 121.738 92.0937C120.937 91.2928 119.639 91.2928 118.838 92.0937L106.158 104.774L98.6165 97.2319C97.8156 96.431 96.517 96.431 95.7164 97.2319C94.9155 98.0328 94.9155 99.3314 95.7164 100.132L104.708 109.124C105.108 109.524 105.633 109.725 106.158 109.725Z" fill="black"/>
<path d="M109.148 52.4921V45.9265C109.148 43.5889 107.246 41.6874 104.909 41.6874H69.8929C67.5553 41.6874 65.6538 43.5891 65.6538 45.9265V52.4921C65.6538 54.8297 67.5556 56.7312 69.8929 56.7312H104.908C107.246 56.7315 109.148 54.8297 109.148 52.4921ZM69.7554 52.4921V45.9265C69.7554 45.8505 69.8172 45.789 69.8929 45.789H104.908C104.984 45.789 105.046 45.8508 105.046 45.9265V52.4921C105.046 52.5681 104.984 52.6296 104.908 52.6296H69.8929C69.8172 52.6299 69.7554 52.5681 69.7554 52.4921Z" fill="black"/>
<path d="M98.206 63.4342C98.206 62.3016 97.2878 61.3834 96.1552 61.3834H69.8936C68.761 61.3834 67.8428 62.3016 67.8428 63.4342C67.8428 64.5668 68.761 65.485 69.8936 65.485H96.1552C97.2878 65.485 98.206 64.5668 98.206 63.4342Z" fill="black"/>
<path d="M69.8936 70.1377C68.761 70.1377 67.8428 71.0559 67.8428 72.1885C67.8428 73.3211 68.761 74.2393 69.8936 74.2393H85.213C86.3456 74.2393 87.2638 73.3211 87.2638 72.1885C87.2638 71.0559 86.3456 70.1377 85.213 70.1377H69.8936Z" fill="black"/>
</g>
<defs>
<clipPath id="clip0">
<rect width="140" height="140" fill="white"/>
</clipPath>
</defs>
</svg>
