<svg width="20" height="21" viewBox="0 0 20 21" fill="none" xmlns="http://www.w3.org/2000/svg">
<g clip-path="url(#clip0)">
<path d="M10 14.5215C12.0711 14.5215 13.75 12.8426 13.75 10.7715C13.75 8.70042 12.0711 7.02148 10 7.02148C7.92893 7.02148 6.25 8.70042 6.25 10.7715C6.25 12.8426 7.92893 14.5215 10 14.5215Z" fill="#F44336"/>
<path d="M10 14.5215C7.92895 14.5215 6.25 12.8425 6.25 10.7715C6.25 8.70043 7.92895 7.02148 10 7.02148C12.0711 7.02148 13.75 8.70043 13.75 10.7715C13.75 12.8425 12.0711 14.5215 10 14.5215ZM10 8.27148C8.6193 8.27148 7.5 9.39078 7.5 10.7715C7.5 12.1522 8.6193 13.2715 10 13.2715C11.3807 13.2715 12.5 12.1522 12.5 10.7715C12.5 9.39078 11.3807 8.27148 10 8.27148Z" fill="black"/>
<path d="M0.625 8.27148C0.279805 8.27148 0 7.99168 0 7.64648V1.39648C0 1.05129 0.279805 0.771484 0.625 0.771484H6.875C7.2202 0.771484 7.5 1.05129 7.5 1.39648C7.5 1.74168 7.2202 2.02148 6.875 2.02148H1.25V7.64648C1.25 7.99168 0.970195 8.27148 0.625 8.27148Z" fill="white"/>
<path d="M19.375 8.27148C19.0298 8.27148 18.75 7.99168 18.75 7.64648V2.02148H13.125C12.7798 2.02148 12.5 1.74168 12.5 1.39648C12.5 1.05129 12.7798 0.771484 13.125 0.771484H19.375C19.7202 0.771484 20 1.05129 20 1.39648V7.64648C20 7.99168 19.7202 8.27148 19.375 8.27148Z" fill="white"/>
<path d="M6.875 20.7715H0.625C0.279805 20.7715 0 20.4917 0 20.1465V13.8965C0 13.5513 0.279805 13.2715 0.625 13.2715C0.970195 13.2715 1.25 13.5513 1.25 13.8965V19.5215H6.875C7.2202 19.5215 7.5 19.8013 7.5 20.1465C7.5 20.4917 7.2202 20.7715 6.875 20.7715Z" fill="white"/>
<path d="M19.375 20.7715H13.125C12.7798 20.7715 12.5 20.4917 12.5 20.1465C12.5 19.8013 12.7798 19.5215 13.125 19.5215H18.75V13.8965C18.75 13.5513 19.0298 13.2715 19.375 13.2715C19.7202 13.2715 20 13.5513 20 13.8965V20.1465C20 20.4917 19.7202 20.7715 19.375 20.7715Z" fill="white"/>
</g>
<defs>
<clipPath id="clip0">
<rect y="0.771484" width="20" height="20" fill="white"/>
</clipPath>
</defs>
</svg>
