<svg width="120" height="120" viewBox="0 0 120 120" fill="none" xmlns="http://www.w3.org/2000/svg">
<g clip-path="url(#clip0)">
<path d="M117.931 28.9656V107.586C118.04 114.318 112.683 119.87 105.952 120H14.0483C7.31693 119.87 1.95968 114.318 2.06903 107.586V28.9656C1.95968 22.2338 7.31693 16.6822 14.0483 16.5518H105.952C112.683 16.6822 118.04 22.2338 117.931 28.9656Z" fill="#ECF0F1"/>
<path d="M117.931 28.9656V60H2.06903V28.9656C1.95968 22.2338 7.31693 16.6822 14.0483 16.5518H105.952C112.683 16.6822 118.04 22.2338 117.931 28.9656Z" fill="#35495E"/>
<path d="M62.0693 35.1725V120H57.9314V35.1725C57.9314 34.0298 58.8577 33.1035 60.0004 33.1035C61.143 33.1035 62.0693 34.0298 62.0693 35.1725Z" fill="#2C3E50"/>
<path d="M33.1035 35.1725V120H28.9656V35.1725C28.9656 34.0298 29.8919 33.1035 31.0345 33.1035C32.1772 33.1035 33.1035 34.0298 33.1035 35.1725Z" fill="#2C3E50"/>
<path d="M91.0349 35.1725V120H86.897V35.1725C86.897 34.0298 87.8233 33.1035 88.9659 33.1035C90.1086 33.1035 91.0349 34.0298 91.0349 35.1725Z" fill="#2C3E50"/>
<path d="M2.06836 57.9312H117.93V62.0691H2.06836V57.9312Z" fill="#2C3E50"/>
<path d="M20.6903 49.6553H12.4144C11.2718 49.6553 10.3455 48.729 10.3455 47.5863C10.3455 46.4436 11.2718 45.5173 12.4144 45.5173H20.6903C21.8329 45.5173 22.7593 46.4436 22.7593 47.5863C22.7593 48.729 21.8329 49.6553 20.6903 49.6553Z" fill="#ECF0F1"/>
<path d="M49.6549 49.6553H41.379C40.2364 49.6553 39.3101 48.729 39.3101 47.5863C39.3101 46.4436 40.2364 45.5173 41.379 45.5173H49.6549C50.7975 45.5173 51.7239 46.4436 51.7239 47.5863C51.7239 48.729 50.7975 49.6553 49.6549 49.6553Z" fill="#ECF0F1"/>
<path d="M78.6205 49.6553H70.3446C69.2019 49.6553 68.2756 48.729 68.2756 47.5863C68.2756 46.4436 69.2019 45.5173 70.3446 45.5173H78.6205C79.7631 45.5173 80.6894 46.4436 80.6894 47.5863C80.6894 48.729 79.7631 49.6553 78.6205 49.6553Z" fill="#ECF0F1"/>
<path d="M107.586 49.6553H99.3102C98.1675 49.6553 97.2412 48.729 97.2412 47.5863C97.2412 46.4436 98.1675 45.5173 99.3102 45.5173H107.586C108.729 45.5173 109.655 46.4436 109.655 47.5863C109.655 48.729 108.729 49.6553 107.586 49.6553Z" fill="#ECF0F1"/>
<path d="M10.3442 82.7587C9.50754 82.7585 8.75332 82.2545 8.43316 81.4815C8.113 80.7085 8.28993 79.8187 8.88146 79.227L21.2953 66.8132C22.1071 66.0291 23.3975 66.0403 24.1956 66.8384C24.9936 67.6365 25.0049 68.9269 24.2208 69.7387L11.807 82.1525C11.4195 82.5412 10.893 82.7594 10.3442 82.7587Z" fill="#E64C3C"/>
<path d="M22.7576 82.7587C22.2088 82.7594 21.6824 82.5412 21.2949 82.1525L8.88108 69.7387C8.097 68.9269 8.10821 67.6365 8.90628 66.8384C9.70435 66.0403 10.9948 66.0291 11.8066 66.8132L24.2204 79.227C24.8119 79.8187 24.9888 80.7085 24.6687 81.4815C24.3485 82.2545 23.5943 82.7585 22.7576 82.7587Z" fill="#E64C3C"/>
<path d="M39.31 103.448C38.4734 103.448 37.7191 102.944 37.399 102.171C37.0788 101.398 37.2557 100.508 37.8473 99.9167L50.2611 87.5029C51.0729 86.7188 52.3633 86.73 53.1614 87.5281C53.9595 88.3262 53.9707 89.6166 53.1866 90.4284L40.7728 102.842C40.3853 103.231 39.8589 103.449 39.31 103.448Z" fill="#E64C3C"/>
<path d="M51.7232 103.448C51.1744 103.449 50.6479 103.231 50.2604 102.842L37.8467 90.4284C37.0626 89.6166 37.0738 88.3262 37.8719 87.5281C38.6699 86.73 39.9604 86.7188 40.7722 87.5029L53.186 99.9167C53.7775 100.508 53.9544 101.398 53.6343 102.171C53.3141 102.944 52.5599 103.448 51.7232 103.448Z" fill="#E64C3C"/>
<path d="M97.2414 82.7587C96.4048 82.7585 95.6505 82.2545 95.3304 81.4815C95.0102 80.7085 95.1871 79.8187 95.7787 79.227L108.192 66.8132C109.004 66.0291 110.295 66.0403 111.093 66.8384C111.891 67.6365 111.902 68.9269 111.118 69.7387L98.7042 82.1525C98.3167 82.5412 97.7903 82.7594 97.2414 82.7587Z" fill="#E64C3C"/>
<path d="M109.655 82.7587C109.106 82.7594 108.579 82.5412 108.192 82.1525L95.778 69.7387C94.994 68.9269 95.0052 67.6365 95.8033 66.8384C96.6013 66.0403 97.8918 66.0291 98.7036 66.8132L111.117 79.227C111.709 79.8187 111.886 80.7085 111.566 81.4815C111.245 82.2545 110.491 82.7585 109.655 82.7587Z" fill="#E64C3C"/>
<path d="M117.931 28.9655V35.1724H2.06903V28.9655C1.95968 22.2338 7.31693 16.6822 14.0483 16.5518H105.952C112.683 16.6822 118.04 22.2338 117.931 28.9655Z" fill="#CB8252"/>
<path d="M86.8971 20.6897V22.7587C86.8904 25.0412 85.0417 26.8899 82.7592 26.8966H37.2419C34.9594 26.8899 33.1107 25.0412 33.104 22.7587V20.6897C33.104 14.9764 37.7355 10.3449 43.4488 10.3449H43.6328C44.6504 10.3354 45.5114 9.59046 45.6672 8.58482C46.5265 3.62506 50.829 0.00231886 55.8626 5.91337e-05H64.1385C69.179 -0.0168974 73.4921 3.61466 74.3339 8.5844C74.4895 9.59021 75.3506 10.3354 76.3683 10.3449H76.5523C82.2656 10.3449 86.8971 14.9764 86.8971 20.6897Z" fill="#BDC3C7"/>
<path d="M60.0007 16.5517C62.286 16.5517 64.1387 14.6991 64.1387 12.4138C64.1387 10.1285 62.286 8.27588 60.0007 8.27588C57.7154 8.27588 55.8628 10.1285 55.8628 12.4138C55.8628 14.6991 57.7154 16.5517 60.0007 16.5517Z" fill="#7F8C8D"/>
</g>
<defs>
<clipPath id="clip0">
<rect width="120" height="120" fill="white"/>
</clipPath>
</defs>
</svg>
