<svg width="46" height="46" viewBox="0 0 46 46" fill="none" xmlns="http://www.w3.org/2000/svg">
<g clip-path="url(#clip0)">
<g clip-path="url(#clip1)">
<path d="M4.55225 22.9999C4.55225 33.1093 12.5192 41.3332 22.3127 41.3332C32.1061 41.3332 40.0731 33.1093 40.0731 22.9999C40.0774 20.5751 39.6129 18.1738 38.7063 15.9367C38.5542 15.5714 38.1454 15.4002 37.7899 15.5536C37.4344 15.7073 37.2647 16.1277 37.4101 16.4963C38.245 18.5561 38.6726 20.7673 38.6683 22.9999C38.6683 32.3094 31.3312 39.8831 22.3127 39.8831C13.2941 39.8831 5.95702 32.3094 5.95702 22.9999C5.95702 13.6904 13.2941 6.11661 22.3127 6.11661C24.1455 6.11418 25.9657 6.43099 27.6966 7.05286C27.9337 7.13985 28.1983 7.08887 28.3892 6.91975C28.5801 6.75022 28.6687 6.48804 28.6212 6.23273C28.5738 5.97743 28.3974 5.76784 28.1591 5.68369C26.2797 5.008 24.303 4.66409 22.3127 4.66652C12.5192 4.66652 4.55225 12.8905 4.55225 22.9999H4.55225Z" fill="#008FFF"/>
<path d="M27.9782 15.1416C27.9782 14.741 27.6639 14.4165 27.2758 14.4165H17.3499C16.9618 14.4165 16.6475 14.741 16.6475 15.1416C16.6475 15.5421 16.9618 15.8666 17.3499 15.8666H20.19C21.8829 15.8686 23.3402 17.1002 23.6765 18.8129H17.3499C16.9618 18.8129 16.6475 19.1374 16.6475 19.538C16.6475 19.9381 16.9618 20.263 17.3499 20.263H23.6765C23.3402 21.9753 21.8829 23.2065 20.19 23.2089H17.3499C17.0622 23.2089 16.8039 23.3902 16.6972 23.6657C16.591 23.9416 16.6584 24.2564 16.8673 24.4607L23.9665 31.3855C24.1488 31.5643 24.4098 31.6291 24.6509 31.555C24.8915 31.481 25.0761 31.2795 25.1341 31.027C25.1918 30.7746 25.1146 30.5091 24.9315 30.3315L19.1156 24.6586H20.19C22.6574 24.6554 24.7485 22.7833 25.1008 20.2626H27.2758C27.6639 20.2626 27.9782 19.9377 27.9782 19.5375C27.9782 19.137 27.6639 18.8125 27.2758 18.8125H25.1008C24.9448 17.6909 24.4325 16.6544 23.6443 15.8662H27.2758C27.6639 15.8662 27.9782 15.5417 27.9782 15.1416Z" fill="#008FFF"/>
<path d="M29.2758 9.38043C29.0014 9.09721 28.5565 9.09721 28.2821 9.38043C28.0082 9.66365 28.0082 10.1229 28.2821 10.4061L31.5507 13.7801C31.8207 14.0588 32.2566 14.0637 32.5325 13.7918L38.2947 8.11038C38.5754 7.83364 38.5855 7.37482 38.3178 7.08512C38.0497 6.79583 37.6053 6.78531 37.3246 7.06165L32.0587 12.2535L29.2758 9.38043Z" fill="#008FFF"/>
</g>
</g>
<defs>
<clipPath id="clip0">
<rect x="4.55225" y="4.66675" width="35.5208" height="36.6667" fill="white"/>
</clipPath>
<clipPath id="clip1">
<rect x="4.55225" y="4.66675" width="35.5208" height="36.6667" fill="white"/>
</clipPath>
</defs>
</svg>
