<svg width="341" height="374" viewBox="0 0 341 374" fill="none" xmlns="http://www.w3.org/2000/svg">
<g clip-path="url(#clip0)">
<path d="M300.878 337.443L191.31 337.806C162.241 329.071 138.426 298.735 138.275 253.251C138.246 246.399 138.764 239.556 139.823 232.786L228.075 212.959L296.156 197.665C301.173 202.157 305.847 207.018 310.141 212.206L245.04 246.581L214.329 262.798L248.839 250.892L320.466 226.182C324.933 233.011 328.913 240.147 332.376 247.536L310.765 269.871L335.212 253.866C335.317 254.111 335.421 254.357 335.525 254.603C351.019 291.386 331.794 337.34 300.878 337.443Z" fill="#D9DEE1"/>
<path d="M282.872 187.37C266.302 192.129 245.931 198.141 224.987 204.39C194.704 213.429 163.223 222.967 140.304 229.939L140.319 229.857C141.166 224.965 143.158 220.342 146.131 216.365C163.109 194.291 184.727 178.871 208.788 173.144H208.79C215.556 171.53 222.485 170.703 229.441 170.68C248.583 170.617 266.715 176.621 282.872 187.37Z" fill="#F2F2F2"/>
<path d="M172.188 347.773C232.381 347.773 281.176 344.135 281.176 339.647C281.176 335.159 232.381 331.521 172.188 331.521C111.996 331.521 63.2012 335.159 63.2012 339.647C63.2012 344.135 111.996 347.773 172.188 347.773Z" fill="#3F3D56"/>
<path d="M155.936 204.972C155.936 263.691 121.029 284.193 77.9681 284.193C34.9075 284.193 0 263.691 0 204.972C0 146.253 77.9681 71.5527 77.9681 71.5527C77.9681 71.5527 155.936 146.253 155.936 204.972Z" fill="#D9DEE1"/>
<path d="M75.1282 275.211L75.9265 226.069L109.159 165.272L76.0517 218.36L76.4107 196.263L99.3138 152.277L76.5054 190.415V190.416L77.1512 150.674L101.677 115.656L77.2525 144.425L77.6559 71.5527L75.121 168.022L75.3294 164.042L50.3943 125.875L74.9294 171.682L72.6062 216.067L72.5369 214.888L43.791 174.723L72.4499 219.05L72.1593 224.601L72.1072 224.684L72.1311 225.14L66.2367 337.747H74.1119L75.057 279.583L103.646 235.365L75.1282 275.211Z" fill="#3F3D56"/>
<path d="M249 13.9246V323.774C248.996 327.465 247.527 331.003 244.916 333.612C242.306 336.221 238.766 337.687 235.075 337.689H109.285C107.457 337.692 105.645 337.334 103.955 336.636C102.265 335.938 100.729 334.913 99.4355 333.621C98.142 332.328 97.1162 330.793 96.417 329.103C95.7178 327.413 95.3589 325.602 95.3608 323.774V13.9246C95.3607 12.0959 95.7207 10.2852 96.4205 8.59568C97.1202 6.9062 98.1459 5.37111 99.4389 4.07806C100.732 2.78501 102.267 1.75934 103.957 1.05962C105.646 0.359904 107.457 -0.000156933 109.285 6.53289e-07H128.11V2.41397C128.109 5.45465 129.317 8.37097 131.466 10.5215C133.616 12.672 136.532 13.8807 139.572 13.8815H203.55C205.997 13.8868 208.381 13.1022 210.347 11.6444C210.745 11.3553 211.122 11.0391 211.475 10.698C212.595 9.62866 213.486 8.34302 214.094 6.91902C214.702 5.49503 215.015 3.96236 215.013 2.41397V6.53289e-07H235.075C236.904 -0.000559594 238.715 0.359228 240.404 1.0588C242.094 1.75838 243.629 2.78404 244.922 4.07716C246.215 5.37029 247.241 6.90554 247.941 8.5952C248.64 10.2849 249 12.0958 249 13.9246Z" fill="#3F3D56"/>
<path d="M166.457 121.32C166.462 129.967 161.322 132.988 154.982 132.991C154.835 132.992 154.688 132.99 154.542 132.987C154.248 132.981 153.958 132.967 153.67 132.947C147.947 132.545 143.499 129.373 143.495 121.331C143.491 113.009 154.122 102.502 154.92 101.725L154.921 101.724C154.951 101.694 154.967 101.68 154.967 101.68C154.967 101.68 166.453 112.674 166.457 121.32Z" fill="#008FFF"/>
<path d="M154.563 131.669L158.76 125.8L154.553 132.313L154.542 132.987C154.248 132.981 153.958 132.967 153.67 132.947L154.118 124.296L154.114 124.229L154.122 124.217L154.165 123.399L149.941 116.874L154.177 122.787L154.188 122.96L154.526 116.424L150.91 109.681L154.57 115.276L154.92 101.725L154.921 101.68V101.724L154.867 112.41L158.461 108.172L154.852 113.331L154.76 119.183L158.116 113.565L154.747 120.043L154.695 123.298L159.566 115.478L154.677 124.433L154.563 131.669Z" fill="#3F3D56"/>
<path d="M226.673 231.694H117.686V242.344V258.561V267.686L126.811 258.561H226.673V231.694Z" fill="#008FFF"/>
<path d="M203.315 238.218H142.001V243.189H203.315V238.218Z" fill="white"/>
<path d="M203.315 245.675H142.001V250.646H203.315V245.675Z" fill="white"/>
<path d="M117.686 182.697H226.673V193.346V209.564V218.688L217.549 209.564H117.686V182.697Z" fill="#008FFF"/>
<path d="M197.578 189.699H136.265V194.671H197.578V189.699Z" fill="white"/>
<path d="M197.578 197.156H136.265V202.128H197.578V197.156Z" fill="white"/>
<path d="M113.384 70.0039V157.764H230.976V70.0039H113.384ZM128.537 71.1088C128.912 71.1088 129.278 71.2199 129.589 71.428C129.901 71.6361 130.144 71.9319 130.287 72.278C130.43 72.6241 130.468 73.005 130.395 73.3724C130.322 73.7398 130.141 74.0773 129.876 74.3422C129.611 74.6071 129.274 74.7875 128.907 74.8606C128.539 74.9337 128.158 74.8962 127.812 74.7528C127.466 74.6094 127.17 74.3667 126.962 74.0552C126.754 73.7437 126.643 73.3775 126.643 73.0029C126.643 72.7541 126.692 72.5078 126.787 72.278C126.882 72.0482 127.022 71.8394 127.198 71.6636C127.374 71.4877 127.582 71.3481 127.812 71.253C128.042 71.1578 128.288 71.1088 128.537 71.1088V71.1088ZM117.172 74.897C116.798 74.897 116.432 74.7859 116.12 74.5778C115.809 74.3696 115.566 74.0738 115.423 73.7277C115.279 73.3816 115.242 73.0008 115.315 72.6334C115.388 72.2659 115.568 71.9285 115.833 71.6636C116.098 71.3987 116.436 71.2183 116.803 71.1452C117.17 71.0721 117.551 71.1096 117.897 71.253C118.243 71.3963 118.539 71.6391 118.747 71.9506C118.955 72.2621 119.067 72.6283 119.067 73.0029C119.067 73.5052 118.867 73.987 118.512 74.3422C118.157 74.6974 117.675 74.897 117.172 74.897V74.897ZM120.961 73.0029C120.961 72.6283 121.072 72.2621 121.28 71.9506C121.488 71.6391 121.784 71.3963 122.13 71.253C122.476 71.1096 122.857 71.0721 123.224 71.1452C123.592 71.2183 123.929 71.3987 124.194 71.6636C124.459 71.9285 124.639 72.2659 124.712 72.6334C124.786 73.0008 124.748 73.3816 124.605 73.7277C124.461 74.0738 124.219 74.3696 123.907 74.5778C123.596 74.7859 123.229 74.897 122.855 74.897C122.606 74.897 122.36 74.848 122.13 74.7528C121.9 74.6576 121.691 74.5181 121.515 74.3422C121.34 74.1663 121.2 73.9575 121.105 73.7277C121.01 73.4979 120.961 73.2516 120.961 73.0029V73.0029ZM186.149 133.14H122.855V86.1037H186.149V133.14Z" fill="#F2F2F2"/>
<path d="M228.45 71.5811H224.662V72.0546H228.45V71.5811Z" fill="white"/>
<path d="M228.45 73.002H224.662V73.4755H228.45V73.002Z" fill="white"/>
<path d="M228.45 74.4229H224.662V74.8964H228.45V74.4229Z" fill="white"/>
<path d="M224.662 85.3135H196.093V86.7341H224.662V85.3135Z" fill="white"/>
<path d="M224.662 90.207H196.093V91.6276H224.662V90.207Z" fill="white"/>
<path d="M224.662 95.1006H196.093V96.5212H224.662V95.1006Z" fill="white"/>
<path d="M224.662 99.9932H196.093V101.414H224.662V99.9932Z" fill="white"/>
<path d="M224.662 104.886H196.093V106.306H224.662V104.886Z" fill="white"/>
<path d="M224.662 109.779H196.093V111.2H224.662V109.779Z" fill="white"/>
<path d="M224.662 114.672H196.093V116.092H224.662V114.672Z" fill="white"/>
<path d="M224.662 119.565H196.093V120.986H224.662V119.565Z" fill="white"/>
<path d="M224.662 124.458H196.093V125.879H224.662V124.458Z" fill="white"/>
<path d="M224.662 129.352H196.093V130.772H224.662V129.352Z" fill="white"/>
<path d="M126.643 138.349C127.689 138.349 128.537 137.501 128.537 136.455C128.537 135.409 127.689 134.561 126.643 134.561C125.597 134.561 124.749 135.409 124.749 136.455C124.749 137.501 125.597 138.349 126.643 138.349Z" fill="white"/>
<path d="M133.114 138.349C134.16 138.349 135.008 137.501 135.008 136.455C135.008 135.409 134.16 134.561 133.114 134.561C132.068 134.561 131.22 135.409 131.22 136.455C131.22 137.501 132.068 138.349 133.114 138.349Z" fill="white"/>
<path d="M139.586 138.349C140.632 138.349 141.48 137.501 141.48 136.455C141.48 135.409 140.632 134.561 139.586 134.561C138.54 134.561 137.692 135.409 137.692 136.455C137.692 137.501 138.54 138.349 139.586 138.349Z" fill="white"/>
<path d="M224.662 145.767H196.093V153.816H224.662V145.767Z" fill="#008FFF"/>
<path d="M69.2675 255.986L68.2203 292.641L57.0495 335.579C57.0495 335.579 59.4931 342.909 57.7476 344.655C56.0022 346.4 47.9731 349.542 47.9731 349.542L54.6058 258.081L69.2675 255.986Z" fill="#2F2E41"/>
<path d="M45.0147 344.475C45.0147 344.475 41.031 353.24 46.6081 354.036C52.1853 354.833 77.9465 356.958 76.353 352.443C74.7596 347.928 55.3723 343.679 55.3723 343.679L45.0147 344.475Z" fill="#2F2E41"/>
<path d="M30.1694 223.521C30.1694 223.521 34.3585 246.212 37.1512 250.052C39.9439 253.892 35.7548 281.819 35.7548 281.819C35.7548 281.819 29.4712 321.964 32.264 328.247C35.0567 334.531 34.3585 332.437 34.0094 335.927C33.6603 339.418 32.9621 342.211 34.0094 345.353C35.0567 348.495 35.0567 348.145 35.4058 349.891C35.7548 351.636 35.4058 361.062 35.4058 361.062C35.4058 361.062 50.4166 366.298 52.8602 358.618C52.8602 358.618 49.3693 353.731 50.4166 349.891C51.5085 346.027 52.0952 342.037 52.162 338.022V330.691L68.2201 270.648L72.0601 249.004C72.0601 249.004 71.0128 227.012 67.1728 224.917C63.3329 222.823 30.1694 223.521 30.1694 223.521Z" fill="#2F2E41"/>
<path d="M36.453 359.317C36.453 359.317 31.2167 370.837 38.5475 371.884C45.8784 372.931 79.74 375.724 77.6454 369.789C75.5509 363.855 50.0674 358.27 50.0674 358.27L36.453 359.317Z" fill="#2F2E41"/>
<path d="M43.0895 122.998C50.8014 122.998 57.0531 116.747 57.0531 109.035C57.0531 101.323 50.8014 95.0713 43.0895 95.0713C35.3777 95.0713 29.126 101.323 29.126 109.035C29.126 116.747 35.3777 122.998 43.0895 122.998Z" fill="#FFB9B9"/>
<path d="M33.2773 115.205L33.5373 133.037L50.6568 133.095C50.6568 133.095 46.312 119.136 48.2581 116.217C50.2042 113.298 33.2773 115.205 33.2773 115.205Z" fill="#FFB9B9"/>
<path d="M58.7946 142.882C58.7946 142.882 46.5765 127.173 37.1511 133.805C27.7258 140.438 24.2349 156.147 24.2349 156.147L26.3294 200.132C26.3294 200.132 31.5657 206.416 28.4239 210.605C25.2821 214.794 23.5367 213.747 25.9803 216.888C28.4239 220.03 31.2167 222.474 30.1694 223.521C29.1221 224.568 31.2167 225.267 31.2167 225.267L68.22 226.314C68.22 226.314 67.1728 224.917 70.3146 220.728C73.4564 216.539 69.6164 210.954 70.3146 208.859C71.0127 206.765 71.7109 209.208 72.06 204.321C72.4091 199.434 58.7946 142.882 58.7946 142.882Z" fill="#3F3D56"/>
<path d="M55.3037 232.947C55.3037 232.947 56.0019 241.674 61.2382 243.07C63.2018 243.594 64.6746 242.596 65.7484 241.144C66.7511 239.752 67.3132 238.091 67.3621 236.377C67.4109 234.662 66.9443 232.972 66.0225 231.525L64.7291 229.456L55.3037 232.947Z" fill="#FFB9B9"/>
<path d="M23.0132 125.253C23.0132 125.253 22.6641 132.234 23.0132 133.282C23.3623 134.329 23.7114 135.376 23.0132 136.423C22.315 137.471 22.6641 140.962 23.3623 141.311C24.0605 141.66 21.966 144.802 22.6641 146.896C23.3623 148.991 24.0605 149.689 24.4096 150.387C24.7587 151.085 25.321 152.336 25.321 152.336C25.321 152.336 35.5804 130.489 43.9585 135.725C52.3367 140.962 58.9693 142.707 58.9693 142.707C58.9693 142.707 54.4312 118.271 23.0132 125.253Z" fill="#3F3D56"/>
<path d="M38.1986 141.485C38.1986 141.485 27.0278 142.533 27.726 157.194C28.4242 171.856 26.6787 194.896 26.6787 194.896C26.6787 194.896 45.8786 224.219 49.0204 226.314C52.1622 228.409 52.5113 228.059 52.1622 229.805C51.8131 231.55 51.464 232.947 52.8603 234.343C53.6847 235.173 54.6255 235.879 55.6531 236.438C55.6531 236.438 66.8239 232.598 65.7766 229.107C64.7294 225.616 59.8421 220.03 59.8421 220.03C59.8421 220.03 51.464 206.416 51.1149 204.321C50.7658 202.227 50.7658 202.576 49.7185 201.529C48.6713 200.481 45.8786 196.292 45.8786 194.198V187.565L48.8052 152.12C48.9381 150.676 48.764 149.221 48.2943 147.849C47.8246 146.478 47.07 145.221 46.0801 144.162C44.4187 142.424 41.9077 141.04 38.1986 141.485Z" fill="#3F3D56"/>
<path d="M52.0945 98.2658C53.0045 98.5178 53.9629 98.5395 54.8833 98.3287C55.8038 98.118 56.6573 97.6815 57.3669 97.0585C58.7315 95.7619 59.1901 93.5154 58.2192 91.9028C57.3808 90.5102 55.7501 89.8292 54.1984 89.345C50.7756 88.2782 47.2113 87.7345 43.626 87.7324C41.9168 87.7319 40.132 87.8776 38.6694 88.762C37.9457 89.1996 37.3327 89.8006 36.6172 90.2515C35.3015 91.0805 33.7217 91.356 32.2772 91.932C30.8002 92.5323 29.4693 93.4429 28.3747 94.6021C27.2801 95.7613 26.4472 97.1421 25.9324 98.651C25.6011 99.6745 25.394 100.734 25.3158 101.807C25.0797 104.746 25.599 107.697 26.8245 110.378C28.7723 114.626 32.4796 118.197 33.0034 122.84C34.9991 121.165 35.5841 118.354 37.1298 116.257C38.2805 114.706 39.9231 113.591 41.7894 113.094C42.311 113.025 42.8012 112.806 43.2004 112.463C43.4691 112.092 43.6227 111.65 43.642 111.192L44.6001 104.294C44.7951 102.89 45.0585 101.355 46.1358 100.434C46.8116 99.9314 47.5945 99.5916 48.4234 99.4416C50.3838 98.9541 52.381 98.6284 54.3947 98.4679" fill="#2F2E41"/>
<path opacity="0.1" d="M28.3765 199.883L47.973 225.314C47.973 225.314 29.9285 210.23 28.3765 199.883Z" fill="black"/>
<path opacity="0.1" d="M47.186 171.727L47.0005 195.744L58.382 212.816L49.0698 193.675L47.186 171.727Z" fill="black"/>
<path d="M258.983 330.911L256.715 329.226C256.715 329.226 255.213 337.612 256.889 338.868C258.564 340.125 264.846 342.219 264.846 344.732C264.846 347.244 279.086 350.595 279.505 346.826C279.924 343.056 278.248 340.962 278.248 340.962C278.248 340.962 271.547 334.261 270.71 333.005C269.872 331.748 267.778 329.235 267.778 329.235L258.983 330.911Z" fill="#2F2E41"/>
<path d="M292.488 226.626C292.488 226.626 292.425 226.994 292.316 227.668C292.216 228.267 292.078 229.113 291.91 230.156C290.151 240.89 285.021 272.49 285.368 273.533C285.787 274.79 288.719 279.397 285.368 280.653C284.914 280.917 284.55 281.313 284.325 281.788C283.606 283.123 283.013 284.522 282.554 285.968C280.556 291.764 278.42 301.041 277.184 307.466C276.644 310.288 276.276 312.558 276.167 313.748C276.129 314.023 276.125 314.301 276.154 314.577C276.573 316.252 273.641 322.116 272.385 323.791C271.128 325.466 269.034 327.142 269.453 328.817C269.872 330.492 258.983 335.099 257.726 332.168C256.47 329.236 256.47 327.561 256.051 326.723C255.632 325.885 255.213 320.022 257.307 319.184C259.401 318.347 258.145 303.688 260.239 300.756C260.939 299.78 262.007 296.476 263.125 292.501C263.565 290.943 264.008 289.285 264.444 287.622C266.211 280.808 267.778 273.952 267.778 273.952L267.359 224.95L290.394 222.019L290.984 223.321L292.161 225.905L292.488 226.626Z" fill="#2F2E41"/>
<path d="M293.744 307.038C293.744 307.038 297.095 303.687 298.77 307.038C300.445 310.388 302.121 323.372 305.052 326.304C307.984 329.235 311.753 343.894 307.565 344.731C303.377 345.569 298.77 343.475 298.351 340.962C297.932 338.449 289.137 325.466 289.137 324.209C289.137 322.953 295.001 318.346 295.001 318.346L293.744 307.038Z" fill="#2F2E41"/>
<path d="M242.23 203.59C242.23 203.59 247.675 252.591 248.931 257.198C250.188 261.805 256.889 279.396 258.983 282.327C261.077 285.259 274.479 309.132 276.154 310.388C277.829 311.645 281.18 314.995 281.18 314.995C281.18 314.995 287.462 321.277 288.3 322.534C289.137 323.79 296.257 320.021 296.676 317.508C297.095 314.995 296.257 310.807 295.839 309.132C295.42 307.456 296.676 304.944 295.42 303.687C294.163 302.431 287.881 296.148 287.881 293.217C287.881 290.285 276.992 273.113 272.804 269.344C268.615 265.575 269.453 259.292 269.453 259.292V233.745L292.488 226.625C292.488 226.625 291.232 206.521 288.3 206.521C285.368 206.521 246.837 199.82 242.23 203.59Z" fill="#2F2E41"/>
<path d="M276.154 133.648C283.787 133.648 289.975 127.46 289.975 119.827C289.975 112.194 283.787 106.006 276.154 106.006C268.521 106.006 262.333 112.194 262.333 119.827C262.333 127.46 268.521 133.648 276.154 133.648Z" fill="#9F616A"/>
<path d="M271.547 130.716C271.547 130.716 269.872 136.998 267.778 138.674C265.684 140.349 273.222 147.469 273.222 147.469L287.462 148.306L289.975 140.349C289.975 140.349 285.368 131.135 286.624 125.271C287.881 119.408 271.547 130.716 271.547 130.716Z" fill="#9F616A"/>
<path d="M265.683 137.836C265.683 137.836 269.453 138.255 270.29 139.511C271.128 140.768 276.992 144.537 281.599 143.699C286.206 142.862 289.137 141.605 289.975 142.024C290.813 142.443 292.488 151.238 292.488 151.238L287.881 164.64L288.718 201.496L289.975 211.548C289.975 211.548 292.488 208.197 282.436 210.291C272.385 212.385 259.401 208.616 255.213 208.197C251.025 207.778 243.905 206.522 243.486 204.009C243.067 201.496 244.743 192.282 244.743 192.282L251.444 164.221L255.632 149.144L265.683 137.836Z" fill="#3F3D56"/>
<path d="M269.645 135.946C269.645 135.946 266.103 134.067 264.846 135.742C263.59 137.417 247.675 139.93 247.675 141.187C247.675 142.443 244.324 176.367 245.162 179.299C245.999 182.231 243.487 185.581 243.487 185.581L240.555 198.146C240.555 198.146 232.597 222.018 235.948 222.856C239.298 223.694 242.23 222.856 243.487 222.856C244.743 222.856 244.324 206.941 247.675 202.753C251.025 198.565 255.632 188.094 256.47 186C257.308 183.906 267.778 155.008 267.359 151.657C266.94 148.307 269.645 135.946 269.645 135.946Z" fill="#D0CDE1"/>
<path d="M287.043 137.836C287.043 137.836 290.394 137.836 290.813 138.674C291.232 139.511 295.42 144.956 297.095 146.212C298.77 147.469 304.634 152.913 304.634 154.17C304.634 155.426 292.488 164.64 292.488 164.64C292.488 164.64 287.462 189.35 289.975 197.727C292.488 206.103 296.257 226.206 294.582 227.463C292.907 228.719 289.137 229.138 289.137 227.463C289.137 225.788 286.625 207.778 284.53 204.009C282.436 200.24 276.154 176.367 278.667 169.666C281.18 162.965 287.043 137.836 287.043 137.836Z" fill="#D0CDE1"/>
<path d="M231.759 179.299C231.759 179.299 231.341 192.282 235.948 198.983C238.936 203.463 241.462 208.234 243.486 213.223C243.486 213.223 251.025 211.129 252.281 208.616C253.538 206.103 261.495 208.197 261.495 207.36C261.495 206.522 251.863 202.334 251.025 201.496C250.187 200.659 247.256 200.659 245.58 198.983C243.905 197.308 243.486 193.539 243.486 193.539L241.811 182.649L231.759 179.299Z" fill="#9F616A"/>
<path d="M266.635 111.305C265.565 111.28 264.511 111.038 263.536 110.596C261.43 109.46 260.872 106.227 262.474 104.451C262.916 103.999 263.411 103.601 263.947 103.267L267.13 101.1C268.539 100.142 269.98 99.1675 271.622 98.7157C273.127 98.3732 274.679 98.2816 276.214 98.4446C279.207 98.5503 282.17 99.089 285.009 100.044C287.817 101.074 290.435 102.798 292.136 105.259C294.831 109.159 294.868 114.419 293.384 118.921C291.899 123.424 289.079 127.345 286.3 131.186L284.858 124.151C284.73 123.525 284.564 122.838 284.043 122.467C282.748 121.545 281.163 123.438 279.574 123.425C278.552 123.418 277.695 122.577 277.307 121.632C276.99 120.66 276.821 119.645 276.805 118.623C276.616 116.467 275.862 113.469 273.821 112.28C271.92 111.172 268.773 111.5 266.635 111.305Z" fill="#2F2E41"/>
<path opacity="0.1" d="M267.41 226.964C267.41 226.964 268.825 267.879 269.662 269.136C270.5 270.392 269.662 226.835 269.662 226.835L267.41 226.964Z" fill="black"/>
<path d="M251.025 141.187H247.675C247.675 141.187 233.435 160.452 235.11 161.709C236.785 162.965 235.11 166.316 235.11 166.316L231.76 172.598C231.76 172.598 227.571 176.367 228.828 177.205C230.084 178.042 231.76 181.393 231.76 181.393C231.76 181.393 240.136 180.137 242.649 185.162L248.081 178.305L251.025 141.187Z" fill="#D0CDE1"/>
<path d="M289.138 177.205C289.138 177.205 279.924 177.623 269.453 170.922L258.983 166.315C258.983 166.315 249.769 152.075 248.931 154.588C248.093 157.101 250.187 162.127 250.187 162.127C250.187 162.127 236.466 164.742 237.223 168.748C237.379 169.573 244.324 167.572 244.324 167.572C244.324 167.572 243.068 175.529 250.187 175.948C257.307 176.367 259.401 174.692 259.401 174.692C259.401 174.692 289.556 199.821 294.582 191.863C299.608 183.906 289.138 177.205 289.138 177.205Z" fill="#9F616A"/>
<path d="M300.027 152.494L304.634 154.169V166.734L306.309 169.247C306.309 169.247 305.89 174.273 304.634 175.529C303.377 176.786 300.865 176.367 301.702 179.298C302.206 181.21 302.348 183.198 302.121 185.162C302.121 185.162 294.582 194.795 294.163 193.538C293.745 192.282 287.881 176.786 287.044 176.786C286.206 176.786 295.42 152.494 295.42 152.494L300.027 152.494Z" fill="#D0CDE1"/>
<path d="M244.952 215.946C244.952 215.946 240.622 211.758 242.787 211.548C244.952 211.339 252.491 207.151 253.747 209.245C255.004 211.339 244.952 215.946 244.952 215.946Z" fill="#2F2E41"/>
<path d="M100.713 327.271C100.713 338.011 94.3284 341.761 86.4519 341.761C86.2695 341.761 86.0873 341.759 85.9054 341.755C85.5405 341.747 85.179 341.73 84.8219 341.705C77.7136 341.202 72.1909 337.259 72.1909 327.271C72.1909 316.934 85.4006 303.89 86.3929 302.925L86.3946 302.923C86.4328 302.885 86.4519 302.867 86.4519 302.867C86.4519 302.867 100.713 316.53 100.713 327.271Z" fill="#008FFF"/>
<path d="M85.9323 340.118L91.1482 332.83L85.9192 340.918L85.9053 341.755C85.5404 341.747 85.1789 341.73 84.8218 341.706L85.384 330.96L85.3797 330.877L85.3892 330.861L85.4422 329.846L80.2002 321.738L85.4587 329.085L85.4709 329.3L85.8958 321.182L81.408 312.803L85.9505 319.757L86.3928 302.925L86.3945 302.867V302.923L86.3206 316.196L90.7885 310.934L86.3024 317.339L86.1842 324.608L90.3558 317.632L86.1669 325.678L86.1008 329.719L92.157 320.009L86.0782 331.129L85.9323 340.118Z" fill="#3F3D56"/>
<path d="M133.432 151H131.955V142.469H133.432V151ZM140.17 147.385H136.736V151H135.254V142.469H140.674V143.664H136.736V146.201H140.17V147.385ZM145.502 149.014H142.197L141.506 151H139.965L143.188 142.469H144.518L147.746 151H146.199L145.502 149.014ZM142.613 147.818H145.086L143.85 144.279L142.613 147.818ZM155.486 151H154.004L150.201 144.947V151H148.719V142.469H150.201L154.016 148.545V142.469H155.486V151ZM164.047 146.957C164.047 147.793 163.902 148.527 163.613 149.16C163.324 149.789 162.91 150.273 162.371 150.613C161.836 150.949 161.219 151.117 160.52 151.117C159.828 151.117 159.211 150.949 158.668 150.613C158.129 150.273 157.711 149.791 157.414 149.166C157.121 148.541 156.973 147.82 156.969 147.004V146.523C156.969 145.691 157.115 144.957 157.408 144.32C157.705 143.684 158.121 143.197 158.656 142.861C159.195 142.521 159.812 142.352 160.508 142.352C161.203 142.352 161.818 142.52 162.354 142.855C162.893 143.188 163.309 143.668 163.602 144.297C163.895 144.922 164.043 145.65 164.047 146.482V146.957ZM162.564 146.512C162.564 145.566 162.385 144.842 162.025 144.338C161.67 143.834 161.164 143.582 160.508 143.582C159.867 143.582 159.365 143.834 159.002 144.338C158.643 144.838 158.459 145.547 158.451 146.465V146.957C158.451 147.895 158.633 148.619 158.996 149.131C159.363 149.643 159.871 149.898 160.52 149.898C161.176 149.898 161.68 149.648 162.031 149.148C162.387 148.648 162.564 147.918 162.564 146.957V146.512ZM172.215 148.891L173.527 142.469H174.998L173.029 151H171.611L169.988 144.771L168.33 151H166.906L164.938 142.469H166.408L167.732 148.879L169.361 142.469H170.604L172.215 148.891Z" fill="#83959D"/>
</g>
<defs>
<clipPath id="clip0">
<rect width="341" height="373.461" fill="white"/>
</clipPath>
</defs>
</svg>
