<svg width="24" height="24" viewBox="0 0 24 24" fill="none" xmlns="http://www.w3.org/2000/svg">
<path d="M20.5076 10.9337C20.4492 10.568 20.1055 10.3189 19.7398 10.3772C19.3741 10.4356 19.125 10.7793 19.1834 11.145C19.184 11.149 19.1847 11.153 19.1854 11.1569C19.8682 15.1762 17.1634 18.988 13.144 19.6708C9.12471 20.3536 5.31293 17.6488 4.63015 13.6295C3.94737 9.61015 6.6522 5.79837 10.6715 5.11559C13.1433 4.69571 15.6592 5.55912 17.3523 7.40832L14.3821 8.39792C14.0308 8.51483 13.8408 8.89441 13.9576 9.24577C13.9577 9.24585 13.9577 9.24597 13.9577 9.24605C14.0747 9.59742 14.4542 9.78744 14.8056 9.67057C14.8057 9.67053 14.8058 9.67049 14.8059 9.67049L18.8287 8.32956C19.1026 8.23834 19.2874 7.98201 19.2873 7.6933V3.67048C19.2873 3.30018 18.9871 3 18.6168 3C18.2465 3 17.9464 3.30018 17.9464 3.67048V6.11969C14.4935 2.83559 9.03207 2.97242 5.74797 6.42529C2.46388 9.87815 2.60067 15.3396 6.05357 18.6237C9.50648 21.9078 14.9679 21.771 18.252 18.3181C20.1247 16.3491 20.9604 13.613 20.5076 10.9337Z" fill="#fff"/>
</svg>
