<svg width="120" height="120" viewBox="0 0 120 120" fill="none" xmlns="http://www.w3.org/2000/svg">
<g clip-path="url(#clip0)">
<path d="M16.9219 11.5312H104.719C106.406 11.5312 107.766 12.8906 107.766 14.5781V115.781C107.766 117.469 106.406 118.828 104.719 118.828H16.9219C15.2344 118.828 13.875 117.469 13.875 115.781V14.5781C13.875 12.8906 15.2344 11.5312 16.9219 11.5312Z" fill="#EDF4FC"/>
<path d="M104.719 11.5312H16.9219C15.2344 11.5312 13.875 12.8906 13.875 14.5781V23.0156H107.766V14.5781C107.766 12.8906 106.406 11.5312 104.719 11.5312Z" fill="#5290DB"/>
<path d="M22.3125 19.2188C23.4775 19.2188 24.4219 18.2744 24.4219 17.1094C24.4219 15.9444 23.4775 15 22.3125 15C21.1475 15 20.2031 15.9444 20.2031 17.1094C20.2031 18.2744 21.1475 19.2188 22.3125 19.2188Z" fill="#FC657E"/>
<path d="M29.7656 19.2188C30.9306 19.2188 31.875 18.2744 31.875 17.1094C31.875 15.9444 30.9306 15 29.7656 15C28.6006 15 27.6562 15.9444 27.6562 17.1094C27.6562 18.2744 28.6006 19.2188 29.7656 19.2188Z" fill="#F5C84C"/>
<path d="M37.2188 19.2188C38.3837 19.2188 39.3281 18.2744 39.3281 17.1094C39.3281 15.9444 38.3837 15 37.2188 15C36.0538 15 35.1094 15.9444 35.1094 17.1094C35.1094 18.2744 36.0538 19.2188 37.2188 19.2188Z" fill="#B2E26D"/>
<path d="M104.719 120H16.9219C14.5781 120 12.7031 118.125 12.7031 115.781V14.5781C12.7031 12.2344 14.5781 10.3594 16.9219 10.3594H104.719C107.062 10.3594 108.937 12.2344 108.937 14.5781V115.781C108.937 118.125 107.016 120 104.719 120ZM16.9219 12.7031C15.8906 12.7031 15.0469 13.5469 15.0469 14.5781V115.781C15.0469 116.812 15.8906 117.656 16.9219 117.656H104.719C105.75 117.656 106.594 116.812 106.594 115.781V14.5781C106.594 13.5469 105.75 12.7031 104.719 12.7031H16.9219Z" fill="black"/>
<path d="M8.625 63.7031H7.64062V62.7188C7.64062 62.0156 7.03125 61.4062 6.32812 61.4062C5.625 61.4062 5.01562 62.0156 5.01562 62.7188V63.7031H4.03125C3.32812 63.7031 2.71875 64.3125 2.71875 65.0156C2.71875 65.7188 3.32812 66.3281 4.03125 66.3281H5.01562V67.3125C5.01562 68.0156 5.625 68.625 6.32812 68.625C7.03125 68.625 7.64062 68.0156 7.64062 67.3125V66.3281H8.625C9.32812 66.3281 9.9375 65.7188 9.9375 65.0156C9.9375 64.2656 9.32812 63.7031 8.625 63.7031Z" fill="#F5C84C"/>
<path d="M107.156 3.70301C105.281 3.37489 103.828 1.92176 103.453 0.093635C103.453 0.04676 103.406 -0.000114989 103.359 0.04676C103.312 0.04676 103.312 0.093635 103.312 0.093635C102.937 1.96863 101.484 3.37489 99.6094 3.70301C99.5625 3.70301 99.5156 3.74989 99.5156 3.79676C99.5156 3.84364 99.5625 3.84364 99.6094 3.89051C101.484 4.21864 102.937 5.67176 103.312 7.49989C103.312 7.54676 103.359 7.59364 103.406 7.54676C103.453 7.54676 103.453 7.49989 103.453 7.49989C103.828 5.62489 105.281 4.21864 107.156 3.89051C107.203 3.89051 107.25 3.84364 107.25 3.79676C107.203 3.74989 107.203 3.70301 107.156 3.70301Z" fill="#FC657E"/>
<path d="M117.234 90.6562C115.969 90.4219 114.937 89.4375 114.656 88.1719C114.656 88.125 114.609 88.125 114.609 88.125C114.562 88.125 114.562 88.125 114.562 88.1719C114.281 89.4375 113.297 90.4219 111.984 90.6562C111.937 90.6562 111.938 90.7031 111.938 90.7031C111.938 90.75 111.937 90.75 111.984 90.75C113.25 90.9844 114.281 91.9687 114.562 93.2344C114.562 93.2812 114.609 93.2812 114.609 93.2812C114.656 93.2812 114.656 93.2812 114.656 93.2344C114.937 91.9687 115.922 90.9844 117.234 90.75C117.234 90.7969 117.281 90.75 117.234 90.6562C117.281 90.7031 117.234 90.7031 117.234 90.6562Z" fill="#70D6F9"/>
<path d="M112.828 16.875C113.605 16.875 114.234 16.2454 114.234 15.4688C114.234 14.6921 113.605 14.0625 112.828 14.0625C112.051 14.0625 111.422 14.6921 111.422 15.4688C111.422 16.2454 112.051 16.875 112.828 16.875Z" fill="#70D6F9"/>
<path d="M8.29712 79.6875C9.07377 79.6875 9.70337 79.0579 9.70337 78.2812C9.70337 77.5046 9.07377 76.875 8.29712 76.875C7.52047 76.875 6.89087 77.5046 6.89087 78.2812C6.89087 79.0579 7.52047 79.6875 8.29712 79.6875Z" fill="#87D147"/>
<path d="M112.828 104.062C113.605 104.062 114.234 103.433 114.234 102.656C114.234 101.88 113.605 101.25 112.828 101.25C112.051 101.25 111.422 101.88 111.422 102.656C111.422 103.433 112.051 104.062 112.828 104.062Z" fill="#F5C84C"/>
<path d="M98.5312 18.2812H78.8438C78.1875 18.2812 77.6719 17.7656 77.6719 17.1094C77.6719 16.4531 78.1875 15.9375 78.8438 15.9375H98.5312C99.1875 15.9375 99.7031 16.4531 99.7031 17.1094C99.7031 17.7656 99.1875 18.2812 98.5312 18.2812Z" fill="black"/>
<path d="M107.766 24.1875H13.875C13.2188 24.1875 12.7031 23.6719 12.7031 23.0156V14.5781C12.7031 12.2344 14.5781 10.3594 16.9219 10.3594H104.719C107.062 10.3594 108.937 12.2344 108.937 14.5781V23.0156C108.937 23.6719 108.375 24.1875 107.766 24.1875ZM15.0469 21.8437H106.594V14.5781C106.594 13.5469 105.75 12.7031 104.719 12.7031H16.9219C15.8906 12.7031 15.0469 13.5469 15.0469 14.5781V21.8437Z" fill="black"/>
<path d="M22.3125 20.3906C20.4844 20.3906 19.0312 18.8906 19.0312 17.1094C19.0312 15.2812 20.5312 13.8281 22.3125 13.8281C24.1406 13.8281 25.5938 15.2812 25.5938 17.1094C25.5938 18.8906 24.1406 20.3906 22.3125 20.3906ZM22.3125 16.125C21.7969 16.125 21.375 16.5469 21.375 17.0625C21.375 17.5781 21.7969 18 22.3125 18C22.8281 18 23.25 17.5781 23.25 17.0625C23.25 16.5469 22.8281 16.125 22.3125 16.125Z" fill="black"/>
<path d="M29.7656 20.3906C27.9375 20.3906 26.4844 18.8906 26.4844 17.1094C26.4844 15.3281 27.9844 13.8281 29.7656 13.8281C31.5937 13.8281 33.0469 15.2812 33.0469 17.1094C33.0469 18.8906 31.5937 20.3906 29.7656 20.3906ZM29.7656 16.125C29.25 16.125 28.8281 16.5469 28.8281 17.0625C28.8281 17.5781 29.25 18 29.7656 18C30.2812 18 30.7031 17.5781 30.7031 17.0625C30.7031 16.5469 30.2812 16.125 29.7656 16.125Z" fill="black"/>
<path d="M37.2188 20.3906C35.3906 20.3906 33.9375 18.8906 33.9375 17.1094C33.9375 15.3281 35.4375 13.8281 37.2188 13.8281C39.0469 13.8281 40.5 15.2812 40.5 17.1094C40.5 18.8906 39 20.3906 37.2188 20.3906ZM37.2188 16.125C36.7031 16.125 36.2812 16.5469 36.2812 17.0625C36.2812 17.5781 36.7031 18 37.2188 18C37.7344 18 38.1562 17.5781 38.1562 17.0625C38.1562 16.5469 37.7344 16.125 37.2188 16.125Z" fill="black"/>
<path d="M63.6563 71.5779C62.5781 70.4998 62.5781 68.8123 63.6563 67.7341L64.6875 66.7029H37.7344C36.2344 66.7029 35.0156 67.9685 35.0156 69.5154C35.0156 71.0154 36.2344 72.2341 37.7344 72.2341H64.3125L63.6563 71.5779Z" fill="#EDF4FC"/>
<path d="M71.5782 47.2031C71.4844 47.1094 71.4375 47.0156 71.3438 46.9219L55.4063 31.0312C54.4219 30.0469 52.8282 30 51.8438 30.9375C51.7969 30.9375 51.7969 30.9844 51.75 31.0312L35.8125 46.9219C35.7188 47.0156 35.625 47.1094 35.5782 47.2031C34.3125 48.8437 35.4844 51.4687 37.4532 51.4687H69.6563C71.6719 51.4687 72.8438 48.8906 71.5782 47.2031Z" fill="#C7D7E5"/>
<path d="M39.1406 51.4688V66.75H44.6719V51.4688H39.1406Z" fill="#C7D7E5"/>
<path d="M50.8125 51.4688H56.3437V66.75H50.8125V51.4688Z" fill="#C7D7E5"/>
<path d="M68.0156 63.4219V51.4688H62.4844V66.75H64.6406L68.0156 63.4219Z" fill="#C7D7E5"/>
<path d="M53.5312 46.6406C55.3175 46.6406 56.7656 45.1925 56.7656 43.4062C56.7656 41.62 55.3175 40.1719 53.5312 40.1719C51.745 40.1719 50.2969 41.62 50.2969 43.4062C50.2969 45.1925 51.745 46.6406 53.5312 46.6406Z" fill="#DAE6F1"/>
<path d="M64.3125 73.4529H37.7344C35.5781 73.406 33.8438 71.6716 33.8438 69.4685C33.8438 67.3123 35.5781 65.6248 37.7344 65.5779H64.6875C65.3438 65.5779 65.8594 66.0935 65.8594 66.7498C65.8594 67.0779 65.7188 67.3591 65.5312 67.5935L64.5 68.6248C63.8906 69.2341 63.8906 70.2185 64.5 70.781L65.1562 71.4373C65.625 71.906 65.625 72.656 65.1562 73.0779C64.9219 73.3123 64.6406 73.4529 64.3125 73.4529ZM37.7344 67.9216C36.8438 67.9216 36.1406 68.6716 36.1875 69.5154C36.1875 70.3591 36.8906 71.0623 37.7344 71.0623H61.9687C61.5469 70.031 61.6406 68.8591 62.1094 67.8748H37.7344V67.9216Z" fill="black"/>
<path d="M69.7031 52.6407H37.5C36.1406 52.5938 34.9218 51.7969 34.3125 50.5782C33.6562 49.2657 33.7968 47.6719 34.6875 46.5C34.7812 46.3594 34.9218 46.2188 35.0156 46.125L50.9531 30.2344C52.4062 28.7813 54.75 28.7344 56.2031 30.1875L56.25 30.2344L72.1875 46.125C72.3281 46.2657 72.4218 46.3594 72.5156 46.5C73.4062 47.6719 73.5468 49.2657 72.8906 50.5782C72.2812 51.7969 71.0625 52.5938 69.7031 52.6407ZM53.5781 31.4532C53.2031 31.4532 52.8281 31.5938 52.5937 31.875L36.6562 47.7657C36.6093 47.8125 36.5625 47.8594 36.5156 47.9532C36.1875 48.4219 36.1406 49.0313 36.4218 49.5469C36.6093 49.9688 37.0312 50.25 37.5 50.2969H69.7031C70.1718 50.25 70.5937 49.9688 70.7812 49.5469C71.0625 49.0313 71.0156 48.4219 70.6875 47.9532C70.6406 47.9063 70.5937 47.8594 70.5468 47.7657L54.6093 31.875C54.3281 31.5938 53.9531 31.4532 53.5781 31.4532Z" fill="black"/>
<path d="M44.6719 67.9216H39.1406C38.4844 67.9216 37.9688 67.406 37.9688 66.7497V51.4685C37.9688 50.8123 38.4844 50.2966 39.1406 50.2966H44.6719C45.3281 50.2966 45.8438 50.8123 45.8438 51.4685V66.7497C45.8438 67.406 45.3281 67.9216 44.6719 67.9216ZM40.3125 65.5779H43.5V52.6404H40.3125V65.5779Z" fill="black"/>
<path d="M56.3437 67.9216H50.8125C50.1562 67.9216 49.6406 67.406 49.6406 66.7497V51.4685C49.6406 50.8123 50.1562 50.2966 50.8125 50.2966H56.3437C57 50.2966 57.5156 50.8123 57.5156 51.4685V66.7497C57.5156 67.406 57 67.9216 56.3437 67.9216ZM51.9844 65.5779H55.1719V52.6404H51.9844V65.5779Z" fill="black"/>
<path d="M64.6875 67.9216H62.5312C61.875 67.9216 61.3594 67.406 61.3594 66.7497V51.4685C61.3594 50.8123 61.875 50.2966 62.5312 50.2966H68.0625C68.7188 50.2966 69.2344 50.8123 69.2344 51.4685V63.4216C69.2344 63.7498 69.0938 64.031 68.9063 64.2654L65.5781 67.5935C65.2969 67.781 64.9688 67.9216 64.6875 67.9216ZM63.6563 65.5779H64.1719L66.8438 62.906V52.6404H63.6563V65.5779Z" fill="black"/>
<path d="M53.5312 47.7656C51.0937 47.7656 49.125 45.7969 49.125 43.3594C49.125 40.9219 51.0937 38.9531 53.5312 38.9531C55.9687 38.9531 57.9375 40.9219 57.9375 43.3594C57.9375 45.8437 55.9687 47.7656 53.5312 47.7656ZM53.5312 41.3437C52.4062 41.3437 51.4688 42.2812 51.4688 43.4062C51.4688 44.5312 52.4062 45.4687 53.5312 45.4687C54.6562 45.4687 55.5937 44.5312 55.5937 43.4062C55.5937 42.2812 54.6562 41.3437 53.5312 41.3437Z" fill="black"/>
<path d="M84.2344 47.0154L91.7812 54.5623C92.8594 55.6404 92.8594 57.3279 91.7812 58.406L84.2344 65.9529C83.1562 67.031 81.4687 67.031 80.3906 65.9529C79.3125 64.8748 79.3125 63.1873 80.3906 62.1091L83.2969 59.2029H74.7187C73.2187 59.2029 72.0469 57.9373 72.0469 56.4373C72.0469 54.9841 73.2656 53.7654 74.7187 53.7654H83.2969L80.3906 50.8591C79.3125 49.781 79.3125 48.0935 80.3906 47.0154C81.4687 45.9373 83.1562 45.9373 84.2344 47.0154Z" fill="#FC657E"/>
<path d="M71.2031 60.2341L63.6563 67.781C62.5781 68.8591 62.5781 70.5466 63.6563 71.6248L71.2031 79.1716C72.2812 80.2498 73.9688 80.2498 75.0469 79.1716C76.125 78.0935 76.125 76.406 75.0469 75.3279L72.1406 72.4216H80.7188C82.2188 72.4216 83.3906 71.156 83.3906 69.656C83.3906 68.2029 82.1719 66.9841 80.7188 66.9841H72.1406L75.0469 64.0779C76.125 62.9998 76.125 61.3123 75.0469 60.2341C73.9688 59.156 72.2344 59.156 71.2031 60.2341Z" fill="#29589F"/>
<path d="M71.2031 60.2341L63.6563 67.781C62.5781 68.8591 62.5781 70.5466 63.6563 71.6248L71.2031 79.1716C72.2812 80.2498 73.9688 80.2498 75.0469 79.1716C76.125 78.0935 76.125 76.406 75.0469 75.3279L72.1406 72.4216H80.7188C82.2188 72.4216 83.3906 71.156 83.3906 69.656C83.3906 68.2029 82.1719 66.9841 80.7188 66.9841H72.1406L75.0469 64.0779C76.125 62.9998 76.125 61.3123 75.0469 60.2341C73.9688 59.156 72.2344 59.156 71.2031 60.2341Z" fill="#70D6F9"/>
<path d="M82.3125 67.8748C80.1562 67.8748 78.4218 66.1404 78.4218 63.9841C78.4218 62.9529 78.8437 61.9685 79.5468 61.2185L80.4843 60.281H74.7187C72.5624 60.3279 70.8281 58.5935 70.7812 56.4373C70.7343 54.281 72.4687 52.5466 74.625 52.4998H74.7187H80.4843L79.5468 51.5623C78.0468 50.0623 78.0468 47.5779 79.5468 46.0779C81.0468 44.5779 83.5312 44.5779 85.0312 46.0779L92.5781 53.6248C94.0781 55.1248 94.0781 57.6091 92.5781 59.1091L85.0312 66.656C84.3281 67.4998 83.3437 67.8748 82.3125 67.8748ZM74.7187 54.9373C73.875 54.9373 73.1718 55.5935 73.1718 56.4373C73.1718 57.281 73.8281 57.9841 74.6718 57.9841H74.7187H83.2968C83.9531 57.9841 84.4687 58.4998 84.4687 59.156C84.4687 59.4841 84.3281 59.7654 84.1406 59.9998L81.2343 62.906C80.625 63.5154 80.625 64.4529 81.2343 65.0623C81.8437 65.6716 82.7812 65.6716 83.3906 65.0623L90.9375 57.5154C91.5468 56.906 91.5468 55.9216 90.9375 55.3591L83.3906 47.8123C82.7812 47.2029 81.7968 47.2029 81.2343 47.8123C80.6718 48.4216 80.625 49.406 81.2343 49.9685L84.1406 52.8748C84.6093 53.3435 84.6093 54.0935 84.1406 54.5154C83.9062 54.7498 83.625 54.8435 83.2968 54.8435H74.7187V54.9373Z" fill="black"/>
<path d="M73.125 81.0935C72.0937 81.0935 71.1094 80.6716 70.3594 79.9685L62.8125 72.4216C61.3125 70.9216 61.3125 68.4373 62.8125 66.9373L70.3594 59.3904C71.8594 57.8904 74.3437 57.8904 75.8437 59.3904C77.3437 60.8904 77.3437 63.3748 75.8437 64.8748L74.9062 65.8123H80.6719C82.8281 65.8591 84.5156 67.5935 84.5156 69.7498C84.5156 71.8591 82.7812 73.5466 80.6719 73.5935H74.9062L75.8437 74.531C77.3437 76.031 77.3437 78.5154 75.8437 80.0154C75.1406 80.6716 74.1562 81.0935 73.125 81.0935ZM72 61.0779L64.4531 68.6247C63.8437 69.2341 63.8437 70.2185 64.4531 70.781L72 78.3279C72.6094 78.9373 73.5937 78.9373 74.1562 78.3279C74.7187 77.7185 74.7656 76.7341 74.1562 76.1716L71.25 73.2654C70.7812 72.7966 70.7812 72.0466 71.25 71.6248C71.4844 71.3904 71.7656 71.2966 72.0937 71.2966H80.6719C81.5156 71.2966 82.2187 70.5935 82.1719 69.7498C82.1719 68.906 81.4687 68.2498 80.6719 68.2498H72.0937C71.4375 68.2498 70.9219 67.7341 70.9219 67.0779C70.9219 66.7498 71.0625 66.4685 71.25 66.2341L74.1562 63.3279C74.7656 62.7185 74.7656 61.7341 74.1562 61.1716C73.5469 60.6091 72.6094 60.4685 72 61.0779Z" fill="black"/>
<path d="M73.125 81.0935C72.0937 81.0935 71.1094 80.6716 70.3594 79.9685L62.8125 72.4216C61.3125 70.9216 61.3125 68.4373 62.8125 66.9373L70.3594 59.3904C71.8594 57.8904 74.3437 57.8904 75.8437 59.3904C77.3437 60.8904 77.3437 63.3748 75.8437 64.8748L74.9062 65.8123H80.6719C82.8281 65.8591 84.5156 67.5935 84.5156 69.7498C84.5156 71.8591 82.7812 73.5466 80.6719 73.5935H74.9062L75.8437 74.531C77.3437 76.031 77.3437 78.5154 75.8437 80.0154C75.1406 80.6716 74.1562 81.0935 73.125 81.0935ZM72 61.0779L64.4531 68.6247C63.8437 69.2341 63.8437 70.2185 64.4531 70.781L72 78.3279C72.6094 78.9373 73.5937 78.9373 74.1562 78.3279C74.7187 77.7185 74.7656 76.7341 74.1562 76.1716L71.25 73.2654C70.7812 72.7966 70.7812 72.0466 71.25 71.6248C71.4844 71.3904 71.7656 71.2966 72.0937 71.2966H80.6719C81.5156 71.2966 82.2187 70.5935 82.1719 69.7498C82.1719 68.906 81.4687 68.2498 80.6719 68.2498H72.0937C71.4375 68.2498 70.9219 67.7341 70.9219 67.0779C70.9219 66.7498 71.0625 66.4685 71.25 66.2341L74.1562 63.3279C74.7656 62.7185 74.7656 61.7341 74.1562 61.1716C73.5469 60.6091 72.6094 60.4685 72 61.0779Z" fill="black"/>
<path d="M28.6875 88.9688C30.2149 88.9688 31.4531 87.7305 31.4531 86.2031C31.4531 84.6757 30.2149 83.4375 28.6875 83.4375C27.1601 83.4375 25.9219 84.6757 25.9219 86.2031C25.9219 87.7305 27.1601 88.9688 28.6875 88.9688Z" fill="#FC657E"/>
<path d="M28.6875 90.1406C26.5312 90.1406 24.75 88.3594 24.75 86.2031C24.75 84.0469 26.5312 82.2656 28.6875 82.2656C30.8437 82.2656 32.625 84.0469 32.625 86.2031C32.625 88.4062 30.8437 90.1406 28.6875 90.1406ZM28.6875 84.6563C27.7969 84.6563 27.0937 85.3594 27.0937 86.25C27.0937 87.1406 27.7969 87.8437 28.6875 87.8437C29.5781 87.8437 30.2812 87.1406 30.2812 86.25C30.2812 85.3594 29.5781 84.6563 28.6875 84.6563Z" fill="black"/>
<path d="M75.4219 87.3748H46.5937C45.9375 87.3748 45.4219 86.8591 45.4219 86.2029C45.4219 85.5466 45.9375 85.031 46.5937 85.031H75.4219C76.0781 85.031 76.5937 85.5466 76.5937 86.2029C76.5937 86.8591 76.0312 87.3748 75.4219 87.3748Z" fill="black"/>
<path d="M75.5625 93.3281H46.7812C46.125 93.3281 45.6094 92.8125 45.6094 92.1562C45.6094 91.5 46.125 90.9844 46.7812 90.9844H75.6094C76.2656 90.9844 76.7812 91.5 76.7812 92.1562C76.7812 92.8125 76.2187 93.3281 75.5625 93.3281Z" fill="black"/>
<path d="M94.0781 87.3748H81.8437C81.1875 87.3748 80.6719 86.8591 80.6719 86.2029C80.6719 85.5466 81.1875 85.031 81.8437 85.031H94.0781C94.7344 85.031 95.25 85.5466 95.25 86.2029C95.25 86.8591 94.7344 87.3748 94.0781 87.3748Z" fill="black"/>
<path d="M93.9844 93.3281H81.75C81.0937 93.3281 80.5781 92.8125 80.5781 92.1562C80.5781 91.5 81.0937 90.9844 81.75 90.9844H93.9844C94.6406 90.9844 95.1562 91.5 95.1562 92.1562C95.1562 92.8125 94.6406 93.3281 93.9844 93.3281Z" fill="black"/>
<path d="M40.8281 87.3748H36.9375C36.2813 87.3748 35.7656 86.8591 35.7656 86.2029C35.7656 85.5466 36.2813 85.031 36.9375 85.031H40.8281C41.4844 85.031 42 85.5466 42 86.2029C42 86.8591 41.4844 87.3748 40.8281 87.3748Z" fill="black"/>
<path d="M40.7812 93.3281H36.8906C36.2344 93.3281 35.7188 92.8125 35.7188 92.1562C35.7188 91.5 36.2344 90.9844 36.8906 90.9844H40.7812C41.4375 90.9844 41.9531 91.5 41.9531 92.1562C41.9531 92.8125 41.4375 93.3281 40.7812 93.3281Z" fill="black"/>
<path d="M28.6875 102.797C30.2149 102.797 31.4531 101.559 31.4531 100.031C31.4531 98.5038 30.2149 97.2656 28.6875 97.2656C27.1601 97.2656 25.9219 98.5038 25.9219 100.031C25.9219 101.559 27.1601 102.797 28.6875 102.797Z" fill="#70D6F9"/>
<path d="M28.6875 103.969C26.5312 103.969 24.75 102.187 24.75 100.031C24.75 97.875 26.5312 96.0938 28.6875 96.0938C30.8437 96.0938 32.625 97.875 32.625 100.031C32.625 102.234 30.8437 103.969 28.6875 103.969ZM28.6875 98.4375C27.7969 98.4375 27.0937 99.1406 27.0937 100.031C27.0937 100.922 27.7969 101.625 28.6875 101.625C29.5781 101.625 30.2812 100.922 30.2812 100.031C30.2812 99.1875 29.5781 98.4375 28.6875 98.4375Z" fill="black"/>
<path d="M75.4219 101.203H46.5937C45.9375 101.203 45.4219 100.687 45.4219 100.031C45.4219 99.3748 45.9375 98.8591 46.5937 98.8591H75.4219C76.0781 98.8591 76.5937 99.3748 76.5937 100.031C76.5937 100.687 76.0312 101.203 75.4219 101.203Z" fill="black"/>
<path d="M75.5625 107.156H46.7812C46.125 107.156 45.6094 106.641 45.6094 105.984C45.6094 105.328 46.125 104.812 46.7812 104.812H75.6094C76.2656 104.812 76.7812 105.328 76.7812 105.984C76.7812 106.641 76.2187 107.156 75.5625 107.156Z" fill="black"/>
<path d="M94.0781 101.203H81.8437C81.1875 101.203 80.6719 100.687 80.6719 100.031C80.6719 99.3748 81.1875 98.8591 81.8437 98.8591H94.0781C94.7344 98.8591 95.25 99.3748 95.25 100.031C95.25 100.687 94.7344 101.203 94.0781 101.203Z" fill="black"/>
<path d="M93.9844 107.156H81.75C81.0937 107.156 80.5781 106.641 80.5781 105.984C80.5781 105.328 81.0937 104.812 81.75 104.812H93.9844C94.6406 104.812 95.1562 105.328 95.1562 105.984C95.1562 106.641 94.6406 107.156 93.9844 107.156Z" fill="black"/>
<path d="M40.8281 101.203H36.9375C36.2813 101.203 35.7656 100.687 35.7656 100.031C35.7656 99.3748 36.2813 98.8591 36.9375 98.8591H40.8281C41.4844 98.8591 42 99.3748 42 100.031C42 100.687 41.4844 101.203 40.8281 101.203Z" fill="black"/>
<path d="M40.7812 107.156H36.8906C36.2344 107.156 35.7188 106.641 35.7188 105.984C35.7188 105.328 36.2344 104.812 36.8906 104.812H40.7812C41.4375 104.812 41.9531 105.328 41.9531 105.984C41.9531 106.641 41.4375 107.156 40.7812 107.156Z" fill="black"/>
</g>
<defs>
<clipPath id="clip0">
<rect width="120" height="120" fill="white"/>
</clipPath>
</defs>
</svg>
