<svg width="18" height="18" viewBox="0 0 18 18" fill="none" xmlns="http://www.w3.org/2000/svg">
<rect width="18" height="18" fill="white"/>
<path d="M18.0001 5.99996H13.7144V5.14287H17.143V1.71436H18.0001V5.99996Z" fill="black"/>
<path d="M9 18C4.03936 18 0 13.9606 0 9C0 4.03936 4.03936 0 9 0C11.4536 0 13.7464 0.969622 15.4554 2.73214L17.8821 5.27673L17.2608 5.86607L14.8392 3.32682C13.2964 1.73568 11.2178 0.857091 9 0.857091C4.51067 0.857091 0.857091 4.51067 0.857091 9C0.857091 13.4893 4.51067 17.1429 9 17.1429C13.4893 17.1429 17.1429 13.4893 17.1429 9H18C18 13.9606 13.9606 18 9 18Z" fill="black"/>
</svg>
