<svg width="56" height="51" viewBox="0 0 56 51" fill="none" xmlns="http://www.w3.org/2000/svg">
<path d="M44.875 22.6445V50.7044H11.125V22.6445L26.6781 7.12739C26.8558 6.95157 27.0659 6.8118 27.2969 6.71584C27.5969 6.59499 27.9237 6.55625 28.2437 6.6036C28.3204 6.61017 28.3959 6.62587 28.4688 6.65037C28.4921 6.64884 28.5153 6.65545 28.5344 6.66908C28.595 6.68351 28.6545 6.70226 28.7125 6.7252L28.9375 6.83744C29.0796 6.91409 29.2092 7.01186 29.3219 7.12739L44.875 22.6445Z" fill="#FFA733"/>
<path d="M55.1875 50.7051H39.25C39.25 49.7128 39.6451 48.7612 40.3484 48.0596C41.0516 47.3579 42.0054 46.9638 43 46.9638C43.0469 46.9638 43.0938 46.9731 43.1406 46.9731C43.0506 46.6661 43.0033 46.3483 43 46.0284C43 45.0362 43.3951 44.0846 44.0984 43.3829C44.8016 42.6813 45.7554 42.2871 46.75 42.2871C47.7446 42.2871 48.6984 42.6813 49.4016 43.3829C50.1049 44.0846 50.5 45.0362 50.5 46.0284C51.7432 46.0284 52.9355 46.5211 53.8146 47.3982C54.6936 48.2752 55.1875 49.4648 55.1875 50.7051Z" fill="#00EED1"/>
<path d="M4.77822 48.002C4.80236 48.0692 4.83054 48.135 4.8626 48.1988C4.75947 48.152 4.65635 48.1051 4.55322 48.0676C4.62545 48.0371 4.70095 48.0151 4.77822 48.002Z" fill="#00EED1"/>
<path d="M16.75 50.7049H14.875C14.8752 49.6268 14.5021 48.5817 13.8187 47.7465C13.1354 46.9114 12.1838 46.3374 11.125 46.1218V44.8965C11.4766 45.2073 11.7414 45.6036 11.8937 46.0469C11.95 46.0469 12.0063 46.0282 12.0625 46.0282C12.3774 46.026 12.6917 46.0573 13 46.1218C14.0588 46.3374 15.0104 46.9114 15.6937 47.7465C16.3771 48.5817 16.7502 49.6268 16.75 50.7049Z" fill="#FF9811"/>
<path d="M28.9375 17.5381C28.6895 17.7928 28.3552 17.9463 28 17.9683C27.1281 17.9683 26.6406 16.9301 25.9656 16.397C26.2999 16.206 26.6773 16.103 27.0625 16.0977C27.8687 16.0977 28.3375 16.9862 28.9375 17.5381Z" fill="#FF9811"/>
<path d="M40.1875 33.8689V38.5456C40.1875 40.034 39.5949 41.4614 38.54 42.5138C37.4851 43.5663 36.0543 44.1576 34.5625 44.1576H32.6875C34.1793 44.1576 35.6101 43.5663 36.665 42.5138C37.7199 41.4614 38.3125 40.034 38.3125 38.5456V33.8689C38.3145 31.6617 37.6047 29.5123 36.2878 27.7387C34.9709 25.965 33.117 24.6612 31 24.0199L31.1688 23.5803L33.625 17.033C33.0064 16.9778 32.414 16.7582 31.9094 16.397C32.1279 16.2132 32.4019 16.1079 32.6875 16.0977C33.8594 16.0977 34.3281 17.033 35.5 17.033L33.0438 23.5803L32.875 24.0199C34.992 24.6612 36.8459 25.965 38.1628 27.7387C39.4797 29.5123 40.1895 31.6617 40.1875 33.8689Z" fill="#FF9811"/>
<path d="M44.875 3.93945V17.0341L37.375 9.55143V3.93945H44.875Z" fill="#FFA733"/>
<path d="M28.9375 6.83744C28.7954 6.91409 28.6658 7.01186 28.5531 7.12739L11.125 24.5152V22.6445L26.6781 7.12739C26.8558 6.95157 27.0659 6.8118 27.2969 6.71584C27.5969 6.59499 27.9237 6.55625 28.2437 6.6036C28.3204 6.61017 28.3959 6.62587 28.4688 6.65037C28.4921 6.64884 28.5153 6.65545 28.5344 6.66908C28.595 6.68351 28.6545 6.70226 28.7125 6.7252L28.9375 6.83744Z" fill="#FF9811"/>
<path d="M44.875 15.1623V17.033L37.375 9.55035V7.67969L44.875 15.1623Z" fill="#FF9811"/>
<path d="M46.75 3.00325C46.75 3.25132 46.6512 3.48922 46.4754 3.66463C46.2996 3.84004 46.0611 3.93858 45.8125 3.93858H36.4375C36.1889 3.93858 35.9504 3.84004 35.7746 3.66463C35.5988 3.48922 35.5 3.25132 35.5 3.00325V1.1326C35.5 0.884531 35.5988 0.646626 35.7746 0.471218C35.9504 0.295809 36.1889 0.197266 36.4375 0.197266H45.8125C46.0611 0.197266 46.2996 0.295809 46.4754 0.471218C46.6512 0.646626 46.75 0.884531 46.75 1.1326V3.00325Z" fill="#EE8700"/>
<path d="M28 23.5801C29.016 23.5818 30.0264 23.7298 31 24.0197C33.117 24.6609 34.9709 25.9648 36.2878 27.7384C37.6047 29.5121 38.3146 31.6614 38.3125 33.8687V38.5454C38.3125 40.0338 37.7199 41.4612 36.665 42.5136C35.6101 43.5661 34.1794 44.1573 32.6875 44.1573H23.3125C21.8207 44.1573 20.3899 43.5661 19.335 42.5136C18.2801 41.4612 17.6875 40.0338 17.6875 38.5454V33.8687C17.6855 31.6614 18.3953 29.5121 19.7122 27.7384C21.0291 25.9648 22.883 24.6609 25 24.0197C25.9736 23.7298 26.984 23.5818 28 23.5801Z" fill="#00CCB3"/>
<path d="M33.9011 30.0508H31.5964C32.0131 30.5781 32.2768 31.2227 32.3875 31.9844H34.3503L33.9011 33.5273H32.4167C32.2996 34.6862 31.8406 35.5586 31.0398 36.1445C30.239 36.7305 29.1257 37.0234 27.7 37.0234L32.5144 42.6094V42.7266H30.2976L25.1218 36.7012L25.1121 35.4805H27.5437C28.3575 35.474 29.0183 35.2982 29.5261 34.9531C30.0339 34.6016 30.3562 34.1263 30.4929 33.5273H24.8386L25.2878 31.9844H30.4734C30.1609 30.7474 29.2039 30.1029 27.6023 30.0508H24.8582L25.3171 28.5078H34.3503L33.9011 30.0508Z" fill="#FF5023"/>
<path d="M30.8125 16.0977C29.6406 16.0977 29.1719 17.9683 28 17.9683C26.8281 17.9683 26.3594 16.0977 25.1875 16.0977C24.0156 16.0977 23.5469 17.033 22.375 17.033L24.8313 23.5803L25 24.0199C26.9569 23.4338 29.0431 23.4338 31 24.0199L31.1688 23.5803L33.625 17.033C32.4531 17.033 31.9844 16.0977 30.8125 16.0977Z" fill="#00B39D"/>
<path d="M50.9687 23.1145C51.3417 23.4866 51.5512 23.9913 51.5512 24.5175C51.5512 25.0438 51.3417 25.5484 50.9687 25.9205C50.5958 26.2926 50.0899 26.5017 49.5625 26.5017C49.035 26.5017 48.5292 26.2926 48.1562 25.9205L44.875 22.6469L29.3218 7.12975C29.1484 6.95633 28.9423 6.81875 28.7155 6.72488C28.4887 6.631 28.2455 6.58268 28 6.58268C27.7544 6.58268 27.5113 6.631 27.2844 6.72488C27.0576 6.81875 26.8516 6.95633 26.6781 7.12975L11.125 22.6469L7.84372 25.9205C7.47076 26.2926 6.96491 26.5017 6.43747 26.5017C5.91002 26.5017 5.40418 26.2926 5.03122 25.9205C4.65826 25.5484 4.44873 25.0438 4.44873 24.5175C4.44873 23.9913 4.65826 23.4866 5.03122 23.1145L26.6781 1.51777C26.8516 1.34435 27.0576 1.20677 27.2844 1.11289C27.5113 1.01902 27.7544 0.970703 28 0.970703C28.2455 0.970703 28.4887 1.01902 28.7155 1.11289C28.9423 1.20677 29.1484 1.34435 29.3218 1.51777L37.375 9.55225L44.875 17.0349L50.9687 23.1145Z" fill="#FF5023"/>
<path d="M11.125 46.1224C12.1838 46.3381 13.1354 46.912 13.8187 47.7472C14.5021 48.5824 14.8752 49.6274 14.875 50.7056H0.8125C0.8125 49.9614 1.10882 49.2477 1.63626 48.7214C2.16371 48.1952 2.87908 47.8996 3.625 47.8996C4.0552 47.9021 4.47889 48.0046 4.8625 48.1989C4.66777 47.8162 4.56506 47.3934 4.5625 46.9642C4.56049 46.3014 4.79447 45.6593 5.22275 45.1525C5.65102 44.6457 6.24575 44.3071 6.90094 44.197C7.55614 44.087 8.22922 44.2126 8.80022 44.5515C9.37123 44.8904 9.80306 45.4206 10.0187 46.0476C10.075 46.0476 10.1313 46.0289 10.1875 46.0289C10.5024 46.0267 10.8167 46.058 11.125 46.1224Z" fill="#00EED1"/>
<path d="M31.75 27.3212H29.875V26.3859C29.875 25.8897 29.6775 25.4139 29.3258 25.0631C28.9742 24.7123 28.4973 24.5152 28 24.5152C27.5027 24.5152 27.0258 24.7123 26.6742 25.0631C26.3225 25.4139 26.125 25.8897 26.125 26.3859V27.3212H24.25V26.3859C24.25 25.3936 24.6451 24.442 25.3484 23.7403C26.0516 23.0387 27.0054 22.6445 28 22.6445C28.9946 22.6445 29.9484 23.0387 30.6516 23.7403C31.3549 24.442 31.75 25.3936 31.75 26.3859V27.3212Z" fill="#00B39D"/>
<path d="M33.625 33.8691H35.5V35.7398H33.625V33.8691Z" fill="#00B39D"/>
<path d="M20.5 33.8691H22.375V35.7398H20.5V33.8691Z" fill="#00B39D"/>
<path d="M22.375 22.6445H33.625V24.5152H22.375V22.6445Z" fill="#009986"/>
<path d="M33.625 22.6445H35.5V24.5152H33.625V22.6445Z" fill="#FF9811"/>
<path d="M37.375 3.93945H44.875V5.81011H37.375V3.93945Z" fill="#FF9811"/>
</svg>
