<svg width="224" height="224" viewBox="0 0 224 224" fill="none" xmlns="http://www.w3.org/2000/svg">
<rect width="224" height="224" fill="#F5F7F7"/>
<g clip-path="url(#clip0)">
<path d="M116.214 120.65H102.401V121.096H104.555V125.329H105.001V121.096H113.391V125.329H113.837V121.096H116.214V120.65Z" fill="#3F3D56"/>
<path d="M121.339 109.733H117.774V113.298H119.426V125.31H119.872V113.298H121.339V109.733Z" fill="#3F3D56"/>
<path d="M116.241 119.317H102.428V119.763H116.241V119.317Z" fill="#3F3D56"/>
<path d="M116.241 118.203H102.428V118.649H116.241V118.203Z" fill="#3F3D56"/>
<path d="M116.241 117.089H102.428V117.535H116.241V117.089Z" fill="#3F3D56"/>
<path d="M151.64 126.613H151.194C151.194 105.483 134.003 88.2918 112.872 88.2918C91.7416 88.2918 74.5506 105.483 74.5506 126.613H74.105C74.105 105.237 91.4959 87.8462 112.872 87.8462C134.249 87.8462 151.64 105.237 151.64 126.613Z" fill="#3F3D56"/>
<path d="M48.4279 114.856C68.5464 114.856 84.8557 98.5464 84.8557 78.4279C84.8557 58.3093 68.5464 42 48.4279 42C28.3093 42 12 58.3093 12 78.4279C12 98.5464 28.3093 114.856 48.4279 114.856Z" fill="#008FFF"/>
<path opacity="0.2" d="M75.525 54.0969C78.923 62.0452 79.3839 70.9428 76.8255 79.1997C74.2671 87.4565 68.8561 94.5347 61.5595 99.1693C54.2628 103.804 45.5558 105.693 36.9946 104.499C28.4333 103.305 20.5755 99.1054 14.8254 92.6511C16.9011 97.5072 20.0078 101.854 23.9302 105.39C27.8525 108.926 32.4968 111.568 37.5413 113.131C42.5857 114.694 47.9097 115.142 53.1444 114.443C58.3791 113.744 63.3993 111.916 67.8572 109.084C72.315 106.253 76.104 102.486 78.9616 98.0448C81.8192 93.6036 83.677 88.5943 84.4064 83.3638C85.1358 78.1333 84.7193 72.8068 83.1857 67.7532C81.6522 62.6997 79.0382 58.04 75.525 54.0969Z" fill="black"/>
<path d="M48.5279 78.4279H48.6279L50.4293 181.707H46.6265L48.5279 78.4279Z" fill="#3F3D56"/>
<path d="M55.1607 134.683L54.3215 133.089L48.2999 136.26L49.1391 137.854L55.1607 134.683Z" fill="#3F3D56"/>
<path d="M182.516 123.366C198.8 123.366 212 110.166 212 93.8826C212 77.5992 198.8 64.3989 182.516 64.3989C166.233 64.3989 153.033 77.5992 153.033 93.8826C153.033 110.166 166.233 123.366 182.516 123.366Z" fill="#008FFF"/>
<path opacity="0.2" d="M204.448 74.1898C207.198 80.623 207.571 87.8244 205.501 94.5072C203.43 101.19 199.05 106.919 193.145 110.67C187.239 114.421 180.192 115.95 173.263 114.984C166.333 114.017 159.974 110.618 155.32 105.394C157 109.325 159.514 112.843 162.689 115.705C165.863 118.567 169.622 120.705 173.705 121.97C177.788 123.235 182.097 123.598 186.334 123.032C190.571 122.467 194.634 120.987 198.242 118.695C201.85 116.403 204.917 113.355 207.23 109.76C209.542 106.165 211.046 102.111 211.636 97.8776C212.227 93.6441 211.89 89.333 210.648 85.2428C209.407 81.1526 207.292 77.3812 204.448 74.1898Z" fill="black"/>
<path d="M182.597 93.8825H182.678L184.136 177.474H181.058L182.597 93.8825Z" fill="#3F3D56"/>
<path d="M187.966 139.414L187.287 138.124L182.413 140.69L183.092 141.98L187.966 139.414Z" fill="#3F3D56"/>
<path d="M95.5128 119.271C98.0761 119.271 100.154 117.193 100.154 114.63C100.154 112.067 98.0761 109.989 95.5128 109.989C92.9494 109.989 90.8713 112.067 90.8713 114.63C90.8713 117.193 92.9494 119.271 95.5128 119.271Z" fill="#008FFF"/>
<path opacity="0.2" d="M98.9652 111.53C99.3981 112.543 99.4569 113.676 99.1309 114.728C98.8049 115.78 98.1155 116.682 97.1858 117.273C96.2561 117.863 95.1467 118.104 94.0559 117.952C92.965 117.8 91.9638 117.265 91.2312 116.442C91.4957 117.061 91.8915 117.615 92.3913 118.065C92.891 118.516 93.4828 118.852 94.1255 119.052C94.7683 119.251 95.4466 119.308 96.1136 119.219C96.7806 119.13 97.4202 118.897 97.9882 118.536C98.5562 118.175 99.039 117.695 99.4031 117.129C99.7672 116.564 100.004 115.925 100.097 115.259C100.19 114.592 100.137 113.914 99.9413 113.27C99.7459 112.626 99.4128 112.032 98.9652 111.53Z" fill="black"/>
<path d="M95.5254 114.63H95.5381L95.7677 127.789H95.2832L95.5254 114.63Z" fill="#3F3D56"/>
<path d="M96.3706 121.798L96.2637 121.595L95.4964 121.999L95.6034 122.202L96.3706 121.798Z" fill="#3F3D56"/>
<path d="M138.402 111.553C144.964 111.553 150.284 106.233 150.284 99.6706C150.284 93.1081 144.964 87.7881 138.402 87.7881C131.839 87.7881 126.519 93.1081 126.519 99.6706C126.519 106.233 131.839 111.553 138.402 111.553Z" fill="#008FFF"/>
<path opacity="0.2" d="M147.241 91.734C148.349 94.3267 148.5 97.229 147.665 99.9223C146.83 102.616 145.065 104.924 142.685 106.436C140.305 107.948 137.465 108.564 134.673 108.175C131.88 107.785 129.317 106.415 127.441 104.31C128.118 105.894 129.132 107.312 130.411 108.465C131.69 109.619 133.205 110.48 134.851 110.99C136.496 111.5 138.233 111.646 139.94 111.418C141.648 111.19 143.285 110.594 144.74 109.67C146.194 108.747 147.43 107.518 148.362 106.069C149.294 104.621 149.9 102.987 150.138 101.281C150.376 99.5745 150.24 97.837 149.74 96.1886C149.239 94.5402 148.387 93.0202 147.241 91.734Z" fill="black"/>
<path d="M138.435 99.6705H138.467L139.055 133.359H137.814L138.435 99.6705Z" fill="#3F3D56"/>
<path d="M140.598 118.021L140.324 117.501L138.36 118.535L138.634 119.055L140.598 118.021Z" fill="#3F3D56"/>
<path d="M56.5942 176.566C56.5942 176.566 56.7481 173.342 59.9022 173.716L56.5942 176.566Z" fill="#3F3D56"/>
<path d="M55.7029 173.498C56.5747 173.498 57.2815 172.791 57.2815 171.919C57.2815 171.047 56.5747 170.34 55.7029 170.34C54.831 170.34 54.1243 171.047 54.1243 171.919C54.1243 172.791 54.831 173.498 55.7029 173.498Z" fill="#008FFF"/>
<path d="M55.8916 174.577H55.446V177.696H55.8916V174.577Z" fill="#3F3D56"/>
<path d="M67.7341 169.213C67.7341 169.213 67.888 165.989 71.0421 166.364L67.7341 169.213Z" fill="#3F3D56"/>
<path d="M66.843 166.145C67.7148 166.145 68.4216 165.438 68.4216 164.567C68.4216 163.695 67.7148 162.988 66.843 162.988C65.9712 162.988 65.2644 163.695 65.2644 164.567C65.2644 165.438 65.9712 166.145 66.843 166.145Z" fill="#008FFF"/>
<path d="M67.0318 167.225H66.5862V170.344H67.0318V167.225Z" fill="#3F3D56"/>
<path d="M101.314 144.269C101.314 144.269 101.437 141.709 103.942 142.006L101.314 144.269Z" fill="#3F3D56"/>
<path d="M100.607 141.833C101.299 141.833 101.86 141.271 101.86 140.579C101.86 139.886 101.299 139.325 100.607 139.325C99.9141 139.325 99.3528 139.886 99.3528 140.579C99.3528 141.271 99.9141 141.833 100.607 141.833Z" fill="#008FFF"/>
<path d="M100.757 142.69H100.403V145.168H100.757V142.69Z" fill="#3F3D56"/>
<path d="M150.331 136.249C150.331 136.249 150.453 133.688 152.958 133.986L150.331 136.249Z" fill="#3F3D56"/>
<path d="M149.623 133.812C150.315 133.812 150.877 133.25 150.877 132.558C150.877 131.866 150.315 131.304 149.623 131.304C148.93 131.304 148.369 131.866 148.369 132.558C148.369 133.25 148.93 133.812 149.623 133.812Z" fill="#008FFF"/>
<path d="M149.773 134.669H149.419V137.147H149.773V134.669Z" fill="#3F3D56"/>
<path d="M103.542 150.953C103.542 150.953 103.665 148.393 106.17 148.69L103.542 150.953Z" fill="#3F3D56"/>
<path d="M102.835 148.517C103.527 148.517 104.088 147.955 104.088 147.263C104.088 146.57 103.527 146.009 102.835 146.009C102.142 146.009 101.581 146.57 101.581 147.263C101.581 147.955 102.142 148.517 102.835 148.517Z" fill="#008FFF"/>
<path d="M102.985 149.374H102.631V151.852H102.985V149.374Z" fill="#3F3D56"/>
<path d="M98.1953 155.855C98.1953 155.855 98.3175 153.294 100.823 153.592L98.1953 155.855Z" fill="#3F3D56"/>
<path d="M97.4874 153.418C98.1799 153.418 98.7413 152.857 98.7413 152.164C98.7413 151.472 98.1799 150.911 97.4874 150.911C96.795 150.911 96.2336 151.472 96.2336 152.164C96.2336 152.857 96.795 153.418 97.4874 153.418Z" fill="#008FFF"/>
<path d="M97.6374 154.276H97.2834V156.753H97.6374V154.276Z" fill="#3F3D56"/>
<path d="M157.906 140.482C157.906 140.482 158.028 137.921 160.533 138.219L157.906 140.482Z" fill="#3F3D56"/>
<path d="M157.198 138.045C157.89 138.045 158.452 137.484 158.452 136.791C158.452 136.099 157.89 135.537 157.198 135.537C156.505 135.537 155.944 136.099 155.944 136.791C155.944 137.484 156.505 138.045 157.198 138.045Z" fill="#008FFF"/>
<path d="M157.348 138.903H156.994V141.38H157.348V138.903Z" fill="#3F3D56"/>
<path d="M85.7185 146.052C85.7185 146.052 85.8407 143.491 88.3458 143.789L85.7185 146.052Z" fill="#3F3D56"/>
<path d="M85.0106 143.615C85.7031 143.615 86.2644 143.054 86.2644 142.361C86.2644 141.669 85.7031 141.107 85.0106 141.107C84.3182 141.107 83.7568 141.669 83.7568 142.361C83.7568 143.054 84.3182 143.615 85.0106 143.615Z" fill="#008FFF"/>
<path d="M85.1606 144.473H84.8066V146.95H85.1606V144.473Z" fill="#3F3D56"/>
<path d="M143.646 133.352C143.646 133.352 143.769 130.792 146.274 131.089L143.646 133.352Z" fill="#3F3D56"/>
<path d="M142.939 130.915C143.631 130.915 144.192 130.354 144.192 129.662C144.192 128.969 143.631 128.408 142.939 128.408C142.246 128.408 141.685 128.969 141.685 129.662C141.685 130.354 142.246 130.915 142.939 130.915Z" fill="#008FFF"/>
<path d="M143.089 131.773H142.735V134.25H143.089V131.773Z" fill="#3F3D56"/>
<path d="M37.2104 177.234C37.2104 177.234 37.3643 174.01 40.5184 174.385L37.2104 177.234Z" fill="#3F3D56"/>
<path d="M36.3193 174.166C37.1912 174.166 37.8979 173.459 37.8979 172.587C37.8979 171.716 37.1912 171.009 36.3193 171.009C35.4475 171.009 34.7407 171.716 34.7407 172.587C34.7407 173.459 35.4475 174.166 36.3193 174.166Z" fill="#008FFF"/>
<path d="M36.5081 175.246H36.0625V178.365H36.5081V175.246Z" fill="#3F3D56"/>
<path d="M190.72 176.343C190.72 176.343 190.874 173.119 194.028 173.494L190.72 176.343Z" fill="#3F3D56"/>
<path d="M189.829 173.275C190.701 173.275 191.407 172.568 191.407 171.696C191.407 170.824 190.701 170.118 189.829 170.118C188.957 170.118 188.25 170.824 188.25 171.696C188.25 172.568 188.957 173.275 189.829 173.275Z" fill="#008FFF"/>
<path d="M190.018 174.354H189.572V177.474H190.018V174.354Z" fill="#3F3D56"/>
<path d="M177.798 168.767C177.798 168.767 177.951 165.544 181.106 165.918L177.798 168.767Z" fill="#3F3D56"/>
<path d="M176.906 165.7C177.778 165.7 178.485 164.993 178.485 164.121C178.485 163.249 177.778 162.542 176.906 162.542C176.035 162.542 175.328 163.249 175.328 164.121C175.328 164.993 176.035 165.7 176.906 165.7Z" fill="#008FFF"/>
<path d="M177.095 166.779H176.649V169.898H177.095V166.779Z" fill="#3F3D56"/>
<path d="M176.015 180.13C176.015 180.13 176.169 176.906 179.323 177.281L176.015 180.13Z" fill="#3F3D56"/>
<path d="M175.124 177.062C175.996 177.062 176.703 176.356 176.703 175.484C176.703 174.612 175.996 173.905 175.124 173.905C174.252 173.905 173.545 174.612 173.545 175.484C173.545 176.356 174.252 177.062 175.124 177.062Z" fill="#008FFF"/>
<path d="M175.313 178.142H174.867V181.261H175.313V178.142Z" fill="#3F3D56"/>
<path d="M39.7754 182.536C39.7754 182.536 109.958 164.044 109.289 145.106C108.064 139.87 99.5973 138.533 99.5973 138.533C99.5973 138.533 79.5453 135.86 90.4625 129.398C101.38 122.937 131.235 124.497 131.235 124.497C131.235 124.497 100.489 129.398 114.079 132.072C124.997 132.74 139.033 135.637 139.033 135.637C139.033 135.637 167.551 141.653 171.562 156.357C175.572 171.062 172.23 182.425 172.23 182.425L39.7754 182.536Z" fill="#E6E6E6"/>
<path d="M116.216 182.609L115.953 182.241C116.324 181.976 116.69 181.712 117.05 181.449L117.316 181.814C116.954 182.077 116.588 182.342 116.216 182.609Z" fill="white"/>
<path d="M119.492 180.199L119.219 179.839C119.949 179.286 120.667 178.731 121.355 178.187L121.635 178.541C120.945 179.087 120.224 179.644 119.492 180.199ZM123.741 176.835L123.453 176.487C124.159 175.901 124.85 175.311 125.505 174.735L125.803 175.074C125.145 175.653 124.451 176.246 123.741 176.835ZM127.812 173.252L127.503 172.923C128.177 172.291 128.827 171.658 129.435 171.042L129.756 171.359C129.144 171.979 128.49 172.616 127.812 173.252ZM131.618 169.382L131.282 169.081C131.901 168.391 132.487 167.7 133.023 167.028L133.376 167.309C132.835 167.989 132.243 168.686 131.618 169.382ZM134.994 165.123L134.621 164.868C135.146 164.099 135.62 163.331 136.029 162.586L136.425 162.803C136.009 163.561 135.527 164.342 134.994 165.123ZM137.591 160.333L137.17 160.169C137.498 159.342 137.754 158.489 137.937 157.62L138.379 157.71C138.191 158.606 137.928 159.483 137.591 160.333V160.333ZM138.193 154.984C138.18 154.106 138.058 153.233 137.83 152.386L138.266 152.268C138.504 153.152 138.631 154.061 138.645 154.976L138.193 154.984ZM136.843 149.948C136.414 149.174 135.91 148.443 135.34 147.767L135.686 147.477C136.276 148.176 136.796 148.931 137.238 149.731L136.843 149.948ZM133.474 145.861C132.803 145.27 132.1 144.716 131.369 144.202L131.629 143.834C132.374 144.357 133.09 144.921 133.773 145.523L133.474 145.861ZM129.106 142.749C128.367 142.315 127.57 141.882 126.738 141.461L126.941 141.058C127.783 141.483 128.588 141.921 129.335 142.36L129.106 142.749ZM124.298 140.307C123.512 139.958 122.675 139.607 121.809 139.263L121.977 138.843C122.847 139.189 123.69 139.543 124.481 139.895L124.298 140.307ZM119.278 138.303C118.473 138.011 117.613 137.712 116.722 137.413L116.865 136.985C117.76 137.285 118.624 137.585 119.432 137.878L119.278 138.303ZM114.146 136.577C113.359 136.328 112.512 136.067 111.556 135.778L111.687 135.345C112.644 135.635 113.493 135.897 114.281 136.146L114.146 136.577ZM108.958 134.998C108.044 134.725 107.173 134.464 106.358 134.212L106.491 133.781C107.305 134.032 108.175 134.292 109.087 134.565L108.958 134.998ZM103.769 133.375C102.9 133.088 102.051 132.746 101.226 132.351L101.429 131.948C102.236 132.334 103.067 132.668 103.916 132.948L103.769 133.375ZM100.359 130.415L100.037 130.099C100.449 129.68 101.263 129.271 102.526 128.847L102.67 129.275C101.492 129.67 100.715 130.054 100.359 130.415L100.359 130.415ZM105.253 128.54L105.144 128.102C105.925 127.907 106.814 127.704 107.788 127.497L107.882 127.939C106.913 128.144 106.029 128.347 105.253 128.54V128.54ZM110.529 127.407L110.444 126.963C111.276 126.804 112.172 126.64 113.108 126.474L113.187 126.918C112.253 127.084 111.359 127.248 110.529 127.407V127.407ZM115.85 126.46L115.776 126.014C116.626 125.872 117.517 125.726 118.447 125.577L118.518 126.023C117.589 126.172 116.7 126.317 115.85 126.46Z" fill="white"/>
<path d="M121.241 125.594L121.172 125.148C121.611 125.08 122.057 125.011 122.512 124.942L122.58 125.388C122.125 125.458 121.679 125.526 121.241 125.594Z" fill="white"/>
<path d="M131.234 79.7298L133.285 78.0894C131.692 77.9136 131.037 78.7826 130.769 79.4704C129.524 78.9535 128.169 79.6309 128.169 79.6309L132.273 81.1207C132.066 80.5678 131.705 80.0853 131.234 79.7298Z" fill="#3F3D56"/>
<path d="M93.1351 92.4295L95.1862 90.7891C93.5928 90.6133 92.9381 91.4823 92.6702 92.1701C91.4254 91.6532 90.0703 92.3306 90.0703 92.3306L94.174 93.8204C93.967 93.2674 93.6066 92.7849 93.1351 92.4295Z" fill="#3F3D56"/>
<path d="M103.161 66.1391L105.212 64.4986C103.619 64.3228 102.964 65.1918 102.696 65.8796C101.451 65.3627 100.096 66.0401 100.096 66.0401L104.2 67.5299C103.993 66.977 103.633 66.4945 103.161 66.1391Z" fill="#3F3D56"/>
</g>
<defs>
<clipPath id="clip0">
<rect width="200" height="140.609" fill="white" transform="translate(12 42)"/>
</clipPath>
</defs>
</svg>
