<svg width="14" height="14" viewBox="0 0 14 14" fill="none" xmlns="http://www.w3.org/2000/svg">
<g clip-path="url(#clip0)">
<path d="M12.8424 8.94932C12.8424 9.75669 12.1877 10.4113 11.3804 10.4113H1.83556L3.76049 8.48638L3.07137 7.79726L0.314558 10.5541C0.124314 10.7444 0.124314 11.0528 0.314558 11.2432L3.07137 14L3.76049 13.3109L1.83556 11.386H11.3804C12.7254 11.3843 13.8153 10.2944 13.817 8.94932V7H12.8424V8.94932Z" fill="black"/>
<path d="M1.14653 5.05069C1.14653 4.24319 1.80103 3.5887 2.60852 3.5887H12.1533L10.2284 5.51363L10.9175 6.20274L13.6743 3.44593C13.8646 3.25557 13.8646 2.94718 13.6743 2.75681L10.9175 0L10.2284 0.689114L12.1533 2.61404H2.60852C1.26349 2.61559 0.173422 3.70565 0.171875 5.05069V7.00001H1.14653V5.05069Z" fill="black"/>
</g>
<defs>
<clipPath id="clip0">
<rect width="14" height="14" fill="white"/>
</clipPath>
</defs>
</svg>
