<svg width="48" height="48" viewBox="0 0 48 48" fill="none" xmlns="http://www.w3.org/2000/svg">
<g clip-path="url(#clip0)">
<path d="M47.8284 33.1384C47.5124 32.1361 46.5778 31.4584 45.527 31.4698H44.4699V5.64843C44.4699 5.20281 44.1086 4.84151 43.663 4.84151H32.3661V0.806919C32.3661 0.361301 32.0048 0 31.5592 0H0.896274C0.450657 0 0.0893555 0.361301 0.0893555 0.806919V42.7667C0.0893555 43.2123 0.450657 43.5736 0.896274 43.5736H27.5569L27.1534 44.8179C26.8264 45.8163 27.1806 46.9112 28.0305 47.529C28.88 48.1468 30.0309 48.146 30.8799 47.5274L35.1096 44.4467C35.3952 44.2379 35.7833 44.2379 36.069 44.4467L40.3065 47.529C41.1512 48.1571 42.308 48.1571 43.1531 47.529C44.0125 46.9191 44.3702 45.8175 44.0326 44.8187L42.4124 39.827C42.306 39.4965 42.4258 39.1348 42.7083 38.933L46.9537 35.8508C47.811 35.2381 48.166 34.1364 47.8284 33.1384ZM42.8561 6.45535V31.4698H40.282C40.1973 31.4694 40.113 31.4556 40.0326 31.4289C39.7895 31.3469 39.5988 31.1566 39.5165 30.9139L37.8944 25.9262C37.5677 24.9329 36.6403 24.2615 35.5946 24.2615C34.5489 24.2615 33.6214 24.9329 33.2948 25.9262L32.3661 28.7772V20.9799H38.8215C39.2671 20.9799 39.6284 20.6186 39.6284 20.173C39.6284 19.7274 39.2671 19.3661 38.8215 19.3661H32.3661V16.1384H38.8215C39.2671 16.1384 39.6284 15.7771 39.6284 15.3315C39.6284 14.8858 39.2671 14.5245 38.8215 14.5245H32.3661V11.2969H38.8215C39.2671 11.2969 39.6284 10.9356 39.6284 10.4899C39.6284 10.0443 39.2671 9.68303 38.8215 9.68303H32.3661V6.45535H42.8561ZM1.70319 41.9598V1.61384H30.7523V31.4698H25.6606C24.6105 31.4671 23.6783 32.1424 23.3529 33.1408C23.0278 34.1396 23.3836 35.2341 24.2339 35.8508L28.4777 38.9323C28.7622 39.1348 28.8823 39.498 28.7748 39.8302L28.0821 41.9598H1.70319ZM46.003 34.5458L41.7588 37.6281C40.9085 38.2408 40.5519 39.333 40.8774 40.329L42.4995 45.3159C42.6102 45.6488 42.4928 46.0156 42.2087 46.2225C41.925 46.4294 41.5401 46.4286 41.2568 46.2209L37.0165 43.1363C36.1651 42.5236 35.017 42.5236 34.1655 43.1363L29.93 46.2186C29.6471 46.4266 29.2618 46.4274 28.9777 46.2209C28.6936 46.0141 28.5758 45.6476 28.6865 45.3143L30.3078 40.3298C30.6345 39.3322 30.2775 38.238 29.4257 37.625L25.1846 34.5466C24.8986 34.3417 24.7784 33.9753 24.8871 33.6408C24.9959 33.3063 25.3091 33.0809 25.6606 33.0837H30.9055C31.2416 33.0864 31.5742 33.0143 31.8787 32.8721L31.8941 32.8634L31.9087 32.8587C31.9201 32.8536 31.928 32.8441 31.9394 32.8382C32.5407 32.5589 32.9993 32.0427 33.2061 31.4127L34.8282 26.4266C34.937 26.0956 35.2463 25.8714 35.5946 25.8714C35.9433 25.8714 36.2526 26.0956 36.3613 26.4266L37.9838 31.4166C38.3097 32.4103 39.2363 33.0825 40.282 33.0837H45.527C45.8785 33.0809 46.1913 33.3063 46.3 33.6404C46.4092 33.9745 46.2894 34.3405 46.0037 34.5458H46.003Z" fill="#484848"/>
<path d="M7.35135 8.06941H25.1036C25.5492 8.06941 25.9105 7.7081 25.9105 7.26249C25.9105 6.81687 25.5492 6.45557 25.1036 6.45557H7.35135C6.90573 6.45557 6.54443 6.81687 6.54443 7.26249C6.54443 7.7081 6.90573 8.06941 7.35135 8.06941Z" fill="#484848"/>
<path d="M7.35135 14.5247H25.1036C25.5492 14.5247 25.9105 14.1634 25.9105 13.7178C25.9105 13.2722 25.5492 12.9109 25.1036 12.9109H7.35135C6.90573 12.9109 6.54443 13.2722 6.54443 13.7178C6.54443 14.1634 6.90573 14.5247 7.35135 14.5247Z" fill="#484848"/>
<path d="M7.35135 20.9798H25.1036C25.5492 20.9798 25.9105 20.6185 25.9105 20.1729C25.9105 19.7273 25.5492 19.366 25.1036 19.366H7.35135C6.90573 19.366 6.54443 19.7273 6.54443 20.1729C6.54443 20.6185 6.90573 20.9798 7.35135 20.9798Z" fill="#484848"/>
<path d="M25.9105 26.6282C25.9105 26.1826 25.5492 25.8213 25.1036 25.8213H7.35135C6.90573 25.8213 6.54443 26.1826 6.54443 26.6282C6.54443 27.0738 6.90573 27.4351 7.35135 27.4351H25.1036C25.5492 27.4351 25.9105 27.0738 25.9105 26.6282Z" fill="#484848"/>
</g>
<defs>
<clipPath id="clip0">
<rect width="48" height="48" fill="white"/>
</clipPath>
</defs>
</svg>
