<svg width="48" height="48" viewBox="0 0 48 48" fill="none" xmlns="http://www.w3.org/2000/svg">
<path d="M44.8594 7.82812H8.76562C7.03387 7.82812 5.625 9.237 5.625 10.9688V17.6719H0.703125C0.314812 17.6719 0 17.9866 0 18.375C0 18.7634 0.314812 19.0781 0.703125 19.0781H9.14062C9.52894 19.0781 9.84375 18.7634 9.84375 18.375C9.84375 17.9866 9.52894 17.6719 9.14062 17.6719H7.03125V10.9688C7.03125 10.7492 7.07391 10.5398 7.14872 10.3463L20.8025 24L7.14872 37.6538C7.07391 37.4603 7.03125 37.2508 7.03125 37.0312V32.4375C7.03125 32.0491 6.71644 31.7344 6.32812 31.7344C5.93981 31.7344 5.625 32.0491 5.625 32.4375V37.0312C5.625 38.763 7.03387 40.1719 8.76562 40.1719H44.8594C46.5911 40.1719 48 38.763 48 37.0312V10.9688C48 9.237 46.5911 7.82812 44.8594 7.82812ZM32.8225 24L46.4763 10.3463C46.5511 10.5398 46.5938 10.7492 46.5938 10.9688V37.0312C46.5938 37.2508 46.5511 37.4603 46.4763 37.6538L32.8225 24ZM44.8594 9.23438C45.0789 9.23438 45.2884 9.27703 45.4819 9.35184L29.7956 25.0381C28.1508 26.6831 25.4743 26.6831 23.8294 25.0381L8.14313 9.35184C8.33663 9.27703 8.54606 9.23438 8.76562 9.23438H44.8594ZM8.76562 38.7656C8.54606 38.7656 8.33663 38.723 8.14313 38.6482L21.7969 24.9944L22.8351 26.0326C23.9317 27.1291 25.3721 27.6774 26.8126 27.6774C28.2531 27.6774 29.6934 27.1291 30.79 26.0326L31.8282 24.9944L45.482 38.6482C45.2885 38.723 45.079 38.7656 44.8595 38.7656H8.76562Z" fill="black"/>
<path d="M6.32812 20.4844C5.93981 20.4844 5.625 20.7991 5.625 21.1875V23.2969H0.703125C0.314812 23.2969 0 23.6116 0 24C0 24.3884 0.314812 24.7031 0.703125 24.7031H11.9531C12.3414 24.7031 12.6562 24.3884 12.6562 24C12.6562 23.6116 12.3414 23.2969 11.9531 23.2969H7.03125V21.1875C7.03125 20.7991 6.71644 20.4844 6.32812 20.4844Z" fill="black"/>
<path d="M9.14062 30.3281C9.52894 30.3281 9.84375 30.0134 9.84375 29.625C9.84375 29.2366 9.52894 28.9219 9.14062 28.9219H7.03125V26.8125C7.03125 26.4241 6.71644 26.1094 6.32812 26.1094C5.93981 26.1094 5.625 26.4241 5.625 26.8125V28.9219H0.703125C0.314812 28.9219 0 29.2366 0 29.625C0 30.0134 0.314812 30.3281 0.703125 30.3281H9.14062Z" fill="black"/>
</svg>
