<svg width="340" height="101" viewBox="0 0 340 101" fill="none" xmlns="http://www.w3.org/2000/svg">
<path d="M265.203 90.6591C265.203 78.7954 262.788 67.0479 258.097 56.0872C253.406 45.1266 246.53 35.1675 237.862 26.7786C229.194 18.3896 218.903 11.7352 207.578 7.19514C196.252 2.65509 184.114 0.318359 171.855 0.318359C159.596 0.31836 147.458 2.65509 136.132 7.19514C124.807 11.7352 114.516 18.3896 105.848 26.7786C97.1797 35.1675 90.3037 45.1266 85.6125 56.0872C80.9214 67.0479 78.5068 78.7954 78.5068 90.6591H106.511C106.511 82.3545 108.201 74.1313 111.485 66.4588C114.769 58.7863 119.582 51.815 125.65 45.9427C131.718 40.0705 138.921 35.4124 146.849 32.2343C154.777 29.0563 163.274 27.4206 171.855 27.4206C180.436 27.4206 188.933 29.0563 196.861 32.2343C204.789 35.4124 211.992 40.0705 218.06 45.9427C224.128 51.815 228.941 58.7863 232.225 66.4588C235.508 74.1312 237.199 82.3545 237.199 90.6591H265.203Z" fill="#02B875"/>
<path d="M265.203 90.6591C265.203 71.581 258.962 52.9927 247.375 37.5582C235.788 22.1237 219.449 10.6354 200.701 4.73995C181.953 -1.15551 161.757 -1.1555 143.009 4.73995C124.26 10.6354 107.922 22.1237 96.3347 37.5582L118.991 53.4885C127.102 42.6843 138.539 34.6425 151.663 30.5157C164.786 26.3889 178.923 26.3889 192.047 30.5157C205.171 34.6425 216.608 42.6843 224.719 53.4885C232.83 64.2926 237.199 77.3045 237.199 90.6591H265.203Z" fill="#5DC644"/>
<path d="M265.203 90.6591C265.203 76.4024 261.716 62.3481 255.029 49.6453C248.341 36.9425 238.641 25.9518 226.723 17.5719C214.806 9.19203 201.008 3.66084 186.458 1.4306C171.908 -0.799637 157.019 0.334385 143.009 4.73995L151.663 30.5157C161.47 27.4318 171.892 26.638 182.077 28.1992C192.262 29.7603 201.92 33.6322 210.263 39.4981C218.605 45.364 225.395 53.0575 230.076 61.9494C234.758 70.8414 237.199 80.6794 237.199 90.6591H265.203Z" fill="#FFC100"/>
<path d="M265.203 90.6591C265.203 71.581 258.962 52.9927 247.375 37.5582C235.788 22.1237 219.449 10.6354 200.701 4.73995L192.047 30.5157C205.171 34.6425 216.608 42.6843 224.719 53.4885C232.83 64.2926 237.199 77.3045 237.199 90.6591H265.203Z" fill="#FDAF40"/>
<path d="M265.203 90.6591C265.203 71.581 258.962 52.9927 247.375 37.5582L224.719 53.4885C232.83 64.2926 237.199 77.3045 237.199 90.6591H265.203Z" fill="#FF7272"/>
<path d="M215.757 26.7973L224.562 24.373L173.216 91.1549L215.757 26.7973Z" fill="#C4C4C4"/>
<path d="M224.485 33.4995L173.205 91.169L224.551 24.3871L224.485 33.4995Z" fill="#848484"/>
<path d="M178.904 87.2729C180.982 90.5331 180.023 94.8604 176.763 96.938C173.503 99.0157 169.176 98.057 167.098 94.7968C165.02 91.5365 165.979 87.2093 169.239 85.1316C172.499 83.054 176.827 84.0126 178.904 87.2729ZM171.908 91.7312C172.293 92.3346 173.094 92.5121 173.697 92.1275C174.301 91.7429 174.478 90.942 174.094 90.3385C173.709 89.735 172.908 89.5575 172.305 89.9421C171.701 90.3267 171.524 91.1277 171.908 91.7312Z" fill="#008FFF"/>
</svg>
