<svg width="260" height="136" viewBox="0 0 260 136" fill="none" xmlns="http://www.w3.org/2000/svg">
<path d="M222.203 115.659C222.203 103.796 219.788 92.048 215.097 81.0873C210.406 70.1267 203.53 60.1676 194.862 51.7787C186.194 43.3897 175.903 36.7353 164.577 32.1952C153.252 27.6552 141.113 25.3185 128.855 25.3185C116.596 25.3185 104.457 27.6552 93.1319 32.1952C81.8064 36.7353 71.5158 43.3897 62.8476 51.7787C54.1794 60.1676 47.3035 70.1267 42.6123 81.0873C37.9211 92.048 35.5066 103.796 35.5066 115.659H63.511C63.511 107.355 65.2012 99.1313 68.485 91.4589C71.7688 83.7864 76.582 76.8151 82.6497 70.9428C88.7174 65.0706 95.9209 60.4125 103.849 57.2344C111.777 54.0564 120.274 52.4207 128.855 52.4207C137.436 52.4207 145.933 54.0564 153.861 57.2344C161.788 60.4125 168.992 65.0706 175.06 70.9428C181.127 76.8151 185.94 83.7864 189.224 91.4589C192.508 99.1313 194.198 107.355 194.198 115.659H222.203Z" fill="#02B875"/>
<path d="M222.203 115.659C222.203 96.5811 215.962 77.9928 204.375 62.5583C192.788 47.1237 176.449 35.6355 157.701 29.74C138.952 23.8446 118.757 23.8446 100.009 29.74C81.2602 35.6355 64.9216 47.1238 53.3345 62.5583L75.9905 78.4886C84.1015 67.6844 95.5385 59.6426 108.662 55.5158C121.786 51.389 135.923 51.389 149.047 55.5158C162.171 59.6426 173.608 67.6844 181.719 78.4885C189.83 89.2927 194.198 102.305 194.198 115.659H222.203Z" fill="#5DC644"/>
<path d="M222.203 115.659C222.203 101.403 218.716 87.3482 212.028 74.6454C205.34 61.9426 195.641 50.9519 183.723 42.572C171.805 34.1921 158.007 28.6609 143.457 26.4307C128.908 24.2005 114.019 25.3345 100.009 29.74L108.662 55.5158C118.47 52.4319 128.892 51.6381 139.077 53.1993C149.262 54.7604 158.92 58.6323 167.263 64.4982C175.605 70.3641 182.395 78.0576 187.076 86.9495C191.758 95.8415 194.198 105.68 194.198 115.659H222.203Z" fill="#FFC100"/>
<path d="M222.203 115.659C222.203 96.5811 215.962 77.9928 204.375 62.5583C192.788 47.1237 176.449 35.6355 157.701 29.74L149.047 55.5158C162.171 59.6426 173.608 67.6844 181.719 78.4885C189.83 89.2927 194.198 102.305 194.198 115.659H222.203Z" fill="#FDAF40"/>
<path d="M222.203 115.659C222.203 96.5811 215.962 77.9928 204.375 62.5583L181.719 78.4885C189.83 89.2927 194.198 102.305 194.198 115.659H222.203Z" fill="#FF7272"/>
<path d="M2.12109 104.298H6.16406V105.218H0.990234V96.6866H2.12109V104.298ZM6.99023 101.989C6.99023 101.368 7.11133 100.81 7.35352 100.314C7.59961 99.8174 7.93945 99.4346 8.37305 99.1651C8.81055 98.8956 9.30859 98.7608 9.86719 98.7608C10.7305 98.7608 11.4277 99.0596 11.959 99.6573C12.4941 100.255 12.7617 101.05 12.7617 102.042V102.118C12.7617 102.735 12.6426 103.29 12.4043 103.782C12.1699 104.271 11.832 104.651 11.3906 104.925C10.9531 105.198 10.4492 105.335 9.87891 105.335C9.01953 105.335 8.32227 105.036 7.78711 104.439C7.25586 103.841 6.99023 103.05 6.99023 102.065V101.989ZM8.08008 102.118C8.08008 102.821 8.24219 103.386 8.56641 103.812C8.89453 104.237 9.33203 104.45 9.87891 104.45C10.4297 104.45 10.8672 104.235 11.1914 103.806C11.5156 103.372 11.6777 102.767 11.6777 101.989C11.6777 101.294 11.5117 100.732 11.1797 100.302C10.8516 99.8682 10.4141 99.6514 9.86719 99.6514C9.33203 99.6514 8.90039 99.8643 8.57227 100.29C8.24414 100.716 8.08008 101.325 8.08008 102.118ZM19.7344 103.724L20.9531 98.878H22.0371L20.1914 105.218H19.3125L17.7715 100.413L16.2715 105.218H15.3926L13.5527 98.878H14.6309L15.8789 103.624L17.3555 98.878H18.2285L19.7344 103.724Z" fill="black"/>
<path d="M238.913 105.218H237.782V101.274H233.481V105.218H232.356V96.6866H233.481V100.355H237.782V96.6866H238.913V105.218ZM241.918 105.218H240.834V98.878H241.918V105.218ZM240.747 97.1964C240.747 97.0206 240.799 96.8721 240.905 96.751C241.014 96.6299 241.174 96.5694 241.385 96.5694C241.596 96.5694 241.756 96.6299 241.866 96.751C241.975 96.8721 242.03 97.0206 242.03 97.1964C242.03 97.3721 241.975 97.5186 241.866 97.6358C241.756 97.753 241.596 97.8116 241.385 97.8116C241.174 97.8116 241.014 97.753 240.905 97.6358C240.799 97.5186 240.747 97.3721 240.747 97.1964ZM243.401 101.995C243.401 101.007 243.629 100.222 244.086 99.6397C244.543 99.0538 245.149 98.7608 245.903 98.7608C246.676 98.7608 247.28 99.0342 247.713 99.5811L247.766 98.878H248.756V105.065C248.756 105.886 248.512 106.532 248.024 107.005C247.54 107.478 246.887 107.714 246.067 107.714C245.61 107.714 245.163 107.616 244.725 107.421C244.288 107.226 243.954 106.958 243.723 106.618L244.286 105.968C244.75 106.542 245.319 106.829 245.991 106.829C246.518 106.829 246.928 106.681 247.221 106.384C247.518 106.087 247.667 105.669 247.667 105.13V104.585C247.233 105.085 246.641 105.335 245.891 105.335C245.149 105.335 244.547 105.036 244.086 104.439C243.629 103.841 243.401 103.026 243.401 101.995ZM244.491 102.118C244.491 102.833 244.637 103.396 244.93 103.806C245.223 104.212 245.633 104.415 246.161 104.415C246.844 104.415 247.346 104.105 247.667 103.483V100.589C247.334 99.9835 246.836 99.6807 246.172 99.6807C245.645 99.6807 245.233 99.8858 244.936 100.296C244.639 100.706 244.491 101.314 244.491 102.118ZM251.481 99.6456C251.961 99.0557 252.586 98.7608 253.356 98.7608C254.696 98.7608 255.372 99.5167 255.383 101.028V105.218H254.299V101.023C254.295 100.565 254.19 100.228 253.983 100.009C253.78 99.7901 253.461 99.6807 253.028 99.6807C252.676 99.6807 252.368 99.7745 252.102 99.962C251.836 100.149 251.629 100.396 251.481 100.7V105.218H250.397V96.2178H251.481V99.6456Z" fill="black"/>
<path d="M105.173 3.46875L107.962 10.4297L110.751 3.46875H112.21V12H111.085V8.67773L111.19 5.0918L108.389 12H107.528L104.733 5.10938L104.844 8.67773V12H103.719V3.46875H105.173ZM113.739 8.77148C113.739 8.15039 113.86 7.5918 114.102 7.0957C114.348 6.59961 114.688 6.2168 115.122 5.94727C115.559 5.67773 116.057 5.54297 116.616 5.54297C117.479 5.54297 118.176 5.8418 118.708 6.43945C119.243 7.03711 119.51 7.83203 119.51 8.82422V8.90039C119.51 9.51758 119.391 10.0723 119.153 10.5645C118.919 11.0527 118.581 11.4336 118.139 11.707C117.702 11.9805 117.198 12.1172 116.628 12.1172C115.768 12.1172 115.071 11.8184 114.536 11.2207C114.005 10.623 113.739 9.83203 113.739 8.84766V8.77148ZM114.829 8.90039C114.829 9.60352 114.991 10.168 115.315 10.5938C115.643 11.0195 116.081 11.2324 116.628 11.2324C117.178 11.2324 117.616 11.0176 117.94 10.5879C118.264 10.1543 118.426 9.54883 118.426 8.77148C118.426 8.07617 118.26 7.51367 117.928 7.08398C117.6 6.65039 117.163 6.43359 116.616 6.43359C116.081 6.43359 115.649 6.64648 115.321 7.07227C114.993 7.49805 114.829 8.10742 114.829 8.90039ZM120.606 8.77734C120.606 7.80469 120.837 7.02344 121.298 6.43359C121.759 5.83984 122.362 5.54297 123.108 5.54297C123.85 5.54297 124.438 5.79688 124.872 6.30469V3H125.956V12H124.96L124.907 11.3203C124.473 11.8516 123.87 12.1172 123.096 12.1172C122.362 12.1172 121.762 11.8164 121.298 11.2148C120.837 10.6133 120.606 9.82812 120.606 8.85938V8.77734ZM121.69 8.90039C121.69 9.61914 121.839 10.1816 122.135 10.5879C122.432 10.9941 122.842 11.1973 123.366 11.1973C124.053 11.1973 124.555 10.8887 124.872 10.2715V7.35938C124.548 6.76172 124.05 6.46289 123.378 6.46289C122.846 6.46289 122.432 6.66797 122.135 7.07812C121.839 7.48828 121.69 8.0957 121.69 8.90039ZM130.274 12.1172C129.415 12.1172 128.716 11.8359 128.176 11.2734C127.637 10.707 127.368 9.95117 127.368 9.00586V8.80664C127.368 8.17773 127.487 7.61719 127.725 7.125C127.967 6.62891 128.303 6.24219 128.733 5.96484C129.167 5.68359 129.635 5.54297 130.139 5.54297C130.964 5.54297 131.604 5.81445 132.061 6.35742C132.518 6.90039 132.747 7.67773 132.747 8.68945V9.14062H128.452C128.467 9.76562 128.649 10.2715 128.997 10.6582C129.348 11.041 129.794 11.2324 130.333 11.2324C130.716 11.2324 131.04 11.1543 131.305 10.998C131.571 10.8418 131.803 10.6348 132.003 10.377L132.665 10.8926C132.134 11.709 131.337 12.1172 130.274 12.1172ZM130.139 6.43359C129.702 6.43359 129.335 6.59375 129.038 6.91406C128.741 7.23047 128.557 7.67578 128.487 8.25H131.663V8.16797C131.632 7.61719 131.483 7.19141 131.217 6.89062C130.952 6.58594 130.592 6.43359 130.139 6.43359ZM137.071 6.63281C136.907 6.60547 136.729 6.5918 136.538 6.5918C135.827 6.5918 135.344 6.89453 135.091 7.5V12H134.007V5.66016H135.061L135.079 6.39258C135.434 5.82617 135.938 5.54297 136.591 5.54297C136.801 5.54297 136.962 5.57031 137.071 5.625V6.63281ZM141.753 12C141.69 11.875 141.639 11.6523 141.6 11.332C141.096 11.8555 140.495 12.1172 139.796 12.1172C139.171 12.1172 138.657 11.9414 138.255 11.5898C137.856 11.2344 137.657 10.7852 137.657 10.2422C137.657 9.58203 137.907 9.07031 138.407 8.70703C138.911 8.33984 139.618 8.15625 140.528 8.15625H141.583V7.6582C141.583 7.2793 141.469 6.97852 141.243 6.75586C141.016 6.5293 140.682 6.41602 140.241 6.41602C139.854 6.41602 139.53 6.51367 139.268 6.70898C139.007 6.9043 138.876 7.14062 138.876 7.41797H137.786C137.786 7.10156 137.897 6.79688 138.12 6.50391C138.346 6.20703 138.651 5.97266 139.034 5.80078C139.421 5.62891 139.844 5.54297 140.305 5.54297C141.036 5.54297 141.608 5.72656 142.022 6.09375C142.436 6.45703 142.651 6.95898 142.667 7.59961V10.5176C142.667 11.0996 142.741 11.5625 142.889 11.9062V12H141.753ZM139.954 11.1738C140.294 11.1738 140.616 11.0859 140.921 10.9102C141.225 10.7344 141.446 10.5059 141.583 10.2246V8.92383H140.733C139.405 8.92383 138.741 9.3125 138.741 10.0898C138.741 10.4297 138.854 10.6953 139.081 10.8867C139.307 11.0781 139.598 11.1738 139.954 11.1738ZM145.837 4.125V5.66016H147.02V6.49805H145.837V10.4297C145.837 10.6836 145.889 10.875 145.995 11.0039C146.1 11.1289 146.28 11.1914 146.534 11.1914C146.659 11.1914 146.831 11.168 147.05 11.1211V12C146.764 12.0781 146.487 12.1172 146.217 12.1172C145.733 12.1172 145.368 11.9707 145.122 11.6777C144.876 11.3848 144.753 10.9688 144.753 10.4297V6.49805H143.598V5.66016H144.753V4.125H145.837ZM150.923 12.1172C150.063 12.1172 149.364 11.8359 148.825 11.2734C148.286 10.707 148.016 9.95117 148.016 9.00586V8.80664C148.016 8.17773 148.135 7.61719 148.374 7.125C148.616 6.62891 148.952 6.24219 149.382 5.96484C149.815 5.68359 150.284 5.54297 150.788 5.54297C151.612 5.54297 152.253 5.81445 152.71 6.35742C153.167 6.90039 153.395 7.67773 153.395 8.68945V9.14062H149.1C149.116 9.76562 149.298 10.2715 149.645 10.6582C149.997 11.041 150.442 11.2324 150.981 11.2324C151.364 11.2324 151.688 11.1543 151.954 10.998C152.219 10.8418 152.452 10.6348 152.651 10.377L153.313 10.8926C152.782 11.709 151.985 12.1172 150.923 12.1172ZM150.788 6.43359C150.35 6.43359 149.983 6.59375 149.686 6.91406C149.389 7.23047 149.206 7.67578 149.135 8.25H152.311V8.16797C152.28 7.61719 152.132 7.19141 151.866 6.89062C151.6 6.58594 151.241 6.43359 150.788 6.43359Z" fill="black"/>
<path d="M190.211 21.7313L193 28.6923L195.789 21.7313H197.248V30.2626H196.123V26.9403L196.229 23.3544L193.428 30.2626H192.567L189.772 23.3719L189.883 26.9403V30.2626H188.758V21.7313H190.211ZM198.778 27.0341C198.778 26.413 198.899 25.8544 199.141 25.3583C199.387 24.8622 199.727 24.4794 200.16 24.2098C200.598 23.9403 201.096 23.8055 201.654 23.8055C202.518 23.8055 203.215 24.1044 203.746 24.702C204.281 25.2997 204.549 26.0946 204.549 27.0868V27.163C204.549 27.7802 204.43 28.3348 204.192 28.827C203.957 29.3153 203.619 29.6962 203.178 29.9696C202.74 30.243 202.236 30.3798 201.666 30.3798C200.807 30.3798 200.11 30.0809 199.574 29.4833C199.043 28.8856 198.778 28.0946 198.778 27.1102V27.0341ZM199.867 27.163C199.867 27.8661 200.029 28.4305 200.354 28.8563C200.682 29.2821 201.119 29.495 201.666 29.495C202.217 29.495 202.654 29.2802 202.979 28.8505C203.303 28.4169 203.465 27.8114 203.465 27.0341C203.465 26.3387 203.299 25.7762 202.967 25.3466C202.639 24.913 202.201 24.6962 201.654 24.6962C201.119 24.6962 200.688 24.9091 200.36 25.3348C200.031 25.7606 199.867 26.37 199.867 27.163ZM205.645 27.0399C205.645 26.0673 205.875 25.286 206.336 24.6962C206.797 24.1024 207.401 23.8055 208.147 23.8055C208.889 23.8055 209.477 24.0594 209.91 24.5673V21.2626H210.994V30.2626H209.998L209.945 29.5829C209.512 30.1141 208.908 30.3798 208.135 30.3798C207.401 30.3798 206.801 30.079 206.336 29.4774C205.875 28.8759 205.645 28.0907 205.645 27.1219V27.0399ZM206.729 27.163C206.729 27.8817 206.877 28.4442 207.174 28.8505C207.471 29.2567 207.881 29.4598 208.404 29.4598C209.092 29.4598 209.594 29.1512 209.91 28.5341V25.6219C209.586 25.0243 209.088 24.7255 208.416 24.7255C207.885 24.7255 207.471 24.9305 207.174 25.3407C206.877 25.7509 206.729 26.3583 206.729 27.163ZM215.313 30.3798C214.453 30.3798 213.754 30.0985 213.215 29.536C212.676 28.9696 212.406 28.2137 212.406 27.2684V27.0692C212.406 26.4403 212.526 25.8798 212.764 25.3876C213.006 24.8915 213.342 24.5048 213.772 24.2274C214.205 23.9462 214.674 23.8055 215.178 23.8055C216.002 23.8055 216.643 24.077 217.1 24.62C217.557 25.163 217.785 25.9403 217.785 26.952V27.4032H213.49C213.506 28.0282 213.688 28.5341 214.035 28.9208C214.387 29.3036 214.832 29.495 215.371 29.495C215.754 29.495 216.078 29.4169 216.344 29.2606C216.61 29.1044 216.842 28.8973 217.041 28.6395L217.703 29.1552C217.172 29.9716 216.375 30.3798 215.313 30.3798ZM215.178 24.6962C214.74 24.6962 214.373 24.8563 214.076 25.1766C213.779 25.493 213.596 25.9384 213.526 26.5126H216.701V26.4305C216.67 25.8798 216.522 25.454 216.256 25.1532C215.99 24.8485 215.631 24.6962 215.178 24.6962ZM222.11 24.8954C221.945 24.868 221.768 24.8544 221.576 24.8544C220.865 24.8544 220.383 25.1571 220.129 25.7626V30.2626H219.045V23.9227H220.1L220.117 24.6552C220.473 24.0887 220.977 23.8055 221.629 23.8055C221.84 23.8055 222 23.8329 222.11 23.8876V24.8954ZM226.791 30.2626C226.729 30.1376 226.678 29.9149 226.639 29.5946C226.135 30.118 225.533 30.3798 224.834 30.3798C224.209 30.3798 223.695 30.204 223.293 29.8524C222.895 29.4969 222.695 29.0477 222.695 28.5048C222.695 27.8446 222.945 27.3329 223.445 26.9696C223.949 26.6024 224.656 26.4188 225.567 26.4188H226.621V25.9208C226.621 25.5419 226.508 25.2411 226.281 25.0184C226.055 24.7919 225.721 24.6786 225.279 24.6786C224.893 24.6786 224.569 24.7762 224.307 24.9716C224.045 25.1669 223.914 25.4032 223.914 25.6805H222.824C222.824 25.3641 222.936 25.0594 223.158 24.7665C223.385 24.4696 223.69 24.2352 224.072 24.0634C224.459 23.8915 224.883 23.8055 225.344 23.8055C226.074 23.8055 226.647 23.9891 227.061 24.3563C227.475 24.7196 227.69 25.2216 227.705 25.8622V28.7802C227.705 29.3622 227.779 29.8251 227.928 30.1688V30.2626H226.791ZM224.992 29.4364C225.332 29.4364 225.654 29.3485 225.959 29.1727C226.264 28.9969 226.485 28.7684 226.621 28.4872V27.1864H225.772C224.444 27.1864 223.779 27.5751 223.779 28.3524C223.779 28.6923 223.893 28.9579 224.119 29.1493C224.346 29.3407 224.637 29.4364 224.992 29.4364ZM230.875 22.3876V23.9227H232.059V24.7606H230.875V28.6923C230.875 28.9462 230.928 29.1376 231.033 29.2665C231.139 29.3915 231.319 29.454 231.572 29.454C231.697 29.454 231.869 29.4305 232.088 29.3837V30.2626C231.803 30.3407 231.526 30.3798 231.256 30.3798C230.772 30.3798 230.406 30.2333 230.16 29.9403C229.914 29.6473 229.791 29.2313 229.791 28.6923V24.7606H228.637V23.9227H229.791V22.3876H230.875ZM235.961 30.3798C235.102 30.3798 234.403 30.0985 233.863 29.536C233.324 28.9696 233.055 28.2137 233.055 27.2684V27.0692C233.055 26.4403 233.174 25.8798 233.412 25.3876C233.654 24.8915 233.99 24.5048 234.42 24.2274C234.854 23.9462 235.322 23.8055 235.826 23.8055C236.651 23.8055 237.291 24.077 237.748 24.62C238.205 25.163 238.434 25.9403 238.434 26.952V27.4032H234.139C234.154 28.0282 234.336 28.5341 234.684 28.9208C235.035 29.3036 235.481 29.495 236.02 29.495C236.403 29.495 236.727 29.4169 236.992 29.2606C237.258 29.1044 237.49 28.8973 237.69 28.6395L238.352 29.1552C237.82 29.9716 237.024 30.3798 235.961 30.3798ZM235.826 24.6962C235.389 24.6962 235.022 24.8563 234.725 25.1766C234.428 25.493 234.244 25.9384 234.174 26.5126H237.35V26.4305C237.319 25.8798 237.17 25.454 236.904 25.1532C236.639 24.8485 236.279 24.6962 235.826 24.6962ZM240.871 30.2626H239.787V21.2626H240.871V30.2626ZM244.686 28.6747L246.162 23.9227H247.322L244.774 31.2411C244.379 32.2958 243.752 32.8231 242.893 32.8231L242.688 32.8055L242.283 32.7294V31.8505L242.576 31.8739C242.944 31.8739 243.229 31.7997 243.432 31.6512C243.639 31.5028 243.809 31.2313 243.942 30.8368L244.182 30.1923L241.92 23.9227H243.104L244.686 28.6747ZM212.758 45.2626H211.627V41.3192H207.326V45.2626H206.201V36.7313H207.326V40.3993H211.627V36.7313H212.758V45.2626ZM215.764 45.2626H214.68V38.9227H215.764V45.2626ZM214.592 37.2411C214.592 37.0653 214.645 36.9169 214.75 36.7958C214.86 36.6747 215.02 36.6141 215.231 36.6141C215.442 36.6141 215.602 36.6747 215.711 36.7958C215.82 36.9169 215.875 37.0653 215.875 37.2411C215.875 37.4169 215.82 37.5634 215.711 37.6805C215.602 37.7977 215.442 37.8563 215.231 37.8563C215.02 37.8563 214.86 37.7977 214.75 37.6805C214.645 37.5634 214.592 37.4169 214.592 37.2411ZM217.246 42.0399C217.246 41.0516 217.475 40.2665 217.932 39.6844C218.389 39.0985 218.994 38.8055 219.748 38.8055C220.522 38.8055 221.125 39.079 221.559 39.6259L221.611 38.9227H222.602V45.1102C222.602 45.9305 222.358 46.577 221.869 47.0497C221.385 47.5223 220.733 47.7587 219.912 47.7587C219.455 47.7587 219.008 47.661 218.57 47.4657C218.133 47.2704 217.799 47.0028 217.569 46.663L218.131 46.0126C218.596 46.5868 219.164 46.8739 219.836 46.8739C220.363 46.8739 220.774 46.7255 221.067 46.4286C221.363 46.1317 221.512 45.7137 221.512 45.1747V44.6298C221.078 45.1298 220.486 45.3798 219.736 45.3798C218.994 45.3798 218.393 45.0809 217.932 44.4833C217.475 43.8856 217.246 43.0712 217.246 42.0399ZM218.336 42.163C218.336 42.8778 218.483 43.4403 218.776 43.8505C219.069 44.2567 219.479 44.4598 220.006 44.4598C220.69 44.4598 221.192 44.1493 221.512 43.5282V40.6337C221.18 40.0282 220.682 39.7255 220.018 39.7255C219.49 39.7255 219.078 39.9305 218.781 40.3407C218.485 40.7509 218.336 41.3583 218.336 42.163ZM225.326 39.6903C225.807 39.1005 226.432 38.8055 227.201 38.8055C228.541 38.8055 229.217 39.5614 229.229 41.0731V45.2626H228.145V41.0673C228.141 40.6102 228.035 40.2723 227.828 40.0536C227.625 39.8348 227.307 39.7255 226.873 39.7255C226.522 39.7255 226.213 39.8192 225.947 40.0067C225.682 40.1942 225.475 40.4403 225.326 40.745V45.2626H224.242V36.2626H225.326V39.6903Z" fill="black"/>
<path d="M13.8232 21.7313L16.6122 28.6923L19.4013 21.7313H20.8603V30.2626H19.7353V26.9403L19.8407 23.3544L17.04 30.2626H16.1786L13.3837 23.3719L13.495 26.9403V30.2626H12.37V21.7313H13.8232ZM22.3896 27.0341C22.3896 26.413 22.5107 25.8544 22.7528 25.3583C22.9989 24.8622 23.3388 24.4794 23.7724 24.2098C24.2099 23.9403 24.7079 23.8055 25.2665 23.8055C26.1298 23.8055 26.8271 24.1044 27.3583 24.702C27.8935 25.2997 28.161 26.0946 28.161 27.0868V27.163C28.161 27.7802 28.0419 28.3348 27.8036 28.827C27.5693 29.3153 27.2314 29.6962 26.79 29.9696C26.3525 30.243 25.8485 30.3798 25.2782 30.3798C24.4189 30.3798 23.7216 30.0809 23.1864 29.4833C22.6552 28.8856 22.3896 28.0946 22.3896 27.1102V27.0341ZM23.4794 27.163C23.4794 27.8661 23.6415 28.4305 23.9657 28.8563C24.2939 29.2821 24.7314 29.495 25.2782 29.495C25.829 29.495 26.2665 29.2802 26.5907 28.8505C26.915 28.4169 27.0771 27.8114 27.0771 27.0341C27.0771 26.3387 26.911 25.7762 26.579 25.3466C26.2509 24.913 25.8134 24.6962 25.2665 24.6962C24.7314 24.6962 24.2997 24.9091 23.9716 25.3348C23.6435 25.7606 23.4794 26.37 23.4794 27.163ZM29.2568 27.0399C29.2568 26.0673 29.4872 25.286 29.9482 24.6962C30.4091 24.1024 31.0126 23.8055 31.7587 23.8055C32.5009 23.8055 33.0888 24.0594 33.5224 24.5673V21.2626H34.6064V30.2626H33.6103L33.5575 29.5829C33.1239 30.1141 32.5204 30.3798 31.747 30.3798C31.0126 30.3798 30.413 30.079 29.9482 29.4774C29.4872 28.8759 29.2568 28.0907 29.2568 27.1219V27.0399ZM30.3407 27.163C30.3407 27.8817 30.4892 28.4442 30.786 28.8505C31.0829 29.2567 31.4931 29.4598 32.0165 29.4598C32.704 29.4598 33.206 29.1512 33.5224 28.5341V25.6219C33.1982 25.0243 32.7001 24.7255 32.0282 24.7255C31.497 24.7255 31.0829 24.9305 30.786 25.3407C30.4892 25.7509 30.3407 26.3583 30.3407 27.163ZM38.9247 30.3798C38.0653 30.3798 37.3661 30.0985 36.8271 29.536C36.288 28.9696 36.0185 28.2137 36.0185 27.2684V27.0692C36.0185 26.4403 36.1376 25.8798 36.3759 25.3876C36.6181 24.8915 36.954 24.5048 37.3837 24.2274C37.8173 23.9462 38.286 23.8055 38.79 23.8055C39.6142 23.8055 40.2548 24.077 40.7118 24.62C41.1689 25.163 41.3974 25.9403 41.3974 26.952V27.4032H37.1025C37.1181 28.0282 37.2997 28.5341 37.6474 28.9208C37.9989 29.3036 38.4443 29.495 38.9833 29.495C39.3661 29.495 39.6903 29.4169 39.956 29.2606C40.2216 29.1044 40.454 28.8973 40.6532 28.6395L41.3153 29.1552C40.7841 29.9716 39.9872 30.3798 38.9247 30.3798ZM38.79 24.6962C38.3525 24.6962 37.9853 24.8563 37.6884 25.1766C37.3915 25.493 37.2079 25.9384 37.1376 26.5126H40.3134V26.4305C40.2821 25.8798 40.1337 25.454 39.8681 25.1532C39.6025 24.8485 39.2431 24.6962 38.79 24.6962ZM45.7216 24.8954C45.5575 24.868 45.3798 24.8544 45.1884 24.8544C44.4775 24.8544 43.995 25.1571 43.7411 25.7626V30.2626H42.6571V23.9227H43.7118L43.7294 24.6552C44.0849 24.0887 44.5888 23.8055 45.2411 23.8055C45.4521 23.8055 45.6122 23.8329 45.7216 23.8876V24.8954ZM50.4032 30.2626C50.3407 30.1376 50.29 29.9149 50.2509 29.5946C49.747 30.118 49.1454 30.3798 48.4462 30.3798C47.8212 30.3798 47.3075 30.204 46.9052 29.8524C46.5068 29.4969 46.3075 29.0477 46.3075 28.5048C46.3075 27.8446 46.5575 27.3329 47.0575 26.9696C47.5614 26.6024 48.2685 26.4188 49.1786 26.4188H50.2333V25.9208C50.2333 25.5419 50.12 25.2411 49.8935 25.0184C49.6669 24.7919 49.3329 24.6786 48.8915 24.6786C48.5048 24.6786 48.1806 24.7762 47.9189 24.9716C47.6571 25.1669 47.5263 25.4032 47.5263 25.6805H46.4364C46.4364 25.3641 46.5478 25.0594 46.7704 24.7665C46.997 24.4696 47.3017 24.2352 47.6845 24.0634C48.0712 23.8915 48.495 23.8055 48.956 23.8055C49.6864 23.8055 50.2587 23.9891 50.6728 24.3563C51.0868 24.7196 51.3017 25.2216 51.3173 25.8622V28.7802C51.3173 29.3622 51.3915 29.8251 51.54 30.1688V30.2626H50.4032ZM48.6044 29.4364C48.9443 29.4364 49.2665 29.3485 49.5712 29.1727C49.8759 28.9969 50.0966 28.7684 50.2333 28.4872V27.1864H49.3837C48.0556 27.1864 47.3915 27.5751 47.3915 28.3524C47.3915 28.6923 47.5048 28.9579 47.7314 29.1493C47.9579 29.3407 48.2489 29.4364 48.6044 29.4364ZM54.4872 22.3876V23.9227H55.6708V24.7606H54.4872V28.6923C54.4872 28.9462 54.54 29.1376 54.6454 29.2665C54.7509 29.3915 54.9306 29.454 55.1845 29.454C55.3095 29.454 55.4814 29.4305 55.7001 29.3837V30.2626C55.415 30.3407 55.1376 30.3798 54.8681 30.3798C54.3837 30.3798 54.0185 30.2333 53.7724 29.9403C53.5263 29.6473 53.4032 29.2313 53.4032 28.6923V24.7606H52.2489V23.9227H53.4032V22.3876H54.4872ZM59.5732 30.3798C58.7138 30.3798 58.0146 30.0985 57.4755 29.536C56.9364 28.9696 56.6669 28.2137 56.6669 27.2684V27.0692C56.6669 26.4403 56.786 25.8798 57.0243 25.3876C57.2665 24.8915 57.6025 24.5048 58.0321 24.2274C58.4657 23.9462 58.9345 23.8055 59.4384 23.8055C60.2626 23.8055 60.9032 24.077 61.3603 24.62C61.8173 25.163 62.0458 25.9403 62.0458 26.952V27.4032H57.7509C57.7665 28.0282 57.9482 28.5341 58.2958 28.9208C58.6474 29.3036 59.0927 29.495 59.6318 29.495C60.0146 29.495 60.3388 29.4169 60.6044 29.2606C60.87 29.1044 61.1025 28.8973 61.3017 28.6395L61.9638 29.1552C61.4325 29.9716 60.6357 30.3798 59.5732 30.3798ZM59.4384 24.6962C59.0009 24.6962 58.6337 24.8563 58.3368 25.1766C58.04 25.493 57.8564 25.9384 57.786 26.5126H60.9618V26.4305C60.9306 25.8798 60.7821 25.454 60.5165 25.1532C60.2509 24.8485 59.8915 24.6962 59.4384 24.6962ZM64.4833 30.2626H63.3993V21.2626H64.4833V30.2626ZM68.2978 28.6747L69.7743 23.9227H70.9345L68.3857 31.2411C67.9911 32.2958 67.3642 32.8231 66.5048 32.8231L66.2997 32.8055L65.8954 32.7294V31.8505L66.1884 31.8739C66.5556 31.8739 66.8407 31.7997 67.0439 31.6512C67.2509 31.5028 67.4208 31.2313 67.5536 30.8368L67.7939 30.1923L65.5321 23.9227H66.7157L68.2978 28.6747ZM32.1923 44.3427H36.2353V45.2626H31.0614V36.7313H32.1923V44.3427ZM37.0614 42.0341C37.0614 41.413 37.1825 40.8544 37.4247 40.3583C37.6708 39.8622 38.0107 39.4794 38.4443 39.2098C38.8818 38.9403 39.3798 38.8055 39.9384 38.8055C40.8017 38.8055 41.4989 39.1044 42.0302 39.702C42.5653 40.2997 42.8329 41.0946 42.8329 42.0868V42.163C42.8329 42.7802 42.7138 43.3348 42.4755 43.827C42.2411 44.3153 41.9032 44.6962 41.4618 44.9696C41.0243 45.243 40.5204 45.3798 39.9501 45.3798C39.0907 45.3798 38.3935 45.0809 37.8583 44.4833C37.3271 43.8856 37.0614 43.0946 37.0614 42.1102V42.0341ZM38.1513 42.163C38.1513 42.8661 38.3134 43.4305 38.6376 43.8563C38.9657 44.2821 39.4032 44.495 39.9501 44.495C40.5009 44.495 40.9384 44.2802 41.2626 43.8505C41.5868 43.4169 41.7489 42.8114 41.7489 42.0341C41.7489 41.3387 41.5829 40.7762 41.2509 40.3466C40.9228 39.913 40.4853 39.6962 39.9384 39.6962C39.4032 39.6962 38.9716 39.9091 38.6435 40.3348C38.3153 40.7606 38.1513 41.37 38.1513 42.163ZM49.8056 43.7684L51.0243 38.9227H52.1083L50.2626 45.2626H49.3837L47.8427 40.4579L46.3427 45.2626H45.4638L43.6239 38.9227H44.7021L45.9501 43.6688L47.4267 38.9227H48.2997L49.8056 43.7684Z" fill="black"/>
</svg>
