<svg width="21" height="18" viewBox="0 0 21 18" fill="none" xmlns="http://www.w3.org/2000/svg">
<path d="M0.861328 13.0293C0.861328 12.7148 0.966146 12.4596 1.17578 12.2637C1.38997 12.0677 1.65658 11.9697 1.97559 11.9697C2.29915 11.9697 2.56576 12.0677 2.77539 12.2637C2.98958 12.4596 3.09668 12.7148 3.09668 13.0293C3.09668 13.3392 2.99186 13.5921 2.78223 13.7881C2.57259 13.9795 2.30371 14.0752 1.97559 14.0752C1.65202 14.0752 1.38542 13.9795 1.17578 13.7881C0.966146 13.5921 0.861328 13.3392 0.861328 13.0293ZM11.4502 9.88477C11.4502 11.2611 11.1654 12.3138 10.5957 13.043C10.026 13.7721 9.19206 14.1367 8.09375 14.1367C7.00911 14.1367 6.17969 13.779 5.60547 13.0635C5.03125 12.348 4.7373 11.3226 4.72363 9.9873V8.15527C4.72363 6.7653 5.01074 5.71029 5.58496 4.99023C6.16374 4.27018 6.99544 3.91016 8.08008 3.91016C9.16471 3.91016 9.99414 4.2679 10.5684 4.9834C11.1426 5.69434 11.4365 6.71745 11.4502 8.05273V9.88477ZM9.47461 7.875C9.47461 7.05013 9.36068 6.45085 9.13281 6.07715C8.90951 5.69889 8.55859 5.50977 8.08008 5.50977C7.61523 5.50977 7.27116 5.68978 7.04785 6.0498C6.8291 6.40527 6.71289 6.96354 6.69922 7.72461V10.1445C6.69922 10.9557 6.80859 11.5596 7.02734 11.9561C7.25065 12.348 7.60612 12.5439 8.09375 12.5439C8.57682 12.5439 8.92546 12.3548 9.13965 11.9766C9.35384 11.5983 9.46549 11.0195 9.47461 10.2402V7.875ZM19.4893 9.88477C19.4893 11.2611 19.2044 12.3138 18.6348 13.043C18.0651 13.7721 17.2311 14.1367 16.1328 14.1367C15.0482 14.1367 14.2188 13.779 13.6445 13.0635C13.0703 12.348 12.7764 11.3226 12.7627 9.9873V8.15527C12.7627 6.7653 13.0498 5.71029 13.624 4.99023C14.2028 4.27018 15.0345 3.91016 16.1191 3.91016C17.2038 3.91016 18.0332 4.2679 18.6074 4.9834C19.1816 5.69434 19.4756 6.71745 19.4893 8.05273V9.88477ZM17.5137 7.875C17.5137 7.05013 17.3997 6.45085 17.1719 6.07715C16.9486 5.69889 16.5977 5.50977 16.1191 5.50977C15.6543 5.50977 15.3102 5.68978 15.0869 6.0498C14.8682 6.40527 14.752 6.96354 14.7383 7.72461V10.1445C14.7383 10.9557 14.8477 11.5596 15.0664 11.9561C15.2897 12.348 15.6452 12.5439 16.1328 12.5439C16.6159 12.5439 16.9645 12.3548 17.1787 11.9766C17.3929 11.5983 17.5046 11.0195 17.5137 10.2402V7.875Z" fill="#757575"/>
<line x1="1.33448" y1="0.628353" x2="19.9168" y2="17.3525" stroke="#757575"/>
</svg>
