<svg width="20" height="20" viewBox="0 0 20 20" fill="none" xmlns="http://www.w3.org/2000/svg">
<path d="M10 0C4.48615 0 0 4.48577 0 10C0 15.5142 4.48615 20 10 20C15.5138 20 20 15.5142 20 10C20 4.48577 15.5138 0 10 0ZM10 19.2308C4.91038 19.2308 0.769231 15.0896 0.769231 10C0.769231 4.91038 4.91038 0.769231 10 0.769231C15.0896 0.769231 19.2308 4.91038 19.2308 10C19.2308 15.0896 15.0896 19.2308 10 19.2308Z" fill="black"/>
<path d="M14.8076 9.61587H10.3845V5.3851C10.3845 5.17241 10.2122 5.00049 9.99992 5.00049C9.78762 5.00049 9.61531 5.17241 9.61531 5.3851V9.61587H5.19223C4.97992 9.61587 4.80762 9.7878 4.80762 10.0005C4.80762 10.2132 4.97992 10.3851 5.19223 10.3851H9.61531V15.0005C9.61531 15.2132 9.78762 15.3851 9.99992 15.3851C10.2122 15.3851 10.3845 15.2132 10.3845 15.0005V10.3851H14.8076C15.0199 10.3851 15.1922 10.2132 15.1922 10.0005C15.1922 9.7878 15.0199 9.61587 14.8076 9.61587Z" fill="black"/>
</svg>
