<svg width="60" height="61" viewBox="0 0 60 61" fill="none" xmlns="http://www.w3.org/2000/svg">
<g clip-path="url(#clip0)">
<path d="M56.4771 25.1426H46.8279V34.8535L33.2758 44.226C32.7026 43.0034 31.4589 42.1557 30.0165 42.1557C28.5745 42.1557 27.3308 43.0034 26.7577 44.226L13.2056 34.8535V25.1426H3.55637C2.56302 25.1426 1.75781 25.9459 1.75781 26.9365V58.5902C1.75781 59.5808 2.56302 60.3841 3.55637 60.3841H56.4771C57.4704 60.3841 58.2751 59.5808 58.2751 58.5902V26.9365C58.2751 25.9459 57.4704 25.1426 56.4771 25.1426Z" fill="#C46F5F"/>
<path d="M5.35446 58.5902V26.9365C5.35446 25.9459 6.15967 25.1426 7.15256 25.1426H3.55637C2.56302 25.1426 1.75781 25.9459 1.75781 26.9365V58.5902C1.75781 59.5808 2.56302 60.3841 3.55637 60.3841H7.15256C6.15967 60.3841 5.35446 59.5808 5.35446 58.5902Z" fill="#B45F4A"/>
<path d="M26.7577 44.2264C28.0504 41.4692 31.9844 41.472 33.2758 44.2264L46.8279 34.8539C46.8279 33.8336 46.8279 4.70959 46.8279 2.34843C46.8279 1.34048 46.0089 0.523438 44.9986 0.523438H22.5009L13.2056 9.79773V34.8539L26.7577 44.2264Z" fill="#FFF6E9"/>
<path d="M16.8274 6.18359L13.2056 9.79749V34.8536L16.8274 37.3582V6.18359Z" fill="#F9E4C7"/>
<path d="M33.6132 45.7446C33.6132 47.7262 32.0033 49.3329 30.0166 49.3329C28.0303 49.3329 26.4199 47.7262 26.4199 45.7446C26.4199 43.7629 28.0303 42.1562 30.0166 42.1562C32.0033 42.1562 33.6132 43.7629 33.6132 45.7446Z" fill="#FF6B6B"/>
<path d="M30.0166 45.7446C30.0166 44.4165 30.7403 43.2583 31.8151 42.6376C31.286 42.3321 30.6721 42.1562 30.0166 42.1562C28.0303 42.1562 26.4199 43.7629 26.4199 45.7446C26.4199 47.7262 28.0303 49.3329 30.0166 49.3329C30.6721 49.3329 31.286 49.1571 31.8151 48.8515C30.7403 48.2309 30.0166 47.0727 30.0166 45.7446Z" fill="#EE5253"/>
<path d="M46.8279 34.8535L58.2752 26.9365C58.2752 25.9459 57.4704 25.1426 56.4771 25.1426H46.8279V34.8535Z" fill="#B45F4A"/>
<path d="M50.4502 25.1426H46.8279V34.8535L50.4502 32.3485V25.1426Z" fill="#A85140"/>
<path d="M13.2051 34.8535V25.1426H3.55637C2.56302 25.1426 1.75781 25.9459 1.75781 26.9365L13.2051 34.8535Z" fill="#B45F4A"/>
<path d="M5.35446 29.4237V26.9365C5.35446 25.9459 6.15967 25.1426 7.15256 25.1426H3.55637C2.56348 25.1426 1.75781 25.9455 1.75781 26.9365L5.35446 29.4237Z" fill="#A85140"/>
<path d="M13.2051 9.79773H20.6717C21.6819 9.79773 22.5009 8.98068 22.5009 7.97228V0.523438L13.2051 9.79773Z" fill="#F9E4C7"/>
<path d="M22.5009 0.523438L13.2051 9.79773H16.8274L22.5009 4.13688V0.523438Z" fill="#F2D5B1"/>
<path d="M39.5772 28.8438H20.4555C19.9556 28.8438 19.55 28.4392 19.55 27.9405C19.55 27.4413 19.9556 27.0371 20.4555 27.0371H39.5772C40.0775 27.0371 40.4827 27.4413 40.4827 27.9405C40.4827 28.4392 40.0775 28.8438 39.5772 28.8438Z" fill="#F9E4C7"/>
<path d="M39.5772 33.3985H20.4555C19.9556 33.3985 19.55 32.9943 19.55 32.4952C19.55 31.996 19.9556 31.5918 20.4555 31.5918H39.5772C40.0775 31.5918 40.4827 31.996 40.4827 32.4952C40.4827 32.9943 40.0775 33.3985 39.5772 33.3985Z" fill="#F9E4C7"/>
<path d="M39.5772 37.9513H20.4555C19.9556 37.9513 19.55 37.5471 19.55 37.0479C19.55 36.5487 19.9556 36.1445 20.4555 36.1445H39.5772C40.0775 36.1445 40.4827 36.5487 40.4827 37.0479C40.4827 37.5471 40.0775 37.9513 39.5772 37.9513Z" fill="#F9E4C7"/>
<path d="M38.1726 9.3877H35.0613C35.6238 10.0996 35.9797 10.9697 36.1292 11.998H38.7791L38.1726 14.0811H36.1687C36.0105 15.6455 35.3909 16.8232 34.3098 17.6143C33.2288 18.4053 31.7258 18.8008 29.801 18.8008L36.3005 26.3418V26.5H33.3079L26.3206 18.3657L26.3074 16.7178H29.5901C30.6887 16.709 31.5808 16.4717 32.2664 16.0059C32.9519 15.5312 33.387 14.8896 33.5715 14.0811H25.9382L26.5447 11.998H33.5452C33.1233 10.3281 31.8313 9.45801 29.6692 9.3877H25.9646L26.5842 7.30469H38.7791L38.1726 9.3877Z" fill="#576574"/>
</g>
<defs>
<clipPath id="clip0">
<rect width="60" height="59.8611" fill="white" transform="translate(0 0.523438)"/>
</clipPath>
</defs>
</svg>
