<svg width="24" height="24" viewBox="0 0 24 24" fill="none" xmlns="http://www.w3.org/2000/svg">
<g clip-path="url(#clip0)">
<g clip-path="url(#clip1)">
<path d="M0 11.9999C0 18.6169 5.38294 23.9999 12 23.9999C18.6171 23.9999 24 18.6169 24 11.9999C24.0029 10.4128 23.6891 8.84099 23.0765 7.37674C22.9738 7.1376 22.6976 7.02557 22.4574 7.12595C22.2172 7.22658 22.1025 7.50174 22.2007 7.743C22.7648 9.09125 23.0538 10.5386 23.0508 11.9999C23.0508 18.0934 18.0935 23.0507 12 23.0507C5.90651 23.0507 0.949152 18.0934 0.949152 11.9999C0.949152 5.9064 5.90651 0.949039 12 0.949039C13.2383 0.94745 14.4682 1.15481 15.6377 1.56186C15.7979 1.6188 15.9767 1.58543 16.1057 1.47473C16.2346 1.36376 16.2945 1.19215 16.2624 1.02505C16.2304 0.857937 16.1112 0.720755 15.9502 0.66567C14.6803 0.223403 13.3448 -0.0017027 12 -0.000113717C5.38294 -0.000113717 0 5.38283 0 11.9999H0Z" fill="#008FFF"/>
<path d="M15.8276 6.85623C15.8276 6.59405 15.6152 6.38165 15.353 6.38165H8.64645C8.38427 6.38165 8.17188 6.59405 8.17188 6.85623C8.17188 7.11841 8.38427 7.3308 8.64645 7.3308H10.5654C11.7092 7.33213 12.6939 8.13827 12.9211 9.2593H8.64645C8.38427 9.2593 8.17188 9.47169 8.17188 9.73387C8.17188 9.99579 8.38427 10.2085 8.64645 10.2085H12.9211C12.6939 11.3292 11.7092 12.1351 10.5654 12.1367H8.64645C8.45207 12.1367 8.27754 12.2553 8.20551 12.4357C8.13374 12.6163 8.17929 12.8223 8.32045 12.9561L13.1171 17.4886C13.2402 17.6057 13.4166 17.6481 13.5795 17.5996C13.7421 17.5511 13.8668 17.4193 13.906 17.254C13.9449 17.0887 13.8927 16.915 13.7691 16.7988L9.83951 13.0856H10.5654C12.2325 13.0834 13.6454 11.8581 13.8835 10.2082H15.353C15.6152 10.2082 15.8276 9.99553 15.8276 9.73361C15.8276 9.47143 15.6152 9.25903 15.353 9.25903H13.8835C13.7781 8.52492 13.4319 7.84643 12.8994 7.33054H15.353C15.6152 7.33054 15.8276 7.11815 15.8276 6.85623Z" fill="#008FFF"/>
<path d="M16.7047 3.08537C16.5193 2.89998 16.2187 2.89998 16.0334 3.08537C15.8483 3.27075 15.8483 3.57133 16.0334 3.75671L18.2418 5.96513C18.4243 6.1476 18.7187 6.15078 18.9052 5.97281L22.7985 2.25406C22.9881 2.07292 22.995 1.7726 22.8141 1.58298C22.6329 1.39363 22.3326 1.38674 22.143 1.56762L18.585 4.96593L16.7047 3.08537Z" fill="#008FFF"/>
</g>
</g>
<defs>
<clipPath id="clip0">
<rect width="24" height="24" fill="white"/>
</clipPath>
<clipPath id="clip1">
<rect width="24" height="24" fill="white"/>
</clipPath>
</defs>
</svg>
