<svg width="20" height="20" viewBox="0 0 20 20" fill="none" xmlns="http://www.w3.org/2000/svg">
<path d="M10 0C4.48609 0 0 4.48609 0 10C0 15.5139 4.48609 20 10 20C15.5143 20 20 15.5139 20 10C20 4.48609 15.5143 0 10 0ZM10 19.1304C4.96522 19.1304 0.869565 15.0348 0.869565 10C0.869565 4.96522 4.96522 0.869565 10 0.869565C15.0343 0.869565 19.1304 4.96522 19.1304 10C19.1304 15.0348 15.0343 19.1304 10 19.1304Z" fill="#FF6823"/>
<path d="M7.82598 8.2604C7.82598 7.54127 7.24076 6.95605 6.52163 6.95605C5.8025 6.95605 5.21729 7.54127 5.21729 8.2604C5.21729 8.97953 5.8025 9.56475 6.52163 9.56475C7.24076 9.56475 7.82598 8.97953 7.82598 8.2604ZM6.08685 8.2604C6.08685 8.02084 6.28207 7.82562 6.52163 7.82562C6.7612 7.82562 6.95642 8.02084 6.95642 8.2604C6.95642 8.49997 6.7612 8.69519 6.52163 8.69519C6.28207 8.69519 6.08685 8.49997 6.08685 8.2604Z" fill="#FF6823"/>
<path d="M13.4782 6.95605C12.759 6.95605 12.1738 7.54127 12.1738 8.2604C12.1738 8.97953 12.759 9.56475 13.4782 9.56475C14.1973 9.56475 14.7825 8.97953 14.7825 8.2604C14.7825 7.54127 14.1973 6.95605 13.4782 6.95605ZM13.4782 8.69519C13.2382 8.69519 13.0434 8.49997 13.0434 8.2604C13.0434 8.02084 13.2382 7.82562 13.4782 7.82562C13.7182 7.82562 13.9129 8.02084 13.9129 8.2604C13.9129 8.49997 13.7182 8.69519 13.4782 8.69519Z" fill="#FF6823"/>
<path d="M10 12.1738C8.37915 12.1738 6.8348 12.8603 5.76307 14.0577C5.60307 14.2369 5.61828 14.5116 5.79698 14.6716C5.97611 14.8321 6.25089 14.8164 6.41089 14.6377C7.31785 13.6243 8.62611 13.0434 10 13.0434C11.3739 13.0434 12.6822 13.6243 13.5892 14.6377C13.6748 14.7338 13.7939 14.7825 13.9131 14.7825C14.0161 14.7825 14.1205 14.746 14.2031 14.6716C14.3818 14.5116 14.397 14.2369 14.237 14.0577C13.1652 12.8608 11.6213 12.1738 10 12.1738Z" fill="#FF6823"/>
</svg>
