<svg width="300" height="250" viewBox="0 0 300 250" fill="none" xmlns="http://www.w3.org/2000/svg">
<g clip-path="url(#clip0)">
<path opacity="0.1" d="M97.2511 8.89203C106.023 1.09818 119.793 -0.499565 132.328 0.120946C171.696 2.07541 207.233 21.0445 237.973 42.5046C249.103 50.2714 260.058 58.6438 267.281 69.3424C281.996 91.1202 277.623 121.288 257.178 139.229C250.22 145.333 241.787 150.021 233.129 154.161C217.735 161.535 201.124 167.455 183.652 169.149C171.195 170.348 158.581 169.374 146.193 167.698C111.588 163.004 77.6255 152.644 49.1466 134.922C36.6595 127.149 24.8901 117.484 19.7427 104.915C14.5953 92.3463 17.8898 76.3988 30.6412 68.9437C35.9147 65.8651 42.2213 64.4742 48.3928 63.1673C57.4803 61.2458 66.712 59.3513 74.9106 55.4454C83.3825 51.4105 93.4101 43.6077 91.7283 34.6747C89.9384 25.1033 88.4909 16.6859 97.2511 8.89203Z" fill="#008FFF"/>
<path d="M205.701 200.514C205.701 200.514 213.227 187.207 224.558 183.373C229.321 181.795 233.444 178.717 236.306 174.602C237.65 172.638 238.81 170.555 239.772 168.379" stroke="#535461" stroke-width="2" stroke-miterlimit="10"/>
<path d="M246.901 165.919C245.61 167.172 239.594 168.464 239.594 168.464C239.594 168.464 241.069 162.501 242.36 161.251C242.98 160.65 243.814 160.32 244.679 160.332C245.543 160.345 246.367 160.7 246.969 161.319C247.571 161.938 247.902 162.77 247.889 163.633C247.877 164.495 247.521 165.318 246.901 165.919Z" fill="#008FFF"/>
<path d="M243.499 176.698C241.733 177.049 235.991 174.873 235.991 174.873C235.991 174.873 240.477 170.676 242.24 170.316C243.088 170.148 243.968 170.323 244.687 170.803C245.405 171.282 245.904 172.027 246.072 172.873C246.241 173.72 246.065 174.598 245.585 175.315C245.105 176.033 244.358 176.53 243.511 176.698H243.499Z" fill="#008FFF"/>
<path d="M231.111 188.382C229.408 187.782 225.543 183.016 225.543 183.016C225.543 183.016 231.549 181.649 233.243 182.237C233.656 182.369 234.038 182.583 234.368 182.865C234.697 183.147 234.966 183.492 235.16 183.88C235.354 184.267 235.468 184.69 235.496 185.122C235.524 185.554 235.466 185.988 235.324 186.397C235.182 186.806 234.959 187.183 234.669 187.506C234.379 187.828 234.028 188.089 233.635 188.274C233.243 188.459 232.817 188.564 232.384 188.582C231.95 188.601 231.517 188.532 231.111 188.382Z" fill="#008FFF"/>
<path d="M219.744 195.096C217.969 194.796 213.35 190.746 213.35 190.746C213.35 190.746 219.029 188.384 220.804 188.678C221.229 188.744 221.637 188.893 222.005 189.117C222.372 189.341 222.691 189.636 222.943 189.984C223.196 190.332 223.376 190.727 223.475 191.145C223.574 191.563 223.589 191.997 223.519 192.421C223.449 192.845 223.295 193.25 223.067 193.615C222.839 193.979 222.541 194.295 222.19 194.544C221.839 194.792 221.442 194.969 221.022 195.064C220.602 195.159 220.168 195.169 219.744 195.096Z" fill="#008FFF"/>
<path d="M230.964 170.222C230.964 172.021 234.219 177.228 234.219 177.228C234.219 177.228 237.48 172.021 237.48 170.225C237.48 169.362 237.137 168.535 236.526 167.925C235.915 167.315 235.086 166.973 234.222 166.973C233.358 166.973 232.529 167.315 231.918 167.925C231.307 168.535 230.964 169.362 230.964 170.225V170.222Z" fill="#008FFF"/>
<path d="M217.771 178.249C218.311 179.964 222.978 183.963 222.978 183.963C222.978 183.963 224.528 178.018 223.99 176.304C223.732 175.48 223.156 174.793 222.39 174.394C221.624 173.994 220.731 173.914 219.906 174.172C219.081 174.43 218.393 175.005 217.992 175.769C217.592 176.534 217.512 177.426 217.771 178.249Z" fill="#008FFF"/>
<path d="M206.022 187.807C206.263 189.588 210.188 194.318 210.188 194.318C210.188 194.318 212.722 188.721 212.482 186.941C212.367 186.086 211.916 185.311 211.229 184.788C210.542 184.265 209.675 184.035 208.818 184.15C207.962 184.265 207.186 184.715 206.661 185.401C206.137 186.086 205.907 186.952 206.022 187.807Z" fill="#008FFF"/>
<path opacity="0.25" d="M246.901 165.919C245.61 167.172 239.594 168.464 239.594 168.464C239.594 168.464 241.069 162.501 242.36 161.251C242.98 160.65 243.814 160.32 244.679 160.332C245.543 160.345 246.367 160.7 246.969 161.319C247.571 161.938 247.902 162.77 247.889 163.633C247.877 164.495 247.521 165.318 246.901 165.919Z" fill="black"/>
<path opacity="0.25" d="M243.499 176.698C241.733 177.049 235.991 174.873 235.991 174.873C235.991 174.873 240.477 170.676 242.24 170.316C243.088 170.148 243.968 170.323 244.687 170.803C245.405 171.282 245.904 172.027 246.072 172.873C246.241 173.72 246.065 174.598 245.585 175.315C245.105 176.033 244.358 176.53 243.511 176.698H243.499Z" fill="black"/>
<path opacity="0.25" d="M231.111 188.382C229.408 187.782 225.543 183.016 225.543 183.016C225.543 183.016 231.549 181.649 233.243 182.237C233.656 182.369 234.038 182.583 234.368 182.865C234.697 183.147 234.966 183.492 235.16 183.88C235.354 184.267 235.468 184.69 235.496 185.122C235.524 185.554 235.466 185.988 235.324 186.397C235.182 186.806 234.959 187.183 234.669 187.506C234.379 187.828 234.028 188.089 233.635 188.274C233.243 188.459 232.817 188.564 232.384 188.582C231.95 188.601 231.517 188.532 231.111 188.382Z" fill="black"/>
<path opacity="0.25" d="M219.744 195.096C217.969 194.796 213.35 190.746 213.35 190.746C213.35 190.746 219.029 188.384 220.804 188.678C221.229 188.744 221.637 188.893 222.005 189.117C222.372 189.341 222.691 189.636 222.943 189.984C223.196 190.332 223.376 190.727 223.475 191.145C223.574 191.563 223.589 191.997 223.519 192.421C223.449 192.845 223.295 193.25 223.067 193.615C222.839 193.979 222.541 194.295 222.19 194.544C221.839 194.792 221.442 194.969 221.022 195.064C220.602 195.159 220.168 195.169 219.744 195.096Z" fill="black"/>
<path opacity="0.25" d="M230.964 170.222C230.964 172.021 234.219 177.228 234.219 177.228C234.219 177.228 237.48 172.021 237.48 170.225C237.48 169.362 237.137 168.535 236.526 167.925C235.915 167.315 235.086 166.973 234.222 166.973C233.358 166.973 232.529 167.315 231.918 167.925C231.307 168.535 230.964 169.362 230.964 170.225V170.222Z" fill="black"/>
<path opacity="0.25" d="M217.771 178.249C218.311 179.964 222.978 183.963 222.978 183.963C222.978 183.963 224.528 178.018 223.99 176.304C223.732 175.48 223.156 174.793 222.39 174.394C221.624 173.994 220.731 173.914 219.906 174.172C219.081 174.43 218.393 175.005 217.992 175.769C217.592 176.534 217.512 177.426 217.771 178.249Z" fill="black"/>
<path opacity="0.25" d="M206.022 187.807C206.263 189.588 210.188 194.318 210.188 194.318C210.188 194.318 212.722 188.721 212.482 186.941C212.367 186.086 211.916 185.311 211.229 184.788C210.542 184.265 209.675 184.035 208.818 184.15C207.962 184.265 207.186 184.715 206.661 185.401C206.137 186.086 205.907 186.952 206.022 187.807Z" fill="black"/>
<path d="M206.133 200.236C206.133 200.236 207.611 185.026 216.416 176.939C220.13 173.568 222.649 169.086 223.594 164.166C224.026 161.825 224.241 159.45 224.236 157.07" stroke="#535461" stroke-width="2" stroke-miterlimit="10"/>
<path d="M229.753 151.947C229.081 153.614 224.107 157.229 224.107 157.229C224.107 157.229 223.038 151.18 223.711 149.516C223.863 149.109 224.095 148.737 224.394 148.422C224.693 148.106 225.051 147.853 225.449 147.678C225.847 147.503 226.276 147.41 226.711 147.403C227.146 147.396 227.578 147.476 227.981 147.638C228.384 147.8 228.751 148.042 229.06 148.348C229.368 148.654 229.612 149.018 229.777 149.42C229.942 149.821 230.025 150.252 230.021 150.686C230.017 151.12 229.926 151.549 229.753 151.947Z" fill="#008FFF"/>
<path d="M231.024 163.199C229.552 164.233 223.408 164.569 223.408 164.569C223.408 164.569 225.81 158.912 227.273 157.878C227.623 157.632 228.018 157.457 228.435 157.364C228.853 157.27 229.285 157.26 229.707 157.333C230.128 157.406 230.531 157.562 230.893 157.791C231.254 158.019 231.567 158.317 231.813 158.666C232.06 159.016 232.235 159.41 232.328 159.827C232.422 160.244 232.432 160.675 232.359 161.096C232.286 161.517 232.13 161.919 231.901 162.28C231.672 162.641 231.374 162.953 231.024 163.199Z" fill="#008FFF"/>
<path d="M224.438 178.878C222.636 179.028 217.17 176.222 217.17 176.222C217.17 176.222 222.098 172.547 223.879 172.394C224.741 172.322 225.595 172.594 226.256 173.151C226.916 173.708 227.328 174.504 227.4 175.363C227.473 176.223 227.2 177.077 226.642 177.736C226.084 178.395 225.287 178.806 224.426 178.878H224.438Z" fill="#008FFF"/>
<path d="M216.777 189.622C215.035 190.072 209.167 188.231 209.167 188.231C209.167 188.231 213.398 183.774 215.14 183.324C215.557 183.207 215.994 183.175 216.424 183.228C216.854 183.281 217.269 183.42 217.644 183.635C218.02 183.851 218.349 184.139 218.612 184.483C218.875 184.827 219.066 185.22 219.175 185.639C219.284 186.057 219.308 186.493 219.246 186.922C219.184 187.35 219.037 187.761 218.814 188.132C218.59 188.503 218.295 188.825 217.945 189.08C217.595 189.336 217.198 189.519 216.777 189.619V189.622Z" fill="#008FFF"/>
<path d="M216.933 162.317C217.66 163.96 222.753 167.413 222.753 167.413C222.753 167.413 223.621 161.334 222.891 159.691C222.531 158.919 221.881 158.319 221.082 158.02C220.284 157.721 219.399 157.746 218.619 158.091C217.838 158.435 217.225 159.072 216.91 159.863C216.594 160.655 216.603 161.538 216.933 162.323V162.317Z" fill="#008FFF"/>
<path d="M208.134 175.011C209.32 176.36 215.212 178.128 215.212 178.128C215.212 178.128 214.218 172.067 213.029 170.718C212.749 170.389 212.406 170.119 212.02 169.923C211.635 169.728 211.214 169.611 210.782 169.579C210.351 169.547 209.918 169.602 209.507 169.739C209.097 169.877 208.719 170.094 208.394 170.379C208.069 170.664 207.804 171.011 207.615 171.399C207.425 171.788 207.315 172.21 207.291 172.641C207.267 173.072 207.329 173.503 207.473 173.91C207.618 174.317 207.842 174.691 208.134 175.011Z" fill="#008FFF"/>
<path d="M201.274 188.51C202.217 190.042 207.725 192.776 207.725 192.776C207.725 192.776 207.77 186.636 206.824 185.105C206.6 184.741 206.307 184.424 205.96 184.174C205.614 183.923 205.221 183.743 204.805 183.644C204.389 183.544 203.957 183.528 203.534 183.595C203.112 183.663 202.707 183.812 202.342 184.036C201.977 184.26 201.66 184.553 201.409 184.898C201.158 185.244 200.978 185.636 200.878 186.052C200.779 186.467 200.762 186.898 200.83 187.32C200.897 187.742 201.047 188.146 201.271 188.51H201.274Z" fill="#008FFF"/>
<path opacity="0.1" d="M112.369 249.995C132.086 249.995 148.07 247.321 148.07 244.021C148.07 240.722 132.086 238.047 112.369 238.047C92.6516 238.047 76.6675 240.722 76.6675 244.021C76.6675 247.321 92.6516 249.995 112.369 249.995Z" fill="#008FFF"/>
<path opacity="0.1" d="M182.64 204.136C202.357 204.136 218.341 201.461 218.341 198.162C218.341 194.862 202.357 192.188 182.64 192.188C162.922 192.188 146.938 194.862 146.938 198.162C146.938 201.461 162.922 204.136 182.64 204.136Z" fill="#008FFF"/>
<path d="M185.009 119.301L184.976 120.467L182.946 191.967H179.534L181.207 120.467L181.24 119.121L185.009 119.301Z" fill="#B77B7F"/>
<path d="M204.761 179.89L202.205 179.884L164.233 179.803L162.209 179.8L163.287 176.484H204.491L204.761 179.89Z" fill="#DDA2A6"/>
<path opacity="0.1" d="M185.009 119.301L184.976 120.467H181.207L181.24 119.121L185.009 119.301Z" fill="black"/>
<path d="M186.448 117.559H180.12V119.936H186.448V117.559Z" fill="#B77B7F"/>
<path opacity="0.1" d="M164.57 176.484L164.233 179.803L162.209 179.8L163.287 176.484H164.57Z" fill="black"/>
<path d="M170.021 117.52L169.915 118.551L161.492 201.477L157.633 201.295L166.51 118.551L166.609 117.609L170.021 117.52Z" fill="#DDA2A6"/>
<path opacity="0.1" d="M204.761 179.89L202.205 179.884L201.86 176.484H204.491L204.761 179.89Z" fill="black"/>
<path d="M208.8 201.295L204.938 201.477L196.517 118.551L196.412 117.52L199.821 117.609L199.92 118.551L208.8 201.295Z" fill="#DDA2A6"/>
<path d="M225.225 35.7617H140.127V117.208H225.225V35.7617Z" fill="white"/>
<path d="M184.337 8.52504V28.1925H181.018V8.52504C181.009 8.30162 181.044 8.07859 181.124 7.86936C181.203 7.66013 181.323 7.46904 181.478 7.30759C181.633 7.14614 181.819 7.01766 182.026 6.92989C182.232 6.84212 182.453 6.79688 182.677 6.79688C182.901 6.79688 183.123 6.84212 183.329 6.92989C183.535 7.01766 183.721 7.14614 183.876 7.30759C184.031 7.46904 184.152 7.66013 184.231 7.86936C184.31 8.07859 184.346 8.30162 184.337 8.52504Z" fill="#DDA2A6"/>
<path opacity="0.1" d="M184.337 26.3867H181.015V28.1763H184.337V26.3867Z" fill="black"/>
<path d="M185.64 27.74V34.2329H179.733V27.74C179.732 27.634 179.753 27.5289 179.793 27.4309C179.834 27.3329 179.893 27.2439 179.968 27.1689C180.043 27.0939 180.133 27.0346 180.231 26.9942C180.329 26.9538 180.434 26.9332 180.541 26.9336H184.838C185.051 26.9352 185.255 27.0208 185.405 27.1719C185.556 27.3229 185.64 27.5271 185.64 27.74Z" fill="#DDA2A6"/>
<path opacity="0.1" d="M182.676 32.3107C183.369 32.3107 183.931 31.7497 183.931 31.0577C183.931 30.3657 183.369 29.8047 182.676 29.8047C181.983 29.8047 181.421 30.3657 181.421 31.0577C181.421 31.7497 181.983 32.3107 182.676 32.3107Z" fill="black"/>
<path d="M182.676 32.0568C183.369 32.0568 183.931 31.4958 183.931 30.8038C183.931 30.1118 183.369 29.5508 182.676 29.5508C181.983 29.5508 181.421 30.1118 181.421 30.8038C181.421 31.4958 181.983 32.0568 182.676 32.0568Z" fill="#B77B7F"/>
<path opacity="0.1" d="M185.64 33.4375H179.715V34.2439H185.64V33.4375Z" fill="black"/>
<path opacity="0.1" d="M188.063 34.5117H177.291V36.3043H188.063V34.5117Z" fill="black"/>
<path d="M188.063 33.9648H177.291V35.7574H188.063V33.9648Z" fill="#DDA2A6"/>
<path opacity="0.1" d="M160.885 115.117H206.127C206.645 115.117 207.142 115.322 207.508 115.688C207.874 116.053 208.079 116.549 208.079 117.066V117.491H158.933V117.066C158.933 116.549 159.139 116.053 159.505 115.688C159.871 115.322 160.367 115.117 160.885 115.117Z" fill="black"/>
<path opacity="0.1" d="M166.609 117.609L170.021 117.52L169.915 118.551H166.51L166.609 117.609Z" fill="black"/>
<path opacity="0.1" d="M186.448 117.559H180.12V118.545H186.448V117.559Z" fill="black"/>
<path opacity="0.1" d="M199.92 118.551H196.517L196.412 117.52L199.821 117.609L199.92 118.551Z" fill="black"/>
<path d="M160.885 115.645H206.127C206.645 115.645 207.142 115.85 207.508 116.215C207.874 116.581 208.079 117.076 208.079 117.593V118.019H158.933V117.593C158.933 117.076 159.139 116.581 159.505 116.215C159.871 115.85 160.367 115.645 160.885 115.645Z" fill="#DDA2A6"/>
<path d="M150.965 77.8213C150.284 77.4616 142.857 71.862 142.857 71.862L130.871 64.275C130.871 64.275 130.808 64.0951 130.694 63.7863C133.983 60.0603 133.265 54.6525 129.919 50.8515C125.865 46.2412 107.546 36.316 102.026 44.8053C101.254 46.0044 101.227 47.3653 101.026 48.6842C100.555 51.7628 99.0349 54.7455 96.6504 57.2575C94.8125 59.197 92.401 60.9836 91.3439 63.1778C91.3439 63.1508 91.3228 63.1239 91.3138 63.0939C91.0586 63.5642 90.8735 64.0691 90.7643 64.5927C90.2387 67.2696 92.0406 69.8356 92.9986 72.4405C93.3202 73.3227 93.5535 74.2344 93.6953 75.1624C93.7194 74.9765 93.7404 74.7937 93.7614 74.6078C93.9949 75.9292 94.0745 77.273 93.9986 78.6127C87.3467 79.9646 87.3437 91.3226 87.3437 91.3226C87.3437 91.3226 86.5238 95.8371 86.6619 97.4648C86.8001 99.0925 86.7971 102.612 86.7971 103.46C86.7971 104.308 85.9772 109.599 85.8961 110.235C85.8969 110.244 85.8969 110.253 85.8961 110.262C85.776 110.957 84.5297 114.309 87.5419 115.058C87.7521 115.112 87.9743 115.157 88.2056 115.199C88.3347 117.912 88.5689 123.592 88.3617 124.857C88.3617 124.857 89.4579 132.489 90.3678 134.429C90.9432 135.566 91.6165 136.651 92.38 137.672C92.3139 138.137 92.1567 138.584 91.9175 138.988C91.452 139.657 91.6922 140.205 92.47 140.442C92.443 140.673 92.413 140.934 92.38 141.227C92.0466 144.171 91.5481 150.022 92.395 152.987C93.5572 157.052 93.6263 158.407 93.6263 158.407C93.6263 158.407 93.6263 159.624 94.1068 160.301C94.5873 160.979 95.4732 167.28 95.4732 168.296C95.4732 169.312 97.7976 178.455 97.1129 180.622C96.4282 182.79 96.9778 185.838 96.9778 185.838C96.9778 185.838 96.5663 191.189 96.0768 192.34C95.5873 193.491 95.3921 212.05 96.1429 216.858C96.8937 221.666 97.3742 225.662 97.3742 225.662C97.3742 225.662 96.8967 230.065 97.3051 230.674C97.7135 231.282 98.4673 234.942 97.9208 235.143C97.3742 235.344 97.1009 236.837 97.1009 236.837C97.3899 237.276 97.7017 237.699 98.0349 238.105C97.8242 238.032 97.6185 237.944 97.4192 237.844C97.6355 238.144 97.9598 238.57 98.3592 239.043L97.9838 243.914C97.9681 244.104 98.0195 244.294 98.1293 244.45C98.239 244.606 98.4001 244.719 98.5845 244.769C99.7836 245.094 101.049 245.089 102.245 244.753C103.441 244.417 104.524 243.764 105.378 242.862C108.795 239.409 109.957 239.883 110.573 237.784C110.639 237.559 110.696 237.338 110.744 237.128C111.186 235.257 109.189 233.866 107.6 234.664C107.819 233.183 107.99 231.501 107.825 230.551C107.483 228.587 107.552 223.441 107.552 223.441L107.074 198.785C107.074 198.785 107.96 193.908 108.987 192.013C110.014 190.119 109.888 183.479 109.888 183.479L111.051 161.668L112.144 151.036C112.144 151.036 113.237 147.378 114.603 151.443C114.603 151.443 113.852 159.636 114.195 161.602C114.537 163.569 115.015 173.116 114.672 175.215C114.33 177.313 112.828 188.83 113.771 191.741C114.714 194.651 115.766 198.179 115.555 199.334C115.345 200.488 114.654 225.476 114.654 225.476C114.654 225.476 116.501 230.272 115.135 231.843C113.768 233.414 115.066 239.637 115.066 239.637C115.066 239.637 115.231 239.754 115.513 239.916L115.474 240.434L115.045 246.037C115.029 246.227 115.081 246.417 115.191 246.573C115.3 246.73 115.461 246.843 115.645 246.894C116.845 247.22 118.11 247.214 119.306 246.879C120.503 246.543 121.585 245.889 122.439 244.988C125.856 241.531 127.018 242.008 127.634 239.907C127.7 239.682 127.757 239.463 127.808 239.25C128.289 237.209 125.856 235.728 124.228 237.062L124.147 237.131C124.062 237.203 123.973 237.27 123.88 237.332C123.837 237.363 123.792 237.392 123.745 237.419C124.087 235.872 124.586 233.222 124.346 231.981C124.003 230.152 124.685 224.601 124.685 224.601C124.685 224.601 126.667 217.961 126.736 215.308L127.283 194.178C127.283 194.178 127.217 185.574 127.49 183.476C127.763 181.378 129.949 163.224 132.136 157.804C133.814 153.656 134.565 143.068 134.121 137.699C134.097 137.435 134.073 137.181 134.043 136.944C136.725 134.968 136.992 131.683 136.992 131.683C136.992 131.683 134.529 126.989 132.16 125.001C129.79 123.014 129.28 119.596 129.364 118.143C129.404 117.257 129.112 116.388 128.544 115.705C128.544 115.705 127.451 112.183 126.721 111.823C126.661 111.793 126.607 111.753 126.562 111.704C126.066 111.173 126.448 109.656 126.448 109.656V109.608C126.535 109.258 127.048 106.985 126.895 106.404C126.712 105.774 126.985 102.792 126.985 102.792C126.985 102.792 128.718 97.6447 128.445 93.5799C128.172 89.5151 132.001 89.8778 132.001 89.8778L143.824 89.7549H145.169C145.644 89.3528 146.077 88.905 146.464 88.4179C148.716 88.1511 153.272 87.3028 153.782 84.8208C154.476 81.5264 151.65 78.184 150.965 77.8213ZM96.1879 115.4L96.269 113.334C96.5483 113.574 96.7345 113.727 96.7345 113.727C96.8853 114.267 96.8925 114.838 96.7555 115.382C96.6822 115.637 96.552 115.873 96.3747 116.071C96.1974 116.269 95.9775 116.425 95.7315 116.527C95.6743 116.552 95.6191 116.581 95.5663 116.614L95.4522 115.448L96.1879 115.4ZM139.073 79.1283C138.571 78.9034 136.884 78.9484 136.016 78.9484C135.148 78.9484 133.739 78.226 133.739 78.226C133.439 77.6414 131.778 77.2937 130.301 77.0959C129.178 74.332 127.598 71.6372 127.385 68.7564C127.385 68.6515 127.385 68.5466 127.37 68.4417L127.541 68.7414C127.541 68.7414 134.424 73.124 135.199 74.437C135.8 75.4382 138.692 77.6744 140.031 78.6756C139.847 78.9158 139.588 79.0886 139.295 79.1672C139.219 79.1755 139.142 79.162 139.073 79.1283Z" fill="url(#paint0_linear)"/>
<path d="M127.706 239.268C127.655 239.478 127.601 239.697 127.535 239.918C126.934 242.017 125.784 241.531 122.43 244.957C121.594 245.852 120.529 246.501 119.35 246.835C118.171 247.169 116.923 247.175 115.742 246.852C115.557 246.803 115.396 246.691 115.286 246.535C115.176 246.38 115.125 246.19 115.141 246.001L115.564 240.443L115.766 237.769C115.766 237.769 121.123 239.268 123.85 237.364C123.942 237.302 124.03 237.235 124.114 237.163C124.135 237.145 124.155 237.125 124.174 237.104C124.526 236.813 124.961 236.639 125.416 236.607C125.872 236.575 126.327 236.686 126.716 236.925C127.105 237.163 127.41 237.517 127.588 237.938C127.765 238.358 127.807 238.823 127.706 239.268Z" fill="#67647E"/>
<path d="M110.888 237.178C110.837 237.388 110.783 237.607 110.717 237.828C110.117 239.927 108.966 239.441 105.612 242.868C104.776 243.762 103.711 244.411 102.532 244.745C101.354 245.079 100.106 245.085 98.9239 244.762C98.7394 244.713 98.5781 244.601 98.4682 244.446C98.3583 244.29 98.307 244.1 98.3233 243.911L98.7467 238.353L98.9479 235.679C98.9479 235.679 104.306 237.178 107.032 235.274C107.124 235.212 107.212 235.145 107.297 235.074C107.318 235.055 107.338 235.035 107.357 235.014C107.709 234.723 108.143 234.549 108.599 234.517C109.055 234.485 109.509 234.596 109.898 234.835C110.288 235.073 110.593 235.428 110.77 235.848C110.948 236.268 110.989 236.733 110.888 237.178Z" fill="#67647E"/>
<path opacity="0.1" d="M105.354 238.018L105.57 240.908C102.495 243.974 98.8337 239.409 97.7616 237.91C100.582 239.361 105.354 238.018 105.354 238.018Z" fill="black"/>
<path opacity="0.1" d="M123.43 239.177L123.832 238.91C121.024 243.173 116.853 241.206 115.552 240.442L115.754 237.768C115.754 237.768 121.111 239.267 123.838 237.363C123.625 238.406 123.43 239.177 123.43 239.177Z" fill="black"/>
<path d="M131.983 158.474C129.826 163.849 127.673 181.856 127.403 183.954C127.132 186.053 127.202 194.572 127.202 194.572L126.661 215.522C126.592 218.145 124.64 224.731 124.64 224.731C124.64 224.731 123.967 230.241 124.303 232.054C124.64 233.868 123.43 238.649 123.43 238.649L123.832 238.379C120.465 243.475 115.147 239.656 115.147 239.656C115.147 239.656 113.868 233.475 115.216 231.928C116.564 230.382 114.744 225.612 114.744 225.612C114.744 225.612 115.417 200.816 115.618 199.674C115.82 198.532 114.811 195.037 113.868 192.147C112.925 189.257 114.408 177.833 114.744 175.75C115.081 173.666 114.609 164.191 114.273 162.242C113.937 160.294 114.675 152.161 114.675 152.161C113.33 148.129 112.252 151.76 112.252 151.76L111.174 162.308L110.029 183.948C110.029 183.948 110.165 190.543 109.156 192.417C108.147 194.29 107.27 199.134 107.27 199.134L107.741 223.598C107.741 223.598 107.675 228.694 108.011 230.651C108.348 232.609 107.27 237.642 107.27 237.642C103.501 246.506 97.4463 236.896 97.4463 236.896C97.4463 236.896 97.7166 235.418 98.2541 235.217C98.7917 235.016 98.0529 231.386 97.6535 230.78C97.2541 230.175 97.7196 225.807 97.7196 225.807C97.7196 225.807 97.2481 221.844 96.5183 217.072C95.7885 212.3 95.9807 193.888 96.4522 192.746C96.9237 191.604 97.3262 186.295 97.3262 186.295C97.3262 186.295 96.7886 183.271 97.4613 181.118C98.134 178.966 95.8456 169.898 95.8456 168.888C95.8456 167.878 94.9717 161.631 94.5002 160.959C94.0287 160.288 94.0287 159.077 94.0287 159.077C94.0287 159.077 93.9626 157.734 92.8274 153.702C91.9926 150.758 92.4851 144.955 92.8124 142.032C92.9295 140.95 93.0316 140.261 93.0316 140.261C93.0316 140.261 131.643 134.011 133.184 135.423C133.544 135.755 133.784 136.897 133.926 138.525C134.385 143.849 133.628 154.371 131.983 158.474Z" fill="#444053"/>
<path opacity="0.1" d="M117.369 188.682C117.549 188.682 121.814 189.042 123.375 188.727C124.937 188.412 117.369 188.682 117.369 188.682Z" fill="black"/>
<path opacity="0.1" d="M117.685 191.212C117.685 191.212 123.574 192.243 123.874 191.706C124.174 191.17 117.685 191.212 117.685 191.212Z" fill="black"/>
<path opacity="0.1" d="M99.6868 190.117C99.6868 190.117 102.738 190.252 104.399 191.016C106.059 191.781 99.6868 190.117 99.6868 190.117Z" fill="black"/>
<path d="M88.599 114.777C88.599 114.777 89.0915 124.139 88.8242 125.797C88.8242 125.797 89.8994 133.369 90.7973 135.293C91.6952 137.218 93.6263 139.64 93.6263 139.64L96.2751 121.054L95.6444 114.688L88.599 114.777Z" fill="#EFB7B9"/>
<path d="M116.426 72.1215C122.152 72.1215 126.793 67.4886 126.793 61.7736C126.793 56.0587 122.152 51.4258 116.426 51.4258C110.701 51.4258 106.059 56.0587 106.059 61.7736C106.059 67.4886 110.701 72.1215 116.426 72.1215Z" fill="#EFB7B9"/>
<path d="M111.042 66.6091C111.042 66.6091 107.81 72.9281 104.579 75.8838C101.347 78.8395 123.967 82.1998 124.505 82.1998C125.042 82.1998 120.465 68.7614 121.273 67.1397C122.081 65.518 111.042 66.6091 111.042 66.6091Z" fill="#EFB7B9"/>
<path opacity="0.1" d="M133.932 138.525C133.424 138.912 132.864 139.225 132.268 139.454C128.142 141.067 123.652 143.306 120.601 142.413C117.549 141.52 111.087 142.413 111.087 142.413C111.087 142.413 98.068 141.337 95.4703 141.963C94.2871 142.248 93.3681 142.236 92.7675 142.032C92.8846 140.95 92.9867 140.261 92.9867 140.261C92.9867 140.261 131.643 134.011 133.184 135.423C133.55 135.755 133.785 136.897 133.932 138.525Z" fill="black"/>
<path d="M136.758 132.563C136.758 132.563 136.4 137.044 132.268 138.657C128.136 140.27 123.652 142.509 120.601 141.615C117.55 140.722 111.087 141.615 111.087 141.615C111.087 141.615 98.0681 140.539 95.4703 141.166C92.8726 141.792 91.5182 140.989 92.326 139.823C93.1339 138.657 93.0468 134.805 93.0468 133.192C93.0468 131.579 92.1458 125.039 92.9537 123.872C93.7615 122.706 94.4793 118.228 96.095 117.508C96.3376 117.407 96.5542 117.251 96.7288 117.055C96.9035 116.858 97.0317 116.625 97.104 116.372C97.2376 115.833 97.2303 115.268 97.083 114.733C97.083 114.733 96.8097 114.508 96.4343 114.175C95.4823 113.327 93.8726 111.753 94.3892 111.237C95.1069 110.518 94.3892 105.86 94.3892 105.86C94.3892 105.86 92.6834 102.278 93.3141 100.935C93.9447 99.5916 87.8363 92.5112 87.8363 92.5112C87.8363 92.5112 87.8363 80.3288 95.197 79.7893C95.197 79.7893 100.405 79.9691 101.032 77.6399C101.66 75.3108 105.789 73.9648 105.789 73.9648L115.216 76.0272C115.216 76.0272 123.562 77.8258 125.09 76.7437C126.619 75.6615 127.793 78.1765 127.793 78.1765C127.793 78.1765 132.998 78.4463 133.535 79.5225C134.073 80.5986 131.833 91.0783 131.833 91.0783C131.833 91.0783 128.061 90.7216 128.331 94.7534C128.601 98.7853 126.877 103.893 126.877 103.893C126.877 103.893 126.607 106.849 126.787 107.475C126.955 108.054 126.433 110.308 126.349 110.656V110.701C126.349 110.701 125.973 112.2 126.46 112.733C126.505 112.782 126.558 112.822 126.616 112.853C127.337 113.21 128.418 116.705 128.418 116.705C128.978 117.384 129.266 118.246 129.226 119.124C129.139 120.56 129.676 123.962 132.01 125.935C134.343 127.907 136.758 132.563 136.758 132.563Z" fill="#A36468"/>
<path d="M96.7226 111.793V112.173L96.5604 116.37C96.5604 116.37 91.0376 116.817 88.0315 116.07C85.0253 115.324 86.2897 111.993 86.4098 111.304C86.4109 111.295 86.4109 111.286 86.4098 111.277C86.4969 110.647 87.3107 105.408 87.3107 104.556C87.3107 103.705 87.3107 100.21 87.1756 98.597C87.0404 96.9842 87.8363 92.4908 87.8363 92.4908L88.4189 91.7773L94.7435 94.1964L96.7226 111.793Z" fill="#A36468"/>
<path opacity="0.1" d="M96.7075 112.197L96.5453 116.394C96.5453 116.394 91.0225 116.841 88.0163 116.094C85.0102 115.348 86.2745 112.018 86.3946 111.328L96.7075 112.197Z" fill="black"/>
<path opacity="0.1" d="M97.104 116.364C97.2376 115.825 97.2303 115.26 97.083 114.724C97.083 114.724 96.8097 114.499 96.4343 114.167C101.188 113.504 120.015 110.926 126.355 110.645V110.689C126.355 110.689 125.979 112.188 126.466 112.722L97.104 116.364Z" fill="black"/>
<path opacity="0.1" d="M127.063 119.609C127.063 119.609 128.232 126.204 123.877 128.524C123.874 128.536 126.346 125.266 127.063 119.609Z" fill="black"/>
<path opacity="0.1" d="M98.5635 128.707C98.5635 128.707 109.075 126.908 111.132 128.305C113.189 129.702 98.5635 128.707 98.5635 128.707Z" fill="black"/>
<path opacity="0.1" d="M123.43 87.8906C123.43 87.8906 121.814 94.5214 123.024 96.0442C124.234 97.567 123.43 87.8906 123.43 87.8906Z" fill="black"/>
<path opacity="0.1" d="M92.9987 82.4805C92.9987 82.4805 94.4793 84.9445 93.5813 87.4985C92.6834 90.0525 92.9987 82.4805 92.9987 82.4805Z" fill="black"/>
<path opacity="0.1" d="M89.9385 104.082C89.9385 104.082 91.8245 105.2 91.1968 106.948C90.5691 108.695 89.9385 104.082 89.9385 104.082Z" fill="black"/>
<path opacity="0.1" d="M89.7672 98.9648C89.7672 98.9648 91.5151 99.9061 91.7403 101.294C91.9655 102.682 89.7672 98.9648 89.7672 98.9648Z" fill="black"/>
<path opacity="0.1" d="M115.708 152.533C115.708 152.533 126.706 153.654 128.904 151.055C128.904 151.07 118.985 153.027 115.708 152.533Z" fill="black"/>
<path opacity="0.1" d="M96.7225 151.914C96.7225 151.914 108.528 154.693 110.861 152.496C110.861 152.496 100.717 153.257 96.7225 151.914Z" fill="black"/>
<path opacity="0.1" d="M116.561 156.172C116.561 156.172 121.499 156.172 123.787 156.307C126.075 156.442 116.561 156.172 116.561 156.172Z" fill="black"/>
<path opacity="0.1" d="M97.5304 158.281C97.5304 158.281 99.9539 161.015 102.693 160.523C105.432 160.032 97.5304 158.281 97.5304 158.281Z" fill="black"/>
<path d="M102.29 46.3404C101.531 47.5184 101.504 48.8824 101.305 50.1893C100.843 53.2439 99.3443 56.2026 96.9988 58.6966C94.8455 60.9808 91.8934 63.0522 91.3349 65.843C90.8063 68.4929 92.5992 71.0439 93.5392 73.6368C96.0168 80.4385 92.5571 87.5729 91.5481 94.5933C91.2688 96.5328 91.6051 99.0119 93.9986 99.6564C94.7464 99.8602 95.6023 99.8332 96.275 100.157C97.176 100.589 97.4523 101.485 97.6174 102.291C98.2198 105.176 98.4279 108.128 98.2361 111.068C98.128 112.717 98.0079 114.615 99.5695 115.748C100.278 116.266 101.233 116.53 102.155 116.779C104.615 117.441 107.795 117.978 109.453 116.422C110.15 115.772 110.411 114.854 111.279 114.339C112.579 113.568 114.423 114.09 116.06 114.171C119.42 114.339 122.508 112.372 123.832 110.001C125.156 107.63 125.033 104.905 124.553 102.348C124.072 99.7912 123.213 97.2522 123.153 94.6563C123.132 93.757 123.213 92.8427 123.73 92.0453C124.73 90.5016 127.057 89.8001 128.649 88.5861C131.631 86.3079 131.622 82.5758 130.538 79.4523C129.454 76.3287 127.508 73.3341 127.268 70.1056C127.16 69.3252 127.316 68.5313 127.709 67.8484C128.135 67.1919 128.88 66.7003 129.511 66.1577C133.862 62.4886 133.349 56.4634 129.751 52.3386C125.769 47.7672 107.726 37.92 102.29 46.3404Z" fill="#E3787D"/>
<g opacity="0.1">
<path opacity="0.1" d="M94.0919 76.4873C94.4312 73.7624 94.3682 71.0616 93.4041 68.4086C92.9296 67.1077 92.2419 65.8157 91.7404 64.5117C91.4899 64.9832 91.3079 65.4879 91.1998 66.0105C90.6713 68.6604 92.4642 71.2114 93.4041 73.8044C93.7206 74.6741 93.9509 75.5727 94.0919 76.4873Z" fill="black"/>
<path opacity="0.1" d="M98.101 105.837C98.2924 102.897 98.0853 99.9446 97.4853 97.0599C97.3172 96.2535 97.0409 95.3602 96.1399 94.9286C95.4672 94.6048 94.6113 94.6288 93.8635 94.4279C93.4041 94.318 92.9759 94.1048 92.6115 93.8045C92.2472 93.5042 91.9564 93.1248 91.7613 92.6953C91.6232 93.3788 91.5031 94.0592 91.404 94.7427C91.1247 96.6822 91.461 99.1612 93.8545 99.8057C94.6023 100.007 95.4582 99.9796 96.1309 100.303C97.0319 100.735 97.3082 101.631 97.4763 102.438C97.7518 103.775 97.9444 105.129 98.0529 106.49C98.074 106.269 98.086 106.053 98.101 105.837Z" fill="black"/>
<path opacity="0.1" d="M123.7 104.767C122.373 107.147 119.285 109.104 115.925 108.937C114.288 108.853 112.444 108.337 111.147 109.104C110.279 109.617 110.015 110.537 109.318 111.188C107.66 112.732 104.48 112.207 102.02 111.545C101.098 111.293 100.146 111.032 99.4345 110.513C98.7562 110.015 98.2985 109.274 98.1581 108.445C98.1761 109.365 98.1581 110.289 98.1011 111.209C97.9929 112.857 97.8728 114.755 99.4345 115.891C100.146 116.407 101.098 116.67 102.02 116.919C104.48 117.582 107.66 118.118 109.318 116.563C110.015 115.912 110.279 114.995 111.147 114.464C112.444 113.694 114.288 114.215 115.925 114.296C119.285 114.464 122.373 112.498 123.7 110.127C124.973 107.836 124.916 105.246 124.472 102.773C124.304 103.469 124.045 104.14 123.7 104.767Z" fill="black"/>
<path opacity="0.1" d="M129.388 60.937C128.745 61.4766 128.001 61.9712 127.586 62.6277C127.193 63.3105 127.037 64.1044 127.145 64.8849C127.232 65.8658 127.44 66.8323 127.763 67.7626C128.263 67.2302 128.811 66.7446 129.4 66.3118C132.343 63.8327 133.058 60.2745 132.103 56.9531C131.599 58.5133 130.657 59.8961 129.388 60.937Z" fill="black"/>
<path opacity="0.1" d="M128.514 83.3584C126.925 84.5724 124.595 85.2769 123.598 86.8207C123.078 87.618 122.997 88.5383 123.018 89.4286C123.055 90.477 123.184 91.5201 123.403 92.5462C123.459 92.4249 123.525 92.3077 123.598 92.1954C124.595 90.6516 126.925 89.9502 128.514 88.7361C131.238 86.6558 131.466 83.3644 130.661 80.4297C130.253 81.5972 129.505 82.6168 128.514 83.3584Z" fill="black"/>
</g>
<path d="M144.836 89.7181C144.836 89.7181 152.602 89.3164 153.275 86.0459C153.948 82.7755 151.173 79.4511 150.494 79.1004C149.815 78.7497 142.494 73.1861 142.494 73.1861L130.691 65.662C130.691 65.662 125.036 49.4748 123.784 55.6709C122.532 61.867 127.421 70.0955 127.421 70.0955C127.421 70.0955 134.196 74.4421 134.959 75.7401C135.722 77.0381 140.391 80.4434 140.391 80.4434L144.836 89.7181Z" fill="#EFB7B9"/>
<path d="M149.011 84.4457C147.173 89.1071 144.791 90.9446 144.791 90.9446H143.467L131.823 91.0645L130.481 87.4044L132.367 79.4727L133.532 79.5206C133.532 79.5206 134.926 80.2371 135.776 80.2371C136.626 80.2371 138.292 80.1921 138.779 80.4139C138.847 80.4471 138.923 80.4586 138.998 80.4469C139.439 80.4019 139.899 79.7424 139.899 79.7424C139.899 79.7424 150.851 79.7874 149.011 84.4457Z" fill="#A36468"/>
<path opacity="0.1" d="M149.01 84.4418C147.172 89.1032 144.791 90.9407 144.791 90.9407H143.467C144.157 89.0942 145.614 85.3052 146.169 84.4299C146.713 83.6025 141.836 81.5431 138.983 80.431C139.424 80.386 139.884 79.7266 139.884 79.7266C139.884 79.7266 150.851 79.7835 149.01 84.4418Z" fill="black"/>
<path opacity="0.1" d="M27.2746 231.352C34.6023 231.352 40.5426 230.192 40.5426 228.762C40.5426 227.331 34.6023 226.172 27.2746 226.172C19.947 226.172 14.0067 227.331 14.0067 228.762C14.0067 230.192 19.947 231.352 27.2746 231.352Z" fill="#008FFF"/>
<path opacity="0.1" d="M248.445 213.556C253.782 213.556 258.109 212.712 258.109 211.671C258.109 210.629 253.782 209.785 248.445 209.785C243.108 209.785 238.781 210.629 238.781 211.671C238.781 212.712 243.108 213.556 248.445 213.556Z" fill="#008FFF"/>
<path opacity="0.1" d="M290.336 221.212C295.673 221.212 300 220.368 300 219.327C300 218.286 295.673 217.441 290.336 217.441C284.998 217.441 280.672 218.286 280.672 219.327C280.672 220.368 284.998 221.212 290.336 221.212Z" fill="#008FFF"/>
<path opacity="0.1" d="M225.471 236.955C230.808 236.955 235.135 236.11 235.135 235.069C235.135 234.028 230.808 233.184 225.471 233.184C220.133 233.184 215.807 234.028 215.807 235.069C215.807 236.11 220.133 236.955 225.471 236.955Z" fill="#008FFF"/>
<path d="M39.8128 156.875C39.8128 156.875 41.9871 159.714 38.8098 163.994C35.6324 168.275 33.0167 171.89 34.0798 174.561C34.0798 174.561 38.8698 166.608 42.7709 166.497C46.672 166.386 44.1043 161.659 39.8128 156.875Z" fill="#008FFF"/>
<path opacity="0.1" d="M39.8129 156.875C40.0031 157.152 40.1527 157.455 40.2573 157.774C44.0623 162.238 46.0894 166.401 42.4316 166.506C39.026 166.602 34.9387 172.685 33.9597 174.219C33.9911 174.339 34.0302 174.456 34.0768 174.57C34.0768 174.57 38.8669 166.617 42.768 166.506C46.6691 166.396 44.1044 161.659 39.8129 156.875Z" fill="black"/>
<path d="M43.8521 160.487C43.8521 161.485 43.741 162.285 43.6029 162.285C43.4647 162.285 43.3506 161.476 43.3506 160.487C43.3506 159.497 43.4917 159.959 43.6299 159.959C43.768 159.959 43.8521 159.476 43.8521 160.487Z" fill="#FFD037"/>
<path d="M45.2396 161.665C44.3626 162.141 43.5968 162.432 43.5308 162.309C43.4647 162.186 44.1314 161.71 44.9993 161.224C45.8672 160.738 45.5309 161.095 45.5999 161.224C45.669 161.353 46.1165 161.185 45.2396 161.665Z" fill="#FFD037"/>
<path d="M28.3378 156.875C28.3378 156.875 26.1635 159.714 29.3409 163.994C32.5182 168.275 35.134 171.89 34.0799 174.561C34.0799 174.561 29.2748 166.608 25.3707 166.497C21.4666 166.386 24.0463 161.659 28.3378 156.875Z" fill="#008FFF"/>
<path opacity="0.1" d="M28.3377 156.875C28.1475 157.152 27.9978 157.455 27.8932 157.774C24.0882 162.238 22.0611 166.401 25.7189 166.506C29.1245 166.602 33.2268 172.685 34.1908 174.219C34.1591 174.338 34.121 174.455 34.0767 174.57C34.0767 174.57 29.2717 166.617 25.3676 166.506C21.4635 166.396 24.0462 161.659 28.3377 156.875Z" fill="black"/>
<path d="M24.2986 160.487C24.2986 161.485 24.4097 162.285 24.5478 162.285C24.686 162.285 24.8001 161.476 24.8001 160.487C24.8001 159.497 24.659 159.959 24.5208 159.959C24.3827 159.959 24.2986 159.476 24.2986 160.487Z" fill="#FFD037"/>
<path d="M22.911 161.665C23.791 162.141 24.5538 162.432 24.6228 162.309C24.6919 162.186 24.0222 161.71 23.1513 161.224C22.2804 160.738 22.6197 161.095 22.5507 161.224C22.4816 161.353 22.0341 161.185 22.911 161.665Z" fill="#FFD037"/>
<path opacity="0.1" d="M34.0738 196.238C46.6211 196.238 56.7927 194.68 56.7927 192.758C56.7927 190.836 46.6211 189.277 34.0738 189.277C21.5266 189.277 11.355 190.836 11.355 192.758C11.355 194.68 21.5266 196.238 34.0738 196.238Z" fill="#008FFF"/>
<path d="M45.7681 170.722L45.66 171.622L45.5068 172.872L45.4438 173.393L45.2906 174.646L45.2245 175.168L45.0714 176.418L43.3356 190.639C43.1794 191.91 41.1012 192.899 38.5906 192.899H29.5751C27.0645 192.899 24.9893 191.91 24.8331 190.639L23.0943 176.415L22.9411 175.165L22.8781 174.643L22.7219 173.39L22.6588 172.869L22.5057 171.619L22.3976 170.719C22.3105 170 23.4337 169.395 24.8541 169.395H43.3295C44.732 169.398 45.8582 170.003 45.7681 170.722Z" fill="#65617D"/>
<path d="M45.6569 171.621L45.5068 172.874H22.6408L22.4906 171.621H45.6569Z" fill="#9D9CB5"/>
<path d="M45.4408 173.379L45.2906 174.629H22.8601L22.7069 173.379H45.4408Z" fill="#9D9CB5"/>
<path d="M45.2245 175.176L45.0714 176.426H23.0763L22.9231 175.176H45.2245Z" fill="#9D9CB5"/>
<path opacity="0.1" d="M54.0538 46.7758C59.2784 46.7758 63.5137 42.5482 63.5137 37.3332C63.5137 32.1182 59.2784 27.8906 54.0538 27.8906C48.8292 27.8906 44.5939 32.1182 44.5939 37.3332C44.5939 42.5482 48.8292 46.7758 54.0538 46.7758Z" fill="#008FFF"/>
<path opacity="0.1" d="M34.233 20.6947C37.4672 20.6947 40.0891 18.0776 40.0891 14.8493C40.0891 11.621 37.4672 9.00391 34.233 9.00391C30.9987 9.00391 28.3768 11.621 28.3768 14.8493C28.3768 18.0776 30.9987 20.6947 34.233 20.6947Z" fill="#008FFF"/>
<path opacity="0.1" d="M3.60378 31.4717C5.5941 31.4717 7.20757 29.8612 7.20757 27.8745C7.20757 25.8879 5.5941 24.2773 3.60378 24.2773C1.61347 24.2773 0 25.8879 0 27.8745C0 29.8612 1.61347 31.4717 3.60378 31.4717Z" fill="#008FFF"/>
</g>
<defs>
<linearGradient id="paint0_linear" x1="119.712" y1="247.122" x2="119.712" y2="41.4839" gradientUnits="userSpaceOnUse">
<stop stop-color="#808080" stop-opacity="0.25"/>
<stop offset="0.54" stop-color="#808080" stop-opacity="0.12"/>
<stop offset="1" stop-color="#808080" stop-opacity="0.1"/>
</linearGradient>
<clipPath id="clip0">
<rect width="300" height="250" fill="white"/>
</clipPath>
</defs>
</svg>
