<svg width="24" height="24" viewBox="0 0 24 24" fill="none" xmlns="http://www.w3.org/2000/svg">
<path fill-rule="evenodd" clip-rule="evenodd" d="M15.502 13.717H14.708L14.432 13.4311C15.407 12.2447 16 10.7066 16 9.02137C16 5.27528 13.09 2.23876 9.5 2.23876C5.91 2.23876 3 5.27528 3 9.02137C3 12.7675 5.91 15.804 9.5 15.804C11.115 15.804 12.588 15.1862 13.725 14.1699L14.001 14.4558V15.2822L18.999 20.4902L20.49 18.9344L15.502 13.717ZM9.5 13.717C7.014 13.717 5 11.6154 5 9.02136C5 6.42832 7.014 4.32571 9.5 4.32571C11.985 4.32571 14 6.42832 14 9.02136C14 11.6154 11.985 13.717 9.5 13.717Z" fill="#83959D"/>
</svg>
