<svg width="40" height="43" viewBox="0 0 40 43" fill="none" xmlns="http://www.w3.org/2000/svg">
<g clip-path="url(#clip0)">
<path d="M39.2947 20.7721C39.2546 20.6612 39.1857 20.5629 39.0951 20.4873L35.7084 17.6667L39.0937 14.846C39.3764 14.6101 39.4144 14.1897 39.1785 13.907C39.1029 13.8164 39.0047 13.7475 38.8937 13.7073L24.2271 8.37398C24.0042 8.29257 23.7549 8.33573 23.5724 8.48732L20.6671 10.91H19.3337L16.4271 8.48732C16.2446 8.33573 15.9952 8.29257 15.7724 8.37398L1.10574 13.7073C0.75957 13.8327 0.580654 14.2151 0.706071 14.5612C0.746237 14.6722 0.815154 14.7704 0.905737 14.846L4.2924 17.6667L0.90707 20.4873C0.624404 20.7232 0.586404 21.1436 0.82232 21.4263C0.897904 21.5169 0.996154 21.5858 1.10707 21.626L4.66707 22.9213V37C4.66724 37.2801 4.84249 37.5302 5.10574 37.626L19.7724 42.9593C19.9196 43.0136 20.0812 43.0136 20.2284 42.9593L34.8951 37.626C35.1583 37.5302 35.3336 37.2801 35.3337 37V22.9213L38.8951 21.626C39.2412 21.5006 39.4202 21.1182 39.2947 20.7721ZM24.1337 9.75799L37.3497 14.564L34.5337 16.9087L21.3184 12.1027L24.1337 9.75799ZM2.65174 14.564L15.8671 9.75799L18.6817 12.1027L5.46707 16.9087L2.65174 14.564ZM2.65174 20.7693L5.46707 18.4247L18.6831 23.2307L15.8671 25.5753L2.65174 20.7693ZM19.3337 41.3813L6.0004 36.5333V23.406L15.7724 26.9593C15.8454 26.9862 15.9226 27 16.0004 27C16.1562 27.0001 16.3072 26.9457 16.4271 26.846L19.3337 24.4233V41.3813ZM20.0004 22.2907L7.28374 17.6667L19.3337 13.2847H20.6671L32.7171 17.6667L20.0004 22.2907ZM34.0004 36.5333L20.6671 41.3813V24.4233L23.5737 26.846C23.6936 26.9457 23.8446 27.0001 24.0004 27C24.0782 27 24.1554 26.9862 24.2284 26.9593L34.0004 23.406V36.5333ZM24.1337 25.5753L21.3191 23.2307L34.5337 18.4247L37.3484 20.7693L24.1337 25.5753Z" fill="#484848"/>
<path d="M21.334 39.0001C21.334 39.3683 21.6325 39.6668 22.0007 39.6668C22.658 39.6668 28.2987 37.4668 32.9153 35.6194C33.2574 35.4824 33.4237 35.0942 33.2867 34.7521C33.1497 34.41 32.7614 34.2438 32.4193 34.3808C27.8246 36.2194 22.6193 38.2214 21.962 38.3348C21.6095 38.3553 21.3341 38.647 21.334 39.0001Z" fill="#484848"/>
</g>
<path d="M19.4697 20.5303C19.7626 20.8232 20.2374 20.8232 20.5303 20.5303L25.3033 15.7574C25.5962 15.4645 25.5962 14.9896 25.3033 14.6967C25.0104 14.4038 24.5355 14.4038 24.2426 14.6967L20 18.9393L15.7574 14.6967C15.4645 14.4038 14.9896 14.4038 14.6967 14.6967C14.4038 14.9896 14.4038 15.4645 14.6967 15.7574L19.4697 20.5303ZM19.25 0V20H20.75V0L19.25 0Z" fill="#484848"/>
<defs>
<clipPath id="clip0">
<rect width="40" height="40" fill="white" transform="translate(0 3)"/>
</clipPath>
</defs>
</svg>
