<svg width="40" height="44" viewBox="0 0 40 44" fill="none" xmlns="http://www.w3.org/2000/svg">
<g clip-path="url(#clip0)">
<path d="M39.2947 21.7721C39.2546 21.6612 39.1857 21.5629 39.0951 21.4873L35.7084 18.6667L39.0937 15.846C39.3764 15.6101 39.4144 15.1897 39.1785 14.907C39.1029 14.8164 39.0047 14.7475 38.8937 14.7073L24.2271 9.37398C24.0042 9.29257 23.7549 9.33573 23.5724 9.48732L20.6671 11.91H19.3337L16.4271 9.48732C16.2446 9.33573 15.9952 9.29257 15.7724 9.37398L1.10574 14.7073C0.75957 14.8327 0.580654 15.2151 0.706071 15.5612C0.746237 15.6722 0.815154 15.7704 0.905737 15.846L4.2924 18.6667L0.90707 21.4873C0.624404 21.7232 0.586404 22.1436 0.82232 22.4263C0.897904 22.5169 0.996154 22.5858 1.10707 22.626L4.66707 23.9213V38C4.66724 38.2801 4.84249 38.5302 5.10574 38.626L19.7724 43.9593C19.9196 44.0136 20.0812 44.0136 20.2284 43.9593L34.8951 38.626C35.1583 38.5302 35.3336 38.2801 35.3337 38V23.9213L38.8951 22.626C39.2412 22.5006 39.4202 22.1182 39.2947 21.7721ZM24.1337 10.758L37.3497 15.564L34.5337 17.9087L21.3184 13.1027L24.1337 10.758ZM2.65174 15.564L15.8671 10.758L18.6817 13.1027L5.46707 17.9087L2.65174 15.564ZM2.65174 21.7693L5.46707 19.4247L18.6831 24.2307L15.8671 26.5753L2.65174 21.7693ZM19.3337 42.3813L6.0004 37.5333V24.406L15.7724 27.9593C15.8454 27.9862 15.9226 28 16.0004 28C16.1562 28.0001 16.3072 27.9457 16.4271 27.846L19.3337 25.4233V42.3813ZM20.0004 23.2907L7.28374 18.6667L19.3337 14.2847H20.6671L32.7171 18.6667L20.0004 23.2907ZM34.0004 37.5333L20.6671 42.3813V25.4233L23.5737 27.846C23.6936 27.9457 23.8446 28.0001 24.0004 28C24.0782 28 24.1554 27.9862 24.2284 27.9593L34.0004 24.406V37.5333ZM24.1337 26.5753L21.3191 24.2307L34.5337 19.4247L37.3484 21.7693L24.1337 26.5753Z" fill="#484848"/>
<path d="M21.334 40.0001C21.334 40.3683 21.6325 40.6668 22.0007 40.6668C22.658 40.6668 28.2987 38.4668 32.9153 36.6194C33.2574 36.4824 33.4237 36.0942 33.2867 35.7521C33.1497 35.41 32.7614 35.2438 32.4193 35.3808C27.8246 37.2194 22.6193 39.2214 21.962 39.3348C21.6095 39.3553 21.3341 39.647 21.334 40.0001Z" fill="#484848"/>
</g>
<path d="M20.5303 0.469669C20.2374 0.176777 19.7626 0.176777 19.4697 0.469669L14.6967 5.24264C14.4038 5.53553 14.4038 6.01041 14.6967 6.3033C14.9896 6.59619 15.4645 6.59619 15.7574 6.3033L20 2.06066L24.2426 6.3033C24.5355 6.59619 25.0104 6.59619 25.3033 6.3033C25.5962 6.01041 25.5962 5.53553 25.3033 5.24264L20.5303 0.469669ZM20.75 21V1H19.25V21H20.75Z" fill="#484848"/>
<defs>
<clipPath id="clip0">
<rect width="40" height="40" fill="white" transform="translate(0 4)"/>
</clipPath>
</defs>
</svg>
