<svg width="24" height="24" viewBox="0 0 24 24" fill="none" xmlns="http://www.w3.org/2000/svg">
<path d="M12.0043 22.0003C6.62332 22.0254 2.19446 17.773 2 12.3946V11.8943L7.50239 11.6742V12.1745C7.6085 14.659 9.70828 16.587 12.1924 16.4809C12.9598 16.4481 13.7062 16.2194 14.3604 15.8166L14.7856 15.5565L17.6818 20.2292L17.2566 20.4944C15.6795 21.474 13.8609 21.9955 12.0043 22.0003ZM3.05046 12.8549C3.51197 17.7931 7.88862 21.4221 12.826 20.9605C14.0467 20.8464 15.2311 20.4835 16.3062 19.894L14.4604 16.8923C13.7008 17.2846 12.8593 17.4919 12.0043 17.4976C9.24489 17.4963 6.9132 15.4509 6.55198 12.7148L3.05046 12.8549Z" fill="black"/>
<path d="M2.04002 12.8951L2 12.2597C2 12.1697 2 12.0846 2 11.9946C2.00625 6.46845 6.49039 1.99375 12.0156 2.00001C15.0713 2.00345 17.9578 3.4034 19.8527 5.80093L20.1629 6.19116L15.846 9.59817L15.5359 9.20794C13.9938 7.25723 11.1627 6.92609 9.21226 8.46838C8.13391 9.32107 7.5042 10.6198 7.50239 11.9946C7.49989 12.0245 7.49989 12.0547 7.50239 12.0846V12.675L2.04002 12.8951ZM12.0043 2.98928C7.08583 2.98865 3.07697 6.93579 3.00043 11.8545L6.50195 11.7144C6.65002 8.67869 9.23064 6.33775 12.2659 6.48583C13.6891 6.55525 15.0299 7.17418 16.0061 8.21235L18.7623 6.04107C17.0556 4.09599 14.5918 2.98334 12.0043 2.98928Z" fill="black"/>
<path d="M16.8416 20.7597L13.9453 16.082L14.3705 15.8168C16.4832 14.5058 17.1332 11.7299 15.8223 9.61687C15.7345 9.47535 15.6389 9.33883 15.536 9.20794L15.2259 8.81271L19.5427 5.4057L19.8529 5.80093C23.2732 10.1409 22.5284 16.4323 18.189 19.8532C17.894 20.0859 17.5861 20.3016 17.2668 20.4996L16.8416 20.7597ZM15.3109 16.3872L17.1567 19.3889C21.231 16.5376 22.2229 10.9227 19.372 6.84774C19.3705 6.84567 19.3691 6.84361 19.3677 6.84155L16.6115 8.99281C18.1873 11.4166 17.6192 14.6467 15.3109 16.3872Z" fill="black"/>
</svg>
