<svg width="46" height="46" viewBox="0 0 46 46" fill="none" xmlns="http://www.w3.org/2000/svg">
<g clip-path="url(#clip0)">
<path d="M20.6229 40.8175C20.6229 38.597 18.8229 36.7971 16.6029 36.7971C14.3824 36.7971 12.5825 38.597 12.5825 40.8171C12.5825 43.0375 14.3824 44.8374 16.6029 44.8374C18.8218 44.8351 20.6205 43.0367 20.6229 40.8175ZM14.0084 40.8175C14.0084 39.3844 15.1698 38.223 16.6029 38.223C18.0356 38.223 19.1969 39.3844 19.1969 40.8171C19.1969 42.2502 18.0356 43.4115 16.6029 43.4115C15.1706 43.4099 14.01 42.2494 14.0084 40.8175Z" fill="black"/>
<path d="M31.4892 44.8374C33.7097 44.8378 35.5096 43.0379 35.5096 40.8175C35.51 38.597 33.7101 36.7971 31.4896 36.7971C29.2692 36.7971 27.4692 38.597 27.4692 40.8175C27.472 43.0363 29.2699 44.8347 31.4892 44.8374ZM31.4892 38.223C32.9219 38.223 34.0836 39.3844 34.0836 40.8171C34.084 42.2498 32.9223 43.4115 31.4896 43.4115C30.0569 43.4115 28.8952 42.2502 28.8952 40.8175C28.8968 39.3856 30.0573 38.225 31.4892 38.223Z" fill="black"/>
<path d="M0.712959 6.38127H5.06193C6.49302 6.3757 7.71325 7.41769 7.93127 8.83247L11.3739 30.5789C11.699 32.6875 13.518 34.2412 15.6517 34.2328H36.9314C37.3249 34.2328 37.6444 33.9133 37.6444 33.5199C37.6444 33.126 37.3249 32.8069 36.9314 32.8069H15.6517C14.2206 32.8125 13.0004 31.7701 12.7823 30.3557L12.1971 26.6584H33.9913C35.8365 26.6576 37.4789 25.4887 38.0836 23.7457L42.1271 12.0758C42.203 11.8578 42.1684 11.6167 42.0348 11.4285C41.9007 11.2407 41.6842 11.1289 41.4535 11.1289H9.73834L9.33969 8.60927C9.01464 6.50063 7.19564 4.947 5.06193 4.95536H0.712959C0.319081 4.95536 0 5.27483 0 5.66831C0 6.06219 0.319081 6.38127 0.712959 6.38127ZM40.4517 12.5552L36.7365 23.2786C36.3307 24.4479 35.229 25.2321 33.9913 25.2325H11.9711L9.96392 12.5548L40.4517 12.5552Z" fill="black"/>
</g>
<defs>
<clipPath id="clip0">
<rect y="3.83325" width="42.1667" height="42.1667" fill="white"/>
</clipPath>
</defs>
</svg>
