<svg width="120" height="60" viewBox="0 0 120 60" fill="none" xmlns="http://www.w3.org/2000/svg">
<rect x="1" y="1" width="118" height="58" rx="4" fill="#F5F7F7" stroke="#008FFF" stroke-width="2"/>
<line x1="58" y1="14" x2="83" y2="14" stroke="black" stroke-width="2"/>
<line x1="86" y1="14" x2="91" y2="14" stroke="black" stroke-width="2"/>
<line x1="58" y1="24" x2="99" y2="24" stroke="black" stroke-width="2"/>
<line x1="58" y1="34" x2="99" y2="34" stroke="black" stroke-width="2"/>
<line x1="58" y1="44" x2="99" y2="44" stroke="black" stroke-width="2" stroke-dasharray="3 3"/>
<g clip-path="url(#clip0)">
<path d="M30.0037 16.3434L22.2627 13.1368C22.0044 13.0299 21.714 13.0299 21.4556 13.1368C21.1972 13.2439 20.9918 13.4492 20.8848 13.7076L17.7394 21.3013L12.2429 27.9285C12.021 28.196 11.9452 28.5556 12.0401 28.8899L15.0239 39.3986C15.1119 39.7087 15.337 39.9616 15.6348 40.085C15.7644 40.1387 15.9016 40.1653 16.0384 40.1653C16.216 40.1653 16.3931 40.1204 16.5522 40.0317L26.0927 34.7109C26.3962 34.5417 26.5969 34.2338 26.6292 33.8878L27.429 25.3148L30.5745 17.7214C30.7974 17.1833 30.5418 16.5663 30.0037 16.3434ZM24.5804 33.139L18.1735 36.7121L20.9036 30.121C21.1265 29.5829 20.871 28.9658 20.3328 28.7429C19.7947 28.52 19.1776 28.7755 18.9548 29.3137L16.2246 35.9049L14.2209 28.8478L18.968 23.1242L22.1196 24.4296L25.2712 25.735L24.5804 33.139ZM25.8228 23.6803L21.7007 21.973L20.0307 21.2813L22.4299 15.4893L28.2219 17.8885L25.8228 23.6803Z" fill="#008FFF"/>
<path d="M46.9453 31.2773H35.6485C33.1982 31.2773 31.2047 33.2708 31.2047 35.7212C31.2047 38.1714 33.1982 40.1648 35.6485 40.1648C36.9356 40.1648 37.9828 41.212 37.9828 42.4992C37.9828 43.7864 36.9356 44.8336 35.6485 44.8336H13.0547C12.4722 44.8336 12 45.3058 12 45.8883C12 46.4708 12.4722 46.943 13.0547 46.943H35.6485C38.0987 46.943 40.0922 44.9495 40.0922 42.4992C40.0922 40.0489 38.0987 38.0555 35.6485 38.0555C34.3613 38.0555 33.314 37.0082 33.314 35.7212C33.314 34.4339 34.3613 33.3867 35.6485 33.3867H46.9453C47.5278 33.3867 48 32.9145 48 32.332C48 31.7496 47.5278 31.2773 46.9453 31.2773Z" fill="#008FFF"/>
</g>
<defs>
<clipPath id="clip0">
<rect x="12" y="12" width="36" height="36" fill="white"/>
</clipPath>
</defs>
</svg>
