<svg width="18" height="18" viewBox="0 0 18 18" fill="none" xmlns="http://www.w3.org/2000/svg">
<path d="M9.00008 0.666016C4.40008 0.666016 0.666748 4.39935 0.666748 8.99935C0.666748 13.5993 4.40008 17.3327 9.00008 17.3327C13.6001 17.3327 17.3334 13.5993 17.3334 8.99935C17.3334 4.39935 13.6001 0.666016 9.00008 0.666016ZM9.00008 15.666C5.32508 15.666 2.33341 12.6743 2.33341 8.99935C2.33341 5.32435 5.32508 2.33268 9.00008 2.33268C12.6751 2.33268 15.6667 5.32435 15.6667 8.99935C15.6667 12.6743 12.6751 15.666 9.00008 15.666ZM4.41675 13.5827L10.6751 10.6743L13.5834 4.41602L7.32508 7.32435L4.41675 13.5827ZM9.00008 8.08268C9.50842 8.08268 9.91675 8.49102 9.91675 8.99935C9.91675 9.50768 9.50842 9.91602 9.00008 9.91602C8.49175 9.91602 8.08341 9.50768 8.08341 8.99935C8.08341 8.49102 8.49175 8.08268 9.00008 8.08268Z" fill="#757575"/>
</svg>
