<svg width="46" height="46" viewBox="0 0 46 46" fill="none" xmlns="http://www.w3.org/2000/svg">
<path d="M34.4688 13.1075H31.9359V12.2191C31.9361 11.6531 31.7117 11.1101 31.3121 10.7093C30.9125 10.3084 30.3702 10.0824 29.8041 10.0809H26.8664V9.77492C26.8665 9.2089 26.6422 8.66591 26.2426 8.26506C25.8429 7.86422 25.3006 7.63825 24.7346 7.63672H3.83486C3.26884 7.63825 2.72653 7.86422 2.3269 8.26506C1.92726 8.66591 1.70294 9.2089 1.70313 9.77492V30.7543C1.70294 31.3204 1.92726 31.8634 2.3269 32.2642C2.72653 32.6651 3.26884 32.891 3.83486 32.8925H6.77266V33.1985C6.77245 33.7645 6.99676 34.3075 7.39638 34.7084C7.796 35.1092 8.3383 35.3352 8.90432 35.3368H11.1336V36.5352C11.1342 37.0198 11.327 37.4845 11.6697 37.8272C12.0124 38.1699 12.4771 38.3627 12.9618 38.3633H34.4688C34.9534 38.3627 35.4181 38.1699 35.7608 37.8272C36.1035 37.4845 36.2963 37.0198 36.2969 36.5352V14.9356C36.2963 14.4509 36.1036 13.9862 35.7608 13.6435C35.4181 13.3008 34.9534 13.108 34.4688 13.1075ZM3.83486 32.0488C3.49252 32.0476 3.16465 31.9106 2.92319 31.6679C2.68172 31.4252 2.54639 31.0967 2.54688 30.7543V9.77492C2.54641 9.43259 2.68175 9.10405 2.92321 8.86137C3.16467 8.6187 3.49253 8.48172 3.83486 8.48047H24.7346C25.0769 8.48172 25.4048 8.6187 25.6463 8.86137C25.8877 9.10405 26.0231 9.43259 26.0226 9.77492V10.0809H8.90432C8.33831 10.0825 7.79602 10.3084 7.3964 10.7093C6.99678 11.1101 6.77247 11.6531 6.77266 12.2191V32.0488H3.83486ZM11.1336 14.9356V34.493H8.90432C8.56199 34.4917 8.23414 34.3547 7.99269 34.112C7.75124 33.8694 7.61592 33.5408 7.61641 33.1985V12.2191C7.61594 11.8768 7.75127 11.5483 7.99272 11.3056C8.23416 11.0629 8.562 10.9259 8.90432 10.9247H29.8041C30.1465 10.9259 30.4743 11.0629 30.7158 11.3056C30.9573 11.5482 31.0926 11.8768 31.0921 12.2191V13.1075H12.9618C12.4771 13.108 12.0124 13.3008 11.6697 13.6435C11.327 13.9862 11.1342 14.4509 11.1336 14.9356ZM35.4531 36.5352C35.4528 36.7961 35.349 37.0464 35.1645 37.2309C34.98 37.4155 34.7297 37.5193 34.4688 37.5195H12.9618C12.7008 37.5193 12.4506 37.4155 12.266 37.2309C12.0815 37.0464 11.9777 36.7961 11.9774 36.5352V14.9356C11.9777 14.6746 12.0815 14.4244 12.266 14.2398C12.4506 14.0553 12.7008 13.9515 12.9618 13.9512H34.4688C34.7297 13.9515 34.98 14.0553 35.1645 14.2398C35.349 14.4244 35.4528 14.6746 35.4531 14.9356V36.5352Z" fill="#008FFF"/>
<path d="M28.3517 19.5984C28.3517 19.2678 28.0923 19 27.772 19H19.5797C19.2594 19 19 19.2678 19 19.5984C19 19.929 19.2594 20.1968 19.5797 20.1968H21.9238C23.321 20.1985 24.5238 21.215 24.8013 22.6285H19.5797C19.2594 22.6285 19 22.8964 19 23.2269C19 23.5572 19.2594 23.8254 19.5797 23.8254H24.8013C24.5238 25.2386 23.321 26.2547 21.9238 26.2567H19.5797C19.3423 26.2567 19.1291 26.4063 19.0411 26.6337C18.9534 26.8615 19.0091 27.1213 19.1815 27.2899L25.0407 33.0052C25.1911 33.1528 25.4066 33.2063 25.6055 33.1451C25.8042 33.084 25.9565 32.9177 26.0044 32.7094C26.052 32.501 25.9882 32.2819 25.8372 32.1353L21.0371 27.4532H21.9238C23.9602 27.4506 25.6861 25.9054 25.9769 23.825H27.772C28.0923 23.825 28.3517 23.5569 28.3517 23.2266C28.3517 22.896 28.0923 22.6282 27.772 22.6282H25.9769C25.8482 21.7025 25.4254 20.847 24.7748 20.1965H27.772C28.0923 20.1965 28.3517 19.9287 28.3517 19.5984Z" fill="#008FFF"/>
</svg>
