<svg width="470" height="141" viewBox="0 0 470 141" fill="none" xmlns="http://www.w3.org/2000/svg">
<line y1="120.5" x2="470" y2="120.5" stroke="black"/>
<rect x="415" y="30" width="20" height="90" fill="#5DC644"/>
<rect x="439" y="28" width="20" height="92" fill="#FF7272"/>
<path d="M427.896 126.469L430.686 133.43L433.475 126.469H434.934V135H433.809V131.678L433.914 128.092L431.113 135H430.252L427.457 128.109L427.568 131.678V135H426.443V126.469H427.896ZM440.914 135C440.852 134.875 440.801 134.652 440.762 134.332C440.258 134.855 439.656 135.117 438.957 135.117C438.332 135.117 437.818 134.941 437.416 134.59C437.018 134.234 436.818 133.785 436.818 133.242C436.818 132.582 437.068 132.07 437.568 131.707C438.072 131.34 438.779 131.156 439.689 131.156H440.744V130.658C440.744 130.279 440.631 129.979 440.404 129.756C440.178 129.529 439.844 129.416 439.402 129.416C439.016 129.416 438.691 129.514 438.43 129.709C438.168 129.904 438.037 130.141 438.037 130.418H436.947C436.947 130.102 437.059 129.797 437.281 129.504C437.508 129.207 437.812 128.973 438.195 128.801C438.582 128.629 439.006 128.543 439.467 128.543C440.197 128.543 440.77 128.727 441.184 129.094C441.598 129.457 441.812 129.959 441.828 130.6V133.518C441.828 134.1 441.902 134.562 442.051 134.906V135H440.914ZM439.115 134.174C439.455 134.174 439.777 134.086 440.082 133.91C440.387 133.734 440.607 133.506 440.744 133.225V131.924H439.895C438.566 131.924 437.902 132.312 437.902 133.09C437.902 133.43 438.016 133.695 438.242 133.887C438.469 134.078 438.76 134.174 439.115 134.174ZM445.758 133.412L447.234 128.66H448.395L445.846 135.979C445.451 137.033 444.824 137.561 443.965 137.561L443.76 137.543L443.355 137.467V136.588L443.648 136.611C444.016 136.611 444.301 136.537 444.504 136.389C444.711 136.24 444.881 135.969 445.014 135.574L445.254 134.93L442.992 128.66H444.176L445.758 133.412Z" fill="black"/>
<line x1="358.699" y1="133.531" x2="436.699" y2="117.531" stroke="#83959D" stroke-width="3" stroke-dasharray="4 4"/>
<rect x="334" y="35" width="20" height="85" fill="#5DC644"/>
<rect x="357" y="18" width="20" height="102" fill="#FF7272"/>
<path d="M352.135 132.773H348.561L347.758 135H346.598L349.855 126.469H350.84L354.104 135H352.949L352.135 132.773ZM348.9 131.848H351.801L350.348 127.857L348.9 131.848ZM360.688 131.9C360.688 132.865 360.467 133.643 360.025 134.232C359.584 134.822 358.986 135.117 358.232 135.117C357.463 135.117 356.857 134.873 356.416 134.385V137.438H355.332V128.66H356.322L356.375 129.363C356.816 128.816 357.43 128.543 358.215 128.543C358.977 128.543 359.578 128.83 360.02 129.404C360.465 129.979 360.688 130.777 360.688 131.801V131.9ZM359.604 131.777C359.604 131.062 359.451 130.498 359.146 130.084C358.842 129.67 358.424 129.463 357.893 129.463C357.236 129.463 356.744 129.754 356.416 130.336V133.365C356.74 133.943 357.236 134.232 357.904 134.232C358.424 134.232 358.836 134.027 359.141 133.617C359.449 133.203 359.604 132.59 359.604 131.777ZM365.385 129.633C365.221 129.605 365.043 129.592 364.852 129.592C364.141 129.592 363.658 129.895 363.404 130.5V135H362.32V128.66H363.375L363.393 129.393C363.748 128.826 364.252 128.543 364.904 128.543C365.115 128.543 365.275 128.57 365.385 128.625V129.633Z" fill="black"/>
<line x1="275.19" y1="22.0865" x2="361.19" y2="134.086" stroke="#83959D" stroke-width="3" stroke-dasharray="4 4"/>
<rect x="252" width="20" height="120" fill="#5DC644"/>
<rect x="276" y="88" width="20" height="32" fill="#FF7272"/>
<path d="M266.658 126.469L269.447 133.43L272.236 126.469H273.695V135H272.57V131.678L272.676 128.092L269.875 135H269.014L266.219 128.109L266.33 131.678V135H265.205V126.469H266.658ZM279.676 135C279.613 134.875 279.562 134.652 279.523 134.332C279.02 134.855 278.418 135.117 277.719 135.117C277.094 135.117 276.58 134.941 276.178 134.59C275.779 134.234 275.58 133.785 275.58 133.242C275.58 132.582 275.83 132.07 276.33 131.707C276.834 131.34 277.541 131.156 278.451 131.156H279.506V130.658C279.506 130.279 279.393 129.979 279.166 129.756C278.939 129.529 278.605 129.416 278.164 129.416C277.777 129.416 277.453 129.514 277.191 129.709C276.93 129.904 276.799 130.141 276.799 130.418H275.709C275.709 130.102 275.82 129.797 276.043 129.504C276.27 129.207 276.574 128.973 276.957 128.801C277.344 128.629 277.768 128.543 278.229 128.543C278.959 128.543 279.531 128.727 279.945 129.094C280.359 129.457 280.574 129.959 280.59 130.6V133.518C280.59 134.1 280.664 134.562 280.812 134.906V135H279.676ZM277.877 134.174C278.217 134.174 278.539 134.086 278.844 133.91C279.148 133.734 279.369 133.506 279.506 133.225V131.924H278.656C277.328 131.924 276.664 132.312 276.664 133.09C276.664 133.43 276.777 133.695 277.004 133.887C277.23 134.078 277.521 134.174 277.877 134.174ZM285.604 129.633C285.439 129.605 285.262 129.592 285.07 129.592C284.359 129.592 283.877 129.895 283.623 130.5V135H282.539V128.66H283.594L283.611 129.393C283.967 128.826 284.471 128.543 285.123 128.543C285.334 128.543 285.494 128.57 285.604 128.625V129.633Z" fill="black"/>
<line x1="191.699" y1="38.5305" x2="274.699" y2="21.5305" stroke="#83959D" stroke-width="3" stroke-dasharray="4 4"/>
<rect x="170" y="20" width="20" height="100" fill="#5DC644"/>
<rect x="194" y="108" width="20" height="12" fill="#FF7272"/>
<path d="M190.143 131.232H186.562V135H185.438V126.469H190.723V127.395H186.562V130.312H190.143V131.232ZM194.652 135.117C193.793 135.117 193.094 134.836 192.555 134.273C192.016 133.707 191.746 132.951 191.746 132.006V131.807C191.746 131.178 191.865 130.617 192.104 130.125C192.346 129.629 192.682 129.242 193.111 128.965C193.545 128.684 194.014 128.543 194.518 128.543C195.342 128.543 195.982 128.814 196.439 129.357C196.896 129.9 197.125 130.678 197.125 131.689V132.141H192.83C192.846 132.766 193.027 133.271 193.375 133.658C193.727 134.041 194.172 134.232 194.711 134.232C195.094 134.232 195.418 134.154 195.684 133.998C195.949 133.842 196.182 133.635 196.381 133.377L197.043 133.893C196.512 134.709 195.715 135.117 194.652 135.117ZM194.518 129.434C194.08 129.434 193.713 129.594 193.416 129.914C193.119 130.23 192.936 130.676 192.865 131.25H196.041V131.168C196.01 130.617 195.861 130.191 195.596 129.891C195.33 129.586 194.971 129.434 194.518 129.434ZM204.002 131.9C204.002 132.869 203.779 133.648 203.334 134.238C202.889 134.824 202.291 135.117 201.541 135.117C200.74 135.117 200.121 134.834 199.684 134.268L199.631 135H198.635V126H199.719V129.357C200.156 128.814 200.76 128.543 201.529 128.543C202.299 128.543 202.902 128.834 203.34 129.416C203.781 129.998 204.002 130.795 204.002 131.807V131.9ZM202.918 131.777C202.918 131.039 202.775 130.469 202.49 130.066C202.205 129.664 201.795 129.463 201.26 129.463C200.545 129.463 200.031 129.795 199.719 130.459V133.201C200.051 133.865 200.568 134.197 201.271 134.197C201.791 134.197 202.195 133.996 202.484 133.594C202.773 133.191 202.918 132.586 202.918 131.777Z" fill="black"/>
<line x1="111.982" y1="39.5001" x2="192.983" y2="38.5472" stroke="#83959D" stroke-width="3" stroke-dasharray="4 4"/>
<rect x="89" y="20" width="20" height="100" fill="#5DC644"/>
<rect x="116" y="108" width="20" height="12" fill="#FF7272"/>
<path d="M107.93 126.469H109.061V132.51C109.061 133.326 108.814 133.965 108.322 134.426C107.834 134.887 107.182 135.117 106.365 135.117C105.518 135.117 104.857 134.9 104.385 134.467C103.912 134.033 103.676 133.426 103.676 132.645H104.801C104.801 133.133 104.934 133.514 105.199 133.787C105.469 134.061 105.857 134.197 106.365 134.197C106.83 134.197 107.205 134.051 107.49 133.758C107.779 133.465 107.926 133.055 107.93 132.527V126.469ZM114.971 135C114.908 134.875 114.857 134.652 114.818 134.332C114.314 134.855 113.713 135.117 113.014 135.117C112.389 135.117 111.875 134.941 111.473 134.59C111.074 134.234 110.875 133.785 110.875 133.242C110.875 132.582 111.125 132.07 111.625 131.707C112.129 131.34 112.836 131.156 113.746 131.156H114.801V130.658C114.801 130.279 114.688 129.979 114.461 129.756C114.234 129.529 113.9 129.416 113.459 129.416C113.072 129.416 112.748 129.514 112.486 129.709C112.225 129.904 112.094 130.141 112.094 130.418H111.004C111.004 130.102 111.115 129.797 111.338 129.504C111.564 129.207 111.869 128.973 112.252 128.801C112.639 128.629 113.062 128.543 113.523 128.543C114.254 128.543 114.826 128.727 115.24 129.094C115.654 129.457 115.869 129.959 115.885 130.6V133.518C115.885 134.1 115.959 134.562 116.107 134.906V135H114.971ZM113.172 134.174C113.512 134.174 113.834 134.086 114.139 133.91C114.443 133.734 114.664 133.506 114.801 133.225V131.924H113.951C112.623 131.924 111.959 132.312 111.959 133.09C111.959 133.43 112.072 133.695 112.299 133.887C112.525 134.078 112.816 134.174 113.172 134.174ZM118.859 128.66L118.895 129.457C119.379 128.848 120.012 128.543 120.793 128.543C122.133 128.543 122.809 129.299 122.82 130.811V135H121.736V130.805C121.732 130.348 121.627 130.01 121.42 129.791C121.217 129.572 120.898 129.463 120.465 129.463C120.113 129.463 119.805 129.557 119.539 129.744C119.273 129.932 119.066 130.178 118.918 130.482V135H117.834V128.66H118.859Z" fill="black"/>
<line x1="30.7802" y1="51.5162" x2="111.78" y2="39.5162" stroke="#83959D" stroke-width="3" stroke-dasharray="4 4"/>
<rect x="7" y="30" width="20" height="90" fill="#5DC644"/>
<rect x="31" y="98" width="20" height="22" fill="#FF7272"/>
<path d="M22.4805 135V126.469H24.8887C25.6309 126.469 26.2871 126.633 26.8574 126.961C27.4277 127.289 27.8672 127.756 28.1758 128.361C28.4883 128.967 28.6465 129.662 28.6504 130.447V130.992C28.6504 131.797 28.4941 132.502 28.1816 133.107C27.873 133.713 27.4297 134.178 26.8516 134.502C26.2773 134.826 25.6074 134.992 24.8418 135H22.4805ZM23.6055 127.395V134.08H24.7891C25.6562 134.08 26.3301 133.811 26.8105 133.271C27.2949 132.732 27.5371 131.965 27.5371 130.969V130.471C27.5371 129.502 27.3086 128.75 26.8516 128.215C26.3984 127.676 25.7539 127.402 24.918 127.395H23.6055ZM33.0664 135.117C32.207 135.117 31.5078 134.836 30.9688 134.273C30.4297 133.707 30.1602 132.951 30.1602 132.006V131.807C30.1602 131.178 30.2793 130.617 30.5176 130.125C30.7598 129.629 31.0957 129.242 31.5254 128.965C31.959 128.684 32.4277 128.543 32.9316 128.543C33.7559 128.543 34.3965 128.814 34.8535 129.357C35.3105 129.9 35.5391 130.678 35.5391 131.689V132.141H31.2441C31.2598 132.766 31.4414 133.271 31.7891 133.658C32.1406 134.041 32.5859 134.232 33.125 134.232C33.5078 134.232 33.832 134.154 34.0977 133.998C34.3633 133.842 34.5957 133.635 34.7949 133.377L35.457 133.893C34.9258 134.709 34.1289 135.117 33.0664 135.117ZM32.9316 129.434C32.4941 129.434 32.127 129.594 31.8301 129.914C31.5332 130.23 31.3496 130.676 31.2793 131.25H34.4551V131.168C34.4238 130.617 34.2754 130.191 34.0098 129.891C33.7441 129.586 33.3848 129.434 32.9316 129.434ZM39.5918 134.232C39.9785 134.232 40.3164 134.115 40.6055 133.881C40.8945 133.646 41.0547 133.354 41.0859 133.002H42.1113C42.0918 133.365 41.9668 133.711 41.7363 134.039C41.5059 134.367 41.1973 134.629 40.8105 134.824C40.4277 135.02 40.0215 135.117 39.5918 135.117C38.7285 135.117 38.041 134.83 37.5293 134.256C37.0215 133.678 36.7676 132.889 36.7676 131.889V131.707C36.7676 131.09 36.8809 130.541 37.1074 130.061C37.334 129.58 37.6582 129.207 38.0801 128.941C38.5059 128.676 39.0078 128.543 39.5859 128.543C40.2969 128.543 40.8867 128.756 41.3555 129.182C41.8281 129.607 42.0801 130.16 42.1113 130.84H41.0859C41.0547 130.43 40.8984 130.094 40.6172 129.832C40.3398 129.566 39.9961 129.434 39.5859 129.434C39.0352 129.434 38.6074 129.633 38.3027 130.031C38.002 130.426 37.8516 130.998 37.8516 131.748V131.953C37.8516 132.684 38.002 133.246 38.3027 133.641C38.6035 134.035 39.0332 134.232 39.5918 134.232Z" fill="black"/>
</svg>
