<svg width="60" height="84" viewBox="0 0 60 84" fill="none" xmlns="http://www.w3.org/2000/svg">
<path d="M36.2967 63.2178H24.1404V76.8331H36.2967V63.2178Z" fill="#FDCC9B"/>
<path d="M24.1406 64.8215C24.1406 64.8215 29.2538 68.0778 36.2965 67.3239V63.2178H24.1406V64.8215Z" fill="#FCBC85"/>
<path d="M6.61149 48.8718C9.88739 48.8718 12.543 45.842 12.543 42.1045C12.543 38.367 9.88739 35.3372 6.61149 35.3372C3.33558 35.3372 0.679932 38.367 0.679932 42.1045C0.679932 45.842 3.33558 48.8718 6.61149 48.8718Z" fill="#FCBC85"/>
<path d="M53.8258 48.8718C57.1018 48.8718 59.7574 45.842 59.7574 42.1045C59.7574 38.367 57.1018 35.3372 53.8258 35.3372C50.5499 35.3372 47.8943 38.367 47.8943 42.1045C47.8943 45.842 50.5499 48.8718 53.8258 48.8718Z" fill="#FCBC85"/>
<path d="M53.8019 29.1788C53.8019 19.211 46.5081 11.9172 30.2191 11.9172C13.9294 11.9172 6.63601 19.211 6.63601 29.1788C6.63601 39.1471 4.93425 65.4046 30.2191 65.4046C55.5036 65.4046 53.8019 39.1471 53.8019 29.1788Z" fill="#FDCC9B"/>
<path d="M18.732 43.283C20.1419 43.283 21.2849 42.0311 21.2849 40.4869C21.2849 38.9427 20.1419 37.6909 18.732 37.6909C17.3221 37.6909 16.1792 38.9427 16.1792 40.4869C16.1792 42.0311 17.3221 43.283 18.732 43.283Z" fill="#3B2519"/>
<path d="M17.6189 40.0146C18.0405 40.0146 18.3823 39.6728 18.3823 39.2512C18.3823 38.8296 18.0405 38.4878 17.6189 38.4878C17.1973 38.4878 16.8555 38.8296 16.8555 39.2512C16.8555 39.6728 17.1973 40.0146 17.6189 40.0146Z" fill="white"/>
<path d="M14.6481 33.5556C15.8552 34.1594 17.7936 31.5044 22.2305 33.8141C23.0394 34.2351 23.5221 30.2129 18.7662 30.2129C14.6481 30.2129 13.919 33.1913 14.6481 33.5556Z" fill="#4C2D19"/>
<path d="M42.0211 43.283C43.431 43.283 44.5739 42.0311 44.5739 40.4869C44.5739 38.9427 43.431 37.6909 42.0211 37.6909C40.6112 37.6909 39.4683 38.9427 39.4683 40.4869C39.4683 42.0311 40.6112 43.283 42.0211 43.283Z" fill="#3B2519"/>
<path d="M40.9077 40.0146C41.3293 40.0146 41.6711 39.6728 41.6711 39.2512C41.6711 38.8296 41.3293 38.4878 40.9077 38.4878C40.4861 38.4878 40.1443 38.8296 40.1443 39.2512C40.1443 39.6728 40.4861 40.0146 40.9077 40.0146Z" fill="white"/>
<path d="M45.789 33.5561C44.5818 34.1599 42.6431 31.5049 38.2065 33.8146C37.3976 34.2356 36.915 30.2134 41.6708 30.2134C45.7889 30.2134 46.5185 33.1918 45.789 33.5561Z" fill="#4C2D19"/>
<path d="M30.219 50.3173C27.6964 50.3173 26.177 48.4327 26.177 49.3446C26.177 50.2561 26.9065 51.9889 30.219 51.9889C33.5316 51.9889 34.2607 50.2565 34.2607 49.3446C34.2607 48.4327 32.7409 50.3173 30.219 50.3173Z" fill="#FCBC85"/>
<path d="M30.2188 58.703C29.3462 58.703 28.8206 58.0512 28.8206 58.3668C28.8206 58.6823 29.0724 59.2815 30.2188 59.2815C31.3643 59.2815 31.6166 58.6823 31.6166 58.3668C31.6166 58.0512 31.091 58.703 30.2188 58.703Z" fill="#FCBC85"/>
<path d="M30.2189 56.3766C26.2203 56.3766 23.8118 54.748 23.8118 55.1611C23.8118 55.5734 24.9681 57.1975 30.2189 57.1975C35.4693 57.1975 36.6256 55.5734 36.6256 55.1611C36.6256 54.7484 34.2171 56.3766 30.2189 56.3766Z" fill="#F7945E"/>
<path d="M30.219 68.6836V84.0007H0.679932C0.679932 77.8011 16.2389 68.6836 30.219 68.6836Z" fill="#F6A4B7"/>
<path d="M30.219 68.6836V84.0007H59.7577C59.7573 77.8011 44.1982 68.6836 30.219 68.6836Z" fill="#F6A4B7"/>
<path d="M24.1404 69.2141C24.1404 69.2141 25.9182 71.4192 30.2183 71.4192C34.5184 71.4192 36.2963 69.2141 36.2963 69.2141C36.2963 69.2141 29.9909 66.9185 24.1404 69.2141Z" fill="#FDCC9B"/>
<path d="M21.6488 83.9999L20.3916 70.0198C20.3916 70.0198 17.7217 69.6513 14.513 71.9825L11.8477 83.9999H21.6488Z" fill="#665853"/>
<path d="M30.2187 71.4187V84.0006H26.0249L26.8454 78.2113L24.4294 75.658L30.2187 71.4187Z" fill="#665853"/>
<path d="M38.7883 83.9999L40.0455 70.0198C40.0455 70.0198 42.7154 69.6513 45.9241 71.9825L48.5891 83.9999H38.7883Z" fill="#665853"/>
<path d="M30.219 71.4187V84.0006H34.4124L33.5919 78.2113L36.0083 75.658L30.219 71.4187Z" fill="#665853"/>
<path d="M36.2967 67.7089L30.2188 71.4168L36.6259 77.7991L41.3858 70.3916C41.3858 70.3912 38.2722 67.3276 36.2967 67.7089Z" fill="#F2788F"/>
<path d="M24.1403 67.7089L30.2182 71.4168L23.8115 77.7991L19.0515 70.3916C19.0519 70.3912 22.1651 67.3276 24.1403 67.7089Z" fill="#F2788F"/>
<path d="M56.2938 11.8519C55.7215 10.7242 54.1057 10.5757 53.2546 10.0894C52.4031 9.60306 52.4031 7.53655 50.8234 6.68587C49.2432 5.83478 48.9996 7.17221 47.8938 6.92904C46.7875 6.68587 45.7173 4.49778 44.2578 4.01144C42.798 3.52469 41.4627 4.49778 40.3688 4.25419C39.275 4.01144 38.5455 1.70135 36.6254 1.82334C34.7052 1.94493 34.6552 3.28194 34.2603 3.16035C33.8657 3.03918 32.5891 0 30.219 0C27.8486 0 26.5719 3.03918 26.177 3.16077C25.7821 3.28235 25.732 1.94534 23.8119 1.82376C21.8918 1.70176 21.1627 4.01185 20.0684 4.25461C18.9742 4.49819 17.6392 3.52511 16.1794 4.01185C14.72 4.49819 13.6497 6.68629 12.5435 6.92945C11.4376 7.17262 11.1945 5.8352 9.61388 6.68629C8.03412 7.53737 8.03412 9.60389 7.18303 10.0898C6.33153 10.5761 4.7162 10.7246 4.14343 11.8524C2.07692 15.925 5.77448 44.6461 7.36913 44.6461C8.96336 44.6461 8.0337 30.0258 10.465 24.4342C12.8958 18.8426 22.2565 23.7047 30.219 23.7047C38.1811 23.7047 47.5414 18.8422 49.9731 24.4342C52.404 30.0258 51.4743 44.6461 53.0685 44.6461C54.6628 44.6457 58.3603 15.9246 56.2938 11.8519Z" fill="#4C2D19"/>
</svg>
