<svg width="328" height="316" viewBox="0 0 328 316" fill="none" xmlns="http://www.w3.org/2000/svg">
<rect width="328" height="316" rx="11.7" fill="#FFDC99"/>
<mask id="mask0" mask-type="alpha" maskUnits="userSpaceOnUse" x="0" y="0" width="328" height="316">
<rect width="328" height="316" rx="11.7" fill="white"/>
</mask>
<g mask="url(#mask0)">
<path fill-rule="evenodd" clip-rule="evenodd" d="M363.258 268.797C352.449 272.236 340.964 269.709 332.13 263.028C328.89 295.592 307.994 324 275.99 334.182C231.456 348.35 182.278 321.862 166.149 275.019C150.02 228.176 173.047 178.716 217.581 164.547C231.913 159.988 246.723 159.644 260.76 162.829C266.992 151.518 277.188 142.62 290.273 138.457C318.926 129.341 350.567 146.383 360.944 176.522C363.912 185.142 364.816 193.899 363.928 202.225C372.906 206.303 380.395 214.128 383.93 224.395C390.413 243.223 381.158 263.102 363.258 268.797Z" fill="#EBE7D3"/>
<mask id="mask1" mask-type="alpha" maskUnits="userSpaceOnUse" x="150" y="263" width="184" height="55">
<path fill-rule="evenodd" clip-rule="evenodd" d="M334 263H150V318H334V263Z" fill="white"/>
</mask>
<g mask="url(#mask1)">
<path fill-rule="evenodd" clip-rule="evenodd" d="M150 297.001C150 315.777 191.19 331 242 331C292.81 331 334 315.777 334 297.001C334 278.223 292.81 263 242 263C191.19 263 150 278.223 150 297.001Z" fill="#EBE7D3"/>
</g>
<path fill-rule="evenodd" clip-rule="evenodd" d="M310 188C310 197.942 318.059 206 328 206C337.941 206 346 197.942 346 188C346 178.059 337.941 170 328 170C318.059 170 310 178.059 310 188Z" fill="#EBE7D3"/>
<path fill-rule="evenodd" clip-rule="evenodd" d="M305.806 208.505H298.432C298.308 207.922 298.206 207.325 298.134 206.713C297.261 199.288 300.745 192.726 305.918 192.056C311.09 191.385 315.992 196.861 316.866 204.287C317.739 211.711 314.254 218.274 309.082 218.945C305.96 219.349 302.938 217.512 300.84 214.362C303.635 214.02 305.806 211.53 305.806 208.505Z" fill="#FF6B32"/>
<path fill-rule="evenodd" clip-rule="evenodd" d="M242.383 226L257 226.508L255.235 260L240 253.489L242.383 226Z" fill="#CF8100"/>
<path fill-rule="evenodd" clip-rule="evenodd" d="M325.994 286L204 302.135L204.038 305.506L326.22 306C326.22 306 334.874 295.029 325.994 286Z" fill="#170107"/>
<path fill-rule="evenodd" clip-rule="evenodd" d="M314.989 237.333C315.335 237.605 307.412 245.446 306.916 245.879C299.17 252.653 288.603 256.747 278.242 255.886C267.767 255.016 255.73 247.823 250.791 238.343C250.237 237.278 249.282 235.159 250.887 234.77C252.138 234.466 254.805 237.198 255.573 237.857C263.42 244.595 283.998 262.943 310.763 234L314.989 237.333Z" fill="#FF6B32"/>
<path fill-rule="evenodd" clip-rule="evenodd" d="M319.417 228.768C322.991 232.383 325.57 236.428 324.891 241.682C324.249 246.657 321.551 251.156 318.621 255.304C317.374 257.071 316.028 258.847 314.156 259.997C313.851 260.184 306.344 252.729 305.527 251.981C302.684 249.375 299.132 246.897 297 243.693C297.323 244.18 303.347 236.833 303.819 236.202C306.468 232.664 309.487 227.77 314.368 227.071C316.738 226.732 318.843 227.62 320.345 229.36C319.994 229.233 319.675 229.029 319.417 228.768Z" fill="#F29F00"/>
<path fill-rule="evenodd" clip-rule="evenodd" d="M317.881 227.774C326.531 235.715 330.997 246.977 333.374 258.127C334.592 263.837 335.234 269.622 335.676 275.432C335.91 278.501 336.091 281.565 335.951 284.645C335.896 285.872 335.48 295.085 334.171 295.347C321.271 297.922 308.34 292.182 295.319 290.267C293.019 289.915 303.885 240.385 304.512 238.029C305.354 234.859 306.522 231.619 308.939 229.354C311.356 227.089 315.337 226.129 318.106 227.966L317.881 227.774Z" fill="#FFB700"/>
<path fill-rule="evenodd" clip-rule="evenodd" d="M318 228.875C318 228.875 313.456 233.17 309.4 229.548C309.4 229.548 311.023 223.753 309 216.696C309 216.696 314.931 206.913 316.379 212.989C316.379 212.989 315.825 223.257 318 228.875Z" fill="#FF6B32"/>
<path fill-rule="evenodd" clip-rule="evenodd" d="M243.817 310.52C243.817 310.52 238.723 307.759 235 309.679L245.955 315L247 312.067L243.817 310.52Z" fill="#FFB700"/>
<path fill-rule="evenodd" clip-rule="evenodd" d="M332 297.654C332 297.654 283.449 256.751 275.268 257.001C267.085 257.25 247.864 295.273 243 310.258L246.587 312L275.22 270.835C275.22 270.835 298.886 297.552 313.716 306.791C313.716 306.791 329.484 312.019 332 297.654Z" fill="#2C000B"/>
<path fill-rule="evenodd" clip-rule="evenodd" d="M203.964 302.575C203.964 302.575 204.143 297.353 201 295L201.127 306L204 305.771L203.964 302.575Z" fill="#FFB700"/>
<path fill-rule="evenodd" clip-rule="evenodd" d="M321.522 194.822C322.934 194.802 324.304 194.014 325 192.738C323.964 192.663 322.911 192.854 321.963 193.29C322.121 192.439 322.28 191.588 322.438 190.736C321.568 191.128 320.817 191.795 320.315 192.623C321.211 191.146 318.441 188.453 317.458 187.782C314.472 185.744 310.869 185.689 307.427 186.06C299.867 186.874 292.676 187.779 286.657 182C286.239 184.014 285.82 186.076 286.081 188.118C286.341 190.16 287.417 192.214 289.247 193.053C289.25 192.298 287.862 192.703 287.977 193.448C288.093 194.193 288.929 194.543 289.649 194.689C290.369 194.835 291.204 194.987 291.561 195.646C290.896 195.603 290.481 196.495 290.708 197.139C290.934 197.782 291.543 198.188 292.126 198.518C299.234 202.547 308.485 202.214 315.301 197.682C315.105 199.319 314.738 209.182 317.744 207.882C319.379 207.175 320.733 203.713 321.287 202.1C321.581 201.243 323.679 194.791 321.522 194.822Z" fill="#2C000B"/>
<path fill-rule="evenodd" clip-rule="evenodd" d="M244.476 227L258 230.191L256.658 263L243 255.591L244.476 227Z" fill="white"/>
<path fill-rule="evenodd" clip-rule="evenodd" d="M257 232.67L255.179 264L241 255.702L243.516 226L257 232.67Z" fill="#F29F00"/>
<path fill-rule="evenodd" clip-rule="evenodd" d="M319.983 238.306C320.412 238.576 312.465 248.806 311.961 249.378C304.072 258.339 292.622 264.563 280.745 264.981C268.736 265.404 254.109 258.667 247.235 248.291C246.463 247.125 245.096 244.786 246.866 244.112C248.246 243.587 251.639 246.406 252.598 247.068C262.409 253.849 288.222 272.419 314.739 235C314.739 235 319.983 238.305 319.983 238.306Z" fill="#FF6B32"/>
<path fill-rule="evenodd" clip-rule="evenodd" d="M319.374 229.738C322.68 232.476 323.62 237.571 322.621 241.9C321.623 246.229 319.032 249.932 316.29 253.302C315.123 254.738 313.876 256.172 312.271 257C308.181 251.592 304.09 246.186 300 240.778C302.738 239.71 304.7 237.18 306.498 234.738C308.297 232.296 310.192 229.73 312.883 228.535C315.574 227.34 319.288 228.139 320.395 231.009" fill="#F29F00"/>
<path fill-rule="evenodd" clip-rule="evenodd" d="M315 207C315 208.657 316.343 210 318 210C319.657 210 321 208.657 321 207C321 205.343 319.657 204 318 204C316.343 204 315 205.343 315 207Z" fill="#FF6B32"/>
<path fill-rule="evenodd" clip-rule="evenodd" d="M311.92 217.801C311.92 217.801 313.011 216.848 314 215C314 215 311.759 228.499 309.553 228.989C309.553 228.989 310.578 222.465 309.553 218.853L311.92 217.801Z" fill="#FF8C60"/>
<path fill-rule="evenodd" clip-rule="evenodd" d="M190.928 263L222.369 265.864C225.193 266.122 227.232 268.621 226.979 271.384C226.725 274.147 224.213 276.232 221.441 275.979L190 273.115L190.928 263Z" fill="white"/>
<path fill-rule="evenodd" clip-rule="evenodd" d="M189.729 274.213L221.537 276.976C224.803 277.26 227.676 274.986 227.975 271.883C228.273 268.781 225.881 266.05 222.616 265.766L190.807 263.003C190.386 262.967 189.984 263.284 189.945 263.685C189.907 264.085 190.241 264.468 190.663 264.504L222.471 267.267C224.894 267.477 226.664 269.498 226.443 271.801C226.222 274.103 224.095 275.785 221.672 275.574L189.864 272.812C189.443 272.775 189.04 273.093 189.002 273.494C188.973 273.794 189.308 274.176 189.729 274.213Z" fill="#2C000B"/>
<path fill-rule="evenodd" clip-rule="evenodd" d="M190 266.432L220.288 268.998C220.652 269.028 220.97 268.733 220.998 268.338C221.026 267.942 220.754 267.597 220.391 267.566L190.103 265L190 266.432Z" fill="#E7E7E7"/>
<path fill-rule="evenodd" clip-rule="evenodd" d="M190 269.432L220.288 271.998C220.651 272.029 220.969 271.733 220.998 271.338C221.026 270.943 220.754 270.597 220.391 270.567L190.103 268L190 269.432Z" fill="#E7E7E7"/>
<path fill-rule="evenodd" clip-rule="evenodd" d="M190 272.432L220.288 274.998C220.652 275.029 220.969 274.732 220.998 274.338C221.026 273.942 220.754 273.597 220.391 273.566L190.103 271L190 272.432Z" fill="#E7E7E7"/>
<path fill-rule="evenodd" clip-rule="evenodd" d="M226 308V297H187.928C187.415 297 187 297.41 187 297.916V307.083C187 307.59 187.415 308 187.928 308H226Z" fill="white"/>
<path fill-rule="evenodd" clip-rule="evenodd" d="M194 308H193V297H194V308Z" fill="#2C000B"/>
<path fill-rule="evenodd" clip-rule="evenodd" d="M196 308H195V297H196V308Z" fill="#2C000B"/>
<path fill-rule="evenodd" clip-rule="evenodd" d="M215 303.875V302.125C215 302.056 214.948 302 214.883 302H200.117C200.052 302 200 302.056 200 302.125V303.875C200 303.944 200.052 304 200.117 304H214.883C214.948 304 215 303.944 215 303.875Z" fill="#2C000B"/>
<path fill-rule="evenodd" clip-rule="evenodd" d="M218 297V286H188.937C188.42 286 188 286.41 188 286.916V296.083C188 296.59 188.42 297 188.937 297H218Z" fill="#2C000B"/>
<path fill-rule="evenodd" clip-rule="evenodd" d="M218 287V276H183.921C183.412 276 183 276.411 183 276.916V286.083C183 286.59 183.412 287 183.921 287H218Z" fill="#F29F00"/>
<path fill-rule="evenodd" clip-rule="evenodd" d="M215.162 277.833V284.25C215.162 284.756 214.751 285.167 214.243 285.167H184.838C183.823 285.167 183 285.988 183 287H190.351H203.216H217V276C215.985 276 215.162 276.821 215.162 277.833Z" fill="#E7E7E7"/>
<path fill-rule="evenodd" clip-rule="evenodd" d="M188 287H187V276H188V287Z" fill="#E7E7E7"/>
<path fill-rule="evenodd" clip-rule="evenodd" d="M205 281.875V280.125C205 280.055 204.949 280 204.886 280H195.113C195.051 280 195 280.055 195 280.125V281.875C195 281.944 195.051 282 195.113 282H204.886C204.949 282 205 281.944 205 281.875Z" fill="#E7E7E7"/>
<path fill-rule="evenodd" clip-rule="evenodd" d="M209 292.875V291.125C209 291.056 208.952 291 208.893 291H203.107C203.048 291 203 291.056 203 291.125V292.875C203 292.944 203.048 293 203.107 293H208.893C208.952 293 209 292.944 209 292.875Z" fill="white"/>
<path fill-rule="evenodd" clip-rule="evenodd" d="M199 292C199 292.552 199.447 293 200 293C200.553 293 201 292.552 201 292C201 291.448 200.553 291 200 291C199.447 291 199 291.448 199 292Z" fill="white"/>
<path fill-rule="evenodd" clip-rule="evenodd" d="M197.646 267L197 274.331L199.281 272.222L201.331 275L202 267.413L197.646 267Z" fill="#F29F00"/>
<path fill-rule="evenodd" clip-rule="evenodd" d="M198 247L213 247.744L209.597 264.306C209.511 264.726 209.114 265.021 208.666 264.999L200.433 264.591C199.985 264.569 199.621 264.235 199.581 263.809L198 247Z" fill="white"/>
<path fill-rule="evenodd" clip-rule="evenodd" d="M200.395 247.124L202 265L200.365 264.915C199.929 264.892 199.576 264.553 199.537 264.119L198 247L200.395 247.124Z" fill="#E7E7E7"/>
<path fill-rule="evenodd" clip-rule="evenodd" d="M199.996 244L211.294 244.516C211.454 244.524 211.587 244.629 211.612 244.768L212 247L199 246.406L199.65 244.222C199.691 244.086 199.835 243.993 199.996 244Z" fill="#2C000B"/>
<path fill-rule="evenodd" clip-rule="evenodd" d="M197.469 248.241L212.412 248.999C212.685 249.013 212.917 248.809 212.932 248.543L212.999 247.266C213.013 247 212.804 246.773 212.532 246.759L197.588 246.001C197.315 245.987 197.083 246.191 197.069 246.457L197.001 247.734C196.986 248.001 197.196 248.227 197.469 248.241Z" fill="#2C000B"/>
<path fill-rule="evenodd" clip-rule="evenodd" d="M209.961 262.671L211.993 252.18C212.039 251.936 211.862 251.707 211.617 251.694L198.424 251.001C198.18 250.987 197.98 251.197 198.002 251.444L198.945 262.091C198.963 262.293 199.126 262.452 199.326 262.462L209.544 262.999C209.744 263.01 209.922 262.87 209.961 262.671Z" fill="#F29F00"/>
<path fill-rule="evenodd" clip-rule="evenodd" d="M221 308H220V297H221V308Z" fill="#2C000B"/>
<path fill-rule="evenodd" clip-rule="evenodd" d="M213 297H212V286H213V297Z" fill="white"/>
<path fill-rule="evenodd" clip-rule="evenodd" d="M215 297H214V286H215V297Z" fill="white"/>
</g>
<path fill-rule="evenodd" clip-rule="evenodd" d="M111 303.714L132.542 295.94L142.976 316L170 248.286L138.024 236L111 303.714Z" fill="#703948"/>
<path fill-rule="evenodd" clip-rule="evenodd" d="M125 248.286L152.024 316L162.458 295.94L184 303.714L156.975 236L125 248.286Z" fill="#2C000B"/>
<mask id="mask2" mask-type="alpha" maskUnits="userSpaceOnUse" x="106" y="201" width="83" height="82">
<path fill-rule="evenodd" clip-rule="evenodd" d="M106.218 201.132H188.653V282.541H106.218V201.132Z" fill="white"/>
</mask>
<g mask="url(#mask2)">
<path fill-rule="evenodd" clip-rule="evenodd" d="M186.973 238.552C185.153 237.228 184.749 234.707 186.065 232.893C187.686 230.659 186.651 227.514 184.01 226.647C181.866 225.943 180.692 223.669 181.376 221.542C182.218 218.923 180.25 216.248 177.467 216.229C175.208 216.214 173.38 214.409 173.365 212.178C173.346 209.43 170.637 207.486 167.985 208.317C165.831 208.993 163.528 207.834 162.815 205.716C161.938 203.108 158.753 202.086 156.491 203.687C154.654 204.986 152.101 204.587 150.761 202.79C149.11 200.578 145.761 200.578 144.11 202.79C142.77 204.587 140.217 204.986 138.381 203.687C136.118 202.086 132.933 203.108 132.056 205.716C131.343 207.834 129.04 208.993 126.886 208.317C124.234 207.486 121.525 209.43 121.506 212.178C121.491 214.409 119.663 216.214 117.404 216.229C114.621 216.248 112.653 218.923 113.495 221.542C114.179 223.669 113.005 225.943 110.861 226.647C108.22 227.514 107.186 230.659 108.806 232.893C110.122 234.707 109.717 237.228 107.898 238.552C105.658 240.182 105.658 243.489 107.898 245.12C109.717 246.443 110.122 248.965 108.806 250.779C107.186 253.013 108.22 256.158 110.861 257.024C113.005 257.728 114.179 260.003 113.495 262.129C112.653 264.748 114.621 267.425 117.404 267.443C119.663 267.458 121.491 269.263 121.506 271.495C121.525 274.243 124.234 276.186 126.886 275.354C129.04 274.679 131.343 275.839 132.056 277.956C132.933 280.564 136.118 281.585 138.381 279.985C140.217 278.686 142.77 279.085 144.11 280.881C145.761 283.094 149.11 283.094 150.761 280.881C152.101 279.085 154.654 278.686 156.491 279.985C158.753 281.585 161.938 280.564 162.815 277.956C163.528 275.839 165.831 274.679 167.985 275.354C170.637 276.186 173.346 274.243 173.365 271.495C173.38 269.263 175.208 267.458 177.467 267.443C180.25 267.425 182.218 264.748 181.376 262.129C180.692 260.003 181.866 257.728 184.01 257.024C186.651 256.158 187.686 253.013 186.065 250.779C184.749 248.965 185.153 246.443 186.973 245.12C189.213 243.489 189.213 240.182 186.973 238.552Z" fill="#F29F00"/>
</g>
<path fill-rule="evenodd" clip-rule="evenodd" d="M181.919 241.836C181.919 223.028 166.48 207.781 147.435 207.781C128.391 207.781 112.952 223.028 112.952 241.836C112.952 260.645 128.391 275.892 147.435 275.892C166.48 275.892 181.919 260.645 181.919 241.836Z" fill="#FFD34D"/>
<path fill-rule="evenodd" clip-rule="evenodd" d="M120.301 241.836C120.301 256.612 132.473 268.633 147.435 268.633C162.397 268.633 174.569 256.612 174.569 241.836C174.569 227.06 162.397 215.039 147.435 215.039C132.473 215.039 120.301 227.06 120.301 241.836ZM118.021 241.836C118.021 225.819 131.216 212.787 147.435 212.787C163.654 212.787 176.85 225.819 176.85 241.836C176.85 257.854 163.654 270.885 147.435 270.885C131.216 270.885 118.021 257.854 118.021 241.836Z" fill="#F29F00"/>
<mask id="mask3" mask-type="alpha" maskUnits="userSpaceOnUse" x="104" y="201" width="92" height="116">
<path fill-rule="evenodd" clip-rule="evenodd" d="M104 316H195.734V201.132H104V316Z" fill="white"/>
</mask>
<g mask="url(#mask3)">
<path fill-rule="evenodd" clip-rule="evenodd" d="M132.079 235.451H162.791V233.199H132.079V235.451Z" fill="#F29F00"/>
<path fill-rule="evenodd" clip-rule="evenodd" d="M132.079 242.962H162.791V240.71H132.079V242.962Z" fill="#F29F00"/>
<path fill-rule="evenodd" clip-rule="evenodd" d="M132.079 250.473H162.791V248.222H132.079V250.473Z" fill="#F29F00"/>
</g>
</svg>
