<svg width="24" height="24" viewBox="0 0 24 24" fill="none" xmlns="http://www.w3.org/2000/svg">
<path d="M11.7803 5.8449L9.15528 3.2199C8.86278 2.92703 8.38728 2.92703 8.09478 3.2199L5.46978 5.8449C5.1769 6.13778 5.1769 6.61253 5.46978 6.9054C5.76228 7.19828 6.23778 7.19828 6.53028 6.9054L7.87503 5.56065V20.2502C7.87503 20.6642 8.21103 21.0002 8.62503 21.0002C9.03903 21.0002 9.37503 20.6642 9.37503 20.2502V5.56065L10.7198 6.9054C10.866 7.05203 11.058 7.12515 11.25 7.12515C11.442 7.12515 11.634 7.05203 11.7803 6.9054C12.0732 6.61253 12.0732 6.13778 11.7803 5.8449Z" fill="#83959D"/>
<path d="M18.5303 17.0947C18.2374 16.8019 17.7626 16.8019 17.4698 17.0947L16.125 18.4395V3.75C16.125 3.336 15.789 3 15.375 3C14.961 3 14.625 3.336 14.625 3.75V18.4395L13.2803 17.0947C12.9874 16.8019 12.5123 16.8019 12.2198 17.0947C11.9269 17.3876 11.9269 17.8624 12.2198 18.1553L14.8448 20.7803C14.9914 20.9269 15.183 21 15.375 21C15.567 21 15.7586 20.9269 15.9053 20.7803L18.5303 18.1553C18.8231 17.8624 18.8231 17.3876 18.5303 17.0947Z" fill="#83959D"/>
</svg>
