<svg width="20" height="20" viewBox="0 0 20 20" fill="none" xmlns="http://www.w3.org/2000/svg">
<path d="M10 3.14355C8.40415 3.14323 6.83396 3.54547 5.43478 4.31303C4.0356 5.08059 2.85264 6.18868 1.99536 7.53476C1.13808 8.88084 0.634191 10.4214 0.530315 12.0139C0.426439 13.6064 0.725935 15.1994 1.40109 16.6454C1.42606 16.7021 1.46699 16.7504 1.51889 16.7842C1.5708 16.8181 1.63143 16.8361 1.69339 16.8361H18.3067C18.3686 16.8361 18.4293 16.8181 18.4812 16.7842C18.5331 16.7504 18.574 16.7021 18.599 16.6454C19.2736 15.1993 19.5726 13.6065 19.4685 12.0142C19.3643 10.4219 18.8604 8.88163 18.0032 7.53572C17.146 6.18981 15.9633 5.08177 14.5645 4.31407C13.1656 3.54636 11.5957 3.14378 10 3.14355ZM3.91175 16.2111C3.27212 15.1265 2.93514 13.8903 2.93597 12.6311C2.93597 8.73723 6.10488 5.56934 10 5.56934C13.8952 5.56934 17.0641 8.7393 17.0641 12.6357C17.0646 13.8934 16.7276 15.1281 16.0884 16.2111H3.91175ZM18.1101 16.2111H16.804C17.3857 15.1091 17.6895 13.8818 17.6891 12.6357C17.6891 8.39469 14.2399 4.9443 10 4.9443C8.67596 4.94373 7.37421 5.28523 6.22093 5.9357C5.06766 6.58618 4.10199 7.52356 3.41753 8.65699C2.73306 9.79042 2.35302 11.0815 2.31424 12.405C2.27545 13.7285 2.57925 15.0395 3.19617 16.2111H1.88995C1.29432 14.8617 1.04485 13.3851 1.16414 11.915C1.28344 10.4448 1.76774 9.0277 2.57315 7.79205C3.37855 6.55639 4.47959 5.54127 5.77647 4.83869C7.07335 4.1361 8.52507 3.76828 10 3.76855C14.8882 3.76855 18.8649 7.74637 18.8649 12.6357C18.8674 13.8673 18.6102 15.0856 18.1101 16.2111Z" fill="black"/>
<path d="M10 7.42188C10.0829 7.42188 10.1624 7.38895 10.221 7.33035C10.2796 7.27174 10.3125 7.19226 10.3125 7.10938V6.01562C10.3125 5.93274 10.2796 5.85326 10.221 5.79465C10.1624 5.73605 10.0829 5.70312 10 5.70312C9.91712 5.70312 9.83763 5.73605 9.77903 5.79465C9.72042 5.85326 9.6875 5.93274 9.6875 6.01562V7.10938C9.6875 7.19226 9.72042 7.27174 9.77903 7.33035C9.83763 7.38895 9.91712 7.42188 10 7.42188Z" fill="black"/>
<path d="M16.6016 12.3047H15.5078C15.4249 12.3047 15.3454 12.3376 15.2868 12.3962C15.2282 12.4548 15.1953 12.5343 15.1953 12.6172C15.1953 12.7001 15.2282 12.7796 15.2868 12.8382C15.3454 12.8968 15.4249 12.9297 15.5078 12.9297H16.6016C16.6844 12.9297 16.7639 12.8968 16.8225 12.8382C16.8811 12.7796 16.9141 12.7001 16.9141 12.6172C16.9141 12.5343 16.8811 12.4548 16.8225 12.3962C16.7639 12.3376 16.6844 12.3047 16.6016 12.3047Z" fill="black"/>
<path d="M4.49219 12.3047H3.39844C3.31556 12.3047 3.23607 12.3376 3.17747 12.3962C3.11886 12.4548 3.08594 12.5343 3.08594 12.6172C3.08594 12.7001 3.11886 12.7796 3.17747 12.8382C3.23607 12.8968 3.31556 12.9297 3.39844 12.9297H4.49219C4.57507 12.9297 4.65455 12.8968 4.71316 12.8382C4.77176 12.7796 4.80469 12.7001 4.80469 12.6172C4.80469 12.5343 4.77176 12.4548 4.71316 12.3962C4.65455 12.3376 4.57507 12.3047 4.49219 12.3047Z" fill="black"/>
<path d="M14.4471 7.74641L13.6736 8.51985C13.615 8.57846 13.5821 8.65794 13.5821 8.74083C13.5821 8.82371 13.615 8.9032 13.6736 8.9618C13.7322 9.02041 13.8117 9.05333 13.8946 9.05333C13.9775 9.05333 14.057 9.02041 14.1156 8.9618L14.889 8.18837C14.947 8.12964 14.9795 8.05034 14.9792 7.96779C14.9789 7.88524 14.946 7.80614 14.8877 7.74777C14.8293 7.6894 14.7502 7.6565 14.6676 7.65625C14.5851 7.656 14.5058 7.68843 14.4471 7.74645V7.74641Z" fill="black"/>
<path d="M5.55295 7.74718C5.49422 7.68916 5.41493 7.65674 5.33238 7.65698C5.24983 7.65723 5.17073 7.69013 5.11235 7.7485C5.05398 7.80687 5.02107 7.88597 5.02081 7.96852C5.02056 8.05107 5.05298 8.13037 5.11099 8.1891L5.88443 8.96254C5.91345 8.99155 5.9479 9.01457 5.98581 9.03028C6.02373 9.04598 6.06437 9.05407 6.1054 9.05407C6.14644 9.05407 6.18708 9.04598 6.225 9.03028C6.26291 9.01457 6.29736 8.99155 6.32638 8.96254C6.3554 8.93352 6.37842 8.89907 6.39412 8.86115C6.40983 8.82324 6.41791 8.7826 6.41791 8.74156C6.41791 8.70052 6.40983 8.65988 6.39412 8.62197C6.37842 8.58405 6.3554 8.5496 6.32638 8.52058L5.55295 7.74718Z" fill="black"/>
<path d="M10 11.522C9.96185 11.522 9.9237 11.524 9.88573 11.5279L8.29635 7.71071C8.26449 7.63419 8.20354 7.57347 8.12691 7.54188C8.05028 7.5103 7.96424 7.51046 7.88772 7.54232C7.8112 7.57417 7.75047 7.63512 7.71889 7.71176C7.68731 7.78839 7.68746 7.87443 7.71932 7.95095L9.30737 11.7649C9.10199 11.9288 8.96125 12.1601 8.91009 12.4178C8.85893 12.6756 8.90065 12.9431 9.02786 13.173C9.15507 13.4029 9.35955 13.5803 9.60508 13.6739C9.85061 13.7675 10.1213 13.7711 10.3693 13.6841C10.6172 13.5972 10.8264 13.4253 10.9597 13.1989C11.093 12.9725 11.1419 12.7062 11.0977 12.4472C11.0535 12.1882 10.919 11.9532 10.7181 11.7838C10.5171 11.6145 10.2628 11.5218 10 11.522ZM10 13.1236C9.90345 13.1236 9.80905 13.095 9.72875 13.0413C9.64845 12.9877 9.58587 12.9114 9.54891 12.8222C9.51195 12.733 9.50228 12.6348 9.52112 12.5401C9.53996 12.4453 9.58647 12.3583 9.65475 12.2901C9.72304 12.2218 9.81005 12.1753 9.90476 12.1564C9.99948 12.1376 10.0977 12.1473 10.1869 12.1842C10.2761 12.2212 10.3524 12.2838 10.406 12.364C10.4597 12.4443 10.4883 12.5388 10.4883 12.6353C10.4882 12.7648 10.4367 12.8889 10.3451 12.9804C10.2536 13.072 10.1295 13.1235 10 13.1236Z" fill="black"/>
</svg>
