<svg width="70" height="70" viewBox="0 0 70 70" fill="none" xmlns="http://www.w3.org/2000/svg">
<path d="M11.4887 58.5113C10.8053 59.1947 9.6936 59.1975 9.04519 58.4808C4.80772 53.797 1.90899 48.0443 0.672515 41.8282C-0.677968 35.0388 0.0151493 28.0015 2.66422 21.6061C5.31328 15.2107 9.79932 9.74441 15.555 5.89856C21.3108 2.05271 28.0777 -8.25481e-08 35 0C41.9223 8.25481e-08 48.6892 2.05271 54.445 5.89856C60.2007 9.74441 64.6867 15.2107 67.3358 21.6061C69.9848 28.0015 70.678 35.0388 69.3275 41.8282C68.091 48.0443 65.1923 53.797 60.9548 58.4808C60.3064 59.1975 59.1947 59.1947 58.5113 58.5113C57.8279 57.8279 57.8319 56.723 58.4763 56.0027C62.2264 51.811 64.7933 46.6825 65.8947 41.1453C67.1102 35.0349 66.4864 28.7013 64.1022 22.9455C61.718 17.1896 57.6806 12.27 52.5005 8.80871C47.3203 5.34744 41.2301 3.5 35 3.5C28.7699 3.5 22.6797 5.34744 17.4995 8.80871C12.3194 12.27 8.28196 17.1896 5.89779 22.9455C3.51363 28.7013 2.88983 35.0349 4.10526 41.1453C5.20667 46.6825 7.77358 51.811 11.5237 56.0027C12.1681 56.723 12.1721 57.8279 11.4887 58.5113Z" fill="#D9DEE1"/>
<path d="M11.4887 58.5113C10.8053 59.1947 9.69356 59.1975 9.04514 58.4808C3.99402 52.8977 0.866791 45.8202 0.155331 38.2938C-0.556129 30.7673 1.18953 23.2293 5.10502 16.7986C5.60765 15.9731 6.7002 15.7675 7.49957 16.3107C8.29894 16.854 8.50195 17.9402 8.00391 18.7685C4.54368 24.5232 3.005 31.2489 3.6398 37.9644C4.2746 44.6799 7.04631 50.9982 11.5236 56.0026C12.168 56.7229 12.1721 57.8279 11.4887 58.5113Z" fill="#008FFF"/>
<path d="M24.4777 31.4082H25.4279C26.0249 31.3991 26.4943 31.2419 26.8361 30.9365C27.1779 30.6312 27.3488 30.2188 27.3488 29.6992C27.3488 28.5326 26.7678 27.9492 25.6057 27.9492C25.0588 27.9492 24.6213 28.1064 24.2932 28.4209C23.9696 28.7308 23.8078 29.1432 23.8078 29.6582H22.5432C22.5432 28.8698 22.8303 28.2158 23.4045 27.6963C23.9833 27.1722 24.717 26.9102 25.6057 26.9102C26.5445 26.9102 27.2805 27.1585 27.8137 27.6553C28.3469 28.152 28.6135 28.8424 28.6135 29.7266C28.6135 30.1595 28.4722 30.5788 28.1896 30.9844C27.9117 31.39 27.5311 31.693 27.048 31.8936C27.5949 32.0667 28.0165 32.3538 28.3127 32.7549C28.6135 33.1559 28.7639 33.6458 28.7639 34.2246C28.7639 35.1178 28.4722 35.8265 27.8889 36.3506C27.3055 36.8747 26.5467 37.1367 25.6125 37.1367C24.6783 37.1367 23.9172 36.8838 23.3293 36.3779C22.746 35.8721 22.4543 35.2044 22.4543 34.375H23.7258C23.7258 34.8991 23.8967 35.3184 24.2385 35.6328C24.5803 35.9473 25.0383 36.1045 25.6125 36.1045C26.2232 36.1045 26.6903 35.945 27.0139 35.626C27.3374 35.307 27.4992 34.849 27.4992 34.252C27.4992 33.6732 27.3215 33.2288 26.966 32.9189C26.6105 32.609 26.0979 32.4495 25.4279 32.4404H24.4777V31.4082ZM37.2217 37H30.7002V36.0908L34.1455 32.2627C34.6559 31.6839 35.0068 31.2145 35.1982 30.8545C35.3942 30.4899 35.4922 30.1139 35.4922 29.7266C35.4922 29.207 35.335 28.7809 35.0205 28.4482C34.7061 28.1156 34.2868 27.9492 33.7627 27.9492C33.1338 27.9492 32.6439 28.1292 32.293 28.4893C31.9466 28.8447 31.7734 29.3415 31.7734 29.9795H30.5088C30.5088 29.0635 30.8027 28.3229 31.3906 27.7578C31.9831 27.1927 32.7738 26.9102 33.7627 26.9102C34.6878 26.9102 35.4193 27.154 35.957 27.6416C36.4948 28.1247 36.7637 28.7695 36.7637 29.5762C36.7637 30.556 36.1393 31.7227 34.8906 33.0762L32.2246 35.9678H37.2217V37ZM38.6521 28.9609C38.6521 28.3639 38.8413 27.8717 39.2195 27.4844C39.6023 27.097 40.0923 26.9033 40.6893 26.9033C41.2954 26.9033 41.7853 27.0993 42.159 27.4912C42.5372 27.8786 42.7264 28.3822 42.7264 29.002V29.4873C42.7264 30.0889 42.535 30.5811 42.1521 30.9639C41.7739 31.3421 41.2908 31.5312 40.7029 31.5312C40.1105 31.5312 39.6206 31.3421 39.2332 30.9639C38.8458 30.5811 38.6521 30.0729 38.6521 29.4395V28.9609ZM39.5955 29.4873C39.5955 29.8428 39.6958 30.1367 39.8963 30.3691C40.0968 30.597 40.3657 30.7109 40.7029 30.7109C41.0265 30.7109 41.2863 30.5993 41.4822 30.376C41.6827 30.1527 41.783 29.8473 41.783 29.46V28.9609C41.783 28.6055 41.685 28.3115 41.4891 28.0791C41.2931 27.8467 41.0265 27.7305 40.6893 27.7305C40.352 27.7305 40.0854 27.8467 39.8895 28.0791C39.6935 28.3115 39.5955 28.6146 39.5955 28.9883V29.4873ZM43.4988 34.5596C43.4988 33.9626 43.688 33.4727 44.0662 33.0898C44.449 32.7025 44.9389 32.5088 45.5359 32.5088C46.1329 32.5088 46.6229 32.7002 47.0057 33.083C47.3885 33.4658 47.5799 33.974 47.5799 34.6074V35.0928C47.5799 35.6898 47.3885 36.182 47.0057 36.5693C46.6274 36.9521 46.1421 37.1436 45.5496 37.1436C44.9572 37.1436 44.4673 36.9544 44.0799 36.5762C43.6925 36.1934 43.4988 35.6852 43.4988 35.0518V34.5596ZM44.4422 35.0928C44.4422 35.4528 44.5424 35.749 44.743 35.9814C44.9435 36.2093 45.2124 36.3232 45.5496 36.3232C45.8777 36.3232 46.1398 36.2116 46.3357 35.9883C46.5317 35.7604 46.6297 35.4528 46.6297 35.0654V34.5596C46.6297 34.1995 46.5294 33.9056 46.3289 33.6777C46.1329 33.4499 45.8686 33.3359 45.5359 33.3359C45.2124 33.3359 44.948 33.4499 44.743 33.6777C44.5424 33.901 44.4422 34.2041 44.4422 34.5869V35.0928ZM40.99 36.248L40.2723 35.7969L45.1326 28.0176L45.8504 28.4688L40.99 36.248Z" fill="black"/>
</svg>
