<svg width="120" height="120" viewBox="0 0 120 120" fill="none" xmlns="http://www.w3.org/2000/svg">
<g clip-path="url(#clip0)">
<path d="M109.453 0H99.3191L92.1248 7.03125H109.453C111.393 7.03125 112.969 8.60687 112.969 10.5469V15.9027C112.969 22.9889 110.532 29.9377 106.102 35.4721C102.322 40.1999 97.2893 43.7082 91.549 45.6207L86.5914 47.2723C84.7512 47.8867 83.7551 49.8779 84.3667 51.7218C84.8574 53.1949 86.2307 54.1251 87.7038 54.1251C88.0709 54.1251 88.4453 54.0665 88.8161 53.9465L93.7737 52.2913C100.801 49.9503 106.964 45.6519 111.595 39.8666C117.013 33.0899 120 24.5782 120 15.9027V10.5469C120 4.73145 115.268 0 109.453 0Z" fill="#FF7816"/>
<path d="M33.4085 47.2723L28.4509 45.6244C22.7106 43.7082 17.6779 40.1999 13.8977 35.4721C9.46838 29.9377 7.03125 22.9889 7.03125 15.9027V10.5469C7.03125 8.60687 8.60687 7.03125 10.5469 7.03125H28.7146L20.6808 0H10.5469C4.73145 0 0 4.73145 0 10.5469V15.9027C0 24.5782 2.98645 33.0899 8.40454 39.8666C13.0362 45.6519 19.1986 49.9503 26.2262 52.2949L31.1838 53.9465C31.5546 54.0665 31.929 54.1251 32.2961 54.1251C33.7692 54.1251 35.1425 53.1949 35.6332 51.7218C36.2448 49.8779 35.2487 47.8867 33.4085 47.2723Z" fill="#FF9F00"/>
<path d="M70.7814 68.6252V73.8281C70.7814 75.7965 72.3278 77.3438 74.2971 77.3438C80.1335 77.3438 84.8439 82.0541 84.8439 87.8906V94.9219C84.8439 96.8903 83.2976 98.4375 81.3283 98.4375H38.6721C36.7028 98.4375 35.1564 96.8903 35.1564 94.9219V87.8906C35.1564 82.0541 39.8668 77.3438 45.7033 77.3438C47.6726 77.3438 49.2189 75.7965 49.2189 73.8281V68.6252C36.1406 64.476 26.5789 52.9449 25.0316 39.234L20.6719 0H99.3285L94.9688 39.234C93.4215 52.9449 83.8597 64.476 70.7814 68.6252Z" fill="#FFD400"/>
<path d="M81.3281 98.4375H60V0H99.3283L94.9686 39.234C93.4213 52.9449 83.8596 64.476 70.7812 68.6252V73.8281C70.7812 75.7965 72.3276 77.3438 74.2969 77.3438C80.1334 77.3438 84.8438 82.0541 84.8438 87.8906V94.9219C84.8438 96.8903 83.2974 98.4375 81.3281 98.4375Z" fill="#FF9F00"/>
<path d="M77.4374 26.5073C77.0153 25.1716 75.8911 24.2579 74.5553 24.0473L66.68 22.9221L63.1643 15.9604C62.5317 14.7657 61.2655 14.2026 60.0003 14.2026C58.735 14.2026 57.4688 14.7657 56.8362 15.9604L53.3206 22.9221L45.4452 24.0464C44.1095 24.2579 42.9852 25.1716 42.5631 26.5073C42.2116 27.7735 42.5631 29.1788 43.5473 30.0934L49.1723 35.5079L47.8366 43.1013C47.6251 44.3674 48.1176 45.7032 49.2428 46.5473C50.2975 47.32 51.7743 47.461 52.8985 46.8284L60.0003 43.1718L67.102 46.8284C68.2968 47.461 69.703 47.32 70.7586 46.5473C71.8829 45.7032 72.3755 44.3674 72.164 43.1013L70.8282 35.5079L76.4532 30.0934C77.4374 29.1797 77.7899 27.7735 77.4374 26.5073Z" fill="#FF9F00"/>
<path d="M91.875 94.9219V116.203H28.125V94.9219C28.125 92.9526 29.6713 91.4062 31.6406 91.4062H88.3594C90.3287 91.4062 91.875 92.9526 91.875 94.9219Z" fill="#EC5569"/>
<path d="M67.1017 46.8284L60 43.1718V14.2026C61.2653 14.2026 62.5314 14.7657 63.1641 15.9604L66.6797 22.9221L74.5551 24.0473C75.8908 24.2579 77.0151 25.1716 77.4371 26.5073C77.7887 27.7735 77.4371 29.1797 76.4529 30.0934L70.8279 35.5079L72.1637 43.1022C72.3752 44.3674 71.8826 45.7032 70.7574 46.5473C69.7028 47.32 68.2965 47.461 67.1017 46.8284Z" fill="#FF7816"/>
<path d="M91.875 94.9219V116.203H60V91.4062H88.3594C90.3287 91.4062 91.875 92.9526 91.875 94.9219Z" fill="#CC2E43"/>
<path d="M98.9062 116.484C98.9062 118.453 97.3599 120 95.3906 120H24.6094C22.6401 120 21.0938 118.453 21.0938 116.484C21.0938 114.515 22.6401 112.969 24.6094 112.969H95.3906C97.3599 112.969 98.9062 114.515 98.9062 116.484Z" fill="#697C86"/>
<path d="M98.9062 116.484C98.9062 118.453 97.3599 120 95.3906 120H60V112.969H95.3906C97.3599 112.969 98.9062 114.515 98.9062 116.484Z" fill="#465A61"/>
</g>
<defs>
<clipPath id="clip0">
<rect width="120" height="120" fill="white"/>
</clipPath>
</defs>
</svg>
