<svg width="123" height="81" viewBox="0 0 123 81" fill="none" xmlns="http://www.w3.org/2000/svg">
<line x1="9" y1="67" x2="9" y2="58" stroke="#02B875" stroke-width="2"/>
<line x1="8" y1="58" x2="27" y2="58" stroke="#02B875" stroke-width="2"/>
<line x1="27" y1="59" x2="27" y2="50" stroke="#02B875" stroke-width="2"/>
<line x1="26" y1="50" x2="45" y2="50" stroke="#02B875" stroke-width="2"/>
<line x1="45" y1="51" x2="45" y2="42" stroke="#02B875" stroke-width="2"/>
<line x1="44" y1="42" x2="63" y2="42" stroke="#02B875" stroke-width="2"/>
<line x1="63" y1="43" x2="63" y2="34" stroke="#02B875" stroke-width="2"/>
<line x1="62" y1="34" x2="81" y2="34" stroke="#02B875" stroke-width="2"/>
<line x1="81" y1="35" x2="81" y2="26" stroke="#02B875" stroke-width="2"/>
<line x1="80" y1="26" x2="99" y2="26" stroke="#02B875" stroke-width="2"/>
<line x1="99" y1="27" x2="99" y2="18" stroke="#02B875" stroke-width="2"/>
<line x1="98" y1="18" x2="117" y2="18" stroke="#02B875" stroke-width="2"/>
<path d="M1 2C1 1.44771 1.44771 1 2 1H121C121.552 1 122 1.44772 122 2V80H1V2Z" stroke="#02B875" stroke-width="2"/>
</svg>
