<svg width="213" height="609" viewBox="0 0 213 609" fill="none" xmlns="http://www.w3.org/2000/svg">
<path d="M130.552 79.8364L108.326 80.6982L109.434 109.274L131.66 108.412L130.552 79.8364Z" fill="#008FFF"/>
<path d="M30.2923 179.915C30.2923 179.915 -0.486691 165.209 0.00584896 177.909C0.498389 190.61 31.0311 198.965 31.0311 198.965L30.2923 179.915Z" fill="#FFB9B9"/>
<path d="M47.1789 287.376C47.1789 287.376 32.6578 322.917 27.2926 348.564C21.9274 374.211 13.7565 409.506 24.2668 434.538C34.7771 459.569 64.6587 533.137 64.9665 541.075C65.2743 549.013 62.407 557.073 68.7572 556.827C75.1074 556.581 109.664 545.701 111.067 540.877C112.47 536.053 99.2769 523.845 99.2769 523.845L66.6995 421.763L100.689 355.257L125.206 454.472L130.007 578.301C130.007 578.301 153.574 571.027 156.996 577.254C156.996 577.254 167.554 562.536 168.896 556.124C170.237 549.712 163.909 427.533 163.909 427.533C163.909 427.533 185.541 288.37 168.078 289.047C150.615 289.724 82.2149 247.859 47.1789 287.376Z" fill="#2F2E41"/>
<path d="M68.5108 550.477C68.5108 550.477 52.4023 586.08 50.8763 587.729C49.3503 589.378 38.8531 605.685 46.7908 605.377C54.7285 605.069 73.4712 596.392 87.2666 583.138C101.062 569.884 119.251 546.919 117.602 545.393C115.953 543.867 104.655 539.536 104.655 539.536L68.5108 550.477Z" fill="#2F2E41"/>
<path d="M132.874 570.24C132.874 570.24 131.902 586.177 128.974 592.65C126.045 599.124 126.414 608.649 134.352 608.341C142.29 608.033 162.804 604.058 162.804 604.058C162.804 604.058 164.023 594.471 162.374 592.945C160.724 591.419 153.697 574.203 156.687 569.317C159.678 564.431 132.874 570.24 132.874 570.24Z" fill="#2F2E41"/>
<path d="M144.617 53.0571C144.617 53.0571 161.539 79.4297 168.136 85.5337C174.732 91.6376 156.174 105.077 156.174 105.077L122.959 109.545C122.959 109.545 123.377 79.3196 121.666 76.2061C119.955 73.0926 144.617 53.0571 144.617 53.0571Z" fill="#FFB9B9"/>
<path d="M115.747 87.5652C115.747 87.5652 122.59 100.019 128.94 99.773C135.29 99.5268 168.136 85.5336 169.539 80.7094C170.942 75.8852 180.418 115.266 180.418 115.266L100.047 256.707L80.4424 243.158L89.9415 160.113L97.743 115.292L115.747 87.5652Z" fill="#008FFF"/>
<path d="M172.504 214.148C169.298 220.855 167.295 227.849 167.573 235.009C167.585 235.326 167.598 235.644 167.626 235.961C168.386 250.654 173.799 267.647 175.741 280.005C177.15 288.87 176.749 295.341 171.561 296.861C158.984 300.529 173.395 303.15 124.735 319.346C76.0757 335.543 67.5839 321.563 67.4608 318.388C67.3377 315.212 74.3519 291.091 72.7028 289.566C71.0537 288.04 49.6284 309.539 43.1551 306.611C36.6818 303.682 42.4164 287.56 42.4164 287.56C42.4164 287.56 56.9991 253.606 56.6912 245.668C56.3834 237.731 78.7807 200.294 78.7807 200.294L94.0144 101.127C94.0144 101.127 99.872 88.1806 107.748 86.2852C115.624 84.3899 122.159 88.9062 122.159 88.9062L108.979 118.036L95.0739 169.453L97.4002 188.442C97.4002 188.442 113.57 154.426 124.191 141.295C134.811 128.164 157.454 97.0771 157.454 97.0771C157.454 97.0771 162.741 79.2398 158.75 73.9092C154.759 68.5629 175.397 67.7626 184.196 89.6804C188.86 101.297 196.432 118.62 201.176 134.748C205.402 149.037 207.399 162.394 203.212 170.03C196.811 181.693 180.712 197.025 172.504 214.148Z" fill="#575A89"/>
<path opacity="0.1" d="M203.212 170.03C196.811 181.693 180.711 197.025 172.504 214.148C170.36 206.425 167.745 198.434 167.745 198.434C167.745 198.434 157.714 144.765 187.385 130.895C192.301 130.42 197.218 131.793 201.176 134.748C205.402 149.037 207.399 162.394 203.212 170.03Z" fill="black"/>
<path d="M85.4254 166.647L60.2709 173.983L25.345 175.337L21.752 205.685L79.1498 209.819C79.1498 209.819 93.4862 169.515 85.4254 166.647Z" fill="#575A89"/>
<path d="M126.443 268.687C126.443 268.687 92.7912 274.27 100.472 284.397C108.152 294.523 137.964 283.877 137.964 283.877L126.443 268.687Z" fill="#FFB9B9"/>
<path opacity="0.1" d="M167.626 235.961C168.386 250.654 173.799 267.647 175.741 280.005C165.021 290.151 154.827 299.101 150.985 299.25C143.047 299.557 130.285 298.462 125.584 300.235C120.883 302.007 118.126 271.905 118.126 271.905C118.126 271.905 120.932 262.257 133.447 257.001C141.895 253.446 158.088 243.803 167.626 235.961Z" fill="black"/>
<path d="M187.015 121.37C187.015 121.37 213.88 117.148 212.428 161.722C210.977 206.297 215.26 234.749 204.455 243.118C193.65 251.487 158.553 289.416 150.615 289.724C142.677 290.032 129.915 288.937 125.214 290.709C120.513 292.481 117.756 262.38 117.756 262.38C117.756 262.38 120.562 252.731 133.077 247.476C145.593 242.221 175.079 223.588 174.833 217.238C174.587 210.888 167.375 188.908 167.375 188.908C167.375 188.908 157.344 135.24 187.015 121.37Z" fill="#575A89"/>
<path d="M120.928 92.1076C140.231 92.1076 155.88 76.4589 155.88 57.1553C155.88 37.8518 140.231 22.2031 120.928 22.2031C101.624 22.2031 85.9756 37.8518 85.9756 57.1553C85.9756 76.4589 101.624 92.1076 120.928 92.1076Z" fill="#FFB9B9"/>
<path d="M97.3934 7.05889C96.5504 7.78525 95.5409 8.29187 94.4547 8.53367C93.9094 8.63088 93.3477 8.50842 92.8924 8.19302C92.4371 7.87761 92.125 7.39488 92.0244 6.85021C91.2247 8.50862 90.3224 10.2761 88.6898 11.1271C87.0571 11.9781 84.5324 11.2645 84.2971 9.43847C84.0587 10.8249 83.4453 12.1197 82.5234 13.1824C81.5104 14.1482 79.6735 14.392 78.7891 13.3072C79.5041 17.2146 79.0628 21.2331 79.2873 25.199C79.5118 29.165 80.5694 33.3695 83.5657 35.9775C87.9356 39.7808 94.5069 38.8421 100.255 38.1215C101.124 37.9391 102.026 37.9885 102.87 38.2646C105.023 39.1816 104.925 42.1777 104.954 44.517C105.13 48.6216 106.754 52.5312 109.539 55.5515C112.324 58.5718 116.089 60.5074 120.166 61.0145C122.448 61.3667 124.776 60.7985 126.639 59.4349C128.271 58.0515 129.104 55.7968 130.975 54.7577C134.017 53.0673 137.706 55.5325 139.93 58.2092C142.154 60.886 144.346 64.1786 147.792 64.6686C152.349 65.3166 155.82 60.6725 157.523 56.3964C159.872 50.403 160.997 43.9999 160.833 37.5646C160.668 31.1293 159.217 24.7921 156.564 18.9266C147.049 -1.81447 114.546 -5.09507 97.3934 7.05889Z" fill="#2F2E41"/>
</svg>
