<svg width="120" height="120" viewBox="0 0 120 120" fill="none" xmlns="http://www.w3.org/2000/svg">
<path d="M4.49146 14.728H43.5149V53.7257H4.49146V14.728Z" fill="#EAF6FF"/>
<path d="M43.5145 14.728V53.7257H17.9629C20.2082 53.7257 22.027 51.9069 22.027 49.6616V14.728H43.5145Z" fill="#C8EFFE"/>
<path d="M76.4795 14.728H115.505V53.7233H76.4795V14.728Z" fill="#EAF6FF"/>
<path d="M115.505 14.728V53.7233H105.153C107.473 53.7233 109.353 51.8437 109.353 49.5233V14.728H115.505Z" fill="#C8EFFE"/>
<path d="M4.49146 7.59839H43.5149V14.7281H4.49146V7.59839Z" fill="#99E6FC"/>
<path d="M43.5149 7.59839V14.7281H22.0274V11.775C22.0274 9.4687 20.1571 7.59839 17.8508 7.59839H43.5149Z" fill="#62DBFB"/>
<path d="M76.4795 7.59839H115.505V14.7281H76.4795V7.59839Z" fill="#99E6FC"/>
<path d="M115.506 7.59839V14.7281H109.354V10.8492C109.354 9.05386 107.898 7.59839 106.103 7.59839H115.506Z" fill="#62DBFB"/>
<path d="M89.8418 1.75781V14.7281L59.581 15.8595L29.3215 14.7281V1.75781H89.8418Z" fill="#5986CB"/>
<path d="M89.8409 1.75781V14.7281H82.1112V6.61406C82.1112 3.93281 79.9386 1.75781 77.2573 1.75781H89.8409Z" fill="#4278C3"/>
<path d="M29.3215 14.728H89.8418V68.3155H29.3215V14.728Z" fill="#EAF6FF"/>
<path d="M75.1511 43.6285V47.0051C75.1511 48.9148 73.6014 50.4645 71.6918 50.4645H48.3007C46.391 50.4645 44.8413 48.9148 44.8413 47.0051V43.6285C44.8413 41.7162 46.391 40.1665 48.3007 40.1665H71.6918C73.6014 40.1665 75.1511 41.7162 75.1511 43.6285Z" fill="#FFD064"/>
<path d="M75.1502 43.629V47.0063C75.1502 48.9141 73.601 50.4657 71.6909 50.4657H65.637C67.5471 50.4657 69.0987 48.9141 69.0987 47.0063V43.629C69.0987 41.7165 67.5471 40.1672 65.637 40.1672H71.6909C73.601 40.1672 75.1502 41.7165 75.1502 43.629Z" fill="#FFC250"/>
<path d="M89.8418 14.728V68.3155H76.7825C79.7262 68.3155 82.1122 65.9273 82.1122 62.9835V14.728H89.8418Z" fill="#C8EFFE"/>
<path d="M84.8301 72.4311L82.6614 64.0766C82.1387 62.0661 80.3266 60.6643 78.2498 60.6643H78.1778C77.1065 60.6643 76.1212 61.0328 75.3442 61.6515C74.5938 62.2461 74.0369 63.0742 73.7786 64.0248C73.7765 64.0321 73.7732 64.0382 73.7711 64.0454C73.7662 64.0637 73.7629 64.0825 73.7582 64.101C73.7448 64.1539 73.7327 64.2071 73.7212 64.2608C73.7132 64.2983 73.705 64.3356 73.698 64.3733C73.6874 64.4291 73.6785 64.4853 73.6703 64.5418C73.6649 64.5782 73.6588 64.6145 73.6544 64.651C73.6466 64.7132 73.641 64.776 73.6359 64.839C73.6333 64.8707 73.6295 64.9016 73.6277 64.9335C73.6218 65.027 73.6185 65.121 73.6183 65.2159V65.2196V63.4881C73.6183 62.6396 73.3823 61.8486 72.9787 61.1687C72.7902 60.8514 72.5673 60.5572 72.3102 60.2957C72.3009 60.2863 72.2929 60.2757 72.2835 60.2664C71.459 59.4421 70.3202 58.9325 69.0625 58.9325H68.3437C65.8265 58.9325 63.7881 60.9709 63.7879 63.4878V60.8249C63.7879 59.3418 63.0761 58.0281 61.9792 57.1956C61.2144 56.6155 60.2641 56.267 59.2302 56.267H58.5154H58.5152H58.5133C56.0788 56.267 54.0977 58.1774 53.9699 60.58C53.9655 60.6615 53.9575 60.7421 53.9575 60.8246V62.7568C53.9575 62.7564 53.9575 62.7561 53.9575 62.7557C53.9575 62.6415 53.9519 62.5285 53.9434 62.4163V40.1675C53.9434 37.6539 51.9055 35.616 49.3919 35.616C46.878 35.616 44.8401 37.6539 44.8401 40.1678V62.8714V72.9798C44.8401 71.9971 44.526 71.0898 43.997 70.3461C43.1723 69.1867 41.8209 68.4282 40.2885 68.4282C37.9757 68.4282 36.0292 70.1605 35.7648 72.4574L33.4539 92.4683C33.3962 92.9666 33.37 93.4646 33.3742 93.9594C33.3927 96.1862 34.0262 98.3521 35.1838 100.223C35.3125 100.431 35.4475 100.636 35.5891 100.836C35.8511 101.207 36.1375 101.563 36.4424 101.905C36.7956 102.302 37.1748 102.678 37.5831 103.029L43.8309 108.408L44.8401 109.277V118.242H79.7237V109.277L84.6379 91.7753C86.4119 85.4575 86.478 78.7829 84.8301 72.4311Z" fill="#FFCEBF"/>
<path d="M84.6384 91.7743L79.7235 109.277V118.242H72.186C73.2731 117.742 73.9696 116.655 73.9696 115.459V109.277L78.8845 91.7743C80.6587 85.4579 80.7243 78.7829 79.0767 72.4313L76.9064 64.0758C76.6509 63.0938 76.0884 62.2571 75.336 61.6594C75.3384 61.6571 75.3431 61.6547 75.3454 61.6524C76.1212 61.0336 77.1056 60.6633 78.179 60.6633H78.2493C80.3259 60.6633 82.14 62.0649 82.6626 64.0758L84.8306 72.4313C86.4782 78.7829 86.4126 85.4579 84.6384 91.7743Z" fill="#FFB09E"/>
<path d="M44.8401 73.0226V84.7391C44.8401 86.1127 43.1249 86.7523 42.2364 85.7044C41.2106 84.4944 40.2724 82.7171 40.2724 80.263V73.3423C40.2724 71.5681 39.157 69.9861 37.4868 69.3915C38.2896 68.7629 39.307 68.4031 40.4015 68.4296C42.8915 68.4898 44.8401 70.5319 44.8401 73.0226Z" fill="#FFB09E"/>
<path d="M38.4597 21.6174H52.3396V29.6457H38.4597V21.6174Z" fill="#5986CB"/>
<path d="M115.507 5.84109H91.599V1.75781C91.599 0.787031 90.8122 0 89.8412 0H29.3207C28.3497 0 27.5629 0.787031 27.5629 1.75781V5.84109H4.49192C3.53333 5.84109 2.73364 6.64266 2.73364 7.59914L2.73411 53.7246C2.73411 54.6954 3.52091 55.4824 4.49192 55.4824H27.5631V68.3163C27.5631 69.2871 28.3499 70.0741 29.3209 70.0741H34.6855C34.3412 70.7381 34.1097 71.4729 34.0197 72.2555L31.7085 92.2669C31.6436 92.8327 31.6129 93.4069 31.6173 93.9593C31.6173 98.4713 33.9121 102.188 37.2313 105.045C39.182 106.725 41.1327 108.404 43.0834 110.083V118.242C43.0834 119.213 43.8702 120 44.8412 120H50.2497C51.2207 120 52.0075 119.213 52.0075 118.242C52.0075 117.271 51.2207 116.484 50.2497 116.484H46.599V109.277C46.599 108.765 46.3759 108.279 45.9883 107.945C44.064 106.288 42.1398 104.632 40.2156 102.975C37.3954 100.547 35.2056 97.8902 35.1329 93.9316C35.1299 93.5126 35.1531 93.0879 35.2011 92.6698L37.5123 72.6581C37.6743 71.2488 38.8684 70.1859 40.2897 70.1859C41.2218 70.1859 42.0006 70.6976 42.3845 71.1356C43.0154 71.8561 43.0836 72.6649 43.0836 72.9792V87.7983C43.0836 88.7691 43.8704 89.5561 44.8415 89.5561C45.8125 89.5561 46.5993 88.7691 46.5993 87.7983V40.1674C46.5993 38.6269 47.8527 37.3737 49.393 37.3737C50.9289 37.3737 52.1786 38.6196 52.1863 40.1536C52.1863 40.158 52.1856 40.1623 52.1856 40.1667C52.1856 40.1759 52.1868 40.1848 52.187 40.1939V62.4162C52.187 65.1012 55.7207 65.0944 55.7167 62.438C55.7162 62.0562 55.7146 60.9328 55.7233 60.6412C56.0368 57.0654 62.0312 57.1505 62.0312 60.8245V63.4875C62.0312 65.7546 65.5469 65.7546 65.5469 63.4875C65.5471 61.9448 66.8019 60.6898 68.3448 60.6898C70.0921 60.6898 71.8618 61.447 71.8618 63.4877V65.2195C71.8618 67.4637 75.3374 67.5014 75.3772 65.2505C75.3836 64.8839 75.4028 64.8021 75.4668 64.5319C76.1718 61.7808 80.2466 61.7677 80.9612 64.5183L83.1301 72.8723C84.6981 78.9166 84.6351 85.2888 82.9471 91.3001L78.0327 108.802C77.9891 108.957 77.9673 109.117 77.9673 109.277V116.484H58.6654C57.6943 116.484 56.9075 117.271 56.9075 118.242C56.9075 119.213 57.6943 120 58.6654 120H79.7251C80.6961 120 81.4829 119.213 81.4829 118.242V109.519L86.3317 92.2502C88.1875 85.6411 88.2573 78.6349 86.533 71.989L86.0359 70.0739H89.8419C90.8129 70.0739 91.5997 69.2869 91.5997 68.3161V16.4859H113.75V51.9668H98.106C97.135 51.9668 96.3482 52.7538 96.3482 53.7246C96.3482 54.6954 97.135 55.4824 98.106 55.4824H115.508C116.479 55.4824 117.265 54.6954 117.265 53.7246V7.59914V7.59891C117.265 6.62813 116.478 5.84109 115.507 5.84109ZM6.24974 9.35695H27.5631V12.9703H6.24974V9.35695ZM31.0797 3.51633H88.0827V12.9703H31.0797V3.51633ZM6.24974 51.9668V16.4859H27.5631V51.9668H6.24974ZM85.1226 66.5585L84.3634 63.6342C83.2534 59.3632 77.9706 57.5128 74.4217 60.1444C72.4984 57.075 67.9879 56.2313 64.9616 58.1587C63.3934 54.7863 58.964 53.5369 55.7022 55.1773V41.9243H71.6926C72.6311 41.9243 73.3944 42.6888 73.3944 43.6284V47.0051C73.3944 47.9433 72.6311 48.7066 71.6926 48.7066H62.0713C61.1003 48.7066 60.3135 49.4937 60.3135 50.4645C60.3135 51.4352 61.1003 52.2223 62.0713 52.2223H71.6926C74.5693 52.2223 76.9101 49.8818 76.9101 47.0051V43.6284C76.9101 40.7503 74.5696 38.4087 71.6926 38.4087H55.4509C54.6873 35.783 52.2613 33.8578 49.3925 33.8578C45.9135 33.8578 43.0832 36.6884 43.0832 40.1672V66.5583H31.0785V16.4859H88.0834V66.5585H85.1226ZM91.599 12.9703V9.35695H113.749V12.9703H91.599Z" fill="black"/>
<path d="M69.7733 6.57104H49.3899C48.4189 6.57104 47.6321 7.35808 47.6321 8.32886C47.6321 9.29964 48.4189 10.0867 49.3899 10.0867H69.7733C70.7443 10.0867 71.5311 9.29964 71.5311 8.32886C71.5311 7.35808 70.7443 6.57104 69.7733 6.57104Z" fill="black"/>
<path d="M52.3409 19.8596H38.4612C37.4902 19.8596 36.7034 20.6467 36.7034 21.6174V29.6457C36.7034 30.6165 37.4902 31.4035 38.4612 31.4035H52.3409C53.3119 31.4035 54.0987 30.6165 54.0987 29.6457V21.6174C54.0987 20.6467 53.3119 19.8596 52.3409 19.8596ZM50.5831 27.8879H40.219V23.3752H50.5831V27.8879Z" fill="black"/>
<path d="M96.8801 29.2329H107.322C108.293 29.2329 109.08 28.4459 109.08 27.4751C109.08 26.5043 108.293 25.7173 107.322 25.7173H96.8801C95.9091 25.7173 95.1223 26.5043 95.1223 27.4751C95.1223 28.4459 95.9093 29.2329 96.8801 29.2329Z" fill="black"/>
<path d="M107.322 36.7947C108.293 36.7947 109.08 36.0076 109.08 35.0369C109.08 34.0661 108.293 33.2791 107.322 33.2791H96.8801C95.9091 33.2791 95.1223 34.0661 95.1223 35.0369C95.1223 36.0076 95.9091 36.7947 96.8801 36.7947H107.322Z" fill="black"/>
<path d="M11.5869 29.2329H22.0288C22.9998 29.2329 23.7866 28.4459 23.7866 27.4751C23.7866 26.5043 22.9998 25.7173 22.0288 25.7173H11.5869C10.6159 25.7173 9.8291 26.5043 9.8291 27.4751C9.8291 28.4459 10.6161 29.2329 11.5869 29.2329Z" fill="black"/>
<path d="M22.0288 33.2791H11.5869C10.6159 33.2791 9.8291 34.0661 9.8291 35.0369C9.8291 36.0076 10.6159 36.7947 11.5869 36.7947H22.0288C22.9998 36.7947 23.7866 36.0076 23.7866 35.0369C23.7866 34.0661 22.9998 33.2791 22.0288 33.2791Z" fill="black"/>
<path d="M79.7242 23.8735H61.0764C60.1054 23.8735 59.3186 24.6606 59.3186 25.6313C59.3186 26.6021 60.1054 27.3892 61.0764 27.3892H79.7242C80.6952 27.3892 81.482 26.6021 81.482 25.6313C81.482 24.6606 80.6952 23.8735 79.7242 23.8735Z" fill="black"/>
</svg>
