<svg width="36" height="36" viewBox="0 0 36 36" fill="none" xmlns="http://www.w3.org/2000/svg">
<path d="M0 0.951416H1.71429V35.2371H0V0.951416Z" fill="black"/>
<path d="M0 33.5227H36V35.237H0V33.5227Z" fill="black"/>
<path d="M10.2859 35.2371H3.42871V23.2371H10.2859V35.2371ZM5.143 33.5228H8.57157V24.9513H5.143V33.5228Z" fill="#02B875"/>
<path d="M18.0002 35.237H11.1431V15.5227H18.0002V35.237ZM12.8574 33.5227H16.2859V17.237H12.8574V33.5227Z" fill="#7B50FF"/>
<path d="M25.7141 35.2372H18.8569V19.8086H25.7141V35.2372ZM20.5712 33.5229H23.9998V21.5229H20.5712V33.5229Z" fill="#FF6823"/>
<path d="M33.4284 35.237H26.5713V10.3799H33.4284V35.237ZM28.2856 33.5227H31.7141V12.0942H28.2856V33.5227Z" fill="#008FFF"/>
<path d="M5.63095 15.3688L4.65381 13.9631L13.5938 7.70599L20.3824 10.2517L30.2738 1.17456L31.4395 2.44313L20.7595 12.2231L13.8338 9.62599L5.63095 15.3688Z" fill="#83959D"/>
<path d="M31.9202 6.50571L30.223 6.28285L30.7973 1.90286L26.4002 2.29714L26.2373 0.591428L32.7688 0L31.9202 6.50571Z" fill="#83959D"/>
</svg>
