<svg width="46" height="46" viewBox="0 0 46 46" fill="none" xmlns="http://www.w3.org/2000/svg">
<path d="M8.39994 16.9411H27.5998C32.2318 16.9411 35.9997 13.1414 35.9997 8.47053C35.9997 3.79964 32.2318 0 27.5998 0H8.39994C3.76797 0 0 3.79964 0 8.47053C0 13.1414 3.76797 16.9411 8.39994 16.9411ZM8.39994 1.21008H27.5998C31.57 1.21008 34.7997 4.46699 34.7997 8.47053C34.7997 12.4741 31.57 15.731 27.5998 15.731H8.39994C4.42977 15.731 1.19999 12.4741 1.19999 8.47053C1.19999 4.46699 4.42977 1.21008 8.39994 1.21008Z" fill="#008FFF"/>
<path d="M27.5996 14.5214C30.9079 14.5214 33.5995 11.8072 33.5995 8.47103C33.5995 5.13485 30.9079 2.42065 27.5996 2.42065C24.2912 2.42065 21.5996 5.13485 21.5996 8.47103C21.5996 11.8072 24.2912 14.5214 27.5996 14.5214ZM27.5996 3.63073C30.2461 3.63073 32.3995 5.80221 32.3995 8.47103C32.3995 11.1399 30.2461 13.3113 27.5996 13.3113C24.953 13.3113 22.7996 11.1399 22.7996 8.47103C22.7996 5.80221 24.953 3.63073 27.5996 3.63073Z" fill="#008FFF"/>
<path d="M8.39994 35.9999L27.5998 35.9999C32.2318 35.9999 35.9997 32.2003 35.9997 27.5294C35.9997 22.8585 32.2318 19.0588 27.5998 19.0588L8.39994 19.0588C3.76797 19.0588 0 22.8585 0 27.5294C0 32.2003 3.76797 35.9999 8.39994 35.9999ZM8.39994 20.2689L27.5998 20.2689C31.57 20.2689 34.7997 23.5258 34.7997 27.5294C34.7997 31.5329 31.57 34.7898 27.5998 34.7898L8.39994 34.7898C4.42977 34.7898 1.19999 31.5329 1.19999 27.5294C1.19999 23.5258 4.42977 20.2689 8.39994 20.2689Z" fill="#008FFF"/>
<path d="M8.69917 33.5798C12.0076 33.5798 14.6991 30.8656 14.6991 27.5294C14.6991 24.1932 12.0076 21.479 8.69917 21.479C5.3908 21.479 2.69922 24.1932 2.69922 27.5294C2.69922 30.8656 5.3908 33.5798 8.69917 33.5798ZM8.69917 22.6891C11.3458 22.6891 13.4991 24.8606 13.4991 27.5294C13.4991 30.1982 11.3458 32.3697 8.69917 32.3697C6.05259 32.3697 3.89921 30.1982 3.89921 27.5294C3.89921 24.8606 6.05259 22.6891 8.69917 22.6891Z" fill="#008FFF"/>
</svg>
