<svg width="20" height="20" viewBox="0 0 20 20" fill="none" xmlns="http://www.w3.org/2000/svg">
<path d="M15.8333 2.49992H15V0.833252H13.3333V2.49992H6.66667V0.833252H5V2.49992H4.16667C3.25 2.49992 2.5 3.24992 2.5 4.16659V15.8333C2.5 16.7499 3.25 17.4999 4.16667 17.4999H15.8333C16.75 17.4999 17.5 16.7499 17.5 15.8333V4.16659C17.5 3.24992 16.75 2.49992 15.8333 2.49992ZM15.8333 15.8333H4.16667V7.49992H15.8333V15.8333ZM4.16667 5.83325V4.16659H15.8333V5.83325H4.16667ZM5.83333 9.16658H14.1667V10.8333H5.83333V9.16658ZM5.83333 12.4999H11.6667V14.1666H5.83333V12.4999Z" fill="black"/>
</svg>
