<svg width="16" height="16" viewBox="0 0 16 16" fill="none" xmlns="http://www.w3.org/2000/svg">
<path d="M13.6 0.800049H2.4C1.07513 0.801481 0.00143229 1.87518 0 3.20005V10.1334C0.00143229 11.4583 1.07513 12.5319 2.4 12.5334H3.14128L2.67201 14.88C2.65182 14.9809 2.69154 15.0843 2.77383 15.1459C2.85612 15.2075 2.96654 15.2162 3.05755 15.1683L8.06589 12.5334H13.6C14.9249 12.5319 15.9986 11.4583 16 10.1334V3.20005C15.9986 1.87518 14.9249 0.801481 13.6 0.800049ZM15.4667 10.1334C15.4655 11.1639 14.6305 11.9989 13.6 12H8C7.95664 12 7.91406 12.0106 7.87578 12.0308L3.30482 14.4366L3.72799 12.3201C3.74401 12.2416 3.72396 12.1601 3.67331 12.0981C3.62266 12.036 3.54675 12 3.46667 12H2.4C1.36953 11.9989 0.534505 11.1639 0.533333 10.1334V3.20005C0.534505 2.16958 1.36953 1.33455 2.4 1.33338H13.6C14.6305 1.33455 15.4655 2.16958 15.4667 3.20005V10.1334Z" fill="#83959D"/>
</svg>
