<svg width="363" height="200" viewBox="0 0 363 200" fill="none" xmlns="http://www.w3.org/2000/svg">
<g clip-path="url(#clip0)">
<path d="M312.932 199.28C340.24 199.28 362.377 196.229 362.377 192.465C362.377 188.701 340.24 185.65 312.932 185.65C285.624 185.65 263.487 188.701 263.487 192.465C263.487 196.229 285.624 199.28 312.932 199.28Z" fill="#E6E6E6"/>
<path d="M49.5895 200C76.977 200 99.179 196.949 99.179 193.185C99.179 189.421 76.977 186.37 49.5895 186.37C22.202 186.37 0 189.421 0 193.185C0 196.949 22.202 200 49.5895 200Z" fill="#E6E6E6"/>
<path d="M82.6403 91.4473L83.9159 94.0833C83.9159 94.0833 91.1563 103.746 86.6835 105.26C82.2107 106.774 79.8373 96.0953 79.8373 96.0953L78.6548 94.6007L82.6403 91.4473Z" fill="#FFB8B8"/>
<path d="M74.3 41.5328L75.4901 41.0293C75.4901 41.0293 76.8986 41.5328 76.8986 43.6983C76.8986 45.8638 75.1662 77.4802 75.1662 77.4802L78.631 94.8042L73.8669 95.6704L66.5042 79.6457L74.3 41.5328Z" fill="#575A89"/>
<path d="M74.3 41.5328L75.4901 41.0293C75.4901 41.0293 76.8986 41.5328 76.8986 43.6983C76.8986 45.8638 75.1662 77.4802 75.1662 77.4802L84.4778 92.4222L78.4144 96.7532L66.5042 79.6457L74.3 41.5328Z" fill="#575A89"/>
<path d="M73.4339 91.7729C73.4339 91.7729 79.0642 93.9384 78.6311 97.8364C78.198 101.734 72.5677 179.259 72.5677 179.259L74.3001 187.921L57.8422 188.354L57.4091 132.484L45.7154 188.354H29.2576L40.9513 90.0405L73.4339 91.7729Z" fill="#2F2E41"/>
<path d="M72.1346 186.189L76.0325 190.087C76.0325 190.087 85.1277 191.819 82.9622 194.851C80.7967 197.883 58.2754 193.985 58.2754 193.985L58.7085 187.055L72.1346 186.189Z" fill="#2F2E41"/>
<path d="M43.983 186.189L47.8809 190.087C47.8809 190.087 56.976 191.819 54.8105 194.851C52.645 197.883 30.1238 193.985 30.1238 193.985L30.5569 187.055L43.983 186.189Z" fill="#2F2E41"/>
<path d="M59.5746 25.9412C65.3153 25.9412 69.969 21.2875 69.969 15.5468C69.969 9.80609 65.3153 5.15234 59.5746 5.15234C53.8339 5.15234 49.1802 9.80609 49.1802 15.5468C49.1802 21.2875 53.8339 25.9412 59.5746 25.9412Z" fill="#FFB8B8"/>
<path d="M66.0711 21.6104L65.2048 39.3675L51.7788 31.5719L53.511 21.6104H66.0711Z" fill="#FFB8B8"/>
<path d="M51.3457 27.2407L63.9054 36.336L66.071 29.8393L69.9688 40.2338L67.8032 58.8573L51.3457 27.2407Z" fill="#CFCCE0"/>
<path d="M51.3456 25.9414L65.2048 44.9978L65.7067 29.0786L69.9689 32.4379V35.9027L76.0323 41.5331L73.8668 63.1881L73.4337 88.7411C73.4337 88.7411 76.0323 90.9066 75.1661 92.2059C74.2999 93.5052 70.8351 96.5369 66.9372 96.5369C63.0393 96.5369 38.7856 93.5052 38.7856 91.7728C38.7856 90.0404 39.6518 67.5191 39.6518 67.5191V37.202L50.0463 29.4062L51.3456 25.9414Z" fill="#575A89"/>
<path d="M37.9194 97.8362L43.5499 106.065L45.7154 96.5369L43.1169 94.8047L37.9194 97.8362Z" fill="#FFB8B8"/>
<path opacity="0.2" d="M65.2315 110.246L56.9055 132.799L57.7183 133.099L66.0443 110.546L65.2315 110.246Z" fill="black"/>
<path d="M53.2946 5.36902C53.2946 5.36902 54.5939 -1.12749 61.9567 0.171809L61.0904 0.604904C61.0904 0.604904 68.0201 -0.261296 67.1539 3.63661C67.1539 3.63661 72.7842 7.10142 71.4849 10.9993C70.7209 13.2585 70.1415 15.576 69.7525 17.9289L68.4532 16.6296C68.4532 16.6296 67.1539 7.96762 59.3581 8.83383C53.5112 9.48348 51.1291 12.2445 50.5201 14.2341C50.2397 15.1696 49.8818 16.08 49.4501 16.9561L48.9636 17.0627C48.9636 17.0627 46.365 7.53452 53.2946 5.36902Z" fill="#2F2E41"/>
<path d="M44.4161 36.7689L40.4735 36.5859L39.652 37.202C38.7092 38.1443 37.8404 39.1579 37.0534 40.2337C36.1872 41.533 24.9266 73.1494 24.9266 73.1494C24.7176 75.0697 25.0163 77.0111 25.7928 78.7797C27.0921 81.8115 37.4865 100.002 37.4865 100.002L45.2823 95.2376L34.8879 74.0156L42.2506 63.6212L44.4161 36.7689Z" fill="#575A89"/>
<path d="M298.237 172.654V184.32H305.237L306.17 172.654H298.237Z" fill="#A0616A"/>
<path d="M314.802 173.354L317.602 179.887L322.268 181.754L323.201 168.688L319.468 166.822L314.802 173.354Z" fill="#A0616A"/>
<path d="M320.868 178.954C320.868 178.954 320.473 176.008 316.471 177.248L317.135 185.953C317.135 185.953 313.869 195.753 318.535 194.819C323.202 193.886 326.001 185.02 326.001 185.02L329.268 170.088L321.38 167.777L320.868 178.954Z" fill="#2F2E41"/>
<path d="M291.471 80.0293C291.471 80.0293 284.938 129.492 287.271 135.091C289.604 140.691 314.102 176.854 314.102 176.854L324.835 162.856L300.803 132.758L323.202 101.961L325.068 83.2957L291.471 80.0293Z" fill="#2F2E41"/>
<path d="M317.135 97.7607L323.296 101.021L323.201 101.96L308.036 177.787L296.37 175.454L304.07 122.025L317.135 97.7607Z" fill="#2F2E41"/>
<path d="M297.537 180.821L294.737 185.02C294.737 185.02 288.671 195.286 295.204 195.286C301.737 195.286 304.536 195.286 305.003 192.953C305.346 191.363 305.814 189.803 306.403 188.287L305.936 182.221L297.537 180.821Z" fill="#2F2E41"/>
<path d="M315.735 26.367C321.405 26.367 326.001 21.7709 326.001 16.1012C326.001 10.4316 321.405 5.83545 315.735 5.83545C310.066 5.83545 305.47 10.4316 305.47 16.1012C305.47 21.7709 310.066 26.367 315.735 26.367Z" fill="#A0616A"/>
<path d="M307.336 19.3677C307.336 19.3677 308.736 27.3003 304.537 28.7002C300.337 30.1001 309.67 48.7652 309.67 48.7652L320.402 31.0333C320.402 31.0333 317.602 24.9672 319.469 22.1674L307.336 19.3677Z" fill="#A0616A"/>
<path d="M309.67 40.8326L307.136 25.6265L302.203 28.7003L289.138 36.1663L294.271 58.0978L292.404 71.63C292.404 71.63 290.071 75.8296 290.538 77.6961C291.004 79.5626 290.071 80.4959 290.538 80.9625C291.004 81.4291 314.336 85.1621 321.335 87.9619C328.335 90.7617 329.268 91.6949 328.801 89.3618C328.335 87.0286 323.202 75.8296 323.202 75.8296L327.401 57.1645L333.001 40.8326L319.407 28.2872L309.67 40.8326Z" fill="#575A89"/>
<path d="M329.734 61.3641L333.001 70.23L324.601 85.6287L321.861 87.7603C321.428 88.097 321.103 88.5534 320.928 89.0729C320.752 89.5924 320.733 90.1521 320.872 90.6824L322.735 97.7609L327.617 90.5102C327.617 90.5102 340.933 74.4296 340.467 70.23C340 66.0303 338.6 59.4976 338.6 59.4976L329.734 61.3641Z" fill="#A0616A"/>
<path d="M283.538 53.8979L281.205 65.5636L272.339 87.4951C272.339 87.4951 262.54 96.8276 267.207 98.6941C271.873 100.561 277.472 89.3616 277.472 89.3616L288.671 68.3634L292.871 55.7645L283.538 53.8979Z" fill="#A0616A"/>
<path d="M327.868 39.8992L331.624 39.562L333.001 40.8325C333.001 40.8325 340.934 58.5643 340 60.4308C339.067 62.2973 329.734 63.2306 329.734 63.2306L326.001 52.0315L327.868 39.8992Z" fill="#575A89"/>
<path d="M292.404 36.6328L290.089 35.6226L289.138 36.1662C289.138 36.1662 279.805 54.8313 282.138 55.7645C284.471 56.6978 295.671 58.0977 295.671 58.0977L292.404 36.6328Z" fill="#575A89"/>
<path opacity="0.2" d="M302.203 134.978L299.359 154.717L296.711 150.65L302.203 134.978Z" fill="black"/>
<path d="M322.408 10.0217C322.408 10.0217 323.442 12.7431 318.643 11.348C318.643 11.348 316.742 12.2748 316.853 10.6931C316.853 10.6931 314.232 13.159 313.734 11.5347C313.235 9.91041 311.87 11.9342 311.87 11.9342L310.836 9.21287L309.507 10.7094L305.244 10.4115C305.244 10.4115 304.762 -0.218449 319.306 1.85772C333.85 3.93389 325.491 20.1384 325.491 20.1384C325.491 20.1384 325.583 17.1313 324.255 18.6278C322.926 20.1244 322.408 10.0217 322.408 10.0217Z" fill="#2F2E41"/>
<path d="M86.0991 93.8315V138.639H273.272V93.8315H86.0991ZM198.243 131.121H97.6769V124.806H198.243V131.121ZM198.243 119.393H97.6769V113.078H198.243V119.393ZM261.695 107.665H97.6769V101.35H261.695V107.665Z" fill="#008FFF"/>
<path d="M189.259 74.0537H163.999V48.793H181.14V49.3947H164.6V73.4523H188.658V61.4233H189.259V74.0537Z" fill="#3F3D56"/>
<path d="M176.499 67.4648C175.915 65.7412 168.595 59.882 173.081 58.8972L176.759 63.8021L193.672 46.8901L195.373 48.5911L176.499 67.4648Z" fill="#008FFF"/>
</g>
<defs>
<clipPath id="clip0">
<rect width="362.377" height="200" fill="white"/>
</clipPath>
</defs>
</svg>
