<svg width="363" height="200" viewBox="0 0 363 200" fill="none" xmlns="http://www.w3.org/2000/svg">
<g clip-path="url(#clip0)">
<path d="M312.932 199.281C340.24 199.281 362.377 196.229 362.377 192.465C362.377 188.701 340.24 185.65 312.932 185.65C285.624 185.65 263.487 188.701 263.487 192.465C263.487 196.229 285.624 199.281 312.932 199.281Z" fill="#E6E6E6"/>
<path d="M49.5895 200C76.977 200 99.179 196.949 99.179 193.185C99.179 189.421 76.977 186.37 49.5895 186.37C22.202 186.37 0 189.421 0 193.185C0 196.949 22.202 200 49.5895 200Z" fill="#E6E6E6"/>
<path d="M82.6403 91.447L83.916 94.0831C83.916 94.0831 91.1563 103.746 86.6835 105.26C82.2107 106.773 79.8374 96.0951 79.8374 96.0951L78.6548 94.6005L82.6403 91.447Z" fill="#FFB8B8"/>
<path d="M74.3 41.5331L75.4901 41.0295C75.4901 41.0295 76.8986 41.5331 76.8986 43.6986C76.8986 45.8641 75.1662 77.4804 75.1662 77.4804L78.631 94.8045L73.8669 95.6707L66.5042 79.646L74.3 41.5331Z" fill="#575A89"/>
<path d="M74.3 41.5331L75.4902 41.0295C75.4902 41.0295 76.8986 41.5331 76.8986 43.6986C76.8986 45.8641 75.1662 77.4804 75.1662 77.4804L84.4779 92.4224L78.4145 96.7534L66.5042 79.646L74.3 41.5331Z" fill="#575A89"/>
<path d="M73.4338 91.7727C73.4338 91.7727 79.0641 93.9382 78.631 97.8361C78.1979 101.734 72.5676 179.259 72.5676 179.259L74.3 187.921L57.8421 188.354L57.409 132.484L45.7153 188.354H29.2574L40.9512 90.0403L73.4338 91.7727Z" fill="#2F2E41"/>
<path d="M72.1345 186.189L76.0324 190.087C76.0324 190.087 85.1275 191.819 82.962 194.851C80.7965 197.883 58.2753 193.985 58.2753 193.985L58.7084 187.055L72.1345 186.189Z" fill="#2F2E41"/>
<path d="M43.983 186.189L47.8809 190.087C47.8809 190.087 56.976 191.819 54.8105 194.851C52.645 197.883 30.1237 193.985 30.1237 193.985L30.5568 187.055L43.983 186.189Z" fill="#2F2E41"/>
<path d="M59.5745 25.9414C65.3152 25.9414 69.969 21.2877 69.969 15.547C69.969 9.80633 65.3152 5.15259 59.5745 5.15259C53.8339 5.15259 49.1801 9.80633 49.1801 15.547C49.1801 21.2877 53.8339 25.9414 59.5745 25.9414Z" fill="#FFB8B8"/>
<path d="M66.0711 21.6104L65.2048 39.3675L51.7788 31.5719L53.511 21.6104H66.0711Z" fill="#FFB8B8"/>
<path d="M51.3458 27.2407L63.9055 36.336L66.0711 29.8393L69.9689 40.2338L67.8033 58.8573L51.3458 27.2407Z" fill="#CFCCE0"/>
<path d="M51.3456 25.9414L65.2048 44.9978L65.7067 29.0786L69.969 32.4379V35.9027L76.0324 41.5331L73.8669 63.1881L73.4338 88.7411C73.4338 88.7411 76.0324 90.9066 75.1662 92.2059C74.3 93.5052 70.8352 96.5369 66.9373 96.5369C63.0393 96.5369 38.7857 93.5052 38.7857 91.7728C38.7857 90.0404 39.6519 67.5191 39.6519 67.5191V37.202L50.0463 29.4062L51.3456 25.9414Z" fill="#575A89"/>
<path d="M37.9194 97.8359L43.5498 106.065L45.7154 96.5367L43.1169 94.8044L37.9194 97.8359Z" fill="#FFB8B8"/>
<path opacity="0.2" d="M65.2316 110.246L56.9055 132.799L57.7183 133.099L66.0443 110.546L65.2316 110.246Z" fill="black"/>
<path d="M53.2946 5.36902C53.2946 5.36902 54.5939 -1.12749 61.9567 0.171809L61.0904 0.604904C61.0904 0.604904 68.0201 -0.261296 67.1539 3.63661C67.1539 3.63661 72.7842 7.10142 71.4849 10.9993C70.7209 13.2585 70.1415 15.576 69.7525 17.9289L68.4532 16.6296C68.4532 16.6296 67.1539 7.96762 59.3581 8.83383C53.5112 9.48348 51.1291 12.2445 50.5201 14.2341C50.2397 15.1696 49.8818 16.08 49.4501 16.9561L48.9636 17.0627C48.9636 17.0627 46.365 7.53452 53.2946 5.36902Z" fill="#2F2E41"/>
<path d="M44.416 36.7689L40.4734 36.5859L39.6519 37.202C38.7091 38.1443 37.8403 39.1579 37.0533 40.2337C36.1871 41.533 24.9265 73.1494 24.9265 73.1494C24.7175 75.0697 25.0162 77.0111 25.7927 78.7797C27.092 81.8115 37.4864 100.002 37.4864 100.002L45.2823 95.2376L34.8878 74.0156L42.2505 63.6212L44.416 36.7689Z" fill="#575A89"/>
<path d="M298.237 172.655V184.32H305.237L306.17 172.655H298.237Z" fill="#A0616A"/>
<path d="M314.802 173.354L317.602 179.887L322.268 181.754L323.201 168.688L319.468 166.822L314.802 173.354Z" fill="#A0616A"/>
<path d="M320.868 178.954C320.868 178.954 320.473 176.008 316.471 177.248L317.135 185.953C317.135 185.953 313.869 195.752 318.535 194.819C323.201 193.886 326.001 185.02 326.001 185.02L329.268 170.088L321.38 167.777L320.868 178.954Z" fill="#2F2E41"/>
<path d="M291.471 80.0291C291.471 80.0291 284.938 129.491 287.271 135.091C289.604 140.69 314.102 176.854 314.102 176.854L324.835 162.855L300.803 132.758L323.202 101.961L325.068 83.2954L291.471 80.0291Z" fill="#2F2E41"/>
<path d="M317.135 97.7607L323.296 101.021L323.201 101.96L308.036 177.787L296.37 175.454L304.07 122.025L317.135 97.7607Z" fill="#2F2E41"/>
<path d="M297.537 180.821L294.737 185.02C294.737 185.02 288.671 195.286 295.204 195.286C301.737 195.286 304.537 195.286 305.003 192.953C305.346 191.363 305.814 189.803 306.403 188.287L305.936 182.22L297.537 180.821Z" fill="#2F2E41"/>
<path d="M315.736 26.3673C321.405 26.3673 326.001 21.7711 326.001 16.1015C326.001 10.4318 321.405 5.83569 315.736 5.83569C310.066 5.83569 305.47 10.4318 305.47 16.1015C305.47 21.7711 310.066 26.3673 315.736 26.3673Z" fill="#A0616A"/>
<path d="M307.336 19.3674C307.336 19.3674 308.736 27.3001 304.537 28.7C300.337 30.0998 309.669 48.7649 309.669 48.7649L320.402 31.0331C320.402 31.0331 317.602 24.9669 319.469 22.1672L307.336 19.3674Z" fill="#A0616A"/>
<path d="M309.669 40.8324L307.136 25.6262L302.203 28.7001L289.138 36.1661L294.271 58.0975L292.404 71.6297C292.404 71.6297 290.071 75.8294 290.538 77.6959C291.004 79.5624 290.071 80.4956 290.538 80.9623C291.004 81.4289 314.336 85.1619 321.335 87.9616C328.334 90.7614 329.268 91.6947 328.801 89.3615C328.334 87.0284 323.202 75.8294 323.202 75.8294L327.401 57.1643L333.001 40.8324L319.407 28.2869L309.669 40.8324Z" fill="#575A89"/>
<path d="M329.734 61.3643L333.001 70.2302L324.601 85.6289L321.861 87.7606C321.428 88.0973 321.103 88.5537 320.928 89.0732C320.752 89.5926 320.733 90.1523 320.872 90.6826L322.735 97.7612L327.617 90.5104C327.617 90.5104 340.933 74.4299 340.467 70.2302C340 66.0306 338.6 59.4978 338.6 59.4978L329.734 61.3643Z" fill="#A0616A"/>
<path d="M283.538 53.8979L281.205 65.5636L272.339 87.4951C272.339 87.4951 262.54 96.8276 267.206 98.6941C271.873 100.561 277.472 89.3616 277.472 89.3616L288.671 68.3634L292.871 55.7645L283.538 53.8979Z" fill="#A0616A"/>
<path d="M327.868 39.8992L331.624 39.562L333.001 40.8325C333.001 40.8325 340.933 58.5643 340 60.4308C339.067 62.2973 329.734 63.2306 329.734 63.2306L326.001 52.0315L327.868 39.8992Z" fill="#575A89"/>
<path d="M292.404 36.6326L290.089 35.6223L289.138 36.166C289.138 36.166 279.805 54.8311 282.138 55.7643C284.472 56.6976 295.671 58.0974 295.671 58.0974L292.404 36.6326Z" fill="#575A89"/>
<path opacity="0.2" d="M302.203 134.978L299.359 154.717L296.711 150.65L302.203 134.978Z" fill="black"/>
<path d="M322.408 10.0217C322.408 10.0217 323.442 12.7431 318.643 11.348C318.643 11.348 316.742 12.2748 316.853 10.6931C316.853 10.6931 314.232 13.159 313.734 11.5347C313.235 9.91041 311.87 11.9342 311.87 11.9342L310.836 9.21287L309.507 10.7094L305.244 10.4115C305.244 10.4115 304.763 -0.218449 319.306 1.85772C333.85 3.93389 325.492 20.1384 325.492 20.1384C325.492 20.1384 325.583 17.1313 324.255 18.6278C322.926 20.1244 322.408 10.0217 322.408 10.0217Z" fill="#2F2E41"/>
<path d="M86.099 93.8318V138.639H273.272V93.8318H86.099ZM198.243 131.121H97.6768V124.806H198.243V131.121ZM198.243 119.393H97.6768V113.078H198.243V119.393ZM261.695 107.665H97.6768V101.35H261.695V107.665Z" fill="#008FFF"/>
<path d="M189.259 74.0534H163.999V48.7927H181.14V49.3945H164.6V73.4521H188.658V61.4231H189.259V74.0534Z" fill="#3F3D56"/>
<path d="M176.499 67.4648C175.915 65.7412 168.595 59.882 173.081 58.8972L176.759 63.8021L193.672 46.8901L195.373 48.5911L176.499 67.4648Z" fill="#008FFF"/>
</g>
<defs>
<clipPath id="clip0">
<rect width="362.377" height="200" fill="white"/>
</clipPath>
</defs>
</svg>
