<svg width="20" height="20" viewBox="0 0 20 20" fill="none" xmlns="http://www.w3.org/2000/svg">
<path d="M15.8333 2.50065H15V0.833984H13.3333V2.50065H6.66667V0.833984H5V2.50065H4.16667C3.25 2.50065 2.5 3.25065 2.5 4.16732V15.834C2.5 16.7507 3.25 17.5007 4.16667 17.5007H15.8333C16.75 17.5007 17.5 16.7507 17.5 15.834V4.16732C17.5 3.25065 16.75 2.50065 15.8333 2.50065ZM15.8333 15.834H4.16667V7.50065H15.8333V15.834ZM4.16667 5.83398V4.16732H15.8333V5.83398H4.16667ZM5.83333 9.16732H14.1667V10.834H5.83333V9.16732ZM5.83333 12.5007H11.6667V14.1673H5.83333V12.5007Z" fill="#757575"/>
</svg>
