<svg width="20" height="20" viewBox="0 0 20 20" fill="none" xmlns="http://www.w3.org/2000/svg">
<path d="M14.2043 16.4286H1.64284C1.46509 16.4286 1.32141 16.5726 1.32141 16.75C1.32141 16.9274 1.46509 17.0714 1.64284 17.0714H14.2043C14.3611 18.1601 15.2974 19 16.4286 19C17.6689 19 18.6786 17.9907 18.6786 16.75C18.6786 15.5093 17.6689 14.5 16.4286 14.5C15.2974 14.5 14.3611 15.3399 14.2043 16.4286ZM18.0357 16.75C18.0357 17.6362 17.3147 18.3571 16.4286 18.3571C15.5424 18.3571 14.8214 17.6362 14.8214 16.75C14.8214 15.8638 15.5424 15.1429 16.4286 15.1429C17.3147 15.1429 18.0357 15.8638 18.0357 16.75Z" fill="black"/>
<path d="M7.65195 9.67856H1.64284C1.46509 9.67856 1.32141 9.82256 1.32141 9.99998C1.32141 10.1774 1.46509 10.3214 1.64284 10.3214H7.6317C7.75898 11.4792 8.74255 12.3831 9.93344 12.3831C11.1243 12.3831 12.1079 11.4792 12.2352 10.3214H18.3571C18.5349 10.3214 18.6786 10.1774 18.6786 9.99998C18.6786 9.82256 18.5349 9.67856 18.3571 9.67856H12.2149C12.0295 8.5857 11.0784 7.74998 9.93344 7.74998C8.78852 7.74998 7.83741 8.5857 7.65195 9.67856ZM11.6071 10.0665C11.6071 10.9893 10.8563 11.7402 9.93344 11.7402C9.01062 11.7402 8.25977 10.9897 8.25977 10.0665C8.25977 9.14338 9.01062 8.39284 9.93344 8.39284C10.8563 8.39284 11.6071 9.1437 11.6071 10.0665Z" fill="black"/>
<path d="M3.57141 1C2.33102 1 1.32141 2.00929 1.32141 3.25C1.32141 4.49071 2.33102 5.5 3.57141 5.5C4.70252 5.5 5.63884 4.66011 5.7957 3.57143L18.3571 3.57143C18.5349 3.57143 18.6786 3.42743 18.6786 3.25C18.6786 3.07257 18.5349 2.92857 18.3571 2.92857L5.7957 2.92857C5.63884 1.83989 4.70252 1 3.57141 1ZM5.17855 3.25C5.17855 4.13618 4.45759 4.85714 3.57141 4.85714C2.68523 4.85714 1.96427 4.13618 1.96427 3.25C1.96427 2.36382 2.68523 1.64286 3.57141 1.64286C4.45759 1.64286 5.17855 2.36382 5.17855 3.25Z" fill="black"/>
</svg>
