<svg width="492" height="204" viewBox="0 0 492 204" fill="none" xmlns="http://www.w3.org/2000/svg">
<path d="M478.356 199.415H13.652C13.652 199.415 13.2512 195.579 13.1324 189.382C13.0655 185.771 13.0894 181.357 13.3493 176.438C13.3717 176.037 13.394 175.628 13.4182 175.22C13.5539 172.964 13.7362 170.606 13.9825 168.178C14.0048 167.964 14.0271 167.746 14.0513 167.53C14.3195 164.99 14.6535 162.353 15.0699 159.641C15.4089 157.439 15.7995 155.185 16.2571 152.896C16.288 152.736 16.3208 152.574 16.3533 152.413C16.5891 151.247 16.8421 150.077 17.1123 148.893C17.2171 148.43 17.3254 147.966 17.4357 147.499C17.6523 146.59 17.8795 145.676 18.1169 144.764C18.6952 142.521 19.3404 140.263 20.056 137.999C20.1283 137.77 20.2026 137.537 20.2746 137.302C20.5999 136.295 20.9405 135.283 21.2932 134.269C21.8333 132.729 22.4065 131.188 23.0173 129.649C23.3974 128.684 23.7966 127.723 24.208 126.758C28.105 117.645 33.3253 108.722 40.2955 100.735C56.2607 82.4364 81.4089 69.0348 120.87 69.427C128.802 69.5045 136.175 69.298 143.055 68.8421H143.066C145.157 68.7044 147.204 68.5429 149.207 68.3587L149.227 68.3568C194.809 64.1656 217.649 48.536 238.412 33.2915C239.157 32.7445 239.901 32.1971 240.642 31.6519C247.905 26.3026 255.003 21.0546 262.834 16.4212C264.838 15.234 266.893 14.0883 269.01 12.9903C281.993 6.261 297.357 1.37303 318.586 0.319992C320.657 0.216751 322.674 0.232376 324.643 0.359497C325.399 0.407608 326.141 0.472916 326.877 0.553848C335.132 1.46065 342.432 4.39771 348.55 9.0451C364.471 21.1374 372.379 44.7951 368.24 74.329C365.437 94.3308 371.768 105.176 382.613 112.264C412.631 131.893 477.219 122.755 478.356 199.415Z" fill="#F8FBFF"/>
<path d="M253.684 122.878V113.747H251.544V98.0434H240.064V113.747H229.333V88.1587H217.489V104.769H214.788V84.9395H202.946V122.118H187.969V143.799H182.374V134.148H169.518V139.856H162.138V114.299H153.02V133.215H143.903V202.528H153.02H160.833H162.138H169.518H173.689H180.372H182.374H187.969H193.226H202.946H205.921H211.845H214.788H217.489H223.689H227.909H229.333H240.064H251.352H251.544H253.684H262.831V122.878H253.684Z" fill="#E7F1FB"/>
<path d="M382.226 154.266V202.528H267.298V160.528H276.108V149.068H284.921V164.553H292.053V161.094H304.472V166.942H309.883V153.805H324.356V131.279H335.801V143.293H338.41V133.23H349.855V148.733H360.223V139.218H371.32V148.733H373.387V154.266H382.226Z" fill="#E7F1FB"/>
<path d="M145.072 135.346V202.283H40.2949V144.035H48.3265V128.139H56.3583V149.615H62.8603V144.816H74.187V152.929H79.1164V134.711H92.3115V103.466H102.745V120.129H105.125V106.17H115.558V127.673H125.015V114.477H135.128V127.673H137.014V135.346H145.072Z" fill="#E7F1FB"/>
<path d="M269.008 12.9906V202.088H262.834V16.4215C264.837 15.2329 266.891 14.0879 269.008 12.9906Z" fill="#DEEDFF"/>
<path d="M149.227 68.3578V202.089H143.055V68.8438L149.227 68.3578Z" fill="#DEEDFF"/>
<path d="M240.638 31.652V46.3526C240.638 48.203 240.17 49.7114 239.597 49.7114H239.448C238.875 49.7114 238.407 48.203 238.407 46.3526V33.2918C239.153 32.7446 239.896 32.1974 240.638 31.652Z" fill="#F99746"/>
<path d="M238.945 43.7787C230.82 43.7787 224.234 50.7439 224.234 59.3359H253.656C253.656 50.7439 247.071 43.7787 238.945 43.7787Z" fill="#F99746"/>
<path d="M240.118 43.9695C239.695 43.8777 239.265 43.8291 238.826 43.8291C233.532 43.8291 229.241 50.7717 229.241 59.3379H231.826C231.826 51.4809 235.436 44.9919 240.118 43.9695Z" fill="#FFB278"/>
<path d="M326.874 0.555187V42.7973C326.874 43.1674 326.87 43.5308 326.861 43.8829C326.779 47.1779 326.348 49.7124 325.829 49.7124H325.683C325.204 49.7124 324.798 47.5323 324.678 44.587C324.667 44.3455 324.658 44.0973 324.656 43.8445C324.656 43.8264 324.653 43.8107 324.653 43.7903C324.647 43.4676 324.642 43.1359 324.642 42.7973V0.361103C325.394 0.408497 326.138 0.473938 326.874 0.555187Z" fill="#F99746"/>
<path d="M325.174 43.7802C317.047 43.7802 310.462 50.746 310.462 59.3374H339.886C339.886 50.746 333.299 43.7802 325.174 43.7802Z" fill="#F99746"/>
<path d="M326.347 43.9686C325.924 43.8785 325.493 43.8289 325.056 43.8289C319.762 43.8289 315.469 50.7725 315.469 59.3364H318.054C318.054 51.4801 321.666 44.9918 326.347 43.9686Z" fill="#FFB278"/>
<path d="M478.354 202.323H382.226V202.35H348.548V9.0453C364.469 21.3221 372.378 45.3411 368.239 75.326C365.435 95.633 371.766 106.644 382.612 113.84C412.629 133.768 477.217 124.49 478.354 202.323Z" fill="#DEEDFF"/>
<path d="M418.985 179.488C418.985 179.488 415.275 175.159 418.758 172.41C418.758 172.41 421.298 170.871 423.371 170.995C423.371 170.995 420.433 175.922 421.386 176.412C422.336 176.901 424.262 170.688 424.262 170.688C424.262 170.688 430.049 170.126 431.91 171.021C431.91 171.021 426.964 175.069 428.005 175.31C429.046 175.551 434.391 171.577 434.391 171.577C434.391 171.577 439.774 172.495 439.488 175.78C439.199 179.065 437.344 180.078 436.529 179.992C435.712 179.904 430.943 178.082 430.84 178.751C430.736 179.419 433.606 181.603 435.618 181.705C435.618 181.705 431.822 185.892 429.297 184.684C426.775 183.474 426.56 181.559 424.988 180.841C423.413 180.123 422.07 180.125 422.719 180.857C423.371 181.59 426.215 182.303 427.117 183.894C428.014 185.483 428.822 186.558 426.212 186.164C423.601 185.771 419.357 183.861 419.171 181.675C418.985 179.488 418.985 179.488 418.985 179.488Z" fill="#82B378"/>
<path d="M436.844 175.868C436.844 175.868 422.218 175.305 418.988 179.488C418.988 179.488 418.273 181.626 416.077 183.574L415.731 184.508C415.731 184.508 418.267 181.837 419.173 181.675C419.173 181.675 417.754 176.493 436.844 175.868Z" fill="#82B378"/>
<path d="M416.08 183.574C416.08 183.574 412.938 185.896 412.721 190.044L413.29 190.095C413.29 190.095 414.292 185.806 416.105 184.128C417.919 182.45 416.08 183.574 416.08 183.574Z" fill="#82B378"/>
<path d="M406.02 174.044C406.02 174.044 411.919 170.74 409.165 166.254C409.165 166.254 406.964 163.502 404.603 162.793C404.603 162.793 405.861 169.482 404.603 169.638C403.344 169.795 403.736 162.086 403.736 162.086C403.736 162.086 397.52 159.095 395.08 159.331C395.08 159.331 398.937 165.862 397.678 165.703C396.419 165.547 392.09 158.937 392.09 158.937C392.09 158.937 385.719 157.758 384.696 161.535C383.674 165.311 385.324 167.199 386.269 167.435C387.214 167.671 393.271 167.593 393.116 168.38C392.957 169.167 388.867 170.425 386.583 169.717C386.583 169.717 389.1 175.933 392.407 175.618C395.711 175.303 396.733 173.258 398.781 173.099C400.826 172.943 402.321 173.494 401.299 174.044C400.273 174.595 396.814 174.225 395.161 175.63C393.507 177.034 392.171 177.9 395.239 178.528C398.306 179.158 403.816 178.766 404.917 176.404C406.02 174.044 406.02 174.044 406.02 174.044Z" fill="#A8D29F"/>
<path d="M387.607 162.713C387.607 162.713 404.13 168.065 406.017 174.045C406.017 174.045 405.94 176.719 407.592 179.788V180.967C407.592 180.967 405.862 176.955 404.916 176.404C404.916 176.404 408.615 171.211 387.607 162.713Z" fill="#82B378"/>
<path d="M407.591 179.788C407.591 179.788 410.14 183.656 408.687 188.367L408.031 188.19C408.031 188.19 408.668 183.003 407.337 180.395C406.003 177.785 407.591 179.788 407.591 179.788Z" fill="#82B378"/>
<path d="M415.409 169.487C415.409 169.487 407.63 165.131 411.26 159.22C411.26 159.22 414.163 155.59 417.275 154.655C417.275 154.655 415.615 163.472 417.275 163.679C418.936 163.887 418.417 153.723 418.417 153.723C418.417 153.723 426.611 149.781 429.824 150.092C429.824 150.092 424.742 158.702 426.402 158.493C428.06 158.286 433.765 149.574 433.765 149.574C433.765 149.574 442.164 148.019 443.515 152.997C444.862 157.974 442.686 160.464 441.44 160.775C440.197 161.087 432.209 160.982 432.417 162.019C432.623 163.058 438.018 164.715 441.026 163.783C441.026 163.783 437.708 171.977 433.35 171.561C428.995 171.147 427.648 168.45 424.951 168.243C422.253 168.035 420.283 168.762 421.63 169.487C422.98 170.213 427.541 169.725 429.72 171.577C431.899 173.427 433.663 174.569 429.615 175.398C425.571 176.228 418.313 175.71 416.858 172.599C415.409 169.487 415.409 169.487 415.409 169.487Z" fill="#A8D29F"/>
<path d="M439.673 154.553C439.673 154.553 417.892 161.605 415.403 169.487C415.403 169.487 415.506 173.014 413.327 177.058V178.613C413.327 178.613 415.61 173.325 416.854 172.6C416.854 172.6 411.979 165.754 439.673 154.553Z" fill="#82B378"/>
<path d="M413.332 177.058C413.332 177.058 409.975 182.16 411.89 188.368L412.752 188.136C412.752 188.136 411.915 181.297 413.671 177.857C415.429 174.418 413.332 177.058 413.332 177.058Z" fill="#82B378"/>
<path d="M415.145 201.831C423.56 201.831 430.382 195.009 430.382 186.594H399.907C399.907 195.009 406.729 201.831 415.145 201.831Z" fill="#F1A34F"/>
<path d="M418.891 201.714C418.273 201.794 417.641 201.832 416.997 201.832C408.581 201.832 401.762 195.01 401.762 186.594H405.548C405.548 194.369 411.369 200.784 418.891 201.714Z" fill="#FFB973"/>
<path d="M430.592 202.607H399.696C399.696 201.569 400.541 200.728 401.577 200.728H428.712C429.75 200.728 430.592 201.569 430.592 202.607Z" fill="#F1A34F"/>
<path d="M430.728 187.062H399.405V186.594H430.728V187.062Z" fill="#D86713"/>
<path d="M351.094 154.861C351.37 148.145 351.968 142.306 352.681 138.232C353.819 131.74 354.842 128.003 354.855 127.963C355.005 127.393 357.171 125.081 361.99 125.153C366.806 125.226 366.348 128.255 366.348 128.255C366.348 128.358 366.333 128.453 366.316 128.523C366.268 128.68 361.847 144.493 362.038 164.908C362.04 165.196 362.075 165.691 362.053 166.021C362.053 166.022 350.892 166.305 350.889 166.021C350.499 164.237 350.689 159.292 351.094 154.861Z" fill="#D1A586"/>
<path d="M349.691 164.809C349.696 165.093 349.846 165.32 350.033 165.32H350.038C350.222 165.316 350.369 165.088 350.374 164.809H359.94C359.942 165.093 360.094 165.32 360.279 165.32H360.284C360.474 165.316 360.623 165.081 360.621 164.793C360.566 158.948 360.903 153.492 361.414 148.675C362.686 136.662 365.035 128.634 365.07 128.524C365.09 128.452 365.105 128.357 365.105 128.254C365.105 128.254 365.562 125.225 360.745 125.153C355.929 125.081 353.762 127.392 353.612 127.963C353.602 127.993 353.023 130.109 352.25 133.912C351.996 135.172 351.719 136.616 351.434 138.23C350.724 142.303 350.125 148.146 349.851 154.858C349.444 159.292 349.302 163.025 349.691 164.809Z" fill="#E5BD9E"/>
<path d="M349.689 164.809C349.694 165.093 349.845 165.32 350.032 165.32H350.035C350.22 165.317 350.368 165.088 350.373 164.809H359.937C359.942 165.093 360.093 165.32 360.278 165.32H360.283C360.473 165.317 360.621 165.081 360.619 164.793C360.564 158.948 360.903 153.492 361.414 148.676C359.831 141.052 353.718 135.222 352.249 133.912C351.995 135.172 351.719 136.615 351.435 138.23C350.721 142.303 350.124 148.146 349.85 154.858C349.442 159.292 349.302 163.025 349.689 164.809Z" fill="#DFB697"/>
<path d="M357.196 164.053C358.267 164.053 359.021 164.101 359.287 164.369C359.287 164.371 359.287 164.371 359.287 164.371C359.292 164.101 359.307 163.599 359.332 162.65C359.364 161.534 359.418 159.792 359.495 157.826C359.634 154.387 359.872 149.656 360.227 146.648C360.644 143.144 363.115 128.943 363.127 128.899C363.142 128.848 363.149 128.78 363.149 128.715C363.152 128.701 363.246 128.015 362.733 127.412C362.217 126.802 361.284 126.483 359.962 126.463C356.439 126.418 354.832 128.063 354.715 128.512C354.688 128.614 351.946 139.583 351.47 145.804C351.426 146.38 351.329 147.359 351.205 148.599C350.719 153.463 349.704 163.581 350.719 163.757C352.693 164.099 354.68 164.076 356.278 164.06C356.603 164.055 356.913 164.053 357.196 164.053ZM359.332 164.711L359.307 164.692C359.299 164.686 359.292 164.683 359.289 164.645H359.282C359.287 164.564 359.26 164.501 359.207 164.447C358.905 164.139 357.749 164.152 356.28 164.168C354.68 164.186 352.688 164.207 350.699 163.865C349.672 163.687 350.366 155.886 351.096 148.589C351.217 147.35 351.316 146.371 351.361 145.795C351.835 139.587 354.583 128.569 354.608 128.483C354.73 128.018 356.382 126.298 359.964 126.355C361.319 126.375 362.279 126.708 362.817 127.343C363.363 127.984 363.263 128.693 363.258 128.722C363.261 128.792 363.249 128.868 363.231 128.931C363.216 128.99 360.741 143.241 360.336 146.661C359.669 152.302 359.403 163.966 359.391 164.618C359.391 164.627 359.391 164.634 359.391 164.643V164.675L359.332 164.711Z" fill="#D1A586"/>
<path d="M361.324 165.32H323.821C323.821 165.32 324.696 161.836 346.414 162.354C361.784 162.721 361.324 165.32 361.324 165.32Z" fill="#E5BD9E"/>
<path d="M364.379 201.732C360.032 180.02 361.151 166.697 361.156 166.528C361.166 166.195 360.542 165.89 360.206 165.879C359.865 165.874 358.366 165.78 358.192 166.067C357.965 166.441 357.087 182.857 363.568 201.732H364.379Z" fill="#D1A586"/>
<path d="M329.365 201.732C333.714 180.021 332.597 166.697 332.59 166.528C332.581 166.195 333.204 165.891 333.54 165.88C333.879 165.875 335.38 165.781 335.556 166.067C335.783 166.442 336.659 182.858 330.176 201.732H329.365Z" fill="#D1A586"/>
<path d="M322.425 201.732C326.773 180.021 325.657 166.697 325.65 166.528C325.641 166.195 326.264 165.891 326.598 165.88C326.939 165.874 328.44 165.781 328.615 166.067C328.843 166.441 329.719 182.857 323.237 201.732H322.425Z" fill="#A0795F"/>
<path d="M357.396 201.731C353.048 180.02 354.167 166.697 354.172 166.527C354.182 166.195 353.559 165.89 353.221 165.88C352.882 165.874 351.381 165.781 351.207 166.067C350.98 166.441 350.105 182.857 356.585 201.731H357.396Z" fill="#A0795F"/>
<path d="M323.801 166.434H361.312C361.732 166.434 362.076 166.09 362.076 165.671V165.183C362.076 164.764 361.732 164.42 361.312 164.42H323.801C323.381 164.42 323.037 164.764 323.037 165.183V165.671C323.037 166.09 323.381 166.434 323.801 166.434Z" fill="#D1A586"/>
<path d="M209.165 154.209C209.442 147.401 210.04 141.479 210.753 137.35C211.892 130.767 212.916 126.98 212.929 126.94C213.078 126.361 215.246 124.019 220.061 124.091C224.877 124.163 224.422 127.236 224.422 127.236C224.422 127.338 224.408 127.435 224.386 127.507C224.341 127.666 219.918 143.698 220.111 164.397C220.113 164.686 220.145 165.189 220.125 165.523C220.125 165.525 208.963 165.811 208.96 165.523C208.571 163.714 208.762 158.701 209.165 154.209Z" fill="#D1A586"/>
<path d="M207.763 164.294C207.767 164.582 207.918 164.814 208.103 164.814H208.109C208.294 164.809 208.442 164.579 208.444 164.294H218.009C218.012 164.582 218.165 164.814 218.351 164.814H218.354C218.544 164.809 218.695 164.571 218.693 164.28C218.637 158.354 218.974 152.821 219.485 147.938C220.758 135.761 223.108 127.621 223.141 127.509C223.162 127.436 223.177 127.34 223.177 127.236C223.177 127.236 223.632 124.163 218.817 124.091C213.998 124.019 211.833 126.361 211.684 126.941C211.675 126.971 211.093 129.115 210.323 132.971C210.067 134.249 209.792 135.712 209.507 137.35C208.795 141.479 208.197 147.401 207.92 154.209C207.517 158.702 207.374 162.485 207.763 164.294Z" fill="#E5BD9E"/>
<path d="M207.763 164.294C207.767 164.582 207.918 164.814 208.103 164.814H208.109C208.294 164.809 208.442 164.579 208.444 164.294H218.009C218.013 164.582 218.166 164.814 218.351 164.814H218.355C218.544 164.809 218.695 164.571 218.693 164.28C218.637 158.354 218.974 152.821 219.485 147.938C217.905 140.21 211.792 134.299 210.323 132.971C210.067 134.249 209.792 135.712 209.507 137.35C208.795 141.479 208.197 147.401 207.92 154.209C207.517 158.702 207.374 162.485 207.763 164.294Z" fill="#DFB697"/>
<path d="M215.269 163.528C216.336 163.528 217.09 163.578 217.357 163.85C217.357 163.85 217.359 163.85 217.359 163.852C217.362 163.578 217.377 163.069 217.404 162.107C217.436 160.977 217.49 159.209 217.567 157.217C217.706 153.73 217.944 148.933 218.3 145.884C218.714 142.34 221.185 127.934 221.198 127.889C221.214 127.837 221.221 127.77 221.221 127.702C221.223 127.687 221.319 126.984 220.795 126.37C220.276 125.76 219.348 125.439 218.035 125.419C217.981 125.419 217.926 125.419 217.873 125.419C214.466 125.419 212.902 127.048 212.787 127.497C212.76 127.599 210.018 138.727 209.543 145.027L209.487 145.023L209.543 145.027C209.498 145.614 209.401 146.607 209.277 147.866C208.791 152.794 207.777 163.052 208.791 163.229C210.767 163.576 212.754 163.553 214.351 163.535C214.677 163.531 214.984 163.528 215.269 163.528ZM217.405 164.195L217.378 164.177C217.369 164.172 217.364 164.167 217.36 164.129H217.355C217.357 164.046 217.332 163.981 217.278 163.925C216.973 163.616 215.818 163.628 214.353 163.645C212.751 163.663 210.758 163.686 208.771 163.339C207.745 163.157 208.438 155.251 209.167 147.855C209.291 146.597 209.388 145.603 209.433 145.02C209.907 138.759 212.655 127.556 212.68 127.468C212.803 126.996 214.453 125.252 218.037 125.31C219.384 125.329 220.339 125.662 220.881 126.3C221.436 126.953 221.335 127.68 221.331 127.711C221.333 127.781 221.322 127.858 221.304 127.921C221.29 127.981 218.813 142.428 218.41 145.896C217.742 151.606 217.476 163.445 217.465 164.102C217.465 164.111 217.465 164.12 217.465 164.127L217.463 164.159L217.405 164.195Z" fill="#D1A586"/>
<path d="M219.395 164.814H181.894C181.894 164.814 182.767 161.279 204.485 161.807C219.856 162.179 219.395 164.814 219.395 164.814Z" fill="#E5BD9E"/>
<path d="M222.452 201.729C218.103 179.716 219.223 166.209 219.228 166.038C219.239 165.7 218.615 165.392 218.278 165.381C217.938 165.374 216.437 165.281 216.264 165.57C216.035 165.95 215.16 182.593 221.64 201.729H222.452Z" fill="#D1A586"/>
<path d="M187.432 201.729C191.781 179.716 190.663 166.209 190.658 166.038C190.647 165.7 191.271 165.392 191.606 165.381C191.946 165.374 193.448 165.281 193.62 165.57C193.849 165.95 194.724 182.593 188.244 201.729H187.432Z" fill="#D1A586"/>
<path d="M180.498 201.729C184.846 179.716 183.729 166.209 183.721 166.038C183.711 165.7 184.335 165.392 184.672 165.381C185.012 165.374 186.513 165.281 186.686 165.57C186.915 165.95 187.79 182.593 181.309 201.729H180.498Z" fill="#A0795F"/>
<path d="M215.462 201.729C211.113 179.716 212.231 166.209 212.238 166.038C212.249 165.7 211.624 165.392 211.288 165.381C210.948 165.374 209.446 165.281 209.274 165.57C209.045 165.95 208.17 182.593 214.65 201.729H215.462Z" fill="#A0795F"/>
<path d="M181.871 165.941H219.374C219.797 165.941 220.142 165.595 220.142 165.174V164.669C220.142 164.246 219.797 163.9 219.374 163.9H181.871C181.45 163.9 181.104 164.246 181.104 164.669V165.174C181.104 165.595 181.45 165.941 181.871 165.941Z" fill="#D1A586"/>
<path d="M233.642 136.345C233.642 136.345 236.739 137.601 238.943 134.443C238.943 134.443 235.368 133.837 233.642 136.345Z" fill="#6BB7BF"/>
<path d="M233.422 135.047C233.422 135.047 233.205 133.94 231.905 133.903C231.905 133.903 232.394 135.024 233.422 135.047Z" fill="#6BB7BF"/>
<path d="M234.079 128.566C234.079 128.566 235.58 128.728 236.143 127.081C236.143 127.081 234.516 127.263 234.079 128.566Z" fill="#6BB7BF"/>
<path d="M237.641 106.798C234.609 106.149 234.559 103.67 234.559 103.67C238.128 104.797 237.641 106.798 237.641 106.798Z" fill="#6BB7BF"/>
<path d="M237.854 106.233C237.854 106.233 239.745 107.002 241.09 105.072C241.09 105.072 238.906 104.701 237.854 106.233Z" fill="#6BB7BF"/>
<path d="M233.7 143.617L233.308 144.069C233.248 144.137 233.135 144.094 233.135 144.002C233.158 131.239 234.778 119.899 236.139 113.208C237.626 105.905 239.13 101.589 239.147 101.546C239.13 101.589 237.773 105.976 236.292 113.257C234.929 119.958 233.369 128.717 233.763 143.444C233.765 143.507 233.741 143.57 233.7 143.617Z" fill="#6BB7BF"/>
<path d="M239.12 99.8055C238.636 100.194 236.784 101.85 238.58 103.128C238.58 103.128 239.957 103.564 240.413 102.504C240.762 101.694 240.856 100.792 240.881 100.408C240.886 100.309 240.812 100.225 240.713 100.216C240.607 100.207 240.465 100.183 240.325 100.128C240.154 100.063 240.067 99.8055 239.837 99.7479C239.693 99.7119 239.545 99.6831 239.378 99.6975C239.282 99.7047 239.194 99.7461 239.12 99.8055Z" fill="#F99746"/>
<path d="M238.093 102.666C238.093 102.666 238.641 103.105 238.437 103.807L238.432 104.068C238.432 104.068 238.578 103.418 239.251 103.216C239.251 103.216 238.644 103.285 238.093 102.666Z" fill="#6BB7BF"/>
<path d="M237.64 106.798C234.609 106.149 234.559 103.67 234.559 103.67C234.559 103.67 236.96 104.988 237.64 106.798Z" fill="#8AD8DB"/>
<path d="M234.728 105.101C234.728 105.101 232.822 105.83 231.517 103.875C231.517 103.875 233.705 103.548 234.728 105.101Z" fill="#6BB7BF"/>
<path d="M238.132 142.561L238.516 143.018C238.573 143.088 238.687 143.047 238.688 142.957C238.922 130.195 237.529 118.824 236.302 112.108C234.963 104.777 233.544 100.43 233.53 100.387C233.544 100.43 234.815 104.844 236.149 112.153C237.378 118.882 238.76 127.669 238.071 142.386C238.069 142.449 238.093 142.512 238.132 142.561Z" fill="#6BB7BF"/>
<path d="M233.585 98.6482C234.062 99.0478 235.88 100.74 234.059 101.98C234.059 101.98 232.673 102.389 232.239 101.319C231.908 100.504 231.83 99.5986 231.814 99.217C231.809 99.118 231.886 99.0334 231.985 99.028C232.091 99.019 232.234 98.9992 232.376 98.947C232.547 98.884 232.639 98.6284 232.871 98.5762C233.015 98.5438 233.162 98.5168 233.33 98.5348C233.425 98.5456 233.513 98.587 233.585 98.6482Z" fill="#F99746"/>
<path d="M234.56 101.528C234.56 101.528 234.002 101.956 234.191 102.662V102.923C234.191 102.923 234.058 102.27 233.39 102.055C233.39 102.055 233.995 102.135 234.56 101.528Z" fill="#6BB7BF"/>
<path d="M235.538 102.865C235.538 102.865 237.552 103.202 238.443 101.026C238.443 101.026 236.233 101.141 235.538 102.865Z" fill="#6BB7BF"/>
<path d="M239.639 140.255L239.357 140.779C239.314 140.86 239.193 140.842 239.173 140.753C236.412 128.292 235.521 116.871 235.389 110.044C235.247 102.594 235.776 98.0522 235.782 98.0072C235.776 98.0522 235.406 102.63 235.55 110.058C235.681 116.896 236.068 125.785 239.665 140.071C239.681 140.132 239.67 140.199 239.639 140.255Z" fill="#6BB7BF"/>
<path d="M235.379 96.3152C234.992 96.7994 233.546 98.8191 235.577 99.6741C235.577 99.6741 237.015 99.8001 237.229 98.6643C237.393 97.7984 237.289 96.8984 237.229 96.5186C237.213 96.4214 237.121 96.3548 237.024 96.3674C236.918 96.3818 236.774 96.389 236.624 96.3656C236.444 96.3386 236.304 96.1064 236.066 96.1028C235.917 96.0992 235.768 96.101 235.607 96.1514C235.516 96.1802 235.438 96.2396 235.379 96.3152Z" fill="#F99746"/>
<path d="M234.997 99.3301C234.997 99.3301 235.628 99.6397 235.583 100.369L235.634 100.623C235.634 100.623 235.636 99.9565 236.248 99.6145C236.248 99.6145 235.67 99.8125 234.997 99.3301Z" fill="#6BB7BF"/>
<path d="M237.196 100.623C237.196 100.623 237.196 99.0297 238.57 98.5294C238.57 98.5294 238.872 99.8594 237.196 100.623Z" fill="#6BB7BF"/>
<path d="M233.974 98.061C233.974 98.061 234.013 96.8442 232.889 96.4932C232.889 96.4932 232.619 97.6254 233.974 98.061Z" fill="#ED9F4A"/>
<path d="M237.666 105.38C237.705 105.414 238.252 104.196 237.142 103.216C237.142 103.216 236.677 104.522 237.666 105.38Z" fill="#ED9F4A"/>
<path d="M238.445 105.285C238.414 105.294 238.436 104.678 239.014 104.59C239.014 104.59 239.111 105.101 238.445 105.285Z" fill="#6BB7BF"/>
<path d="M232.691 103.216C232.691 103.216 232.205 102.208 230.646 102.383C230.646 102.383 230.879 103.465 232.691 103.216Z" fill="#6BB7BF"/>
<path d="M241.305 145.111H231.312C230.64 145.111 230.126 144.516 230.223 143.851L234.874 111.789C234.917 111.491 235.173 111.267 235.475 111.267H236.962C237.282 111.267 237.556 111.505 237.605 111.822L242.366 143.882C242.463 144.53 241.961 145.111 241.305 145.111Z" fill="#F99746"/>
<path d="M233.525 144.141L235.994 111.277C235.728 111.311 235.512 111.518 235.472 111.79L230.821 143.851C230.724 144.516 231.241 145.111 231.912 145.111H233.91C233.653 144.879 233.496 144.528 233.525 144.141Z" fill="#FFB278"/>
<path d="M331.536 141.611C331.536 141.611 324.679 149.441 323.278 149.313C321.842 149.183 320.967 148.732 319.719 149.313C318.823 149.733 315.991 152.011 316.751 151.86C317.512 151.709 318.888 151.532 319.253 151.498C319.751 151.45 320.555 151.439 321.1 151.345C321.447 151.284 322.692 151.25 323.105 151.235C324.911 151.176 333.445 146.19 333.445 146.19L331.536 141.611Z" fill="#FFB27D"/>
<path d="M319.947 134.293C319.801 134.67 319.148 134.871 318.827 134.95C318.955 134.654 319.035 134.331 319.057 133.995C319.255 133.721 319.57 133.563 319.801 133.604C320.007 133.642 320.131 133.817 319.947 134.293ZM320.251 133.248C319.978 133.078 319.448 133.145 319.064 133.226V132.67C319.064 132.546 319.055 132.425 319.042 132.306H313.279C313.263 132.425 313.254 132.546 313.254 132.67V133.8C313.254 135.399 314.561 136.706 316.159 136.706C317.025 136.706 317.806 136.32 318.338 135.715V135.717C318.338 135.717 319.708 135.379 320.138 134.868C320.571 134.356 320.708 133.53 320.251 133.248Z" fill="#C45446"/>
<path d="M313.729 132.67V133.8C313.729 135.396 315.033 136.705 316.633 136.705C316.764 136.705 316.896 136.696 317.024 136.676C315.609 136.485 314.508 135.265 314.508 133.8V132.67C314.508 132.545 314.517 132.425 314.533 132.306H313.75C313.737 132.425 313.729 132.545 313.729 132.67Z" fill="#E37970"/>
<path d="M317.344 136.806H314.974V136.452H317.344V136.806Z" fill="#C45446"/>
<path d="M336.295 101.848C336.295 101.848 336.604 97.9148 342.261 98.9362C343.758 99.2061 344.784 96.5395 347.233 97.4897C352.502 99.536 352.813 96.834 354.337 100.626C354.975 102.213 359.03 104.061 357.79 106.803C356.553 109.547 358.627 111.392 357.169 113.541C356.416 114.653 356.723 116.641 353.167 116.711C351.397 116.747 348.639 120.028 346.654 120.622C344.668 121.218 338.7 120.359 338.926 117.634C339.102 115.507 336.621 115.685 335.097 113.238C333.767 111.102 336.143 110.564 334.871 107.109C333.939 104.578 336.366 103.961 336.295 101.848Z" fill="#1C468A"/>
<path d="M305.191 198.598C305.312 199.914 303.482 200.234 301.36 200.339C299.238 200.445 299.879 200.879 296.973 201.406C294.066 201.932 292.902 201.136 292.691 200.744C292.504 200.396 293.855 199.851 295.294 199.235C295.475 199.158 295.656 199.079 295.839 198.999C297.461 198.287 298.37 196.832 299.634 195.484C300.83 194.208 301.966 190.121 301.966 190.121L305.917 189.276C305.917 189.276 304.808 192.955 304.422 194.527C304.195 195.45 304.531 196.483 304.827 197.27C304.989 197.696 305.148 198.134 305.191 198.598Z" fill="#FFB27D"/>
<path d="M301.36 200.339C299.24 200.445 299.88 200.879 296.973 201.406C294.066 201.932 292.902 201.136 292.69 200.744C292.503 200.396 293.856 199.851 295.295 199.235L295.316 199.259C295.316 199.259 297.362 199.953 299.72 199.311C301.643 198.789 303.504 197.64 304.828 197.269C304.989 197.696 305.149 198.134 305.191 198.598C305.312 199.914 303.481 200.234 301.36 200.339Z" fill="#C65447"/>
<path d="M340.173 148.794C340.173 148.794 318.28 149.779 313.339 152.898C308.397 156.016 300.471 192.345 300.471 192.345C300.471 192.345 300.96 192.738 302.053 192.855C303.071 192.966 305.308 192.369 305.308 192.369C305.308 192.369 316.698 176.113 317.502 172.018C318.301 167.923 318.106 164.269 319.934 164.172C321.761 164.075 344.536 166.94 347.981 160.872C351.424 154.803 340.173 148.794 340.173 148.794Z" fill="#163560"/>
<path d="M314.224 198.746C314.346 200.062 312.514 200.382 310.394 200.487C308.271 200.593 308.913 201.026 306.006 201.554C303.1 202.08 301.934 201.284 301.724 200.892C301.536 200.544 302.888 199.999 304.327 199.383C304.508 199.306 304.692 199.227 304.873 199.147C306.493 198.435 307.404 196.98 308.666 195.632C309.865 194.356 311.001 190.268 311.001 190.268L314.951 189.424C314.951 189.424 313.842 193.103 313.457 194.674C313.23 195.598 313.564 196.631 313.861 197.418C314.021 197.844 314.182 198.283 314.224 198.746Z" fill="#FFB27D"/>
<path d="M310.392 200.487C308.269 200.593 308.91 201.027 306.006 201.555C303.098 202.08 301.931 201.284 301.722 200.892C301.535 200.545 302.886 199.999 304.325 199.384L304.349 199.407C304.349 199.407 306.392 200.102 308.753 199.461C310.673 198.937 312.533 197.789 313.861 197.418C314.02 197.844 314.181 198.284 314.222 198.746C314.345 200.062 312.511 200.383 310.392 200.487Z" fill="#C65447"/>
<path d="M348.664 149.312C348.664 149.312 325.344 150.415 320.529 153.724C315.711 157.034 309.204 193.643 309.204 193.643C309.204 193.643 309.709 194.017 310.807 194.093C311.825 194.163 314.039 193.479 314.039 193.479C314.039 193.479 324.788 176.793 325.43 172.669C326.073 168.547 325.734 164.902 327.556 164.735C329.378 164.565 352.247 166.542 355.454 160.344C358.658 154.145 348.664 149.312 348.664 149.312Z" fill="#1C468A"/>
<path d="M355.637 119.519C355.63 119.506 355.62 119.496 355.608 119.483C355.422 119.274 355.202 119.083 354.958 118.912L354.951 118.907C354.951 118.907 354.951 118.907 354.946 118.907C353.043 117.575 349.637 117.291 349.637 117.291V117.292C349.637 117.292 349.637 117.292 349.637 117.291C349.637 117.291 349.266 117.256 348.677 117.23C348.23 116.072 347.722 114.358 347.565 111.858L347.228 111.95L341.555 113.471C341.555 113.471 341.805 115.271 341.924 116.976C341.949 117.35 341.968 117.717 341.978 118.063C341.812 118.122 338.282 118.619 337.515 119.443C336.747 120.271 335.213 125.765 334.825 126.739L356.668 127.095C356.668 127.095 357.218 121.387 355.637 119.519Z" fill="#FFB27D"/>
<path d="M356.448 158.588C353.861 158.834 345.144 153.571 342.24 151.859C342.188 151.83 342.14 151.8 342.093 151.773C340.883 151.062 339.182 150.727 337.563 150.459C335.503 150.122 333.581 149.894 332.963 149.157C332.232 148.281 334.388 147.309 336.121 146.299C336.991 145.791 337.759 145.271 337.998 144.753C338.184 144.346 338.17 143.453 338.045 142.31V142.309C338.025 142.094 337.996 141.873 337.967 141.642C337.825 141.934 337.649 142.238 337.446 142.541C336.938 143.302 336.268 144.072 335.595 144.706C334.772 145.486 333.953 146.067 333.444 146.189C333.102 146.272 332.757 146.229 332.418 146.097C331.511 145.743 330.635 144.744 329.939 143.783C329.775 143.556 329.621 143.329 329.482 143.113C329.005 142.395 328.67 141.797 328.54 141.657C328.154 141.228 330.098 140.379 330.895 139.743C331.691 139.104 334.828 126.738 334.828 126.738C335.214 125.764 336.747 120.271 337.517 119.443C337.517 119.443 340.509 123.099 344.391 122.89C348.246 122.683 354.846 118.964 354.949 118.906C355.286 119.059 355.641 119.519 355.641 119.519C357.218 121.387 356.673 127.095 356.673 127.095C356.673 127.095 353.649 140.411 353.649 141.754C353.649 144.218 355.687 149.883 356.658 153.962C357.276 156.547 357.467 158.492 356.448 158.588Z" fill="#6BB7BF"/>
<path d="M341.556 113.471C341.556 113.471 341.808 115.271 341.925 116.976C345.135 116.671 346.641 113.622 347.229 111.95L341.556 113.471Z" fill="#F4A269"/>
<path d="M340.588 115.155C340.588 115.155 348.208 114.774 347.898 110.033C347.587 105.29 348.361 102.047 343.483 102.091C338.603 102.134 337.776 104.006 337.497 105.613C337.215 107.221 338.598 115.134 340.588 115.155Z" fill="#FFB27D"/>
<path d="M340.267 103.779C340.267 103.779 342.091 103.354 342.686 104.24C343.28 105.125 342.854 105.622 344.184 105.994C345.513 106.366 345.965 106.339 345.831 107.27C345.699 108.199 347.166 108.89 347.231 109.634C347.293 110.379 347.903 110.749 348.489 110.803C349.073 110.857 348.808 101.21 346.549 100.785C344.29 100.36 342.112 100.865 341.447 101.396C340.784 101.928 340.267 103.779 340.267 103.779Z" fill="#1C468A"/>
<path d="M340.268 103.779C340.268 103.779 338.496 103.655 338.177 104.665C337.86 105.674 338.285 105.914 337.832 106.525C337.382 107.136 337.642 108.22 337.642 108.22C337.642 108.22 334.138 101.768 337.832 101.343C341.526 100.918 341.43 101.67 340.268 103.779Z" fill="#1C468A"/>
<path d="M337.952 140.123C337.445 141.644 336.541 143.316 335.592 144.706C334.772 145.485 333.951 146.067 333.442 146.189C333.1 146.272 332.756 146.229 332.416 146.097C331.51 145.743 330.633 144.744 329.938 143.783C329.773 143.556 329.619 143.329 329.478 143.113C331.9 141.171 336.488 136.727 336.964 130.645C337.618 122.338 337.987 140.505 337.952 140.123Z" fill="#599DAD"/>
<path d="M332.417 146.097C333.259 144.809 334.98 143.538 337.443 142.54C336.31 144.24 334.367 145.966 333.443 146.189C333.099 146.272 332.755 146.229 332.417 146.097Z" fill="#599DAD"/>
<path d="M352.564 130.112C352.564 130.112 350.661 149.233 342.242 151.859C342.189 151.83 342.141 151.8 342.092 151.773C340.883 151.062 339.183 150.727 337.565 150.459C335.503 150.122 333.581 149.894 332.963 149.157C332.231 148.281 334.388 147.309 336.121 146.299C336.993 145.791 337.758 145.271 337.997 144.753C338.183 144.346 338.169 143.453 338.046 142.31V142.309C346.216 139.286 352.564 130.112 352.564 130.112Z" fill="#599DAD"/>
<path d="M354.702 124.449C353.822 120.473 349.819 122.754 349.819 122.754C348.432 122.439 338.25 138.943 337.435 139.317C336.744 139.634 327.36 136.909 324.511 136.068C323.774 135.492 321.19 133.485 320.737 133.451C320.209 133.411 316.676 134.319 316.698 134.88C316.723 135.44 317.547 136.263 318.852 136.471C319.839 136.628 321.516 137.279 322.584 137.441C322.584 137.441 332.941 144.497 337.352 145.358C341.321 146.132 355.586 128.424 354.702 124.449Z" fill="#FFB27D"/>
<path d="M331.232 137.938C331.232 137.938 328.845 144.072 331.706 146.405C334.566 148.736 340.775 147.951 347.573 138.469C354.373 128.988 357.14 123.824 353.611 122.318C350.081 120.811 347.165 123.174 345.355 126.863C343.472 130.696 340.003 136.005 337.922 136.206C335.841 136.408 331.232 137.938 331.232 137.938Z" fill="#6BB7BF"/>
<path d="M271.368 80.2731L271.374 81.1982C271.374 81.1982 271.121 84.0958 274.687 84.5188C278.255 84.9418 281.18 84.8864 281.084 82.6509C280.763 80.9214 280.186 78.2353 280.163 76.8022C280.155 76.2705 280.19 75.7052 280.289 75.0688L273.379 74.9304L271.343 75.2625L271.368 80.2731Z" fill="#FFB27D"/>
<path d="M271.342 75.2638L271.368 80.2743C272.103 80.6153 272.931 80.8242 273.859 80.8242C277.037 80.8242 279.091 78.4944 280.163 76.8032C280.155 76.271 280.191 75.7072 280.289 75.0686L273.378 74.9306L271.342 75.2638Z" fill="#E2915A"/>
<path d="M280.817 73.9565C280.017 78.273 274.447 78.1316 272.041 77.8587C271.364 77.785 270.938 77.6973 270.938 77.6973C270.175 77.4941 269.748 76.291 269.549 74.7154C269.159 71.598 269.655 67.0206 270.181 65.8493C270.973 64.0885 272.465 62.1842 278.075 63.5586C283.684 64.933 281.847 68.4269 280.817 73.9565Z" fill="#FFB27D"/>
<path d="M285.375 201.73H277.483C277.543 201.318 277.742 200.058 278.114 198.899C278.24 198.493 278.39 198.103 278.561 197.761C279.326 196.229 284.202 197.205 284.202 197.205C284.202 197.205 284.654 197.592 285.008 199.073C285.165 199.726 285.303 200.592 285.375 201.73Z" fill="#233862"/>
<path d="M261.525 199.242C261.503 200.314 261.367 201.331 260.979 201.731H245.371C245.569 201.167 246.132 200.318 247.734 200.057C249.554 199.764 252.393 198.887 254.048 197.134C254.639 196.513 255.08 195.778 255.273 194.92C256.007 191.651 261.345 195.922 261.345 195.922C261.345 195.922 261.56 197.643 261.525 199.242Z" fill="#233862"/>
<path d="M271.913 163.9C271.694 165.097 271.557 166.08 271.519 166.783C271.025 176.462 263.374 198.591 262.006 199.106C259.886 199.905 256.553 198.208 254.809 197.652C254.085 197.421 253.597 196.692 253.76 195.953C257.547 178.534 258.939 153.453 259.447 138.604C259.703 131.124 260.986 125.957 260.986 125.957C260.986 125.957 279.647 120.979 279.757 127.277C279.855 132.85 273.576 154.707 271.913 163.9Z" fill="#2B478B"/>
<path d="M271.911 163.899L259.445 138.604C259.701 131.123 260.985 125.957 260.985 125.957C260.985 125.957 279.645 120.979 279.755 127.277C279.854 132.85 273.575 154.707 271.911 163.899Z" fill="#233862"/>
<path d="M267.758 127.298L277.625 198.793C277.625 198.793 281.955 199.838 285.324 199.002C285.324 199.002 288.212 160.978 287.972 151.786C287.731 142.593 290.044 127.187 287.442 125.488C284.845 123.79 267.758 127.298 267.758 127.298Z" fill="#2B478B"/>
<path d="M268.454 61.7428C268.454 61.7428 270.923 61.5528 273.835 60.2869C276.197 59.261 279.178 60.3909 280.146 60.9008C280.12 60.7449 280.058 60.5329 279.91 60.3189C279.91 60.3189 280.344 60.6269 280.41 61.0588C280.454 61.0908 280.474 61.1128 280.462 61.1208C280.462 61.1208 280.954 61.0308 281.272 61.1728C281.272 61.1728 281.05 61.1428 280.97 61.2848C280.962 61.2988 280.95 61.3128 280.934 61.3228C284.622 63.1046 284.962 68.93 283.776 70.2778C282.348 71.8997 280.636 75.5513 280.636 75.5513C280.636 75.5513 280.014 74.6894 280.272 73.2615C280.532 71.8357 279.298 71.8357 277.743 71.1857C276.185 70.5378 277.483 68.722 276.121 67.6181C274.759 66.5162 269.764 67.1642 269.83 66.3203C267.974 65.6463 268.454 61.9327 268.454 61.7428Z" fill="#233862"/>
<path d="M281.922 83.894L279.65 132.624C279.65 132.624 260.695 132.934 261.238 128.644C261.776 124.355 268.068 85.3858 268.068 85.3858L281.922 83.894Z" fill="#E9F3FE"/>
<path d="M288.686 111.517C287.559 114.899 289.686 126.252 290.445 130.098C290.611 130.912 290.721 131.393 290.721 131.393C288.097 135.662 278.484 135.608 278.484 135.608C276.633 127.436 275.672 114.421 275.672 114.421L283.05 82.0833L292.33 90.6623C292.33 90.6623 291.629 95.8946 290.76 101.219C290.075 105.435 289.298 109.725 288.686 111.517Z" fill="#22407A"/>
<path d="M272.917 74.6668C272.917 74.6668 272.737 75.2234 271.334 75.0212C271.334 75.0212 270.153 74.8498 270.24 74.2297C270.24 74.2297 271.426 73.8792 272.917 74.6668Z" fill="white"/>
<path d="M254.728 104.249C254.709 104.231 254.709 104.193 254.709 104.175C254.709 103.473 257.391 101.92 260.292 100.09C260.33 100.053 260.348 100.034 260.348 100.034C260.35 100.032 260.351 100.031 260.355 100.03C260.302 101.525 260.307 102.992 260.397 104.358C260.562 106.891 260.378 109.919 260.071 113.002C258.69 110.844 254.998 105.044 254.728 104.249ZM262.263 84.5877C262.263 84.5877 262.261 84.5973 262.258 84.6088C261.809 85.0442 249.155 97.3292 246.703 102.142C244.206 107.023 258.111 116.748 258.111 116.748C258.111 116.748 259.007 117.101 259.626 116.962C258.971 122.361 258.237 127.339 258.673 129.465C259.459 133.308 263.014 134.599 263.014 134.302C263.014 134.208 264.313 120.341 265.019 113.105C266.532 97.5908 270.323 82.1793 270.323 82.1793C266.184 82.609 262.263 84.5877 262.263 84.5877Z" fill="#22407A"/>
<path d="M282.462 82.0253C282.485 81.5589 280.282 80.918 280.282 80.918C280.282 80.918 277.76 84.4127 273.608 84.4742C273.608 84.4742 274.791 86.7762 276.184 87.3735C276.184 87.3735 282.325 84.7857 282.462 82.0253Z" fill="#D9E9F9"/>
<path d="M273.606 84.3895C273.606 84.3895 271.404 83.0867 271.398 81.672C271.398 81.672 269.975 81.4944 269.356 82.1834C269.356 82.1834 268.835 84.6057 269.526 86.0146C269.526 86.0146 272.695 85.5321 273.606 84.3895Z" fill="#D9E9F9"/>
<path d="M275.099 84.1812L272.113 83.4659C272.113 83.4659 271.722 83.5009 271.734 83.9868C271.746 84.4727 272.576 85.8935 272.941 86.0062C273.309 86.1209 275.804 85.1647 275.099 84.1812Z" fill="#BA4C43"/>
<path d="M282.114 81.7848C282.138 81.3189 280.648 80.3614 280.648 80.3614C280.648 80.3614 277.761 83.7335 273.608 83.793C273.608 83.793 274.792 86.0986 276.185 86.6934C276.185 86.6934 281.978 84.5463 282.114 81.7848Z" fill="#E9F3FE"/>
<path d="M273.606 83.7928C273.606 83.7928 271.378 82.6134 271.373 81.1986C271.373 81.1986 270.029 81.7893 269.408 82.4803C269.408 82.4803 268.834 84.009 269.525 85.418C269.525 85.418 272.695 84.9335 273.606 83.7928Z" fill="#E9F3FE"/>
<path d="M267.77 117.407C267.87 118.547 268.392 119.607 269.234 120.381L270.556 121.598C270.887 121.904 271.408 121.862 271.688 121.508L273.327 119.429C273.766 118.871 273.971 118.165 273.905 117.459C273.75 115.886 273.464 112.853 273.238 109.928C273.051 107.558 272.904 105.254 272.89 103.853C272.854 99.3798 273.743 85.1154 273.743 85.1154L272.67 85.1714C272.67 85.1714 270.007 90.7076 268.612 98.2424C268.268 100.097 268.002 102.071 267.87 104.116C267.87 104.116 267.312 112.263 267.77 117.407Z" fill="#C65447"/>
<path d="M267.77 117.407C267.87 118.547 268.392 119.607 269.234 120.381L270.556 121.598C270.887 121.904 271.408 121.862 271.688 121.508L273.327 119.429C273.766 118.871 273.971 118.165 273.905 117.459C273.75 115.886 273.464 112.853 273.238 109.928C270.274 106.598 269.072 101.997 268.612 98.2426C268.268 100.097 268.002 102.071 267.87 104.116C267.87 104.116 267.312 112.263 267.77 117.407Z" fill="#BA4C43"/>
<path d="M257.226 117.539C257.226 116.297 258.319 115.3 259.547 115.487C259.889 115.539 260.195 115.679 260.409 115.962C261.253 117.087 262.058 120.362 260.56 120.515C259.95 120.576 259.167 120.149 258.565 119.69C257.953 119.226 257.226 118.495 257.226 117.726V117.539Z" fill="#FFB27D"/>
<path d="M290.445 130.097C287.728 127.268 283.033 121.704 283.2 117.135C283.421 110.738 290.761 101.218 290.761 101.218C290.077 105.433 289.299 109.723 288.689 111.516C287.561 114.898 289.688 126.251 290.445 130.097Z" fill="#233862"/>
<path d="M290.363 118.97C290.363 118.97 288.408 119.947 287.221 119.458C286.036 118.97 284.641 118.603 283.316 120.113C281.988 121.621 281.711 122.669 281.988 123.227C282.268 123.785 285.359 123.576 285.871 123.227C286.385 122.878 287.196 122.019 287.71 122.169C289.13 122.581 290.327 121.497 290.995 120.635C291.399 120.115 290.31 119.863 290.363 118.97Z" fill="#FFB27D"/>
<path d="M283.053 82.0825C283.053 82.0825 290.834 82.9438 292.667 86.3327C294.505 89.7216 304.048 103.455 303.734 109.164C303.423 114.872 290.718 121.271 290.718 121.271C290.718 121.271 287.905 120.083 287.86 118.803C287.82 117.523 296.645 109.877 296.109 108.449C295.576 107.024 285.855 95.7372 284.92 92.0158C283.982 88.2948 283.053 82.0825 283.053 82.0825Z" fill="#22407A"/>
<path d="M260.347 100.035C260.347 100.035 260.328 100.053 260.291 100.09C257.389 101.92 254.71 103.474 254.71 104.176C254.322 102.937 258.092 97.7594 259.313 96.7068C260.55 95.6338 260.347 100.035 260.347 100.035Z" fill="#233862"/>
<path d="M280.647 80.3612C280.647 80.3612 274.738 105.106 275.679 114.426C275.679 114.426 277.851 104.466 283.076 96.3073C283.076 96.3073 281.171 94.6296 281.273 94.0109C281.273 94.0109 282.689 93.5912 284.063 93.8737C284.063 93.8737 283.911 83.2069 283.056 82.0802C282.198 80.9534 280.647 80.3612 280.647 80.3612Z" fill="#233862"/>
<path d="M271.371 81.2C271.492 81.1291 265.518 105.379 265.018 113.106C265.018 113.106 265.61 99.3173 265.552 95.3431C265.552 95.3431 268.005 94.0448 268.005 93.5886C268.005 93.1323 265.388 91.8995 265.388 91.8995C265.388 91.8995 267.044 83.4085 267.949 82.473C268.856 81.5374 271.371 81.2 271.371 81.2Z" fill="#233862"/>
<path d="M194.523 188.38C194.834 188.738 194.874 189.138 194.719 189.564C194.719 189.566 194.719 189.568 194.717 189.57C194.431 190.36 193.486 191.242 192.39 192.122C192.249 192.236 192.125 192.338 192.017 192.434C191.988 192.459 191.959 192.484 191.932 192.509C191.911 192.529 191.889 192.549 191.868 192.567C190.845 193.51 191.23 193.726 189.393 195.638C187.299 197.817 185.856 197.857 185.445 197.659C185.1 197.49 185.803 196.334 186.586 195.035C186.624 194.972 186.66 194.909 186.7 194.846C186.804 194.673 186.907 194.496 187.009 194.324C187.926 192.759 187.692 192.025 187.474 189.699C187.297 187.808 184.531 179.134 184.531 179.134L188.547 178.442C188.547 178.442 189.754 185.349 191.086 186.413C191.799 186.98 192.597 186.987 193.281 187.408C193.329 187.437 193.378 187.466 193.423 187.498C193.813 187.755 194.209 188.022 194.523 188.38Z" fill="#FFB27D"/>
<path d="M194.523 188.38C194.835 188.738 194.874 189.138 194.72 189.565C194.72 189.566 194.72 189.568 194.718 189.57C194.367 190.36 193.447 191.237 192.387 192.115C192.248 192.23 192.126 192.335 192.018 192.434C191.989 192.459 191.96 192.484 191.933 192.509C191.912 192.529 191.89 192.549 191.869 192.567C190.846 193.51 191.231 193.726 189.394 195.638C187.3 197.817 185.857 197.857 185.446 197.659C185.101 197.49 185.804 196.334 186.587 195.035C186.994 194.885 188.888 194.115 190.321 192.282C191.582 190.673 192.423 188.605 193.282 187.408C193.33 187.437 193.379 187.466 193.424 187.498C193.814 187.756 194.21 188.022 194.523 188.38Z" fill="#C65447"/>
<path d="M162.155 185.872C161.908 187.111 160.141 186.906 158.168 186.423C156.195 185.941 156.663 186.513 153.855 186.202C151.047 185.892 150.196 184.845 150.109 184.427C150.034 184.056 151.422 183.927 152.91 183.754C153.097 183.734 153.285 183.711 153.474 183.687C155.153 183.477 156.384 182.391 157.911 181.5C159.356 180.658 161.514 177.22 161.514 177.22L165.366 177.526C165.366 177.526 163.345 180.595 162.564 181.93C162.103 182.715 162.128 183.754 162.186 184.555C162.214 184.99 162.243 185.435 162.155 185.872Z" fill="#FFB27D"/>
<path d="M158.168 186.423C156.195 185.941 156.663 186.513 153.855 186.202C151.047 185.892 150.196 184.845 150.109 184.427C150.034 184.056 151.422 183.927 152.91 183.754L152.923 183.783C152.923 183.783 154.608 184.978 156.946 185.034C158.852 185.079 160.87 184.533 162.186 184.555C162.214 184.99 162.243 185.435 162.155 185.872C161.908 187.111 160.141 186.906 158.168 186.423Z" fill="#C65447"/>
<path d="M170.725 129.3C170.725 129.3 169.807 127.052 168.797 126.96C167.788 126.868 164.576 126.362 164.346 126.821C164.117 127.28 164.346 128.933 165.035 129.529C165.723 130.126 169.991 131.089 169.991 131.089L170.725 129.3Z" fill="#FFB27D"/>
<path d="M176.916 161.243L185.217 183.583C185.217 183.583 186.492 183.707 187.714 183.354C188.839 183.03 190.13 182.179 190.13 182.179C190.13 182.179 188.07 160.728 184.294 156.268C180.519 151.806 176.916 161.243 176.916 161.243Z" fill="#AA413E"/>
<path d="M209.748 152.205C209.748 152.205 185.896 144.139 180.577 145.857C175.256 147.572 159.285 179.351 159.285 179.351C159.285 179.351 159.645 179.83 160.629 180.199C161.544 180.543 163.759 180.521 163.759 180.521C163.759 180.521 178.174 168.164 179.889 164.561C181.607 160.957 182.292 157.526 184.008 157.868C185.725 158.212 206.144 166.278 210.779 161.472C215.412 156.667 214.199 150.425 214.199 150.425L209.748 152.205Z" fill="#C65447"/>
<path d="M195.171 114.684C194.791 113.897 194.364 112.501 194.156 110.011C194.188 110.258 194.618 113.399 195.826 115.177C200.787 118.433 210.294 129.309 210.105 131.37C210.105 131.37 213.455 125.689 213.513 125.655C213.513 125.655 219.69 117.8 212.368 113.3C208.647 111.012 208.667 108.076 208.822 105.527C208.979 102.977 207.807 92.0004 200.353 94.8732C200.353 94.8732 199.156 94.3404 198.62 94.4214C198.62 94.4214 199.057 94.5042 199.28 94.7346C198.416 94.6824 197.18 94.7472 196.15 95.3322C193.416 96.8856 190.971 110.818 195.171 114.684Z" fill="#B5453C"/>
<path d="M196.117 115.339C196.092 115.35 198.511 116.606 200.333 116.108C202.044 115.641 203.162 113.422 203.139 113.417C202.413 113.273 202.205 112.276 202.221 107.995L201.893 108.058L196.382 109.151C196.382 109.151 196.506 110.884 196.509 112.519C196.515 113.892 196.43 115.191 196.117 115.339Z" fill="#FFB27D"/>
<path d="M196.387 109.151C196.387 109.151 196.511 110.885 196.515 112.519C199.6 112.433 201.231 109.619 201.899 108.059L196.387 109.151Z" fill="#ED975D"/>
<path d="M202.464 107.459C202.464 107.459 204.081 104.905 204.47 102.721C204.745 101.163 203.951 95.3828 198.144 96.2162C198.144 96.2162 196.458 96.3818 194.872 97.4528C193.612 98.3042 191.792 100.142 193.826 105.186L194.355 106.888L202.464 107.459Z" fill="#B5453C"/>
<path d="M195.354 110.697C195.354 110.697 202.653 110.818 202.657 106.273C202.662 101.728 203.607 98.6802 198.949 98.412C194.291 98.142 193.383 99.8772 193.013 101.393C192.642 102.91 193.457 110.549 195.354 110.697Z" fill="#FFB27D"/>
<path d="M195.622 98.3006C195.622 98.3006 197.62 103.634 200.685 104.422C203.753 105.211 205.081 104.388 205.081 104.388C205.081 104.388 202.73 102.52 202.242 99.26C202.242 99.26 197.129 95.7625 195.622 98.3006Z" fill="#B5453C"/>
<path d="M196.118 98.7346C196.118 98.7346 194.626 99.9244 194.262 101.082C193.897 102.239 193.735 104.622 193.04 104.541C193.04 104.541 191.534 100.916 193.226 98.866C195.02 96.6915 196.118 98.7346 196.118 98.7346Z" fill="#B5453C"/>
<path d="M215.343 152.331C214.949 153.424 213.743 153.704 212.124 153.515C209.039 153.155 204.458 151.084 201.157 149.653C196.122 147.469 193.835 149.519 192.233 148.132C190.631 146.742 194.063 143.655 191.088 129.316C190.08 124.454 196.472 114.029 196.472 114.029C196.472 114.029 197.024 117.047 203.141 113.417C203.357 113.289 205.765 116.853 208.083 121.249C210.639 126.096 213.087 131.953 212.367 134.972C210.996 140.725 216.488 149.156 215.343 152.331Z" fill="#699DEE"/>
<path d="M196.475 114.029L192.706 129.496C192.706 129.496 192.236 130.331 191.5 131.521C189.774 134.313 186.579 139.054 184.532 139.536C183.524 139.774 181.377 138.933 179.003 137.735C174.512 135.465 169.202 131.91 169.202 131.91C168.86 129.851 170.651 128.171 170.651 128.171C170.651 128.171 181.406 132.214 182.473 132.29C184.802 132.457 187.171 121.22 189.347 117.474C190.92 114.767 196.475 114.029 196.475 114.029Z" fill="#699DEE"/>
<path d="M196.976 107.943C196.976 107.943 196.839 108.519 195.402 108.431C195.402 108.431 194.196 108.357 194.232 107.722C194.232 107.722 195.402 107.27 196.976 107.943Z" fill="white"/>
<path d="M215.345 152.331C214.951 153.424 213.745 153.704 212.127 153.515C209.992 152.585 200.769 149.012 200.873 146.591C201.026 143.007 202.646 142.892 201.501 138.469C200.583 134.916 209.104 128.312 210.463 126.876C213.019 131.725 213.09 131.953 212.37 134.972C210.998 140.725 216.49 149.156 215.345 152.331Z" fill="#4A75CB"/>
<path d="M191.499 131.521C189.773 134.313 186.578 139.054 184.532 139.536C183.524 139.774 181.377 138.933 179.002 137.735C180.736 138.181 182.419 138.168 184.055 138.01C185.83 137.839 186.344 135.665 189.147 132.405C190.965 130.29 191.411 130.823 191.499 131.521Z" fill="#4A75CB"/>
<path d="M200.041 138.383C200.041 138.383 198.496 137.182 197.037 137.467C195.579 137.753 194.864 138.755 194.922 139.213C194.977 139.67 195.75 140.957 196.866 141.072C197.982 141.185 201.157 140.384 201.157 140.384L200.041 138.383Z" fill="#FFB27D"/>
<path d="M203.144 113.417C203.144 113.417 209.093 113.785 211.151 116.656C214.05 120.698 219.083 137.201 217.712 140.977L199.616 140.9C199.616 140.9 199.177 138.851 199.787 137.859C200.397 136.868 210.312 135.266 210.771 134.808C211.228 134.349 205.05 125.884 205.05 124.511C205.05 123.139 203.144 113.417 203.144 113.417Z" fill="#699DEE"/>
<path d="M198.486 145.142H176.58L172.63 131.37H194.504L198.486 145.142Z" fill="#1C468A"/>
<path d="M176.655 144.606H205.295V145.142H176.655V144.606Z" fill="#163560"/>
<path d="M183.539 138.032C183.401 137.548 183.681 137.155 184.166 137.155C184.65 137.155 185.154 137.548 185.292 138.032C185.431 138.516 185.152 138.909 184.668 138.909C184.184 138.909 183.68 138.516 183.539 138.032Z" fill="#163560"/>
<path d="M129.651 113.887C129.651 113.887 132.045 111.931 132.906 111.92C133.766 111.911 135.4 111.481 135.336 111.76C135.271 112.039 133.895 112.404 134.131 112.534C134.368 112.663 136.368 112.125 136.927 112.447C137.486 112.769 138.798 114.103 137.745 114.684C136.691 115.266 133.529 116.189 132.712 116.083C131.895 115.975 130.045 115.845 130.045 115.845L129.651 113.887Z" fill="#FFB27D"/>
<path d="M99.0679 186.657L101.076 195.117L104.084 195.099L104.195 186.657H99.0679Z" fill="#FFB27D"/>
<path d="M124.375 187.019L130.089 195.117L132.316 192.257L128.877 185.905L124.375 187.019Z" fill="#FFB27D"/>
<path d="M112.665 84.7465C112.665 84.7447 112.665 84.7447 112.665 84.7447C112.665 84.7231 112.663 84.7033 112.66 84.6817C112.622 84.2605 112.574 83.8447 112.517 83.4307C112.517 83.4289 112.517 83.4289 112.517 83.4289C112.345 82.1599 112.097 80.9395 111.796 79.8505C111.623 79.2259 111.433 78.6427 111.228 78.1189C111.198 78.0379 111.167 77.9623 111.137 77.8849L111.136 77.8831C110.647 76.6897 110.089 75.8329 109.52 75.5107C108.481 74.9203 107.237 74.8555 106.366 74.9059C106.59 74.6755 107.032 74.5909 107.032 74.5909C106.492 74.5099 105.287 75.0463 105.287 75.0463C97.7788 72.1536 96.5986 83.2075 96.7568 85.7762C96.9134 88.3448 94.2327 89.1836 90.3271 91.2068C82.8735 95.0678 82.2197 100.239 82.2197 100.239C82.2764 100.273 82.3383 100.313 82.4021 100.356C82.772 99.7317 83.5343 98.5545 84.176 98.3763C84.1502 98.4339 83.4173 99.9963 83.1419 100.891C84.0831 101.607 85.3719 102.694 86.7654 103.909C86.7654 103.909 86.7654 103.909 86.7672 103.911C88.6322 105.539 90.6815 107.394 92.3213 108.897C92.3092 108.384 92.3297 107.655 92.5173 107.27L92.8305 109.157L92.8717 109.403C93.9178 110.364 94.7421 111.131 95.1602 111.524C95.203 111.563 95.241 111.599 95.2754 111.63C95.3974 111.745 95.463 111.806 95.463 111.806C95.4027 111.147 96.3284 109.59 97.7788 107.67C97.8787 107.535 97.9837 107.4 98.0902 107.263C98.5566 106.656 99.071 106.021 99.6198 105.369C99.8177 105.134 100.017 104.898 100.224 104.658C100.224 104.657 100.226 104.656 100.226 104.656C100.391 104.464 100.557 104.273 100.73 104.079L100.731 104.077C101.137 103.616 101.555 103.153 101.981 102.691C103.082 101.49 104.234 100.309 105.36 99.2348C106.994 97.6706 108.568 96.335 109.845 95.4962C109.893 95.426 109.94 95.354 109.983 95.2802C110.22 94.8968 110.423 94.4612 110.597 94.013C110.65 93.8798 110.7 93.743 110.747 93.608C111.247 92.1698 111.471 90.7046 111.519 90.3554C111.397 91.7972 111.201 92.87 110.984 93.6692C110.936 93.8456 110.888 94.0058 110.838 94.157V94.1588C110.726 94.4972 110.614 94.7744 110.504 95.0012C110.723 94.7996 110.922 94.5728 111.106 94.319C111.227 94.1552 111.34 93.9788 111.445 93.7934C112.7 91.6082 112.97 88.1108 112.665 84.7465Z" fill="#163560"/>
<path d="M109.548 95.6599C109.573 95.6707 107.135 96.9361 105.302 96.4357C103.578 95.9641 102.451 93.7286 102.474 93.7232C103.205 93.5792 103.416 92.5748 103.4 88.2622L103.73 88.3269L109.281 89.4267C109.281 89.4267 109.155 91.1745 109.151 92.8196C109.148 94.202 109.231 95.5123 109.548 95.6599Z" fill="#FFB27D"/>
<path d="M103.269 77.3198C103.269 77.3198 106.007 74.4055 109.445 77.1704C109.445 77.1704 107.444 76.8248 103.269 77.3198Z" fill="#E37970"/>
<path d="M109.285 89.4265C109.285 89.4265 109.159 91.1742 109.155 92.8193C106.048 92.7311 104.406 89.898 103.733 88.3267L109.285 89.4265Z" fill="#ED975D"/>
<path d="M103.155 87.7236C103.155 87.7236 101.527 85.1515 101.137 82.9519C100.858 81.3805 101.657 75.5611 107.506 76.3981C107.506 76.3981 109.205 76.5655 110.802 77.6455C112.072 78.5023 113.904 80.3545 111.855 85.4341L111.323 87.1494L103.155 87.7236Z" fill="#163560"/>
<path d="M131.411 190.037L128.469 190.127L125.283 190.225C125.283 190.225 117.926 182.033 113.799 168.902C113.703 168.598 113.602 168.288 113.494 167.975C111.236 161.391 106.554 153.123 104.086 145.641C103.693 144.449 103.341 143.328 103.024 142.266C102.923 141.925 102.824 141.592 102.731 141.263C100.912 134.945 100.386 130.798 99.9004 126.364L117.718 126.508C117.718 126.508 120.594 156.772 131.411 190.037Z" fill="#2B478B"/>
<path d="M115.22 116.27C115.175 124.748 116.464 128.386 116.464 128.386C116.464 128.386 108.835 132.261 99.7683 129.408C99.6617 129.374 92.2612 127.686 92.2612 127.686C92.413 127.342 93.7622 121.629 93.91 121.314C95.8243 117.204 97.2778 115.401 97.505 114.137C97.926 111.777 97.9353 109.337 97.7253 107.034C97.1722 100.94 95.5268 95.8799 95.5268 95.8799C97.9973 95.3165 100.311 94.3301 102.882 93.3653C103.473 94.1015 105.281 94.8719 106.85 94.8377C108.656 94.7981 109.241 94.0241 109.148 93.1799C111.072 94.2509 112.608 95.2625 112.608 95.2625C114.244 98.1029 117.561 100.862 117.801 105.222C117.861 106.293 115.221 116.033 115.22 116.27Z" fill="#E7F1FD"/>
<path d="M110.318 90.9855C110.318 90.9855 102.968 91.1061 102.963 86.5288C102.958 81.9497 102.006 78.8825 106.698 78.6107C111.391 78.3407 112.304 80.0867 112.678 81.6149C113.051 83.1412 112.229 90.8361 110.318 90.9855Z" fill="#FFB27D"/>
<path d="M110.048 78.4989C110.048 78.4989 108.036 83.8701 104.948 84.6639C101.86 85.4595 100.52 84.6315 100.52 84.6315C100.52 84.6315 102.889 82.7487 103.38 79.4637C103.38 79.4637 108.531 75.9429 110.048 78.4989Z" fill="#163560"/>
<path d="M109.551 78.9341C109.551 78.9341 111.054 80.1347 111.421 81.2993C111.787 82.4657 111.952 84.8651 112.651 84.7841C112.651 84.7841 114.167 81.1337 112.464 79.0673C110.657 76.8785 109.551 78.9341 109.551 78.9341Z" fill="#163560"/>
<path d="M100.981 194.644C100.981 194.644 101.223 196.319 100.598 198.11C100.598 198.11 100.106 200.355 102.315 200.396C104.524 200.438 105.066 200.229 104.816 198.854C104.566 197.478 104.09 195.099 104.09 195.099L100.981 194.644Z" fill="#FFB27D"/>
<path d="M105.108 201.729H100.269C100.071 200.733 100.509 198.611 100.581 198.202C100.586 198.172 100.591 198.15 100.595 198.134C100.597 198.12 100.598 198.112 100.598 198.112C103.098 200.404 104.664 198.053 104.664 198.053C104.666 198.057 104.667 198.06 104.669 198.066C105.035 198.964 105.113 201.378 105.108 201.729Z" fill="#C45446"/>
<path d="M137.637 199.079C137.637 199.079 133.564 194.558 132.313 192.257L129.284 193.809L136.055 200.167L137.639 199.959L137.637 199.079Z" fill="#FFB27D"/>
<path d="M140.227 201.729C140.227 201.729 135.184 201.729 135.103 201.729C134.349 201.729 133.746 200.477 132.933 198.852C132.601 198.186 131.854 197.821 131.089 197.619L131.109 201.729H129.926L128.838 197.383C128.116 196.057 128.78 194.854 129.288 193.808C129.878 193.806 131.466 194.211 134.475 197.601C135.464 198.715 136.556 199.111 137.64 199.079C137.655 199.088 137.67 199.095 137.685 199.102C140.186 200.227 140.227 201.729 140.227 201.729Z" fill="#C45446"/>
<path d="M128.469 190.127L125.284 190.225C125.284 190.225 117.926 182.033 113.799 168.902C113.703 168.598 113.602 168.288 113.494 167.975C111.236 161.39 106.554 153.123 104.086 145.64C103.693 144.449 103.341 143.327 103.024 142.265C102.923 141.925 102.824 141.592 102.73 141.263L105.354 139.272C105.354 139.272 113.232 152.029 115.67 164.033C117.789 174.46 126.273 187.006 128.469 190.127Z" fill="#233862"/>
<path d="M105.625 165.151C105.67 170.988 105.375 184.409 104.614 189.966H101.793C100.234 189.966 99.4559 189.944 99.4559 189.944C97.5486 180.284 96.1918 172.29 95.2038 165.401C94.3936 159.747 93.6733 154.902 93.1192 150.731C92.5614 146.532 92.1737 143.016 92.0349 140.046C92.0137 139.578 91.9973 139.123 91.9887 138.682C91.9799 138.237 91.9775 137.807 91.9811 137.387L107.376 135.886C107.182 146.116 105.6 161.758 105.625 165.151Z" fill="#2B478B"/>
<path d="M101.792 189.966C100.232 189.966 99.4547 189.944 99.4547 189.944C97.5474 180.284 96.1906 172.29 95.2026 165.401C94.3924 159.747 93.672 154.902 93.118 150.731C92.5602 146.532 92.1725 143.016 92.0337 140.046L97.6826 143.369C97.6826 143.369 94.0772 144.642 95.4528 154.27C96.8285 163.9 99.8773 188.603 101.792 189.966Z" fill="#233862"/>
<path d="M102.522 139.951C102.522 139.951 101.438 143.869 97.6864 143.369C93.9347 142.869 88.5996 140.619 88.5996 140.619C88.5996 140.619 90.2029 135.552 92.1964 128.897C94.61 120.838 95.2107 109.515 96.6189 102.963C97.014 101.127 99.6711 100.531 99.7712 99.4329L102.884 93.3939C102.884 93.3939 107.525 103.81 107.775 106.437C108.025 109.063 102.522 139.951 102.522 139.951Z" fill="#F99746"/>
<path d="M99.896 114.169C99.7284 118.422 98.2407 125.675 92.2642 128.862C92.2409 128.875 92.2166 128.886 92.1929 128.896C94.6065 120.838 94.5754 113.109 95.9835 106.557C99.1961 105.887 99.9873 111.829 99.896 114.169Z" fill="#ED7D2B"/>
<path d="M138.715 111.628H132.953C132.949 111.655 132.944 111.764 132.935 111.919C132.913 112.441 132.877 113.464 132.884 113.559C132.965 114.781 133.815 115.454 134.637 115.777H134.639C134.644 115.78 134.646 115.782 134.651 115.784C134.845 115.859 135.04 115.915 135.22 115.955C135.358 115.984 135.49 116.003 135.609 116.014C135.69 116.023 135.764 116.027 135.833 116.027C136.254 116.027 136.654 115.935 137.015 115.773C138.028 115.319 138.739 114.299 138.739 113.122V111.989C138.739 111.867 138.73 111.748 138.715 111.628Z" fill="#C45446"/>
<path d="M138.244 111.628H137.463C137.478 111.746 137.487 111.867 137.487 111.989V113.122C137.487 113.91 137.169 114.628 136.654 115.154C136.4 115.411 136.097 115.624 135.761 115.773C135.589 115.85 135.408 115.912 135.221 115.955C135.14 115.973 135.057 115.987 134.973 115.998C135.1 116.018 135.231 116.027 135.364 116.027C135.446 116.027 135.529 116.023 135.61 116.014C135.94 115.989 136.255 115.904 136.544 115.773C137.084 115.53 137.539 115.127 137.845 114.625C137.845 114.625 137.845 114.625 137.847 114.623C137.967 114.423 138.067 114.205 138.138 113.977C138.222 113.707 138.266 113.42 138.266 113.122V111.989C138.266 111.867 138.26 111.746 138.244 111.628Z" fill="#E37970"/>
<path d="M134.653 116.128H137.024V115.773H134.653V116.128Z" fill="#C45446"/>
<path d="M93.3312 123.61C93.3312 123.61 96.0118 123.031 96.7007 123.796C97.3896 124.56 97.776 125.777 97.0879 126.204C96.3995 126.632 94.4065 125.459 93.6896 125.932C93.1762 126.27 93.0137 127.133 92.4982 126.832C91.9826 126.53 91.4385 124.555 91.4385 124.555L93.3312 123.61Z" fill="#FFB27D"/>
<path d="M102.883 93.3937C102.883 93.3937 95.6496 93.7105 93.9111 95.3251C92.1729 96.9397 81.7633 109.415 81.5912 112.684C81.4191 115.953 90.7104 125.245 90.7104 125.245C90.7104 125.245 93.2912 124.622 94.4096 122.998C94.4096 122.998 88.6456 112.72 88.9898 112.272C89.3339 111.824 99.0982 103.823 99.8981 105.598C100.588 107.128 102.883 93.3937 102.883 93.3937Z" fill="#F99746"/>
<path d="M130.399 112.827C130.399 112.827 122.14 115.581 121.108 115.35C120.075 115.122 118.601 103.931 117.804 100.095C116.778 95.1561 112.863 94.1733 112.863 94.1733L109.149 93.1797C109.149 93.1797 113.402 103.684 113.527 105.81C113.652 107.936 114.027 140.577 114.027 140.577C114.027 140.577 113.777 142.079 116.653 141.452C119.53 140.828 120.28 140.201 120.28 140.201C120.28 140.201 119.033 131.077 118.447 122.977C121.378 122.476 130.8 117.701 130.8 117.701C132.263 115.404 130.399 112.827 130.399 112.827Z" fill="#F99746"/>
<path d="M153.482 148.063L151.978 156.586V156.588L147.823 180.13L144.11 201.176C144.054 201.495 143.769 201.729 143.436 201.729C143.145 201.729 142.918 201.478 142.958 201.196L146.16 177.339L149.585 151.818L150.102 147.968L153.482 148.063Z" fill="#C69D7F"/>
<path d="M169.923 148.063L168.418 156.586V156.588L164.263 180.13L160.55 201.176C160.494 201.495 160.21 201.729 159.879 201.729C159.585 201.729 159.358 201.478 159.398 201.196L162.6 177.339L166.026 151.818L166.542 147.968L169.923 148.063Z" fill="#C69D7F"/>
<path d="M151.976 156.587C152.174 152.926 149.583 151.819 149.583 151.819L150.1 147.968L153.481 148.064L151.976 156.587Z" fill="#A0795F"/>
<path d="M295.333 201.729C295.001 201.729 294.716 201.495 294.66 201.176L291.362 182.477L286.617 155.584L285.29 148.063L288.669 147.968L289.256 152.333L293.372 183.012L295.815 201.196C295.85 201.478 295.625 201.729 295.333 201.729Z" fill="#C69D7F"/>
<path d="M289.255 152.333C287.067 153.3 286.617 155.584 286.617 155.584L285.29 148.063L288.667 147.968L289.255 152.333Z" fill="#A0795F"/>
<path d="M314.283 201.729C313.952 201.729 313.666 201.495 313.609 201.176L310.311 182.477L305.565 155.584L304.238 148.063L307.619 147.968L308.207 152.333L312.323 183.012L314.764 201.196C314.801 201.478 314.576 201.729 314.283 201.729Z" fill="#C69D7F"/>
<path d="M308.206 152.333C306.014 153.3 305.564 155.584 305.564 155.584L304.238 148.064L307.619 147.968L308.206 152.333Z" fill="#A0795F"/>
<path d="M313.827 151.017H137.478C135.87 151.017 134.555 149.701 134.555 148.093V148.034C134.555 146.426 135.87 145.111 137.478 145.111H313.827C315.433 145.111 316.75 146.426 316.75 148.034V148.093C316.75 149.701 315.433 151.017 313.827 151.017Z" fill="#E0B594"/>
<path d="M172.206 142.604C172.06 142.98 171.407 143.182 171.085 143.261C171.213 142.964 171.294 142.642 171.317 142.305C171.515 142.032 171.83 141.873 172.06 141.915C172.266 141.953 172.39 142.129 172.206 142.604ZM172.51 141.558C172.239 141.391 171.708 141.456 171.324 141.537V140.981C171.324 140.858 171.315 140.736 171.299 140.617H165.537C165.523 140.736 165.514 140.858 165.514 140.981V142.111C165.514 143.709 166.82 145.016 168.419 145.016C169.283 145.016 170.062 144.633 170.597 144.026V144.028C170.597 144.028 171.967 143.69 172.397 143.178C172.827 142.667 172.968 141.841 172.51 141.558Z" fill="#C45446"/>
<path d="M165.986 140.981V142.111C165.986 143.708 167.293 145.016 168.891 145.016C169.022 145.016 169.154 145.007 169.28 144.987C167.867 144.797 166.767 143.576 166.767 142.111V140.981C166.767 140.858 166.776 140.736 166.79 140.617H166.009C165.995 140.736 165.986 140.858 165.986 140.981Z" fill="#E37970"/>
<path d="M169.602 145.117H167.232V144.762H169.602V145.117Z" fill="#C45446"/>
<path d="M254.096 142.604C253.949 142.98 253.296 143.181 252.974 143.261C253.102 142.964 253.183 142.642 253.205 142.305C253.405 142.032 253.719 141.873 253.947 141.915C254.154 141.952 254.279 142.129 254.096 142.604ZM254.399 141.558C254.125 141.391 253.597 141.456 253.212 141.536V140.98C253.212 140.858 253.205 140.736 253.189 140.617H247.426C247.411 140.736 247.402 140.858 247.402 140.98V142.111C247.402 143.709 248.709 145.016 250.308 145.016C251.172 145.016 251.951 144.632 252.486 144.026L252.484 144.027C252.484 144.027 253.857 143.689 254.287 143.178C254.717 142.667 254.857 141.841 254.399 141.558Z" fill="#C45446"/>
<path d="M247.875 140.981V142.111C247.875 143.708 249.182 145.016 250.779 145.016C250.912 145.016 251.043 145.007 251.169 144.987C249.756 144.797 248.656 143.576 248.656 142.111V140.981C248.656 140.858 248.663 140.736 248.68 140.617H247.898C247.884 140.736 247.875 140.858 247.875 140.981Z" fill="#E37970"/>
<path d="M251.492 145.117H249.122V144.762H251.492V145.117Z" fill="#C45446"/>
<path d="M40.2948 100.736V201.729H13.6516C13.6516 201.729 13.2507 197.801 13.1319 191.46C13.0649 187.764 13.0889 183.248 13.3488 178.212C13.3711 177.801 13.3934 177.384 13.4176 176.964C13.5535 174.657 13.7358 172.245 13.9819 169.759C14.0042 169.539 14.0267 169.318 14.0508 169.095C14.3192 166.497 14.6529 163.797 15.0692 161.022C15.4084 158.768 15.799 156.46 16.2565 154.119C16.2875 153.955 16.3202 153.789 16.3528 153.624C16.5886 152.432 16.8415 151.233 17.1117 150.022C17.2166 149.548 17.325 149.071 17.4352 148.594C17.6519 147.666 17.879 146.73 18.1165 145.795C18.6946 143.5 19.3397 141.191 20.0556 138.873C20.1278 138.639 20.2019 138.399 20.2741 138.16C20.5994 137.128 20.9399 136.093 21.2927 135.055C21.8329 133.48 22.4059 131.901 23.0168 130.328C23.397 129.34 23.7962 128.355 24.2073 127.369C28.1045 118.041 33.3247 108.91 40.2948 100.736Z" fill="#DEEDFF"/>
</svg>
