<svg width="42" height="36" viewBox="0 0 42 36" fill="none" xmlns="http://www.w3.org/2000/svg">
<rect x="0.5" y="0.5" width="40.6758" height="35.0219" />
<path d="M16.5 18.2452C16.5 17.0103 15.4875 16 14.25 16C13.0125 16 12 17.0103 12 18.2452C12 19.48 13.0125 20.4904 14.25 20.4904C15.4875 20.4904 16.5 19.48 16.5 18.2452ZM18.75 18.2452C18.75 19.48 19.7625 20.4904 21 20.4904C22.2375 20.4904 23.25 19.48 23.25 18.2452C23.25 17.0103 22.2375 16 21 16C19.7625 16 18.75 17.0103 18.75 18.2452ZM25.5 18.2452C25.5 19.48 26.5125 20.4904 27.75 20.4904C28.9875 20.4904 30 19.48 30 18.2452C30 17.0103 28.9875 16 27.75 16C26.5125 16 25.5 17.0103 25.5 18.2452Z" fill="#757575"/>
</svg>