<svg width="24" height="24" viewBox="0 0 24 24" fill="none" xmlns="http://www.w3.org/2000/svg">
<g clip-path="url(#clip0)">
<path d="M15.4227 2.96563C15.1815 1.27504 13.7099 0 11.9999 0C10.9002 0 9.85572 0.53068 9.20634 1.42007C9.0737 1.60145 9.11339 1.85589 9.29477 1.98853C9.47556 2.12069 9.73059 2.08149 9.86299 1.89986C10.3601 1.21974 11.1588 0.813598 11.9998 0.813598C13.3076 0.813598 14.4327 1.7882 14.6172 3.0804C14.6463 3.28335 14.8204 3.42981 15.0195 3.42981C15.0385 3.42981 15.058 3.42838 15.0774 3.42576C15.2998 3.39394 15.4544 3.18789 15.4227 2.96563Z" fill="#008FFF"/>
<path d="M21.2984 7.51937L20.0781 5.48543C20.0047 5.3628 19.8723 5.28796 19.7292 5.28796H18.5598C18.3353 5.28796 18.1531 5.47018 18.1531 5.6947C18.1531 5.91923 18.3353 6.10144 18.5598 6.10144H19.499L20.2312 7.32178H3.76965L4.50185 6.10144H4.93266C5.15719 6.10144 5.3394 5.91923 5.3394 5.6947C5.3394 5.47018 5.15719 5.28796 4.93266 5.28796H4.27161C4.1286 5.28796 3.9962 5.3628 3.92279 5.48543L2.70245 7.51937C2.62701 7.64522 2.62523 7.80169 2.69733 7.92921C2.76943 8.05672 2.90457 8.13562 3.05127 8.13562H20.9496C21.0963 8.13562 21.2313 8.05672 21.3035 7.92921C21.3758 7.80169 21.3738 7.64498 21.2984 7.51937Z" fill="#008FFF"/>
<path d="M19.2697 3.7686C19.2127 3.67672 19.1218 3.61153 19.0167 3.58698L13.4714 2.29002C13.3664 2.26535 13.2558 2.2837 13.1641 2.34043C13.0726 2.39739 13.0073 2.48832 12.9827 2.59343L12.5645 4.38104C12.5133 4.59972 12.6491 4.81852 12.8679 4.86953C13.0866 4.92077 13.3057 4.78492 13.3567 4.56611L13.6823 3.17476L18.4353 4.28653L17.6884 7.47979C17.6371 7.69847 17.773 7.91727 17.9918 7.96828C18.0232 7.97555 18.0543 7.97901 18.085 7.97901C18.2697 7.97901 18.4369 7.85244 18.4804 7.66498L19.32 4.07571C19.3448 3.97072 19.3267 3.86013 19.2697 3.7686Z" fill="#008FFF"/>
<path d="M12.2154 4.73025L11.8448 1.59539C11.8322 1.48826 11.7775 1.39041 11.6926 1.32368C11.6078 1.25694 11.5006 1.22643 11.393 1.23906L4.5894 2.04325C4.36643 2.0697 4.20698 2.27182 4.23331 2.49503L4.85123 7.72353C4.87578 7.93054 5.05132 8.08272 5.25475 8.08272C5.2706 8.08272 5.28693 8.08165 5.30313 8.07986C5.52599 8.05341 5.68544 7.85129 5.65922 7.62808L5.08898 2.80322L11.0847 2.09461L11.4074 4.82547C11.4339 5.04856 11.6351 5.20707 11.8592 5.1818C12.0822 5.15558 12.2416 4.95335 12.2154 4.73025Z" fill="#008FFF"/>
<path d="M15.4314 7.57415L14.624 4.21656C14.5987 4.11181 14.5328 4.02112 14.4409 3.96475C14.349 3.90885 14.2388 3.89134 14.1333 3.91636L7.58033 5.49231C7.36188 5.54475 7.22746 5.7645 7.27989 5.98295L7.68341 7.66115C7.73585 7.87983 7.95561 8.01438 8.17393 7.96158C8.39238 7.90915 8.5268 7.68939 8.47437 7.47095L8.16583 6.18816L13.9279 4.80265L14.6402 7.76459C14.6849 7.9511 14.8517 8.07623 15.0353 8.07623C15.0669 8.07623 15.0989 8.07253 15.1309 8.06479C15.3494 8.01223 15.4838 7.7926 15.4314 7.57415Z" fill="#008FFF"/>
<path d="M21.3553 7.70803C21.3441 7.49185 21.1656 7.32214 20.9489 7.32214H3.05059C2.83394 7.32214 2.65541 7.49173 2.64421 7.70803L1.83061 23.5724C1.82489 23.6837 1.86517 23.7926 1.94192 23.8734C2.01879 23.9541 2.12533 24 2.23688 24H21.7623C21.8737 24 21.9804 23.9542 22.0576 23.8734C22.1342 23.7926 22.1745 23.6838 22.1689 23.5724L21.3553 7.70803ZM2.66495 23.1864L3.43684 8.13562H20.5622L21.3341 23.1864H2.66495Z" fill="#008FFF"/>
<path d="M15.0514 8.9491C14.3784 8.9491 13.8311 9.49646 13.8311 10.1694C13.8311 10.8424 14.3784 11.3898 15.0514 11.3898C15.7244 11.3898 16.2717 10.8424 16.2717 10.1694C16.2717 9.49646 15.7244 8.9491 15.0514 8.9491ZM15.0514 10.5763C14.827 10.5763 14.6447 10.3938 14.6447 10.1696C14.6447 9.94527 14.8271 9.76281 15.0514 9.76281C15.2757 9.76281 15.4581 9.94527 15.4581 10.1696C15.4581 10.3938 15.2757 10.5763 15.0514 10.5763Z" fill="#008FFF"/>
<path d="M8.94983 8.9491C8.27686 8.9491 7.72949 9.49646 7.72949 10.1694C7.72949 10.8424 8.27686 11.3898 8.94983 11.3898C9.6228 11.3898 10.1702 10.8424 10.1702 10.1694C10.1702 9.49646 9.6228 8.9491 8.94983 8.9491ZM8.94983 10.5763C8.72555 10.5763 8.54309 10.3938 8.54309 10.1696C8.54309 9.94527 8.72555 9.76281 8.94983 9.76281C9.17411 9.76281 9.35657 9.94527 9.35657 10.1696C9.35657 10.3938 9.17411 10.5763 8.94983 10.5763Z" fill="#008FFF"/>
<path d="M15.0514 10.1694H15.0201C14.7955 10.1694 14.6133 10.3516 14.6133 10.5762C14.6133 10.6317 14.6243 10.6847 14.6447 10.733V12.8134C14.6447 14.2713 13.4585 15.4575 12.0006 15.4575C10.5426 15.4575 9.35645 14.2714 9.35645 12.8134V10.5763C9.35645 10.3518 9.17423 10.1696 8.94971 10.1696C8.72519 10.1696 8.54297 10.3518 8.54297 10.5763V12.8135C8.54297 14.7201 10.094 16.2711 12.0006 16.2711C13.9071 16.2711 15.4581 14.7201 15.4581 12.8135V10.5763C15.4581 10.3518 15.2759 10.1694 15.0514 10.1694Z" fill="#008FFF"/>
</g>
<defs>
<clipPath id="clip0">
<rect width="24" height="24" fill="white"/>
</clipPath>
</defs>
</svg>
