<svg width="200" height="143" viewBox="0 0 200 143" fill="none" xmlns="http://www.w3.org/2000/svg">
<g clip-path="url(#clip0)">
<path opacity="0.1" d="M200 79.2703C199.996 86.0395 198.523 92.7273 195.683 98.8721C192.844 105.017 188.705 110.472 183.552 114.862C178.399 119.252 172.355 122.472 165.837 124.299C159.32 126.127 152.483 126.518 145.799 125.446H71.659C68.7955 125.839 65.9084 126.037 63.018 126.036C34.8518 126.036 10.9974 107.557 2.929 82.0616C0.981612 75.9016 -0.00635183 69.4787 -0.000215733 63.0182C-0.000215733 28.2133 28.2148 0 63.018 0C91.0481 0 114.799 18.2962 122.985 43.6083C131.428 36.4243 142.157 32.4871 153.242 32.5041C179.062 32.5041 200 53.4416 200 79.2703Z" fill="#008FFF"/>
<path opacity="0.1" d="M182.036 116.116C176.961 120.078 171.124 122.952 164.89 124.557C158.655 126.162 152.156 126.465 145.799 125.446H71.6595C68.7959 125.839 65.9089 126.037 63.0185 126.036C34.8523 126.036 10.9979 107.557 2.92944 82.0616C8.96418 69.163 24.4726 59.9843 42.6554 59.9843C60.3738 59.9843 75.5523 68.7021 81.8995 81.0841C85.0207 80.5165 88.1868 80.2319 91.3592 80.2339C109.724 80.2339 125.359 89.5994 131.263 102.702C136.154 101.22 141.237 100.472 146.347 100.484C161.325 100.484 174.489 106.712 182.036 116.116Z" fill="#008FFF"/>
<path d="M130.811 55.4456H48.0671V61.9045H130.811V55.4456Z" fill="white"/>
<path d="M130.811 69.4109H48.0671V75.8698H130.811V69.4109Z" fill="white"/>
<path d="M130.811 83.3761H48.0671V89.835H130.811V83.3761Z" fill="white"/>
<path d="M147.503 58.1653L147.063 58.6052L148.477 60.0192L151.619 56.877L151.179 56.4371L148.477 59.1237L147.503 58.1653ZM151.305 58.7623C151.304 59.2867 151.139 59.7978 150.833 60.2234C150.526 60.6489 150.094 60.9675 149.597 61.1341C149.1 61.3007 148.563 61.3069 148.062 61.1519C147.561 60.9969 147.121 60.6884 146.805 60.2701C146.488 59.8517 146.312 59.3446 146.299 58.8204C146.286 58.2961 146.439 57.7811 146.735 57.3481C147.031 56.9152 147.455 56.586 147.948 56.4072C148.441 56.2284 148.978 56.2089 149.482 56.3516L149.969 55.8645C149.597 55.7052 149.196 55.6249 148.791 55.6289C148.17 55.6289 147.562 55.8132 147.045 56.1584C146.529 56.5037 146.126 56.9944 145.888 57.5686C145.65 58.1427 145.588 58.7745 145.709 59.3841C145.831 59.9936 146.13 60.5535 146.569 60.9929C147.009 61.4324 147.569 61.7316 148.178 61.8529C148.788 61.9741 149.419 61.9119 149.994 61.6741C150.568 61.4362 151.058 61.0335 151.404 60.5168C151.749 60 151.933 59.3925 151.933 58.771L151.305 58.7623Z" fill="#3ACC6C"/>
<path d="M147.503 72.1306L147.063 72.5705L148.477 73.9845L151.619 70.8423L151.179 70.4024L148.477 73.0889L147.503 72.1306ZM151.305 72.7276C151.304 73.252 151.139 73.7631 150.833 74.1886C150.526 74.6142 150.094 74.9327 149.597 75.0994C149.1 75.266 148.563 75.2722 148.062 75.1172C147.561 74.9621 147.121 74.6537 146.805 74.2353C146.488 73.817 146.312 73.3099 146.299 72.7856C146.286 72.2614 146.439 71.7464 146.735 71.3134C147.031 70.8804 147.455 70.5513 147.948 70.3725C148.441 70.1937 148.978 70.1742 149.482 70.3168L149.969 69.8298C149.597 69.6705 149.196 69.5902 148.791 69.5941C148.17 69.5941 147.562 69.7784 147.045 70.1237C146.529 70.469 146.126 70.9597 145.888 71.5339C145.65 72.108 145.588 72.7398 145.709 73.3493C145.831 73.9589 146.13 74.5187 146.569 74.9582C147.009 75.3976 147.569 75.6969 148.178 75.8181C148.788 75.9394 149.419 75.8772 149.994 75.6393C150.568 75.4015 151.058 74.9988 151.404 74.482C151.749 73.9653 151.933 73.3578 151.933 72.7363L151.305 72.7276Z" fill="#3ACC6C"/>
<path opacity="0.1" d="M100.088 142.728C149.257 142.728 189.116 140.735 189.116 138.277C189.116 135.819 149.257 133.826 100.088 133.826C50.9185 133.826 11.0591 135.819 11.0591 138.277C11.0591 140.735 50.9185 142.728 100.088 142.728Z" fill="#008FFF"/>
<path opacity="0.1" d="M158.57 43.5489C158.42 43.3337 158.337 43.0783 158.333 42.8157C158.333 41.2254 161.576 39.9354 165.577 39.9354C169.578 39.9354 172.822 41.2254 172.822 42.8157C172.814 43.1141 172.708 43.4017 172.521 43.6344C176.976 44.1302 179.979 45.0624 179.979 46.1325C179.979 47.7228 173.335 49.0128 165.141 49.0128C156.947 49.0128 150.303 47.7228 150.303 46.1325C150.303 45.0048 153.672 44.0202 158.57 43.5489Z" fill="#008FFF"/>
<path opacity="0.1" d="M132.548 12.9964C132.426 12.8202 132.358 12.6119 132.354 12.3976C132.354 11.0988 135.001 10.048 138.263 10.048C141.526 10.048 144.174 11.0954 144.174 12.3976C144.168 12.6404 144.083 12.8746 143.931 13.0645C147.564 13.4712 150.013 14.2306 150.013 15.1034C150.013 16.4004 144.602 17.453 137.909 17.453C131.216 17.453 125.803 16.4056 125.803 15.1034C125.803 14.1782 128.552 13.3804 132.548 12.9964Z" fill="#008FFF"/>
<path opacity="0.1" d="M53.3507 24.2751C53.1567 24.0983 53.0204 23.8671 52.9596 23.6118C52.6105 22.0581 55.4978 20.0943 59.4029 19.2249C63.3079 18.3556 66.7556 18.9072 67.1012 20.4609C67.1586 20.7536 67.1187 21.057 66.9878 21.325C71.4427 20.8414 74.5761 21.098 74.8083 22.1419C75.1574 23.6938 68.9499 26.3979 60.9513 28.1784C52.9527 29.959 46.1882 30.1475 45.8426 28.5939C45.5965 27.4889 48.6775 25.8026 53.3507 24.2751Z" fill="#008FFF"/>
<path opacity="0.1" d="M35.7127 22.8018C35.306 22.5661 34.7561 22.7913 34.4768 23.1701C34.1975 23.5489 34.1189 24.0429 34.0491 24.5021C33.8938 25.5337 33.7803 26.719 34.4768 27.4976C33.3386 24.0464 30.0655 21.4018 26.4468 21.016" stroke="#008FFF" stroke-width="3" stroke-miterlimit="10"/>
<path opacity="0.1" d="M71.1551 39.08C70.8932 38.9282 70.5406 39.08 70.3608 39.3174C70.2014 39.5762 70.1068 39.8697 70.085 40.1728C69.9855 40.8379 69.9104 41.599 70.3608 42.093C69.9774 40.9851 69.2906 40.0071 68.3787 39.2705C67.4667 38.5338 66.3661 38.068 65.2024 37.9261" stroke="#008FFF" stroke-width="3" stroke-miterlimit="10"/>
<path opacity="0.1" d="M128.849 28.7318C128.587 28.5816 128.234 28.7318 128.055 28.9692C127.895 29.2285 127.8 29.5225 127.779 29.8263C127.679 30.4896 127.604 31.2508 128.055 31.7465C127.671 30.6388 126.984 29.6611 126.072 28.9244C125.16 28.1878 124.06 27.7219 122.896 27.5796" stroke="#008FFF" stroke-width="3" stroke-miterlimit="10"/>
<path d="M35.6984 133.901C35.6997 134.356 35.6529 134.81 35.5587 135.255C35.5413 135.339 35.5221 135.43 35.5028 135.501C35.0071 137.49 33.6088 138.944 31.94 139.036C31.8841 139.036 31.8282 139.036 31.7654 139.036C30.0005 139.036 28.508 137.514 28.0157 135.418C28.0018 135.362 27.9895 135.306 27.9773 135.243C27.8832 134.798 27.8364 134.344 27.8377 133.888C27.8377 131.048 29.5955 128.747 31.7654 128.747C33.9352 128.747 35.6984 131.066 35.6984 133.901Z" fill="#3F3D56"/>
<path opacity="0.1" d="M35.6987 133.901C35.7 134.356 35.6532 134.81 35.5591 135.255C35.5416 135.339 35.5224 135.43 35.5032 135.501C35.4438 135.501 35.3862 135.501 35.3286 135.501C34.8963 135.478 34.4667 135.42 34.0438 135.327C33.6692 135.443 33.2864 135.53 32.8987 135.589C32.6014 135.633 32.3018 135.661 32.0014 135.673H31.6977C31.338 135.673 30.9788 135.649 30.6223 135.601C30.0459 135.524 29.4798 135.383 28.9343 135.182C28.6356 135.281 28.3314 135.363 28.0231 135.426C28.0091 135.371 27.9969 135.315 27.9847 135.252C27.8905 134.806 27.8437 134.352 27.845 133.897C27.845 131.057 29.6029 128.756 31.7727 128.756C33.9426 128.756 35.6987 131.066 35.6987 133.901Z" fill="black"/>
<path d="M44.0776 124.324C44.0793 123.074 43.7862 121.842 43.2223 120.726L38.6033 122.163L42.6584 119.778C41.9782 118.796 41.0861 117.979 40.048 117.387C39.0099 116.796 37.8522 116.445 36.6603 116.36C36.4706 116.072 36.2625 115.797 36.0371 115.536L29.4036 117.601L34.8449 114.402C33.804 113.603 32.5823 113.073 31.2878 112.859C29.9934 112.644 28.666 112.753 27.4233 113.174C26.1806 113.595 25.0609 114.315 24.1631 115.272C23.2653 116.229 22.6172 117.392 22.2761 118.659L27.9582 125.2L21.7943 120.742C20.2329 121.849 19.1213 123.481 18.6621 125.339C18.2029 127.198 18.4266 129.159 19.2925 130.866C20.1584 132.574 21.6088 133.913 23.3795 134.64C25.1502 135.368 27.1233 135.435 28.9393 134.829C30.5819 135.433 32.3771 135.483 34.0506 134.971C35.2173 135.228 36.4267 135.22 37.5899 134.947C38.753 134.675 39.8403 134.145 40.7718 133.397C41.7033 132.649 42.4553 131.702 42.9724 130.625C43.4895 129.548 43.7586 128.369 43.7599 127.175C43.7599 127 43.7599 126.826 43.7425 126.651C43.9687 125.896 44.0816 125.112 44.0776 124.324Z" fill="#008FFF"/>
<path opacity="0.1" d="M43.9398 125.804C41.5004 125.342 38.999 125.31 36.5487 125.71C33.7748 126.169 30.9399 127.178 28.2271 126.441C26.6351 126.009 25.2595 125.007 23.7041 124.45C22.2034 123.926 20.5869 123.829 19.0345 124.17C18.4429 125.586 18.2713 127.141 18.5402 128.651C18.809 130.161 19.5069 131.562 20.5506 132.686C21.5942 133.81 22.9394 134.61 24.4254 134.99C25.9114 135.37 27.4755 135.314 28.9306 134.829C30.5733 135.433 32.3684 135.483 34.0419 134.971C35.2086 135.228 36.418 135.22 37.5812 134.947C38.7443 134.675 39.8317 134.145 40.7631 133.397C41.6946 132.649 42.4466 131.702 42.9637 130.625C43.4808 129.548 43.7499 128.369 43.7512 127.175C43.7512 127 43.7512 126.826 43.7338 126.651C43.818 126.373 43.8868 126.09 43.9398 125.804Z" fill="black"/>
<path d="M176.983 125.146L184.102 120.957C183.14 119.31 181.91 117.835 180.462 116.592L167.033 120.782L177.556 114.595C174.95 113.168 172.018 112.444 169.047 112.494C166.076 112.545 163.17 113.368 160.614 114.883C158.058 116.398 155.941 118.553 154.471 121.135C153.001 123.717 152.228 126.637 152.23 129.608C152.23 139.056 159.89 139.384 169.337 139.384C178.785 139.384 186.445 139.056 186.445 129.608C186.448 127.217 185.947 124.852 184.977 122.667L176.983 125.146Z" fill="#008FFF"/>
<path opacity="0.1" d="M178.787 134.33C178.06 133.543 177.158 132.934 176.264 132.349C174.971 131.492 173.633 130.615 172.111 130.324C170.772 130.067 169.391 130.284 168.032 130.205C165.664 130.061 163.435 129.04 161.78 127.341C160.808 126.335 160.043 125.101 158.874 124.333C157.614 123.505 156.015 123.327 154.52 123.533C154.086 123.597 153.656 123.685 153.232 123.797C152.561 125.658 152.219 127.622 152.221 129.601C152.221 139.049 159.881 139.377 169.329 139.377C173.913 139.377 178.076 139.3 181.148 138.141L180.635 137.181C180.101 136.179 179.556 135.166 178.787 134.33Z" fill="black"/>
<path d="M116.809 138.431C116.731 138.154 116.562 137.911 116.329 137.743C116.301 137.724 116.271 137.706 116.241 137.689C115.999 137.576 115.737 137.509 115.47 137.491C114.468 137.362 113.415 137.169 112.656 136.512C112.436 136.322 112.249 136.1 112.047 135.896C111.617 135.486 111.154 135.111 110.662 134.777C110.614 134.732 110.557 134.697 110.496 134.674C110.434 134.652 110.368 134.641 110.303 134.644C110.113 134.495 109.957 134.307 109.844 134.094C109.735 133.823 109.684 133.533 109.693 133.241C109.592 130.273 108.962 127.222 109.662 124.338C109.737 124.013 109.716 123.673 109.603 123.359C109.744 123.294 109.885 123.228 110.025 123.156C111.209 122.534 112.263 121.69 113.127 120.669C113.531 120.234 113.851 119.73 114.071 119.18C114.335 118.439 114.297 117.629 114.202 116.851C114.008 115.478 113.733 114.119 113.38 112.778L112.579 109.461C112.404 108.732 112.211 107.983 111.823 107.346H111.86C111.834 106.977 111.806 106.609 111.752 106.244C111.637 105.58 111.48 104.924 111.28 104.28C111.21 104.036 111.156 103.696 111.076 103.367C111.221 101.878 111.8 100.433 111.898 98.9491C111.93 98.991 111.959 99.0329 111.992 99.0748C112.233 99.375 112.565 99.5985 112.809 99.89C113.267 100.445 113.37 101.196 113.466 101.903C113.495 102.272 113.587 102.633 113.736 102.971C113.82 103.111 113.894 103.256 113.958 103.406C114.059 103.708 113.984 104.036 113.923 104.35C113.838 104.797 113.804 105.317 114.127 105.644C114.301 105.811 114.528 105.912 114.768 105.928C115 105.945 115.233 105.904 115.446 105.81C115.659 105.716 115.846 105.571 115.99 105.389C116.32 104.961 116.367 104.387 116.353 103.851C116.356 103.447 116.29 103.046 116.158 102.664C115.976 102.263 115.751 101.883 115.489 101.529C115.021 100.806 114.677 100.016 114.291 99.2476C113.986 98.6202 113.63 98.0183 113.228 97.4478C113.01 97.1441 112.773 96.8526 112.577 96.5366C112.513 96.4319 112.193 95.6515 111.895 94.8712C112.048 94.8398 112.207 94.777 112.244 94.6338C112.259 94.5498 112.249 94.4633 112.218 94.3842C111.562 92.1301 111.442 89.7538 111.868 87.4452C111.984 86.8203 112.139 86.1971 112.137 85.5634C112.136 84.9297 111.963 84.2629 111.497 83.8177C111.21 83.5437 110.837 83.3709 110.54 83.109C109.969 82.6028 109.741 81.8259 109.594 81.0823C109.549 80.7334 109.441 80.3956 109.274 80.0855C109.229 80.0163 109.177 79.9509 109.121 79.89C109.532 78.7776 109.742 77.6005 109.739 76.4144C109.739 75.5242 109.621 74.638 109.39 73.7785C109.484 74.0124 109.564 74.2515 109.65 74.4959C108.92 70.6869 106.062 67.845 102.65 67.845H102.555C98.6853 67.845 95.5291 71.4986 95.379 76.074C94.6129 76.5628 94.0044 77.2627 93.6269 78.0893C93.2493 78.9159 93.1188 79.8341 93.251 80.7332C92.3715 81.6129 91.8774 82.8059 91.8772 84.0499C91.8864 85.3191 92.3994 86.5327 93.3032 87.4237C94.207 88.3148 95.4278 88.8104 96.697 88.8016C97.5089 88.8015 98.3079 88.5974 99.0204 88.2081C99.0619 88.6015 99.1325 88.9912 99.2317 89.3742C99.3923 89.9817 99.6401 90.5682 99.7554 91.1844C99.8706 91.8006 99.8636 92.4779 99.5284 93.0121C99.2575 93.4253 99.0542 93.8791 98.9262 94.3563C98.8117 94.9306 98.7759 95.5179 98.8197 96.1019C98.8354 96.6361 98.8494 97.1685 98.8651 97.7027C98.9244 99.7975 98.982 101.892 98.5578 103.949C98.3658 104.881 97.8805 105.766 97.9905 106.712C98.0452 107.055 98.145 107.39 98.2873 107.707C98.4618 108.164 98.6888 108.657 99.1322 108.878C99.3487 108.975 99.5829 109.025 99.8199 109.027C100.111 109.041 100.404 109.028 100.693 108.988C100.867 108.964 101.103 108.847 101.042 108.679C101.014 108.622 100.971 108.574 100.916 108.541C100.689 108.362 100.505 108.134 100.378 107.874C100.251 107.613 100.185 107.328 100.183 107.038C100.183 106.211 100.733 105.413 100.564 104.595C100.457 104.092 100.08 103.605 100.239 103.116C100.588 102.011 100.64 100.826 100.937 99.705C101.037 99.3401 101.136 98.9735 101.237 98.6087C101.412 97.9558 101.587 97.3012 101.738 96.6413C102.098 95.0661 102.276 93.4548 102.269 91.839C102.552 92.3592 102.745 92.9234 102.84 93.5079C102.892 93.9321 102.864 94.3807 103.063 94.7595C103.262 95.1383 103.657 95.4159 103.893 95.7807C103.796 96.002 103.686 96.2172 103.563 96.4249C103.315 96.7421 103.09 97.0757 102.887 97.4234C102.712 97.7725 102.59 98.1321 102.442 98.4865C101.944 99.677 101.091 100.756 100.967 102.039C100.866 103.071 101.257 104.08 101.653 105.038C101.886 105.611 102.127 106.181 102.377 106.749C102.393 106.785 102.41 106.826 102.43 106.862C102.459 107.154 102.498 107.443 102.536 107.735H103.177C103.439 108.084 103.73 108.433 103.887 108.84C103.991 109.156 104.05 109.484 104.062 109.816C104.189 111.387 104.165 112.998 104.76 114.459C104.935 114.894 105.109 115.332 105.127 115.774C105.146 116.142 105.204 116.507 105.301 116.863C105.39 117.248 105.437 117.641 105.441 118.036C105.461 118.714 105.444 119.393 105.389 120.07C103.992 120.943 102.829 122.203 101.573 123.294C99.8406 124.795 97.8745 126.002 95.7526 126.867C95.7526 126.834 95.7526 126.799 95.7526 126.766C95.1555 126.738 94.5865 126.941 94.0453 127.218C93.855 127.313 93.67 127.414 93.4867 127.513C93.3857 127.561 93.2941 127.626 93.2161 127.705C92.9717 127.99 93.1498 128.421 93.3366 128.753C93.958 129.841 94.5795 130.928 95.2009 132.014C95.3441 132.265 95.489 132.518 95.6077 132.782C95.8102 133.23 95.9393 133.707 96.1663 134.143C96.4351 134.609 96.7586 135.041 97.1299 135.43C97.5349 135.895 97.9422 136.356 98.3518 136.811C98.4797 136.977 98.6386 137.117 98.8197 137.223C98.9116 137.274 99.0159 137.298 99.121 137.294C99.2261 137.289 99.3278 137.255 99.415 137.196C99.4817 137.138 99.5348 137.066 99.5703 136.985C99.6648 136.789 99.708 136.572 99.696 136.355C99.6877 136.178 99.6444 136.004 99.5686 135.844C99.4928 135.684 99.386 135.54 99.2543 135.421C99.0798 135.276 98.8703 135.158 98.7987 134.95C98.7676 134.836 98.7604 134.717 98.7778 134.601C98.8651 133.572 98.9524 132.534 99.2596 131.549C99.49 130.813 99.8479 130.055 99.6768 129.303C99.5628 129.268 99.446 129.243 99.3277 129.228C99.4473 129.088 99.5743 128.955 99.7082 128.83C100.326 128.25 101.079 127.829 101.822 127.416L105.104 125.586C105.255 126.426 105.408 127.265 105.563 128.102C105.617 128.391 105.67 128.681 105.722 128.974L106.459 132.986C106.524 133.309 106.571 133.636 106.6 133.965C106.621 134.29 106.6 134.615 106.6 134.938C106.606 135.3 106.584 135.662 106.535 136.022C106.497 136.223 106.445 136.422 106.38 136.617H106.356C106.288 136.668 106.239 136.74 106.216 136.821C106.008 137.301 105.87 137.81 105.808 138.329C105.758 138.742 105.844 139.159 106.052 139.518C106.091 139.598 106.151 139.665 106.227 139.712C106.315 139.748 106.411 139.762 106.506 139.752L110.819 139.661C111.35 139.636 111.882 139.655 112.41 139.719C112.829 139.782 113.241 139.894 113.663 139.927C114.646 139.986 115.583 139.543 116.456 139.111C116.598 139.062 116.721 138.968 116.805 138.843C116.859 138.711 116.86 138.563 116.809 138.431Z" fill="url(#paint0_linear)"/>
<path d="M93.7555 81.1521C93.7232 80.9266 93.7069 80.6991 93.7066 80.4713C93.7065 79.6883 93.9015 78.9175 94.2739 78.2287C94.6463 77.5399 95.1845 76.9548 95.8398 76.5261C95.9865 71.9874 99.0745 68.3547 102.863 68.3547C106.745 68.3547 109.892 72.1655 109.892 76.8648C109.892 81.5641 106.75 85.3731 102.863 85.3731C102.497 85.373 102.131 85.3391 101.772 85.2719C101.642 85.9974 101.343 86.6824 100.9 87.2717C100.458 87.861 99.8827 88.3383 99.222 88.6651C98.5613 88.9919 97.8331 89.1592 97.096 89.1535C96.3589 89.1479 95.6334 88.9694 94.9778 88.6325C94.3222 88.2955 93.7547 87.8095 93.321 87.2134C92.8873 86.6174 92.5995 85.9279 92.4806 85.2004C92.3618 84.473 92.4152 83.7277 92.6366 83.0247C92.858 82.3216 93.2412 81.6802 93.7555 81.1521Z" fill="#3F3D56"/>
<path opacity="0.1" d="M103.233 69.4649C99.4449 69.4649 96.3568 73.0924 96.2102 77.6346C95.5546 78.0634 95.0163 78.6489 94.6438 79.338C94.2714 80.0271 94.0766 80.7982 94.077 81.5815C94.0774 81.8093 94.0937 82.0368 94.1259 82.2624C93.2632 83.1423 92.7805 84.3258 92.7817 85.5582C92.7824 85.7536 92.7946 85.9489 92.8184 86.1429C92.4936 85.2998 92.4181 84.3812 92.6007 83.4963C92.7833 82.6115 93.2164 81.7978 93.8483 81.1521C93.816 80.9266 93.7997 80.6991 93.7994 80.4713C93.7993 79.6883 93.9943 78.9175 94.3667 78.2287C94.7391 77.5399 95.2773 76.9548 95.9326 76.5261C96.0793 71.9874 99.1673 68.3547 102.955 68.3547C106.297 68.3547 109.093 71.1774 109.807 74.9603C108.803 71.7483 106.239 69.4649 103.233 69.4649Z" fill="black"/>
<path d="M107.19 78.6367C107.156 78.9146 107.187 79.1968 107.281 79.4606C107.443 79.8359 107.841 80.1711 107.724 80.5621C107.649 80.8152 107.375 80.9549 107.134 81.0387C105.954 81.4384 104.666 81.201 103.421 81.2551C103.006 81.2915 102.59 81.306 102.173 81.2988C101.753 81.2895 101.347 81.1477 101.012 80.8938C101.661 80.5776 102.273 80.1918 102.838 79.7434C102.974 79.6425 103.098 79.5252 103.205 79.3943C103.47 79.0451 103.51 78.579 103.526 78.1409C103.542 77.7027 103.538 77.2681 103.526 76.8386C104.419 76.8281 105.31 76.8241 106.199 76.8264C106.485 76.8264 107.358 76.7566 107.457 77.0656C107.508 77.2192 107.316 77.6696 107.283 77.8424C107.237 78.106 107.208 78.3713 107.19 78.6367Z" fill="#A0616A"/>
<path opacity="0.1" d="M107.19 78.6367C107.156 78.9146 107.187 79.1968 107.281 79.4606C107.443 79.8359 107.841 80.1711 107.724 80.5621C107.649 80.8152 107.375 80.9549 107.134 81.0387C105.954 81.4384 104.666 81.201 103.421 81.2551C103.006 81.2915 102.59 81.306 102.173 81.2988C101.753 81.2895 101.347 81.1477 101.012 80.8938C101.661 80.5776 102.273 80.1918 102.838 79.7434C102.974 79.6425 103.098 79.5252 103.205 79.3943C103.47 79.0451 103.51 78.579 103.526 78.1409C103.542 77.7027 103.538 77.2681 103.526 76.8386C104.419 76.8281 105.31 76.8241 106.199 76.8264C106.485 76.8264 107.358 76.7566 107.457 77.0656C107.508 77.2192 107.316 77.6696 107.283 77.8424C107.237 78.106 107.208 78.3713 107.19 78.6367Z" fill="black"/>
<path d="M111.626 94.791C111.756 95.7829 111.636 96.7916 111.277 97.7254C109.36 97.5247 107.433 97.4234 105.506 97.4217C105.838 96.9761 106.05 96.4525 106.122 95.9012C106.17 95.3844 106.17 94.8643 106.122 94.3476L109.865 94.3354C110.139 94.3233 110.414 94.3438 110.683 94.3965C111.06 94.482 111.259 94.7229 111.626 94.791Z" fill="#A0616A"/>
<path d="M112.675 96.8508C112.867 97.1668 113.099 97.4548 113.312 97.7568C113.708 98.3237 114.059 98.9215 114.359 99.5444C114.737 100.305 115.073 101.091 115.531 101.814C115.789 102.165 116.009 102.543 116.187 102.941C116.315 103.321 116.379 103.719 116.377 104.12C116.391 104.652 116.344 105.223 116.028 105.647C115.887 105.829 115.703 105.973 115.493 106.066C115.283 106.16 115.053 106.2 114.824 106.183C114.589 106.17 114.367 106.073 114.197 105.911C113.881 105.588 113.913 105.069 113.996 104.626C114.056 104.315 114.131 103.989 114.031 103.689C113.97 103.54 113.897 103.396 113.815 103.257C113.669 102.921 113.579 102.562 113.549 102.196C113.455 101.498 113.356 100.749 112.907 100.199C112.668 99.9022 112.343 99.6858 112.108 99.3873C111.984 99.2302 111.886 99.0538 111.758 98.9055C111.572 98.6925 111.312 98.5301 111.203 98.2683C111.153 98.0976 111.12 97.9221 111.106 97.7446C111.034 97.4622 110.931 97.1887 110.798 96.9294C110.371 95.9501 110.255 94.866 110.147 93.8029C110.606 93.7847 111.06 93.6952 111.491 93.5376C111.346 93.5638 112.544 96.6274 112.675 96.8508Z" fill="#A0616A"/>
<path opacity="0.1" d="M112.675 96.8508C112.867 97.1668 113.099 97.4548 113.312 97.7568C113.708 98.3237 114.059 98.9215 114.359 99.5444C114.737 100.305 115.073 101.091 115.531 101.814C115.789 102.165 116.009 102.543 116.187 102.941C116.315 103.321 116.379 103.719 116.377 104.12C116.391 104.652 116.344 105.223 116.028 105.647C115.887 105.829 115.703 105.973 115.493 106.066C115.283 106.16 115.053 106.2 114.824 106.183C114.589 106.17 114.367 106.073 114.197 105.911C113.881 105.588 113.913 105.069 113.996 104.626C114.056 104.315 114.131 103.989 114.031 103.689C113.97 103.54 113.897 103.396 113.815 103.257C113.669 102.921 113.579 102.562 113.549 102.196C113.455 101.498 113.356 100.749 112.907 100.199C112.668 99.9022 112.343 99.6858 112.108 99.3873C111.984 99.2302 111.886 99.0538 111.758 98.9055C111.572 98.6925 111.312 98.5301 111.203 98.2683C111.153 98.0976 111.12 97.9221 111.106 97.7446C111.034 97.4622 110.931 97.1887 110.798 96.9294C110.371 95.9501 110.255 94.866 110.147 93.8029C110.606 93.7847 111.06 93.6952 111.491 93.5376C111.346 93.5638 112.544 96.6274 112.675 96.8508Z" fill="black"/>
<path d="M105.361 78.2509C107.097 78.2509 108.505 76.8433 108.505 75.1069C108.505 73.3706 107.097 71.963 105.361 71.963C103.624 71.963 102.217 73.3706 102.217 75.1069C102.217 76.8433 103.624 78.2509 105.361 78.2509Z" fill="#A0616A"/>
<path d="M111.631 107.166C112.223 107.864 112.455 108.8 112.668 109.694L113.454 112.979C113.8 114.31 114.069 115.661 114.259 117.024C114.351 117.797 114.389 118.595 114.131 119.337C113.916 119.882 113.602 120.383 113.206 120.815C112.362 121.827 111.331 122.666 110.168 123.285C109.552 123.605 108.901 123.849 108.269 124.134C107.325 124.558 106.422 125.068 105.52 125.577L102.13 127.498C101.402 127.91 100.667 128.327 100.061 128.903C99.4981 129.438 99.0647 130.095 98.7938 130.823C98.7474 131.015 98.6432 131.187 98.4953 131.317C98.3033 131.45 98.0414 131.406 97.818 131.338C96.9948 131.065 96.2841 130.528 95.7953 129.812C95.3064 129.095 95.0665 128.238 95.1122 127.372C97.6044 126.5 99.9047 125.155 101.887 123.411C103.401 122.079 104.766 120.491 106.613 119.681C107.419 119.331 108.39 119.057 108.767 118.26C108.911 117.889 108.978 117.493 108.964 117.095C108.997 116.001 109.03 114.894 108.821 113.819C108.646 112.911 108.297 112.043 108.041 111.155C107.517 109.376 107.342 107.517 107.168 105.67C108.374 105.527 109.589 105.455 110.804 105.455C110.911 105.442 111.018 105.471 111.104 105.535C111.158 105.604 111.19 105.687 111.197 105.775C111.294 106.255 111.317 106.801 111.631 107.166Z" fill="#A0616A"/>
<path opacity="0.1" d="M111.631 107.166C112.223 107.864 112.455 108.8 112.668 109.694L113.454 112.979C113.8 114.31 114.069 115.661 114.259 117.024C114.351 117.797 114.389 118.595 114.131 119.337C113.916 119.882 113.602 120.383 113.206 120.815C112.362 121.827 111.331 122.666 110.168 123.285C109.552 123.605 108.901 123.849 108.269 124.134C107.325 124.558 106.422 125.068 105.52 125.577L102.13 127.498C101.402 127.91 100.667 128.327 100.061 128.903C99.4981 129.438 99.0647 130.095 98.7938 130.823C98.7474 131.015 98.6432 131.187 98.4953 131.317C98.3033 131.45 98.0414 131.406 97.818 131.338C96.9948 131.065 96.2841 130.528 95.7953 129.812C95.3064 129.095 95.0665 128.238 95.1122 127.372C97.6044 126.5 99.9047 125.155 101.887 123.411C103.401 122.079 104.766 120.491 106.613 119.681C107.419 119.331 108.39 119.057 108.767 118.26C108.911 117.889 108.978 117.493 108.964 117.095C108.997 116.001 109.03 114.894 108.821 113.819C108.646 112.911 108.297 112.043 108.041 111.155C107.517 109.376 107.342 107.517 107.168 105.67C108.374 105.527 109.589 105.455 110.804 105.455C110.911 105.442 111.018 105.471 111.104 105.535C111.158 105.604 111.19 105.687 111.197 105.775C111.294 106.255 111.317 106.801 111.631 107.166Z" fill="black"/>
<path d="M93.8362 128.824C94.4437 129.903 95.0518 130.983 95.6604 132.063C95.8018 132.312 95.9432 132.564 96.0602 132.825C96.2574 133.271 96.3831 133.744 96.6066 134.177C96.8693 134.638 97.1857 135.067 97.5492 135.454L98.7398 136.826C98.865 136.991 99.0209 137.13 99.1989 137.235C99.2887 137.286 99.391 137.311 99.4942 137.306C99.5973 137.301 99.6971 137.268 99.7819 137.209C99.8466 137.15 99.8983 137.078 99.9338 136.997C100.027 136.803 100.069 136.588 100.056 136.373C100.04 136.019 99.8841 135.685 99.6231 135.446C99.459 135.302 99.2478 135.184 99.1779 134.978C99.1475 134.864 99.1404 134.745 99.157 134.629C99.2425 133.607 99.3316 132.577 99.6301 131.6C99.8553 130.868 100.204 130.116 100.037 129.369C99.7191 129.273 99.3054 129.207 99.1151 129.479C98.745 130.003 98.7223 129.811 98.1515 129.73C97.5807 129.65 97.0447 129.615 96.6275 129.168C96.0724 128.578 96.1195 127.663 96.2016 126.859C95.6168 126.831 95.0599 127.042 94.531 127.307C94.3442 127.402 94.1627 127.501 93.9829 127.601C93.8836 127.647 93.7936 127.712 93.7175 127.791C93.4784 128.074 93.6529 128.501 93.8362 128.824Z" fill="#3F3D56"/>
<path d="M111.397 104.542C111.594 105.181 111.748 105.833 111.858 106.492C111.912 106.855 111.938 107.222 111.966 107.587C110.725 107.882 109.437 107.896 108.161 107.91L102.842 107.967C102.725 107.251 102.676 106.525 102.697 105.799C102.772 104.607 103.221 103.442 103.146 102.25C104.605 101.99 106.081 101.829 107.562 101.768C107.832 101.741 108.104 101.767 108.363 101.845C108.604 101.932 108.805 102.105 109.037 102.215C109.561 102.463 110.339 102.341 110.783 102.739C111.186 103.111 111.254 104.032 111.397 104.542Z" fill="#3F3D56"/>
<path opacity="0.1" d="M111.397 104.542C111.594 105.181 111.748 105.833 111.858 106.492C111.912 106.855 111.938 107.222 111.966 107.587C110.725 107.882 109.437 107.896 108.161 107.91L102.842 107.967C102.725 107.251 102.676 106.525 102.697 105.799C102.772 104.607 103.221 103.442 103.146 102.25C104.605 101.99 106.081 101.829 107.562 101.768C107.832 101.741 108.104 101.767 108.363 101.845C108.604 101.932 108.805 102.105 109.037 102.215C109.561 102.463 110.339 102.341 110.783 102.739C111.186 103.111 111.254 104.032 111.397 104.542Z" fill="black"/>
<path d="M111.095 106.302C111.497 108.194 111.072 110.151 110.973 112.083C110.903 113.466 111.001 114.852 111.041 116.236C111.064 116.634 111.046 117.033 110.987 117.427C110.912 117.776 110.806 118.118 110.671 118.448L110.193 119.722C109.744 120.92 109.287 122.203 109.744 123.451C109.866 123.773 109.89 124.123 109.814 124.458C109.13 127.32 109.746 130.357 109.844 133.297C109.835 133.586 109.886 133.874 109.992 134.143C110.236 134.667 110.839 134.911 111.155 135.388C111.539 135.966 111.401 136.784 110.949 137.308C110.496 137.832 109.793 138.092 109.102 138.15C108.238 138.221 107.372 138.012 106.523 137.874L106.429 137.783C106.323 137.195 106.646 136.65 106.747 136.048C106.795 135.691 106.816 135.331 106.811 134.971C106.811 134.65 106.829 134.327 106.811 134.005C106.783 133.679 106.737 133.354 106.673 133.033L105.951 129.032L105.795 128.17L105.148 124.577C105.026 123.898 105.322 123.139 105.403 122.454C105.565 121.035 105.727 119.609 105.68 118.183C105.675 117.791 105.629 117.401 105.542 117.018C105.45 116.664 105.396 116.302 105.38 115.936C105.369 115.496 105.193 115.063 105.02 114.63C104.446 113.18 104.469 111.575 104.345 110.02C104.332 109.691 104.273 109.365 104.17 109.051C103.996 108.576 103.633 108.196 103.35 107.775C103.067 107.354 102.852 106.829 103.013 106.347C103.268 105.577 104.313 105.331 104.947 105.106C106.033 104.71 107.218 104.67 108.328 104.993C109.304 105.305 110.234 105.746 111.095 106.302Z" fill="#A0616A"/>
<path d="M106.274 139.534C106.313 139.613 106.373 139.679 106.448 139.726C106.536 139.761 106.63 139.775 106.724 139.766L110.945 139.675C111.465 139.65 111.986 139.669 112.502 139.733C112.912 139.794 113.314 139.907 113.724 139.939C114.684 139.998 115.597 139.558 116.46 139.129C116.597 139.077 116.714 138.984 116.795 138.862C116.846 138.729 116.846 138.582 116.795 138.45C116.719 138.176 116.553 137.936 116.323 137.767C116.296 137.748 116.267 137.73 116.238 137.713C116.001 137.601 115.745 137.534 115.484 137.518C114.503 137.388 113.471 137.196 112.727 136.544C112.513 136.357 112.331 136.137 112.132 135.933C111.713 135.525 111.26 135.154 110.777 134.822C110.731 134.778 110.676 134.743 110.616 134.72C110.556 134.698 110.492 134.687 110.428 134.69C110.355 134.71 110.289 134.748 110.235 134.801C110.032 134.944 109.873 135.141 109.775 135.369C109.733 135.484 109.732 135.611 109.774 135.727C109.815 135.843 109.896 135.94 110.002 136.002C110.177 136.071 110.352 136.036 110.495 136.13C110.191 136.35 109.721 136.46 109.379 136.688C109.041 136.948 108.662 137.149 108.257 137.282C107.845 137.388 107.354 137.315 107.085 136.985C106.941 136.811 106.757 136.537 106.562 136.654C106.495 136.703 106.446 136.774 106.424 136.854C106.219 137.332 106.085 137.837 106.024 138.354C105.978 138.764 106.066 139.178 106.274 139.534Z" fill="#3F3D56"/>
<path d="M107.41 95.3408C107.654 95.3358 107.898 95.3628 108.135 95.4211C108.361 95.4948 108.578 95.5944 108.781 95.7179L111.094 96.9992C111.264 97.084 111.421 97.1908 111.563 97.3169C111.897 97.6364 111.993 98.1304 112.012 98.593C112.09 100.391 111.279 102.116 111.176 103.914C111.131 104.716 111.228 105.519 111.462 106.288C111.52 106.478 111.577 106.71 111.438 106.853C111.387 106.899 111.328 106.935 111.263 106.958C110.532 107.243 109.734 107.307 108.952 107.365C107.032 107.512 105.101 107.658 103.191 107.402C103.096 107.396 103.003 107.37 102.919 107.325C102.81 107.239 102.729 107.122 102.687 106.99C102.446 106.425 102.213 105.86 101.988 105.293C101.599 104.34 101.217 103.338 101.315 102.313C101.437 101.042 102.271 99.9686 102.758 98.7868C102.905 98.4376 103.02 98.0675 103.196 97.7306C103.393 97.3855 103.614 97.0542 103.856 96.7391C104.043 96.472 104.223 95.8663 104.451 95.6917C104.731 95.463 105.52 95.4683 105.874 95.4264C106.384 95.3652 106.897 95.3366 107.41 95.3408Z" fill="#3F3D56"/>
<path opacity="0.1" d="M93.8362 128.824C94.4437 129.903 95.0518 130.983 95.6604 132.062C95.8018 132.312 95.9432 132.563 96.0602 132.825C96.2574 133.27 96.3831 133.744 96.6066 134.176C96.8692 134.638 97.1857 135.067 97.5492 135.454L98.7398 136.826C98.865 136.991 99.0209 137.13 99.1989 137.235C99.2886 137.286 99.391 137.31 99.4942 137.306C99.5973 137.301 99.6971 137.268 99.7819 137.209C99.8466 137.149 99.8983 137.078 99.9338 136.997C100.027 136.803 100.069 136.588 100.056 136.373C99.6224 136.161 99.2308 135.872 98.9004 135.521C98.6409 135.208 98.4151 134.87 98.2265 134.51C98.0636 134.222 97.9001 133.931 97.736 133.637C96.8934 132.154 96.0497 130.672 95.2048 129.189C94.8559 128.61 94.6268 127.968 94.531 127.299C94.3442 127.393 94.1627 127.492 93.9829 127.592C93.8836 127.639 93.7936 127.703 93.7175 127.782C93.4784 128.074 93.6529 128.501 93.8362 128.824Z" fill="black"/>
<path opacity="0.1" d="M106.274 139.534C106.313 139.613 106.374 139.679 106.449 139.726C106.536 139.761 106.631 139.775 106.725 139.766L110.946 139.675C111.465 139.65 111.986 139.669 112.503 139.733C112.913 139.794 113.314 139.907 113.725 139.939C114.685 139.998 115.598 139.558 116.46 139.129C116.597 139.077 116.714 138.984 116.795 138.862C116.847 138.729 116.847 138.582 116.795 138.45C116.719 138.176 116.553 137.936 116.324 137.767C116.263 137.806 116.205 137.848 116.149 137.888C115.579 138.312 114.924 138.61 114.229 138.761C113.546 138.883 112.852 138.933 112.159 138.911C110.565 138.911 108.959 138.921 107.384 138.635C107.067 138.577 106.423 138.286 106.023 138.361C105.979 138.769 106.067 139.18 106.274 139.534Z" fill="black"/>
<path d="M101.58 80.0925C103.109 80.3528 104.655 80.4992 106.206 80.5307C106.588 80.5307 107.051 80.4923 107.22 80.1501C107.299 79.9895 107.294 79.7905 107.405 79.6491C107.613 79.3856 108.032 79.5165 108.331 79.6684C108.75 79.8813 109.188 80.1117 109.437 80.5098C109.602 80.8174 109.708 81.1531 109.75 81.4995C109.896 82.238 110.118 83.0095 110.678 83.5123C110.968 83.7724 111.333 83.9417 111.612 84.2106C112.065 84.6505 112.241 85.3103 112.241 85.9405C112.241 86.5707 112.091 87.1904 111.977 87.8118C111.563 90.1043 111.683 92.4614 112.326 94.7002C112.357 94.7797 112.365 94.8659 112.351 94.9498C112.307 95.1104 112.112 95.1681 111.946 95.1942C109.385 95.6167 106.636 95.2169 104.279 96.3045C104.082 95.8192 103.596 95.5451 103.355 95.0825C103.162 94.7072 103.181 94.2603 103.137 93.8396C102.996 92.7032 102.264 91.7343 101.859 90.6643C101.498 89.7268 101.372 88.6951 100.868 87.8258C100.693 87.5186 100.465 87.2375 100.288 86.9268C100.127 86.6199 99.9883 86.3013 99.8746 85.9737C99.6365 85.4132 99.4756 84.823 99.3963 84.2193C99.295 82.9973 99.8624 81.8295 100.533 80.81C100.793 80.419 101.116 80.014 101.58 80.0925Z" fill="#FF6F61"/>
<path opacity="0.1" d="M108.997 84.4375C109.29 84.5021 109.461 84.7971 109.597 85.0642C109.689 85.2318 109.766 85.407 109.828 85.5879C109.908 85.8934 109.941 86.2097 109.924 86.5253C109.93 86.7257 109.909 86.926 109.861 87.1206C109.809 87.3167 109.684 87.4855 109.512 87.5919" stroke="black" stroke-miterlimit="10"/>
<path d="M104.999 74.5073C106.879 74.0266 108.211 72.8843 107.973 71.9558C107.736 71.0274 106.019 70.6644 104.139 71.1451C102.259 71.6257 100.927 72.768 101.164 73.6965C101.402 74.6249 103.118 74.9879 104.999 74.5073Z" fill="#3F3D56"/>
<path opacity="0.1" d="M104.809 73.8693C106.482 73.4416 107.719 72.4919 107.807 71.6348C107.883 71.7327 107.939 71.8449 107.971 71.9648C108.208 72.8935 106.876 74.0351 105.003 74.5169C103.13 74.9987 101.405 74.6339 101.163 73.7052C101.136 73.6021 101.128 73.495 101.14 73.3892C101.658 74.0665 103.172 74.2882 104.809 73.8693Z" fill="black"/>
<path d="M101.767 105.647L101.327 106.087L102.741 107.501L105.883 104.359L105.443 103.919L102.741 106.606L101.767 105.647ZM105.569 106.244C105.569 106.769 105.404 107.28 105.097 107.705C104.791 108.131 104.358 108.449 103.861 108.616C103.364 108.783 102.827 108.789 102.326 108.634C101.825 108.479 101.385 108.17 101.069 107.752C100.753 107.334 100.576 106.827 100.563 106.302C100.551 105.778 100.703 105.263 100.999 104.83C101.295 104.397 101.719 104.068 102.212 103.889C102.705 103.71 103.242 103.691 103.747 103.833L104.234 103.346C103.861 103.187 103.46 103.107 103.055 103.111C102.434 103.111 101.826 103.295 101.31 103.64C100.793 103.986 100.39 104.476 100.152 105.051C99.9144 105.625 99.8522 106.256 99.9735 106.866C100.095 107.476 100.394 108.035 100.833 108.475C101.273 108.914 101.833 109.214 102.442 109.335C103.052 109.456 103.684 109.394 104.258 109.156C104.832 108.918 105.323 108.515 105.668 107.999C106.013 107.482 106.197 106.874 106.197 106.253L105.569 106.244Z" fill="#3ACC6C"/>
<path d="M102.968 85.3627C102.882 84.4826 102.582 83.6369 102.095 82.8995C101.903 82.5783 101.629 82.3134 101.302 82.1314C101.138 82.044 100.952 82.0053 100.767 82.0198C100.581 82.0343 100.403 82.1015 100.255 82.2135C100.068 82.4083 99.9376 82.6494 99.876 82.9118C99.4373 84.0391 99.2479 85.248 99.3208 86.4554C99.3208 87.5552 99.3365 88.6689 99.6141 89.7338C99.773 90.3378 100.016 90.9191 100.138 91.5318C100.26 92.1445 100.244 92.8166 99.9161 93.3473C99.65 93.7582 99.4514 94.2091 99.3278 94.6827C99.2155 95.2515 99.1797 95.8327 99.2213 96.4109L99.2667 98.0012C99.3243 100.075 99.3819 102.17 98.9665 104.202C98.7779 105.13 98.3031 106.007 98.4114 106.948C98.4645 107.288 98.5619 107.619 98.7011 107.934C98.8757 108.388 99.0939 108.878 99.5286 109.098C99.7397 109.194 99.9688 109.244 100.201 109.245C100.489 109.26 100.777 109.248 101.063 109.208C101.238 109.184 101.465 109.067 101.412 108.899C101.385 108.844 101.342 108.797 101.29 108.763C101.067 108.584 100.887 108.357 100.762 108.099C100.638 107.841 100.573 107.559 100.572 107.272C100.572 106.448 101.11 105.658 100.944 104.851C100.841 104.352 100.473 103.868 100.627 103.383C100.976 102.287 101.021 101.114 101.325 99.9965L101.618 98.9072C101.793 98.2578 101.967 97.6102 102.109 96.9538C102.505 95.1387 102.664 93.2796 102.58 91.4236C102.568 91.1338 102.728 90.8039 102.755 90.5158C102.782 90.1667 102.755 89.8315 102.755 89.4911C102.751 88.0841 103.107 86.7627 102.968 85.3627Z" fill="#A0616A"/>
</g>
<defs>
<linearGradient id="paint0_linear" x1="104.364" y1="139.935" x2="104.364" y2="67.8397" gradientUnits="userSpaceOnUse">
<stop stop-color="#808080" stop-opacity="0.25"/>
<stop offset="0.54" stop-color="#808080" stop-opacity="0.12"/>
<stop offset="1" stop-color="#808080" stop-opacity="0.1"/>
</linearGradient>
<clipPath id="clip0">
<rect width="200" height="142.728" fill="white"/>
</clipPath>
</defs>
</svg>
