<svg width="120" height="120" viewBox="0 0 120 120" fill="none" xmlns="http://www.w3.org/2000/svg">
<g clip-path="url(#clip0)">
<path d="M42.8826 53.0845C41.6676 53.0845 40.4859 52.4543 39.8348 51.3262C38.8638 49.6446 39.4399 47.4944 41.1215 46.5239L72.4924 28.4121C74.1738 27.4411 76.3242 28.0169 77.2947 29.6988C78.2657 31.3805 77.6894 33.5306 76.008 34.5012L44.6371 52.613C44.0835 52.9329 43.4791 53.0845 42.8826 53.0845Z" fill="#00429D"/>
<path d="M75.2106 92.8504C74.6141 92.8504 74.0097 92.6986 73.4561 92.3786L41.1215 73.7104C39.4399 72.7397 38.8638 70.5897 39.8348 68.9081C40.8058 67.2267 42.9552 66.6501 44.6371 67.6214L76.9717 86.2896C78.6534 87.2604 79.2295 89.4103 78.2584 91.0919C77.6073 92.2197 76.4256 92.8504 75.2106 92.8504Z" fill="#00429D"/>
<path d="M23.7316 77.31C16.9467 77.31 11.6721 81.9665 7.21594 77.5104C2.75977 73.0542 0 66.9021 0 60.1172C0 46.5476 11.0398 35.5078 24.6094 35.5078C38.179 35.5078 49.2188 46.5476 49.2188 60.1172C49.2188 66.8637 46.4899 72.9846 42.0783 77.4347C37.6162 81.9354 30.555 77.31 23.7316 77.31Z" fill="#FFF4F4"/>
<path d="M24.6094 35.5078V77.3351C31.155 77.6902 37.8075 81.7427 42.0785 77.4347C46.4899 72.9846 49.2188 66.8637 49.2188 60.1172C49.2188 46.5476 38.179 35.5078 24.6094 35.5078Z" fill="#F6EFEA"/>
<path fill-rule="evenodd" clip-rule="evenodd" d="M24.6096 65.4617C16.6488 65.4617 9.85284 70.4304 7.14136 77.4338C11.6034 81.9345 17.7862 84.7266 24.6096 84.7266C31.4329 84.7266 37.6157 81.9345 42.0778 77.4338C39.3663 70.4304 32.5703 65.4617 24.6096 65.4617Z" fill="#7DD5F4"/>
<path fill-rule="evenodd" clip-rule="evenodd" d="M24.6094 65.4617V84.7266C31.4327 84.7266 37.6155 81.9345 42.0776 77.4338C39.3661 70.4304 32.5702 65.4617 24.6094 65.4617Z" fill="#4793FF"/>
<path d="M24.6094 70.6641C18.7938 70.6641 14.0625 65.9327 14.0625 60.1172C14.0625 54.3016 18.7938 49.5703 24.6094 49.5703C30.4249 49.5703 35.1562 54.3016 35.1562 60.1172C35.1562 65.9327 30.4249 70.6641 24.6094 70.6641Z" fill="#FFDECF"/>
<path d="M24.6094 49.5703V70.6641C30.4249 70.6641 35.1562 65.9327 35.1562 60.1172C35.1562 54.3016 30.4249 49.5703 24.6094 49.5703Z" fill="#FFCDBE"/>
<path d="M94.5129 41.9196C87.728 41.9196 82.4534 46.5762 77.9972 42.12C73.541 37.6638 70.7812 31.5115 70.7812 24.7266C70.7812 11.157 81.821 0.117188 95.3906 0.117188C108.96 0.117188 120 11.157 120 24.7266C120 31.473 117.271 37.594 112.86 42.0441C108.397 46.5448 101.336 41.9196 94.5129 41.9196Z" fill="#FFF4F4"/>
<path d="M95.3906 0.117188V41.9445C101.936 42.2995 108.589 46.3521 112.86 42.0441C117.271 37.594 120 31.473 120 24.7266C120 11.157 108.96 0.117188 95.3906 0.117188Z" fill="#F6EFEA"/>
<path fill-rule="evenodd" clip-rule="evenodd" d="M95.3908 30.071C87.43 30.071 80.6341 35.0398 77.9226 42.0432C82.3846 46.5441 88.5675 49.336 95.3908 49.336C102.214 49.336 108.397 46.5439 112.859 42.0432C110.148 35.0398 103.352 30.071 95.3908 30.071Z" fill="#BEE75E"/>
<path fill-rule="evenodd" clip-rule="evenodd" d="M95.3906 30.071V49.336C102.214 49.336 108.397 46.5439 112.859 42.0432C110.147 35.0398 103.351 30.071 95.3906 30.071Z" fill="#00CB75"/>
<path d="M95.3906 35.2734C89.5751 35.2734 84.8438 30.5421 84.8438 24.7266C84.8438 18.911 89.5751 14.1797 95.3906 14.1797C101.206 14.1797 105.938 18.911 105.938 24.7266C105.938 30.5421 101.206 35.2734 95.3906 35.2734Z" fill="#FFDECF"/>
<path d="M95.3906 14.1797V35.2734C101.206 35.2734 105.938 30.5421 105.938 24.7266C105.938 18.911 101.206 14.1797 95.3906 14.1797Z" fill="#FFCDBE"/>
<path d="M94.5129 112.466C87.728 112.466 82.4534 117.123 77.9972 112.667C73.541 108.21 70.7812 102.058 70.7812 95.2734C70.7812 81.7038 81.821 70.6641 95.3906 70.6641C108.96 70.6641 120 81.7038 120 95.2734C120 102.02 117.271 108.141 112.86 112.591C108.397 117.092 101.336 112.466 94.5129 112.466Z" fill="#FFF4F4"/>
<path d="M95.3906 70.6641V112.491C101.936 112.846 108.589 116.899 112.86 112.591C117.271 108.141 120 102.02 120 95.2734C120 81.7038 108.96 70.6641 95.3906 70.6641Z" fill="#F6EFEA"/>
<path fill-rule="evenodd" clip-rule="evenodd" d="M95.3908 100.618C87.43 100.618 80.6341 105.587 77.9226 112.59C82.3846 117.091 88.5675 119.883 95.3908 119.883C102.214 119.883 108.397 117.091 112.859 112.59C110.148 105.587 103.352 100.618 95.3908 100.618Z" fill="#FF8856"/>
<path fill-rule="evenodd" clip-rule="evenodd" d="M95.3906 100.618V119.883C102.214 119.883 108.397 117.091 112.859 112.59C110.147 105.587 103.351 100.618 95.3906 100.618Z" fill="#FF435B"/>
<path d="M95.3906 105.82C89.5751 105.82 84.8438 101.089 84.8438 95.2734C84.8438 89.4579 89.5751 84.7266 95.3906 84.7266C101.206 84.7266 105.938 89.4579 105.938 95.2734C105.938 101.089 101.206 105.82 95.3906 105.82Z" fill="#FFDECF"/>
<path d="M95.3906 84.7266V105.82C101.206 105.82 105.938 101.089 105.938 95.2734C105.938 89.4579 101.206 84.7266 95.3906 84.7266Z" fill="#FFCDBE"/>
</g>
<defs>
<clipPath id="clip0">
<rect width="120" height="120" fill="white"/>
</clipPath>
</defs>
</svg>
