<svg width="100" height="100" viewBox="0 0 100 100" fill="none" xmlns="http://www.w3.org/2000/svg">
<path d="M90.6251 15.625C90.7033 15.625 51.0158 0.390579 50.0001 0C49.219 0.312424 9.29696 15.625 9.37511 15.625V44.3749C9.37511 64.2968 15.0783 90.3125 50.0001 99.9998C84.8438 90.3123 90.547 63.8279 90.547 44.3749C90.6251 34.5313 90.6251 15.625 90.6251 15.625Z" fill="#D9DEE1"/>
<path d="M9.37476 44.3751C9.37476 64.297 15.0779 90.3127 49.9998 100V0C48.5154 0.54689 9.37476 15.625 9.37476 15.625C9.37476 15.625 9.37495 44.3751 9.37476 44.3751Z" fill="#BCC6CA"/>
<path d="M82.7339 21.0156C82.812 21.0156 50.7808 8.12492 49.9214 7.8125C49.2182 8.04697 17.0309 20.4687 17.109 20.3906V44.5311C17.109 61.2498 20.3904 84.0623 49.9214 92.1873C79.3746 84.0623 82.7339 60.8593 82.7339 44.5311C82.812 36.25 82.812 21.0156 82.7339 21.0156Z" fill="#008FFF"/>
<path d="M49.9996 7.8125C49.2964 8.04697 17.109 20.4687 17.1872 20.3906V44.5311C17.1872 61.2498 20.4685 84.0623 49.9996 92.1873V7.8125Z" fill="#008FFF"/>
<g clip-path="url(#clip0)">
<path d="M53.1982 60.3329H53.6982L53.6982 35.3961L53.6982 35.3949C53.6924 33.0629 53.1527 30.7223 52.135 28.6226C51.8281 27.9109 51.2557 27.3905 50.5435 27.1683L50.5323 27.1649L50.521 27.1619C49.5116 26.898 48.4122 27.4074 47.9356 28.3662L53.1982 60.3329ZM53.1982 60.3329L53.6891 60.4275L51.5409 71.5744C51.4284 72.3346 50.7691 72.9012 49.9997 72.9012C49.2185 72.9012 48.5704 72.322 48.4544 71.5335L46.3126 60.4284L46.3035 60.3815V60.3337V35.3935C46.2906 32.968 46.8544 30.5386 47.9355 28.3665L53.1982 60.3329ZM52.6749 28.3651L52.6799 28.3766L52.6853 28.3879C53.728 30.5321 54.2915 32.9684 54.2971 35.3948V60.4105C54.2971 60.4299 54.2952 60.4464 54.2926 60.459L54.2925 60.459L54.291 60.467L52.1325 71.6591L52.13 71.6722L52.1282 71.6854C51.9888 72.6959 51.0752 73.5001 50.0021 73.5001H50.0021H50.002H50.002H50.002H50.0019H50.0019H50.0019H50.0018H50.0018H50.0018H50.0017H50.0017H50.0016H50.0016H50.0016H50.0015H50.0015H50.0015H50.0014H50.0014H50.0013H50.0013H50.0013H50.0012H50.0012H50.0012H50.0011H50.0011H50.001H50.001H50.001H50.0009H50.0009H50.0009H50.0008H50.0008H50.0008H50.0007H50.0007H50.0007H50.0006H50.0006H50.0005H50.0005H50.0005H50.0004H50.0004H50.0004H50.0003H50.0003H50.0003H50.0002H50.0002H50.0002H50.0001H50.0001H50.0001H50H50H50H49.9999H49.9999H49.9999H49.9998H49.9998H49.9998H49.9997H49.9997H49.9997H49.9996H49.9996H49.9996H49.9995H49.9995H49.9995H49.9994H49.9994H49.9994H49.9994H49.9993H49.9993H49.9993H49.9992H49.9992H49.9992H49.9991H49.9991H49.9991H49.9991H49.999H49.999H49.999H49.9989H49.9989H49.9989H49.9988H49.9988H49.9988H49.9987H49.9987H49.9987H49.9986H49.9986H49.9986H49.9985H49.9985H49.9985H49.9984H49.9984H49.9984H49.9984H49.9983H49.9983H49.9983H49.9982H49.9982H49.9982H49.9981H49.9981C48.9316 73.5001 48.0127 72.7014 47.8656 71.6433L47.8638 71.6303L47.8613 71.6174L45.7094 60.4676C45.7094 60.4675 45.7094 60.4675 45.7094 60.4674C45.7056 60.4477 45.7039 60.4289 45.7039 60.4105L45.7039 35.3961L45.7039 35.3934C45.6899 32.8791 46.2763 30.3542 47.3982 28.1002L47.3985 28.0997C47.9999 26.888 49.3835 26.2527 50.6969 26.59C51.6103 26.8774 52.3159 27.5215 52.6749 28.3651Z" stroke="white"/>
<path d="M45.862 44.1572L45.8608 44.1578L26.6744 54.5506C26.6744 54.5506 26.6744 54.5506 26.6744 54.5506C26.5772 54.6033 26.5173 54.7041 26.5173 54.8136V59.6102C26.5173 59.7079 26.5644 59.7991 26.6457 59.8562C26.6979 59.8918 26.7577 59.9096 26.8168 59.9096C26.8546 59.9096 26.8897 59.9032 26.9212 59.8913L26.9219 59.8911L46.1076 52.6965C46.2252 52.6521 46.3027 52.5399 46.3027 52.4153V44.4211L45.862 44.1572ZM45.862 44.1572C45.9527 44.1077 46.0656 44.1094 46.1561 44.1635M45.862 44.1572L46.1561 44.1635M46.1561 44.1635C46.2474 44.2181 46.3026 44.3158 46.3027 44.421L46.1561 44.1635ZM45.3793 52.3295L45.7037 52.2078V51.8613V45.7641V44.9247L44.9656 45.3245L27.378 54.8505L27.1162 54.9923V55.2902V58.4567V59.1782L27.7917 58.9249L45.3793 52.3295Z" stroke="white"/>
<path d="M54.3779 43.7182C54.1302 43.5847 53.8303 43.5895 53.5881 43.7342L73.0739 59.8896L53.8916 52.6962L53.8913 52.6961C53.776 52.6529 53.698 52.5414 53.698 52.4153V44.4209C53.698 44.3153 53.7537 44.2176 53.8441 44.1637L53.8446 44.1634C53.9335 44.1103 54.0456 44.1072 54.1404 44.1582L54.1398 44.1578L54.3779 43.7182ZM54.3779 43.7182L73.5644 54.1109L54.3779 43.7182ZM73.1839 59.9096C73.1494 59.9096 73.1129 59.9036 73.0754 59.8901L54.1408 44.1584L73.3256 54.5502C73.3257 54.5502 73.3257 54.5502 73.3258 54.5503C73.4224 54.6028 73.4825 54.7038 73.4825 54.8136V59.6102C73.4825 59.708 73.4345 59.7999 73.3532 59.8563L73.3505 59.8582C73.3034 59.8913 73.2454 59.9096 73.1839 59.9096ZM72.2088 58.9248L72.8844 59.1781V58.4566V55.29V54.9922L72.6226 54.8503L55.035 45.3234L54.2968 44.9236V45.7631V51.8612V52.2077L54.6213 52.3294L72.2088 58.9248Z" stroke="white"/>
<path d="M40.7064 47.1196H40.1076V46.8202C40.1076 46.1036 39.5247 45.5208 38.8082 45.5208C38.0916 45.5208 37.5087 46.1035 37.5087 46.8202V48.7185H36.9099V46.8202C36.9099 45.7741 37.7621 44.9219 38.8082 44.9219C39.8544 44.9219 40.7065 45.774 40.7064 46.8201V46.8202V47.1196Z" stroke="white"/>
<path d="M29.7151 50.8164C29.7151 49.7703 30.5673 48.9181 31.6134 48.9181C32.4866 48.9181 33.2247 49.5118 33.4447 50.3164H32.8127C32.6164 49.8474 32.1524 49.5178 31.6133 49.5178C30.8974 49.5178 30.3139 50.0992 30.3139 50.8164V52.7148H29.7151V50.8164Z" stroke="white"/>
<path d="M63.0907 48.7185H62.4918V46.8202C62.4918 46.104 61.9102 45.5208 61.1924 45.5208C60.4747 45.5208 59.893 46.1038 59.893 46.8202V47.1196H59.2942V46.8202C59.2942 45.7741 60.1464 44.9219 61.1925 44.9219C62.2387 44.9219 63.0908 45.774 63.0907 46.8201V46.8202V48.7185Z" stroke="white"/>
<path d="M70.2857 50.8164V52.7148H69.6869V50.8164C69.6869 50.0994 69.1046 49.5178 68.3875 49.5178C67.8476 49.5178 67.3841 49.8475 67.188 50.3164H66.5562C66.7764 49.5118 67.5144 48.9181 68.3876 48.9181C69.4337 48.9181 70.2859 49.7703 70.2857 50.8164V50.8164Z" stroke="white"/>
<path d="M47.9566 71.9799L38.8619 73.4956C38.8382 73.499 38.8207 73.5001 38.8085 73.5001C38.7386 73.5001 38.67 73.4754 38.615 73.4289L38.6144 73.4284C38.5483 73.3727 38.509 73.2888 38.509 73.2007V70.0029C38.509 69.8967 38.5643 69.8002 38.6534 69.7469L38.654 69.7466L46.2196 65.2072L46.5278 65.7208L39.3499 70.0275L39.1071 70.1731V70.4562V72.2574V72.8476L39.6893 72.7506L47.858 71.389L47.9566 71.9799Z" stroke="white"/>
<path d="M52.1417 71.3882L60.311 72.7497L60.8932 72.8468V72.2565V70.4562V70.1731L60.6504 70.0275L53.4725 65.7207L53.7806 65.2072L61.3457 69.7463C61.3458 69.7463 61.3458 69.7464 61.3459 69.7464C61.4363 69.8009 61.4911 69.8982 61.4912 70.0029L52.1417 71.3882ZM52.1417 71.3882L52.0435 71.979L61.1425 73.4955C61.1427 73.4955 61.1428 73.4955 61.1429 73.4955C61.1634 73.4989 61.1791 73.5 61.1926 73.5C61.2628 73.5 61.3308 73.4752 61.3842 73.4298L61.3857 73.4285C61.4526 73.372 61.4912 73.2889 61.4912 73.2006V70.003L52.1417 71.3882Z" stroke="white"/>
<path d="M48.6606 32.3329L48.6642 32.3223L48.6673 32.3115C48.8305 31.7502 49.3584 31.34 49.9878 31.3305C50.6063 31.3491 51.1501 31.7312 51.3383 32.2939C51.3383 32.2941 51.3384 32.2942 51.3384 32.2943L51.725 33.459L51.157 33.6473L50.7707 32.4829L50.7707 32.4829L50.7699 32.4804C50.6588 32.1514 50.3497 31.9293 50.0011 31.9293L49.9979 31.9293C49.6402 31.9316 49.3382 32.1711 49.2358 32.4997L48.845 33.6512L48.2779 33.4583L48.6606 32.3329Z" stroke="white"/>
</g>
<defs>
<clipPath id="clip0">
<rect width="48" height="48" fill="white" transform="translate(26 26)"/>
</clipPath>
</defs>
</svg>
