<?xml version="1.0" standalone="no"?>
<!DOCTYPE svg PUBLIC "-//W3C//DTD SVG 1.0//EN" "http://www.w3.org/TR/2001/REC-SVG-20010904/DTD/svg10.dtd">
<svg xmlns="http://www.w3.org/2000/svg" xmlns:xlink="http://www.w3.org/1999/xlink" id="body_1" width="60" height="60">

<g transform="matrix(0.6 0 0 0.6 0 0)">
    <path transform="matrix(1 0 0 1 0 0)"  d="M90.6251 15.625C 90.7033 15.625 51.0158 0.390579 50.0001 0C 49.219 0.312424 9.29696 15.625 9.37511 15.625L9.37511 15.625L9.37511 44.3749C 9.37511 64.2968 15.0783 90.3125 50.0001 99.9998C 84.8438 90.3123 90.547 63.8279 90.547 44.3749C 90.6251 34.5313 90.6251 15.625 90.6251 15.625z" stroke="none" fill="#D9DEE1" fill-rule="nonzero" />
    <path transform="matrix(1 0 0 1 0 0)"  d="M9.37476 44.3751C 9.37476 64.297 15.0779 90.3127 49.9998 100L49.9998 100L49.9998 0C 48.5154 0.54689 9.37476 15.625 9.37476 15.625C 9.37476 15.625 9.37495 44.3751 9.37476 44.3751z" stroke="none" fill="#BCC6CA" fill-rule="nonzero" />
    <path transform="matrix(1 0 0 1 0 0)"  d="M82.7339 21.0156C 82.812 21.0156 50.7808 8.12492 49.9214 7.8125C 49.2182 8.04697 17.0309 20.4687 17.109 20.3906L17.109 20.3906L17.109 44.5311C 17.109 61.2498 20.3904 84.0623 49.9214 92.1873C 79.3746 84.0623 82.7339 60.8593 82.7339 44.5311C 82.812 36.25 82.812 21.0156 82.7339 21.0156z" stroke="none" fill="#008FFF" fill-rule="nonzero" />
    <path transform="matrix(1 0 0 1 0 0)"  d="M49.9996 7.8125C 49.2964 8.04697 17.109 20.4687 17.1872 20.3906L17.1872 20.3906L17.1872 44.5311C 17.1872 61.2498 20.4685 84.0623 49.9996 92.1873L49.9996 92.1873L49.9996 7.8125z" stroke="none" fill="#008FFF" fill-rule="nonzero" />
    <path transform="matrix(1 0 0 1 0 0)"  d="M53.1982 60.3329L53.6982 60.3329L53.6982 35.3961L53.6982 35.3949C 53.6924 33.0629 53.1527 30.7223 52.135 28.6226C 51.8281 27.9109 51.2557 27.3905 50.5435 27.1683L50.5435 27.1683L50.5323 27.1649L50.521 27.1619C 49.5116 26.898 48.4122 27.4074 47.9356 28.3662L47.9356 28.3662L53.1982 60.3329zM53.1982 60.3329L53.6891 60.4275L51.5409 71.5744C 51.4284 72.3346 50.7691 72.9012 49.9997 72.9012C 49.2185 72.9012 48.5704 72.322 48.4544 71.5335L48.4544 71.5335L46.3126 60.4284L46.3035 60.3815L46.3035 60.3337L46.3035 35.3935C 46.2906 32.968 46.8544 30.5386 47.9355 28.3665L47.9355 28.3665L53.1982 60.3329zM52.6749 28.3651L52.6799 28.3766L52.6853 28.3879C 53.728 30.5321 54.2915 32.9684 54.2971 35.3948L54.2971 35.3948L54.2971 60.4105C 54.2971 60.4299 54.2952 60.4464 54.2926 60.459L54.2926 60.459L54.2925 60.459L54.291 60.467L52.1325 71.6591L52.13 71.6722L52.1282 71.6854C 51.9888 72.6959 51.0752 73.5001 50.0021 73.5001L50.0021 73.5001L50.002 73.5001L50.0019 73.5001L50.0018 73.5001L50.0017 73.5001L50.0016 73.5001L50.0015 73.5001L50.0014 73.5001L50.0013 73.5001L50.0012 73.5001L50.0011 73.5001L50.001 73.5001L50.0009 73.5001L50.0008 73.5001L50.0007 73.5001L50.0006 73.5001L50.0005 73.5001L50.0004 73.5001L50.0003 73.5001L50.0002 73.5001L50.0001 73.5001L50 73.5001L49.9999 73.5001L49.9998 73.5001L49.9997 73.5001L49.9996 73.5001L49.9995 73.5001L49.9994 73.5001L49.9993 73.5001L49.9992 73.5001L49.9991 73.5001L49.999 73.5001L49.9989 73.5001L49.9988 73.5001L49.9987 73.5001L49.9986 73.5001L49.9985 73.5001L49.9984 73.5001L49.9983 73.5001L49.9982 73.5001L49.9981 73.5001C 48.9316 73.5001 48.0127 72.7014 47.8656 71.6433L47.8656 71.6433L47.8638 71.6303L47.8613 71.6174L45.7094 60.4676C 45.7094 60.4675 45.7094 60.4675 45.7094 60.4674C 45.7056 60.4477 45.7039 60.4289 45.7039 60.4105L45.7039 60.4105L45.7039 35.3961L45.7039 35.3934C 45.6899 32.8791 46.2763 30.3542 47.3982 28.1002L47.3982 28.1002L47.3985 28.0997C 47.9999 26.888 49.3835 26.2527 50.6969 26.59C 51.6103 26.8774 52.3159 27.5215 52.6749 28.3651z" stroke="#FFFFFF" stroke-width="1" fill="none" />
    <path transform="matrix(1 0 0 1 0 0)"  d="M45.862 44.1572L45.8608 44.1578L26.6744 54.5506C 26.6744 54.5506 26.6744 54.5506 26.6744 54.5506C 26.5772 54.6033 26.5173 54.7041 26.5173 54.8136L26.5173 54.8136L26.5173 59.6102C 26.5173 59.7079 26.5644 59.7991 26.6457 59.8562C 26.6979 59.8918 26.7577 59.9096 26.8168 59.9096C 26.8546 59.9096 26.8897 59.9032 26.9212 59.8913L26.9212 59.8913L26.9219 59.8911L46.1076 52.6965C 46.2252 52.6521 46.3027 52.5399 46.3027 52.4153L46.3027 52.4153L46.3027 44.4211L45.862 44.1572zM45.862 44.1572C 45.9527 44.1077 46.0656 44.1094 46.1561 44.1635M45.862 44.1572L46.1561 44.1635zM46.1561 44.1635C 46.2474 44.2181 46.3026 44.3158 46.3027 44.421L46.3027 44.421L46.1561 44.1635zM45.3793 52.3295L45.7037 52.2078L45.7037 51.8613L45.7037 45.7641L45.7037 44.9247L44.9656 45.3245L27.378 54.8505L27.1162 54.9923L27.1162 55.2902L27.1162 58.4567L27.1162 59.1782L27.7917 58.9249L45.3793 52.3295z" stroke="#FFFFFF" stroke-width="1" fill="none" />
    <path transform="matrix(1 0 0 1 0 0)"  d="M54.3779 43.7182C 54.1302 43.5847 53.8303 43.5895 53.5881 43.7342L53.5881 43.7342L73.0739 59.8896L53.8916 52.6962L53.8913 52.6961C 53.776 52.6529 53.698 52.5414 53.698 52.4153L53.698 52.4153L53.698 44.4209C 53.698 44.3153 53.7537 44.2176 53.8441 44.1637L53.8441 44.1637L53.8446 44.1634C 53.9335 44.1103 54.0456 44.1072 54.1404 44.1582L54.1404 44.1582L54.1398 44.1578L54.3779 43.7182zM54.3779 43.7182L73.5644 54.1109L54.3779 43.7182zM73.1839 59.9096C 73.1494 59.9096 73.1129 59.9036 73.0754 59.8901L73.0754 59.8901L54.1408 44.1584L73.3256 54.5502C 73.3257 54.5502 73.3257 54.5502 73.3258 54.5503C 73.4224 54.6028 73.4825 54.7038 73.4825 54.8136L73.4825 54.8136L73.4825 59.6102C 73.4825 59.708 73.4345 59.7999 73.3532 59.8563L73.3532 59.8563L73.3505 59.8582C 73.3034 59.8913 73.2454 59.9096 73.1839 59.9096zM72.2088 58.9248L72.8844 59.1781L72.8844 58.4566L72.8844 55.29L72.8844 54.9922L72.6226 54.8503L55.035 45.3234L54.2968 44.9236L54.2968 45.7631L54.2968 51.8612L54.2968 52.2077L54.6213 52.3294L72.2088 58.9248z" stroke="#FFFFFF" stroke-width="1" fill="none" />
    <path transform="matrix(1 0 0 1 0 0)"  d="M40.7064 47.1196L40.1076 47.1196L40.1076 46.8202C 40.1076 46.1036 39.5247 45.5208 38.8082 45.5208C 38.0916 45.5208 37.5087 46.1035 37.5087 46.8202L37.5087 46.8202L37.5087 48.7185L36.9099 48.7185L36.9099 46.8202C 36.9099 45.7741 37.7621 44.9219 38.8082 44.9219C 39.8544 44.9219 40.7065 45.774 40.7064 46.8201L40.7064 46.8201L40.7064 46.8202L40.7064 47.1196z" stroke="#FFFFFF" stroke-width="1" fill="none" />
    <path transform="matrix(1 0 0 1 0 0)"  d="M29.7151 50.8164C 29.7151 49.7703 30.5673 48.9181 31.6134 48.9181C 32.4866 48.9181 33.2247 49.5118 33.4447 50.3164L33.4447 50.3164L32.8127 50.3164C 32.6164 49.8474 32.1524 49.5178 31.6133 49.5178C 30.8974 49.5178 30.3139 50.0992 30.3139 50.8164L30.3139 50.8164L30.3139 52.7148L29.7151 52.7148L29.7151 50.8164z" stroke="#FFFFFF" stroke-width="1" fill="none" />
    <path transform="matrix(1 0 0 1 0 0)"  d="M63.0907 48.7185L62.4918 48.7185L62.4918 46.8202C 62.4918 46.104 61.9102 45.5208 61.1924 45.5208C 60.4747 45.5208 59.893 46.1038 59.893 46.8202L59.893 46.8202L59.893 47.1196L59.2942 47.1196L59.2942 46.8202C 59.2942 45.7741 60.1464 44.9219 61.1925 44.9219C 62.2387 44.9219 63.0908 45.774 63.0907 46.8201L63.0907 46.8201L63.0907 46.8202L63.0907 48.7185z" stroke="#FFFFFF" stroke-width="1" fill="none" />
    <path transform="matrix(1 0 0 1 0 0)"  d="M70.2857 50.8164L70.2857 52.7148L69.6869 52.7148L69.6869 50.8164C 69.6869 50.0994 69.1046 49.5178 68.3875 49.5178C 67.8476 49.5178 67.3841 49.8475 67.188 50.3164L67.188 50.3164L66.5562 50.3164C 66.7764 49.5118 67.5144 48.9181 68.3876 48.9181C 69.4337 48.9181 70.2859 49.7703 70.2857 50.8164z" stroke="#FFFFFF" stroke-width="1" fill="none" />
    <path transform="matrix(1 0 0 1 0 0)"  d="M47.9566 71.9799L38.8619 73.4956C 38.8382 73.499 38.8207 73.5001 38.8085 73.5001C 38.7386 73.5001 38.67 73.4754 38.615 73.4289L38.615 73.4289L38.6144 73.4284C 38.5483 73.3727 38.509 73.2888 38.509 73.2007L38.509 73.2007L38.509 70.0029C 38.509 69.8967 38.5643 69.8002 38.6534 69.7469L38.6534 69.7469L38.654 69.7466L46.2196 65.2072L46.5278 65.7208L39.3499 70.0275L39.1071 70.1731L39.1071 70.4562L39.1071 72.2574L39.1071 72.8476L39.6893 72.7506L47.858 71.389L47.9566 71.9799z" stroke="#FFFFFF" stroke-width="1" fill="none" />
    <path transform="matrix(1 0 0 1 0 0)"  d="M52.1417 71.3882L60.311 72.7497L60.8932 72.8468L60.8932 72.2565L60.8932 70.4562L60.8932 70.1731L60.6504 70.0275L53.4725 65.7207L53.7806 65.2072L61.3457 69.7463C 61.3458 69.7463 61.3458 69.7464 61.3459 69.7464C 61.4363 69.8009 61.4911 69.8982 61.4912 70.0029L61.4912 70.0029L52.1417 71.3882zM52.1417 71.3882L52.0435 71.979L61.1425 73.4955C 61.1427 73.4955 61.1428 73.4955 61.1429 73.4955C 61.1634 73.4989 61.1791 73.5 61.1926 73.5C 61.2628 73.5 61.3308 73.4752 61.3842 73.4298L61.3842 73.4298L61.3857 73.4285C 61.4526 73.372 61.4912 73.2889 61.4912 73.2006L61.4912 73.2006L61.4912 70.003L52.1417 71.3882z" stroke="#FFFFFF" stroke-width="1" fill="none" />
    <path transform="matrix(1 0 0 1 0 0)"  d="M48.6606 32.3329L48.6642 32.3223L48.6673 32.3115C 48.8305 31.7502 49.3584 31.34 49.9878 31.3305C 50.6063 31.3491 51.1501 31.7312 51.3383 32.2939C 51.3383 32.2941 51.3384 32.2942 51.3384 32.2943L51.3384 32.2943L51.725 33.459L51.157 33.6473L50.7707 32.4829L50.7699 32.4804C 50.6588 32.1514 50.3497 31.9293 50.0011 31.9293L50.0011 31.9293L49.9979 31.9293C 49.6402 31.9316 49.3382 32.1711 49.2358 32.4997L49.2358 32.4997L48.845 33.6512L48.2779 33.4583L48.6606 32.3329z" stroke="#FFFFFF" stroke-width="1" fill="none" />
</g>
</svg>