<svg width="36" height="36" viewBox="0 0 36 36" fill="none" xmlns="http://www.w3.org/2000/svg">
<path d="M12.3718 3.47172C12.3718 3.21112 12.1673 3 11.9149 3H5.45698C5.20452 3 5 3.21112 5 3.47172C5 3.73232 5.20452 3.94344 5.45698 3.94344H7.30478C8.40617 3.94475 9.3543 4.74604 9.5731 5.86032H5.45698C5.20452 5.86032 5 6.07144 5 6.33204C5 6.59238 5.20452 6.80376 5.45698 6.80376H9.5731C9.3543 7.91777 8.40617 8.7188 7.30478 8.72038H5.45698C5.2698 8.72038 5.10175 8.83831 5.03239 9.01757C4.96328 9.1971 5.00714 9.4019 5.14306 9.53483L9.7618 14.0401C9.88038 14.1565 10.0502 14.1986 10.2071 14.1504C10.3636 14.1022 10.4837 13.9711 10.5215 13.8069C10.559 13.6426 10.5087 13.4699 10.3896 13.3544L6.6058 9.66355H7.30478C8.91007 9.66145 10.2705 8.44345 10.4998 6.80349H11.9149C12.1673 6.80349 12.3718 6.59212 12.3718 6.33178C12.3718 6.07117 12.1673 5.86006 11.9149 5.86006H10.4998C10.3983 5.13037 10.065 4.45596 9.55219 3.94317H11.9149C12.1673 3.94317 12.3718 3.73206 12.3718 3.47172Z" fill="#02B875"/>
<path d="M6.93824 33.2321H12.1431L10.5235 34.8517C10.2658 35.1094 10.2658 35.5364 10.5235 35.794C10.656 35.9266 10.8254 35.9928 10.9947 35.9928C11.164 35.9928 11.3333 35.9266 11.4658 35.794L14.2266 33.0333C14.4842 32.7756 14.4842 32.3486 14.2266 32.091L11.4658 29.3302C11.2082 29.0726 10.7812 29.0726 10.5235 29.3302C10.2658 29.5879 10.2658 30.0149 10.5235 30.2726L12.1431 31.8922H6.93824C3.8683 31.8922 1.37259 29.3965 1.37259 26.3266V23.0652C1.37259 22.6971 1.07075 22.3953 0.702653 22.3953C0.334555 22.3953 0.0327148 22.6971 0.0327148 23.0652V26.3266C0.0327148 30.1327 3.12474 33.2321 6.93824 33.2321Z" fill="#83959D"/>
<path d="M1.24019 0.206097C1.11503 0.0809439 0.945709 0.00732422 0.769022 0.00732422C0.592335 0.00732422 0.42301 0.0809439 0.297856 0.206097C0.172703 0.331251 0.106445 0.500576 0.106445 0.677263C0.106445 0.85395 0.180065 1.02328 0.297856 1.14843C0.42301 1.27358 0.592335 1.3472 0.769022 1.3472C0.945709 1.3472 1.11503 1.27358 1.24019 1.14843C1.36534 1.02328 1.43896 0.85395 1.43896 0.677263C1.43896 0.500576 1.36534 0.331251 1.24019 0.206097Z" fill="#02B875"/>
<path d="M14.4473 1.33988C14.8154 1.33988 15.1172 1.0454 15.1172 0.669939C15.1172 0.301841 14.8227 0 14.4473 0C14.0792 0 13.7773 0.301841 13.7773 0.669939C13.7773 1.0454 14.0792 1.33988 14.4473 1.33988Z" fill="#02B875"/>
<path d="M12.1651 0.00732422C11.797 0.00732422 11.4951 0.309165 11.4951 0.677263C11.4951 1.04536 11.7896 1.3472 12.1651 1.3472C12.5332 1.3472 12.835 1.05272 12.835 0.677263C12.835 0.309165 12.5332 0.00732422 12.1651 0.00732422Z" fill="#02B875"/>
<path d="M5.32619 1.33988C5.69428 1.33988 5.99612 1.0454 5.99612 0.669939C5.99612 0.301841 5.70165 0 5.32619 0C4.95809 0 4.65625 0.301841 4.65625 0.669939C4.66361 1.0454 4.95809 1.33988 5.32619 1.33988Z" fill="#02B875"/>
<path d="M3.05129 0.00732422C2.68319 0.00732422 2.38135 0.309165 2.38135 0.677263C2.38135 1.04536 2.67583 1.3472 3.05129 1.3472C3.42675 1.3472 3.72123 1.05272 3.72123 0.677263C3.71386 0.309165 3.41938 0.00732422 3.05129 0.00732422Z" fill="#02B875"/>
<path d="M9.89064 0.00732422C9.52254 0.00732422 9.2207 0.309165 9.2207 0.677263C9.2207 1.04536 9.52254 1.3472 9.89064 1.3472C10.2587 1.3472 10.5606 1.05272 10.5606 0.677263C10.5532 0.309165 10.2587 0.00732422 9.89064 0.00732422Z" fill="#02B875"/>
<path d="M7.60841 0.00732422C7.24032 0.00732422 6.93848 0.309165 6.93848 0.677263C6.93848 1.04536 7.23295 1.3472 7.60841 1.3472C7.97651 1.3472 8.27835 1.05272 8.27835 0.677263C8.27835 0.309165 7.97651 0.00732422 7.60841 0.00732422Z" fill="#02B875"/>
<path d="M17.2011 1.14843C17.3263 1.02328 17.3925 0.85395 17.3925 0.677263C17.3925 0.500576 17.3189 0.331251 17.2011 0.206097C17.076 0.0809439 16.9066 0.00732422 16.73 0.00732422C16.5533 0.00732422 16.3839 0.0809439 16.2588 0.206097C16.1336 0.331251 16.0674 0.500576 16.0674 0.677263C16.0674 0.85395 16.141 1.02328 16.2588 1.14843C16.3839 1.27358 16.5533 1.3472 16.73 1.3472C16.9066 1.33984 17.076 1.27358 17.2011 1.14843Z" fill="#02B875"/>
<path d="M16.73 4.56445C16.3619 4.56445 16.0674 4.86629 16.0674 5.23439C16.0674 5.60249 16.3619 5.90433 16.73 5.90433C17.0981 5.90433 17.3999 5.60249 17.3999 5.23439C17.3925 4.86629 17.0981 4.56445 16.73 4.56445Z" fill="#02B875"/>
<path d="M16.73 13.686C16.3619 13.686 16.0674 13.9805 16.0674 14.356C16.0674 14.7241 16.3619 15.0259 16.73 15.0259C17.0981 15.0259 17.3999 14.7241 17.3999 14.356C17.3925 13.9879 17.0981 13.686 16.73 13.686Z" fill="#02B875"/>
<path d="M16.73 6.84668C16.3619 6.84668 16.0674 7.14116 16.0674 7.50926C16.0674 7.87735 16.3619 8.1792 16.73 8.1792C17.0981 8.1792 17.3999 7.87735 17.3999 7.50926C17.3925 7.14852 17.0981 6.84668 16.73 6.84668Z" fill="#02B875"/>
<path d="M16.73 11.4038C16.3619 11.4038 16.0674 11.7056 16.0674 12.0737C16.0674 12.4418 16.3619 12.7437 16.73 12.7437C17.0981 12.7437 17.3999 12.4492 17.3999 12.0737C17.3925 11.7056 17.0981 11.4038 16.73 11.4038Z" fill="#02B875"/>
<path d="M16.73 9.12891C16.3619 9.12891 16.0674 9.42338 16.0674 9.79884C16.0674 10.1669 16.3619 10.4688 16.73 10.4688C17.0981 10.4688 17.3999 10.1669 17.3999 9.79884C17.3925 9.42338 17.0981 9.12891 16.73 9.12891Z" fill="#02B875"/>
<path d="M16.73 2.28955C16.3619 2.28955 16.0674 2.58403 16.0674 2.95949C16.0674 3.32759 16.3619 3.62943 16.73 3.62943C17.0981 3.62943 17.3999 3.32759 17.3999 2.95949C17.3925 2.58403 17.0981 2.28955 16.73 2.28955Z" fill="#02B875"/>
<path d="M17.3921 16.6306C17.3921 16.4539 17.3185 16.2846 17.2007 16.1595C17.0755 16.0343 16.9062 15.9607 16.7295 15.9607C16.5528 15.9607 16.3835 16.0343 16.2583 16.1595C16.1332 16.2846 16.0596 16.4539 16.0596 16.6306C16.0596 16.8073 16.1332 16.9766 16.2583 17.1018C16.3835 17.227 16.5528 17.3006 16.7295 17.3006C16.9062 17.3006 17.0755 17.227 17.2007 17.1018C17.3258 16.984 17.3921 16.8073 17.3921 16.6306Z" fill="#02B875"/>
<path d="M7.60841 15.9683C7.24032 15.9683 6.93848 16.2701 6.93848 16.6382C6.93848 17.0063 7.23295 17.3081 7.60841 17.3081C7.97651 17.3081 8.27835 17.0137 8.27835 16.6382C8.27835 16.2627 7.97651 15.9683 7.60841 15.9683Z" fill="#02B875"/>
<path d="M9.89064 15.9683C9.52254 15.9683 9.2207 16.2701 9.2207 16.6382C9.2207 17.0063 9.52254 17.3081 9.89064 17.3081C10.2587 17.3081 10.5606 17.0137 10.5606 16.6382C10.5532 16.2627 10.2587 15.9683 9.89064 15.9683Z" fill="#02B875"/>
<path d="M12.1651 15.9683C11.797 15.9683 11.4951 16.2701 11.4951 16.6382C11.4951 17.0063 11.7896 17.3081 12.1651 17.3081C12.5332 17.3081 12.835 17.0137 12.835 16.6382C12.835 16.2627 12.5332 15.9683 12.1651 15.9683Z" fill="#02B875"/>
<path d="M3.05129 15.9683C2.68319 15.9683 2.38135 16.2701 2.38135 16.6382C2.38135 17.0063 2.67583 17.3081 3.05129 17.3081C3.42675 17.3081 3.72123 17.0137 3.72123 16.6382C3.71386 16.2627 3.41938 15.9683 3.05129 15.9683Z" fill="#02B875"/>
<path d="M5.32619 17.3006C5.69428 17.3006 5.99612 17.0061 5.99612 16.6306C5.99612 16.2625 5.69428 15.9607 5.32619 15.9607C4.95809 15.9607 4.65625 16.2625 4.65625 16.6306C4.66361 17.0061 4.95809 17.3006 5.32619 17.3006Z" fill="#02B875"/>
<path d="M14.4473 17.3006C14.8154 17.3006 15.1172 17.0061 15.1172 16.6306C15.1172 16.2625 14.8227 15.9607 14.4473 15.9607C14.0792 15.9607 13.7773 16.2625 13.7773 16.6306C13.7773 17.0061 14.0792 17.3006 14.4473 17.3006Z" fill="#02B875"/>
<path d="M0.297856 16.1595C0.172703 16.2846 0.106445 16.4539 0.106445 16.6306C0.106445 16.8073 0.180065 16.9766 0.297856 17.1018C0.42301 17.227 0.592335 17.3006 0.769022 17.3006C0.945709 17.3006 1.11503 17.227 1.24019 17.1018C1.36534 16.9766 1.43896 16.8073 1.43896 16.6306C1.43896 16.4539 1.36534 16.2846 1.24019 16.1595C1.11503 16.0343 0.945709 15.9607 0.769022 15.9607C0.592335 15.9681 0.42301 16.0343 0.297856 16.1595Z" fill="#02B875"/>
<path d="M0.76906 2.28955C0.400962 2.28955 0.0991211 2.58403 0.0991211 2.95949C0.0991211 3.32759 0.3936 3.62943 0.76906 3.62943C1.13716 3.62943 1.439 3.32759 1.439 2.95949C1.439 2.58403 1.13716 2.28955 0.76906 2.28955Z" fill="#02B875"/>
<path d="M0.76906 4.56445C0.400962 4.56445 0.0991211 4.86629 0.0991211 5.23439C0.0991211 5.60249 0.3936 5.90433 0.76906 5.90433C1.13716 5.90433 1.439 5.60249 1.439 5.23439C1.439 4.86629 1.13716 4.56445 0.76906 4.56445Z" fill="#02B875"/>
<path d="M0.76906 6.84668C0.400962 6.84668 0.0991211 7.14116 0.0991211 7.50926C0.0991211 7.87735 0.3936 8.1792 0.76906 8.1792C1.13716 8.1792 1.439 7.87735 1.439 7.50926C1.439 7.14852 1.13716 6.84668 0.76906 6.84668Z" fill="#02B875"/>
<path d="M0.76906 11.4038C0.400962 11.4038 0.0991211 11.7056 0.0991211 12.0737C0.0991211 12.4418 0.3936 12.7437 0.76906 12.7437C1.13716 12.7437 1.439 12.4492 1.439 12.0737C1.439 11.7056 1.13716 11.4038 0.76906 11.4038Z" fill="#02B875"/>
<path d="M0.76906 13.686C0.400962 13.686 0.0991211 13.9805 0.0991211 14.356C0.0991211 14.7241 0.3936 15.0259 0.76906 15.0259C1.13716 15.0259 1.439 14.7241 1.439 14.356C1.439 13.9879 1.13716 13.686 0.76906 13.686Z" fill="#02B875"/>
<path d="M0.76906 9.12891C0.400962 9.12891 0.0991211 9.42338 0.0991211 9.79884C0.0991211 10.1669 0.3936 10.4688 0.76906 10.4688C1.13716 10.4688 1.439 10.1669 1.439 9.79884C1.439 9.42338 1.13716 9.12891 0.76906 9.12891Z" fill="#02B875"/>
<path d="M35.8929 35.3228V19.3694C35.8929 19.0013 35.5911 18.6995 35.223 18.6995H19.2622C18.8941 18.6995 18.5923 19.0013 18.5923 19.3694V35.3302C18.5923 35.6982 18.8941 36.0001 19.2622 36.0001H35.223C35.5911 35.9927 35.8929 35.6909 35.8929 35.3228ZM34.553 34.6602H19.9322V20.032H34.553V34.6602Z" fill="#008FFF"/>
</svg>
