<svg width="24" height="24" viewBox="0 0 24 24" fill="none" xmlns="http://www.w3.org/2000/svg">
<path d="M3.66297 24L20.3264 24C22.3494 24.0058 23.9941 22.3706 24 20.3476C24 20.3405 24 20.3334 24 20.3264L24 3.66296C23.9942 1.64238 22.3576 0.00579071 20.337 -1.52588e-05L3.66302 -1.52588e-05C1.64244 0.00579071 0.00585556 1.64238 4.95911e-05 3.66296L4.95911e-05 20.3264C0 22.3511 1.63827 23.9941 3.66297 24ZM8.51168 10.2373L11.6347 7.06128C11.6858 7.01805 11.7429 6.98242 11.8041 6.95543C11.8636 6.94451 11.9246 6.94451 11.9841 6.95543C12.0505 6.94233 12.1188 6.94233 12.1852 6.95543C12.2465 6.98242 12.3035 7.01805 12.3546 7.06128L15.4671 10.2373C15.6867 10.412 15.7231 10.7317 15.5484 10.9513C15.3736 11.171 15.0539 11.2073 14.8343 11.0326C14.8062 11.0102 14.7806 10.985 14.7578 10.9572L12.4923 8.70223V16.4834C12.4981 16.7582 12.2801 16.9856 12.0054 16.9915C12.0018 16.9916 11.9982 16.9916 11.9947 16.9916C11.7182 16.9858 11.497 16.76 11.4971 16.4834V8.74456L9.24211 10.9995C9.04332 11.1983 8.721 11.1983 8.5222 10.9995C8.32341 10.8007 8.32341 10.4784 8.5222 10.2796L8.51168 10.2373Z" fill="#83959D"/>
</svg>
