<svg width="30" height="30" viewBox="0 0 30 30" fill="none" xmlns="http://www.w3.org/2000/svg">
<rect width="30" height="30" rx="4" fill="#004164"/>
<path d="M22.5773 9.76282L18.8999 6.15106C18.8013 6.05425 18.6686 6 18.5303 6H9.23328C8.14838 6 7.26562 6.88261 7.26562 7.96765V22.0323C7.26562 23.1172 8.14824 24 9.23328 24H20.7674C21.8523 24 22.7351 23.1174 22.7351 22.0323V10.1391C22.7351 9.99751 22.6782 9.86197 22.5773 9.76282ZM19.0577 7.78445L20.9182 9.61176H19.2253C19.1329 9.61176 19.0577 9.5365 19.0577 9.44408V7.78445ZM20.7674 22.9453H9.23328C8.72997 22.9453 8.32031 22.5358 8.32031 22.0323V7.96765C8.32031 7.4642 8.72983 7.05469 9.23328 7.05469H18.0031V9.44408C18.0031 10.1181 18.5515 10.6664 19.2255 10.6664H21.6804V22.0323C21.6804 22.5358 21.2709 22.9453 20.7674 22.9453Z" fill="white"/>
<path d="M18.6613 14.3672H11.2274C10.9361 14.3672 10.7001 14.6033 10.7001 14.8945C10.7001 15.1858 10.9361 15.4219 11.2274 15.4219H18.6613C18.9526 15.4219 19.1887 15.1858 19.1887 14.8945C19.1887 14.6033 18.9526 14.3672 18.6613 14.3672Z" fill="white"/>
<path d="M11.2274 17.5312H17.2888C17.5801 17.5312 17.8162 17.2952 17.8162 17.0039C17.8162 16.7126 17.5801 16.4766 17.2888 16.4766H11.2274C10.9361 16.4766 10.7001 16.7126 10.7001 17.0039C10.7001 17.2952 10.9361 17.5312 11.2274 17.5312Z" fill="white"/>
<path d="M18.0201 18.5859H11.2274C10.9361 18.5859 10.7001 18.822 10.7001 19.1133C10.7001 19.4046 10.9361 19.6406 11.2274 19.6406H18.0201C18.3113 19.6406 18.5475 19.4046 18.5475 19.1133C18.5475 18.822 18.3113 18.5859 18.0201 18.5859Z" fill="white"/>
</svg>
