<svg width="30" height="31" viewBox="0 0 30 31" fill="none" xmlns="http://www.w3.org/2000/svg">
<path d="M10.9754 10.8092L14.0626 7.72199V21.3964C14.0626 21.9139 14.4826 22.3339 15.0001 22.3339C15.5176 22.3339 15.9376 21.9139 15.9376 21.3964V7.72199L19.0248 10.8092C19.2076 10.9925 19.4476 11.0839 19.6876 11.0839C19.9276 11.0839 20.1676 10.9925 20.3504 10.8092C20.7165 10.4431 20.7165 9.84965 20.3504 9.48355L15.6629 4.79605C15.2973 4.42996 14.7029 4.42996 14.3373 4.79605L9.64975 9.48355C9.28366 9.84965 9.28366 10.4431 9.64975 10.8092C10.0154 11.1753 10.6098 11.1753 10.9754 10.8092Z" fill="white"/>
<path d="M23.4375 19.5215C22.92 19.5215 22.5 19.9415 22.5 20.459V24.209C22.5 24.726 22.0795 25.1465 21.5625 25.1465H8.4375C7.92047 25.1465 7.5 24.726 7.5 24.209V20.459C7.5 19.9415 7.08 19.5215 6.5625 19.5215C6.045 19.5215 5.625 19.9415 5.625 20.459V24.209C5.625 25.7601 6.88641 27.0215 8.4375 27.0215H21.5625C23.1136 27.0215 24.375 25.7601 24.375 24.209V20.459C24.375 19.9415 23.955 19.5215 23.4375 19.5215Z" fill="white"/>
</svg>
