<svg width="224" height="224" viewBox="0 0 224 224" fill="none" xmlns="http://www.w3.org/2000/svg">
<rect width="224" height="224" fill="#F5F7F7"/>
<g clip-path="url(#clip0)">
<path d="M50.0282 107.2C59.2265 107.2 66.6832 99.7431 66.6832 90.5448C66.6832 81.3466 59.2265 73.8899 50.0282 73.8899C40.83 73.8899 33.3733 81.3466 33.3733 90.5448C33.3733 99.7431 40.83 107.2 50.0282 107.2Z" fill="#FF6584"/>
<path d="M215.106 167.481C214.126 168.362 213.096 169.185 212.021 169.946C209.468 171.742 206.709 173.225 203.804 174.364C191.729 174.073 173.978 172.592 151.571 171.802C149.9 171.23 148.19 170.612 146.443 169.946C144.131 169.065 141.752 168.097 139.306 167.041C129.151 162.653 118.724 159.8 108.396 158.096C106.177 157.73 103.963 157.416 101.755 157.155C55.1177 151.577 12.1092 167.965 7.12823 169.946H6.64795L9.71168 164.012L61.8416 63.0449L74.0326 94.3445L77.9233 104.336L88.6464 89.6211L94.1832 82.0237L119.398 110.932L126.525 95.1927L175.866 135.459L178.618 137.703L181.403 139.977L182.29 140.701L208.668 162.229L215.106 167.481Z" fill="#F2F2F2"/>
<path opacity="0.1" d="M57.1936 83.3794L62.2288 72.3407L69.2007 88.4146L63.1971 76.7949L57.1936 83.3794Z" fill="black"/>
<path opacity="0.1" d="M108.396 158.096C106.176 157.73 103.963 157.416 101.755 157.155L77.9231 104.336L108.396 158.096Z" fill="black"/>
<path opacity="0.1" d="M88.6465 89.621L94.1831 85.3161L119.359 114.365L93.7958 89.5766L88.6465 89.621Z" fill="black"/>
<path opacity="0.1" d="M119.397 110.931L169.711 159.101L162.829 160.724L119.397 110.931Z" fill="black"/>
<path d="M222 170.043C222 173.794 215.617 174.648 203.804 174.364C191.729 174.073 173.978 172.592 151.571 171.802C143.096 171.503 133.954 171.302 124.201 171.302C63.4489 171.302 2 179.081 2 170.043C2 167.913 4.73451 165.879 9.71162 164.012C24.4687 158.478 58.9366 154.424 100.229 153.772C102.108 153.741 104 153.718 105.905 153.704C107.923 153.686 109.955 153.678 112 153.679C128.417 153.679 143.995 154.213 157.987 155.172C158.032 155.176 158.074 155.18 158.119 155.181C159.242 155.259 160.354 155.339 161.455 155.422C162.658 155.513 163.848 155.606 165.025 155.702C165.267 155.722 165.509 155.741 165.749 155.762C165.923 155.776 166.098 155.792 166.27 155.807C166.588 155.832 166.905 155.859 167.219 155.888C167.23 155.888 167.241 155.889 167.252 155.89C167.829 155.941 168.402 155.991 168.971 156.041C169.032 156.047 169.092 156.053 169.152 156.057C185.7 157.558 199.376 159.69 208.668 162.229C217.17 164.551 222 167.212 222 170.043Z" fill="#3F3D56"/>
<path d="M15.728 137.732C15.728 150.13 23.5056 160.162 33.1171 160.162L15.728 137.732Z" fill="#3F3D56"/>
<path d="M33.1172 160.162C33.1172 147.625 41.7965 137.48 52.5224 137.48L33.1172 160.162Z" fill="#008FFF"/>
<path d="M22.0286 138.856C22.0286 150.633 26.9881 160.162 33.1172 160.162L22.0286 138.856Z" fill="#008FFF"/>
<path d="M33.1172 160.162C33.1172 144.143 43.1491 131.18 55.5465 131.18L33.1172 160.162Z" fill="#3F3D56"/>
<path d="M29.459 160.32C29.459 160.32 31.925 160.244 32.6682 159.715C33.4115 159.186 36.4617 158.554 36.646 159.402C36.8304 160.251 40.3521 163.624 37.5679 163.646C34.7837 163.669 31.0987 163.212 30.357 162.761C29.6152 162.309 29.459 160.32 29.459 160.32Z" fill="#A8A8A8"/>
<path opacity="0.2" d="M37.6176 163.351C34.8334 163.373 31.1484 162.917 30.4066 162.465C29.8417 162.121 29.6166 160.886 29.5413 160.317C29.4892 160.319 29.459 160.32 29.459 160.32C29.459 160.32 29.6152 162.309 30.357 162.761C31.0987 163.212 34.7837 163.669 37.5679 163.646C38.3716 163.64 38.6492 163.354 38.6339 162.93C38.5223 163.186 38.2158 163.346 37.6176 163.351Z" fill="black"/>
<path d="M149.742 135.99C149.742 148.387 157.52 158.419 167.131 158.419L149.742 135.99Z" fill="#3F3D56"/>
<path d="M167.131 158.419C167.131 145.882 175.811 135.737 186.537 135.737L167.131 158.419Z" fill="#008FFF"/>
<path d="M156.042 137.113C156.042 148.89 161.002 158.419 167.131 158.419L156.042 137.113Z" fill="#008FFF"/>
<path d="M167.131 158.419C167.131 142.4 177.163 129.437 189.561 129.437L167.131 158.419Z" fill="#3F3D56"/>
<path d="M163.473 158.577C163.473 158.577 165.939 158.501 166.682 157.972C167.425 157.443 170.476 156.811 170.66 157.659C170.844 158.508 174.366 161.881 171.582 161.903C168.798 161.926 165.113 161.47 164.371 161.018C163.629 160.566 163.473 158.577 163.473 158.577Z" fill="#A8A8A8"/>
<path opacity="0.2" d="M171.632 161.608C168.847 161.63 165.162 161.174 164.421 160.722C163.856 160.378 163.631 159.143 163.555 158.574C163.503 158.576 163.473 158.577 163.473 158.577C163.473 158.577 163.629 160.566 164.371 161.018C165.113 161.47 168.798 161.926 171.582 161.903C172.386 161.897 172.663 161.611 172.648 161.187C172.536 161.443 172.23 161.603 171.632 161.608Z" fill="black"/>
<path d="M194.77 69.2118C193.83 69.5591 192.179 69.8432 190.267 70.0725C185.069 70.6962 177.946 70.9176 177.946 70.9176C177.946 70.9176 141.339 73.9541 113.901 62.6617C113.901 62.6617 109.91 60.5689 113.617 57.7536C114.187 57.3323 114.793 56.9624 115.428 56.6482C115.428 56.6482 115.443 56.6326 115.473 56.6036C115.894 56.2142 116.35 55.8633 116.833 55.5552C118.255 54.6364 120.655 53.5464 123.576 54.0401L195.636 65.6959C195.636 65.6959 198.268 67.9198 194.77 69.2118Z" fill="#F2F2F2"/>
<path d="M180.411 63.9298L195.497 53.2259L202.147 54.3758L195.636 65.6958C195.636 65.6958 180.584 65.8156 180.411 63.9298Z" fill="#F2F2F2"/>
<path d="M142.43 57.4276L172.48 49L177.324 50.0121L163.75 56.1182L159.506 60.8645L142.43 57.4276Z" fill="#F2F2F2"/>
<path d="M190.267 70.0726C185.069 70.6963 177.946 70.9177 177.946 70.9177C177.946 70.9177 141.339 73.9541 113.901 62.6617C113.901 62.6617 109.91 60.5689 113.617 57.7536L113.63 57.8051C113.63 57.8051 119.55 61.8065 147.837 65.1475L190.267 70.0726Z" fill="#F2F2F2"/>
<path d="M185.436 69.8412L198.872 75.3264L202.247 74.9516L194.21 68.9124C194.21 68.9124 184.491 66.8395 185.436 69.8412Z" fill="#F2F2F2"/>
<path d="M118.496 58.391C117.855 58.4022 116.386 57.3267 115.473 56.6036C115.894 56.2142 116.349 55.8633 116.833 55.5552C117.569 56.12 118.879 57.0347 119.608 57.0021C120.659 56.955 119.461 58.3743 118.496 58.391Z" fill="#F2F2F2"/>
<path d="M179.53 88.8037L170.905 89.2547L146.655 72.9017L142.153 69.8659L139.965 68.3905C144.068 64.9226 160.806 69.7041 160.806 69.7041C161.126 69.9746 161.228 70.424 161.213 70.9201C161.186 71.8501 160.749 72.9447 160.581 73.3342C160.54 73.4281 160.515 73.4809 160.515 73.4809L179.53 88.8037Z" fill="#F2F2F2"/>
<path d="M194.77 69.2118C193.83 69.5591 192.179 69.8432 190.267 70.0725C185.069 70.6962 177.946 70.9176 177.946 70.9176C177.946 70.9176 141.339 73.9541 113.901 62.6617C113.901 62.6617 109.91 60.5689 113.617 57.7536C114.187 57.3323 114.793 56.9624 115.428 56.6482C115.428 56.6482 115.443 56.6326 115.473 56.6036C115.894 56.2142 116.35 55.8633 116.833 55.5552C118.255 54.6364 120.655 53.5464 123.576 54.0401L195.636 65.6959C195.636 65.6959 198.268 67.9198 194.77 69.2118Z" fill="#3F3D56"/>
<path d="M180.411 63.9298L195.497 53.2259L202.147 54.3758L195.636 65.6958C195.636 65.6958 180.584 65.8156 180.411 63.9298Z" fill="#3F3D56"/>
<path d="M142.43 57.4276L172.48 49L177.324 50.0121L163.75 56.1182L159.506 60.8645L142.43 57.4276Z" fill="#3F3D56"/>
<path d="M190.267 70.0726C185.069 70.6963 177.946 70.9177 177.946 70.9177C177.946 70.9177 141.339 73.9541 113.901 62.6617C113.901 62.6617 109.91 60.5689 113.617 57.7536L113.63 57.8051C113.63 57.8051 119.55 61.8065 147.837 65.1475L190.267 70.0726Z" fill="#008FFF"/>
<path d="M185.436 69.8412L198.872 75.3264L202.247 74.9516L194.21 68.9124C194.21 68.9124 184.491 66.8395 185.436 69.8412Z" fill="#3F3D56"/>
<path d="M118.496 58.391C117.855 58.4022 116.386 57.3267 115.473 56.6036C115.894 56.2142 116.349 55.8633 116.833 55.5552C117.569 56.12 118.879 57.0347 119.608 57.0021C120.659 56.955 119.461 58.3743 118.496 58.391Z" fill="#008FFF"/>
<path d="M179.53 88.8037L170.905 89.2547L146.655 72.9017L142.153 69.8659L139.965 68.3905C144.068 64.9226 160.806 69.7041 160.806 69.7041C161.126 69.9746 161.228 70.424 161.213 70.9201C161.186 71.8501 160.749 72.9447 160.581 73.3342C160.54 73.4281 160.515 73.4809 160.515 73.4809L179.53 88.8037Z" fill="#3F3D56"/>
</g>
<defs>
<clipPath id="clip0">
<rect width="220" height="125.415" fill="white" transform="translate(2 49)"/>
</clipPath>
</defs>
</svg>
