<svg width="158" height="140" viewBox="0 0 158 140" fill="none" xmlns="http://www.w3.org/2000/svg">
<g clip-path="url(#clip0)">
<path d="M117.79 30.6775C82.1478 30.6775 76.117 16.8498 76.0631 16.7206C75.9345 16.389 75.7102 16.1031 75.4187 15.8992C75.1273 15.6953 74.7818 15.5826 74.4262 15.5754C74.0687 15.5774 73.7196 15.6838 73.4218 15.8815C73.124 16.0792 72.8904 16.3596 72.7498 16.6883C72.7067 16.8318 66.5467 30.6775 31.037 30.6775C30.5616 30.6822 30.1075 30.8754 29.7743 31.2146C29.4412 31.5538 29.2562 32.0113 29.2601 32.4867L36.9529 94.4457C42.0719 116.149 71.8883 127.396 73.6903 128.207C73.9308 128.315 74.157 128.351 74.4154 128.351C74.6488 128.351 74.9037 128.315 75.1298 128.207C76.9498 127.396 103.869 118.838 111.874 94.4457L119.567 32.4867C119.568 32.0121 119.382 31.5563 119.05 31.2177C118.717 30.8791 118.265 30.685 117.79 30.6775Z" fill="white" stroke="#008FFF" stroke-width="1.591"/>
<path d="M105.313 42.7359C80.0767 42.7359 75.8121 32.9503 75.7726 32.8569C75.6815 32.622 75.5227 32.4194 75.3162 32.275C75.1097 32.1305 74.865 32.0507 74.6131 32.0457C74.3602 32.0477 74.1134 32.1236 73.903 32.2639C73.6926 32.4041 73.5277 32.6028 73.4285 32.8354C73.3926 32.9359 69.0346 42.7359 43.8957 42.7359C43.7288 42.7378 43.5639 42.7725 43.4104 42.8381C43.257 42.9037 43.1179 42.9989 43.0013 43.1182C42.8846 43.2376 42.7926 43.3787 42.7305 43.5336C42.6683 43.6885 42.6373 43.8542 42.6392 44.021L48.0813 87.8877C51.7069 103.252 72.8146 111.21 74.0926 111.788C74.2613 111.86 74.4228 111.889 74.6059 111.889C74.7787 111.892 74.9501 111.857 75.1085 111.788C76.4008 111.214 95.4623 105.154 101.127 87.8841L106.573 44.0174C106.574 43.6816 106.442 43.3588 106.207 43.119C105.972 42.8792 105.652 42.7416 105.316 42.7359H105.313Z" fill="#008FFF"/>
<path d="M129.554 18.089C150.952 13.2644 153.68 19.6936 137.738 37.3659C113.82 63.8762 60.584 108.687 28.9907 124.747C-2.60263 140.812 10.683 115.802 21.3948 104.727" stroke="white" stroke-width="4.774" stroke-linecap="round" stroke-linejoin="round"/>
<path d="M129.554 18.089C150.952 13.2644 153.68 19.6936 137.738 37.3659C113.82 63.8762 60.584 108.687 28.9907 124.747C-2.60263 140.812 10.683 115.802 21.3948 104.727" stroke="#80868B" stroke-width="1.591" stroke-linecap="round" stroke-linejoin="round"/>
<path d="M126.84 124.191C126.512 124.187 126.187 124.119 125.885 123.991C125.582 123.862 125.308 123.675 125.078 123.44C124.848 123.205 124.667 122.928 124.544 122.623C124.421 122.318 124.36 121.992 124.363 121.663C124.37 121.001 124.114 120.363 123.651 119.889C123.188 119.416 122.556 119.145 121.893 119.136C121.565 119.14 121.24 119.208 120.938 119.336C120.636 119.465 120.362 119.652 120.132 119.887C119.902 120.122 119.72 120.399 119.597 120.704C119.475 121.009 119.413 121.335 119.417 121.663C119.423 122.326 119.167 122.964 118.704 123.438C118.241 123.911 117.609 124.182 116.947 124.191C116.618 124.194 116.293 124.262 115.991 124.391C115.689 124.519 115.415 124.707 115.185 124.941C114.955 125.176 114.773 125.454 114.651 125.758C114.528 126.063 114.467 126.389 114.47 126.718C114.47 128.118 115.583 129.245 116.947 129.245C118.311 129.245 119.42 130.379 119.42 131.776C119.42 133.169 120.526 134.303 121.893 134.303C123.258 134.303 124.367 133.169 124.367 131.776C124.367 130.379 125.476 129.245 126.84 129.245C128.204 129.245 129.313 128.114 129.313 126.718C129.317 126.389 129.255 126.063 129.133 125.758C129.01 125.454 128.828 125.176 128.598 124.941C128.368 124.707 128.094 124.519 127.792 124.391C127.49 124.262 127.165 124.194 126.837 124.191H126.84ZM10.7299 46.9609C10.0205 46.9523 9.34351 46.6631 8.84698 46.1565C8.35045 45.6499 8.07489 44.9671 8.08064 44.2578C8.08348 44.0174 8.03894 43.7787 7.94956 43.5555C7.86017 43.3323 7.72769 43.1289 7.55969 42.9569C7.39168 42.7849 7.19144 42.6477 6.97039 42.5531C6.74935 42.4584 6.51183 42.4083 6.27141 42.4055C6.03068 42.4078 5.79278 42.4576 5.57132 42.552C5.34986 42.6464 5.14919 42.7836 4.98081 42.9556C4.81242 43.1277 4.67963 43.3313 4.59002 43.5547C4.50041 43.7782 4.45574 44.0171 4.45859 44.2578C4.45859 45.7475 3.27397 46.9609 1.81295 46.9609C1.57222 46.9632 1.33432 47.013 1.11286 47.1074C0.891399 47.2018 0.690734 47.339 0.522349 47.511C0.353963 47.6831 0.221165 47.8867 0.131555 48.1101C0.0419455 48.3335 -0.00271591 48.5725 0.000127734 48.8132C-0.00271591 49.0539 0.0419455 49.2928 0.131555 49.5163C0.221165 49.7397 0.353963 49.9433 0.522349 50.1153C0.690734 50.2874 0.891399 50.4245 1.11286 50.5189C1.33432 50.6133 1.57222 50.6632 1.81295 50.6655C3.27038 50.6655 4.45859 51.8788 4.45859 53.3686C4.45574 53.6093 4.50041 53.8482 4.59002 54.0717C4.67963 54.2951 4.81242 54.4987 4.98081 54.6707C5.14919 54.8428 5.34986 54.9799 5.57132 55.0743C5.79278 55.1687 6.03068 55.2185 6.27141 55.2209C6.51183 55.2181 6.74935 55.1679 6.97039 55.0733C7.19144 54.9787 7.39168 54.8415 7.55969 54.6695C7.72769 54.4975 7.86017 54.294 7.94956 54.0708C8.03894 53.8476 8.08348 53.609 8.08064 53.3686C8.08064 51.8788 9.26884 50.6655 10.7299 50.6655C10.9706 50.6632 11.2085 50.6133 11.43 50.5189C11.6514 50.4245 11.8521 50.2874 12.0205 50.1153C12.1889 49.9433 12.3217 49.7397 12.4113 49.5163C12.5009 49.2928 12.5455 49.0539 12.5427 48.8132C12.5455 48.5725 12.5009 48.3335 12.4113 48.1101C12.3217 47.8867 12.1889 47.6831 12.0205 47.511C11.8521 47.339 11.6514 47.2018 11.43 47.1074C11.2085 47.013 10.9706 46.9632 10.7299 46.9609ZM112.822 6.65882C111.53 6.65882 110.474 5.5819 110.474 4.26087C110.474 3.35267 109.757 2.62036 108.866 2.62036C108.436 2.62604 108.026 2.80184 107.725 3.1093C107.424 3.41675 107.258 3.83082 107.262 4.26087C107.267 4.89053 107.023 5.49672 106.582 5.94633C106.141 6.39593 105.54 6.65219 104.91 6.65882C104.48 6.6645 104.069 6.8408 103.768 7.14903C103.467 7.45726 103.301 7.87225 103.306 8.30293C103.306 9.20754 104.024 9.94344 104.91 9.94344C106.206 9.94344 107.262 11.0204 107.262 12.345C107.262 13.2496 107.98 13.9855 108.866 13.9855C109.297 13.9808 109.708 13.8054 110.01 13.4978C110.311 13.1903 110.478 12.7756 110.474 12.345C110.474 11.0204 111.526 9.94344 112.822 9.94344C113.252 9.93776 113.662 9.76196 113.963 9.4545C114.264 9.14705 114.431 8.73298 114.427 8.30293C114.427 7.39472 113.709 6.65882 112.822 6.65882Z" fill="#80868B"/>
</g>
<defs>
<clipPath id="clip0">
<rect width="157.949" height="140" fill="white"/>
</clipPath>
</defs>
</svg>
