<svg width="12" height="11" viewBox="0 0 12 11" fill="none" xmlns="http://www.w3.org/2000/svg">
<path fill-rule="evenodd" clip-rule="evenodd" d="M11.4971 5.08677C11.497 5.08663 11.497 5.08663 11.4971 5.08677L7.5049 1.01257C7.22716 0.729126 6.77669 0.729126 6.49895 1.01257C6.22107 1.29602 6.22107 1.75574 6.49895 2.03919L9.27677 4.87408H1.31132C0.918424 4.87408 0.6 5.19904 0.6 5.60001C0.6 6.00097 0.918424 6.32593 1.31132 6.32593H9.27677L6.49895 9.16082C6.22107 9.44427 6.22107 9.90399 6.49895 10.1874C6.63789 10.3291 6.81994 10.4 7.00199 10.4C7.18404 10.4 7.3661 10.3291 7.5049 10.1873L11.497 6.11338C11.497 6.11338 11.497 6.11338 11.4971 6.11324L12 5.60001L11.4971 5.08677Z" fill="white"/>
</svg>
