<svg width="48" height="48" viewBox="0 0 48 48" fill="none" xmlns="http://www.w3.org/2000/svg">
<g clip-path="url(#clip0)">
<path d="M47.8534 23.5453L44.2487 18.5725L44.8875 12.4654C44.9223 12.1316 44.7386 11.8137 44.432 11.6772L38.8212 9.18043L36.3244 3.5692C36.1872 3.26339 35.8696 3.08005 35.5362 3.11332L29.4279 3.75178L24.4555 0.147425C24.1845 -0.0491417 23.8178 -0.0491417 23.5468 0.147425L18.574 3.75178L12.4661 3.11332C12.133 3.08156 11.8166 3.26452 11.6779 3.56844L9.18114 9.17967L3.56991 11.6772C3.26372 11.8133 3.08 12.1312 3.11478 12.4646L3.75325 18.5725L0.14889 23.5453C-0.0476769 23.8163 -0.0476769 24.183 0.14889 24.454L3.75325 29.4264L3.11478 35.5347C3.07963 35.8681 3.26334 36.1864 3.56991 36.3229L9.18114 38.8197L11.6779 44.4309C11.8159 44.7356 12.1327 44.9189 12.4661 44.8868L18.574 44.2479L23.5468 47.8527C23.8178 48.0492 24.1845 48.0492 24.4555 47.8527L29.4279 44.2479L35.5362 44.8868C35.8696 44.9204 36.1868 44.7371 36.3244 44.4317L38.8212 38.8204L44.432 36.3229C44.7382 36.1864 44.9219 35.8689 44.8875 35.5355L44.2487 29.4272L47.8534 24.4548C48.0504 24.1838 48.0504 23.8163 47.8534 23.5453ZM42.8213 28.7577C42.709 28.9123 42.658 29.1028 42.678 29.2926L43.2881 35.1359L37.9192 37.5261C37.7438 37.6032 37.6032 37.7431 37.5257 37.9185L35.1374 43.2874L29.2926 42.6765C29.1028 42.6569 28.9127 42.7083 28.7584 42.8206L24.0012 46.2688L19.2431 42.8206C19.1112 42.7242 18.9524 42.6724 18.7895 42.6728C18.7623 42.6728 18.735 42.6728 18.712 42.6765L12.8668 43.2874L10.4785 37.9185C10.4006 37.7431 10.2607 37.6028 10.0853 37.525L4.7134 35.1359L5.32351 29.2926C5.34317 29.1028 5.29214 28.9123 5.18025 28.7577L1.73201 23.9997L5.18025 19.2416C5.29214 19.087 5.34317 18.8965 5.32351 18.7067L4.7134 12.863L10.0823 10.4732C10.2577 10.3961 10.398 10.2563 10.4755 10.0809L12.8637 4.71193L18.709 5.3228C18.8983 5.3417 19.0885 5.29029 19.2431 5.17878L24.0012 1.73054L28.7592 5.17878C28.9134 5.29067 29.1036 5.3417 29.2933 5.3228L35.1382 4.71193L37.5265 10.0809C37.6043 10.2563 37.7446 10.3961 37.92 10.474L43.2889 12.863L42.6788 18.7067C42.6587 18.8965 42.7098 19.087 42.8221 19.2416L46.2699 23.9997L42.8213 28.7577Z" fill="black"/>
<path d="M33.0413 15.2231C32.7389 14.9207 32.249 14.9207 31.9465 15.2231L19.3564 27.8132L15.5219 23.9859C15.2198 23.6846 14.7307 23.6846 14.4287 23.9859L12.2339 26.1674C12.0884 26.3125 12.0063 26.5099 12.0063 26.7155C12.0063 26.9211 12.0884 27.1185 12.2339 27.2636L18.8068 33.8365C19.1088 34.1385 19.5991 34.1385 19.9015 33.8365L35.23 18.5077C35.532 18.2057 35.532 17.7154 35.23 17.413L33.0413 15.2231ZM19.3564 32.1952L13.879 26.7178L14.9738 25.6257L18.8098 29.4538C19.1119 29.7555 19.6014 29.7555 19.9038 29.4538L32.4939 16.8649L33.5901 17.9611L19.3564 32.1952Z" fill="black"/>
</g>
<defs>
<clipPath id="clip0">
<rect width="48" height="48" fill="white"/>
</clipPath>
</defs>
</svg>
