<svg width="224" height="224" viewBox="0 0 224 224" fill="none" xmlns="http://www.w3.org/2000/svg">
<rect width="224" height="224" fill="#F5F7F7"/>
<g clip-path="url(#clip0)">
<path opacity="0.1" d="M112 183.617C167.228 183.617 212 178.175 212 171.462C212 164.749 167.228 159.307 112 159.307C56.7715 159.307 12 164.749 12 171.462C12 178.175 56.7715 183.617 112 183.617Z" fill="#008FFF"/>
<path d="M183.107 177.42C183.107 177.42 188.322 170.783 187.9 164.199C187.706 161.438 188.412 158.689 189.913 156.364C190.634 155.265 191.455 154.236 192.364 153.287" stroke="#535461" stroke-width="2" stroke-miterlimit="10"/>
<path d="M192.123 149.136C191.755 150.058 192.357 153.396 192.357 153.396C192.357 153.396 195.092 151.389 195.46 150.468C195.636 150.025 195.63 149.531 195.441 149.093C195.253 148.656 194.899 148.311 194.457 148.134C194.014 147.958 193.52 147.964 193.082 148.152C192.645 148.34 192.299 148.694 192.123 149.136Z" fill="#008FFF"/>
<path d="M187.327 153.141C187.519 154.114 189.839 156.589 189.839 156.589C189.839 156.589 191.045 153.418 190.852 152.444C190.807 152.213 190.716 151.993 190.585 151.796C190.454 151.6 190.286 151.431 190.09 151.3C189.894 151.169 189.674 151.077 189.443 151.031C189.211 150.984 188.973 150.984 188.742 151.03C188.51 151.075 188.29 151.166 188.094 151.297C187.897 151.428 187.729 151.596 187.597 151.792C187.466 151.988 187.374 152.208 187.328 152.439C187.282 152.671 187.281 152.909 187.327 153.141Z" fill="#008FFF"/>
<path d="M183.967 161.913C184.624 162.656 187.876 163.621 187.876 163.621C187.876 163.621 187.316 160.275 186.659 159.532C186.502 159.355 186.313 159.211 186.101 159.108C185.889 159.004 185.658 158.943 185.423 158.929C185.187 158.914 184.951 158.946 184.728 159.023C184.505 159.1 184.299 159.22 184.122 159.376C183.945 159.533 183.801 159.722 183.698 159.934C183.594 160.146 183.533 160.377 183.519 160.612C183.505 160.848 183.537 161.084 183.614 161.307C183.69 161.53 183.81 161.736 183.967 161.913Z" fill="#008FFF"/>
<path d="M182.919 169.122C183.441 169.966 186.484 171.467 186.484 171.467C186.484 171.467 186.497 168.075 185.974 167.231C185.85 167.03 185.688 166.856 185.496 166.718C185.305 166.58 185.088 166.481 184.858 166.427C184.628 166.373 184.39 166.365 184.157 166.403C183.924 166.441 183.701 166.524 183.5 166.648C183.3 166.772 183.125 166.935 182.988 167.127C182.85 167.318 182.751 167.535 182.697 167.765C182.643 167.995 182.635 168.233 182.673 168.466C182.711 168.699 182.795 168.922 182.919 169.122Z" fill="#008FFF"/>
<path d="M193.272 158.166C192.355 158.544 189.01 157.981 189.01 157.981C189.01 157.981 190.985 155.222 191.902 154.844C192.342 154.662 192.837 154.663 193.277 154.846C193.717 155.029 194.066 155.379 194.248 155.82C194.43 156.26 194.429 156.755 194.246 157.195C194.063 157.635 193.713 157.984 193.272 158.166Z" fill="#008FFF"/>
<path d="M191.94 166.582C190.951 166.669 187.928 165.13 187.928 165.13C187.928 165.13 190.638 163.089 191.626 163.002C191.861 162.981 192.098 163.007 192.324 163.078C192.549 163.149 192.758 163.263 192.939 163.415C193.12 163.567 193.269 163.752 193.378 163.962C193.487 164.171 193.554 164.4 193.575 164.635C193.595 164.87 193.569 165.107 193.498 165.332C193.427 165.558 193.313 165.767 193.161 165.947C193.009 166.128 192.823 166.277 192.614 166.386C192.404 166.495 192.175 166.562 191.94 166.582Z" fill="#008FFF"/>
<path d="M189.522 174.584C188.563 174.837 185.323 173.831 185.323 173.831C185.323 173.831 187.648 171.362 188.608 171.109C189.069 170.988 189.559 171.055 189.971 171.295C190.382 171.535 190.682 171.929 190.803 172.39C190.924 172.851 190.857 173.341 190.617 173.752C190.377 174.164 189.983 174.463 189.522 174.584Z" fill="#008FFF"/>
<path opacity="0.25" d="M192.123 149.136C191.755 150.058 192.357 153.396 192.357 153.396C192.357 153.396 195.092 151.389 195.46 150.468C195.636 150.025 195.63 149.531 195.441 149.093C195.253 148.656 194.899 148.311 194.457 148.134C194.014 147.958 193.52 147.964 193.082 148.152C192.645 148.34 192.299 148.694 192.123 149.136Z" fill="black"/>
<path opacity="0.25" d="M187.327 153.141C187.519 154.114 189.839 156.589 189.839 156.589C189.839 156.589 191.045 153.418 190.852 152.444C190.807 152.213 190.716 151.993 190.585 151.796C190.454 151.6 190.286 151.431 190.09 151.3C189.894 151.169 189.674 151.077 189.443 151.031C189.211 150.984 188.973 150.984 188.742 151.03C188.51 151.075 188.29 151.166 188.094 151.297C187.897 151.428 187.729 151.596 187.597 151.792C187.466 151.988 187.374 152.208 187.328 152.439C187.282 152.671 187.281 152.909 187.327 153.141Z" fill="black"/>
<path opacity="0.25" d="M183.967 161.913C184.624 162.656 187.876 163.621 187.876 163.621C187.876 163.621 187.316 160.275 186.659 159.532C186.502 159.355 186.313 159.211 186.101 159.108C185.889 159.004 185.658 158.943 185.423 158.929C185.187 158.914 184.951 158.946 184.728 159.023C184.505 159.1 184.299 159.22 184.122 159.376C183.945 159.533 183.801 159.722 183.698 159.934C183.594 160.146 183.533 160.377 183.519 160.612C183.505 160.848 183.537 161.084 183.614 161.307C183.69 161.53 183.81 161.736 183.967 161.913Z" fill="black"/>
<path opacity="0.25" d="M182.919 169.122C183.441 169.966 186.484 171.467 186.484 171.467C186.484 171.467 186.497 168.075 185.974 167.231C185.85 167.03 185.688 166.856 185.496 166.718C185.305 166.58 185.088 166.481 184.858 166.427C184.628 166.373 184.39 166.365 184.157 166.403C183.924 166.441 183.701 166.524 183.5 166.648C183.3 166.772 183.125 166.935 182.988 167.127C182.85 167.318 182.751 167.535 182.697 167.765C182.643 167.995 182.635 168.233 182.673 168.466C182.711 168.699 182.795 168.922 182.919 169.122Z" fill="black"/>
<path opacity="0.25" d="M193.272 158.166C192.355 158.544 189.01 157.981 189.01 157.981C189.01 157.981 190.985 155.222 191.902 154.844C192.342 154.662 192.837 154.663 193.277 154.846C193.717 155.029 194.066 155.379 194.248 155.82C194.43 156.26 194.429 156.755 194.246 157.195C194.063 157.635 193.713 157.984 193.272 158.166Z" fill="black"/>
<path opacity="0.25" d="M191.94 166.582C190.951 166.669 187.928 165.13 187.928 165.13C187.928 165.13 190.638 163.089 191.626 163.002C191.861 162.981 192.098 163.007 192.324 163.078C192.549 163.149 192.758 163.263 192.939 163.415C193.12 163.567 193.269 163.752 193.378 163.962C193.487 164.171 193.554 164.4 193.575 164.635C193.595 164.87 193.569 165.107 193.498 165.332C193.427 165.558 193.313 165.767 193.161 165.947C193.009 166.128 192.823 166.277 192.614 166.386C192.404 166.495 192.175 166.562 191.94 166.582Z" fill="black"/>
<path opacity="0.25" d="M189.522 174.584C188.563 174.837 185.323 173.831 185.323 173.831C185.323 173.831 187.648 171.362 188.608 171.109C189.069 170.988 189.559 171.055 189.971 171.295C190.382 171.535 190.682 171.929 190.803 172.39C190.924 172.851 190.857 173.341 190.617 173.752C190.377 174.164 189.983 174.463 189.522 174.584Z" fill="black"/>
<path d="M183.151 177.144C183.151 177.144 190.608 173.19 192.891 166.999C193.832 164.397 195.591 162.169 197.906 160.652C199.01 159.94 200.177 159.331 201.393 158.832" stroke="#535461" stroke-width="2" stroke-miterlimit="10"/>
<path d="M202.855 154.939C202.145 155.633 201.343 158.929 201.343 158.929C201.343 158.929 204.657 158.203 205.366 157.509C205.707 157.176 205.902 156.721 205.907 156.245C205.913 155.768 205.729 155.309 205.396 154.969C205.062 154.628 204.608 154.433 204.131 154.428C203.655 154.422 203.196 154.606 202.855 154.939Z" fill="#008FFF"/>
<path d="M196.848 156.657C196.629 157.625 197.747 160.828 197.747 160.828C197.747 160.828 200.134 158.417 200.353 157.449C200.405 157.219 200.411 156.981 200.371 156.749C200.331 156.516 200.246 156.294 200.12 156.094C199.994 155.895 199.83 155.722 199.637 155.586C199.444 155.45 199.227 155.353 198.996 155.301C198.766 155.249 198.528 155.243 198.296 155.283C198.063 155.323 197.841 155.408 197.641 155.534C197.442 155.66 197.269 155.824 197.133 156.017C196.997 156.209 196.9 156.427 196.848 156.657Z" fill="#008FFF"/>
<path d="M190.221 163.315C190.521 164.261 193.103 166.462 193.103 166.462C193.103 166.462 193.947 163.176 193.647 162.23C193.575 162.005 193.461 161.796 193.309 161.616C193.157 161.435 192.971 161.286 192.761 161.178C192.552 161.069 192.323 161.003 192.088 160.982C191.853 160.962 191.616 160.988 191.391 161.06C191.166 161.131 190.958 161.246 190.777 161.398C190.596 161.55 190.448 161.736 190.339 161.945C190.23 162.155 190.164 162.383 190.144 162.618C190.124 162.854 190.15 163.09 190.221 163.315Z" fill="#008FFF"/>
<path d="M186.342 169.482C186.477 170.465 188.65 173.07 188.65 173.07C188.65 173.07 190.037 169.974 189.901 168.991C189.869 168.757 189.791 168.532 189.672 168.328C189.553 168.125 189.394 167.947 189.206 167.804C189.018 167.662 188.804 167.558 188.576 167.498C188.347 167.438 188.11 167.424 187.876 167.456C187.642 167.489 187.417 167.567 187.213 167.686C187.01 167.805 186.832 167.963 186.689 168.151C186.547 168.339 186.443 168.554 186.383 168.782C186.323 169.01 186.309 169.248 186.342 169.482Z" fill="#008FFF"/>
<path d="M200.247 163.66C199.255 163.635 196.425 161.764 196.425 161.764C196.425 161.764 199.348 160.042 200.34 160.068C200.816 160.081 201.268 160.282 201.596 160.627C201.924 160.973 202.102 161.435 202.089 161.911C202.077 162.387 201.876 162.839 201.53 163.167C201.185 163.495 200.723 163.673 200.247 163.66H200.247Z" fill="#008FFF"/>
<path d="M195.618 170.815C194.679 170.493 192.539 167.862 192.539 167.862C192.539 167.862 195.843 167.094 196.782 167.415C197.233 167.569 197.604 167.896 197.814 168.324C198.023 168.752 198.054 169.246 197.9 169.697C197.746 170.148 197.418 170.519 196.991 170.728C196.563 170.938 196.069 170.969 195.618 170.815V170.815Z" fill="#008FFF"/>
<path d="M190.165 177.151C189.185 176.993 186.631 174.761 186.631 174.761C186.631 174.761 189.758 173.445 190.738 173.604C191.208 173.68 191.629 173.939 191.908 174.326C192.187 174.712 192.301 175.193 192.225 175.664C192.149 176.134 191.889 176.555 191.503 176.834C191.117 177.113 190.635 177.227 190.165 177.151Z" fill="#008FFF"/>
<path opacity="0.1" d="M125.978 57.0085C116.097 56.6654 106.685 53.4754 97.6986 49.9853C88.7117 46.4952 79.81 42.6285 70.1653 40.7791C63.9619 39.5897 56.8679 39.4214 51.8695 42.7473C47.0596 45.9479 45.5055 51.4727 44.6699 56.5991C44.0412 60.456 43.6716 64.5152 45.3941 68.1259C46.5901 70.6327 48.7135 72.7399 50.1819 75.141C55.2915 83.4959 51.68 93.7985 46.1428 101.956C43.5454 105.783 40.5326 109.434 38.5283 113.507C36.524 117.581 35.5967 122.249 37.3503 126.404C39.0885 130.523 43.2306 133.617 47.7176 135.793C56.8307 140.212 67.5695 141.477 78.0413 142.193C101.222 143.779 124.526 143.093 147.768 142.405C156.37 142.151 165.009 141.893 173.47 140.563C178.169 139.824 183.021 138.652 186.432 135.822C190.763 132.229 191.836 126.146 188.934 121.641C184.067 114.085 170.608 112.208 167.206 104.099C165.334 99.6352 167.257 94.6633 169.978 90.5236C175.816 81.6431 185.602 73.8522 186.117 63.7016C186.471 56.73 181.767 49.7481 174.494 46.4496C166.869 42.9921 156.297 43.427 150.673 49.1504C144.881 55.0438 134.703 57.3114 125.978 57.0085Z" fill="#008FFF"/>
<path d="M109.06 166.011C112.77 166.011 115.778 162.818 115.778 158.879C115.778 154.94 112.77 151.747 109.06 151.747C105.349 151.747 102.341 154.94 102.341 158.879C102.341 162.818 105.349 166.011 109.06 166.011Z" fill="#FBD56F"/>
<path opacity="0.1" d="M109.06 166.011C112.77 166.011 115.778 162.818 115.778 158.879C115.778 154.94 112.77 151.747 109.06 151.747C105.349 151.747 102.341 154.94 102.341 158.879C102.341 162.818 105.349 166.011 109.06 166.011Z" fill="black"/>
<path d="M110.219 166.011C113.93 166.011 116.938 162.889 116.938 159.038C116.938 155.187 113.93 152.065 110.219 152.065C106.509 152.065 103.5 155.187 103.5 159.038C103.5 162.889 106.509 166.011 110.219 166.011Z" fill="#FBD56F"/>
<path d="M112.94 165.357L112.241 164.968C112.241 164.968 111.915 166.332 112.021 167.304C112.032 167.402 112.073 167.495 112.138 167.57C112.203 167.645 112.289 167.698 112.385 167.722C113.993 168.121 121.656 169.822 126.925 167.426C127.001 167.392 127.067 167.337 127.116 167.269C127.165 167.201 127.196 167.121 127.205 167.038C127.269 166.44 127.041 165.208 126.949 164.968C126.753 164.451 112.94 165.357 112.94 165.357Z" fill="#FBD56F"/>
<path opacity="0.1" d="M112.94 165.357L112.241 164.968C112.241 164.968 111.915 166.332 112.021 167.304C112.032 167.402 112.073 167.495 112.138 167.57C112.203 167.645 112.289 167.698 112.385 167.722C113.993 168.121 121.656 169.822 126.925 167.426C127.001 167.392 127.067 167.337 127.116 167.269C127.165 167.201 127.196 167.121 127.205 167.038C127.269 166.44 127.041 165.208 126.949 164.968C126.753 164.451 112.94 165.357 112.94 165.357Z" fill="black"/>
<path d="M119.595 166.625C123.657 166.625 126.949 165.883 126.949 164.968C126.949 164.052 123.657 163.31 119.595 163.31C115.534 163.31 112.241 164.052 112.241 164.968C112.241 165.883 115.534 166.625 119.595 166.625Z" fill="#FBD56F"/>
<path d="M115.75 162.911L115.051 162.522C115.051 162.522 114.724 163.886 114.831 164.858C114.842 164.957 114.882 165.05 114.947 165.124C115.012 165.199 115.099 165.252 115.195 165.276C116.803 165.676 124.465 167.377 129.734 164.981C129.811 164.946 129.877 164.892 129.926 164.824C129.975 164.755 130.006 164.676 130.014 164.592C130.079 163.995 129.85 162.762 129.759 162.522C129.562 162.005 115.75 162.911 115.75 162.911Z" fill="#FBD56F"/>
<path opacity="0.1" d="M115.75 162.911L115.051 162.522C115.051 162.522 114.724 163.886 114.831 164.858C114.842 164.957 114.882 165.05 114.947 165.124C115.012 165.199 115.099 165.252 115.195 165.276C116.803 165.676 124.465 167.377 129.734 164.981C129.811 164.946 129.877 164.892 129.926 164.824C129.975 164.755 130.006 164.676 130.014 164.592C130.079 163.995 129.85 162.762 129.759 162.522C129.562 162.005 115.75 162.911 115.75 162.911Z" fill="black"/>
<path d="M122.405 164.179C126.466 164.179 129.759 163.437 129.759 162.522C129.759 161.606 126.466 160.864 122.405 160.864C118.343 160.864 115.051 161.606 115.051 162.522C115.051 163.437 118.343 164.179 122.405 164.179Z" fill="#FBD56F"/>
<path d="M118.234 159.696L117.535 159.307C117.535 159.307 117.208 160.671 117.315 161.644C117.325 161.742 117.366 161.835 117.431 161.91C117.496 161.985 117.583 162.038 117.679 162.062C119.287 162.461 126.949 164.162 132.218 161.766C132.295 161.731 132.361 161.677 132.41 161.609C132.459 161.541 132.489 161.461 132.498 161.378C132.563 160.78 132.334 159.548 132.243 159.307C132.046 158.79 118.234 159.696 118.234 159.696Z" fill="#FBD56F"/>
<path opacity="0.1" d="M118.234 159.696L117.535 159.307C117.535 159.307 117.208 160.671 117.315 161.644C117.325 161.742 117.366 161.835 117.431 161.91C117.496 161.985 117.583 162.038 117.679 162.062C119.287 162.461 126.949 164.162 132.218 161.766C132.295 161.731 132.361 161.677 132.41 161.609C132.459 161.541 132.489 161.461 132.498 161.378C132.563 160.78 132.334 159.548 132.243 159.307C132.046 158.79 118.234 159.696 118.234 159.696Z" fill="black"/>
<path d="M124.889 160.965C128.95 160.965 132.243 160.223 132.243 159.307C132.243 158.392 128.95 157.65 124.889 157.65C120.827 157.65 117.535 158.392 117.535 159.307C117.535 160.223 120.827 160.965 124.889 160.965Z" fill="#FBD56F"/>
<path d="M115.483 156.35L114.784 155.961C114.784 155.961 114.457 157.325 114.564 158.297C114.575 158.396 114.615 158.489 114.68 158.564C114.745 158.639 114.832 158.692 114.928 158.716C116.536 159.115 124.198 160.816 129.468 158.42C129.544 158.385 129.61 158.331 129.659 158.263C129.708 158.195 129.739 158.115 129.748 158.032C129.812 157.434 129.583 156.201 129.492 155.961C129.296 155.444 115.483 156.35 115.483 156.35Z" fill="#FBD56F"/>
<path opacity="0.1" d="M115.483 156.35L114.784 155.961C114.784 155.961 114.457 157.325 114.564 158.297C114.575 158.396 114.615 158.489 114.68 158.564C114.745 158.639 114.832 158.692 114.928 158.716C116.536 159.115 124.198 160.816 129.468 158.42C129.544 158.385 129.61 158.331 129.659 158.263C129.708 158.195 129.739 158.115 129.748 158.032C129.812 157.434 129.583 156.201 129.492 155.961C129.296 155.444 115.483 156.35 115.483 156.35Z" fill="black"/>
<path d="M122.138 157.619C126.2 157.619 129.492 156.877 129.492 155.961C129.492 155.046 126.2 154.303 122.138 154.303C118.077 154.303 114.784 155.046 114.784 155.961C114.784 156.877 118.077 157.619 122.138 157.619Z" fill="#FBD56F"/>
<path d="M121.671 153.665L120.972 153.276C120.972 153.276 120.645 154.64 120.752 155.612C120.763 155.711 120.803 155.804 120.868 155.878C120.934 155.953 121.02 156.006 121.116 156.03C122.724 156.43 130.386 158.131 135.656 155.735C135.732 155.7 135.798 155.646 135.847 155.578C135.896 155.509 135.927 155.43 135.936 155.346C136 154.749 135.771 153.516 135.68 153.276C135.484 152.759 121.671 153.665 121.671 153.665Z" fill="#FBD56F"/>
<path opacity="0.1" d="M121.671 153.665L120.972 153.276C120.972 153.276 120.645 154.64 120.752 155.612C120.763 155.711 120.803 155.804 120.868 155.878C120.934 155.953 121.02 156.006 121.116 156.03C122.724 156.43 130.386 158.131 135.656 155.735C135.732 155.7 135.798 155.646 135.847 155.578C135.896 155.509 135.927 155.43 135.936 155.346C136 154.749 135.771 153.516 135.68 153.276C135.484 152.759 121.671 153.665 121.671 153.665Z" fill="black"/>
<path d="M128.326 154.933C132.388 154.933 135.68 154.191 135.68 153.276C135.68 152.36 132.388 151.618 128.326 151.618C124.265 151.618 120.972 152.36 120.972 153.276C120.972 154.191 124.265 154.933 128.326 154.933Z" fill="#FBD56F"/>
<path d="M117.49 151.86L116.791 151.471C116.791 151.471 116.465 152.835 116.571 153.807C116.582 153.906 116.622 153.999 116.688 154.073C116.753 154.148 116.839 154.201 116.935 154.225C118.543 154.625 126.206 156.326 131.475 153.93C131.551 153.895 131.617 153.841 131.666 153.773C131.715 153.704 131.746 153.625 131.755 153.541C131.819 152.944 131.591 151.711 131.499 151.471C131.303 150.954 117.49 151.86 117.49 151.86Z" fill="#FBD56F"/>
<path opacity="0.1" d="M117.49 151.86L116.791 151.471C116.791 151.471 116.465 152.835 116.571 153.807C116.582 153.906 116.622 153.999 116.688 154.073C116.753 154.148 116.839 154.201 116.935 154.225C118.543 154.625 126.206 156.326 131.475 153.93C131.551 153.895 131.617 153.841 131.666 153.773C131.715 153.704 131.746 153.625 131.755 153.541C131.819 152.944 131.591 151.711 131.499 151.471C131.303 150.954 117.49 151.86 117.49 151.86Z" fill="black"/>
<path d="M124.145 153.129C128.207 153.129 131.499 152.386 131.499 151.471C131.499 150.555 128.207 149.813 124.145 149.813C120.084 149.813 116.791 150.555 116.791 151.471C116.791 152.386 120.084 153.129 124.145 153.129Z" fill="#FBD56F"/>
<path d="M120.282 148.376L119.583 147.986C119.583 147.986 119.256 149.35 119.363 150.323C119.373 150.421 119.414 150.514 119.479 150.589C119.544 150.664 119.63 150.717 119.727 150.741C121.334 151.14 128.997 152.841 134.266 150.445C134.342 150.41 134.408 150.356 134.457 150.288C134.507 150.22 134.537 150.14 134.546 150.057C134.611 149.459 134.382 148.227 134.29 147.986C134.094 147.469 120.282 148.376 120.282 148.376Z" fill="#FBD56F"/>
<path opacity="0.1" d="M120.282 148.376L119.583 147.986C119.583 147.986 119.256 149.35 119.363 150.323C119.373 150.421 119.414 150.514 119.479 150.589C119.544 150.664 119.63 150.717 119.727 150.741C121.334 151.14 128.997 152.841 134.266 150.445C134.342 150.41 134.408 150.356 134.457 150.288C134.507 150.22 134.537 150.14 134.546 150.057C134.611 149.459 134.382 148.227 134.29 147.986C134.094 147.469 120.282 148.376 120.282 148.376Z" fill="black"/>
<path d="M126.937 149.644C130.998 149.644 134.291 148.902 134.291 147.986C134.291 147.071 130.998 146.329 126.937 146.329C122.875 146.329 119.583 147.071 119.583 147.986C119.583 148.902 122.875 149.644 126.937 149.644Z" fill="#FBD56F"/>
<path d="M121.658 144.24L120.96 143.85C120.96 143.85 120.633 145.215 120.74 146.187C120.75 146.285 120.791 146.378 120.856 146.453C120.921 146.528 121.007 146.581 121.104 146.605C122.711 147.004 130.374 148.705 135.643 146.309C135.719 146.274 135.785 146.22 135.834 146.152C135.884 146.084 135.914 146.004 135.923 145.921C135.988 145.323 135.759 144.091 135.667 143.85C135.471 143.334 121.658 144.24 121.658 144.24Z" fill="#FBD56F"/>
<path opacity="0.1" d="M121.658 144.24L120.96 143.85C120.96 143.85 120.633 145.215 120.74 146.187C120.75 146.285 120.791 146.378 120.856 146.453C120.921 146.528 121.007 146.581 121.104 146.605C122.711 147.004 130.374 148.705 135.643 146.309C135.719 146.274 135.785 146.22 135.834 146.152C135.884 146.084 135.914 146.004 135.923 145.921C135.988 145.323 135.759 144.091 135.667 143.85C135.471 143.334 121.658 144.24 121.658 144.24Z" fill="black"/>
<path d="M128.314 145.508C132.375 145.508 135.667 144.766 135.667 143.85C135.667 142.935 132.375 142.193 128.314 142.193C124.252 142.193 120.96 142.935 120.96 143.85C120.96 144.766 124.252 145.508 128.314 145.508Z" fill="#FBD56F"/>
<path d="M134.073 166.316L133.374 165.927C133.374 165.927 133.047 167.291 133.154 168.263C133.164 168.362 133.205 168.455 133.27 168.529C133.335 168.604 133.421 168.657 133.518 168.681C135.125 169.081 142.788 170.782 148.057 168.386C148.133 168.351 148.199 168.297 148.248 168.229C148.298 168.16 148.328 168.081 148.337 167.997C148.402 167.4 148.173 166.167 148.082 165.927C147.885 165.41 134.073 166.316 134.073 166.316Z" fill="#FBD56F"/>
<path opacity="0.1" d="M134.073 166.316L133.374 165.927C133.374 165.927 133.047 167.291 133.154 168.263C133.164 168.362 133.205 168.455 133.27 168.529C133.335 168.604 133.421 168.657 133.518 168.681C135.125 169.081 142.788 170.782 148.057 168.386C148.133 168.351 148.199 168.297 148.248 168.229C148.298 168.16 148.328 168.081 148.337 167.997C148.402 167.4 148.173 166.167 148.082 165.927C147.885 165.41 134.073 166.316 134.073 166.316Z" fill="black"/>
<path d="M140.728 167.584C144.789 167.584 148.081 166.842 148.081 165.927C148.081 165.011 144.789 164.269 140.728 164.269C136.666 164.269 133.374 165.011 133.374 165.927C133.374 166.842 136.666 167.584 140.728 167.584Z" fill="#FBD56F"/>
<path d="M136.556 163.101L135.857 162.712C135.857 162.712 135.531 164.076 135.637 165.049C135.648 165.147 135.689 165.24 135.754 165.315C135.819 165.39 135.905 165.443 136.001 165.467C137.609 165.866 145.272 167.567 150.541 165.171C150.617 165.136 150.683 165.082 150.732 165.014C150.781 164.946 150.812 164.866 150.821 164.783C150.885 164.185 150.657 162.953 150.565 162.712C150.369 162.195 136.556 163.101 136.556 163.101Z" fill="#FBD56F"/>
<path opacity="0.1" d="M136.556 163.101L135.857 162.712C135.857 162.712 135.531 164.076 135.637 165.049C135.648 165.147 135.689 165.24 135.754 165.315C135.819 165.39 135.905 165.443 136.001 165.467C137.609 165.866 145.272 167.567 150.541 165.171C150.617 165.136 150.683 165.082 150.732 165.014C150.781 164.946 150.812 164.866 150.821 164.783C150.885 164.185 150.657 162.953 150.565 162.712C150.369 162.195 136.556 163.101 136.556 163.101Z" fill="black"/>
<path d="M143.211 164.37C147.273 164.37 150.565 163.628 150.565 162.712C150.565 161.797 147.273 161.055 143.211 161.055C139.15 161.055 135.858 161.797 135.858 162.712C135.858 163.628 139.15 164.37 143.211 164.37Z" fill="#FBD56F"/>
<path d="M133.806 159.755L133.107 159.366C133.107 159.366 132.78 160.73 132.887 161.702C132.897 161.801 132.938 161.894 133.003 161.969C133.068 162.043 133.155 162.097 133.251 162.121C134.858 162.52 142.521 164.221 147.79 161.825C147.867 161.79 147.933 161.736 147.982 161.668C148.031 161.6 148.061 161.52 148.07 161.436C148.135 160.839 147.906 159.606 147.815 159.366C147.618 158.849 133.806 159.755 133.806 159.755Z" fill="#FBD56F"/>
<path opacity="0.1" d="M133.806 159.755L133.107 159.366C133.107 159.366 132.78 160.73 132.887 161.702C132.897 161.801 132.938 161.894 133.003 161.969C133.068 162.043 133.155 162.097 133.251 162.121C134.858 162.52 142.521 164.221 147.79 161.825C147.867 161.79 147.933 161.736 147.982 161.668C148.031 161.6 148.061 161.52 148.07 161.436C148.135 160.839 147.906 159.606 147.815 159.366C147.618 158.849 133.806 159.755 133.806 159.755Z" fill="black"/>
<path d="M140.461 161.024C144.522 161.024 147.815 160.282 147.815 159.366C147.815 158.451 144.522 157.708 140.461 157.708C136.399 157.708 133.107 158.451 133.107 159.366C133.107 160.282 136.399 161.024 140.461 161.024Z" fill="#FBD56F"/>
<path d="M139.994 157.07L139.295 156.681C139.295 156.681 138.968 158.045 139.075 159.017C139.085 159.116 139.126 159.209 139.191 159.283C139.256 159.358 139.343 159.411 139.439 159.435C141.046 159.834 148.709 161.535 153.978 159.14C154.055 159.105 154.121 159.051 154.17 158.982C154.219 158.914 154.249 158.835 154.258 158.751C154.323 158.154 154.094 156.921 154.003 156.681C153.806 156.164 139.994 157.07 139.994 157.07Z" fill="#FBD56F"/>
<path opacity="0.1" d="M139.994 157.07L139.295 156.681C139.295 156.681 138.968 158.045 139.075 159.017C139.085 159.116 139.126 159.209 139.191 159.283C139.256 159.358 139.343 159.411 139.439 159.435C141.046 159.834 148.709 161.535 153.978 159.14C154.055 159.105 154.121 159.051 154.17 158.982C154.219 158.914 154.249 158.835 154.258 158.751C154.323 158.154 154.094 156.921 154.003 156.681C153.806 156.164 139.994 157.07 139.994 157.07Z" fill="black"/>
<path d="M146.649 158.338C150.71 158.338 154.003 157.596 154.003 156.681C154.003 155.765 150.71 155.023 146.649 155.023C142.587 155.023 139.295 155.765 139.295 156.681C139.295 157.596 142.587 158.338 146.649 158.338Z" fill="#FBD56F"/>
<path d="M135.813 155.265L135.114 154.876C135.114 154.876 134.787 156.24 134.894 157.212C134.904 157.311 134.945 157.404 135.01 157.478C135.075 157.553 135.162 157.606 135.258 157.63C136.866 158.03 144.528 159.731 149.797 157.335C149.874 157.3 149.94 157.246 149.989 157.178C150.038 157.109 150.068 157.03 150.077 156.946C150.142 156.349 149.913 155.116 149.822 154.876C149.625 154.359 135.813 155.265 135.813 155.265Z" fill="#FBD56F"/>
<path opacity="0.1" d="M135.813 155.265L135.114 154.876C135.114 154.876 134.787 156.24 134.894 157.212C134.904 157.311 134.945 157.404 135.01 157.478C135.075 157.553 135.162 157.606 135.258 157.63C136.866 158.03 144.528 159.731 149.797 157.335C149.874 157.3 149.94 157.246 149.989 157.178C150.038 157.109 150.068 157.03 150.077 156.946C150.142 156.349 149.913 155.116 149.822 154.876C149.625 154.359 135.813 155.265 135.813 155.265Z" fill="black"/>
<path d="M142.468 156.533C146.529 156.533 149.822 155.791 149.822 154.876C149.822 153.96 146.529 153.218 142.468 153.218C138.406 153.218 135.114 153.96 135.114 154.876C135.114 155.791 138.406 156.533 142.468 156.533Z" fill="#FBD56F"/>
<path d="M138.604 151.781L137.905 151.391C137.905 151.391 137.578 152.755 137.685 153.728C137.696 153.826 137.736 153.919 137.801 153.994C137.867 154.069 137.953 154.122 138.049 154.146C139.657 154.545 147.319 156.246 152.589 153.85C152.665 153.815 152.731 153.761 152.78 153.693C152.829 153.625 152.86 153.545 152.869 153.462C152.933 152.864 152.704 151.632 152.613 151.391C152.417 150.874 138.604 151.781 138.604 151.781Z" fill="#FBD56F"/>
<path opacity="0.1" d="M138.604 151.781L137.905 151.391C137.905 151.391 137.578 152.755 137.685 153.728C137.696 153.826 137.736 153.919 137.801 153.994C137.867 154.069 137.953 154.122 138.049 154.146C139.657 154.545 147.319 156.246 152.589 153.85C152.665 153.815 152.731 153.761 152.78 153.693C152.829 153.625 152.86 153.545 152.869 153.462C152.933 152.864 152.704 151.632 152.613 151.391C152.417 150.874 138.604 151.781 138.604 151.781Z" fill="black"/>
<path d="M145.259 153.049C149.321 153.049 152.613 152.307 152.613 151.391C152.613 150.476 149.321 149.734 145.259 149.734C141.198 149.734 137.905 150.476 137.905 151.391C137.905 152.307 141.198 153.049 145.259 153.049Z" fill="#FBD56F"/>
<path d="M139.981 147.645L139.282 147.255C139.282 147.255 138.955 148.62 139.062 149.592C139.073 149.69 139.113 149.783 139.178 149.858C139.243 149.933 139.33 149.986 139.426 150.01C141.034 150.409 148.696 152.11 153.965 149.714C154.042 149.679 154.108 149.625 154.157 149.557C154.206 149.489 154.237 149.409 154.245 149.326C154.31 148.728 154.081 147.496 153.99 147.255C153.793 146.739 139.981 147.645 139.981 147.645Z" fill="#FBD56F"/>
<path opacity="0.1" d="M139.981 147.645L139.282 147.255C139.282 147.255 138.955 148.62 139.062 149.592C139.073 149.69 139.113 149.783 139.178 149.858C139.243 149.933 139.33 149.986 139.426 150.01C141.034 150.409 148.696 152.11 153.965 149.714C154.042 149.679 154.108 149.625 154.157 149.557C154.206 149.489 154.237 149.409 154.245 149.326C154.31 148.728 154.081 147.496 153.99 147.255C153.793 146.739 139.981 147.645 139.981 147.645Z" fill="black"/>
<path d="M146.636 148.913C150.698 148.913 153.99 148.171 153.99 147.255C153.99 146.34 150.698 145.598 146.636 145.598C142.575 145.598 139.282 146.34 139.282 147.255C139.282 148.171 142.575 148.913 146.636 148.913Z" fill="#FBD56F"/>
<path d="M184.306 176.072C183.282 176.036 183.246 175.639 181.93 174.954C181.187 174.567 180.059 173.444 179.218 172.54C179.15 172.467 179.085 172.397 179.022 172.328C179.244 172.323 179.371 172.32 179.371 172.32C179.371 172.32 179.042 169.434 179.334 168.749C179.626 168.064 179.407 163.987 179.407 163.987C179.407 163.987 179.59 160.885 179.261 160.163C178.932 159.442 179.371 154.824 179.371 154.824C179.371 154.824 179.663 152.082 179.736 146.491C179.809 140.899 176.519 140.718 176.519 140.718C176.519 140.718 176.08 140.685 175.414 140.621C175.35 140.615 175.283 140.608 175.215 140.602C175.646 139.699 175.897 139.023 175.897 139.023C175.897 139.023 175.349 133.792 175.203 132.89C175.057 131.988 174.179 128.272 174.179 128.272C174.179 128.272 173.558 126.685 173.192 125.567C172.827 124.449 171.73 123.15 171.73 123.15C171.73 123.15 169.756 119.254 169.207 118.676C168.953 118.409 168.596 118.071 168.287 117.786C168.231 117.735 168.178 117.686 168.126 117.639C168.209 117.232 168.252 116.819 168.257 116.404C168.257 116.404 166.209 114.383 166.063 113.878C165.917 113.373 163.979 111.497 163.979 111.497C163.979 111.497 162.883 109.477 161.64 109.441C161.052 109.408 160.463 109.426 159.879 109.495C160.134 108.55 160.436 107.56 160.707 106.71C160.738 106.616 160.767 106.523 160.796 106.432C161.79 105.761 162.569 104.818 163.042 103.716C163.068 103.657 163.092 103.598 163.115 103.539C163.128 103.539 163.141 103.541 163.155 103.541C163.206 103.541 163.258 103.536 163.308 103.527C163.718 103.457 164.064 102.995 163.875 102.63C163.887 102.651 163.905 102.668 163.926 102.679C163.947 102.691 163.971 102.697 163.994 102.696C164.131 102.691 164.297 102.494 164.329 102.32C164.335 102.29 164.338 102.26 164.342 102.23C164.348 102.192 164.354 102.154 164.359 102.116C164.363 102.081 164.366 102.045 164.369 102.01C164.372 101.973 164.375 101.936 164.377 101.899C164.378 101.865 164.379 101.83 164.38 101.795C164.381 101.756 164.381 101.716 164.38 101.676C164.379 101.644 164.379 101.613 164.377 101.581C164.375 101.533 164.371 101.484 164.367 101.436C164.365 101.416 164.364 101.396 164.362 101.377L164.362 101.38C164.34 101.182 164.301 100.988 164.244 100.798C164.042 100.127 163.618 99.4622 163.781 98.7814C163.783 98.7741 163.787 98.7674 163.788 98.7601L163.789 98.7615C163.925 98.2332 164.382 97.8494 164.662 97.3774C164.688 97.3323 164.712 97.2859 164.735 97.2393C164.739 97.2308 164.744 97.2226 164.748 97.214C164.765 97.179 164.779 97.1429 164.794 97.1071C164.804 97.084 164.814 97.0613 164.823 97.038C164.835 97.0065 164.844 96.9745 164.855 96.9426C164.864 96.9135 164.874 96.8846 164.882 96.8552C164.89 96.8269 164.896 96.7983 164.903 96.7697C164.911 96.7353 164.919 96.7009 164.926 96.6662C164.931 96.6412 164.934 96.6162 164.938 96.5911C164.944 96.5517 164.95 96.5122 164.954 96.4725C164.957 96.451 164.958 96.4295 164.96 96.4079C164.963 96.3636 164.966 96.3193 164.967 96.2748C164.967 96.257 164.968 96.2392 164.968 96.2214C164.968 96.1727 164.967 96.1241 164.964 96.0755C164.963 96.0609 164.962 96.0464 164.961 96.0318C164.958 95.9799 164.952 95.9283 164.945 95.8767C164.944 95.8693 164.944 95.8618 164.943 95.8543L164.943 95.8564C164.881 95.403 164.7 94.9741 164.419 94.613C164.099 94.2319 163.694 93.9307 163.238 93.7331C162.781 93.5356 162.284 93.4471 161.788 93.4748C161.513 93.5058 161.236 93.5109 160.96 93.49C160.501 93.4227 160.113 93.1312 159.747 92.8494C158.727 92.0632 157.706 91.2769 156.685 90.4907C156.344 90.1938 155.951 89.9608 155.528 89.8025C155.095 89.6701 154.576 89.7158 154.256 90.0319C153.682 90.5978 154.047 91.5714 153.817 92.3386C153.617 93.0031 152.975 93.4535 152.311 93.6779C151.647 93.9024 150.936 93.9516 150.253 94.1141C150.05 94.147 149.859 94.2345 149.702 94.3672C149.525 94.5818 149.44 94.8571 149.463 95.1342C149.459 95.8136 149.622 96.4836 149.938 97.085C150.067 97.33 150.224 97.5775 150.361 97.8286C150.372 97.8493 150.383 97.8701 150.394 97.8909C150.41 97.9197 150.425 97.9485 150.44 97.9774C150.464 98.0243 150.486 98.0713 150.508 98.1185C150.517 98.1388 150.525 98.1593 150.534 98.1797C150.549 98.2131 150.562 98.2466 150.575 98.2801C150.583 98.3015 150.591 98.3229 150.599 98.3443C150.613 98.3837 150.625 98.4233 150.636 98.463C150.709 98.6963 150.716 98.9454 150.656 99.1824C150.551 99.5701 150.248 99.8689 149.981 100.172C149.763 100.408 149.608 100.696 149.53 101.008L149.529 101.015C149.514 101.088 149.511 101.162 149.52 101.236C149.522 101.245 149.523 101.254 149.525 101.263C149.528 101.279 149.533 101.295 149.538 101.311C149.542 101.322 149.547 101.334 149.552 101.345C149.558 101.357 149.564 101.37 149.571 101.382C149.585 101.402 149.6 101.421 149.618 101.437C149.626 101.444 149.635 101.45 149.644 101.456C149.658 101.467 149.674 101.476 149.69 101.485C149.701 101.49 149.711 101.494 149.722 101.498C149.746 101.507 149.771 101.514 149.797 101.519C149.804 101.52 149.81 101.522 149.817 101.524C149.856 101.529 149.896 101.53 149.935 101.529C149.946 101.528 149.959 101.527 149.971 101.526C150.008 101.523 150.046 101.518 150.083 101.512C150.096 101.509 150.11 101.507 150.124 101.504C150.178 101.493 150.234 101.479 150.297 101.46C150.502 101.398 150.702 101.319 150.894 101.224C150.894 101.246 150.892 101.268 150.892 101.29C150.892 101.327 150.892 101.367 150.896 101.405C150.906 102.113 151.04 102.813 151.291 103.474C151.683 104.505 152.34 105.414 153.197 106.108C153.187 106.171 153.175 106.233 153.162 106.296C152.986 107.161 152.618 108.029 152.39 107.962C152.168 107.912 151.94 107.888 151.712 107.888C151.643 107.886 151.577 107.885 151.513 107.884L151.513 107.884C151.306 107.86 151.098 107.86 150.891 107.884C150.799 107.89 150.706 107.878 150.619 107.847C150.029 107.661 149.401 107.625 148.793 107.744C147.529 108.003 145.606 108.477 145.078 109.044C144.274 109.91 143.104 110.74 141.788 114.347C141.788 114.347 141.13 116.548 140.618 116.837C140.731 116.778 140.847 116.726 140.966 116.681C140.898 116.8 140.804 116.902 140.691 116.981C140.877 116.886 141.069 116.806 141.267 116.741C140.868 119.091 141.459 125.814 141.459 125.814C141.459 125.814 140.984 126.974 141.605 127.659C141.975 128.067 142.175 128.702 142.278 129.151C142.249 129.196 142.219 129.243 142.188 129.291V129.292C141.859 129.802 141.419 130.467 141.13 130.834C140.618 131.483 140.765 133.54 140.765 133.54C140.765 133.54 140.655 134.514 140.289 134.874C139.924 135.235 139.997 136.57 139.997 136.57L139.046 140.069C139.046 140.069 138.169 140.863 138.169 141.224C138.169 141.584 137.474 142.594 137.474 142.594C137.474 142.594 136.414 144.326 137.474 144.074C137.861 143.96 138.223 143.778 138.545 143.535L138.544 143.561C138.543 143.625 138.541 143.689 138.54 143.755C138.51 145.641 138.716 148.294 140.106 148.294C142.263 148.294 147.82 150.856 147.82 150.856C148.954 151.721 150.489 151.433 150.489 151.433C150.489 151.433 147.784 154.139 147.857 155.257C147.93 156.375 146.321 158.215 146.321 158.215L141.349 167.919C141.377 168.595 141.497 169.265 141.706 169.908C141.682 169.929 141.658 169.949 141.635 169.97C139.724 171.715 139.558 175.17 139.558 175.17L139.119 176.938L145.773 179.86C145.773 179.86 154.401 180.041 155.9 179.644C157.399 179.247 157.07 177.587 155.096 177.263C153.121 176.938 152.646 176.072 151.988 175.675C151.544 175.408 149.968 173.678 148.99 172.581C148.975 172.564 148.961 172.549 148.946 172.532L149.173 171.274C149.612 171.058 150.27 168.893 150.27 168.893C150.27 168.893 150.27 168.027 150.709 167.775C151.147 167.522 152.061 164.925 152.061 164.925C152.061 164.925 154.035 161.642 153.926 161.209C153.816 160.776 155.352 158.576 155.352 158.576C155.352 158.576 157.947 156.05 157.837 155.6C157.728 155.149 159.921 152.84 159.921 152.84C160.714 152.235 161.374 151.474 161.863 150.605C162.06 150.573 162.272 150.539 162.496 150.501C165.366 150.031 170.137 149.18 170.67 148.944C171.401 148.619 171.255 150.062 170.962 151.289C170.67 152.515 170.45 158.395 170.779 159.153C171.108 159.911 170.962 161.137 170.962 161.137L170.523 167.739L170.816 169.146C170.816 169.146 169.829 169.939 170.231 170.408C170.633 170.877 170.267 172.898 170.267 172.898C170.302 172.885 170.343 172.872 170.389 172.86C170.354 172.939 170.32 173.021 170.29 173.106C169.723 174.722 170.048 177.371 170.048 177.371V179.463C170.048 179.463 180.175 179.644 182.405 179.644C184.635 179.644 187.706 178.561 187.889 177.696C188.072 176.83 185.33 176.108 184.306 176.072ZM155.503 138.516L154.84 138.572C155.06 138.54 155.281 138.521 155.503 138.516ZM159.548 110.826C159.641 110.409 159.753 109.96 159.878 109.499L159.548 110.826ZM160.799 139.528C160.166 139.778 159.462 139.779 158.829 139.53L158.825 139.528C158.825 139.528 158.861 137.003 159.154 135.957C159.446 134.91 159.848 132.998 159.848 132.998C159.848 132.998 160.177 130.365 160.506 129.174C160.835 127.984 162.115 121.346 162.773 120.913C163.431 120.48 163.797 121.238 163.797 121.238C163.797 121.238 163.895 121.236 164.06 121.218C164.091 121.287 164.125 121.36 164.164 121.438C164.945 123.015 167.233 126.252 167.233 126.252C167.912 126.671 168.487 127.238 168.915 127.912C169.536 128.958 169.719 131.411 169.719 131.411C169.719 131.411 171.108 136.858 171.766 137.616C172.095 137.995 171.949 138.221 171.721 138.351C171.255 138.606 170.859 138.972 170.567 139.417C170.474 139.565 170.374 139.729 170.274 139.903C170.022 139.844 169.797 139.784 169.609 139.721C167.818 139.119 161.786 139.095 160.799 139.528Z" fill="url(#paint0_linear)"/>
<path d="M169.808 177.392V179.467C169.808 179.467 179.718 179.646 181.9 179.646C184.082 179.646 187.087 178.573 187.266 177.714C187.445 176.855 184.762 176.14 183.76 176.104C182.758 176.068 182.723 175.675 181.435 174.995C180.708 174.612 179.604 173.498 178.781 172.601C178.146 171.909 177.678 171.346 177.678 171.346C177.678 171.346 172.348 171.239 170.81 172.098C170.456 172.296 170.211 172.684 170.045 173.163C169.491 174.765 169.808 177.392 169.808 177.392Z" fill="#434175"/>
<path opacity="0.1" d="M170.045 173.163C171.163 172.775 177.706 172.624 178.781 172.601C178.146 171.909 177.678 171.346 177.678 171.346C177.678 171.346 172.348 171.239 170.81 172.098C170.456 172.296 170.211 172.684 170.045 173.163Z" fill="black"/>
<path d="M141.297 140.08C141.297 140.08 141.504 140.206 141.875 140.43C141.942 140.47 142.015 140.514 142.092 140.561C142.327 140.703 142.61 140.873 142.933 141.067C147.429 143.777 159.693 151.122 160.364 151.063C160.54 151.048 161.069 150.968 161.799 150.85C161.992 150.818 162.199 150.785 162.418 150.747C165.227 150.281 169.895 149.437 170.417 149.203C171.132 148.881 170.989 150.312 170.703 151.528C170.417 152.744 170.202 158.575 170.524 159.327C170.846 160.078 170.703 161.294 170.703 161.294L170.273 167.841L170.56 169.236C170.56 169.236 169.594 170.023 169.987 170.488C170.381 170.953 170.023 172.956 170.023 172.956C171.168 172.527 178.931 172.384 178.931 172.384C178.931 172.384 178.609 169.522 178.895 168.842C179.181 168.163 178.966 164.12 178.966 164.12C178.966 164.12 179.145 161.044 178.823 160.328C178.501 159.613 178.931 155.034 178.931 155.034C178.931 155.034 179.217 152.315 179.288 146.77C179.36 141.225 176.14 141.046 176.14 141.046C176.14 141.046 175.711 141.013 175.059 140.95C173.784 140.827 171.659 140.593 170.24 140.285C169.949 140.225 169.662 140.149 169.379 140.057C167.626 139.46 161.724 139.437 160.758 139.866C160.139 140.114 159.449 140.115 158.83 139.868L158.826 139.866L158.075 138.65L150.899 139.261L150.139 139.326L143.075 139.929L142.589 139.97L141.297 140.08Z" fill="#565387"/>
<path opacity="0.1" d="M170.059 145.568C172.143 146.584 174.132 142.982 175.059 140.95C173.784 140.827 171.659 140.594 170.24 140.285C169.306 141.852 168.06 144.594 170.059 145.568Z" fill="black"/>
<path d="M163.798 121.228C163.842 121.474 163.927 121.711 164.051 121.928C164.814 123.491 167.054 126.701 167.054 126.701C167.72 127.118 168.283 127.681 168.699 128.347C169.307 129.384 169.486 131.817 169.486 131.817C169.486 131.817 170.846 137.219 171.49 137.97C171.812 138.346 171.668 138.569 171.445 138.699C170.988 138.953 170.6 139.316 170.316 139.756C169.378 141.264 167.881 144.255 169.987 145.282C172.849 146.677 175.532 139.365 175.532 139.365C175.532 139.365 174.995 134.178 174.852 133.284C174.709 132.389 173.851 128.705 173.851 128.705C173.851 128.705 173.242 127.131 172.885 126.022C172.527 124.913 171.454 123.625 171.454 123.625C171.454 123.625 169.522 119.761 168.985 119.189C168.737 118.923 168.387 118.589 168.085 118.306C167.735 117.979 167.447 117.722 167.447 117.722C167.447 117.722 163.763 120.369 163.798 121.228Z" fill="#EE8E9E"/>
<path d="M139.544 176.963L146.055 179.861C146.055 179.861 154.497 180.039 155.964 179.646C157.431 179.252 157.109 177.607 155.177 177.285C153.245 176.963 152.78 176.104 152.136 175.711C151.702 175.445 150.159 173.73 149.202 172.642C148.741 172.118 148.416 171.74 148.416 171.74C148.416 171.74 147.164 168.413 143.694 169.164C143.061 169.301 142.477 169.608 142.005 170.053C140.136 171.784 139.973 175.21 139.973 175.21L139.544 176.963Z" fill="#434175"/>
<path opacity="0.1" d="M142.092 140.561C142.327 140.703 142.61 140.873 142.932 141.067C147.428 143.777 159.693 151.122 160.364 151.063C160.54 151.048 161.069 150.969 161.799 150.85C161.992 150.818 162.199 150.785 162.418 150.747C162.427 150.734 162.435 150.72 162.443 150.707C162.803 150.077 163.078 149.403 163.262 148.702C164.013 145.84 160.293 143.658 160.293 143.658L159.506 143.046C158.611 141.54 152.172 140.116 152.172 140.116L151.342 139.559L150.899 139.261L150.783 139.183L149.775 138.506L144.731 138.864L143.233 139.827L143.075 139.929L142.519 140.287L142.092 140.561Z" fill="black"/>
<path opacity="0.1" d="M142.005 170.053C143.375 174.789 149.096 173.242 149.096 173.242L149.202 172.642C148.741 172.118 148.416 171.74 148.416 171.74C148.416 171.74 147.164 168.413 143.694 169.164C143.06 169.301 142.477 169.608 142.005 170.053Z" fill="black"/>
<path d="M140.51 148.559C142.621 148.559 148.058 151.099 148.058 151.099C149.167 151.957 150.67 151.671 150.67 151.671C150.67 151.671 148.022 154.354 148.094 155.463C148.165 156.572 146.591 158.396 146.591 158.396L141.726 168.02C142.084 174.852 149.096 172.956 149.096 172.956L149.382 171.346C149.811 171.132 150.455 168.985 150.455 168.985C150.455 168.985 150.455 168.127 150.884 167.876C151.314 167.626 152.208 165.05 152.208 165.05C152.208 165.05 154.14 161.795 154.032 161.366C153.925 160.936 155.427 158.754 155.427 158.754C155.427 158.754 157.967 156.25 157.86 155.803C157.753 155.356 159.899 153.066 159.899 153.066C160.677 152.464 161.323 151.71 161.799 150.85C162.159 150.221 162.434 149.546 162.618 148.845C163.223 146.54 160.928 144.676 160.011 144.038C159.79 143.884 159.649 143.801 159.649 143.801L158.862 143.189C158.455 142.504 156.901 141.836 155.328 141.312C154.193 140.933 153.048 140.629 152.316 140.447C151.832 140.327 151.528 140.259 151.528 140.259L150.698 139.702L150.406 139.506L150.139 139.326L149.131 138.65L146.887 138.808L144.087 139.007L142.589 139.97L141.875 140.43L139.079 142.227C139.079 142.227 139.005 142.915 138.982 143.839C138.98 143.91 138.979 143.983 138.977 144.057C138.948 145.927 139.149 148.559 140.51 148.559Z" fill="#565387"/>
<path d="M151.278 108.493L152.029 111.176C152.029 111.176 153.353 115.79 153.496 116.112C153.639 116.434 157.109 119.69 157.252 119.761C157.395 119.833 159.284 120.906 159.284 120.906C159.284 120.906 159.434 115.003 159.291 113.286C159.279 112.909 159.31 112.532 159.384 112.162C159.612 110.816 160.19 108.843 160.668 107.323C161.069 106.049 161.402 105.094 161.402 105.094C161.402 105.094 153.031 104.736 153.317 105.559C153.425 105.87 153.39 106.391 153.285 106.912C153.113 107.77 152.752 108.631 152.53 108.564C152.312 108.515 152.09 108.49 151.867 108.49C151.557 108.481 151.278 108.493 151.278 108.493Z" fill="#EE8E9E"/>
<path opacity="0.1" d="M153.285 106.912C154.308 107.766 155.579 108.267 156.909 108.341C158.239 108.415 159.557 108.058 160.668 107.323C161.069 106.049 161.402 105.094 161.402 105.094C161.402 105.094 153.031 104.736 153.317 105.559C153.425 105.87 153.39 106.391 153.285 106.912Z" fill="black"/>
<path d="M163.441 101.948C163.442 102.604 163.337 103.256 163.132 103.88C163.08 104.04 163.021 104.199 162.953 104.354C162.471 105.495 161.658 106.465 160.618 107.139C159.579 107.813 158.361 108.16 157.122 108.134C155.884 108.108 154.681 107.711 153.671 106.995C152.66 106.278 151.888 105.274 151.454 104.114C151.208 103.457 151.077 102.763 151.068 102.062C151.064 102.024 151.064 101.985 151.064 101.948C151.064 100.306 151.716 98.732 152.877 97.5714C154.037 96.4108 155.611 95.7588 157.253 95.7588C158.894 95.7588 160.468 96.4108 161.629 97.5714C162.789 98.732 163.441 100.306 163.441 101.948H163.441Z" fill="#EE8E9E"/>
<path opacity="0.1" d="M151.278 108.493L152.029 111.176C152.029 111.176 153.353 115.79 153.496 116.112C153.639 116.434 157.109 119.69 157.252 119.761C157.395 119.833 159.284 120.906 159.284 120.906C159.284 120.906 159.434 115.003 159.291 113.286C159.279 112.909 159.31 112.532 159.384 112.162L158.897 114.145L158.933 118.116L159.219 118.33L158.575 119.296V118.581C158.575 118.581 156.286 116.363 155.928 115.433C155.571 114.503 154.283 112.818 154.283 112.818C154.283 112.818 152.816 110.353 152.78 109.924C152.752 109.589 152.136 108.815 151.867 108.49C151.557 108.481 151.278 108.493 151.278 108.493Z" fill="black"/>
<path opacity="0.1" d="M163.798 121.228C163.842 121.474 163.927 121.711 164.051 121.928C164.833 121.848 167.498 121.35 168.085 118.306C167.735 117.979 167.447 117.722 167.447 117.722C167.447 117.722 163.763 120.369 163.798 121.228Z" fill="black"/>
<path opacity="0.1" d="M138.977 144.057C139.699 143.546 140.386 142.849 140.796 142.656C141.404 142.37 142.334 141.44 142.334 141.44C142.334 141.44 142.57 141.28 142.933 141.067C143.596 140.678 144.685 140.114 145.518 140.045C146.265 139.982 148.746 139.824 150.698 139.702C152.111 139.613 153.245 139.544 153.245 139.544C153.245 139.544 155.571 138.721 156.572 139.258C157.29 139.617 158.046 139.893 158.826 140.081C158.826 140.081 158.827 140.003 158.83 139.868L158.826 139.866L158.075 138.65L150.139 139.326L149.131 138.65L144.087 139.007L142.589 139.97L141.297 140.081C141.297 140.081 141.504 140.206 141.875 140.43L139.079 142.227C139.079 142.227 138.993 143.026 138.977 144.057Z" fill="black"/>
<path d="M137.934 144.373C138.313 144.261 138.668 144.08 138.982 143.84V143.839C139.702 143.329 140.387 142.634 140.796 142.442C141.404 142.155 142.334 141.225 142.334 141.225C142.334 141.225 144.23 139.937 145.518 139.83C145.869 139.801 146.604 139.75 147.486 139.693C148.389 139.633 149.445 139.565 150.406 139.506C150.96 139.471 151.482 139.438 151.922 139.411C152.712 139.362 153.245 139.329 153.245 139.329C153.245 139.329 155.57 138.506 156.572 139.043C157.289 139.402 158.046 139.679 158.826 139.866C158.826 139.866 158.862 137.362 159.148 136.324C159.434 135.287 159.827 133.391 159.827 133.391C159.827 133.391 160.149 130.779 160.471 129.599C160.793 128.418 162.045 121.836 162.689 121.407C163.333 120.978 163.691 121.729 163.691 121.729C163.691 121.729 167.984 121.657 168.055 116.935C168.055 116.935 166.052 114.932 165.909 114.431C165.766 113.93 163.87 112.07 163.87 112.07C163.87 112.07 162.797 110.067 161.58 110.031C161.006 109.998 160.429 110.016 159.858 110.084L158.826 114.288L158.862 118.259L159.148 118.473L158.504 119.439V118.724C158.504 118.724 156.214 116.506 155.857 115.576C155.499 114.646 154.211 112.961 154.211 112.961C154.211 112.961 152.744 110.496 152.709 110.067C152.673 109.637 151.671 108.487 151.671 108.487C151.469 108.463 151.265 108.463 151.063 108.487C150.973 108.493 150.882 108.48 150.797 108.45C150.219 108.265 149.604 108.23 149.01 108.348C147.773 108.605 145.891 109.075 145.375 109.637C144.588 110.496 143.443 111.319 142.155 114.896L149.096 117.4L148.502 118.529L142.978 129.027C142.978 129.027 142.795 129.325 142.547 129.715V129.716C142.225 130.221 141.794 130.881 141.512 131.244C141.011 131.888 141.154 133.927 141.154 133.927C141.154 133.927 141.047 134.893 140.689 135.251C140.331 135.609 140.403 136.932 140.403 136.932L139.472 140.402C139.472 140.402 138.614 141.189 138.614 141.547C138.614 141.905 137.934 142.907 137.934 142.907C137.934 142.907 136.897 144.624 137.934 144.373Z" fill="#434175"/>
<path opacity="0.1" d="M174.566 146.949C174.566 146.949 172.312 147.7 171.704 148.773C171.096 149.847 174.566 146.949 174.566 146.949Z" fill="black"/>
<path opacity="0.1" d="M173.422 144.588C173.35 144.695 170.335 147.721 170.524 148.451C170.713 149.182 173.422 144.588 173.422 144.588Z" fill="black"/>
<path opacity="0.1" d="M156.858 146.734C156.858 146.734 153.496 148.32 153.209 149.012C152.923 149.704 156.858 146.734 156.858 146.734Z" fill="black"/>
<path opacity="0.1" d="M156.644 148.773C156.644 148.773 153.609 150.061 153.195 150.383C152.78 150.705 156.644 148.773 156.644 148.773Z" fill="black"/>
<path opacity="0.1" d="M155.248 151.528C155.248 151.528 153.904 152.53 153.163 151.743C152.422 150.956 155.248 151.528 155.248 151.528Z" fill="black"/>
<path opacity="0.1" d="M160.293 125.413C160.221 125.521 155.749 133.57 154.569 134.178C153.388 134.786 160.293 125.413 160.293 125.413Z" fill="black"/>
<path opacity="0.1" d="M160.078 128.454C160.078 128.633 155.714 137.97 154.998 138.077C154.283 138.185 160.078 128.454 160.078 128.454Z" fill="black"/>
<path opacity="0.1" d="M143.479 134.464C143.479 134.464 141.371 138.965 140.546 139.222C139.72 139.479 143.479 134.464 143.479 134.464Z" fill="black"/>
<path opacity="0.1" d="M143.121 132.461C143.121 132.461 142.395 134.035 141.953 134.035C141.512 134.035 143.121 132.461 143.121 132.461Z" fill="black"/>
<path opacity="0.1" d="M163.441 101.948C163.442 102.604 163.337 103.256 163.132 103.88C163.08 104.04 163.021 104.199 162.953 104.354C162.635 104.305 162.336 104.174 162.085 103.973C161.82 103.793 161.598 103.555 161.436 103.278C161.314 102.983 161.208 102.682 161.119 102.375C160.977 102.029 160.744 101.727 160.446 101.501C160.147 101.275 159.794 101.133 159.422 101.089C159.627 101.439 159.3 101.921 158.898 101.983C158.495 102.044 158.103 101.804 157.826 101.506C157.549 101.207 157.348 100.844 157.073 100.545C156.796 100.246 156.404 100.007 156.001 100.067C155.645 100.121 155.37 100.393 155.071 100.595C154.774 100.797 154.357 100.933 154.069 100.717C153.908 100.597 153.83 100.393 153.676 100.262C153.28 99.9314 152.665 100.273 152.373 100.701C151.924 101.363 151.651 101.763 151.068 102.062C151.064 102.024 151.064 101.985 151.064 101.948C151.064 100.306 151.716 98.732 152.877 97.5714C154.037 96.4108 155.611 95.7588 157.253 95.7588C158.894 95.7588 160.468 96.4108 161.629 97.5714C162.789 98.732 163.441 100.306 163.441 101.948Z" fill="black"/>
<path d="M152.374 100.522C152.665 100.094 153.28 99.7517 153.677 100.084C153.831 100.213 153.909 100.418 154.069 100.538C154.357 100.755 154.774 100.619 155.072 100.416C155.369 100.213 155.645 99.9427 156.001 99.8885C156.404 99.8273 156.796 100.067 157.073 100.366C157.349 100.665 157.55 101.028 157.826 101.327C158.103 101.626 158.495 101.866 158.898 101.804C159.3 101.742 159.628 101.261 159.421 100.91C159.793 100.954 160.147 101.096 160.445 101.322C160.743 101.548 160.976 101.85 161.119 102.196C161.208 102.503 161.313 102.804 161.436 103.099C161.598 103.376 161.82 103.613 162.086 103.793C162.414 104.033 162.812 104.236 163.213 104.167C163.614 104.097 163.953 103.637 163.767 103.275C163.895 103.47 164.17 103.199 164.212 102.97C164.302 102.467 164.274 101.95 164.129 101.46C163.931 100.795 163.517 100.135 163.676 99.4604C163.803 98.9259 164.26 98.5422 164.537 98.068C165.028 97.2276 164.898 96.0954 164.3 95.3268C163.99 94.9501 163.595 94.6517 163.147 94.4556C162.7 94.2596 162.213 94.1714 161.725 94.1981C161.457 94.2289 161.186 94.2339 160.916 94.2132C160.467 94.1465 160.087 93.8574 159.729 93.578L156.732 91.239C156.399 90.9451 156.015 90.714 155.6 90.5566C155.176 90.4253 154.669 90.4706 154.355 90.7841C153.794 91.3452 154.151 92.3107 153.926 93.0715C153.731 93.7304 153.103 94.177 152.452 94.3996C151.802 94.6221 151.107 94.671 150.439 94.8321C150.239 94.865 150.053 94.9518 149.9 95.0831C149.726 95.2969 149.642 95.5694 149.665 95.8436C149.661 96.5167 149.821 97.1806 150.131 97.7781C150.478 98.4455 151.028 99.1314 150.833 99.8579C150.73 100.242 150.434 100.539 150.172 100.839C149.606 101.49 149.415 102.453 150.481 102.117C151.507 101.793 151.795 101.373 152.374 100.522Z" fill="#434175"/>
<g opacity="0.1">
<path opacity="0.1" d="M164.212 102.264C164.171 102.494 163.895 102.765 163.767 102.57C163.954 102.932 163.614 103.391 163.213 103.461C162.812 103.531 162.414 103.328 162.086 103.087C161.82 102.908 161.598 102.671 161.436 102.394C161.314 102.099 161.208 101.797 161.119 101.491C160.976 101.145 160.744 100.843 160.445 100.617C160.147 100.391 159.794 100.248 159.422 100.205C159.629 100.555 159.301 101.037 158.898 101.099C158.496 101.16 158.103 100.92 157.826 100.622C157.55 100.323 157.35 99.9599 157.073 99.6609C156.797 99.3619 156.404 99.122 156.002 99.1832C155.646 99.2374 155.37 99.5081 155.072 99.7109C154.775 99.9138 154.357 100.05 154.07 99.8331C153.91 99.7122 153.831 99.5081 153.677 99.379C153.281 99.0464 152.666 99.3885 152.375 99.8164C151.795 100.668 151.507 101.087 150.481 101.411C150.144 101.518 149.933 101.493 149.82 101.391C149.595 101.908 149.697 102.364 150.481 102.117C151.507 101.793 151.795 101.373 152.375 100.522C152.666 100.094 153.281 99.7517 153.677 100.084C153.831 100.213 153.91 100.418 154.07 100.538C154.357 100.755 154.775 100.619 155.072 100.416C155.37 100.213 155.646 99.9427 156.002 99.8885C156.404 99.8273 156.797 100.067 157.073 100.366C157.35 100.665 157.55 101.028 157.826 101.327C158.103 101.626 158.496 101.866 158.898 101.804C159.301 101.742 159.629 101.261 159.422 100.91C159.794 100.954 160.147 101.096 160.445 101.322C160.744 101.548 160.976 101.85 161.119 102.196C161.208 102.503 161.314 102.804 161.436 103.099C161.598 103.376 161.82 103.613 162.086 103.793C162.414 104.033 162.812 104.236 163.213 104.167C163.614 104.097 163.954 103.637 163.767 103.275C163.895 103.47 164.171 103.199 164.212 102.97C164.268 102.661 164.279 102.346 164.244 102.034C164.236 102.111 164.226 102.188 164.212 102.264Z" fill="black"/>
<path opacity="0.1" d="M150.824 99.1798C150.827 99.1706 150.831 99.162 150.833 99.1526C151.028 98.4261 150.478 97.7402 150.131 97.0729C149.888 96.6023 149.737 96.0894 149.686 95.562C149.673 95.6552 149.666 95.7494 149.666 95.8436C149.662 96.5167 149.821 97.1806 150.131 97.7781C150.368 98.2343 150.7 98.6992 150.824 99.1798Z" fill="black"/>
<path opacity="0.1" d="M164.537 97.3628C164.26 97.8369 163.803 98.2206 163.677 98.7551C163.628 98.9812 163.63 99.2154 163.683 99.4406C163.816 98.9167 164.264 98.5361 164.537 98.0681C164.796 97.6096 164.893 97.0778 164.813 96.5577C164.774 96.8414 164.68 97.1148 164.537 97.3628Z" fill="black"/>
</g>
<path opacity="0.1" d="M142.547 129.715V129.716C142.594 129.913 142.631 130.113 142.656 130.314C142.656 130.314 145.482 136.932 145.84 137.326C145.95 137.447 146.365 138.042 146.887 138.808C147.076 139.085 147.278 139.385 147.486 139.693C148.568 141.298 149.775 143.121 149.775 143.121L152.422 145.447C152.422 145.447 158.181 145.907 160.011 144.038C159.79 143.884 159.649 143.801 159.649 143.801L158.862 143.189C158.455 142.504 156.901 141.836 155.328 141.312C153.878 141.323 152.693 141.44 152.693 141.44L152.316 140.447L151.922 139.411L149.921 134.142C149.921 134.142 148.63 127.488 148.201 127.166C147.772 126.844 147.879 125.843 147.879 125.843C147.879 125.843 148.666 123.017 148.38 122.623C148.094 122.23 148.845 119.332 148.845 119.332C148.77 119.049 148.655 118.779 148.502 118.529L142.978 129.027C142.978 129.027 142.795 129.325 142.547 129.715Z" fill="black"/>
<path d="M148.917 119.117C148.917 119.117 148.166 122.015 148.452 122.408C148.738 122.802 147.951 125.628 147.951 125.628C147.951 125.628 147.844 126.63 148.273 126.952C148.702 127.274 149.993 133.928 149.993 133.928L152.764 141.225C152.764 141.225 161.437 140.367 160.543 143.085C159.649 145.804 152.494 145.232 152.494 145.232L149.847 142.907C149.847 142.907 146.27 137.505 145.912 137.111C145.554 136.718 142.728 130.1 142.728 130.1C142.728 130.1 142.585 128.776 141.977 128.096C141.369 127.417 141.834 126.267 141.834 126.267C141.834 126.267 141.082 117.615 141.869 116.577C142.656 115.54 148.094 116.005 148.917 119.117Z" fill="#EE8E9E"/>
<path opacity="0.1" d="M144.481 113.68L142.227 115.039C142.227 115.039 141.583 117.221 141.082 117.508C141.082 117.508 145.59 115.003 148.988 120.763C148.988 120.763 148.881 120.012 149.346 119.654C149.811 119.296 149.704 117.758 149.704 117.758C149.827 117.515 149.935 117.264 150.026 117.007C150.348 116.22 148.666 111.712 144.481 113.68Z" fill="black"/>
<path d="M144.409 113.537L142.155 114.896C142.155 114.896 141.512 117.078 141.011 117.364C141.011 117.364 145.518 114.86 148.917 120.62C148.917 120.62 148.809 119.869 149.274 119.511C149.739 119.153 149.632 117.615 149.632 117.615C149.756 117.372 149.863 117.121 149.954 116.864C150.276 116.077 148.595 111.569 144.409 113.537Z" fill="#434175"/>
<path d="M124.322 176.185C128.032 176.185 131.04 172.992 131.04 169.054C131.04 165.115 128.032 161.922 124.322 161.922C120.611 161.922 117.603 165.115 117.603 169.054C117.603 172.992 120.611 176.185 124.322 176.185Z" fill="#FBD56F"/>
<path opacity="0.1" d="M124.322 176.185C128.032 176.185 131.04 172.992 131.04 169.054C131.04 165.115 128.032 161.922 124.322 161.922C120.611 161.922 117.603 165.115 117.603 169.054C117.603 172.992 120.611 176.185 124.322 176.185Z" fill="black"/>
<path d="M125.481 176.185C129.192 176.185 132.2 173.064 132.2 169.213C132.2 165.362 129.192 162.24 125.481 162.24C121.771 162.24 118.763 165.362 118.763 169.213C118.763 173.064 121.771 176.185 125.481 176.185Z" fill="#FBD56F"/>
<path d="M28.1257 172.973C32.7086 172.973 36.4237 172.345 36.4237 171.57C36.4237 170.795 32.7086 170.167 28.1257 170.167C23.5429 170.167 19.8278 170.795 19.8278 171.57C19.8278 172.345 23.5429 172.973 28.1257 172.973Z" fill="#008FFF"/>
<path d="M31.5569 169.275C31.9122 168.945 32.2456 168.555 32.348 168.081C32.4504 167.607 32.2483 167.038 31.7952 166.865C31.2875 166.671 30.7449 167.023 30.3336 167.378C29.9223 167.734 29.4508 168.139 28.9125 168.064C29.1894 167.813 29.3966 167.495 29.5138 167.14C29.6311 166.785 29.6544 166.406 29.5816 166.039C29.5579 165.888 29.4936 165.746 29.3955 165.628C29.1136 165.327 28.6027 165.456 28.2653 165.693C27.1921 166.448 26.8926 167.906 26.8868 169.218C26.7785 168.745 26.8697 168.252 26.867 167.766C26.8643 167.281 26.7313 166.743 26.3218 166.482C26.0666 166.345 25.7797 166.277 25.4901 166.286C25.0077 166.269 24.4704 166.317 24.141 166.67C23.7316 167.108 23.8378 167.844 24.1939 168.326C24.55 168.809 25.0917 169.112 25.5903 169.445C25.9903 169.683 26.3314 170.008 26.5883 170.397C26.6184 170.451 26.6432 170.508 26.6622 170.567H29.6866C30.3655 170.223 30.9946 169.788 31.5569 169.275Z" fill="#008FFF"/>
<path d="M103.167 162.423C103.536 162.929 103.839 163.481 104.066 164.065C104.126 164.216 104.185 164.375 104.241 164.541C105.135 167.213 103.718 170.417 103.313 170.071C102.908 169.726 101.646 169.085 101.402 169.986C101.158 170.887 100.257 171.808 100.257 171.808C98.6145 173.46 97.128 171.675 96.1523 169.831C95.8335 169.223 95.55 168.596 95.3033 167.955C95.0867 167.389 94.9623 166.998 94.9623 166.998L101.802 161.17C101.802 161.17 102.464 161.473 103.167 162.423Z" fill="#008FFF"/>
<path d="M92.386 166.15C92.7556 166.656 93.058 167.208 93.2853 167.792C93.3454 167.943 93.4043 168.102 93.4599 168.268C94.3539 170.94 92.9373 174.144 92.5324 173.798C92.1274 173.453 90.8654 172.811 90.6214 173.712C90.3774 174.613 89.476 175.534 89.476 175.534C87.8338 177.186 86.3473 175.402 85.3715 173.558C85.0527 172.949 84.7693 172.323 84.5226 171.682C84.3059 171.116 84.1815 170.724 84.1815 170.724L91.0217 164.896C91.0217 164.896 91.683 165.2 92.386 166.15Z" fill="#008FFF"/>
<path d="M70.7396 171.298C70.7012 171.924 70.5816 172.542 70.3839 173.136C70.3338 173.291 70.2778 173.451 70.2144 173.614C69.1976 176.242 66.0623 177.804 65.9711 177.28C65.8798 176.755 65.3175 175.456 64.5546 175.994C63.7917 176.532 62.51 176.666 62.51 176.666C60.1915 176.89 60.186 174.567 60.6116 172.525C60.7544 171.853 60.9359 171.19 61.1551 170.539C61.3497 169.965 61.5037 169.584 61.5037 169.584L70.4892 169.462C70.4892 169.462 70.8045 170.118 70.7396 171.298Z" fill="#008FFF"/>
<path d="M59.1297 168.37C59.0913 168.996 58.9718 169.613 58.774 170.208C58.7239 170.363 58.668 170.523 58.6046 170.686C57.5877 173.314 54.4525 174.876 54.3612 174.352C54.27 173.827 53.7077 172.528 52.9447 173.066C52.1818 173.604 50.9001 173.738 50.9001 173.738C48.5816 173.962 48.5761 171.639 49.0017 169.597C49.1446 168.925 49.326 168.262 49.5452 167.611C49.7398 167.037 49.8938 166.656 49.8938 166.656L58.8794 166.534C58.8794 166.534 59.1947 167.19 59.1297 168.37Z" fill="#008FFF"/>
<path opacity="0.2" d="M103.167 162.423C103.536 162.929 103.839 163.481 104.066 164.065C104.126 164.216 104.185 164.375 104.241 164.541C105.135 167.213 103.718 170.417 103.313 170.071C102.908 169.726 101.646 169.085 101.402 169.986C101.158 170.887 100.257 171.808 100.257 171.808C98.6145 173.46 97.128 171.675 96.1523 169.831C95.8335 169.223 95.55 168.596 95.3033 167.955C95.0867 167.389 94.9623 166.998 94.9623 166.998L101.802 161.17C101.802 161.17 102.464 161.473 103.167 162.423Z" fill="black"/>
<path opacity="0.2" d="M92.386 166.15C92.7556 166.656 93.058 167.208 93.2853 167.792C93.3454 167.943 93.4043 168.102 93.4599 168.268C94.3539 170.94 92.9373 174.144 92.5324 173.798C92.1274 173.453 90.8654 172.811 90.6214 173.712C90.3774 174.613 89.476 175.534 89.476 175.534C87.8338 177.186 86.3473 175.402 85.3715 173.558C85.0527 172.949 84.7693 172.323 84.5226 171.682C84.3059 171.116 84.1815 170.724 84.1815 170.724L91.0217 164.896C91.0217 164.896 91.683 165.2 92.386 166.15Z" fill="black"/>
<path opacity="0.2" d="M70.7396 171.298C70.7012 171.924 70.5816 172.542 70.3839 173.136C70.3338 173.291 70.2778 173.451 70.2144 173.614C69.1976 176.242 66.0623 177.804 65.9711 177.28C65.8798 176.755 65.3175 175.456 64.5546 175.994C63.7917 176.532 62.51 176.666 62.51 176.666C60.1915 176.89 60.186 174.567 60.6116 172.525C60.7544 171.853 60.9359 171.19 61.1551 170.539C61.3497 169.965 61.5037 169.584 61.5037 169.584L70.4892 169.462C70.4892 169.462 70.8045 170.118 70.7396 171.298Z" fill="black"/>
<path opacity="0.2" d="M59.1297 168.37C59.0913 168.996 58.9718 169.613 58.774 170.208C58.7239 170.363 58.668 170.523 58.6046 170.686C57.5877 173.314 54.4525 174.876 54.3612 174.352C54.27 173.827 53.7077 172.528 52.9447 173.066C52.1818 173.604 50.9001 173.738 50.9001 173.738C48.5816 173.962 48.5761 171.639 49.0017 169.597C49.1446 168.925 49.326 168.262 49.5452 167.611C49.7398 167.037 49.8938 166.656 49.8938 166.656L58.8794 166.534C58.8794 166.534 59.1947 167.19 59.1297 168.37Z" fill="black"/>
<path d="M121.413 128.99C121.413 152.99 113.294 172.445 75.8275 172.445C50.6517 172.445 31.1742 166.19 30.2426 128.99C29.6417 104.998 50.6516 85.5345 75.8275 85.5345C101.003 85.5345 121.413 104.99 121.413 128.99Z" fill="#008FFF"/>
<path opacity="0.2" d="M67.2761 86.2931H67.2825C67.281 86.294 67.2794 86.2945 67.2777 86.2947L67.2761 86.2931Z" fill="black"/>
<path opacity="0.2" d="M67.3654 86.2785C67.4812 86.2599 67.7101 86.2279 68.0429 86.2026L67.3015 86.2905C67.3122 86.2878 67.3255 86.2852 67.3414 86.2825C67.3494 86.2812 67.3561 86.2798 67.3654 86.2785Z" fill="black"/>
<path opacity="0.2" d="M101.049 104.035L97.7216 105.232C96.0254 102.958 94.2004 100.782 92.2554 98.7162C90.1326 96.452 87.8164 94.3771 85.3331 92.5153C76.8137 86.2013 70.2242 86.0402 68.0481 86.2026L73.0498 85.6143C77.777 86.4277 82.3231 88.071 86.4777 90.4683C89.3844 92.1438 92.0915 94.1437 94.5473 96.4296C98.9022 100.472 101.049 104.035 101.049 104.035Z" fill="black"/>
<path opacity="0.2" d="M70.9696 106.297C70.9696 106.297 66.5774 91.6568 70.3041 87.664C70.3041 87.664 76.1603 85.6676 80.5524 96.9806L70.9696 106.297Z" fill="black"/>
<path d="M93.2096 92.6231C93.2096 92.6231 104.857 82.7252 110.01 84.5364C110.01 84.5364 114.188 89.0993 105.589 97.662L93.2096 92.6231Z" fill="#008FFF"/>
<path opacity="0.2" d="M93.2096 92.6231C93.2096 92.6231 104.857 82.7252 110.01 84.5364C110.01 84.5364 114.188 89.0993 105.589 97.662L93.2096 92.6231Z" fill="black"/>
<path d="M129.531 140.037C129.531 152.937 120.274 163.129 111.564 163.129C102.853 163.129 97.9879 152.937 97.9879 140.037C97.9879 127.136 105.064 117.183 113.76 116.679C127.535 115.88 129.531 127.136 129.531 140.037Z" fill="#008FFF"/>
<path opacity="0.2" d="M129.531 140.037C129.531 152.937 120.274 163.129 111.564 163.129C102.853 163.129 97.9879 152.937 97.9879 140.037C97.9879 127.136 105.064 117.183 113.76 116.679C127.535 115.88 129.531 127.136 129.531 140.037Z" fill="black"/>
<path d="M111.031 145.693C112.648 145.693 113.959 144.025 113.959 141.967C113.959 139.909 112.648 138.24 111.031 138.24C109.414 138.24 108.103 139.909 108.103 141.967C108.103 144.025 109.414 145.693 111.031 145.693Z" fill="#008FFF"/>
<path d="M121.412 142.499C123.03 142.499 124.341 140.831 124.341 138.772C124.341 136.714 123.03 135.046 121.412 135.046C119.795 135.046 118.484 136.714 118.484 138.772C118.484 140.831 119.795 142.499 121.412 142.499Z" fill="#008FFF"/>
<path d="M95.1157 94.0259C95.1177 94.8607 94.923 95.6842 94.5474 96.4296C94.0516 97.4202 93.2472 98.2227 92.2555 98.7162C90.1327 96.452 87.8165 94.3772 85.3333 92.5153C85.5545 91.7549 85.9459 91.0549 86.4779 90.4683C86.9365 89.957 87.4974 89.5477 88.1242 89.2668C88.751 88.986 89.4298 88.8398 90.1167 88.8379C92.8771 88.8379 95.1157 91.1604 95.1157 94.0259Z" fill="#FAD46F"/>
</g>
<defs>
<linearGradient id="paint0_linear" x1="162.45" y1="179.901" x2="162.45" y2="89.7328" gradientUnits="userSpaceOnUse">
<stop stop-color="#808080" stop-opacity="0.25"/>
<stop offset="0.53514" stop-color="#808080" stop-opacity="0.12"/>
<stop offset="1" stop-color="#808080" stop-opacity="0.1"/>
</linearGradient>
<clipPath id="clip0">
<rect width="200" height="143.617" fill="white" transform="translate(12 40)"/>
</clipPath>
</defs>
</svg>
