<svg width="120" height="60" viewBox="0 0 120 60" fill="none" xmlns="http://www.w3.org/2000/svg">
<rect x="1" y="1" width="118" height="58" rx="4" fill="#F5F7F7" stroke="#008FFF" stroke-width="2"/>
<path d="M32 14.8125C31.6119 14.8125 31.2969 15.1275 31.2969 15.5156C31.2969 15.9037 31.6119 16.2188 32 16.2188C32.3881 16.2188 32.7031 15.9037 32.7031 15.5156C32.7031 15.1275 32.3881 14.8125 32 14.8125Z" fill="#008FFF"/>
<path d="M46.7656 26.7656C46.7656 18.6239 40.1418 12 32 12C23.8582 12 17.2344 18.6239 17.2344 26.7656C17.2344 33.5499 21.9157 39.482 28.4503 41.0995C28.3385 42.0922 27.9611 43.3102 27.4963 43.7749L27.4871 43.7841C26.1583 43.809 25.1923 44.0055 24.4638 44.398C23.3992 44.973 22.8594 45.9483 22.8594 47.2969C22.8594 47.6851 23.1742 48 23.5625 48H40.4375C40.8258 48 41.1406 47.6851 41.1406 47.2969C41.1406 45.9478 40.6006 44.9725 39.5358 44.398C38.8085 44.0056 37.8425 43.8089 36.5129 43.7841L36.5037 43.7748C36.0389 43.3101 35.6615 42.0921 35.5497 41.0994C42.0844 39.4819 46.7656 33.5498 46.7656 26.7656ZM36.2188 45.1875C38.5552 45.1875 39.4041 45.7281 39.6496 46.5938H24.3518C24.5045 46.048 24.8343 45.7961 25.1314 45.6357C25.6911 45.3341 26.558 45.1875 27.7812 45.1875H36.2188ZM29.1535 43.7812C29.5099 43.0359 29.7328 42.1313 29.8312 41.3716C30.5464 41.4773 31.2728 41.5312 32 41.5312C32.7272 41.5312 33.4536 41.4773 34.1688 41.3716C34.2673 42.1313 34.4901 43.0359 34.8465 43.7812H29.1535ZM34.6729 39.8563C34.6716 39.8566 34.6703 39.8568 34.669 39.8571C32.9261 40.2126 31.0741 40.2127 29.3307 39.857C29.3295 39.8568 29.3283 39.8565 29.3271 39.8563C23.1349 38.5941 18.6406 33.0888 18.6406 26.7656C18.6406 19.3992 24.6336 13.4062 32 13.4062C39.3664 13.4062 45.3594 19.3992 45.3594 26.7656C45.3594 33.0888 40.8651 38.5941 34.6729 39.8563Z" fill="#008FFF"/>
<path d="M41.3947 19.3821C39.7724 17.3217 37.4893 15.8309 34.9657 15.1844C34.5892 15.0877 34.2064 15.3148 34.11 15.691C34.0137 16.0671 34.2405 16.4502 34.6166 16.5466C36.8427 17.117 38.8575 18.4329 40.2899 20.2521C40.5308 20.5581 40.973 20.609 41.2773 20.3695C41.5824 20.1293 41.635 19.6872 41.3947 19.3821Z" fill="#008FFF"/>
<path d="M32 19.0312C27.7353 19.0312 24.2656 22.5009 24.2656 26.7656C24.2656 31.0304 27.7353 34.5 32 34.5C36.2647 34.5 39.7344 31.0304 39.7344 26.7656C39.7344 22.5009 36.2647 19.0312 32 19.0312ZM32 33.0938C28.5107 33.0938 25.6719 30.255 25.6719 26.7656C25.6719 23.2763 28.5107 20.4375 32 20.4375C35.4893 20.4375 38.3281 23.2763 38.3281 26.7656C38.3281 30.255 35.4893 33.0938 32 33.0938Z" fill="#008FFF"/>
<path d="M32 21.8438C29.2861 21.8438 27.0781 24.0517 27.0781 26.7656C27.0781 29.4795 29.2861 31.6875 32 31.6875C34.7139 31.6875 36.9219 29.4795 36.9219 26.7656C36.9219 24.0517 34.7139 21.8438 32 21.8438ZM32 30.2812C30.0615 30.2812 28.4844 28.7041 28.4844 26.7656C28.4844 24.8271 30.0615 23.25 32 23.25C33.9385 23.25 35.5156 24.8271 35.5156 26.7656C35.5156 28.7041 33.9385 30.2812 32 30.2812Z" fill="#008FFF"/>
<path d="M100.351 28.8701C100.351 28.2876 99.8792 27.8154 99.2968 27.8154C98.7143 27.8154 98.2421 28.2876 98.2421 28.8701C98.2421 34.5176 93.6475 39.1123 88 39.1123C82.3525 39.1123 77.7578 34.5176 77.7578 28.8701C77.7578 28.2876 77.2856 27.8154 76.7031 27.8154C76.1207 27.8154 75.6484 28.2876 75.6484 28.8701C75.6484 35.3254 80.6266 40.6392 86.9453 41.1761V45.8904H84.611C84.0285 45.8904 83.5563 46.3626 83.5563 46.9451C83.5563 47.5275 84.0285 47.9998 84.611 47.9998H91.3891C91.9716 47.9998 92.4438 47.5275 92.4438 46.9451C92.4438 46.3626 91.9716 45.8904 91.3891 45.8904H89.0546V41.1761C95.3733 40.6392 100.351 35.3254 100.351 28.8701Z" fill="#008FFF"/>
<path d="M88.0002 12C84.927 12 82.4268 14.5002 82.4268 17.5735V28.8704C82.4268 31.9436 84.927 34.4438 88.0002 34.4438C91.0734 34.4438 93.5737 31.9435 93.5737 28.8703V17.5735C93.5737 14.5002 91.0734 12 88.0002 12ZM91.4643 28.8704C91.4643 30.7805 89.9103 32.3344 88.0002 32.3344C86.0901 32.3344 84.5361 30.7805 84.5361 28.8704V17.5735C84.5361 15.6634 86.0901 14.1094 88.0002 14.1094C89.9103 14.1094 91.4643 15.6634 91.4643 17.5735V28.8704Z" fill="#008FFF"/>
</svg>
