<svg width="36" height="36" viewBox="0 0 36 36" fill="none" xmlns="http://www.w3.org/2000/svg">
<rect width="36" height="36" rx="18" fill="#02B875"/>
<path fill-rule="evenodd" clip-rule="evenodd" d="M23.9689 12.0061C22.3902 10.4255 20.2906 9.55464 18.0538 9.55371C13.4447 9.55371 9.69358 13.3048 9.69172 17.9151C9.6911 19.3889 10.0761 20.8275 10.8079 22.0956L9.62158 26.4287L14.0545 25.2659C15.2759 25.9322 16.651 26.2833 18.0504 26.2837H18.0539C22.6625 26.2837 26.4141 22.5323 26.4158 17.9218C26.4168 15.6874 25.5478 13.5866 23.9689 12.0061ZM18.0538 24.8715H18.0509C16.8039 24.871 15.5808 24.5358 14.5135 23.9027L14.2598 23.752L11.6293 24.4421L12.3314 21.8774L12.1661 21.6144C11.4704 20.5078 11.103 19.2288 11.1036 17.9156C11.105 14.0836 14.223 10.966 18.0566 10.966C19.913 10.9666 21.6581 11.6905 22.9703 13.0042C24.2825 14.3179 25.0047 16.0641 25.0041 17.9213C25.0024 21.7536 21.8847 24.8715 18.0538 24.8715ZM21.8662 19.6661C21.6573 19.5615 20.63 19.0562 20.4384 18.9864C20.247 18.9166 20.1076 18.8819 19.9684 19.091C19.8291 19.3001 19.4287 19.7708 19.3068 19.9101C19.1848 20.0496 19.0631 20.0671 18.8541 19.9625C18.6451 19.8579 17.9719 19.6372 17.1738 18.9254C16.5528 18.3714 16.1335 17.6872 16.0115 17.4781C15.8898 17.2688 16.0105 17.1666 16.1032 17.0517C16.3294 16.7708 16.5558 16.4763 16.6255 16.337C16.6952 16.1975 16.6603 16.0755 16.608 15.9709C16.5558 15.8664 16.138 14.838 15.9639 14.4195C15.7942 14.0122 15.6221 14.0672 15.4937 14.0609C15.372 14.0548 15.2326 14.0535 15.0933 14.0535C14.954 14.0535 14.7276 14.1058 14.5361 14.315C14.3446 14.5242 13.8049 15.0296 13.8049 16.0581C13.8049 17.0865 14.5536 18.08 14.658 18.2195C14.7625 18.3589 16.1314 20.4693 18.2273 21.3742C18.7258 21.5897 19.1149 21.7181 19.4184 21.8145C19.919 21.9735 20.3743 21.951 20.7344 21.8973C21.1359 21.8372 21.9705 21.3918 22.1448 20.9038C22.3188 20.4157 22.3188 19.9974 22.2665 19.9101C22.2144 19.823 22.075 19.7708 21.8662 19.6661Z" fill="white"/>
</svg>
