<svg width="84" height="84" viewBox="0 0 84 84" fill="none" xmlns="http://www.w3.org/2000/svg">
<g clip-path="url(#clip0)">
<path d="M24.387 65.0326C24.387 65.0326 14.9031 47.1528 14.9031 28.7919C14.9031 18.5567 20.3224 9.48441 29.8063 4.06494H37.9353V65.0326H24.387Z" fill="#5A4650"/>
<path d="M59.6128 63.6773C59.6128 63.6773 70.4516 46.0644 70.4516 28.4515C70.4514 12.7381 57.7133 0 41.9999 0H39.2903C32.5161 0 27.0967 4.24609 27.0967 9.48378C27.0967 12.4768 29.523 14.9031 32.516 14.9031H37.9353V63.6771H59.6128V63.6773Z" fill="#64505A"/>
<path d="M25.7418 42.0005C25.7418 43.4971 24.5286 44.7102 23.0322 44.7102C21.5356 44.7102 20.3225 43.4969 20.3225 42.0005C20.3225 39.2909 23.0322 33.8716 23.0322 33.8716C23.0322 33.8716 25.7418 39.2909 25.7418 42.0005Z" fill="#FFE17D"/>
<path d="M23.0322 33.8716C23.0322 33.8716 20.3225 39.2909 20.3225 42.0005C20.3225 43.4969 21.5357 44.7102 23.0322 44.7102V33.8716Z" fill="#FFD164"/>
<path d="M63.6774 42.0005C63.6774 43.4971 62.4641 44.7102 60.9677 44.7102C59.4711 44.7102 58.2581 43.4969 58.2581 42.0005C58.2581 39.2909 60.9677 33.8716 60.9677 33.8716C60.9677 33.8716 63.6774 39.2909 63.6774 42.0005Z" fill="#FFE17D"/>
<path d="M60.9677 33.8716C60.9677 33.8716 58.2581 39.2909 58.2581 42.0005C58.2581 43.4969 59.4713 44.7102 60.9677 44.7102V33.8716Z" fill="#FFD164"/>
<path d="M67.7375 65.827L53.7445 60.8883C51.5777 60.1236 50.1287 58.0756 50.1287 55.7779V48.7734H33.8707V55.7779C33.8707 58.0756 32.4217 60.1236 30.2551 60.8883L16.262 65.827C13.012 66.9742 10.8386 70.0461 10.8386 73.4925V79.9348C10.8386 82.1795 12.6584 83.9992 14.9031 83.9992H69.0966C71.3413 83.9992 73.1611 82.1795 73.1611 79.9348V73.4927C73.1609 70.0461 70.9876 66.9742 67.7375 65.827Z" fill="#E3AA75"/>
<path d="M41.9997 54.1929C44.8787 54.1929 47.6272 53.5655 50.1287 52.4593V48.7734H33.8706V52.4593C36.3722 53.5654 39.1208 54.1929 41.9997 54.1929Z" fill="#D29B6E"/>
<path d="M60.2903 28.4521H59.6129V23.0328C59.6129 18.5432 55.9735 14.9038 51.4839 14.9038H32.5162C28.0266 14.9038 24.3872 18.5432 24.3872 23.0328V28.4521H23.7098C21.8392 28.4521 20.3228 29.9685 20.3228 31.8391C20.3228 33.7098 21.8392 35.2262 23.7098 35.2262H24.4556C25.1496 44.3184 32.7301 51.4843 42.0001 51.4843C51.2701 51.4843 58.8506 44.3184 59.5446 35.2262H60.2905C62.1611 35.2262 63.6775 33.7098 63.6775 31.8391C63.6774 29.9685 62.1609 28.4521 60.2903 28.4521Z" fill="#F5B97D"/>
<path d="M33.8709 32.6343C33.122 32.6343 32.5161 32.0283 32.5161 31.2795V29.9247C32.5161 29.1757 33.1222 28.5698 33.8709 28.5698C34.6197 28.5698 35.2258 29.1759 35.2258 29.9247V31.2795C35.2258 32.0284 34.6197 32.6343 33.8709 32.6343Z" fill="#5A4650"/>
<path d="M50.1288 32.6343C49.3798 32.6343 48.7739 32.0283 48.7739 31.2795V29.9247C48.7739 29.1757 49.38 28.5698 50.1288 28.5698C50.8777 28.5698 51.4836 29.1759 51.4836 29.9247V31.2795C51.4836 32.0284 50.8777 32.6343 50.1288 32.6343Z" fill="#5A4650"/>
<path d="M42 43.3555C39.9665 43.3555 38.0915 42.7032 36.9841 41.6104C36.4509 41.0837 36.4457 40.2265 36.9708 39.6946C37.4988 39.1601 38.3562 39.1562 38.8866 39.6813C39.3378 40.126 40.4227 40.6459 41.9998 40.6459C43.577 40.6459 44.6619 40.126 45.1131 39.6813C45.6437 39.156 46.5011 39.1601 47.0288 39.6946C47.5542 40.2265 47.5488 41.0839 47.0156 41.6104C45.9085 42.7032 44.0336 43.3555 42 43.3555Z" fill="#B67F5F"/>
<path d="M32.5174 27.1812C32.0093 27.1812 31.5238 26.8954 31.2922 26.4065C30.9706 25.7304 31.2603 24.9221 31.9364 24.6018L33.5452 23.8397C34.2187 23.5188 35.0284 23.8079 35.3486 24.484C35.6702 25.1601 35.3804 25.9684 34.7043 26.2887L33.0955 27.0508C32.909 27.1389 32.7118 27.1812 32.5174 27.1812Z" fill="#A06E50"/>
<path d="M51.4825 27.1808C51.2881 27.1808 51.0909 27.1385 50.9044 27.0506L49.2956 26.2885C48.6195 25.9683 48.3297 25.1599 48.6513 24.4838C48.9716 23.8084 49.7825 23.52 50.4547 23.8396L52.0635 24.6016C52.7396 24.9219 53.0293 25.7302 52.7078 26.4063C52.4763 26.895 51.9906 27.1808 51.4825 27.1808Z" fill="#A06E50"/>
<path d="M67.7375 65.828L64.5606 64.7068C59.36 71.4834 51.2022 75.8712 41.9998 75.8712C32.7974 75.8712 24.6394 71.4834 19.4389 64.7068L16.262 65.8282C13.012 66.9751 10.8386 70.0472 10.8386 73.4936V79.9359C10.8386 82.1806 12.6584 84.0004 14.9031 84.0004H69.0966C71.3413 84.0004 73.1611 82.1806 73.1611 79.9359V73.4936C73.1609 70.047 70.9876 66.9751 67.7375 65.828Z" fill="#FF8250"/>
<path d="M42 75.8712C32.7977 75.8712 24.6396 71.4834 19.4391 64.7068L16.7415 65.659C22.4023 73.4846 31.6034 78.581 42 78.581C52.3966 78.581 61.5977 73.4846 67.2585 65.659L64.5607 64.707C59.3602 71.4834 51.2022 75.8712 42 75.8712Z" fill="#DC7346"/>
<path d="M24.387 23.0327V28.452H23.9028C22.1311 28.452 20.5166 29.7267 20.3401 31.4896C20.1369 33.5171 21.7238 35.2261 23.7096 35.2261H24.4554C25.1494 44.3183 32.7299 51.4842 41.9999 51.4842C42.9267 51.4842 43.8303 51.3939 44.7181 51.2558C36.2764 49.953 29.8063 42.6776 29.8063 33.8713V23.0325C29.8063 20.0395 32.2326 17.6132 35.2256 17.6132H50.1288C51.6252 17.6132 52.8385 16.4 52.8385 14.9036H32.5161C28.0265 14.9037 24.387 18.5431 24.387 23.0327Z" fill="#E3AA75"/>
</g>
<defs>
<clipPath id="clip0">
<rect width="84" height="84" fill="white"/>
</clipPath>
</defs>
</svg>
