<svg width="84" height="84" viewBox="0 0 84 84" fill="none" xmlns="http://www.w3.org/2000/svg">
<g clip-path="url(#clip0)">
<path d="M24.387 65.0321C24.387 65.0321 14.9031 47.1523 14.9031 28.7914C14.9031 18.5562 20.3224 9.48392 29.8063 4.06445H37.9353V65.0321H24.387Z" fill="#5A4650"/>
<path d="M59.6128 63.6773C59.6128 63.6773 70.4516 46.0644 70.4516 28.4515C70.4514 12.7381 57.7133 0 41.9999 0H39.2903C32.5161 0 27.0967 4.24609 27.0967 9.48378C27.0967 12.4768 29.523 14.9031 32.516 14.9031H37.9353V63.6771H59.6128V63.6773Z" fill="#64505A"/>
<path d="M25.7418 42C25.7418 43.4966 24.5286 44.7097 23.0322 44.7097C21.5356 44.7097 20.3225 43.4965 20.3225 42C20.3225 39.2904 23.0322 33.8711 23.0322 33.8711C23.0322 33.8711 25.7418 39.2904 25.7418 42Z" fill="#FFE17D"/>
<path d="M23.0322 33.8711C23.0322 33.8711 20.3225 39.2904 20.3225 42C20.3225 43.4965 21.5357 44.7097 23.0322 44.7097V33.8711Z" fill="#FFD164"/>
<path d="M63.6774 42C63.6774 43.4966 62.4641 44.7097 60.9677 44.7097C59.4711 44.7097 58.2581 43.4965 58.2581 42C58.2581 39.2904 60.9677 33.8711 60.9677 33.8711C60.9677 33.8711 63.6774 39.2904 63.6774 42Z" fill="#FFE17D"/>
<path d="M60.9677 33.8711C60.9677 33.8711 58.2581 39.2904 58.2581 42C58.2581 43.4965 59.4713 44.7097 60.9677 44.7097V33.8711Z" fill="#FFD164"/>
<path d="M67.7375 65.827L53.7445 60.8883C51.5777 60.1236 50.1287 58.0756 50.1287 55.7779V48.7734H33.8707V55.7779C33.8707 58.0756 32.4217 60.1236 30.2551 60.8883L16.262 65.827C13.012 66.9742 10.8386 70.0461 10.8386 73.4925V79.9348C10.8386 82.1795 12.6584 83.9992 14.9031 83.9992H69.0966C71.3413 83.9992 73.1611 82.1795 73.1611 79.9348V73.4927C73.1609 70.0461 70.9876 66.9742 67.7375 65.827Z" fill="#E3AA75"/>
<path d="M41.9997 54.1929C44.8787 54.1929 47.6272 53.5655 50.1287 52.4593V48.7734H33.8706V52.4593C36.3722 53.5654 39.1208 54.1929 41.9997 54.1929Z" fill="#D29B6E"/>
<path d="M60.2903 28.4526H59.6129V23.0332C59.6129 18.5437 55.9735 14.9043 51.4839 14.9043H32.5162C28.0266 14.9043 24.3872 18.5437 24.3872 23.0332V28.4526H23.7098C21.8392 28.4526 20.3228 29.969 20.3228 31.8396C20.3228 33.7103 21.8392 35.2267 23.7098 35.2267H24.4556C25.1496 44.3188 32.7301 51.4848 42.0001 51.4848C51.2701 51.4848 58.8506 44.3188 59.5446 35.2267H60.2905C62.1611 35.2267 63.6775 33.7103 63.6775 31.8396C63.6774 29.969 62.1609 28.4526 60.2903 28.4526Z" fill="#F5B97D"/>
<path d="M33.8709 32.6348C33.122 32.6348 32.5161 32.0287 32.5161 31.28V29.9251C32.5161 29.1762 33.1222 28.5703 33.8709 28.5703C34.6197 28.5703 35.2258 29.1764 35.2258 29.9251V31.28C35.2258 32.0289 34.6197 32.6348 33.8709 32.6348Z" fill="#5A4650"/>
<path d="M50.1288 32.6348C49.3798 32.6348 48.7739 32.0287 48.7739 31.28V29.9251C48.7739 29.1762 49.38 28.5703 50.1288 28.5703C50.8777 28.5703 51.4836 29.1764 51.4836 29.9251V31.28C51.4836 32.0289 50.8777 32.6348 50.1288 32.6348Z" fill="#5A4650"/>
<path d="M42 43.356C39.9665 43.356 38.0915 42.7037 36.9841 41.6109C36.4509 41.0842 36.4457 40.227 36.9708 39.6951C37.4988 39.1606 38.3562 39.1567 38.8866 39.6818C39.3378 40.1264 40.4227 40.6464 41.9998 40.6464C43.577 40.6464 44.6619 40.1264 45.1131 39.6818C45.6437 39.1565 46.5011 39.1606 47.0288 39.6951C47.5542 40.227 47.5488 41.0844 47.0156 41.6109C45.9085 42.7037 44.0336 43.356 42 43.356Z" fill="#B67F5F"/>
<path d="M32.5174 27.1814C32.0093 27.1814 31.5238 26.8956 31.2922 26.4067C30.9706 25.7306 31.2603 24.9223 31.9364 24.6021L33.5452 23.84C34.2187 23.5191 35.0284 23.8082 35.3486 24.4843C35.6702 25.1604 35.3804 25.9687 34.7043 26.2889L33.0955 27.051C32.909 27.1391 32.7118 27.1814 32.5174 27.1814Z" fill="#A06E50"/>
<path d="M51.4825 27.1806C51.2881 27.1806 51.0909 27.1383 50.9044 27.0503L49.2956 26.2883C48.6195 25.968 48.3297 25.1597 48.6513 24.4836C48.9716 23.8081 49.7825 23.5197 50.4547 23.8393L52.0635 24.6014C52.7396 24.9216 53.0293 25.73 52.7078 26.4061C52.4763 26.8948 51.9906 27.1806 51.4825 27.1806Z" fill="#A06E50"/>
<path d="M67.7375 65.8282L64.5606 64.707C59.36 71.4836 51.2022 75.8715 41.9998 75.8715C32.7974 75.8715 24.6394 71.4836 19.4389 64.707L16.262 65.8284C13.012 66.9754 10.8386 70.0474 10.8386 73.4939V79.9361C10.8386 82.1808 12.6584 84.0006 14.9031 84.0006H69.0966C71.3413 84.0006 73.1611 82.1808 73.1611 79.9361V73.4939C73.1609 70.0473 70.9876 66.9754 67.7375 65.8282Z" fill="#FF8250"/>
<path d="M42 75.8715C32.7977 75.8715 24.6396 71.4836 19.4391 64.707L16.7415 65.6592C22.4023 73.4849 31.6034 78.5813 42 78.5813C52.3966 78.5813 61.5977 73.4849 67.2585 65.6592L64.5607 64.7072C59.3602 71.4836 51.2022 75.8715 42 75.8715Z" fill="#DC7346"/>
<path d="M24.387 23.0334V28.4527H23.9028C22.1311 28.4527 20.5166 29.7275 20.3401 31.4903C20.1369 33.5178 21.7238 35.2268 23.7096 35.2268H24.4554C25.1494 44.319 32.7299 51.4849 41.9999 51.4849C42.9267 51.4849 43.8303 51.3947 44.7181 51.2565C36.2764 49.9537 29.8063 42.6784 29.8063 33.872V23.0332C29.8063 20.0403 32.2326 17.6139 35.2256 17.6139H50.1288C51.6252 17.6139 52.8385 16.4007 52.8385 14.9043H32.5161C28.0265 14.9045 24.387 18.5439 24.387 23.0334Z" fill="#E3AA75"/>
</g>
<defs>
<clipPath id="clip0">
<rect width="84" height="84" fill="white"/>
</clipPath>
</defs>
</svg>
