<svg width="30" height="30" viewBox="0 0 30 30" fill="none" xmlns="http://www.w3.org/2000/svg">
<rect width="30" height="30" fill="#F5F7F7"/>
<rect width="30" height="30" stroke="#D9DEE1"/>
<path d="M6.31816 13.459L7.8123 10.8906H9.23809L7.08965 14.416L9.28691 18H7.84648L6.31816 15.3926L4.78496 18H3.34941L5.55156 14.416L3.39824 10.8906H4.82402L6.31816 13.459ZM11.6354 17.0137H14.8629V18H10.4V10.8906H11.6354V17.0137ZM19.726 16.1689C19.726 15.8564 19.6153 15.6156 19.3939 15.4463C19.1758 15.277 18.7803 15.1061 18.2074 14.9336C17.6345 14.7611 17.1788 14.569 16.8402 14.3574C16.1924 13.9505 15.8686 13.4199 15.8686 12.7656C15.8686 12.1927 16.1013 11.7207 16.5668 11.3496C17.0355 10.9785 17.6426 10.793 18.3881 10.793C18.8829 10.793 19.324 10.8841 19.7113 11.0664C20.0987 11.2487 20.4031 11.5091 20.6244 11.8477C20.8458 12.1829 20.9564 12.5557 20.9564 12.9658H19.726C19.726 12.5947 19.6088 12.305 19.3744 12.0967C19.1433 11.8851 18.8113 11.7793 18.3783 11.7793C17.9747 11.7793 17.6605 11.8656 17.4359 12.0381C17.2146 12.2106 17.1039 12.4515 17.1039 12.7607C17.1039 13.0212 17.2243 13.2393 17.4652 13.415C17.7061 13.5876 18.1033 13.7568 18.6566 13.9229C19.21 14.0856 19.6544 14.2728 19.9896 14.4844C20.3249 14.6927 20.5707 14.9336 20.727 15.207C20.8832 15.4772 20.9613 15.7946 20.9613 16.1592C20.9613 16.7516 20.7335 17.2236 20.2777 17.5752C19.8253 17.9235 19.21 18.0977 18.432 18.0977C17.9177 18.0977 17.4441 18.0033 17.0111 17.8145C16.5814 17.6224 16.2462 17.3587 16.0053 17.0234C15.7676 16.6882 15.6488 16.2975 15.6488 15.8516H16.8842C16.8842 16.2552 17.0176 16.5677 17.2846 16.7891C17.5515 17.0104 17.934 17.1211 18.432 17.1211C18.8617 17.1211 19.184 17.0348 19.3988 16.8623C19.6169 16.6865 19.726 16.4554 19.726 16.1689ZM24.6916 13.459L26.1857 10.8906H27.6115L25.4631 14.416L27.6604 18H26.2199L24.6916 15.3926L23.1584 18H21.7229L23.925 14.416L21.7717 10.8906H23.1975L24.6916 13.459Z" fill="#83959D"/>
</svg>
